<svg width="600" height="167" viewBox="0 0 600 167" fill="none" xmlns="http://www.w3.org/2000/svg">
<path d="M35.0258 65C36.7538 48.944 38.2658 29.216 39.2738 14.6H49.2818L63.2498 52.976L76.5698 14.6H86.5058C87.4418 29.288 89.3858 51.104 90.8978 65H81.6098C81.2498 50.888 79.9538 33.176 79.1618 23.96H78.5858L64.2578 65H59.9378L44.3138 23.96H43.8818C42.9458 34.112 42.5138 53.336 42.2258 65H35.0258ZM117.176 79.472C114.44 79.472 112.784 77.816 112.784 75.08C112.784 72.272 114.44 70.616 117.176 70.616C119.984 70.616 121.64 72.272 121.64 75.08C121.64 77.816 119.984 79.472 117.176 79.472ZM125.456 47.792C122.864 40.232 119.984 32.528 117.104 25.328C114.584 32.168 111.56 40.232 108.968 47.792H125.456ZM95.2161 65C101.624 49.592 109.04 33.176 114.368 18.704C113.72 17.264 113.144 15.896 112.424 14.6H121.928C126.176 27.056 135.104 51.896 140.72 65H131.144C129.92 61.04 128.552 56.72 127.04 52.256H107.528C106.016 56.864 104.72 61.328 103.928 65H95.2161ZM145.46 65C146.252 49.952 146.324 34.76 145.676 19.424L142.508 14.6H154.1L178.94 53.12C179.228 40.52 179.012 27.416 178.364 14.6H185.06C184.484 31.232 184.412 48.08 185.06 65H177.356C169.436 52.112 160.868 38.576 151.94 26.408C151.724 38.72 152.084 52.544 152.588 65H145.46ZM232.322 14.6C231.674 31.448 231.818 48.296 232.322 65H223.466C223.826 56.576 224.042 48.872 224.042 41.24H203.018C203.09 48.8 203.234 56.432 203.522 65H194.45C195.386 48.008 195.386 31.16 194.45 14.6H203.522C203.234 22.592 203.09 29.792 203.018 36.848H224.042C224.042 29.72 223.826 22.448 223.466 14.6H232.322ZM257.213 65C258.941 48.944 260.453 29.216 261.461 14.6H271.469L285.437 52.976L298.757 14.6H308.693C309.629 29.288 311.573 51.104 313.085 65H303.797C303.437 50.888 302.141 33.176 301.349 23.96H300.773L286.445 65H282.125L266.501 23.96H266.069C265.133 34.112 264.701 53.336 264.413 65H257.213ZM324.892 8.624C327.268 2.504 331.876 0.847998 336.628 3.224C340.012 4.952 342.964 5.744 345.124 1.64L347.644 3.368C344.548 10.712 340.588 11.144 335.908 9.056C331.732 7.112 329.356 6.608 327.052 10.28L324.892 8.624ZM330.148 60.536C337.924 60.536 345.988 60.248 352.252 58.304L351.388 65H321.364C322.156 48.008 322.156 31.16 321.364 14.6H350.164L350.812 20.936C344.476 19.496 337.564 19.064 330.148 19.064C329.932 23.456 329.86 29.72 329.788 36.272H345.484L344.62 40.664H329.86C329.86 48.224 330.004 55.64 330.148 60.536ZM413.587 14.6C412.939 31.448 413.083 48.296 413.587 65H404.731C405.091 56.576 405.307 48.872 405.307 41.24H384.283C384.355 48.8 384.499 56.432 384.787 65H375.715C376.651 48.008 376.651 31.16 375.715 14.6H384.787C384.499 22.592 384.355 29.792 384.283 36.848H405.307C405.307 29.72 405.091 22.448 404.731 14.6H413.587ZM445.789 65.432C429.013 65.432 421.525 52.832 421.525 39.8C421.525 26.768 429.013 14.168 445.789 14.168C448.741 14.168 451.477 14.6 453.853 15.32C458.461 15.104 459.901 11.648 459.901 8.192H466.309C466.309 12.656 464.005 16.4 459.469 17.912C466.669 22.592 469.981 31.088 469.981 39.8C469.981 52.832 462.493 65.432 445.789 65.432ZM445.789 61.472C457.813 61.472 461.125 49.52 461.125 39.8C461.125 30.008 457.813 18.056 445.789 18.056C434.125 18.056 430.453 29.288 430.453 39.8C430.453 49.52 433.765 61.472 445.789 61.472ZM478.671 65C479.463 49.952 479.535 34.76 478.887 19.424L475.719 14.6H487.311L512.151 53.12C512.439 40.52 512.223 27.416 511.575 14.6H518.271C517.695 31.232 517.623 48.08 518.271 65H510.567C502.647 52.112 494.079 38.576 485.151 26.408C484.935 38.72 485.295 52.544 485.799 65H478.671ZM4.9925 151C5.3525 143.152 5.5685 135.376 5.6405 127.6H0.1685L0.8165 123.712H5.6405C5.5685 116.008 5.3525 108.232 4.9925 100.6H18.6725C34.2965 100.6 43.9445 109.96 43.9445 125.872C43.9445 141.64 34.1525 151 18.6725 151H4.9925ZM18.6725 146.464C30.7685 146.464 35.5925 137.176 35.5925 125.872C35.5925 114.352 30.9845 105.064 18.6725 105.064H13.7765C13.6325 111.328 13.4885 117.52 13.4885 123.712H23.2805L22.7765 127.6H13.4885C13.5605 133.936 13.6325 140.2 13.8485 146.464H18.6725ZM74.5175 90.232C74.4455 85.768 79.4135 84.616 79.4135 81.304C79.4135 79 78.0455 78.352 76.0295 78.28C74.4455 78.208 72.0695 79.864 70.9895 81.376L70.1255 77.128C72.2135 75.688 75.0215 74.896 77.6855 74.896C80.8535 74.896 84.5255 76.192 84.5255 80.728C84.5255 86.128 78.4775 86.488 78.1895 90.232H74.5175ZM62.0615 86.56H68.6135L76.2455 97.072H70.4855L65.3015 90.52L60.1175 97.072H54.5015L62.0615 86.56ZM59.9015 146.536C67.6775 146.536 75.7415 146.248 82.0055 144.304L81.1415 151H51.1175C51.9095 134.008 51.9095 117.16 51.1175 100.6H79.9175L80.5655 106.936C74.2295 105.496 67.3175 105.064 59.9015 105.064C59.6855 109.456 59.6135 115.72 59.5415 122.272H75.2375L74.3735 126.664H59.6135C59.6135 134.224 59.7575 141.64 59.9015 146.536ZM494.482 100.6C493.834 117.448 493.978 134.296 494.482 151H485.626C485.986 142.576 486.202 134.872 486.202 127.24H465.178C465.25 134.8 465.394 142.432 465.682 151H456.61C457.546 134.008 457.546 117.16 456.61 100.6H465.682C465.394 108.592 465.25 115.792 465.178 122.848H486.202C486.202 115.72 485.986 108.448 485.626 100.6H494.482ZM526.684 151.432C509.908 151.432 502.42 138.832 502.42 125.8C502.42 112.768 509.908 100.168 526.684 100.168C529.636 100.168 532.372 100.6 534.748 101.32C539.356 101.104 540.796 97.648 540.796 94.192H547.204C547.204 98.656 544.9 102.4 540.364 103.912C547.564 108.592 550.876 117.088 550.876 125.8C550.876 138.832 543.388 151.432 526.684 151.432ZM526.684 147.472C538.708 147.472 542.02 135.52 542.02 125.8C542.02 116.008 538.708 104.056 526.684 104.056C515.02 104.056 511.348 115.288 511.348 125.8C511.348 135.52 514.66 147.472 526.684 147.472ZM559.566 151C560.358 135.952 560.43 120.76 559.782 105.424L556.614 100.6H568.206L593.046 139.12C593.334 126.52 593.118 113.416 592.47 100.6H599.166C598.59 117.232 598.518 134.08 599.166 151H591.462C583.542 138.112 574.974 124.576 566.046 112.408C565.83 124.72 566.19 138.544 566.694 151H559.566Z" fill="url(#paint0_linear_2045_2556)"/>
<path d="M35.0258 65C36.7538 48.944 38.2658 29.216 39.2738 14.6H49.2818L63.2498 52.976L76.5698 14.6H86.5058C87.4418 29.288 89.3858 51.104 90.8978 65H81.6098C81.2498 50.888 79.9538 33.176 79.1618 23.96H78.5858L64.2578 65H59.9378L44.3138 23.96H43.8818C42.9458 34.112 42.5138 53.336 42.2258 65H35.0258ZM117.176 79.472C114.44 79.472 112.784 77.816 112.784 75.08C112.784 72.272 114.44 70.616 117.176 70.616C119.984 70.616 121.64 72.272 121.64 75.08C121.64 77.816 119.984 79.472 117.176 79.472ZM125.456 47.792C122.864 40.232 119.984 32.528 117.104 25.328C114.584 32.168 111.56 40.232 108.968 47.792H125.456ZM95.2161 65C101.624 49.592 109.04 33.176 114.368 18.704C113.72 17.264 113.144 15.896 112.424 14.6H121.928C126.176 27.056 135.104 51.896 140.72 65H131.144C129.92 61.04 128.552 56.72 127.04 52.256H107.528C106.016 56.864 104.72 61.328 103.928 65H95.2161ZM145.46 65C146.252 49.952 146.324 34.76 145.676 19.424L142.508 14.6H154.1L178.94 53.12C179.228 40.52 179.012 27.416 178.364 14.6H185.06C184.484 31.232 184.412 48.08 185.06 65H177.356C169.436 52.112 160.868 38.576 151.94 26.408C151.724 38.72 152.084 52.544 152.588 65H145.46ZM232.322 14.6C231.674 31.448 231.818 48.296 232.322 65H223.466C223.826 56.576 224.042 48.872 224.042 41.24H203.018C203.09 48.8 203.234 56.432 203.522 65H194.45C195.386 48.008 195.386 31.16 194.45 14.6H203.522C203.234 22.592 203.09 29.792 203.018 36.848H224.042C224.042 29.72 223.826 22.448 223.466 14.6H232.322ZM257.213 65C258.941 48.944 260.453 29.216 261.461 14.6H271.469L285.437 52.976L298.757 14.6H308.693C309.629 29.288 311.573 51.104 313.085 65H303.797C303.437 50.888 302.141 33.176 301.349 23.96H300.773L286.445 65H282.125L266.501 23.96H266.069C265.133 34.112 264.701 53.336 264.413 65H257.213ZM324.892 8.624C327.268 2.504 331.876 0.847998 336.628 3.224C340.012 4.952 342.964 5.744 345.124 1.64L347.644 3.368C344.548 10.712 340.588 11.144 335.908 9.056C331.732 7.112 329.356 6.608 327.052 10.28L324.892 8.624ZM330.148 60.536C337.924 60.536 345.988 60.248 352.252 58.304L351.388 65H321.364C322.156 48.008 322.156 31.16 321.364 14.6H350.164L350.812 20.936C344.476 19.496 337.564 19.064 330.148 19.064C329.932 23.456 329.86 29.72 329.788 36.272H345.484L344.62 40.664H329.86C329.86 48.224 330.004 55.64 330.148 60.536ZM413.587 14.6C412.939 31.448 413.083 48.296 413.587 65H404.731C405.091 56.576 405.307 48.872 405.307 41.24H384.283C384.355 48.8 384.499 56.432 384.787 65H375.715C376.651 48.008 376.651 31.16 375.715 14.6H384.787C384.499 22.592 384.355 29.792 384.283 36.848H405.307C405.307 29.72 405.091 22.448 404.731 14.6H413.587ZM445.789 65.432C429.013 65.432 421.525 52.832 421.525 39.8C421.525 26.768 429.013 14.168 445.789 14.168C448.741 14.168 451.477 14.6 453.853 15.32C458.461 15.104 459.901 11.648 459.901 8.192H466.309C466.309 12.656 464.005 16.4 459.469 17.912C466.669 22.592 469.981 31.088 469.981 39.8C469.981 52.832 462.493 65.432 445.789 65.432ZM445.789 61.472C457.813 61.472 461.125 49.52 461.125 39.8C461.125 30.008 457.813 18.056 445.789 18.056C434.125 18.056 430.453 29.288 430.453 39.8C430.453 49.52 433.765 61.472 445.789 61.472ZM478.671 65C479.463 49.952 479.535 34.76 478.887 19.424L475.719 14.6H487.311L512.151 53.12C512.439 40.52 512.223 27.416 511.575 14.6H518.271C517.695 31.232 517.623 48.08 518.271 65H510.567C502.647 52.112 494.079 38.576 485.151 26.408C484.935 38.72 485.295 52.544 485.799 65H478.671ZM4.9925 151C5.3525 143.152 5.5685 135.376 5.6405 127.6H0.1685L0.8165 123.712H5.6405C5.5685 116.008 5.3525 108.232 4.9925 100.6H18.6725C34.2965 100.6 43.9445 109.96 43.9445 125.872C43.9445 141.64 34.1525 151 18.6725 151H4.9925ZM18.6725 146.464C30.7685 146.464 35.5925 137.176 35.5925 125.872C35.5925 114.352 30.9845 105.064 18.6725 105.064H13.7765C13.6325 111.328 13.4885 117.52 13.4885 123.712H23.2805L22.7765 127.6H13.4885C13.5605 133.936 13.6325 140.2 13.8485 146.464H18.6725ZM74.5175 90.232C74.4455 85.768 79.4135 84.616 79.4135 81.304C79.4135 79 78.0455 78.352 76.0295 78.28C74.4455 78.208 72.0695 79.864 70.9895 81.376L70.1255 77.128C72.2135 75.688 75.0215 74.896 77.6855 74.896C80.8535 74.896 84.5255 76.192 84.5255 80.728C84.5255 86.128 78.4775 86.488 78.1895 90.232H74.5175ZM62.0615 86.56H68.6135L76.2455 97.072H70.4855L65.3015 90.52L60.1175 97.072H54.5015L62.0615 86.56ZM59.9015 146.536C67.6775 146.536 75.7415 146.248 82.0055 144.304L81.1415 151H51.1175C51.9095 134.008 51.9095 117.16 51.1175 100.6H79.9175L80.5655 106.936C74.2295 105.496 67.3175 105.064 59.9015 105.064C59.6855 109.456 59.6135 115.72 59.5415 122.272H75.2375L74.3735 126.664H59.6135C59.6135 134.224 59.7575 141.64 59.9015 146.536ZM494.482 100.6C493.834 117.448 493.978 134.296 494.482 151H485.626C485.986 142.576 486.202 134.872 486.202 127.24H465.178C465.25 134.8 465.394 142.432 465.682 151H456.61C457.546 134.008 457.546 117.16 456.61 100.6H465.682C465.394 108.592 465.25 115.792 465.178 122.848H486.202C486.202 115.72 485.986 108.448 485.626 100.6H494.482ZM526.684 151.432C509.908 151.432 502.42 138.832 502.42 125.8C502.42 112.768 509.908 100.168 526.684 100.168C529.636 100.168 532.372 100.6 534.748 101.32C539.356 101.104 540.796 97.648 540.796 94.192H547.204C547.204 98.656 544.9 102.4 540.364 103.912C547.564 108.592 550.876 117.088 550.876 125.8C550.876 138.832 543.388 151.432 526.684 151.432ZM526.684 147.472C538.708 147.472 542.02 135.52 542.02 125.8C542.02 116.008 538.708 104.056 526.684 104.056C515.02 104.056 511.348 115.288 511.348 125.8C511.348 135.52 514.66 147.472 526.684 147.472ZM559.566 151C560.358 135.952 560.43 120.76 559.782 105.424L556.614 100.6H568.206L593.046 139.12C593.334 126.52 593.118 113.416 592.47 100.6H599.166C598.59 117.232 598.518 134.08 599.166 151H591.462C583.542 138.112 574.974 124.576 566.046 112.408C565.83 124.72 566.19 138.544 566.694 151H559.566Z" fill="url(#paint1_linear_2045_2556)" fill-opacity="0.75"/>
<path d="M105.469 151C106.333 134.08 106.333 117.16 105.469 100.6H117.061C127.357 100.6 136.645 102.544 136.645 113.488C136.645 121.12 129.949 125.512 125.053 126.304C134.197 128.392 136.429 147.688 146.005 148.192V150.568C133.765 153.88 130.525 145.744 126.133 138.256C122.533 132.136 120.589 127.6 114.037 127.6C114.109 134.152 114.253 144.52 114.469 151H105.469ZM117.565 123.424C122.749 123.424 128.653 121.912 128.653 114.208C128.653 106.504 122.749 104.776 117.565 104.776H114.325C114.109 112.264 114.037 115.936 114.037 123.424H117.565ZM166.534 166.192C163.798 166.192 162.142 164.536 162.142 161.8C162.142 158.992 163.798 157.336 166.534 157.336C169.342 157.336 170.998 158.992 170.998 161.8C170.998 164.536 169.342 166.192 166.534 166.192ZM166.606 151.216C152.638 151.216 146.806 144.664 146.95 131.416C147.094 120.616 146.95 111.184 146.374 100.6H155.374C154.942 111.328 154.87 120.832 154.942 131.488C155.014 138.976 155.23 146.968 166.606 146.968C177.91 146.968 178.054 138.976 178.198 131.488C178.27 120.832 178.126 111.328 177.766 100.6H180.286C185.254 100.6 186.766 97 186.766 93.472H193.174C193.174 97.864 190.942 101.536 186.55 103.12C186.118 112.696 185.974 121.48 186.118 131.416C186.262 144.664 180.43 151.216 166.606 151.216ZM217.864 151.432C201.376 151.432 193.888 140.272 193.888 125.8C193.888 112.048 202.096 100.168 217.792 100.168C225.28 100.168 231.04 102.688 234.928 106.72L230.824 111.976C227.08 106.72 223.696 104.056 217.792 104.056C206.56 104.056 203.104 115.072 203.104 125.8C203.104 136.456 206.416 147.472 218.368 147.472C223.912 147.472 228.304 144.664 231.76 140.848L235.288 144.88C231.4 148.84 225.64 151.432 217.864 151.432ZM341.297 151C342.161 134.08 342.161 117.16 341.297 100.6H352.889C363.185 100.6 372.473 102.544 372.473 113.488C372.473 121.12 365.777 125.512 360.881 126.304C370.025 128.392 372.257 147.688 381.833 148.192V150.568C369.593 153.88 366.353 145.744 361.961 138.256C358.361 132.136 356.417 127.6 349.865 127.6C349.937 134.152 350.081 144.52 350.297 151H341.297ZM353.393 123.424C358.577 123.424 364.481 121.912 364.481 114.208C364.481 106.504 358.577 104.776 353.393 104.776H350.153C349.937 112.264 349.865 115.936 349.865 123.424H353.393ZM396.478 94.624C398.854 88.504 403.462 86.848 408.214 89.224C411.598 90.952 414.55 91.744 416.71 87.64L419.23 89.368C416.134 96.712 412.174 97.144 407.494 95.056C403.318 93.112 400.942 92.608 398.638 96.28L396.478 94.624ZM407.926 151.432C391.15 151.432 383.662 138.832 383.662 125.8C383.662 112.768 391.15 100.168 407.926 100.168C410.878 100.168 413.614 100.6 415.99 101.32C420.598 101.104 422.038 97.648 422.038 94.192H428.446C428.446 98.656 426.142 102.4 421.606 103.912C428.806 108.592 432.118 117.088 432.118 125.8C432.118 138.832 424.63 151.432 407.926 151.432ZM407.926 147.472C419.95 147.472 423.262 135.52 423.262 125.8C423.262 116.008 419.95 104.056 407.926 104.056C396.262 104.056 392.59 115.288 392.59 125.8C392.59 135.52 395.902 147.472 407.926 147.472Z" fill="url(#paint2_linear_2045_2556)"/>
<defs>
<linearGradient id="paint0_linear_2045_2556" x1="-33" y1="79" x2="604" y2="79" gradientUnits="userSpaceOnUse">
<stop stop-color="#525861"/>
<stop offset="1" stop-color="#97A1A7"/>
</linearGradient>
<linearGradient id="paint1_linear_2045_2556" x1="136" y1="33.6545" x2="218.729" y2="116.235" gradientUnits="userSpaceOnUse">
<stop offset="0.0940377" stop-color="white" stop-opacity="0"/>
<stop offset="0.292723" stop-color="white"/>
<stop offset="0.724446" stop-color="white" stop-opacity="0.775341"/>
<stop offset="1" stop-color="white" stop-opacity="0"/>
</linearGradient>
<linearGradient id="paint2_linear_2045_2556" x1="-33" y1="79" x2="83.8093" y2="79" gradientUnits="userSpaceOnUse">
<stop stop-color="#DDB27C"/>
<stop offset="1" stop-color="#A16D3C"/>
</linearGradient>
</defs>
</svg>
