<svg width="375" height="28" viewBox="0 0 375 28" fill="none" xmlns="http://www.w3.org/2000/svg">
<path d="M5.18809 22.24C4.40409 22.24 3.70009 22.16 3.07609 22C2.45209 21.824 1.91609 21.592 1.46809 21.304C1.03609 21 0.708094 20.648 0.484094 20.248C0.260094 19.848 0.148094 19.408 0.148094 18.928C0.148094 18.56 0.212094 18.256 0.340094 18.016C0.484094 17.76 0.684094 17.568 0.940094 17.44C1.19609 17.312 1.50809 17.248 1.87609 17.248C1.89209 18.288 2.02009 19.168 2.26009 19.888C2.51609 20.592 2.90009 21.12 3.41209 21.472C3.92409 21.824 4.57209 22 5.35609 22C6.38009 22 7.20409 21.704 7.82809 21.112C8.46809 20.504 8.78809 19.616 8.78809 18.448C8.78809 17.728 8.65209 17.144 8.38009 16.696C8.12409 16.248 7.70009 15.848 7.10809 15.496C6.53209 15.128 5.77209 14.728 4.82809 14.296C4.33209 14.056 3.82009 13.8 3.29209 13.528C2.78009 13.24 2.30009 12.904 1.85209 12.52C1.42009 12.12 1.06809 11.64 0.796094 11.08C0.540094 10.504 0.412094 9.824 0.412094 9.04C0.412094 8.08 0.620094 7.272 1.03609 6.616C1.45209 5.96 2.03609 5.464 2.78809 5.128C3.55609 4.792 4.45209 4.624 5.47609 4.624C6.42009 4.624 7.23609 4.752 7.92409 5.008C8.62809 5.264 9.17209 5.6 9.55609 6.016C9.95609 6.432 10.1561 6.888 10.1561 7.384C10.1561 7.848 9.98009 8.216 9.62809 8.488C9.27609 8.744 8.82009 8.872 8.26009 8.872C8.26009 7.544 8.04409 6.544 7.61209 5.872C7.18009 5.2 6.46009 4.864 5.45209 4.864C4.84409 4.864 4.30809 4.992 3.84409 5.248C3.38009 5.488 3.02009 5.856 2.76409 6.352C2.52409 6.832 2.40409 7.44 2.40409 8.176C2.40409 8.96 2.54809 9.592 2.83609 10.072C3.12409 10.552 3.55609 10.968 4.13209 11.32C4.72409 11.656 5.46009 12.032 6.34009 12.448C7.14009 12.816 7.87609 13.2 8.54809 13.6C9.23609 14 9.78809 14.504 10.2041 15.112C10.6201 15.72 10.8281 16.52 10.8281 17.512C10.8281 18.488 10.6041 19.328 10.1561 20.032C9.72409 20.736 9.08409 21.28 8.23609 21.664C7.40409 22.048 6.38809 22.24 5.18809 22.24ZM18.6508 7.456C17.9948 7.456 17.4268 7.336 16.9468 7.096C16.4828 6.84 16.1068 6.48 15.8188 6.016C15.5468 5.552 15.3708 4.992 15.2908 4.336H15.5308C15.6588 4.704 15.8188 5.008 16.0108 5.248C16.2028 5.472 16.5068 5.64 16.9228 5.752C17.3388 5.864 17.9228 5.92 18.6748 5.92C19.3468 5.92 19.8828 5.864 20.2828 5.752C20.6828 5.624 20.9948 5.44 21.2188 5.2C21.4588 4.96 21.6428 4.672 21.7708 4.336H22.0108C21.9308 4.96 21.7468 5.512 21.4588 5.992C21.1868 6.456 20.8108 6.816 20.3308 7.072C19.8668 7.328 19.3068 7.456 18.6508 7.456ZM14.9548 3.424C15.0348 2.672 15.2588 2.056 15.6268 1.576C16.0108 1.08 16.5068 0.831999 17.1148 0.831999C17.4348 0.831999 17.7468 0.895999 18.0508 1.024C18.3548 1.136 18.6588 1.272 18.9628 1.432C19.2828 1.576 19.6028 1.712 19.9228 1.84C20.2588 1.952 20.6028 2.008 20.9548 2.008C21.3388 2.008 21.6268 1.92 21.8188 1.744C22.0108 1.552 22.1628 1.24 22.2748 0.808H22.5148C22.4508 1.576 22.2188 2.2 21.8188 2.68C21.4348 3.16 20.9548 3.4 20.3788 3.4C20.0748 3.4 19.7708 3.344 19.4668 3.232C19.1628 3.104 18.8508 2.968 18.5308 2.824C18.2268 2.664 17.9068 2.528 17.5708 2.416C17.2348 2.304 16.8828 2.248 16.5148 2.248C16.0828 2.248 15.7868 2.344 15.6268 2.536C15.4668 2.728 15.3228 3.024 15.1948 3.424H14.9548ZM17.2108 22.24C15.9948 22.24 15.0268 21.928 14.3068 21.304C13.6028 20.664 13.2508 19.792 13.2508 18.688C13.2508 17.456 13.6988 16.536 14.5948 15.928C15.5068 15.32 16.8828 14.984 18.7228 14.92L20.7148 14.848V13.048C20.7148 12.152 20.6668 11.416 20.5708 10.84C20.4748 10.264 20.2668 9.84 19.9468 9.568C19.6268 9.28 19.1388 9.136 18.4828 9.136C17.5548 9.136 16.9548 9.424 16.6828 10C16.4268 10.576 16.2988 11.48 16.2988 12.712C15.6268 12.712 15.1148 12.6 14.7628 12.376C14.4268 12.152 14.2588 11.784 14.2588 11.272C14.2588 10.696 14.4508 10.24 14.8348 9.904C15.2348 9.552 15.7628 9.296 16.4188 9.136C17.0748 8.976 17.7948 8.896 18.5788 8.896C20.0508 8.896 21.1468 9.208 21.8668 9.832C22.6028 10.456 22.9708 11.528 22.9708 13.048V20.224C22.9708 20.608 23.0188 20.912 23.1148 21.136C23.2108 21.36 23.3708 21.52 23.5948 21.616C23.8188 21.712 24.1068 21.76 24.4588 21.76H24.5308V22H20.9068V19.48H20.8588C20.6988 20.12 20.4428 20.648 20.0908 21.064C19.7388 21.464 19.3148 21.76 18.8188 21.952C18.3388 22.144 17.8028 22.24 17.2108 22.24ZM17.6908 21.904C18.2828 21.904 18.8028 21.752 19.2508 21.448C19.7148 21.144 20.0748 20.736 20.3308 20.224C20.5868 19.712 20.7148 19.16 20.7148 18.568V15.112L19.1788 15.184C17.8188 15.248 16.8748 15.56 16.3468 16.12C15.8348 16.68 15.5788 17.624 15.5788 18.952C15.5788 19.592 15.6508 20.136 15.7948 20.584C15.9548 21.016 16.1948 21.344 16.5148 21.568C16.8348 21.792 17.2268 21.904 17.6908 21.904ZM26.2462 22V21.76H26.4382C26.9342 21.76 27.3262 21.696 27.6142 21.568C27.9022 21.424 28.1022 21.192 28.2142 20.872C28.3422 20.552 28.4062 20.112 28.4062 19.552V11.536C28.4062 10.992 28.3422 10.568 28.2142 10.264C28.1022 9.944 27.9102 9.72 27.6382 9.592C27.3662 9.448 26.9822 9.376 26.4862 9.376H26.3662V9.136H30.6382V11.392H30.6862C30.9102 10.64 31.2222 10.088 31.6222 9.736C32.0222 9.384 32.4542 9.16 32.9182 9.064C33.3982 8.952 33.8382 8.896 34.2382 8.896C35.6622 8.896 36.7182 9.272 37.4062 10.024C38.1102 10.76 38.4622 11.952 38.4622 13.6V19.552C38.4622 20.112 38.5182 20.552 38.6302 20.872C38.7422 21.192 38.9262 21.424 39.1822 21.568C39.4542 21.696 39.8142 21.76 40.2622 21.76H40.3822V22H36.2062V12.784C36.2062 11.744 36.0142 10.896 35.6302 10.24C35.2462 9.584 34.5822 9.256 33.6382 9.256C32.8862 9.256 32.2942 9.456 31.8622 9.856C31.4302 10.256 31.1182 10.776 30.9262 11.416C30.7502 12.04 30.6622 12.696 30.6622 13.384V19.552C30.6622 20.112 30.7182 20.552 30.8302 20.872C30.9582 21.192 31.1582 21.424 31.4302 21.568C31.7182 21.696 32.1022 21.76 32.5822 21.76H32.7022V22H26.2462ZM51.5696 22.24C50.7696 22.24 50.0656 22.144 49.4576 21.952C48.8496 21.76 48.3696 21.48 48.0176 21.112C47.6816 20.728 47.5136 20.256 47.5136 19.696C47.5136 19.264 47.6016 18.928 47.7776 18.688C47.9536 18.448 48.1536 18.28 48.3776 18.184C48.6176 18.088 48.8336 18.04 49.0256 18.04C49.0256 18.904 49.1056 19.632 49.2656 20.224C49.4256 20.8 49.6976 21.24 50.0816 21.544C50.4656 21.848 50.9776 22 51.6176 22C52.4656 22 53.1376 21.784 53.6336 21.352C54.1296 20.904 54.3776 20.248 54.3776 19.384C54.3776 18.824 54.2816 18.384 54.0896 18.064C53.8976 17.728 53.5776 17.432 53.1296 17.176C52.6976 16.92 52.0896 16.624 51.3056 16.288C50.3936 15.888 49.6736 15.504 49.1456 15.136C48.6176 14.752 48.2416 14.336 48.0176 13.888C47.7936 13.44 47.6816 12.912 47.6816 12.304C47.6816 11.216 48.0656 10.384 48.8336 9.808C49.6016 9.216 50.6656 8.92 52.0256 8.92C52.7936 8.92 53.4496 9.024 53.9936 9.232C54.5536 9.424 54.9776 9.688 55.2656 10.024C55.5536 10.36 55.6976 10.728 55.6976 11.128C55.6976 11.56 55.5456 11.912 55.2416 12.184C54.9536 12.44 54.5296 12.568 53.9696 12.568C53.9696 11.336 53.8016 10.464 53.4656 9.952C53.1296 9.424 52.6096 9.16 51.9056 9.16C51.3616 9.16 50.9056 9.248 50.5376 9.424C50.1856 9.6 49.9136 9.856 49.7216 10.192C49.5456 10.528 49.4576 10.952 49.4576 11.464C49.4576 12.024 49.5696 12.472 49.7936 12.808C50.0176 13.144 50.3616 13.432 50.8256 13.672C51.3056 13.912 51.8976 14.184 52.6016 14.488C53.5136 14.856 54.2336 15.232 54.7616 15.616C55.2896 15.984 55.6576 16.4 55.8656 16.864C56.0896 17.312 56.2016 17.848 56.2016 18.472C56.2016 19.72 55.7856 20.664 54.9536 21.304C54.1216 21.928 52.9936 22.24 51.5696 22.24ZM62.4217 22.24C61.2057 22.24 60.2377 21.928 59.5177 21.304C58.8137 20.664 58.4617 19.792 58.4617 18.688C58.4617 17.456 58.9097 16.536 59.8057 15.928C60.7177 15.32 62.0937 14.984 63.9337 14.92L65.9257 14.848V13.048C65.9257 12.152 65.8777 11.416 65.7817 10.84C65.6857 10.264 65.4777 9.84 65.1577 9.568C64.8377 9.28 64.3497 9.136 63.6937 9.136C62.7657 9.136 62.1657 9.424 61.8937 10C61.6377 10.576 61.5097 11.48 61.5097 12.712C60.8377 12.712 60.3257 12.6 59.9737 12.376C59.6377 12.152 59.4697 11.784 59.4697 11.272C59.4697 10.696 59.6617 10.24 60.0457 9.904C60.4457 9.552 60.9737 9.296 61.6297 9.136C62.2857 8.976 63.0057 8.896 63.7897 8.896C65.2617 8.896 66.3577 9.208 67.0777 9.832C67.8137 10.456 68.1817 11.528 68.1817 13.048V20.224C68.1817 20.608 68.2297 20.912 68.3257 21.136C68.4217 21.36 68.5817 21.52 68.8057 21.616C69.0297 21.712 69.3177 21.76 69.6697 21.76H69.7417V22H66.1177V19.48H66.0697C65.9097 20.12 65.6537 20.648 65.3017 21.064C64.9497 21.464 64.5257 21.76 64.0297 21.952C63.5497 22.144 63.0137 22.24 62.4217 22.24ZM62.9017 21.904C63.4937 21.904 64.0137 21.752 64.4617 21.448C64.9257 21.144 65.2857 20.736 65.5417 20.224C65.7977 19.712 65.9257 19.16 65.9257 18.568V15.112L64.3897 15.184C63.0297 15.248 62.0857 15.56 61.5577 16.12C61.0457 16.68 60.7897 17.624 60.7897 18.952C60.7897 19.592 60.8617 20.136 61.0057 20.584C61.1657 21.016 61.4057 21.344 61.7257 21.568C62.0457 21.792 62.4377 21.904 62.9017 21.904ZM64.5577 7.456C64.2537 7.216 63.9097 6.936 63.5257 6.616C63.1417 6.28 62.7577 5.944 62.3737 5.608C62.0057 5.256 61.6617 4.928 61.3417 4.624C61.0377 4.32 60.7977 4.064 60.6217 3.856V3.616H62.7817C62.9577 3.968 63.1577 4.36 63.3817 4.792C63.6057 5.224 63.8377 5.648 64.0777 6.064C64.3337 6.48 64.5737 6.864 64.7977 7.216V7.456H64.5577ZM71.4572 22V21.76H71.6492C72.1452 21.76 72.5372 21.696 72.8252 21.568C73.1132 21.424 73.3132 21.192 73.4252 20.872C73.5532 20.552 73.6172 20.112 73.6172 19.552V11.536C73.6172 10.992 73.5532 10.568 73.4252 10.264C73.3132 9.944 73.1212 9.72 72.8492 9.592C72.5772 9.448 72.1932 9.376 71.6972 9.376H71.5772V9.136H75.8492V11.392H75.8972C76.1212 10.64 76.4332 10.088 76.8332 9.736C77.2332 9.384 77.6652 9.16 78.1292 9.064C78.6092 8.952 79.0492 8.896 79.4492 8.896C80.8732 8.896 81.9292 9.272 82.6172 10.024C83.3212 10.76 83.6732 11.952 83.6732 13.6V19.552C83.6732 20.112 83.7292 20.552 83.8412 20.872C83.9532 21.192 84.1372 21.424 84.3932 21.568C84.6652 21.696 85.0252 21.76 85.4732 21.76H85.5932V22H81.4172V12.784C81.4172 11.744 81.2252 10.896 80.8412 10.24C80.4572 9.584 79.7932 9.256 78.8492 9.256C78.0972 9.256 77.5052 9.456 77.0732 9.856C76.6412 10.256 76.3292 10.776 76.1372 11.416C75.9612 12.04 75.8732 12.696 75.8732 13.384V19.552C75.8732 20.112 75.9292 20.552 76.0412 20.872C76.1692 21.192 76.3692 21.424 76.6412 21.568C76.9292 21.696 77.3132 21.76 77.7932 21.76H77.9132V22H71.4572ZM91.7979 27.76C90.1339 27.76 88.8859 27.456 88.0539 26.848C87.2219 26.256 86.8059 25.464 86.8059 24.472C86.8059 23.912 86.9339 23.424 87.1899 23.008C87.4459 22.608 87.8379 22.288 88.3659 22.048C88.8939 21.808 89.5579 21.688 90.3579 21.688C89.7339 21.496 89.2619 21.184 88.9419 20.752C88.6379 20.32 88.4859 19.864 88.4859 19.384C88.4859 18.92 88.6379 18.48 88.9419 18.064C89.2619 17.632 89.7499 17.304 90.4059 17.08C89.6379 16.808 89.0219 16.36 88.5579 15.736C88.1099 15.096 87.8859 14.296 87.8859 13.336C87.8859 11.96 88.2619 10.88 89.0139 10.096C89.7659 9.296 90.8939 8.896 92.3979 8.896C92.9579 8.896 93.4619 8.968 93.9099 9.112C94.3579 9.24 94.7579 9.432 95.1099 9.688C95.3499 9.432 95.6699 9.152 96.0699 8.848C96.4699 8.544 96.9419 8.392 97.4859 8.392C97.9499 8.392 98.2939 8.52 98.5179 8.776C98.7579 9.016 98.8779 9.312 98.8779 9.664C98.8779 9.984 98.7739 10.248 98.5659 10.456C98.3739 10.664 98.0539 10.768 97.6059 10.768C97.6059 10.256 97.5179 9.88 97.3419 9.64C97.1819 9.4 96.9179 9.28 96.5499 9.28C96.3419 9.28 96.1499 9.32 95.9739 9.4C95.7979 9.464 95.5739 9.608 95.3019 9.832C95.7659 10.216 96.1179 10.704 96.3579 11.296C96.5979 11.888 96.7179 12.544 96.7179 13.264C96.7179 14.448 96.3579 15.432 95.6379 16.216C94.9339 17 93.8539 17.392 92.3979 17.392C92.0939 17.392 91.7979 17.376 91.5099 17.344C91.2379 17.296 90.9739 17.24 90.7179 17.176C90.3339 17.336 90.0699 17.528 89.9259 17.752C89.7819 17.976 89.7099 18.224 89.7099 18.496C89.7099 18.912 89.8539 19.216 90.1419 19.408C90.4459 19.6 90.8939 19.696 91.4859 19.696H94.1979C95.6219 19.696 96.6379 20.032 97.2459 20.704C97.8539 21.376 98.1579 22.232 98.1579 23.272C98.1579 24.648 97.6379 25.736 96.5979 26.536C95.5739 27.352 93.9739 27.76 91.7979 27.76ZM91.9899 27.52C93.5099 27.52 94.6299 27.24 95.3499 26.68C96.0699 26.136 96.4299 25.328 96.4299 24.256C96.4299 23.424 96.2059 22.808 95.7579 22.408C95.3259 22.024 94.6539 21.832 93.7419 21.832H91.1499C90.7179 21.832 90.3019 21.912 89.9019 22.072C89.5179 22.232 89.1979 22.512 88.9419 22.912C88.7019 23.312 88.5819 23.864 88.5819 24.568C88.5819 25.224 88.7179 25.768 88.9899 26.2C89.2619 26.648 89.6459 26.976 90.1419 27.184C90.6539 27.408 91.2699 27.52 91.9899 27.52ZM92.3259 17.152C92.8539 17.152 93.2699 17.016 93.5739 16.744C93.8939 16.472 94.1179 16.048 94.2459 15.472C94.3899 14.896 94.4619 14.16 94.4619 13.264C94.4619 12.32 94.3899 11.544 94.2459 10.936C94.1019 10.328 93.8699 9.88 93.5499 9.592C93.2459 9.288 92.8299 9.136 92.3019 9.136C91.7899 9.136 91.3739 9.296 91.0539 9.616C90.7339 9.92 90.5019 10.376 90.3579 10.984C90.2139 11.592 90.1419 12.36 90.1419 13.288C90.1419 14.168 90.2139 14.896 90.3579 15.472C90.5179 16.048 90.7579 16.472 91.0779 16.744C91.3979 17.016 91.8139 17.152 92.3259 17.152ZM111.399 22.24C110.311 22.24 109.351 22.024 108.519 21.592C107.687 21.144 107.039 20.424 106.575 19.432C106.111 18.44 105.879 17.136 105.879 15.52C105.879 13.872 106.111 12.568 106.575 11.608C107.055 10.632 107.695 9.936 108.495 9.52C109.295 9.104 110.199 8.896 111.207 8.896C111.879 8.896 112.535 8.984 113.175 9.16C113.831 9.336 114.367 9.608 114.783 9.976C115.199 10.328 115.407 10.8 115.407 11.392C115.407 11.744 115.319 12.032 115.143 12.256C114.983 12.464 114.743 12.616 114.423 12.712C114.119 12.808 113.735 12.856 113.271 12.856C113.271 12.008 113.207 11.312 113.079 10.768C112.967 10.208 112.759 9.8 112.455 9.544C112.151 9.272 111.719 9.136 111.159 9.136C110.583 9.136 110.071 9.32 109.623 9.688C109.175 10.04 108.823 10.68 108.567 11.608C108.327 12.52 108.207 13.832 108.207 15.544C108.207 17.112 108.327 18.376 108.567 19.336C108.807 20.28 109.191 20.96 109.719 21.376C110.247 21.792 110.927 22 111.759 22C112.287 22 112.759 21.912 113.175 21.736C113.607 21.56 113.975 21.256 114.279 20.824C114.599 20.376 114.847 19.768 115.023 19C115.183 19.032 115.303 19.112 115.383 19.24C115.479 19.368 115.527 19.544 115.527 19.768C115.527 20.152 115.375 20.536 115.071 20.92C114.767 21.288 114.311 21.6 113.703 21.856C113.095 22.112 112.327 22.24 111.399 22.24ZM116.803 22V21.76H116.995C117.491 21.76 117.883 21.696 118.171 21.568C118.459 21.424 118.659 21.192 118.771 20.872C118.899 20.552 118.963 20.112 118.963 19.552V6.16C118.963 5.616 118.899 5.192 118.771 4.888C118.659 4.568 118.467 4.344 118.195 4.216C117.923 4.072 117.539 4 117.043 4H116.923V3.76H121.219V8.608C121.219 8.912 121.219 9.224 121.219 9.544C121.219 9.848 121.219 10.152 121.219 10.456C121.219 10.76 121.211 11.072 121.195 11.392H121.243C121.467 10.64 121.779 10.088 122.179 9.736C122.579 9.384 123.011 9.16 123.475 9.064C123.955 8.952 124.395 8.896 124.795 8.896C126.219 8.896 127.275 9.272 127.963 10.024C128.667 10.76 129.019 11.952 129.019 13.6V19.552C129.019 20.112 129.075 20.552 129.187 20.872C129.299 21.192 129.483 21.424 129.739 21.568C130.011 21.696 130.371 21.76 130.819 21.76H130.939V22H126.763V12.784C126.763 11.744 126.571 10.896 126.187 10.24C125.803 9.584 125.139 9.256 124.195 9.256C123.443 9.256 122.851 9.456 122.419 9.856C121.987 10.256 121.675 10.776 121.483 11.416C121.307 12.04 121.219 12.696 121.219 13.384V19.552C121.219 20.112 121.275 20.552 121.387 20.872C121.515 21.192 121.715 21.424 121.987 21.568C122.275 21.696 122.659 21.76 123.139 21.76H123.259V22H116.803ZM138.493 22.24C136.765 22.24 135.405 21.688 134.413 20.584C133.421 19.48 132.925 17.8 132.925 15.544C132.925 13.304 133.397 11.64 134.341 10.552C135.301 9.448 136.709 8.896 138.565 8.896C140.293 8.896 141.653 9.448 142.645 10.552C143.637 11.64 144.133 13.304 144.133 15.544C144.133 17.8 143.653 19.48 142.693 20.584C141.749 21.688 140.349 22.24 138.493 22.24ZM138.541 22C139.325 22 139.957 21.784 140.437 21.352C140.917 20.92 141.261 20.232 141.469 19.288C141.693 18.344 141.805 17.096 141.805 15.544C141.805 14.008 141.693 12.768 141.469 11.824C141.261 10.88 140.917 10.2 140.437 9.784C139.957 9.352 139.317 9.136 138.517 9.136C137.733 9.136 137.101 9.352 136.621 9.784C136.141 10.2 135.789 10.88 135.565 11.824C135.357 12.768 135.253 14.008 135.253 15.544C135.253 17.096 135.357 18.344 135.565 19.288C135.789 20.232 136.141 20.92 136.621 21.352C137.117 21.784 137.757 22 138.541 22ZM151.52 22V21.76H151.712C152.192 21.76 152.576 21.696 152.864 21.568C153.152 21.44 153.36 21.24 153.488 20.968C153.616 20.696 153.68 20.344 153.68 19.912V11.248C153.68 10.8 153.616 10.44 153.488 10.168C153.36 9.896 153.152 9.696 152.864 9.568C152.576 9.44 152.192 9.376 151.712 9.376H151.64V9.136H155.912V11.416H155.96C156.184 10.712 156.48 10.184 156.848 9.832C157.232 9.464 157.656 9.216 158.12 9.088C158.584 8.96 159.056 8.896 159.536 8.896C160.384 8.896 161.144 9.104 161.816 9.52C162.504 9.92 163.008 10.688 163.328 11.824H163.376C163.584 10.96 163.872 10.32 164.24 9.904C164.624 9.488 165.048 9.216 165.512 9.088C165.976 8.96 166.432 8.896 166.88 8.896C168.256 8.896 169.272 9.296 169.928 10.096C170.6 10.88 170.936 12.072 170.936 13.672V19.792C170.936 20.272 171 20.656 171.128 20.944C171.256 21.232 171.464 21.44 171.752 21.568C172.056 21.696 172.44 21.76 172.904 21.76H172.976V22H168.68V13.192C168.68 11.864 168.496 10.896 168.128 10.288C167.76 9.68 167.168 9.376 166.352 9.376C165.744 9.376 165.224 9.536 164.792 9.856C164.36 10.16 164.032 10.608 163.808 11.2C163.6 11.792 163.496 12.512 163.496 13.36V19.792C163.496 20.272 163.56 20.656 163.688 20.944C163.816 21.232 164.024 21.44 164.312 21.568C164.616 21.696 165 21.76 165.464 21.76H165.536V22H161.24V13.192C161.24 11.864 161.048 10.896 160.664 10.288C160.296 9.68 159.688 9.376 158.84 9.376C158.2 9.376 157.664 9.536 157.232 9.856C156.8 10.176 156.472 10.656 156.248 11.296C156.04 11.936 155.936 12.736 155.936 13.696V19.792C155.936 20.272 156 20.656 156.128 20.944C156.256 21.232 156.464 21.44 156.752 21.568C157.056 21.696 157.44 21.76 157.904 21.76H157.976V22H151.52ZM180.423 22.24C178.695 22.24 177.335 21.688 176.343 20.584C175.351 19.48 174.855 17.8 174.855 15.544C174.855 13.304 175.327 11.64 176.271 10.552C177.231 9.448 178.639 8.896 180.495 8.896C182.223 8.896 183.583 9.448 184.575 10.552C185.567 11.64 186.063 13.304 186.063 15.544C186.063 17.8 185.583 19.48 184.623 20.584C183.679 21.688 182.279 22.24 180.423 22.24ZM180.471 22C181.255 22 181.887 21.784 182.367 21.352C182.847 20.92 183.191 20.232 183.399 19.288C183.623 18.344 183.735 17.096 183.735 15.544C183.735 14.008 183.623 12.768 183.399 11.824C183.191 10.88 182.847 10.2 182.367 9.784C181.887 9.352 181.247 9.136 180.447 9.136C179.663 9.136 179.031 9.352 178.551 9.784C178.071 10.2 177.719 10.88 177.495 11.824C177.287 12.768 177.183 14.008 177.183 15.544C177.183 17.096 177.287 18.344 177.495 19.288C177.719 20.232 178.071 20.92 178.551 21.352C179.047 21.784 179.687 22 180.471 22ZM176.847 7.216C177.167 6.864 177.487 6.48 177.807 6.064C178.127 5.648 178.431 5.224 178.719 4.792C179.023 4.36 179.279 3.968 179.487 3.616H181.287C181.495 3.968 181.743 4.36 182.031 4.792C182.335 5.224 182.647 5.648 182.967 6.064C183.303 6.48 183.623 6.864 183.927 7.216V7.456H183.687C183.383 7.28 183.015 7.056 182.583 6.784C182.167 6.496 181.759 6.2 181.359 5.896C180.959 5.592 180.639 5.312 180.399 5.056C180.159 5.312 179.831 5.592 179.415 5.896C179.015 6.2 178.599 6.496 178.167 6.784C177.751 7.056 177.391 7.28 177.087 7.456H176.847V7.216ZM180.447 26.392C180.143 26.392 179.887 26.288 179.679 26.08C179.487 25.888 179.391 25.544 179.391 25.048C179.391 24.536 179.487 24.184 179.679 23.992C179.887 23.8 180.143 23.704 180.447 23.704C180.735 23.704 180.983 23.8 181.191 23.992C181.399 24.184 181.503 24.536 181.503 25.048C181.503 25.544 181.399 25.888 181.191 26.08C180.983 26.288 180.735 26.392 180.447 26.392ZM193.147 22.24C191.931 22.24 191.043 21.968 190.483 21.424C189.939 20.864 189.667 19.896 189.667 18.52V9.376H187.843V9.136C188.419 9.136 188.915 9.088 189.331 8.992C189.763 8.88 190.131 8.712 190.435 8.488C190.755 8.264 191.011 7.96 191.203 7.576C191.411 7.192 191.571 6.728 191.683 6.184H191.923V9.136H195.283V9.376H191.923V19.408C191.923 20.24 192.083 20.864 192.403 21.28C192.723 21.696 193.195 21.904 193.819 21.904C194.043 21.904 194.275 21.88 194.515 21.832C194.755 21.784 195.011 21.712 195.283 21.616V21.856C195.075 21.952 194.763 22.04 194.347 22.12C193.931 22.2 193.531 22.24 193.147 22.24ZM201.647 22V21.76H201.839C202.335 21.76 202.727 21.696 203.015 21.568C203.303 21.424 203.503 21.192 203.615 20.872C203.743 20.552 203.807 20.112 203.807 19.552V6.16C203.807 5.616 203.743 5.192 203.615 4.888C203.503 4.568 203.311 4.344 203.039 4.216C202.767 4.072 202.383 4 201.887 4H201.767V3.76H206.063V8.608C206.063 8.912 206.063 9.224 206.063 9.544C206.063 9.848 206.063 10.152 206.063 10.456C206.063 10.76 206.055 11.072 206.039 11.392H206.087C206.311 10.64 206.623 10.088 207.023 9.736C207.423 9.384 207.855 9.16 208.319 9.064C208.799 8.952 209.239 8.896 209.639 8.896C211.063 8.896 212.119 9.272 212.807 10.024C213.511 10.76 213.863 11.952 213.863 13.6V19.552C213.863 20.112 213.919 20.552 214.031 20.872C214.143 21.192 214.327 21.424 214.583 21.568C214.855 21.696 215.215 21.76 215.663 21.76H215.783V22H211.607V12.784C211.607 11.744 211.415 10.896 211.031 10.24C210.647 9.584 209.983 9.256 209.039 9.256C208.287 9.256 207.695 9.456 207.263 9.856C206.831 10.256 206.519 10.776 206.327 11.416C206.151 12.04 206.063 12.696 206.063 13.384V19.552C206.063 20.112 206.119 20.552 206.231 20.872C206.359 21.192 206.559 21.424 206.831 21.568C207.119 21.696 207.503 21.76 207.983 21.76H208.103V22H201.647ZM221.609 22.24C220.393 22.24 219.425 21.928 218.705 21.304C218.001 20.664 217.649 19.792 217.649 18.688C217.649 17.456 218.097 16.536 218.993 15.928C219.905 15.32 221.281 14.984 223.121 14.92L225.113 14.848V13.048C225.113 12.152 225.065 11.416 224.969 10.84C224.873 10.264 224.665 9.84 224.345 9.568C224.025 9.28 223.537 9.136 222.881 9.136C221.953 9.136 221.353 9.424 221.081 10C220.825 10.576 220.697 11.48 220.697 12.712C220.025 12.712 219.513 12.6 219.161 12.376C218.825 12.152 218.657 11.784 218.657 11.272C218.657 10.696 218.849 10.24 219.233 9.904C219.633 9.552 220.161 9.296 220.817 9.136C221.473 8.976 222.193 8.896 222.977 8.896C224.449 8.896 225.545 9.208 226.265 9.832C227.001 10.456 227.369 11.528 227.369 13.048V20.224C227.369 20.608 227.417 20.912 227.513 21.136C227.609 21.36 227.769 21.52 227.993 21.616C228.217 21.712 228.505 21.76 228.857 21.76H228.929V22H225.305V19.48H225.257C225.097 20.12 224.841 20.648 224.489 21.064C224.137 21.464 223.713 21.76 223.217 21.952C222.737 22.144 222.201 22.24 221.609 22.24ZM222.089 21.904C222.681 21.904 223.201 21.752 223.649 21.448C224.113 21.144 224.473 20.736 224.729 20.224C224.985 19.712 225.113 19.16 225.113 18.568V15.112L223.577 15.184C222.217 15.248 221.273 15.56 220.745 16.12C220.233 16.68 219.977 17.624 219.977 18.952C219.977 19.592 220.049 20.136 220.193 20.584C220.353 21.016 220.593 21.344 220.913 21.568C221.233 21.792 221.625 21.904 222.089 21.904ZM223.745 7.456C223.441 7.216 223.097 6.936 222.713 6.616C222.329 6.28 221.945 5.944 221.561 5.608C221.193 5.256 220.849 4.928 220.529 4.624C220.225 4.32 219.985 4.064 219.809 3.856V3.616H221.969C222.145 3.968 222.345 4.36 222.569 4.792C222.793 5.224 223.025 5.648 223.265 6.064C223.521 6.48 223.761 6.864 223.985 7.216V7.456H223.745ZM230.645 22V21.76H230.837C231.333 21.76 231.725 21.696 232.013 21.568C232.301 21.424 232.501 21.192 232.613 20.872C232.741 20.552 232.805 20.112 232.805 19.552V11.536C232.805 10.992 232.741 10.568 232.613 10.264C232.501 9.944 232.309 9.72 232.037 9.592C231.765 9.448 231.381 9.376 230.885 9.376H230.765V9.136H235.037V11.392H235.085C235.309 10.64 235.621 10.088 236.021 9.736C236.421 9.384 236.853 9.16 237.317 9.064C237.797 8.952 238.237 8.896 238.637 8.896C240.061 8.896 241.117 9.272 241.805 10.024C242.509 10.76 242.861 11.952 242.861 13.6V19.552C242.861 20.112 242.917 20.552 243.029 20.872C243.141 21.192 243.325 21.424 243.581 21.568C243.853 21.696 244.213 21.76 244.661 21.76H244.781V22H240.605V12.784C240.605 11.744 240.413 10.896 240.029 10.24C239.645 9.584 238.981 9.256 238.037 9.256C237.285 9.256 236.693 9.456 236.261 9.856C235.829 10.256 235.517 10.776 235.325 11.416C235.149 12.04 235.061 12.696 235.061 13.384V19.552C235.061 20.112 235.117 20.552 235.229 20.872C235.357 21.192 235.557 21.424 235.829 21.568C236.117 21.696 236.501 21.76 236.981 21.76H237.101V22H230.645ZM245.873 22V21.76H246.065C246.561 21.76 246.953 21.696 247.241 21.568C247.529 21.424 247.729 21.192 247.841 20.872C247.969 20.552 248.033 20.112 248.033 19.552V6.16C248.033 5.616 247.969 5.192 247.841 4.888C247.729 4.568 247.537 4.344 247.265 4.216C246.993 4.072 246.609 4 246.113 4H245.993V3.76H250.289V8.608C250.289 8.912 250.289 9.224 250.289 9.544C250.289 9.848 250.289 10.152 250.289 10.456C250.289 10.76 250.281 11.072 250.265 11.392H250.313C250.537 10.64 250.849 10.088 251.249 9.736C251.649 9.384 252.081 9.16 252.545 9.064C253.025 8.952 253.465 8.896 253.865 8.896C255.289 8.896 256.345 9.272 257.033 10.024C257.737 10.76 258.089 11.952 258.089 13.6V19.552C258.089 20.112 258.145 20.552 258.257 20.872C258.369 21.192 258.553 21.424 258.809 21.568C259.081 21.696 259.441 21.76 259.889 21.76H260.009V22H255.833V12.784C255.833 11.744 255.641 10.896 255.257 10.24C254.873 9.584 254.209 9.256 253.265 9.256C252.513 9.256 251.921 9.456 251.489 9.856C251.057 10.256 250.745 10.776 250.553 11.416C250.377 12.04 250.289 12.696 250.289 13.384V19.552C250.289 20.112 250.345 20.552 250.457 20.872C250.585 21.192 250.785 21.424 251.057 21.568C251.345 21.696 251.729 21.76 252.209 21.76H252.329V22H245.873ZM271.826 22.24C270.61 22.24 269.722 21.968 269.162 21.424C268.618 20.864 268.346 19.896 268.346 18.52V9.376H266.522V9.136C267.098 9.136 267.594 9.088 268.01 8.992C268.442 8.88 268.81 8.712 269.114 8.488C269.434 8.264 269.69 7.96 269.882 7.576C270.09 7.192 270.25 6.728 270.362 6.184H270.602V9.136H273.962V9.376H270.602V19.408C270.602 20.24 270.762 20.864 271.082 21.28C271.402 21.696 271.874 21.904 272.498 21.904C272.722 21.904 272.954 21.88 273.194 21.832C273.434 21.784 273.69 21.712 273.962 21.616V21.856C273.754 21.952 273.442 22.04 273.026 22.12C272.61 22.2 272.21 22.24 271.826 22.24ZM275.056 22V21.76H275.368C275.848 21.76 276.232 21.696 276.52 21.568C276.808 21.44 277.016 21.24 277.144 20.968C277.272 20.696 277.336 20.344 277.336 19.912V11.248C277.336 10.8 277.272 10.44 277.144 10.168C277.016 9.896 276.808 9.696 276.52 9.568C276.232 9.44 275.848 9.376 275.368 9.376H275.296V9.136H279.568V11.536H279.616C279.728 11.12 279.896 10.712 280.12 10.312C280.344 9.912 280.68 9.576 281.128 9.304C281.592 9.032 282.208 8.896 282.976 8.896C283.776 8.896 284.384 9.056 284.8 9.376C285.232 9.68 285.448 10.112 285.448 10.672C285.448 11.152 285.272 11.552 284.92 11.872C284.584 12.192 284.016 12.352 283.216 12.352C283.216 11.36 283.048 10.68 282.712 10.312C282.376 9.928 282 9.736 281.584 9.736C281.12 9.736 280.752 9.904 280.48 10.24C280.208 10.56 280.008 10.984 279.88 11.512C279.752 12.024 279.672 12.56 279.64 13.12C279.608 13.664 279.592 14.168 279.592 14.632V19.792C279.592 20.272 279.656 20.656 279.784 20.944C279.912 21.232 280.12 21.44 280.408 21.568C280.712 21.696 281.096 21.76 281.56 21.76H281.872V22H275.056ZM286.353 22V21.76H286.665C287.145 21.76 287.529 21.696 287.817 21.568C288.105 21.44 288.313 21.24 288.441 20.968C288.569 20.696 288.633 20.344 288.633 19.912V11.248C288.633 10.8 288.569 10.44 288.441 10.168C288.313 9.896 288.105 9.696 287.817 9.568C287.529 9.44 287.145 9.376 286.665 9.376H286.593V9.136H290.889V19.792C290.889 20.272 290.953 20.656 291.081 20.944C291.209 21.232 291.417 21.44 291.705 21.568C292.009 21.696 292.393 21.76 292.857 21.76H293.169V22H286.353ZM290.385 7.456C290.081 7.216 289.737 6.936 289.353 6.616C288.969 6.28 288.585 5.944 288.201 5.608C287.833 5.256 287.489 4.928 287.169 4.624C286.865 4.32 286.625 4.064 286.449 3.856V3.616H288.609C288.785 3.968 288.985 4.36 289.209 4.792C289.433 5.224 289.665 5.648 289.905 6.064C290.161 6.48 290.401 6.864 290.625 7.216V7.456H290.385ZM294.16 22V21.76H294.352C294.848 21.76 295.24 21.696 295.528 21.568C295.816 21.424 296.016 21.192 296.128 20.872C296.256 20.552 296.32 20.112 296.32 19.552V11.536C296.32 10.992 296.256 10.568 296.128 10.264C296.016 9.944 295.824 9.72 295.552 9.592C295.28 9.448 294.896 9.376 294.4 9.376H294.28V9.136H298.552V11.392H298.6C298.824 10.64 299.136 10.088 299.536 9.736C299.936 9.384 300.368 9.16 300.832 9.064C301.312 8.952 301.752 8.896 302.152 8.896C303.576 8.896 304.632 9.272 305.32 10.024C306.024 10.76 306.376 11.952 306.376 13.6V19.552C306.376 20.112 306.432 20.552 306.544 20.872C306.656 21.192 306.84 21.424 307.096 21.568C307.368 21.696 307.728 21.76 308.176 21.76H308.296V22H304.12V12.784C304.12 11.744 303.928 10.896 303.544 10.24C303.16 9.584 302.496 9.256 301.552 9.256C300.8 9.256 300.208 9.456 299.776 9.856C299.344 10.256 299.032 10.776 298.84 11.416C298.664 12.04 298.576 12.696 298.576 13.384V19.552C298.576 20.112 298.632 20.552 298.744 20.872C298.872 21.192 299.072 21.424 299.344 21.568C299.632 21.696 300.016 21.76 300.496 21.76H300.616V22H294.16ZM309.389 22V21.76H309.581C310.077 21.76 310.469 21.696 310.757 21.568C311.045 21.424 311.245 21.192 311.357 20.872C311.485 20.552 311.549 20.112 311.549 19.552V6.16C311.549 5.616 311.485 5.192 311.357 4.888C311.245 4.568 311.053 4.344 310.781 4.216C310.509 4.072 310.125 4 309.629 4H309.509V3.76H313.805V8.608C313.805 8.912 313.805 9.224 313.805 9.544C313.805 9.848 313.805 10.152 313.805 10.456C313.805 10.76 313.797 11.072 313.781 11.392H313.829C314.053 10.64 314.365 10.088 314.765 9.736C315.165 9.384 315.597 9.16 316.061 9.064C316.541 8.952 316.981 8.896 317.381 8.896C318.805 8.896 319.861 9.272 320.549 10.024C321.253 10.76 321.605 11.952 321.605 13.6V19.552C321.605 20.112 321.661 20.552 321.773 20.872C321.885 21.192 322.069 21.424 322.325 21.568C322.597 21.696 322.957 21.76 323.405 21.76H323.525V22H319.349V12.784C319.349 11.744 319.157 10.896 318.773 10.24C318.389 9.584 317.725 9.256 316.781 9.256C316.029 9.256 315.437 9.456 315.005 9.856C314.573 10.256 314.261 10.776 314.069 11.416C313.893 12.04 313.805 12.696 313.805 13.384V19.552C313.805 20.112 313.861 20.552 313.973 20.872C314.101 21.192 314.301 21.424 314.573 21.568C314.861 21.696 315.245 21.76 315.725 21.76H315.845V22H309.389ZM330.254 22V21.76H330.446C330.926 21.76 331.31 21.696 331.598 21.568C331.886 21.44 332.094 21.24 332.222 20.968C332.35 20.696 332.414 20.344 332.414 19.912V11.248C332.414 10.8 332.35 10.44 332.222 10.168C332.094 9.896 331.886 9.696 331.598 9.568C331.31 9.44 330.926 9.376 330.446 9.376H330.374V9.136H334.646V11.416H334.694C334.918 10.712 335.214 10.184 335.582 9.832C335.966 9.464 336.39 9.216 336.854 9.088C337.318 8.96 337.79 8.896 338.27 8.896C339.118 8.896 339.878 9.104 340.55 9.52C341.238 9.92 341.742 10.688 342.062 11.824H342.11C342.318 10.96 342.606 10.32 342.974 9.904C343.358 9.488 343.782 9.216 344.246 9.088C344.71 8.96 345.166 8.896 345.614 8.896C346.99 8.896 348.006 9.296 348.662 10.096C349.334 10.88 349.67 12.072 349.67 13.672V19.792C349.67 20.272 349.734 20.656 349.862 20.944C349.99 21.232 350.198 21.44 350.486 21.568C350.79 21.696 351.174 21.76 351.638 21.76H351.71V22H347.414V13.192C347.414 11.864 347.23 10.896 346.862 10.288C346.494 9.68 345.902 9.376 345.086 9.376C344.478 9.376 343.958 9.536 343.526 9.856C343.094 10.16 342.766 10.608 342.542 11.2C342.334 11.792 342.23 12.512 342.23 13.36V19.792C342.23 20.272 342.294 20.656 342.422 20.944C342.55 21.232 342.758 21.44 343.046 21.568C343.35 21.696 343.734 21.76 344.198 21.76H344.27V22H339.974V13.192C339.974 11.864 339.782 10.896 339.398 10.288C339.03 9.68 338.422 9.376 337.574 9.376C336.934 9.376 336.398 9.536 335.966 9.856C335.534 10.176 335.206 10.656 334.982 11.296C334.774 11.936 334.67 12.736 334.67 13.696V19.792C334.67 20.272 334.734 20.656 334.862 20.944C334.99 21.232 335.198 21.44 335.486 21.568C335.79 21.696 336.174 21.76 336.638 21.76H336.71V22H330.254ZM358.582 7.216C358.806 6.864 359.038 6.48 359.278 6.064C359.534 5.648 359.774 5.224 359.998 4.792C360.238 4.36 360.438 3.968 360.598 3.616H362.758V3.856C362.582 4.064 362.334 4.32 362.014 4.624C361.71 4.928 361.366 5.256 360.982 5.608C360.614 5.944 360.238 6.28 359.854 6.616C359.486 6.936 359.142 7.216 358.822 7.456H358.582V7.216ZM359.158 22.24C357.43 22.24 356.07 21.688 355.078 20.584C354.086 19.48 353.59 17.8 353.59 15.544C353.59 13.304 354.062 11.64 355.006 10.552C355.966 9.448 357.374 8.896 359.23 8.896C360.398 8.896 361.398 9.144 362.23 9.64C363.062 10.12 363.694 10.864 364.126 11.872C364.606 11.696 365.006 11.472 365.326 11.2C365.646 10.928 365.806 10.592 365.806 10.192C365.806 9.952 365.75 9.768 365.638 9.64C365.542 9.496 365.422 9.392 365.278 9.328C365.134 9.248 364.982 9.168 364.822 9.088C364.678 8.992 364.55 8.872 364.438 8.728C364.342 8.584 364.294 8.384 364.294 8.128C364.294 7.792 364.406 7.512 364.63 7.288C364.87 7.048 365.214 6.928 365.662 6.928C366.126 6.928 366.486 7.064 366.742 7.336C366.998 7.592 367.126 7.96 367.126 8.44C367.126 9.176 366.918 9.864 366.502 10.504C366.102 11.144 365.342 11.672 364.222 12.088C364.414 12.552 364.558 13.072 364.654 13.648C364.75 14.224 364.798 14.856 364.798 15.544C364.798 17.8 364.318 19.48 363.358 20.584C362.414 21.688 361.014 22.24 359.158 22.24ZM359.206 22C359.99 22 360.622 21.784 361.102 21.352C361.582 20.92 361.926 20.232 362.134 19.288C362.358 18.344 362.47 17.096 362.47 15.544C362.47 14.008 362.358 12.768 362.134 11.824C361.926 10.88 361.582 10.2 361.102 9.784C360.622 9.352 359.982 9.136 359.182 9.136C358.398 9.136 357.766 9.352 357.286 9.784C356.806 10.2 356.454 10.88 356.23 11.824C356.022 12.768 355.918 14.008 355.918 15.544C355.918 17.096 356.022 18.344 356.23 19.288C356.454 20.232 356.806 20.92 357.286 21.352C357.782 21.784 358.422 22 359.206 22ZM367.868 22V21.76H368.18C368.66 21.76 369.044 21.696 369.332 21.568C369.62 21.44 369.828 21.24 369.956 20.968C370.084 20.696 370.148 20.344 370.148 19.912V11.248C370.148 10.8 370.084 10.44 369.956 10.168C369.828 9.896 369.62 9.696 369.332 9.568C369.044 9.44 368.66 9.376 368.18 9.376H368.108V9.136H372.404V19.792C372.404 20.272 372.468 20.656 372.596 20.944C372.724 21.232 372.932 21.44 373.22 21.568C373.524 21.696 373.908 21.76 374.372 21.76H374.684V22H367.868ZM371.156 6.832C370.852 6.832 370.596 6.736 370.388 6.544C370.196 6.336 370.1 5.984 370.1 5.488C370.1 4.976 370.196 4.624 370.388 4.432C370.596 4.24 370.852 4.144 371.156 4.144C371.444 4.144 371.692 4.24 371.9 4.432C372.108 4.624 372.212 4.976 372.212 5.488C372.212 5.984 372.108 6.336 371.9 6.544C371.692 6.736 371.444 6.832 371.156 6.832Z" fill="url(#paint0_linear_2045_2523)"/>
<path d="M5.18809 22.24C4.40409 22.24 3.70009 22.16 3.07609 22C2.45209 21.824 1.91609 21.592 1.46809 21.304C1.03609 21 0.708094 20.648 0.484094 20.248C0.260094 19.848 0.148094 19.408 0.148094 18.928C0.148094 18.56 0.212094 18.256 0.340094 18.016C0.484094 17.76 0.684094 17.568 0.940094 17.44C1.19609 17.312 1.50809 17.248 1.87609 17.248C1.89209 18.288 2.02009 19.168 2.26009 19.888C2.51609 20.592 2.90009 21.12 3.41209 21.472C3.92409 21.824 4.57209 22 5.35609 22C6.38009 22 7.20409 21.704 7.82809 21.112C8.46809 20.504 8.78809 19.616 8.78809 18.448C8.78809 17.728 8.65209 17.144 8.38009 16.696C8.12409 16.248 7.70009 15.848 7.10809 15.496C6.53209 15.128 5.77209 14.728 4.82809 14.296C4.33209 14.056 3.82009 13.8 3.29209 13.528C2.78009 13.24 2.30009 12.904 1.85209 12.52C1.42009 12.12 1.06809 11.64 0.796094 11.08C0.540094 10.504 0.412094 9.824 0.412094 9.04C0.412094 8.08 0.620094 7.272 1.03609 6.616C1.45209 5.96 2.03609 5.464 2.78809 5.128C3.55609 4.792 4.45209 4.624 5.47609 4.624C6.42009 4.624 7.23609 4.752 7.92409 5.008C8.62809 5.264 9.17209 5.6 9.55609 6.016C9.95609 6.432 10.1561 6.888 10.1561 7.384C10.1561 7.848 9.98009 8.216 9.62809 8.488C9.27609 8.744 8.82009 8.872 8.26009 8.872C8.26009 7.544 8.04409 6.544 7.61209 5.872C7.18009 5.2 6.46009 4.864 5.45209 4.864C4.84409 4.864 4.30809 4.992 3.84409 5.248C3.38009 5.488 3.02009 5.856 2.76409 6.352C2.52409 6.832 2.40409 7.44 2.40409 8.176C2.40409 8.96 2.54809 9.592 2.83609 10.072C3.12409 10.552 3.55609 10.968 4.13209 11.32C4.72409 11.656 5.46009 12.032 6.34009 12.448C7.14009 12.816 7.87609 13.2 8.54809 13.6C9.23609 14 9.78809 14.504 10.2041 15.112C10.6201 15.72 10.8281 16.52 10.8281 17.512C10.8281 18.488 10.6041 19.328 10.1561 20.032C9.72409 20.736 9.08409 21.28 8.23609 21.664C7.40409 22.048 6.38809 22.24 5.18809 22.24ZM18.6508 7.456C17.9948 7.456 17.4268 7.336 16.9468 7.096C16.4828 6.84 16.1068 6.48 15.8188 6.016C15.5468 5.552 15.3708 4.992 15.2908 4.336H15.5308C15.6588 4.704 15.8188 5.008 16.0108 5.248C16.2028 5.472 16.5068 5.64 16.9228 5.752C17.3388 5.864 17.9228 5.92 18.6748 5.92C19.3468 5.92 19.8828 5.864 20.2828 5.752C20.6828 5.624 20.9948 5.44 21.2188 5.2C21.4588 4.96 21.6428 4.672 21.7708 4.336H22.0108C21.9308 4.96 21.7468 5.512 21.4588 5.992C21.1868 6.456 20.8108 6.816 20.3308 7.072C19.8668 7.328 19.3068 7.456 18.6508 7.456ZM14.9548 3.424C15.0348 2.672 15.2588 2.056 15.6268 1.576C16.0108 1.08 16.5068 0.831999 17.1148 0.831999C17.4348 0.831999 17.7468 0.895999 18.0508 1.024C18.3548 1.136 18.6588 1.272 18.9628 1.432C19.2828 1.576 19.6028 1.712 19.9228 1.84C20.2588 1.952 20.6028 2.008 20.9548 2.008C21.3388 2.008 21.6268 1.92 21.8188 1.744C22.0108 1.552 22.1628 1.24 22.2748 0.808H22.5148C22.4508 1.576 22.2188 2.2 21.8188 2.68C21.4348 3.16 20.9548 3.4 20.3788 3.4C20.0748 3.4 19.7708 3.344 19.4668 3.232C19.1628 3.104 18.8508 2.968 18.5308 2.824C18.2268 2.664 17.9068 2.528 17.5708 2.416C17.2348 2.304 16.8828 2.248 16.5148 2.248C16.0828 2.248 15.7868 2.344 15.6268 2.536C15.4668 2.728 15.3228 3.024 15.1948 3.424H14.9548ZM17.2108 22.24C15.9948 22.24 15.0268 21.928 14.3068 21.304C13.6028 20.664 13.2508 19.792 13.2508 18.688C13.2508 17.456 13.6988 16.536 14.5948 15.928C15.5068 15.32 16.8828 14.984 18.7228 14.92L20.7148 14.848V13.048C20.7148 12.152 20.6668 11.416 20.5708 10.84C20.4748 10.264 20.2668 9.84 19.9468 9.568C19.6268 9.28 19.1388 9.136 18.4828 9.136C17.5548 9.136 16.9548 9.424 16.6828 10C16.4268 10.576 16.2988 11.48 16.2988 12.712C15.6268 12.712 15.1148 12.6 14.7628 12.376C14.4268 12.152 14.2588 11.784 14.2588 11.272C14.2588 10.696 14.4508 10.24 14.8348 9.904C15.2348 9.552 15.7628 9.296 16.4188 9.136C17.0748 8.976 17.7948 8.896 18.5788 8.896C20.0508 8.896 21.1468 9.208 21.8668 9.832C22.6028 10.456 22.9708 11.528 22.9708 13.048V20.224C22.9708 20.608 23.0188 20.912 23.1148 21.136C23.2108 21.36 23.3708 21.52 23.5948 21.616C23.8188 21.712 24.1068 21.76 24.4588 21.76H24.5308V22H20.9068V19.48H20.8588C20.6988 20.12 20.4428 20.648 20.0908 21.064C19.7388 21.464 19.3148 21.76 18.8188 21.952C18.3388 22.144 17.8028 22.24 17.2108 22.24ZM17.6908 21.904C18.2828 21.904 18.8028 21.752 19.2508 21.448C19.7148 21.144 20.0748 20.736 20.3308 20.224C20.5868 19.712 20.7148 19.16 20.7148 18.568V15.112L19.1788 15.184C17.8188 15.248 16.8748 15.56 16.3468 16.12C15.8348 16.68 15.5788 17.624 15.5788 18.952C15.5788 19.592 15.6508 20.136 15.7948 20.584C15.9548 21.016 16.1948 21.344 16.5148 21.568C16.8348 21.792 17.2268 21.904 17.6908 21.904ZM26.2462 22V21.76H26.4382C26.9342 21.76 27.3262 21.696 27.6142 21.568C27.9022 21.424 28.1022 21.192 28.2142 20.872C28.3422 20.552 28.4062 20.112 28.4062 19.552V11.536C28.4062 10.992 28.3422 10.568 28.2142 10.264C28.1022 9.944 27.9102 9.72 27.6382 9.592C27.3662 9.448 26.9822 9.376 26.4862 9.376H26.3662V9.136H30.6382V11.392H30.6862C30.9102 10.64 31.2222 10.088 31.6222 9.736C32.0222 9.384 32.4542 9.16 32.9182 9.064C33.3982 8.952 33.8382 8.896 34.2382 8.896C35.6622 8.896 36.7182 9.272 37.4062 10.024C38.1102 10.76 38.4622 11.952 38.4622 13.6V19.552C38.4622 20.112 38.5182 20.552 38.6302 20.872C38.7422 21.192 38.9262 21.424 39.1822 21.568C39.4542 21.696 39.8142 21.76 40.2622 21.76H40.3822V22H36.2062V12.784C36.2062 11.744 36.0142 10.896 35.6302 10.24C35.2462 9.584 34.5822 9.256 33.6382 9.256C32.8862 9.256 32.2942 9.456 31.8622 9.856C31.4302 10.256 31.1182 10.776 30.9262 11.416C30.7502 12.04 30.6622 12.696 30.6622 13.384V19.552C30.6622 20.112 30.7182 20.552 30.8302 20.872C30.9582 21.192 31.1582 21.424 31.4302 21.568C31.7182 21.696 32.1022 21.76 32.5822 21.76H32.7022V22H26.2462ZM51.5696 22.24C50.7696 22.24 50.0656 22.144 49.4576 21.952C48.8496 21.76 48.3696 21.48 48.0176 21.112C47.6816 20.728 47.5136 20.256 47.5136 19.696C47.5136 19.264 47.6016 18.928 47.7776 18.688C47.9536 18.448 48.1536 18.28 48.3776 18.184C48.6176 18.088 48.8336 18.04 49.0256 18.04C49.0256 18.904 49.1056 19.632 49.2656 20.224C49.4256 20.8 49.6976 21.24 50.0816 21.544C50.4656 21.848 50.9776 22 51.6176 22C52.4656 22 53.1376 21.784 53.6336 21.352C54.1296 20.904 54.3776 20.248 54.3776 19.384C54.3776 18.824 54.2816 18.384 54.0896 18.064C53.8976 17.728 53.5776 17.432 53.1296 17.176C52.6976 16.92 52.0896 16.624 51.3056 16.288C50.3936 15.888 49.6736 15.504 49.1456 15.136C48.6176 14.752 48.2416 14.336 48.0176 13.888C47.7936 13.44 47.6816 12.912 47.6816 12.304C47.6816 11.216 48.0656 10.384 48.8336 9.808C49.6016 9.216 50.6656 8.92 52.0256 8.92C52.7936 8.92 53.4496 9.024 53.9936 9.232C54.5536 9.424 54.9776 9.688 55.2656 10.024C55.5536 10.36 55.6976 10.728 55.6976 11.128C55.6976 11.56 55.5456 11.912 55.2416 12.184C54.9536 12.44 54.5296 12.568 53.9696 12.568C53.9696 11.336 53.8016 10.464 53.4656 9.952C53.1296 9.424 52.6096 9.16 51.9056 9.16C51.3616 9.16 50.9056 9.248 50.5376 9.424C50.1856 9.6 49.9136 9.856 49.7216 10.192C49.5456 10.528 49.4576 10.952 49.4576 11.464C49.4576 12.024 49.5696 12.472 49.7936 12.808C50.0176 13.144 50.3616 13.432 50.8256 13.672C51.3056 13.912 51.8976 14.184 52.6016 14.488C53.5136 14.856 54.2336 15.232 54.7616 15.616C55.2896 15.984 55.6576 16.4 55.8656 16.864C56.0896 17.312 56.2016 17.848 56.2016 18.472C56.2016 19.72 55.7856 20.664 54.9536 21.304C54.1216 21.928 52.9936 22.24 51.5696 22.24ZM62.4217 22.24C61.2057 22.24 60.2377 21.928 59.5177 21.304C58.8137 20.664 58.4617 19.792 58.4617 18.688C58.4617 17.456 58.9097 16.536 59.8057 15.928C60.7177 15.32 62.0937 14.984 63.9337 14.92L65.9257 14.848V13.048C65.9257 12.152 65.8777 11.416 65.7817 10.84C65.6857 10.264 65.4777 9.84 65.1577 9.568C64.8377 9.28 64.3497 9.136 63.6937 9.136C62.7657 9.136 62.1657 9.424 61.8937 10C61.6377 10.576 61.5097 11.48 61.5097 12.712C60.8377 12.712 60.3257 12.6 59.9737 12.376C59.6377 12.152 59.4697 11.784 59.4697 11.272C59.4697 10.696 59.6617 10.24 60.0457 9.904C60.4457 9.552 60.9737 9.296 61.6297 9.136C62.2857 8.976 63.0057 8.896 63.7897 8.896C65.2617 8.896 66.3577 9.208 67.0777 9.832C67.8137 10.456 68.1817 11.528 68.1817 13.048V20.224C68.1817 20.608 68.2297 20.912 68.3257 21.136C68.4217 21.36 68.5817 21.52 68.8057 21.616C69.0297 21.712 69.3177 21.76 69.6697 21.76H69.7417V22H66.1177V19.48H66.0697C65.9097 20.12 65.6537 20.648 65.3017 21.064C64.9497 21.464 64.5257 21.76 64.0297 21.952C63.5497 22.144 63.0137 22.24 62.4217 22.24ZM62.9017 21.904C63.4937 21.904 64.0137 21.752 64.4617 21.448C64.9257 21.144 65.2857 20.736 65.5417 20.224C65.7977 19.712 65.9257 19.16 65.9257 18.568V15.112L64.3897 15.184C63.0297 15.248 62.0857 15.56 61.5577 16.12C61.0457 16.68 60.7897 17.624 60.7897 18.952C60.7897 19.592 60.8617 20.136 61.0057 20.584C61.1657 21.016 61.4057 21.344 61.7257 21.568C62.0457 21.792 62.4377 21.904 62.9017 21.904ZM64.5577 7.456C64.2537 7.216 63.9097 6.936 63.5257 6.616C63.1417 6.28 62.7577 5.944 62.3737 5.608C62.0057 5.256 61.6617 4.928 61.3417 4.624C61.0377 4.32 60.7977 4.064 60.6217 3.856V3.616H62.7817C62.9577 3.968 63.1577 4.36 63.3817 4.792C63.6057 5.224 63.8377 5.648 64.0777 6.064C64.3337 6.48 64.5737 6.864 64.7977 7.216V7.456H64.5577ZM71.4572 22V21.76H71.6492C72.1452 21.76 72.5372 21.696 72.8252 21.568C73.1132 21.424 73.3132 21.192 73.4252 20.872C73.5532 20.552 73.6172 20.112 73.6172 19.552V11.536C73.6172 10.992 73.5532 10.568 73.4252 10.264C73.3132 9.944 73.1212 9.72 72.8492 9.592C72.5772 9.448 72.1932 9.376 71.6972 9.376H71.5772V9.136H75.8492V11.392H75.8972C76.1212 10.64 76.4332 10.088 76.8332 9.736C77.2332 9.384 77.6652 9.16 78.1292 9.064C78.6092 8.952 79.0492 8.896 79.4492 8.896C80.8732 8.896 81.9292 9.272 82.6172 10.024C83.3212 10.76 83.6732 11.952 83.6732 13.6V19.552C83.6732 20.112 83.7292 20.552 83.8412 20.872C83.9532 21.192 84.1372 21.424 84.3932 21.568C84.6652 21.696 85.0252 21.76 85.4732 21.76H85.5932V22H81.4172V12.784C81.4172 11.744 81.2252 10.896 80.8412 10.24C80.4572 9.584 79.7932 9.256 78.8492 9.256C78.0972 9.256 77.5052 9.456 77.0732 9.856C76.6412 10.256 76.3292 10.776 76.1372 11.416C75.9612 12.04 75.8732 12.696 75.8732 13.384V19.552C75.8732 20.112 75.9292 20.552 76.0412 20.872C76.1692 21.192 76.3692 21.424 76.6412 21.568C76.9292 21.696 77.3132 21.76 77.7932 21.76H77.9132V22H71.4572ZM91.7979 27.76C90.1339 27.76 88.8859 27.456 88.0539 26.848C87.2219 26.256 86.8059 25.464 86.8059 24.472C86.8059 23.912 86.9339 23.424 87.1899 23.008C87.4459 22.608 87.8379 22.288 88.3659 22.048C88.8939 21.808 89.5579 21.688 90.3579 21.688C89.7339 21.496 89.2619 21.184 88.9419 20.752C88.6379 20.32 88.4859 19.864 88.4859 19.384C88.4859 18.92 88.6379 18.48 88.9419 18.064C89.2619 17.632 89.7499 17.304 90.4059 17.08C89.6379 16.808 89.0219 16.36 88.5579 15.736C88.1099 15.096 87.8859 14.296 87.8859 13.336C87.8859 11.96 88.2619 10.88 89.0139 10.096C89.7659 9.296 90.8939 8.896 92.3979 8.896C92.9579 8.896 93.4619 8.968 93.9099 9.112C94.3579 9.24 94.7579 9.432 95.1099 9.688C95.3499 9.432 95.6699 9.152 96.0699 8.848C96.4699 8.544 96.9419 8.392 97.4859 8.392C97.9499 8.392 98.2939 8.52 98.5179 8.776C98.7579 9.016 98.8779 9.312 98.8779 9.664C98.8779 9.984 98.7739 10.248 98.5659 10.456C98.3739 10.664 98.0539 10.768 97.6059 10.768C97.6059 10.256 97.5179 9.88 97.3419 9.64C97.1819 9.4 96.9179 9.28 96.5499 9.28C96.3419 9.28 96.1499 9.32 95.9739 9.4C95.7979 9.464 95.5739 9.608 95.3019 9.832C95.7659 10.216 96.1179 10.704 96.3579 11.296C96.5979 11.888 96.7179 12.544 96.7179 13.264C96.7179 14.448 96.3579 15.432 95.6379 16.216C94.9339 17 93.8539 17.392 92.3979 17.392C92.0939 17.392 91.7979 17.376 91.5099 17.344C91.2379 17.296 90.9739 17.24 90.7179 17.176C90.3339 17.336 90.0699 17.528 89.9259 17.752C89.7819 17.976 89.7099 18.224 89.7099 18.496C89.7099 18.912 89.8539 19.216 90.1419 19.408C90.4459 19.6 90.8939 19.696 91.4859 19.696H94.1979C95.6219 19.696 96.6379 20.032 97.2459 20.704C97.8539 21.376 98.1579 22.232 98.1579 23.272C98.1579 24.648 97.6379 25.736 96.5979 26.536C95.5739 27.352 93.9739 27.76 91.7979 27.76ZM91.9899 27.52C93.5099 27.52 94.6299 27.24 95.3499 26.68C96.0699 26.136 96.4299 25.328 96.4299 24.256C96.4299 23.424 96.2059 22.808 95.7579 22.408C95.3259 22.024 94.6539 21.832 93.7419 21.832H91.1499C90.7179 21.832 90.3019 21.912 89.9019 22.072C89.5179 22.232 89.1979 22.512 88.9419 22.912C88.7019 23.312 88.5819 23.864 88.5819 24.568C88.5819 25.224 88.7179 25.768 88.9899 26.2C89.2619 26.648 89.6459 26.976 90.1419 27.184C90.6539 27.408 91.2699 27.52 91.9899 27.52ZM92.3259 17.152C92.8539 17.152 93.2699 17.016 93.5739 16.744C93.8939 16.472 94.1179 16.048 94.2459 15.472C94.3899 14.896 94.4619 14.16 94.4619 13.264C94.4619 12.32 94.3899 11.544 94.2459 10.936C94.1019 10.328 93.8699 9.88 93.5499 9.592C93.2459 9.288 92.8299 9.136 92.3019 9.136C91.7899 9.136 91.3739 9.296 91.0539 9.616C90.7339 9.92 90.5019 10.376 90.3579 10.984C90.2139 11.592 90.1419 12.36 90.1419 13.288C90.1419 14.168 90.2139 14.896 90.3579 15.472C90.5179 16.048 90.7579 16.472 91.0779 16.744C91.3979 17.016 91.8139 17.152 92.3259 17.152ZM111.399 22.24C110.311 22.24 109.351 22.024 108.519 21.592C107.687 21.144 107.039 20.424 106.575 19.432C106.111 18.44 105.879 17.136 105.879 15.52C105.879 13.872 106.111 12.568 106.575 11.608C107.055 10.632 107.695 9.936 108.495 9.52C109.295 9.104 110.199 8.896 111.207 8.896C111.879 8.896 112.535 8.984 113.175 9.16C113.831 9.336 114.367 9.608 114.783 9.976C115.199 10.328 115.407 10.8 115.407 11.392C115.407 11.744 115.319 12.032 115.143 12.256C114.983 12.464 114.743 12.616 114.423 12.712C114.119 12.808 113.735 12.856 113.271 12.856C113.271 12.008 113.207 11.312 113.079 10.768C112.967 10.208 112.759 9.8 112.455 9.544C112.151 9.272 111.719 9.136 111.159 9.136C110.583 9.136 110.071 9.32 109.623 9.688C109.175 10.04 108.823 10.68 108.567 11.608C108.327 12.52 108.207 13.832 108.207 15.544C108.207 17.112 108.327 18.376 108.567 19.336C108.807 20.28 109.191 20.96 109.719 21.376C110.247 21.792 110.927 22 111.759 22C112.287 22 112.759 21.912 113.175 21.736C113.607 21.56 113.975 21.256 114.279 20.824C114.599 20.376 114.847 19.768 115.023 19C115.183 19.032 115.303 19.112 115.383 19.24C115.479 19.368 115.527 19.544 115.527 19.768C115.527 20.152 115.375 20.536 115.071 20.92C114.767 21.288 114.311 21.6 113.703 21.856C113.095 22.112 112.327 22.24 111.399 22.24ZM116.803 22V21.76H116.995C117.491 21.76 117.883 21.696 118.171 21.568C118.459 21.424 118.659 21.192 118.771 20.872C118.899 20.552 118.963 20.112 118.963 19.552V6.16C118.963 5.616 118.899 5.192 118.771 4.888C118.659 4.568 118.467 4.344 118.195 4.216C117.923 4.072 117.539 4 117.043 4H116.923V3.76H121.219V8.608C121.219 8.912 121.219 9.224 121.219 9.544C121.219 9.848 121.219 10.152 121.219 10.456C121.219 10.76 121.211 11.072 121.195 11.392H121.243C121.467 10.64 121.779 10.088 122.179 9.736C122.579 9.384 123.011 9.16 123.475 9.064C123.955 8.952 124.395 8.896 124.795 8.896C126.219 8.896 127.275 9.272 127.963 10.024C128.667 10.76 129.019 11.952 129.019 13.6V19.552C129.019 20.112 129.075 20.552 129.187 20.872C129.299 21.192 129.483 21.424 129.739 21.568C130.011 21.696 130.371 21.76 130.819 21.76H130.939V22H126.763V12.784C126.763 11.744 126.571 10.896 126.187 10.24C125.803 9.584 125.139 9.256 124.195 9.256C123.443 9.256 122.851 9.456 122.419 9.856C121.987 10.256 121.675 10.776 121.483 11.416C121.307 12.04 121.219 12.696 121.219 13.384V19.552C121.219 20.112 121.275 20.552 121.387 20.872C121.515 21.192 121.715 21.424 121.987 21.568C122.275 21.696 122.659 21.76 123.139 21.76H123.259V22H116.803ZM138.493 22.24C136.765 22.24 135.405 21.688 134.413 20.584C133.421 19.48 132.925 17.8 132.925 15.544C132.925 13.304 133.397 11.64 134.341 10.552C135.301 9.448 136.709 8.896 138.565 8.896C140.293 8.896 141.653 9.448 142.645 10.552C143.637 11.64 144.133 13.304 144.133 15.544C144.133 17.8 143.653 19.48 142.693 20.584C141.749 21.688 140.349 22.24 138.493 22.24ZM138.541 22C139.325 22 139.957 21.784 140.437 21.352C140.917 20.92 141.261 20.232 141.469 19.288C141.693 18.344 141.805 17.096 141.805 15.544C141.805 14.008 141.693 12.768 141.469 11.824C141.261 10.88 140.917 10.2 140.437 9.784C139.957 9.352 139.317 9.136 138.517 9.136C137.733 9.136 137.101 9.352 136.621 9.784C136.141 10.2 135.789 10.88 135.565 11.824C135.357 12.768 135.253 14.008 135.253 15.544C135.253 17.096 135.357 18.344 135.565 19.288C135.789 20.232 136.141 20.92 136.621 21.352C137.117 21.784 137.757 22 138.541 22ZM151.52 22V21.76H151.712C152.192 21.76 152.576 21.696 152.864 21.568C153.152 21.44 153.36 21.24 153.488 20.968C153.616 20.696 153.68 20.344 153.68 19.912V11.248C153.68 10.8 153.616 10.44 153.488 10.168C153.36 9.896 153.152 9.696 152.864 9.568C152.576 9.44 152.192 9.376 151.712 9.376H151.64V9.136H155.912V11.416H155.96C156.184 10.712 156.48 10.184 156.848 9.832C157.232 9.464 157.656 9.216 158.12 9.088C158.584 8.96 159.056 8.896 159.536 8.896C160.384 8.896 161.144 9.104 161.816 9.52C162.504 9.92 163.008 10.688 163.328 11.824H163.376C163.584 10.96 163.872 10.32 164.24 9.904C164.624 9.488 165.048 9.216 165.512 9.088C165.976 8.96 166.432 8.896 166.88 8.896C168.256 8.896 169.272 9.296 169.928 10.096C170.6 10.88 170.936 12.072 170.936 13.672V19.792C170.936 20.272 171 20.656 171.128 20.944C171.256 21.232 171.464 21.44 171.752 21.568C172.056 21.696 172.44 21.76 172.904 21.76H172.976V22H168.68V13.192C168.68 11.864 168.496 10.896 168.128 10.288C167.76 9.68 167.168 9.376 166.352 9.376C165.744 9.376 165.224 9.536 164.792 9.856C164.36 10.16 164.032 10.608 163.808 11.2C163.6 11.792 163.496 12.512 163.496 13.36V19.792C163.496 20.272 163.56 20.656 163.688 20.944C163.816 21.232 164.024 21.44 164.312 21.568C164.616 21.696 165 21.76 165.464 21.76H165.536V22H161.24V13.192C161.24 11.864 161.048 10.896 160.664 10.288C160.296 9.68 159.688 9.376 158.84 9.376C158.2 9.376 157.664 9.536 157.232 9.856C156.8 10.176 156.472 10.656 156.248 11.296C156.04 11.936 155.936 12.736 155.936 13.696V19.792C155.936 20.272 156 20.656 156.128 20.944C156.256 21.232 156.464 21.44 156.752 21.568C157.056 21.696 157.44 21.76 157.904 21.76H157.976V22H151.52ZM180.423 22.24C178.695 22.24 177.335 21.688 176.343 20.584C175.351 19.48 174.855 17.8 174.855 15.544C174.855 13.304 175.327 11.64 176.271 10.552C177.231 9.448 178.639 8.896 180.495 8.896C182.223 8.896 183.583 9.448 184.575 10.552C185.567 11.64 186.063 13.304 186.063 15.544C186.063 17.8 185.583 19.48 184.623 20.584C183.679 21.688 182.279 22.24 180.423 22.24ZM180.471 22C181.255 22 181.887 21.784 182.367 21.352C182.847 20.92 183.191 20.232 183.399 19.288C183.623 18.344 183.735 17.096 183.735 15.544C183.735 14.008 183.623 12.768 183.399 11.824C183.191 10.88 182.847 10.2 182.367 9.784C181.887 9.352 181.247 9.136 180.447 9.136C179.663 9.136 179.031 9.352 178.551 9.784C178.071 10.2 177.719 10.88 177.495 11.824C177.287 12.768 177.183 14.008 177.183 15.544C177.183 17.096 177.287 18.344 177.495 19.288C177.719 20.232 178.071 20.92 178.551 21.352C179.047 21.784 179.687 22 180.471 22ZM176.847 7.216C177.167 6.864 177.487 6.48 177.807 6.064C178.127 5.648 178.431 5.224 178.719 4.792C179.023 4.36 179.279 3.968 179.487 3.616H181.287C181.495 3.968 181.743 4.36 182.031 4.792C182.335 5.224 182.647 5.648 182.967 6.064C183.303 6.48 183.623 6.864 183.927 7.216V7.456H183.687C183.383 7.28 183.015 7.056 182.583 6.784C182.167 6.496 181.759 6.2 181.359 5.896C180.959 5.592 180.639 5.312 180.399 5.056C180.159 5.312 179.831 5.592 179.415 5.896C179.015 6.2 178.599 6.496 178.167 6.784C177.751 7.056 177.391 7.28 177.087 7.456H176.847V7.216ZM180.447 26.392C180.143 26.392 179.887 26.288 179.679 26.08C179.487 25.888 179.391 25.544 179.391 25.048C179.391 24.536 179.487 24.184 179.679 23.992C179.887 23.8 180.143 23.704 180.447 23.704C180.735 23.704 180.983 23.8 181.191 23.992C181.399 24.184 181.503 24.536 181.503 25.048C181.503 25.544 181.399 25.888 181.191 26.08C180.983 26.288 180.735 26.392 180.447 26.392ZM193.147 22.24C191.931 22.24 191.043 21.968 190.483 21.424C189.939 20.864 189.667 19.896 189.667 18.52V9.376H187.843V9.136C188.419 9.136 188.915 9.088 189.331 8.992C189.763 8.88 190.131 8.712 190.435 8.488C190.755 8.264 191.011 7.96 191.203 7.576C191.411 7.192 191.571 6.728 191.683 6.184H191.923V9.136H195.283V9.376H191.923V19.408C191.923 20.24 192.083 20.864 192.403 21.28C192.723 21.696 193.195 21.904 193.819 21.904C194.043 21.904 194.275 21.88 194.515 21.832C194.755 21.784 195.011 21.712 195.283 21.616V21.856C195.075 21.952 194.763 22.04 194.347 22.12C193.931 22.2 193.531 22.24 193.147 22.24ZM201.647 22V21.76H201.839C202.335 21.76 202.727 21.696 203.015 21.568C203.303 21.424 203.503 21.192 203.615 20.872C203.743 20.552 203.807 20.112 203.807 19.552V6.16C203.807 5.616 203.743 5.192 203.615 4.888C203.503 4.568 203.311 4.344 203.039 4.216C202.767 4.072 202.383 4 201.887 4H201.767V3.76H206.063V8.608C206.063 8.912 206.063 9.224 206.063 9.544C206.063 9.848 206.063 10.152 206.063 10.456C206.063 10.76 206.055 11.072 206.039 11.392H206.087C206.311 10.64 206.623 10.088 207.023 9.736C207.423 9.384 207.855 9.16 208.319 9.064C208.799 8.952 209.239 8.896 209.639 8.896C211.063 8.896 212.119 9.272 212.807 10.024C213.511 10.76 213.863 11.952 213.863 13.6V19.552C213.863 20.112 213.919 20.552 214.031 20.872C214.143 21.192 214.327 21.424 214.583 21.568C214.855 21.696 215.215 21.76 215.663 21.76H215.783V22H211.607V12.784C211.607 11.744 211.415 10.896 211.031 10.24C210.647 9.584 209.983 9.256 209.039 9.256C208.287 9.256 207.695 9.456 207.263 9.856C206.831 10.256 206.519 10.776 206.327 11.416C206.151 12.04 206.063 12.696 206.063 13.384V19.552C206.063 20.112 206.119 20.552 206.231 20.872C206.359 21.192 206.559 21.424 206.831 21.568C207.119 21.696 207.503 21.76 207.983 21.76H208.103V22H201.647ZM221.609 22.24C220.393 22.24 219.425 21.928 218.705 21.304C218.001 20.664 217.649 19.792 217.649 18.688C217.649 17.456 218.097 16.536 218.993 15.928C219.905 15.32 221.281 14.984 223.121 14.92L225.113 14.848V13.048C225.113 12.152 225.065 11.416 224.969 10.84C224.873 10.264 224.665 9.84 224.345 9.568C224.025 9.28 223.537 9.136 222.881 9.136C221.953 9.136 221.353 9.424 221.081 10C220.825 10.576 220.697 11.48 220.697 12.712C220.025 12.712 219.513 12.6 219.161 12.376C218.825 12.152 218.657 11.784 218.657 11.272C218.657 10.696 218.849 10.24 219.233 9.904C219.633 9.552 220.161 9.296 220.817 9.136C221.473 8.976 222.193 8.896 222.977 8.896C224.449 8.896 225.545 9.208 226.265 9.832C227.001 10.456 227.369 11.528 227.369 13.048V20.224C227.369 20.608 227.417 20.912 227.513 21.136C227.609 21.36 227.769 21.52 227.993 21.616C228.217 21.712 228.505 21.76 228.857 21.76H228.929V22H225.305V19.48H225.257C225.097 20.12 224.841 20.648 224.489 21.064C224.137 21.464 223.713 21.76 223.217 21.952C222.737 22.144 222.201 22.24 221.609 22.24ZM222.089 21.904C222.681 21.904 223.201 21.752 223.649 21.448C224.113 21.144 224.473 20.736 224.729 20.224C224.985 19.712 225.113 19.16 225.113 18.568V15.112L223.577 15.184C222.217 15.248 221.273 15.56 220.745 16.12C220.233 16.68 219.977 17.624 219.977 18.952C219.977 19.592 220.049 20.136 220.193 20.584C220.353 21.016 220.593 21.344 220.913 21.568C221.233 21.792 221.625 21.904 222.089 21.904ZM223.745 7.456C223.441 7.216 223.097 6.936 222.713 6.616C222.329 6.28 221.945 5.944 221.561 5.608C221.193 5.256 220.849 4.928 220.529 4.624C220.225 4.32 219.985 4.064 219.809 3.856V3.616H221.969C222.145 3.968 222.345 4.36 222.569 4.792C222.793 5.224 223.025 5.648 223.265 6.064C223.521 6.48 223.761 6.864 223.985 7.216V7.456H223.745ZM230.645 22V21.76H230.837C231.333 21.76 231.725 21.696 232.013 21.568C232.301 21.424 232.501 21.192 232.613 20.872C232.741 20.552 232.805 20.112 232.805 19.552V11.536C232.805 10.992 232.741 10.568 232.613 10.264C232.501 9.944 232.309 9.72 232.037 9.592C231.765 9.448 231.381 9.376 230.885 9.376H230.765V9.136H235.037V11.392H235.085C235.309 10.64 235.621 10.088 236.021 9.736C236.421 9.384 236.853 9.16 237.317 9.064C237.797 8.952 238.237 8.896 238.637 8.896C240.061 8.896 241.117 9.272 241.805 10.024C242.509 10.76 242.861 11.952 242.861 13.6V19.552C242.861 20.112 242.917 20.552 243.029 20.872C243.141 21.192 243.325 21.424 243.581 21.568C243.853 21.696 244.213 21.76 244.661 21.76H244.781V22H240.605V12.784C240.605 11.744 240.413 10.896 240.029 10.24C239.645 9.584 238.981 9.256 238.037 9.256C237.285 9.256 236.693 9.456 236.261 9.856C235.829 10.256 235.517 10.776 235.325 11.416C235.149 12.04 235.061 12.696 235.061 13.384V19.552C235.061 20.112 235.117 20.552 235.229 20.872C235.357 21.192 235.557 21.424 235.829 21.568C236.117 21.696 236.501 21.76 236.981 21.76H237.101V22H230.645ZM245.873 22V21.76H246.065C246.561 21.76 246.953 21.696 247.241 21.568C247.529 21.424 247.729 21.192 247.841 20.872C247.969 20.552 248.033 20.112 248.033 19.552V6.16C248.033 5.616 247.969 5.192 247.841 4.888C247.729 4.568 247.537 4.344 247.265 4.216C246.993 4.072 246.609 4 246.113 4H245.993V3.76H250.289V8.608C250.289 8.912 250.289 9.224 250.289 9.544C250.289 9.848 250.289 10.152 250.289 10.456C250.289 10.76 250.281 11.072 250.265 11.392H250.313C250.537 10.64 250.849 10.088 251.249 9.736C251.649 9.384 252.081 9.16 252.545 9.064C253.025 8.952 253.465 8.896 253.865 8.896C255.289 8.896 256.345 9.272 257.033 10.024C257.737 10.76 258.089 11.952 258.089 13.6V19.552C258.089 20.112 258.145 20.552 258.257 20.872C258.369 21.192 258.553 21.424 258.809 21.568C259.081 21.696 259.441 21.76 259.889 21.76H260.009V22H255.833V12.784C255.833 11.744 255.641 10.896 255.257 10.24C254.873 9.584 254.209 9.256 253.265 9.256C252.513 9.256 251.921 9.456 251.489 9.856C251.057 10.256 250.745 10.776 250.553 11.416C250.377 12.04 250.289 12.696 250.289 13.384V19.552C250.289 20.112 250.345 20.552 250.457 20.872C250.585 21.192 250.785 21.424 251.057 21.568C251.345 21.696 251.729 21.76 252.209 21.76H252.329V22H245.873ZM271.826 22.24C270.61 22.24 269.722 21.968 269.162 21.424C268.618 20.864 268.346 19.896 268.346 18.52V9.376H266.522V9.136C267.098 9.136 267.594 9.088 268.01 8.992C268.442 8.88 268.81 8.712 269.114 8.488C269.434 8.264 269.69 7.96 269.882 7.576C270.09 7.192 270.25 6.728 270.362 6.184H270.602V9.136H273.962V9.376H270.602V19.408C270.602 20.24 270.762 20.864 271.082 21.28C271.402 21.696 271.874 21.904 272.498 21.904C272.722 21.904 272.954 21.88 273.194 21.832C273.434 21.784 273.69 21.712 273.962 21.616V21.856C273.754 21.952 273.442 22.04 273.026 22.12C272.61 22.2 272.21 22.24 271.826 22.24ZM275.056 22V21.76H275.368C275.848 21.76 276.232 21.696 276.52 21.568C276.808 21.44 277.016 21.24 277.144 20.968C277.272 20.696 277.336 20.344 277.336 19.912V11.248C277.336 10.8 277.272 10.44 277.144 10.168C277.016 9.896 276.808 9.696 276.52 9.568C276.232 9.44 275.848 9.376 275.368 9.376H275.296V9.136H279.568V11.536H279.616C279.728 11.12 279.896 10.712 280.12 10.312C280.344 9.912 280.68 9.576 281.128 9.304C281.592 9.032 282.208 8.896 282.976 8.896C283.776 8.896 284.384 9.056 284.8 9.376C285.232 9.68 285.448 10.112 285.448 10.672C285.448 11.152 285.272 11.552 284.92 11.872C284.584 12.192 284.016 12.352 283.216 12.352C283.216 11.36 283.048 10.68 282.712 10.312C282.376 9.928 282 9.736 281.584 9.736C281.12 9.736 280.752 9.904 280.48 10.24C280.208 10.56 280.008 10.984 279.88 11.512C279.752 12.024 279.672 12.56 279.64 13.12C279.608 13.664 279.592 14.168 279.592 14.632V19.792C279.592 20.272 279.656 20.656 279.784 20.944C279.912 21.232 280.12 21.44 280.408 21.568C280.712 21.696 281.096 21.76 281.56 21.76H281.872V22H275.056ZM286.353 22V21.76H286.665C287.145 21.76 287.529 21.696 287.817 21.568C288.105 21.44 288.313 21.24 288.441 20.968C288.569 20.696 288.633 20.344 288.633 19.912V11.248C288.633 10.8 288.569 10.44 288.441 10.168C288.313 9.896 288.105 9.696 287.817 9.568C287.529 9.44 287.145 9.376 286.665 9.376H286.593V9.136H290.889V19.792C290.889 20.272 290.953 20.656 291.081 20.944C291.209 21.232 291.417 21.44 291.705 21.568C292.009 21.696 292.393 21.76 292.857 21.76H293.169V22H286.353ZM290.385 7.456C290.081 7.216 289.737 6.936 289.353 6.616C288.969 6.28 288.585 5.944 288.201 5.608C287.833 5.256 287.489 4.928 287.169 4.624C286.865 4.32 286.625 4.064 286.449 3.856V3.616H288.609C288.785 3.968 288.985 4.36 289.209 4.792C289.433 5.224 289.665 5.648 289.905 6.064C290.161 6.48 290.401 6.864 290.625 7.216V7.456H290.385ZM294.16 22V21.76H294.352C294.848 21.76 295.24 21.696 295.528 21.568C295.816 21.424 296.016 21.192 296.128 20.872C296.256 20.552 296.32 20.112 296.32 19.552V11.536C296.32 10.992 296.256 10.568 296.128 10.264C296.016 9.944 295.824 9.72 295.552 9.592C295.28 9.448 294.896 9.376 294.4 9.376H294.28V9.136H298.552V11.392H298.6C298.824 10.64 299.136 10.088 299.536 9.736C299.936 9.384 300.368 9.16 300.832 9.064C301.312 8.952 301.752 8.896 302.152 8.896C303.576 8.896 304.632 9.272 305.32 10.024C306.024 10.76 306.376 11.952 306.376 13.6V19.552C306.376 20.112 306.432 20.552 306.544 20.872C306.656 21.192 306.84 21.424 307.096 21.568C307.368 21.696 307.728 21.76 308.176 21.76H308.296V22H304.12V12.784C304.12 11.744 303.928 10.896 303.544 10.24C303.16 9.584 302.496 9.256 301.552 9.256C300.8 9.256 300.208 9.456 299.776 9.856C299.344 10.256 299.032 10.776 298.84 11.416C298.664 12.04 298.576 12.696 298.576 13.384V19.552C298.576 20.112 298.632 20.552 298.744 20.872C298.872 21.192 299.072 21.424 299.344 21.568C299.632 21.696 300.016 21.76 300.496 21.76H300.616V22H294.16ZM309.389 22V21.76H309.581C310.077 21.76 310.469 21.696 310.757 21.568C311.045 21.424 311.245 21.192 311.357 20.872C311.485 20.552 311.549 20.112 311.549 19.552V6.16C311.549 5.616 311.485 5.192 311.357 4.888C311.245 4.568 311.053 4.344 310.781 4.216C310.509 4.072 310.125 4 309.629 4H309.509V3.76H313.805V8.608C313.805 8.912 313.805 9.224 313.805 9.544C313.805 9.848 313.805 10.152 313.805 10.456C313.805 10.76 313.797 11.072 313.781 11.392H313.829C314.053 10.64 314.365 10.088 314.765 9.736C315.165 9.384 315.597 9.16 316.061 9.064C316.541 8.952 316.981 8.896 317.381 8.896C318.805 8.896 319.861 9.272 320.549 10.024C321.253 10.76 321.605 11.952 321.605 13.6V19.552C321.605 20.112 321.661 20.552 321.773 20.872C321.885 21.192 322.069 21.424 322.325 21.568C322.597 21.696 322.957 21.76 323.405 21.76H323.525V22H319.349V12.784C319.349 11.744 319.157 10.896 318.773 10.24C318.389 9.584 317.725 9.256 316.781 9.256C316.029 9.256 315.437 9.456 315.005 9.856C314.573 10.256 314.261 10.776 314.069 11.416C313.893 12.04 313.805 12.696 313.805 13.384V19.552C313.805 20.112 313.861 20.552 313.973 20.872C314.101 21.192 314.301 21.424 314.573 21.568C314.861 21.696 315.245 21.76 315.725 21.76H315.845V22H309.389ZM330.254 22V21.76H330.446C330.926 21.76 331.31 21.696 331.598 21.568C331.886 21.44 332.094 21.24 332.222 20.968C332.35 20.696 332.414 20.344 332.414 19.912V11.248C332.414 10.8 332.35 10.44 332.222 10.168C332.094 9.896 331.886 9.696 331.598 9.568C331.31 9.44 330.926 9.376 330.446 9.376H330.374V9.136H334.646V11.416H334.694C334.918 10.712 335.214 10.184 335.582 9.832C335.966 9.464 336.39 9.216 336.854 9.088C337.318 8.96 337.79 8.896 338.27 8.896C339.118 8.896 339.878 9.104 340.55 9.52C341.238 9.92 341.742 10.688 342.062 11.824H342.11C342.318 10.96 342.606 10.32 342.974 9.904C343.358 9.488 343.782 9.216 344.246 9.088C344.71 8.96 345.166 8.896 345.614 8.896C346.99 8.896 348.006 9.296 348.662 10.096C349.334 10.88 349.67 12.072 349.67 13.672V19.792C349.67 20.272 349.734 20.656 349.862 20.944C349.99 21.232 350.198 21.44 350.486 21.568C350.79 21.696 351.174 21.76 351.638 21.76H351.71V22H347.414V13.192C347.414 11.864 347.23 10.896 346.862 10.288C346.494 9.68 345.902 9.376 345.086 9.376C344.478 9.376 343.958 9.536 343.526 9.856C343.094 10.16 342.766 10.608 342.542 11.2C342.334 11.792 342.23 12.512 342.23 13.36V19.792C342.23 20.272 342.294 20.656 342.422 20.944C342.55 21.232 342.758 21.44 343.046 21.568C343.35 21.696 343.734 21.76 344.198 21.76H344.27V22H339.974V13.192C339.974 11.864 339.782 10.896 339.398 10.288C339.03 9.68 338.422 9.376 337.574 9.376C336.934 9.376 336.398 9.536 335.966 9.856C335.534 10.176 335.206 10.656 334.982 11.296C334.774 11.936 334.67 12.736 334.67 13.696V19.792C334.67 20.272 334.734 20.656 334.862 20.944C334.99 21.232 335.198 21.44 335.486 21.568C335.79 21.696 336.174 21.76 336.638 21.76H336.71V22H330.254ZM358.582 7.216C358.806 6.864 359.038 6.48 359.278 6.064C359.534 5.648 359.774 5.224 359.998 4.792C360.238 4.36 360.438 3.968 360.598 3.616H362.758V3.856C362.582 4.064 362.334 4.32 362.014 4.624C361.71 4.928 361.366 5.256 360.982 5.608C360.614 5.944 360.238 6.28 359.854 6.616C359.486 6.936 359.142 7.216 358.822 7.456H358.582V7.216ZM359.158 22.24C357.43 22.24 356.07 21.688 355.078 20.584C354.086 19.48 353.59 17.8 353.59 15.544C353.59 13.304 354.062 11.64 355.006 10.552C355.966 9.448 357.374 8.896 359.23 8.896C360.398 8.896 361.398 9.144 362.23 9.64C363.062 10.12 363.694 10.864 364.126 11.872C364.606 11.696 365.006 11.472 365.326 11.2C365.646 10.928 365.806 10.592 365.806 10.192C365.806 9.952 365.75 9.768 365.638 9.64C365.542 9.496 365.422 9.392 365.278 9.328C365.134 9.248 364.982 9.168 364.822 9.088C364.678 8.992 364.55 8.872 364.438 8.728C364.342 8.584 364.294 8.384 364.294 8.128C364.294 7.792 364.406 7.512 364.63 7.288C364.87 7.048 365.214 6.928 365.662 6.928C366.126 6.928 366.486 7.064 366.742 7.336C366.998 7.592 367.126 7.96 367.126 8.44C367.126 9.176 366.918 9.864 366.502 10.504C366.102 11.144 365.342 11.672 364.222 12.088C364.414 12.552 364.558 13.072 364.654 13.648C364.75 14.224 364.798 14.856 364.798 15.544C364.798 17.8 364.318 19.48 363.358 20.584C362.414 21.688 361.014 22.24 359.158 22.24ZM359.206 22C359.99 22 360.622 21.784 361.102 21.352C361.582 20.92 361.926 20.232 362.134 19.288C362.358 18.344 362.47 17.096 362.47 15.544C362.47 14.008 362.358 12.768 362.134 11.824C361.926 10.88 361.582 10.2 361.102 9.784C360.622 9.352 359.982 9.136 359.182 9.136C358.398 9.136 357.766 9.352 357.286 9.784C356.806 10.2 356.454 10.88 356.23 11.824C356.022 12.768 355.918 14.008 355.918 15.544C355.918 17.096 356.022 18.344 356.23 19.288C356.454 20.232 356.806 20.92 357.286 21.352C357.782 21.784 358.422 22 359.206 22ZM367.868 22V21.76H368.18C368.66 21.76 369.044 21.696 369.332 21.568C369.62 21.44 369.828 21.24 369.956 20.968C370.084 20.696 370.148 20.344 370.148 19.912V11.248C370.148 10.8 370.084 10.44 369.956 10.168C369.828 9.896 369.62 9.696 369.332 9.568C369.044 9.44 368.66 9.376 368.18 9.376H368.108V9.136H372.404V19.792C372.404 20.272 372.468 20.656 372.596 20.944C372.724 21.232 372.932 21.44 373.22 21.568C373.524 21.696 373.908 21.76 374.372 21.76H374.684V22H367.868ZM371.156 6.832C370.852 6.832 370.596 6.736 370.388 6.544C370.196 6.336 370.1 5.984 370.1 5.488C370.1 4.976 370.196 4.624 370.388 4.432C370.596 4.24 370.852 4.144 371.156 4.144C371.444 4.144 371.692 4.24 371.9 4.432C372.108 4.624 372.212 4.976 372.212 5.488C372.212 5.984 372.108 6.336 371.9 6.544C371.692 6.736 371.444 6.832 371.156 6.832Z" fill="url(#paint1_linear_2045_2523)" fill-opacity="0.75"/>
<defs>
<linearGradient id="paint0_linear_2045_2523" x1="-198" y1="13" x2="572" y2="13" gradientUnits="userSpaceOnUse">
<stop stop-color="#525861"/>
<stop offset="1" stop-color="#97A1A7"/>
</linearGradient>
<linearGradient id="paint1_linear_2045_2523" x1="6.28571" y1="3.50909" x2="12.1174" y2="37.1285" gradientUnits="userSpaceOnUse">
<stop offset="0.0940377" stop-color="white" stop-opacity="0"/>
<stop offset="0.292723" stop-color="white"/>
<stop offset="0.724446" stop-color="white" stop-opacity="0.775341"/>
<stop offset="1" stop-color="white" stop-opacity="0"/>
</linearGradient>
</defs>
</svg>
