<svg width="540" height="27" viewBox="0 0 540 27" fill="none" xmlns="http://www.w3.org/2000/svg">
<path d="M5.86388 21.24C5.07988 21.24 4.37588 21.16 3.75188 21C3.12788 20.824 2.59188 20.592 2.14388 20.304C1.71188 20 1.38388 19.648 1.15988 19.248C0.935875 18.848 0.823875 18.408 0.823875 17.928C0.823875 17.56 0.887875 17.256 1.01588 17.016C1.15988 16.76 1.35988 16.568 1.61588 16.44C1.87188 16.312 2.18388 16.248 2.55188 16.248C2.56788 17.288 2.69588 18.168 2.93588 18.888C3.19188 19.592 3.57588 20.12 4.08788 20.472C4.59988 20.824 5.24788 21 6.03188 21C7.05588 21 7.87988 20.704 8.50388 20.112C9.14388 19.504 9.46388 18.616 9.46388 17.448C9.46388 16.728 9.32788 16.144 9.05588 15.696C8.79988 15.248 8.37588 14.848 7.78388 14.496C7.20788 14.128 6.44788 13.728 5.50388 13.296C5.00788 13.056 4.49588 12.8 3.96788 12.528C3.45588 12.24 2.97588 11.904 2.52788 11.52C2.09588 11.12 1.74388 10.64 1.47188 10.08C1.21588 9.504 1.08788 8.824 1.08788 8.04C1.08788 7.08 1.29588 6.272 1.71188 5.616C2.12788 4.96 2.71188 4.464 3.46388 4.128C4.23188 3.792 5.12788 3.624 6.15188 3.624C7.09588 3.624 7.91188 3.752 8.59988 4.008C9.30388 4.264 9.84788 4.6 10.2319 5.016C10.6319 5.432 10.8319 5.888 10.8319 6.384C10.8319 6.848 10.6559 7.216 10.3039 7.488C9.95188 7.744 9.49588 7.872 8.93588 7.872C8.93588 6.544 8.71988 5.544 8.28788 4.872C7.85588 4.2 7.13588 3.864 6.12788 3.864C5.51988 3.864 4.98388 3.992 4.51988 4.248C4.05588 4.488 3.69588 4.856 3.43988 5.352C3.19988 5.832 3.07988 6.44 3.07988 7.176C3.07988 7.96 3.22388 8.592 3.51188 9.072C3.79988 9.552 4.23188 9.968 4.80788 10.32C5.39988 10.656 6.13588 11.032 7.01588 11.448C7.81588 11.816 8.55188 12.2 9.22388 12.6C9.91188 13 10.4639 13.504 10.8799 14.112C11.2959 14.72 11.5039 15.52 11.5039 16.512C11.5039 17.488 11.2799 18.328 10.8319 19.032C10.3999 19.736 9.75988 20.28 8.91188 20.664C8.07988 21.048 7.06388 21.24 5.86388 21.24ZM17.8866 21.24C16.6706 21.24 15.7026 20.928 14.9826 20.304C14.2786 19.664 13.9266 18.792 13.9266 17.688C13.9266 16.456 14.3746 15.536 15.2706 14.928C16.1826 14.32 17.5586 13.984 19.3986 13.92L21.3906 13.848V12.048C21.3906 11.152 21.3426 10.416 21.2466 9.84C21.1506 9.264 20.9426 8.84 20.6226 8.568C20.3026 8.28 19.8146 8.136 19.1586 8.136C18.2306 8.136 17.6306 8.424 17.3586 9C17.1026 9.576 16.9746 10.48 16.9746 11.712C16.3026 11.712 15.7906 11.6 15.4386 11.376C15.1026 11.152 14.9346 10.784 14.9346 10.272C14.9346 9.696 15.1266 9.24 15.5106 8.904C15.9106 8.552 16.4386 8.296 17.0946 8.136C17.7506 7.976 18.4706 7.896 19.2546 7.896C20.7266 7.896 21.8226 8.208 22.5426 8.832C23.2786 9.456 23.6466 10.528 23.6466 12.048V19.224C23.6466 19.608 23.6946 19.912 23.7906 20.136C23.8866 20.36 24.0466 20.52 24.2706 20.616C24.4946 20.712 24.7826 20.76 25.1346 20.76H25.2066V21H21.5826V18.48H21.5346C21.3746 19.12 21.1186 19.648 20.7666 20.064C20.4146 20.464 19.9906 20.76 19.4946 20.952C19.0146 21.144 18.4786 21.24 17.8866 21.24ZM18.3666 20.904C18.9586 20.904 19.4786 20.752 19.9266 20.448C20.3906 20.144 20.7506 19.736 21.0066 19.224C21.2626 18.712 21.3906 18.16 21.3906 17.568V14.112L19.8546 14.184C18.4946 14.248 17.5506 14.56 17.0226 15.12C16.5106 15.68 16.2546 16.624 16.2546 17.952C16.2546 18.592 16.3266 19.136 16.4706 19.584C16.6306 20.016 16.8706 20.344 17.1906 20.568C17.5106 20.792 17.9026 20.904 18.3666 20.904ZM33.042 21.24C31.634 21.24 30.578 20.872 29.874 20.136C29.186 19.384 28.842 18.184 28.842 16.536V10.536C28.842 9.992 28.778 9.568 28.65 9.264C28.538 8.944 28.338 8.72 28.05 8.592C27.762 8.448 27.37 8.376 26.874 8.376H26.802V8.136H31.098V16.656C31.098 17.68 31.17 18.504 31.314 19.128C31.458 19.736 31.698 20.184 32.034 20.472C32.386 20.76 32.85 20.904 33.426 20.904C34.146 20.904 34.738 20.72 35.202 20.352C35.682 19.968 36.042 19.416 36.282 18.696C36.522 17.96 36.642 17.08 36.642 16.056V10.536C36.642 9.992 36.578 9.568 36.45 9.264C36.338 8.944 36.138 8.72 35.85 8.592C35.562 8.448 35.17 8.376 34.674 8.376H34.602V8.136H38.898V18.624C38.898 19.168 38.954 19.6 39.066 19.92C39.194 20.224 39.402 20.44 39.69 20.568C39.978 20.696 40.37 20.76 40.866 20.76H40.938V21H36.81V17.712H36.762C36.634 18.528 36.426 19.176 36.138 19.656C35.866 20.12 35.546 20.464 35.178 20.688C34.826 20.912 34.458 21.056 34.074 21.12C33.706 21.2 33.362 21.24 33.042 21.24ZM53.715 21.24C52.627 21.24 51.667 21.024 50.835 20.592C50.003 20.144 49.355 19.424 48.891 18.432C48.427 17.44 48.195 16.136 48.195 14.52C48.195 12.872 48.427 11.568 48.891 10.608C49.371 9.632 50.011 8.936 50.811 8.52C51.611 8.104 52.515 7.896 53.523 7.896C54.195 7.896 54.851 7.984 55.491 8.16C56.147 8.336 56.683 8.608 57.099 8.976C57.515 9.328 57.723 9.8 57.723 10.392C57.723 10.744 57.635 11.032 57.459 11.256C57.299 11.464 57.059 11.616 56.739 11.712C56.435 11.808 56.051 11.856 55.587 11.856C55.587 11.008 55.523 10.312 55.395 9.768C55.283 9.208 55.075 8.8 54.771 8.544C54.467 8.272 54.035 8.136 53.475 8.136C52.899 8.136 52.387 8.32 51.939 8.688C51.491 9.04 51.139 9.68 50.883 10.608C50.643 11.52 50.523 12.832 50.523 14.544C50.523 16.112 50.643 17.376 50.883 18.336C51.123 19.28 51.507 19.96 52.035 20.376C52.563 20.792 53.243 21 54.075 21C54.603 21 55.075 20.912 55.491 20.736C55.923 20.56 56.291 20.256 56.595 19.824C56.915 19.376 57.163 18.768 57.339 18C57.499 18.032 57.619 18.112 57.699 18.24C57.795 18.368 57.843 18.544 57.843 18.768C57.843 19.152 57.691 19.536 57.387 19.92C57.083 20.288 56.627 20.6 56.019 20.856C55.411 21.112 54.643 21.24 53.715 21.24ZM59.1195 21V20.76H59.3115C59.8075 20.76 60.1995 20.696 60.4875 20.568C60.7755 20.424 60.9755 20.192 61.0875 19.872C61.2155 19.552 61.2795 19.112 61.2795 18.552V5.16C61.2795 4.616 61.2155 4.192 61.0875 3.888C60.9755 3.568 60.7835 3.344 60.5115 3.216C60.2395 3.072 59.8555 3 59.3595 3H59.2395V2.76H63.5355V7.608C63.5355 7.912 63.5355 8.224 63.5355 8.544C63.5355 8.848 63.5355 9.152 63.5355 9.456C63.5355 9.76 63.5275 10.072 63.5115 10.392H63.5595C63.7835 9.64 64.0955 9.088 64.4955 8.736C64.8955 8.384 65.3275 8.16 65.7915 8.064C66.2715 7.952 66.7115 7.896 67.1115 7.896C68.5355 7.896 69.5915 8.272 70.2795 9.024C70.9835 9.76 71.3355 10.952 71.3355 12.6V18.552C71.3355 19.112 71.3915 19.552 71.5035 19.872C71.6155 20.192 71.7995 20.424 72.0555 20.568C72.3275 20.696 72.6875 20.76 73.1355 20.76H73.2555V21H69.0795V11.784C69.0795 10.744 68.8875 9.896 68.5035 9.24C68.1195 8.584 67.4555 8.256 66.5115 8.256C65.7595 8.256 65.1675 8.456 64.7355 8.856C64.3035 9.256 63.9915 9.776 63.7995 10.416C63.6235 11.04 63.5355 11.696 63.5355 12.384V18.552C63.5355 19.112 63.5915 19.552 63.7035 19.872C63.8315 20.192 64.0315 20.424 64.3035 20.568C64.5915 20.696 64.9755 20.76 65.4555 20.76H65.5755V21H59.1195ZM79.0819 21.24C77.8659 21.24 76.8979 20.928 76.1779 20.304C75.4739 19.664 75.1219 18.792 75.1219 17.688C75.1219 16.456 75.5699 15.536 76.4659 14.928C77.3779 14.32 78.7539 13.984 80.5939 13.92L82.5859 13.848V12.048C82.5859 11.152 82.5379 10.416 82.4419 9.84C82.3459 9.264 82.1379 8.84 81.8179 8.568C81.4979 8.28 81.0099 8.136 80.3539 8.136C79.4259 8.136 78.8259 8.424 78.5539 9C78.2979 9.576 78.1699 10.48 78.1699 11.712C77.4979 11.712 76.9859 11.6 76.6339 11.376C76.2979 11.152 76.1299 10.784 76.1299 10.272C76.1299 9.696 76.3219 9.24 76.7059 8.904C77.1059 8.552 77.6339 8.296 78.2899 8.136C78.9459 7.976 79.6659 7.896 80.4499 7.896C81.9219 7.896 83.0179 8.208 83.7379 8.832C84.4739 9.456 84.8419 10.528 84.8419 12.048V19.224C84.8419 19.608 84.8899 19.912 84.9859 20.136C85.0819 20.36 85.2419 20.52 85.4659 20.616C85.6899 20.712 85.9779 20.76 86.3299 20.76H86.4019V21H82.7779V18.48H82.7299C82.5699 19.12 82.3139 19.648 81.9619 20.064C81.6099 20.464 81.1859 20.76 80.6899 20.952C80.2099 21.144 79.6739 21.24 79.0819 21.24ZM79.5619 20.904C80.1539 20.904 80.6739 20.752 81.1219 20.448C81.5859 20.144 81.9459 19.736 82.2019 19.224C82.4579 18.712 82.5859 18.16 82.5859 17.568V14.112L81.0499 14.184C79.6899 14.248 78.7459 14.56 78.2179 15.12C77.7059 15.68 77.4499 16.624 77.4499 17.952C77.4499 18.592 77.5219 19.136 77.6659 19.584C77.8259 20.016 78.0659 20.344 78.3859 20.568C78.7059 20.792 79.0979 20.904 79.5619 20.904ZM80.5219 6.456C79.7699 6.456 79.1539 6.312 78.6739 6.024C78.1939 5.72 77.8339 5.32 77.5939 4.824C77.3539 4.312 77.2099 3.76 77.1619 3.168H77.4019C77.5299 3.552 77.7059 3.864 77.9299 4.104C78.1699 4.344 78.4979 4.52 78.9139 4.632C79.3459 4.744 79.8819 4.8 80.5219 4.8C81.1779 4.8 81.7139 4.744 82.1299 4.632C82.5459 4.52 82.8739 4.344 83.1139 4.104C83.3539 3.864 83.5299 3.552 83.6419 3.168H83.8819C83.8339 3.76 83.6899 4.312 83.4499 4.824C83.2099 5.32 82.8499 5.72 82.3699 6.024C81.9059 6.312 81.2899 6.456 80.5219 6.456ZM80.3539 25.392C80.0499 25.392 79.7939 25.288 79.5859 25.08C79.3939 24.888 79.2979 24.544 79.2979 24.048C79.2979 23.536 79.3939 23.184 79.5859 22.992C79.7939 22.8 80.0499 22.704 80.3539 22.704C80.6419 22.704 80.8899 22.8 81.0979 22.992C81.3059 23.184 81.4099 23.536 81.4099 24.048C81.4099 24.544 81.3059 24.888 81.0979 25.08C80.8899 25.288 80.6419 25.392 80.3539 25.392ZM88.1173 21V20.76H88.3093C88.8053 20.76 89.1973 20.696 89.4853 20.568C89.7733 20.424 89.9733 20.192 90.0853 19.872C90.2133 19.552 90.2773 19.112 90.2773 18.552V10.536C90.2773 9.992 90.2133 9.568 90.0853 9.264C89.9733 8.944 89.7813 8.72 89.5093 8.592C89.2373 8.448 88.8533 8.376 88.3573 8.376H88.2373V8.136H92.5093V10.392H92.5573C92.7813 9.64 93.0933 9.088 93.4933 8.736C93.8933 8.384 94.3253 8.16 94.7893 8.064C95.2693 7.952 95.7093 7.896 96.1093 7.896C97.5333 7.896 98.5893 8.272 99.2773 9.024C99.9813 9.76 100.333 10.952 100.333 12.6V18.552C100.333 19.112 100.389 19.552 100.501 19.872C100.613 20.192 100.797 20.424 101.053 20.568C101.325 20.696 101.685 20.76 102.133 20.76H102.253V21H98.0773V11.784C98.0773 10.744 97.8853 9.896 97.5013 9.24C97.1173 8.584 96.4533 8.256 95.5093 8.256C94.7573 8.256 94.1653 8.456 93.7333 8.856C93.3013 9.256 92.9893 9.776 92.7973 10.416C92.6213 11.04 92.5333 11.696 92.5333 12.384V18.552C92.5333 19.112 92.5893 19.552 92.7013 19.872C92.8293 20.192 93.0293 20.424 93.3013 20.568C93.5893 20.696 93.9733 20.76 94.4533 20.76H94.5733V21H88.1173ZM108.458 26.76C106.794 26.76 105.546 26.456 104.714 25.848C103.882 25.256 103.466 24.464 103.466 23.472C103.466 22.912 103.594 22.424 103.85 22.008C104.106 21.608 104.498 21.288 105.026 21.048C105.554 20.808 106.218 20.688 107.018 20.688C106.394 20.496 105.922 20.184 105.602 19.752C105.298 19.32 105.146 18.864 105.146 18.384C105.146 17.92 105.298 17.48 105.602 17.064C105.922 16.632 106.41 16.304 107.066 16.08C106.298 15.808 105.682 15.36 105.218 14.736C104.77 14.096 104.546 13.296 104.546 12.336C104.546 10.96 104.922 9.88 105.674 9.096C106.426 8.296 107.554 7.896 109.058 7.896C109.618 7.896 110.122 7.968 110.57 8.112C111.018 8.24 111.418 8.432 111.77 8.688C112.01 8.432 112.33 8.152 112.73 7.848C113.13 7.544 113.602 7.392 114.146 7.392C114.61 7.392 114.954 7.52 115.178 7.776C115.418 8.016 115.538 8.312 115.538 8.664C115.538 8.984 115.434 9.248 115.226 9.456C115.034 9.664 114.714 9.768 114.266 9.768C114.266 9.256 114.178 8.88 114.002 8.64C113.842 8.4 113.578 8.28 113.21 8.28C113.002 8.28 112.81 8.32 112.634 8.4C112.458 8.464 112.234 8.608 111.962 8.832C112.426 9.216 112.778 9.704 113.018 10.296C113.258 10.888 113.378 11.544 113.378 12.264C113.378 13.448 113.018 14.432 112.298 15.216C111.594 16 110.514 16.392 109.058 16.392C108.754 16.392 108.458 16.376 108.17 16.344C107.898 16.296 107.634 16.24 107.378 16.176C106.994 16.336 106.73 16.528 106.586 16.752C106.442 16.976 106.37 17.224 106.37 17.496C106.37 17.912 106.514 18.216 106.802 18.408C107.106 18.6 107.554 18.696 108.146 18.696H110.858C112.282 18.696 113.298 19.032 113.906 19.704C114.514 20.376 114.818 21.232 114.818 22.272C114.818 23.648 114.298 24.736 113.258 25.536C112.234 26.352 110.634 26.76 108.458 26.76ZM108.65 26.52C110.17 26.52 111.29 26.24 112.01 25.68C112.73 25.136 113.09 24.328 113.09 23.256C113.09 22.424 112.866 21.808 112.418 21.408C111.986 21.024 111.314 20.832 110.402 20.832H107.81C107.378 20.832 106.962 20.912 106.562 21.072C106.178 21.232 105.858 21.512 105.602 21.912C105.362 22.312 105.242 22.864 105.242 23.568C105.242 24.224 105.378 24.768 105.65 25.2C105.922 25.648 106.306 25.976 106.802 26.184C107.314 26.408 107.93 26.52 108.65 26.52ZM108.986 16.152C109.514 16.152 109.93 16.016 110.234 15.744C110.554 15.472 110.778 15.048 110.906 14.472C111.05 13.896 111.122 13.16 111.122 12.264C111.122 11.32 111.05 10.544 110.906 9.936C110.762 9.328 110.53 8.88 110.21 8.592C109.906 8.288 109.49 8.136 108.962 8.136C108.45 8.136 108.034 8.296 107.714 8.616C107.394 8.92 107.162 9.376 107.018 9.984C106.874 10.592 106.802 11.36 106.802 12.288C106.802 13.168 106.874 13.896 107.018 14.472C107.178 15.048 107.418 15.472 107.738 15.744C108.058 16.016 108.474 16.152 108.986 16.152ZM196.517 24.456C197.013 24.296 197.445 24.104 197.813 23.88C198.197 23.656 198.493 23.392 198.701 23.088C198.925 22.784 199.037 22.432 199.037 22.032C199.037 21.696 198.965 21.432 198.821 21.24C198.693 21.064 198.533 20.928 198.341 20.832C198.149 20.72 197.949 20.616 197.741 20.52C197.549 20.424 197.381 20.288 197.237 20.112C197.109 19.936 197.045 19.688 197.045 19.368C197.045 18.888 197.189 18.528 197.477 18.288C197.781 18.032 198.157 17.904 198.605 17.904C199.101 17.904 199.533 18.08 199.901 18.432C200.269 18.768 200.453 19.336 200.453 20.136C200.453 21.064 200.141 21.952 199.517 22.8C198.909 23.664 197.909 24.296 196.517 24.696V24.456ZM207.62 21V20.76H207.812C208.308 20.76 208.7 20.696 208.988 20.568C209.276 20.424 209.476 20.192 209.588 19.872C209.716 19.552 209.78 19.112 209.78 18.552V5.16C209.78 4.616 209.716 4.192 209.588 3.888C209.476 3.568 209.284 3.344 209.012 3.216C208.74 3.072 208.356 3 207.86 3H207.74V2.76H212.036V7.608C212.036 7.912 212.036 8.224 212.036 8.544C212.036 8.848 212.036 9.152 212.036 9.456C212.036 9.76 212.028 10.072 212.012 10.392H212.06C212.284 9.64 212.596 9.088 212.996 8.736C213.396 8.384 213.828 8.16 214.292 8.064C214.772 7.952 215.212 7.896 215.612 7.896C217.036 7.896 218.092 8.272 218.78 9.024C219.484 9.76 219.836 10.952 219.836 12.6V18.552C219.836 19.112 219.892 19.552 220.004 19.872C220.116 20.192 220.3 20.424 220.556 20.568C220.828 20.696 221.188 20.76 221.636 20.76H221.756V21H217.58V11.784C217.58 10.744 217.388 9.896 217.004 9.24C216.62 8.584 215.956 8.256 215.012 8.256C214.26 8.256 213.668 8.456 213.236 8.856C212.804 9.256 212.492 9.776 212.3 10.416C212.124 11.04 212.036 11.696 212.036 12.384V18.552C212.036 19.112 212.092 19.552 212.204 19.872C212.332 20.192 212.532 20.424 212.804 20.568C213.092 20.696 213.476 20.76 213.956 20.76H214.076V21H207.62ZM229.31 21.24C227.582 21.24 226.222 20.688 225.23 19.584C224.238 18.48 223.742 16.8 223.742 14.544C223.742 12.304 224.214 10.64 225.158 9.552C226.118 8.448 227.526 7.896 229.382 7.896C231.11 7.896 232.47 8.448 233.462 9.552C234.454 10.64 234.95 12.304 234.95 14.544C234.95 16.8 234.47 18.48 233.51 19.584C232.566 20.688 231.166 21.24 229.31 21.24ZM229.358 21C230.142 21 230.774 20.784 231.254 20.352C231.734 19.92 232.078 19.232 232.286 18.288C232.51 17.344 232.622 16.096 232.622 14.544C232.622 13.008 232.51 11.768 232.286 10.824C232.078 9.88 231.734 9.2 231.254 8.784C230.774 8.352 230.134 8.136 229.334 8.136C228.55 8.136 227.918 8.352 227.438 8.784C226.958 9.2 226.606 9.88 226.382 10.824C226.174 11.768 226.07 13.008 226.07 14.544C226.07 16.096 226.174 17.344 226.382 18.288C226.606 19.232 226.958 19.92 227.438 20.352C227.934 20.784 228.574 21 229.358 21ZM241.433 21.24C240.217 21.24 239.249 20.928 238.529 20.304C237.825 19.664 237.473 18.792 237.473 17.688C237.473 16.456 237.921 15.536 238.817 14.928C239.729 14.32 241.105 13.984 242.945 13.92L244.937 13.848V12.048C244.937 11.152 244.889 10.416 244.793 9.84C244.697 9.264 244.489 8.84 244.169 8.568C243.849 8.28 243.361 8.136 242.705 8.136C241.777 8.136 241.177 8.424 240.905 9C240.649 9.576 240.521 10.48 240.521 11.712C239.849 11.712 239.337 11.6 238.985 11.376C238.649 11.152 238.481 10.784 238.481 10.272C238.481 9.696 238.673 9.24 239.057 8.904C239.457 8.552 239.985 8.296 240.641 8.136C241.297 7.976 242.017 7.896 242.801 7.896C244.273 7.896 245.369 8.208 246.089 8.832C246.825 9.456 247.193 10.528 247.193 12.048V19.224C247.193 19.608 247.241 19.912 247.337 20.136C247.433 20.36 247.593 20.52 247.817 20.616C248.041 20.712 248.329 20.76 248.681 20.76H248.753V21H245.129V18.48H245.081C244.921 19.12 244.665 19.648 244.313 20.064C243.961 20.464 243.537 20.76 243.041 20.952C242.561 21.144 242.025 21.24 241.433 21.24ZM241.913 20.904C242.505 20.904 243.025 20.752 243.473 20.448C243.937 20.144 244.297 19.736 244.553 19.224C244.809 18.712 244.937 18.16 244.937 17.568V14.112L243.401 14.184C242.041 14.248 241.097 14.56 240.569 15.12C240.057 15.68 239.801 16.624 239.801 17.952C239.801 18.592 239.873 19.136 240.017 19.584C240.177 20.016 240.417 20.344 240.737 20.568C241.057 20.792 241.449 20.904 241.913 20.904ZM260.324 21.24C259.524 21.24 258.82 21.144 258.212 20.952C257.604 20.76 257.124 20.48 256.771 20.112C256.436 19.728 256.268 19.256 256.268 18.696C256.268 18.264 256.356 17.928 256.532 17.688C256.708 17.448 256.908 17.28 257.132 17.184C257.372 17.088 257.588 17.04 257.78 17.04C257.78 17.904 257.86 18.632 258.02 19.224C258.18 19.8 258.452 20.24 258.836 20.544C259.22 20.848 259.732 21 260.372 21C261.22 21 261.892 20.784 262.388 20.352C262.884 19.904 263.132 19.248 263.132 18.384C263.132 17.824 263.036 17.384 262.844 17.064C262.652 16.728 262.332 16.432 261.884 16.176C261.452 15.92 260.844 15.624 260.06 15.288C259.148 14.888 258.428 14.504 257.9 14.136C257.372 13.752 256.996 13.336 256.771 12.888C256.548 12.44 256.436 11.912 256.436 11.304C256.436 10.216 256.82 9.384 257.588 8.808C258.356 8.216 259.42 7.92 260.78 7.92C261.548 7.92 262.204 8.024 262.748 8.232C263.308 8.424 263.732 8.688 264.02 9.024C264.308 9.36 264.452 9.728 264.452 10.128C264.452 10.56 264.3 10.912 263.996 11.184C263.708 11.44 263.284 11.568 262.724 11.568C262.724 10.336 262.556 9.464 262.22 8.952C261.884 8.424 261.364 8.16 260.66 8.16C260.116 8.16 259.66 8.248 259.292 8.424C258.94 8.6 258.668 8.856 258.476 9.192C258.3 9.528 258.212 9.952 258.212 10.464C258.212 11.024 258.324 11.472 258.548 11.808C258.772 12.144 259.116 12.432 259.58 12.672C260.06 12.912 260.652 13.184 261.355 13.488C262.268 13.856 262.988 14.232 263.516 14.616C264.044 14.984 264.412 15.4 264.62 15.864C264.844 16.312 264.956 16.848 264.956 17.472C264.956 18.72 264.54 19.664 263.708 20.304C262.876 20.928 261.748 21.24 260.324 21.24ZM273.024 21.24C271.232 21.24 269.832 20.664 268.824 19.512C267.832 18.36 267.336 16.744 267.336 14.664C267.336 12.424 267.8 10.736 268.728 9.6C269.656 8.464 270.968 7.896 272.664 7.896C274.216 7.896 275.432 8.376 276.312 9.336C277.208 10.296 277.656 11.728 277.656 13.632V14.208H269.664C269.68 15.84 269.8 17.152 270.024 18.144C270.248 19.136 270.608 19.864 271.104 20.328C271.616 20.776 272.28 21 273.096 21C273.704 21 274.24 20.888 274.704 20.664C275.184 20.44 275.584 20.112 275.904 19.68C276.224 19.232 276.44 18.688 276.552 18.048C276.744 18.08 276.888 18.176 276.984 18.336C277.08 18.496 277.128 18.664 277.128 18.84C277.128 19.16 276.976 19.512 276.672 19.896C276.368 20.264 275.912 20.584 275.304 20.856C274.712 21.112 273.952 21.24 273.024 21.24ZM275.232 13.968C275.232 12.56 275.144 11.432 274.968 10.584C274.792 9.736 274.512 9.12 274.128 8.736C273.744 8.336 273.24 8.136 272.616 8.136C271.96 8.136 271.424 8.336 271.008 8.736C270.592 9.12 270.28 9.736 270.072 10.584C269.864 11.432 269.728 12.56 269.664 13.968H275.232ZM279.531 21V20.76H279.723C280.219 20.76 280.611 20.696 280.899 20.568C281.187 20.424 281.387 20.192 281.499 19.872C281.627 19.552 281.691 19.112 281.691 18.552V10.536C281.691 9.992 281.627 9.568 281.499 9.264C281.387 8.944 281.195 8.72 280.923 8.592C280.651 8.448 280.267 8.376 279.771 8.376H279.651V8.136H283.923V10.392H283.971C284.195 9.64 284.507 9.088 284.907 8.736C285.307 8.384 285.739 8.16 286.203 8.064C286.683 7.952 287.123 7.896 287.523 7.896C288.947 7.896 290.003 8.272 290.691 9.024C291.395 9.76 291.747 10.952 291.747 12.6V18.552C291.747 19.112 291.803 19.552 291.915 19.872C292.027 20.192 292.211 20.424 292.467 20.568C292.739 20.696 293.099 20.76 293.547 20.76H293.667V21H289.491V11.784C289.491 10.744 289.299 9.896 288.915 9.24C288.531 8.584 287.867 8.256 286.923 8.256C286.171 8.256 285.579 8.456 285.147 8.856C284.715 9.256 284.403 9.776 284.211 10.416C284.035 11.04 283.947 11.696 283.947 12.384V18.552C283.947 19.112 284.003 19.552 284.115 19.872C284.243 20.192 284.443 20.424 284.715 20.568C285.003 20.696 285.387 20.76 285.867 20.76H285.987V21H279.531ZM305.479 21.24C304.263 21.24 303.375 20.968 302.815 20.424C302.271 19.864 301.999 18.896 301.999 17.52V8.376H300.175V8.136C300.751 8.136 301.247 8.088 301.663 7.992C302.095 7.88 302.463 7.712 302.767 7.488C303.087 7.264 303.343 6.96 303.535 6.576C303.743 6.192 303.903 5.728 304.015 5.184H304.255V8.136H307.615V8.376H304.255V18.408C304.255 19.24 304.415 19.864 304.735 20.28C305.055 20.696 305.527 20.904 306.151 20.904C306.375 20.904 306.607 20.88 306.847 20.832C307.087 20.784 307.343 20.712 307.615 20.616V20.856C307.407 20.952 307.095 21.04 306.679 21.12C306.263 21.2 305.863 21.24 305.479 21.24ZM308.708 21V20.76H309.02C309.5 20.76 309.884 20.696 310.172 20.568C310.46 20.44 310.668 20.24 310.796 19.968C310.924 19.696 310.988 19.344 310.988 18.912V10.248C310.988 9.8 310.924 9.44 310.796 9.168C310.668 8.896 310.46 8.696 310.172 8.568C309.884 8.44 309.5 8.376 309.02 8.376H308.948V8.136H313.244V18.792C313.244 19.272 313.308 19.656 313.436 19.944C313.564 20.232 313.772 20.44 314.06 20.568C314.364 20.696 314.748 20.76 315.212 20.76H315.524V21H308.708ZM311.996 5.832C311.692 5.832 311.436 5.736 311.228 5.544C311.036 5.336 310.94 4.984 310.94 4.488C310.94 3.976 311.036 3.624 311.228 3.432C311.436 3.24 311.692 3.144 311.996 3.144C312.284 3.144 312.532 3.24 312.74 3.432C312.948 3.624 313.052 3.976 313.052 4.488C313.052 4.984 312.948 5.336 312.74 5.544C312.532 5.736 312.284 5.832 311.996 5.832ZM318.796 6.24C319.116 5.936 319.436 5.6 319.756 5.232C320.076 4.864 320.38 4.496 320.668 4.128C320.972 3.744 321.228 3.4 321.436 3.096H323.236C323.444 3.4 323.692 3.744 323.98 4.128C324.284 4.496 324.596 4.864 324.916 5.232C325.252 5.6 325.572 5.936 325.876 6.24V6.456H325.636C325.332 6.296 324.972 6.096 324.556 5.856C324.14 5.616 323.732 5.36 323.332 5.088C322.932 4.816 322.604 4.568 322.348 4.344C322.108 4.568 321.78 4.816 321.364 5.088C320.964 5.36 320.548 5.616 320.116 5.856C319.7 6.096 319.34 6.296 319.036 6.456H318.796V6.24ZM325.18 3.936C325.436 3.632 325.692 3.248 325.948 2.784C326.204 2.304 326.412 1.88 326.572 1.512H328.684V1.752C328.476 1.944 328.172 2.192 327.772 2.496C327.372 2.8 326.956 3.112 326.524 3.432C326.092 3.736 325.724 3.984 325.42 4.176H325.18V3.936ZM322.852 21.24C321.06 21.24 319.66 20.664 318.652 19.512C317.66 18.36 317.164 16.744 317.164 14.664C317.164 12.424 317.628 10.736 318.556 9.6C319.484 8.464 320.796 7.896 322.492 7.896C324.044 7.896 325.26 8.376 326.14 9.336C327.036 10.296 327.484 11.728 327.484 13.632V14.208H319.492C319.508 15.84 319.628 17.152 319.852 18.144C320.076 19.136 320.436 19.864 320.932 20.328C321.444 20.776 322.108 21 322.924 21C323.532 21 324.068 20.888 324.532 20.664C325.012 20.44 325.412 20.112 325.732 19.68C326.052 19.232 326.268 18.688 326.38 18.048C326.572 18.08 326.716 18.176 326.812 18.336C326.908 18.496 326.956 18.664 326.956 18.84C326.956 19.16 326.804 19.512 326.5 19.896C326.196 20.264 325.74 20.584 325.132 20.856C324.54 21.112 323.78 21.24 322.852 21.24ZM325.06 13.968C325.06 12.56 324.972 11.432 324.796 10.584C324.62 9.736 324.34 9.12 323.956 8.736C323.572 8.336 323.068 8.136 322.444 8.136C321.788 8.136 321.252 8.336 320.836 8.736C320.42 9.12 320.108 9.736 319.9 10.584C319.692 11.432 319.556 12.56 319.492 13.968H325.06ZM329.12 26.76V26.52H329.312C329.792 26.52 330.176 26.456 330.464 26.328C330.752 26.2 330.96 26 331.088 25.728C331.216 25.456 331.28 25.104 331.28 24.672V10.248C331.28 9.8 331.216 9.44 331.088 9.168C330.96 8.896 330.752 8.696 330.464 8.568C330.176 8.44 329.792 8.376 329.312 8.376H329V8.136H333.488V11.472H333.536C333.76 10.256 334.176 9.36 334.784 8.784C335.408 8.192 336.256 7.896 337.328 7.896C338.896 7.896 340.08 8.456 340.88 9.576C341.696 10.696 342.104 12.352 342.104 14.544C342.104 16.736 341.688 18.4 340.856 19.536C340.04 20.672 338.848 21.24 337.28 21.24C336.24 21.24 335.416 20.944 334.808 20.352C334.2 19.76 333.784 18.848 333.56 17.616H333.512C333.528 18.016 333.536 18.416 333.536 18.816C333.536 19.216 333.536 19.616 333.536 20.016V24.552C333.536 25.016 333.6 25.392 333.728 25.68C333.856 25.984 334.064 26.2 334.352 26.328C334.64 26.456 335.024 26.52 335.504 26.52H335.576V26.76H329.12ZM336.872 20.88C337.576 20.88 338.136 20.672 338.552 20.256C338.984 19.824 339.296 19.144 339.488 18.216C339.68 17.272 339.776 16.04 339.776 14.52C339.776 13.016 339.68 11.808 339.488 10.896C339.296 9.968 338.984 9.296 338.552 8.88C338.12 8.464 337.552 8.256 336.848 8.256C336.08 8.256 335.448 8.496 334.952 8.976C334.472 9.44 334.112 10.136 333.872 11.064C333.648 11.992 333.536 13.152 333.536 14.544C333.536 15.968 333.656 17.152 333.896 18.096C334.136 19.04 334.504 19.744 335 20.208C335.496 20.656 336.12 20.88 336.872 20.88ZM354.58 21.24C353.364 21.24 352.476 20.968 351.916 20.424C351.372 19.864 351.1 18.896 351.1 17.52V8.376H349.276V8.136C349.852 8.136 350.348 8.088 350.764 7.992C351.196 7.88 351.564 7.712 351.868 7.488C352.188 7.264 352.444 6.96 352.636 6.576C352.844 6.192 353.004 5.728 353.116 5.184H353.356V8.136H356.716V8.376H353.356V18.408C353.356 19.24 353.516 19.864 353.836 20.28C354.156 20.696 354.628 20.904 355.252 20.904C355.476 20.904 355.708 20.88 355.948 20.832C356.188 20.784 356.444 20.712 356.716 20.616V20.856C356.508 20.952 356.196 21.04 355.78 21.12C355.364 21.2 354.964 21.24 354.58 21.24ZM364.05 21.24C362.642 21.24 361.586 20.872 360.882 20.136C360.194 19.384 359.85 18.184 359.85 16.536V10.536C359.85 9.992 359.786 9.568 359.658 9.264C359.546 8.944 359.346 8.72 359.058 8.592C358.77 8.448 358.378 8.376 357.882 8.376H357.81V8.136H362.106V16.656C362.106 17.68 362.178 18.504 362.322 19.128C362.466 19.736 362.706 20.184 363.042 20.472C363.394 20.76 363.858 20.904 364.434 20.904C365.154 20.904 365.746 20.72 366.21 20.352C366.69 19.968 367.05 19.416 367.29 18.696C367.53 17.96 367.65 17.08 367.65 16.056V10.536C367.65 9.992 367.586 9.568 367.458 9.264C367.346 8.944 367.146 8.72 366.858 8.592C366.57 8.448 366.178 8.376 365.682 8.376H365.61V8.136H369.906V18.624C369.906 19.168 369.962 19.6 370.074 19.92C370.202 20.224 370.41 20.44 370.698 20.568C370.986 20.696 371.378 20.76 371.874 20.76H371.946V21H367.818V17.712H367.77C367.642 18.528 367.434 19.176 367.146 19.656C366.874 20.12 366.554 20.464 366.186 20.688C365.834 20.912 365.466 21.056 365.082 21.12C364.714 21.2 364.37 21.24 364.05 21.24ZM364.866 25.392C364.562 25.392 364.306 25.288 364.098 25.08C363.906 24.888 363.81 24.544 363.81 24.048C363.81 23.536 363.906 23.184 364.098 22.992C364.306 22.8 364.562 22.704 364.866 22.704C365.154 22.704 365.402 22.8 365.61 22.992C365.818 23.184 365.922 23.536 365.922 24.048C365.922 24.544 365.818 24.888 365.61 25.08C365.402 25.288 365.154 25.392 364.866 25.392ZM379.332 21.24C378.244 21.24 377.284 21.024 376.452 20.592C375.62 20.144 374.972 19.424 374.508 18.432C374.044 17.44 373.812 16.136 373.812 14.52C373.812 12.872 374.044 11.568 374.508 10.608C374.988 9.632 375.628 8.936 376.428 8.52C377.228 8.104 378.132 7.896 379.14 7.896C379.812 7.896 380.468 7.984 381.108 8.16C381.764 8.336 382.3 8.608 382.716 8.976C383.132 9.328 383.34 9.8 383.34 10.392C383.34 10.744 383.252 11.032 383.076 11.256C382.916 11.464 382.676 11.616 382.356 11.712C382.052 11.808 381.668 11.856 381.204 11.856C381.204 11.008 381.14 10.312 381.012 9.768C380.9 9.208 380.692 8.8 380.388 8.544C380.084 8.272 379.652 8.136 379.092 8.136C378.516 8.136 378.004 8.32 377.556 8.688C377.108 9.04 376.756 9.68 376.5 10.608C376.26 11.52 376.14 12.832 376.14 14.544C376.14 16.112 376.26 17.376 376.5 18.336C376.74 19.28 377.124 19.96 377.652 20.376C378.18 20.792 378.86 21 379.692 21C380.22 21 380.692 20.912 381.108 20.736C381.54 20.56 381.908 20.256 382.212 19.824C382.532 19.376 382.78 18.768 382.956 18C383.116 18.032 383.236 18.112 383.316 18.24C383.412 18.368 383.46 18.544 383.46 18.768C383.46 19.152 383.308 19.536 383.004 19.92C382.7 20.288 382.244 20.6 381.636 20.856C381.028 21.112 380.26 21.24 379.332 21.24ZM396.535 21.24C395.447 21.24 394.487 21.024 393.655 20.592C392.823 20.144 392.175 19.424 391.711 18.432C391.247 17.44 391.015 16.136 391.015 14.52C391.015 12.872 391.247 11.568 391.711 10.608C392.191 9.632 392.831 8.936 393.631 8.52C394.431 8.104 395.335 7.896 396.343 7.896C397.015 7.896 397.671 7.984 398.311 8.16C398.967 8.336 399.503 8.608 399.919 8.976C400.335 9.328 400.543 9.8 400.543 10.392C400.543 10.744 400.455 11.032 400.279 11.256C400.119 11.464 399.879 11.616 399.559 11.712C399.255 11.808 398.871 11.856 398.407 11.856C398.407 11.008 398.343 10.312 398.215 9.768C398.103 9.208 397.895 8.8 397.591 8.544C397.287 8.272 396.855 8.136 396.295 8.136C395.719 8.136 395.207 8.32 394.759 8.688C394.311 9.04 393.959 9.68 393.703 10.608C393.463 11.52 393.343 12.832 393.343 14.544C393.343 16.112 393.463 17.376 393.703 18.336C393.943 19.28 394.327 19.96 394.855 20.376C395.383 20.792 396.063 21 396.895 21C397.423 21 397.895 20.912 398.311 20.736C398.743 20.56 399.111 20.256 399.415 19.824C399.735 19.376 399.983 18.768 400.159 18C400.319 18.032 400.439 18.112 400.519 18.24C400.615 18.368 400.663 18.544 400.663 18.768C400.663 19.152 400.511 19.536 400.207 19.92C399.903 20.288 399.447 20.6 398.839 20.856C398.231 21.112 397.463 21.24 396.535 21.24ZM401.94 21V20.76H402.132C402.628 20.76 403.02 20.696 403.308 20.568C403.596 20.424 403.796 20.192 403.908 19.872C404.036 19.552 404.1 19.112 404.1 18.552V5.16C404.1 4.616 404.036 4.192 403.908 3.888C403.796 3.568 403.604 3.344 403.332 3.216C403.06 3.072 402.676 3 402.18 3H402.06V2.76H406.356V7.608C406.356 7.912 406.356 8.224 406.356 8.544C406.356 8.848 406.356 9.152 406.356 9.456C406.356 9.76 406.348 10.072 406.332 10.392H406.38C406.604 9.64 406.916 9.088 407.316 8.736C407.716 8.384 408.148 8.16 408.612 8.064C409.092 7.952 409.532 7.896 409.932 7.896C411.356 7.896 412.412 8.272 413.1 9.024C413.804 9.76 414.156 10.952 414.156 12.6V18.552C414.156 19.112 414.212 19.552 414.324 19.872C414.436 20.192 414.62 20.424 414.876 20.568C415.148 20.696 415.508 20.76 415.956 20.76H416.076V21H411.9V11.784C411.9 10.744 411.708 9.896 411.324 9.24C410.94 8.584 410.276 8.256 409.332 8.256C408.58 8.256 407.988 8.456 407.556 8.856C407.124 9.256 406.812 9.776 406.62 10.416C406.444 11.04 406.356 11.696 406.356 12.384V18.552C406.356 19.112 406.412 19.552 406.524 19.872C406.652 20.192 406.852 20.424 407.124 20.568C407.412 20.696 407.796 20.76 408.276 20.76H408.396V21H401.94ZM423.534 21.24C422.126 21.24 421.07 20.872 420.366 20.136C419.678 19.384 419.334 18.184 419.334 16.536V10.536C419.334 9.992 419.27 9.568 419.142 9.264C419.03 8.944 418.83 8.72 418.542 8.592C418.254 8.448 417.862 8.376 417.366 8.376H417.294V8.136H421.59V16.656C421.59 17.68 421.662 18.504 421.806 19.128C421.95 19.736 422.19 20.184 422.526 20.472C422.878 20.76 423.342 20.904 423.918 20.904C424.638 20.904 425.23 20.72 425.694 20.352C426.174 19.968 426.534 19.416 426.774 18.696C427.014 17.96 427.134 17.08 427.134 16.056V10.536C427.134 9.992 427.07 9.568 426.942 9.264C426.83 8.944 426.63 8.72 426.342 8.592C426.054 8.448 425.662 8.376 425.166 8.376H425.094V8.136H429.39V18.624C429.39 19.168 429.446 19.6 429.558 19.92C429.686 20.224 429.894 20.44 430.182 20.568C430.47 20.696 430.862 20.76 431.358 20.76H431.43V21H427.302V17.712H427.254C427.126 18.528 426.918 19.176 426.63 19.656C426.358 20.12 426.038 20.464 425.67 20.688C425.318 20.912 424.95 21.056 424.566 21.12C424.198 21.2 423.854 21.24 423.534 21.24ZM432.889 26.52C434.025 26.52 434.937 26.432 435.625 26.256C436.313 26.096 436.857 25.832 437.257 25.464C437.673 25.112 438.017 24.648 438.289 24.072C438.577 23.512 438.873 22.84 439.177 22.056L433.921 9.696C433.777 9.344 433.633 9.08 433.489 8.904C433.361 8.712 433.225 8.576 433.081 8.496C432.937 8.416 432.761 8.376 432.553 8.376H432.073V8.136H437.833V8.376H437.761C437.313 8.376 436.953 8.448 436.681 8.592C436.425 8.72 436.297 8.96 436.297 9.312C436.297 9.456 436.321 9.624 436.369 9.816C436.417 9.992 436.489 10.192 436.585 10.416L438.649 15.432C438.777 15.72 438.905 16.032 439.033 16.368C439.161 16.704 439.289 17.048 439.417 17.4C439.545 17.752 439.665 18.088 439.777 18.408C439.889 18.728 439.993 19.024 440.089 19.296C440.297 18.672 440.497 18.08 440.689 17.52C440.881 16.944 441.041 16.456 441.169 16.056L442.921 10.56C443.001 10.336 443.057 10.136 443.089 9.96C443.121 9.784 443.137 9.624 443.137 9.48C443.137 9.112 443.009 8.84 442.753 8.664C442.513 8.472 442.113 8.376 441.553 8.376H440.545V8.136H445.537V8.376H445.345C444.961 8.376 444.641 8.424 444.385 8.52C444.145 8.616 443.945 8.8 443.785 9.072C443.625 9.344 443.457 9.736 443.281 10.248L439.777 21.096C439.409 22.248 439.049 23.192 438.697 23.928C438.345 24.664 437.937 25.24 437.473 25.656C437.009 26.072 436.425 26.36 435.721 26.52C435.033 26.68 434.161 26.76 433.105 26.76H432.889V26.52ZM448.499 6.24C448.819 5.936 449.139 5.6 449.459 5.232C449.779 4.864 450.083 4.496 450.371 4.128C450.675 3.744 450.931 3.4 451.139 3.096H452.939C453.147 3.4 453.395 3.744 453.683 4.128C453.987 4.496 454.299 4.864 454.619 5.232C454.955 5.6 455.275 5.936 455.579 6.24V6.456H455.339C455.035 6.296 454.675 6.096 454.259 5.856C453.843 5.616 453.435 5.36 453.035 5.088C452.635 4.816 452.307 4.568 452.051 4.344C451.811 4.568 451.483 4.816 451.067 5.088C450.667 5.36 450.251 5.616 449.819 5.856C449.403 6.096 449.043 6.296 448.739 6.456H448.499V6.24ZM454.859 2.952C455.307 2.952 455.627 2.864 455.819 2.688C456.027 2.512 456.131 2.184 456.131 1.704C456.131 1.304 456.075 1.024 455.963 0.863999C455.851 0.687999 455.635 0.599999 455.315 0.599999C454.947 0.599999 454.699 0.711999 454.571 0.935999C454.443 1.16 454.379 1.448 454.379 1.8C454.171 1.8 453.995 1.744 453.851 1.632C453.723 1.52 453.659 1.384 453.659 1.224C453.659 0.951999 453.811 0.743999 454.115 0.599999C454.419 0.44 454.843 0.36 455.387 0.36C455.995 0.36 456.475 0.48 456.827 0.719999C457.195 0.943999 457.379 1.28 457.379 1.728C457.379 2.064 457.259 2.36 457.019 2.616C456.795 2.872 456.387 3.04 455.795 3.12L455.459 4.032H455.219L454.859 2.952ZM452.555 21.24C450.763 21.24 449.363 20.664 448.355 19.512C447.363 18.36 446.867 16.744 446.867 14.664C446.867 12.424 447.331 10.736 448.259 9.6C449.187 8.464 450.499 7.896 452.195 7.896C453.747 7.896 454.963 8.376 455.843 9.336C456.739 10.296 457.187 11.728 457.187 13.632V14.208H449.195C449.211 15.84 449.331 17.152 449.555 18.144C449.779 19.136 450.139 19.864 450.635 20.328C451.147 20.776 451.811 21 452.627 21C453.235 21 453.771 20.888 454.235 20.664C454.715 20.44 455.115 20.112 455.435 19.68C455.755 19.232 455.971 18.688 456.083 18.048C456.275 18.08 456.419 18.176 456.515 18.336C456.611 18.496 456.659 18.664 456.659 18.84C456.659 19.16 456.507 19.512 456.203 19.896C455.899 20.264 455.443 20.584 454.835 20.856C454.243 21.112 453.483 21.24 452.555 21.24ZM454.763 13.968C454.763 12.56 454.675 11.432 454.499 10.584C454.323 9.736 454.043 9.12 453.659 8.736C453.275 8.336 452.771 8.136 452.147 8.136C451.491 8.136 450.955 8.336 450.539 8.736C450.123 9.12 449.811 9.736 449.603 10.584C449.395 11.432 449.259 12.56 449.195 13.968H454.763ZM459.063 21V20.76H459.255C459.751 20.76 460.143 20.696 460.431 20.568C460.719 20.424 460.919 20.192 461.031 19.872C461.159 19.552 461.223 19.112 461.223 18.552V10.536C461.223 9.992 461.159 9.568 461.031 9.264C460.919 8.944 460.727 8.72 460.455 8.592C460.183 8.448 459.799 8.376 459.303 8.376H459.183V8.136H463.455V10.392H463.503C463.727 9.64 464.039 9.088 464.439 8.736C464.839 8.384 465.271 8.16 465.735 8.064C466.215 7.952 466.655 7.896 467.055 7.896C468.479 7.896 469.535 8.272 470.223 9.024C470.927 9.76 471.279 10.952 471.279 12.6V18.552C471.279 19.112 471.335 19.552 471.447 19.872C471.559 20.192 471.743 20.424 471.999 20.568C472.271 20.696 472.631 20.76 473.079 20.76H473.199V21H469.023V11.784C469.023 10.744 468.831 9.896 468.447 9.24C468.063 8.584 467.399 8.256 466.455 8.256C465.703 8.256 465.111 8.456 464.679 8.856C464.247 9.256 463.935 9.776 463.743 10.416C463.567 11.04 463.479 11.696 463.479 12.384V18.552C463.479 19.112 463.535 19.552 463.647 19.872C463.775 20.192 463.975 20.424 464.247 20.568C464.535 20.696 464.919 20.76 465.399 20.76H465.519V21H459.063ZM479.922 21V20.76H480.114C480.594 20.76 480.978 20.696 481.266 20.568C481.554 20.44 481.762 20.24 481.89 19.968C482.018 19.696 482.082 19.344 482.082 18.912V10.248C482.082 9.8 482.018 9.44 481.89 9.168C481.762 8.896 481.554 8.696 481.266 8.568C480.978 8.44 480.594 8.376 480.114 8.376H480.042V8.136H484.314V10.416H484.362C484.586 9.712 484.882 9.184 485.25 8.832C485.634 8.464 486.058 8.216 486.522 8.088C486.986 7.96 487.458 7.896 487.938 7.896C488.786 7.896 489.546 8.104 490.218 8.52C490.906 8.92 491.41 9.688 491.73 10.824H491.778C491.986 9.96 492.274 9.32 492.642 8.904C493.026 8.488 493.45 8.216 493.914 8.088C494.378 7.96 494.834 7.896 495.282 7.896C496.658 7.896 497.674 8.296 498.33 9.096C499.002 9.88 499.338 11.072 499.338 12.672V18.792C499.338 19.272 499.402 19.656 499.53 19.944C499.658 20.232 499.866 20.44 500.154 20.568C500.458 20.696 500.842 20.76 501.306 20.76H501.378V21H497.082V12.192C497.082 10.864 496.898 9.896 496.53 9.288C496.162 8.68 495.57 8.376 494.754 8.376C494.146 8.376 493.626 8.536 493.194 8.856C492.762 9.16 492.434 9.608 492.21 10.2C492.002 10.792 491.898 11.512 491.898 12.36V18.792C491.898 19.272 491.962 19.656 492.09 19.944C492.218 20.232 492.426 20.44 492.714 20.568C493.018 20.696 493.402 20.76 493.866 20.76H493.938V21H489.642V12.192C489.642 10.864 489.45 9.896 489.066 9.288C488.698 8.68 488.09 8.376 487.242 8.376C486.602 8.376 486.066 8.536 485.634 8.856C485.202 9.176 484.874 9.656 484.65 10.296C484.442 10.936 484.338 11.736 484.338 12.696V18.792C484.338 19.272 484.402 19.656 484.53 19.944C484.658 20.232 484.866 20.44 485.154 20.568C485.458 20.696 485.842 20.76 486.306 20.76H486.378V21H479.922ZM502.49 21V20.76H502.802C503.282 20.76 503.666 20.696 503.954 20.568C504.242 20.44 504.45 20.24 504.578 19.968C504.706 19.696 504.77 19.344 504.77 18.912V10.248C504.77 9.8 504.706 9.44 504.578 9.168C504.45 8.896 504.242 8.696 503.954 8.568C503.666 8.44 503.282 8.376 502.802 8.376H502.729V8.136H507.026V18.792C507.026 19.272 507.09 19.656 507.218 19.944C507.346 20.232 507.554 20.44 507.842 20.568C508.146 20.696 508.53 20.76 508.993 20.76H509.306V21H502.49ZM506.522 6.456C506.218 6.216 505.874 5.936 505.49 5.616C505.106 5.28 504.722 4.944 504.338 4.608C503.97 4.256 503.626 3.928 503.306 3.624C503.002 3.32 502.762 3.064 502.586 2.856V2.616H504.746C504.922 2.968 505.122 3.36 505.346 3.792C505.57 4.224 505.802 4.648 506.042 5.064C506.298 5.48 506.538 5.864 506.762 6.216V6.456H506.522ZM510.297 21V20.76H510.489C510.985 20.76 511.377 20.696 511.665 20.568C511.953 20.424 512.153 20.192 512.265 19.872C512.393 19.552 512.457 19.112 512.457 18.552V10.536C512.457 9.992 512.393 9.568 512.265 9.264C512.153 8.944 511.961 8.72 511.689 8.592C511.417 8.448 511.033 8.376 510.537 8.376H510.417V8.136H514.689V10.392H514.737C514.961 9.64 515.273 9.088 515.673 8.736C516.073 8.384 516.505 8.16 516.969 8.064C517.449 7.952 517.889 7.896 518.289 7.896C519.713 7.896 520.769 8.272 521.457 9.024C522.161 9.76 522.513 10.952 522.513 12.6V18.552C522.513 19.112 522.569 19.552 522.681 19.872C522.793 20.192 522.977 20.424 523.233 20.568C523.505 20.696 523.865 20.76 524.313 20.76H524.433V21H520.257V11.784C520.257 10.744 520.065 9.896 519.681 9.24C519.297 8.584 518.633 8.256 517.689 8.256C516.937 8.256 516.345 8.456 515.913 8.856C515.481 9.256 515.169 9.776 514.977 10.416C514.801 11.04 514.713 11.696 514.713 12.384V18.552C514.713 19.112 514.769 19.552 514.881 19.872C515.009 20.192 515.209 20.424 515.481 20.568C515.769 20.696 516.153 20.76 516.633 20.76H516.753V21H510.297ZM525.526 21V20.76H525.718C526.214 20.76 526.606 20.696 526.894 20.568C527.182 20.424 527.382 20.192 527.494 19.872C527.622 19.552 527.686 19.112 527.686 18.552V5.16C527.686 4.616 527.622 4.192 527.494 3.888C527.382 3.568 527.19 3.344 526.918 3.216C526.646 3.072 526.262 3 525.766 3H525.646V2.76H529.942V7.608C529.942 7.912 529.942 8.224 529.942 8.544C529.942 8.848 529.942 9.152 529.942 9.456C529.942 9.76 529.934 10.072 529.918 10.392H529.966C530.19 9.64 530.502 9.088 530.902 8.736C531.302 8.384 531.734 8.16 532.198 8.064C532.678 7.952 533.118 7.896 533.518 7.896C534.942 7.896 535.998 8.272 536.686 9.024C537.39 9.76 537.742 10.952 537.742 12.6V18.552C537.742 19.112 537.798 19.552 537.91 19.872C538.022 20.192 538.206 20.424 538.462 20.568C538.734 20.696 539.094 20.76 539.542 20.76H539.662V21H535.486V11.784C535.486 10.744 535.294 9.896 534.91 9.24C534.526 8.584 533.862 8.256 532.918 8.256C532.166 8.256 531.574 8.456 531.142 8.856C530.71 9.256 530.398 9.776 530.206 10.416C530.03 11.04 529.942 11.696 529.942 12.384V18.552C529.942 19.112 529.998 19.552 530.11 19.872C530.238 20.192 530.438 20.424 530.71 20.568C530.998 20.696 531.382 20.76 531.862 20.76H531.982V21H525.526Z" fill="url(#paint0_linear_2045_2490)"/>
<path d="M5.86388 21.24C5.07988 21.24 4.37588 21.16 3.75188 21C3.12788 20.824 2.59188 20.592 2.14388 20.304C1.71188 20 1.38388 19.648 1.15988 19.248C0.935875 18.848 0.823875 18.408 0.823875 17.928C0.823875 17.56 0.887875 17.256 1.01588 17.016C1.15988 16.76 1.35988 16.568 1.61588 16.44C1.87188 16.312 2.18388 16.248 2.55188 16.248C2.56788 17.288 2.69588 18.168 2.93588 18.888C3.19188 19.592 3.57588 20.12 4.08788 20.472C4.59988 20.824 5.24788 21 6.03188 21C7.05588 21 7.87988 20.704 8.50388 20.112C9.14388 19.504 9.46388 18.616 9.46388 17.448C9.46388 16.728 9.32788 16.144 9.05588 15.696C8.79988 15.248 8.37588 14.848 7.78388 14.496C7.20788 14.128 6.44788 13.728 5.50388 13.296C5.00788 13.056 4.49588 12.8 3.96788 12.528C3.45588 12.24 2.97588 11.904 2.52788 11.52C2.09588 11.12 1.74388 10.64 1.47188 10.08C1.21588 9.504 1.08788 8.824 1.08788 8.04C1.08788 7.08 1.29588 6.272 1.71188 5.616C2.12788 4.96 2.71188 4.464 3.46388 4.128C4.23188 3.792 5.12788 3.624 6.15188 3.624C7.09588 3.624 7.91188 3.752 8.59988 4.008C9.30388 4.264 9.84788 4.6 10.2319 5.016C10.6319 5.432 10.8319 5.888 10.8319 6.384C10.8319 6.848 10.6559 7.216 10.3039 7.488C9.95188 7.744 9.49588 7.872 8.93588 7.872C8.93588 6.544 8.71988 5.544 8.28788 4.872C7.85588 4.2 7.13588 3.864 6.12788 3.864C5.51988 3.864 4.98388 3.992 4.51988 4.248C4.05588 4.488 3.69588 4.856 3.43988 5.352C3.19988 5.832 3.07988 6.44 3.07988 7.176C3.07988 7.96 3.22388 8.592 3.51188 9.072C3.79988 9.552 4.23188 9.968 4.80788 10.32C5.39988 10.656 6.13588 11.032 7.01588 11.448C7.81588 11.816 8.55188 12.2 9.22388 12.6C9.91188 13 10.4639 13.504 10.8799 14.112C11.2959 14.72 11.5039 15.52 11.5039 16.512C11.5039 17.488 11.2799 18.328 10.8319 19.032C10.3999 19.736 9.75988 20.28 8.91188 20.664C8.07988 21.048 7.06388 21.24 5.86388 21.24ZM17.8866 21.24C16.6706 21.24 15.7026 20.928 14.9826 20.304C14.2786 19.664 13.9266 18.792 13.9266 17.688C13.9266 16.456 14.3746 15.536 15.2706 14.928C16.1826 14.32 17.5586 13.984 19.3986 13.92L21.3906 13.848V12.048C21.3906 11.152 21.3426 10.416 21.2466 9.84C21.1506 9.264 20.9426 8.84 20.6226 8.568C20.3026 8.28 19.8146 8.136 19.1586 8.136C18.2306 8.136 17.6306 8.424 17.3586 9C17.1026 9.576 16.9746 10.48 16.9746 11.712C16.3026 11.712 15.7906 11.6 15.4386 11.376C15.1026 11.152 14.9346 10.784 14.9346 10.272C14.9346 9.696 15.1266 9.24 15.5106 8.904C15.9106 8.552 16.4386 8.296 17.0946 8.136C17.7506 7.976 18.4706 7.896 19.2546 7.896C20.7266 7.896 21.8226 8.208 22.5426 8.832C23.2786 9.456 23.6466 10.528 23.6466 12.048V19.224C23.6466 19.608 23.6946 19.912 23.7906 20.136C23.8866 20.36 24.0466 20.52 24.2706 20.616C24.4946 20.712 24.7826 20.76 25.1346 20.76H25.2066V21H21.5826V18.48H21.5346C21.3746 19.12 21.1186 19.648 20.7666 20.064C20.4146 20.464 19.9906 20.76 19.4946 20.952C19.0146 21.144 18.4786 21.24 17.8866 21.24ZM18.3666 20.904C18.9586 20.904 19.4786 20.752 19.9266 20.448C20.3906 20.144 20.7506 19.736 21.0066 19.224C21.2626 18.712 21.3906 18.16 21.3906 17.568V14.112L19.8546 14.184C18.4946 14.248 17.5506 14.56 17.0226 15.12C16.5106 15.68 16.2546 16.624 16.2546 17.952C16.2546 18.592 16.3266 19.136 16.4706 19.584C16.6306 20.016 16.8706 20.344 17.1906 20.568C17.5106 20.792 17.9026 20.904 18.3666 20.904ZM33.042 21.24C31.634 21.24 30.578 20.872 29.874 20.136C29.186 19.384 28.842 18.184 28.842 16.536V10.536C28.842 9.992 28.778 9.568 28.65 9.264C28.538 8.944 28.338 8.72 28.05 8.592C27.762 8.448 27.37 8.376 26.874 8.376H26.802V8.136H31.098V16.656C31.098 17.68 31.17 18.504 31.314 19.128C31.458 19.736 31.698 20.184 32.034 20.472C32.386 20.76 32.85 20.904 33.426 20.904C34.146 20.904 34.738 20.72 35.202 20.352C35.682 19.968 36.042 19.416 36.282 18.696C36.522 17.96 36.642 17.08 36.642 16.056V10.536C36.642 9.992 36.578 9.568 36.45 9.264C36.338 8.944 36.138 8.72 35.85 8.592C35.562 8.448 35.17 8.376 34.674 8.376H34.602V8.136H38.898V18.624C38.898 19.168 38.954 19.6 39.066 19.92C39.194 20.224 39.402 20.44 39.69 20.568C39.978 20.696 40.37 20.76 40.866 20.76H40.938V21H36.81V17.712H36.762C36.634 18.528 36.426 19.176 36.138 19.656C35.866 20.12 35.546 20.464 35.178 20.688C34.826 20.912 34.458 21.056 34.074 21.12C33.706 21.2 33.362 21.24 33.042 21.24ZM53.715 21.24C52.627 21.24 51.667 21.024 50.835 20.592C50.003 20.144 49.355 19.424 48.891 18.432C48.427 17.44 48.195 16.136 48.195 14.52C48.195 12.872 48.427 11.568 48.891 10.608C49.371 9.632 50.011 8.936 50.811 8.52C51.611 8.104 52.515 7.896 53.523 7.896C54.195 7.896 54.851 7.984 55.491 8.16C56.147 8.336 56.683 8.608 57.099 8.976C57.515 9.328 57.723 9.8 57.723 10.392C57.723 10.744 57.635 11.032 57.459 11.256C57.299 11.464 57.059 11.616 56.739 11.712C56.435 11.808 56.051 11.856 55.587 11.856C55.587 11.008 55.523 10.312 55.395 9.768C55.283 9.208 55.075 8.8 54.771 8.544C54.467 8.272 54.035 8.136 53.475 8.136C52.899 8.136 52.387 8.32 51.939 8.688C51.491 9.04 51.139 9.68 50.883 10.608C50.643 11.52 50.523 12.832 50.523 14.544C50.523 16.112 50.643 17.376 50.883 18.336C51.123 19.28 51.507 19.96 52.035 20.376C52.563 20.792 53.243 21 54.075 21C54.603 21 55.075 20.912 55.491 20.736C55.923 20.56 56.291 20.256 56.595 19.824C56.915 19.376 57.163 18.768 57.339 18C57.499 18.032 57.619 18.112 57.699 18.24C57.795 18.368 57.843 18.544 57.843 18.768C57.843 19.152 57.691 19.536 57.387 19.92C57.083 20.288 56.627 20.6 56.019 20.856C55.411 21.112 54.643 21.24 53.715 21.24ZM59.1195 21V20.76H59.3115C59.8075 20.76 60.1995 20.696 60.4875 20.568C60.7755 20.424 60.9755 20.192 61.0875 19.872C61.2155 19.552 61.2795 19.112 61.2795 18.552V5.16C61.2795 4.616 61.2155 4.192 61.0875 3.888C60.9755 3.568 60.7835 3.344 60.5115 3.216C60.2395 3.072 59.8555 3 59.3595 3H59.2395V2.76H63.5355V7.608C63.5355 7.912 63.5355 8.224 63.5355 8.544C63.5355 8.848 63.5355 9.152 63.5355 9.456C63.5355 9.76 63.5275 10.072 63.5115 10.392H63.5595C63.7835 9.64 64.0955 9.088 64.4955 8.736C64.8955 8.384 65.3275 8.16 65.7915 8.064C66.2715 7.952 66.7115 7.896 67.1115 7.896C68.5355 7.896 69.5915 8.272 70.2795 9.024C70.9835 9.76 71.3355 10.952 71.3355 12.6V18.552C71.3355 19.112 71.3915 19.552 71.5035 19.872C71.6155 20.192 71.7995 20.424 72.0555 20.568C72.3275 20.696 72.6875 20.76 73.1355 20.76H73.2555V21H69.0795V11.784C69.0795 10.744 68.8875 9.896 68.5035 9.24C68.1195 8.584 67.4555 8.256 66.5115 8.256C65.7595 8.256 65.1675 8.456 64.7355 8.856C64.3035 9.256 63.9915 9.776 63.7995 10.416C63.6235 11.04 63.5355 11.696 63.5355 12.384V18.552C63.5355 19.112 63.5915 19.552 63.7035 19.872C63.8315 20.192 64.0315 20.424 64.3035 20.568C64.5915 20.696 64.9755 20.76 65.4555 20.76H65.5755V21H59.1195ZM79.0819 21.24C77.8659 21.24 76.8979 20.928 76.1779 20.304C75.4739 19.664 75.1219 18.792 75.1219 17.688C75.1219 16.456 75.5699 15.536 76.4659 14.928C77.3779 14.32 78.7539 13.984 80.5939 13.92L82.5859 13.848V12.048C82.5859 11.152 82.5379 10.416 82.4419 9.84C82.3459 9.264 82.1379 8.84 81.8179 8.568C81.4979 8.28 81.0099 8.136 80.3539 8.136C79.4259 8.136 78.8259 8.424 78.5539 9C78.2979 9.576 78.1699 10.48 78.1699 11.712C77.4979 11.712 76.9859 11.6 76.6339 11.376C76.2979 11.152 76.1299 10.784 76.1299 10.272C76.1299 9.696 76.3219 9.24 76.7059 8.904C77.1059 8.552 77.6339 8.296 78.2899 8.136C78.9459 7.976 79.6659 7.896 80.4499 7.896C81.9219 7.896 83.0179 8.208 83.7379 8.832C84.4739 9.456 84.8419 10.528 84.8419 12.048V19.224C84.8419 19.608 84.8899 19.912 84.9859 20.136C85.0819 20.36 85.2419 20.52 85.4659 20.616C85.6899 20.712 85.9779 20.76 86.3299 20.76H86.4019V21H82.7779V18.48H82.7299C82.5699 19.12 82.3139 19.648 81.9619 20.064C81.6099 20.464 81.1859 20.76 80.6899 20.952C80.2099 21.144 79.6739 21.24 79.0819 21.24ZM79.5619 20.904C80.1539 20.904 80.6739 20.752 81.1219 20.448C81.5859 20.144 81.9459 19.736 82.2019 19.224C82.4579 18.712 82.5859 18.16 82.5859 17.568V14.112L81.0499 14.184C79.6899 14.248 78.7459 14.56 78.2179 15.12C77.7059 15.68 77.4499 16.624 77.4499 17.952C77.4499 18.592 77.5219 19.136 77.6659 19.584C77.8259 20.016 78.0659 20.344 78.3859 20.568C78.7059 20.792 79.0979 20.904 79.5619 20.904ZM80.5219 6.456C79.7699 6.456 79.1539 6.312 78.6739 6.024C78.1939 5.72 77.8339 5.32 77.5939 4.824C77.3539 4.312 77.2099 3.76 77.1619 3.168H77.4019C77.5299 3.552 77.7059 3.864 77.9299 4.104C78.1699 4.344 78.4979 4.52 78.9139 4.632C79.3459 4.744 79.8819 4.8 80.5219 4.8C81.1779 4.8 81.7139 4.744 82.1299 4.632C82.5459 4.52 82.8739 4.344 83.1139 4.104C83.3539 3.864 83.5299 3.552 83.6419 3.168H83.8819C83.8339 3.76 83.6899 4.312 83.4499 4.824C83.2099 5.32 82.8499 5.72 82.3699 6.024C81.9059 6.312 81.2899 6.456 80.5219 6.456ZM80.3539 25.392C80.0499 25.392 79.7939 25.288 79.5859 25.08C79.3939 24.888 79.2979 24.544 79.2979 24.048C79.2979 23.536 79.3939 23.184 79.5859 22.992C79.7939 22.8 80.0499 22.704 80.3539 22.704C80.6419 22.704 80.8899 22.8 81.0979 22.992C81.3059 23.184 81.4099 23.536 81.4099 24.048C81.4099 24.544 81.3059 24.888 81.0979 25.08C80.8899 25.288 80.6419 25.392 80.3539 25.392ZM88.1173 21V20.76H88.3093C88.8053 20.76 89.1973 20.696 89.4853 20.568C89.7733 20.424 89.9733 20.192 90.0853 19.872C90.2133 19.552 90.2773 19.112 90.2773 18.552V10.536C90.2773 9.992 90.2133 9.568 90.0853 9.264C89.9733 8.944 89.7813 8.72 89.5093 8.592C89.2373 8.448 88.8533 8.376 88.3573 8.376H88.2373V8.136H92.5093V10.392H92.5573C92.7813 9.64 93.0933 9.088 93.4933 8.736C93.8933 8.384 94.3253 8.16 94.7893 8.064C95.2693 7.952 95.7093 7.896 96.1093 7.896C97.5333 7.896 98.5893 8.272 99.2773 9.024C99.9813 9.76 100.333 10.952 100.333 12.6V18.552C100.333 19.112 100.389 19.552 100.501 19.872C100.613 20.192 100.797 20.424 101.053 20.568C101.325 20.696 101.685 20.76 102.133 20.76H102.253V21H98.0773V11.784C98.0773 10.744 97.8853 9.896 97.5013 9.24C97.1173 8.584 96.4533 8.256 95.5093 8.256C94.7573 8.256 94.1653 8.456 93.7333 8.856C93.3013 9.256 92.9893 9.776 92.7973 10.416C92.6213 11.04 92.5333 11.696 92.5333 12.384V18.552C92.5333 19.112 92.5893 19.552 92.7013 19.872C92.8293 20.192 93.0293 20.424 93.3013 20.568C93.5893 20.696 93.9733 20.76 94.4533 20.76H94.5733V21H88.1173ZM108.458 26.76C106.794 26.76 105.546 26.456 104.714 25.848C103.882 25.256 103.466 24.464 103.466 23.472C103.466 22.912 103.594 22.424 103.85 22.008C104.106 21.608 104.498 21.288 105.026 21.048C105.554 20.808 106.218 20.688 107.018 20.688C106.394 20.496 105.922 20.184 105.602 19.752C105.298 19.32 105.146 18.864 105.146 18.384C105.146 17.92 105.298 17.48 105.602 17.064C105.922 16.632 106.41 16.304 107.066 16.08C106.298 15.808 105.682 15.36 105.218 14.736C104.77 14.096 104.546 13.296 104.546 12.336C104.546 10.96 104.922 9.88 105.674 9.096C106.426 8.296 107.554 7.896 109.058 7.896C109.618 7.896 110.122 7.968 110.57 8.112C111.018 8.24 111.418 8.432 111.77 8.688C112.01 8.432 112.33 8.152 112.73 7.848C113.13 7.544 113.602 7.392 114.146 7.392C114.61 7.392 114.954 7.52 115.178 7.776C115.418 8.016 115.538 8.312 115.538 8.664C115.538 8.984 115.434 9.248 115.226 9.456C115.034 9.664 114.714 9.768 114.266 9.768C114.266 9.256 114.178 8.88 114.002 8.64C113.842 8.4 113.578 8.28 113.21 8.28C113.002 8.28 112.81 8.32 112.634 8.4C112.458 8.464 112.234 8.608 111.962 8.832C112.426 9.216 112.778 9.704 113.018 10.296C113.258 10.888 113.378 11.544 113.378 12.264C113.378 13.448 113.018 14.432 112.298 15.216C111.594 16 110.514 16.392 109.058 16.392C108.754 16.392 108.458 16.376 108.17 16.344C107.898 16.296 107.634 16.24 107.378 16.176C106.994 16.336 106.73 16.528 106.586 16.752C106.442 16.976 106.37 17.224 106.37 17.496C106.37 17.912 106.514 18.216 106.802 18.408C107.106 18.6 107.554 18.696 108.146 18.696H110.858C112.282 18.696 113.298 19.032 113.906 19.704C114.514 20.376 114.818 21.232 114.818 22.272C114.818 23.648 114.298 24.736 113.258 25.536C112.234 26.352 110.634 26.76 108.458 26.76ZM108.65 26.52C110.17 26.52 111.29 26.24 112.01 25.68C112.73 25.136 113.09 24.328 113.09 23.256C113.09 22.424 112.866 21.808 112.418 21.408C111.986 21.024 111.314 20.832 110.402 20.832H107.81C107.378 20.832 106.962 20.912 106.562 21.072C106.178 21.232 105.858 21.512 105.602 21.912C105.362 22.312 105.242 22.864 105.242 23.568C105.242 24.224 105.378 24.768 105.65 25.2C105.922 25.648 106.306 25.976 106.802 26.184C107.314 26.408 107.93 26.52 108.65 26.52ZM108.986 16.152C109.514 16.152 109.93 16.016 110.234 15.744C110.554 15.472 110.778 15.048 110.906 14.472C111.05 13.896 111.122 13.16 111.122 12.264C111.122 11.32 111.05 10.544 110.906 9.936C110.762 9.328 110.53 8.88 110.21 8.592C109.906 8.288 109.49 8.136 108.962 8.136C108.45 8.136 108.034 8.296 107.714 8.616C107.394 8.92 107.162 9.376 107.018 9.984C106.874 10.592 106.802 11.36 106.802 12.288C106.802 13.168 106.874 13.896 107.018 14.472C107.178 15.048 107.418 15.472 107.738 15.744C108.058 16.016 108.474 16.152 108.986 16.152ZM196.517 24.456C197.013 24.296 197.445 24.104 197.813 23.88C198.197 23.656 198.493 23.392 198.701 23.088C198.925 22.784 199.037 22.432 199.037 22.032C199.037 21.696 198.965 21.432 198.821 21.24C198.693 21.064 198.533 20.928 198.341 20.832C198.149 20.72 197.949 20.616 197.741 20.52C197.549 20.424 197.381 20.288 197.237 20.112C197.109 19.936 197.045 19.688 197.045 19.368C197.045 18.888 197.189 18.528 197.477 18.288C197.781 18.032 198.157 17.904 198.605 17.904C199.101 17.904 199.533 18.08 199.901 18.432C200.269 18.768 200.453 19.336 200.453 20.136C200.453 21.064 200.141 21.952 199.517 22.8C198.909 23.664 197.909 24.296 196.517 24.696V24.456ZM207.62 21V20.76H207.812C208.308 20.76 208.7 20.696 208.988 20.568C209.276 20.424 209.476 20.192 209.588 19.872C209.716 19.552 209.78 19.112 209.78 18.552V5.16C209.78 4.616 209.716 4.192 209.588 3.888C209.476 3.568 209.284 3.344 209.012 3.216C208.74 3.072 208.356 3 207.86 3H207.74V2.76H212.036V7.608C212.036 7.912 212.036 8.224 212.036 8.544C212.036 8.848 212.036 9.152 212.036 9.456C212.036 9.76 212.028 10.072 212.012 10.392H212.06C212.284 9.64 212.596 9.088 212.996 8.736C213.396 8.384 213.828 8.16 214.292 8.064C214.772 7.952 215.212 7.896 215.612 7.896C217.036 7.896 218.092 8.272 218.78 9.024C219.484 9.76 219.836 10.952 219.836 12.6V18.552C219.836 19.112 219.892 19.552 220.004 19.872C220.116 20.192 220.3 20.424 220.556 20.568C220.828 20.696 221.188 20.76 221.636 20.76H221.756V21H217.58V11.784C217.58 10.744 217.388 9.896 217.004 9.24C216.62 8.584 215.956 8.256 215.012 8.256C214.26 8.256 213.668 8.456 213.236 8.856C212.804 9.256 212.492 9.776 212.3 10.416C212.124 11.04 212.036 11.696 212.036 12.384V18.552C212.036 19.112 212.092 19.552 212.204 19.872C212.332 20.192 212.532 20.424 212.804 20.568C213.092 20.696 213.476 20.76 213.956 20.76H214.076V21H207.62ZM229.31 21.24C227.582 21.24 226.222 20.688 225.23 19.584C224.238 18.48 223.742 16.8 223.742 14.544C223.742 12.304 224.214 10.64 225.158 9.552C226.118 8.448 227.526 7.896 229.382 7.896C231.11 7.896 232.47 8.448 233.462 9.552C234.454 10.64 234.95 12.304 234.95 14.544C234.95 16.8 234.47 18.48 233.51 19.584C232.566 20.688 231.166 21.24 229.31 21.24ZM229.358 21C230.142 21 230.774 20.784 231.254 20.352C231.734 19.92 232.078 19.232 232.286 18.288C232.51 17.344 232.622 16.096 232.622 14.544C232.622 13.008 232.51 11.768 232.286 10.824C232.078 9.88 231.734 9.2 231.254 8.784C230.774 8.352 230.134 8.136 229.334 8.136C228.55 8.136 227.918 8.352 227.438 8.784C226.958 9.2 226.606 9.88 226.382 10.824C226.174 11.768 226.07 13.008 226.07 14.544C226.07 16.096 226.174 17.344 226.382 18.288C226.606 19.232 226.958 19.92 227.438 20.352C227.934 20.784 228.574 21 229.358 21ZM241.433 21.24C240.217 21.24 239.249 20.928 238.529 20.304C237.825 19.664 237.473 18.792 237.473 17.688C237.473 16.456 237.921 15.536 238.817 14.928C239.729 14.32 241.105 13.984 242.945 13.92L244.937 13.848V12.048C244.937 11.152 244.889 10.416 244.793 9.84C244.697 9.264 244.489 8.84 244.169 8.568C243.849 8.28 243.361 8.136 242.705 8.136C241.777 8.136 241.177 8.424 240.905 9C240.649 9.576 240.521 10.48 240.521 11.712C239.849 11.712 239.337 11.6 238.985 11.376C238.649 11.152 238.481 10.784 238.481 10.272C238.481 9.696 238.673 9.24 239.057 8.904C239.457 8.552 239.985 8.296 240.641 8.136C241.297 7.976 242.017 7.896 242.801 7.896C244.273 7.896 245.369 8.208 246.089 8.832C246.825 9.456 247.193 10.528 247.193 12.048V19.224C247.193 19.608 247.241 19.912 247.337 20.136C247.433 20.36 247.593 20.52 247.817 20.616C248.041 20.712 248.329 20.76 248.681 20.76H248.753V21H245.129V18.48H245.081C244.921 19.12 244.665 19.648 244.313 20.064C243.961 20.464 243.537 20.76 243.041 20.952C242.561 21.144 242.025 21.24 241.433 21.24ZM241.913 20.904C242.505 20.904 243.025 20.752 243.473 20.448C243.937 20.144 244.297 19.736 244.553 19.224C244.809 18.712 244.937 18.16 244.937 17.568V14.112L243.401 14.184C242.041 14.248 241.097 14.56 240.569 15.12C240.057 15.68 239.801 16.624 239.801 17.952C239.801 18.592 239.873 19.136 240.017 19.584C240.177 20.016 240.417 20.344 240.737 20.568C241.057 20.792 241.449 20.904 241.913 20.904ZM260.324 21.24C259.524 21.24 258.82 21.144 258.212 20.952C257.604 20.76 257.124 20.48 256.771 20.112C256.436 19.728 256.268 19.256 256.268 18.696C256.268 18.264 256.356 17.928 256.532 17.688C256.708 17.448 256.908 17.28 257.132 17.184C257.372 17.088 257.588 17.04 257.78 17.04C257.78 17.904 257.86 18.632 258.02 19.224C258.18 19.8 258.452 20.24 258.836 20.544C259.22 20.848 259.732 21 260.372 21C261.22 21 261.892 20.784 262.388 20.352C262.884 19.904 263.132 19.248 263.132 18.384C263.132 17.824 263.036 17.384 262.844 17.064C262.652 16.728 262.332 16.432 261.884 16.176C261.452 15.92 260.844 15.624 260.06 15.288C259.148 14.888 258.428 14.504 257.9 14.136C257.372 13.752 256.996 13.336 256.771 12.888C256.548 12.44 256.436 11.912 256.436 11.304C256.436 10.216 256.82 9.384 257.588 8.808C258.356 8.216 259.42 7.92 260.78 7.92C261.548 7.92 262.204 8.024 262.748 8.232C263.308 8.424 263.732 8.688 264.02 9.024C264.308 9.36 264.452 9.728 264.452 10.128C264.452 10.56 264.3 10.912 263.996 11.184C263.708 11.44 263.284 11.568 262.724 11.568C262.724 10.336 262.556 9.464 262.22 8.952C261.884 8.424 261.364 8.16 260.66 8.16C260.116 8.16 259.66 8.248 259.292 8.424C258.94 8.6 258.668 8.856 258.476 9.192C258.3 9.528 258.212 9.952 258.212 10.464C258.212 11.024 258.324 11.472 258.548 11.808C258.772 12.144 259.116 12.432 259.58 12.672C260.06 12.912 260.652 13.184 261.355 13.488C262.268 13.856 262.988 14.232 263.516 14.616C264.044 14.984 264.412 15.4 264.62 15.864C264.844 16.312 264.956 16.848 264.956 17.472C264.956 18.72 264.54 19.664 263.708 20.304C262.876 20.928 261.748 21.24 260.324 21.24ZM273.024 21.24C271.232 21.24 269.832 20.664 268.824 19.512C267.832 18.36 267.336 16.744 267.336 14.664C267.336 12.424 267.8 10.736 268.728 9.6C269.656 8.464 270.968 7.896 272.664 7.896C274.216 7.896 275.432 8.376 276.312 9.336C277.208 10.296 277.656 11.728 277.656 13.632V14.208H269.664C269.68 15.84 269.8 17.152 270.024 18.144C270.248 19.136 270.608 19.864 271.104 20.328C271.616 20.776 272.28 21 273.096 21C273.704 21 274.24 20.888 274.704 20.664C275.184 20.44 275.584 20.112 275.904 19.68C276.224 19.232 276.44 18.688 276.552 18.048C276.744 18.08 276.888 18.176 276.984 18.336C277.08 18.496 277.128 18.664 277.128 18.84C277.128 19.16 276.976 19.512 276.672 19.896C276.368 20.264 275.912 20.584 275.304 20.856C274.712 21.112 273.952 21.24 273.024 21.24ZM275.232 13.968C275.232 12.56 275.144 11.432 274.968 10.584C274.792 9.736 274.512 9.12 274.128 8.736C273.744 8.336 273.24 8.136 272.616 8.136C271.96 8.136 271.424 8.336 271.008 8.736C270.592 9.12 270.28 9.736 270.072 10.584C269.864 11.432 269.728 12.56 269.664 13.968H275.232ZM279.531 21V20.76H279.723C280.219 20.76 280.611 20.696 280.899 20.568C281.187 20.424 281.387 20.192 281.499 19.872C281.627 19.552 281.691 19.112 281.691 18.552V10.536C281.691 9.992 281.627 9.568 281.499 9.264C281.387 8.944 281.195 8.72 280.923 8.592C280.651 8.448 280.267 8.376 279.771 8.376H279.651V8.136H283.923V10.392H283.971C284.195 9.64 284.507 9.088 284.907 8.736C285.307 8.384 285.739 8.16 286.203 8.064C286.683 7.952 287.123 7.896 287.523 7.896C288.947 7.896 290.003 8.272 290.691 9.024C291.395 9.76 291.747 10.952 291.747 12.6V18.552C291.747 19.112 291.803 19.552 291.915 19.872C292.027 20.192 292.211 20.424 292.467 20.568C292.739 20.696 293.099 20.76 293.547 20.76H293.667V21H289.491V11.784C289.491 10.744 289.299 9.896 288.915 9.24C288.531 8.584 287.867 8.256 286.923 8.256C286.171 8.256 285.579 8.456 285.147 8.856C284.715 9.256 284.403 9.776 284.211 10.416C284.035 11.04 283.947 11.696 283.947 12.384V18.552C283.947 19.112 284.003 19.552 284.115 19.872C284.243 20.192 284.443 20.424 284.715 20.568C285.003 20.696 285.387 20.76 285.867 20.76H285.987V21H279.531ZM305.479 21.24C304.263 21.24 303.375 20.968 302.815 20.424C302.271 19.864 301.999 18.896 301.999 17.52V8.376H300.175V8.136C300.751 8.136 301.247 8.088 301.663 7.992C302.095 7.88 302.463 7.712 302.767 7.488C303.087 7.264 303.343 6.96 303.535 6.576C303.743 6.192 303.903 5.728 304.015 5.184H304.255V8.136H307.615V8.376H304.255V18.408C304.255 19.24 304.415 19.864 304.735 20.28C305.055 20.696 305.527 20.904 306.151 20.904C306.375 20.904 306.607 20.88 306.847 20.832C307.087 20.784 307.343 20.712 307.615 20.616V20.856C307.407 20.952 307.095 21.04 306.679 21.12C306.263 21.2 305.863 21.24 305.479 21.24ZM308.708 21V20.76H309.02C309.5 20.76 309.884 20.696 310.172 20.568C310.46 20.44 310.668 20.24 310.796 19.968C310.924 19.696 310.988 19.344 310.988 18.912V10.248C310.988 9.8 310.924 9.44 310.796 9.168C310.668 8.896 310.46 8.696 310.172 8.568C309.884 8.44 309.5 8.376 309.02 8.376H308.948V8.136H313.244V18.792C313.244 19.272 313.308 19.656 313.436 19.944C313.564 20.232 313.772 20.44 314.06 20.568C314.364 20.696 314.748 20.76 315.212 20.76H315.524V21H308.708ZM311.996 5.832C311.692 5.832 311.436 5.736 311.228 5.544C311.036 5.336 310.94 4.984 310.94 4.488C310.94 3.976 311.036 3.624 311.228 3.432C311.436 3.24 311.692 3.144 311.996 3.144C312.284 3.144 312.532 3.24 312.74 3.432C312.948 3.624 313.052 3.976 313.052 4.488C313.052 4.984 312.948 5.336 312.74 5.544C312.532 5.736 312.284 5.832 311.996 5.832ZM318.796 6.24C319.116 5.936 319.436 5.6 319.756 5.232C320.076 4.864 320.38 4.496 320.668 4.128C320.972 3.744 321.228 3.4 321.436 3.096H323.236C323.444 3.4 323.692 3.744 323.98 4.128C324.284 4.496 324.596 4.864 324.916 5.232C325.252 5.6 325.572 5.936 325.876 6.24V6.456H325.636C325.332 6.296 324.972 6.096 324.556 5.856C324.14 5.616 323.732 5.36 323.332 5.088C322.932 4.816 322.604 4.568 322.348 4.344C322.108 4.568 321.78 4.816 321.364 5.088C320.964 5.36 320.548 5.616 320.116 5.856C319.7 6.096 319.34 6.296 319.036 6.456H318.796V6.24ZM325.18 3.936C325.436 3.632 325.692 3.248 325.948 2.784C326.204 2.304 326.412 1.88 326.572 1.512H328.684V1.752C328.476 1.944 328.172 2.192 327.772 2.496C327.372 2.8 326.956 3.112 326.524 3.432C326.092 3.736 325.724 3.984 325.42 4.176H325.18V3.936ZM322.852 21.24C321.06 21.24 319.66 20.664 318.652 19.512C317.66 18.36 317.164 16.744 317.164 14.664C317.164 12.424 317.628 10.736 318.556 9.6C319.484 8.464 320.796 7.896 322.492 7.896C324.044 7.896 325.26 8.376 326.14 9.336C327.036 10.296 327.484 11.728 327.484 13.632V14.208H319.492C319.508 15.84 319.628 17.152 319.852 18.144C320.076 19.136 320.436 19.864 320.932 20.328C321.444 20.776 322.108 21 322.924 21C323.532 21 324.068 20.888 324.532 20.664C325.012 20.44 325.412 20.112 325.732 19.68C326.052 19.232 326.268 18.688 326.38 18.048C326.572 18.08 326.716 18.176 326.812 18.336C326.908 18.496 326.956 18.664 326.956 18.84C326.956 19.16 326.804 19.512 326.5 19.896C326.196 20.264 325.74 20.584 325.132 20.856C324.54 21.112 323.78 21.24 322.852 21.24ZM325.06 13.968C325.06 12.56 324.972 11.432 324.796 10.584C324.62 9.736 324.34 9.12 323.956 8.736C323.572 8.336 323.068 8.136 322.444 8.136C321.788 8.136 321.252 8.336 320.836 8.736C320.42 9.12 320.108 9.736 319.9 10.584C319.692 11.432 319.556 12.56 319.492 13.968H325.06ZM329.12 26.76V26.52H329.312C329.792 26.52 330.176 26.456 330.464 26.328C330.752 26.2 330.96 26 331.088 25.728C331.216 25.456 331.28 25.104 331.28 24.672V10.248C331.28 9.8 331.216 9.44 331.088 9.168C330.96 8.896 330.752 8.696 330.464 8.568C330.176 8.44 329.792 8.376 329.312 8.376H329V8.136H333.488V11.472H333.536C333.76 10.256 334.176 9.36 334.784 8.784C335.408 8.192 336.256 7.896 337.328 7.896C338.896 7.896 340.08 8.456 340.88 9.576C341.696 10.696 342.104 12.352 342.104 14.544C342.104 16.736 341.688 18.4 340.856 19.536C340.04 20.672 338.848 21.24 337.28 21.24C336.24 21.24 335.416 20.944 334.808 20.352C334.2 19.76 333.784 18.848 333.56 17.616H333.512C333.528 18.016 333.536 18.416 333.536 18.816C333.536 19.216 333.536 19.616 333.536 20.016V24.552C333.536 25.016 333.6 25.392 333.728 25.68C333.856 25.984 334.064 26.2 334.352 26.328C334.64 26.456 335.024 26.52 335.504 26.52H335.576V26.76H329.12ZM336.872 20.88C337.576 20.88 338.136 20.672 338.552 20.256C338.984 19.824 339.296 19.144 339.488 18.216C339.68 17.272 339.776 16.04 339.776 14.52C339.776 13.016 339.68 11.808 339.488 10.896C339.296 9.968 338.984 9.296 338.552 8.88C338.12 8.464 337.552 8.256 336.848 8.256C336.08 8.256 335.448 8.496 334.952 8.976C334.472 9.44 334.112 10.136 333.872 11.064C333.648 11.992 333.536 13.152 333.536 14.544C333.536 15.968 333.656 17.152 333.896 18.096C334.136 19.04 334.504 19.744 335 20.208C335.496 20.656 336.12 20.88 336.872 20.88ZM354.58 21.24C353.364 21.24 352.476 20.968 351.916 20.424C351.372 19.864 351.1 18.896 351.1 17.52V8.376H349.276V8.136C349.852 8.136 350.348 8.088 350.764 7.992C351.196 7.88 351.564 7.712 351.868 7.488C352.188 7.264 352.444 6.96 352.636 6.576C352.844 6.192 353.004 5.728 353.116 5.184H353.356V8.136H356.716V8.376H353.356V18.408C353.356 19.24 353.516 19.864 353.836 20.28C354.156 20.696 354.628 20.904 355.252 20.904C355.476 20.904 355.708 20.88 355.948 20.832C356.188 20.784 356.444 20.712 356.716 20.616V20.856C356.508 20.952 356.196 21.04 355.78 21.12C355.364 21.2 354.964 21.24 354.58 21.24ZM364.05 21.24C362.642 21.24 361.586 20.872 360.882 20.136C360.194 19.384 359.85 18.184 359.85 16.536V10.536C359.85 9.992 359.786 9.568 359.658 9.264C359.546 8.944 359.346 8.72 359.058 8.592C358.77 8.448 358.378 8.376 357.882 8.376H357.81V8.136H362.106V16.656C362.106 17.68 362.178 18.504 362.322 19.128C362.466 19.736 362.706 20.184 363.042 20.472C363.394 20.76 363.858 20.904 364.434 20.904C365.154 20.904 365.746 20.72 366.21 20.352C366.69 19.968 367.05 19.416 367.29 18.696C367.53 17.96 367.65 17.08 367.65 16.056V10.536C367.65 9.992 367.586 9.568 367.458 9.264C367.346 8.944 367.146 8.72 366.858 8.592C366.57 8.448 366.178 8.376 365.682 8.376H365.61V8.136H369.906V18.624C369.906 19.168 369.962 19.6 370.074 19.92C370.202 20.224 370.41 20.44 370.698 20.568C370.986 20.696 371.378 20.76 371.874 20.76H371.946V21H367.818V17.712H367.77C367.642 18.528 367.434 19.176 367.146 19.656C366.874 20.12 366.554 20.464 366.186 20.688C365.834 20.912 365.466 21.056 365.082 21.12C364.714 21.2 364.37 21.24 364.05 21.24ZM364.866 25.392C364.562 25.392 364.306 25.288 364.098 25.08C363.906 24.888 363.81 24.544 363.81 24.048C363.81 23.536 363.906 23.184 364.098 22.992C364.306 22.8 364.562 22.704 364.866 22.704C365.154 22.704 365.402 22.8 365.61 22.992C365.818 23.184 365.922 23.536 365.922 24.048C365.922 24.544 365.818 24.888 365.61 25.08C365.402 25.288 365.154 25.392 364.866 25.392ZM379.332 21.24C378.244 21.24 377.284 21.024 376.452 20.592C375.62 20.144 374.972 19.424 374.508 18.432C374.044 17.44 373.812 16.136 373.812 14.52C373.812 12.872 374.044 11.568 374.508 10.608C374.988 9.632 375.628 8.936 376.428 8.52C377.228 8.104 378.132 7.896 379.14 7.896C379.812 7.896 380.468 7.984 381.108 8.16C381.764 8.336 382.3 8.608 382.716 8.976C383.132 9.328 383.34 9.8 383.34 10.392C383.34 10.744 383.252 11.032 383.076 11.256C382.916 11.464 382.676 11.616 382.356 11.712C382.052 11.808 381.668 11.856 381.204 11.856C381.204 11.008 381.14 10.312 381.012 9.768C380.9 9.208 380.692 8.8 380.388 8.544C380.084 8.272 379.652 8.136 379.092 8.136C378.516 8.136 378.004 8.32 377.556 8.688C377.108 9.04 376.756 9.68 376.5 10.608C376.26 11.52 376.14 12.832 376.14 14.544C376.14 16.112 376.26 17.376 376.5 18.336C376.74 19.28 377.124 19.96 377.652 20.376C378.18 20.792 378.86 21 379.692 21C380.22 21 380.692 20.912 381.108 20.736C381.54 20.56 381.908 20.256 382.212 19.824C382.532 19.376 382.78 18.768 382.956 18C383.116 18.032 383.236 18.112 383.316 18.24C383.412 18.368 383.46 18.544 383.46 18.768C383.46 19.152 383.308 19.536 383.004 19.92C382.7 20.288 382.244 20.6 381.636 20.856C381.028 21.112 380.26 21.24 379.332 21.24ZM396.535 21.24C395.447 21.24 394.487 21.024 393.655 20.592C392.823 20.144 392.175 19.424 391.711 18.432C391.247 17.44 391.015 16.136 391.015 14.52C391.015 12.872 391.247 11.568 391.711 10.608C392.191 9.632 392.831 8.936 393.631 8.52C394.431 8.104 395.335 7.896 396.343 7.896C397.015 7.896 397.671 7.984 398.311 8.16C398.967 8.336 399.503 8.608 399.919 8.976C400.335 9.328 400.543 9.8 400.543 10.392C400.543 10.744 400.455 11.032 400.279 11.256C400.119 11.464 399.879 11.616 399.559 11.712C399.255 11.808 398.871 11.856 398.407 11.856C398.407 11.008 398.343 10.312 398.215 9.768C398.103 9.208 397.895 8.8 397.591 8.544C397.287 8.272 396.855 8.136 396.295 8.136C395.719 8.136 395.207 8.32 394.759 8.688C394.311 9.04 393.959 9.68 393.703 10.608C393.463 11.52 393.343 12.832 393.343 14.544C393.343 16.112 393.463 17.376 393.703 18.336C393.943 19.28 394.327 19.96 394.855 20.376C395.383 20.792 396.063 21 396.895 21C397.423 21 397.895 20.912 398.311 20.736C398.743 20.56 399.111 20.256 399.415 19.824C399.735 19.376 399.983 18.768 400.159 18C400.319 18.032 400.439 18.112 400.519 18.24C400.615 18.368 400.663 18.544 400.663 18.768C400.663 19.152 400.511 19.536 400.207 19.92C399.903 20.288 399.447 20.6 398.839 20.856C398.231 21.112 397.463 21.24 396.535 21.24ZM401.94 21V20.76H402.132C402.628 20.76 403.02 20.696 403.308 20.568C403.596 20.424 403.796 20.192 403.908 19.872C404.036 19.552 404.1 19.112 404.1 18.552V5.16C404.1 4.616 404.036 4.192 403.908 3.888C403.796 3.568 403.604 3.344 403.332 3.216C403.06 3.072 402.676 3 402.18 3H402.06V2.76H406.356V7.608C406.356 7.912 406.356 8.224 406.356 8.544C406.356 8.848 406.356 9.152 406.356 9.456C406.356 9.76 406.348 10.072 406.332 10.392H406.38C406.604 9.64 406.916 9.088 407.316 8.736C407.716 8.384 408.148 8.16 408.612 8.064C409.092 7.952 409.532 7.896 409.932 7.896C411.356 7.896 412.412 8.272 413.1 9.024C413.804 9.76 414.156 10.952 414.156 12.6V18.552C414.156 19.112 414.212 19.552 414.324 19.872C414.436 20.192 414.62 20.424 414.876 20.568C415.148 20.696 415.508 20.76 415.956 20.76H416.076V21H411.9V11.784C411.9 10.744 411.708 9.896 411.324 9.24C410.94 8.584 410.276 8.256 409.332 8.256C408.58 8.256 407.988 8.456 407.556 8.856C407.124 9.256 406.812 9.776 406.62 10.416C406.444 11.04 406.356 11.696 406.356 12.384V18.552C406.356 19.112 406.412 19.552 406.524 19.872C406.652 20.192 406.852 20.424 407.124 20.568C407.412 20.696 407.796 20.76 408.276 20.76H408.396V21H401.94ZM423.534 21.24C422.126 21.24 421.07 20.872 420.366 20.136C419.678 19.384 419.334 18.184 419.334 16.536V10.536C419.334 9.992 419.27 9.568 419.142 9.264C419.03 8.944 418.83 8.72 418.542 8.592C418.254 8.448 417.862 8.376 417.366 8.376H417.294V8.136H421.59V16.656C421.59 17.68 421.662 18.504 421.806 19.128C421.95 19.736 422.19 20.184 422.526 20.472C422.878 20.76 423.342 20.904 423.918 20.904C424.638 20.904 425.23 20.72 425.694 20.352C426.174 19.968 426.534 19.416 426.774 18.696C427.014 17.96 427.134 17.08 427.134 16.056V10.536C427.134 9.992 427.07 9.568 426.942 9.264C426.83 8.944 426.63 8.72 426.342 8.592C426.054 8.448 425.662 8.376 425.166 8.376H425.094V8.136H429.39V18.624C429.39 19.168 429.446 19.6 429.558 19.92C429.686 20.224 429.894 20.44 430.182 20.568C430.47 20.696 430.862 20.76 431.358 20.76H431.43V21H427.302V17.712H427.254C427.126 18.528 426.918 19.176 426.63 19.656C426.358 20.12 426.038 20.464 425.67 20.688C425.318 20.912 424.95 21.056 424.566 21.12C424.198 21.2 423.854 21.24 423.534 21.24ZM432.889 26.52C434.025 26.52 434.937 26.432 435.625 26.256C436.313 26.096 436.857 25.832 437.257 25.464C437.673 25.112 438.017 24.648 438.289 24.072C438.577 23.512 438.873 22.84 439.177 22.056L433.921 9.696C433.777 9.344 433.633 9.08 433.489 8.904C433.361 8.712 433.225 8.576 433.081 8.496C432.937 8.416 432.761 8.376 432.553 8.376H432.073V8.136H437.833V8.376H437.761C437.313 8.376 436.953 8.448 436.681 8.592C436.425 8.72 436.297 8.96 436.297 9.312C436.297 9.456 436.321 9.624 436.369 9.816C436.417 9.992 436.489 10.192 436.585 10.416L438.649 15.432C438.777 15.72 438.905 16.032 439.033 16.368C439.161 16.704 439.289 17.048 439.417 17.4C439.545 17.752 439.665 18.088 439.777 18.408C439.889 18.728 439.993 19.024 440.089 19.296C440.297 18.672 440.497 18.08 440.689 17.52C440.881 16.944 441.041 16.456 441.169 16.056L442.921 10.56C443.001 10.336 443.057 10.136 443.089 9.96C443.121 9.784 443.137 9.624 443.137 9.48C443.137 9.112 443.009 8.84 442.753 8.664C442.513 8.472 442.113 8.376 441.553 8.376H440.545V8.136H445.537V8.376H445.345C444.961 8.376 444.641 8.424 444.385 8.52C444.145 8.616 443.945 8.8 443.785 9.072C443.625 9.344 443.457 9.736 443.281 10.248L439.777 21.096C439.409 22.248 439.049 23.192 438.697 23.928C438.345 24.664 437.937 25.24 437.473 25.656C437.009 26.072 436.425 26.36 435.721 26.52C435.033 26.68 434.161 26.76 433.105 26.76H432.889V26.52ZM448.499 6.24C448.819 5.936 449.139 5.6 449.459 5.232C449.779 4.864 450.083 4.496 450.371 4.128C450.675 3.744 450.931 3.4 451.139 3.096H452.939C453.147 3.4 453.395 3.744 453.683 4.128C453.987 4.496 454.299 4.864 454.619 5.232C454.955 5.6 455.275 5.936 455.579 6.24V6.456H455.339C455.035 6.296 454.675 6.096 454.259 5.856C453.843 5.616 453.435 5.36 453.035 5.088C452.635 4.816 452.307 4.568 452.051 4.344C451.811 4.568 451.483 4.816 451.067 5.088C450.667 5.36 450.251 5.616 449.819 5.856C449.403 6.096 449.043 6.296 448.739 6.456H448.499V6.24ZM454.859 2.952C455.307 2.952 455.627 2.864 455.819 2.688C456.027 2.512 456.131 2.184 456.131 1.704C456.131 1.304 456.075 1.024 455.963 0.863999C455.851 0.687999 455.635 0.599999 455.315 0.599999C454.947 0.599999 454.699 0.711999 454.571 0.935999C454.443 1.16 454.379 1.448 454.379 1.8C454.171 1.8 453.995 1.744 453.851 1.632C453.723 1.52 453.659 1.384 453.659 1.224C453.659 0.951999 453.811 0.743999 454.115 0.599999C454.419 0.44 454.843 0.36 455.387 0.36C455.995 0.36 456.475 0.48 456.827 0.719999C457.195 0.943999 457.379 1.28 457.379 1.728C457.379 2.064 457.259 2.36 457.019 2.616C456.795 2.872 456.387 3.04 455.795 3.12L455.459 4.032H455.219L454.859 2.952ZM452.555 21.24C450.763 21.24 449.363 20.664 448.355 19.512C447.363 18.36 446.867 16.744 446.867 14.664C446.867 12.424 447.331 10.736 448.259 9.6C449.187 8.464 450.499 7.896 452.195 7.896C453.747 7.896 454.963 8.376 455.843 9.336C456.739 10.296 457.187 11.728 457.187 13.632V14.208H449.195C449.211 15.84 449.331 17.152 449.555 18.144C449.779 19.136 450.139 19.864 450.635 20.328C451.147 20.776 451.811 21 452.627 21C453.235 21 453.771 20.888 454.235 20.664C454.715 20.44 455.115 20.112 455.435 19.68C455.755 19.232 455.971 18.688 456.083 18.048C456.275 18.08 456.419 18.176 456.515 18.336C456.611 18.496 456.659 18.664 456.659 18.84C456.659 19.16 456.507 19.512 456.203 19.896C455.899 20.264 455.443 20.584 454.835 20.856C454.243 21.112 453.483 21.24 452.555 21.24ZM454.763 13.968C454.763 12.56 454.675 11.432 454.499 10.584C454.323 9.736 454.043 9.12 453.659 8.736C453.275 8.336 452.771 8.136 452.147 8.136C451.491 8.136 450.955 8.336 450.539 8.736C450.123 9.12 449.811 9.736 449.603 10.584C449.395 11.432 449.259 12.56 449.195 13.968H454.763ZM459.063 21V20.76H459.255C459.751 20.76 460.143 20.696 460.431 20.568C460.719 20.424 460.919 20.192 461.031 19.872C461.159 19.552 461.223 19.112 461.223 18.552V10.536C461.223 9.992 461.159 9.568 461.031 9.264C460.919 8.944 460.727 8.72 460.455 8.592C460.183 8.448 459.799 8.376 459.303 8.376H459.183V8.136H463.455V10.392H463.503C463.727 9.64 464.039 9.088 464.439 8.736C464.839 8.384 465.271 8.16 465.735 8.064C466.215 7.952 466.655 7.896 467.055 7.896C468.479 7.896 469.535 8.272 470.223 9.024C470.927 9.76 471.279 10.952 471.279 12.6V18.552C471.279 19.112 471.335 19.552 471.447 19.872C471.559 20.192 471.743 20.424 471.999 20.568C472.271 20.696 472.631 20.76 473.079 20.76H473.199V21H469.023V11.784C469.023 10.744 468.831 9.896 468.447 9.24C468.063 8.584 467.399 8.256 466.455 8.256C465.703 8.256 465.111 8.456 464.679 8.856C464.247 9.256 463.935 9.776 463.743 10.416C463.567 11.04 463.479 11.696 463.479 12.384V18.552C463.479 19.112 463.535 19.552 463.647 19.872C463.775 20.192 463.975 20.424 464.247 20.568C464.535 20.696 464.919 20.76 465.399 20.76H465.519V21H459.063ZM479.922 21V20.76H480.114C480.594 20.76 480.978 20.696 481.266 20.568C481.554 20.44 481.762 20.24 481.89 19.968C482.018 19.696 482.082 19.344 482.082 18.912V10.248C482.082 9.8 482.018 9.44 481.89 9.168C481.762 8.896 481.554 8.696 481.266 8.568C480.978 8.44 480.594 8.376 480.114 8.376H480.042V8.136H484.314V10.416H484.362C484.586 9.712 484.882 9.184 485.25 8.832C485.634 8.464 486.058 8.216 486.522 8.088C486.986 7.96 487.458 7.896 487.938 7.896C488.786 7.896 489.546 8.104 490.218 8.52C490.906 8.92 491.41 9.688 491.73 10.824H491.778C491.986 9.96 492.274 9.32 492.642 8.904C493.026 8.488 493.45 8.216 493.914 8.088C494.378 7.96 494.834 7.896 495.282 7.896C496.658 7.896 497.674 8.296 498.33 9.096C499.002 9.88 499.338 11.072 499.338 12.672V18.792C499.338 19.272 499.402 19.656 499.53 19.944C499.658 20.232 499.866 20.44 500.154 20.568C500.458 20.696 500.842 20.76 501.306 20.76H501.378V21H497.082V12.192C497.082 10.864 496.898 9.896 496.53 9.288C496.162 8.68 495.57 8.376 494.754 8.376C494.146 8.376 493.626 8.536 493.194 8.856C492.762 9.16 492.434 9.608 492.21 10.2C492.002 10.792 491.898 11.512 491.898 12.36V18.792C491.898 19.272 491.962 19.656 492.09 19.944C492.218 20.232 492.426 20.44 492.714 20.568C493.018 20.696 493.402 20.76 493.866 20.76H493.938V21H489.642V12.192C489.642 10.864 489.45 9.896 489.066 9.288C488.698 8.68 488.09 8.376 487.242 8.376C486.602 8.376 486.066 8.536 485.634 8.856C485.202 9.176 484.874 9.656 484.65 10.296C484.442 10.936 484.338 11.736 484.338 12.696V18.792C484.338 19.272 484.402 19.656 484.53 19.944C484.658 20.232 484.866 20.44 485.154 20.568C485.458 20.696 485.842 20.76 486.306 20.76H486.378V21H479.922ZM502.49 21V20.76H502.802C503.282 20.76 503.666 20.696 503.954 20.568C504.242 20.44 504.45 20.24 504.578 19.968C504.706 19.696 504.77 19.344 504.77 18.912V10.248C504.77 9.8 504.706 9.44 504.578 9.168C504.45 8.896 504.242 8.696 503.954 8.568C503.666 8.44 503.282 8.376 502.802 8.376H502.729V8.136H507.026V18.792C507.026 19.272 507.09 19.656 507.218 19.944C507.346 20.232 507.554 20.44 507.842 20.568C508.146 20.696 508.53 20.76 508.993 20.76H509.306V21H502.49ZM506.522 6.456C506.218 6.216 505.874 5.936 505.49 5.616C505.106 5.28 504.722 4.944 504.338 4.608C503.97 4.256 503.626 3.928 503.306 3.624C503.002 3.32 502.762 3.064 502.586 2.856V2.616H504.746C504.922 2.968 505.122 3.36 505.346 3.792C505.57 4.224 505.802 4.648 506.042 5.064C506.298 5.48 506.538 5.864 506.762 6.216V6.456H506.522ZM510.297 21V20.76H510.489C510.985 20.76 511.377 20.696 511.665 20.568C511.953 20.424 512.153 20.192 512.265 19.872C512.393 19.552 512.457 19.112 512.457 18.552V10.536C512.457 9.992 512.393 9.568 512.265 9.264C512.153 8.944 511.961 8.72 511.689 8.592C511.417 8.448 511.033 8.376 510.537 8.376H510.417V8.136H514.689V10.392H514.737C514.961 9.64 515.273 9.088 515.673 8.736C516.073 8.384 516.505 8.16 516.969 8.064C517.449 7.952 517.889 7.896 518.289 7.896C519.713 7.896 520.769 8.272 521.457 9.024C522.161 9.76 522.513 10.952 522.513 12.6V18.552C522.513 19.112 522.569 19.552 522.681 19.872C522.793 20.192 522.977 20.424 523.233 20.568C523.505 20.696 523.865 20.76 524.313 20.76H524.433V21H520.257V11.784C520.257 10.744 520.065 9.896 519.681 9.24C519.297 8.584 518.633 8.256 517.689 8.256C516.937 8.256 516.345 8.456 515.913 8.856C515.481 9.256 515.169 9.776 514.977 10.416C514.801 11.04 514.713 11.696 514.713 12.384V18.552C514.713 19.112 514.769 19.552 514.881 19.872C515.009 20.192 515.209 20.424 515.481 20.568C515.769 20.696 516.153 20.76 516.633 20.76H516.753V21H510.297ZM525.526 21V20.76H525.718C526.214 20.76 526.606 20.696 526.894 20.568C527.182 20.424 527.382 20.192 527.494 19.872C527.622 19.552 527.686 19.112 527.686 18.552V5.16C527.686 4.616 527.622 4.192 527.494 3.888C527.382 3.568 527.19 3.344 526.918 3.216C526.646 3.072 526.262 3 525.766 3H525.646V2.76H529.942V7.608C529.942 7.912 529.942 8.224 529.942 8.544C529.942 8.848 529.942 9.152 529.942 9.456C529.942 9.76 529.934 10.072 529.918 10.392H529.966C530.19 9.64 530.502 9.088 530.902 8.736C531.302 8.384 531.734 8.16 532.198 8.064C532.678 7.952 533.118 7.896 533.518 7.896C534.942 7.896 535.998 8.272 536.686 9.024C537.39 9.76 537.742 10.952 537.742 12.6V18.552C537.742 19.112 537.798 19.552 537.91 19.872C538.022 20.192 538.206 20.424 538.462 20.568C538.734 20.696 539.094 20.76 539.542 20.76H539.662V21H535.486V11.784C535.486 10.744 535.294 9.896 534.91 9.24C534.526 8.584 533.862 8.256 532.918 8.256C532.166 8.256 531.574 8.456 531.142 8.856C530.71 9.256 530.398 9.776 530.206 10.416C530.03 11.04 529.942 11.696 529.942 12.384V18.552C529.942 19.112 529.998 19.552 530.11 19.872C530.238 20.192 530.438 20.424 530.71 20.568C530.998 20.696 531.382 20.76 531.862 20.76H531.982V21H525.526Z" fill="url(#paint1_linear_2045_2490)" fill-opacity="0.75"/>
<path d="M122.131 21V20.76H122.443C122.875 20.76 123.235 20.696 123.523 20.568C123.827 20.44 124.051 20.248 124.195 19.992C124.339 19.736 124.411 19.416 124.411 19.032V5.736C124.411 5.368 124.339 5.064 124.195 4.824C124.051 4.584 123.827 4.408 123.523 4.296C123.235 4.168 122.875 4.104 122.443 4.104H122.131V3.864H128.587C129.979 3.864 131.131 4.04 132.043 4.392C132.955 4.728 133.635 5.232 134.083 5.904C134.531 6.576 134.755 7.392 134.755 8.352C134.755 9.28 134.563 10.048 134.179 10.656C133.811 11.248 133.331 11.712 132.739 12.048C132.163 12.384 131.563 12.64 130.939 12.816L134.323 18.096C134.659 18.608 134.947 19.04 135.187 19.392C135.443 19.728 135.675 20 135.883 20.208C136.091 20.4 136.283 20.544 136.459 20.64C136.651 20.72 136.843 20.76 137.035 20.76H137.107V21H136.771C136.019 21 135.395 20.976 134.899 20.928C134.419 20.864 134.019 20.76 133.699 20.616C133.379 20.472 133.091 20.264 132.835 19.992C132.595 19.704 132.331 19.336 132.043 18.888L128.347 13.008H126.835V19.032C126.835 19.416 126.907 19.736 127.051 19.992C127.195 20.248 127.411 20.44 127.699 20.568C128.003 20.696 128.371 20.76 128.803 20.76H129.115V21H122.131ZM128.515 12.768C129.411 12.768 130.123 12.632 130.651 12.36C131.195 12.072 131.587 11.616 131.827 10.992C132.067 10.368 132.187 9.544 132.187 8.52C132.187 7.464 132.059 6.616 131.803 5.976C131.563 5.32 131.171 4.848 130.627 4.56C130.083 4.256 129.363 4.104 128.467 4.104H126.835V12.768H128.515ZM143.761 21.24C142.353 21.24 141.297 20.872 140.593 20.136C139.905 19.384 139.561 18.184 139.561 16.536V10.536C139.561 9.992 139.497 9.568 139.369 9.264C139.257 8.944 139.057 8.72 138.769 8.592C138.481 8.448 138.089 8.376 137.593 8.376H137.521V8.136H141.817V16.656C141.817 17.68 141.889 18.504 142.033 19.128C142.177 19.736 142.417 20.184 142.753 20.472C143.105 20.76 143.569 20.904 144.145 20.904C144.865 20.904 145.457 20.72 145.921 20.352C146.401 19.968 146.761 19.416 147.001 18.696C147.241 17.96 147.361 17.08 147.361 16.056V10.536C147.361 9.992 147.297 9.568 147.169 9.264C147.057 8.944 146.857 8.72 146.569 8.592C146.281 8.448 145.889 8.376 145.393 8.376H145.321V8.136H149.617V11.16C150.545 10.952 151.201 10.688 151.585 10.368C151.969 10.032 152.161 9.64 152.161 9.192C152.161 8.952 152.105 8.768 151.993 8.64C151.897 8.496 151.777 8.392 151.633 8.328C151.489 8.248 151.337 8.168 151.177 8.088C151.033 8.008 150.905 7.904 150.793 7.776C150.697 7.632 150.649 7.432 150.649 7.176C150.649 6.808 150.761 6.512 150.985 6.288C151.225 6.048 151.569 5.928 152.017 5.928C152.481 5.928 152.841 6.072 153.097 6.36C153.353 6.632 153.481 7.072 153.481 7.68C153.481 8.112 153.385 8.576 153.193 9.072C153.001 9.552 152.625 10 152.065 10.416C151.521 10.832 150.705 11.152 149.617 11.376V18.624C149.617 19.168 149.673 19.6 149.785 19.92C149.913 20.224 150.121 20.44 150.409 20.568C150.697 20.696 151.089 20.76 151.585 20.76H151.657V21H147.529V17.712H147.481C147.353 18.528 147.145 19.176 146.857 19.656C146.585 20.12 146.265 20.464 145.897 20.688C145.545 20.912 145.177 21.056 144.793 21.12C144.425 21.2 144.081 21.24 143.761 21.24ZM144.577 25.392C144.273 25.392 144.017 25.288 143.809 25.08C143.617 24.888 143.521 24.544 143.521 24.048C143.521 23.536 143.617 23.184 143.809 22.992C144.017 22.8 144.273 22.704 144.577 22.704C144.865 22.704 145.113 22.8 145.321 22.992C145.529 23.184 145.633 23.536 145.633 24.048C145.633 24.544 145.529 24.888 145.321 25.08C145.113 25.288 144.865 25.392 144.577 25.392ZM160.028 21.24C158.94 21.24 157.98 21.024 157.148 20.592C156.316 20.144 155.668 19.424 155.204 18.432C154.74 17.44 154.508 16.136 154.508 14.52C154.508 12.872 154.74 11.568 155.204 10.608C155.684 9.632 156.324 8.936 157.124 8.52C157.924 8.104 158.828 7.896 159.836 7.896C160.508 7.896 161.164 7.984 161.804 8.16C162.46 8.336 162.996 8.608 163.412 8.976C163.828 9.328 164.036 9.8 164.036 10.392C164.036 10.744 163.948 11.032 163.772 11.256C163.612 11.464 163.372 11.616 163.052 11.712C162.748 11.808 162.364 11.856 161.9 11.856C161.9 11.008 161.836 10.312 161.708 9.768C161.596 9.208 161.388 8.8 161.084 8.544C160.78 8.272 160.348 8.136 159.788 8.136C159.212 8.136 158.7 8.32 158.252 8.688C157.804 9.04 157.452 9.68 157.196 10.608C156.956 11.52 156.836 12.832 156.836 14.544C156.836 16.112 156.956 17.376 157.196 18.336C157.436 19.28 157.82 19.96 158.348 20.376C158.876 20.792 159.556 21 160.388 21C160.916 21 161.388 20.912 161.804 20.736C162.236 20.56 162.604 20.256 162.908 19.824C163.228 19.376 163.476 18.768 163.652 18C163.812 18.032 163.932 18.112 164.012 18.24C164.108 18.368 164.156 18.544 164.156 18.768C164.156 19.152 164.004 19.536 163.7 19.92C163.396 20.288 162.94 20.6 162.332 20.856C161.724 21.112 160.956 21.24 160.028 21.24ZM170.943 21V20.76H171.255C171.735 20.76 172.119 20.696 172.407 20.568C172.695 20.44 172.903 20.24 173.031 19.968C173.159 19.696 173.223 19.344 173.223 18.912V10.248C173.223 9.8 173.159 9.44 173.031 9.168C172.903 8.896 172.695 8.696 172.407 8.568C172.119 8.44 171.735 8.376 171.255 8.376H171.183V8.136H175.455V10.536H175.503C175.615 10.12 175.783 9.712 176.007 9.312C176.231 8.912 176.567 8.576 177.015 8.304C177.479 8.032 178.095 7.896 178.863 7.896C179.663 7.896 180.271 8.056 180.687 8.376C181.119 8.68 181.335 9.112 181.335 9.672C181.335 10.152 181.159 10.552 180.807 10.872C180.471 11.192 179.903 11.352 179.103 11.352C179.103 10.36 178.935 9.68 178.599 9.312C178.263 8.928 177.887 8.736 177.471 8.736C177.007 8.736 176.639 8.904 176.367 9.24C176.095 9.56 175.895 9.984 175.767 10.512C175.639 11.024 175.559 11.56 175.527 12.12C175.495 12.664 175.479 13.168 175.479 13.632V18.792C175.479 19.272 175.543 19.656 175.671 19.944C175.799 20.232 176.007 20.44 176.295 20.568C176.599 20.696 176.983 20.76 177.447 20.76H177.759V21H170.943ZM188.576 21.24C186.848 21.24 185.488 20.688 184.496 19.584C183.504 18.48 183.008 16.8 183.008 14.544C183.008 12.304 183.48 10.64 184.424 9.552C185.384 8.448 186.792 7.896 188.648 7.896C189.816 7.896 190.816 8.144 191.648 8.64C192.48 9.12 193.112 9.864 193.544 10.872C194.024 10.696 194.424 10.472 194.744 10.2C195.064 9.928 195.224 9.592 195.224 9.192C195.224 8.952 195.168 8.768 195.056 8.64C194.96 8.496 194.84 8.392 194.696 8.328C194.552 8.248 194.4 8.168 194.24 8.088C194.095 7.992 193.968 7.872 193.856 7.728C193.76 7.584 193.712 7.384 193.712 7.128C193.712 6.792 193.824 6.512 194.048 6.288C194.288 6.048 194.632 5.928 195.08 5.928C195.544 5.928 195.904 6.064 196.16 6.336C196.416 6.592 196.544 6.96 196.544 7.44C196.544 8.176 196.336 8.864 195.92 9.504C195.52 10.144 194.76 10.672 193.64 11.088C193.832 11.552 193.976 12.072 194.072 12.648C194.168 13.224 194.216 13.856 194.216 14.544C194.216 16.8 193.736 18.48 192.776 19.584C191.832 20.688 190.432 21.24 188.576 21.24ZM188.624 21C189.408 21 190.04 20.784 190.52 20.352C191 19.92 191.344 19.232 191.552 18.288C191.776 17.344 191.888 16.096 191.888 14.544C191.888 13.008 191.776 11.768 191.552 10.824C191.344 9.88 191 9.2 190.52 8.784C190.04 8.352 189.4 8.136 188.6 8.136C187.816 8.136 187.184 8.352 186.704 8.784C186.224 9.2 185.872 9.88 185.648 10.824C185.44 11.768 185.336 13.008 185.336 14.544C185.336 16.096 185.44 17.344 185.648 18.288C185.872 19.232 186.224 19.92 186.704 20.352C187.2 20.784 187.84 21 188.624 21ZM190.496 6.456C190.096 6.456 189.704 6.384 189.32 6.24C188.936 6.08 188.552 5.904 188.168 5.712C187.8 5.504 187.424 5.328 187.04 5.184C186.656 5.024 186.248 4.944 185.816 4.944C185.288 4.944 184.952 5.08 184.808 5.352C184.68 5.608 184.576 5.896 184.496 6.216H184.256C184.304 5.736 184.408 5.28 184.568 4.848C184.728 4.416 184.968 4.064 185.288 3.792C185.624 3.52 186.048 3.384 186.56 3.384C186.976 3.384 187.368 3.464 187.736 3.624C188.12 3.768 188.496 3.944 188.864 4.152C189.248 4.344 189.632 4.52 190.016 4.68C190.416 4.824 190.824 4.896 191.24 4.896C191.736 4.896 192.064 4.776 192.224 4.536C192.384 4.28 192.496 3.976 192.56 3.624H192.8C192.752 4.072 192.648 4.52 192.488 4.968C192.328 5.4 192.088 5.76 191.768 6.048C191.448 6.32 191.024 6.456 190.496 6.456Z" fill="url(#paint2_linear_2045_2490)"/>
<defs>
<linearGradient id="paint0_linear_2045_2490" x1="-115" y1="12" x2="655" y2="12" gradientUnits="userSpaceOnUse">
<stop stop-color="#525861"/>
<stop offset="1" stop-color="#97A1A7"/>
</linearGradient>
<linearGradient id="paint1_linear_2045_2490" x1="89.2857" y1="2.50909" x2="95.1174" y2="36.1285" gradientUnits="userSpaceOnUse">
<stop offset="0.0940377" stop-color="white" stop-opacity="0"/>
<stop offset="0.292723" stop-color="white"/>
<stop offset="0.724446" stop-color="white" stop-opacity="0.775341"/>
<stop offset="1" stop-color="white" stop-opacity="0"/>
</linearGradient>
<linearGradient id="paint2_linear_2045_2490" x1="-115" y1="12" x2="26.198" y2="12" gradientUnits="userSpaceOnUse">
<stop stop-color="#DDB27C"/>
<stop offset="1" stop-color="#A16D3C"/>
</linearGradient>
</defs>
</svg>
