<svg width="368" height="27" viewBox="0 0 368 27" fill="none" xmlns="http://www.w3.org/2000/svg">
<path d="M0.470594 21V20.76H1.40659C1.83859 20.76 2.19859 20.696 2.48659 20.568C2.79059 20.44 3.01459 20.248 3.15859 19.992C3.30259 19.736 3.37459 19.416 3.37459 19.032V5.736C3.37459 5.368 3.30259 5.064 3.15859 4.824C3.01459 4.584 2.79059 4.408 2.48659 4.296C2.19859 4.168 1.83859 4.104 1.40659 4.104H0.470594V3.864H5.34259L11.4626 18.312L16.7666 3.864H21.1586V4.104H20.8466C20.4146 4.104 20.0466 4.168 19.7426 4.296C19.4546 4.424 19.2386 4.616 19.0946 4.872C18.9506 5.128 18.8786 5.448 18.8786 5.832V19.032C18.8786 19.416 18.9506 19.736 19.0946 19.992C19.2386 20.248 19.4546 20.44 19.7426 20.568C20.0466 20.696 20.4146 20.76 20.8466 20.76H21.1586V21H14.7746V20.76H14.8466C15.1986 20.76 15.5026 20.696 15.7586 20.568C16.0146 20.44 16.2146 20.248 16.3586 19.992C16.5026 19.736 16.5746 19.416 16.5746 19.032V5.112L10.7426 21H10.1666L3.61459 5.424V19.032C3.61459 19.416 3.68659 19.736 3.83059 19.992C3.97459 20.248 4.19059 20.44 4.47859 20.568C4.78259 20.696 5.15059 20.76 5.58259 20.76H6.01459V21H0.470594ZM28.97 21.24C27.242 21.24 25.882 20.688 24.89 19.584C23.898 18.48 23.402 16.8 23.402 14.544C23.402 12.304 23.874 10.64 24.818 9.552C25.778 8.448 27.186 7.896 29.042 7.896C30.77 7.896 32.13 8.448 33.122 9.552C34.114 10.64 34.61 12.304 34.61 14.544C34.61 16.8 34.13 18.48 33.17 19.584C32.226 20.688 30.826 21.24 28.97 21.24ZM29.018 21C29.802 21 30.434 20.784 30.914 20.352C31.394 19.92 31.738 19.232 31.946 18.288C32.17 17.344 32.282 16.096 32.282 14.544C32.282 13.008 32.17 11.768 31.946 10.824C31.738 9.88 31.394 9.2 30.914 8.784C30.434 8.352 29.794 8.136 28.994 8.136C28.21 8.136 27.578 8.352 27.098 8.784C26.618 9.2 26.266 9.88 26.042 10.824C25.834 11.768 25.73 13.008 25.73 14.544C25.73 16.096 25.834 17.344 26.042 18.288C26.266 19.232 26.618 19.92 27.098 20.352C27.594 20.784 28.234 21 29.018 21ZM25.394 6.216C25.714 5.864 26.034 5.48 26.354 5.064C26.674 4.648 26.978 4.224 27.266 3.792C27.57 3.36 27.826 2.968 28.034 2.616H29.834C30.042 2.968 30.29 3.36 30.578 3.792C30.882 4.224 31.194 4.648 31.514 5.064C31.85 5.48 32.17 5.864 32.474 6.216V6.456H32.234C31.93 6.28 31.562 6.056 31.13 5.784C30.714 5.496 30.306 5.2 29.906 4.896C29.506 4.592 29.186 4.312 28.946 4.056C28.706 4.312 28.378 4.592 27.962 4.896C27.562 5.2 27.146 5.496 26.714 5.784C26.298 6.056 25.938 6.28 25.634 6.456H25.394V6.216ZM28.994 25.392C28.69 25.392 28.434 25.288 28.226 25.08C28.034 24.888 27.938 24.544 27.938 24.048C27.938 23.536 28.034 23.184 28.226 22.992C28.434 22.8 28.69 22.704 28.994 22.704C29.282 22.704 29.53 22.8 29.738 22.992C29.946 23.184 30.05 23.536 30.05 24.048C30.05 24.544 29.946 24.888 29.738 25.08C29.53 25.288 29.282 25.392 28.994 25.392ZM41.6936 21.24C40.4776 21.24 39.5896 20.968 39.0296 20.424C38.4856 19.864 38.2136 18.896 38.2136 17.52V8.376H36.3896V8.136C36.9656 8.136 37.4616 8.088 37.8776 7.992C38.3096 7.88 38.6776 7.712 38.9816 7.488C39.3016 7.264 39.5576 6.96 39.7496 6.576C39.9576 6.192 40.1176 5.728 40.2296 5.184H40.4696V8.136H43.8296V8.376H40.4696V18.408C40.4696 19.24 40.6296 19.864 40.9496 20.28C41.2696 20.696 41.7416 20.904 42.3656 20.904C42.5896 20.904 42.8216 20.88 43.0616 20.832C43.3016 20.784 43.5576 20.712 43.8296 20.616V20.856C43.6216 20.952 43.3096 21.04 42.8936 21.12C42.4776 21.2 42.0776 21.24 41.6936 21.24ZM50.4337 21V20.76H50.6257C51.1217 20.76 51.5137 20.696 51.8017 20.568C52.0897 20.424 52.2897 20.192 52.4017 19.872C52.5297 19.552 52.5937 19.112 52.5937 18.552V10.536C52.5937 9.992 52.5297 9.568 52.4017 9.264C52.2897 8.944 52.0977 8.72 51.8257 8.592C51.5537 8.448 51.1697 8.376 50.6737 8.376H50.5537V8.136H54.8257V10.392H54.8737C55.0977 9.64 55.4097 9.088 55.8097 8.736C56.2097 8.384 56.6417 8.16 57.1057 8.064C57.5857 7.952 58.0257 7.896 58.4257 7.896C59.8497 7.896 60.9057 8.272 61.5937 9.024C62.2977 9.76 62.6497 10.952 62.6497 12.6V18.552C62.6497 19.112 62.7057 19.552 62.8177 19.872C62.9297 20.192 63.1137 20.424 63.3697 20.568C63.6417 20.696 64.0017 20.76 64.4497 20.76H64.5697V21H60.3937V11.784C60.3937 10.744 60.2017 9.896 59.8177 9.24C59.4337 8.584 58.7697 8.256 57.8257 8.256C57.0737 8.256 56.4817 8.456 56.0497 8.856C55.6177 9.256 55.3057 9.776 55.1137 10.416C54.9377 11.04 54.8497 11.696 54.8497 12.384V18.552C54.8497 19.112 54.9057 19.552 55.0177 19.872C55.1457 20.192 55.3457 20.424 55.6177 20.568C55.9057 20.696 56.2897 20.76 56.7697 20.76H56.8897V21H50.4337ZM65.6625 21V20.76H65.8545C66.3505 20.76 66.7425 20.696 67.0305 20.568C67.3185 20.424 67.5185 20.192 67.6305 19.872C67.7585 19.552 67.8225 19.112 67.8225 18.552V5.16C67.8225 4.616 67.7585 4.192 67.6305 3.888C67.5185 3.568 67.3265 3.344 67.0545 3.216C66.7825 3.072 66.3985 3 65.9025 3H65.7825V2.76H70.0785V7.608C70.0785 7.912 70.0785 8.224 70.0785 8.544C70.0785 8.848 70.0785 9.152 70.0785 9.456C70.0785 9.76 70.0705 10.072 70.0545 10.392H70.1025C70.3265 9.64 70.6385 9.088 71.0385 8.736C71.4385 8.384 71.8705 8.16 72.3345 8.064C72.8145 7.952 73.2545 7.896 73.6545 7.896C75.0785 7.896 76.1345 8.272 76.8225 9.024C77.5265 9.76 77.8785 10.952 77.8785 12.6V18.552C77.8785 19.112 77.9345 19.552 78.0465 19.872C78.1585 20.192 78.3425 20.424 78.5985 20.568C78.8705 20.696 79.2305 20.76 79.6785 20.76H79.7985V21H75.6225V11.784C75.6225 10.744 75.4305 9.896 75.0465 9.24C74.6625 8.584 73.9985 8.256 73.0545 8.256C72.3025 8.256 71.7105 8.456 71.2785 8.856C70.8465 9.256 70.5345 9.776 70.3425 10.416C70.1665 11.04 70.0785 11.696 70.0785 12.384V18.552C70.0785 19.112 70.1345 19.552 70.2465 19.872C70.3745 20.192 70.5745 20.424 70.8465 20.568C71.1345 20.696 71.5185 20.76 71.9985 20.76H72.1185V21H65.6625ZM81.0168 21V20.76H81.3288C81.8088 20.76 82.1928 20.696 82.4808 20.568C82.7688 20.44 82.9768 20.24 83.1048 19.968C83.2328 19.696 83.2968 19.344 83.2968 18.912V10.248C83.2968 9.8 83.2328 9.44 83.1048 9.168C82.9768 8.896 82.7688 8.696 82.4808 8.568C82.1928 8.44 81.8088 8.376 81.3288 8.376H81.2568V8.136H85.5528V18.792C85.5528 19.272 85.6168 19.656 85.7448 19.944C85.8728 20.232 86.0808 20.44 86.3688 20.568C86.6728 20.696 87.0568 20.76 87.5208 20.76H87.8328V21H81.0168ZM84.3048 5.832C84.0008 5.832 83.7448 5.736 83.5368 5.544C83.3448 5.336 83.2488 4.984 83.2488 4.488C83.2488 3.976 83.3448 3.624 83.5368 3.432C83.7448 3.24 84.0008 3.144 84.3048 3.144C84.5928 3.144 84.8408 3.24 85.0488 3.432C85.2568 3.624 85.3608 3.976 85.3608 4.488C85.3608 4.984 85.2568 5.336 85.0488 5.544C84.8408 5.736 84.5928 5.832 84.3048 5.832ZM84.3048 25.392C84.0008 25.392 83.7448 25.288 83.5368 25.08C83.3448 24.888 83.2488 24.544 83.2488 24.048C83.2488 23.536 83.3448 23.184 83.5368 22.992C83.7448 22.8 84.0008 22.704 84.3048 22.704C84.5928 22.704 84.8408 22.8 85.0488 22.992C85.2568 23.184 85.3608 23.536 85.3608 24.048C85.3608 24.544 85.2568 24.888 85.0488 25.08C84.8408 25.288 84.5928 25.392 84.3048 25.392ZM88.5843 26.76V26.52H88.7763C89.2563 26.52 89.6403 26.456 89.9283 26.328C90.2163 26.2 90.4243 26 90.5523 25.728C90.6803 25.456 90.7443 25.104 90.7443 24.672V10.248C90.7443 9.8 90.6803 9.44 90.5523 9.168C90.4243 8.896 90.2163 8.696 89.9283 8.568C89.6403 8.44 89.2563 8.376 88.7763 8.376H88.4643V8.136H92.9523V11.472H93.0003C93.2243 10.256 93.6403 9.36 94.2483 8.784C94.8723 8.192 95.7203 7.896 96.7923 7.896C98.3603 7.896 99.5443 8.456 100.344 9.576C101.16 10.696 101.568 12.352 101.568 14.544C101.568 16.736 101.152 18.4 100.32 19.536C99.5043 20.672 98.3123 21.24 96.7443 21.24C95.7043 21.24 94.8803 20.944 94.2723 20.352C93.6643 19.76 93.2483 18.848 93.0243 17.616H92.9763C92.9923 18.016 93.0003 18.416 93.0003 18.816C93.0003 19.216 93.0003 19.616 93.0003 20.016V24.552C93.0003 25.016 93.0643 25.392 93.1923 25.68C93.3203 25.984 93.5283 26.2 93.8163 26.328C94.1043 26.456 94.4883 26.52 94.9683 26.52H95.0403V26.76H88.5843ZM96.3363 20.88C97.0403 20.88 97.6003 20.672 98.0163 20.256C98.4483 19.824 98.7603 19.144 98.9523 18.216C99.1443 17.272 99.2403 16.04 99.2403 14.52C99.2403 13.016 99.1443 11.808 98.9523 10.896C98.7603 9.968 98.4483 9.296 98.0163 8.88C97.5843 8.464 97.0163 8.256 96.3123 8.256C95.5443 8.256 94.9123 8.496 94.4163 8.976C93.9363 9.44 93.5763 10.136 93.3363 11.064C93.1123 11.992 93.0003 13.152 93.0003 14.544C93.0003 15.968 93.1203 17.152 93.3603 18.096C93.6003 19.04 93.9683 19.744 94.4643 20.208C94.9603 20.656 95.5843 20.88 96.3363 20.88ZM108.597 21V20.76H108.909C109.389 20.76 109.773 20.696 110.061 20.568C110.349 20.44 110.557 20.24 110.685 19.968C110.813 19.696 110.877 19.344 110.877 18.912V4.872C110.877 4.424 110.813 4.064 110.685 3.792C110.557 3.52 110.349 3.32 110.061 3.192C109.773 3.064 109.389 3 108.909 3H108.597V2.76H113.133V18.792C113.133 19.272 113.197 19.656 113.325 19.944C113.453 20.232 113.661 20.44 113.949 20.568C114.237 20.696 114.621 20.76 115.101 20.76H115.413V21H108.597ZM120.875 21.24C119.659 21.24 118.691 20.928 117.971 20.304C117.267 19.664 116.915 18.792 116.915 17.688C116.915 16.456 117.363 15.536 118.259 14.928C119.171 14.32 120.547 13.984 122.387 13.92L124.379 13.848V12.048C124.379 11.152 124.331 10.416 124.235 9.84C124.139 9.264 123.931 8.84 123.611 8.568C123.291 8.28 122.803 8.136 122.147 8.136C121.219 8.136 120.619 8.424 120.347 9C120.091 9.576 119.963 10.48 119.963 11.712C119.291 11.712 118.779 11.6 118.427 11.376C118.091 11.152 117.923 10.784 117.923 10.272C117.923 9.696 118.115 9.24 118.499 8.904C118.899 8.552 119.427 8.296 120.083 8.136C120.739 7.976 121.459 7.896 122.243 7.896C123.715 7.896 124.811 8.208 125.531 8.832C126.267 9.456 126.635 10.528 126.635 12.048V19.224C126.635 19.608 126.683 19.912 126.779 20.136C126.875 20.36 127.035 20.52 127.259 20.616C127.483 20.712 127.771 20.76 128.123 20.76H128.195V21H124.571V18.48H124.523C124.363 19.12 124.107 19.648 123.755 20.064C123.403 20.464 122.979 20.76 122.483 20.952C122.003 21.144 121.467 21.24 120.875 21.24ZM121.355 20.904C121.947 20.904 122.467 20.752 122.915 20.448C123.379 20.144 123.739 19.736 123.995 19.224C124.251 18.712 124.379 18.16 124.379 17.568V14.112L122.843 14.184C121.483 14.248 120.539 14.56 120.011 15.12C119.499 15.68 119.243 16.624 119.243 17.952C119.243 18.592 119.315 19.136 119.459 19.584C119.619 20.016 119.859 20.344 120.179 20.568C120.499 20.792 120.891 20.904 121.355 20.904ZM122.315 6.456C121.563 6.456 120.947 6.312 120.467 6.024C119.987 5.72 119.627 5.32 119.387 4.824C119.147 4.312 119.003 3.76 118.955 3.168H119.195C119.323 3.552 119.499 3.864 119.723 4.104C119.963 4.344 120.291 4.52 120.707 4.632C121.139 4.744 121.675 4.8 122.315 4.8C122.971 4.8 123.507 4.744 123.923 4.632C124.339 4.52 124.667 4.344 124.907 4.104C125.147 3.864 125.323 3.552 125.435 3.168H125.675C125.627 3.76 125.483 4.312 125.243 4.824C125.003 5.32 124.643 5.72 124.163 6.024C123.699 6.312 123.083 6.456 122.315 6.456ZM122.147 25.392C121.843 25.392 121.587 25.288 121.379 25.08C121.187 24.888 121.091 24.544 121.091 24.048C121.091 23.536 121.187 23.184 121.379 22.992C121.587 22.8 121.843 22.704 122.147 22.704C122.435 22.704 122.683 22.8 122.891 22.992C123.099 23.184 123.203 23.536 123.203 24.048C123.203 24.544 123.099 24.888 122.891 25.08C122.683 25.288 122.435 25.392 122.147 25.392ZM129.91 21V20.76H130.102C130.598 20.76 130.99 20.696 131.278 20.568C131.566 20.424 131.766 20.192 131.878 19.872C132.006 19.552 132.07 19.112 132.07 18.552V10.536C132.07 9.992 132.006 9.568 131.878 9.264C131.766 8.944 131.574 8.72 131.302 8.592C131.03 8.448 130.646 8.376 130.15 8.376H130.03V8.136H134.302V10.392H134.35C134.574 9.64 134.886 9.088 135.286 8.736C135.686 8.384 136.118 8.16 136.582 8.064C137.062 7.952 137.502 7.896 137.902 7.896C139.326 7.896 140.382 8.272 141.07 9.024C141.774 9.76 142.126 10.952 142.126 12.6V18.552C142.126 19.112 142.182 19.552 142.294 19.872C142.406 20.192 142.59 20.424 142.846 20.568C143.118 20.696 143.478 20.76 143.926 20.76H144.046V21H139.87V11.784C139.87 10.744 139.678 9.896 139.294 9.24C138.91 8.584 138.246 8.256 137.302 8.256C136.55 8.256 135.958 8.456 135.526 8.856C135.094 9.256 134.782 9.776 134.59 10.416C134.414 11.04 134.326 11.696 134.326 12.384V18.552C134.326 19.112 134.382 19.552 134.494 19.872C134.622 20.192 134.822 20.424 135.094 20.568C135.382 20.696 135.766 20.76 136.246 20.76H136.366V21H129.91ZM150.251 26.76C148.587 26.76 147.339 26.456 146.507 25.848C145.675 25.256 145.259 24.464 145.259 23.472C145.259 22.912 145.387 22.424 145.643 22.008C145.899 21.608 146.291 21.288 146.819 21.048C147.347 20.808 148.011 20.688 148.811 20.688C148.187 20.496 147.715 20.184 147.395 19.752C147.091 19.32 146.939 18.864 146.939 18.384C146.939 17.92 147.091 17.48 147.395 17.064C147.715 16.632 148.203 16.304 148.859 16.08C148.091 15.808 147.475 15.36 147.011 14.736C146.563 14.096 146.339 13.296 146.339 12.336C146.339 10.96 146.715 9.88 147.467 9.096C148.219 8.296 149.347 7.896 150.851 7.896C151.411 7.896 151.915 7.968 152.363 8.112C152.811 8.24 153.211 8.432 153.563 8.688C153.803 8.432 154.123 8.152 154.523 7.848C154.923 7.544 155.395 7.392 155.939 7.392C156.403 7.392 156.747 7.52 156.971 7.776C157.211 8.016 157.331 8.312 157.331 8.664C157.331 8.984 157.227 9.248 157.019 9.456C156.827 9.664 156.507 9.768 156.059 9.768C156.059 9.256 155.971 8.88 155.795 8.64C155.635 8.4 155.371 8.28 155.003 8.28C154.795 8.28 154.603 8.32 154.427 8.4C154.251 8.464 154.027 8.608 153.755 8.832C154.219 9.216 154.571 9.704 154.811 10.296C155.051 10.888 155.171 11.544 155.171 12.264C155.171 13.448 154.811 14.432 154.091 15.216C153.387 16 152.307 16.392 150.851 16.392C150.547 16.392 150.251 16.376 149.963 16.344C149.691 16.296 149.427 16.24 149.171 16.176C148.787 16.336 148.523 16.528 148.379 16.752C148.235 16.976 148.163 17.224 148.163 17.496C148.163 17.912 148.307 18.216 148.595 18.408C148.899 18.6 149.347 18.696 149.939 18.696H152.651C154.075 18.696 155.091 19.032 155.699 19.704C156.307 20.376 156.611 21.232 156.611 22.272C156.611 23.648 156.091 24.736 155.051 25.536C154.027 26.352 152.427 26.76 150.251 26.76ZM150.443 26.52C151.963 26.52 153.083 26.24 153.803 25.68C154.523 25.136 154.883 24.328 154.883 23.256C154.883 22.424 154.659 21.808 154.211 21.408C153.779 21.024 153.107 20.832 152.195 20.832H149.603C149.171 20.832 148.755 20.912 148.355 21.072C147.971 21.232 147.651 21.512 147.395 21.912C147.155 22.312 147.035 22.864 147.035 23.568C147.035 24.224 147.171 24.768 147.443 25.2C147.715 25.648 148.099 25.976 148.595 26.184C149.107 26.408 149.723 26.52 150.443 26.52ZM150.779 16.152C151.307 16.152 151.723 16.016 152.027 15.744C152.347 15.472 152.571 15.048 152.699 14.472C152.843 13.896 152.915 13.16 152.915 12.264C152.915 11.32 152.843 10.544 152.699 9.936C152.555 9.328 152.323 8.88 152.003 8.592C151.699 8.288 151.283 8.136 150.755 8.136C150.243 8.136 149.827 8.296 149.507 8.616C149.187 8.92 148.955 9.376 148.811 9.984C148.667 10.592 148.595 11.36 148.595 12.288C148.595 13.168 148.667 13.896 148.811 14.472C148.971 15.048 149.211 15.472 149.531 15.744C149.851 16.016 150.267 16.152 150.779 16.152ZM169.156 21.24C168.116 21.24 167.236 20.992 166.516 20.496C165.796 20 165.252 19.272 164.884 18.312C164.516 17.336 164.332 16.16 164.332 14.784C164.332 13.392 164.508 12.224 164.86 11.28C165.228 10.32 165.764 9.6 166.468 9.12C167.188 8.624 168.068 8.376 169.108 8.376C170.196 8.376 171.044 8.672 171.652 9.264C172.276 9.84 172.692 10.736 172.9 11.952H172.948C172.932 11.376 172.916 10.8 172.9 10.224C172.9 9.632 172.9 9.104 172.9 8.64C172.9 8.176 172.9 7.848 172.9 7.656V6.312H168.796V6.072H172.9V4.872C172.9 4.424 172.836 4.064 172.708 3.792C172.58 3.52 172.372 3.32 172.084 3.192C171.796 3.064 171.412 3 170.932 3H170.86V2.76H175.156V6.072H177.34V6.312H175.156V18.912C175.156 19.344 175.22 19.696 175.348 19.968C175.476 20.24 175.684 20.44 175.972 20.568C176.276 20.696 176.66 20.76 177.124 20.76H177.316V21H172.924V17.616H172.876C172.668 18.848 172.252 19.76 171.628 20.352C171.02 20.944 170.196 21.24 169.156 21.24ZM169.564 20.88C170.7 20.88 171.54 20.376 172.084 19.368C172.628 18.344 172.9 16.816 172.9 14.784C172.9 13.472 172.78 12.368 172.54 11.472C172.316 10.576 171.964 9.896 171.484 9.432C171.004 8.968 170.372 8.736 169.588 8.736C168.884 8.736 168.316 8.944 167.884 9.36C167.452 9.76 167.14 10.408 166.948 11.304C166.756 12.184 166.66 13.336 166.66 14.76C166.66 16.2 166.756 17.376 166.948 18.288C167.14 19.184 167.452 19.84 167.884 20.256C168.316 20.672 168.876 20.88 169.564 20.88ZM180.706 6.24C181.026 5.936 181.346 5.6 181.666 5.232C181.986 4.864 182.29 4.496 182.578 4.128C182.882 3.744 183.138 3.4 183.346 3.096H185.146C185.354 3.4 185.602 3.744 185.89 4.128C186.194 4.496 186.506 4.864 186.826 5.232C187.162 5.6 187.482 5.936 187.786 6.24V6.456H187.546C187.242 6.296 186.882 6.096 186.466 5.856C186.05 5.616 185.642 5.36 185.242 5.088C184.842 4.816 184.514 4.568 184.258 4.344C184.018 4.568 183.69 4.816 183.274 5.088C182.874 5.36 182.458 5.616 182.026 5.856C181.61 6.096 181.25 6.296 180.946 6.456H180.706V6.24ZM187.066 2.952C187.514 2.952 187.834 2.864 188.026 2.688C188.234 2.512 188.338 2.184 188.338 1.704C188.338 1.304 188.282 1.024 188.17 0.863999C188.058 0.687999 187.842 0.599999 187.522 0.599999C187.154 0.599999 186.906 0.711999 186.778 0.935999C186.65 1.16 186.586 1.448 186.586 1.8C186.378 1.8 186.202 1.744 186.058 1.632C185.93 1.52 185.866 1.384 185.866 1.224C185.866 0.951999 186.018 0.743999 186.322 0.599999C186.626 0.44 187.05 0.36 187.594 0.36C188.202 0.36 188.682 0.48 189.034 0.719999C189.402 0.943999 189.586 1.28 189.586 1.728C189.586 2.064 189.466 2.36 189.226 2.616C189.002 2.872 188.594 3.04 188.002 3.12L187.666 4.032H187.426L187.066 2.952ZM184.762 21.24C182.97 21.24 181.57 20.664 180.562 19.512C179.57 18.36 179.074 16.744 179.074 14.664C179.074 12.424 179.538 10.736 180.466 9.6C181.394 8.464 182.706 7.896 184.402 7.896C185.954 7.896 187.17 8.376 188.05 9.336C188.946 10.296 189.394 11.728 189.394 13.632V14.208H181.402C181.418 15.84 181.538 17.152 181.762 18.144C181.986 19.136 182.346 19.864 182.842 20.328C183.354 20.776 184.018 21 184.834 21C185.442 21 185.978 20.888 186.442 20.664C186.922 20.44 187.322 20.112 187.642 19.68C187.962 19.232 188.178 18.688 188.29 18.048C188.482 18.08 188.626 18.176 188.722 18.336C188.818 18.496 188.866 18.664 188.866 18.84C188.866 19.16 188.714 19.512 188.41 19.896C188.106 20.264 187.65 20.584 187.042 20.856C186.45 21.112 185.69 21.24 184.762 21.24ZM186.97 13.968C186.97 12.56 186.882 11.432 186.706 10.584C186.53 9.736 186.25 9.12 185.866 8.736C185.482 8.336 184.978 8.136 184.354 8.136C183.698 8.136 183.162 8.336 182.746 8.736C182.33 9.12 182.018 9.736 181.81 10.584C181.602 11.432 181.466 12.56 181.402 13.968H186.97ZM201.748 21.24C200.532 21.24 199.644 20.968 199.084 20.424C198.54 19.864 198.268 18.896 198.268 17.52V8.376H196.444V8.136C197.02 8.136 197.516 8.088 197.932 7.992C198.364 7.88 198.732 7.712 199.036 7.488C199.356 7.264 199.612 6.96 199.804 6.576C200.012 6.192 200.172 5.728 200.284 5.184H200.524V8.136H203.884V8.376H200.524V18.408C200.524 19.24 200.684 19.864 201.004 20.28C201.324 20.696 201.796 20.904 202.42 20.904C202.644 20.904 202.876 20.88 203.116 20.832C203.356 20.784 203.612 20.712 203.884 20.616V20.856C203.676 20.952 203.364 21.04 202.948 21.12C202.532 21.2 202.132 21.24 201.748 21.24ZM204.978 21V20.76H205.29C205.77 20.76 206.154 20.696 206.442 20.568C206.73 20.44 206.938 20.24 207.066 19.968C207.194 19.696 207.258 19.344 207.258 18.912V10.248C207.258 9.8 207.194 9.44 207.066 9.168C206.938 8.896 206.73 8.696 206.442 8.568C206.154 8.44 205.77 8.376 205.29 8.376H205.218V8.136H209.514V18.792C209.514 19.272 209.578 19.656 209.706 19.944C209.834 20.232 210.042 20.44 210.33 20.568C210.634 20.696 211.018 20.76 211.482 20.76H211.794V21H204.978ZM207.546 6.216C207.77 5.864 208.002 5.48 208.242 5.064C208.498 4.648 208.738 4.224 208.962 3.792C209.202 3.36 209.402 2.968 209.562 2.616H211.722V2.856C211.546 3.064 211.298 3.32 210.978 3.624C210.674 3.928 210.33 4.256 209.946 4.608C209.578 4.944 209.202 5.28 208.818 5.616C208.45 5.936 208.106 6.216 207.786 6.456H207.546V6.216ZM218.953 21.24C217.865 21.24 216.905 21.024 216.073 20.592C215.241 20.144 214.593 19.424 214.129 18.432C213.665 17.44 213.433 16.136 213.433 14.52C213.433 12.872 213.665 11.568 214.129 10.608C214.609 9.632 215.249 8.936 216.049 8.52C216.849 8.104 217.753 7.896 218.761 7.896C219.433 7.896 220.089 7.984 220.729 8.16C221.385 8.336 221.921 8.608 222.337 8.976C222.753 9.328 222.961 9.8 222.961 10.392C222.961 10.744 222.873 11.032 222.697 11.256C222.537 11.464 222.297 11.616 221.977 11.712C221.673 11.808 221.289 11.856 220.825 11.856C220.825 11.008 220.761 10.312 220.633 9.768C220.521 9.208 220.313 8.8 220.009 8.544C219.705 8.272 219.273 8.136 218.713 8.136C218.137 8.136 217.625 8.32 217.177 8.688C216.729 9.04 216.377 9.68 216.121 10.608C215.881 11.52 215.761 12.832 215.761 14.544C215.761 16.112 215.881 17.376 216.121 18.336C216.361 19.28 216.745 19.96 217.273 20.376C217.801 20.792 218.481 21 219.313 21C219.841 21 220.313 20.912 220.729 20.736C221.161 20.56 221.529 20.256 221.833 19.824C222.153 19.376 222.401 18.768 222.577 18C222.737 18.032 222.857 18.112 222.937 18.24C223.033 18.368 223.081 18.544 223.081 18.768C223.081 19.152 222.929 19.536 222.625 19.92C222.321 20.288 221.865 20.6 221.257 20.856C220.649 21.112 219.881 21.24 218.953 21.24ZM224.358 21V20.76H224.55C225.046 20.76 225.438 20.696 225.726 20.568C226.014 20.424 226.214 20.192 226.326 19.872C226.454 19.552 226.518 19.112 226.518 18.552V5.16C226.518 4.616 226.454 4.192 226.326 3.888C226.214 3.568 226.022 3.344 225.75 3.216C225.478 3.072 225.094 3 224.598 3H224.478V2.76H228.774V7.608C228.774 7.912 228.774 8.224 228.774 8.544C228.774 8.848 228.774 9.152 228.774 9.456C228.774 9.76 228.766 10.072 228.75 10.392H228.798C229.022 9.64 229.334 9.088 229.734 8.736C230.134 8.384 230.566 8.16 231.03 8.064C231.51 7.952 231.95 7.896 232.35 7.896C233.774 7.896 234.83 8.272 235.518 9.024C236.222 9.76 236.574 10.952 236.574 12.6V18.552C236.574 19.112 236.63 19.552 236.742 19.872C236.854 20.192 237.038 20.424 237.294 20.568C237.566 20.696 237.926 20.76 238.374 20.76H238.494V21H234.318V11.784C234.318 10.744 234.126 9.896 233.742 9.24C233.358 8.584 232.694 8.256 231.75 8.256C230.998 8.256 230.406 8.456 229.974 8.856C229.542 9.256 229.23 9.776 229.038 10.416C228.862 11.04 228.774 11.696 228.774 12.384V18.552C228.774 19.112 228.83 19.552 228.942 19.872C229.07 20.192 229.27 20.424 229.542 20.568C229.83 20.696 230.214 20.76 230.694 20.76H230.814V21H224.358ZM250.311 21.24C249.095 21.24 248.207 20.968 247.647 20.424C247.103 19.864 246.831 18.896 246.831 17.52V8.376H245.007V8.136C245.583 8.136 246.079 8.088 246.495 7.992C246.927 7.88 247.295 7.712 247.599 7.488C247.919 7.264 248.175 6.96 248.367 6.576C248.575 6.192 248.735 5.728 248.847 5.184H249.087V8.136H252.447V8.376H249.087V18.408C249.087 19.24 249.247 19.864 249.567 20.28C249.887 20.696 250.359 20.904 250.983 20.904C251.207 20.904 251.439 20.88 251.679 20.832C251.919 20.784 252.175 20.712 252.447 20.616V20.856C252.239 20.952 251.927 21.04 251.511 21.12C251.095 21.2 250.695 21.24 250.311 21.24ZM259.78 21.24C258.372 21.24 257.316 20.872 256.612 20.136C255.924 19.384 255.58 18.184 255.58 16.536V10.536C255.58 9.992 255.516 9.568 255.388 9.264C255.276 8.944 255.076 8.72 254.788 8.592C254.5 8.448 254.108 8.376 253.612 8.376H253.54V8.136H257.836V16.656C257.836 17.68 257.908 18.504 258.052 19.128C258.196 19.736 258.436 20.184 258.772 20.472C259.124 20.76 259.588 20.904 260.164 20.904C260.884 20.904 261.476 20.72 261.94 20.352C262.42 19.968 262.78 19.416 263.02 18.696C263.26 17.96 263.38 17.08 263.38 16.056V10.536C263.38 9.992 263.316 9.568 263.188 9.264C263.076 8.944 262.876 8.72 262.588 8.592C262.3 8.448 261.908 8.376 261.412 8.376H261.34V8.136H265.636V18.624C265.636 19.168 265.692 19.6 265.804 19.92C265.932 20.224 266.14 20.44 266.428 20.568C266.716 20.696 267.108 20.76 267.604 20.76H267.676V21H263.548V17.712H263.5C263.372 18.528 263.164 19.176 262.876 19.656C262.604 20.12 262.284 20.464 261.916 20.688C261.564 20.912 261.196 21.056 260.812 21.12C260.444 21.2 260.1 21.24 259.78 21.24ZM260.596 25.392C260.292 25.392 260.036 25.288 259.828 25.08C259.636 24.888 259.54 24.544 259.54 24.048C259.54 23.536 259.636 23.184 259.828 22.992C260.036 22.8 260.292 22.704 260.596 22.704C260.884 22.704 261.132 22.8 261.34 22.992C261.548 23.184 261.652 23.536 261.652 24.048C261.652 24.544 261.548 24.888 261.34 25.08C261.132 25.288 260.884 25.392 260.596 25.392ZM279.373 21.24C278.157 21.24 277.269 20.968 276.709 20.424C276.165 19.864 275.893 18.896 275.893 17.52V8.376H274.069V8.136C274.645 8.136 275.141 8.088 275.557 7.992C275.989 7.88 276.357 7.712 276.661 7.488C276.981 7.264 277.237 6.96 277.429 6.576C277.637 6.192 277.797 5.728 277.909 5.184H278.149V8.136H281.509V8.376H278.149V18.408C278.149 19.24 278.309 19.864 278.629 20.28C278.949 20.696 279.421 20.904 280.045 20.904C280.269 20.904 280.501 20.88 280.741 20.832C280.981 20.784 281.237 20.712 281.509 20.616V20.856C281.301 20.952 280.989 21.04 280.573 21.12C280.157 21.2 279.757 21.24 279.373 21.24ZM282.603 21V20.76H282.915C283.395 20.76 283.779 20.696 284.067 20.568C284.355 20.44 284.563 20.24 284.691 19.968C284.819 19.696 284.883 19.344 284.883 18.912V10.248C284.883 9.8 284.819 9.44 284.691 9.168C284.563 8.896 284.355 8.696 284.067 8.568C283.779 8.44 283.395 8.376 282.915 8.376H282.843V8.136H287.139V18.792C287.139 19.272 287.203 19.656 287.331 19.944C287.459 20.232 287.667 20.44 287.955 20.568C288.259 20.696 288.643 20.76 289.107 20.76H289.419V21H282.603ZM285.891 5.832C285.587 5.832 285.331 5.736 285.123 5.544C284.931 5.336 284.835 4.984 284.835 4.488C284.835 3.976 284.931 3.624 285.123 3.432C285.331 3.24 285.587 3.144 285.891 3.144C286.179 3.144 286.427 3.24 286.635 3.432C286.843 3.624 286.947 3.976 286.947 4.488C286.947 4.984 286.843 5.336 286.635 5.544C286.427 5.736 286.179 5.832 285.891 5.832ZM290.41 21V20.76H290.602C291.098 20.76 291.49 20.696 291.778 20.568C292.066 20.424 292.266 20.192 292.378 19.872C292.506 19.552 292.57 19.112 292.57 18.552V10.536C292.57 9.992 292.506 9.568 292.378 9.264C292.266 8.944 292.074 8.72 291.802 8.592C291.53 8.448 291.146 8.376 290.65 8.376H290.53V8.136H294.802V10.392H294.85C295.074 9.64 295.386 9.088 295.786 8.736C296.186 8.384 296.618 8.16 297.082 8.064C297.562 7.952 298.002 7.896 298.402 7.896C299.826 7.896 300.882 8.272 301.57 9.024C302.274 9.76 302.626 10.952 302.626 12.6V18.552C302.626 19.112 302.682 19.552 302.794 19.872C302.906 20.192 303.09 20.424 303.346 20.568C303.618 20.696 303.978 20.76 304.426 20.76H304.546V21H300.37V11.784C300.37 10.744 300.178 9.896 299.794 9.24C299.41 8.584 298.746 8.256 297.802 8.256C297.05 8.256 296.458 8.456 296.026 8.856C295.594 9.256 295.282 9.776 295.09 10.416C294.914 11.04 294.826 11.696 294.826 12.384V18.552C294.826 19.112 294.882 19.552 294.994 19.872C295.122 20.192 295.322 20.424 295.594 20.568C295.882 20.696 296.266 20.76 296.746 20.76H296.866V21H290.41ZM305.639 21V20.76H305.831C306.327 20.76 306.719 20.696 307.007 20.568C307.295 20.424 307.495 20.192 307.607 19.872C307.735 19.552 307.799 19.112 307.799 18.552V5.16C307.799 4.616 307.735 4.192 307.607 3.888C307.495 3.568 307.303 3.344 307.031 3.216C306.759 3.072 306.375 3 305.879 3H305.759V2.76H310.055V7.608C310.055 7.912 310.055 8.224 310.055 8.544C310.055 8.848 310.055 9.152 310.055 9.456C310.055 9.76 310.047 10.072 310.031 10.392H310.079C310.303 9.64 310.615 9.088 311.015 8.736C311.415 8.384 311.847 8.16 312.311 8.064C312.791 7.952 313.231 7.896 313.631 7.896C315.055 7.896 316.111 8.272 316.799 9.024C317.503 9.76 317.855 10.952 317.855 12.6V18.552C317.855 19.112 317.911 19.552 318.023 19.872C318.135 20.192 318.319 20.424 318.575 20.568C318.847 20.696 319.207 20.76 319.655 20.76H319.775V21H315.599V11.784C315.599 10.744 315.407 9.896 315.023 9.24C314.639 8.584 313.975 8.256 313.031 8.256C312.279 8.256 311.687 8.456 311.255 8.856C310.823 9.256 310.511 9.776 310.319 10.416C310.143 11.04 310.055 11.696 310.055 12.384V18.552C310.055 19.112 310.111 19.552 310.223 19.872C310.351 20.192 310.551 20.424 310.823 20.568C311.111 20.696 311.495 20.76 311.975 20.76H312.095V21H305.639ZM326.264 21V20.76H326.456C326.952 20.76 327.344 20.696 327.632 20.568C327.92 20.424 328.12 20.192 328.232 19.872C328.36 19.552 328.424 19.112 328.424 18.552V5.16C328.424 4.616 328.36 4.192 328.232 3.888C328.12 3.568 327.928 3.344 327.656 3.216C327.384 3.072 327 3 326.504 3H326.384V2.76H330.68V7.608C330.68 7.912 330.68 8.224 330.68 8.544C330.68 8.848 330.68 9.152 330.68 9.456C330.68 9.76 330.672 10.072 330.656 10.392H330.704C330.928 9.64 331.24 9.088 331.64 8.736C332.04 8.384 332.472 8.16 332.936 8.064C333.416 7.952 333.856 7.896 334.256 7.896C335.68 7.896 336.736 8.272 337.424 9.024C338.128 9.76 338.48 10.952 338.48 12.6V18.552C338.48 19.112 338.536 19.552 338.648 19.872C338.76 20.192 338.944 20.424 339.2 20.568C339.472 20.696 339.832 20.76 340.28 20.76H340.4V21H336.224V11.784C336.224 10.744 336.032 9.896 335.648 9.24C335.264 8.584 334.6 8.256 333.656 8.256C332.904 8.256 332.312 8.456 331.88 8.856C331.448 9.256 331.136 9.776 330.944 10.416C330.768 11.04 330.68 11.696 330.68 12.384V18.552C330.68 19.112 330.736 19.552 330.848 19.872C330.976 20.192 331.176 20.424 331.448 20.568C331.736 20.696 332.12 20.76 332.6 20.76H332.72V21H326.264ZM347.954 21.24C346.226 21.24 344.866 20.688 343.874 19.584C342.882 18.48 342.386 16.8 342.386 14.544C342.386 12.304 342.858 10.64 343.802 9.552C344.762 8.448 346.17 7.896 348.026 7.896C349.754 7.896 351.114 8.448 352.106 9.552C353.098 10.64 353.594 12.304 353.594 14.544C353.594 16.8 353.114 18.48 352.154 19.584C351.21 20.688 349.81 21.24 347.954 21.24ZM348.002 21C348.786 21 349.418 20.784 349.898 20.352C350.378 19.92 350.722 19.232 350.93 18.288C351.154 17.344 351.266 16.096 351.266 14.544C351.266 13.008 351.154 11.768 350.93 10.824C350.722 9.88 350.378 9.2 349.898 8.784C349.418 8.352 348.778 8.136 347.978 8.136C347.194 8.136 346.562 8.352 346.082 8.784C345.602 9.2 345.25 9.88 345.026 10.824C344.818 11.768 344.714 13.008 344.714 14.544C344.714 16.096 344.818 17.344 345.026 18.288C345.25 19.232 345.602 19.92 346.082 20.352C346.578 20.784 347.218 21 348.002 21ZM360.078 21.24C358.862 21.24 357.894 20.928 357.174 20.304C356.47 19.664 356.118 18.792 356.118 17.688C356.118 16.456 356.566 15.536 357.462 14.928C358.374 14.32 359.75 13.984 361.59 13.92L363.582 13.848V12.048C363.582 11.152 363.534 10.416 363.438 9.84C363.342 9.264 363.134 8.84 362.814 8.568C362.494 8.28 362.006 8.136 361.35 8.136C360.422 8.136 359.822 8.424 359.55 9C359.294 9.576 359.166 10.48 359.166 11.712C358.494 11.712 357.982 11.6 357.63 11.376C357.294 11.152 357.126 10.784 357.126 10.272C357.126 9.696 357.318 9.24 357.702 8.904C358.102 8.552 358.63 8.296 359.286 8.136C359.942 7.976 360.662 7.896 361.446 7.896C362.918 7.896 364.014 8.208 364.734 8.832C365.47 9.456 365.838 10.528 365.838 12.048V19.224C365.838 19.608 365.886 19.912 365.982 20.136C366.078 20.36 366.238 20.52 366.462 20.616C366.686 20.712 366.974 20.76 367.326 20.76H367.398V21H363.774V18.48H363.726C363.566 19.12 363.31 19.648 362.958 20.064C362.606 20.464 362.182 20.76 361.686 20.952C361.206 21.144 360.67 21.24 360.078 21.24ZM360.558 20.904C361.15 20.904 361.67 20.752 362.118 20.448C362.582 20.144 362.942 19.736 363.198 19.224C363.454 18.712 363.582 18.16 363.582 17.568V14.112L362.046 14.184C360.686 14.248 359.742 14.56 359.214 15.12C358.702 15.68 358.446 16.624 358.446 17.952C358.446 18.592 358.518 19.136 358.662 19.584C358.822 20.016 359.062 20.344 359.382 20.568C359.702 20.792 360.094 20.904 360.558 20.904Z" fill="url(#paint0_linear_2045_2506)"/>
<path d="M0.470594 21V20.76H1.40659C1.83859 20.76 2.19859 20.696 2.48659 20.568C2.79059 20.44 3.01459 20.248 3.15859 19.992C3.30259 19.736 3.37459 19.416 3.37459 19.032V5.736C3.37459 5.368 3.30259 5.064 3.15859 4.824C3.01459 4.584 2.79059 4.408 2.48659 4.296C2.19859 4.168 1.83859 4.104 1.40659 4.104H0.470594V3.864H5.34259L11.4626 18.312L16.7666 3.864H21.1586V4.104H20.8466C20.4146 4.104 20.0466 4.168 19.7426 4.296C19.4546 4.424 19.2386 4.616 19.0946 4.872C18.9506 5.128 18.8786 5.448 18.8786 5.832V19.032C18.8786 19.416 18.9506 19.736 19.0946 19.992C19.2386 20.248 19.4546 20.44 19.7426 20.568C20.0466 20.696 20.4146 20.76 20.8466 20.76H21.1586V21H14.7746V20.76H14.8466C15.1986 20.76 15.5026 20.696 15.7586 20.568C16.0146 20.44 16.2146 20.248 16.3586 19.992C16.5026 19.736 16.5746 19.416 16.5746 19.032V5.112L10.7426 21H10.1666L3.61459 5.424V19.032C3.61459 19.416 3.68659 19.736 3.83059 19.992C3.97459 20.248 4.19059 20.44 4.47859 20.568C4.78259 20.696 5.15059 20.76 5.58259 20.76H6.01459V21H0.470594ZM28.97 21.24C27.242 21.24 25.882 20.688 24.89 19.584C23.898 18.48 23.402 16.8 23.402 14.544C23.402 12.304 23.874 10.64 24.818 9.552C25.778 8.448 27.186 7.896 29.042 7.896C30.77 7.896 32.13 8.448 33.122 9.552C34.114 10.64 34.61 12.304 34.61 14.544C34.61 16.8 34.13 18.48 33.17 19.584C32.226 20.688 30.826 21.24 28.97 21.24ZM29.018 21C29.802 21 30.434 20.784 30.914 20.352C31.394 19.92 31.738 19.232 31.946 18.288C32.17 17.344 32.282 16.096 32.282 14.544C32.282 13.008 32.17 11.768 31.946 10.824C31.738 9.88 31.394 9.2 30.914 8.784C30.434 8.352 29.794 8.136 28.994 8.136C28.21 8.136 27.578 8.352 27.098 8.784C26.618 9.2 26.266 9.88 26.042 10.824C25.834 11.768 25.73 13.008 25.73 14.544C25.73 16.096 25.834 17.344 26.042 18.288C26.266 19.232 26.618 19.92 27.098 20.352C27.594 20.784 28.234 21 29.018 21ZM25.394 6.216C25.714 5.864 26.034 5.48 26.354 5.064C26.674 4.648 26.978 4.224 27.266 3.792C27.57 3.36 27.826 2.968 28.034 2.616H29.834C30.042 2.968 30.29 3.36 30.578 3.792C30.882 4.224 31.194 4.648 31.514 5.064C31.85 5.48 32.17 5.864 32.474 6.216V6.456H32.234C31.93 6.28 31.562 6.056 31.13 5.784C30.714 5.496 30.306 5.2 29.906 4.896C29.506 4.592 29.186 4.312 28.946 4.056C28.706 4.312 28.378 4.592 27.962 4.896C27.562 5.2 27.146 5.496 26.714 5.784C26.298 6.056 25.938 6.28 25.634 6.456H25.394V6.216ZM28.994 25.392C28.69 25.392 28.434 25.288 28.226 25.08C28.034 24.888 27.938 24.544 27.938 24.048C27.938 23.536 28.034 23.184 28.226 22.992C28.434 22.8 28.69 22.704 28.994 22.704C29.282 22.704 29.53 22.8 29.738 22.992C29.946 23.184 30.05 23.536 30.05 24.048C30.05 24.544 29.946 24.888 29.738 25.08C29.53 25.288 29.282 25.392 28.994 25.392ZM41.6936 21.24C40.4776 21.24 39.5896 20.968 39.0296 20.424C38.4856 19.864 38.2136 18.896 38.2136 17.52V8.376H36.3896V8.136C36.9656 8.136 37.4616 8.088 37.8776 7.992C38.3096 7.88 38.6776 7.712 38.9816 7.488C39.3016 7.264 39.5576 6.96 39.7496 6.576C39.9576 6.192 40.1176 5.728 40.2296 5.184H40.4696V8.136H43.8296V8.376H40.4696V18.408C40.4696 19.24 40.6296 19.864 40.9496 20.28C41.2696 20.696 41.7416 20.904 42.3656 20.904C42.5896 20.904 42.8216 20.88 43.0616 20.832C43.3016 20.784 43.5576 20.712 43.8296 20.616V20.856C43.6216 20.952 43.3096 21.04 42.8936 21.12C42.4776 21.2 42.0776 21.24 41.6936 21.24ZM50.4337 21V20.76H50.6257C51.1217 20.76 51.5137 20.696 51.8017 20.568C52.0897 20.424 52.2897 20.192 52.4017 19.872C52.5297 19.552 52.5937 19.112 52.5937 18.552V10.536C52.5937 9.992 52.5297 9.568 52.4017 9.264C52.2897 8.944 52.0977 8.72 51.8257 8.592C51.5537 8.448 51.1697 8.376 50.6737 8.376H50.5537V8.136H54.8257V10.392H54.8737C55.0977 9.64 55.4097 9.088 55.8097 8.736C56.2097 8.384 56.6417 8.16 57.1057 8.064C57.5857 7.952 58.0257 7.896 58.4257 7.896C59.8497 7.896 60.9057 8.272 61.5937 9.024C62.2977 9.76 62.6497 10.952 62.6497 12.6V18.552C62.6497 19.112 62.7057 19.552 62.8177 19.872C62.9297 20.192 63.1137 20.424 63.3697 20.568C63.6417 20.696 64.0017 20.76 64.4497 20.76H64.5697V21H60.3937V11.784C60.3937 10.744 60.2017 9.896 59.8177 9.24C59.4337 8.584 58.7697 8.256 57.8257 8.256C57.0737 8.256 56.4817 8.456 56.0497 8.856C55.6177 9.256 55.3057 9.776 55.1137 10.416C54.9377 11.04 54.8497 11.696 54.8497 12.384V18.552C54.8497 19.112 54.9057 19.552 55.0177 19.872C55.1457 20.192 55.3457 20.424 55.6177 20.568C55.9057 20.696 56.2897 20.76 56.7697 20.76H56.8897V21H50.4337ZM65.6625 21V20.76H65.8545C66.3505 20.76 66.7425 20.696 67.0305 20.568C67.3185 20.424 67.5185 20.192 67.6305 19.872C67.7585 19.552 67.8225 19.112 67.8225 18.552V5.16C67.8225 4.616 67.7585 4.192 67.6305 3.888C67.5185 3.568 67.3265 3.344 67.0545 3.216C66.7825 3.072 66.3985 3 65.9025 3H65.7825V2.76H70.0785V7.608C70.0785 7.912 70.0785 8.224 70.0785 8.544C70.0785 8.848 70.0785 9.152 70.0785 9.456C70.0785 9.76 70.0705 10.072 70.0545 10.392H70.1025C70.3265 9.64 70.6385 9.088 71.0385 8.736C71.4385 8.384 71.8705 8.16 72.3345 8.064C72.8145 7.952 73.2545 7.896 73.6545 7.896C75.0785 7.896 76.1345 8.272 76.8225 9.024C77.5265 9.76 77.8785 10.952 77.8785 12.6V18.552C77.8785 19.112 77.9345 19.552 78.0465 19.872C78.1585 20.192 78.3425 20.424 78.5985 20.568C78.8705 20.696 79.2305 20.76 79.6785 20.76H79.7985V21H75.6225V11.784C75.6225 10.744 75.4305 9.896 75.0465 9.24C74.6625 8.584 73.9985 8.256 73.0545 8.256C72.3025 8.256 71.7105 8.456 71.2785 8.856C70.8465 9.256 70.5345 9.776 70.3425 10.416C70.1665 11.04 70.0785 11.696 70.0785 12.384V18.552C70.0785 19.112 70.1345 19.552 70.2465 19.872C70.3745 20.192 70.5745 20.424 70.8465 20.568C71.1345 20.696 71.5185 20.76 71.9985 20.76H72.1185V21H65.6625ZM81.0168 21V20.76H81.3288C81.8088 20.76 82.1928 20.696 82.4808 20.568C82.7688 20.44 82.9768 20.24 83.1048 19.968C83.2328 19.696 83.2968 19.344 83.2968 18.912V10.248C83.2968 9.8 83.2328 9.44 83.1048 9.168C82.9768 8.896 82.7688 8.696 82.4808 8.568C82.1928 8.44 81.8088 8.376 81.3288 8.376H81.2568V8.136H85.5528V18.792C85.5528 19.272 85.6168 19.656 85.7448 19.944C85.8728 20.232 86.0808 20.44 86.3688 20.568C86.6728 20.696 87.0568 20.76 87.5208 20.76H87.8328V21H81.0168ZM84.3048 5.832C84.0008 5.832 83.7448 5.736 83.5368 5.544C83.3448 5.336 83.2488 4.984 83.2488 4.488C83.2488 3.976 83.3448 3.624 83.5368 3.432C83.7448 3.24 84.0008 3.144 84.3048 3.144C84.5928 3.144 84.8408 3.24 85.0488 3.432C85.2568 3.624 85.3608 3.976 85.3608 4.488C85.3608 4.984 85.2568 5.336 85.0488 5.544C84.8408 5.736 84.5928 5.832 84.3048 5.832ZM84.3048 25.392C84.0008 25.392 83.7448 25.288 83.5368 25.08C83.3448 24.888 83.2488 24.544 83.2488 24.048C83.2488 23.536 83.3448 23.184 83.5368 22.992C83.7448 22.8 84.0008 22.704 84.3048 22.704C84.5928 22.704 84.8408 22.8 85.0488 22.992C85.2568 23.184 85.3608 23.536 85.3608 24.048C85.3608 24.544 85.2568 24.888 85.0488 25.08C84.8408 25.288 84.5928 25.392 84.3048 25.392ZM88.5843 26.76V26.52H88.7763C89.2563 26.52 89.6403 26.456 89.9283 26.328C90.2163 26.2 90.4243 26 90.5523 25.728C90.6803 25.456 90.7443 25.104 90.7443 24.672V10.248C90.7443 9.8 90.6803 9.44 90.5523 9.168C90.4243 8.896 90.2163 8.696 89.9283 8.568C89.6403 8.44 89.2563 8.376 88.7763 8.376H88.4643V8.136H92.9523V11.472H93.0003C93.2243 10.256 93.6403 9.36 94.2483 8.784C94.8723 8.192 95.7203 7.896 96.7923 7.896C98.3603 7.896 99.5443 8.456 100.344 9.576C101.16 10.696 101.568 12.352 101.568 14.544C101.568 16.736 101.152 18.4 100.32 19.536C99.5043 20.672 98.3123 21.24 96.7443 21.24C95.7043 21.24 94.8803 20.944 94.2723 20.352C93.6643 19.76 93.2483 18.848 93.0243 17.616H92.9763C92.9923 18.016 93.0003 18.416 93.0003 18.816C93.0003 19.216 93.0003 19.616 93.0003 20.016V24.552C93.0003 25.016 93.0643 25.392 93.1923 25.68C93.3203 25.984 93.5283 26.2 93.8163 26.328C94.1043 26.456 94.4883 26.52 94.9683 26.52H95.0403V26.76H88.5843ZM96.3363 20.88C97.0403 20.88 97.6003 20.672 98.0163 20.256C98.4483 19.824 98.7603 19.144 98.9523 18.216C99.1443 17.272 99.2403 16.04 99.2403 14.52C99.2403 13.016 99.1443 11.808 98.9523 10.896C98.7603 9.968 98.4483 9.296 98.0163 8.88C97.5843 8.464 97.0163 8.256 96.3123 8.256C95.5443 8.256 94.9123 8.496 94.4163 8.976C93.9363 9.44 93.5763 10.136 93.3363 11.064C93.1123 11.992 93.0003 13.152 93.0003 14.544C93.0003 15.968 93.1203 17.152 93.3603 18.096C93.6003 19.04 93.9683 19.744 94.4643 20.208C94.9603 20.656 95.5843 20.88 96.3363 20.88ZM108.597 21V20.76H108.909C109.389 20.76 109.773 20.696 110.061 20.568C110.349 20.44 110.557 20.24 110.685 19.968C110.813 19.696 110.877 19.344 110.877 18.912V4.872C110.877 4.424 110.813 4.064 110.685 3.792C110.557 3.52 110.349 3.32 110.061 3.192C109.773 3.064 109.389 3 108.909 3H108.597V2.76H113.133V18.792C113.133 19.272 113.197 19.656 113.325 19.944C113.453 20.232 113.661 20.44 113.949 20.568C114.237 20.696 114.621 20.76 115.101 20.76H115.413V21H108.597ZM120.875 21.24C119.659 21.24 118.691 20.928 117.971 20.304C117.267 19.664 116.915 18.792 116.915 17.688C116.915 16.456 117.363 15.536 118.259 14.928C119.171 14.32 120.547 13.984 122.387 13.92L124.379 13.848V12.048C124.379 11.152 124.331 10.416 124.235 9.84C124.139 9.264 123.931 8.84 123.611 8.568C123.291 8.28 122.803 8.136 122.147 8.136C121.219 8.136 120.619 8.424 120.347 9C120.091 9.576 119.963 10.48 119.963 11.712C119.291 11.712 118.779 11.6 118.427 11.376C118.091 11.152 117.923 10.784 117.923 10.272C117.923 9.696 118.115 9.24 118.499 8.904C118.899 8.552 119.427 8.296 120.083 8.136C120.739 7.976 121.459 7.896 122.243 7.896C123.715 7.896 124.811 8.208 125.531 8.832C126.267 9.456 126.635 10.528 126.635 12.048V19.224C126.635 19.608 126.683 19.912 126.779 20.136C126.875 20.36 127.035 20.52 127.259 20.616C127.483 20.712 127.771 20.76 128.123 20.76H128.195V21H124.571V18.48H124.523C124.363 19.12 124.107 19.648 123.755 20.064C123.403 20.464 122.979 20.76 122.483 20.952C122.003 21.144 121.467 21.24 120.875 21.24ZM121.355 20.904C121.947 20.904 122.467 20.752 122.915 20.448C123.379 20.144 123.739 19.736 123.995 19.224C124.251 18.712 124.379 18.16 124.379 17.568V14.112L122.843 14.184C121.483 14.248 120.539 14.56 120.011 15.12C119.499 15.68 119.243 16.624 119.243 17.952C119.243 18.592 119.315 19.136 119.459 19.584C119.619 20.016 119.859 20.344 120.179 20.568C120.499 20.792 120.891 20.904 121.355 20.904ZM122.315 6.456C121.563 6.456 120.947 6.312 120.467 6.024C119.987 5.72 119.627 5.32 119.387 4.824C119.147 4.312 119.003 3.76 118.955 3.168H119.195C119.323 3.552 119.499 3.864 119.723 4.104C119.963 4.344 120.291 4.52 120.707 4.632C121.139 4.744 121.675 4.8 122.315 4.8C122.971 4.8 123.507 4.744 123.923 4.632C124.339 4.52 124.667 4.344 124.907 4.104C125.147 3.864 125.323 3.552 125.435 3.168H125.675C125.627 3.76 125.483 4.312 125.243 4.824C125.003 5.32 124.643 5.72 124.163 6.024C123.699 6.312 123.083 6.456 122.315 6.456ZM122.147 25.392C121.843 25.392 121.587 25.288 121.379 25.08C121.187 24.888 121.091 24.544 121.091 24.048C121.091 23.536 121.187 23.184 121.379 22.992C121.587 22.8 121.843 22.704 122.147 22.704C122.435 22.704 122.683 22.8 122.891 22.992C123.099 23.184 123.203 23.536 123.203 24.048C123.203 24.544 123.099 24.888 122.891 25.08C122.683 25.288 122.435 25.392 122.147 25.392ZM129.91 21V20.76H130.102C130.598 20.76 130.99 20.696 131.278 20.568C131.566 20.424 131.766 20.192 131.878 19.872C132.006 19.552 132.07 19.112 132.07 18.552V10.536C132.07 9.992 132.006 9.568 131.878 9.264C131.766 8.944 131.574 8.72 131.302 8.592C131.03 8.448 130.646 8.376 130.15 8.376H130.03V8.136H134.302V10.392H134.35C134.574 9.64 134.886 9.088 135.286 8.736C135.686 8.384 136.118 8.16 136.582 8.064C137.062 7.952 137.502 7.896 137.902 7.896C139.326 7.896 140.382 8.272 141.07 9.024C141.774 9.76 142.126 10.952 142.126 12.6V18.552C142.126 19.112 142.182 19.552 142.294 19.872C142.406 20.192 142.59 20.424 142.846 20.568C143.118 20.696 143.478 20.76 143.926 20.76H144.046V21H139.87V11.784C139.87 10.744 139.678 9.896 139.294 9.24C138.91 8.584 138.246 8.256 137.302 8.256C136.55 8.256 135.958 8.456 135.526 8.856C135.094 9.256 134.782 9.776 134.59 10.416C134.414 11.04 134.326 11.696 134.326 12.384V18.552C134.326 19.112 134.382 19.552 134.494 19.872C134.622 20.192 134.822 20.424 135.094 20.568C135.382 20.696 135.766 20.76 136.246 20.76H136.366V21H129.91ZM150.251 26.76C148.587 26.76 147.339 26.456 146.507 25.848C145.675 25.256 145.259 24.464 145.259 23.472C145.259 22.912 145.387 22.424 145.643 22.008C145.899 21.608 146.291 21.288 146.819 21.048C147.347 20.808 148.011 20.688 148.811 20.688C148.187 20.496 147.715 20.184 147.395 19.752C147.091 19.32 146.939 18.864 146.939 18.384C146.939 17.92 147.091 17.48 147.395 17.064C147.715 16.632 148.203 16.304 148.859 16.08C148.091 15.808 147.475 15.36 147.011 14.736C146.563 14.096 146.339 13.296 146.339 12.336C146.339 10.96 146.715 9.88 147.467 9.096C148.219 8.296 149.347 7.896 150.851 7.896C151.411 7.896 151.915 7.968 152.363 8.112C152.811 8.24 153.211 8.432 153.563 8.688C153.803 8.432 154.123 8.152 154.523 7.848C154.923 7.544 155.395 7.392 155.939 7.392C156.403 7.392 156.747 7.52 156.971 7.776C157.211 8.016 157.331 8.312 157.331 8.664C157.331 8.984 157.227 9.248 157.019 9.456C156.827 9.664 156.507 9.768 156.059 9.768C156.059 9.256 155.971 8.88 155.795 8.64C155.635 8.4 155.371 8.28 155.003 8.28C154.795 8.28 154.603 8.32 154.427 8.4C154.251 8.464 154.027 8.608 153.755 8.832C154.219 9.216 154.571 9.704 154.811 10.296C155.051 10.888 155.171 11.544 155.171 12.264C155.171 13.448 154.811 14.432 154.091 15.216C153.387 16 152.307 16.392 150.851 16.392C150.547 16.392 150.251 16.376 149.963 16.344C149.691 16.296 149.427 16.24 149.171 16.176C148.787 16.336 148.523 16.528 148.379 16.752C148.235 16.976 148.163 17.224 148.163 17.496C148.163 17.912 148.307 18.216 148.595 18.408C148.899 18.6 149.347 18.696 149.939 18.696H152.651C154.075 18.696 155.091 19.032 155.699 19.704C156.307 20.376 156.611 21.232 156.611 22.272C156.611 23.648 156.091 24.736 155.051 25.536C154.027 26.352 152.427 26.76 150.251 26.76ZM150.443 26.52C151.963 26.52 153.083 26.24 153.803 25.68C154.523 25.136 154.883 24.328 154.883 23.256C154.883 22.424 154.659 21.808 154.211 21.408C153.779 21.024 153.107 20.832 152.195 20.832H149.603C149.171 20.832 148.755 20.912 148.355 21.072C147.971 21.232 147.651 21.512 147.395 21.912C147.155 22.312 147.035 22.864 147.035 23.568C147.035 24.224 147.171 24.768 147.443 25.2C147.715 25.648 148.099 25.976 148.595 26.184C149.107 26.408 149.723 26.52 150.443 26.52ZM150.779 16.152C151.307 16.152 151.723 16.016 152.027 15.744C152.347 15.472 152.571 15.048 152.699 14.472C152.843 13.896 152.915 13.16 152.915 12.264C152.915 11.32 152.843 10.544 152.699 9.936C152.555 9.328 152.323 8.88 152.003 8.592C151.699 8.288 151.283 8.136 150.755 8.136C150.243 8.136 149.827 8.296 149.507 8.616C149.187 8.92 148.955 9.376 148.811 9.984C148.667 10.592 148.595 11.36 148.595 12.288C148.595 13.168 148.667 13.896 148.811 14.472C148.971 15.048 149.211 15.472 149.531 15.744C149.851 16.016 150.267 16.152 150.779 16.152ZM169.156 21.24C168.116 21.24 167.236 20.992 166.516 20.496C165.796 20 165.252 19.272 164.884 18.312C164.516 17.336 164.332 16.16 164.332 14.784C164.332 13.392 164.508 12.224 164.86 11.28C165.228 10.32 165.764 9.6 166.468 9.12C167.188 8.624 168.068 8.376 169.108 8.376C170.196 8.376 171.044 8.672 171.652 9.264C172.276 9.84 172.692 10.736 172.9 11.952H172.948C172.932 11.376 172.916 10.8 172.9 10.224C172.9 9.632 172.9 9.104 172.9 8.64C172.9 8.176 172.9 7.848 172.9 7.656V6.312H168.796V6.072H172.9V4.872C172.9 4.424 172.836 4.064 172.708 3.792C172.58 3.52 172.372 3.32 172.084 3.192C171.796 3.064 171.412 3 170.932 3H170.86V2.76H175.156V6.072H177.34V6.312H175.156V18.912C175.156 19.344 175.22 19.696 175.348 19.968C175.476 20.24 175.684 20.44 175.972 20.568C176.276 20.696 176.66 20.76 177.124 20.76H177.316V21H172.924V17.616H172.876C172.668 18.848 172.252 19.76 171.628 20.352C171.02 20.944 170.196 21.24 169.156 21.24ZM169.564 20.88C170.7 20.88 171.54 20.376 172.084 19.368C172.628 18.344 172.9 16.816 172.9 14.784C172.9 13.472 172.78 12.368 172.54 11.472C172.316 10.576 171.964 9.896 171.484 9.432C171.004 8.968 170.372 8.736 169.588 8.736C168.884 8.736 168.316 8.944 167.884 9.36C167.452 9.76 167.14 10.408 166.948 11.304C166.756 12.184 166.66 13.336 166.66 14.76C166.66 16.2 166.756 17.376 166.948 18.288C167.14 19.184 167.452 19.84 167.884 20.256C168.316 20.672 168.876 20.88 169.564 20.88ZM180.706 6.24C181.026 5.936 181.346 5.6 181.666 5.232C181.986 4.864 182.29 4.496 182.578 4.128C182.882 3.744 183.138 3.4 183.346 3.096H185.146C185.354 3.4 185.602 3.744 185.89 4.128C186.194 4.496 186.506 4.864 186.826 5.232C187.162 5.6 187.482 5.936 187.786 6.24V6.456H187.546C187.242 6.296 186.882 6.096 186.466 5.856C186.05 5.616 185.642 5.36 185.242 5.088C184.842 4.816 184.514 4.568 184.258 4.344C184.018 4.568 183.69 4.816 183.274 5.088C182.874 5.36 182.458 5.616 182.026 5.856C181.61 6.096 181.25 6.296 180.946 6.456H180.706V6.24ZM187.066 2.952C187.514 2.952 187.834 2.864 188.026 2.688C188.234 2.512 188.338 2.184 188.338 1.704C188.338 1.304 188.282 1.024 188.17 0.863999C188.058 0.687999 187.842 0.599999 187.522 0.599999C187.154 0.599999 186.906 0.711999 186.778 0.935999C186.65 1.16 186.586 1.448 186.586 1.8C186.378 1.8 186.202 1.744 186.058 1.632C185.93 1.52 185.866 1.384 185.866 1.224C185.866 0.951999 186.018 0.743999 186.322 0.599999C186.626 0.44 187.05 0.36 187.594 0.36C188.202 0.36 188.682 0.48 189.034 0.719999C189.402 0.943999 189.586 1.28 189.586 1.728C189.586 2.064 189.466 2.36 189.226 2.616C189.002 2.872 188.594 3.04 188.002 3.12L187.666 4.032H187.426L187.066 2.952ZM184.762 21.24C182.97 21.24 181.57 20.664 180.562 19.512C179.57 18.36 179.074 16.744 179.074 14.664C179.074 12.424 179.538 10.736 180.466 9.6C181.394 8.464 182.706 7.896 184.402 7.896C185.954 7.896 187.17 8.376 188.05 9.336C188.946 10.296 189.394 11.728 189.394 13.632V14.208H181.402C181.418 15.84 181.538 17.152 181.762 18.144C181.986 19.136 182.346 19.864 182.842 20.328C183.354 20.776 184.018 21 184.834 21C185.442 21 185.978 20.888 186.442 20.664C186.922 20.44 187.322 20.112 187.642 19.68C187.962 19.232 188.178 18.688 188.29 18.048C188.482 18.08 188.626 18.176 188.722 18.336C188.818 18.496 188.866 18.664 188.866 18.84C188.866 19.16 188.714 19.512 188.41 19.896C188.106 20.264 187.65 20.584 187.042 20.856C186.45 21.112 185.69 21.24 184.762 21.24ZM186.97 13.968C186.97 12.56 186.882 11.432 186.706 10.584C186.53 9.736 186.25 9.12 185.866 8.736C185.482 8.336 184.978 8.136 184.354 8.136C183.698 8.136 183.162 8.336 182.746 8.736C182.33 9.12 182.018 9.736 181.81 10.584C181.602 11.432 181.466 12.56 181.402 13.968H186.97ZM201.748 21.24C200.532 21.24 199.644 20.968 199.084 20.424C198.54 19.864 198.268 18.896 198.268 17.52V8.376H196.444V8.136C197.02 8.136 197.516 8.088 197.932 7.992C198.364 7.88 198.732 7.712 199.036 7.488C199.356 7.264 199.612 6.96 199.804 6.576C200.012 6.192 200.172 5.728 200.284 5.184H200.524V8.136H203.884V8.376H200.524V18.408C200.524 19.24 200.684 19.864 201.004 20.28C201.324 20.696 201.796 20.904 202.42 20.904C202.644 20.904 202.876 20.88 203.116 20.832C203.356 20.784 203.612 20.712 203.884 20.616V20.856C203.676 20.952 203.364 21.04 202.948 21.12C202.532 21.2 202.132 21.24 201.748 21.24ZM204.978 21V20.76H205.29C205.77 20.76 206.154 20.696 206.442 20.568C206.73 20.44 206.938 20.24 207.066 19.968C207.194 19.696 207.258 19.344 207.258 18.912V10.248C207.258 9.8 207.194 9.44 207.066 9.168C206.938 8.896 206.73 8.696 206.442 8.568C206.154 8.44 205.77 8.376 205.29 8.376H205.218V8.136H209.514V18.792C209.514 19.272 209.578 19.656 209.706 19.944C209.834 20.232 210.042 20.44 210.33 20.568C210.634 20.696 211.018 20.76 211.482 20.76H211.794V21H204.978ZM207.546 6.216C207.77 5.864 208.002 5.48 208.242 5.064C208.498 4.648 208.738 4.224 208.962 3.792C209.202 3.36 209.402 2.968 209.562 2.616H211.722V2.856C211.546 3.064 211.298 3.32 210.978 3.624C210.674 3.928 210.33 4.256 209.946 4.608C209.578 4.944 209.202 5.28 208.818 5.616C208.45 5.936 208.106 6.216 207.786 6.456H207.546V6.216ZM218.953 21.24C217.865 21.24 216.905 21.024 216.073 20.592C215.241 20.144 214.593 19.424 214.129 18.432C213.665 17.44 213.433 16.136 213.433 14.52C213.433 12.872 213.665 11.568 214.129 10.608C214.609 9.632 215.249 8.936 216.049 8.52C216.849 8.104 217.753 7.896 218.761 7.896C219.433 7.896 220.089 7.984 220.729 8.16C221.385 8.336 221.921 8.608 222.337 8.976C222.753 9.328 222.961 9.8 222.961 10.392C222.961 10.744 222.873 11.032 222.697 11.256C222.537 11.464 222.297 11.616 221.977 11.712C221.673 11.808 221.289 11.856 220.825 11.856C220.825 11.008 220.761 10.312 220.633 9.768C220.521 9.208 220.313 8.8 220.009 8.544C219.705 8.272 219.273 8.136 218.713 8.136C218.137 8.136 217.625 8.32 217.177 8.688C216.729 9.04 216.377 9.68 216.121 10.608C215.881 11.52 215.761 12.832 215.761 14.544C215.761 16.112 215.881 17.376 216.121 18.336C216.361 19.28 216.745 19.96 217.273 20.376C217.801 20.792 218.481 21 219.313 21C219.841 21 220.313 20.912 220.729 20.736C221.161 20.56 221.529 20.256 221.833 19.824C222.153 19.376 222.401 18.768 222.577 18C222.737 18.032 222.857 18.112 222.937 18.24C223.033 18.368 223.081 18.544 223.081 18.768C223.081 19.152 222.929 19.536 222.625 19.92C222.321 20.288 221.865 20.6 221.257 20.856C220.649 21.112 219.881 21.24 218.953 21.24ZM224.358 21V20.76H224.55C225.046 20.76 225.438 20.696 225.726 20.568C226.014 20.424 226.214 20.192 226.326 19.872C226.454 19.552 226.518 19.112 226.518 18.552V5.16C226.518 4.616 226.454 4.192 226.326 3.888C226.214 3.568 226.022 3.344 225.75 3.216C225.478 3.072 225.094 3 224.598 3H224.478V2.76H228.774V7.608C228.774 7.912 228.774 8.224 228.774 8.544C228.774 8.848 228.774 9.152 228.774 9.456C228.774 9.76 228.766 10.072 228.75 10.392H228.798C229.022 9.64 229.334 9.088 229.734 8.736C230.134 8.384 230.566 8.16 231.03 8.064C231.51 7.952 231.95 7.896 232.35 7.896C233.774 7.896 234.83 8.272 235.518 9.024C236.222 9.76 236.574 10.952 236.574 12.6V18.552C236.574 19.112 236.63 19.552 236.742 19.872C236.854 20.192 237.038 20.424 237.294 20.568C237.566 20.696 237.926 20.76 238.374 20.76H238.494V21H234.318V11.784C234.318 10.744 234.126 9.896 233.742 9.24C233.358 8.584 232.694 8.256 231.75 8.256C230.998 8.256 230.406 8.456 229.974 8.856C229.542 9.256 229.23 9.776 229.038 10.416C228.862 11.04 228.774 11.696 228.774 12.384V18.552C228.774 19.112 228.83 19.552 228.942 19.872C229.07 20.192 229.27 20.424 229.542 20.568C229.83 20.696 230.214 20.76 230.694 20.76H230.814V21H224.358ZM250.311 21.24C249.095 21.24 248.207 20.968 247.647 20.424C247.103 19.864 246.831 18.896 246.831 17.52V8.376H245.007V8.136C245.583 8.136 246.079 8.088 246.495 7.992C246.927 7.88 247.295 7.712 247.599 7.488C247.919 7.264 248.175 6.96 248.367 6.576C248.575 6.192 248.735 5.728 248.847 5.184H249.087V8.136H252.447V8.376H249.087V18.408C249.087 19.24 249.247 19.864 249.567 20.28C249.887 20.696 250.359 20.904 250.983 20.904C251.207 20.904 251.439 20.88 251.679 20.832C251.919 20.784 252.175 20.712 252.447 20.616V20.856C252.239 20.952 251.927 21.04 251.511 21.12C251.095 21.2 250.695 21.24 250.311 21.24ZM259.78 21.24C258.372 21.24 257.316 20.872 256.612 20.136C255.924 19.384 255.58 18.184 255.58 16.536V10.536C255.58 9.992 255.516 9.568 255.388 9.264C255.276 8.944 255.076 8.72 254.788 8.592C254.5 8.448 254.108 8.376 253.612 8.376H253.54V8.136H257.836V16.656C257.836 17.68 257.908 18.504 258.052 19.128C258.196 19.736 258.436 20.184 258.772 20.472C259.124 20.76 259.588 20.904 260.164 20.904C260.884 20.904 261.476 20.72 261.94 20.352C262.42 19.968 262.78 19.416 263.02 18.696C263.26 17.96 263.38 17.08 263.38 16.056V10.536C263.38 9.992 263.316 9.568 263.188 9.264C263.076 8.944 262.876 8.72 262.588 8.592C262.3 8.448 261.908 8.376 261.412 8.376H261.34V8.136H265.636V18.624C265.636 19.168 265.692 19.6 265.804 19.92C265.932 20.224 266.14 20.44 266.428 20.568C266.716 20.696 267.108 20.76 267.604 20.76H267.676V21H263.548V17.712H263.5C263.372 18.528 263.164 19.176 262.876 19.656C262.604 20.12 262.284 20.464 261.916 20.688C261.564 20.912 261.196 21.056 260.812 21.12C260.444 21.2 260.1 21.24 259.78 21.24ZM260.596 25.392C260.292 25.392 260.036 25.288 259.828 25.08C259.636 24.888 259.54 24.544 259.54 24.048C259.54 23.536 259.636 23.184 259.828 22.992C260.036 22.8 260.292 22.704 260.596 22.704C260.884 22.704 261.132 22.8 261.34 22.992C261.548 23.184 261.652 23.536 261.652 24.048C261.652 24.544 261.548 24.888 261.34 25.08C261.132 25.288 260.884 25.392 260.596 25.392ZM279.373 21.24C278.157 21.24 277.269 20.968 276.709 20.424C276.165 19.864 275.893 18.896 275.893 17.52V8.376H274.069V8.136C274.645 8.136 275.141 8.088 275.557 7.992C275.989 7.88 276.357 7.712 276.661 7.488C276.981 7.264 277.237 6.96 277.429 6.576C277.637 6.192 277.797 5.728 277.909 5.184H278.149V8.136H281.509V8.376H278.149V18.408C278.149 19.24 278.309 19.864 278.629 20.28C278.949 20.696 279.421 20.904 280.045 20.904C280.269 20.904 280.501 20.88 280.741 20.832C280.981 20.784 281.237 20.712 281.509 20.616V20.856C281.301 20.952 280.989 21.04 280.573 21.12C280.157 21.2 279.757 21.24 279.373 21.24ZM282.603 21V20.76H282.915C283.395 20.76 283.779 20.696 284.067 20.568C284.355 20.44 284.563 20.24 284.691 19.968C284.819 19.696 284.883 19.344 284.883 18.912V10.248C284.883 9.8 284.819 9.44 284.691 9.168C284.563 8.896 284.355 8.696 284.067 8.568C283.779 8.44 283.395 8.376 282.915 8.376H282.843V8.136H287.139V18.792C287.139 19.272 287.203 19.656 287.331 19.944C287.459 20.232 287.667 20.44 287.955 20.568C288.259 20.696 288.643 20.76 289.107 20.76H289.419V21H282.603ZM285.891 5.832C285.587 5.832 285.331 5.736 285.123 5.544C284.931 5.336 284.835 4.984 284.835 4.488C284.835 3.976 284.931 3.624 285.123 3.432C285.331 3.24 285.587 3.144 285.891 3.144C286.179 3.144 286.427 3.24 286.635 3.432C286.843 3.624 286.947 3.976 286.947 4.488C286.947 4.984 286.843 5.336 286.635 5.544C286.427 5.736 286.179 5.832 285.891 5.832ZM290.41 21V20.76H290.602C291.098 20.76 291.49 20.696 291.778 20.568C292.066 20.424 292.266 20.192 292.378 19.872C292.506 19.552 292.57 19.112 292.57 18.552V10.536C292.57 9.992 292.506 9.568 292.378 9.264C292.266 8.944 292.074 8.72 291.802 8.592C291.53 8.448 291.146 8.376 290.65 8.376H290.53V8.136H294.802V10.392H294.85C295.074 9.64 295.386 9.088 295.786 8.736C296.186 8.384 296.618 8.16 297.082 8.064C297.562 7.952 298.002 7.896 298.402 7.896C299.826 7.896 300.882 8.272 301.57 9.024C302.274 9.76 302.626 10.952 302.626 12.6V18.552C302.626 19.112 302.682 19.552 302.794 19.872C302.906 20.192 303.09 20.424 303.346 20.568C303.618 20.696 303.978 20.76 304.426 20.76H304.546V21H300.37V11.784C300.37 10.744 300.178 9.896 299.794 9.24C299.41 8.584 298.746 8.256 297.802 8.256C297.05 8.256 296.458 8.456 296.026 8.856C295.594 9.256 295.282 9.776 295.09 10.416C294.914 11.04 294.826 11.696 294.826 12.384V18.552C294.826 19.112 294.882 19.552 294.994 19.872C295.122 20.192 295.322 20.424 295.594 20.568C295.882 20.696 296.266 20.76 296.746 20.76H296.866V21H290.41ZM305.639 21V20.76H305.831C306.327 20.76 306.719 20.696 307.007 20.568C307.295 20.424 307.495 20.192 307.607 19.872C307.735 19.552 307.799 19.112 307.799 18.552V5.16C307.799 4.616 307.735 4.192 307.607 3.888C307.495 3.568 307.303 3.344 307.031 3.216C306.759 3.072 306.375 3 305.879 3H305.759V2.76H310.055V7.608C310.055 7.912 310.055 8.224 310.055 8.544C310.055 8.848 310.055 9.152 310.055 9.456C310.055 9.76 310.047 10.072 310.031 10.392H310.079C310.303 9.64 310.615 9.088 311.015 8.736C311.415 8.384 311.847 8.16 312.311 8.064C312.791 7.952 313.231 7.896 313.631 7.896C315.055 7.896 316.111 8.272 316.799 9.024C317.503 9.76 317.855 10.952 317.855 12.6V18.552C317.855 19.112 317.911 19.552 318.023 19.872C318.135 20.192 318.319 20.424 318.575 20.568C318.847 20.696 319.207 20.76 319.655 20.76H319.775V21H315.599V11.784C315.599 10.744 315.407 9.896 315.023 9.24C314.639 8.584 313.975 8.256 313.031 8.256C312.279 8.256 311.687 8.456 311.255 8.856C310.823 9.256 310.511 9.776 310.319 10.416C310.143 11.04 310.055 11.696 310.055 12.384V18.552C310.055 19.112 310.111 19.552 310.223 19.872C310.351 20.192 310.551 20.424 310.823 20.568C311.111 20.696 311.495 20.76 311.975 20.76H312.095V21H305.639ZM326.264 21V20.76H326.456C326.952 20.76 327.344 20.696 327.632 20.568C327.92 20.424 328.12 20.192 328.232 19.872C328.36 19.552 328.424 19.112 328.424 18.552V5.16C328.424 4.616 328.36 4.192 328.232 3.888C328.12 3.568 327.928 3.344 327.656 3.216C327.384 3.072 327 3 326.504 3H326.384V2.76H330.68V7.608C330.68 7.912 330.68 8.224 330.68 8.544C330.68 8.848 330.68 9.152 330.68 9.456C330.68 9.76 330.672 10.072 330.656 10.392H330.704C330.928 9.64 331.24 9.088 331.64 8.736C332.04 8.384 332.472 8.16 332.936 8.064C333.416 7.952 333.856 7.896 334.256 7.896C335.68 7.896 336.736 8.272 337.424 9.024C338.128 9.76 338.48 10.952 338.48 12.6V18.552C338.48 19.112 338.536 19.552 338.648 19.872C338.76 20.192 338.944 20.424 339.2 20.568C339.472 20.696 339.832 20.76 340.28 20.76H340.4V21H336.224V11.784C336.224 10.744 336.032 9.896 335.648 9.24C335.264 8.584 334.6 8.256 333.656 8.256C332.904 8.256 332.312 8.456 331.88 8.856C331.448 9.256 331.136 9.776 330.944 10.416C330.768 11.04 330.68 11.696 330.68 12.384V18.552C330.68 19.112 330.736 19.552 330.848 19.872C330.976 20.192 331.176 20.424 331.448 20.568C331.736 20.696 332.12 20.76 332.6 20.76H332.72V21H326.264ZM347.954 21.24C346.226 21.24 344.866 20.688 343.874 19.584C342.882 18.48 342.386 16.8 342.386 14.544C342.386 12.304 342.858 10.64 343.802 9.552C344.762 8.448 346.17 7.896 348.026 7.896C349.754 7.896 351.114 8.448 352.106 9.552C353.098 10.64 353.594 12.304 353.594 14.544C353.594 16.8 353.114 18.48 352.154 19.584C351.21 20.688 349.81 21.24 347.954 21.24ZM348.002 21C348.786 21 349.418 20.784 349.898 20.352C350.378 19.92 350.722 19.232 350.93 18.288C351.154 17.344 351.266 16.096 351.266 14.544C351.266 13.008 351.154 11.768 350.93 10.824C350.722 9.88 350.378 9.2 349.898 8.784C349.418 8.352 348.778 8.136 347.978 8.136C347.194 8.136 346.562 8.352 346.082 8.784C345.602 9.2 345.25 9.88 345.026 10.824C344.818 11.768 344.714 13.008 344.714 14.544C344.714 16.096 344.818 17.344 345.026 18.288C345.25 19.232 345.602 19.92 346.082 20.352C346.578 20.784 347.218 21 348.002 21ZM360.078 21.24C358.862 21.24 357.894 20.928 357.174 20.304C356.47 19.664 356.118 18.792 356.118 17.688C356.118 16.456 356.566 15.536 357.462 14.928C358.374 14.32 359.75 13.984 361.59 13.92L363.582 13.848V12.048C363.582 11.152 363.534 10.416 363.438 9.84C363.342 9.264 363.134 8.84 362.814 8.568C362.494 8.28 362.006 8.136 361.35 8.136C360.422 8.136 359.822 8.424 359.55 9C359.294 9.576 359.166 10.48 359.166 11.712C358.494 11.712 357.982 11.6 357.63 11.376C357.294 11.152 357.126 10.784 357.126 10.272C357.126 9.696 357.318 9.24 357.702 8.904C358.102 8.552 358.63 8.296 359.286 8.136C359.942 7.976 360.662 7.896 361.446 7.896C362.918 7.896 364.014 8.208 364.734 8.832C365.47 9.456 365.838 10.528 365.838 12.048V19.224C365.838 19.608 365.886 19.912 365.982 20.136C366.078 20.36 366.238 20.52 366.462 20.616C366.686 20.712 366.974 20.76 367.326 20.76H367.398V21H363.774V18.48H363.726C363.566 19.12 363.31 19.648 362.958 20.064C362.606 20.464 362.182 20.76 361.686 20.952C361.206 21.144 360.67 21.24 360.078 21.24ZM360.558 20.904C361.15 20.904 361.67 20.752 362.118 20.448C362.582 20.144 362.942 19.736 363.198 19.224C363.454 18.712 363.582 18.16 363.582 17.568V14.112L362.046 14.184C360.686 14.248 359.742 14.56 359.214 15.12C358.702 15.68 358.446 16.624 358.446 17.952C358.446 18.592 358.518 19.136 358.662 19.584C358.822 20.016 359.062 20.344 359.382 20.568C359.702 20.792 360.094 20.904 360.558 20.904Z" fill="url(#paint1_linear_2045_2506)" fill-opacity="0.75"/>
<defs>
<linearGradient id="paint0_linear_2045_2506" x1="-0.5" y1="12" x2="368.5" y2="12" gradientUnits="userSpaceOnUse">
<stop stop-color="#525861"/>
<stop offset="1" stop-color="#97A1A7"/>
</linearGradient>
<linearGradient id="paint1_linear_2045_2506" x1="97.398" y1="2.50909" x2="108.481" y2="33.1283" gradientUnits="userSpaceOnUse">
<stop offset="0.0940377" stop-color="white" stop-opacity="0"/>
<stop offset="0.292723" stop-color="white"/>
<stop offset="0.724446" stop-color="white" stop-opacity="0.775341"/>
<stop offset="1" stop-color="white" stop-opacity="0"/>
</linearGradient>
</defs>
</svg>
