<svg width="406" height="56" viewBox="0 0 406 56" fill="none" xmlns="http://www.w3.org/2000/svg">
<path d="M2.98281 44C3.18281 39.64 3.30281 35.32 3.34281 31H0.302812L0.662813 28.84H3.34281C3.30281 24.56 3.18281 20.24 2.98281 16H10.5828C19.2628 16 24.6228 21.2 24.6228 30.04C24.6228 38.8 19.1828 44 10.5828 44H2.98281ZM10.5828 41.48C17.3028 41.48 19.9828 36.32 19.9828 30.04C19.9828 23.64 17.4228 18.48 10.5828 18.48H7.86281C7.78281 21.96 7.70281 25.4 7.70281 28.84H13.1428L12.8628 31H7.70281C7.74281 34.52 7.78281 38 7.90281 41.48H10.5828ZM38.6078 52.04C37.0878 52.04 36.1678 51.12 36.1678 49.6C36.1678 48.04 37.0878 47.12 38.6078 47.12C40.1678 47.12 41.0878 48.04 41.0878 49.6C41.0878 51.12 40.1678 52.04 38.6078 52.04ZM39.2478 11.44C41.7278 11.44 42.5278 10.16 42.5278 8.68H45.2078C45.2078 11.64 43.2078 14.04 39.2478 14.04C35.2878 14.04 33.3278 11.64 33.3278 8.68H36.0078C36.0078 10.16 36.8078 11.44 39.2478 11.44ZM43.2078 34.44C41.7678 30.24 40.1678 25.96 38.5678 21.96C37.1678 25.76 35.4878 30.24 34.0478 34.44H43.2078ZM26.4078 44C29.9678 35.44 34.0878 26.32 37.0478 18.28C36.6878 17.48 36.3678 16.72 35.9678 16H41.2478C43.6078 22.92 48.5678 36.72 51.6878 44H46.3678C45.6878 41.8 44.9278 39.4 44.0878 36.92H33.2478C32.4078 39.48 31.6878 41.96 31.2478 44H26.4078ZM57.2381 44C57.6381 35.52 57.7181 26.88 57.3581 18.56C54.5181 18.68 51.7181 19 49.2781 19.56L49.6781 16H69.7981L70.1981 19.56C67.6781 19 64.9981 18.68 62.1581 18.56C61.8781 27 61.9581 35.6 62.2381 44H57.2381ZM104.257 16C103.897 25.36 103.977 34.72 104.257 44H99.3372C99.5372 39.32 99.6572 35.04 99.6572 30.8H87.9772C88.0172 35 88.0972 39.24 88.2572 44H83.2172C83.7372 34.56 83.7372 25.2 83.2172 16H88.2572C88.0972 20.44 88.0172 24.44 87.9772 28.36H99.6572C99.6572 24.4 99.5372 20.36 99.3372 16H104.257ZM118.267 52.04C116.747 52.04 115.827 51.12 115.827 49.6C115.827 48.04 116.747 47.12 118.267 47.12C119.827 47.12 120.747 48.04 120.747 49.6C120.747 51.12 119.827 52.04 118.267 52.04ZM114.347 41.52C118.667 41.52 123.147 41.36 126.627 40.28L126.147 44H109.467C109.907 34.56 109.907 25.2 109.467 16H125.467L125.827 19.52C122.307 18.72 118.467 18.48 114.347 18.48C114.227 20.92 114.187 24.4 114.147 28.04H122.867L122.387 30.48H114.187C114.187 34.68 114.267 38.8 114.347 41.52ZM130.884 44C131.324 35.64 131.364 27.2 131.004 18.68L129.244 16H135.684L149.484 37.4C149.644 30.4 149.524 23.12 149.164 16H152.884C152.564 25.24 152.524 34.6 152.884 44H148.604C144.204 36.84 139.444 29.32 134.484 22.56C134.364 29.4 134.564 37.08 134.844 44H130.884ZM173.879 44C174.279 35.52 174.359 26.88 173.999 18.56C171.159 18.68 168.359 19 165.919 19.56L166.319 16H186.439L186.839 19.56C184.319 19 181.639 18.68 178.799 18.56C178.519 27 178.599 35.6 178.879 44H173.879ZM190.639 44C191.119 34.6 191.119 25.2 190.639 16H197.079C202.799 16 207.959 17.08 207.959 23.16C207.959 27.4 204.239 29.84 201.519 30.28C206.599 31.44 207.839 42.16 213.159 42.44V43.76C206.359 45.6 204.559 41.08 202.119 36.92C200.119 33.52 199.039 31 195.399 31C195.439 34.64 195.519 40.4 195.639 44H190.639ZM197.359 28.68C200.239 28.68 203.519 27.84 203.519 23.56C203.519 19.28 200.239 18.32 197.359 18.32H195.559C195.439 22.48 195.399 24.52 195.399 28.68H197.359ZM224.735 14.04C224.695 11.56 227.455 10.92 227.455 9.08C227.455 7.8 226.695 7.44 225.575 7.4C224.695 7.36 223.375 8.28 222.775 9.12L222.295 6.76C223.455 5.96 225.015 5.52 226.495 5.52C228.255 5.52 230.295 6.24 230.295 8.76C230.295 11.76 226.935 11.96 226.775 14.04H224.735ZM229.575 34.44C228.135 30.24 226.535 25.96 224.935 21.96C223.535 25.76 221.855 30.24 220.415 34.44H229.575ZM212.775 44C216.335 35.44 220.455 26.32 223.415 18.28C223.055 17.48 222.735 16.72 222.335 16H227.615C229.975 22.92 234.935 36.72 238.055 44H232.735C232.055 41.8 231.295 39.4 230.455 36.92H219.615C218.775 39.48 218.055 41.96 217.615 44H212.775ZM240.248 44C240.728 34.56 240.728 25.2 240.248 16H245.248C244.888 25.36 244.968 34.72 245.248 44H240.248ZM260.103 44C260.543 35.64 260.583 27.2 260.223 18.68L258.463 16H264.903L278.703 37.4C278.863 30.4 278.743 23.12 278.383 16H282.103C281.783 25.24 281.743 34.6 282.103 44H277.823C273.423 36.84 268.663 29.32 263.703 22.56C263.583 29.4 263.783 37.08 264.063 44H260.103ZM299.959 44.24C290.639 44.24 286.519 37.24 286.519 30C286.519 22.76 291.119 15.76 300.439 15.76C304.559 15.76 308.039 17.16 310.239 19.4L307.519 21.96C306.159 19.6 303.719 17.92 300.439 17.92C293.959 17.92 291.559 24.04 291.559 30C291.559 38.28 295.519 42.08 300.159 42.08C302.239 42.08 304.399 41.28 306.279 39.8V32.6H298.239L298.759 30.16H310.559V40.44C308.119 42.28 304.839 44.24 299.959 44.24ZM336.796 16C336.436 25.36 336.516 34.72 336.796 44H331.876C332.076 39.32 332.196 35.04 332.196 30.8H320.516C320.556 35 320.636 39.24 320.796 44H315.756C316.276 34.56 316.276 25.2 315.756 16H320.796C320.636 20.44 320.556 24.44 320.516 28.36H332.196C332.196 24.4 332.076 20.36 331.876 16H336.796ZM342.006 44C342.486 34.56 342.486 25.2 342.006 16H347.006C346.646 25.36 346.726 34.72 347.006 44H342.006ZM361.002 52.04C359.482 52.04 358.562 51.12 358.562 49.6C358.562 48.04 359.482 47.12 361.002 47.12C362.562 47.12 363.482 48.04 363.482 49.6C363.482 51.12 362.562 52.04 361.002 52.04ZM358.282 8.2H361.922L366.162 14.04H362.962L360.082 10.4L357.202 14.04H354.082L358.282 8.2ZM357.082 41.52C361.402 41.52 365.882 41.36 369.362 40.28L368.882 44H352.202C352.642 34.56 352.642 25.2 352.202 16H368.202L368.562 19.52C365.042 18.72 361.202 18.48 357.082 18.48C356.962 20.92 356.922 24.4 356.882 28.04H365.602L365.122 30.48H356.922C356.922 34.68 357.002 38.8 357.082 41.52ZM372.578 44C373.538 35.08 374.378 24.12 374.938 16H380.498L388.258 37.32L395.658 16H401.178C401.698 24.16 402.778 36.28 403.618 44H398.458C398.258 36.16 397.538 26.32 397.098 21.2H396.778L388.818 44H386.418L377.738 21.2H377.498C376.978 26.84 376.738 37.52 376.578 44H372.578Z" fill="url(#paint0_linear_2045_2408)"/>
<path d="M2.98281 44C3.18281 39.64 3.30281 35.32 3.34281 31H0.302812L0.662813 28.84H3.34281C3.30281 24.56 3.18281 20.24 2.98281 16H10.5828C19.2628 16 24.6228 21.2 24.6228 30.04C24.6228 38.8 19.1828 44 10.5828 44H2.98281ZM10.5828 41.48C17.3028 41.48 19.9828 36.32 19.9828 30.04C19.9828 23.64 17.4228 18.48 10.5828 18.48H7.86281C7.78281 21.96 7.70281 25.4 7.70281 28.84H13.1428L12.8628 31H7.70281C7.74281 34.52 7.78281 38 7.90281 41.48H10.5828ZM38.6078 52.04C37.0878 52.04 36.1678 51.12 36.1678 49.6C36.1678 48.04 37.0878 47.12 38.6078 47.12C40.1678 47.12 41.0878 48.04 41.0878 49.6C41.0878 51.12 40.1678 52.04 38.6078 52.04ZM39.2478 11.44C41.7278 11.44 42.5278 10.16 42.5278 8.68H45.2078C45.2078 11.64 43.2078 14.04 39.2478 14.04C35.2878 14.04 33.3278 11.64 33.3278 8.68H36.0078C36.0078 10.16 36.8078 11.44 39.2478 11.44ZM43.2078 34.44C41.7678 30.24 40.1678 25.96 38.5678 21.96C37.1678 25.76 35.4878 30.24 34.0478 34.44H43.2078ZM26.4078 44C29.9678 35.44 34.0878 26.32 37.0478 18.28C36.6878 17.48 36.3678 16.72 35.9678 16H41.2478C43.6078 22.92 48.5678 36.72 51.6878 44H46.3678C45.6878 41.8 44.9278 39.4 44.0878 36.92H33.2478C32.4078 39.48 31.6878 41.96 31.2478 44H26.4078ZM57.2381 44C57.6381 35.52 57.7181 26.88 57.3581 18.56C54.5181 18.68 51.7181 19 49.2781 19.56L49.6781 16H69.7981L70.1981 19.56C67.6781 19 64.9981 18.68 62.1581 18.56C61.8781 27 61.9581 35.6 62.2381 44H57.2381ZM104.257 16C103.897 25.36 103.977 34.72 104.257 44H99.3372C99.5372 39.32 99.6572 35.04 99.6572 30.8H87.9772C88.0172 35 88.0972 39.24 88.2572 44H83.2172C83.7372 34.56 83.7372 25.2 83.2172 16H88.2572C88.0972 20.44 88.0172 24.44 87.9772 28.36H99.6572C99.6572 24.4 99.5372 20.36 99.3372 16H104.257ZM118.267 52.04C116.747 52.04 115.827 51.12 115.827 49.6C115.827 48.04 116.747 47.12 118.267 47.12C119.827 47.12 120.747 48.04 120.747 49.6C120.747 51.12 119.827 52.04 118.267 52.04ZM114.347 41.52C118.667 41.52 123.147 41.36 126.627 40.28L126.147 44H109.467C109.907 34.56 109.907 25.2 109.467 16H125.467L125.827 19.52C122.307 18.72 118.467 18.48 114.347 18.48C114.227 20.92 114.187 24.4 114.147 28.04H122.867L122.387 30.48H114.187C114.187 34.68 114.267 38.8 114.347 41.52ZM130.884 44C131.324 35.64 131.364 27.2 131.004 18.68L129.244 16H135.684L149.484 37.4C149.644 30.4 149.524 23.12 149.164 16H152.884C152.564 25.24 152.524 34.6 152.884 44H148.604C144.204 36.84 139.444 29.32 134.484 22.56C134.364 29.4 134.564 37.08 134.844 44H130.884ZM173.879 44C174.279 35.52 174.359 26.88 173.999 18.56C171.159 18.68 168.359 19 165.919 19.56L166.319 16H186.439L186.839 19.56C184.319 19 181.639 18.68 178.799 18.56C178.519 27 178.599 35.6 178.879 44H173.879ZM190.639 44C191.119 34.6 191.119 25.2 190.639 16H197.079C202.799 16 207.959 17.08 207.959 23.16C207.959 27.4 204.239 29.84 201.519 30.28C206.599 31.44 207.839 42.16 213.159 42.44V43.76C206.359 45.6 204.559 41.08 202.119 36.92C200.119 33.52 199.039 31 195.399 31C195.439 34.64 195.519 40.4 195.639 44H190.639ZM197.359 28.68C200.239 28.68 203.519 27.84 203.519 23.56C203.519 19.28 200.239 18.32 197.359 18.32H195.559C195.439 22.48 195.399 24.52 195.399 28.68H197.359ZM224.735 14.04C224.695 11.56 227.455 10.92 227.455 9.08C227.455 7.8 226.695 7.44 225.575 7.4C224.695 7.36 223.375 8.28 222.775 9.12L222.295 6.76C223.455 5.96 225.015 5.52 226.495 5.52C228.255 5.52 230.295 6.24 230.295 8.76C230.295 11.76 226.935 11.96 226.775 14.04H224.735ZM229.575 34.44C228.135 30.24 226.535 25.96 224.935 21.96C223.535 25.76 221.855 30.24 220.415 34.44H229.575ZM212.775 44C216.335 35.44 220.455 26.32 223.415 18.28C223.055 17.48 222.735 16.72 222.335 16H227.615C229.975 22.92 234.935 36.72 238.055 44H232.735C232.055 41.8 231.295 39.4 230.455 36.92H219.615C218.775 39.48 218.055 41.96 217.615 44H212.775ZM240.248 44C240.728 34.56 240.728 25.2 240.248 16H245.248C244.888 25.36 244.968 34.72 245.248 44H240.248ZM260.103 44C260.543 35.64 260.583 27.2 260.223 18.68L258.463 16H264.903L278.703 37.4C278.863 30.4 278.743 23.12 278.383 16H282.103C281.783 25.24 281.743 34.6 282.103 44H277.823C273.423 36.84 268.663 29.32 263.703 22.56C263.583 29.4 263.783 37.08 264.063 44H260.103ZM299.959 44.24C290.639 44.24 286.519 37.24 286.519 30C286.519 22.76 291.119 15.76 300.439 15.76C304.559 15.76 308.039 17.16 310.239 19.4L307.519 21.96C306.159 19.6 303.719 17.92 300.439 17.92C293.959 17.92 291.559 24.04 291.559 30C291.559 38.28 295.519 42.08 300.159 42.08C302.239 42.08 304.399 41.28 306.279 39.8V32.6H298.239L298.759 30.16H310.559V40.44C308.119 42.28 304.839 44.24 299.959 44.24ZM336.796 16C336.436 25.36 336.516 34.72 336.796 44H331.876C332.076 39.32 332.196 35.04 332.196 30.8H320.516C320.556 35 320.636 39.24 320.796 44H315.756C316.276 34.56 316.276 25.2 315.756 16H320.796C320.636 20.44 320.556 24.44 320.516 28.36H332.196C332.196 24.4 332.076 20.36 331.876 16H336.796ZM342.006 44C342.486 34.56 342.486 25.2 342.006 16H347.006C346.646 25.36 346.726 34.72 347.006 44H342.006ZM361.002 52.04C359.482 52.04 358.562 51.12 358.562 49.6C358.562 48.04 359.482 47.12 361.002 47.12C362.562 47.12 363.482 48.04 363.482 49.6C363.482 51.12 362.562 52.04 361.002 52.04ZM358.282 8.2H361.922L366.162 14.04H362.962L360.082 10.4L357.202 14.04H354.082L358.282 8.2ZM357.082 41.52C361.402 41.52 365.882 41.36 369.362 40.28L368.882 44H352.202C352.642 34.56 352.642 25.2 352.202 16H368.202L368.562 19.52C365.042 18.72 361.202 18.48 357.082 18.48C356.962 20.92 356.922 24.4 356.882 28.04H365.602L365.122 30.48H356.922C356.922 34.68 357.002 38.8 357.082 41.52ZM372.578 44C373.538 35.08 374.378 24.12 374.938 16H380.498L388.258 37.32L395.658 16H401.178C401.698 24.16 402.778 36.28 403.618 44H398.458C398.258 36.16 397.538 26.32 397.098 21.2H396.778L388.818 44H386.418L377.738 21.2H377.498C376.978 26.84 376.738 37.52 376.578 44H372.578Z" fill="url(#paint1_linear_2045_2408)" fill-opacity="0.75"/>
<defs>
<linearGradient id="paint0_linear_2045_2408" x1="0" y1="28" x2="406" y2="28" gradientUnits="userSpaceOnUse">
<stop stop-color="#525861"/>
<stop offset="1" stop-color="#97A1A7"/>
</linearGradient>
<linearGradient id="paint1_linear_2045_2408" x1="107.714" y1="13.2364" x2="129.561" y2="55.9268" gradientUnits="userSpaceOnUse">
<stop offset="0.0940377" stop-color="white" stop-opacity="0"/>
<stop offset="0.292723" stop-color="white"/>
<stop offset="0.724446" stop-color="white" stop-opacity="0.775341"/>
<stop offset="1" stop-color="white" stop-opacity="0"/>
</linearGradient>
</defs>
</svg>
