<svg width="366" height="68" viewBox="0 0 366 68" fill="none" xmlns="http://www.w3.org/2000/svg">
<path d="M6.14 26.236C10.844 26.236 12.72 22.624 12.72 18.228C12.72 13.748 10.928 10.136 6.14 10.136H4.236C4.096 15.54 4.096 20.916 4.264 26.236H6.14ZM0.82 28C1.156 21.392 1.156 14.84 0.82 8.4H6.14C12.216 8.4 15.968 12.04 15.968 18.228C15.968 24.36 12.16 28 6.14 28H0.82ZM24.3855 2.94H26.9335L29.9015 7.028H27.6615L25.6455 4.48L23.6295 7.028H21.4455L24.3855 2.94ZM28.4175 21.308C27.4095 18.368 26.2895 15.372 25.1695 12.572C24.1895 15.232 23.0135 18.368 22.0055 21.308H28.4175ZM16.6575 28C19.1495 22.008 22.0335 15.624 24.1055 9.996C23.8535 9.436 23.6295 8.904 23.3495 8.4H27.0455C28.6975 13.244 32.1695 22.904 34.3535 28H30.6295C30.1535 26.46 29.6215 24.78 29.0335 23.044H21.4455C20.8575 24.836 20.3535 26.572 20.0455 28H16.6575ZM38.2053 28C38.3453 25.116 38.4293 21.7 38.4293 18.732C36.5533 15.26 34.4813 11.48 32.3813 8.4H36.5533C37.5613 10.444 39.1573 13.86 40.4733 16.072C41.7893 13.86 43.1893 10.78 44.3373 8.4H47.2773C45.4853 11.116 43.2453 15.176 41.5093 18.508C41.5093 21.532 41.5653 25.088 41.6493 28H38.2053ZM62.9065 28.168C56.4945 28.168 53.5825 23.828 53.5825 18.2C53.5825 12.852 56.7745 8.232 62.8785 8.232C65.7905 8.232 68.0305 9.212 69.5425 10.78L67.9465 12.824C66.4905 10.78 65.1745 9.744 62.8785 9.744C58.5105 9.744 57.1665 14.028 57.1665 18.2C57.1665 22.344 58.4545 26.628 63.1025 26.628C65.2585 26.628 66.9665 25.536 68.3105 24.052L69.6825 25.62C68.1705 27.16 65.9305 28.168 62.9065 28.168ZM86.3574 8.4C86.1054 14.952 86.1614 21.504 86.3574 28H82.9134C83.0534 24.724 83.1374 21.728 83.1374 18.76H74.9614C74.9894 21.7 75.0454 24.668 75.1574 28H71.6294C71.9934 21.392 71.9934 14.84 71.6294 8.4H75.1574C75.0454 11.508 74.9894 14.308 74.9614 17.052H83.1374C83.1374 14.28 83.0534 11.452 82.9134 8.4H86.3574ZM97.0324 28.084C91.6004 28.084 89.3324 25.536 89.3884 20.384C89.4444 16.184 89.3884 12.516 89.1644 8.4H92.6644C92.4964 12.572 92.4684 16.268 92.4964 20.412C92.5244 23.324 92.6084 26.432 97.0324 26.432C101.428 26.432 101.484 23.324 101.54 20.412C101.568 16.268 101.512 12.572 101.372 8.4H104.844C104.62 12.516 104.564 16.184 104.62 20.384C104.676 25.536 102.408 28.084 97.0324 28.084ZM111.366 28C111.506 25.116 111.59 21.7 111.59 18.732C109.714 15.26 107.642 11.48 105.542 8.4H109.714C110.722 10.444 112.318 13.86 113.634 16.072C114.95 13.86 116.35 10.78 117.498 8.4H120.438C118.646 11.116 116.406 15.176 114.67 18.508C114.67 21.532 114.726 25.088 114.81 28H111.366ZM127.654 0.279998H130.818L133.506 4.368H131.182L127.654 0.279998ZM125.666 2.94H128.214L131.182 7.028H128.942L126.926 4.48L124.91 7.028H122.726L125.666 2.94ZM124.826 26.264C127.85 26.264 130.986 26.152 133.422 25.396L133.086 28H121.41C121.718 21.392 121.718 14.84 121.41 8.4H132.61L132.862 10.864C130.398 10.304 127.71 10.136 124.826 10.136C124.742 11.844 124.714 14.28 124.686 16.828H130.79L130.454 18.536H124.714C124.714 21.476 124.77 24.36 124.826 26.264ZM135.842 28C136.15 22.148 136.178 16.24 135.926 10.276L134.694 8.4H139.202L148.862 23.38C148.974 18.48 148.89 13.384 148.638 8.4H151.242C151.018 14.868 150.99 21.42 151.242 28H148.246C145.166 22.988 141.834 17.724 138.362 12.992C138.278 17.78 138.418 23.156 138.614 28H135.842Z" fill="url(#paint0_linear_2045_2243)"/>
<path d="M6.14 26.236C10.844 26.236 12.72 22.624 12.72 18.228C12.72 13.748 10.928 10.136 6.14 10.136H4.236C4.096 15.54 4.096 20.916 4.264 26.236H6.14ZM0.82 28C1.156 21.392 1.156 14.84 0.82 8.4H6.14C12.216 8.4 15.968 12.04 15.968 18.228C15.968 24.36 12.16 28 6.14 28H0.82ZM24.3855 2.94H26.9335L29.9015 7.028H27.6615L25.6455 4.48L23.6295 7.028H21.4455L24.3855 2.94ZM28.4175 21.308C27.4095 18.368 26.2895 15.372 25.1695 12.572C24.1895 15.232 23.0135 18.368 22.0055 21.308H28.4175ZM16.6575 28C19.1495 22.008 22.0335 15.624 24.1055 9.996C23.8535 9.436 23.6295 8.904 23.3495 8.4H27.0455C28.6975 13.244 32.1695 22.904 34.3535 28H30.6295C30.1535 26.46 29.6215 24.78 29.0335 23.044H21.4455C20.8575 24.836 20.3535 26.572 20.0455 28H16.6575ZM38.2053 28C38.3453 25.116 38.4293 21.7 38.4293 18.732C36.5533 15.26 34.4813 11.48 32.3813 8.4H36.5533C37.5613 10.444 39.1573 13.86 40.4733 16.072C41.7893 13.86 43.1893 10.78 44.3373 8.4H47.2773C45.4853 11.116 43.2453 15.176 41.5093 18.508C41.5093 21.532 41.5653 25.088 41.6493 28H38.2053ZM62.9065 28.168C56.4945 28.168 53.5825 23.828 53.5825 18.2C53.5825 12.852 56.7745 8.232 62.8785 8.232C65.7905 8.232 68.0305 9.212 69.5425 10.78L67.9465 12.824C66.4905 10.78 65.1745 9.744 62.8785 9.744C58.5105 9.744 57.1665 14.028 57.1665 18.2C57.1665 22.344 58.4545 26.628 63.1025 26.628C65.2585 26.628 66.9665 25.536 68.3105 24.052L69.6825 25.62C68.1705 27.16 65.9305 28.168 62.9065 28.168ZM86.3574 8.4C86.1054 14.952 86.1614 21.504 86.3574 28H82.9134C83.0534 24.724 83.1374 21.728 83.1374 18.76H74.9614C74.9894 21.7 75.0454 24.668 75.1574 28H71.6294C71.9934 21.392 71.9934 14.84 71.6294 8.4H75.1574C75.0454 11.508 74.9894 14.308 74.9614 17.052H83.1374C83.1374 14.28 83.0534 11.452 82.9134 8.4H86.3574ZM97.0324 28.084C91.6004 28.084 89.3324 25.536 89.3884 20.384C89.4444 16.184 89.3884 12.516 89.1644 8.4H92.6644C92.4964 12.572 92.4684 16.268 92.4964 20.412C92.5244 23.324 92.6084 26.432 97.0324 26.432C101.428 26.432 101.484 23.324 101.54 20.412C101.568 16.268 101.512 12.572 101.372 8.4H104.844C104.62 12.516 104.564 16.184 104.62 20.384C104.676 25.536 102.408 28.084 97.0324 28.084ZM111.366 28C111.506 25.116 111.59 21.7 111.59 18.732C109.714 15.26 107.642 11.48 105.542 8.4H109.714C110.722 10.444 112.318 13.86 113.634 16.072C114.95 13.86 116.35 10.78 117.498 8.4H120.438C118.646 11.116 116.406 15.176 114.67 18.508C114.67 21.532 114.726 25.088 114.81 28H111.366ZM127.654 0.279998H130.818L133.506 4.368H131.182L127.654 0.279998ZM125.666 2.94H128.214L131.182 7.028H128.942L126.926 4.48L124.91 7.028H122.726L125.666 2.94ZM124.826 26.264C127.85 26.264 130.986 26.152 133.422 25.396L133.086 28H121.41C121.718 21.392 121.718 14.84 121.41 8.4H132.61L132.862 10.864C130.398 10.304 127.71 10.136 124.826 10.136C124.742 11.844 124.714 14.28 124.686 16.828H130.79L130.454 18.536H124.714C124.714 21.476 124.77 24.36 124.826 26.264ZM135.842 28C136.15 22.148 136.178 16.24 135.926 10.276L134.694 8.4H139.202L148.862 23.38C148.974 18.48 148.89 13.384 148.638 8.4H151.242C151.018 14.868 150.99 21.42 151.242 28H148.246C145.166 22.988 141.834 17.724 138.362 12.992C138.278 17.78 138.418 23.156 138.614 28H135.842Z" fill="url(#paint1_linear_2045_2243)" fill-opacity="0.75"/>
<path d="M9.584 62.168C3.172 62.168 0.26 57.828 0.26 52.2C0.26 46.852 3.452 42.232 9.556 42.232C12.468 42.232 14.708 43.212 16.22 44.78L14.624 46.824C13.168 44.78 11.852 43.744 9.556 43.744C5.188 43.744 3.844 48.028 3.844 52.2C3.844 56.344 5.132 60.628 9.78 60.628C11.936 60.628 13.644 59.536 14.988 58.052L16.36 59.62C14.848 61.16 12.608 62.168 9.584 62.168ZM33.0349 42.4C32.7829 48.952 32.8389 55.504 33.0349 62H29.5909C29.7309 58.724 29.8149 55.728 29.8149 52.76H21.6389C21.6669 55.7 21.7229 58.668 21.8349 62H18.3069C18.6709 55.392 18.6709 48.84 18.3069 42.4H21.8349C21.7229 45.508 21.6669 48.308 21.6389 51.052H29.8149C29.8149 48.28 29.7309 45.452 29.5909 42.4H33.0349ZM43.7099 62.084C38.2779 62.084 36.0099 59.536 36.0659 54.384C36.1219 50.184 36.0659 46.516 35.8419 42.4H39.3419C39.1739 46.572 39.1459 50.268 39.1739 54.412C39.2019 57.324 39.2859 60.432 43.7099 60.432C48.1059 60.432 48.1619 57.324 48.2179 54.412C48.2459 50.268 48.1899 46.572 48.0499 42.4H51.5219C51.2979 46.516 51.2419 50.184 51.2979 54.384C51.3539 59.536 49.0859 62.084 43.7099 62.084ZM58.0437 62C58.1837 59.116 58.2677 55.7 58.2677 52.732C56.3917 49.26 54.3197 45.48 52.2197 42.4H56.3917C57.3997 44.444 58.9957 47.86 60.3117 50.072C61.6277 47.86 63.0277 44.78 64.1757 42.4H67.1157C65.3237 45.116 63.0837 49.176 61.3477 52.508C61.3477 55.532 61.4037 59.088 61.4877 62H58.0437ZM77.1878 38.368C77.1598 36.632 79.0918 36.184 79.0918 34.896C79.0918 34 78.5598 33.748 77.7758 33.72C77.1598 33.692 76.2358 34.336 75.8158 34.924L75.4798 33.272C76.2918 32.712 77.3838 32.404 78.4198 32.404C79.6518 32.404 81.0798 32.908 81.0798 34.672C81.0798 36.772 78.7278 36.912 78.6158 38.368H77.1878ZM72.3438 36.94H74.8918L77.8598 41.028H75.6198L73.6038 38.48L71.5878 41.028H69.4038L72.3438 36.94ZM71.5038 60.264C74.5278 60.264 77.6638 60.152 80.0998 59.396L79.7638 62H68.0878C68.3958 55.392 68.3958 48.84 68.0878 42.4H79.2878L79.5398 44.864C77.0758 44.304 74.3878 44.136 71.5038 44.136C71.4198 45.844 71.3918 48.28 71.3638 50.828H77.4678L77.1318 52.536H71.3918C71.3918 55.476 71.4478 58.36 71.5038 60.264ZM82.5194 62C82.8274 56.148 82.8554 50.24 82.6034 44.276L81.3714 42.4H85.8794L95.5394 57.38C95.6514 52.48 95.5674 47.384 95.3154 42.4H97.9194C97.6954 48.868 97.6674 55.42 97.9194 62H94.9234C91.8434 56.988 88.5114 51.724 85.0394 46.992C84.9554 51.78 85.0954 57.156 85.2914 62H82.5194ZM106.904 62C107.044 58.948 107.128 55.924 107.156 52.9H105.028L105.28 51.388H107.156C107.128 48.392 107.044 45.368 106.904 42.4H112.224C118.3 42.4 122.052 46.04 122.052 52.228C122.052 58.36 118.244 62 112.224 62H106.904ZM112.224 60.236C116.928 60.236 118.804 56.624 118.804 52.228C118.804 47.748 117.012 44.136 112.224 44.136H110.32C110.264 46.572 110.208 48.98 110.208 51.388H114.016L113.82 52.9H110.208C110.236 55.364 110.264 57.8 110.348 60.236H112.224ZM133.129 67.908C132.065 67.908 131.421 67.264 131.421 66.2C131.421 65.108 132.065 64.464 133.129 64.464C134.221 64.464 134.865 65.108 134.865 66.2C134.865 67.264 134.221 67.908 133.129 67.908ZM131.869 36.94H134.417L137.385 41.028H135.145L133.129 38.48L131.113 41.028H128.929L131.869 36.94ZM133.157 62.168C126.633 62.168 123.721 57.268 123.721 52.2C123.721 47.132 126.633 42.232 133.157 42.232C139.653 42.232 142.565 47.132 142.565 52.2C142.565 57.268 139.653 62.168 133.157 62.168ZM133.157 60.628C137.833 60.628 139.121 55.98 139.121 52.2C139.121 48.392 137.833 43.744 133.157 43.744C128.621 43.744 127.193 48.112 127.193 52.2C127.193 55.98 128.481 60.628 133.157 60.628ZM145.385 62C145.693 56.148 145.721 50.24 145.469 44.276L144.237 42.4H148.745L158.405 57.38C158.517 52.48 158.433 47.384 158.181 42.4H160.785C160.561 48.868 160.533 55.42 160.785 62H157.789C154.709 56.988 151.377 51.724 147.905 46.992C147.821 51.78 147.961 57.156 148.157 62H145.385ZM172.724 62.168C166.2 62.168 163.316 57.268 163.316 52.2C163.316 47.132 166.536 42.232 173.06 42.232C175.944 42.232 178.38 43.212 179.92 44.78L178.016 46.572C177.064 44.92 175.356 43.744 173.06 43.744C168.524 43.744 166.844 48.028 166.844 52.2C166.844 57.996 169.616 60.656 172.864 60.656C174.32 60.656 175.832 60.096 177.148 59.06V54.02H171.52L171.884 52.312H180.144V59.508C178.436 60.796 176.14 62.168 172.724 62.168ZM193.708 62C193.988 56.064 194.044 50.016 193.792 44.192C191.804 44.276 189.844 44.5 188.136 44.892L188.416 42.4H202.5L202.78 44.892C201.016 44.5 199.14 44.276 197.152 44.192C196.956 50.1 197.012 56.12 197.208 62H193.708ZM219.608 42.4C219.356 48.952 219.412 55.504 219.608 62H216.164C216.304 58.724 216.388 55.728 216.388 52.76H208.212C208.24 55.7 208.296 58.668 208.408 62H204.88C205.244 55.392 205.244 48.84 204.88 42.4H208.408C208.296 45.508 208.24 48.308 208.212 51.052H216.388C216.388 48.28 216.304 45.452 216.164 42.4H219.608ZM232.915 55.308C231.907 52.368 230.787 49.372 229.667 46.572C228.687 49.232 227.511 52.368 226.503 55.308H232.915ZM221.155 62C223.647 56.008 226.531 49.624 228.603 43.996C228.351 43.436 228.127 42.904 227.847 42.4H231.543C233.195 47.244 236.667 56.904 238.851 62H235.127C234.651 60.46 234.119 58.78 233.531 57.044H225.943C225.355 58.836 224.851 60.572 224.543 62H221.155ZM240.134 62C240.442 56.148 240.47 50.24 240.218 44.276L238.986 42.4H243.494L253.154 57.38C253.266 52.48 253.182 47.384 252.93 42.4H255.534C255.31 48.868 255.282 55.42 255.534 62H252.538C249.458 56.988 246.126 51.724 242.654 46.992C242.57 51.78 242.71 57.156 242.906 62H240.134ZM273.354 42.4C273.102 48.952 273.158 55.504 273.354 62H269.91C270.05 58.724 270.134 55.728 270.134 52.76H261.958C261.986 55.7 262.042 58.668 262.154 62H258.626C258.99 55.392 258.99 48.84 258.626 42.4H262.154C262.042 45.508 261.986 48.308 261.958 51.052H270.134C270.134 48.28 270.05 45.452 269.91 42.4H273.354ZM286.926 62C287.206 56.064 287.262 50.016 287.01 44.192C285.022 44.276 283.062 44.5 281.354 44.892L281.634 42.4H295.718L295.998 44.892C294.234 44.5 292.358 44.276 290.37 44.192C290.174 50.1 290.23 56.12 290.426 62H286.926ZM312.826 42.4C312.574 48.952 312.63 55.504 312.826 62H309.382C309.522 58.724 309.606 55.728 309.606 52.76H301.43C301.458 55.7 301.514 58.668 301.626 62H298.098C298.462 55.392 298.462 48.84 298.098 42.4H301.626C301.514 45.508 301.458 48.308 301.43 51.052H309.606C309.606 48.28 309.522 45.452 309.382 42.4H312.826ZM324.789 62.168C318.265 62.168 315.353 57.268 315.353 52.2C315.353 47.132 318.265 42.232 324.789 42.232C331.285 42.232 334.197 47.132 334.197 52.2C334.197 57.268 331.285 62.168 324.789 62.168ZM324.789 60.628C329.465 60.628 330.753 55.98 330.753 52.2C330.753 48.392 329.465 43.744 324.789 43.744C320.253 43.744 318.825 48.112 318.825 52.2C318.825 55.98 320.113 60.628 324.789 60.628ZM345.36 36.94H348.524L344.996 41.028H342.672L345.36 36.94ZM346.928 55.308C345.92 52.368 344.8 49.372 343.68 46.572C342.7 49.232 341.524 52.368 340.516 55.308H346.928ZM335.168 62C337.66 56.008 340.544 49.624 342.616 43.996C342.364 43.436 342.14 42.904 341.86 42.4H345.556C347.208 47.244 350.68 56.904 352.864 62H349.14C348.664 60.46 348.132 58.78 347.544 57.044H339.956C339.368 58.836 338.864 60.572 338.556 62H335.168ZM356.19 62C356.47 56.064 356.526 50.016 356.274 44.192C354.286 44.276 352.326 44.5 350.618 44.892L350.898 42.4H364.982L365.262 44.892C363.498 44.5 361.622 44.276 359.634 44.192C359.438 50.1 359.494 56.12 359.69 62H356.19Z" fill="url(#paint2_linear_2045_2243)"/>
<defs>
<linearGradient id="paint0_linear_2045_2243" x1="-1" y1="34" x2="367" y2="34" gradientUnits="userSpaceOnUse">
<stop stop-color="#525861"/>
<stop offset="1" stop-color="#97A1A7"/>
</linearGradient>
<linearGradient id="paint1_linear_2045_2243" x1="96.6326" y1="16.0727" x2="127.14" y2="60.5717" gradientUnits="userSpaceOnUse">
<stop offset="0.0940377" stop-color="white" stop-opacity="0"/>
<stop offset="0.292723" stop-color="white"/>
<stop offset="0.724446" stop-color="white" stop-opacity="0.775341"/>
<stop offset="1" stop-color="white" stop-opacity="0"/>
</linearGradient>
<linearGradient id="paint2_linear_2045_2243" x1="-1" y1="34" x2="66.4817" y2="34" gradientUnits="userSpaceOnUse">
<stop stop-color="#DDB27C"/>
<stop offset="1" stop-color="#A16D3C"/>
</linearGradient>
</defs>
</svg>
