<svg width="237" height="61" viewBox="0 0 237 61" fill="none" xmlns="http://www.w3.org/2000/svg">
<path d="M1.82 26C2.156 19.616 2.156 12.784 1.82 6.4H6.692C10.108 6.4 13.328 7.268 13.328 11.272C13.328 13.176 11.732 14.716 10.388 15.36C12.432 15.864 14.448 17.32 14.448 20.204C14.448 24.88 10.612 26 6.608 26H1.82ZM6.636 14.632C8.344 14.632 10.416 14.016 10.416 11.272C10.416 8.388 8.344 8.024 6.636 8.024H5.264L5.152 14.632H6.636ZM6.776 24.376C8.82 24.376 11.34 23.592 11.34 20.204C11.34 16.788 8.624 16.256 6.636 16.256H5.124C5.124 19.196 5.18 21.436 5.264 24.376H6.776ZM24.1332 0.939999H26.6812L29.6492 5.028H27.4092L25.3932 2.48L23.3772 5.028H21.1932L24.1332 0.939999ZM25.4212 26.168C18.8972 26.168 15.9852 21.268 15.9852 16.2C15.9852 11.132 18.8972 6.232 25.4212 6.232C31.9172 6.232 34.8292 11.132 34.8292 16.2C34.8292 21.268 31.9172 26.168 25.4212 26.168ZM25.4212 24.628C30.0972 24.628 31.3852 19.98 31.3852 16.2C31.3852 12.392 30.0972 7.744 25.4212 7.744C20.8852 7.744 19.4572 12.112 19.4572 16.2C19.4572 19.98 20.7452 24.628 25.4212 24.628ZM37.6486 26C37.9566 20.148 37.9846 14.24 37.7326 8.276L36.5006 6.4H41.0086L50.6686 21.38C50.7806 16.48 50.6966 11.384 50.4446 6.4H53.0486C52.8246 12.868 52.7966 19.42 53.0486 26H50.0526C46.9726 20.988 43.6406 15.724 40.1686 10.992C40.0846 15.78 40.2246 21.156 40.4206 26H37.6486ZM64.988 26.168C58.464 26.168 55.58 21.268 55.58 16.2C55.58 11.132 58.8 6.232 65.324 6.232C68.208 6.232 70.644 7.212 72.184 8.78L70.28 10.572C69.328 8.92 67.62 7.744 65.324 7.744C60.788 7.744 59.108 12.028 59.108 16.2C59.108 21.996 61.88 24.656 65.128 24.656C66.584 24.656 68.096 24.096 69.412 23.06V18.02H63.784L64.148 16.312H72.408V23.508C70.7 24.796 68.404 26.168 64.988 26.168ZM85.9714 26C86.2514 20.064 86.3074 14.016 86.0554 8.192C84.0674 8.276 82.1074 8.5 80.3994 8.892L80.6794 6.4H94.7634L95.0434 8.892C93.2794 8.5 91.4034 8.276 89.4154 8.192C89.2194 14.1 89.2754 20.12 89.4714 26H85.9714ZM104.575 19.308C103.567 16.368 102.447 13.372 101.327 10.572C100.347 13.232 99.1705 16.368 98.1625 19.308H104.575ZM92.8145 26C95.3065 20.008 98.1905 13.624 100.263 7.996C100.011 7.436 99.7865 6.904 99.5065 6.4H103.203C104.855 11.244 108.327 20.904 110.511 26H106.787C106.311 24.46 105.779 22.78 105.191 21.044H97.6025C97.0145 22.836 96.5105 24.572 96.2025 26H92.8145ZM111.486 26C111.822 19.392 111.822 12.84 111.486 6.4H114.986C114.734 12.952 114.79 19.504 114.986 26H111.486Z" fill="url(#paint0_linear_2045_2255)"/>
<path d="M1.82 26C2.156 19.616 2.156 12.784 1.82 6.4H6.692C10.108 6.4 13.328 7.268 13.328 11.272C13.328 13.176 11.732 14.716 10.388 15.36C12.432 15.864 14.448 17.32 14.448 20.204C14.448 24.88 10.612 26 6.608 26H1.82ZM6.636 14.632C8.344 14.632 10.416 14.016 10.416 11.272C10.416 8.388 8.344 8.024 6.636 8.024H5.264L5.152 14.632H6.636ZM6.776 24.376C8.82 24.376 11.34 23.592 11.34 20.204C11.34 16.788 8.624 16.256 6.636 16.256H5.124C5.124 19.196 5.18 21.436 5.264 24.376H6.776ZM24.1332 0.939999H26.6812L29.6492 5.028H27.4092L25.3932 2.48L23.3772 5.028H21.1932L24.1332 0.939999ZM25.4212 26.168C18.8972 26.168 15.9852 21.268 15.9852 16.2C15.9852 11.132 18.8972 6.232 25.4212 6.232C31.9172 6.232 34.8292 11.132 34.8292 16.2C34.8292 21.268 31.9172 26.168 25.4212 26.168ZM25.4212 24.628C30.0972 24.628 31.3852 19.98 31.3852 16.2C31.3852 12.392 30.0972 7.744 25.4212 7.744C20.8852 7.744 19.4572 12.112 19.4572 16.2C19.4572 19.98 20.7452 24.628 25.4212 24.628ZM37.6486 26C37.9566 20.148 37.9846 14.24 37.7326 8.276L36.5006 6.4H41.0086L50.6686 21.38C50.7806 16.48 50.6966 11.384 50.4446 6.4H53.0486C52.8246 12.868 52.7966 19.42 53.0486 26H50.0526C46.9726 20.988 43.6406 15.724 40.1686 10.992C40.0846 15.78 40.2246 21.156 40.4206 26H37.6486ZM64.988 26.168C58.464 26.168 55.58 21.268 55.58 16.2C55.58 11.132 58.8 6.232 65.324 6.232C68.208 6.232 70.644 7.212 72.184 8.78L70.28 10.572C69.328 8.92 67.62 7.744 65.324 7.744C60.788 7.744 59.108 12.028 59.108 16.2C59.108 21.996 61.88 24.656 65.128 24.656C66.584 24.656 68.096 24.096 69.412 23.06V18.02H63.784L64.148 16.312H72.408V23.508C70.7 24.796 68.404 26.168 64.988 26.168ZM85.9714 26C86.2514 20.064 86.3074 14.016 86.0554 8.192C84.0674 8.276 82.1074 8.5 80.3994 8.892L80.6794 6.4H94.7634L95.0434 8.892C93.2794 8.5 91.4034 8.276 89.4154 8.192C89.2194 14.1 89.2754 20.12 89.4714 26H85.9714ZM104.575 19.308C103.567 16.368 102.447 13.372 101.327 10.572C100.347 13.232 99.1705 16.368 98.1625 19.308H104.575ZM92.8145 26C95.3065 20.008 98.1905 13.624 100.263 7.996C100.011 7.436 99.7865 6.904 99.5065 6.4H103.203C104.855 11.244 108.327 20.904 110.511 26H106.787C106.311 24.46 105.779 22.78 105.191 21.044H97.6025C97.0145 22.836 96.5105 24.572 96.2025 26H92.8145ZM111.486 26C111.822 19.392 111.822 12.84 111.486 6.4H114.986C114.734 12.952 114.79 19.504 114.986 26H111.486Z" fill="url(#paint1_linear_2045_2255)" fill-opacity="0.75"/>
<path d="M6.412 60C6.692 54.064 6.748 48.016 6.496 42.192C4.508 42.276 2.548 42.5 0.84 42.892L1.12 40.4H15.204L15.484 42.892C13.72 42.5 11.844 42.276 9.856 42.192C9.66 48.1 9.716 54.12 9.912 60H6.412ZM17.5842 60C17.9202 53.392 17.9202 46.84 17.5842 40.4H21.0842C20.8322 46.952 20.8882 53.504 21.0842 60H17.5842ZM24.4689 60C24.7769 54.148 24.8049 48.24 24.5529 42.276L23.3209 40.4H27.8289L37.4889 55.38C37.6009 50.48 37.5169 45.384 37.2649 40.4H39.8689C39.6449 46.868 39.6169 53.42 39.8689 60H36.8729C33.7929 54.988 30.4609 49.724 26.9889 44.992C26.9049 49.78 27.0449 55.156 27.2409 60H24.4689ZM57.6883 40.4C57.4363 46.952 57.4923 53.504 57.6883 60H54.2443C54.3843 56.724 54.4683 53.728 54.4683 50.76H46.2923C46.3203 53.7 46.3763 56.668 46.4883 60H42.9603C43.3243 53.392 43.3243 46.84 42.9603 40.4H46.4883C46.3763 43.508 46.3203 46.308 46.2923 49.052H54.4683C54.4683 46.28 54.3843 43.452 54.2443 40.4H57.6883ZM75.5164 60.168C68.9924 60.168 66.1084 55.268 66.1084 50.2C66.1084 45.132 69.3284 40.232 75.8524 40.232C78.7364 40.232 81.1724 41.212 82.7124 42.78L80.8084 44.572C79.8564 42.92 78.1484 41.744 75.8524 41.744C71.3164 41.744 69.6364 46.028 69.6364 50.2C69.6364 55.996 72.4084 58.656 75.6564 58.656C77.1124 58.656 78.6244 58.096 79.9404 57.06V52.02H74.3124L74.6764 50.312H82.9364V57.508C81.2284 58.796 78.9324 60.168 75.5164 60.168ZM86.0147 60C86.3507 53.392 86.3507 46.84 86.0147 40.4H89.5147C89.2627 46.952 89.3187 53.504 89.5147 60H86.0147ZM99.4234 39.028C99.3954 37.292 101.327 36.844 101.327 35.556C101.327 34.66 100.795 34.408 100.011 34.38C99.3954 34.352 98.4714 34.996 98.0514 35.584L97.7154 33.932C98.5274 33.372 99.6194 33.064 100.655 33.064C101.887 33.064 103.315 33.568 103.315 35.332C103.315 37.432 100.963 37.572 100.851 39.028H99.4234ZM102.811 53.308C101.803 50.368 100.683 47.372 99.5634 44.572C98.5834 47.232 97.4074 50.368 96.3994 53.308H102.811ZM91.0514 60C93.5434 54.008 96.4274 47.624 98.4994 41.996C98.2474 41.436 98.0234 40.904 97.7434 40.4H101.439C103.091 45.244 106.563 54.904 108.747 60H105.023C104.547 58.46 104.015 56.78 103.427 55.044H95.8394C95.2514 56.836 94.7474 58.572 94.4394 60H91.0514ZM110.031 60C110.339 54.148 110.367 48.24 110.115 42.276L108.883 40.4H113.391L123.051 55.38C123.163 50.48 123.079 45.384 122.827 40.4H125.431C125.207 46.868 125.179 53.42 125.431 60H122.435C119.355 54.988 116.023 49.724 112.551 44.992C112.467 49.78 112.607 55.156 112.803 60H110.031ZM140.127 60.112C137.999 60.168 135.311 59.748 133.743 58.992L134.527 56.444C135.955 57.592 137.943 58.376 139.903 58.292C142.367 58.236 143.823 57.144 143.823 55.044C143.823 50.312 133.715 51.684 133.715 45.188C133.715 41.632 136.851 40.4 140.127 40.26C142.171 40.176 144.467 40.568 145.923 41.24L145.083 43.592C143.683 42.64 141.919 42.052 140.071 42.108C138.363 42.164 136.739 42.864 136.739 44.852C136.739 48.996 146.763 47.988 146.763 54.428C146.763 58.432 143.571 60.028 140.127 60.112ZM155.328 34.94H157.876L160.844 39.028H158.604L156.588 36.48L154.572 39.028H152.388L155.328 34.94ZM159.36 53.308C158.352 50.368 157.232 47.372 156.112 44.572C155.132 47.232 153.956 50.368 152.948 53.308H159.36ZM147.6 60C150.092 54.008 152.976 47.624 155.048 41.996C154.796 41.436 154.572 40.904 154.292 40.4H157.988C159.64 45.244 163.112 54.904 165.296 60H161.572C161.096 58.46 160.564 56.78 159.976 55.044H152.388C151.8 56.836 151.296 58.572 150.988 60H147.6ZM173.86 60.084C168.428 60.084 166.16 57.536 166.216 52.384C166.272 48.184 166.216 44.516 165.992 40.4H169.492C169.324 44.572 169.296 48.268 169.324 52.412C169.352 55.324 169.436 58.432 173.86 58.432C178.256 58.432 178.312 55.324 178.368 52.412C178.396 48.268 178.34 44.572 178.2 40.4H181.672C181.448 44.516 181.392 48.184 181.448 52.384C181.504 57.536 179.236 60.084 173.86 60.084ZM196.075 60.112C193.947 60.168 191.259 59.748 189.691 58.992L190.475 56.444C191.903 57.592 193.891 58.376 195.851 58.292C198.315 58.236 199.771 57.144 199.771 55.044C199.771 50.312 189.663 51.684 189.663 45.188C189.663 41.632 192.799 40.4 196.075 40.26C198.119 40.176 200.415 40.568 201.871 41.24L201.031 43.592C199.631 42.64 197.867 42.052 196.019 42.108C194.311 42.164 192.687 42.864 192.687 44.852C192.687 48.996 202.711 47.988 202.711 54.428C202.711 58.432 199.519 60.028 196.075 60.112ZM213.824 30.908H216.988L213.46 34.996H211.136L213.824 30.908ZM212.536 37.208C214.272 37.208 214.832 36.312 214.832 35.276H216.708C216.708 37.348 215.308 39.028 212.536 39.028C209.764 39.028 208.392 37.348 208.392 35.276H210.268C210.268 36.312 210.828 37.208 212.536 37.208ZM215.308 53.308C214.3 50.368 213.18 47.372 212.06 44.572C211.08 47.232 209.904 50.368 208.896 53.308H215.308ZM203.548 60C206.04 54.008 208.924 47.624 210.996 41.996C210.744 41.436 210.52 40.904 210.24 40.4H213.936C215.588 45.244 219.06 54.904 221.244 60H217.52C217.044 58.46 216.512 56.78 215.924 55.044H208.336C207.748 56.836 207.244 58.572 206.936 60H203.548ZM230.136 60.168C223.724 60.168 220.812 55.828 220.812 50.2C220.812 44.852 224.004 40.232 230.108 40.232C233.02 40.232 235.26 41.212 236.772 42.78L235.176 44.824C233.72 42.78 232.404 41.744 230.108 41.744C225.74 41.744 224.396 46.028 224.396 50.2C224.396 54.344 225.684 58.628 230.332 58.628C232.488 58.628 234.196 57.536 235.54 56.052L236.912 57.62C235.4 59.16 233.16 60.168 230.136 60.168Z" fill="url(#paint2_linear_2045_2255)"/>
<defs>
<linearGradient id="paint0_linear_2045_2255" x1="0" y1="32" x2="238" y2="32" gradientUnits="userSpaceOnUse">
<stop stop-color="#525861"/>
<stop offset="1" stop-color="#97A1A7"/>
</linearGradient>
<linearGradient id="paint1_linear_2045_2255" x1="63.1429" y1="14.0727" x2="95.7944" y2="44.8746" gradientUnits="userSpaceOnUse">
<stop offset="0.0940377" stop-color="white" stop-opacity="0"/>
<stop offset="0.292723" stop-color="white"/>
<stop offset="0.724446" stop-color="white" stop-opacity="0.775341"/>
<stop offset="1" stop-color="white" stop-opacity="0"/>
</linearGradient>
<linearGradient id="paint2_linear_2045_2255" x1="0" y1="32" x2="43.643" y2="32" gradientUnits="userSpaceOnUse">
<stop stop-color="#DDB27C"/>
<stop offset="1" stop-color="#A16D3C"/>
</linearGradient>
</defs>
</svg>
