<svg width="546" height="152" viewBox="0 0 546 152" fill="none" xmlns="http://www.w3.org/2000/svg">
<path d="M16.704 62C13.312 50.864 5.632 28.72 0.64 17.2H9.088C12.992 28.016 16.704 39.92 20.928 50.928H21.12C25.024 39.792 29.632 26.16 31.68 17.2H39.424C34.496 26.096 26.048 49.84 22.72 62H16.704ZM57.2785 14.064C57.2145 10.096 61.6305 9.072 61.6305 6.128C61.6305 4.08 60.4145 3.504 58.6225 3.44C57.2145 3.376 55.1025 4.848 54.1425 6.192L53.3745 2.416C55.2305 1.136 57.7265 0.431995 60.0945 0.431995C62.9105 0.431995 66.1745 1.584 66.1745 5.616C66.1745 10.416 60.7985 10.736 60.5425 14.064H57.2785ZM52.0305 58.032C58.9425 58.032 66.1105 57.776 71.6785 56.048L70.9105 62H44.2225C44.9265 46.896 44.9265 31.92 44.2225 17.2H69.8225L70.3985 22.832C64.7665 21.552 58.6225 21.168 52.0305 21.168C51.8385 25.072 51.7745 30.64 51.7105 36.464H65.6625L64.8945 40.368H51.7745C51.7745 47.088 51.9025 53.68 52.0305 58.032ZM92.535 62C92.855 55.024 93.047 48.112 93.111 41.2H88.247L88.823 37.744H93.111C93.047 30.896 92.855 23.984 92.535 17.2H104.695C118.583 17.2 127.159 25.52 127.159 39.664C127.159 53.68 118.455 62 104.695 62H92.535ZM104.695 57.968C115.447 57.968 119.735 49.712 119.735 39.664C119.735 29.424 115.639 21.168 104.695 21.168H100.343C100.215 26.736 100.087 32.24 100.087 37.744H108.791L108.343 41.2H100.087C100.151 46.832 100.215 52.4 100.407 57.968H104.695ZM147.615 74.864C145.183 74.864 143.711 73.392 143.711 70.96C143.711 68.464 145.183 66.992 147.615 66.992C150.111 66.992 151.583 68.464 151.583 70.96C151.583 73.392 150.111 74.864 147.615 74.864ZM141.343 58.032C148.255 58.032 155.423 57.776 160.991 56.048L160.223 62H133.535C134.239 46.896 134.239 31.92 133.535 17.2H159.135L159.711 22.832C154.079 21.552 147.935 21.168 141.343 21.168C141.151 25.072 141.087 30.64 141.023 36.464H154.975L154.207 40.368H141.087C141.087 47.088 141.215 53.68 141.343 58.032ZM167.098 62C167.866 46.96 167.866 31.92 167.098 17.2H177.466C186.554 17.2 194.682 20.144 194.682 30.832C194.682 41.52 186.682 44.656 177.786 44.656H174.714C174.778 50.352 174.906 56.24 175.098 62H167.098ZM177.85 40.88C182.458 40.88 187.706 38.64 187.706 30.832C187.706 23.152 182.458 20.912 177.85 20.912H175.034C174.778 27.568 174.714 34.288 174.714 40.88H177.85ZM234.88 62.384C220.224 62.384 213.568 52.464 213.568 39.6C213.568 27.376 220.864 16.816 234.816 16.816C241.472 16.816 246.592 19.056 250.048 22.64L246.4 27.312C243.072 22.64 240.064 20.272 234.816 20.272C224.832 20.272 221.76 30.064 221.76 39.6C221.76 49.072 224.704 58.864 235.328 58.864C240.256 58.864 244.16 56.368 247.232 52.976L250.368 56.56C246.912 60.08 241.792 62.384 234.88 62.384ZM277.52 46.704C275.216 39.984 272.656 33.136 270.096 26.736C267.856 32.816 265.168 39.984 262.864 46.704H277.52ZM250.64 62C256.336 48.304 262.928 33.712 267.664 20.848C267.088 19.568 266.576 18.352 265.936 17.2H274.384C278.16 28.272 286.096 50.352 291.088 62H282.576C281.488 58.48 280.272 54.64 278.928 50.672H261.584C260.24 54.768 259.088 58.736 258.384 62H250.64ZM314.886 62.384C299.974 62.384 293.318 51.184 293.318 39.6C293.318 28.016 299.974 16.816 314.886 16.816C329.734 16.816 336.39 28.016 336.39 39.6C336.39 51.184 329.734 62.384 314.886 62.384ZM314.886 58.864C325.574 58.864 328.518 48.24 328.518 39.6C328.518 30.896 325.574 20.272 314.886 20.272C304.518 20.272 301.254 30.256 301.254 39.6C301.254 48.24 304.198 58.864 314.886 58.864ZM378.384 58.928C389.072 58.928 392.08 48.24 392.08 39.6C392.08 30.896 389.072 20.272 378.384 20.272C368.144 20.272 364.752 30.256 364.752 39.6C364.752 48.24 367.76 58.928 378.384 58.928ZM396.624 72.624C391.376 69.936 386.32 64.432 381.712 62.896C380.304 62.384 379.152 62.384 378.384 62.384C363.536 62.384 356.88 51.184 356.88 39.6C356.88 28.016 363.536 16.816 378.384 16.816C393.296 16.816 399.952 28.016 399.952 39.6C399.952 49.008 395.536 58.16 385.872 61.232C391.952 63.088 397.072 66.736 402.576 68.784L396.624 72.624ZM424.067 62.192C411.651 62.192 406.467 56.368 406.595 44.592C406.723 34.992 406.595 26.608 406.083 17.2H414.083C413.699 26.736 413.635 35.184 413.699 44.656C413.763 51.312 413.955 58.416 424.067 58.416C434.115 58.416 434.243 51.312 434.371 44.656C434.435 35.184 434.307 26.736 433.987 17.2H441.923C441.411 26.608 441.283 34.992 441.411 44.592C441.539 56.368 436.354 62.192 424.067 62.192ZM465.214 4.72H472.446L464.382 14.064H459.07L465.214 4.72ZM458.11 62C458.43 55.408 458.622 47.6 458.622 40.816C454.334 32.88 449.598 24.24 444.797 17.2H454.334C456.638 21.872 460.286 29.68 463.294 34.736C466.302 29.68 469.502 22.64 472.126 17.2H478.846C474.75 23.408 469.63 32.688 465.662 40.304C465.662 47.216 465.79 55.344 465.982 62H458.11ZM495.434 38.512H511.562L511.114 42.608H494.858L495.434 38.512Z" fill="url(#paint0_linear_2045_2232)"/>
<path d="M16.704 62C13.312 50.864 5.632 28.72 0.64 17.2H9.088C12.992 28.016 16.704 39.92 20.928 50.928H21.12C25.024 39.792 29.632 26.16 31.68 17.2H39.424C34.496 26.096 26.048 49.84 22.72 62H16.704ZM57.2785 14.064C57.2145 10.096 61.6305 9.072 61.6305 6.128C61.6305 4.08 60.4145 3.504 58.6225 3.44C57.2145 3.376 55.1025 4.848 54.1425 6.192L53.3745 2.416C55.2305 1.136 57.7265 0.431995 60.0945 0.431995C62.9105 0.431995 66.1745 1.584 66.1745 5.616C66.1745 10.416 60.7985 10.736 60.5425 14.064H57.2785ZM52.0305 58.032C58.9425 58.032 66.1105 57.776 71.6785 56.048L70.9105 62H44.2225C44.9265 46.896 44.9265 31.92 44.2225 17.2H69.8225L70.3985 22.832C64.7665 21.552 58.6225 21.168 52.0305 21.168C51.8385 25.072 51.7745 30.64 51.7105 36.464H65.6625L64.8945 40.368H51.7745C51.7745 47.088 51.9025 53.68 52.0305 58.032ZM92.535 62C92.855 55.024 93.047 48.112 93.111 41.2H88.247L88.823 37.744H93.111C93.047 30.896 92.855 23.984 92.535 17.2H104.695C118.583 17.2 127.159 25.52 127.159 39.664C127.159 53.68 118.455 62 104.695 62H92.535ZM104.695 57.968C115.447 57.968 119.735 49.712 119.735 39.664C119.735 29.424 115.639 21.168 104.695 21.168H100.343C100.215 26.736 100.087 32.24 100.087 37.744H108.791L108.343 41.2H100.087C100.151 46.832 100.215 52.4 100.407 57.968H104.695ZM147.615 74.864C145.183 74.864 143.711 73.392 143.711 70.96C143.711 68.464 145.183 66.992 147.615 66.992C150.111 66.992 151.583 68.464 151.583 70.96C151.583 73.392 150.111 74.864 147.615 74.864ZM141.343 58.032C148.255 58.032 155.423 57.776 160.991 56.048L160.223 62H133.535C134.239 46.896 134.239 31.92 133.535 17.2H159.135L159.711 22.832C154.079 21.552 147.935 21.168 141.343 21.168C141.151 25.072 141.087 30.64 141.023 36.464H154.975L154.207 40.368H141.087C141.087 47.088 141.215 53.68 141.343 58.032ZM167.098 62C167.866 46.96 167.866 31.92 167.098 17.2H177.466C186.554 17.2 194.682 20.144 194.682 30.832C194.682 41.52 186.682 44.656 177.786 44.656H174.714C174.778 50.352 174.906 56.24 175.098 62H167.098ZM177.85 40.88C182.458 40.88 187.706 38.64 187.706 30.832C187.706 23.152 182.458 20.912 177.85 20.912H175.034C174.778 27.568 174.714 34.288 174.714 40.88H177.85ZM234.88 62.384C220.224 62.384 213.568 52.464 213.568 39.6C213.568 27.376 220.864 16.816 234.816 16.816C241.472 16.816 246.592 19.056 250.048 22.64L246.4 27.312C243.072 22.64 240.064 20.272 234.816 20.272C224.832 20.272 221.76 30.064 221.76 39.6C221.76 49.072 224.704 58.864 235.328 58.864C240.256 58.864 244.16 56.368 247.232 52.976L250.368 56.56C246.912 60.08 241.792 62.384 234.88 62.384ZM277.52 46.704C275.216 39.984 272.656 33.136 270.096 26.736C267.856 32.816 265.168 39.984 262.864 46.704H277.52ZM250.64 62C256.336 48.304 262.928 33.712 267.664 20.848C267.088 19.568 266.576 18.352 265.936 17.2H274.384C278.16 28.272 286.096 50.352 291.088 62H282.576C281.488 58.48 280.272 54.64 278.928 50.672H261.584C260.24 54.768 259.088 58.736 258.384 62H250.64ZM314.886 62.384C299.974 62.384 293.318 51.184 293.318 39.6C293.318 28.016 299.974 16.816 314.886 16.816C329.734 16.816 336.39 28.016 336.39 39.6C336.39 51.184 329.734 62.384 314.886 62.384ZM314.886 58.864C325.574 58.864 328.518 48.24 328.518 39.6C328.518 30.896 325.574 20.272 314.886 20.272C304.518 20.272 301.254 30.256 301.254 39.6C301.254 48.24 304.198 58.864 314.886 58.864ZM378.384 58.928C389.072 58.928 392.08 48.24 392.08 39.6C392.08 30.896 389.072 20.272 378.384 20.272C368.144 20.272 364.752 30.256 364.752 39.6C364.752 48.24 367.76 58.928 378.384 58.928ZM396.624 72.624C391.376 69.936 386.32 64.432 381.712 62.896C380.304 62.384 379.152 62.384 378.384 62.384C363.536 62.384 356.88 51.184 356.88 39.6C356.88 28.016 363.536 16.816 378.384 16.816C393.296 16.816 399.952 28.016 399.952 39.6C399.952 49.008 395.536 58.16 385.872 61.232C391.952 63.088 397.072 66.736 402.576 68.784L396.624 72.624ZM424.067 62.192C411.651 62.192 406.467 56.368 406.595 44.592C406.723 34.992 406.595 26.608 406.083 17.2H414.083C413.699 26.736 413.635 35.184 413.699 44.656C413.763 51.312 413.955 58.416 424.067 58.416C434.115 58.416 434.243 51.312 434.371 44.656C434.435 35.184 434.307 26.736 433.987 17.2H441.923C441.411 26.608 441.283 34.992 441.411 44.592C441.539 56.368 436.354 62.192 424.067 62.192ZM465.214 4.72H472.446L464.382 14.064H459.07L465.214 4.72ZM458.11 62C458.43 55.408 458.622 47.6 458.622 40.816C454.334 32.88 449.598 24.24 444.797 17.2H454.334C456.638 21.872 460.286 29.68 463.294 34.736C466.302 29.68 469.502 22.64 472.126 17.2H478.846C474.75 23.408 469.63 32.688 465.662 40.304C465.662 47.216 465.79 55.344 465.982 62H458.11ZM495.434 38.512H511.562L511.114 42.608H494.858L495.434 38.512Z" fill="url(#paint1_linear_2045_2232)" fill-opacity="0.75"/>
<path d="M4.16 139C4.928 124.088 4.992 109.048 4.16 94.2H12.16C11.84 100.984 11.648 107.768 11.584 114.616C17.28 108.6 24.96 98.552 27.968 94.2H37.12C34.304 96.568 19.456 112.504 17.728 114.616C31.936 116.984 31.104 135.352 40.384 136.504V138.68C22.72 142.648 25.728 118.904 11.584 116.664C11.584 124.152 11.776 131.576 12.16 139H4.16ZM76.949 94.2C76.373 109.176 76.501 124.152 76.949 139H69.077C69.397 131.512 69.589 124.664 69.589 117.88H50.901C50.965 124.6 51.093 131.384 51.349 139H43.285C44.117 123.896 44.117 108.92 43.285 94.2H51.349C51.093 101.304 50.965 107.704 50.901 113.976H69.589C69.589 107.64 69.397 101.176 69.077 94.2H76.949ZM91.941 81.72H99.173L91.109 91.064H85.797L91.941 81.72ZM85.285 139C86.053 123.896 86.053 108.92 85.285 94.2H93.285C92.709 109.176 92.837 124.152 93.285 139H85.285ZM136.38 139.384C121.724 139.384 115.068 129.464 115.068 116.6C115.068 104.376 122.364 93.816 136.316 93.816C142.972 93.816 148.092 96.056 151.548 99.64L147.9 104.312C144.572 99.64 141.564 97.272 136.316 97.272C126.332 97.272 123.26 107.064 123.26 116.6C123.26 126.072 126.204 135.864 136.828 135.864C141.756 135.864 145.66 133.368 148.732 129.976L151.868 133.56C148.412 137.08 143.292 139.384 136.38 139.384ZM191.262 94.2C190.686 109.176 190.814 124.152 191.262 139H183.39C183.71 131.512 183.902 124.664 183.902 117.88H165.214C165.278 124.6 165.406 131.384 165.662 139H157.598C158.43 123.896 158.43 108.92 157.598 94.2H165.662C165.406 101.304 165.278 107.704 165.214 113.976H183.902C183.902 107.64 183.71 101.176 183.39 94.2H191.262ZM230.701 75.64H237.934L229.87 84.984H224.558L230.701 75.64ZM213.742 81.72H219.566L226.35 91.064H221.23L216.622 85.24L212.014 91.064H207.022L213.742 81.72ZM222.958 123.704C220.654 116.984 218.094 110.136 215.534 103.736C213.294 109.816 210.606 116.984 208.302 123.704H222.958ZM196.078 139C201.774 125.304 208.366 110.712 213.102 97.848C212.526 96.568 212.014 95.352 211.374 94.2H219.822C223.598 105.272 231.534 127.352 236.526 139H228.014C226.926 135.48 225.71 131.64 224.366 127.672H207.022C205.678 131.768 204.526 135.736 203.822 139H196.078ZM245.406 139C246.046 125.432 246.174 111.608 245.598 98.296C241.054 98.488 236.574 99 232.67 99.896L233.31 94.2H265.502L266.142 99.896C262.11 99 257.822 98.488 253.278 98.296C252.83 111.8 252.958 125.56 253.406 139H245.406ZM320.637 94.2C320.061 109.176 320.189 124.152 320.637 139H312.765C313.085 131.512 313.277 124.664 313.277 117.88H294.589C294.653 124.6 294.781 131.384 295.037 139H286.973C287.805 123.896 287.805 108.92 286.973 94.2H295.037C294.781 101.304 294.653 107.704 294.589 113.976H313.277C313.277 107.64 313.085 101.176 312.765 94.2H320.637ZM328.973 139C329.741 123.896 329.741 108.92 328.973 94.2H336.973C336.397 109.176 336.525 124.152 336.973 139H328.973ZM366.085 84.984C366.021 81.016 370.437 79.992 370.437 77.048C370.437 75 369.221 74.424 367.429 74.36C366.021 74.296 363.909 75.768 362.949 77.112L362.181 73.336C364.037 72.056 366.533 71.352 368.901 71.352C371.717 71.352 374.981 72.504 374.981 76.536C374.981 81.336 369.605 81.656 369.349 84.984H366.085ZM355.013 81.72H360.837L367.621 91.064H362.501L357.893 85.24L353.285 91.064H348.293L355.013 81.72ZM353.093 135.032C360.005 135.032 367.173 134.776 372.741 133.048L371.973 139H345.285C345.989 123.896 345.989 108.92 345.285 94.2H370.885L371.461 99.832C365.829 98.552 359.685 98.168 353.093 98.168C352.901 102.072 352.837 107.64 352.773 113.464H366.725L365.957 117.368H352.837C352.837 124.088 352.965 130.68 353.093 135.032ZM379.552 139C380.256 125.624 380.32 112.12 379.744 98.488L376.928 94.2H387.232L409.312 128.44C409.568 117.24 409.376 105.592 408.8 94.2H414.752C414.24 108.984 414.176 123.96 414.752 139H407.904C400.864 127.544 393.248 115.512 385.312 104.696C385.12 115.64 385.44 127.928 385.888 139H379.552ZM437.848 139C438.168 132.024 438.36 125.112 438.424 118.2H433.559L434.136 114.744H438.424C438.36 107.896 438.168 100.984 437.848 94.2H450.008C463.896 94.2 472.472 102.52 472.472 116.664C472.472 130.68 463.768 139 450.008 139H437.848ZM450.008 134.968C460.76 134.968 465.048 126.712 465.048 116.664C465.048 106.424 460.952 98.168 450.008 98.168H445.656C445.528 103.736 445.4 109.24 445.4 114.744H454.104L453.656 118.2H445.4C445.464 123.832 445.528 129.4 445.72 134.968H450.008ZM494.848 151.864C492.416 151.864 490.944 150.392 490.944 147.96C490.944 145.464 492.416 143.992 494.848 143.992C497.344 143.992 498.816 145.464 498.816 147.96C498.816 150.392 497.344 151.864 494.848 151.864ZM502.208 123.704C499.904 116.984 497.344 110.136 494.784 103.736C492.544 109.816 489.856 116.984 487.552 123.704H502.208ZM475.328 139C481.024 125.304 487.616 110.712 492.352 97.848C491.776 96.568 491.264 95.352 490.624 94.2H499.072C502.848 105.272 510.784 127.352 515.776 139H507.264C506.176 135.48 504.96 131.64 503.616 127.672H486.272C484.928 131.768 483.776 135.736 483.072 139H475.328ZM524.656 139C525.296 125.432 525.424 111.608 524.848 98.296C520.304 98.488 515.824 99 511.92 99.896L512.56 94.2H544.752L545.392 99.896C541.36 99 537.072 98.488 532.528 98.296C532.08 111.8 532.208 125.56 532.656 139H524.656Z" fill="url(#paint2_linear_2045_2232)"/>
<defs>
<linearGradient id="paint0_linear_2045_2232" x1="0" y1="75" x2="609" y2="75" gradientUnits="userSpaceOnUse">
<stop stop-color="#C9CFD7"/>
<stop offset="1" stop-color="#97A1A7"/>
</linearGradient>
<linearGradient id="paint1_linear_2045_2232" x1="161.571" y1="34.4" x2="235.493" y2="113.19" gradientUnits="userSpaceOnUse">
<stop offset="0.0940377" stop-color="white" stop-opacity="0"/>
<stop offset="0.292723" stop-color="white"/>
<stop offset="0.724446" stop-color="white" stop-opacity="0.775341"/>
<stop offset="1" stop-color="white" stop-opacity="0"/>
</linearGradient>
<linearGradient id="paint2_linear_2045_2232" x1="0" y1="75" x2="609" y2="75" gradientUnits="userSpaceOnUse">
<stop stop-color="#F8E7BF"/>
<stop offset="1" stop-color="#B8823C"/>
</linearGradient>
</defs>
</svg>
