<svg width="252" height="71" viewBox="0 0 252 71" fill="none" xmlns="http://www.w3.org/2000/svg">
<path d="M2.128 31C2.436 25.148 2.464 19.24 2.212 13.276L0.98 11.4H5.488L15.148 26.38C15.26 21.48 15.176 16.384 14.924 11.4H17.528C17.304 17.868 17.276 24.42 17.528 31H14.532C11.452 25.988 8.12 20.724 4.648 15.992C4.564 20.78 4.704 26.156 4.9 31H2.128ZM35.3474 11.4C35.0954 17.952 35.1514 24.504 35.3474 31H31.9034C32.0434 27.724 32.1274 24.728 32.1274 21.76H23.9514C23.9794 24.7 24.0354 27.668 24.1474 31H20.6194C20.9834 24.392 20.9834 17.84 20.6194 11.4H24.1474C24.0354 14.508 23.9794 17.308 23.9514 20.052H32.1274C32.1274 17.28 32.0434 14.452 31.9034 11.4H35.3474ZM41.7664 3.98C42.6904 1.6 44.4824 0.955998 46.3304 1.88C47.6464 2.552 48.7944 2.86 49.6344 1.264L50.6144 1.936C49.4104 4.792 47.8704 4.96 46.0504 4.148C44.4264 3.392 43.5024 3.196 42.6064 4.624L41.7664 3.98ZM44.6224 5.94H47.1704L50.1384 10.028H47.8984L45.8824 7.48L43.8664 10.028H41.6824L44.6224 5.94ZM48.6544 24.308C47.6464 21.368 46.5264 18.372 45.4064 15.572C44.4264 18.232 43.2504 21.368 42.2424 24.308H48.6544ZM36.8944 31C39.3864 25.008 42.2704 18.624 44.3424 12.996C44.0904 12.436 43.8664 11.904 43.5864 11.4H47.2824C48.9344 16.244 52.4064 25.904 54.5904 31H50.8664C50.3904 29.46 49.8584 27.78 49.2704 26.044H41.6824C41.0944 27.836 40.5904 29.572 40.2824 31H36.8944ZM55.8738 31C56.1818 25.148 56.2098 19.24 55.9578 13.276L54.7258 11.4H59.2338L68.8938 26.38C69.0058 21.48 68.9218 16.384 68.6698 11.4H71.2738C71.0498 17.868 71.0218 24.42 71.2738 31H68.2778C65.1978 25.988 61.8658 20.724 58.3938 15.992C58.3098 20.78 58.4498 26.156 58.6458 31H55.8738Z" fill="url(#paint0_linear_2045_2249)"/>
<path d="M2.128 31C2.436 25.148 2.464 19.24 2.212 13.276L0.98 11.4H5.488L15.148 26.38C15.26 21.48 15.176 16.384 14.924 11.4H17.528C17.304 17.868 17.276 24.42 17.528 31H14.532C11.452 25.988 8.12 20.724 4.648 15.992C4.564 20.78 4.704 26.156 4.9 31H2.128ZM35.3474 11.4C35.0954 17.952 35.1514 24.504 35.3474 31H31.9034C32.0434 27.724 32.1274 24.728 32.1274 21.76H23.9514C23.9794 24.7 24.0354 27.668 24.1474 31H20.6194C20.9834 24.392 20.9834 17.84 20.6194 11.4H24.1474C24.0354 14.508 23.9794 17.308 23.9514 20.052H32.1274C32.1274 17.28 32.0434 14.452 31.9034 11.4H35.3474ZM41.7664 3.98C42.6904 1.6 44.4824 0.955998 46.3304 1.88C47.6464 2.552 48.7944 2.86 49.6344 1.264L50.6144 1.936C49.4104 4.792 47.8704 4.96 46.0504 4.148C44.4264 3.392 43.5024 3.196 42.6064 4.624L41.7664 3.98ZM44.6224 5.94H47.1704L50.1384 10.028H47.8984L45.8824 7.48L43.8664 10.028H41.6824L44.6224 5.94ZM48.6544 24.308C47.6464 21.368 46.5264 18.372 45.4064 15.572C44.4264 18.232 43.2504 21.368 42.2424 24.308H48.6544ZM36.8944 31C39.3864 25.008 42.2704 18.624 44.3424 12.996C44.0904 12.436 43.8664 11.904 43.5864 11.4H47.2824C48.9344 16.244 52.4064 25.904 54.5904 31H50.8664C50.3904 29.46 49.8584 27.78 49.2704 26.044H41.6824C41.0944 27.836 40.5904 29.572 40.2824 31H36.8944ZM55.8738 31C56.1818 25.148 56.2098 19.24 55.9578 13.276L54.7258 11.4H59.2338L68.8938 26.38C69.0058 21.48 68.9218 16.384 68.6698 11.4H71.2738C71.0498 17.868 71.0218 24.42 71.2738 31H68.2778C65.1978 25.988 61.8658 20.724 58.3938 15.992C58.3098 20.78 58.4498 26.156 58.6458 31H55.8738Z" fill="url(#paint1_linear_2045_2249)" fill-opacity="0.75"/>
<path d="M6.412 65C6.692 59.064 6.748 53.016 6.496 47.192C4.508 47.276 2.548 47.5 0.84 47.892L1.12 45.4H15.204L15.484 47.892C13.72 47.5 11.844 47.276 9.856 47.192C9.66 53.1 9.716 59.12 9.912 65H6.412ZM14.9802 43.076C15.9042 40.696 17.6962 40.052 19.5442 40.976C20.8602 41.648 22.0082 41.956 22.8482 40.36L23.8282 41.032C22.6242 43.888 21.0842 44.056 19.2642 43.244C17.6402 42.488 16.7162 42.292 15.8202 43.72L14.9802 43.076ZM17.5842 65C17.9202 58.392 17.9202 51.84 17.5842 45.4H21.0842C20.8322 51.952 20.8882 58.504 21.0842 65H17.5842ZM24.4689 65C24.7769 59.148 24.8049 53.24 24.5529 47.276L23.3209 45.4H27.8289L37.4889 60.38C37.6009 55.48 37.5169 50.384 37.2649 45.4H39.8689C39.6449 51.868 39.6169 58.42 39.8689 65H36.8729C33.7929 59.988 30.4609 54.724 26.9889 49.992C26.9049 54.78 27.0449 60.156 27.2409 65H24.4689ZM57.6883 45.4C57.4363 51.952 57.4923 58.504 57.6883 65H54.2443C54.3843 61.724 54.4683 58.728 54.4683 55.76H46.2923C46.3203 58.7 46.3763 61.668 46.4883 65H42.9603C43.3243 58.392 43.3243 51.84 42.9603 45.4H46.4883C46.3763 48.508 46.3203 51.308 46.2923 54.052H54.4683C54.4683 51.28 54.3843 48.452 54.2443 45.4H57.6883ZM66.6964 65C67.0324 58.42 67.0044 51.84 66.6684 45.4H70.1404C69.9164 51.336 69.9444 57.412 70.1124 63.292C73.1644 63.264 76.2724 62.9 78.6804 62.256L78.4004 65H66.6964ZM86.9444 70.628C85.8804 70.628 85.2364 69.984 85.2364 68.92C85.2364 67.828 85.8804 67.184 86.9444 67.184C88.0364 67.184 88.6804 67.828 88.6804 68.92C88.6804 69.984 88.0364 70.628 86.9444 70.628ZM87.3924 42.208C89.1284 42.208 89.6884 41.312 89.6884 40.276H91.5644C91.5644 42.348 90.1644 44.028 87.3924 44.028C84.6204 44.028 83.2484 42.348 83.2484 40.276H85.1244C85.1244 41.312 85.6844 42.208 87.3924 42.208ZM90.1644 58.308C89.1564 55.368 88.0364 52.372 86.9164 49.572C85.9364 52.232 84.7604 55.368 83.7524 58.308H90.1644ZM78.4044 65C80.8964 59.008 83.7804 52.624 85.8524 46.996C85.6004 46.436 85.3764 45.904 85.0964 45.4H88.7924C90.4444 50.244 93.9164 59.904 96.1004 65H92.3764C91.9004 63.46 91.3684 61.78 90.7804 60.044H83.1924C82.6044 61.836 82.1004 63.572 81.7924 65H78.4044ZM97.3838 65C97.6918 59.148 97.7198 53.24 97.4678 47.276L96.2358 45.4H100.744L110.404 60.38C110.516 55.48 110.432 50.384 110.18 45.4H112.784C112.56 51.868 112.532 58.42 112.784 65H109.788C106.708 59.988 103.376 54.724 99.9038 49.992C99.8198 54.78 99.9598 60.156 100.156 65H97.3838ZM124.723 65.168C118.199 65.168 115.315 60.268 115.315 55.2C115.315 50.132 118.535 45.232 125.059 45.232C127.943 45.232 130.379 46.212 131.919 47.78L130.015 49.572C129.063 47.92 127.355 46.744 125.059 46.744C120.523 46.744 118.843 51.028 118.843 55.2C118.843 60.996 121.615 63.656 124.863 63.656C126.319 63.656 127.831 63.096 129.147 62.06V57.02H123.519L123.883 55.312H132.143V62.508C130.435 63.796 128.139 65.168 124.723 65.168ZM141.115 65C141.451 58.616 141.451 51.784 141.115 45.4H145.987C149.403 45.4 152.623 46.268 152.623 50.272C152.623 52.176 151.027 53.716 149.683 54.36C151.727 54.864 153.743 56.32 153.743 59.204C153.743 63.88 149.907 65 145.903 65H141.115ZM145.931 53.632C147.639 53.632 149.711 53.016 149.711 50.272C149.711 47.388 147.639 47.024 145.931 47.024H144.559L144.447 53.632H145.931ZM146.071 63.376C148.115 63.376 150.635 62.592 150.635 59.204C150.635 55.788 147.919 55.256 145.931 55.256H144.419C144.419 58.196 144.475 60.436 144.559 63.376H146.071ZM162.672 44.028C162.644 42.292 164.576 41.844 164.576 40.556C164.576 39.66 164.044 39.408 163.26 39.38C162.644 39.352 161.72 39.996 161.3 40.584L160.964 38.932C161.776 38.372 162.868 38.064 163.904 38.064C165.136 38.064 166.564 38.568 166.564 40.332C166.564 42.432 164.212 42.572 164.1 44.028H162.672ZM166.06 58.308C165.052 55.368 163.932 52.372 162.812 49.572C161.832 52.232 160.656 55.368 159.648 58.308H166.06ZM154.3 65C156.792 59.008 159.676 52.624 161.748 46.996C161.496 46.436 161.272 45.904 160.992 45.4H164.688C166.34 50.244 169.812 59.904 171.996 65H168.272C167.796 63.46 167.264 61.78 166.676 60.044H159.088C158.5 61.836 157.996 63.572 157.688 65H154.3ZM173.279 65C173.587 59.148 173.615 53.24 173.363 47.276L172.131 45.4H176.639L186.299 60.38C186.411 55.48 186.327 50.384 186.075 45.4H188.679C188.455 51.868 188.427 58.42 188.679 65H185.683C182.603 59.988 179.271 54.724 175.799 49.992C175.715 54.78 175.855 60.156 176.051 65H173.279ZM197.692 65C198.028 58.42 198 51.84 197.664 45.4H201.136C200.912 51.336 200.94 57.412 201.108 63.292C204.16 63.264 207.268 62.9 209.676 62.256L209.396 65H197.692ZM208.336 43.076C209.26 40.696 211.052 40.052 212.9 40.976C214.216 41.648 215.364 41.956 216.204 40.36L217.184 41.032C215.98 43.888 214.44 44.056 212.62 43.244C210.996 42.488 210.072 42.292 209.176 43.72L208.336 43.076ZM210.94 65C211.276 58.392 211.276 51.84 210.94 45.4H214.44C214.188 51.952 214.244 58.504 214.44 65H210.94ZM217.824 65C218.132 59.148 218.16 53.24 217.908 47.276L216.676 45.4H221.184L230.844 60.38C230.956 55.48 230.872 50.384 230.62 45.4H233.224C233 51.868 232.972 58.42 233.224 65H230.228C227.148 59.988 223.816 54.724 220.344 49.992C220.26 54.78 220.4 60.156 220.596 65H217.824ZM251.044 45.4C250.792 51.952 250.848 58.504 251.044 65H247.6C247.74 61.724 247.824 58.728 247.824 55.76H239.648C239.676 58.7 239.732 61.668 239.844 65H236.316C236.68 58.392 236.68 51.84 236.316 45.4H239.844C239.732 48.508 239.676 51.308 239.648 54.052H247.824C247.824 51.28 247.74 48.452 247.6 45.4H251.044Z" fill="url(#paint2_linear_2045_2249)"/>
<defs>
<linearGradient id="paint0_linear_2045_2249" x1="0" y1="37" x2="253" y2="37" gradientUnits="userSpaceOnUse">
<stop stop-color="#525861"/>
<stop offset="1" stop-color="#97A1A7"/>
</linearGradient>
<linearGradient id="paint1_linear_2045_2249" x1="67.1224" y1="19.0727" x2="99.8294" y2="51.8715" gradientUnits="userSpaceOnUse">
<stop offset="0.0940377" stop-color="white" stop-opacity="0"/>
<stop offset="0.292723" stop-color="white"/>
<stop offset="0.724446" stop-color="white" stop-opacity="0.775341"/>
<stop offset="1" stop-color="white" stop-opacity="0"/>
</linearGradient>
<linearGradient id="paint2_linear_2045_2249" x1="0" y1="37" x2="46.3936" y2="37" gradientUnits="userSpaceOnUse">
<stop stop-color="#DDB27C"/>
<stop offset="1" stop-color="#A16D3C"/>
</linearGradient>
</defs>
</svg>
