<svg xmlns="http://www.w3.org/2000/svg" width="48" height="48" fill="none" viewBox="0 0 48 48">
  <path fill="#E7352B" stroke="#FAEAAD" d="m30.845 6.976.146.146h3.436a6.45 6.45 0 0 1 6.45 6.451v3.436l.147.146 6.215 6.215a.89.89 0 0 1 0 1.26l-6.215 6.215-.146.146v3.436a6.45 6.45 0 0 1-6.451 6.45H30.99l-.146.147-6.215 6.215a.89.89 0 0 1-1.26 0l-6.215-6.215-.146-.146h-3.436a6.45 6.45 0 0 1-6.45-6.451V30.99l-.147-.146L.76 24.63a.89.89 0 0 1 0-1.26l6.215-6.215.146-.146v-3.436a6.45 6.45 0 0 1 6.451-6.45h3.436l.146-.147L23.37.76a.89.89 0 0 1 1.26 0l6.215 6.215Z"/>
  <path stroke="#FECF80" stroke-linecap="square" stroke-width="4" d="M25.177 17.468 19 23.645l6.177 6.178"/>
</svg>
