<svg xmlns="http://www.w3.org/2000/svg" xmlns:xlink="http://www.w3.org/1999/xlink" width="115" height="23" fill="none" viewBox="0 0 115 23">
  <defs>
    <path id="a" fill="#FFF400" stroke="#FAEAAD" d="m6.83 19.744-.116-.222-.244-.051a7.376 7.376 0 0 1-.432-14.325l.364-.1.022-.378a3.687 3.687 0 0 1 3.68-3.472h94.287a3.687 3.687 0 0 1 3.681 3.472l.021.377.365.1a7.377 7.377 0 0 1-.433 14.326l-.244.051-.115.222a3.69 3.69 0 0 1-3.275 1.992H10.104a3.69 3.69 0 0 1-3.275-1.992Z"/>
  </defs>
  <use xlink:href="#a" stroke-width="1.053"/>
  <mask id="b" width="115" height="23" x="0" y="0" maskUnits="userSpaceOnUse" style="mask-type:alpha">
    <use xlink:href="#a" stroke-width="1.053"/>
  </mask>
  <g fill="#FFB488" fill-opacity=".36" fill-rule="evenodd" clip-rule="evenodd" mask="url(#b)">
    <path d="M131.876 10.382c1.121.906 1.735 2.486 1.088 3.823.423.735.87 1.981.777 3.325-.096 1.388-.768 2.87-2.609 3.99-2.258 1.374-4.891.982-7.034.208-1.81-.654-3.296-1.59-3.939-1.995a9 9 0 0 0-.266-.165 3 3 0 0 1-.342-.247l-.137-.112h-.001q-.127-.105-.275-.223c-.306-.24-.675-.5-1.129-.698-.902-.396-2.158-.56-3.937.195q-.569.241-1.061.457c-.45.197-.857.374-1.234.527-.656.266-1.233.463-1.81.562-1.161.2-2.302.002-4.069-.77l.072-.234c.514.1 1.388.189 2.328.13.943-.058 1.939-.264 2.707-.744.49-.306.959-.669 1.436-1.042l.104-.081c.442-.347.893-.7 1.368-1.018 1.027-.685 2.178-1.208 3.649-1.155 2.317.085 3.487 1.054 4.664 2.03.306.253.613.507.94.746.789.576 1.958 1.067 3.146 1.265 1.192.2 2.379.101 3.221-.47 1.044-.707 1.446-1.807 1.369-2.85-.078-1.047-.637-2.024-1.503-2.484-.846-.45-1.785-.303-2.377.169a1.54 1.54 0 0 0-.571.906 1.5 1.5 0 0 0 .009.598q.035-.288.143-.517a1.34 1.34 0 0 1 .693-.667c.588-.253 1.364-.14 1.999.264 1.144.73 1.237 3.146-.93 4-1.232.487-2.781.348-3.812-.29-.518-.32-.913-.773-1.063-1.344-.143-.543-.059-1.176.324-1.877-.695-.4-1.037-1.003-1.065-1.679-.029-.703.283-1.468.85-2.146 1.075-1.286 2.982-1.194 4.002-.237.724-.64 1.494-.911 2.228-.91.762.002 1.475.297 2.047.76m-4.195.41c.707-.659 1.452-.925 2.148-.923.698.002 1.358.272 1.893.705 1.078.871 1.619 2.365.993 3.579l-.031.06.035.06c.414.694.868 1.922.777 3.24-.091 1.31-.72 2.72-2.491 3.796-2.163 1.316-4.706.951-6.824.186-1.779-.642-3.234-1.557-3.885-1.967a12 12 0 0 0-.281-.174 3 3 0 0 1-.311-.226l-.132-.108q-.131-.108-.283-.229a5.5 5.5 0 0 0-1.182-.73c-.967-.424-2.294-.585-4.13.194-.386.164-.739.318-1.068.461-.447.195-.849.37-1.224.522-.649.264-1.207.453-1.759.548-.897.154-1.791.062-3.044-.396.429.033.92.044 1.431.012.961-.06 2.004-.27 2.822-.781.502-.314.981-.684 1.457-1.057l.102-.08a22 22 0 0 1 1.354-1.008c1.003-.67 2.104-1.165 3.505-1.114 2.228.082 3.327.99 4.495 1.957.312.258.629.52.974.771.822.601 2.028 1.105 3.25 1.31 1.22.204 2.481.113 3.398-.509 1.125-.763 1.56-1.953 1.477-3.073-.083-1.117-.68-2.178-1.633-2.684-.933-.496-1.977-.338-2.645.193-.334.267-.577.63-.659 1.053-.083.425-.002.9.291 1.385l.226-.084c-.075-.455-.026-.806.098-1.067.122-.26.322-.44.568-.546.496-.214 1.187-.127 1.771.246.954.608 1.114 2.772-.888 3.562-1.164.459-2.632.324-3.594-.271-.479-.297-.825-.702-.955-1.197-.13-.493-.05-1.096.361-1.8l.066-.113-.116-.06c-.696-.358-1.018-.913-1.043-1.53-.026-.625.251-1.33.792-1.977 1.002-1.199 2.817-1.081 3.722-.141l.084.087z"/>
    <path d="M120.281 10.986c.639-.378 1.547-.528 2.558-.236l.197.057-.144.148a2.6 2.6 0 0 0-.67 1.427c-.076.626.085 1.378.796 2.142l.092.098-.106.083c-.165.131-.516.55-.531 1.125l-.008.276-.199-.19c-.407-.387-1.67-1.184-3.387-1.184h-.082l-.031-.077a1.95 1.95 0 0 1-.107-1.005 1.68 1.68 0 0 1 .689-1.117c-.052-.605.324-1.186.933-1.547m.125.213c-.579.343-.879.873-.806 1.375l.011.077-.064.043a1.44 1.44 0 0 0-.646.995c-.049.308-.002.6.064.797 1.544.022 2.73.659 3.286 1.094a1.87 1.87 0 0 1 .504-.98c-.689-.785-.859-1.574-.776-2.248a2.85 2.85 0 0 1 .601-1.414c-.873-.205-1.637-.058-2.174.26Zm-2.692 2.424a1.67 1.67 0 0 0-1.321-.187c.065-.368-.055-.734-.28-1.054-.271-.386-.701-.717-1.183-.937s-1.026-.333-1.529-.268c-.469.06-.903.275-1.208.699-.372-.22-.773-.209-1.107-.097-.36.12-.663.362-.784.585l-.094.17.193.013c.415.026 1.027.239 1.493.796.464.555.795 1.466.625 2.91l-.041.34.247-.235c.769-.734 2.676-2.104 5.603-1.753l.225.027-.101-.204a2.05 2.05 0 0 0-.738-.805m-5.383-1.512c.262-.421.657-.632 1.101-.69.448-.057.946.043 1.397.248.45.206.843.513 1.083.855.241.342.323.708.188 1.052l-.1.256.257-.095c.561-.207 1.003-.103 1.329.097.231.141.407.332.525.5-2.626-.237-4.428.87-5.318 1.63.095-1.319-.232-2.206-.711-2.78a2.48 2.48 0 0 0-1.443-.856c.121-.12.305-.242.524-.315.311-.104.67-.101.992.133l.107.077z"/>
    <path d="M111.249 13.335c-1.748-1.383-4.33-.181-4.33 2.009 0 .54.134.927.358 1.195.224.267.524.402.828.462.538.106 1.118-.015 1.381-.07l.079-.017c.182-.035.281-.216.321-.384a1.1 1.1 0 0 0-.035-.602.9.9 0 0 0-.437-.515c-.209-.106-.477-.137-.808-.063a.53.53 0 0 1-.052-.402.83.83 0 0 1 .317-.432c.334-.25.876-.376 1.438-.19.206.069.412.236.576.47s.28.524.311.825-.022.608-.192.883c-.17.274-.462.524-.927.699-.6.225-1.092.29-1.529.265-.439-.025-.828-.139-1.226-.277l-.282-.1c-.713-.256-1.489-.535-2.593-.42-.996.102-1.799.496-2.49.836l-.367.177c-.782.368-1.412.565-2.108.138l-.369-.226.196.387c.16.319.771.808 1.965.634.528-.077.937-.244 1.324-.402q.23-.096.458-.179c.541-.19 1.165-.309 2.207-.113.526.099.981.226 1.404.35l.163.048.006.001c.358.106.699.206 1.04.278.798.167 1.602.177 2.7-.242 1.119-.427 1.727-1.339 1.832-2.318a3.04 3.04 0 0 0-1.159-2.705m-4.085 2.009c0-1.97 2.335-3.08 3.934-1.815a2.8 2.8 0 0 1 1.066 2.484c-.095.89-.645 1.722-1.675 2.114-1.05.4-1.806.39-2.562.231-.332-.07-.662-.166-1.021-.272l-.171-.05a14 14 0 0 0-1.427-.356c-1.086-.203-1.753-.08-2.333.123-.174.061-.336.128-.496.193-.376.154-.743.305-1.24.377-.49.07-.86.022-1.129-.072.531.058 1.046-.14 1.584-.393l.378-.183c.692-.339 1.451-.711 2.4-.809 1.047-.108 1.771.152 2.484.407q.142.052.286.102c.405.14.82.262 1.292.289.474.027 1-.043 1.629-.28.506-.19.846-.472 1.049-.8s.264-.692.228-1.039a2 2 0 0 0-.354-.94c-.186-.265-.431-.474-.701-.563-.636-.21-1.261-.074-1.661.227-.2.15-.349.345-.407.565a.8.8 0 0 0 .133.678l.049.07.082-.022c.331-.089.563-.058.722.023.159.08.261.22.316.377.056.159.06.33.029.462-.034.143-.096.193-.13.2l-.084.017c-.27.056-.798.166-1.282.07-.266-.053-.51-.167-.687-.379s-.301-.537-.301-1.036m26.359-2.724.191.306c1.739 2.802 1.535 6.063-.148 8.177-1.69 2.123-4.843 3.057-8.93 1.265l.079-.233c4.298 1.096 6.856.014 8.126-1.743 1.279-1.77 1.282-4.261.39-6.043l-.03-.061.035-.059a1 1 0 0 0 .079-.216c.028-.1.053-.22.076-.346a9 9 0 0 0 .096-.688zm.165.745a10 10 0 0 1-.055.346c-.024.13-.051.257-.081.367a1.4 1.4 0 0 1-.074.216c.899 1.848.888 4.407-.438 6.243-1.175 1.625-3.358 2.656-6.781 2.161 3.254.938 5.721.003 7.115-1.749 1.551-1.948 1.804-4.935.314-7.585Zm-15.479 5.617c-.396-.47-1.599-1.21-3.336-.604-.398.139-.863.344-1.372.57l-.532.233c-.721.313-1.514.635-2.339.862-1.652.455-3.416.526-4.984-.598l-.163.182c.524.592 2.298 1.66 4.721 1.216 1.098-.202 2.217-.603 3.273-.982.386-.139.763-.274 1.128-.396.688-.229 1.333-.41 1.919-.48.585-.068 1.101-.024 1.538.188zm-3.256-.37c1.153-.403 2.039-.172 2.579.139a3.7 3.7 0 0 0-1.037-.01c-.611.072-1.275.26-1.967.49a55 55 0 0 0-1.151.403c-1.051.378-2.14.768-3.217.966a5.8 5.8 0 0 1-2.443-.06c1.002.148 2.017.006 2.978-.259.842-.232 1.648-.56 2.372-.874q.28-.12.541-.237c.506-.224.957-.423 1.345-.559ZM2.624 10.382c-1.12.906-1.735 2.486-1.088 3.823-.423.735-.87 1.981-.777 3.325.096 1.388.768 2.87 2.61 3.99 2.257 1.374 4.89.982 7.033.208 1.81-.654 3.296-1.59 3.939-1.995q.18-.113.267-.165c.104-.06.219-.148.341-.247l.137-.112q.128-.105.276-.223a5.2 5.2 0 0 1 1.129-.698c.902-.396 2.158-.56 3.937.195q.569.241 1.06.457c.45.197.858.374 1.235.527.656.266 1.233.463 1.81.562 1.161.2 2.302.002 4.07-.77l-.073-.234c-.514.1-1.388.189-2.328.13-.943-.058-1.939-.264-2.707-.744-.49-.306-.96-.669-1.436-1.042l-.104-.081c-.442-.347-.893-.7-1.368-1.018-1.027-.685-2.178-1.208-3.649-1.155-2.317.085-3.487 1.054-4.664 2.03a20 20 0 0 1-.94.746c-.789.576-1.958 1.067-3.146 1.265-1.192.2-2.379.101-3.22-.47-1.045-.707-1.447-1.807-1.37-2.85.078-1.047.637-2.024 1.503-2.484.846-.45 1.785-.303 2.377.169.295.235.502.548.571.906.036.186.036.386-.01.598a1.7 1.7 0 0 0-.142-.517 1.34 1.34 0 0 0-.693-.667c-.588-.253-1.364-.14-2 .264-1.143.73-1.236 3.146.93 4 1.233.487 2.782.348 3.813-.29.518-.32.913-.773 1.063-1.344.143-.543.059-1.176-.324-1.877.695-.4 1.037-1.003 1.065-1.679.029-.703-.283-1.468-.85-2.146-1.075-1.286-2.982-1.194-4.002-.237-.724-.64-1.494-.911-2.228-.91-.762.002-1.475.297-2.047.76m4.195.41c-.707-.659-1.452-.925-2.148-.923-.698.002-1.358.272-1.893.705-1.078.871-1.62 2.365-.993 3.579l.031.06-.035.06c-.414.694-.868 1.922-.777 3.24.09 1.31.72 2.72 2.491 3.796 2.163 1.316 4.706.951 6.824.186 1.78-.642 3.234-1.557 3.885-1.967q.187-.119.281-.174.129-.076.31-.226l.133-.108q.131-.108.283-.229a5.5 5.5 0 0 1 1.182-.73c.967-.424 2.294-.585 4.13.194q.578.246 1.068.461c.447.195.849.37 1.224.522.65.264 1.207.453 1.759.548.897.154 1.791.062 3.044-.396-.428.033-.92.044-1.431.012-.961-.06-2.004-.27-2.822-.781-.502-.314-.98-.684-1.457-1.057l-.102-.08a22 22 0 0 0-1.354-1.008c-1.003-.67-2.104-1.165-3.505-1.114-2.228.082-3.326.99-4.495 1.957-.312.258-.63.52-.974.771-.822.601-2.028 1.105-3.25 1.31-1.22.204-2.481.113-3.398-.509-1.125-.763-1.56-1.953-1.477-3.073.083-1.117.68-2.178 1.633-2.684.933-.496 1.977-.338 2.645.193.334.267.577.63.659 1.053.083.425.002.9-.291 1.385l-.226-.084c.075-.455.026-.806-.098-1.067a1.1 1.1 0 0 0-.568-.546c-.496-.214-1.187-.127-1.77.246-.955.608-1.115 2.772.887 3.562 1.164.459 2.632.324 3.594-.271.48-.297.825-.702.955-1.197.13-.493.05-1.096-.36-1.8l-.067-.113.116-.06c.696-.358 1.018-.913 1.043-1.53.026-.625-.251-1.33-.792-1.977-1.002-1.199-2.817-1.081-3.722-.141l-.084.087z"/>
    <path d="M14.219 10.986c-.639-.378-1.547-.528-2.557-.236l-.198.057.144.148c.27.278.592.794.67 1.427.076.626-.085 1.378-.796 2.142l-.092.098.106.083c.165.131.516.55.531 1.125l.008.276.2-.19c.406-.387 1.669-1.184 3.386-1.184h.082l.031-.077c.094-.228.171-.604.107-1.005a1.68 1.68 0 0 0-.69-1.117c.053-.605-.323-1.186-.932-1.547m-.125.213c.579.343.88.873.806 1.375l-.011.077.064.043c.415.281.591.648.646.995.05.308.002.6-.064.797-1.544.022-2.73.659-3.286 1.094a1.87 1.87 0 0 0-.504-.98c.69-.785.859-1.574.776-2.248a2.85 2.85 0 0 0-.601-1.414c.873-.205 1.637-.058 2.174.26Zm2.692 2.424c.34-.208.784-.323 1.32-.187-.064-.368.056-.734.281-1.054.271-.386.701-.717 1.183-.937s1.026-.333 1.529-.268c.47.06.903.275 1.208.699.372-.22.773-.209 1.107-.097.36.12.662.362.784.585l.093.17-.192.013c-.415.026-1.027.239-1.493.796-.464.555-.795 1.466-.625 2.91l.04.34-.246-.235c-.768-.734-2.676-2.104-5.603-1.753l-.225.027.1-.204c.112-.227.359-.572.739-.805m5.383-1.512c-.262-.421-.657-.632-1.101-.69-.448-.057-.946.043-1.397.248-.45.206-.843.513-1.083.855s-.323.708-.188 1.052l.1.256-.257-.095c-.561-.207-1.003-.103-1.33.097-.23.141-.406.332-.524.5 2.626-.237 4.428.87 5.318 1.63-.096-1.319.232-2.206.711-2.78a2.48 2.48 0 0 1 1.443-.856 1.4 1.4 0 0 0-.524-.315c-.31-.104-.67-.101-.992.133l-.107.077-.07-.112Z"/>
    <path d="M23.25 13.335c1.75-1.383 4.331-.181 4.331 2.009 0 .54-.134.927-.358 1.195-.224.267-.524.402-.828.462-.537.106-1.118-.015-1.381-.07l-.078-.017c-.183-.035-.282-.216-.322-.384a1.1 1.1 0 0 1 .035-.602.9.9 0 0 1 .437-.515c.209-.106.477-.137.808-.063a.53.53 0 0 0 .052-.402.83.83 0 0 0-.317-.432c-.334-.25-.876-.376-1.438-.19-.206.069-.412.236-.576.47s-.28.524-.311.825.022.608.192.883c.17.274.463.524.927.699.6.225 1.092.29 1.53.265s.827-.139 1.225-.277l.282-.1c.713-.256 1.489-.535 2.593-.42.996.102 1.799.496 2.49.836l.367.177c.782.368 1.412.565 2.108.138l.369-.226-.196.387c-.16.319-.771.808-1.966.634-.527-.077-.936-.244-1.323-.402q-.23-.096-.458-.179c-.541-.19-1.165-.309-2.207-.113-.526.099-.98.226-1.404.35l-.163.048-.006.001c-.358.106-.699.206-1.04.278-.798.167-1.602.177-2.7-.242-1.12-.427-1.727-1.339-1.832-2.318a3.04 3.04 0 0 1 1.159-2.705Zm4.086 2.009c0-1.97-2.335-3.08-3.934-1.815a2.8 2.8 0 0 0-1.066 2.484c.096.89.645 1.722 1.675 2.114 1.05.4 1.806.39 2.563.231.33-.07.661-.166 1.02-.272l.17-.05c.425-.125.89-.255 1.428-.356 1.086-.203 1.753-.08 2.333.123.174.061.336.128.496.193.376.154.743.305 1.24.377.49.07.86.022 1.13-.072-.532.058-1.047-.14-1.585-.393l-.378-.183c-.692-.339-1.451-.711-2.4-.809-1.046-.108-1.771.152-2.484.407q-.142.052-.286.102c-.404.14-.82.262-1.292.289-.474.027-1-.043-1.629-.28-.506-.19-.846-.472-1.05-.8a1.63 1.63 0 0 1-.227-1.039c.036-.345.168-.676.354-.94.186-.265.431-.474.7-.563.637-.21 1.262-.074 1.662.227.2.15.349.345.407.565a.79.79 0 0 1-.133.678l-.05.07-.081-.022c-.33-.089-.563-.058-.722.023a.65.65 0 0 0-.316.377.85.85 0 0 0-.029.462c.035.143.096.193.13.2l.085.017c.268.056.797.166 1.28.07.267-.053.51-.167.688-.379s.3-.537.3-1.036ZM.977 12.62l-.19.306c-1.74 2.802-1.536 6.063.147 8.177 1.69 2.123 4.843 3.057 8.93 1.265l-.079-.233c-4.298 1.096-6.856.014-8.126-1.743-1.279-1.77-1.282-4.261-.39-6.043l.03-.061-.035-.059a1 1 0 0 1-.08-.216 4 4 0 0 1-.075-.346 9 9 0 0 1-.096-.688zm-.165.745c.016.111.034.23.055.346.024.13.05.257.08.367.022.079.046.154.075.216-.899 1.848-.888 4.407.438 6.243 1.175 1.625 3.358 2.656 6.78 2.161-3.253.938-5.72.003-7.114-1.749-1.551-1.948-1.804-4.935-.314-7.585Zm15.479 5.617c.396-.47 1.6-1.21 3.336-.604.398.139.863.344 1.372.57l.532.233c.72.313 1.514.635 2.34.862 1.65.455 3.415.526 4.983-.598l.163.182c-.524.592-2.298 1.66-4.72 1.216-1.099-.202-2.218-.603-3.274-.982a52 52 0 0 0-1.128-.396c-.688-.229-1.333-.41-1.919-.48-.585-.068-1.101-.024-1.538.188zm3.256-.37c-1.153-.403-2.04-.172-2.58.139a3.7 3.7 0 0 1 1.038-.01c.611.072 1.275.26 1.967.49.377.125.761.263 1.151.403 1.05.378 2.14.768 3.217.966.929.17 1.755.11 2.443-.06-1.002.148-2.017.006-2.978-.259-.842-.232-1.648-.56-2.372-.874q-.28-.12-.541-.237a20 20 0 0 0-1.345-.559Z"/>
  </g>
  <path fill="#E0D600" fill-rule="evenodd" d="M103.943 22.263c1.616 0 3.018-.88 3.714-2.166 3.55-.716 6.215-3.736 6.215-7.353 0-3.458-2.437-6.371-5.755-7.246-.126-2.105-1.946-3.775-4.174-3.775h-93.39c-2.227 0-4.048 1.67-4.173 3.775C3.07 6.37.637 9.27.625 12.718v.053c.013 3.604 2.674 6.612 6.215 7.326.696 1.287 2.097 2.166 3.713 2.166zM8.231 19.406l-.341-.632-.727-.147c-2.84-.573-4.97-2.991-4.97-5.883 0-2.765 1.948-5.097 4.602-5.797l1.086-.286.064-1.077c.078-1.315 1.217-2.358 2.608-2.358h93.39c1.392 0 2.53 1.043 2.609 2.358l.064 1.077 1.085.286c2.655.7 4.603 3.032 4.603 5.797 0 2.892-2.131 5.31-4.97 5.883l-.727.147-.342.632a2.63 2.63 0 0 1-2.322 1.354h-93.39a2.63 2.63 0 0 1-2.322-1.354" clip-rule="evenodd"/>
  <path fill="#EF4B24" fill-rule="evenodd" d="m7.42 18.594.344.665a2.63 2.63 0 0 0 2.34 1.423h94.287c1.016 0 1.9-.574 2.34-1.423l.345-.665.732-.154a6.323 6.323 0 0 0 .37-12.279l-1.093-.3-.065-1.133a2.634 2.634 0 0 0-2.629-2.479H10.104a2.634 2.634 0 0 0-2.629 2.48L7.411 5.86l-1.094.301a6.323 6.323 0 0 0 .37 12.279zM5.898 4.638a7.903 7.903 0 0 0 .464 15.348 4.21 4.21 0 0 0 3.742 2.276h94.287a4.21 4.21 0 0 0 3.743-2.276 7.903 7.903 0 0 0 .463-15.348 4.213 4.213 0 0 0-4.206-3.969H10.104a4.214 4.214 0 0 0-4.206 3.969" clip-rule="evenodd"/>
  <path fill="#FF9756" d="m7.764 19.259-.344-.665-.733-.154a6.32 6.32 0 0 1-5.004-5.92 6.32 6.32 0 0 0 5.004 6.448l.733.153.344.664a2.63 2.63 0 0 0 2.34 1.424h94.294c1.016 0 1.9-.575 2.34-1.424l.345-.664.732-.154a6.32 6.32 0 0 0 5.004-6.448 6.32 6.32 0 0 1-5.004 5.921l-.732.154-.345.665a2.63 2.63 0 0 1-2.34 1.423H10.104c-1.015 0-1.9-.574-2.34-1.423"/>
  <path fill="#FF9756" d="M.098 12.256a7.9 7.9 0 0 1 5.8-7.618A4.214 4.214 0 0 1 10.104.669h94.294a4.213 4.213 0 0 1 4.206 3.969 7.904 7.904 0 0 1 5.796 7.881 7.9 7.9 0 0 0-5.796-7.355 4.213 4.213 0 0 0-4.206-3.968H10.104a4.214 4.214 0 0 0-4.206 3.968A7.9 7.9 0 0 0 .102 12.52a8 8 0 0 1-.004-.263Z"/>
</svg>
