<svg xmlns="http://www.w3.org/2000/svg" xmlns:xlink="http://www.w3.org/1999/xlink" width="170" height="44" fill="none" viewBox="0 0 170 44">
  <g clip-path="url(#a)">
    <use xlink:href="#b" stroke-width="2.107"/>
    <mask id="c" width="170" height="44" x="0" y="0" maskUnits="userSpaceOnUse" style="mask-type:alpha">
      <use xlink:href="#b" stroke-width="2.107"/>
    </mask>
    <g fill="#FFB488" fill-opacity=".36" fill-rule="evenodd" clip-rule="evenodd" mask="url(#c)">
      <path d="M192.025 19.801c2.242 1.812 3.47 4.973 2.176 7.646.847 1.472 1.74 3.964 1.554 6.65-.193 2.777-1.536 5.742-5.218 7.981-4.517 2.747-9.782 1.963-14.067.415-3.62-1.307-6.592-3.179-7.878-3.989a20 20 0 0 0-.534-.33 6 6 0 0 1-.683-.494l-.274-.224h-.001a35 35 0 0 0-.551-.446c-.611-.48-1.349-1-2.257-1.397-1.805-.79-4.317-1.12-7.874.39-.76.322-1.464.629-2.122.916-.9.392-1.715.748-2.469 1.053-1.311.532-2.465.925-3.619 1.124-2.323.4-4.605.003-8.139-1.54l.144-.468c1.028.199 2.776.378 4.657.261 1.885-.117 3.877-.529 5.414-1.49.979-.611 1.918-1.336 2.872-2.084l.207-.162c.884-.694 1.786-1.4 2.736-2.035 2.054-1.37 4.356-2.417 7.298-2.31 4.635.17 6.975 2.108 9.329 4.059.612.507 1.225 1.015 1.879 1.492 1.578 1.152 3.916 2.134 6.293 2.531 2.383.399 4.757.203 6.441-.94 2.088-1.414 2.893-3.614 2.738-5.7-.155-2.095-1.274-4.048-3.005-4.968-1.692-.9-3.571-.606-4.755.337-.59.47-1.003 1.097-1.142 1.814-.072.37-.072.772.019 1.195a3.3 3.3 0 0 1 .285-1.034c.3-.637.793-1.078 1.387-1.334 1.176-.507 2.728-.282 3.998.528 2.288 1.459 2.474 6.291-1.86 8-2.465.973-5.562.696-7.624-.58-1.036-.642-1.827-1.546-2.127-2.688-.286-1.087-.117-2.352.648-3.754-1.39-.799-2.073-2.006-2.129-3.357-.058-1.408.565-2.936 1.699-4.294 2.15-2.571 5.965-2.388 8.004-.474 1.448-1.28 2.989-1.822 4.457-1.819 1.523.004 2.949.594 4.093 1.52Zm-8.39.82c1.415-1.316 2.904-1.848 4.296-1.845 1.396.003 2.716.544 3.787 1.41 2.155 1.742 3.238 4.73 1.986 7.157l-.063.122.071.118c.827 1.39 1.736 3.844 1.553 6.48-.181 2.62-1.441 5.44-4.982 7.593-4.326 2.63-9.411 1.903-13.647.373-3.559-1.285-6.468-3.116-7.771-3.936-.248-.156-.437-.275-.562-.347a5 5 0 0 1-.621-.451l-.264-.216c-.175-.143-.365-.3-.567-.458-.627-.492-1.402-1.04-2.363-1.46-1.935-.849-4.588-1.171-8.261.387-.771.327-1.478.635-2.136.922-.893.39-1.697.74-2.448 1.044-1.298.527-2.415.906-3.517 1.096-1.795.309-3.583.123-6.089-.791a21 21 0 0 0 2.863.023c1.922-.12 4.007-.54 5.643-1.563 1.004-.627 1.961-1.368 2.914-2.114l.205-.16c.887-.697 1.774-1.392 2.708-2.015 2.006-1.34 4.207-2.33 7.009-2.228 4.456.163 6.653 1.98 8.991 3.914.624.515 1.258 1.04 1.947 1.543 1.645 1.201 4.056 2.21 6.501 2.618 2.44.408 4.962.226 6.795-1.017 2.251-1.526 3.12-3.906 2.954-6.147-.165-2.233-1.36-4.355-3.265-5.367-1.867-.992-3.955-.677-5.29.386-.669.533-1.154 1.259-1.319 2.106-.165.85-.003 1.8.582 2.77l.452-.169c-.149-.908-.051-1.611.196-2.134.244-.52.644-.88 1.136-1.091.993-.428 2.374-.254 3.542.491 1.908 1.217 2.229 5.544-1.776 7.124-2.328.919-5.263.65-7.188-.542-.958-.593-1.65-1.404-1.91-2.393-.259-.987-.1-2.193.722-3.6l.132-.226-.231-.119c-1.393-.718-2.036-1.827-2.087-3.061-.052-1.25.503-2.662 1.584-3.955 2.004-2.397 5.635-2.162 7.445-.281l.167.173z"/>
      <path d="M168.836 21.01c1.277-.757 3.093-1.055 5.114-.471l.396.114-.288.296c-.54.556-1.184 1.587-1.34 2.853-.153 1.253.169 2.756 1.592 4.284l.183.196-.211.167c-.331.262-1.032 1.098-1.063 2.249l-.015.552-.399-.38c-.814-.774-3.339-2.369-6.773-2.369h-.164l-.063-.152a3.9 3.9 0 0 1-.214-2.011c.123-.776.511-1.598 1.379-2.235-.104-1.21.648-2.371 1.866-3.093m.249.425c-1.158.687-1.758 1.746-1.612 2.75l.023.154-.128.087c-.83.562-1.183 1.297-1.293 1.99-.098.616-.003 1.2.128 1.593 3.089.046 5.461 1.318 6.573 2.19a3.75 3.75 0 0 1 1.007-1.962c-1.378-1.57-1.717-3.146-1.552-4.496a5.7 5.7 0 0 1 1.203-2.828c-1.746-.409-3.275-.114-4.349.522m-5.384 4.849c-.68-.416-1.568-.646-2.641-.374.129-.736-.111-1.468-.561-2.108-.542-.772-1.402-1.435-2.366-1.875-.963-.44-2.051-.665-3.057-.536-.939.12-1.807.551-2.417 1.398-.744-.44-1.546-.417-2.214-.194-.719.24-1.325.725-1.568 1.171l-.187.341.386.024c.83.053 2.054.478 2.986 1.594.927 1.109 1.589 2.93 1.248 5.82l-.08.678.493-.47c1.537-1.468 5.352-4.208 11.206-3.505l.45.054-.201-.409a4.1 4.1 0 0 0-1.477-1.609m-10.765-3.024c.523-.842 1.313-1.265 2.202-1.38.896-.114 1.892.086 2.793.497s1.686 1.024 2.167 1.71c.481.684.646 1.415.376 2.102l-.201.512.514-.19c1.123-.413 2.006-.204 2.659.195.462.282.813.663 1.049 1-5.251-.473-8.856 1.739-10.636 3.262.191-2.64-.463-4.414-1.422-5.561a4.96 4.96 0 0 0-2.886-1.713c.243-.24.611-.484 1.049-.63.621-.208 1.34-.203 1.984.265l.213.154z"/>
      <path d="M150.772 25.708c-3.497-2.766-8.661-.362-8.661 4.017 0 1.081.269 1.855.717 2.39s1.048.804 1.656.925c1.074.212 2.235-.03 2.762-.141l.156-.032c.366-.071.564-.433.644-.77a2.2 2.2 0 0 0-.071-1.204c-.143-.41-.422-.8-.874-1.03-.417-.211-.953-.273-1.615-.125a1.06 1.06 0 0 1-.105-.805c.082-.308.301-.612.634-.863.668-.501 1.752-.752 2.876-.38.412.137.824.473 1.153.94a3.56 3.56 0 0 1 .621 1.65c.063.6-.043 1.216-.383 1.765s-.925 1.049-1.855 1.398c-1.2.452-2.184.58-3.058.53-.877-.05-1.655-.277-2.452-.553q-.279-.097-.563-.2c-1.427-.513-2.978-1.07-5.187-.841-1.991.206-3.597.993-4.98 1.672q-.378.186-.734.356c-1.563.736-2.824 1.128-4.215.275l-.738-.452.391.775c.322.636 1.542 1.614 3.931 1.267 1.056-.154 1.874-.488 2.648-.805.308-.126.609-.25.916-.357 1.082-.38 2.329-.617 4.413-.226 1.052.197 1.962.451 2.808.699l.327.096.01.003c.718.212 1.4.412 2.082.556 1.596.334 3.204.354 5.4-.484 2.238-.853 3.453-2.678 3.664-4.637.211-1.953-.577-4.032-2.318-5.41Zm-8.17 4.017c0-3.939 4.67-6.158 7.867-3.63 1.606 1.271 2.326 3.183 2.133 4.97-.192 1.78-1.29 3.442-3.35 4.227-2.1.801-3.612.78-5.126.462-.662-.139-1.323-.333-2.042-.545l-.34-.1c-.85-.249-1.778-.509-2.855-.71-2.171-.408-3.506-.162-4.665.245-.349.123-.672.255-.992.386-.753.308-1.486.609-2.48.753-.981.143-1.72.045-2.259-.144 1.063.117 2.093-.279 3.168-.785q.372-.176.756-.366c1.384-.678 2.903-1.422 4.8-1.618 2.093-.217 3.543.303 4.969.814q.285.104.571.203c.809.28 1.639.526 2.585.579.948.053 1.999-.087 3.257-.56 1.013-.38 1.693-.944 2.099-1.6a3.26 3.26 0 0 0 .456-2.077 4.05 4.05 0 0 0-.709-1.883c-.371-.528-.862-.945-1.401-1.124-1.272-.422-2.523-.147-3.322.453-.4.3-.698.691-.815 1.13-.119.447-.044.921.266 1.358l.099.139.164-.044c.661-.178 1.125-.115 1.443.046.319.162.523.438.633.753.111.318.12.66.057.925-.069.286-.191.387-.259.4l-.17.034c-.538.112-1.594.33-2.562.14-.533-.106-1.02-.334-1.374-.758s-.602-1.074-.602-2.073m52.718-5.449.381.613c3.478 5.604 3.071 12.127-.296 16.355-3.38 4.245-9.685 6.114-17.86 2.53l.158-.465c8.596 2.19 13.713.027 16.253-3.488 2.557-3.538 2.563-8.521.78-12.086l-.061-.122.071-.117a2 2 0 0 0 .158-.431c.055-.202.106-.442.152-.694.091-.503.158-1.038.192-1.376zm.329 1.49c-.031.224-.068.462-.11.694a9 9 0 0 1-.161.735 3 3 0 0 1-.148.432c1.797 3.696 1.776 8.813-.877 12.484-2.349 3.25-6.715 5.312-13.561 4.323 6.508 1.877 11.441.005 14.23-3.498 3.102-3.896 3.607-9.87.627-15.17m-30.958 11.236c-.791-.94-3.198-2.42-6.672-1.208-.796.278-1.726.689-2.744 1.138q-.518.23-1.063.467c-1.442.626-3.028 1.27-4.679 1.725-3.303.91-6.831 1.052-9.967-1.197l-.326.365c1.047 1.183 4.595 3.321 9.441 2.432 2.196-.404 4.433-1.206 6.547-1.965.771-.276 1.526-.547 2.256-.79 1.375-.459 2.665-.821 3.837-.96 1.171-.137 2.203-.049 3.076.375zm-6.512-.742c2.306-.804 4.079-.342 5.159.28-.652-.111-1.348-.106-2.074-.02-1.223.143-2.551.519-3.934.98-.754.25-1.523.527-2.302.807-2.102.754-4.281 1.536-6.435 1.931-1.857.34-3.509.219-4.885-.118 2.004.293 4.033.01 5.955-.52 1.685-.464 3.296-1.12 4.744-1.748q.56-.243 1.082-.475c1.011-.447 1.915-.846 2.69-1.117M5.545 19.801c-2.242 1.812-3.47 4.973-2.176 7.646-.847 1.472-1.74 3.964-1.553 6.65.192 2.777 1.536 5.742 5.217 7.981 4.517 2.747 9.782 1.963 14.068.415 3.62-1.307 6.591-3.179 7.877-3.989.238-.15.418-.263.534-.33.21-.12.438-.297.683-.494q.134-.108.274-.224h.001c.172-.141.353-.29.552-.446.61-.48 1.349-1 2.257-1.397 1.804-.79 4.316-1.12 7.874.39.76.322 1.463.629 2.121.916.9.392 1.715.748 2.47 1.053 1.31.532 2.464.925 3.618 1.124 2.323.4 4.605.003 8.14-1.54l-.145-.468c-1.027.199-2.775.378-4.657.261-1.885-.117-3.877-.529-5.414-1.49-.979-.611-1.917-1.336-2.872-2.084l-.207-.162c-.884-.694-1.785-1.4-2.735-2.035-2.054-1.37-4.357-2.417-7.298-2.31-4.636.17-6.975 2.108-9.33 4.059a38 38 0 0 1-1.879 1.492c-1.577 1.152-3.915 2.134-6.293 2.531-2.383.399-4.757.203-6.44-.94-2.088-1.414-2.893-3.614-2.74-5.7.156-2.095 1.275-4.048 3.006-4.968 1.693-.9 3.571-.606 4.755.337.59.47 1.003 1.097 1.142 1.814.072.37.072.772-.019 1.195a3.3 3.3 0 0 0-.285-1.034 2.67 2.67 0 0 0-1.386-1.334c-1.177-.507-2.729-.282-3.999.528-2.287 1.459-2.474 6.291 1.86 8 2.465.973 5.562.696 7.625-.58 1.036-.642 1.826-1.546 2.127-2.688.285-1.087.117-2.352-.648-3.754 1.39-.799 2.072-2.006 2.128-3.357.058-1.408-.564-2.936-1.7-4.294-2.149-2.571-5.964-2.388-8.003-.474-1.448-1.28-2.988-1.822-4.457-1.819-1.523.004-2.948.594-4.093 1.52Zm8.39.82c-1.415-1.316-2.903-1.848-4.296-1.845-1.396.003-2.716.544-3.787 1.41-2.155 1.742-3.238 4.73-1.986 7.157l.063.122-.07.118c-.828 1.39-1.736 3.844-1.554 6.48.182 2.62 1.44 5.44 4.982 7.593 4.326 2.63 9.41 1.903 13.648.373 3.558-1.285 6.467-3.116 7.77-3.936.248-.156.438-.275.563-.347.172-.1.375-.253.62-.451l.264-.216c.175-.143.365-.3.568-.458.626-.492 1.401-1.04 2.363-1.46 1.935-.849 4.587-1.171 8.26.387.771.327 1.478.635 2.137.922.893.39 1.696.74 2.447 1.044 1.299.527 2.415.906 3.518 1.096 1.795.309 3.582.123 6.088-.791-.857.065-1.84.086-2.863.023-1.922-.12-4.007-.54-5.643-1.563-1.004-.627-1.961-1.368-2.914-2.114l-.205-.16c-.887-.697-1.774-1.392-2.708-2.015-2.005-1.34-4.207-2.33-7.008-2.228-4.457.163-6.654 1.98-8.992 3.914-.623.515-1.257 1.04-1.947 1.543-1.645 1.201-4.056 2.21-6.5 2.618-2.44.408-4.963.226-6.796-1.017-2.251-1.526-3.12-3.906-2.954-6.147.166-2.233 1.36-4.355 3.266-5.367 1.866-.992 3.954-.677 5.289.386.67.533 1.154 1.259 1.319 2.106.165.85.003 1.8-.582 2.77l-.452-.169c.149-.908.05-1.611-.195-2.134a2.18 2.18 0 0 0-1.137-1.091c-.992-.428-2.374-.254-3.542.491-1.908 1.217-2.229 5.544 1.776 7.124 2.328.919 5.263.65 7.188-.542.958-.593 1.65-1.404 1.91-2.393.26-.987.1-2.193-.722-3.6l-.132-.226.232-.119c1.392-.718 2.036-1.827 2.087-3.061.051-1.25-.504-2.662-1.585-3.955-2.004-2.397-5.634-2.162-7.445-.281l-.167.173z"/>
      <path d="M28.734 21.01c-1.277-.757-3.093-1.055-5.114-.471l-.395.114.287.296c.54.556 1.185 1.587 1.34 2.853.154 1.253-.169 2.756-1.591 4.284l-.183.196.21.167c.332.262 1.033 1.098 1.063 2.249l.015.552.4-.38c.813-.774 3.339-2.369 6.772-2.369h.164l.063-.152a3.9 3.9 0 0 0 .215-2.011c-.123-.776-.511-1.598-1.38-2.235.104-1.21-.648-2.371-1.866-3.093m-.249.425c1.158.687 1.758 1.746 1.612 2.75l-.022.154.128.087c.83.562 1.182 1.297 1.292 1.99.098.616.003 1.2-.128 1.593-3.089.046-5.46 1.318-6.573 2.19a3.75 3.75 0 0 0-1.007-1.962c1.379-1.57 1.718-3.146 1.552-4.496a5.7 5.7 0 0 0-1.202-2.828c1.745-.409 3.275-.114 4.348.522m5.384 4.849c.68-.416 1.568-.646 2.641-.374-.129-.736.111-1.468.561-2.108.542-.772 1.403-1.435 2.366-1.875s2.052-.665 3.058-.536c.938.12 1.806.551 2.416 1.398.745-.44 1.547-.417 2.214-.194.72.24 1.325.725 1.569 1.171l.186.341-.386.024c-.83.053-2.053.478-2.985 1.594-.927 1.109-1.59 2.93-1.25 5.82l.08.678-.492-.47c-1.537-1.468-5.352-4.208-11.206-3.505l-.45.054.201-.409a4.1 4.1 0 0 1 1.477-1.609m10.766-3.024c-.524-.842-1.313-1.265-2.203-1.38-.896-.114-1.891.086-2.792.497-.902.411-1.686 1.024-2.168 1.71-.48.684-.646 1.415-.376 2.102l.202.512-.514-.19c-1.123-.413-2.006-.204-2.66.195a3.6 3.6 0 0 0-1.048 1c5.25-.473 8.855 1.739 10.636 3.262-.192-2.64.462-4.414 1.421-5.561a4.96 4.96 0 0 1 2.886-1.713 2.8 2.8 0 0 0-1.048-.63c-.622-.208-1.34-.203-1.985.265l-.212.154-.14-.223Z"/>
      <path d="M46.798 25.708c3.497-2.766 8.661-.362 8.661 4.017 0 1.081-.269 1.855-.717 2.39s-1.047.804-1.655.925c-1.075.212-2.236-.03-2.763-.141l-.156-.032c-.365-.071-.563-.433-.644-.77a2.2 2.2 0 0 1 .071-1.204c.144-.41.422-.8.875-1.03.416-.211.953-.273 1.615-.125a1.06 1.06 0 0 0 .104-.805c-.082-.308-.3-.612-.634-.863-.668-.501-1.752-.752-2.875-.38-.412.137-.825.473-1.154.94a3.56 3.56 0 0 0-.621 1.65c-.063.6.043 1.216.384 1.765.34.548.925 1.049 1.854 1.398 1.2.452 2.184.58 3.058.53.877-.05 1.656-.277 2.453-.553q.279-.097.562-.2c1.428-.513 2.978-1.07 5.188-.841 1.99.206 3.596.993 4.98 1.672q.377.186.734.356c1.562.736 2.823 1.128 4.215.275l.737-.452-.39.775c-.322.636-1.543 1.614-3.932 1.267-1.056-.154-1.874-.488-2.647-.805-.309-.126-.61-.25-.916-.357-1.082-.38-2.33-.617-4.414-.226a28 28 0 0 0-2.807.699l-.327.096-.011.003c-.717.212-1.4.412-2.082.556-1.596.334-3.204.354-5.4-.484-2.238-.853-3.453-2.678-3.664-4.637-.21-1.953.578-4.032 2.318-5.41Zm8.17 4.017c0-3.939-4.67-6.158-7.866-3.63-1.606 1.271-2.326 3.183-2.134 4.97.192 1.78 1.29 3.442 3.35 4.227 2.1.801 3.613.78 5.126.462.662-.139 1.323-.333 2.042-.545l.34-.1c.85-.249 1.779-.509 2.855-.71 2.172-.408 3.506-.162 4.666.245.348.123.672.255.992.386.752.308 1.486.609 2.479.753.98.143 1.72.045 2.26-.144-1.063.117-2.094-.279-3.168-.785q-.373-.176-.757-.366c-1.384-.678-2.903-1.422-4.8-1.618-2.093-.217-3.543.303-4.968.814q-.284.104-.572.203c-.81.28-1.64.526-2.584.579-.948.053-2-.087-3.258-.56-1.012-.38-1.692-.944-2.099-1.6a3.26 3.26 0 0 1-.455-2.077 4.05 4.05 0 0 1 .708-1.883c.371-.528.863-.945 1.401-1.124 1.273-.422 2.524-.147 3.322.453.4.3.698.691.815 1.13.119.447.044.921-.266 1.358l-.099.139-.164-.044c-.66-.178-1.125-.115-1.443.046a1.3 1.3 0 0 0-.633.753c-.11.318-.12.66-.056.925.068.286.19.387.259.4l.169.034c.538.112 1.594.33 2.562.14.534-.106 1.02-.334 1.375-.758.354-.424.601-1.074.601-2.073M2.25 24.276l-.38.613c-3.479 5.604-3.072 12.127.295 16.355 3.38 4.245 9.685 6.114 17.86 2.53l-.158-.465c-8.596 2.19-13.713.027-16.253-3.488-2.557-3.538-2.563-8.521-.78-12.086l.061-.122-.07-.117a2 2 0 0 1-.159-.431 9 9 0 0 1-.151-.694 19 19 0 0 1-.193-1.376zm-.329 1.49c.032.224.069.462.11.694.048.259.102.514.162.735.042.157.09.307.147.432C.543 31.323.564 36.44 3.217 40.11c2.349 3.25 6.715 5.312 13.56 4.323-6.507 1.877-11.44.005-14.229-3.498-3.102-3.896-3.607-9.87-.627-15.17ZM32.88 37.002c.79-.94 3.197-2.42 6.672-1.208.795.278 1.725.689 2.743 1.138q.518.23 1.063.467c1.442.626 3.028 1.27 4.68 1.725 3.303.91 6.83 1.052 9.967-1.197l.325.365c-1.047 1.183-4.595 3.321-9.44 2.432-2.197-.404-4.434-1.206-6.548-1.965-.77-.276-1.526-.547-2.256-.79-1.375-.459-2.665-.821-3.837-.96-1.17-.137-2.203-.049-3.075.375zm6.51-.742c-2.305-.804-4.078-.342-5.158.28.653-.111 1.348-.106 2.075-.02 1.222.143 2.55.519 3.933.98.754.25 1.523.527 2.303.807 2.102.754 4.28 1.536 6.434 1.931 1.857.34 3.51.219 4.885-.118-2.003.293-4.033.01-5.954-.52-1.686-.464-3.297-1.12-4.744-1.748q-.56-.243-1.083-.475c-1.011-.447-1.915-.846-2.69-1.117Z"/>
    </g>
    <path fill="#E0D600" fill-rule="evenodd" d="M148.184 43.563c3.231 0 6.035-1.757 7.426-4.33 7.1-1.433 12.43-7.473 12.43-14.707 0-6.917-4.874-12.743-11.509-14.492-.252-4.21-3.893-7.55-8.347-7.55H21.404c-4.455 0-8.096 3.34-8.348 7.55-6.618 1.745-11.485 7.545-11.51 14.44v.105c.027 7.21 5.348 13.224 12.43 14.654 1.392 2.573 4.196 4.33 7.427 4.33zM16.76 37.85l-.684-1.264-1.453-.293c-5.68-1.147-9.941-5.983-9.941-11.766 0-5.53 3.896-10.194 9.206-11.594l2.17-.572.128-2.154c.157-2.63 2.434-4.717 5.217-4.717h126.781c2.783 0 5.06 2.088 5.217 4.717l.128 2.154 2.17.572c5.31 1.4 9.206 6.065 9.206 11.594 0 5.783-4.262 10.62-9.941 11.766l-1.453.293-.684 1.264c-.874 1.616-2.628 2.709-4.643 2.709H21.404c-2.016 0-3.77-1.093-4.644-2.709" clip-rule="evenodd"/>
    <path fill="#EF4B24" fill-rule="evenodd" d="m15.136 36.226.69 1.33a5.27 5.27 0 0 0 4.68 2.847h128.573a5.27 5.27 0 0 0 4.68-2.848l.689-1.329 1.465-.308c5.724-1.205 10.019-6.289 10.019-12.369 0-5.813-3.927-10.717-9.278-12.189l-2.188-.601-.129-2.265a5.267 5.267 0 0 0-5.258-4.958H20.506a5.267 5.267 0 0 0-5.258 4.958l-.13 2.265-2.187.601c-5.352 1.472-9.279 6.376-9.279 12.19 0 6.079 4.296 11.163 10.02 12.368zM12.093 8.313C5.405 10.153.493 16.277.493 23.55c0 7.605 5.371 13.954 12.527 15.461a8.43 8.43 0 0 0 7.486 4.553h128.573a8.43 8.43 0 0 0 7.485-4.553c7.156-1.507 12.528-7.856 12.528-15.46 0-7.273-4.913-13.397-11.6-15.237a8.43 8.43 0 0 0-8.413-7.937H20.506a8.427 8.427 0 0 0-8.413 7.937Z" clip-rule="evenodd"/>
    <path fill="#FF9756" d="m15.825 37.555-.689-1.329-1.465-.308c-5.557-1.17-9.768-5.997-10.008-11.842q-.01.262-.01.527c0 6.08 4.295 11.163 10.018 12.368l1.465.309.69 1.329a5.27 5.27 0 0 0 4.68 2.847h128.587a5.27 5.27 0 0 0 4.68-2.847l.689-1.33 1.465-.308c5.724-1.205 10.019-6.289 10.019-12.368q0-.265-.011-.527c-.239 5.845-4.45 10.672-10.008 11.842l-1.465.308-.689 1.33a5.27 5.27 0 0 1-4.68 2.847H20.506a5.27 5.27 0 0 1-4.68-2.848ZM.492 23.55c0-7.273 4.913-13.397 11.6-15.237A8.427 8.427 0 0 1 20.507.376h128.587a8.426 8.426 0 0 1 8.412 7.937c6.688 1.84 11.601 7.964 11.601 15.236q0 .265-.008.527c-.231-7.04-5.067-12.915-11.593-14.71a8.426 8.426 0 0 0-8.412-7.937H20.506a8.427 8.427 0 0 0-8.413 7.938C5.567 11.16.73 17.037.5 24.076a16 16 0 0 1-.009-.527Z"/>
  </g>
  <defs>
    <clipPath id="a">
      <path fill="#fff" d="M.5.375h169v43H.5z"/>
    </clipPath>
    <path id="b" fill="#FFF400" stroke="#FAEAAD" d="m13.955 38.525-.23-.443-.488-.103C6.56 36.573 1.546 30.645 1.546 23.55c0-6.785 4.584-12.503 10.826-14.22l.73-.2.042-.755a7.374 7.374 0 0 1 7.362-6.945h128.573a7.374 7.374 0 0 1 7.361 6.945l.043.755.729.2c6.243 1.717 10.827 7.434 10.827 14.22 0 7.096-5.013 13.024-11.692 14.43l-.488.103-.23.443a7.37 7.37 0 0 1-6.55 3.984H20.506a7.37 7.37 0 0 1-6.55-3.984Z"/>
  </defs>
</svg>
