<svg xmlns="http://www.w3.org/2000/svg" xmlns:xlink="http://www.w3.org/1999/xlink" width="301" height="47" fill="none" viewBox="0 0 301 47">
  <ellipse cx="150" cy="43.192" fill="#000" fill-opacity=".2" rx="136" ry="3"/>
  <path fill="#BF0A00" d="M10.673 37.763C4.813 36.21.494 30.885.494 24.553c0-6.29 4.262-11.588 10.063-13.18.22-3.828 3.403-6.865 7.297-6.865h265.281c3.894 0 7.077 3.037 7.297 6.866 5.801 1.59 10.062 6.888 10.062 13.179 0 6.332-4.318 11.658-10.178 13.21a7.31 7.31 0 0 1-7.181 5.923H17.855a7.306 7.306 0 0 1-7.182-5.923"/>
  <use xlink:href="#a" stroke-width="1.827"/>
  <mask id="b" width="301" height="38" x="0" y="2" maskUnits="userSpaceOnUse" style="mask-type:alpha">
    <use xlink:href="#a" stroke-width="1.827"/>
  </mask>
  <g fill="#F15A2D" fill-rule="evenodd" clip-rule="evenodd" mask="url(#b)">
    <path d="M94.839 23.795c-1.596 1.323-2.47 3.631-1.55 5.584-.603 1.074-1.238 2.894-1.106 4.857.137 2.027 1.094 4.193 3.715 5.828 3.216 2.006 6.965 1.433 10.017.303 2.577-.955 4.693-2.322 5.609-2.913q.254-.167.38-.241c.149-.089.312-.217.486-.361l.195-.164h.001q.182-.155.393-.326c.435-.35.96-.73 1.607-1.02 1.285-.577 3.073-.817 5.606.285q.81.354 1.511.669c.641.286 1.221.546 1.758.77.933.387 1.755.675 2.576.82 1.654.292 3.28.002 5.796-1.125l-.103-.342c-.731.146-1.976.276-3.316.191-1.342-.085-2.76-.386-3.855-1.087-.697-.447-1.365-.977-2.044-1.523l-.148-.118c-.63-.507-1.271-1.023-1.948-1.486-1.462-1.001-3.101-1.766-5.196-1.687-3.301.124-4.966 1.54-6.643 2.964-.435.37-.872.74-1.338 1.09-1.123.84-2.788 1.558-4.481 1.848-1.696.29-3.386.148-4.586-.686-1.486-1.033-2.06-2.64-1.95-4.163.111-1.53.908-2.957 2.14-3.628 1.206-.657 2.543-.443 3.386.246.421.343.714.801.813 1.324a2.2 2.2 0 0 1-.013.873 2.5 2.5 0 0 0-.203-.755 1.93 1.93 0 0 0-.987-.974c-.838-.37-1.943-.206-2.847.386-1.63 1.065-1.762 4.594 1.324 5.842 1.755.71 3.96.508 5.429-.424.737-.469 1.3-1.129 1.514-1.963.204-.793.084-1.717-.461-2.741.989-.584 1.476-1.466 1.515-2.452.042-1.028-.402-2.144-1.209-3.136-1.531-1.877-4.247-1.744-5.7-.346-1.03-.935-2.127-1.33-3.173-1.328-1.084.002-2.1.434-2.914 1.11m5.974.6c-1.008-.962-2.068-1.35-3.059-1.349-.994.003-1.934.398-2.696 1.03-1.535 1.273-2.306 3.454-1.415 5.227l.045.089-.05.086c-.59 1.015-1.236 2.807-1.106 4.733.13 1.913 1.026 3.971 3.547 5.544 3.08 1.922 6.701 1.39 9.718.273 2.533-.939 4.605-2.276 5.533-2.874q.265-.173.4-.254a4 4 0 0 0 .442-.33l.188-.157q.187-.16.404-.335c.446-.36.998-.759 1.682-1.066 1.378-.62 3.267-.855 5.882.283.549.239 1.053.464 1.521.673.636.285 1.208.54 1.743.763.924.385 1.719.66 2.504.8 1.278.225 2.551.09 4.336-.578a15 15 0 0 1-2.039.017c-1.369-.087-2.853-.395-4.018-1.141-.715-.459-1.396-1-2.075-1.544l-.146-.117c-.631-.509-1.263-1.017-1.928-1.472-1.428-.978-2.995-1.702-4.99-1.627-3.173.12-4.738 1.446-6.402 2.858-.444.377-.896.76-1.386 1.127-1.172.878-2.889 1.614-4.629 1.913-1.737.297-3.534.165-4.839-.743-1.603-1.114-2.22-2.852-2.103-4.49.118-1.63.968-3.18 2.325-3.92 1.329-.724 2.816-.493 3.766.283.477.39.822.92.939 1.538.118.62.003 1.314-.414 2.023l-.322-.123c.106-.664.036-1.177-.139-1.559a1.57 1.57 0 0 0-.809-.797c-.707-.312-1.69-.185-2.522.359-1.359.889-1.587 4.049 1.265 5.203 1.657.67 3.747.474 5.118-.396.682-.433 1.174-1.025 1.359-1.748.185-.72.072-1.601-.514-2.629l-.094-.165.165-.087c.992-.524 1.45-1.334 1.486-2.235.037-.913-.358-1.944-1.128-2.889-1.427-1.75-4.012-1.578-5.301-.205l-.119.127z"/>
    <path d="M111.35 24.678c-.909-.553-2.202-.77-3.642-.344l-.281.083.205.216c.385.406.843 1.16.954 2.084.109.915-.12 2.013-1.133 3.128l-.131.144.15.121c.236.192.735.802.757 1.643l.011.403.284-.277c.58-.566 2.378-1.73 4.822-1.73h.117l.045-.112c.133-.333.244-.882.153-1.468a2.47 2.47 0 0 0-.982-1.632c.074-.883-.462-1.732-1.329-2.26m-.177.31c.824.502 1.252 1.275 1.147 2.009l-.016.112.092.063c.59.411.841.948.92 1.453.07.45.002.877-.091 1.164-2.2.034-3.888.963-4.68 1.6a2.77 2.77 0 0 0-.717-1.433c.981-1.147 1.222-2.298 1.105-3.283a4.23 4.23 0 0 0-.856-2.066c1.242-.299 2.331-.083 3.096.381m3.833 3.543c.485-.304 1.117-.472 1.881-.273-.092-.539.079-1.073.399-1.54.386-.564.999-1.048 1.685-1.37.686-.32 1.46-.485 2.177-.39.668.087 1.286.402 1.72 1.02.531-.321 1.101-.304 1.577-.141.512.175.943.529 1.117.855l.132.249-.275.017c-.59.039-1.461.35-2.125 1.164-.66.81-1.132 2.14-.889 4.25l.057.496-.351-.344c-1.095-1.071-3.811-3.073-7.979-2.56l-.32.04.143-.298a2.97 2.97 0 0 1 1.051-1.175m7.665-2.21c-.372-.614-.934-.923-1.568-1.006-.637-.084-1.347.062-1.988.362-.642.3-1.2.748-1.543 1.249-.343.5-.46 1.033-.268 1.535l.143.374-.366-.138c-.799-.302-1.428-.15-1.893.142a2.6 2.6 0 0 0-.747.73c3.739-.346 6.306 1.27 7.573 2.382-.136-1.927.33-3.224 1.012-4.061a3.52 3.52 0 0 1 2.055-1.251 2 2 0 0 0-.746-.46c-.443-.152-.955-.148-1.413.194l-.152.112z"/>
    <path d="M124.212 28.109c2.49-2.02 6.167-.265 6.167 2.934 0 .789-.192 1.354-.51 1.745-.319.39-.747.587-1.179.675-.766.155-1.592-.022-1.967-.103l-.112-.023c-.26-.052-.401-.316-.458-.562a1.65 1.65 0 0 1 .051-.88c.102-.299.3-.584.622-.752.297-.154.679-.199 1.15-.091a.8.8 0 0 0 .074-.588c-.058-.225-.213-.447-.451-.63-.476-.366-1.247-.55-2.047-.277-.294.1-.587.344-.822.686a2.6 2.6 0 0 0-.442 1.205c-.044.438.031.888.273 1.289s.659.766 1.321 1.02c.854.33 1.555.424 2.177.388.624-.036 1.179-.202 1.746-.404q.199-.07.401-.146c1.016-.375 2.12-.782 3.693-.615 1.418.15 2.561.726 3.546 1.222q.269.136.523.26c1.112.537 2.01.823 3.001.2l.525-.33-.278.566c-.229.465-1.098 1.179-2.799.925-.752-.112-1.334-.356-1.885-.587-.22-.092-.434-.182-.652-.26-.771-.279-1.659-.452-3.143-.166-.749.144-1.397.33-1.999.51l-.233.07-.007.003c-.511.154-.997.3-1.483.405-1.136.244-2.281.259-3.845-.353-1.593-.623-2.458-1.956-2.609-3.386a4.5 4.5 0 0 1 1.651-3.95m5.817 2.934c0-2.877-3.325-4.497-5.601-2.65a4.14 4.14 0 0 0-1.519 3.627c.136 1.3.919 2.515 2.385 3.088 1.496.585 2.572.569 3.65.337.471-.1.942-.243 1.454-.398l.242-.073a20 20 0 0 1 2.033-.519c1.546-.297 2.496-.118 3.322.18.248.09.478.186.706.282.536.225 1.058.444 1.766.55.698.104 1.225.032 1.608-.106-.756.086-1.49-.203-2.255-.573q-.265-.13-.539-.267c-.985-.495-2.067-1.039-3.417-1.182-1.491-.158-2.523.221-3.538.595q-.203.075-.407.148c-.576.205-1.167.384-1.84.423-.675.038-1.424-.064-2.32-.41-.721-.277-1.205-.689-1.494-1.168a2.44 2.44 0 0 1-.325-1.517 3 3 0 0 1 .505-1.375c.264-.386.614-.69.997-.82.906-.309 1.797-.108 2.366.33.284.22.497.505.58.826.085.326.031.672-.189.991l-.071.102-.117-.033c-.47-.13-.801-.084-1.027.034a.94.94 0 0 0-.451.55 1.3 1.3 0 0 0-.04.676c.049.209.136.282.184.292l.121.025c.383.081 1.135.241 1.824.101.38-.077.726-.243.979-.553.252-.31.428-.784.428-1.513m-37.536-3.98-.271.448c-2.477 4.092-2.187 8.856.21 11.944 2.407 3.1 6.896 4.465 12.717 1.847l-.112-.34c-6.12 1.6-9.765.02-11.573-2.547-1.82-2.584-1.825-6.223-.555-8.826l.043-.089-.05-.085a1.4 1.4 0 0 1-.113-.316 6 6 0 0 1-.108-.506 14 14 0 0 1-.137-1.005zm-.234 1.089c.022.163.048.336.078.506.034.19.072.375.115.537.03.114.065.224.105.315-1.28 2.7-1.265 6.436.624 9.117 1.673 2.374 4.781 3.88 9.656 3.157-4.634 1.37-8.146.004-10.132-2.555-2.209-2.845-2.568-7.208-.446-11.077m22.043 8.205c.563-.687 2.276-1.768 4.75-.883.567.203 1.229.503 1.954.832q.368.168.757.34c1.026.458 2.156.928 3.331 1.26 2.352.665 4.864.769 7.097-.874l.232.267c-.745.864-3.272 2.425-6.722 1.776-1.564-.295-3.157-.881-4.662-1.435-.549-.202-1.086-.4-1.606-.578-.979-.334-1.898-.599-2.732-.7s-1.569-.036-2.19.274zm4.636-.542c-1.642-.587-2.904-.25-3.673.204a5 5 0 0 1 1.477-.015c.87.105 1.816.38 2.801.716a76 76 0 0 1 1.639.59c1.497.55 3.048 1.121 4.582 1.41a8.1 8.1 0 0 0 3.478-.087c-1.427.215-2.872.008-4.24-.379-1.2-.339-2.347-.818-3.378-1.276l-.771-.348c-.72-.326-1.363-.617-1.915-.815m88.212-12.02c1.596 1.323 2.47 3.631 1.549 5.584.603 1.074 1.239 2.894 1.107 4.857-.137 2.027-1.094 4.193-3.716 5.828-3.216 2.006-6.965 1.433-10.016.303-2.577-.955-4.693-2.322-5.609-2.913q-.255-.167-.38-.241a4 4 0 0 1-.487-.361l-.195-.164a26 26 0 0 0-.393-.326c-.435-.35-.961-.73-1.607-1.02-1.285-.577-3.074-.817-5.607.285q-.808.354-1.51.669c-.641.286-1.221.546-1.758.77-.933.387-1.755.675-2.577.82-1.654.292-3.279.002-5.795-1.125l.102-.342c.732.146 1.977.276 3.316.191 1.343-.085 2.761-.386 3.855-1.087.697-.447 1.366-.977 2.045-1.523l.147-.118c.63-.507 1.272-1.023 1.948-1.486 1.463-1.001 3.102-1.766 5.197-1.687 3.3.124 4.966 1.54 6.642 2.964.436.37.872.74 1.338 1.09 1.124.84 2.788 1.558 4.481 1.848 1.697.29 3.387.148 4.586-.686 1.487-1.033 2.06-2.64 1.95-4.163-.11-1.53-.907-2.957-2.14-3.628-1.205-.657-2.542-.443-3.385.246a2.26 2.26 0 0 0-.814 1.324 2.2 2.2 0 0 0 .014.873q.049-.422.203-.755c.213-.465.565-.787.987-.974.838-.37 1.943-.206 2.847.386 1.629 1.065 1.762 4.594-1.324 5.842-1.755.71-3.961.508-5.429-.424-.738-.469-1.301-1.129-1.514-1.963-.204-.793-.084-1.717.461-2.741-.989-.584-1.476-1.466-1.516-2.452-.041-1.028.402-2.144 1.21-3.136 1.531-1.877 4.247-1.744 5.699-.346 1.031-.935 2.128-1.33 3.174-1.328 1.084.002 2.099.434 2.914 1.11m-5.974.6c1.008-.962 2.067-1.35 3.059-1.349.994.003 1.934.398 2.696 1.03 1.535 1.273 2.306 3.454 1.414 5.227l-.044.089.05.086c.589 1.015 1.236 2.807 1.106 4.733-.129 1.913-1.026 3.971-3.548 5.544-3.08 1.922-6.7 1.39-9.717.273-2.534-.939-4.605-2.276-5.533-2.874q-.265-.173-.4-.254a4 4 0 0 1-.442-.33l-.188-.157q-.187-.16-.404-.335c-.446-.36-.998-.759-1.682-1.066-1.378-.62-3.267-.855-5.882.283-.549.239-1.053.464-1.521.673-.636.285-1.208.54-1.743.763-.925.385-1.719.66-2.505.8-1.278.225-2.55.09-4.335-.578a15 15 0 0 0 2.039.017c1.368-.087 2.853-.395 4.018-1.141.715-.459 1.396-1 2.075-1.544l.145-.117c.632-.509 1.264-1.017 1.929-1.472 1.428-.978 2.995-1.702 4.99-1.627 3.173.12 4.738 1.446 6.402 2.858.444.377.895.76 1.386 1.127 1.172.878 2.888 1.614 4.629 1.913 1.737.297 3.533.165 4.839-.743 1.602-1.114 2.221-2.852 2.103-4.49-.118-1.63-.969-3.18-2.325-3.92-1.329-.724-2.816-.493-3.766.283-.477.39-.822.92-.94 1.538-.117.62-.002 1.314.415 2.023l.322-.123c-.106-.664-.037-1.177.139-1.559.174-.38.459-.642.809-.797.707-.312 1.69-.185 2.522.359 1.359.889 1.587 4.049-1.265 5.203-1.657.67-3.747.474-5.118-.396-.682-.433-1.174-1.025-1.36-1.748-.184-.72-.071-1.601.515-2.629l.093-.165-.164-.087c-.992-.524-1.45-1.334-1.486-2.235-.037-.913.358-1.944 1.128-2.889 1.427-1.75 4.012-1.578 5.301-.205l.119.127z"/>
    <path d="M190.639 24.678c.909-.553 2.202-.77 3.641-.344l.282.083-.205.216a3.8 3.8 0 0 0-.954 2.084c-.109.915.12 2.013 1.133 3.128l.13.144-.149.121c-.236.192-.736.802-.757 1.643l-.011.403-.284-.277c-.58-.566-2.378-1.73-4.823-1.73h-.117l-.044-.112a2.9 2.9 0 0 1-.153-1.468 2.47 2.47 0 0 1 .982-1.632c-.074-.883.461-1.732 1.329-2.26m.177.31c-.824.502-1.252 1.275-1.148 2.009l.016.112-.091.063a2.12 2.12 0 0 0-.92 1.453c-.07.45-.002.877.091 1.164 2.2.034 3.888.963 4.68 1.6.11-.663.457-1.165.717-1.433-.981-1.147-1.223-2.298-1.105-3.283.104-.864.481-1.59.856-2.066-1.243-.299-2.332-.083-3.096.381m-3.833 3.543c-.485-.304-1.117-.472-1.881-.273.092-.539-.079-1.073-.399-1.54-.386-.564-.999-1.048-1.685-1.37-.686-.32-1.461-.485-2.177-.39-.668.087-1.286.402-1.72 1.02-.531-.321-1.102-.304-1.577-.141-.512.175-.943.529-1.117.855l-.132.249.274.017c.591.039 1.462.35 2.126 1.164.66.81 1.132 2.14.889 4.25l-.057.496.351-.344c1.095-1.071 3.811-3.073 7.979-2.56l.32.04-.143-.298a2.97 2.97 0 0 0-1.051-1.175m-7.666-2.21c.373-.614.935-.923 1.568-1.006.638-.084 1.347.062 1.989.362s1.2.748 1.543 1.249c.342.5.46 1.033.268 1.535l-.144.374.366-.138c.8-.302 1.429-.15 1.894.142.329.206.579.484.747.73-3.739-.346-6.306 1.27-7.574 2.382.137-1.927-.329-3.224-1.012-4.061a3.5 3.5 0 0 0-2.054-1.251c.172-.175.434-.354.746-.46.443-.152.954-.148 1.413.194l.151.112z"/>
    <path d="M177.777 28.109c-2.49-2.02-6.167-.265-6.167 2.934 0 .789.191 1.354.51 1.745.319.39.746.587 1.179.675.765.155 1.592-.022 1.967-.103l.111-.023c.261-.052.402-.316.459-.562a1.66 1.66 0 0 0-.051-.88 1.3 1.3 0 0 0-.622-.752c-.297-.154-.679-.199-1.15-.091a.8.8 0 0 1-.075-.588c.059-.225.214-.447.452-.63.475-.366 1.247-.55 2.047-.277.293.1.587.344.821.686.233.34.398.765.443 1.205.044.438-.031.888-.273 1.289s-.659.766-1.321 1.02c-.855.33-1.555.424-2.177.388-.625-.036-1.179-.202-1.746-.404q-.199-.07-.401-.146c-1.017-.375-2.12-.782-3.694-.615-1.417.15-2.56.726-3.545 1.222q-.27.136-.523.26c-1.113.537-2.011.823-3.001.2l-.526-.33.279.566c.229.465 1.098 1.179 2.799.925.752-.112 1.334-.356 1.885-.587.219-.092.434-.182.652-.26.771-.279 1.659-.452 3.143-.166.749.144 1.397.33 1.999.51l.233.07.007.003c.511.154.996.3 1.483.405 1.136.244 2.281.259 3.845-.353 1.593-.623 2.458-1.956 2.608-3.386a4.5 4.5 0 0 0-1.65-3.95m-5.818 2.934c0-2.877 3.325-4.497 5.602-2.65a4.14 4.14 0 0 1 1.519 3.627c-.137 1.3-.919 2.515-2.385 3.088-1.496.585-2.573.569-3.65.337-.472-.1-.942-.243-1.454-.398l-.243-.073a20 20 0 0 0-2.032-.519c-1.546-.297-2.497-.118-3.322.18-.248.09-.479.186-.707.282-.535.225-1.058.444-1.765.55-.698.104-1.225.032-1.609-.106.757.086 1.491-.203 2.256-.573q.265-.13.539-.267c.985-.495 2.067-1.039 3.417-1.182 1.491-.158 2.523.221 3.538.595q.203.075.407.148c.576.205 1.167.384 1.84.423.675.038 1.424-.064 2.319-.41.721-.277 1.206-.689 1.495-1.168a2.43 2.43 0 0 0 .324-1.517 3 3 0 0 0-.504-1.375c-.264-.386-.614-.69-.997-.82-.907-.309-1.797-.108-2.366.33-.285.22-.497.505-.58.826a1.18 1.18 0 0 0 .189.991l.07.102.117-.033c.471-.13.802-.084 1.028.034.227.118.372.32.45.55.079.232.086.483.041.676-.049.209-.136.282-.185.292l-.12.025c-.383.081-1.135.241-1.824.101-.38-.077-.727-.243-.979-.553s-.429-.784-.429-1.513m37.537-3.98.271.448c2.477 4.092 2.187 8.856-.211 11.944-2.406 3.1-6.895 4.465-12.716 1.847l.112-.34c6.121 1.6 9.764.02 11.573-2.547 1.82-2.584 1.825-6.223.555-8.826l-.043-.089.05-.085q.052-.087.113-.316c.039-.147.075-.322.108-.506.065-.367.113-.758.137-1.005zm.234 1.089a13 13 0 0 1-.078.506 7 7 0 0 1-.115.537c-.03.114-.065.224-.105.315 1.28 2.7 1.265 6.436-.624 9.117-1.673 2.374-4.782 3.88-9.656 3.157 4.633 1.37 8.146.004 10.132-2.555 2.209-2.845 2.568-7.208.446-11.077m-22.043 8.205c-.563-.687-2.277-1.768-4.751-.883-.566.203-1.228.503-1.953.832q-.368.168-.757.34c-1.027.458-2.156.928-3.332 1.26-2.352.665-4.863.769-7.097-.874l-.232.267c.746.864 3.273 2.425 6.723 1.776 1.564-.295 3.157-.881 4.662-1.435.549-.202 1.086-.4 1.606-.578.979-.334 1.898-.599 2.732-.7.833-.1 1.569-.036 2.19.274zm-4.636-.542c1.642-.587 2.904-.25 3.673.204a5 5 0 0 0-1.477-.015c-.87.105-1.816.38-2.801.716a76 76 0 0 0-1.639.59c-1.497.55-3.048 1.121-4.582 1.41a8.1 8.1 0 0 1-3.478-.087c1.426.215 2.872.008 4.24-.379 1.2-.339 2.347-.818 3.378-1.276l.771-.348c.719-.326 1.363-.617 1.915-.815"/>
  </g>
  <path fill="#BF0A00" fill-rule="evenodd" d="M283.134 39.686c2.825 0 5.276-1.498 6.493-3.69 6.207-1.22 10.867-6.367 10.867-12.53 0-5.893-4.261-10.857-10.063-12.347-.219-3.587-3.403-6.433-7.297-6.433H17.854c-3.894 0-7.077 2.846-7.297 6.433C4.771 12.605.516 17.548.494 23.422v.09c.023 6.142 4.675 11.266 10.868 12.484 1.217 2.192 3.668 3.69 6.493 3.69zM13.795 34.817l-.598-1.077-1.27-.25c-4.965-.976-8.692-5.096-8.692-10.024 0-4.71 3.407-8.685 8.05-9.878l1.896-.487.113-1.836c.137-2.24 2.128-4.018 4.56-4.018h265.28c2.433 0 4.423 1.778 4.561 4.018l.112 1.835 1.898.488c4.642 1.193 8.048 5.167 8.048 9.878 0 4.928-3.726 9.048-8.691 10.024l-1.271.25-.597 1.077c-.765 1.377-2.298 2.308-4.06 2.308H17.854c-1.761 0-3.295-.931-4.059-2.308" clip-rule="evenodd"/>
  <path fill="#FAEAAD" fill-rule="evenodd" d="m13.197 33.4.598 1.14a4.58 4.58 0 0 0 4.06 2.439h265.28a4.58 4.58 0 0 0 4.059-2.44l.598-1.138 1.271-.265c4.964-1.032 8.69-5.388 8.69-10.596 0-4.98-3.406-9.182-8.048-10.443l-1.897-.516-.113-1.94c-.137-2.368-2.127-4.248-4.56-4.248H17.855c-2.434 0-4.424 1.88-4.562 4.248l-.112 1.94-1.897.516c-4.642 1.26-8.049 5.462-8.049 10.443 0 5.208 3.726 9.564 8.691 10.596zm-2.64-23.914C4.756 11.062.494 16.31.494 22.54c0 6.515 4.66 11.955 10.867 13.246a7.32 7.32 0 0 0 6.493 3.9h265.281a7.32 7.32 0 0 0 6.492-3.9c6.208-1.291 10.867-6.732 10.867-13.246 0-6.23-4.261-11.478-10.062-13.054-.22-3.792-3.403-6.8-7.297-6.8H17.855c-3.895 0-7.078 3.008-7.298 6.8" clip-rule="evenodd"/>
  <path fill="#fff" d="m13.795 34.363-.598-1.133-1.27-.262c-4.822-.998-8.474-5.11-8.682-10.09q-.01.224-.01.449c0 5.18 3.726 9.511 8.691 10.538l1.27.263.599 1.132a4.58 4.58 0 0 0 4.06 2.426h265.287a4.58 4.58 0 0 0 4.06-2.426l.597-1.132 1.271-.263c4.965-1.027 8.691-5.358 8.691-10.538q0-.225-.01-.449c-.207 4.98-3.86 9.092-8.681 10.09l-1.271.262-.597 1.133a4.58 4.58 0 0 1-4.06 2.425H17.854a4.58 4.58 0 0 1-4.06-2.425"/>
  <path fill="#fff" d="M.494 22.43c0-6.196 4.262-11.414 10.063-12.981.22-3.772 3.403-6.763 7.297-6.763h265.288c3.894 0 7.077 2.991 7.297 6.763 5.801 1.567 10.063 6.785 10.063 12.98q0 .225-.008.45c-.2-5.999-4.394-11.004-10.055-12.533-.22-3.771-3.403-6.763-7.297-6.763H17.854c-3.894 0-7.077 2.992-7.297 6.763C4.897 11.875.702 16.88.502 22.878a14 14 0 0 1-.008-.448"/>
  <g style="mix-blend-mode:overlay">
    <ellipse cx="149.704" cy="8.186" fill="url(#c)" rx="42.982" ry="8.5"/>
    <ellipse cx="149.994" cy="4.686" fill="url(#d)" rx="26.985" ry="2.782"/>
  </g>
  <g style="mix-blend-mode:lighten">
    <ellipse cx="149.994" cy="2.906" fill="url(#e)" rx="48.5" ry="3.221"/>
    <ellipse cx="149.994" cy="2.907" fill="url(#f)" rx="26.985" ry="1.792"/>
  </g>
  <defs>
    <radialGradient id="c" cx="0" cy="0" r="1" gradientTransform="matrix(0 8.5 -42.982 0 149.704 8.186)" gradientUnits="userSpaceOnUse">
      <stop stop-color="#fff"/>
      <stop offset=".556" stop-color="#fff" stop-opacity=".26"/>
      <stop offset="1" stop-color="#fff" stop-opacity="0"/>
    </radialGradient>
    <radialGradient id="d" cx="0" cy="0" r="1" gradientTransform="matrix(0 2.78195 -26.985 0 149.994 4.686)" gradientUnits="userSpaceOnUse">
      <stop stop-color="#fff"/>
      <stop offset=".556" stop-color="#fff" stop-opacity=".26"/>
      <stop offset="1" stop-color="#fff" stop-opacity="0"/>
    </radialGradient>
    <radialGradient id="e" cx="0" cy="0" r="1" gradientTransform="matrix(0 3.22055 -48.5 0 149.994 2.906)" gradientUnits="userSpaceOnUse">
      <stop stop-color="#fff"/>
      <stop offset=".556" stop-color="#fff" stop-opacity=".26"/>
      <stop offset="1" stop-color="#fff" stop-opacity="0"/>
    </radialGradient>
    <radialGradient id="f" cx="0" cy="0" r="1" gradientTransform="matrix(0 1.79189 -26.985 0 149.994 2.907)" gradientUnits="userSpaceOnUse">
      <stop stop-color="#fff"/>
      <stop offset=".556" stop-color="#fff" stop-opacity=".26"/>
      <stop offset="1" stop-color="#fff" stop-opacity="0"/>
    </radialGradient>
    <path id="a" fill="#E7352B" stroke="#FAEAAD" d="m12.17 35.36-.2-.381-.422-.088c-5.8-1.206-10.14-6.286-10.14-12.351 0-5.801 3.969-10.7 9.389-12.172l.634-.172.039-.657c.19-3.302 2.967-5.94 6.385-5.94h265.279c3.417 0 6.194 2.638 6.385 5.94l.038.657.635.172c5.42 1.472 9.389 6.37 9.389 12.172 0 6.065-4.34 11.145-10.14 12.351l-.423.088-.2.382a6.41 6.41 0 0 1-5.684 3.411H17.855a6.41 6.41 0 0 1-5.684-3.411Z"/>
  </defs>
</svg>
