<svg xmlns="http://www.w3.org/2000/svg" xmlns:xlink="http://www.w3.org/1999/xlink" width="121" height="45" fill="none" viewBox="0 0 121 45">
  <g clip-path="url(#a)">
    <ellipse cx="59.994" cy="41.89" fill="#000" fill-opacity=".2" rx="43.5" ry="3"/>
    <path fill="#BF0A00" d="M10.673 35.967C4.813 34.415.494 29.089.494 22.757c0-6.29 4.262-11.588 10.063-13.179.22-3.829 3.403-6.866 7.297-6.866h85.28c3.895 0 7.078 3.037 7.298 6.866 5.801 1.59 10.062 6.889 10.062 13.179 0 6.332-4.318 11.658-10.178 13.21a7.31 7.31 0 0 1-7.182 5.923h-85.28a7.306 7.306 0 0 1-7.181-5.923"/>
    <use xlink:href="#b" stroke-width="1.827"/>
    <mask id="c" width="121" height="38" x="0" y="0" maskUnits="userSpaceOnUse" style="mask-type:alpha">
      <use xlink:href="#b" stroke-width="1.827"/>
    </mask>
    <g fill="#F15A2D" fill-rule="evenodd" clip-rule="evenodd" mask="url(#c)">
      <path d="M4.839 22c-1.597 1.322-2.47 3.63-1.55 5.583-.603 1.075-1.238 2.894-1.106 4.857.137 2.027 1.094 4.193 3.715 5.828 3.216 2.006 6.965 1.433 10.016.303 2.578-.954 4.694-2.322 5.61-2.913q.255-.166.38-.241a4 4 0 0 0 .486-.361l.195-.164h.001q.182-.155.393-.326c.434-.35.96-.73 1.607-1.02 1.284-.577 3.073-.817 5.606.285q.809.354 1.51.669c.641.286 1.222.546 1.759.77.933.387 1.755.675 2.576.82 1.654.292 3.28.002 5.796-1.125l-.103-.342c-.732.146-1.976.277-3.316.191-1.342-.085-2.76-.386-3.855-1.087-.697-.447-1.365-.977-2.044-1.523l-.148-.118c-.63-.507-1.271-1.023-1.948-1.486-1.462-1.001-3.102-1.766-5.196-1.687-3.3.124-4.966 1.54-6.643 2.964-.435.37-.872.74-1.338 1.09-1.123.84-2.788 1.558-4.48 1.848-1.697.291-3.388.148-4.587-.686-1.486-1.033-2.06-2.64-1.95-4.163.11-1.53.908-2.956 2.14-3.628 1.205-.657 2.543-.443 3.386.246.42.343.714.801.813 1.325.052.27.052.563-.013.872a2.5 2.5 0 0 0-.203-.755 1.92 1.92 0 0 0-.988-.974c-.837-.37-1.942-.206-2.846.386-1.63 1.065-1.762 4.594 1.324 5.842 1.755.71 3.96.508 5.429-.424.737-.468 1.3-1.129 1.514-1.963.204-.793.083-1.717-.461-2.741.989-.584 1.475-1.466 1.515-2.452.042-1.028-.402-2.144-1.21-3.135-1.53-1.878-4.247-1.744-5.699-.347-1.03-.934-2.127-1.33-3.173-1.328-1.085.002-2.1.434-2.914 1.11m5.974.598c-1.008-.961-2.068-1.35-3.06-1.347-.993.002-1.933.397-2.696 1.03-1.534 1.272-2.305 3.453-1.414 5.226l.045.09-.05.085c-.59 1.015-1.236 2.808-1.106 4.733.129 1.913 1.025 3.971 3.547 5.544 3.08 1.922 6.7 1.39 9.717.273 2.534-.939 4.605-2.276 5.533-2.874q.266-.173.4-.254a3.6 3.6 0 0 0 .442-.33l.189-.157q.187-.16.404-.335c.445-.359.997-.758 1.682-1.066 1.378-.62 3.266-.855 5.882.283.549.239 1.052.464 1.52.673.637.285 1.209.54 1.743.763.925.385 1.72.661 2.505.8 1.278.225 2.551.09 4.335-.578-.61.048-1.31.063-2.038.017-1.369-.087-2.853-.395-4.018-1.141-.715-.459-1.397-1-2.075-1.544l-.146-.117c-.632-.509-1.263-1.017-1.928-1.472-1.428-.977-2.995-1.701-4.99-1.627-3.174.12-4.738 1.447-6.402 2.859-.445.376-.896.759-1.387 1.127-1.171.877-2.888 1.613-4.628 1.912-1.738.298-3.534.165-4.84-.743-1.602-1.114-2.22-2.852-2.102-4.49.118-1.63.968-3.18 2.325-3.919 1.329-.724 2.816-.494 3.766.282.476.39.822.92.94 1.538.117.62.002 1.314-.415 2.023l-.322-.123c.106-.664.036-1.177-.139-1.559a1.57 1.57 0 0 0-.81-.796c-.706-.313-1.69-.186-2.521.358-1.359.889-1.587 4.05 1.264 5.203 1.658.67 3.748.474 5.119-.396.681-.433 1.174-1.025 1.36-1.748.184-.72.07-1.601-.515-2.629l-.094-.165.165-.087c.992-.524 1.45-1.334 1.486-2.235.037-.912-.358-1.944-1.128-2.888-1.427-1.751-4.012-1.58-5.301-.206l-.119.127z"/>
      <path d="M21.35 22.882c-.91-.553-2.202-.77-3.642-.344l-.281.083.204.216c.385.406.844 1.16.955 2.084.109.915-.12 2.013-1.134 3.128l-.13.144.15.121c.236.192.735.802.757 1.643l.01.403.285-.277c.58-.565 2.377-1.73 4.822-1.73h.117l.045-.112c.133-.333.244-.882.153-1.468a2.47 2.47 0 0 0-.982-1.632c.074-.883-.462-1.732-1.33-2.26Zm-.178.31c.825.502 1.252 1.276 1.148 2.009l-.016.112.091.064c.591.41.842.947.92 1.453a2.6 2.6 0 0 1-.09 1.163c-2.2.034-3.888.963-4.68 1.6a2.76 2.76 0 0 0-.718-1.433c.982-1.147 1.223-2.298 1.105-3.283a4.2 4.2 0 0 0-.856-2.066c1.243-.299 2.332-.083 3.096.381m3.834 3.542c.484-.304 1.116-.472 1.88-.273-.091-.538.08-1.073.4-1.54.386-.564.999-1.048 1.684-1.37.687-.32 1.461-.485 2.178-.39.668.087 1.286.402 1.72 1.02.53-.321 1.101-.304 1.577-.141.512.175.943.53 1.116.855l.133.249-.275.018c-.59.038-1.462.349-2.125 1.163-.66.81-1.132 2.14-.89 4.25l.057.496-.35-.344c-1.095-1.071-3.811-3.073-7.98-2.56l-.32.04.143-.298c.159-.33.51-.835 1.052-1.175m7.665-2.209c-.373-.615-.935-.924-1.568-1.007-.638-.084-1.347.062-1.988.362-.642.3-1.2.748-1.544 1.249-.342.5-.46 1.034-.267 1.535l.143.374-.366-.138c-.8-.302-1.428-.15-1.894.142a2.6 2.6 0 0 0-.746.73c3.739-.346 6.305 1.27 7.573 2.382-.136-1.927.33-3.224 1.012-4.061a3.52 3.52 0 0 1 2.055-1.251 2 2 0 0 0-.746-.46c-.443-.152-.955-.148-1.413.194l-.152.112z"/>
      <path d="M34.212 26.313c2.49-2.02 6.167-.265 6.167 2.934 0 .79-.192 1.354-.51 1.745-.319.391-.747.587-1.18.675-.765.155-1.591-.022-1.966-.103l-.112-.023c-.26-.052-.4-.316-.458-.562a1.67 1.67 0 0 1 .05-.88 1.3 1.3 0 0 1 .623-.752c.297-.154.678-.199 1.15-.091.107-.2.123-.4.074-.588-.058-.224-.214-.447-.451-.63-.476-.366-1.247-.55-2.047-.277-.294.1-.588.345-.822.687-.233.34-.398.764-.442 1.204-.045.438.03.888.273 1.289.242.4.659.766 1.32 1.02.855.33 1.556.424 2.178.388.624-.036 1.179-.202 1.746-.404q.2-.07.4-.146c1.017-.375 2.121-.782 3.694-.615 1.418.15 2.56.726 3.546 1.222q.269.136.523.26c1.112.537 2.01.824 3 .2l.526-.33-.278.566c-.23.465-1.098 1.179-2.8.925-.751-.112-1.334-.356-1.884-.587-.22-.092-.434-.182-.652-.26-.771-.279-1.66-.452-3.143-.166a20 20 0 0 0-2 .51l-.232.07-.008.003c-.51.154-.996.301-1.482.405-1.136.245-2.281.259-3.845-.353-1.593-.623-2.459-1.955-2.609-3.386a4.5 4.5 0 0 1 1.651-3.95m5.817 2.934c0-2.877-3.325-4.497-5.601-2.65a4.13 4.13 0 0 0-1.52 3.627c.137 1.3.92 2.515 2.386 3.088 1.496.585 2.572.569 3.65.338.471-.102.942-.244 1.454-.399l.242-.073a20 20 0 0 1 2.033-.519c1.546-.297 2.496-.118 3.322.18.248.09.478.186.706.282.536.225 1.058.444 1.766.55.698.104 1.225.032 1.608-.106-.756.086-1.49-.203-2.255-.573l-.54-.267c-.984-.495-2.066-1.039-3.416-1.182-1.491-.158-2.523.222-3.538.595l-.407.148c-.576.205-1.167.384-1.84.423-.675.039-1.424-.064-2.32-.41-.72-.277-1.205-.689-1.495-1.168a2.43 2.43 0 0 1-.324-1.517 3 3 0 0 1 .505-1.375c.264-.385.614-.69.997-.82.906-.309 1.797-.108 2.366.33.284.22.496.505.58.826.084.326.031.672-.19.991l-.07.102-.117-.032c-.47-.13-.801-.084-1.028.033a.94.94 0 0 0-.45.55 1.3 1.3 0 0 0-.04.676c.048.209.135.282.184.292q.053.01.12.025c.384.081 1.136.241 1.825.101.38-.077.726-.243.979-.553.252-.31.428-.784.428-1.513m-37.537-3.98-.27.448c-2.477 4.092-2.187 8.856.21 11.944 2.407 3.1 6.896 4.465 12.717 1.847l-.113-.34c-6.12 1.6-9.764.02-11.572-2.547-1.82-2.584-1.825-6.223-.556-8.825l.044-.09-.05-.085a1.4 1.4 0 0 1-.113-.315 6 6 0 0 1-.108-.507 14 14 0 0 1-.137-1.005zm-.234 1.089c.023.163.05.337.079.506.033.19.072.376.114.537.03.114.065.224.106.315-1.28 2.7-1.265 6.436.624 9.117 1.672 2.374 4.781 3.88 9.656 3.157-4.634 1.37-8.146.004-10.132-2.554-2.209-2.846-2.568-7.209-.447-11.078m22.043 8.205c.563-.687 2.277-1.768 4.751-.882.566.202 1.229.502 1.953.83q.37.169.757.342c1.027.457 2.156.927 3.332 1.26 2.352.664 4.864.768 7.097-.875l.232.267c-.746.864-3.272 2.425-6.722 1.776-1.564-.295-3.157-.881-4.662-1.435-.549-.202-1.086-.4-1.606-.578-.98-.334-1.898-.599-2.732-.7s-1.57-.036-2.19.274zm4.637-.542c-1.642-.587-2.905-.25-3.673.204.464-.08.96-.077 1.477-.015.87.106 1.816.38 2.8.716.537.184 1.085.385 1.64.59 1.497.55 3.048 1.121 4.581 1.41a8.1 8.1 0 0 0 3.479-.087c-1.427.215-2.872.008-4.24-.379-1.2-.339-2.347-.817-3.378-1.276q-.399-.178-.771-.347c-.72-.327-1.364-.618-1.915-.816M117.15 22c1.596 1.322 2.47 3.63 1.549 5.583.603 1.075 1.239 2.894 1.106 4.857-.137 2.027-1.093 4.193-3.715 5.828-3.216 2.006-6.965 1.433-10.016.303-2.577-.954-4.693-2.322-5.609-2.913q-.255-.166-.38-.241a4 4 0 0 1-.487-.361l-.195-.164q-.183-.155-.393-.326c-.435-.35-.96-.73-1.607-1.02-1.285-.577-3.074-.817-5.607.285q-.809.354-1.51.669c-.641.286-1.222.546-1.758.77-.934.387-1.755.675-2.577.82-1.654.292-3.279.002-5.795-1.125l.102-.342c.732.146 1.977.277 3.316.191 1.342-.085 2.76-.386 3.855-1.087.697-.447 1.365-.977 2.045-1.523l.147-.118c.63-.507 1.272-1.023 1.948-1.486 1.463-1.001 3.102-1.766 5.197-1.687 3.3.124 4.966 1.54 6.642 2.964.436.37.872.74 1.338 1.09 1.123.84 2.788 1.558 4.481 1.848 1.697.291 3.387.148 4.586-.686 1.487-1.033 2.06-2.64 1.95-4.163-.11-1.53-.907-2.956-2.14-3.628-1.205-.657-2.543-.443-3.386.246-.42.343-.714.801-.813 1.325a2.2 2.2 0 0 0 .014.872q.048-.421.203-.755c.213-.465.565-.787.987-.974.838-.37 1.943-.206 2.847.386 1.629 1.065 1.762 4.594-1.324 5.842-1.755.71-3.961.508-5.429-.424-.738-.468-1.301-1.129-1.515-1.963-.203-.793-.083-1.717.462-2.741-.99-.584-1.476-1.466-1.516-2.452-.041-1.028.402-2.144 1.21-3.135 1.531-1.878 4.247-1.744 5.699-.347 1.031-.934 2.128-1.33 3.173-1.328 1.085.002 2.1.434 2.915 1.11m-5.974.598c1.007-.961 2.067-1.35 3.059-1.347.994.002 1.933.397 2.696 1.03 1.535 1.272 2.306 3.453 1.414 5.226l-.045.09.05.085c.59 1.015 1.237 2.808 1.107 4.733-.129 1.913-1.026 3.971-3.548 5.544-3.08 1.922-6.7 1.39-9.717.273-2.534-.939-4.605-2.276-5.533-2.874a15 15 0 0 0-.4-.254 4 4 0 0 1-.442-.33l-.188-.157q-.188-.16-.404-.335c-.446-.359-.998-.758-1.683-1.066-1.377-.62-3.266-.855-5.882.283-.549.239-1.052.464-1.52.673-.636.285-1.209.54-1.743.763-.925.385-1.72.661-2.505.8-1.278.225-2.55.09-4.335-.578.61.048 1.311.063 2.039.017 1.368-.087 2.853-.395 4.017-1.141.716-.459 1.397-1 2.076-1.544l.145-.117c.632-.509 1.264-1.017 1.928-1.472 1.428-.977 2.996-1.701 4.99-1.627 3.174.12 4.738 1.447 6.403 2.859.444.376.895.759 1.386 1.127 1.172.877 2.888 1.613 4.629 1.912 1.737.298 3.533.165 4.839-.743 1.602-1.114 2.22-2.852 2.102-4.49-.117-1.63-.968-3.18-2.324-3.919-1.329-.724-2.816-.494-3.767.282a2.62 2.62 0 0 0-.939 1.538c-.117.62-.002 1.314.415 2.023l.321-.123c-.106-.664-.036-1.177.139-1.559.175-.38.46-.642.81-.796.707-.313 1.69-.186 2.522.358 1.358.889 1.587 4.05-1.265 5.203-1.658.67-3.747.474-5.118-.396-.682-.433-1.174-1.025-1.36-1.748-.184-.72-.071-1.601.514-2.629l.094-.165-.165-.087c-.991-.524-1.449-1.334-1.486-2.235-.036-.912.359-1.944 1.129-2.888 1.426-1.751 4.012-1.58 5.301-.206l.118.127z"/>
      <path d="M100.639 22.882c.909-.553 2.202-.77 3.641-.344l.281.083-.204.216a3.8 3.8 0 0 0-.954 2.084c-.11.915.12 2.013 1.133 3.128l.13.144-.15.121c-.236.192-.735.802-.757 1.643l-.01.403-.284-.277c-.58-.565-2.378-1.73-4.823-1.73h-.117l-.044-.112a2.9 2.9 0 0 1-.153-1.468 2.47 2.47 0 0 1 .982-1.632c-.074-.883.461-1.732 1.329-2.26Zm.177.31c-.824.502-1.252 1.276-1.148 2.009l.016.112-.091.064c-.59.41-.842.947-.92 1.453-.07.45-.002.876.09 1.163 2.2.034 3.889.963 4.681 1.6a2.76 2.76 0 0 1 .717-1.433c-.981-1.147-1.223-2.298-1.105-3.283.103-.864.481-1.59.856-2.066-1.243-.299-2.332-.083-3.096.381m-3.833 3.542c-.485-.304-1.117-.472-1.881-.273.092-.538-.08-1.073-.4-1.54-.386-.564-.998-1.048-1.684-1.37-.686-.32-1.46-.485-2.177-.39-.668.087-1.286.402-1.72 1.02-.531-.321-1.102-.304-1.577-.141-.512.175-.944.53-1.117.855l-.133.249.275.018c.59.038 1.462.349 2.126 1.163.66.81 1.132 2.14.889 4.25l-.057.496.35-.344c1.095-1.071 3.812-3.073 7.98-2.56l.32.04-.143-.298a3 3 0 0 0-1.052-1.175Zm-7.666-2.209c.373-.615.935-.924 1.568-1.007.638-.084 1.347.062 1.989.362.641.3 1.2.748 1.543 1.249.342.5.46 1.034.268 1.535l-.144.374.366-.138c.8-.302 1.428-.15 1.894.142.328.206.579.484.746.73-3.738-.346-6.305 1.27-7.573 2.382.137-1.927-.33-3.224-1.012-4.061a3.52 3.52 0 0 0-2.055-1.251 2 2 0 0 1 .747-.46c.442-.152.954-.148 1.413.194l.151.112.1-.163Z"/>
      <path d="M87.776 26.313c-2.49-2.02-6.166-.265-6.166 2.934 0 .79.191 1.354.51 1.745.318.391.746.587 1.179.675.765.155 1.592-.022 1.967-.103l.111-.023c.26-.052.401-.316.459-.562a1.66 1.66 0 0 0-.051-.88 1.3 1.3 0 0 0-.623-.752c-.296-.154-.678-.199-1.15-.091a.8.8 0 0 1-.074-.588c.058-.224.214-.447.452-.63.475-.366 1.247-.55 2.047-.277.293.1.587.345.821.687.233.34.398.764.443 1.204a2.06 2.06 0 0 1-.274 1.289c-.242.4-.658.766-1.32 1.02-.855.33-1.555.424-2.178.388-.624-.036-1.178-.202-1.746-.404l-.4-.146c-1.017-.375-2.12-.782-3.694-.615-1.417.15-2.56.726-3.546 1.222q-.268.136-.523.26c-1.112.537-2.01.824-3 .2l-.526-.33.279.566c.229.465 1.098 1.179 2.799.925.751-.112 1.334-.356 1.885-.587.22-.092.434-.182.652-.26.77-.279 1.659-.452 3.143-.166.749.144 1.397.33 1.999.51l.232.07.008.003c.51.154.996.301 1.482.405 1.137.245 2.281.259 3.845-.353 1.594-.623 2.459-1.955 2.61-3.386a4.5 4.5 0 0 0-1.652-3.95m-5.817 2.934c0-2.877 3.325-4.497 5.601-2.65a4.13 4.13 0 0 1 1.52 3.627c-.137 1.3-.92 2.515-2.385 3.088-1.496.585-2.573.569-3.65.338a19 19 0 0 1-1.454-.399l-.243-.073a20 20 0 0 0-2.032-.519c-1.547-.297-2.497-.118-3.322.18-.248.09-.479.186-.707.282-.535.225-1.058.444-1.765.55-.699.104-1.225.032-1.609-.106.757.086 1.49-.203 2.256-.573q.265-.13.538-.267c.986-.495 2.067-1.039 3.418-1.182 1.49-.158 2.523.222 3.538.595q.202.075.407.148c.576.205 1.167.384 1.84.423.675.039 1.423-.064 2.32-.41.72-.277 1.204-.689 1.494-1.168.289-.478.375-1.01.324-1.517a3 3 0 0 0-.504-1.375c-.265-.385-.614-.69-.998-.82-.906-.309-1.797-.108-2.365.33-.285.22-.497.505-.58.826-.085.326-.032.672.189.991l.07.102.117-.032c.47-.13.801-.084 1.028.033s.372.32.45.55c.08.232.086.483.04.676-.048.209-.135.282-.184.292l-.12.025c-.383.081-1.135.241-1.825.101-.38-.077-.726-.243-.978-.553-.253-.31-.429-.784-.429-1.513m37.537-3.98.271.448c2.477 4.092 2.187 8.856-.211 11.944-2.406 3.1-6.896 4.465-12.717 1.847l.113-.34c6.12 1.6 9.764.02 11.573-2.547 1.82-2.584 1.824-6.223.555-8.825l-.044-.09.051-.085q.051-.087.113-.315c.039-.148.075-.323.108-.507.065-.367.113-.758.137-1.005zm.234 1.089c-.022.163-.049.337-.079.506-.033.19-.071.376-.114.537-.03.114-.065.224-.105.315 1.279 2.7 1.264 6.436-.625 9.117-1.672 2.374-4.781 3.88-9.655 3.157 4.633 1.37 8.145.004 10.132-2.554 2.208-2.846 2.568-7.209.446-11.078m-22.043 8.205c-.563-.687-2.277-1.768-4.75-.882-.567.202-1.23.502-1.954.83q-.369.169-.757.342c-1.027.457-2.156.927-3.332 1.26-2.352.664-4.863.768-7.097-.875l-.232.267c.746.864 3.272 2.425 6.723 1.776 1.564-.295 3.156-.881 4.661-1.435.55-.202 1.087-.4 1.607-.578.979-.334 1.897-.599 2.731-.7s1.57-.036 2.19.274zm-4.636-.542c1.641-.587 2.904-.25 3.673.204a5 5 0 0 0-1.477-.015c-.87.106-1.816.38-2.801.716-.537.184-1.084.385-1.64.59-1.496.55-3.047 1.121-4.581 1.41a8.1 8.1 0 0 1-3.478-.087c1.426.215 2.872.008 4.24-.379 1.2-.339 2.347-.817 3.377-1.276q.399-.178.771-.347c.72-.327 1.364-.618 1.916-.816"/>
    </g>
    <path fill="#BF0A00" fill-rule="evenodd" d="M103.134 37.89c2.825 0 5.276-1.498 6.493-3.69 6.207-1.22 10.867-6.367 10.867-12.53 0-5.893-4.261-10.857-10.063-12.347-.22-3.587-3.403-6.433-7.297-6.433h-85.28c-3.894 0-7.077 2.846-7.297 6.433C4.77 10.81.516 15.752.494 21.626v.09C.517 27.857 5.17 32.981 11.362 34.2c1.216 2.192 3.667 3.69 6.493 3.69zm-89.339-4.869-.598-1.077-1.27-.25c-4.966-.976-8.692-5.096-8.692-10.023 0-4.712 3.407-8.686 8.049-9.879l1.897-.487.113-1.836c.137-2.24 2.127-4.018 4.56-4.018h85.28c2.433 0 4.423 1.778 4.561 4.018l.112 1.836 1.897.487c4.643 1.193 8.049 5.167 8.049 9.879 0 4.927-3.726 9.047-8.691 10.024l-1.271.25-.598 1.076c-.764 1.377-2.297 2.308-4.059 2.308h-85.28c-1.761 0-3.295-.931-4.059-2.308" clip-rule="evenodd"/>
    <path fill="#FAEAAD" fill-rule="evenodd" d="m13.197 31.605.598 1.138a4.58 4.58 0 0 0 4.06 2.44h85.279a4.58 4.58 0 0 0 4.06-2.44l.598-1.138 1.27-.265c4.965-1.032 8.691-5.388 8.691-10.596 0-4.98-3.406-9.182-8.048-10.443l-1.897-.516-.113-1.94c-.137-2.368-2.128-4.248-4.561-4.248h-85.28c-2.433 0-4.423 1.88-4.56 4.248l-.113 1.94-1.897.516c-4.642 1.26-8.049 5.462-8.049 10.443 0 5.208 3.726 9.564 8.691 10.596l1.27.265ZM10.557 7.69C4.756 9.266.494 14.513.494 20.744c0 6.515 4.66 11.955 10.867 13.246a7.32 7.32 0 0 0 6.493 3.9h85.28a7.32 7.32 0 0 0 6.493-3.9c6.207-1.291 10.867-6.731 10.867-13.246 0-6.23-4.261-11.478-10.062-13.054-.22-3.792-3.403-6.8-7.298-6.8h-85.28c-3.894 0-7.077 3.008-7.297 6.8" clip-rule="evenodd"/>
    <path fill="#fff" d="m13.794 32.567-.597-1.133-1.271-.262c-4.82-.998-8.473-5.11-8.681-10.09q-.01.224-.01.449c0 5.18 3.726 9.511 8.691 10.538l1.27.263.598 1.132a4.58 4.58 0 0 0 4.06 2.426h85.288a4.58 4.58 0 0 0 4.059-2.426l.598-1.132 1.271-.263c4.965-1.027 8.691-5.358 8.691-10.538q0-.225-.01-.449c-.208 4.98-3.86 9.092-8.681 10.09l-1.271.262-.598 1.133a4.58 4.58 0 0 1-4.059 2.426H17.854a4.58 4.58 0 0 1-4.06-2.426"/>
    <path fill="#fff" d="M.494 20.634c0-6.196 4.262-11.414 10.063-12.981C10.777 3.882 13.96.89 17.854.89h85.288c3.894 0 7.077 2.992 7.297 6.763 5.801 1.567 10.063 6.785 10.063 12.98q0 .225-.008.45c-.2-5.998-4.394-11.004-10.055-12.533-.22-3.771-3.403-6.763-7.297-6.763H17.854c-3.894 0-7.077 2.992-7.297 6.763C4.897 10.08.702 15.084.502 21.082a14 14 0 0 1-.008-.448"/>
    <g style="mix-blend-mode:overlay">
      <ellipse cx="59.704" cy="6.39" fill="url(#d)" rx="42.982" ry="8.5"/>
      <ellipse cx="59.994" cy="2.89" fill="url(#e)" rx="26.985" ry="2.782"/>
    </g>
    <g style="mix-blend-mode:lighten">
      <ellipse cx="59.994" cy="1.111" fill="url(#f)" rx="48.5" ry="3.221"/>
      <ellipse cx="59.994" cy="1.111" fill="url(#g)" rx="26.985" ry="1.792"/>
    </g>
  </g>
  <defs>
    <radialGradient id="d" cx="0" cy="0" r="1" gradientTransform="matrix(0 8.5 -42.982 0 59.704 6.39)" gradientUnits="userSpaceOnUse">
      <stop stop-color="#fff"/>
      <stop offset=".556" stop-color="#fff" stop-opacity=".26"/>
      <stop offset="1" stop-color="#fff" stop-opacity="0"/>
    </radialGradient>
    <radialGradient id="e" cx="0" cy="0" r="1" gradientTransform="matrix(0 2.78195 -26.985 0 59.994 2.89)" gradientUnits="userSpaceOnUse">
      <stop stop-color="#fff"/>
      <stop offset=".556" stop-color="#fff" stop-opacity=".26"/>
      <stop offset="1" stop-color="#fff" stop-opacity="0"/>
    </radialGradient>
    <radialGradient id="f" cx="0" cy="0" r="1" gradientTransform="matrix(0 3.22055 -48.5 0 59.994 1.11)" gradientUnits="userSpaceOnUse">
      <stop stop-color="#fff"/>
      <stop offset=".556" stop-color="#fff" stop-opacity=".26"/>
      <stop offset="1" stop-color="#fff" stop-opacity="0"/>
    </radialGradient>
    <radialGradient id="g" cx="0" cy="0" r="1" gradientTransform="matrix(0 1.79189 -26.985 0 59.994 1.11)" gradientUnits="userSpaceOnUse">
      <stop stop-color="#fff"/>
      <stop offset=".556" stop-color="#fff" stop-opacity=".26"/>
      <stop offset="1" stop-color="#fff" stop-opacity="0"/>
    </radialGradient>
    <clipPath id="a">
      <path fill="#fff" d="M.494.89h120v44h-120z"/>
    </clipPath>
    <path id="b" fill="#E7352B" stroke="#FAEAAD" d="m12.17 33.565-.2-.382-.422-.088c-5.8-1.206-10.14-6.286-10.14-12.351 0-5.801 3.968-10.7 9.389-12.172l.634-.172.038-.657c.192-3.302 2.968-5.94 6.386-5.94h85.279c3.417 0 6.194 2.638 6.385 5.94l.038.657.635.172c5.42 1.472 9.389 6.371 9.389 12.172 0 6.065-4.34 11.145-10.14 12.351l-.423.088-.2.382a6.41 6.41 0 0 1-5.684 3.411h-85.28a6.41 6.41 0 0 1-5.683-3.411Z"/>
  </defs>
</svg>
