<svg xmlns="http://www.w3.org/2000/svg" width="15" height="16" fill="none" viewBox="0 0 15 16">
  <path fill="#99A5B2" fill-rule="evenodd" d="M6.654 5.407a2.48 2.48 0 1 0 4.96 0 2.48 2.48 0 0 0-4.96 0m6.99 6.54a3.184 3.184 0 0 0-3.183-3.184H7.808a3.184 3.184 0 0 0-3.184 3.184c0 .586.475 1.061 1.061 1.061h6.898c.586 0 1.061-.475 1.061-1.061m-9.55-4.033a1.751 1.751 0 1 1 0-3.502 1.751 1.751 0 0 1 0 3.502m1.273.584q.205 0 .398.042a3.86 3.86 0 0 0-1.753 2.505H1.546a.637.637 0 0 1-.636-.637 1.91 1.91 0 0 1 1.91-1.91z" clip-rule="evenodd"/>
</svg>
