<svg width="250" height="137" viewBox="0 0 250 137" fill="none" xmlns="http://www.w3.org/2000/svg">
<path d="M22.384 46.384C7.472 46.384 0.88 35.184 0.88 23.6C0.88 12.016 8.24 0.815998 23.152 0.815998C29.744 0.815998 35.312 3.056 38.832 6.64L34.48 10.736C32.304 6.96 28.4 4.272 23.152 4.272C12.784 4.272 8.944 14.064 8.944 23.6C8.944 36.848 15.28 42.928 22.704 42.928C26.032 42.928 29.488 41.648 32.496 39.28V27.76H19.632L20.464 23.856H39.344V40.304C35.44 43.248 30.192 46.384 22.384 46.384ZM71.02 30.704C68.716 23.984 66.156 17.136 63.596 10.736C61.356 16.816 58.668 23.984 56.364 30.704H71.02ZM44.14 46C49.836 32.304 56.428 17.712 61.164 4.848C60.588 3.568 60.076 2.352 59.436 1.2H67.884C71.66 12.272 79.596 34.352 84.588 46H76.076C74.988 42.48 73.772 38.64 72.428 34.672H55.084C53.74 38.768 52.588 42.736 51.884 46H44.14ZM88.1615 46C88.9295 30.96 88.8655 15.92 88.0975 1.2H96.0335C95.5215 14.768 95.5855 28.656 95.9695 42.096C102.946 42.032 110.05 41.2 115.554 39.728L114.914 46H88.1615ZM119.786 46C120.555 30.96 120.491 15.92 119.723 1.2H127.659C127.147 14.768 127.211 28.656 127.595 42.096C134.571 42.032 141.675 41.2 147.179 39.728L146.539 46H119.786ZM159.156 42.032C166.068 42.032 173.236 41.776 178.804 40.048L178.036 46H151.348C152.052 30.896 152.052 15.92 151.348 1.2H176.948L177.524 6.832C171.892 5.552 165.748 5.168 159.156 5.168C158.964 9.072 158.9 14.64 158.836 20.464H172.788L172.02 24.368H158.9C158.9 31.088 159.028 37.68 159.156 42.032ZM184.91 46C185.678 30.96 185.678 15.92 184.91 1.2H195.214C204.366 1.2 212.622 2.928 212.622 12.656C212.622 19.44 206.67 23.344 202.318 24.048C210.446 25.904 212.43 43.056 220.942 43.504V45.616C210.062 48.56 207.182 41.328 203.278 34.672C200.078 29.232 198.35 25.2 192.526 25.2C192.59 31.024 192.718 40.24 192.91 46H184.91ZM195.662 21.488C200.27 21.488 205.518 20.144 205.518 13.296C205.518 6.448 200.27 4.912 195.662 4.912H192.782C192.59 11.568 192.526 14.832 192.526 21.488H195.662ZM229.172 46C229.492 39.408 229.684 31.6 229.684 24.816C225.396 16.88 220.66 8.24 215.86 1.2H225.396C227.7 5.872 231.348 13.68 234.356 18.736C237.364 13.68 240.564 6.64 243.188 1.2H249.908C245.812 7.408 240.692 16.688 236.724 24.304C236.724 31.216 236.852 39.344 237.044 46H229.172Z" fill="url(#paint0_linear_2045_2385)"/>
<path d="M22.384 46.384C7.472 46.384 0.88 35.184 0.88 23.6C0.88 12.016 8.24 0.815998 23.152 0.815998C29.744 0.815998 35.312 3.056 38.832 6.64L34.48 10.736C32.304 6.96 28.4 4.272 23.152 4.272C12.784 4.272 8.944 14.064 8.944 23.6C8.944 36.848 15.28 42.928 22.704 42.928C26.032 42.928 29.488 41.648 32.496 39.28V27.76H19.632L20.464 23.856H39.344V40.304C35.44 43.248 30.192 46.384 22.384 46.384ZM71.02 30.704C68.716 23.984 66.156 17.136 63.596 10.736C61.356 16.816 58.668 23.984 56.364 30.704H71.02ZM44.14 46C49.836 32.304 56.428 17.712 61.164 4.848C60.588 3.568 60.076 2.352 59.436 1.2H67.884C71.66 12.272 79.596 34.352 84.588 46H76.076C74.988 42.48 73.772 38.64 72.428 34.672H55.084C53.74 38.768 52.588 42.736 51.884 46H44.14ZM88.1615 46C88.9295 30.96 88.8655 15.92 88.0975 1.2H96.0335C95.5215 14.768 95.5855 28.656 95.9695 42.096C102.946 42.032 110.05 41.2 115.554 39.728L114.914 46H88.1615ZM119.786 46C120.555 30.96 120.491 15.92 119.723 1.2H127.659C127.147 14.768 127.211 28.656 127.595 42.096C134.571 42.032 141.675 41.2 147.179 39.728L146.539 46H119.786ZM159.156 42.032C166.068 42.032 173.236 41.776 178.804 40.048L178.036 46H151.348C152.052 30.896 152.052 15.92 151.348 1.2H176.948L177.524 6.832C171.892 5.552 165.748 5.168 159.156 5.168C158.964 9.072 158.9 14.64 158.836 20.464H172.788L172.02 24.368H158.9C158.9 31.088 159.028 37.68 159.156 42.032ZM184.91 46C185.678 30.96 185.678 15.92 184.91 1.2H195.214C204.366 1.2 212.622 2.928 212.622 12.656C212.622 19.44 206.67 23.344 202.318 24.048C210.446 25.904 212.43 43.056 220.942 43.504V45.616C210.062 48.56 207.182 41.328 203.278 34.672C200.078 29.232 198.35 25.2 192.526 25.2C192.59 31.024 192.718 40.24 192.91 46H184.91ZM195.662 21.488C200.27 21.488 205.518 20.144 205.518 13.296C205.518 6.448 200.27 4.912 195.662 4.912H192.782C192.59 11.568 192.526 14.832 192.526 21.488H195.662ZM229.172 46C229.492 39.408 229.684 31.6 229.684 24.816C225.396 16.88 220.66 8.24 215.86 1.2H225.396C227.7 5.872 231.348 13.68 234.356 18.736C237.364 13.68 240.564 6.64 243.188 1.2H249.908C245.812 7.408 240.692 16.688 236.724 24.304C236.724 31.216 236.852 39.344 237.044 46H229.172Z" fill="url(#paint1_linear_2045_2385)" fill-opacity="0.75"/>
<path d="M2.16 123C2.928 107.96 2.928 92.92 2.16 78.2H12.464C21.616 78.2 29.872 79.928 29.872 89.656C29.872 96.44 23.92 100.344 19.568 101.048C27.696 102.904 29.68 120.056 38.192 120.504V122.616C27.312 125.56 24.432 118.328 20.528 111.672C17.328 106.232 15.6 102.2 9.776 102.2C9.84 108.024 9.968 117.24 10.16 123H2.16ZM12.912 98.488C17.52 98.488 22.768 97.144 22.768 90.296C22.768 83.448 17.52 81.912 12.912 81.912H10.032C9.84 88.568 9.776 91.832 9.776 98.488H12.912ZM56.44 136.504C54.008 136.504 52.536 135.032 52.536 132.6C52.536 130.104 54.008 128.632 56.44 128.632C58.936 128.632 60.408 130.104 60.408 132.6C60.408 135.032 58.936 136.504 56.44 136.504ZM56.504 123.192C44.088 123.192 38.904 117.368 39.032 105.592C39.16 95.992 39.032 87.608 38.52 78.2H46.52C46.136 87.736 46.072 96.184 46.136 105.656C46.2 112.312 46.392 119.416 56.504 119.416C66.552 119.416 66.68 112.312 66.808 105.656C66.872 96.184 66.744 87.736 66.424 78.2H68.664C73.08 78.2 74.424 75 74.424 71.864H80.12C80.12 75.768 78.136 79.032 74.232 80.44C73.848 88.952 73.72 96.76 73.848 105.592C73.976 117.368 68.792 123.192 56.504 123.192ZM102.067 123.384C87.411 123.384 80.755 113.464 80.755 100.6C80.755 88.376 88.051 77.816 102.003 77.816C108.659 77.816 113.779 80.056 117.235 83.64L113.587 88.312C110.259 83.64 107.251 81.272 102.003 81.272C92.019 81.272 88.947 91.064 88.947 100.6C88.947 110.072 91.891 119.864 102.515 119.864C107.443 119.864 111.347 117.368 114.419 113.976L117.555 117.56C114.099 121.08 108.979 123.384 102.067 123.384ZM138.035 123C138.803 107.96 138.803 92.92 138.035 78.2H148.339C157.491 78.2 165.747 79.928 165.747 89.656C165.747 96.44 159.795 100.344 155.443 101.048C163.571 102.904 165.555 120.056 174.067 120.504V122.616C163.187 125.56 160.307 118.328 156.403 111.672C153.203 106.232 151.475 102.2 145.651 102.2C145.715 108.024 145.843 117.24 146.035 123H138.035ZM148.787 98.488C153.395 98.488 158.643 97.144 158.643 90.296C158.643 83.448 153.395 81.912 148.787 81.912H145.907C145.715 88.568 145.651 91.832 145.651 98.488H148.787ZM187.085 72.888C189.197 67.448 193.293 65.976 197.517 68.088C200.525 69.624 203.149 70.328 205.069 66.68L207.309 68.216C204.557 74.744 201.037 75.128 196.877 73.272C193.165 71.544 191.053 71.096 189.005 74.36L187.085 72.888ZM197.261 123.384C182.349 123.384 175.693 112.184 175.693 100.6C175.693 89.016 182.349 77.816 197.261 77.816C199.885 77.816 202.317 78.2 204.429 78.84C208.525 78.648 209.805 75.576 209.805 72.504H215.501C215.501 76.472 213.453 79.8 209.421 81.144C215.821 85.304 218.765 92.856 218.765 100.6C218.765 112.184 212.109 123.384 197.261 123.384ZM197.261 119.864C207.949 119.864 210.893 109.24 210.893 100.6C210.893 91.896 207.949 81.272 197.261 81.272C186.893 81.272 183.629 91.256 183.629 100.6C183.629 109.24 186.573 119.864 197.261 119.864Z" fill="url(#paint2_linear_2045_2385)"/>
<defs>
<linearGradient id="paint0_linear_2045_2385" x1="-2" y1="62" x2="377" y2="62" gradientUnits="userSpaceOnUse">
<stop stop-color="#525861"/>
<stop offset="1" stop-color="#97A1A7"/>
</linearGradient>
<linearGradient id="paint1_linear_2045_2385" x1="98.551" y1="19.8182" x2="168.362" y2="64.3889" gradientUnits="userSpaceOnUse">
<stop offset="0.0940377" stop-color="white" stop-opacity="0"/>
<stop offset="0.292723" stop-color="white"/>
<stop offset="0.724446" stop-color="white" stop-opacity="0.775341"/>
<stop offset="1" stop-color="white" stop-opacity="0"/>
</linearGradient>
<linearGradient id="paint2_linear_2045_2385" x1="-2" y1="62" x2="377" y2="62" gradientUnits="userSpaceOnUse">
<stop stop-color="#F8E7BF"/>
<stop offset="1" stop-color="#B8823C"/>
</linearGradient>
</defs>
</svg>
