<svg width="577" height="105" viewBox="0 0 577 105" fill="none" xmlns="http://www.w3.org/2000/svg">
<path d="M0.941406 39C1.90141 30.08 2.74141 19.12 3.30141 11H8.86141L16.6214 32.32L24.0214 11H29.5414C30.0614 19.16 31.1414 31.28 31.9814 39H26.8214C26.6214 31.16 25.9014 21.32 25.4614 16.2H25.1414L17.1814 39H14.7814L6.10141 16.2H5.86141C5.34141 21.84 5.10141 32.52 4.94141 39H0.941406ZM49.2205 47.44C47.7005 47.44 46.7805 46.52 46.7805 45C46.7805 43.44 47.7005 42.52 49.2205 42.52C50.7805 42.52 51.7005 43.44 51.7005 45C51.7005 46.52 50.7805 47.44 49.2205 47.44ZM47.4205 3.2H51.0605L55.3005 9.04H52.1005L49.2205 5.4L46.3405 9.04H43.2205L47.4205 3.2ZM49.2605 39.24C39.9405 39.24 35.7805 32.24 35.7805 25C35.7805 17.76 39.9405 10.76 49.2605 10.76C58.5405 10.76 62.7005 17.76 62.7005 25C62.7005 32.24 58.5405 39.24 49.2605 39.24ZM49.2605 37.04C55.9405 37.04 57.7805 30.4 57.7805 25C57.7805 19.56 55.9405 12.92 49.2605 12.92C42.7805 12.92 40.7405 19.16 40.7405 25C40.7405 30.4 42.5805 37.04 49.2605 37.04ZM72.0467 39C72.4467 30.52 72.5267 21.88 72.1667 13.56C69.3267 13.68 66.5267 14 64.0867 14.56L64.4867 11H84.6067L85.0067 14.56C82.4867 14 79.8067 13.68 76.9667 13.56C76.6867 22 76.7667 30.6 77.0467 39H72.0467ZM119.066 11C118.706 20.36 118.786 29.72 119.066 39H114.146C114.346 34.32 114.466 30.04 114.466 25.8H102.786C102.826 30 102.906 34.24 103.066 39H98.0258C98.5458 29.56 98.5458 20.2 98.0258 11H103.066C102.906 15.44 102.826 19.44 102.786 23.36H114.466C114.466 19.4 114.346 15.36 114.146 11H119.066ZM128.796 3.2H133.316L137.156 9.04H133.836L128.796 3.2ZM138.876 29.44C137.436 25.24 135.836 20.96 134.236 16.96C132.836 20.76 131.156 25.24 129.716 29.44H138.876ZM122.076 39C125.636 30.44 129.756 21.32 132.716 13.28C132.356 12.48 132.036 11.72 131.636 11H136.916C139.276 17.92 144.236 31.72 147.356 39H142.036C141.356 36.8 140.596 34.4 139.756 31.92H128.916C128.076 34.48 127.356 36.96 126.916 39H122.076ZM149.989 39C150.429 30.64 150.469 22.2 150.109 13.68L148.349 11H154.789L168.589 32.4C168.749 25.4 168.629 18.12 168.269 11H171.989C171.669 20.24 171.629 29.6 171.989 39H167.709C163.309 31.84 158.549 24.32 153.589 17.56C153.469 24.4 153.669 32.08 153.949 39H149.989ZM198.245 11C197.885 20.36 197.965 29.72 198.245 39H193.325C193.525 34.32 193.645 30.04 193.645 25.8H181.965C182.005 30 182.085 34.24 182.245 39H177.205C177.725 29.56 177.725 20.2 177.205 11H182.245C182.085 15.44 182.005 19.44 181.965 23.36H193.645C193.645 19.4 193.525 15.36 193.325 11H198.245ZM219.234 39C219.634 30.52 219.714 21.88 219.354 13.56C216.514 13.68 213.714 14 211.274 14.56L211.674 11H231.794L232.194 14.56C229.674 14 226.994 13.68 224.154 13.56C223.874 22 223.954 30.6 224.234 39H219.234ZM235.995 39C236.475 29.6 236.475 20.2 235.995 11H242.435C248.155 11 253.315 12.08 253.315 18.16C253.315 22.4 249.595 24.84 246.875 25.28C251.955 26.44 253.195 37.16 258.515 37.44V38.76C251.715 40.6 249.915 36.08 247.475 31.92C245.475 28.52 244.395 26 240.755 26C240.795 29.64 240.875 35.4 240.995 39H235.995ZM242.715 23.68C245.595 23.68 248.875 22.84 248.875 18.56C248.875 14.28 245.595 13.32 242.715 13.32H240.915C240.795 17.48 240.755 19.52 240.755 23.68H242.715ZM256.81 3.2H261.33L265.17 9.04H261.85L256.81 3.2ZM260.33 39C260.81 29.56 260.81 20.2 260.33 11H265.33C264.97 20.36 265.05 29.72 265.33 39H260.33ZM270.966 39C271.406 30.64 271.446 22.2 271.086 13.68L269.326 11H275.766L289.566 32.4C289.726 25.4 289.606 18.12 289.246 11H292.966C292.646 20.24 292.606 29.6 292.966 39H288.686C284.286 31.84 279.526 24.32 274.566 17.56C274.446 24.4 274.646 32.08 274.926 39H270.966ZM319.222 11C318.862 20.36 318.942 29.72 319.222 39H314.302C314.502 34.32 314.622 30.04 314.622 25.8H302.942C302.982 30 303.062 34.24 303.222 39H298.182C298.702 29.56 298.702 20.2 298.182 11H303.222C303.062 15.44 302.982 19.44 302.942 23.36H314.622C314.622 19.4 314.502 15.36 314.302 11H319.222ZM346.171 39.24C337.011 39.24 332.851 33.04 332.851 25C332.851 17.36 337.411 10.76 346.131 10.76C350.291 10.76 353.491 12.16 355.651 14.4L353.371 17.32C351.291 14.4 349.411 12.92 346.131 12.92C339.891 12.92 337.971 19.04 337.971 25C337.971 30.92 339.811 37.04 346.451 37.04C349.531 37.04 351.971 35.48 353.891 33.36L355.851 35.6C353.691 37.8 350.491 39.24 346.171 39.24ZM369.272 9.04C369.232 6.56 371.992 5.92 371.992 4.08C371.992 2.8 371.232 2.44 370.112 2.4C369.232 2.36 367.912 3.28 367.312 4.12L366.832 1.76C367.992 0.959999 369.552 0.519997 371.032 0.519997C372.792 0.519997 374.832 1.24 374.832 3.76C374.832 6.76 371.472 6.96 371.312 9.04H369.272ZM370.272 39.12C362.512 39.12 359.272 35.48 359.352 28.12C359.432 22.12 359.352 16.88 359.032 11H364.032C363.792 16.96 363.752 22.24 363.792 28.16C363.832 32.32 363.952 36.76 370.272 36.76C376.552 36.76 376.632 32.32 376.712 28.16C376.752 22.24 376.672 16.96 376.472 11H381.432C381.112 16.88 381.032 22.12 381.112 28.12C381.192 35.48 377.952 39.12 370.272 39.12ZM400.048 29.44C398.608 25.24 397.008 20.96 395.408 16.96C394.008 20.76 392.328 25.24 390.888 29.44H400.048ZM383.248 39C386.808 30.44 390.928 21.32 393.888 13.28C393.528 12.48 393.208 11.72 392.808 11H398.088C400.448 17.92 405.408 31.72 408.528 39H403.208C402.528 36.8 401.768 34.4 400.928 31.92H390.088C389.248 34.48 388.528 36.96 388.088 39H383.248ZM440.98 11C440.62 20.36 440.7 29.72 440.98 39H436.06C436.26 34.32 436.38 30.04 436.38 25.8H424.7C424.74 30 424.82 34.24 424.98 39H419.94C420.46 29.56 420.46 20.2 419.94 11H424.98C424.82 15.44 424.74 19.44 424.7 23.36H436.38C436.38 19.4 436.26 15.36 436.06 11H440.98ZM458.87 39.24C449.55 39.24 445.39 32.24 445.39 25C445.39 17.76 449.55 10.76 458.87 10.76C468.15 10.76 472.31 17.76 472.31 25C472.31 32.24 468.15 39.24 458.87 39.24ZM458.87 37.04C465.55 37.04 467.39 30.4 467.39 25C467.39 19.56 465.55 12.92 458.87 12.92C452.39 12.92 450.35 19.16 450.35 25C450.35 30.4 452.19 37.04 458.87 37.04ZM491.298 29.44C489.858 25.24 488.258 20.96 486.658 16.96C485.258 20.76 483.578 25.24 482.138 29.44H491.298ZM474.498 39C478.058 30.44 482.178 21.32 485.138 13.28C484.778 12.48 484.458 11.72 484.058 11H489.338C491.698 17.92 496.658 31.72 499.778 39H494.458C493.778 36.8 493.018 34.4 492.178 31.92H481.338C480.498 34.48 479.778 36.96 479.338 39H474.498ZM519.35 39.16C516.31 39.24 512.47 38.64 510.23 37.56L511.35 33.92C513.39 35.56 516.23 36.68 519.03 36.56C522.55 36.48 524.63 34.92 524.63 31.92C524.63 25.16 510.19 27.12 510.19 17.84C510.19 12.76 514.67 11 519.35 10.8C522.27 10.68 525.55 11.24 527.63 12.2L526.43 15.56C524.43 14.2 521.91 13.36 519.27 13.44C516.83 13.52 514.51 14.52 514.51 17.36C514.51 23.28 528.83 21.84 528.83 31.04C528.83 36.76 524.27 39.04 519.35 39.16ZM537.906 36.52C542.226 36.52 546.706 36.36 550.186 35.28L549.706 39H533.026C533.466 29.56 533.466 20.2 533.026 11H549.026L549.386 14.52C545.866 13.72 542.026 13.48 537.906 13.48C537.786 15.92 537.746 19.4 537.706 23.04H546.426L545.946 25.48H537.746C537.746 29.68 537.826 33.8 537.906 36.52ZM554.442 39C554.882 30.64 554.922 22.2 554.562 13.68L552.802 11H559.242L573.042 32.4C573.202 25.4 573.082 18.12 572.722 11H576.442C576.122 20.24 576.082 29.6 576.442 39H572.162C567.762 31.84 563.002 24.32 558.042 17.56C557.922 24.4 558.122 32.08 558.402 39H554.442Z" fill="url(#paint0_linear_4047_20)"/>
<path d="M0.941406 39C1.90141 30.08 2.74141 19.12 3.30141 11H8.86141L16.6214 32.32L24.0214 11H29.5414C30.0614 19.16 31.1414 31.28 31.9814 39H26.8214C26.6214 31.16 25.9014 21.32 25.4614 16.2H25.1414L17.1814 39H14.7814L6.10141 16.2H5.86141C5.34141 21.84 5.10141 32.52 4.94141 39H0.941406ZM49.2205 47.44C47.7005 47.44 46.7805 46.52 46.7805 45C46.7805 43.44 47.7005 42.52 49.2205 42.52C50.7805 42.52 51.7005 43.44 51.7005 45C51.7005 46.52 50.7805 47.44 49.2205 47.44ZM47.4205 3.2H51.0605L55.3005 9.04H52.1005L49.2205 5.4L46.3405 9.04H43.2205L47.4205 3.2ZM49.2605 39.24C39.9405 39.24 35.7805 32.24 35.7805 25C35.7805 17.76 39.9405 10.76 49.2605 10.76C58.5405 10.76 62.7005 17.76 62.7005 25C62.7005 32.24 58.5405 39.24 49.2605 39.24ZM49.2605 37.04C55.9405 37.04 57.7805 30.4 57.7805 25C57.7805 19.56 55.9405 12.92 49.2605 12.92C42.7805 12.92 40.7405 19.16 40.7405 25C40.7405 30.4 42.5805 37.04 49.2605 37.04ZM72.0467 39C72.4467 30.52 72.5267 21.88 72.1667 13.56C69.3267 13.68 66.5267 14 64.0867 14.56L64.4867 11H84.6067L85.0067 14.56C82.4867 14 79.8067 13.68 76.9667 13.56C76.6867 22 76.7667 30.6 77.0467 39H72.0467ZM119.066 11C118.706 20.36 118.786 29.72 119.066 39H114.146C114.346 34.32 114.466 30.04 114.466 25.8H102.786C102.826 30 102.906 34.24 103.066 39H98.0258C98.5458 29.56 98.5458 20.2 98.0258 11H103.066C102.906 15.44 102.826 19.44 102.786 23.36H114.466C114.466 19.4 114.346 15.36 114.146 11H119.066ZM128.796 3.2H133.316L137.156 9.04H133.836L128.796 3.2ZM138.876 29.44C137.436 25.24 135.836 20.96 134.236 16.96C132.836 20.76 131.156 25.24 129.716 29.44H138.876ZM122.076 39C125.636 30.44 129.756 21.32 132.716 13.28C132.356 12.48 132.036 11.72 131.636 11H136.916C139.276 17.92 144.236 31.72 147.356 39H142.036C141.356 36.8 140.596 34.4 139.756 31.92H128.916C128.076 34.48 127.356 36.96 126.916 39H122.076ZM149.989 39C150.429 30.64 150.469 22.2 150.109 13.68L148.349 11H154.789L168.589 32.4C168.749 25.4 168.629 18.12 168.269 11H171.989C171.669 20.24 171.629 29.6 171.989 39H167.709C163.309 31.84 158.549 24.32 153.589 17.56C153.469 24.4 153.669 32.08 153.949 39H149.989ZM198.245 11C197.885 20.36 197.965 29.72 198.245 39H193.325C193.525 34.32 193.645 30.04 193.645 25.8H181.965C182.005 30 182.085 34.24 182.245 39H177.205C177.725 29.56 177.725 20.2 177.205 11H182.245C182.085 15.44 182.005 19.44 181.965 23.36H193.645C193.645 19.4 193.525 15.36 193.325 11H198.245ZM219.234 39C219.634 30.52 219.714 21.88 219.354 13.56C216.514 13.68 213.714 14 211.274 14.56L211.674 11H231.794L232.194 14.56C229.674 14 226.994 13.68 224.154 13.56C223.874 22 223.954 30.6 224.234 39H219.234ZM235.995 39C236.475 29.6 236.475 20.2 235.995 11H242.435C248.155 11 253.315 12.08 253.315 18.16C253.315 22.4 249.595 24.84 246.875 25.28C251.955 26.44 253.195 37.16 258.515 37.44V38.76C251.715 40.6 249.915 36.08 247.475 31.92C245.475 28.52 244.395 26 240.755 26C240.795 29.64 240.875 35.4 240.995 39H235.995ZM242.715 23.68C245.595 23.68 248.875 22.84 248.875 18.56C248.875 14.28 245.595 13.32 242.715 13.32H240.915C240.795 17.48 240.755 19.52 240.755 23.68H242.715ZM256.81 3.2H261.33L265.17 9.04H261.85L256.81 3.2ZM260.33 39C260.81 29.56 260.81 20.2 260.33 11H265.33C264.97 20.36 265.05 29.72 265.33 39H260.33ZM270.966 39C271.406 30.64 271.446 22.2 271.086 13.68L269.326 11H275.766L289.566 32.4C289.726 25.4 289.606 18.12 289.246 11H292.966C292.646 20.24 292.606 29.6 292.966 39H288.686C284.286 31.84 279.526 24.32 274.566 17.56C274.446 24.4 274.646 32.08 274.926 39H270.966ZM319.222 11C318.862 20.36 318.942 29.72 319.222 39H314.302C314.502 34.32 314.622 30.04 314.622 25.8H302.942C302.982 30 303.062 34.24 303.222 39H298.182C298.702 29.56 298.702 20.2 298.182 11H303.222C303.062 15.44 302.982 19.44 302.942 23.36H314.622C314.622 19.4 314.502 15.36 314.302 11H319.222ZM346.171 39.24C337.011 39.24 332.851 33.04 332.851 25C332.851 17.36 337.411 10.76 346.131 10.76C350.291 10.76 353.491 12.16 355.651 14.4L353.371 17.32C351.291 14.4 349.411 12.92 346.131 12.92C339.891 12.92 337.971 19.04 337.971 25C337.971 30.92 339.811 37.04 346.451 37.04C349.531 37.04 351.971 35.48 353.891 33.36L355.851 35.6C353.691 37.8 350.491 39.24 346.171 39.24ZM369.272 9.04C369.232 6.56 371.992 5.92 371.992 4.08C371.992 2.8 371.232 2.44 370.112 2.4C369.232 2.36 367.912 3.28 367.312 4.12L366.832 1.76C367.992 0.959999 369.552 0.519997 371.032 0.519997C372.792 0.519997 374.832 1.24 374.832 3.76C374.832 6.76 371.472 6.96 371.312 9.04H369.272ZM370.272 39.12C362.512 39.12 359.272 35.48 359.352 28.12C359.432 22.12 359.352 16.88 359.032 11H364.032C363.792 16.96 363.752 22.24 363.792 28.16C363.832 32.32 363.952 36.76 370.272 36.76C376.552 36.76 376.632 32.32 376.712 28.16C376.752 22.24 376.672 16.96 376.472 11H381.432C381.112 16.88 381.032 22.12 381.112 28.12C381.192 35.48 377.952 39.12 370.272 39.12ZM400.048 29.44C398.608 25.24 397.008 20.96 395.408 16.96C394.008 20.76 392.328 25.24 390.888 29.44H400.048ZM383.248 39C386.808 30.44 390.928 21.32 393.888 13.28C393.528 12.48 393.208 11.72 392.808 11H398.088C400.448 17.92 405.408 31.72 408.528 39H403.208C402.528 36.8 401.768 34.4 400.928 31.92H390.088C389.248 34.48 388.528 36.96 388.088 39H383.248ZM440.98 11C440.62 20.36 440.7 29.72 440.98 39H436.06C436.26 34.32 436.38 30.04 436.38 25.8H424.7C424.74 30 424.82 34.24 424.98 39H419.94C420.46 29.56 420.46 20.2 419.94 11H424.98C424.82 15.44 424.74 19.44 424.7 23.36H436.38C436.38 19.4 436.26 15.36 436.06 11H440.98ZM458.87 39.24C449.55 39.24 445.39 32.24 445.39 25C445.39 17.76 449.55 10.76 458.87 10.76C468.15 10.76 472.31 17.76 472.31 25C472.31 32.24 468.15 39.24 458.87 39.24ZM458.87 37.04C465.55 37.04 467.39 30.4 467.39 25C467.39 19.56 465.55 12.92 458.87 12.92C452.39 12.92 450.35 19.16 450.35 25C450.35 30.4 452.19 37.04 458.87 37.04ZM491.298 29.44C489.858 25.24 488.258 20.96 486.658 16.96C485.258 20.76 483.578 25.24 482.138 29.44H491.298ZM474.498 39C478.058 30.44 482.178 21.32 485.138 13.28C484.778 12.48 484.458 11.72 484.058 11H489.338C491.698 17.92 496.658 31.72 499.778 39H494.458C493.778 36.8 493.018 34.4 492.178 31.92H481.338C480.498 34.48 479.778 36.96 479.338 39H474.498ZM519.35 39.16C516.31 39.24 512.47 38.64 510.23 37.56L511.35 33.92C513.39 35.56 516.23 36.68 519.03 36.56C522.55 36.48 524.63 34.92 524.63 31.92C524.63 25.16 510.19 27.12 510.19 17.84C510.19 12.76 514.67 11 519.35 10.8C522.27 10.68 525.55 11.24 527.63 12.2L526.43 15.56C524.43 14.2 521.91 13.36 519.27 13.44C516.83 13.52 514.51 14.52 514.51 17.36C514.51 23.28 528.83 21.84 528.83 31.04C528.83 36.76 524.27 39.04 519.35 39.16ZM537.906 36.52C542.226 36.52 546.706 36.36 550.186 35.28L549.706 39H533.026C533.466 29.56 533.466 20.2 533.026 11H549.026L549.386 14.52C545.866 13.72 542.026 13.48 537.906 13.48C537.786 15.92 537.746 19.4 537.706 23.04H546.426L545.946 25.48H537.746C537.746 29.68 537.826 33.8 537.906 36.52ZM554.442 39C554.882 30.64 554.922 22.2 554.562 13.68L552.802 11H559.242L573.042 32.4C573.202 25.4 573.082 18.12 572.722 11H576.442C576.122 20.24 576.082 29.6 576.442 39H572.162C567.762 31.84 563.002 24.32 558.042 17.56C557.922 24.4 558.122 32.08 558.402 39H554.442Z" fill="url(#paint1_linear_4047_20)" fill-opacity="0.75"/>
<path d="M66.3906 95C67.3506 86.08 68.1906 75.12 68.7506 67H74.3106L82.0706 88.32L89.4706 67H94.9906C95.5106 75.16 96.5906 87.28 97.4306 95H92.2706C92.0706 87.16 91.3506 77.32 90.9106 72.2H90.5906L82.6306 95H80.2306L71.5506 72.2H71.3106C70.7906 77.84 70.5506 88.52 70.3906 95H66.3906ZM114.67 103.44C113.15 103.44 112.23 102.52 112.23 101C112.23 99.44 113.15 98.52 114.67 98.52C116.23 98.52 117.15 99.44 117.15 101C117.15 102.52 116.23 103.44 114.67 103.44ZM112.87 59.2H116.51L120.75 65.04H117.55L114.67 61.4L111.79 65.04H108.67L112.87 59.2ZM114.71 95.24C105.39 95.24 101.23 88.24 101.23 81C101.23 73.76 105.39 66.76 114.71 66.76C123.99 66.76 128.15 73.76 128.15 81C128.15 88.24 123.99 95.24 114.71 95.24ZM114.71 93.04C121.39 93.04 123.23 86.4 123.23 81C123.23 75.56 121.39 68.92 114.71 68.92C108.23 68.92 106.19 75.16 106.19 81C106.19 86.4 108.03 93.04 114.71 93.04ZM137.496 95C137.896 86.52 137.976 77.88 137.616 69.56C134.776 69.68 131.976 70 129.536 70.56L129.936 67H150.056L150.456 70.56C147.936 70 145.256 69.68 142.416 69.56C142.136 78 142.216 86.6 142.496 95H137.496ZM171.075 92.48C177.795 92.48 180.475 87.32 180.475 81.04C180.475 74.64 177.915 69.48 171.075 69.48H168.355C168.155 77.2 168.155 84.88 168.395 92.48H171.075ZM163.475 95C163.955 85.56 163.955 76.2 163.475 67H171.075C179.755 67 185.115 72.2 185.115 81.04C185.115 89.8 179.675 95 171.075 95H163.475ZM189.1 95C189.58 85.56 189.58 76.2 189.1 67H194.1C193.74 76.36 193.82 85.72 194.1 95H189.1ZM216.674 95.16C213.634 95.24 209.794 94.64 207.554 93.56L208.674 89.92C210.714 91.56 213.554 92.68 216.354 92.56C219.874 92.48 221.954 90.92 221.954 87.92C221.954 81.16 207.514 83.12 207.514 73.84C207.514 68.76 211.994 67 216.674 66.8C219.594 66.68 222.874 67.24 224.954 68.2L223.754 71.56C221.754 70.2 219.234 69.36 216.594 69.44C214.154 69.52 211.834 70.52 211.834 73.36C211.834 79.28 226.154 77.84 226.154 87.04C226.154 92.76 221.594 95.04 216.674 95.16ZM240.11 65.04C240.07 62.56 242.83 61.92 242.83 60.08C242.83 58.8 242.07 58.44 240.95 58.4C240.07 58.36 238.75 59.28 238.15 60.12L237.67 57.76C238.83 56.96 240.39 56.52 241.87 56.52C243.63 56.52 245.67 57.24 245.67 59.76C245.67 62.76 242.31 62.96 242.15 65.04H240.11ZM244.95 85.44C243.51 81.24 241.91 76.96 240.31 72.96C238.91 76.76 237.23 81.24 235.79 85.44H244.95ZM228.15 95C231.71 86.44 235.83 77.32 238.79 69.28C238.43 68.48 238.11 67.72 237.71 67H242.99C245.35 73.92 250.31 87.72 253.43 95H248.11C247.43 92.8 246.67 90.4 245.83 87.92H234.99C234.15 90.48 233.43 92.96 232.99 95H228.15ZM256.063 95C256.503 86.64 256.543 78.2 256.183 69.68L254.423 67H260.863L274.663 88.4C274.823 81.4 274.703 74.12 274.343 67H278.063C277.743 76.24 277.703 85.6 278.063 95H273.783C269.383 87.84 264.623 80.32 259.663 73.56C259.543 80.4 259.743 88.08 260.023 95H256.063ZM305.018 95.24C295.858 95.24 291.698 89.04 291.698 81C291.698 73.36 296.258 66.76 304.978 66.76C309.138 66.76 312.338 68.16 314.498 70.4L312.218 73.32C310.138 70.4 308.258 68.92 304.978 68.92C298.738 68.92 296.818 75.04 296.818 81C296.818 86.92 298.658 93.04 305.298 93.04C308.378 93.04 310.818 91.48 312.738 89.36L314.698 91.6C312.538 93.8 309.338 95.24 305.018 95.24ZM328.12 65.04C328.08 62.56 330.84 61.92 330.84 60.08C330.84 58.8 330.08 58.44 328.96 58.4C328.08 58.36 326.76 59.28 326.16 60.12L325.68 57.76C326.84 56.96 328.4 56.52 329.88 56.52C331.64 56.52 333.68 57.24 333.68 59.76C333.68 62.76 330.32 62.96 330.16 65.04H328.12ZM329.12 95.12C321.36 95.12 318.12 91.48 318.2 84.12C318.28 78.12 318.2 72.88 317.88 67H322.88C322.64 72.96 322.6 78.24 322.64 84.16C322.68 88.32 322.8 92.76 329.12 92.76C335.4 92.76 335.48 88.32 335.56 84.16C335.6 78.24 335.52 72.96 335.32 67H340.28C339.96 72.88 339.88 78.12 339.96 84.12C340.04 91.48 336.8 95.12 329.12 95.12ZM358.895 85.44C357.455 81.24 355.855 76.96 354.255 72.96C352.855 76.76 351.175 81.24 349.735 85.44H358.895ZM342.095 95C345.655 86.44 349.775 77.32 352.735 69.28C352.375 68.48 352.055 67.72 351.655 67H356.935C359.295 73.92 364.255 87.72 367.375 95H362.055C361.375 92.8 360.615 90.4 359.775 87.92H348.935C348.095 90.48 347.375 92.96 346.935 95H342.095ZM375.187 103.24C379.588 100.88 379.948 96.64 380.108 91.88C380.308 83.28 380.308 75.32 379.908 67H384.868C384.548 75.32 384.588 83.24 384.628 91.84C384.668 97.88 382.548 103.32 375.907 104.56L375.187 103.24ZM394.566 92.52C398.886 92.52 403.366 92.36 406.846 91.28L406.366 95H389.686C390.126 85.56 390.126 76.2 389.686 67H405.686L406.046 70.52C402.526 69.72 398.686 69.48 394.566 69.48C394.446 71.92 394.406 75.4 394.366 79.04H403.086L402.606 81.48H394.406C394.406 85.68 394.486 89.8 394.566 92.52ZM410.063 95C411.023 86.08 411.863 75.12 412.423 67H417.983L425.743 88.32L433.143 67H438.663C439.183 75.16 440.263 87.28 441.103 95H435.943C435.743 87.16 435.023 77.32 434.583 72.2H434.263L426.303 95H423.903L415.223 72.2H414.983C414.463 77.84 414.223 88.52 414.063 95H410.063ZM445.102 95C446.062 86.08 446.902 75.12 447.462 67H453.022L460.782 88.32L468.182 67H473.702C474.222 75.16 475.302 87.28 476.142 95H470.982C470.782 87.16 470.062 77.32 469.622 72.2H469.302L461.342 95H458.942L450.262 72.2H450.022C449.502 77.84 449.262 88.52 449.102 95H445.102ZM480.741 95C481.221 85.56 481.221 76.2 480.741 67H485.741C485.381 76.36 485.461 85.72 485.741 95H480.741ZM505.536 85.44C504.096 81.24 502.496 76.96 500.896 72.96C499.496 76.76 497.816 81.24 496.376 85.44H505.536ZM488.736 95C492.296 86.44 496.416 77.32 499.376 69.28C499.016 68.48 498.696 67.72 498.296 67H503.576C505.936 73.92 510.896 87.72 514.016 95H508.696C508.016 92.8 507.256 90.4 506.416 87.92H495.576C494.736 90.48 494.016 92.96 493.576 95H488.736Z" fill="url(#paint2_linear_4047_20)"/>
<defs>
<linearGradient id="paint0_linear_4047_20" x1="-317" y1="51" x2="895" y2="51" gradientUnits="userSpaceOnUse">
<stop stop-color="#C9CFD7"/>
<stop offset="1" stop-color="#97A1A7"/>
</linearGradient>
<linearGradient id="paint1_linear_4047_20" x1="4.55101" y1="21.4727" x2="37.6049" y2="117.881" gradientUnits="userSpaceOnUse">
<stop offset="0.0940377" stop-color="white" stop-opacity="0"/>
<stop offset="0.292723" stop-color="white"/>
<stop offset="0.724446" stop-color="white" stop-opacity="0.775341"/>
<stop offset="1" stop-color="white" stop-opacity="0"/>
</linearGradient>
<linearGradient id="paint2_linear_4047_20" x1="-317" y1="51" x2="895" y2="51" gradientUnits="userSpaceOnUse">
<stop stop-color="#F8E7BF"/>
<stop offset="1" stop-color="#B8823C"/>
</linearGradient>
</defs>
</svg>
