<svg xmlns="http://www.w3.org/2000/svg" width="100" height="100" fill="none" viewBox="0 0 100 100">
  <g fill="#2F68DC" fill-rule="evenodd" clip-path="url(#a)" clip-rule="evenodd">
    <path d="m63.608 70.06-3.355 1.938a1.939 1.939 0 0 1-2.899-1.866l1.61-16.59a1.936 1.936 0 0 1 2.73-1.576l15.17 6.901a1.937 1.937 0 0 1 .167 3.443l-3.356 1.938 2.907 5.033a5.813 5.813 0 0 1-10.067 5.813l-2.907-5.034Zm-11.817-8.839 3.356-1.937a1.939 1.939 0 0 0-1.937-3.358l-3.356 1.938a1.937 1.937 0 0 0 1.937 3.357Zm16.781-9.687 3.356-1.938a1.939 1.939 0 0 0-1.938-3.357l-3.355 1.937a1.937 1.937 0 0 0 .472 3.541c.494.134 1.02.07 1.465-.183Zm-9.877-5.485-1.938-3.356a1.937 1.937 0 0 0-3.355 1.937l1.937 3.356a1.937 1.937 0 0 0 3.356-1.937Zm-38.82-12.611V21.812a1.937 1.937 0 1 1 3.875 0v11.625a1.937 1.937 0 1 0 3.875 0V21.813a5.813 5.813 0 0 0-11.625 0v11.625a1.937 1.937 0 1 0 3.875 0Zm0 21.312V41.187a1.937 1.937 0 1 0-3.875 0V54.75a1.937 1.937 0 1 0 3.875 0Z"/>
    <path d="M17.938 28.594h6.78a1.938 1.938 0 0 0 0-3.875h-6.78a1.937 1.937 0 1 0 0 3.875Zm9.687 16.468a5.813 5.813 0 0 1-5.813 5.813h-3.875A1.937 1.937 0 0 1 16 48.937v-7.75a1.937 1.937 0 0 1 1.938-1.937h3.875a5.813 5.813 0 0 1 5.812 5.813Zm-3.875 0a1.937 1.937 0 0 0-1.938-1.937h-1.937V47h1.938a1.937 1.937 0 0 0 1.937-1.938Z"/>
    <path d="M27.625 52.813a5.813 5.813 0 0 1-5.813 5.812h-3.875A1.937 1.937 0 0 1 16 56.687v-7.75A1.937 1.937 0 0 1 17.938 47h3.875a5.813 5.813 0 0 1 5.812 5.813Zm-3.875 0a1.937 1.937 0 0 0-1.938-1.938h-1.937v3.875h1.938a1.937 1.937 0 0 0 1.937-1.938Zm25.186-3.876a5.812 5.812 0 0 0-5.813-5.812h-5.812a5.813 5.813 0 0 0 0 11.625h5.812a5.813 5.813 0 0 0 5.813-5.813ZM78 25.688c0-1.542-.612-3.02-1.703-4.109a5.802 5.802 0 0 0-4.11-1.703H37.313a5.805 5.805 0 0 0-4.11 1.703 5.802 5.802 0 0 0-1.703 4.11c0 1.542.612 3.02 1.703 4.109a5.802 5.802 0 0 0 4.11 1.703h34.874a5.805 5.805 0 0 0 4.11-1.703A5.802 5.802 0 0 0 78 25.687Z"/>
  </g>
  <defs>
    <clipPath id="a">
      <path fill="#fff" d="M0 0h62v62H0z" transform="translate(16 16)"/>
    </clipPath>
  </defs>
</svg>
