<svg xmlns="http://www.w3.org/2000/svg" width="100" height="100" fill="none" viewBox="0 0 100 100">
  <path fill="#2F68DC" d="M33.9 18.913 24 28.95l-3.9-3.954c-1.2-1.217-3-1.217-4.2 0-1.2 1.216-1.2 3.041 0 4.258l6 6.084c.6.609 1.2.913 2.1.913.9 0 1.5-.304 2.1-.913l12-12.168c1.2-1.216 1.2-3.042 0-4.258-1.2-1.217-3-1.217-4.2 0Zm0 21.091L24 50.041l-3.9-3.955c-1.2-1.216-3-1.216-4.2 0-1.2 1.217-1.2 3.042 0 4.26l6 6.083c.6.608 1.2.913 2.1.913.9 0 1.5-.305 2.1-.913l12-12.168c1.2-1.217 1.2-3.042 0-4.258-1.2-1.217-3-1.217-4.2 0Zm-.525 29.406c0 3.64-2.938 6.59-6.563 6.59-3.624 0-6.562-2.95-6.562-6.59 0-3.641 2.938-6.592 6.563-6.592 3.624 0 6.562 2.951 6.562 6.591Zm5.25 0a3.946 3.946 0 0 1 3.938-3.956h31.5A3.946 3.946 0 0 1 78 69.41a3.946 3.946 0 0 1-3.938 3.955h-31.5a3.946 3.946 0 0 1-3.937-3.955ZM46.5 29.864a3.946 3.946 0 0 1 3.938-3.955h23.624A3.946 3.946 0 0 1 78 29.864a3.946 3.946 0 0 1-3.938 3.954H50.439a3.946 3.946 0 0 1-3.938-3.954Zm0 19.772a3.946 3.946 0 0 1 3.938-3.954h23.624A3.946 3.946 0 0 1 78 49.636a3.946 3.946 0 0 1-3.938 3.955H50.439a3.946 3.946 0 0 1-3.938-3.955Z"/>
</svg>
