<svg xmlns="http://www.w3.org/2000/svg" width="100" height="100" fill="none" viewBox="0 0 100 100">
  <path fill="#2F68DC" fill-rule="evenodd" d="M55.57 39.483h16.542v35.62a4.453 4.453 0 0 1-1.316 3.159 4.51 4.51 0 0 1-3.179 1.308H31.654a4.51 4.51 0 0 1-3.178-1.308 4.452 4.452 0 0 1-1.317-3.159V61.4h3.434a7.089 7.089 0 0 0 1.627 7.683 7.204 7.204 0 0 0 10.08 0l9.936-9.767.036-.037a7.112 7.112 0 0 0 1.48-2.251 6.936 6.936 0 0 0 0-5.487 7.112 7.112 0 0 0-1.48-2.25l-.036-.037-9.936-9.768a7.19 7.19 0 0 0-5.04-2.059 7.19 7.19 0 0 0-5.04 2.059 7.105 7.105 0 0 0-2.128 5.067 7.1 7.1 0 0 0 .5 2.616H27.16V25.972c0-1.185.474-2.32 1.317-3.158a4.51 4.51 0 0 1 3.178-1.309h21.668V37.25c0 .592.237 1.16.658 1.579.422.419.994.654 1.59.654ZM35.502 62.288l5.693-5.571H17.459a2.497 2.497 0 0 1-1.75-.713 2.412 2.412 0 0 1-.725-1.72c0-.645.261-1.264.725-1.72a2.497 2.497 0 0 1 1.75-.713h23.736l-5.693-5.572a2.422 2.422 0 0 1-.727-1.727c0-.648.261-1.27.727-1.728a2.507 2.507 0 0 1 1.758-.715h.035a2.507 2.507 0 0 1 1.722.715l9.9 9.732c.226.232.402.505.52.803a2.254 2.254 0 0 1 0 1.85 2.427 2.427 0 0 1-.52.802l-9.9 9.732a2.488 2.488 0 0 1-1.514.704c-.08.008-.162.011-.243.011m-.273-.014a2.518 2.518 0 0 1-1.485-.701 2.409 2.409 0 0 1 0-3.455m1.485 4.156c.09.01.181.014.273.014Zm20.83-31.428V26.71l8.766 8.308h-8.766Z" clip-rule="evenodd"/>
</svg>
