<svg xmlns="http://www.w3.org/2000/svg" width="100" height="100" fill="none" viewBox="0 0 100 100">
  <path fill="#2F68DC" fill-rule="evenodd" d="M55.57 39.483h16.542v35.62a4.45 4.45 0 0 1-1.316 3.159 4.5 4.5 0 0 1-3.179 1.308H31.654a4.5 4.5 0 0 1-3.178-1.308 4.45 4.45 0 0 1-1.317-3.159V61.4h3.434a7.09 7.09 0 0 0 1.627 7.683 7.204 7.204 0 0 0 10.08 0l9.936-9.767.036-.037a7.1 7.1 0 0 0 1.48-2.251 6.94 6.94 0 0 0 0-5.487 7.1 7.1 0 0 0-1.48-2.25l-.036-.037-9.936-9.768a7.2 7.2 0 0 0-5.04-2.059 7.2 7.2 0 0 0-5.04 2.059 7.1 7.1 0 0 0-2.128 5.067 7.1 7.1 0 0 0 .5 2.616H27.16V25.972c0-1.185.474-2.32 1.317-3.158a4.5 4.5 0 0 1 3.178-1.309h21.668V37.25c0 .592.237 1.16.658 1.579s.994.654 1.59.654ZM35.502 62.288l5.693-5.571H17.459a2.5 2.5 0 0 1-1.75-.713 2.4 2.4 0 0 1-.725-1.72c0-.645.261-1.264.725-1.72a2.5 2.5 0 0 1 1.75-.713h23.736l-5.693-5.572a2.42 2.42 0 0 1-.727-1.727c0-.648.261-1.27.727-1.728a2.5 2.5 0 0 1 1.758-.715h.035a2.5 2.5 0 0 1 1.722.715l9.9 9.732c.226.232.402.505.52.803a2.25 2.25 0 0 1 0 1.85 2.4 2.4 0 0 1-.52.802l-9.9 9.732a2.5 2.5 0 0 1-1.514.704q-.12.011-.243.011m-.273-.014a2.52 2.52 0 0 1-1.485-.701 2.41 2.41 0 0 1 0-3.455m1.485 4.156q.135.014.273.014Zm20.83-31.428V26.71l8.766 8.308h-8.766Z" clip-rule="evenodd"/>
</svg>
