<svg xmlns="http://www.w3.org/2000/svg" width="100" height="100" fill="none" viewBox="0 0 100 100">
  <g clip-path="url(#a)">
    <path fill="#2F68DC" d="M82.609 46.87H55.94v-8.007a6.646 6.646 0 0 0-6.639-6.64l-32.984-.011c-3.655-.013-6.64 2.97-6.64 6.626v21.123a6.646 6.646 0 0 0 6.64 6.64h1.23v3.73c0 .658.361 1.255.946 1.566a1.792 1.792 0 0 0 1.84-.087l7.795-5.21h14.87v8.02a6.633 6.633 0 0 0 6.626 6.626H70.81l7.795 5.222a1.792 1.792 0 0 0 1.84.087c.585-.31.945-.907.945-1.566v-3.73h1.23a6.654 6.654 0 0 0 6.652-6.627v-21.11c-.024-3.668-3.008-6.652-6.663-6.652ZM44.825 63.032H27.568c-.348 0-.696.1-.994.299l-5.47 3.655V64.81c0-.982-.796-1.778-1.778-1.778h-3.01c-1.69 0-3.07-1.38-3.07-3.07V38.838c0-1.69 1.38-3.07 3.07-3.07l32.985.012c1.69 0 3.071 1.38 3.071 3.07v21.111a3.077 3.077 0 0 1-3.07 3.071h-4.477Zm40.854 11.6a3.08 3.08 0 0 1-3.083 3.071h-3.009c-.982 0-1.778.796-1.778 1.778v2.176l-5.47-3.668a1.764 1.764 0 0 0-.995-.298H49.612a3.078 3.078 0 0 1-3.071-3.071V66.6h2.748a6.646 6.646 0 0 0 6.639-6.638v-9.549h26.668a3.083 3.083 0 0 1 3.083 3.083v21.136Z"/>
    <path fill="#2F68DC" d="m34.614 56.444-1.221-1.82a8.634 8.634 0 0 1-1.732.177c-4.285 0-7.282-3.108-7.282-7.392 0-4.285 3.086-7.393 7.282-7.393 4.307 0 7.237 3.108 7.237 7.393 0 2.575-1.065 4.728-2.841 6.038l1.998 2.997h-3.441Zm-2.997-4.506-1.266-1.91h3.42l.665 1c1-.822 1.576-2.087 1.576-3.62 0-2.619-1.71-4.528-4.35-4.528-2.643 0-4.419 1.91-4.419 4.529 0 2.597 1.754 4.506 4.374 4.529Zm27.13 18.6 5.86-14.43h2.177l5.838 14.43h-3.041l-.933-2.376h-5.927l-.932 2.376h-3.042Zm5.017-4.995h3.863l-1.931-4.907-1.932 4.907Z"/>
    <path fill="#2F68DC" fill-rule="evenodd" d="M68.755 32.492a9.637 9.637 0 0 1-12.2-1.206 9.723 9.723 0 0 1-1.202-12.245 9.67 9.67 0 0 1 4.336-3.572 9.63 9.63 0 0 1 10.53 2.103 9.73 9.73 0 0 1 2.094 10.568 9.69 9.69 0 0 1-3.558 4.352Zm11.349 16.057a16.994 16.994 0 0 0-4.761-9.452 16.877 16.877 0 0 0-11.956-4.97 16.87 16.87 0 0 0-9.946 3.245v2.722l1.492 5.47v2.985h25.171Z" clip-rule="evenodd"/>
    <path fill="#fff" d="M62.051 26.817v-.268c0-1.148.566-1.824 1.07-2.311.675-.692 1.257-1.164 1.257-1.934 0-.614-.424-1.117-1.305-1.117-.77 0-1.494.582-1.73 1.211l-1.73-.833c.44-1.148 1.636-2.233 3.46-2.233 1.934 0 3.412.959 3.412 2.799 0 1.273-.644 1.918-1.226 2.516-.676.723-1.18 1.226-1.18 1.902v.268h-2.028Zm1.038 3.035a1.025 1.025 0 0 1-1.054-1.054c0-.597.44-1.053 1.054-1.053.613 0 1.053.456 1.053 1.053 0 .598-.44 1.054-1.053 1.054Z"/>
  </g>
  <defs>
    <clipPath id="a">
      <path fill="#fff" d="M0 0h79.57v79.57H0z" transform="translate(9.678 10.753)"/>
    </clipPath>
  </defs>
</svg>
