<svg xmlns="http://www.w3.org/2000/svg" width="100" height="100" fill="none" viewBox="0 0 100 100">
  <path fill="#858585" d="M59.931 23.179v9.538h10.065L59.931 23.18Z"/>
  <path fill="#2F68DC" d="M76.344 37.845H57.351a2.59 2.59 0 0 1-1.825-.75 2.556 2.556 0 0 1-.756-1.814V17.204H29.893c-1.37 0-2.682.54-3.65 1.502a5.111 5.111 0 0 0-1.512 3.627v56.41c0 1.36.544 2.664 1.512 3.626a5.178 5.178 0 0 0 3.65 1.502h41.29c1.369 0 2.682-.54 3.65-1.502a5.111 5.111 0 0 0 1.511-3.626V37.845Zm-16 27.334L52.37 72.87a2.584 2.584 0 0 1-1.832.758 2.597 2.597 0 0 1-1.832-.758l-7.975-7.692c-2.4-2.257 1.24-5.718 3.64-3.462l3.586 3.41V50.23c0-.68.272-1.332.756-1.813a2.59 2.59 0 0 1 3.65 0c.484.48.755 1.133.755 1.813v14.897l3.588-3.41c2.4-2.256 6.012 1.205 3.638 3.462Z"/>
</svg>
