<svg xmlns="http://www.w3.org/2000/svg" width="100" height="100" fill="none" viewBox="0 0 100 100">
  <path fill="#2F68DC" fill-rule="evenodd" d="M47 37.877a16.3 16.3 0 0 1 10.058 3.454 10.42 10.42 0 0 0-2.428 6.7c0 2.326.76 4.475 2.045 6.213h-19.35a10.414 10.414 0 0 0 2.045-6.213 10.42 10.42 0 0 0-2.427-6.7A16.296 16.296 0 0 1 47 37.877Zm-18.092 20.64c7.351 0 13.57 4.846 15.637 11.518.363 1.173.166 2.339-.563 3.327-.728.988-1.783 1.52-3.01 1.52H16.844c-1.227 0-2.283-.532-3.011-1.52-.729-.988-.926-2.154-.563-3.327 2.066-6.672 8.286-11.519 15.637-11.519Zm36.184-18.76a8.275 8.275 0 1 0 0 16.55 8.275 8.275 0 0 0 0-16.55Zm-36.184 0a8.275 8.275 0 1 0 0 16.55 8.275 8.275 0 0 0 0-16.55Zm36.184 18.76c7.352 0 13.571 4.846 15.637 11.518.363 1.173.166 2.339-.562 3.327-.728.988-1.784 1.52-3.011 1.52H53.029c-1.227 0-2.283-.532-3.011-1.52-.728-.988-.925-2.154-.563-3.327 2.067-6.672 8.286-11.519 15.637-11.519ZM47 19.116a8.275 8.275 0 1 1 0 16.55 8.275 8.275 0 0 1 0-16.55Z" clip-rule="evenodd"/>
</svg>
