<svg xmlns="http://www.w3.org/2000/svg" width="100" height="100" fill="none" viewBox="0 0 100 100">
  <path fill="#2F68DC" d="m74.613 77.505-5.269-2.236H31.71l-5.27 2.236a1.076 1.076 0 0 0 .442 2.065h47.311a1.075 1.075 0 0 0 .42-2.065m9.258-56H17.204a1.076 1.076 0 0 0-1.075 1.076v49.462a1.075 1.075 0 0 0 1.075 1.075h66.667a1.075 1.075 0 0 0 1.075-1.075V22.581a1.076 1.076 0 0 0-1.075-1.076M50.538 69.98a2.237 2.237 0 1 1 2.236-2.237 2.25 2.25 0 0 1-2.236 2.236Zm32.258-7.613H43.01V59.57a12.45 12.45 0 0 1 5.118-10.108L53.3 45.7a4.63 4.63 0 0 0 3.688 1.613c2.409 0 4.301-1.42 4.301-3.226s-1.892-3.226-4.3-3.226c-2.151 0-3.861 1.075-4.227 2.624l-5.903 4.3a14.64 14.64 0 0 0-6 11.786v2.796H18.28v-38.71h64.516z"/>
  <path fill="#2F68DC" d="M56.989 58.065v1.075a1.075 1.075 0 0 0 1.075 1.075H79.57a1.075 1.075 0 0 0 1.075-1.075v-1.075a11.83 11.83 0 0 0-8.355-11.312 12.5 12.5 0 0 0 3.161-8.043c0-5.377-4.99-5.377-6.634-5.377s-6.635 0-6.635 5.377a12.5 12.5 0 0 0 3.162 8.043 11.83 11.83 0 0 0-8.355 11.312M21.505 38.71H40.86a1.075 1.075 0 0 0 1.075-1.075V26.882a1.075 1.075 0 0 0-1.075-1.075H21.505a1.075 1.075 0 0 0-1.075 1.075v10.753a1.075 1.075 0 0 0 1.075 1.075m12.237-8.903h.795l1.817 2.032q.558.616 1.011 1.312a11.4 11.4 0 0 1-.086-1.656v-1.688h.688v4.021h-.742l-1.742-2.043a12.5 12.5 0 0 1-1.075-1.344c0 .505.054.99.054 1.656v1.72h-.688zm-2 0h.73v4.021h-.73zm-6.828 0 .666 2.032c.172.505.323 1 .42 1.387q.187-.713.462-1.398l.753-2.021h.742l.688 2.043q.244.673.387 1.376c.118-.44.28-.892.451-1.398l.742-2.021h.753l-1.602 4.021h-.764l-.655-2.097a8.4 8.4 0 0 1-.377-1.312 10 10 0 0 1-.44 1.312l-.807 2.097h-.763l-1.43-4.021z"/>
</svg>
