<svg xmlns="http://www.w3.org/2000/svg" width="28" height="28" fill="none" viewBox="0 0 28 28">
  <rect width="27" height="27" x=".5" y=".5" fill="#fff" rx="13.5"/>
  <path fill="#9A72EF" d="m16.633 10.523 2.561-2.663c-1.392-1.352-3.242-2.2-5.282-2.26v4.013h.052a4.352 4.352 0 0 1 2.669.91Z"/>
  <path fill="#348EF6" d="M13.443 9.62V5.6c-4.275.128-7.72 3.71-7.843 8.156h3.864c.118-2.227 1.835-4.015 3.979-4.135Z"/>
  <path fill="#E45E67" d="M18.44 13.756h3.315a8.54 8.54 0 0 0-2.228-5.553l-2.53 2.63a4.727 4.727 0 0 1 1.442 2.923Z"/>
  <path fill="#33C173" d="M9.461 14.293v-.049h-3.86c.122 4.446 3.567 8.028 7.842 8.156v-3.454c-2.241-.27-3.982-2.249-3.982-4.653Z"/>
  <path fill="#7B55CC" d="m16.46 10.703.173-.18a4.37 4.37 0 0 0-2.668-.91h-.053v.005a4.116 4.116 0 0 1 2.548 1.085Z"/>
  <path fill="#C95058" d="M17.891 13.756h.548a4.728 4.728 0 0 0-1.442-2.922l-.202.21a4.472 4.472 0 0 1 1.096 2.712Z"/>
  <path fill="#0FA656" d="M9.464 14.244c-.003.016-.003.033-.003.049 0 2.402 1.741 4.383 3.982 4.65v-.564c-2.144-.12-3.861-1.905-3.979-4.135Z"/>
  <path fill="#FAB63A" d="M18.465 14.244h-.571a4.805 4.805 0 0 1-.12.831 4.198 4.198 0 0 0-.152 1.939l.002.019c.029.218.063.428.142.635l.162.436c.005.15-.06.278-.223.278h-2.262c-.621 0-.972.024-1.491.008h-.047v.578h-.003v3.43h.2c.565 0 2.57-.224 3.548-.445.328-.08.69-.087 1.017 0 1.125.319 2.236.442 3.453.442.246 0 .359-.295.22-.453-.312-.354-.517-.619-.587-1.333l.005-6.362h-3.293"/>
  <path fill="#F09D3B" d="M18.395 15.084c.002-.011.002-.022.005-.033.008-.046.013-.093.018-.136 0-.003 0-.009.003-.011.01-.093.02-.188.026-.284v-.005c.005-.098.01-.197.01-.295v-.076h-.56a4.68 4.68 0 0 1-.097.725l-.024.106a4.198 4.198 0 0 0-.152 1.939l.003.019c.013.092.026.182.042.27.029.125.063.247.1.367l.123.33.028.069a.227.227 0 0 1-.15.302v.008h-3.868v.597h4.372a.52.52 0 0 0 .509-.529c0-.021-.003-.043-.006-.065v-.003a.576.576 0 0 0-.052-.177l-.04-.063a3.436 3.436 0 0 1-.43-2.162l.064-.498.031-.128c.003-.006.003-.014.005-.02.01-.043.019-.087.027-.13l.013-.117Z"/>
  <rect width="27" height="27" x=".5" y=".5" stroke="#DDECFF" rx="13.5"/>
</svg>
