<svg xmlns="http://www.w3.org/2000/svg" width="101" height="107" fill="none" viewBox="0 0 101 107">
  <g clip-path="url(#a)">
    <path fill="#2C7C17" d="M0 99.999V53.713h8v46.286zm99.428-92H53.714v-8h45.714z"/>
    <path fill="#39A61D" d="M-23.172 77.102 89.677-35.747l22.863 22.864L-.308 99.966z"/>
    <path fill="#fff" d="M62.394 22.723c-1.964 1.963-4.376 1.733-5.94.17l-5.09-5.092 1.563-1.563 4.922 4.921c1.09 1.091 2.218.836 3.018.036.8-.8 1.054-1.927-.037-3.018l-4.921-4.921 1.564-1.564 5.09 5.091c1.565 1.564 1.795 3.976-.169 5.94Zm-7.979 7.979c-2.34 2.34-5.673 2.28-8.012-.06-2.34-2.34-2.4-5.674-.06-8.013 2.339-2.34 5.648-2.255 7.987.085 2.34 2.34 2.425 5.649.085 7.988Zm-1.563-1.564c1.442-1.442 1.333-3.418-.097-4.848-1.43-1.43-3.407-1.54-4.85-.097-1.442 1.442-1.369 3.454.062 4.885 1.43 1.43 3.442 1.503 4.885.06Zm-6.756 9.69-3.345-3.346-7.334-1.733 1.794-1.795 4.68 1.116-1.116-4.68 1.806-1.806 1.733 7.334 3.346 3.346-1.564 1.564Zm-11.861 11.86-7.88-7.879 3.782-3.782c1.176-1.175 3.298-1.503 4.995.194 1.309 1.31 1.406 2.885.836 4.085l4.606 1.043-1.806 1.806-4.388-.994-1.273 1.273 2.691 2.69-1.563 1.564Zm-2.655-5.782 1.964-1.963c.582-.582.666-1.491.012-2.146-.667-.667-1.576-.582-2.158 0l-1.964 1.964 2.146 2.145ZM29.407 55.71c-2.339 2.34-5.672 2.279-8.012-.06-2.34-2.34-2.4-5.674-.06-8.013 2.339-2.34 5.648-2.255 7.988.085 2.34 2.34 2.424 5.648.084 7.988Zm-1.563-1.564c1.442-1.442 1.333-3.418-.097-4.849-1.43-1.43-3.406-1.539-4.849-.096-1.442 1.442-1.37 3.454.06 4.885 1.431 1.43 3.443 1.503 4.886.06Zm-8.469 11.402-7.879-7.88 5.37-5.369 1.479 1.479-3.806 3.806 1.951 1.952 3.576-3.576 1.467 1.466-3.576 3.576 2.982 2.982-1.564 1.564Z"/>
  </g>
  <defs>
    <clipPath id="a">
      <path fill="#fff" d="M0 0h106.286v100.571H0z" transform="rotate(-90 53.143 53.143)"/>
    </clipPath>
  </defs>
</svg>
