<svg xmlns="http://www.w3.org/2000/svg" width="186" height="176" fill="none" viewBox="0 0 186 176">
  <path fill="#2C7C17" d="M11 0h81v14H11zm161 174V94h14v80z"/>
  <g clip-path="url(#a)">
    <path fill="#39A61D" d="m51.07-40.55 197.484 197.485-40.011 40.011L11.058-.538z"/>
    <path fill="#fff" d="M146.057 109.367c-3.436-3.436-3.033-7.657-.297-10.394l8.91-8.91 2.736 2.737-8.612 8.613c-1.909 1.909-1.464 3.882-.064 5.282s3.373 1.845 5.282-.064l8.613-8.613 2.736 2.737-8.909 8.909c-2.737 2.737-6.958 3.14-10.395-.297Zm-13.963-13.963c-4.095-4.094-3.988-9.928.106-14.022 4.094-4.094 9.927-4.2 14.022-.106 4.094 4.094 3.945 9.885-.149 13.98-4.094 4.093-9.885 4.242-13.979.148Zm2.736-2.737c2.524 2.525 5.982 2.334 8.485-.17 2.504-2.503 2.694-5.96.17-8.485-2.524-2.524-6.046-2.397-8.549.106-2.503 2.504-2.63 6.025-.106 8.55Zm-16.956-11.822 5.855-5.855 3.034-12.834 3.139 3.14-1.951 8.188 8.188-1.951 3.161 3.16-12.834 3.034-5.855 5.855-2.737-2.737ZM97.118 60.088 110.906 46.3l6.619 6.618c2.057 2.058 2.63 5.77-.34 8.74-2.291 2.291-5.048 2.46-7.148 1.464l-1.825 8.06-3.161-3.16 1.74-7.68-2.227-2.226-4.71 4.709-2.736-2.737Zm10.118-4.645 3.437 3.436c1.018 1.019 2.609 1.167 3.755.021 1.166-1.166 1.018-2.757 0-3.776l-3.437-3.436-3.755 3.755ZM88.33 51.64c-4.094-4.094-3.988-9.928.106-14.022 4.094-4.094 9.928-4.2 14.022-.106 4.094 4.094 3.946 9.886-.149 13.98-4.094 4.094-9.885 4.242-13.98.148Zm2.736-2.736c2.525 2.524 5.983 2.333 8.486-.17 2.503-2.503 2.694-5.961.17-8.485-2.525-2.525-6.046-2.398-8.55.106-2.503 2.503-2.63 6.024-.106 8.549Zm-19.952-14.82 13.788-13.789 9.398 9.398-2.588 2.588-6.661-6.661-3.416 3.415 6.258 6.258-2.566 2.567-6.258-6.258-5.219 5.219-2.736-2.737Z"/>
  </g>
  <defs>
    <clipPath id="a">
      <path fill="#fff" d="M0 0h186v176H0z"/>
    </clipPath>
  </defs>
</svg>
