<svg xmlns="http://www.w3.org/2000/svg" width="12" height="12" viewBox="0 0 12 12">
  <path fill="#525F7F" d="M11.55 3.539 6.242 5.947a.58.58 0 0 1-.485 0L.45 3.539c-.377-.171-.377-.741 0-.912L5.757.219a.58.58 0 0 1 .485 0l5.308 2.408c.377.17.377.74 0 .912M.45 5.551l1.323-.6 3.683 1.67a1.3 1.3 0 0 0 1.087 0l3.683-1.67 1.324.6c.377.17.377.74 0 .911L6.242 8.868a.6.6 0 0 1-.485 0L.45 6.462c-.377-.17-.377-.74 0-.911m0 2.912 1.318-.598 3.688 1.672a1.3 1.3 0 0 0 1.087 0l3.688-1.672 1.32.598c.376.17.376.74 0 .911l-5.31 2.406a.6.6 0 0 1-.485 0L.45 9.374c-.377-.17-.377-.74 0-.911"/>
</svg>
