<svg xmlns="http://www.w3.org/2000/svg" width="29" height="20" fill="none" viewBox="0 0 29 20">
  <path fill="#000" d="M9.95 12.5c-3.393 0-10.15 1.671-10.15 5V20h20.3v-2.5c0-3.329-6.757-5-10.15-5Zm-6.757 4.643c1.218-.829 4.161-1.786 6.757-1.786 2.595 0 5.539.957 6.757 1.786H3.193ZM9.95 10c2.798 0 5.075-2.243 5.075-5S12.748 0 9.95 0c-2.8 0-5.075 2.243-5.075 5s2.276 5 5.075 5Zm0-7.143c1.203 0 2.175.957 2.175 2.143s-.972 2.143-2.175 2.143c-1.204 0-2.175-.957-2.175-2.143s.971-2.143 2.175-2.143Zm10.208 9.729C21.84 13.786 23 15.386 23 17.5V20h5.8v-2.5c0-2.886-5.075-4.529-8.642-4.914ZM18.65 10c2.798 0 5.075-2.243 5.075-5s-2.277-5-5.075-5c-.783 0-1.508.186-2.175.5a7.694 7.694 0 0 1 1.45 4.5 7.694 7.694 0 0 1-1.45 4.5c.667.314 1.392.5 2.175.5Z"/>
</svg>
