<svg width="28" height="29" viewBox="0 0 28 29" fill="none" xmlns="http://www.w3.org/2000/svg">
<path d="M14 0.399902C6.26801 0.399902 0 6.66792 0 14.3999C0 22.1319 6.26801 28.3999 14 28.3999C21.732 28.3999 28 22.1319 28 14.3999C27.991 6.67165 21.7283 0.408903 14 0.399902Z" fill="#39A61D"/>
<path d="M22.0809 9.96628L14.095 20.8034C13.9046 21.0561 13.6206 21.2217 13.3068 21.2629C12.9931 21.3042 12.676 21.2177 12.4267 21.0228L6.72402 16.4634C6.22079 16.0607 6.13931 15.3263 6.54202 14.8231C6.94473 14.3199 7.67913 14.2384 8.18235 14.6411L12.9377 18.4456L20.2025 8.58612C20.4407 8.22864 20.8561 8.031 21.2838 8.07166C21.7115 8.11232 22.0822 8.38471 22.2487 8.78068C22.4153 9.17665 22.3508 9.63213 22.0809 9.96628Z" fill="white"/>
</svg>
