<svg width="12" height="12" viewBox="0 0 12 12" xmlns="http://www.w3.org/2000/svg">
<path d="M11.5502 3.53904L6.24229 5.94688C6.08735 6.01729 5.91212 6.01729 5.75717 5.94688L0.449292 3.53904C0.072176 3.36791 0.072176 2.79802 0.449292 2.6269L5.75694 0.218822C5.83307 0.184025 5.9158 0.166016 5.9995 0.166016C6.08321 0.166016 6.16594 0.184025 6.24207 0.218822L11.5502 2.62667C11.9273 2.79779 11.9273 3.36791 11.5502 3.53904ZM0.449064 5.55063L1.77273 4.95066L5.45593 6.62022C5.6282 6.69838 5.81117 6.73803 5.99962 6.73803C6.18806 6.73803 6.37081 6.69838 6.5433 6.62022L10.2263 4.95066L11.5502 5.55063C11.9273 5.72152 11.9273 6.29119 11.5502 6.46208L6.24229 8.86811C6.08735 8.93829 5.91212 8.93829 5.75717 8.86811L0.449064 6.46208C0.0719481 6.29119 0.0719481 5.72152 0.449064 5.55063ZM0.449064 8.46274L1.76772 7.86505L5.45593 9.53689C5.6282 9.61505 5.81117 9.65469 5.99962 9.65469C6.18806 9.65469 6.37081 9.61505 6.5433 9.53689L10.2313 7.86505L11.5502 8.46274C11.9273 8.63363 11.9273 9.20329 11.5502 9.37419L6.24229 11.7802C6.08735 11.8504 5.91212 11.8504 5.75717 11.7802L0.449064 9.37419C0.0719481 9.20329 0.0719481 8.63363 0.449064 8.46274Z" fill="#525F7F"/>
</svg>
