<svg xmlns="http://www.w3.org/2000/svg" width="17" height="17" fill="none" viewBox="0 0 17 17">
  <g clip-path="url(#a)">
    <path fill="#348EF6" d="M7.63 1.178a.5.5 0 0 1 .791 0l1.225 1.586a.5.5 0 0 0 .536.175l1.924-.564a.5.5 0 0 1 .64.465l.059 2.004a.5.5 0 0 0 .331.456l1.888.675a.5.5 0 0 1 .245.753l-1.131 1.655a.5.5 0 0 0 0 .564l1.13 1.655a.5.5 0 0 1-.244.753l-1.888.675a.5.5 0 0 0-.331.456l-.059 2.004a.5.5 0 0 1-.64.465l-1.924-.564a.5.5 0 0 0-.536.175l-1.225 1.586a.5.5 0 0 1-.791 0l-1.225-1.586a.5.5 0 0 0-.537-.175l-1.923.564a.5.5 0 0 1-.64-.465l-.06-2.004a.5.5 0 0 0-.33-.456l-1.888-.675a.5.5 0 0 1-.245-.753l1.13-1.655a.5.5 0 0 0 0-.564L.783 6.728a.5.5 0 0 1 .245-.753L2.914 5.3a.5.5 0 0 0 .332-.456l.058-2.004a.5.5 0 0 1 .64-.465l1.924.564a.5.5 0 0 0 .537-.175L7.63 1.178Z"/>
    <path fill="#fff" fill-rule="evenodd" d="m6.824 9.688 3.574-3.57a.561.561 0 0 1 .794.793l-3.897 3.897a.666.666 0 0 1-.942 0L4.86 9.317a.563.563 0 0 1 .796-.796l1.167 1.167Z" clip-rule="evenodd"/>
  </g>
  <defs>
    <clipPath id="a">
      <path fill="#fff" d="M0 0h16v16H0z" transform="translate(.025 .665)"/>
    </clipPath>
  </defs>
</svg>
