<svg xmlns="http://www.w3.org/2000/svg" width="244" height="150" fill="none" viewBox="0 0 244 150">
  <path fill="#89EDA3" d="M0 0h199v150H0z"/>
  <mask id="a" width="210" height="129" x="34" y="21" maskUnits="userSpaceOnUse" style="mask-type:alpha">
    <path fill="#F4E7D0" d="M244 21H34.429v128.023H244V21Z"/>
  </mask>
  <g mask="url(#a)">
    <path fill="#FFB7A4" d="M216.142 132.843s10.147-15.886 6.471-21.783a8.866 8.866 0 0 0-1.578-1.307 4.225 4.225 0 0 1-1.646-1.906c-.35-.812-.88-1.668-1.601-1.849-2.706-.71-3.067-2.954-4.95-2.954-1.533 0 6.483-16.02 2.943-16.731-3.54-.71-9.786 15.435-9.786 15.435s-3.124 5.366-6.303 7.892c-4.78 3.72-6.9 15.784-6.9 15.784l7.543 10.271 15.807-2.852Z"/>
    <path fill="#BF643A" d="M215.792 121.544c2.322 0 5.479-4.194 6.122-5.084a.506.506 0 0 0-.135-.666.51.51 0 0 0-.699.113c-1.545 2.142-4.285 5.006-5.514 4.656-.496-.146-.834-.947-.924-2.254a.488.488 0 0 0-.177-.339.48.48 0 0 0-.171-.092.467.467 0 0 0-.193-.02.481.481 0 0 0-.451.53c.135 1.837.676 2.863 1.646 3.145.164.024.331.027.496.011Z"/>
    <path fill="#BF643A" d="M211.473 120.305c2.165 0 4.837-3.518 7.667-7.227a.509.509 0 0 0-.273-.786.497.497 0 0 0-.373.049.49.49 0 0 0-.144.128c-2.491 3.281-5.332 6.99-6.956 6.832a.889.889 0 0 1-.744-.653c-.44-1.128-.135-4.127 3.709-8.332a.498.498 0 0 0-.056-.675.497.497 0 0 0-.677.009c-3.901 4.262-4.509 7.701-3.912 9.358a1.894 1.894 0 0 0 1.579 1.286l.18.011Z"/>
    <path fill="#BF643A" d="M206.321 119.28c1.06 0 1.86-.834 3.303-2.334l.699-.733a.494.494 0 0 0-.355-.844.509.509 0 0 0-.355.145l-.71.733c-1.736 1.815-2.187 2.255-3.067 1.939a.585.585 0 0 1-.282-.406c-.361-1.127.147-4.972 4.724-11.082a.495.495 0 0 0-.789-.598c-4.51 6.009-5.434 10.215-4.882 11.985a1.48 1.48 0 0 0 .913 1.037c.256.098.527.151.801.158Z"/>
    <path fill="#FFB7A4" d="M202.984 106.392c-.812-3.382-1.736-9.9-2.548-13.236-.203-.823-.519-1.782-1.319-2.03a1.637 1.637 0 0 0-1.748.767 4.85 4.85 0 0 0-.631 1.95c-1.128 6.912-1.613 17.059-1.973 24.038l8.219-11.489Z"/>
    <path fill="#FC9B02" d="m51.95 232.115-8.096-73.16c7.554-20.554 8.93-35.222 27.06-43.34 12.052-5.412 21.883-5.186 25.379-6.246l10.981-.575c.473-.372 13.687 4.51 26.033 9.234l1.218.496c14.814 6.235 18.242 15.491 17.926 32.256l-2.029 81.256-98.472.079Z"/>
    <path fill="#FC9B02" d="M143.984 113.36c16.991 6.279 31.682 40.588 31.682 40.588l17.735-33.249 22.887 12.188s-20.621 50.871-24.071 54.794c-7.453 8.468-19.167 9.02-28.773 4.037-11.139-5.762-14.657-15.864-19.167-26.698-7.407-17.577-18.095-34.14-25.514-51.706-.113-.259 1.342-4.104 1.229-4.363a71.874 71.874 0 0 1 23.992 4.409Z"/>
    <path stroke="#282E3E" stroke-miterlimit="10" stroke-width="1.486" d="m67.554 142.518 3.314 81.086c-1.195.564-.97.778-.71.778a.49.49 0 0 0 .445-.327.494.494 0 0 0 .029-.191m78.178-77.311-.564 25.514"/>
    <path fill="#FFB7A4" d="m123.295 85.704-1.669 21.704c0 .282 0 .541-.09.801a12.403 12.403 0 0 1-13.248 10.654l-2.424-.192a12.386 12.386 0 0 1-4.69-1.288 12.388 12.388 0 0 1-6.224-7.23 12.406 12.406 0 0 1-.575-4.831l1.67-21.715 27.25 2.097Z"/>
    <path fill="#282E3E" d="m123.07 88.837-1.454 18.457c0 .236-2.841 1.127-6.088.428-9.189-2.12-14.849-11.105-14.173-20.553l21.715 1.668Z"/>
    <path fill="#FFB7A4" d="M121.83 102.965c-14.657.755-32.865-10.204-35.65-24.624a26.292 26.292 0 0 1 18.659-30.69c18.784-5.411 22.47 7.374 28.051 19.686.474 1.06.97 2.108 1.489 3.146a40.047 40.047 0 0 1 3.382 9.46c2.841 13.224-3.924 22.402-15.931 23.022Z"/>
    <path fill="#713D2F" d="M129.608 42.037a9.117 9.117 0 0 0 .925-4.002 9.238 9.238 0 0 0-7.43-9.072 9.234 9.234 0 0 0-10.339 5.532l-1.454-.62c-10.835-4.172-25.808-4.296-30.577 9.335a7.092 7.092 0 0 0-6.066 7.013 6.47 6.47 0 0 0 0 .812 10.024 10.024 0 0 0 .136 18.264 7.103 7.103 0 0 0 5.885 11.083h.338c.451.7.925 1.398 1.398 2.097l6.968-.518c-.767-11.06.428-21.05 9.132-26.901 0 0 10.294 9.177 19.9-.136 2.39 2.165 7.644.936 8.625-.789 2.83.079 6.449-7.238 2.559-12.098Z"/>
    <path fill="#F79784" d="M106.958 92.954a7.238 7.238 0 0 0 7.238-7.239 7.238 7.238 0 1 0-7.238 7.238Zm30.825-13.012a7.236 7.236 0 0 1-7.1-8.924 7.233 7.233 0 0 1 2.207-3.704c.473 1.06.97 2.109 1.488 3.146a40.011 40.011 0 0 1 3.405 9.482Z"/>
    <path fill="#282E3E" d="M125.212 70.833c.485 1.183 1.59 1.837 2.447 1.477a2.424 2.424 0 1 0-2.447-1.477Zm-11.855 6.834c.943-.393 1.271-1.756.734-3.043-.538-1.287-1.737-2.011-2.68-1.618-.942.393-1.27 1.756-.733 3.043.537 1.287 1.737 2.011 2.679 1.618Zm9.938 7.473c.023.462.023.924 0 1.386 0 2.255-.519 6.404-3.834 6.168-3.777-.248-5.4-4.578-5.84-5.999l-.124-.45 9.798-1.105Z"/>
    <path fill="#fff" d="M123.295 85.14c.023.462.023.924 0 1.386-3.383.733-9.539.215-9.539.215h-.135l-.124-.451 9.798-1.15Z"/>
    <path stroke="#282E3E" stroke-miterlimit="10" stroke-width="1.486" d="M110.081 65.973s-4.16-.056-5.13 6.765m17.87 3.235s2.582-.395 2.774 1.127a2.678 2.678 0 0 1-.913 2.402"/>
    <path fill="#FFB7A4" d="M96.172 89.314c1.752-3.779-.638-8.609-5.339-10.788-4.7-2.179-9.93-.881-11.682 2.898-1.752 3.78.638 8.61 5.338 10.789 4.7 2.178 9.93.88 11.683-2.898Z"/>
    <path fill="#282E3E" d="M90.046 85.558a8.119 8.119 0 0 0-7.61-2.007c-.7.169-.496 1.285.214 1.127a6.98 6.98 0 0 1 6.54 1.646c.53.496 1.386-.248.856-.744v-.022Z"/>
    <path stroke="#282E3E" stroke-miterlimit="10" stroke-width="1.486" d="M89.866 118.716a27.535 27.535 0 0 0 21.422 7.227c13.022-1.455 14.95-10.148 14.95-10.148"/>
  </g>
</svg>
