<svg xmlns="http://www.w3.org/2000/svg" width="215" height="151" fill="none" viewBox="0 0 215 151">
  <path fill="#FFD07A" d="M35 0h180v150H35z"/>
  <mask id="a" width="203" height="135" x="0" y="16" maskUnits="userSpaceOnUse" style="mask-type:alpha">
    <path fill="#F4E7D0" d="M202.28 16H0v134.186h202.28V16Z"/>
  </mask>
  <g mask="url(#a)">
    <path fill="#D2916E" d="M161.946 119.208c-2.003 12.157-8.952 28.39-14.019 39.124-3.165 6.75-5.578 11.316-5.578 11.316h-40.476c-1.292-1.772-2.774-5.938-4.256-11.316a280.472 280.472 0 0 1-7.34-39.124c-.53-5.117-.641-9.012-.15-10.574 2.062-6.529 23.031-15.472 29.44-16.673 6.409-1.202 41.718 1.371 42.92 19.416.12 2.623-.061 5.25-.541 7.831Z"/>
    <path fill="#3A4352" d="M161.947 119.208c-2.003 12.157-8.953 28.389-14.02 39.124h-50.31a280.457 280.457 0 0 1-7.34-39.124h71.67Z"/>
    <path stroke="#4F9AF2" stroke-miterlimit="10" stroke-width="1.223" d="M108.441 143.522s-.24 14.019 2.354 14.49c2.593.471 5.297-15.431 4.716-38.754m1.532 38.944s.11-22.852 4.116-22.972c4.005-.12 3.184 23.312 3.184 23.312m2.593-39.915s-1.182 27.678 3.295 28.62c4.476.941 4.946-28.27 4.946-28.27m.722 39.566s-.1-19.407 3.535-20.578c3.635-1.172 3.835 20.578 3.835 20.578"/>
    <path fill="#573539" d="M93.529 51.795s-10.014-12.878.47-21.88c10.485-9.003 30.042-10.795 38.744-8.542 8.702 2.253 12.457 7.28 15.822 20.128 3.365 12.847 1.833 11.175 6.9 17.854a53.609 53.609 0 0 1 7.24 12.778l-16.023 7.56-5.767-6.198 1.482 8.291-35.329 5.788-10.275-2.884-.72-5.758-1.633 4.747-9.012-3.895a34.398 34.398 0 0 1 8.441-16.523c6.9-7.18-.34-11.466-.34-11.466Z"/>
    <path fill="#D2916E" d="M98.016 32.257s-2.544.41-3.105 6.599c-.56 6.188-1.382 12.938-1.382 12.938s-4.355 3.865-4.005 4.576c.35.711 4.486 3.946 4.486 3.946s-.891 11.155 1.572 13.248a13.438 13.438 0 0 0 7.561 3.114 49.143 49.143 0 0 0 9.323-.51 17.298 17.298 0 0 0 11.966-12.328s8.482-3.815 6.86-11.105c-1.623-7.29-12.588-2.343-12.588-2.343s-5.257-5.758-10.604-8.832c-5.348-3.075-9.644-6.189-10.084-9.303Z"/>
    <path fill="#D2916E" d="M109.052 70.6s2.644 4.506 2.483 7.38c-.09 1.442-.631 4.697-1.141 7.55a11.091 11.091 0 0 0 7.54 12.607c1.371.41 2.775.698 4.196.862 1.999.243 4.022.2 6.008-.13a11.144 11.144 0 0 0 8.462-14.87l-8.221-22.902a14.018 14.018 0 0 0-16.023-9.013l-.29.06c-9.763 2.133-7.39 10.425-3.014 18.456Z"/>
    <path fill="#573539" d="M97.205 42.38s-.66 1.663.771 1.713c1.432.05 7.12-.871 7.35-1.232.231-.36-1.522-2.573-8.121-.48Z"/>
    <path stroke="#282E3E" stroke-linecap="round" stroke-linejoin="round" stroke-width="1.881" d="m120.828 55.66 6.469-2.863M97.756 63.673s3.435.52 4.446-3.445m-4.567-8.503s2.173-4.006 8.251-1.222"/>
    <path fill="#2F3545" d="M101.128 51.584c.088-.82-.336-1.536-.947-1.601-.61-.065-1.176.546-1.263 1.366-.088.82.337 1.536.947 1.601.61.065 1.176-.546 1.263-1.366Z"/>
    <path fill="#FE663F" d="m120.346 106.53-18.476 58.471h-8.08l-9.925-48.467a8.902 8.902 0 0 1 3.515-9.012 136.753 136.753 0 0 1 17.675-10.885l15.291 9.893Zm9.084.001 18.475 58.471h8.071l9.934-48.467c.701-3.435-.751-10.956-3.595-13.018-4.125-3.005-9.513-4.657-16.593-8.212l-16.292 11.226Z"/>
    <path fill="#D2916E" d="M105.958 105.008s-14.57-9.873-29.791 24.034c-15.222 33.907-22.231 47.616-11.336 55.867 11.716 8.862 29.48-23.182 32.044-28.309 2.564-5.127 21.69-38.784 9.083-51.592Z"/>
    <path fill="#FE663F" d="m56.738 148.458 33.146 24.284s19.868-35.139 23.683-51.481c3.815-16.343-12.067-27.338-28.109-12.217s-28.72 39.414-28.72 39.414Z"/>
    <path stroke="#573539" stroke-miterlimit="10" stroke-width="1.223" d="M96.014 29.303S84.8 36.943 86 47.218m63.768-.19s.29 4.156 6.078 7.41c5.788 3.255 10.765 9.073 11.115 13.65"/>
    <path fill="#FE663F" d="m124.812 94.734-4.466 11.796s-10.505-2.283-15.291-9.883c0 0 1.001-9.063 5.688-11.587 0 0 .48 8.462 14.069 9.674Z"/>
    <path fill="#FE663F" d="m124.812 94.734 4.437 11.796s11.305-3.424 16.082-11.015c0 0-4.006-8.502-8.712-11.015.04-.06 1.802 9.022-11.807 10.234Z"/>
    <path stroke="#282E3E" stroke-linecap="round" stroke-linejoin="round" stroke-width="1.881" d="m93.79 165.001-8.161-39.875m19.426-28.479s3.635 6.889 15.291 9.883m8.904-.001s12.317-3.885 16.082-11.015m-34.68-18.363a17.14 17.14 0 0 0 4.577-1.722"/>
    <path fill="#D2916E" d="M76.568 182.896s9.373-5.407 0-18.786c-9.373-13.378-37.442-49.498-37.442-49.498s-3.174-4.306-10.014 0 10.745 44.452 18.025 53.474c11.346 14.019 19.137 23.583 29.43 14.81Z"/>
    <path stroke="#fff" stroke-linecap="round" stroke-linejoin="round" stroke-width="1.223" d="M49.54 127.7a5.338 5.338 0 0 1 2.483 2.123c2.233 3.715-.902 9.704-7.01 13.369-6.108 3.665-12.848 3.615-15.081-.101-1.332-2.223-1.091-4.746.881-7.6"/>
    <path stroke="#fff" stroke-linecap="round" stroke-linejoin="round" stroke-width="1.223" d="M51.952 129.573c3.766 2.163 3.445 9.784-.71 17.024-4.156 7.24-10.575 11.356-14.34 9.203-2.674-1.543-3.285-5.849-1.923-10.815"/>
    <path fill="#573539" d="M124.393 63.843s.931.52 1.502 8.532a37.04 37.04 0 0 0 3.474 13.508l13.018-4.095-2.243-12.718-10.955-8.842a11.486 11.486 0 0 1-4.796 3.615Z"/>
    <path fill="#D2916E" d="M13.158 93.182c-.901-.82-1.883.15-1.883.15a1.383 1.383 0 0 0-.16 1.883l11.386 12.367a2.107 2.107 0 0 0 2.307.514 2.12 2.12 0 0 0 .697-.454 2.094 2.094 0 0 0-.06-3.004c-3.475-3.274-11.586-10.805-12.287-11.456Zm4.508-1.912c-.901-.822-1.882.15-1.882.15a1.392 1.392 0 0 0-.15 1.882c.64.701 6.849 7.551 10.093 11.016a2.08 2.08 0 0 0 2.308.527 2.08 2.08 0 0 0 .697-.457 2.094 2.094 0 0 0 0-3.004A3817.358 3817.358 0 0 1 17.666 91.27Zm17.783 1.712a1.15 1.15 0 0 0-1.923-.35 6.008 6.008 0 0 0-1.261 3.875 51 51 0 0 1-1.002 7.15s-2.423 6.188.701 9.262c3.124 3.075 6.008 2.003 6.419.781 1.672-4.786-2.794-20.228-2.954-20.688l.02-.03Z"/>
    <path fill="#D2916E" d="M17.945 113.26s7.11 6.008 11.646 7.41c4.537 1.402 10.315-5.297 8.542-9.172-1.772-3.876-6.95-11.456-10.014-9.604-3.064 1.853-9.943 6.139-10.174 11.366Z"/>
    <path fill="#3A4352" d="m37.442 110.205-13.879 5.478a1.703 1.703 0 0 1-2.123-.751L8.352 91.9a1.722 1.722 0 0 1 .871-2.444l13.88-5.507a1.712 1.712 0 0 1 2.122.75l13.089 23.033a1.716 1.716 0 0 1 .135 1.437 1.718 1.718 0 0 1-1.007 1.036Z"/>
    <path fill="url(#b)" d="m34.918 106.841-12.427 4.896-10.755-18.946 12.438-4.907 10.744 18.957Z"/>
    <path fill="#D2916E" d="M28.841 113.701a1.25 1.25 0 0 0 1.244-1.141 1.254 1.254 0 0 0-1.024-1.342c-1.001-.12-5.557-.901-10.304-1.482a2.002 2.002 0 0 0-2.333 1.612 2.002 2.002 0 0 0 2.003 2.003c4.786.26 9.463.3 10.414.35Zm-2.285-4.046c1.222.12 1.412-1.241 1.412-1.241s.2-1.372-1.001-1.603c-.941-.17-6.279-1.342-11.015-2.203a2.092 2.092 0 0 0-2.454 1.763 2.093 2.093 0 0 0 1.863 2.383c4.787.491 10.244.811 11.195.901Z"/>
    <path stroke="#282E3E" stroke-linecap="round" stroke-linejoin="round" stroke-width="1.881" d="m60.293 142.139 7.75 10.264"/>
    <path fill="#D2916E" d="M148.275 105.068s16.533-13.328 33.506 20.268c16.974 33.597 23.032 43.881 12.388 52.743-11.456 9.523-30.923-22.11-33.787-27.187-2.864-5.077-24.334-32.265-12.107-45.824Z"/>
    <path fill="#FE663F" d="m200.638 146.136-36.34 16.833s-17.795-25.375-22.411-41.747c-4.617-16.373 10.955-28.25 27.898-13.679 16.944 14.57 30.853 38.593 30.853 38.593Z"/>
  </g>
  <defs>
    <linearGradient id="b" x1="24.584" x2="22.531" y1="118.887" y2="87.624" gradientUnits="userSpaceOnUse">
      <stop stop-color="#F5FBFF"/>
      <stop offset="1" stop-color="#D3E6FD"/>
    </linearGradient>
  </defs>
</svg>
