<svg xmlns="http://www.w3.org/2000/svg" width="235" height="176" fill="none" viewBox="0 0 235 176">
  <path fill="#D3C1FF" d="M0 0h195v175H0z"/>
  <mask id="a" width="223" height="170" x="12" y="6" maskUnits="userSpaceOnUse" style="mask-type:alpha">
    <path fill="#F4E7D0" d="M234.109 6H12v169.118h222.109V6Z"/>
  </mask>
  <g mask="url(#a)">
    <path fill="#C48563" d="M121.024 84.526s16.756-16.952 45.883 24.036c29.126 40.987 36.033 57.105 23.731 70.928-13.225 14.872-39.241-22.731-44.019-28.862-4.778-6.131-38.976-45.765-25.595-66.101Z"/>
    <path fill="#273250" d="m137.928 189.858 35.228 161.526-35.807 3.306L95.39 234.495l-.98 109.394-40.39-31.54s-8.495-108.531-5.395-122.461c3.1-13.931 57.802-45.128 89.303-.03Z"/>
    <path fill="#C48563" d="m114.255 49.08 2.138 20.602s-2.021 30.48-10.144 33.973c-8.122 3.492-19.414-30.893-19.414-30.893l5.288-33.718s14.117-17.08 22.132 10.036Z"/>
    <path fill="#348EF6" d="m42.846 84.398 44.627-15.569 1.294-8.133 27.263 5.18.883 5.974s33.757 14.618 35.906 17.904c2.148 3.287-6.73 50.631-7.692 68.28-.961 17.648-1.628 39.623-1.628 39.623l-95.493-2.943-5.16-110.316Z"/>
    <path fill="#C48563" d="M115.677 60.685c-16.265-.52-23.25-14.362-23.25-14.362s-6.583.177-9.114-4.336a7.788 7.788 0 0 1-.932-3.12c-.716-7.72 6.024-5.228 6.024-5.228s-6.485-14.353 2.757-20.916a22.093 22.093 0 0 1 11.34-4.326 20.718 20.718 0 0 1 22.142 14.195c.088.285.177.57.255.854a74.48 74.48 0 0 1 1.383 5.837c2.688 13.41 2.943 18.541 2.943 18.541s2.728 13.381-13.548 12.861Z"/>
    <path fill="#F2BE2D" d="m99.422 36.004 4.385 9.889s13.411-6.26 24.594-4.906c0 0 .766 2.522 1.658 5.004.981 2.668 1.089 3.482 1.433 7.671.392 4.739-5.465 11.959-15.903 10.174-11.154-1.904-12.832-6.868-15.078-11.89-2.247-5.023-5.19-12.675-5.19-12.675"/>
    <path fill="#2F3545" d="M112.965 35.902c.551-.142.828-.92.617-1.739-.21-.818-.827-1.367-1.378-1.225-.551.141-.827.92-.617 1.738.21.819.827 1.368 1.378 1.226Zm12.101-1.717c.551-.142.827-.92.617-1.739-.211-.818-.828-1.367-1.379-1.226-.551.142-.827.92-.617 1.739.211.818.828 1.367 1.379 1.226Z"/>
    <path stroke="#282E3E" stroke-linecap="round" stroke-linejoin="round" stroke-width="1.637" d="m91.858 41.32-6.25-2.893"/>
    <path fill="#282E3E" d="M118.552 43.382v1.108c0 1.805-.422 5.131-3.07 4.905-3.022-.196-4.327-3.669-4.68-4.806a8.372 8.372 0 0 1-.098-.364l7.848-.843Z"/>
    <path fill="#fff" d="M118.552 43.382v1.108a34.503 34.503 0 0 1-7.642.177h-.108c-.068-.236-.098-.363-.098-.363l7.848-.922Z"/>
    <path fill="#C48563" d="M176.011 177.417s17.276 4.434 21.308-12.38c5.16-21.485 16.147-83.26 16.147-83.26s-4.846-.853-15.186-4.454c-.981-.343-23.23 47.315-27.753 63.06-6.749 23.476-5.298 33.757 5.484 37.034Z"/>
    <path fill="#B57559" d="M226.7 63.127c1.049-1.06-.099-2.305-.099-2.305s-1.147-1.246-2.295-.275c-.893.756-9.565 8.044-14.019 11.85a2.565 2.565 0 0 0-.216 3.698 2.578 2.578 0 0 0 2.842.643c.32-.128.612-.32.857-.563 4.179-4.15 12.096-12.214 12.93-13.048Z"/>
    <path fill="#B57559" d="M221.873 64.894c1.05-1.069-.098-2.315-.098-2.315s-1.147-1.246-2.295-.275c-.893.756-9.565 8.055-14.019 11.861a2.574 2.574 0 0 0-.895 1.803 2.568 2.568 0 0 0 1.513 2.492 2.57 2.57 0 0 0 2.865-.528c4.179-4.14 12.125-12.174 12.929-13.038Z"/>
    <path fill="#C48563" d="M226.7 67.552c1.049-1.07-.099-2.315-.099-2.315s-1.147-1.246-2.295-.275c-.893.756-9.565 8.054-14.019 11.86a2.565 2.565 0 0 0 2.627 4.332c.32-.128.611-.32.856-.564 4.179-4.14 12.096-12.204 12.93-13.038Zm-15.196-6.484a1.422 1.422 0 0 0-.469-1.283 1.418 1.418 0 0 0-1.337-.286c-.853.245-2.246.98-3.776 3.276a62.095 62.095 0 0 1-5.514 6.867 18.382 18.382 0 0 0-3.639 3.925 7.854 7.854 0 0 0-1.472 6.22c1.344 5.199 6.867 2.736 8.094 1.696 1.226-1.04 7.985-19.836 8.103-20.434l.01.02Z"/>
    <path fill="#C48563" d="M195.385 76.885s-.098.274 0 6.092c.099 5.817 9.919 8.83 13.735 5.258 3.816-3.57 10.487-12.233 7.397-15.274-2.816-2.796-14.971 2.197-21.132 3.924Z"/>
    <path stroke="#282E3E" stroke-linecap="round" stroke-linejoin="round" stroke-width="1.637" d="M215.82 72.124s-9.81-.5-14.107 4.798"/>
    <path stroke="#fff" stroke-linecap="round" stroke-linejoin="round" stroke-width="1.03" d="M112.957 39.703c3.079-.47 5.173-3.491 4.676-6.748-.497-3.256-3.397-5.515-6.477-5.045-3.079.47-5.173 3.492-4.676 6.748.497 3.256 3.397 5.515 6.477 5.045Zm8.558-5.163a7.422 7.422 0 0 1-.618-2.06c-.5-3.257 1.128-6.21 3.64-6.592 2.511-.383 4.905 1.962 5.434 5.199.53 3.237-1.128 6.21-3.639 6.592a3.975 3.975 0 0 1-3.09-.912m-5.691-4.069 3.306-.52"/>
    <path stroke="#282E3E" stroke-linecap="round" stroke-linejoin="round" stroke-width="1.637" d="M119.209 32.1s4.679 4.601 4.307 5.582c-.373.981-3.65 3.64-3.65 3.64"/>
    <path fill="#F2BE2D" d="M108.073 25.32c2.146-.55 3.711-1.678 3.495-2.518-.216-.84-2.13-1.073-4.277-.522-2.146.552-3.711 1.68-3.495 2.52.216.839 2.13 1.072 4.277.52Zm16.571-2.726c-.401.122-.811.21-1.226.265-2.188.334-4.072-.088-4.209-.98-.137-.894 1.54-1.826 3.738-2.159.165-.029.332-.048.5-.059a20.57 20.57 0 0 1 1.197 2.933Z"/>
    <path fill="#F2BE2D" d="M102.502 8.397a22.092 22.092 0 0 0-11.34 4.327c-9.242 6.563-2.758 20.915-2.758 20.915a14.972 14.972 0 0 1 5.886 3.551 8.828 8.828 0 0 1 1.403 3.581l4.621-.893-4.797-20.601a4.475 4.475 0 0 1 3.188-5.465 2.776 2.776 0 0 1 1.962.187c2.541 1.314 14.294 2.354 18.492 0a20.508 20.508 0 0 0-16.657-5.602Z"/>
    <path stroke="#282E3E" stroke-linecap="round" stroke-linejoin="round" stroke-width="1.637" d="m176.952 123.05-7.593 21.582"/>
    <path fill="#C48563" d="M48.497 82.511s23.8 1.236 12.567 50.248-18.64 64.885-37.181 64.895c-19.895 0-9.114-44.401-7.72-52.063 1.392-7.662 8.25-59.548 32.334-63.08Z"/>
    <path fill="#C48563" d="M20.478 172.491s16.158-7.544 23.221 8.231c9.035 20.17 31.236 78.855 31.236 78.855s-4.61 1.736-14.107 7.171c-.922.53-31.56-42.184-38.908-56.899-10.968-21.798-11.438-32.148-1.442-37.358Z"/>
  </g>
</svg>
