<svg width="199" height="173" viewBox="0 0 199 173" fill="none" xmlns="http://www.w3.org/2000/svg">
<rect y="22" width="199" height="150" fill="#F4ACAC"/>
<path d="M69.1169 26.6113C70.5912 26.5006 72.0723 26.5207 73.543 26.6714C75.0035 26.8102 76.4547 27.0342 77.8891 27.3423C79.3522 27.6655 80.7911 28.0904 82.195 28.6141C82.9283 28.8794 83.647 29.1836 84.348 29.5253C84.6885 29.6956 85.079 29.8958 85.4295 30.1061L85.6999 30.2764L86.0003 30.4566C86.1905 30.5968 86.3908 30.727 86.5711 30.8672C86.8208 31.0594 87.0302 31.2991 87.1871 31.5724C87.344 31.8458 87.4453 32.1474 87.4853 32.4601C87.5254 32.7727 87.5033 33.0901 87.4203 33.3942C87.3372 33.6982 87.195 33.9829 87.0016 34.2318C86.8081 34.4844 86.5655 34.6954 86.2885 34.852C86.0115 35.0086 85.7057 35.1076 85.3894 35.1431L84.7285 35.2232H84.2779H83.8273C83.4868 35.2232 83.1864 35.2232 82.8259 35.2232C82.1449 35.2232 81.454 35.2232 80.763 35.1431C79.3711 35.063 77.9692 34.9128 76.5772 34.7125C75.1853 34.5122 73.7834 34.2719 72.3915 33.9715C70.9881 33.6704 69.6091 33.2654 68.2658 32.7598H68.2156C67.5565 32.4914 67.0063 32.0098 66.6529 31.392C66.2994 30.7743 66.1631 30.0559 66.2657 29.3516C66.3683 28.6473 66.7038 27.9977 67.2188 27.5065C67.7338 27.0152 68.3985 26.7106 69.1069 26.6413L69.1169 26.6113Z" fill="#FFCBBB"/>
<path d="M67.0332 33.4114C68.5586 33.2352 70.0963 33.1882 71.6296 33.2712C73.1487 33.3453 74.6629 33.4991 76.1659 33.7318C77.6912 33.9683 79.1998 34.3028 80.6821 34.7332C81.4332 34.9535 82.1842 35.1939 82.9453 35.4843C83.7538 35.7979 84.5372 36.1729 85.2885 36.6058C85.7164 36.8593 86.056 37.2383 86.2611 37.6914C86.4663 38.1444 86.527 38.6497 86.4352 39.1385C86.3433 39.6273 86.1033 40.0759 85.7477 40.4236C85.392 40.7713 84.9381 41.0012 84.4473 41.082L83.9767 41.1521C83.293 41.2509 82.6043 41.3111 81.9138 41.3324C81.1928 41.3324 80.4518 41.3925 79.7208 41.3324C78.2388 41.3324 76.7667 41.2723 75.2846 41.1421C73.8026 41.0119 72.2805 40.8417 70.8585 40.6014C69.373 40.3804 67.9067 40.0456 66.4724 39.6C65.7913 39.3727 65.2074 38.9212 64.8159 38.3193C64.4245 37.7173 64.2487 37.0004 64.3172 36.2856C64.3858 35.5708 64.6947 34.9004 65.1935 34.3839C65.6922 33.8673 66.3514 33.5351 67.0633 33.4415L67.0332 33.4114Z" fill="#FFCBBB"/>
<path d="M67.9243 40.0297C69.1107 39.815 70.3136 39.7045 71.5193 39.6992C72.7209 39.6992 73.9026 39.6992 75.0842 39.8094C76.2659 39.9195 77.4475 40.0297 78.6191 40.2199C79.8077 40.4074 80.9797 40.6887 82.1239 41.0611H82.2641C82.7419 41.2214 83.1608 41.521 83.4667 41.9215C83.7727 42.3219 83.9517 42.8048 83.9808 43.3079C84.0099 43.811 83.8877 44.3113 83.6299 44.7443C83.3721 45.1773 82.9907 45.5233 82.5345 45.7376C81.3141 46.2955 80.0241 46.6862 78.6992 46.8992C77.4327 47.1213 76.1497 47.2352 74.8639 47.2397C73.5987 47.2601 72.3338 47.1898 71.0787 47.0294C69.806 46.8682 68.554 46.5728 67.3435 46.1481C66.6909 45.9095 66.134 45.4647 65.757 44.881C65.3801 44.2973 65.2037 43.6067 65.2547 42.9137C65.3056 42.2208 65.5811 41.5634 66.0394 41.0411C66.4976 40.5189 67.1137 40.1603 67.7941 40.0197L67.9243 40.0297Z" fill="#FFCBBB"/>
<path d="M67.0439 46.1281C68.0845 45.7975 69.1541 45.5661 70.2383 45.4372C71.3098 45.297 72.3813 45.2069 73.4428 45.1668C74.5069 45.1117 75.5731 45.1117 76.6372 45.1668C77.7242 45.2019 78.8062 45.3292 79.8717 45.5473L80.082 45.5974C80.5613 45.703 80.9997 45.945 81.3445 46.2943C81.6893 46.6435 81.9258 47.085 82.0253 47.5656C82.1248 48.0462 82.0832 48.5453 81.9054 49.0028C81.7276 49.4602 81.4212 49.8565 81.0233 50.1437C79.981 50.8641 78.8367 51.4244 77.6286 51.806C76.4882 52.1831 75.3147 52.4513 74.1237 52.6071C72.9553 52.76 71.7769 52.8236 70.5988 52.7974C69.3983 52.7785 68.2046 52.6137 67.0439 52.3067C66.3837 52.1268 65.7983 51.7404 65.3736 51.2038C64.9488 50.6673 64.707 50.0089 64.6835 49.325C64.66 48.6411 64.8561 47.9676 65.243 47.4032C65.6299 46.8387 66.1873 46.413 66.8336 46.1882L67.0439 46.1281Z" fill="#FFCBBB"/>
<path d="M64.9102 27.8126C65.551 24.1375 68.1347 21.3937 70.0773 17.4482C72.02 13.5028 72.3605 7.89502 72.3605 7.89502C72.3605 7.89502 75.1744 9.00656 75.8153 14.6243C76.4261 20.0418 73.0815 29.9055 73.0815 29.9055L64.9102 27.8126Z" fill="#FFCBBB"/>
<path d="M66.5443 24.1484C66.5443 24.1484 61.4473 33.5314 60.1455 40.7915C58.7035 48.9127 58.0626 57.2743 63.37 57.3844C68.6773 57.4946 81.5852 49.5836 81.5852 49.5836L68.9076 25.31L66.5443 24.1484Z" fill="#FFCBBB"/>
<path d="M76.0957 52.3114L59.2949 49.6294L56.897 64.6503L73.6978 67.3323L76.0957 52.3114Z" fill="#FFCBBB"/>
<path d="M84.6576 36.9759C84.5089 36.9762 84.363 36.9345 84.2369 36.8558C80.8522 34.7428 71.6596 34.0719 71.5694 34.0619C71.4654 34.0543 71.364 34.0262 71.2709 33.9792C71.1778 33.9323 71.0949 33.8674 71.0269 33.7883C70.959 33.7092 70.9073 33.6174 70.875 33.5183C70.8426 33.4192 70.8302 33.3146 70.8384 33.2107C70.8563 33.0035 70.9541 32.8114 71.111 32.675C71.268 32.5385 71.4719 32.4685 71.6796 32.4797C72.0801 32.4797 81.363 33.1907 85.0681 35.4838C85.2132 35.5745 85.325 35.7097 85.3868 35.8692C85.4485 36.0288 85.4569 36.204 85.4107 36.3687C85.3644 36.5334 85.266 36.6787 85.1303 36.7827C84.9945 36.8868 84.8286 36.944 84.6576 36.9459V36.9759Z" fill="#C15638"/>
<path d="M83.4961 42.8149C83.3912 42.8151 83.2873 42.7939 83.1909 42.7526C83.0945 42.7113 83.0075 42.6507 82.9353 42.5746C80.8724 40.5118 72.9214 40.0912 71.92 40.1613C71.7102 40.1679 71.5064 40.0909 71.3533 39.9473C71.2003 39.8036 71.1106 39.605 71.1039 39.3952C71.0973 39.1854 71.1743 38.9816 71.318 38.8285C71.4616 38.6754 71.6602 38.5857 71.87 38.5791C71.9701 38.5791 81.293 38.6592 84.0869 41.4631C84.1605 41.5357 84.2189 41.6223 84.2588 41.7177C84.2986 41.8131 84.3192 41.9155 84.3192 42.0189C84.3192 42.1223 84.2986 42.2246 84.2588 42.32C84.2189 42.4154 84.1605 42.502 84.0869 42.5746C84.0105 42.6535 83.9185 42.7156 83.8168 42.757C83.715 42.7983 83.6058 42.8181 83.4961 42.8149Z" fill="#C15638"/>
<path d="M81.945 48.1003C81.7885 48.1053 81.6339 48.0644 81.5005 47.9825C81.367 47.9007 81.2604 47.7815 81.1939 47.6397C80.1926 45.5268 73.1828 44.9259 71.2802 44.966C71.0728 44.9661 70.8735 44.8859 70.7241 44.7421C70.5747 44.5983 70.4869 44.4021 70.4791 44.1949C70.4751 44.0915 70.4917 43.9883 70.5279 43.8914C70.5641 43.7944 70.6192 43.7057 70.69 43.6302C70.7608 43.5547 70.8459 43.4941 70.9404 43.4518C71.0348 43.4095 71.1367 43.3864 71.2402 43.3838C71.3203 43.3838 80.9937 43.3838 82.646 46.9687C82.6896 47.0634 82.7142 47.1657 82.7181 47.2699C82.7221 47.374 82.7055 47.4779 82.6693 47.5757C82.633 47.6734 82.5777 47.7629 82.5067 47.8392C82.4357 47.9155 82.3503 47.977 82.2554 48.0202C82.1588 48.0687 82.053 48.0959 81.945 48.1003Z" fill="#C15638"/>
<path d="M113.458 107.392C106.636 115.097 99.4271 122.45 91.8583 129.423C82.7157 137.925 72.9622 146.196 63.0484 154.197L59.3232 157.201C57.7871 158.433 55.9974 159.31 54.0825 159.769C52.1677 160.228 50.175 160.257 48.2474 159.855C46.3198 159.453 44.505 158.63 42.9331 157.444C41.3612 156.258 40.0711 154.739 39.1554 152.996C36.742 148.269 35.1498 142.751 33.5176 135.121C56.4693 118.438 68.9866 104.398 87.0717 84.9414C95.4232 92.6855 104.219 100.169 113.458 107.392Z" fill="#348EF6"/>
<path d="M189.674 148.501C183.666 140.49 177.657 133.29 175.474 130.105C168.655 124.196 162.235 117.84 156.258 111.079C159.912 107.48 163.261 103.585 166.272 99.433C168.114 96.9796 169.887 94.5062 171.729 92.0328C173.732 89.3891 175.735 86.7655 177.978 84.222L178.108 84.0718C180.618 85.4318 183.055 86.9226 185.408 88.5379C186.51 89.269 195.512 96.8695 198.616 103.078V148.521L189.674 148.501Z" fill="#348EF6"/>
<path d="M115.732 141.794C128.617 136.827 133.795 119.133 127.296 102.274C120.798 85.4154 105.084 75.775 92.1984 80.7419C79.3129 85.7089 74.1353 103.402 80.6339 120.261C87.1325 137.12 102.846 146.761 115.732 141.794Z" fill="#348EF6"/>
<path d="M134.458 19.3106C134.458 10.5484 125.345 7.9248 117.384 7.9248C109.723 7.9248 105.938 13.102 105.668 22.9957V23.6065C105.668 23.7868 105.668 23.947 105.668 24.1272C105.663 24.2139 105.663 24.3009 105.668 24.3876V65.5345H134.458V22.9756H134.097C134.329 21.7675 134.449 20.5407 134.458 19.3106Z" fill="#713D2F"/>
<path d="M184.478 172.223H80.9648C83.5084 168.217 84.9704 162.769 85.9718 156.371C87.2135 148.54 87.6941 139.247 88.4452 129.183C89.6368 113.161 91.4493 95.1359 98.1086 78.1123C121.1 80.6654 144.303 80.6654 167.294 78.1123C175.576 98.0399 175.105 119.249 175.626 137.144C175.896 146.847 176.437 155.56 178.83 162.579C178.842 162.612 178.842 162.647 178.83 162.679C179.243 163.865 179.718 165.028 180.252 166.164V166.224C181.339 168.432 182.765 170.456 184.478 172.223Z" fill="#348EF6"/>
<path d="M165.572 75.8194L164.951 76.7507L156.389 89.6285C153.851 93.4358 150.456 96.5952 146.476 98.8533C142.496 101.111 138.042 102.405 133.472 102.631C128.902 102.857 124.342 102.009 120.159 100.154C115.976 98.2994 112.285 95.4902 109.384 91.9517L96.8467 76.6806L96.1758 75.8594L103.586 56.5728H158.151L165.572 75.8194Z" fill="#FFCBBB"/>
<path d="M121.83 58.4357C121.54 59.5272 127.568 70.6526 142.949 69.6712C158.331 68.6899 148.177 58.1152 148.177 58.1152L136.38 58.4357H121.83Z" fill="#282E3E"/>
<path d="M164.948 76.7512L156.386 89.629C153.848 93.4363 150.453 96.5958 146.473 98.8538C142.493 101.112 138.039 102.406 133.469 102.632C128.899 102.858 124.339 102.009 120.156 100.155C115.973 98.2999 112.282 95.4907 109.381 91.9522L96.8438 76.6811L109.381 68.0391C109.381 68.0391 122.399 72.9259 128.888 73.1362C129.56 77.4015 130.592 81.6023 131.972 85.6936L133.785 73.3265C133.785 73.3265 143.989 70.062 147.664 67.208C152.751 69.8717 160.952 74.4781 164.948 76.7512Z" fill="white"/>
<path d="M127.819 74.7588L121.581 86.445C121.581 86.445 110.235 80.9874 107.691 74.0679" stroke="#282E3E" stroke-width="1.88098" stroke-linecap="round" stroke-linejoin="round"/>
<path d="M134.697 74.7588L140.936 86.445C140.936 86.445 150.82 80.9874 155.897 74.0679" stroke="#282E3E" stroke-width="1.88098" stroke-linecap="round" stroke-linejoin="round"/>
<path d="M184.837 83.8804C183.134 76.7505 178.208 71.5533 172.9 70.612C175.671 67.1721 177.17 62.882 177.146 58.4652C177.174 55.7 176.594 52.9624 175.447 50.4463C174.299 47.9302 172.613 45.6971 170.507 43.9051C169.61 43.1566 168.637 42.5054 167.603 41.9624C162.916 38.6278 154.134 31.3076 153.333 22.936H137.451L143.61 53.3682C143.61 53.3682 136.79 66.5965 139.434 73.6562C141.817 79.995 156.538 80.3956 160.814 89.4181C160.814 89.4882 160.814 89.5582 160.814 89.6283C161.067 90.7003 161.402 91.7514 161.815 92.7727C164.679 99.8325 170.827 104.188 176.645 102.787C183.335 101.224 186.97 92.7026 184.837 83.8804Z" fill="#713D2F"/>
<path d="M121.338 57.7351L105.657 43.4453C105.897 55.6021 92.979 55.5921 83.2956 60.1584C76.2158 63.5031 71.8899 74.1778 74.5535 82.1889C76.5563 88.1972 70.6882 91.7522 71.3491 99.3827C72.2704 110.118 83.536 112.18 89.4542 106.272C92.258 103.478 92.0778 98.852 90.806 94.3057C90.806 94.3057 90.806 94.2456 90.806 94.2156C87.201 81.6282 100.219 79.6153 113.177 77.4824C126.135 75.3494 121.338 57.7351 121.338 57.7351Z" fill="#713D2F"/>
<path d="M90.2557 92.3132C90.0739 92.3142 89.8973 92.2518 89.7566 92.1366C89.6158 92.0215 89.5197 91.8608 89.4847 91.6823C86.3203 76.4613 99.108 71.7748 109.382 68.0096C115.33 65.8265 117.714 60.9999 116.462 53.5896C116.377 53.2836 116.353 52.9636 116.392 52.6483C116.435 52.4535 116.549 52.2821 116.713 52.1683C116.877 52.0545 117.078 52.0068 117.275 52.0346C117.473 52.0625 117.652 52.1638 117.778 52.3185C117.904 52.4731 117.967 52.6696 117.954 52.8686C117.954 52.9587 117.954 53.119 118.024 53.3193C119.767 63.5935 114.589 67.7893 109.933 69.4916C97.5859 74.0179 88.3631 78.5041 91.0368 91.3619C91.0783 91.5689 91.0363 91.784 90.92 91.9603C90.8038 92.1366 90.6226 92.2598 90.416 92.3032L90.2557 92.3132Z" fill="#282E3E"/>
<path d="M146.283 50.9065C145.021 58.6171 141.747 63.7142 132.674 64.5854C122.53 65.5868 116.562 58.4369 115.471 49.5045C115.074 45.6727 114.917 41.8199 115 37.9686C115.643 37.7583 116.207 37.3592 116.62 36.8233C117.033 36.2874 117.274 35.6396 117.313 34.9644C117.563 29.9575 116.592 18.061 127.637 17.8307C129.84 17.8307 134.497 17.4201 134.647 16.9595C138.838 17.1525 143.012 17.6141 147.144 18.3414C147.865 29.2965 147.976 40.7724 146.283 50.9065Z" fill="#FFCBBB"/>
<path d="M117.623 39.6298C119.626 41.983 119.776 45.0472 118.053 46.4692C116.331 47.8912 113.357 47.1502 111.404 44.7969C109.452 42.4437 109.261 39.3794 110.974 37.9474C112.686 36.5155 115.67 37.3166 117.623 39.6298Z" fill="#FFCBBB"/>
<path d="M148.506 3.86006C156.698 9.78827 160.473 21.4945 156.668 26.7518C152.862 32.009 143.139 31.4683 134.948 25.5401C126.756 19.6119 123.251 10.5894 127.007 5.29204C131.343 -0.836442 140.275 -2.06814 148.506 3.86006Z" fill="#713D2F"/>
<path d="M78.0505 64.5836C70.6926 62.3065 62.9604 61.4901 55.2891 62.1803C55.4593 62.4607 55.9299 58.0045 56.2203 54.9103C56.3039 54.1004 56.6715 53.3463 57.2581 52.7817C57.8447 52.2171 58.6123 51.8785 59.4248 51.826C65.2319 51.2697 71.0916 51.734 76.7387 53.1979C77.5585 53.4154 78.2689 53.9285 78.7329 54.6385C79.197 55.3484 79.382 56.205 79.2522 57.0432L78.0505 64.5836Z" fill="#1B7EE0"/>
<path d="M80.6928 70.0219C80.6928 69.331 80.6327 68.6801 80.5726 68.0191C80.4181 66.6165 79.8641 65.2878 78.9766 64.1908C78.089 63.0937 76.9052 62.2746 75.5657 61.8306C72.4379 60.7748 69.1718 60.1843 65.8723 60.0782C62.6643 59.8802 59.4447 60.1603 56.319 60.9093C54.1961 61.4601 52.9544 63.2826 51.6225 65.045C47.2265 70.8631 48.6184 81.2575 48.9388 82.2488C45.2337 84.542 42.2997 88.868 40.4171 93.0337C36.7721 101.095 32.406 114.774 33.0669 140.349C33.3172 149.642 37.6533 158.234 46.9161 159.816L47.3467 159.896C57.1502 161.569 65.4417 154.829 68.3157 145.316C75.6659 121.153 81.3637 95.5172 80.6928 70.0219Z" fill="#348EF6"/>
<path d="M69.8161 141.181C69.74 141.195 69.6618 141.195 69.5857 141.181C69.4845 141.151 69.3903 141.102 69.3088 141.035C69.2273 140.968 69.1602 140.885 69.1115 140.792C69.0628 140.698 69.0337 140.596 69.0257 140.49C69.0177 140.385 69.0311 140.279 69.065 140.18C72.2294 129.965 74.6027 115.886 75.8745 108.326C76.8758 102.588 76.8758 102.588 77.3665 102.317C77.4915 102.265 77.6276 102.245 77.7623 102.259C77.8969 102.273 78.026 102.321 78.1376 102.397C78.3075 102.517 78.4238 102.698 78.4612 102.902C78.4987 103.106 78.4544 103.317 78.3379 103.489C78.1977 104.02 77.8372 106.123 77.4366 108.496C76.1548 116.096 73.7716 130.246 70.5771 140.54C70.5411 140.717 70.4463 140.877 70.3082 140.993C70.17 141.109 69.9966 141.176 69.8161 141.181Z" fill="#282E3E"/>
<path d="M147.705 30.6776C144.618 30.6016 141.577 29.9212 138.752 28.6748C129.119 24.6693 124.943 14.395 124.733 13.9644C124.695 13.8678 124.676 13.7646 124.678 13.6607C124.68 13.5568 124.702 13.4543 124.743 13.359C124.785 13.2636 124.844 13.1774 124.919 13.1052C124.994 13.033 125.082 12.9762 125.179 12.938C125.275 12.8999 125.378 12.8812 125.482 12.8829C125.586 12.8847 125.689 12.9069 125.784 12.9483C125.879 12.9896 125.966 13.0494 126.038 13.1241C126.11 13.1988 126.167 13.287 126.205 13.3836C126.205 13.4838 130.311 23.5077 139.313 27.2128C146.193 30.0367 151.84 29.6662 156.126 26.1113C156.205 26.0438 156.297 25.9928 156.396 25.9613C156.495 25.9298 156.6 25.9184 156.703 25.9277C156.807 25.937 156.907 25.967 156.999 26.0157C157.091 26.0644 157.172 26.1309 157.238 26.2114C157.372 26.3723 157.436 26.5795 157.417 26.7878C157.398 26.9961 157.298 27.1885 157.138 27.3229C154.492 29.5264 151.148 30.7157 147.705 30.6776Z" fill="#282E3E"/>
<path d="M180.331 75.3289C180.224 75.3287 180.119 75.3074 180.021 75.2661C179.923 75.2249 179.834 75.1645 179.76 75.0886C173.111 68.199 161.905 71.083 161.805 71.083C161.718 71.1368 161.621 71.1725 161.52 71.188C161.419 71.2035 161.316 71.1985 161.217 71.1732C161.118 71.148 161.025 71.1031 160.943 71.0411C160.862 70.9792 160.794 70.9015 160.743 70.8127C160.639 70.6256 160.612 70.4057 160.666 70.1986C160.72 69.9916 160.852 69.8134 161.034 69.7011C161.675 69.3006 173.801 66.6068 180.901 73.967C181.048 74.1168 181.13 74.3181 181.13 74.5278C181.13 74.7375 181.048 74.9388 180.901 75.0886C180.828 75.1659 180.739 75.2272 180.641 75.2686C180.543 75.3099 180.437 75.3305 180.331 75.3289Z" fill="#282E3E"/>
<path d="M151.991 24.8698C143.76 24.8698 137.06 17.5596 136.129 15.7471C136.009 15.5707 135.957 15.3568 135.983 15.145C136.009 14.9332 136.111 14.738 136.269 14.5955C136.376 14.4969 136.508 14.4295 136.65 14.4008C136.793 14.3721 136.94 14.3832 137.077 14.4329C137.213 14.4825 137.334 14.5688 137.424 14.6823C137.515 14.7958 137.573 14.9321 137.591 15.0762C138.262 16.2378 145.602 24.7896 154.354 23.0873C154.56 23.0461 154.774 23.0884 154.949 23.2048C155.123 23.3213 155.245 23.5023 155.286 23.7081C155.327 23.914 155.285 24.1277 155.168 24.3024C155.052 24.477 154.871 24.5983 154.665 24.6394C153.784 24.8055 152.888 24.8827 151.991 24.8698Z" fill="#282E3E"/>
<path d="M139.663 46.3784C139.683 46.8799 139.663 47.3822 139.603 47.8805C139.163 51.6657 136.369 54.6699 132.874 54.8902C129.379 55.1105 126.055 52.1464 125.454 48.1709C125.4 47.8394 125.367 47.505 125.354 47.1695C125.354 47.1695 130.13 47.5501 132.694 47.53C137.45 47.51 139.663 46.3784 139.663 46.3784Z" fill="#282E3E"/>
<path d="M139.663 46.3784C139.683 46.8799 139.663 47.3822 139.603 47.8805C137.213 48.7487 134.686 49.1762 132.143 49.1423C129.874 49.166 127.616 48.828 125.454 48.1409C125.394 47.8004 125.374 47.2196 125.354 46.8891C127.721 47.2556 130.119 47.3931 132.513 47.2997C134.922 47.2386 137.318 46.9298 139.663 46.3784Z" fill="white"/>
<path d="M125.435 35.4648C125.435 36.4662 124.874 37.1872 124.183 37.1872C123.492 37.1872 122.941 36.4161 122.941 35.4648C122.941 34.5135 123.502 33.7324 124.183 33.7324C124.864 33.7324 125.435 34.5035 125.435 35.4648Z" fill="#282E3E"/>
<path d="M142.688 34.9919C142.688 35.8831 142.177 36.5941 141.536 36.5941C140.895 36.5941 140.385 35.8831 140.385 34.9919C140.385 34.1006 140.895 33.3896 141.536 33.3896C142.177 33.3896 142.688 34.1107 142.688 34.9919Z" fill="#282E3E"/>
<path d="M134.708 42.344C134.708 42.1637 134.418 41.1323 134.067 39.7804C133.607 37.9679 132.976 35.5946 132.485 33.9023C132.422 33.7535 132.307 33.6327 132.162 33.5629C132.016 33.4931 131.85 33.4791 131.695 33.5235C131.539 33.5679 131.406 33.6676 131.319 33.8038C131.232 33.94 131.198 34.1033 131.223 34.2628C131.964 36.8163 133.006 40.8719 133.326 42.1938C132.468 42.3249 131.591 42.2423 130.773 41.9534C130.7 41.9068 130.62 41.8748 130.535 41.8593C130.45 41.8439 130.363 41.8453 130.279 41.8634C130.195 41.8815 130.115 41.916 130.044 41.965C129.974 42.014 129.913 42.0764 129.866 42.1487C129.82 42.2211 129.788 42.3019 129.772 42.3865C129.757 42.4712 129.758 42.5581 129.776 42.6423C129.795 42.7264 129.829 42.8062 129.878 42.877C129.927 42.9478 129.989 43.0083 130.062 43.055C130.837 43.421 131.689 43.5929 132.545 43.5557C133.061 43.5691 133.575 43.498 134.067 43.3454C134.161 43.3164 134.249 43.2724 134.328 43.2152C134.475 43.1285 134.591 42.9976 134.659 42.8412C134.727 42.6848 134.745 42.5108 134.708 42.344Z" fill="#282E3E"/>
<path d="M125.915 26.6819C125.915 26.6819 123.662 21.3245 121.068 28.3743" stroke="#713D2F" stroke-width="1.36798" stroke-miterlimit="10"/>
<path d="M109.382 91.9424L105.156 97.2097" stroke="#282E3E" stroke-width="1.88098" stroke-linecap="round" stroke-linejoin="round"/>
<path d="M132.504 102.646L132.113 108.074" stroke="#282E3E" stroke-width="1.88098" stroke-linecap="round" stroke-linejoin="round"/>
<path d="M123.393 101.676L121.641 107.304" stroke="#282E3E" stroke-width="1.88098" stroke-linecap="round" stroke-linejoin="round"/>
<path d="M115.431 97.9912L112.918 103.228" stroke="#282E3E" stroke-width="1.88098" stroke-linecap="round" stroke-linejoin="round"/>
<path d="M141.227 101.095L143.169 106.913" stroke="#282E3E" stroke-width="1.88098" stroke-linecap="round" stroke-linejoin="round"/>
<path d="M148.598 97.5996L152.673 102.066" stroke="#282E3E" stroke-width="1.88098" stroke-linecap="round" stroke-linejoin="round"/>
<path d="M154.615 92.1719L157.72 94.4951" stroke="#282E3E" stroke-width="1.88098" stroke-linecap="round" stroke-linejoin="round"/>
<path d="M104.184 86.1548L100.309 90.0402" stroke="#282E3E" stroke-width="1.88098" stroke-linecap="round" stroke-linejoin="round"/>
</svg>
