<svg xmlns="http://www.w3.org/2000/svg" width="199" height="173" fill="none" viewBox="0 0 199 173">
  <path fill="#F4ACAC" d="M0 22h199v150H0z"/>
  <path fill="#FFCBBB" d="M69.117 26.611c1.474-.11 2.955-.09 4.426.06 1.46.14 2.912.363 4.346.671a32 32 0 0 1 4.306 1.272q1.1.399 2.153.911c.34.17.731.37 1.082.581l.27.17.3.18c.19.14.39.271.571.411a2.394 2.394 0 0 1-1.182 4.276l-.66.08h-1.903c-.681 0-1.372 0-2.063-.08a49 49 0 0 1-4.186-.43 61 61 0 0 1-4.186-.742 29 29 0 0 1-4.125-1.211h-.05a3.184 3.184 0 0 1 .89-6.119l.01-.03Z"/>
  <path fill="#FFCBBB" d="M67.033 33.411a27 27 0 0 1 4.597-.14 44 44 0 0 1 4.536.46 36 36 0 0 1 4.516 1.002c.751.22 1.502.46 2.263.751q1.215.472 2.344 1.122a2.423 2.423 0 0 1-.842 4.476l-.47.07q-1.027.15-2.063.18c-.721 0-1.462.06-2.193 0a51 51 0 0 1-4.436-.19c-1.482-.13-3.004-.3-4.426-.54a29 29 0 0 1-4.387-1.002 3.175 3.175 0 0 1 .591-6.159z"/>
  <path fill="#FFCBBB" d="M67.924 40.03a20.7 20.7 0 0 1 3.595-.33c1.202 0 2.384 0 3.565.11s2.364.22 3.535.41a23 23 0 0 1 3.505.841h.14a2.523 2.523 0 0 1 .27 4.677c-1.22.557-2.51.948-3.835 1.161a22.6 22.6 0 0 1-3.835.34 26.5 26.5 0 0 1-3.785-.21 18.2 18.2 0 0 1-3.735-.88 3.194 3.194 0 0 1 .45-6.13l.13.01Z"/>
  <path fill="#FFCBBB" d="M67.044 46.128c1.04-.33 2.11-.562 3.194-.69a35 35 0 0 1 3.205-.271 31 31 0 0 1 3.194 0c1.087.035 2.17.162 3.235.38l.21.05a2.543 2.543 0 0 1 .941 4.547 12.7 12.7 0 0 1-3.394 1.662 19 19 0 0 1-3.505.801 23 23 0 0 1-3.525.19 14.8 14.8 0 0 1-3.555-.49 3.204 3.204 0 0 1-.21-6.119zM64.91 27.813c.641-3.675 3.225-6.42 5.167-10.365 1.943-3.945 2.284-9.553 2.284-9.553s2.813 1.112 3.454 6.73c.611 5.417-2.733 15.28-2.733 15.28z"/>
  <path fill="#FFCBBB" d="M66.544 24.148s-5.097 9.383-6.398 16.643c-1.443 8.122-2.083 16.483 3.224 16.593s18.215-7.8 18.215-7.8L68.908 25.31z"/>
  <path fill="#FFCBBB" d="M76.096 52.311 59.295 49.63l-2.398 15.02 16.8 2.682 2.399-15.02Z"/>
  <path fill="#C15638" d="M84.658 36.976a.8.8 0 0 1-.421-.12c-3.385-2.113-12.577-2.784-12.668-2.794a.79.79 0 0 1-.458-1.387.8.8 0 0 1 .569-.195c.4 0 9.683.71 13.388 3.004a.792.792 0 0 1-.41 1.462zm-1.162 5.839a.77.77 0 0 1-.56-.24C80.871 40.512 72.92 40.09 71.92 40.16a.792.792 0 0 1-.05-1.582c.1 0 9.423.08 12.217 2.884a.78.78 0 0 1 0 1.112.8.8 0 0 1-.59.24ZM81.945 48.1a.8.8 0 0 1-.751-.46c-1.001-2.113-8.011-2.714-9.914-2.674a.8.8 0 0 1-.752-1.075.78.78 0 0 1 .712-.507c.08 0 9.754 0 11.406 3.585a.79.79 0 0 1-.39 1.051.8.8 0 0 1-.311.08"/>
  <path fill="#348EF6" d="M113.458 107.392a304 304 0 0 1-21.6 22.031c-9.142 8.502-18.896 16.773-28.81 24.774l-3.725 3.004a13.35 13.35 0 0 1-16.39.243 13.35 13.35 0 0 1-3.778-4.448c-2.413-4.727-4.005-10.245-5.637-17.875 22.951-16.683 35.469-30.723 53.554-50.18a412 412 0 0 0 26.386 22.451m76.216 41.109c-6.008-8.011-12.017-15.211-14.2-18.396a204 204 0 0 1-19.216-19.026 93 93 0 0 0 10.014-11.646c1.842-2.453 3.615-4.927 5.457-7.4 2.003-2.644 4.006-5.267 6.249-7.811l.13-.15a82 82 0 0 1 7.3 4.466c1.102.731 10.104 8.332 13.208 14.54v45.443z"/>
  <path fill="#348EF6" d="M115.732 141.794c12.885-4.967 18.063-22.661 11.564-39.52s-22.212-26.499-35.098-21.532-18.063 22.66-11.564 39.519 22.212 26.5 35.098 21.533"/>
  <path fill="#713D2F" d="M134.458 19.31c0-8.762-9.113-11.385-17.074-11.385-7.661 0-11.446 5.177-11.716 15.07v1.133a2 2 0 0 0 0 .26v41.147h28.79V22.976h-.361c.232-1.209.352-2.435.361-3.665Z"/>
  <path fill="#348EF6" d="M184.478 172.223H80.965c2.543-4.006 4.005-9.454 5.007-15.852 1.242-7.831 1.722-17.124 2.473-27.188 1.192-16.022 3.004-34.047 9.664-51.07a313.4 313.4 0 0 0 69.185 0c8.282 19.927 7.811 41.136 8.332 59.031.27 9.703.811 18.416 3.204 25.435a.14.14 0 0 1 0 .1 36 36 0 0 0 1.422 3.485v.06a23.6 23.6 0 0 0 4.226 5.999"/>
  <path fill="#FFCBBB" d="m165.572 75.82-.621.93-8.562 12.879a29.276 29.276 0 0 1-36.23 10.525 29.3 29.3 0 0 1-10.775-8.202L96.847 76.68l-.671-.822 7.41-19.286h54.565l7.421 19.246Z"/>
  <path fill="#282E3E" d="M121.83 58.436c-.29 1.091 5.738 12.217 21.119 11.235 15.382-.981 5.228-11.556 5.228-11.556l-11.797.32h-14.55Z"/>
  <path fill="#fff" d="m164.948 76.751-8.562 12.878a29.28 29.28 0 0 1-22.917 13.003 29.29 29.29 0 0 1-24.088-10.68l-12.537-15.27 12.537-8.643s13.018 4.887 19.507 5.097a76.6 76.6 0 0 0 3.084 12.558l1.813-12.368s10.204-3.264 13.879-6.118c5.087 2.664 13.288 7.27 17.284 9.543"/>
  <path stroke="#282E3E" stroke-linecap="round" stroke-linejoin="round" stroke-width="1.881" d="m127.819 74.759-6.238 11.686s-11.346-5.458-13.89-12.377m27.006.691 6.239 11.686s9.884-5.458 14.961-12.377"/>
  <path fill="#713D2F" d="M184.837 83.88c-1.703-7.13-6.629-12.327-11.937-13.268a19.2 19.2 0 0 0 4.246-12.147 18.87 18.87 0 0 0-6.639-14.56c-.897-.748-1.87-1.4-2.904-1.943-4.687-3.334-13.469-10.654-14.27-19.026h-15.882l6.159 30.432s-6.82 13.229-4.176 20.288c2.383 6.339 17.104 6.74 21.38 15.762v.21a22 22 0 0 0 1.001 3.145c2.864 7.06 9.012 11.415 14.83 10.014 6.69-1.563 10.325-10.084 8.192-18.907m-63.499-26.145-15.681-14.29c.24 12.157-12.678 12.147-22.361 16.713-7.08 3.345-11.406 14.02-8.743 22.03 2.003 6.01-3.865 9.564-3.204 17.195.921 10.735 12.187 12.797 18.105 6.889 2.804-2.794 2.624-7.42 1.352-11.966v-.09c-3.605-12.588 9.413-14.6 22.371-16.734 12.958-2.133 8.161-19.747 8.161-19.747"/>
  <path fill="#282E3E" d="M90.256 92.313a.78.78 0 0 1-.771-.63C86.32 76.46 99.108 71.774 109.382 68.01c5.948-2.184 8.332-7.01 7.08-14.42a2.4 2.4 0 0 1-.07-.942.79.79 0 0 1 1.562.22c0 .09 0 .251.07.451 1.743 10.274-3.435 14.47-8.091 16.173-12.347 4.526-21.57 9.012-18.896 21.87a.8.8 0 0 1-.621.941z"/>
  <path fill="#FFCBBB" d="M146.283 50.907c-1.262 7.71-4.536 12.807-13.609 13.678-10.144 1.002-16.112-6.148-17.203-15.08A93 93 0 0 1 115 37.968a3.37 3.37 0 0 0 2.313-3.005c.25-5.006-.721-16.903 10.324-17.133 2.203 0 6.86-.41 7.01-.872a98 98 0 0 1 12.497 1.382c.721 10.956.832 22.431-.861 32.566Z"/>
  <path fill="#FFCBBB" d="M117.623 39.63c2.003 2.353 2.153 5.417.43 6.84-1.722 1.421-4.696.68-6.649-1.673-1.952-2.353-2.143-5.418-.43-6.85s4.696-.63 6.649 1.683"/>
  <path fill="#713D2F" d="M148.506 3.86c8.192 5.928 11.967 17.634 8.162 22.892-3.806 5.257-13.529 4.716-21.72-1.212-8.192-5.928-11.697-14.95-7.941-20.248 4.336-6.128 13.268-7.36 21.499-1.432"/>
  <path fill="#1B7EE0" d="M78.05 64.584a59.1 59.1 0 0 0-22.76-2.404c.17.28.64-4.175.93-7.27a3.445 3.445 0 0 1 3.205-3.084 50 50 0 0 1 17.314 1.372 3.434 3.434 0 0 1 2.513 3.845l-1.201 7.54Z"/>
  <path fill="#348EF6" d="M80.693 70.022c0-.691-.06-1.342-.12-2.003a7.37 7.37 0 0 0-5.007-6.188 33.7 33.7 0 0 0-9.694-1.753 32.4 32.4 0 0 0-9.553.831c-2.123.551-3.365 2.374-4.697 4.136-4.395 5.818-3.004 16.212-2.683 17.204-3.705 2.293-6.64 6.619-8.522 10.785-3.645 8.061-8.011 21.74-7.35 47.315.25 9.293 4.586 17.885 13.85 19.467l.43.08c9.803 1.673 18.095-5.067 20.969-14.58 7.35-24.163 13.048-49.799 12.377-75.294"/>
  <path fill="#282E3E" d="M69.816 141.181a.6.6 0 0 1-.23 0 .8.8 0 0 1-.474-.389.78.78 0 0 1-.047-.612c3.164-10.215 5.538-24.294 6.81-31.854 1-5.738 1-5.738 1.492-6.009a.81.81 0 0 1 .77.08.794.794 0 0 1 .2 1.092c-.14.531-.5 2.634-.9 5.007-1.282 7.6-3.665 21.75-6.86 32.044a.8.8 0 0 1-.76.641Zm77.889-110.503a23.6 23.6 0 0 1-8.953-2.003c-9.633-4.006-13.809-14.28-14.019-14.71a.79.79 0 0 1 .446-1.027.79.79 0 0 1 .859.186.8.8 0 0 1 .167.26c0 .1 4.106 10.124 13.108 13.829 6.88 2.824 12.527 2.453 16.813-1.102a.78.78 0 0 1 1.112.1.79.79 0 0 1-.1 1.112 14.5 14.5 0 0 1-9.433 3.355m32.626 44.651a.8.8 0 0 1-.571-.24c-6.649-6.89-17.855-4.006-17.955-4.006a.76.76 0 0 1-1.062-.27.83.83 0 0 1 .291-1.112c.641-.4 12.767-3.094 19.867 4.266a.8.8 0 0 1 0 1.122.77.77 0 0 1-.57.24"/>
  <path fill="#282E3E" d="M151.991 24.87c-8.231 0-14.931-7.31-15.862-9.123a.88.88 0 0 1 .14-1.152.8.8 0 0 1 .808-.162.79.79 0 0 1 .514.643c.671 1.162 8.011 9.714 16.763 8.011a.793.793 0 0 1 .932.621.79.79 0 0 1-.621.931 13.3 13.3 0 0 1-2.674.23Zm-12.328 21.508q.03.754-.06 1.502c-.44 3.786-3.234 6.79-6.729 7.01s-6.819-2.744-7.42-6.72a8 8 0 0 1-.1-1s4.776.38 7.34.36c4.756-.02 6.969-1.152 6.969-1.152"/>
  <path fill="#fff" d="M139.663 46.378q.03.754-.06 1.502a21 21 0 0 1-7.46 1.262 21.4 21.4 0 0 1-6.689-1.001c-.06-.34-.08-.921-.1-1.252 2.367.367 4.765.504 7.159.41a35 35 0 0 0 7.15-.92Z"/>
  <path fill="#282E3E" d="M125.435 35.465c0 1.001-.561 1.722-1.252 1.722s-1.242-.77-1.242-1.722.561-1.733 1.242-1.733 1.252.772 1.252 1.733m17.253-.473c0 .891-.511 1.602-1.152 1.602s-1.151-.71-1.151-1.602c0-.891.51-1.602 1.151-1.602s1.152.72 1.152 1.602m-7.98 7.352c0-.18-.29-1.212-.641-2.564a202 202 0 0 0-1.582-5.878.664.664 0 0 0-.79-.379.66.66 0 0 0-.472.74c.741 2.553 1.783 6.609 2.103 7.93a5.3 5.3 0 0 1-2.553-.24.66.66 0 0 0-.729.012.7.7 0 0 0-.178.184.67.67 0 0 0 .012.728q.074.106.184.178a5.3 5.3 0 0 0 2.483.5 4.7 4.7 0 0 0 1.522-.21.9.9 0 0 0 .261-.13.81.81 0 0 0 .38-.871"/>
  <path stroke="#713D2F" stroke-miterlimit="10" stroke-width="1.368" d="M125.915 26.682s-2.253-5.357-4.847 1.692"/>
  <path stroke="#282E3E" stroke-linecap="round" stroke-linejoin="round" stroke-width="1.881" d="m109.382 91.942-4.226 5.268m27.348 5.436-.391 5.428m-8.72-6.398-1.752 5.628m-6.21-9.313-2.513 5.237m28.309-2.133 1.942 5.818m5.429-9.313 4.075 4.466m1.942-9.894 3.105 2.323m-53.536-8.34-3.875 3.885"/>
</svg>
