<svg xmlns="http://www.w3.org/2000/svg" width="90" height="67" fill="none" viewBox="0 0 90 67">
  <path fill="#0085F0" d="M89.803 19.973c.024 4.636-1.27 8.957-3.221 13.095-4.122 8.742-9.964 16.204-17.078 22.703-4.215 3.85-8.758 7.273-13.531 10.398-.458.3-.778.328-1.207-.008-.618-.484-1.167-1.008-1.5-1.73-.413-.898-.464-1.716.05-2.665 3.226-5.985 6.34-12.03 8.892-18.341.533-1.319 1.014-2.658 1.272-4.065.216-1.181.15-1.329-.859-1.926-2.88-1.704-5.57-3.648-7.792-6.18-2.775-3.163-4.228-6.793-4.022-11.058.226-4.678 1.459-8.991 4.454-12.672C58.687 3.317 63.205 1.042 68.513.25c3.32-.496 6.596-.263 9.796.78 5.703 1.86 9.081 5.864 10.594 11.563.642 2.417.88 4.886.9 7.381v-.001Zm-50.714-1.184c.062 5.938-1.344 10.426-3.414 14.725-4.085 8.48-9.786 15.752-16.7 22.103-4.295 3.945-8.937 7.434-13.812 10.626-.36.236-.622.255-.968.007-.678-.485-1.272-1.039-1.623-1.81-.406-.892-.47-1.715.043-2.666 3.304-6.109 6.536-12.257 9.12-18.719.482-1.208.936-2.43 1.162-3.721.213-1.219.162-1.325-.925-1.96-2.36-1.383-4.569-2.97-6.535-4.886C1.529 28.684-.291 24.155.353 18.644c.66-5.637 2.829-10.444 7.29-14.07C11.07 1.79 15.057.403 19.43.119c2.985-.194 5.938.052 8.783 1.047 5.235 1.833 8.322 5.64 9.838 10.851.746 2.566 1.033 5.2 1.039 6.772v.001Z"/>
</svg>
