<svg xmlns="http://www.w3.org/2000/svg" width="80" height="81" fill="none" viewBox="0 0 80 81">
  <circle cx="40" cy="40.499" r="40" fill="#EAF3FE"/>
  <path fill="#348EF6" d="M65.516 50.483c-.205 1.02-.342 2.062-.628 3.06-1.992 6.955-8.654 11.56-15.926 11.056-2.187-.151-4.257-.707-6.174-1.752-2.54-1.386-5.024-1.361-7.6-.026-9.001 4.665-19.816-.093-22.296-9.767-2.216-8.647 3.5-17.414 12.345-18.9.949-.16 1.925-.216 2.888-.226 2.661-.03 5.324-.01 7.986-.01h.65v-.62c0-3.446-.014-6.893.006-10.34.017-3.127 2.132-5.765 5.106-6.426 4.11-.914 7.878 1.935 8.155 6.166.114 1.722.896 2.447 2.642 2.449.639 0 1.28-.017 1.918.012a2.18 2.18 0 0 1 2.082 2.155c.013 1.144-.889 2.154-2.043 2.184-1.138.03-2.3.1-3.414-.075-3.306-.518-5.499-3.112-5.61-6.472-.037-1.133-.803-2.016-1.893-2.183a2.205 2.205 0 0 0-2.402 1.462 2.626 2.626 0 0 0-.133.806c-.008 3.532-.005 7.064-.004 10.597 0 .067.013.134.025.261.183.008.364.024.546.024 2.696 0 5.393-.002 8.09.002 7.493.01 13.62 4.839 15.317 12.084.163.696.247 1.408.369 2.113v2.367h-.002Zm-4.436-1.198c.001-5.986-4.775-10.893-10.816-10.946a1208.52 1208.52 0 0 0-22.706.005c-5.815.058-10.55 4.823-10.706 10.585-.17 6.31 4.88 11.402 11.238 11.323 1.942-.024 3.728-.592 5.433-1.497 2.012-1.069 4.17-1.492 6.453-1.296 1.66.143 3.21.623 4.667 1.414a11.187 11.187 0 0 0 4.734 1.367c6.36.366 11.701-4.64 11.702-10.955h.001Z"/>
  <path fill="#348EF6" d="M50.012 55.853c-3.705-.015-6.632-2.95-6.61-6.625.021-3.624 3.01-6.554 6.667-6.537 3.605.016 6.602 2.999 6.602 6.569 0 3.66-2.98 6.609-6.66 6.593Zm.04-8.761a2.216 2.216 0 0 0-2.238 2.167c-.02 1.188.972 2.194 2.19 2.221 1.19.027 2.228-.981 2.235-2.173a2.21 2.21 0 0 0-2.187-2.215Zm-24.361 4.392c-.785 0-1.508.025-2.23-.005-1.266-.054-2.21-1.017-2.201-2.21.01-1.224.988-2.164 2.279-2.178.69-.009 1.38-.002 2.152-.002 0-.764-.02-1.51.005-2.256.027-.836.426-1.474 1.172-1.87.748-.394 1.502-.361 2.216.084.718.448 1.03 1.13 1.038 1.956.005.668.001 1.336.001 2.086.74 0 1.457-.008 2.174.003 1.39.02 2.356 1.102 2.217 2.47-.111 1.091-1.044 1.893-2.258 1.922-.687.017-1.375.003-2.134.003 0 .742.017 1.44-.003 2.135-.037 1.289-.942 2.212-2.165 2.234-1.234.023-2.226-.9-2.259-2.13-.02-.717-.003-1.436-.003-2.24l-.001-.002Z"/>
</svg>
