<svg xmlns="http://www.w3.org/2000/svg" width="717" height="718" fill="none" viewBox="0 0 717 718">
  <g filter="url(#a)">
    <path stroke="url(#b)" stroke-miterlimit="10" stroke-width="2.24" d="M537.399 538.736c98.932-99.004 98.932-259.523 0-358.527-98.932-99.005-259.334-99.005-358.266 0-98.932 99.004-98.932 259.523 0 358.527 98.932 99.005 259.334 99.005 358.266 0Z"/>
  </g>
  <g filter="url(#c)">
    <path stroke="url(#d)" stroke-miterlimit="10" stroke-width="3.26" d="M527.012 528.341c93.196-93.263 93.196-244.474 0-337.738-93.196-93.263-244.296-93.263-337.492 0-93.196 93.264-93.196 244.475 0 337.738 93.196 93.264 244.296 93.264 337.492 0Z"/>
  </g>
  <path fill="#8F77E5" d="m408.597 287.224 47.863-49.061c-26.048-24.903-60.571-40.523-98.784-41.63v73.908h1.061c18.632-.056 35.9 6.223 49.871 16.772l-.011.011Z"/>
  <path fill="#488CEC" d="M348.884 270.599v-74.066c-79.937 2.361-144.322 68.34-146.647 150.233h72.319c2.122-41.02 34.309-73.964 74.328-76.167Z"/>
  <path fill="#D2666A" d="M442.375 346.766h62.05c-1.163-39.619-16.726-75.523-41.724-102.278l-47.332 48.451c14.716 13.654 24.67 32.583 26.995 53.827h.011Z"/>
  <path fill="#62BA7A" d="M274.443 356.671v-.904h-72.217C204.55 437.66 268.936 503.64 348.873 506v-63.619c-41.825-4.969-74.441-41.426-74.441-85.71h.011Z"/>
  <path fill="#745AC2" d="m405.313 290.533 3.284-3.309c-13.972-10.548-31.239-16.771-49.872-16.771h-1.061v.101c18.317 1.051 34.839 8.38 47.649 19.979Z"/>
  <path fill="#B8585B" d="M432.105 346.766h10.27c-2.325-21.244-12.279-40.173-26.996-53.827l-3.701 3.863c11.861 13.36 19.479 30.776 20.438 49.964h-.011Z"/>
  <path fill="#4BA05E" d="M274.545 355.767c-.102.305-.102.599-.102.904 0 44.238 32.616 80.741 74.441 85.665v-10.391c-40.019-2.213-72.217-35.101-74.328-76.166l-.011-.012Z"/>
  <path fill="#EEB554" d="M442.906 355.767h-10.699c-.316 5.275-1.061 10.346-2.325 15.315-2.438 7.477-3.702 15.461-3.702 23.796 0 4.066.316 8.03.948 11.904v.35c.531 4.021 1.163 7.884 2.652 11.701l3.07 8.03c.102 2.756-1.162 5.116-4.232 5.116h-42.243c-11.646 0-18.215.452-27.954.147h-.847v73.818h3.702c10.586 0 48.077-4.111 66.394-8.189 6.139-1.457 12.809-1.603 18.949 0 21.07 5.873 41.825 8.132 64.588 8.132 4.661 0 6.772-5.421 4.131-8.335-5.824-6.528-9.638-11.396-11.015-24.553l.101-117.198h-61.518"/>
  <path fill="#E29D4F" d="M441.529 371.229c0-.204 0-.407.101-.599.102-.858.215-1.705.316-2.507 0-.057 0-.147.102-.203.101-1.706.316-3.468.429-5.218v-.102c.101-1.807.214-3.614.214-5.421v-1.4h-10.484c-.215 4.574-.847 9.035-1.795 13.36-.214.655-.316 1.31-.429 1.954-2.437 7.477-3.814 15.462-3.814 23.797 0 4.065.316 8.03.948 11.904v.35c.316 1.705.53 3.365.846 4.969.531 2.315 1.163 4.574 1.795 6.776l2.324 6.077c.215.406.316.801.531 1.253.214.452.316.949.316 1.502 0 1.954-1.377 3.614-3.07 4.066v.147h-72.421v11h81.845c5.191 0 9.423-4.37 9.423-9.735v-1.254c-.214-1.152-.53-2.259-1.06-3.264a6.965 6.965 0 0 0-.745-1.152c-.215-.406-.418-.802-.632-1.208-6.67-11.644-8.995-25.254-7.415-38.614l1.275-9.194c.102-.802.316-1.558.531-2.36.101-.102.101-.249.101-.35.215-.802.316-1.604.531-2.406l.214-2.157.023-.011Z"/>
  <defs>
    <linearGradient id="b" x1="103.646" x2="612.868" y1="359.477" y2="359.477" gradientUnits="userSpaceOnUse">
      <stop stop-color="#458CEC"/>
      <stop offset="1" stop-color="#458CEC"/>
    </linearGradient>
    <linearGradient id="d" x1="117.745" x2="598.786" y1="359.469" y2="359.469" gradientUnits="userSpaceOnUse">
      <stop stop-color="#458CEC"/>
      <stop offset="1" stop-color="#458CEC"/>
    </linearGradient>
    <filter id="a" width="567.984" height="568.355" x="94.954" y="95.975" color-interpolation-filters="sRGB" filterUnits="userSpaceOnUse">
      <feFlood flood-opacity="0" result="BackgroundImageFix"/>
      <feColorMatrix in="SourceAlpha" result="hardAlpha" values="0 0 0 0 0 0 0 0 0 0 0 0 0 0 0 0 0 0 127 0"/>
      <feOffset dx="20.68" dy="20.68"/>
      <feGaussianBlur stdDeviation="14.77"/>
      <feColorMatrix values="0 0 0 0 0 0 0 0 0 0 0 0 0 0 0 0 0 0 0.25 0"/>
      <feBlend in2="BackgroundImageFix" result="effect1_dropShadow_27882_972"/>
      <feBlend in="SourceGraphic" in2="effect1_dropShadow_27882_972" result="shape"/>
    </filter>
    <filter id="c" width="536.184" height="536.535" x="109.654" y="110.685" color-interpolation-filters="sRGB" filterUnits="userSpaceOnUse">
      <feFlood flood-opacity="0" result="BackgroundImageFix"/>
      <feColorMatrix in="SourceAlpha" result="hardAlpha" values="0 0 0 0 0 0 0 0 0 0 0 0 0 0 0 0 0 0 127 0"/>
      <feOffset dx="19.48" dy="19.48"/>
      <feGaussianBlur stdDeviation="13.91"/>
      <feColorMatrix values="0 0 0 0 0 0 0 0 0 0 0 0 0 0 0 0 0 0 0.25 0"/>
      <feBlend in2="BackgroundImageFix" result="effect1_dropShadow_27882_972"/>
      <feBlend in="SourceGraphic" in2="effect1_dropShadow_27882_972" result="shape"/>
    </filter>
  </defs>
</svg>
