<svg xmlns="http://www.w3.org/2000/svg" width="80" height="81" fill="none" viewBox="0 0 80 81">
  <circle cx="40" cy="40.5" r="40" fill="#EAF3FE"/>
  <g fill="#348EF6" clip-path="url(#a)">
    <path d="M38.746 71.994c-4.073 0-8.146 0-12.219.002-.376 0-.736-.023-1.049-.262-.402-.307-.572-.713-.57-1.2v-7.29c0-.87.025-1.742-.016-2.61-.081-1.753-.844-3.175-2.339-4.164-1.258-.833-2.506-1.671-3.65-2.651a25.796 25.796 0 0 1-4.865-5.544c-.8-1.23-1.51-2.511-2.043-3.875-.354-.91-.725-1.817-.991-2.75-.284-.992-.474-2.01-.671-3.023-.338-1.73-.394-3.478-.278-5.226.071-1.086.248-2.166.408-3.244.084-.566.207-1.13.358-1.683.192-.703.4-1.404.655-2.087.308-.82.635-1.638 1.02-2.425.405-.833.838-1.662 1.352-2.434a36.244 36.244 0 0 1 2.243-3.05c1.422-1.714 3.083-3.196 4.906-4.503a24.442 24.442 0 0 1 4.432-2.549c1.09-.477 2.224-.864 3.356-1.246 1.287-.434 2.623-.682 3.968-.892 1.873-.292 3.755-.338 5.638-.243 1.097.055 2.19.22 3.276.387.794.121 1.587.283 2.358.503.971.278 1.936.592 2.872.967a39.94 39.94 0 0 1 2.954 1.353c1.204.6 2.32 1.343 3.398 2.14 2.092 1.547 3.861 3.399 5.383 5.475.973 1.326 1.837 2.721 2.488 4.227.472 1.09.927 2.192 1.299 3.318.295.892.464 1.826.668 2.745.186.838.275 1.709.752 2.455.398.624.846 1.219 1.28 1.821.752 1.045 1.543 2.064 2.255 3.134.525.788.692 1.694.604 2.637-.136 1.463-.891 2.553-2.089 3.402-1.018.721-2.009 1.479-3.02 2.21a.588.588 0 0 0-.273.531c.008 3.096.013 6.19 0 9.286-.005 1.605-.677 2.902-2.005 3.855-.638.458-1.351.77-2.15.825-.696.049-1.394.068-2.093.075-1.127.012-2.255.003-3.383.004-.342 0-.348.007-.348.35 0 3.26-.003 6.518.002 9.778 0 .502-.149.93-.586 1.209-.195.125-.438.19-.669.248-.15.037-.318.014-.477.014H38.743h.002Zm.042-2.524h10.78c.378 0 .379 0 .379-.371v-9.606c0-.115 0-.23.005-.345.04-.87.688-1.379 1.49-1.365 1.22.022 2.44.006 3.66.006.918 0 1.835 0 2.752-.004a2.216 2.216 0 0 0 1.251-.387c.651-.44.9-1.076.902-1.823.002-3.26 0-6.519.002-9.779 0-.212 0-.427.024-.64.014-.125.041-.275.121-.365.235-.262.475-.528.754-.741 1.19-.908 2.404-1.786 3.59-2.699.903-.696 1.092-1.766.477-2.62a158.31 158.31 0 0 0-2.615-3.55 9.023 9.023 0 0 1-1.694-3.711c-.13-.626-.21-1.263-.364-1.883a23.094 23.094 0 0 0-1.29-3.816 22.984 22.984 0 0 0-2.06-3.704 23.472 23.472 0 0 0-4.163-4.614 23.169 23.169 0 0 0-4.326-2.942 29.056 29.056 0 0 0-2.338-1.08c-.7-.29-1.423-.536-2.148-.763a20.328 20.328 0 0 0-1.99-.523 22.12 22.12 0 0 0-2.287-.359c-.995-.098-1.995-.178-2.993-.182-1.37-.005-2.741.074-4.09.35-.812.166-1.64.287-2.433.514a25.97 25.97 0 0 0-2.84.982 29 29 0 0 0-2.878 1.393c-1.182.656-2.279 1.44-3.317 2.303a25.182 25.182 0 0 0-3.85 3.972c-.955 1.239-1.8 2.547-2.44 3.968-.416.918-.82 1.847-1.135 2.8-.292.886-.467 1.807-.678 2.717-.256 1.1-.328 2.224-.381 3.346-.063 1.307.021 2.61.24 3.9.15.881.285 1.768.526 2.626.274.975.607 1.941 1.006 2.874.419.978.905 1.934 1.434 2.86.709 1.238 1.577 2.375 2.53 3.448a23.345 23.345 0 0 0 4.23 3.73c.637.439 1.314.827 1.922 1.3 1.952 1.523 3.032 3.508 3.07 5.958.043 2.798.013 5.598.015 8.398 0 .082-.02.172.008.244a.3.3 0 0 0 .162.167c.092.03.199.013.3.013h10.68v.003Z"/>
    <path d="M35.713 19.506c3.526 0 7.052.003 10.578-.002.986-.001 1.772.372 2.295 1.18.203.314.362.7.394 1.066.065.767.037 1.542.04 2.313.005.97 0 1.937.002 2.906 0 .372 0 .374.374.374 1.229 0 2.457.014 3.685-.005.72-.011 1.285.406 1.456 1.107.126.512-.251 1.194-.758 1.424-.398.18-.808.128-1.215.133-.645.007-.529-.01-.53.513-.005 1.502-.002 3.005 0 4.507 0 .32.026.336.361.35.41.017.825.018 1.229.08.493.075.898.507.965.952.097.641-.124 1.204-.627 1.432a2.259 2.259 0 0 1-.866.194c-1.22.02-2.44.009-3.66.01-.382 0-.414.032-.414.41 0 1.594-.004 3.186 0 4.78.003.938-.381 1.678-1.166 2.22-.51.351-1.094.437-1.701.436h-7.549l-13.43-.001c-.36 0-.721.003-1.052-.19-.483-.282-.705-.803-.596-1.452.073-.431.505-.886.974-.952.405-.057.82-.057 1.23-.074.31-.013.344-.038.344-.347 0-1.527-.006-3.054.005-4.58.002-.247-.094-.316-.325-.308-.311.01-.622.008-.933 0-.748-.022-1.325-.612-1.32-1.34a1.301 1.301 0 0 1 1.308-1.316c1.288-.014 2.575-.006 3.863-.008.413 0 .414 0 .414-.39v-4.482c0-.325-.047-.372-.379-.373-1.212-.002-2.423 0-3.635 0-.504 0-.986-.078-1.291-.521-.127-.183-.193-.41-.264-.623-.035-.105-.023-.228-.023-.342l-.001-7.61c0-.325.03-.641.242-.91a1.382 1.382 0 0 1 1.146-.562c1.75.004 3.5 0 5.25 0h5.58Zm1.768 18.337h-8.456c-.237 0-.357.119-.357.356v4.531c0 .347.016.363.37.363h16.86c.365 0 .386-.02.386-.377V38.21c0-.244-.124-.367-.373-.367H37.48h.002Zm3.024-7.839c-2.835 0-5.669.002-8.505-.004-.232 0-.326.057-.325.302.01 1.535.004 3.069.005 4.604 0 .306.027.33.354.33H48.94c.34 0 .355-.016.355-.35v-4.53c0-.234-.121-.35-.364-.352h-8.429.002Zm-8.844-2.661c1.742 0 3.484-.002 5.226.003.19 0 .293-.033.292-.254a519.504 519.504 0 0 1 0-4.704c0-.225-.089-.299-.316-.298-3.45.005-6.9.003-10.352.004-.336 0-.375.042-.375.371v4.507c0 .37 0 .37.375.37h5.15Zm12.15-2.609c0 .78.005 1.56-.004 2.34-.002.202.067.275.277.272.656-.01 1.313-.007 1.969-.002.175 0 .235-.068.235-.236-.003-1.576-.003-3.152 0-4.729 0-.207-.082-.294-.3-.29-.615.008-1.23.001-1.844.002-.302 0-.331.03-.332.327-.002.772 0 1.544 0 2.314l-.001.002Zm-2.596 0c0-.778-.005-1.557.002-2.335.002-.208-.086-.306-.296-.306-.268 0-.537.003-.806-.002-.188-.004-.254.094-.254.26 0 1.59.001 3.18-.002 4.769 0 .177.082.228.247.224.269-.007.538-.01.806 0 .223.008.312-.067.307-.299-.013-.77-.005-1.54-.005-2.31Z"/>
  </g>
  <defs>
    <clipPath id="a">
      <path fill="#fff" d="M0 0h58v63H0z" transform="translate(10 9)"/>
    </clipPath>
  </defs>
</svg>
