<svg xmlns="http://www.w3.org/2000/svg" width="80" height="81" fill="none" viewBox="0 0 80 81">
  <circle cx="40" cy="40.5" r="40" fill="#EAF3FE"/>
  <g fill="#348EF6" clip-path="url(#a)">
    <path d="M63.77 35.875c2.295.307 4.276 1.192 5.787 2.922 2.512 2.878 3.135 6.174 1.648 9.697-1.474 3.498-4.258 5.293-8.025 5.535-.475.03-.954.014-1.432.007-1.506-.02-2.442-.963-2.445-2.491-.007-4.247.03-8.493-.011-12.739-.043-4.494-.999-8.778-3.48-12.571-3.933-6.008-9.584-8.947-16.69-8.539-7.363.424-12.66 4.238-15.872 10.908-1.464 3.042-2.117 6.31-2.172 9.676-.063 3.886-.129 7.777.018 11.657.193 5.111 2.298 9.25 6.764 11.957 1.64.995 3.455 1.492 5.38 1.515 1.623.02 3.245-.002 4.868.023 1.159.02 2.083.768 2.294 1.799.225 1.1-.3 2.16-1.307 2.606-.192.085-.412.169-.616.163-2.546-.076-5.156.16-7.628-.32-7.118-1.383-11.623-5.8-13.619-12.793-.136-.477-.29-.643-.793-.665-4.844-.215-8.2-3.607-8.425-8.507-.149-3.264.847-6.051 3.518-8.071 1.458-1.103 3.162-1.527 4.999-1.63.222-1.216.401-2.443.675-3.647 1.416-6.204 4.415-11.418 9.667-15.128 11.698-8.263 27.913-4 34.14 8.93 1.47 3.05 2.33 6.271 2.757 9.706Z"/>
    <path d="M30.99 42.5c1.356-.009 2.492 1.094 2.495 2.422.003 1.318-1.158 2.466-2.483 2.457-1.303-.009-2.425-1.109-2.458-2.41-.033-1.32 1.098-2.462 2.445-2.47h.001Zm11.606 2.442c-.007 1.369-1.113 2.482-2.446 2.463-1.335-.019-2.413-1.158-2.387-2.523.026-1.343 1.096-2.415 2.412-2.42 1.344-.004 2.427 1.106 2.422 2.48Zm9.165.025c-.02 1.368-1.136 2.471-2.47 2.438-1.337-.033-2.4-1.181-2.362-2.548.038-1.342 1.118-2.403 2.435-2.393 1.344.01 2.416 1.13 2.396 2.503h.001Z"/>
  </g>
  <defs>
    <clipPath id="a">
      <path fill="#fff" d="M0 0h64v55H0z" transform="translate(8 13)"/>
    </clipPath>
  </defs>
</svg>
