<svg xmlns="http://www.w3.org/2000/svg" width="80" height="81" fill="none" viewBox="0 0 80 81">
  <circle cx="40" cy="40.5" r="40" fill="#EAF3FE"/>
  <g fill="#348EF6" clip-path="url(#a)">
    <path d="M66 31.626c-.92 16.27-8.284 28.756-22.956 36.783-1.461.806-2.869.806-4.358 0-11.748-6.148-19.111-15.76-22.414-28.46-1.462-5.665-1.651-11.437-.595-17.21.243-1.396.676-1.664 2.03-1.584 7.715.403 14.157-2.282 19.3-8 1.354-1.504 1.76-1.531 3.195-.188 5.495 5.155 12.046 7.786 19.572 8.054 2.436.08 5.44 2.685 5.739 5.075.216 1.772.324 3.57.514 5.53H66Zm-47.78-7.678c-.595 3.785-.65 7.437-.081 11.088 1.922 12.914 8.419 22.875 19.599 29.83.622.375 1.055.429 1.732.053 14.646-8.162 22.47-23.709 20.223-40.166-.109-.779-.38-1.047-1.192-1.1-6.172-.377-11.775-2.363-16.783-5.934-1.002-.725-1.95-1.504-2.978-2.31-5.576 5.746-12.37 8.62-20.465 8.512l-.054.027Z"/>
    <path d="M23.121 33.184c.163-1.343.325-2.9.487-4.43.136-1.02.731-1.423 1.76-1.37 4.845.242 8.879-1.45 12.1-5.074.893-1.02 1.516-1.02 2.518-.08 3.438 3.248 7.525 4.94 12.29 5.047 1.164 0 1.705.51 1.921 1.665 2.004 11.115-2.923 22.982-14.563 29.104-.487.268-1.38.215-1.895-.054-8.094-4.645-12.804-11.625-14.266-20.78-.19-1.263-.244-2.552-.352-4.028Zm2.924-3.007C25.34 40.7 29.049 48.997 37.793 54.93c.487.35.92.618 1.597.188 8.446-5.235 12.696-12.726 12.425-22.633-.054-2.31-.135-2.336-2.409-2.685-3.98-.645-7.498-2.282-10.584-4.887-3.492 3.437-7.688 5.182-12.777 5.29v-.027Z"/>
    <path d="M36.63 41.56c2.544-2.094 4.953-4.134 7.416-6.121.325-.269.758-.671 1.11-.617.487.053 1.273.375 1.327.698.08.563-.082 1.396-.488 1.745-2.003 1.799-4.087 3.463-6.172 5.155-.812.67-1.597 1.342-2.409 1.986-.839.672-1.624.591-2.274-.268a243.247 243.247 0 0 1-3.032-4.161c-.487-.672-.46-1.397.217-1.907.73-.564 1.462-.349 1.976.35.758.966 1.462 1.986 2.301 3.114l.027.027Z"/>
  </g>
  <defs>
    <clipPath id="a">
      <path fill="#fff" d="M0 0h51v57H0z" transform="translate(15 12)"/>
    </clipPath>
  </defs>
</svg>
