<svg xmlns="http://www.w3.org/2000/svg" width="80" height="81" fill="none" viewBox="0 0 80 81">
  <circle cx="40" cy="40.499" r="40" fill="#EAF3FE"/>
  <g fill="#0085F0" stroke="#0085F0" stroke-miterlimit="10" stroke-width=".5" clip-path="url(#a)">
    <path d="M29.6 68.618c-1.022-.183-2.057-.32-3.063-.533C19.12 66.486 12.935 60 11.701 52.522c-1.066-6.396.548-12.03 4.844-16.889.091-.091.167-.198.259-.274.35-.32.822-.335 1.142-.046.32.29.366.777.061 1.143-.457.563-.96 1.096-1.401 1.69C8.685 48.73 14.504 64.065 27.45 66.623c5.941 1.173 11.257-.32 15.766-4.386 1.31-1.188 2.483-2.528 3.701-3.776l-5.163-5.163c-.061.107-.122.32-.26.457-1.005 1.02-1.995 2.056-3.03 3.015-5.667 5.24-14.776 3.23-17.488-3.898-1.584-4.203-.792-8.071 2.255-11.391 1.066-1.173 2.254-2.239 3.366-3.32-1.752-1.751-3.427-3.441-5.194-5.193-.213.244-.442.533-.7.792-.381.366-.838.38-1.174.046-.35-.335-.365-.822.03-1.218 2.423-2.437 4.845-4.889 7.312-7.295a2.89 2.89 0 0 1 3.991-.046 67.26 67.26 0 0 1 3.458 3.457c1.066 1.142 1.006 2.878-.076 4.036-.7.746-1.447 1.462-2.163 2.178-2.529 2.543-5.103 5.04-7.601 7.614-4.448 4.568-3.016 12.137 2.742 14.726 3.503 1.568 7.57.807 10.388-1.965 1.904-1.873 3.778-3.776 5.667-5.665.107-.106.198-.213.305-.304.426-.381.868-.411 1.218-.076.35.335.335.837-.076 1.264-.411.426-.823.822-1.234 1.248-.122.122-.244.26-.335.35l5.103 5.102 2.94-2.94c.7-.7 1.401-1.385 2.102-2.1.685-.716.7-1.463 0-2.178-.975-.99-1.95-1.98-2.955-2.955-.701-.685-1.447-.67-2.178.016-.244.243-.488.502-.762.715-.335.244-.7.214-1.005-.06-.305-.275-.412-.67-.153-.99.777-.975 1.645-1.843 3.031-1.828.823 0 1.539.305 2.133.868 1.051 1.036 2.117 2.071 3.138 3.153 1.234 1.294 1.234 3.076-.015 4.324-3.275 3.305-6.55 6.61-9.871 9.853-3.306 3.213-7.281 5.01-11.881 5.437-.122 0-.244.06-.366.091h-2.864.046Zm-1.753-31.812s.092-.046.137-.107c1.676-1.675 3.352-3.335 4.997-5.01.64-.655.624-1.416-.03-2.086-.945-.975-1.905-1.919-2.864-2.878-.823-.807-1.539-.807-2.361 0-1.57 1.568-3.138 3.121-4.692 4.69-.107.107-.183.213-.26.29l5.073 5.07v.03ZM67.62 43.14c-.412 1.128-1.235 1.554-2.423 1.539-3.061-.046-6.108 0-9.17 0-1.508 0-2.254-.746-2.254-2.254 0-.563-.046-1.142.06-1.69.32-1.782 1.372-2.954 3.093-3.503.091-.03.168-.06.259-.091.03 0 .06-.046.076-.061-1.401-2.345-1.173-4.599.64-6.122 1.615-1.34 4.006-1.325 5.605.015 1.371 1.158 2.377 3.564.61 6.107.06.03.122.076.183.091 1.751.518 2.848 1.645 3.244 3.442 0 .046.046.091.076.137v2.421-.03Zm-6.977-.12h3.793c1.812-.016 1.523.288 1.523-1.585 0-1.568-1.158-2.74-2.727-2.771-1.706-.03-3.396-.03-5.103 0-1.355.015-2.452.944-2.665 2.238-.076.488 0 .99-.046 1.477-.03.473.152.64.625.64 1.538-.015 3.077 0 4.615 0h-.015Zm.015-6.016c1.508 0 2.742-1.188 2.757-2.696.015-1.492-1.203-2.725-2.711-2.74-1.508 0-2.742 1.187-2.757 2.695a2.743 2.743 0 0 0 2.711 2.74Zm6.962-11.33c-.473 1.127-1.341 1.553-2.544 1.447-.762-.061-1.539 0-2.3 0-.61 0-.976-.305-.976-.792 0-.518.35-.838.99-.853.884 0 1.752-.015 2.636 0 .396 0 .579-.122.548-.533-.046-.579 0-1.188-.106-1.751a2.585 2.585 0 0 0-2.483-2.041c-1.798-.03-3.595-.03-5.377 0-1.432.03-2.544 1.188-2.59 2.62-.04 1.126.503 1.69 1.63 1.69h1.538c.625 0 1.006.335 1.006.852 0 .488-.381.792-.975.792h-2.91c-1.096-.015-1.904-.807-1.919-1.903 0-.67-.06-1.37.061-2.026.335-1.918 1.539-3.091 3.458-3.624-.884-1.249-1.234-2.604-.762-4.096.305-.975.899-1.752 1.737-2.33a4.34 4.34 0 0 1 5.377.41c1.66 1.524 1.843 3.595.487 6.016.229.076.442.137.655.213 1.31.533 2.209 1.462 2.635 2.833.061.182.138.365.198.563v2.528l-.015-.015Zm-6.947-11.635c-1.492 0-2.726 1.249-2.711 2.741 0 1.493 1.264 2.726 2.742 2.711 1.492 0 2.726-1.264 2.711-2.741 0-1.492-1.249-2.71-2.757-2.71h.015Zm-20.046 5.498c-1.72-2.482-.822-4.919.58-6.107 1.599-1.355 3.944-1.416 5.56-.106 1.842 1.492 2.116 3.67.715 6.198.183.06.366.122.548.198 1.737.67 2.727 1.919 2.91 3.776.06.61.046 1.25 0 1.858-.076 1.005-.853 1.736-1.859 1.736H38.982c-.944 0-1.736-.655-1.812-1.584-.077-.898-.077-1.842.106-2.725.32-1.538 1.356-2.559 2.833-3.076.153-.061.305-.107.503-.168h.015Zm3.443 5.924h3.564c1.23 0 1.782-.62 1.66-1.858-.121-1.37-1.203-2.421-2.574-2.452-1.797-.03-3.58-.03-5.377 0-1.31.015-2.36.99-2.544 2.284-.06.473-.03.945-.06 1.417-.03.441.137.609.594.609 1.569-.015 3.138 0 4.722 0h.015Zm2.696-8.68c0-1.508-1.188-2.741-2.68-2.757a2.72 2.72 0 0 0-2.743 2.696c0 1.507 1.173 2.74 2.681 2.756 1.493.03 2.727-1.203 2.742-2.695Z"/>
    <path d="m40.795 42.867-3.488 3.487c-.457.457-.93.792-1.6.518-.685-.274-.822-.853-.822-1.523V38.1c0-.654.152-1.203.822-1.462.64-.258 1.127 0 1.554.473.29.32.594.64.93 1.005l2.878-2.879c.26-.258.518-.517.777-.776.411-.411.899-.579 1.447-.335.549.228.792.685.792 1.264v7.629c0 .594-.213 1.081-.792 1.325-.579.244-1.066.076-1.493-.365-.335-.35-.67-.731-1.02-1.112h.015Zm1.615-6.594c-.198.183-.335.29-.457.411l-2.834 2.833c-.624.609-1.142.609-1.751 0-.244-.244-.457-.503-.686-.747-.03.03-.076.061-.106.092v5.863c.182-.168.32-.29.441-.411l2.88-2.879c.593-.578 1.111-.578 1.72 0 .244.244.503.472.793.762v-5.94.016Z"/>
  </g>
  <defs>
    <clipPath id="a">
      <path fill="#fff" d="M0 0h57v57H0z" transform="translate(11 11.999)"/>
    </clipPath>
  </defs>
</svg>
