<svg xmlns="http://www.w3.org/2000/svg" width="80" height="81" fill="none" viewBox="0 0 80 81">
  <circle cx="40" cy="40.5" r="40" fill="#EAF3FE"/>
  <g fill="#348EF6" clip-path="url(#a)">
    <path d="M63.53 23.803c-.367-.353-.73-.705-1.096-1.053-.368-.35-.576-.761-.554-1.287.04-.994 1.133-1.715 2.045-1.32.235.102.463.258.645.437 1.494 1.477 2.966 2.977 4.467 4.448.802.785.604 2.106-.444 2.546-.468.197-1.132.163-1.58-.264a42.929 42.929 0 0 1-1.122-1.112c-.122-.125-.207-.131-.333-.003-.714.724-1.434 1.443-2.157 2.159-.124.121-.127.207-.014.34.918 1.083 1.76 2.224 2.432 3.474a35.62 35.62 0 0 1 1.343 2.826c.291.678.52 1.385.726 2.093.184.634.307 1.287.445 1.934.308 1.443.424 2.908.383 4.38-.026.918-.06 1.842-.188 2.75a22.37 22.37 0 0 1-.59 2.818c-.26.95-.578 1.89-.945 2.804-.574 1.428-1.328 2.766-2.207 4.032a22.27 22.27 0 0 1-5.509 5.548c-1.1.776-2.254 1.464-3.493 1.994-.816.35-1.638.69-2.478.972-.713.24-1.453.404-2.186.573a20.13 20.13 0 0 1-5.652.472c-.959-.053-1.913-.202-2.865-.334-.5-.07-.992-.195-1.487-.296-.622-.127-1.13-.666-1.21-1.26-.104-.774.252-1.355.873-1.648.325-.154.668-.168 1.04-.088.849.18 1.709.314 2.566.446 1.092.17 2.193.157 3.29.087 1.03-.067 2.06-.182 3.06-.462.91-.255 1.825-.498 2.71-.826 1.187-.44 2.304-1.035 3.372-1.72a19.284 19.284 0 0 0 4.217-3.677 18.844 18.844 0 0 0 2.745-4.229c.442-.931.797-1.897 1.09-2.888.646-2.179.857-4.404.72-6.661a18.145 18.145 0 0 0-.458-3.019 18.938 18.938 0 0 0-3.15-6.92 19.012 19.012 0 0 0-3.458-3.646 19.055 19.055 0 0 0-3.856-2.422 19.818 19.818 0 0 0-3.112-1.156 18.982 18.982 0 0 0-5.709-.692c-1.062.033-2.125.13-3.162.367a25.59 25.59 0 0 0-2.564.72c-3.24 1.102-5.956 2.99-8.2 5.564-.929 1.066-1.708 2.236-2.393 3.473-.307.553-.802.816-1.44.768-.626-.046-1.056-.372-1.298-.953-.226-.54-.08-1.027.187-1.506 1.192-2.136 2.67-4.047 4.48-5.696a22.12 22.12 0 0 1 4.292-3.075c1.005-.55 2.034-1.05 3.123-1.408.85-.279 1.709-.534 2.574-.763a16.28 16.28 0 0 1 3.29-.509c.201-.011.206-.132.206-.274v-2.247c0-.536-.008-1.07.003-1.606.004-.208-.073-.27-.275-.269-1.349.006-2.698.009-4.046 0-.604-.003-1.083-.25-1.398-.788-.455-.774-.086-1.84.762-2.142.19-.068.4-.113.6-.114 3.924-.007 7.849.002 11.774-.01.886-.003 1.61.762 1.556 1.6-.051.777-.648 1.447-1.577 1.453-1.334.009-2.67.003-4.004.003-.22 0-.33.111-.33.334v3.724c0 .322.005.3.315.341.833.109 1.67.207 2.494.365.76.147 1.521.32 2.253.567a35.73 35.73 0 0 1 2.794 1.099c1.198.518 2.312 1.192 3.368 1.956.565.407 1.107.848 1.648 1.287.147.12.235.13.37-.01.7-.73 1.41-1.45 2.116-2.176.053-.055.092-.123.167-.227v.002Z"/>
    <path d="M34.99 63.373c-.547-.006-1.044-.178-1.54-.365-.272-.103-.542-.215-.821-.295a.444.444 0 0 0-.336.048c-.753.53-1.537.999-2.382 1.366-.073.031-.135.144-.155.23-.082.36-.16.724-.215 1.09-.167 1.129-.74 1.983-1.72 2.561a3.094 3.094 0 0 1-1.518.453c-.841.016-1.686.045-2.525-.004-1.287-.077-2.255-.702-2.887-1.84-.317-.57-.37-1.205-.494-1.823-.008-.042-.01-.085-.013-.128-.031-.304-.124-.532-.456-.665-.775-.31-1.476-.76-2.154-1.247-.09-.065-.263-.07-.377-.035-.373.114-.738.253-1.104.393a3.397 3.397 0 0 1-2.055.128 3.3 3.3 0 0 1-2.013-1.376c-.353-.514-.644-1.072-.944-1.62-.211-.385-.424-.775-.575-1.185a3.052 3.052 0 0 1-.142-1.495c.157-1.123.795-1.923 1.667-2.577.165-.124.333-.25.473-.398a.53.53 0 0 0 .138-.327c.01-.898 0-1.796.007-2.694 0-.146-.027-.252-.142-.354-.46-.403-.955-.778-1.354-1.236-.679-.778-.922-1.706-.765-2.743.092-.61.377-1.127.676-1.644.298-.517.566-1.053.896-1.548.79-1.185 1.917-1.725 3.33-1.537.547.073 1.074.307 1.61.47.134.042.264.11.401.14a.297.297 0 0 0 .212-.052 13.305 13.305 0 0 1 2.078-1.255c.026-.012.05-.033.077-.038.403-.076.475-.375.526-.721.097-.653.17-1.316.508-1.906.461-.805 1.109-1.391 2.012-1.64.366-.1.755-.15 1.135-.157.841-.014 1.689-.041 2.523.037 1.148.108 1.984.753 2.562 1.741.314.536.387 1.14.504 1.732.03.153.078.306.083.462.009.234.16.328.341.406a9.39 9.39 0 0 1 2.063 1.19c.261.2.477.168.744.066.65-.245 1.292-.556 2.004-.555 1.366.005 2.426.583 3.127 1.773.367.624.74 1.247 1.084 1.885.39.722.531 1.486.372 2.31-.193 1.008-.781 1.73-1.56 2.34-.23.178-.53.338-.64.58-.109.24-.015.57-.017.86-.006.657-.007 1.313-.032 1.967-.008.206.041.342.2.478.439.375.905.73 1.276 1.164.715.838.986 1.818.761 2.926-.12.597-.424 1.097-.712 1.61-.275.489-.551.978-.856 1.448-.484.745-1.157 1.245-2.029 1.452-.282.067-.571.103-.858.154h.001Zm-9.97 2.024c.35 0 .699.004 1.048 0 .265-.005.425-.141.472-.403.134-.743.26-1.488.396-2.23.095-.53.4-.896.892-1.115.653-.293 1.328-.55 1.95-.9.529-.299.991-.713 1.49-1.066.372-.26.783-.39 1.231-.239.706.24 1.41.486 2.108.75.373.14.63.109.785-.165.316-.556.63-1.113.935-1.675.206-.379.175-.503-.16-.785-.516-.436-1.036-.869-1.551-1.306-.437-.372-.648-.843-.579-1.418.043-.361.114-.717.165-1.077.124-.872.05-1.742-.123-2.596-.132-.649.02-1.172.506-1.596.553-.482 1.122-.944 1.682-1.417.216-.183.273-.424.147-.646-.335-.587-.673-1.171-1.013-1.754-.131-.224-.334-.319-.537-.245-.628.228-1.257.452-1.878.697-.715.281-1.35.243-1.959-.298-.88-.783-1.907-1.335-3.026-1.71-.535-.18-.905-.539-1.03-1.077-.17-.735-.28-1.483-.402-2.228-.062-.375-.205-.52-.594-.52-.614-.003-1.227-.002-1.84 0-.407 0-.559.123-.627.517a97.752 97.752 0 0 0-.297 1.792c-.099.635-.329 1.185-.962 1.461-.299.13-.619.215-.918.346a9.57 9.57 0 0 0-2.456 1.563c-.412.356-.909.435-1.407.281-.718-.223-1.419-.504-2.126-.764-.347-.128-.496-.082-.685.244-.325.56-.644 1.122-.965 1.683-.16.28-.131.448.112.652.524.44 1.039.89 1.575 1.311.574.451.751 1.025.633 1.724-.063.372-.115.747-.14 1.122a8.468 8.468 0 0 0 .13 2.279c.137.68-.014 1.263-.582 1.717-.55.44-1.084.902-1.62 1.359-.248.212-.27.355-.113.632.309.544.625 1.084.931 1.628.2.355.368.437.75.305.618-.214 1.237-.426 1.842-.672.661-.27 1.244-.19 1.785.277a8.87 8.87 0 0 0 3.017 1.724c.594.198 1.008.573 1.125 1.218.072.4.145.799.22 1.198.068.37.131.743.212 1.111.047.216.201.314.425.312.343-.004.684 0 1.027 0h-.002Zm16.694-22.79c.068-1.451.936-2.874 2.622-3.78a3.942 3.942 0 0 1 1.907-.49c.715.007 1.437.084 2.096.414.2.1.325.025.465-.116 2.18-2.187 4.361-4.37 6.546-6.554.788-.787 1.949-.632 2.485.344.316.576.233 1.24-.27 1.75-1.401 1.419-2.82 2.819-4.23 4.226-.808.805-1.614 1.611-2.425 2.411-.116.115-.15.214-.082.374.291.683.444 1.398.391 2.144-.111 1.558-.8 2.797-2.086 3.692-1.068.743-2.267.965-3.526.745-1.32-.231-2.369-.939-3.115-2.061-.53-.797-.799-1.678-.78-3.099h.002Zm4.767 2.23c.95-.003 1.691-.755 1.697-1.713a1.688 1.688 0 0 0-1.716-1.72 1.689 1.689 0 0 0-1.698 1.717c.006.967.753 1.719 1.716 1.715Zm-1.542 12.107v-1.135c.002-.739.322-1.294 1.023-1.543.663-.234 1.361-.04 1.782.598.18.273.264.579.263.91-.006.8.002 1.598-.004 2.397-.007.94-.774 1.649-1.706 1.552-.733-.076-1.319-.684-1.353-1.474-.019-.434-.004-.87-.004-1.305h-.001Zm3.066-27.656c0 .393.002.784 0 1.177-.005.88-.579 1.528-1.455 1.59-.656.045-1.28-.326-1.498-1.001a2.484 2.484 0 0 1-.108-.71c-.014-.741-.006-1.482-.004-2.224 0-.654.274-1.155.86-1.459.833-.43 1.834.035 2.093.848.073.232.096.486.108.731.018.35.005.699.005 1.048h-.001Zm5.801 22.792c.01-1.091 1.07-1.842 2.012-1.493.226.084.453.217.627.383.588.56 1.153 1.144 1.729 1.717.81.808.534 2.079-.473 2.507-.52.221-1.138.16-1.593-.274a74.74 74.74 0 0 1-1.902-1.897 1.478 1.478 0 0 1-.4-.942Zm-16.27-16.347c-.4.026-.759-.147-1.059-.442-.577-.57-1.138-1.155-1.719-1.72-.852-.828-.548-2.186.547-2.563.5-.172 1.029-.125 1.43.25a37.463 37.463 0 0 1 2.035 2.04c.398.435.433.992.2 1.526-.261.597-.768.902-1.434.91ZM60.315 41.6c.442 0 .884.002 1.326 0 .755-.002 1.45.699 1.444 1.524-.006.781-.653 1.489-1.427 1.495-.899.01-1.797.014-2.696 0-.883-.015-1.493-.824-1.434-1.617.052-.696.61-1.347 1.332-1.387.484-.027.97-.005 1.455-.005v-.01Z"/>
    <path d="M23.897 56.545c-.416.013-.762-.152-1.05-.44-.688-.68-1.375-1.361-2.053-2.051-.775-.79-.536-2.07.485-2.497.566-.237 1.125-.147 1.592.278.3.273.585.564.867.857.137.143.238.156.385.006.986-.997 1.985-1.981 2.968-2.98.783-.794 2.156-.526 2.523.523.195.558.126 1.112-.306 1.552-1.011 1.032-2.037 2.049-3.056 3.07l-1.223 1.222c-.312.311-.682.483-1.132.46Z"/>
  </g>
  <defs>
    <clipPath id="a">
      <path fill="#fff" d="M0 0h59v55H0z" transform="translate(10.53 13.485)"/>
    </clipPath>
  </defs>
</svg>
