<svg xmlns="http://www.w3.org/2000/svg" width="96" height="96" fill="none" viewBox="0 0 96 96">
  <path fill="#348EF6" d="M48 95.453c26.23 0 47.493-21.264 47.493-47.493C95.493 21.73 74.23.467 48 .467S.507 21.73.507 47.96 21.771 95.453 48 95.453Z"/>
  <path fill="#fff" d="M55.769 46.067c0-2.66-.043-5.193.028-7.711.014-.868-.285-1.025-1.067-1.025-9.732.029-19.478.015-29.21.015-3.087 0-4.567-1.466-4.581-4.54 0-1.578.056-3.172-.015-4.751-.1-2.405 1.722-4.354 4.326-4.354 13.388.057 26.79.029 40.18.029 2.176 0 4.367-.015 6.544 0 2.647.028 4.212 1.622 4.212 4.254v5.235c0 2.448-1.665 4.098-4.112 4.112-.214 0-.441.029-.655 0-2.376-.384-4.268.527-6.118 1.95-3.044 2.333-6.246 4.467-9.518 6.786h-.014Zm.81-1.693c.342-.213.498-.299.655-.412 3.116-2.206 6.246-4.383 9.348-6.616.797-.584 1.593-.954 2.618-.854.967.085 1.963.028 2.945.014 1.807-.014 3.144-1.337 3.159-3.158.014-1.85 0-3.714 0-5.563-.015-1.921-1.31-3.244-3.245-3.244H25.08c-1.964 0-3.273 1.337-3.287 3.3v5.15c0 2.306 1.224 3.515 3.543 3.515h30.362c.256 0 .527.029.868.043v7.825h.015Zm3.031 27.759c-.398.029-.626.071-.868.071h-1.536c-.029-3.414-1.267-6.203-3.828-8.323-1.892-1.58-4.126-2.348-6.616-2.362-4.368-.029-10.03 3.23-10.386 10.628h-2.32c0-4.14 1.523-7.555 4.696-10.173a12.612 12.612 0 0 1 14.157-1.309c4.439 2.447 6.544 6.346 6.701 11.482v-.014Z"/>
  <path fill="#fff" d="M54.203 50.62c0 4.127-3.201 7.385-7.27 7.385-4.24 0-7.498-3.187-7.513-7.356 0-4.155 3.259-7.37 7.484-7.385 4.084 0 7.3 3.23 7.3 7.356Zm-1.878.029c0-3.088-2.476-5.55-5.591-5.535-2.931 0-5.45 2.533-5.464 5.506-.028 2.974 2.533 5.535 5.535 5.55 3.016 0 5.52-2.476 5.52-5.507v-.014Zm21.57 21.527H71.76c-.143-3.372-1.437-6.104-4.354-7.868-2.888-1.765-5.876-1.694-8.907-.214-.498-.512-.982-1.024-1.465-1.536 2.703-2.177 7.669-2.362 11.225-.313 3.757 2.162 5.535 5.52 5.635 9.945v-.014Zm-53.967.042c-.626-3.4 1.708-7.74 5.18-9.831 3.542-2.134 8.65-2.077 11.439.114-.015.057-.015.114-.043.17-.768 1.082-1.523 1.324-2.974.811-5.478-1.935-11.212 2.05-11.524 7.868-.043.683-.228.968-.925.883-.37-.043-.74 0-1.153 0v-.015Zm42.242-23.12c2.932-.014 5.35 2.348 5.379 5.293.043 2.96-2.39 5.42-5.35 5.42-2.916 0-5.335-2.432-5.35-5.335 0-2.902 2.42-5.35 5.322-5.364v-.014Zm.115 1.437c-2.106-.043-3.941 1.722-3.998 3.842-.043 2.077 1.764 3.955 3.841 3.998 2.092.042 3.941-1.736 3.984-3.856.043-2.12-1.707-3.941-3.827-3.984ZM26.131 54.42c0-3.003 2.362-5.336 5.336-5.322a5.331 5.331 0 0 1 5.321 5.364c0 2.96-2.461 5.392-5.364 5.335-3.016-.056-5.307-2.376-5.293-5.364v-.014Zm9.206.042c0-2.12-1.722-3.899-3.813-3.927-2.163-.028-4.04 1.807-4.027 3.941.015 2.092 1.893 3.927 3.984 3.899 2.092-.029 3.842-1.807 3.842-3.899l.014-.014Zm-5.905-20.673a.689.689 0 0 1-.37-.1l-1.223-.64a.332.332 0 0 0-.285 0l-1.223.64a.79.79 0 0 1-1.152-.84l.227-1.365a.314.314 0 0 0-.085-.27l-.982-.968a.774.774 0 0 1-.2-.825.783.783 0 0 1 .655-.541l1.366-.2a.314.314 0 0 0 .228-.17l.611-1.238a.812.812 0 0 1 .726-.44c.313 0 .583.17.726.44l.611 1.238a.314.314 0 0 0 .228.17l1.366.2a.825.825 0 0 1 .655.54.8.8 0 0 1-.2.826l-.981.967c-.072.072-.114.171-.086.27l.228 1.367a.79.79 0 0 1-.313.782.808.808 0 0 1-.47.157h-.057Zm-1.735-1.267a.83.83 0 0 1 .37.086l1.223.64a.303.303 0 0 0 .327-.029.313.313 0 0 0 .128-.298l-.227-1.366a.825.825 0 0 1 .227-.712l.982-.967c.085-.085.114-.2.085-.313a.29.29 0 0 0-.256-.213l-1.365-.2a.846.846 0 0 1-.612-.44l-.612-1.239a.299.299 0 0 0-.285-.17.324.324 0 0 0-.284.17l-.612 1.238a.797.797 0 0 1-.612.441l-1.366.2a.326.326 0 0 0-.256.213c-.042.114 0 .228.086.313l.981.967c.185.185.27.456.228.712l-.228 1.366a.313.313 0 0 0 .128.298c.1.072.214.086.328.029l1.223-.64a.83.83 0 0 1 .37-.086h.029Zm8.679 1.267a.808.808 0 0 1-.47-.157.774.774 0 0 1-.313-.782l.228-1.366a.315.315 0 0 0-.085-.27l-.982-.968a.774.774 0 0 1-.2-.825.783.783 0 0 1 .655-.541l1.366-.2a.314.314 0 0 0 .228-.17l.611-1.238a.812.812 0 0 1 .726-.44c.313 0 .584.17.726.44l.611 1.238a.314.314 0 0 0 .228.17l1.366.2a.825.825 0 0 1 .655.54c.1.285.014.612-.2.826l-.981.967c-.072.072-.114.171-.086.27l.228 1.367a.79.79 0 0 1-1.152.839l-1.224-.64a.332.332 0 0 0-.285 0l-1.223.64a.844.844 0 0 1-.37.1h-.057Zm1.736-6.474a.324.324 0 0 0-.285.17l-.612 1.239a.797.797 0 0 1-.612.44l-1.365.2a.326.326 0 0 0-.257.213c-.042.114 0 .228.086.313l.982.968c.185.185.27.455.227.711l-.227 1.366a.313.313 0 0 0 .128.299c.1.07.227.085.327.028l1.224-.64a.788.788 0 0 1 .754 0l1.223.64a.303.303 0 0 0 .327-.028.313.313 0 0 0 .129-.299l-.228-1.366a.825.825 0 0 1 .227-.711l.982-.968a.32.32 0 0 0 .086-.313c-.043-.114-.129-.199-.257-.213l-1.365-.2a.846.846 0 0 1-.612-.44l-.612-1.238a.299.299 0 0 0-.285-.171h.015Zm8.693 6.474a.808.808 0 0 1-.47-.157.774.774 0 0 1-.313-.782l.228-1.366a.315.315 0 0 0-.085-.27l-.982-.968a.774.774 0 0 1-.2-.825.783.783 0 0 1 .655-.541l1.366-.2a.314.314 0 0 0 .228-.17l.612-1.238a.812.812 0 0 1 .725-.44c.313 0 .584.17.726.44l.612 1.238a.314.314 0 0 0 .227.17l1.366.2a.825.825 0 0 1 .655.54.8.8 0 0 1-.2.826l-.981.967c-.071.072-.114.171-.085.27l.227 1.367a.79.79 0 0 1-1.152.839l-1.224-.64a.332.332 0 0 0-.285 0l-1.223.64a.844.844 0 0 1-.37.1h-.057Zm1.736-6.474a.324.324 0 0 0-.285.17l-.611 1.239a.797.797 0 0 1-.612.44l-1.366.2a.326.326 0 0 0-.256.213c-.043.114 0 .228.085.313l.982.968c.185.185.27.455.227.711l-.227 1.366a.313.313 0 0 0 .128.299c.1.07.213.085.327.028l1.224-.64a.788.788 0 0 1 .754 0l1.223.64a.303.303 0 0 0 .328-.028.313.313 0 0 0 .128-.299l-.228-1.366a.825.825 0 0 1 .228-.711l.981-.968a.321.321 0 0 0 .086-.313c-.043-.114-.128-.199-.256-.213l-1.366-.2a.846.846 0 0 1-.612-.44l-.612-1.238a.299.299 0 0 0-.284-.171h.014Zm8.679 6.474a.808.808 0 0 1-.47-.157.774.774 0 0 1-.313-.782l.228-1.366a.314.314 0 0 0-.086-.27l-.981-.968a.774.774 0 0 1-.2-.825.783.783 0 0 1 .655-.541l1.366-.2a.313.313 0 0 0 .227-.17l.612-1.238a.812.812 0 0 1 .726-.44.81.81 0 0 1 .725.44l.612 1.238a.313.313 0 0 0 .228.17l1.366.2a.825.825 0 0 1 .654.54c.1.3.014.612-.199.826l-.982.967c-.07.072-.113.171-.085.27l.228 1.367a.79.79 0 0 1-1.153.839l-1.223-.64a.332.332 0 0 0-.285 0l-1.224.64a.844.844 0 0 1-.37.1h-.056Zm1.735-1.267a.83.83 0 0 1 .37.086l1.224.64a.303.303 0 0 0 .327-.029.313.313 0 0 0 .128-.298l-.227-1.366a.825.825 0 0 1 .227-.712l.982-.967c.085-.085.114-.2.085-.313-.042-.114-.128-.2-.256-.213l-1.366-.2a.846.846 0 0 1-.611-.44l-.612-1.239a.299.299 0 0 0-.285-.17.324.324 0 0 0-.284.17l-.612 1.238a.797.797 0 0 1-.612.441l-1.366.2a.326.326 0 0 0-.256.213c-.043.114 0 .228.085.313l.982.967c.185.185.27.456.228.712l-.228 1.366a.313.313 0 0 0 .128.298c.1.072.214.086.327.029l1.224-.64a.83.83 0 0 1 .37-.086h.028Zm12.18 1.267a.689.689 0 0 1-.37-.1l-1.224-.64a.332.332 0 0 0-.284 0l-1.224.64a.81.81 0 0 1-.84-.057.774.774 0 0 1-.313-.782l.228-1.366a.315.315 0 0 0-.085-.27l-.982-.968a.774.774 0 0 1-.2-.825.783.783 0 0 1 .655-.541l1.366-.2a.313.313 0 0 0 .228-.17l.612-1.238a.812.812 0 0 1 .725-.44c.313 0 .584.17.726.44l.612 1.238a.313.313 0 0 0 .227.17l1.366.2a.825.825 0 0 1 .655.54.8.8 0 0 1-.2.826l-.981.967c-.071.072-.114.171-.086.27l.228 1.367a.79.79 0 0 1-.313.782.808.808 0 0 1-.47.157h-.056Zm-1.736-1.267a.83.83 0 0 1 .37.086l1.223.64a.303.303 0 0 0 .328-.029.313.313 0 0 0 .128-.298l-.228-1.366a.824.824 0 0 1 .228-.712l.981-.967a.321.321 0 0 0 .086-.313.29.29 0 0 0-.256-.213l-1.366-.2a.846.846 0 0 1-.612-.44l-.612-1.239a.299.299 0 0 0-.284-.17.324.324 0 0 0-.285.17l-.612 1.238a.797.797 0 0 1-.612.441l-1.366.2a.326.326 0 0 0-.256.213c-.042.114 0 .228.086.313l.981.967c.186.185.27.456.228.712l-.228 1.366a.313.313 0 0 0 .129.298c.1.072.227.086.327.029l1.223-.64a.83.83 0 0 1 .37-.086h.029Z"/>
</svg>
