<svg xmlns="http://www.w3.org/2000/svg" width="96" height="96" fill="none" viewBox="0 0 96 96">
  <path fill="#33C173" d="M48 95.453c26.23 0 47.493-21.264 47.493-47.493C95.493 21.73 74.23.467 48 .467S.507 21.73.507 47.96 21.771 95.453 48 95.453Z"/>
  <path fill="#fff" d="M32.25 26.902c2.362-8.508 8.01-13.346 15.551-13.431 7.74-.071 13.289 4.51 16.007 13.374 1.863 0 3.784-.028 5.705 0 4.724.071 8.096 3.358 8.195 8.096.071 2.902.029 5.805 0 8.707-.014 1.964-.953 3.116-2.504 3.145-1.593.028-2.547-1.153-2.56-3.244 0-2.718.013-5.435 0-8.153-.03-2.39-1.068-3.429-3.43-3.457-1.807-.029-3.614 0-5.364 0-2.973 8.907-8.266 13.331-15.836 13.331-7.54 0-12.833-4.41-15.85-13.274-1.949 0-3.94-.057-5.933.014-1.806.071-2.83 1.295-2.86 3.287-.042 2.845 0 5.677-.013 8.522-.015 1.978-.968 3.073-2.561 3.03-1.509-.042-2.49-1.137-2.505-2.959-.028-3.016-.07-6.047 0-9.063.128-4.581 3.572-7.868 8.196-7.925 1.864-.028 3.742 0 5.733 0h.029Zm13.716 3.628c-.868-.868-1.508-1.508-2.135-2.148-1.095-1.11-2.304-1.31-3.542-.313-1.124.91-1.067 2.433.1 3.67 1.123 1.182 2.29 2.32 3.457 3.458 1.579 1.551 2.547 1.565 4.154-.014a882.746 882.746 0 0 0 7.3-7.3c1.308-1.322 1.493-2.802.54-3.826-1.067-1.139-2.476-1.01-3.927.44-1.963 1.964-3.884 3.956-5.933 6.048l-.014-.015ZM61.83 82.391c-3.087 0-6.16-.042-9.248.014-1.622.029-2.348-.654-2.276-2.276.085-1.992-.114-4.026.27-5.962.299-1.45 1.095-2.945 2.049-4.111 1.65-1.992 2.404-1.992 4.71-.826 5.377 2.69 11.808.328 13.587-5.42.953-3.045 1.053-6.389 1.323-9.619.2-2.475 1.067-3.784 2.931-3.742 1.778.043 2.903 1.509 2.917 3.87.042 5.564-.64 10.928-3.77 15.793-.812 1.267-.869 3.102-1.01 4.696-.157 1.736-.058 3.5 0 5.25.056 1.721-.727 2.376-2.405 2.333-3.017-.07-6.047-.014-9.064-.014l-.014.014Zm-27.63.043h-9.064c-2.049 0-2.39-.356-2.404-2.447 0-1.025-.072-2.063 0-3.073.242-3.23-.527-6.076-2.191-8.936-2.647-4.524-2.775-9.675-2.533-14.782.071-1.665 1.58-2.79 3.102-2.675 1.565.128 2.518 1.309 2.646 3.101.2 2.889.142 5.834.754 8.622 1.622 7.342 8.594 10.23 15.167 6.545.526-.299 1.523-.284 2.063.014 2.575 1.438 3.828 3.77 3.956 6.688.07 1.622.014 3.258.028 4.894.014 1.423-.626 2.077-2.091 2.063-3.145-.043-6.275-.014-9.42-.014H34.2Z"/>
  <path fill="#fff" d="M54.873 60.438c-.015-3.842 3.016-6.944 6.815-6.986 3.742-.043 6.943 3.13 6.957 6.9.014 3.828-3.059 6.93-6.858 6.943-3.841.015-6.9-3.016-6.914-6.858ZM34.2 67.295c-3.857 0-6.916-3.087-6.873-6.929.043-3.742 3.073-6.786 6.815-6.83 3.785-.056 6.944 3.074 6.958 6.873.014 3.827-3.06 6.886-6.915 6.886h.014Z"/>
  <path fill="#33C173" d="M45.966 30.53c2.048-2.091 3.97-4.083 5.933-6.047 1.45-1.45 2.86-1.579 3.927-.44.967 1.038.782 2.504-.541 3.827a706.45 706.45 0 0 1-7.299 7.299c-1.608 1.579-2.561 1.565-4.155.014-1.166-1.138-2.333-2.277-3.457-3.457-1.167-1.238-1.21-2.76-.1-3.671 1.238-.996 2.448-.797 3.543.313.626.64 1.267 1.28 2.134 2.148l.015.014Z"/>
</svg>
