<svg xmlns="http://www.w3.org/2000/svg" width="96" height="96" fill="none" viewBox="0 0 96 96">
  <path fill="#735AC3" d="M48 95.453c26.23 0 47.493-21.264 47.493-47.493C95.493 21.73 74.23.467 48 .467S.507 21.73.507 47.96 21.771 95.453 48 95.453Z"/>
  <path fill="#fff" d="M15.93 56.938c.143-.484.27-.982.441-1.466 1.267-3.486 3.728-5.634 7.413-6.118 3.799-.498 6.773 1.025 8.878 4.212.142.213.27.426.441.697a19.654 19.654 0 0 0 6.218-4.112c4.04-3.97 6.19-8.779 6.317-14.442.071-3.386.014-6.772.014-10.158 0-.185-.042-.37-.07-.697-1.182 1.11-2.22 2.162-3.33 3.144-1.352 1.195-3.372.54-3.813-1.18-.214-.855.014-1.609.64-2.206a856.077 856.077 0 0 1 7.342-7.029c.256-.256.597-.427.896-.64h1.38c.57.47 1.167.896 1.707 1.408a832.574 832.574 0 0 1 6.29 6.019c1.152 1.11 1.265 2.49.312 3.5-.953 1.024-2.347.996-3.514-.085-.996-.94-1.978-1.893-3.144-3.017v1.139c0 3.329.184 6.672 0 9.988-.627 10.57-5.734 18.169-15.367 22.665-.683.313-1.024.654-1.152 1.45-.64 3.942-4.24 7.115-8.167 7.3-4.41.213-8.21-2.419-9.362-6.474a25.816 25.816 0 0 0-.356-1.124v-2.76l-.014-.014Zm9.035 5.705c2.419 0 4.396-1.978 4.382-4.382-.014-2.405-2.006-4.354-4.425-4.354-2.362 0-4.31 1.978-4.325 4.354a4.363 4.363 0 0 0 4.368 4.382Zm55.119-2.959a39.26 39.26 0 0 0-.37 1.209c-1.21 4.098-5.08 6.687-9.518 6.374-4.013-.284-7.484-3.543-8.053-7.626-.086-.598-.399-.797-.882-.996-4.824-2.02-8.651-5.264-11.54-9.618-.312-.484-.355-.854-.113-1.409.711-1.65 1.337-3.358 2.02-5.093 2.163 5.378 5.862 9.347 11.255 11.738.142-.228.256-.384.355-.555 2.05-3.344 5.606-4.98 9.405-4.34 3.557.598 6.431 3.4 7.256 7.086.043.156.114.313.171.47v2.76h.014Zm-9.006 2.945a4.324 4.324 0 0 0 4.34-4.397c-.015-2.376-1.95-4.297-4.34-4.325-2.405-.014-4.41 1.964-4.397 4.368 0 2.404 1.992 4.368 4.397 4.354ZM46.62 79.005c-.811-.284-1.636-.498-2.405-.853-3.358-1.537-5.35-4.824-5.221-8.58.113-3.557 2.39-6.758 5.79-8.039.67-.256.911-.555.897-1.28-.057-1.978-.043-3.97 0-5.947 0-.385.185-.826.412-1.153.626-.896 1.31-1.736 2.006-2.632.712.939 1.452 1.85 2.12 2.803.143.199.128.555.128.825v6.374c0 .441.072.711.57.896 4.126 1.566 6.388 5.037 6.09 9.263-.271 4.012-3.088 7.142-7.328 8.167-.1.028-.2.1-.299.156h-2.76Zm5.734-9.077c-.015-2.419-2.007-4.382-4.397-4.354-2.419.043-4.325 2.02-4.297 4.453a4.35 4.35 0 0 0 4.354 4.297c2.419 0 4.354-1.963 4.34-4.396Z"/>
</svg>
