<svg xmlns="http://www.w3.org/2000/svg" width="90" height="81" fill="none" viewBox="0 0 90 81">
  <path fill="#E04527" d="M44.943 80.448H7.813c-5.026 0-8.381-3.709-7.718-8.535.124-.951.524-1.93 1.008-2.771 12.4-21.524 24.826-43.034 37.28-64.53 3.232-5.57 10.025-5.515 13.27.097 11.82 20.393 23.598 40.8 35.39 61.206.566.98 1.146 1.958 1.712 2.95 3.231 5.654-.193 11.583-6.697 11.597-12.372.014-24.757 0-37.13 0l.015-.014Zm.069-64.295v.11c-.856 0-1.712-.041-2.555 0-3.134.152-5.302 2.689-5.053 5.805.193 2.261.29 4.537.414 6.798.47 8.259.925 16.532 1.394 24.791.11 1.793 1.133 3.13 2.9 3.31 1.906.193 3.88.206 5.786 0 1.78-.194 2.775-1.49 2.9-3.31.179-2.688.358-5.377.51-8.066.442-7.887.856-15.774 1.326-23.66.152-2.552-1.326-4.827-3.825-5.42-1.229-.29-2.527-.248-3.797-.358Zm7.47 50.99c.055-4.165-3.217-7.57-7.332-7.667-4.087-.097-7.58 3.268-7.636 7.363-.055 4.26 3.245 7.625 7.47 7.639 4.101 0 7.443-3.254 7.498-7.336Z"/>
  <path fill="#fff" d="M45 16.158c1.27.11 2.567.07 3.796.359 2.499.593 3.976 2.868 3.824 5.419-.47 7.887-.884 15.774-1.325 23.66a525.847 525.847 0 0 1-.511 8.067c-.124 1.82-1.118 3.116-2.9 3.31a27.04 27.04 0 0 1-5.783 0c-1.78-.18-2.802-1.517-2.9-3.31a7423.33 7423.33 0 0 1-1.393-24.792c-.125-2.261-.221-4.536-.414-6.797-.263-3.117 1.905-5.654 5.052-5.806.856-.04 1.712 0 2.554 0v-.11Zm7.482 51.004c-.042 4.081-3.382 7.35-7.496 7.335-4.224 0-7.523-3.378-7.468-7.638.055-4.096 3.534-7.46 7.634-7.363 4.113.096 7.385 3.502 7.33 7.666Z"/>
</svg>
