<svg xmlns="http://www.w3.org/2000/svg" width="126" height="120" fill="none" viewBox="0 0 126 120" xmlns:xlink="http://www.w3.org/1999/xlink">
  <g fill="#2F68DC" fill-rule="evenodd" clip-path="url(#a)" clip-rule="evenodd">
    <path d="m79.608 83.06-3.356 1.938a1.939 1.939 0 0 1-2.898-1.866l1.61-16.59a1.936 1.936 0 0 1 2.73-1.576l15.17 6.901a1.937 1.937 0 0 1 .167 3.443l-3.356 1.938 2.907 5.033a5.813 5.813 0 0 1-10.067 5.813zm-11.817-8.839 3.356-1.937a1.939 1.939 0 0 0-1.937-3.358l-3.356 1.938a1.937 1.937 0 0 0 1.937 3.357m16.781-9.687 3.356-1.938a1.939 1.939 0 0 0-1.938-3.357l-3.355 1.937a1.937 1.937 0 0 0 .472 3.541c.494.134 1.02.07 1.465-.183m-9.877-5.485-1.938-3.356a1.937 1.937 0 0 0-3.356 1.937l1.938 3.356a1.937 1.937 0 0 0 3.356-1.937m-38.82-12.611V34.812a1.937 1.937 0 1 1 3.875 0v11.626a1.937 1.937 0 1 0 3.875 0V34.812a5.813 5.813 0 0 0-11.625 0v11.626a1.937 1.937 0 1 0 3.875 0m0 21.312V54.188a1.937 1.937 0 1 0-3.875 0V67.75a1.937 1.937 0 1 0 3.875 0"/>
    <path d="M33.938 41.594h6.78a1.938 1.938 0 0 0 0-3.875h-6.78a1.937 1.937 0 1 0 0 3.875m9.687 16.469a5.813 5.813 0 0 1-5.812 5.812h-3.876A1.937 1.937 0 0 1 32 61.938v-7.75a1.937 1.937 0 0 1 1.938-1.938h3.874a5.813 5.813 0 0 1 5.813 5.813m-3.875 0a1.937 1.937 0 0 0-1.937-1.938h-1.938V60h1.938a1.937 1.937 0 0 0 1.937-1.937"/>
    <path d="M43.625 65.813a5.813 5.813 0 0 1-5.812 5.812h-3.876A1.937 1.937 0 0 1 32 69.688v-7.75A1.937 1.937 0 0 1 33.938 60h3.874a5.813 5.813 0 0 1 5.813 5.813m-3.875 0a1.937 1.937 0 0 0-1.937-1.938h-1.938v3.875h1.938a1.937 1.937 0 0 0 1.937-1.937m25.186-3.876a5.81 5.81 0 0 0-5.813-5.812h-5.812a5.813 5.813 0 0 0 0 11.625h5.812a5.813 5.813 0 0 0 5.813-5.812M94 38.688c0-1.542-.612-3.02-1.703-4.109a5.8 5.8 0 0 0-4.11-1.703H53.314a5.8 5.8 0 0 0-4.11 1.703 5.8 5.8 0 0 0-1.703 4.11c0 1.542.612 3.02 1.703 4.109a5.8 5.8 0 0 0 4.11 1.703h34.875c1.542 0 3.02-.612 4.109-1.703A5.8 5.8 0 0 0 94 38.687"/>
  </g>
  <defs>
    <clipPath id="a">
      <path fill="#fff" d="M32 29h62v62H32z"/>
    </clipPath>
  </defs>
</svg>
