<svg xmlns="http://www.w3.org/2000/svg" width="125" height="151" fill="none" viewBox="0 0 125 151">
  <path fill="#2F68DC" fill-rule="evenodd" d="M63 64.876c4.585 0 8.806 1.572 12.162 4.211a12.77 12.77 0 0 0-2.936 8.17c0 2.837.92 5.457 2.472 7.576H51.302a12.77 12.77 0 0 0 2.472-7.576 12.77 12.77 0 0 0-2.935-8.17A19.6 19.6 0 0 1 63 64.876M41.123 90.043c8.89 0 16.41 5.91 18.908 14.046.44 1.429.2 2.852-.68 4.056S57.194 110 55.71 110H26.536c-1.484 0-2.76-.65-3.641-1.855-.88-1.204-1.12-2.627-.68-4.056 2.498-8.136 10.019-14.046 18.908-14.046m43.754-22.876c-5.526 0-10.006 4.518-10.006 10.09 0 5.573 4.48 10.09 10.006 10.09 5.527 0 10.007-4.517 10.007-10.09s-4.48-10.09-10.007-10.09m-43.754 0c-5.526 0-10.006 4.518-10.006 10.09 0 5.573 4.48 10.09 10.006 10.09s10.006-4.517 10.006-10.09-4.48-10.09-10.006-10.09m43.754 22.876c8.89 0 16.41 5.91 18.908 14.046.44 1.429.201 2.852-.68 4.056-.88 1.205-2.157 1.855-3.64 1.855H70.29c-1.484 0-2.76-.65-3.64-1.855-.881-1.204-1.12-2.627-.68-4.056 2.498-8.136 10.018-14.046 18.907-14.046M63 42c5.526 0 10.006 4.518 10.006 10.09 0 5.573-4.48 10.09-10.006 10.09s-10.006-4.517-10.006-10.09S57.474 42 63 42" clip-rule="evenodd"/>
</svg>
