<svg xmlns="http://www.w3.org/2000/svg" width="125" height="109" fill="none" viewBox="0 0 125 109">
  <path fill="#2F68DC" d="M89.268 69.248c-2.096.011-4.136.727-5.84 2.047l-8.272-5.3c.39-1.312.596-2.68.608-4.058-.01-3.234-1.009-6.373-2.841-8.926s-4.395-4.376-7.287-5.185v-8.48c2.253-.863 4.151-2.56 5.36-4.791s1.65-4.854 1.246-7.404-1.627-4.863-3.454-6.53c-1.826-1.667-4.138-2.582-6.527-2.582s-4.702.915-6.528 2.582c-1.827 1.668-3.05 3.98-3.454 6.53s.037 5.172 1.246 7.404c1.209 2.231 3.107 3.928 5.36 4.79v8.481c-2.892.809-5.454 2.632-7.287 5.185-1.832 2.553-2.831 5.692-2.841 8.926a14.7 14.7 0 0 0 .608 4.057l-8.271 5.3c-1.705-1.32-3.745-2.035-5.84-2.046-2.004 0-3.962.643-5.627 1.848-1.666 1.205-2.964 2.918-3.73 4.922a11.8 11.8 0 0 0-.577 6.336c.391 2.127 1.356 4.081 2.772 5.615s3.22 2.578 5.186 3.001a9.4 9.4 0 0 0 5.851-.624c1.85-.83 3.432-2.235 4.545-4.039a11.6 11.6 0 0 0 1.707-6.093 11.8 11.8 0 0 0-.405-2.924l7.764-5.008c2.53 2.723 5.953 4.252 9.52 4.252 3.568 0 6.99-1.529 9.52-4.252l7.765 5.008a11.83 11.83 0 0 0 .26 6.72c.733 2.154 2.074 4.005 3.831 5.291s3.844 1.942 5.965 1.875 4.167-.852 5.853-2.247c1.686-1.394 2.925-3.326 3.542-5.524s.581-4.55-.102-6.724c-.684-2.175-1.98-4.062-3.708-5.396-1.727-1.333-3.797-2.046-5.918-2.037M35.253 83.87a3.2 3.2 0 0 1-1.875-.616 3.6 3.6 0 0 1-1.244-1.64 3.94 3.94 0 0 1-.192-2.113c.13-.709.452-1.36.924-1.872a3.3 3.3 0 0 1 1.729-1 3.14 3.14 0 0 1 1.95.208 3.45 3.45 0 0 1 1.515 1.346c.371.602.57 1.308.57 2.031 0 .97-.356 1.9-.99 2.585-.633.686-1.491 1.07-2.387 1.07M62.261 25.38c.667 0 1.32.214 1.875.616s.988.973 1.243 1.64c.256.669.323 1.404.193 2.113s-.452 1.36-.924 1.871a3.3 3.3 0 0 1-1.729 1 3.14 3.14 0 0 1-1.95-.207 3.45 3.45 0 0 1-1.515-1.347 3.9 3.9 0 0 1-.57-2.03c0-.97.356-1.9.99-2.585.633-.686 1.491-1.071 2.387-1.071m0 43.867a6.4 6.4 0 0 1-3.751-1.233c-1.11-.803-1.976-1.945-2.487-3.28a7.9 7.9 0 0 1-.385-4.225 7.5 7.5 0 0 1 1.848-3.743 6.6 6.6 0 0 1 3.457-2.001 6.27 6.27 0 0 1 3.901.416c1.234.553 2.289 1.49 3.03 2.693a7.75 7.75 0 0 1 1.138 4.062c0 1.939-.711 3.798-1.977 5.17-1.266 1.37-2.984 2.14-4.774 2.14M89.268 83.87c-.668 0-1.32-.215-1.876-.616a3.6 3.6 0 0 1-1.243-1.64 3.94 3.94 0 0 1-.192-2.113c.13-.709.452-1.36.924-1.872a3.3 3.3 0 0 1 1.728-1 3.14 3.14 0 0 1 1.95.208 3.45 3.45 0 0 1 1.516 1.346c.37.602.569 1.308.569 2.031 0 .97-.356 1.9-.99 2.585a3.24 3.24 0 0 1-2.386 1.07"/>
</svg>
