<svg xmlns="http://www.w3.org/2000/svg" width="141" height="129" fill="none" viewBox="0 0 141 129">
  <path fill="#C12202" d="M89.435 34.51c-1.35 1.734-2.865 3.044-4.503 4.242-4.566 3.338-8.675 2.006-8.276-2.27.145.015 6.613.543 9.14-4.793 1.868-3.941-1.336-6.725-5.292-5.288-5.542 1.678-10.577 10.583-8.392 16.099 1.782 4.51 10.29 6.471 18.648-7.142l-1.321-.848zm-8.697-5.04c1.31-.26 1.742 1.266.417 2.617-.89.912-1.902 1.649-4.124 2.452.618-2.333 2.029-4.733 3.71-5.072zm7.664-8.714c2.43-.15 3.141-1.79 3.677-2.293 1.515-1.425 3.625.413 2.33 2.024-2.427 3.019-6.145 1.34-6.386 1.124-.384-.342-.12-.867.38-.855Z"/>
  <path fill="#C12202" d="M99.17 33.344c1.726-.026 3.341.633 3.687 2.326 1.195 5.82-9.054 13.61-13.323 8.582-3.327-3.915.54-11.626.685-11.894l-2.102-.022c-1.445-.015-1.433-2.49.01-2.49 0 0 .618-.034 1.15-.227 1.27-.462 3.007-1.403 4.585-3.334.566-.693 1.277-1.14 2.04-.741.793.406 1.008 1.299.547 2.062a66 66 0 0 0-1.299 2.307l2.5.015c.723 0-.155 2.49-2.779 2.49l-.837-.026c-.399.822-1.638 3.52-1.824 4.893-.398 2.937 1.18 3.149 1.492 3.193 2.836.417 4.377-4.436 2.658-5.984 0 0 1.068-1.124 2.817-1.154l-.008.004ZM64.75 64.445l4.09-11.54c1.173-3.837-4.782-2.944-6.036.911-.413-1.008-1.44-2.552-3.84-2.523-3.57.049-6.718 2.576-9.505 8.72-2.505 5.519-4.358 10.666-1.254 11.73 3.107 1.068 6.416-2.203 7.744-3.896 1.292-1.638 1.954-.637 1.66-.019-.193.406-.372.83-.57 1.254-1.09 2.363-2.366 4.916-3.75 6.96-6.733-3.019-17.551-6.16-20.502.792-3.208 7.562 11.566 14.052 21.573 5.3 4.34 1.853 9.922.721 12.668-3.238.596-.845 1.78-3.372.826-4.146-1.69-1.448-2.526 3.822-9.642 2.724q.311-.452.61-.912c2.468-3.777 4.421-7.867 5.929-12.12zM38.325 77.653c2.029-1.467 8.526 1.16 11.5 2.5-7.283 4.284-14.905-.04-11.5-2.5m16.71-12.382c-1.91-.51-1.295-2.776-.316-5.02 1.142-2.616 3.248-5.806 5.522-5.366 1.083.126 1.712 1.183 1.519 2.203-.559 1.663-1.366 3.483-2.044 5.161a3.3 3.3 0 0 1-.934 1.292c-1.19 1.012-2.828 1.976-3.75 1.73zm75.018 3.93c-13.442 9.822-17.871-2.738-17.942-3.96a8.5 8.5 0 0 0 3.491-.665c1.652-.689 3.078-1.839 4.198-3.167 4.644-5.508 4.51-14.261-2.345-13.54-5.53.585-9.556 5.635-10.904 10.737-2.541 9.628 2.762 19.207 12.4 19.68 5.627.275 10.927-3.279 12.326-8.229a.783.783 0 0 0-1.221-.86zm-15.5-16.549c5.794-5.541 6.378 6.795-2.818 10.655-.212-1.46-.673-7.317 2.818-10.655"/>
  <path fill="#C12202" d="M113.195 11.85c-2.754 3.658-11.008 1.44-12.292 1.142-7.141-1.664-26.445-9.014-30.516-10.007-7.25-1.772-15.597.424-20.431 6.352-1.857 2.311-3.04 5.374-3.197 8.445-.2 4.011 1.883 10.334 7.975 11.343 11.965 1.98 15.247-17.89 5.333-17.38-2.657.134-4.592 2.605-4.339 5.255a3.855 3.855 0 0 0 4.205 3.472 3.1 3.1 0 0 0 1.362-.469c-.643 5.82-8.626 4.48-8.82-3.022-.141-5.385 5.404-9.415 10.491-9.676 2.05-.167 4.116.13 6.092.681.752.231 1.519.495 2.285.77 0 0-7.926 26.133-9.31 29.594-.898 2.24-4.664 1.835-4.831 4.909-.1 1.809 1.213 1.965 2.173 2.091.96.123 7.607.168 8.485.082.878-.082 2.237-.297 2.423-1.88.223-1.879-3.305-1.934-2.311-3.903l9.047-28.67c16.612 6.442 19.117 7 22.563 7.789 4.172.952 8.973.35 12.836-1.936 3.755-2.221 6.97-8.965 2.813-11.47-1.838-1.108-4.298-.345-5.359 1.731a3.37 3.37 0 0 0 .048 3.16c.927 1.69 2.643 1.756 3.272 1.604zM53.38 43.088c-1.419 1.168-3.875 1.384-5.159 3.427l-5.485 18.47c-.454 1.533.852 1.965.257 3.8-.186.577-.644 1.407-2.457 1.459-2.106.06-5.437.122-5.437.122-4.123.324-1.69-3.539-1.298-7.491.934-9.479-2.297-14.038-2.472-14.365L26.4 64.687c-.67 2.192 2.668 2.14 2.266 4.187-.264 1.336-1.306 1.682-2.147 1.705-.815.022-6.093.156-8.02.122-1.928-.033-3.2-.442-2.724-2.634.428-1.962 2.813-2.505 4.231-3.674a2.45 2.45 0 0 0 .767-1.176l6.002-19.686c-.495-.302-4.011-2.248-7.953-2.055-7.409.361-12.213 7.845-10.148 13.07 1.247 3.145 4.343 3.874 5.824 3.342 1.41-.506 2.278-1.805 2.494-3.327-3.268 1.772-6.986-2.426-4.801-5.958 1.548-2.5 4.577-3.152 7.078-1.604 6.48 4.016.45 18.31-9.639 15.396-8.086-2.337-9.638-12.184-4.398-18.477 6.762-8.232 19.597-8.563 27.45-2.352 7.774 6.148 6.207 20.498 6.159 21.547l5.366-17.763c.26-.867-.22-1.533-.927-1.823-1.28-.521-1.247-2.713.436-2.85 1.775-.146 8.205-.377 9.307-.377 1.485 0 1.798 1.597.35 2.792zm36.677 48.305c-1.418 1.168-3.874 1.384-5.158 3.427l-5.485 18.47c-.454 1.534.852 1.965.257 3.8-.187.577-.644 1.407-2.457 1.459-2.106.059-5.437.123-5.437.123-4.123.323-1.69-3.54-1.299-7.492.934-9.479-2.296-14.037-2.47-14.365l-4.932 16.178c-.67 2.191 2.669 2.139 2.267 4.186-.264 1.336-1.306 1.682-2.148 1.705-.815.022-6.092.156-8.02.122-1.927-.033-3.2-.442-2.723-2.634.427-1.962 2.813-2.505 4.23-3.673.37-.306.63-.722.767-1.176l6.003-19.687c-9.434-5.765-22.563 1.183-19.4 11.216 1.377 4.366 8.842 5.263 9.616-.186-3.267 1.772-6.985-2.426-4.8-5.958 1.548-2.5 4.577-3.152 7.078-1.604 6.48 4.016-.268 17.722-9.441 14.622-7.976-2.694-8.91-12.18-4.593-17.707 6.557-8.4 18.902-8.332 26.754-2.121 7.774 6.148 6.903 20.267 6.855 21.317l5.366-17.763c.26-.867-.22-1.533-.926-1.824-1.28-.52-1.247-2.713.435-2.85 1.775-.145 8.206-.376 9.308-.376 1.485 0 1.797 1.596.35 2.791zm-2.669-39.184c-.376.167-.95.852-.976.923-.126.35-3.14 8.56-4.23 11.287-2.587 6.457-8.363 5.772-9.167 5.594-3.524-.793-6.163-4.492-4.462-9.434.547-1.59 1.823-5.404 2.508-7.47-.026-.334-.134-.61-.357-.84-.42-.447-.328-2.084.867-2.2 1.191-.115 5.47-.298 6.081-.309.893-.026 1.414 1.935-.484 2.788a2.6 2.6 0 0 0-.908.71c0 .012-.007.026-.011.038-.093.271-2.214 6.654-2.988 8.905-.58 1.682-.458 2.925.845 3.234 1.563.372 3.018-1.794 3.45-2.87.814-2.038 2.813-7.442 3.72-9.902a1.27 1.27 0 0 0-.349-.74c-.42-.443-.328-2.08.867-2.2 1.19-.115 5.47-.294 6.081-.309.893-.022 1.41 1.935-.487 2.791z"/>
  <path fill="#C12202" d="M107.111 53.37c.346-.945 2.393-5.273.495-5.146 0 0-3.461.253-3.464.256a2.66 2.66 0 0 0-1.455 1.095s-1.288 3.181-1.288 3.185a398 398 0 0 1-2.724 6.77c-.171.42-.395.818-.678 1.172-2.05 2.52-5.615 3.747-5.831.964-.034-.424.03-.871.123-1.266a3780 3780 0 0 0 2.958-7.621c.078-.201.123-.257.231-.592.975-2.281.555-3.3-.566-3.234-.61.037-2.903.149-4.093.264-1.173.112-1.24 1.675-.93 2.203.167.283.208.588.19.923a2072 2072 0 0 1-3.778 9.684l-.049.119c-2.68 6.669.335 7.785 1.876 7.785 2.88 0 6.978-4.458 7.1-4.663.537-.718 1.21-.57.868.063-.038.075-2.162 4.786-4.232 8.165-6.829-3.003-16.214-5.686-20.505 1.727-2.3 4.604 1.946 8.396 6.085 9.449 5.452 1.537 11.536-.201 15.355-4.365.059-.06.111-.123.167-.186 4.447 1.927 10.208.77 13.025-3.313.622-.867 1.712-3.542.611-4.26-.533-.377-1.266-.172-1.578.39-1.589 2.46-5.4 3.1-8.366 2.516 2.742-3.963 4.897-8.314 6.829-12.724l3.617-9.356zM77.284 78.108c-.901-.878-.726-1.913 0-2.441 2.024-1.466 8.086 1.012 11.056 2.356-5.698 3.345-10.308.818-11.06.085zm62.091-17.332c-1.376.849-3.304.964-2.225-1.034v-.011c1.526-3.465 3.547-6.7 3.725-10.584.019-2.107-1.358-3.573-3.111-3.651-3.96-.465-6.379 4.652-6.71 5.433-.353.834-1.31.573-1.012-.327.1-.305 1.064-2.695-.886-2.575-.543.033-2.754.208-4.134.394-1.042.141-1.251 1.671-.689 2.322.209.238.685.637 1.12 1.065.503.498.774 1.205.666 1.905-.018.123-.048.25-.089.372-1.31 3.796-2.705 7.584-3.003 8.403a2.5 2.5 0 0 1-.878.674c-1.999.893-1.63 2.85-.737 2.825.681-.015 5.113-.227 6.33-.343 1.191-.119 1.288-1.757.867-2.2-.294-.308-.361-.625-.316-1.093.03-.302.104-.592.205-.875.442-1.25 1.537-4.313 2.623-7.034 1.206-3.01 2.497-4.484 3.35-4.227.822.245.468 1.86-.306 3.963-1.101 2.985-3.051 6.96-3.706 9.42-1.158 4.346 6.23 6.65 10.089-2.018.338-.759-.369-1.295-1.173-.8z"/>
  <path fill="#C12202" d="M104.404 127.908c-4.514 2.877-10.182-.279-9.598-5.407.197-1.723 4.749-15.258 5.746-18.369.19-.596 1.433-4.101-.484-4.835-2.85-1.09-5.857 3.402-6.181 4.198-.666 1.63-2.85 8.619-3.506 10.666-.357 1.113 1.161 1.749.879 3.029-.22 1.013-.976 1.266-1.44 1.266-.31 0-5.181-.026-5.546-.026-.833 0-1.667-.086-1.611-1.321.07-1.515.886-1.549 1.492-2.661 1.593-4.898 3.8-11.585 5.33-16.367.956-2.993 3.338-9.602 2.731-11.161-.778-1.991-2.225-1.161-2.542-1.999-.726-1.92 5.72-3.561 7.823.64.759 1.515.796 3.152.55 4.749-.558 2.97-1.536 5.783-2.552 8.597 1.797-1.75 3.862-3.275 5.939-3.621 2.196-.398 4.373.982 5.017 3.103.74 2.494-.179 5.013-.886 7.321-1.667 5.176-3.361 10.457-5.158 15.849-.316.949-1.038 3.298.633 4.165.949.491 2.504.368 3.327-.771-1.225-.011-2.04-1.741-.938-2.824.841-.826 2.188-.785 2.903-.011 1.615 1.756-.261 4.733-1.928 5.794z"/>
  <path fill="#C12202" d="M121.558 112.433c1.255-4.324 2.416-7.606 3.726-11.692 2.218-6.919 2.318-12.97-4.157-16.282-4.533-2.322-10.774-.677-13.052 3.907-1.775 3.316-1.008 8.15 2.795 9.665 3.923 1.563 7.406-2.754 5.765-5.567-1.366-2.345-4.831-.92-4.291 1.418-.104-.026-1.894-1.083-.733-3.554 2.237-4.764 11.708-3.044 9.672 5.415-.502 2.091-2.657 8.444-2.899 9.214-4.585-.975-9.776-.212-12.515 4.03-.923 1.377-1.604 3.048-1.522 4.812.111 3.19 2.783 4.92 5.827 4.812 2.315-.085 4.217-.744 5.91-1.95.797 2.129 3.223 3.495 5.813 2.493 1.295-.498 3.074-2.359 2.594-3.274-.443-.849-1.146.71-2.687-.142-1.247-.688-.424-2.687-.242-3.312zm-5.749 1.545c-1.195.42-2.114.696-3.692.446-2.177-.346-3.037-2.381-1.961-4.049 1.347-2.091 4.026-2.932 7.383-2.657-.309 1.009-1.22 4.392-1.73 6.26m17.103-34.796c.994-1.34-4.481-2.002-5.675 2.531-.953 3.625 2.214 7.618 6.345 7.648.253 0 .413-.29.264-.499-4.038-5.746-1.585-8.809-.938-9.68zm-6.685-34.002c.023-.239-.2-.432-.435-.395-.956.156-3.327.052-3.989-2.121-.678-2.218-.447-2.821-1.374-2.821-.852 0-1.239.882-3.732 3.085-1.842 1.626-3.212.904-3.8.413a.514.514 0 0 0-.722.074c-.934 1.117-.99 3.588 1.571 3.588 3.572 0 5.612-3.636 5.612-3.636s.294 4.116 3.706 4.12c2.084 0 3.082-1.396 3.171-2.308zM91.321 23.992c.023-.238-.2-.431-.435-.394-.957.156-3.327.052-3.99-2.122-.677-2.218-.446-2.82-1.373-2.82-.852 0-1.24.882-3.733 3.085-1.842 1.626-3.211.904-3.8.413a.514.514 0 0 0-.721.074c-.934 1.117-.99 3.588 1.57 3.588 3.573 0 5.612-3.636 5.612-3.636s.294 4.116 3.707 4.12c2.084 0 3.081-1.396 3.17-2.308z"/>
  <path fill="#EF4B23" d="M88.576 33.148c-1.351 1.734-2.866 3.044-4.503 4.242-4.566 3.338-8.675 2.006-8.277-2.27.145.015 6.613.544 9.14-4.793 1.868-3.941-1.336-6.725-5.292-5.288-5.541 1.678-10.576 10.584-8.392 16.099 1.783 4.51 10.29 6.472 18.649-7.142l-1.321-.848zm-8.697-5.035c1.31-.26 1.741 1.265.417 2.616-.89.912-1.902 1.648-4.124 2.452.618-2.333 2.028-4.733 3.71-5.072zm7.664-8.715c2.43-.149 3.14-1.79 3.677-2.293 1.514-1.425 3.624.413 2.33 2.025-2.427 3.018-6.145 1.34-6.387 1.124-.383-.343-.119-.867.38-.856"/>
  <path fill="#EF4B23" d="M98.31 31.983c1.727-.026 3.342.633 3.688 2.326 1.195 5.82-9.055 13.61-13.323 8.582-3.327-3.915.54-11.626.685-11.894l-2.103-.022c-1.444-.015-1.433-2.49.011-2.49 0 0 .618-.033 1.15-.227 1.27-.461 3.007-1.403 4.585-3.334.566-.693 1.276-1.14 2.04-.741.792.406 1.008 1.299.546 2.062a66 66 0 0 0-1.298 2.307l2.5.015c.722 0-.156 2.49-2.78 2.49l-.837-.026c-.398.822-1.637 3.52-1.823 4.893-.398 2.937 1.18 3.149 1.492 3.193 2.836.417 4.376-4.436 2.657-5.984 0 0 1.068-1.124 2.817-1.154zM63.891 63.087l4.09-11.54c1.172-3.837-4.782-2.944-6.036.912-.413-1.009-1.44-2.553-3.84-2.523-3.57.048-6.718 2.575-9.505 8.72-2.505 5.518-4.358 10.665-1.255 11.73 3.108 1.067 6.416-2.204 7.745-3.897s1.954-.636 1.66-.019c-.194.406-.372.83-.57 1.254-1.09 2.364-2.367 4.916-3.75 6.96-6.733-3.019-17.551-6.16-20.503.792-3.208 7.562 11.567 14.053 21.574 5.3 4.34 1.853 9.921.722 12.668-3.238.595-.845 1.779-3.372.826-4.146-1.69-1.447-2.527 3.822-9.642 2.724q.31-.453.61-.911c2.467-3.778 4.421-7.868 5.928-12.121zm-26.43 13.208c2.028-1.466 8.526 1.161 11.5 2.5-7.283 4.284-14.905-.04-11.5-2.5m16.71-12.385c-1.91-.51-1.295-2.776-.317-5.02 1.143-2.617 3.25-5.806 5.523-5.367 1.083.127 1.712 1.184 1.518 2.203-.558 1.664-1.365 3.484-2.043 5.162-.2.499-.52.942-.934 1.291-1.19 1.013-2.828 1.977-3.751 1.73zm75.011 3.93c-13.442 9.82-17.871-2.74-17.942-3.96a8.5 8.5 0 0 0 3.491-.666c1.652-.689 3.078-1.839 4.198-3.167 4.644-5.508 4.51-14.26-2.345-13.539-5.53.584-9.556 5.634-10.904 10.737-2.541 9.627 2.762 19.206 12.4 19.679 5.627.275 10.927-3.279 12.326-8.228a.783.783 0 0 0-1.221-.86zm-15.497-16.55c5.795-5.541 6.379 6.796-2.817 10.655-.212-1.459-.674-7.317 2.817-10.655"/>
  <path fill="#EF4B23" d="M112.32 10.492c-2.754 3.658-11.008 1.44-12.292 1.142-7.141-1.663-26.445-9.013-30.516-10.007-7.25-1.771-15.597.424-20.431 6.353-1.857 2.31-3.04 5.374-3.197 8.444-.2 4.012 1.883 10.334 7.975 11.343 11.965 1.98 15.247-17.89 5.333-17.38-2.657.134-4.592 2.606-4.339 5.255a3.855 3.855 0 0 0 4.205 3.473 3.1 3.1 0 0 0 1.362-.47c-.644 5.821-8.626 4.481-8.82-3.021-.141-5.385 5.404-9.416 10.491-9.676 2.05-.168 4.116.13 6.092.68.752.232 1.519.496 2.285.771 0 0-7.926 26.133-9.31 29.593-.898 2.24-4.664 1.835-4.831 4.91-.1 1.808 1.213 1.964 2.173 2.09.96.123 7.607.168 8.485.083.878-.082 2.237-.298 2.423-1.88.223-1.88-3.305-1.935-2.311-3.904l9.047-28.67c16.612 6.442 19.117 7 22.563 7.789 4.172.953 8.973.35 12.836-1.935 3.755-2.222 6.97-8.965 2.813-11.47-1.838-1.109-4.298-.346-5.359 1.73a3.37 3.37 0 0 0 .048 3.16c.927 1.69 2.643 1.757 3.272 1.604zm-59.8 31.234c-1.418 1.169-3.874 1.384-5.158 3.428l-5.486 18.47c-.454 1.533.853 1.964.257 3.799-.186.577-.644 1.407-2.456 1.459-2.106.06-5.437.123-5.437.123-4.124.323-1.69-3.54-1.299-7.492.934-9.478-2.296-14.037-2.471-14.365l-4.931 16.178c-.67 2.191 2.668 2.14 2.266 4.186-.264 1.336-1.306 1.682-2.147 1.705-.815.022-6.092.156-8.02.123-1.928-.034-3.2-.443-2.724-2.635.428-1.962 2.813-2.505 4.231-3.673a2.44 2.44 0 0 0 .767-1.176l6.003-19.687c-.495-.302-4.012-2.248-7.953-2.054-7.41.36-12.214 7.844-10.149 13.07 1.247 3.144 4.343 3.874 5.825 3.341 1.41-.506 2.277-1.805 2.493-3.327-3.268 1.772-6.985-2.426-4.8-5.958 1.547-2.5 4.577-3.152 7.078-1.604 6.479 4.016.45 18.31-9.64 15.396C.684 58.696-.868 48.85 4.372 42.556c6.762-8.232 19.597-8.563 27.45-2.352 7.774 6.148 6.207 20.498 6.159 21.547l5.366-17.762c.26-.867-.22-1.534-.926-1.824-1.28-.52-1.247-2.713.435-2.85 1.775-.146 8.206-.376 9.308-.376 1.484 0 1.797 1.596.35 2.79zm36.662 48.305c-1.418 1.169-3.874 1.385-5.158 3.428l-5.485 18.47c-.454 1.533.852 1.965.257 3.799-.187.577-.644 1.407-2.457 1.459-2.106.06-5.437.123-5.437.123-4.123.324-1.69-3.539-1.299-7.491.934-9.479-2.296-14.038-2.47-14.365L62.2 111.63c-.67 2.192 2.669 2.14 2.267 4.187-.264 1.336-1.307 1.682-2.148 1.704-.815.022-6.092.156-8.02.123-1.927-.034-3.2-.443-2.723-2.635.428-1.961 2.813-2.504 4.23-3.673.37-.305.63-.722.767-1.176l6.003-19.687c-9.434-5.764-22.563 1.184-19.4 11.217 1.377 4.365 8.842 5.262 9.616-.186-3.267 1.771-6.985-2.427-4.8-5.958 1.548-2.501 4.577-3.153 7.078-1.604 6.48 4.015-.268 17.721-9.441 14.621-7.976-2.694-8.91-12.18-4.593-17.706 6.557-8.4 18.902-8.333 26.754-2.122 7.774 6.148 6.903 20.268 6.855 21.317l5.367-17.763c.26-.867-.22-1.533-.927-1.823-1.28-.521-1.247-2.713.435-2.85 1.775-.146 8.206-.377 9.308-.377 1.485 0 1.797 1.597.35 2.791h.003Zm-2.654-39.184c-.376.168-.949.852-.975.923-.126.35-3.14 8.56-4.231 11.287-2.587 6.457-8.362 5.773-9.166 5.594-3.525-.793-6.163-4.492-4.462-9.434.547-1.59 1.823-5.404 2.508-7.47-.026-.334-.134-.61-.357-.84-.42-.447-.328-2.084.867-2.2 1.19-.115 5.47-.297 6.08-.309.894-.026 1.415 1.936-.483 2.788a2.6 2.6 0 0 0-.908.71c0 .012-.008.027-.011.038-.093.272-2.215 6.654-2.989 8.906-.58 1.682-.457 2.925.845 3.233 1.563.373 3.018-1.793 3.45-2.869.815-2.04 2.813-7.443 3.721-9.903a1.27 1.27 0 0 0-.35-.74c-.42-.443-.327-2.08.868-2.2 1.19-.115 5.47-.294 6.08-.309.894-.022 1.411 1.936-.487 2.792z"/>
  <path fill="#EF4B23" d="M106.248 52.01c.346-.946 2.393-5.274.495-5.148 0 0-3.461.253-3.465.257a2.67 2.67 0 0 0-1.455 1.094s-1.287 3.182-1.287 3.186a401 401 0 0 1-2.725 6.77 4.7 4.7 0 0 1-.677 1.172c-2.05 2.52-5.616 3.747-5.831.963-.034-.424.03-.87.122-1.265 1.255-3.219 2.862-7.368 2.959-7.621.078-.201.123-.257.23-.592.976-2.281.555-3.301-.565-3.234-.61.037-2.903.149-4.094.264-1.172.112-1.239 1.675-.93 2.203.167.283.208.588.19.923a2076 2076 0 0 1-3.778 9.684l-.048.119c-2.68 6.669.335 7.785 1.876 7.785 2.88 0 6.978-4.458 7.1-4.663.536-.718 1.21-.57.868.063-.038.075-2.163 4.786-4.232 8.165-6.829-3.003-16.214-5.686-20.505 1.727-2.3 4.603 1.946 8.396 6.084 9.449 5.452 1.537 11.537-.201 15.355-4.366.06-.06.112-.122.168-.186 4.447 1.928 10.208.77 13.025-3.312.621-.867 1.712-3.543.61-4.26-.532-.377-1.265-.172-1.578.39-1.589 2.46-5.4 3.1-8.366 2.516 2.743-3.964 4.898-8.314 6.829-12.724l3.618-9.356.007-.004ZM76.424 76.745c-.9-.878-.726-1.913 0-2.441 2.024-1.467 8.087 1.012 11.057 2.355-5.698 3.346-10.309.82-11.06.086zm62.092-17.326c-1.377.848-3.305.964-2.225-1.035v-.011c1.525-3.465 3.546-6.699 3.725-10.584.018-2.106-1.359-3.573-3.111-3.65-3.96-.466-6.379 4.651-6.71 5.433-.354.833-1.31.573-1.012-.328.1-.305 1.064-2.694-.886-2.575-.543.033-2.754.208-4.135.394-1.042.142-1.25 1.671-.688 2.322.208.239.685.637 1.12 1.065.502.499.774 1.206.666 1.905-.018.123-.048.25-.089.372-1.31 3.796-2.706 7.585-3.003 8.404a2.5 2.5 0 0 1-.879.673c-1.998.893-1.63 2.85-.737 2.825.681-.015 5.114-.227 6.331-.343 1.191-.119 1.287-1.756.867-2.199-.294-.309-.361-.625-.317-1.094a3.7 3.7 0 0 1 .205-.875c.443-1.25 1.537-4.313 2.624-7.033 1.206-3.011 2.497-4.485 3.349-4.228.823.246.469 1.86-.305 3.964-1.102 2.984-3.052 6.959-3.707 9.419-1.157 4.346 6.23 6.65 10.089-2.018.339-.759-.368-1.294-1.172-.8z"/>
  <path fill="#EF4B23" d="M103.541 126.547c-4.514 2.876-10.182-.279-9.598-5.408.197-1.723 4.749-15.258 5.746-18.369.19-.595 1.433-4.101-.484-4.834-2.85-1.09-5.858 3.401-6.181 4.198-.666 1.63-2.85 8.619-3.506 10.665-.357 1.113 1.161 1.75.878 3.03-.22 1.012-.975 1.265-1.44 1.265-.309 0-5.18-.026-5.545-.026-.834 0-1.667-.086-1.611-1.321.07-1.515.885-1.548 1.492-2.661 1.593-4.898 3.8-11.585 5.33-16.367.956-2.992 3.337-9.602 2.73-11.161-.777-1.991-2.225-1.161-2.541-1.998-.726-1.92 5.72-3.562 7.823.64.759 1.514.796 3.152.55 4.748-.558 2.97-1.537 5.784-2.552 8.597 1.797-1.75 3.862-3.275 5.939-3.621 2.196-.398 4.373.982 5.017 3.104.74 2.493-.179 5.013-.886 7.32-1.667 5.176-3.361 10.457-5.158 15.85-.316.949-1.038 3.297.632 4.164.949.491 2.505.369 3.327-.77-1.224-.011-2.039-1.742-.937-2.825.841-.826 2.188-.785 2.902-.011 1.616 1.757-.26 4.734-1.927 5.794z"/>
  <path fill="#EF4B23" d="M120.691 111.073c1.254-4.325 2.416-7.607 3.725-11.693 2.218-6.919 2.319-12.97-4.156-16.282-4.533-2.322-10.774-.677-13.052 3.908-1.775 3.316-1.008 8.15 2.795 9.664 3.923 1.563 7.406-2.754 5.765-5.567-1.366-2.344-4.831-.92-4.291 1.418-.104-.026-1.894-1.083-.733-3.554 2.236-4.764 11.708-3.044 9.672 5.415-.503 2.091-2.657 8.444-2.899 9.214-4.585-.975-9.777-.212-12.516 4.031-.923 1.376-1.604 3.047-1.522 4.811.112 3.19 2.784 4.92 5.828 4.812 2.315-.085 4.217-.744 5.91-1.95.796 2.129 3.223 3.495 5.813 2.494 1.295-.499 3.074-2.36 2.594-3.275-.443-.849-1.146.711-2.687-.142-1.247-.688-.424-2.687-.242-3.312zm-5.749 1.548c-1.195.42-2.114.696-3.692.446-2.177-.346-3.037-2.381-1.961-4.049 1.347-2.091 4.026-2.932 7.383-2.657-.309 1.009-1.221 4.392-1.73 6.26m16.837-34.481c.994-1.34-4.48-2.002-5.675 2.531-.953 3.625 2.214 7.618 6.345 7.648.253 0 .413-.29.264-.499-4.037-5.746-1.585-8.808-.937-9.68zm-6.415-34.322c.023-.239-.201-.432-.435-.395-.957.156-3.327.052-3.99-2.121-.677-2.218-.446-2.821-1.373-2.821-.852 0-1.239.882-3.732 3.085-1.843 1.626-3.212.904-3.8.413a.514.514 0 0 0-.722.075c-.934 1.116-.99 3.587 1.57 3.587 3.573 0 5.612-3.636 5.612-3.636s.294 4.116 3.707 4.12c2.084 0 3.081-1.396 3.171-2.307zM90.462 22.631c.022-.238-.201-.432-.436-.394-.956.156-3.327.052-3.989-2.122-.677-2.218-.447-2.82-1.373-2.82-.853 0-1.24.881-3.733 3.085-1.842 1.626-3.212.904-3.8.413a.514.514 0 0 0-.722.074c-.934 1.116-.99 3.588 1.57 3.588 3.574 0 5.613-3.636 5.613-3.636s.294 4.116 3.707 4.12c2.084 0 3.081-1.396 3.17-2.308z"/>
  <path fill="#fff" d="M87.713 32.12c-1.351 1.735-2.866 3.045-4.503 4.243-4.567 3.338-8.675 2.006-8.277-2.27.145.015 6.613.543 9.14-4.793 1.868-3.941-1.336-6.725-5.292-5.288-5.541 1.678-10.577 10.584-8.392 16.099 1.783 4.51 10.29 6.472 18.648-7.142l-1.32-.848zm-8.697-5.034c1.31-.261 1.741 1.265.416 2.616-.89.911-1.901 1.648-4.123 2.452.618-2.333 2.028-4.734 3.71-5.072l-.004.003Zm7.664-8.716c2.43-.15 3.14-1.79 3.676-2.293 1.515-1.426 3.625.413 2.33 2.024-2.426 3.018-6.144 1.34-6.386 1.124-.383-.342-.12-.867.38-.856Z"/>
  <path fill="#fff" d="M97.447 30.955c1.726-.026 3.342.633 3.688 2.326 1.194 5.82-9.055 13.61-13.323 8.582-3.327-3.915.54-11.626.684-11.894l-2.102-.022c-1.444-.015-1.433-2.49.011-2.49 0 0 .618-.033 1.15-.227 1.269-.461 3.007-1.403 4.585-3.334.566-.693 1.276-1.14 2.04-.74.792.405 1.008 1.298.546 2.06a66 66 0 0 0-1.299 2.308l2.501.015c.722 0-.156 2.49-2.78 2.49l-.837-.026c-.398.822-1.638 3.52-1.824 4.893-.398 2.937 1.18 3.149 1.493 3.193 2.836.417 4.376-4.436 2.657-5.984 0 0 1.068-1.124 2.817-1.153zM63.028 62.06l4.09-11.54c1.172-3.837-4.782-2.944-6.036.912-.413-1.009-1.44-2.553-3.84-2.524-3.57.049-6.718 2.576-9.506 8.72-2.504 5.519-4.357 10.666-1.254 11.73 3.108 1.068 6.416-2.203 7.745-3.896 1.291-1.638 1.954-.637 1.66-.019-.194.406-.373.83-.57 1.254-1.09 2.363-2.367 4.916-3.751 6.96-6.732-3.019-17.55-6.16-20.502.792-3.208 7.562 11.566 14.052 21.574 5.3 4.339 1.853 9.921.722 12.668-3.238.595-.845 1.779-3.372.826-4.146-1.69-1.448-2.527 3.822-9.643 2.724q.312-.452.61-.912c2.468-3.777 4.422-7.867 5.929-12.12zM36.602 75.268c2.028-1.466 8.526 1.16 11.5 2.5-7.284 4.284-14.905-.04-11.5-2.5m16.71-12.385c-1.91-.51-1.296-2.777-.317-5.02 1.142-2.617 3.249-5.806 5.523-5.367 1.082.127 1.712 1.183 1.518 2.203-.558 1.664-1.366 3.483-2.043 5.162a3.3 3.3 0 0 1-.934 1.291c-1.191 1.012-2.829 1.976-3.752 1.73h.004Zm75.014 3.93c-13.442 9.82-17.871-2.74-17.941-3.96a8.5 8.5 0 0 0 3.491-.666c1.652-.689 3.077-1.839 4.197-3.167 4.645-5.508 4.511-14.261-2.344-13.539-5.53.584-9.557 5.634-10.904 10.736-2.542 9.628 2.761 19.207 12.4 19.68 5.627.275 10.926-3.279 12.325-8.229a.782.782 0 0 0-1.22-.86zm-15.5-16.55c5.794-5.541 6.379 6.796-2.817 10.655-.212-1.46-.674-7.317 2.817-10.655"/>
  <path fill="#fff" d="M111.473 9.46c-2.754 3.659-11.008 1.44-12.292 1.143C92.039 8.939 72.736 1.59 68.664.596c-7.25-1.772-15.596.424-20.43 6.352-1.858 2.312-3.041 5.374-3.197 8.445-.201 4.011 1.883 10.334 7.975 11.343 11.964 1.98 15.247-17.89 5.333-17.38-2.657.134-4.593 2.605-4.34 5.255a3.855 3.855 0 0 0 4.206 3.472 3.1 3.1 0 0 0 1.362-.469c-.644 5.82-8.627 4.481-8.82-3.022-.142-5.385 5.403-9.415 10.49-9.675 2.051-.168 4.117.13 6.093.68a54 54 0 0 1 2.285.77S61.694 32.5 60.31 35.961c-.897 2.24-4.663 1.835-4.83 4.909-.101 1.809 1.212 1.965 2.172 2.091.96.123 7.607.168 8.485.082.879-.082 2.237-.297 2.423-1.88.223-1.878-3.305-1.934-2.31-3.903l9.046-28.67c16.613 6.442 19.117 7 22.563 7.789 4.172.952 8.973.35 12.836-1.935 3.755-2.222 6.97-8.966 2.813-11.47-1.838-1.11-4.298-.346-5.359 1.73a3.37 3.37 0 0 0 .049 3.16c.926 1.69 2.642 1.757 3.271 1.604zM51.657 40.699c-1.418 1.168-3.874 1.384-5.158 3.427l-5.486 18.47c-.454 1.533.852 1.965.257 3.8-.186.577-.644 1.406-2.456 1.459-2.107.06-5.438.122-5.438.122-4.123.324-1.689-3.539-1.298-7.491.934-9.479-2.296-14.037-2.471-14.365l-4.931 16.177c-.67 2.192 2.668 2.14 2.266 4.187-.264 1.336-1.306 1.682-2.147 1.704-.815.023-6.092.157-8.02.123-1.928-.033-3.2-.443-2.724-2.635.428-1.96 2.813-2.504 4.231-3.673.369-.305.63-.722.767-1.176l6.003-19.686c-.495-.302-4.012-2.248-7.953-2.055-7.41.361-12.214 7.845-10.149 13.07 1.247 3.145 4.343 3.874 5.824 3.342 1.41-.506 2.278-1.805 2.494-3.327-3.268 1.772-6.986-2.426-4.801-5.958 1.548-2.5 4.577-3.152 7.078-1.604 6.48 4.016.45 18.31-9.638 15.396-8.087-2.337-9.64-12.184-4.4-18.477 6.763-8.232 19.598-8.564 27.45-2.352 7.775 6.148 6.208 20.498 6.16 21.547l5.366-17.762c.26-.868-.22-1.534-.927-1.824-1.28-.521-1.246-2.713.436-2.85 1.775-.146 8.206-.377 9.307-.377 1.485 0 1.798 1.597.35 2.791zm36.678 48.305c-1.418 1.169-3.874 1.384-5.158 3.427l-5.486 18.47c-.454 1.534.852 1.965.257 3.8-.186.577-.644 1.407-2.456 1.459-2.107.059-5.437.123-5.437.123-4.124.323-1.69-3.54-1.3-7.492.935-9.478-2.295-14.037-2.47-14.365l-4.931 16.178c-.67 2.192 2.668 2.139 2.266 4.186-.264 1.336-1.306 1.682-2.147 1.705-.815.022-6.092.156-8.02.123-1.928-.034-3.2-.443-2.724-2.635.428-1.962 2.813-2.505 4.231-3.673a2.44 2.44 0 0 0 .767-1.176l6.003-19.687c-9.434-5.765-22.564 1.183-19.4 11.216 1.376 4.366 8.842 5.263 9.616-.186-3.268 1.772-6.985-2.426-4.801-5.958 1.548-2.5 4.577-3.152 7.078-1.604 6.48 4.016-.268 17.722-9.441 14.622-7.975-2.694-8.91-12.18-4.592-17.707 6.557-8.4 18.901-8.332 26.753-2.121 7.775 6.148 6.904 20.267 6.855 21.317l5.367-17.763c.26-.867-.22-1.533-.927-1.824-1.28-.52-1.247-2.712.436-2.85 1.775-.145 8.205-.376 9.307-.376 1.485 0 1.797 1.596.35 2.791zm-2.67-39.184c-.376.168-.95.852-.975.923-.127.35-3.141 8.56-4.231 11.287-2.587 6.457-8.363 5.772-9.167 5.594-3.524-.793-6.162-4.492-4.462-9.434a996 996 0 0 0 2.509-7.47c-.026-.334-.134-.61-.358-.84-.42-.447-.327-2.084.868-2.2 1.19-.115 5.47-.297 6.08-.309.894-.026 1.415 1.936-.483 2.788a2.6 2.6 0 0 0-.909.71c0 .012-.007.027-.01.038-.094.272-2.215 6.654-2.989 8.905-.58 1.683-.458 2.925.845 3.234 1.563.373 3.018-1.793 3.45-2.869.815-2.04 2.813-7.443 3.721-9.903a1.27 1.27 0 0 0-.35-.74c-.42-.443-.327-2.08.867-2.2 1.191-.115 5.471-.294 6.081-.309.894-.022 1.41 1.936-.487 2.791z"/>
  <path fill="#fff" d="M105.389 50.982c.346-.946 2.393-5.274.495-5.147 0 0-3.461.253-3.465.257a2.66 2.66 0 0 0-1.455 1.094s-1.288 3.181-1.288 3.185a398 398 0 0 1-2.724 6.77c-.171.42-.394.818-.677 1.172-2.05 2.52-5.616 3.747-5.832.964-.033-.425.03-.871.123-1.266 1.254-3.219 2.862-7.368 2.959-7.621.078-.201.122-.257.23-.592.975-2.281.555-3.3-.565-3.234-.61.037-2.903.149-4.094.264-1.172.112-1.24 1.675-.93 2.203.167.283.208.589.19.923a2073 2073 0 0 1-3.778 9.684l-.048.119c-2.68 6.669.335 7.785 1.875 7.785 2.88 0 6.978-4.458 7.101-4.663.536-.718 1.21-.57.867.064-.037.074-2.162 4.785-4.231 8.164-6.83-3.003-16.215-5.686-20.506 1.727-2.3 4.604 1.947 8.396 6.085 9.45 5.452 1.536 11.537-.202 15.355-4.366.06-.06.112-.123.167-.186 4.448 1.927 10.208.77 13.026-3.312.621-.868 1.711-3.543.61-4.261-.532-.376-1.265-.172-1.578.39-1.589 2.46-5.4 3.1-8.366 2.516 2.743-3.963 4.897-8.314 6.829-12.724l3.617-9.356zM75.561 75.718c-.9-.878-.726-1.913 0-2.44 2.024-1.467 8.087 1.011 11.056 2.355-5.697 3.345-10.308.819-11.06.085zm62.092-17.326c-1.377.848-3.305.963-2.226-1.035v-.011c1.526-3.465 3.547-6.699 3.726-10.584.018-2.107-1.359-3.573-3.112-3.651-3.959-.465-6.378 4.652-6.709 5.433-.354.834-1.31.574-1.013-.327.101-.305 1.065-2.694-.885-2.575-.544.033-2.754.208-4.135.394-1.042.142-1.25 1.671-.688 2.322.208.239.684.637 1.12 1.065.502.498.774 1.205.666 1.905-.019.123-.049.25-.089.372-1.31 3.796-2.706 7.585-3.004 8.403a2.5 2.5 0 0 1-.878.674c-1.998.893-1.63 2.85-.737 2.825.681-.015 5.113-.227 6.33-.343 1.191-.119 1.288-1.756.868-2.2-.294-.308-.361-.624-.317-1.093a3.7 3.7 0 0 1 .205-.875c.443-1.25 1.537-4.313 2.624-7.034 1.205-3.01 2.497-4.484 3.349-4.227.822.245.469 1.86-.305 3.963-1.102 2.985-3.052 6.96-3.707 9.42-1.157 4.346 6.23 6.65 10.089-2.018.339-.759-.368-1.295-1.172-.8z"/>
  <path fill="#fff" d="M102.681 125.52c-4.514 2.876-10.182-.28-9.598-5.408.198-1.723 4.749-15.258 5.746-18.369.19-.596 1.433-4.101-.483-4.834-2.851-1.09-5.858 3.401-6.182 4.197-.666 1.631-2.85 8.619-3.506 10.666-.357 1.113 1.162 1.749.879 3.03-.22 1.012-.975 1.265-1.44 1.265-.31 0-5.18-.026-5.545-.026-.834 0-1.668-.086-1.612-1.321.07-1.515.886-1.548 1.492-2.661 1.593-4.898 3.8-11.585 5.33-16.367.956-2.992 3.338-9.602 2.731-11.161-.778-1.991-2.225-1.161-2.542-1.999-.725-1.92 5.72-3.561 7.823.64.76 1.515.796 3.153.55 4.75-.558 2.969-1.536 5.782-2.552 8.596 1.797-1.75 3.863-3.275 5.94-3.621 2.195-.398 4.372.982 5.016 3.104.74 2.493-.179 5.012-.886 7.32-1.667 5.176-3.36 10.457-5.158 15.85-.316.949-1.038 3.297.633 4.164.949.491 2.504.368 3.327-.77-1.225-.012-2.04-1.742-.938-2.825.841-.826 2.188-.785 2.903-.011 1.615 1.756-.261 4.734-1.928 5.794z"/>
  <path fill="#fff" d="M119.836 110.045c1.254-4.325 2.415-7.607 3.725-11.693 2.218-6.919 2.319-12.97-4.157-16.282-4.533-2.322-10.774-.677-13.051 3.908-1.775 3.316-1.009 8.15 2.795 9.665 3.922 1.563 7.405-2.754 5.764-5.568-1.366-2.344-4.83-.92-4.291 1.418-.104-.026-1.894-1.083-.733-3.554 2.237-4.763 11.708-3.044 9.672 5.415-.502 2.091-2.657 8.444-2.899 9.214-4.585-.975-9.776-.212-12.515 4.031-.923 1.377-1.604 3.047-1.522 4.811.112 3.19 2.784 4.92 5.828 4.812 2.315-.085 4.216-.744 5.909-1.95.797 2.129 3.223 3.495 5.813 2.494 1.296-.499 3.074-2.36 2.594-3.275-.443-.849-1.146.711-2.687-.142-1.246-.688-.424-2.687-.241-3.312zm-5.75 1.548c-1.195.42-2.114.696-3.692.446-2.177-.346-3.036-2.381-1.961-4.049 1.347-2.091 4.027-2.932 7.384-2.657-.309 1.009-1.221 4.392-1.731 6.26m16.639-34.183c.993-1.339-4.481-2.001-5.676 2.532-.952 3.624 2.215 7.617 6.345 7.647.253 0 .414-.29.265-.498-4.038-5.746-1.586-8.81-.938-9.68h.004Zm-6.22-34.62c.022-.238-.201-.431-.436-.394-.956.156-3.327.052-3.989-2.121-.678-2.218-.447-2.821-1.373-2.821-.853 0-1.24.882-3.733 3.085-1.842 1.626-3.212.904-3.8.413a.514.514 0 0 0-.722.074c-.934 1.117-.99 3.588 1.571 3.588 3.572 0 5.612-3.636 5.612-3.636s.294 4.116 3.706 4.12c2.084 0 3.082-1.396 3.171-2.308zM89.599 21.603c.022-.238-.201-.431-.436-.394-.956.156-3.327.052-3.99-2.122-.662-2.173-.446-2.82-1.373-2.82-.852 0-1.239.882-3.732 3.085-1.842 1.626-3.212.904-3.8.413a.514.514 0 0 0-.722.074c-.934 1.117-.99 3.588 1.57 3.588 3.573 0 5.613-3.636 5.613-3.636s.294 4.116 3.706 4.12c2.084 0 3.082-1.396 3.171-2.308z"/>
</svg>
