<svg xmlns="http://www.w3.org/2000/svg" width="26" height="33" fill="none" viewBox="0 0 26 33">
  <path fill="#fff" d="M13 .23a13.12 13.12 0 0 0-9.188 3.753A12.72 12.72 0 0 0 0 13.03c0 5.208 3.84 9.533 7.907 14.111 1.287 1.45 2.62 2.949 3.806 4.466a1.645 1.645 0 0 0 2.574 0c1.186-1.517 2.519-3.016 3.806-4.466C22.16 22.563 26 18.238 26 13.031a12.72 12.72 0 0 0-3.812-9.048A13.12 13.12 0 0 0 13 .23m0 17.6a4.93 4.93 0 0 1-2.708-.809 4.8 4.8 0 0 1-1.796-2.154 4.73 4.73 0 0 1-.277-2.773 4.8 4.8 0 0 1 1.334-2.458 4.9 4.9 0 0 1 2.496-1.314 4.95 4.95 0 0 1 2.817.273 4.86 4.86 0 0 1 2.187 1.768c.536.79.822 1.718.822 2.667a4.76 4.76 0 0 1-1.428 3.394A4.9 4.9 0 0 1 13 17.83"/>
</svg>
