<svg xmlns="http://www.w3.org/2000/svg" width="390" height="159" fill="none" viewBox="0 0 390 159">
  <mask id="a" width="390" height="171" x="0" y="0" maskUnits="userSpaceOnUse" style="mask-type:alpha">
    <path fill="#D9D9D9" d="M0 0h390v171H0z"/>
  </mask>
  <g mask="url(#a)">
    <mask id="b" width="570" height="193" x="67" y="-22" maskUnits="userSpaceOnUse" style="mask-type:luminance">
      <path fill="#fff" d="M67.441 168.19s79.95-146.84 241.92-89.23c0 0 65.53-146.46 327.09-86.26l-.05 177.37z"/>
    </mask>
    <g mask="url(#b)">
      <path fill="#FBEFB5" d="m186.053 1.42-6.69-6.69-6.689 6.69 6.689 6.69zm41.054.004-6.689-6.69-6.689 6.69 6.689 6.69zm41.063.004-6.69-6.69-6.689 6.69 6.689 6.689zm41.054-.007-6.689-6.689-6.689 6.69 6.689 6.689zm41.063.004-6.689-6.69-6.69 6.69 6.69 6.69zm41.066-.006-6.689-6.69-6.689 6.69 6.689 6.69zM165.521 21.95l-6.689-6.69-6.689 6.69 6.689 6.69zm41.063.004-6.689-6.69-6.69 6.69 6.69 6.689 6.689-6.69Zm41.054.004-6.689-6.69-6.689 6.69 6.689 6.689zm41.063-.007-6.689-6.689-6.69 6.69 6.69 6.689zm41.055.004-6.69-6.69-6.689 6.69 6.689 6.69zm41.062-.006-6.689-6.69-6.689 6.69 6.689 6.69zM186.049 42.484l-6.69-6.69-6.689 6.69 6.689 6.689zm41.066.004-6.689-6.69-6.689 6.69 6.689 6.689zm41.051-.007-6.689-6.689-6.69 6.69 6.69 6.689zm41.066.004-6.689-6.69-6.689 6.69 6.689 6.69zm41.051-.006-6.689-6.69-6.689 6.69 6.689 6.69zm41.066.004-6.689-6.69-6.689 6.69 6.689 6.689zM165.517 63.014l-6.689-6.69-6.689 6.69 6.689 6.689zm41.063.004-6.689-6.69-6.69 6.69 6.69 6.689 6.689-6.69Zm41.062-.007-6.689-6.689-6.689 6.69 6.689 6.689zm41.055.004-6.689-6.69-6.689 6.69 6.689 6.69zm41.063-.006-6.69-6.69-6.689 6.69 6.689 6.69zm41.054.004-6.689-6.69-6.689 6.69 6.689 6.689zM103.928 83.54l-6.69-6.69-6.689 6.69 6.69 6.69zm41.066.004-6.689-6.69-6.69 6.69 6.69 6.689zm41.051.004-6.69-6.69-6.689 6.69 6.689 6.689zm41.066-.007-6.689-6.689-6.689 6.69 6.689 6.689zm41.063.004-6.69-6.689-6.689 6.69 6.689 6.688zm41.054-.005-6.689-6.69-6.689 6.69 6.689 6.688zm41.063.003-6.689-6.69-6.69 6.69 6.69 6.689zm41.054.004-6.689-6.69-6.689 6.69 6.689 6.689zM83.396 104.07l-6.689-6.69-6.69 6.69 6.69 6.689 6.69-6.689Zm41.063.004-6.689-6.69-6.69 6.69 6.69 6.689zm41.062.004-6.689-6.69-6.689 6.69 6.689 6.689zm41.055-.007-6.689-6.689-6.69 6.689 6.69 6.69zm41.062.004-6.689-6.689-6.689 6.689 6.689 6.689zm41.067-.006-6.689-6.69-6.69 6.69 6.69 6.689zm41.051.004-6.69-6.69-6.689 6.69 6.689 6.689zm41.066.004-6.689-6.69-6.689 6.69 6.689 6.689zm-266.898 20.527-6.69-6.689-6.689 6.689 6.69 6.689zm41.066.004-6.689-6.69-6.689 6.69 6.689 6.689zm41.063-.007-6.69-6.689-6.689 6.689 6.689 6.69zm41.054.004-6.689-6.689-6.689 6.689 6.689 6.689zm41.063-.006-6.69-6.689-6.689 6.689 6.689 6.689zm41.062.004-6.689-6.689-6.689 6.689 6.689 6.689zm41.055.003-6.689-6.689-6.69 6.689 6.69 6.69zm41.062-.006-6.689-6.689-6.689 6.689 6.689 6.69zM83.4 145.134l-6.69-6.689-6.688 6.689 6.689 6.689zm41.055.003-6.689-6.689-6.69 6.689 6.69 6.69zm41.062-.006-6.689-6.689-6.689 6.689 6.689 6.69zm41.067.004-6.689-6.689-6.69 6.689 6.69 6.69zm41.051-.006-6.69-6.689-6.689 6.689 6.689 6.689zm41.066.004-6.689-6.689-6.69 6.689 6.69 6.689zm41.051.003-6.69-6.689-6.689 6.689 6.689 6.69zm41.066-.006-6.689-6.689-6.689 6.689 6.689 6.69zm-266.887 20.537-6.689-6.689-6.69 6.69 6.69 6.689zm41.055-.006-6.689-6.689-6.689 6.689 6.689 6.69zm41.063.004-6.69-6.689-6.689 6.689 6.689 6.689zm41.062-.006-6.689-6.689-6.689 6.689 6.689 6.689zm41.055.004-6.689-6.689-6.69 6.689 6.69 6.689zm41.062.004-6.689-6.69-6.689 6.69 6.689 6.689zm41.055-.007-6.689-6.689-6.689 6.689 6.689 6.69zm41.062.004-6.689-6.689-6.689 6.689 6.689 6.689z"/>
      <path fill="#E2BE40" d="M169.089-8.84h-20.53v20.53h20.53zm41.062 0h-20.53v20.53h20.53zm41.059 0h-20.53v20.53h20.53zm41.062 0h-20.53v20.53h20.53zm41.059 0h-20.53v20.53h20.53zm41.058 0h-20.53v20.53h20.53zM189.62 11.69h-20.53v20.53h20.53z"/>
      <path fill="#E2BE40" d="M230.678 11.69h-20.53v20.53h20.53zm41.063 0h-20.53v20.53h20.53zm41.058 0H292.27v20.53h20.529zm41.063 0h-20.53v20.53h20.53zm41.059 0h-20.53v20.53h20.53zM169.089 32.22h-20.53v20.53h20.53zm41.062 0h-20.53v20.53h20.53zm41.059 0h-20.53v20.53h20.53zm41.062 0h-20.53v20.53h20.53zm41.059 0h-20.53v20.53h20.53zm41.058 0h-20.53v20.53h20.53zM189.62 52.75h-20.53v20.53h20.53zm41.058 0h-20.53v20.53h20.53zm41.063 0h-20.53v20.53h20.53zm41.058 0H292.27v20.53h20.529zm41.063 0h-20.53v20.53h20.53zm41.059 0h-20.53v20.53h20.53zM86.971 73.28h-20.53v20.53h20.53zm41.059 0H107.5v20.53h20.53zm41.059 0h-20.53v20.53h20.53zm41.062 0h-20.53v20.53h20.53zm41.059 0h-20.53v20.53h20.53zm41.062 0h-20.53v20.53h20.53zm41.059 0h-20.53v20.53h20.53zm41.058 0h-20.53v20.53h20.53zm-266.89 20.53h-20.53v20.53h20.53zm41.062 0h-20.53v20.53h20.53zm41.059 0h-20.53v20.53h20.53zm41.058 0h-20.53v20.53h20.53zm41.063 0h-20.53v20.53h20.53zm41.058 0H292.27v20.53h20.529zm41.063 0h-20.53v20.53h20.53zm41.059 0h-20.53v20.53h20.53zm-307.95 20.53h-20.53v20.53h20.53zm41.059 0H107.5v20.53h20.53zm41.059 0h-20.53v20.53h20.53zm41.062 0h-20.53v20.53h20.53zm41.059 0h-20.53v20.53h20.53zm41.062 0h-20.53v20.53h20.53zm41.059 0h-20.53v20.53h20.53zm41.058 0h-20.53v20.53h20.53zm-266.89 20.53h-20.53v20.53h20.53zm41.062 0h-20.53v20.53h20.53zm41.059 0h-20.53v20.53h20.53zm41.058 0h-20.53v20.53h20.53zm41.063 0h-20.53v20.53h20.53zm41.058 0H292.27v20.53h20.529zm41.063 0h-20.53v20.53h20.53zm41.059 0h-20.53v20.53h20.53zM86.971 155.4h-20.53v20.53h20.53zm41.059 0H107.5v20.53h20.53zm41.059 0h-20.53v20.53h20.53zm41.062 0h-20.53v20.53h20.53zm41.059 0h-20.53v20.53h20.53zm41.062 0h-20.53v20.53h20.53zm41.059 0h-20.53v20.53h20.53zm41.058 0h-20.53v20.53h20.53z"/>
    </g>
    <path fill="#00E2F6" d="M-3.758 26.05s83.81-17.92 90.05 56.8c0 0 4.82-11.71 31.14 58.95 0 0 117.09 15.17 106 15.86-11.08.69-329.46 20.78-357.99 22.17-28.52 1.39-239.65-48.09-239.65-48.09-24.46-47.88 23.52-71.6 43.28-66.9 5.68-42.34 30.11 8.02 57.4 23.07 3.71-45.18 22.36-9.74 22.43-9.61-3.02-5.74 11.61-14.72 14.89-17.2 12.28-9.27 25.89-14.34 41.39-13.77 18.6.68 36.88 6.33 55.45 8.08 10.81 1.02 28.6 3.04 36.19-7.01 6.12-16.35.66-38.22-30.38-26.74-31.05 11.48-63.78-5.27-73.76-27.85-44.67 15.99-66.29-7.63-65.46-37.37.6-21.69-25.57-22.64-13.76-37.2 11.2-13.81 17.4-22.04 7.42-22.11-12.84-.1-5.56 3.45-15.67 11.36-13.81 10.81-22.24 28.14-41.83 28.87v-246.98s34.77-12.78 47.47 39.43c31.78-15.29 78.17 9.62 76.33 56.18 54.04-10.48 113.37 32.94 59.33 94-15.44 18.55-14.88 30.39-6.54 46.08 3.9 7.33 10.29 13.03 17.74 16.7 24.83 12.22 30.79 5.16 51.26 4.68 88.66-2.08 87.26 78.59 87.26 78.59z"/>
    <path fill="#1232C0" d="m291.039 151.641-49.809 10.874-115.554-2.803c-4.916-1.372-9.385-2.913-13.443-4.564-44.341-18.029-44.385-81.155.316-98.26 35.287-13.508 82.578 1.6 92.404 37.643 1.643 6.032 4.065 12.555 4.733 20.531 0 0 51.921-28.367 81.353 36.579"/>
    <path stroke="#507EF6" stroke-miterlimit="10" stroke-width="2.23" d="M275.418 166.47s-16.54-60.176-80.539-36.644c11.395-59.737-56.735-76.093-82.344-50.726-8.556 8.475-7.756 23.877-.205 32.601 10.074 11.645 45.09 14.463 50.637-3.646 2.319-7.58-2.81-14.434-9.509-17.574-9.173-4.307-19.585-1.35-26.519 5.635"/>
  </g>
</svg>
