<svg xmlns="http://www.w3.org/2000/svg" width="358" height="201" fill="none" viewBox="0 0 358 201" xmlns:xlink="http://www.w3.org/1999/xlink">
  <g clip-path="url(#a)">
    <rect width="358" height="201" fill="#00B250" rx="23.023"/>
    <g clip-path="url(#b)">
      <mask id="c" width="286" height="179" x="-52.003" y="17" fill="#000" maskUnits="userSpaceOnUse">
        <path fill="#fff" d="M-52.003 17h286v179h-286z"/>
        <path d="M144.645 54.066c-27.579 5.277-56.06 4.072-83.983 4.416-4.668.132-9.347.33-13.979.924-4 .55-8.141 1.302-11.526 3.636-5.115 3.604.845 6.467 4.3 7.67 1.646.583 3.338 1.044 5.04 1.445 2.951.657 8.714 1.898 10.183 4.824.777 1.716-.917 2.93-2.364 3.336-2.29.715-4.685.281-7.027.348-.69 0-5.123.041-4.232 1.056.808.86 2.033 1.082 2.916 1.886 2.032 1.92-1.384 2.969-2.863 3.238-2.31.461-4.673.542-7.015.57-1.164.025-2.331.08-3.479.234-1.75.254-4.037.81-1.325 2.422.502.31 1.032.51 1.56.789.785.437 1.545.987 2.056 1.747 1.8 2.943-3.18 4.184-5.186 4.647-2.294.507-4.632.768-6.966.982-15.049 1.504-30.394 2.537-45.193 5.76-1.703.403-3.395.849-5.041 1.437-1.086.391-2.168.836-3.13 1.476-3.047 2.163-2.716 4.666.594 6.514 7.814 4.123 22.127 3.833 30.988 3.442 13.472-.631 28.549-1.954 42.026-2.504 7.007-.211 14.093-.506 21.042.663 1.155.218 2.306.494 3.419.904 7.088 2.653 9.353 9.291 1.106 12.337-4.47 1.565-9.279 1.596-13.949 1.365-4.645-.369-9.336-.722-13.966-.05-1.706.266-3.447.602-4.963 1.447-.979.548-1.776 1.52-.65 2.508 2.579 2.114 8.38 2.503 11.694 2.698a86 86 0 0 0 7 .01c32.719-1.311 65.484-1.63 98.222-1.064 9.352.255 18.734.416 28.029 1.565 13.896 1.882 27.741 5.287 40.428 11.393 5.28 2.69 12.34 6.746 14.286 12.569 1.159 3.585-1.174 5.592-4.46 6.535-2.267.663-4.624.893-6.969 1.021-9.372.39-18.705-.817-28.024-1.59-5.178-.386-10.562-.986-15.619.49-3.021.948-3.713 2.878-.47 4.037.544.185 1.101.3 1.681.391 2.319.416 4.625 1.107 6.626 2.4.988.675 2.008 1.553 2.152 2.835.081.955-.499 1.86-1.242 2.404-1.261.824-2.787 1.086-4.222 1.354-6.963 1.028-14.031.826-21.044.752-11.695-.236-23.373-.91-35.058-1.407-3.503-.137-7.005-.266-10.509-.182-1.715.086-3.513.052-5.082.834-1.05.5-1.955 1.261-2.967 1.849-2.557 1.533-5.587 1.951-8.508 2.126-2.342.135-4.69.046-7.029-.034-21.02-.726-42.067-2.253-63.095-1.053-1.067.113-4.92.338-4.328 1.334.692.903 1.889 1.299 2.802 1.951 1.6 1.062 3.813 3.293 2.245 5.25-.609.702-1.519 1.055-2.388 1.262-2.031.48-4.1.182-6.154.266a57 57 0 0 0-7.826.764 44 44 0 0 0-3.42.702.174.174 0 0 1-.122-.326 52 52 0 0 1 5.244-2.309c2.228-.823 4.563-1.55 6.962-1.653.333-.034.832-.072 1.074-.226-.2-.326-.687-.528-1.016-.737-2.1-1.13-4.276-2.121-6.207-3.573-.787-.555-1.645-1.448-1.484-2.516.32-1.86 2.868-2.956 4.426-3.592 2.684-1.027 5.512-1.613 8.336-2.071 5.648-.889 11.378-1.104 17.077-1.368 16.608-.663 33.304-.918 49.92-1.038l.713-.002c2.417.115 3.614-1.596 5.425-2.863 3.225-2.271 7.412-2.191 11.163-1.827 3.777.488 7.535 1.023 11.329 1.349 15.145 1.385 30.357 2.047 45.563 2.12a26 26 0 0 1-2.604-.401c-1.723-.36-3.441-.83-5.004-1.676-3.242-1.701-3.015-4.581-.129-6.403 1.508-.955 3.204-1.514 4.903-1.99 1.699-.462 3.425-.803 5.155-1.091 3.464-.565 6.954-.931 10.45-1.229 2.604-.214 5.244-.531 7.667-1.548 2.898-1.241 3.929-3.362 1.299-5.923-1.258-1.215-2.782-2.117-4.332-2.904-4.721-2.317-9.856-3.663-15.002-4.635-24.25-3.814-48.936-3.315-73.413-3.725-27.158-.331-54.329-.403-81.471-1.438-2.963-.194-6.654-1.041-7.81-4.154-1.029-3.149 1.536-6.399 4.508-7.209.85-.267 1.76-.265 2.633-.3 7.528-.426 1.805-2.825-1.585-3.716-.841-.204-1.707-.321-2.575-.408-3.482-.321-6.994-.268-10.492-.247-8.756.103-17.535.324-26.287-.24-5.253-.312-10.538-1.041-15.48-2.949-1.64-.641-3.24-1.412-4.71-2.41-1.092-.756-2.15-1.635-2.873-2.775-.617-.991-.93-2.405.299-3.151 1.75-1.056 3.87-1.133 5.845-.967a17.5 17.5 0 0 1 2.62.441s-.106.341-.11.331c-3.42-1.32-13.192-5.546-10.1-9.981 4.72-6.077 34.251-5.928 42.885-6.766 6.88-.482 13.843-1.301 20.368-3.634 1.333-.508 6.023-2.375 4.48-4.377-2.549-2.777-14.112-4.368-16.067-7.392-.297-.464-.287-1.099-.05-1.598.85-1.716 3.878-1.858 5.55-1.966 3.98-.133 7.937.333 11.877.806 2.062.252 8.71.943 9.408-1.73.167-.932-.505-1.822-1.105-2.49-3.125-3.445-10.67-4.41-15.146-5.001-2.947-.346-5.91-.556-8.874-.686-3.97-.074-7.976-.636-11.707-2.055-4.2-1.543-8.45-4.895-2.488-8.159.879-.485 1.833-.843 2.791-1.11 3.848-1.05 7.823-1.403 11.777-1.745 31.618-2.034 63.453-.436 94.952-4.361 3.903-.55 7.849-1.144 11.583-2.428 3.962-1.416 6.234-3.456 2.272-7.016-7.578-7.118-36.692-7.651-47.636-8.073-2.466-.16-6.848.207-8.811-1.313-.425-.33-.73-.876-.702-1.428.022-.549.247-1.044.578-1.476l.095.283c-3.6-.82-8.866-2.998-10.695-6.372-1.03-2.047.423-3.554 2.46-4.262 2.295-.82 4.73-.953 7.136-1.128 5.995-.355 12.01-.16 18 .156 4.795.273 9.579.648 14.356 1.149a.175.175 0 0 1-.01.348c-2.495.127-4.989.296-7.48.497-3.735.31-7.467.675-11.164 1.282-1.228.208-2.456.44-3.656.761-.886.245-1.78.513-2.542 1.03-2.864 2.042 3.204 4.026 4.695 4.447 8.254 2.328 17.473 2.358 26.008 2.803 14.94.844 30.151 1.54 44.544 6 4.694 1.601 9.651 3.66 12.726 7.76l-.136-.071c1.62.067 3.228.224 4.83.442 3.2.45 6.396 1.131 9.387 2.402 1.326.615 3.605 1.529 3.816 2.988.082.937-.747 1.587-1.461 2.009-.717.415-1.484.706-2.26.953-4.669 1.378-9.6 1.546-14.432 1.399-1.617-.08-3.234-.146-4.835-.422-2.379-.465-4.815-1.226-6.708-2.815-1.07-.962-1.655-2.33-.269-3.312 3.088-2.16 11.206-2.475 14.178-.423 1.172.773 2.212 2.107.453 3.04-1.498.7-3.267.735-4.859.35a.173.173 0 0 1-.122-.214.173.173 0 0 1 .214-.123c1.134.295 2.362.297 3.511.055a4.5 4.5 0 0 0 1.096-.38c.332-.172.644-.422.729-.738.087-.314-.086-.665-.334-.948a5.1 5.1 0 0 0-1.919-1.296c-1.482-.57-3.101-.737-4.685-.77a21.7 21.7 0 0 0-4.763.451c-.779.168-1.551.386-2.274.701-.646.299-1.459.713-1.674 1.425-.177 1.49 1.782 2.626 2.94 3.2a17.5 17.5 0 0 0 4.548 1.453c1.574.272 3.192.337 4.789.416 4.794.146 9.69-.019 14.314-1.383 1.115-.377 2.274-.777 3.1-1.629.253-.276.42-.619.379-.962-.128-.732-.846-1.256-1.468-1.628-3.483-2.015-7.494-2.882-11.437-3.455a51 51 0 0 0-4.795-.438.17.17 0 0 1-.136-.072c-.724-1.003-1.605-1.888-2.573-2.664-9.24-7.163-27.881-8.945-39.46-10.012-7.181-.651-15.22-.922-22.463-1.296-4.999-.231-10.015-.584-14.935-1.572-2.46-.514-4.927-1.105-7.19-2.244-1.482-.723-3.314-2.292-1.265-3.714.797-.546 1.738-.827 2.65-1.08 1.218-.326 2.452-.561 3.688-.768 3.709-.609 7.451-.974 11.192-1.286 2.495-.202 4.99-.372 7.492-.499l-.01.348c-11.311-1.085-22.73-1.995-34.086-1.172-1.77.162-3.576.365-5.246.975-5.137 1.905-1.474 5.599 1.565 7.36 2.048 1.213 4.303 2.08 6.624 2.605.126.026.178.187.096.283-2.245 3.302 3.718 3.535 5.71 3.559 11.542.418 42.878.749 50.829 8.247 2.239 2.01 3.374 4.399.335 6.33-2.583 1.56-5.595 2.157-8.499 2.773-5.85 1.116-11.785 1.678-17.71 2.173-23.71 1.932-47.52 1.718-71.277 2.496-5.933.232-11.874.49-17.764 1.252-2.905.435-5.906.82-8.529 2.206-5.563 3.009-1.634 5.986 2.446 7.524 3.703 1.407 7.654 1.96 11.598 2.033 2.972.13 5.943.341 8.9.688 4.55.6 12.16 1.577 15.36 5.11.672.752 1.378 1.704 1.19 2.797-.741 2.983-7.434 2.29-9.791 2.008-3.918-.471-7.87-.936-11.82-.804-1.646.101-4.465.252-5.249 1.764-.177.396-.216.886.033 1.269.237.384.625.69 1.024.956.815.528 1.725.92 2.637 1.287 1.835.724 3.729 1.312 5.61 1.938.94.312 1.883.63 2.814.982.929.355 1.858.73 2.734 1.234.434.257.865.542 1.215.951 1.769 2.37-2.947 4.288-4.622 4.93C6.412 95.94-.586 96.766-7.495 97.25c-7.907.536-15.832.778-23.721 1.505-5.045.526-26.943 2.441-16.803 10.467 2.366 1.788 5.096 3.015 7.842 4.101a.176.176 0 0 1 .102.228.173.173 0 0 1-.206.104c-1.67-.408-3.436-.603-5.152-.447-.858.084-1.708.267-2.484.624l-.284.142-.276.159c-1.422.912-.326 2.769.596 3.695 5.19 5.125 14.98 6.564 22.01 6.99 10.495.71 21.012.191 31.524.271 1.754.029 3.51.083 5.262.256.874.089 1.75.207 2.612.416.905.252 6.357 1.773 5.395 3.281-.326.395-.78.503-1.231.633-.87.214-1.752.283-2.63.333-.874.036-1.735.027-2.573.289-2.835.77-5.31 3.864-4.333 6.868.733 2.11 2.952 3.176 4.997 3.624 1.705.397 3.464.389 5.204.48 33.275 1.105 66.574 1.104 99.861 1.592 14.014.276 28.046.645 42.001 2.069 6.967.743 13.963 1.757 20.608 4.077 3.48 1.236 9.566 3.701 10.712 7.184.784 3.002-3.104 4.279-5.338 4.828-3.429.802-6.966.795-10.439 1.279-3.467.43-6.943.963-10.311 1.904-2.165.652-5.42 1.651-6.57 3.766-.377.737-.433 1.658-.01 2.373.911 1.472 2.691 2.155 4.247 2.744 1.648.573 3.355.979 5.082 1.283-1.882.235-3.802.272-5.703.277-13.317-.14-26.628-.828-39.896-2.007-2.843-.267-5.684-.569-8.513-.967-2.8-.415-5.655-.746-8.472-.435-1.86.197-3.697.745-5.234 1.836-1.873 1.325-3.087 3.048-5.664 2.945-.385 0-1.716.008-2.138.012-14.228.122-28.551.35-42.779.812-7.586.323-15.212.441-22.73 1.574-1.873.295-3.736.664-5.561 1.162-1.803.511-3.629 1.104-5.212 2.121-.73.499-1.514 1.121-1.662 2.021-.061.418.079.845.34 1.203.26.364.606.657.988.942 1.508 1.133 3.197 2.01 4.888 2.881.637.333 1.285.652 1.893 1.048.16.106.32.226.452.379.085.085.169.277.117.421-.102.287-.436.35-.678.408-.247.05-.489.076-.73.095l-.71.048c-3.991.435-7.777 2.106-11.368 3.845l-.124-.324a44 44 0 0 1 3.453-.708 57 57 0 0 1 7.874-.77c.87-.003 1.779-.026 2.64.005 1.699.04 3.524-.005 5.017-.879 1.808-1.106 1.042-2.987-.206-4.181-.61-.607-1.328-1.111-2.074-1.543-.77-.465-1.635-.828-2.173-1.605-.464-.792.508-1.202 1.097-1.356 1.15-.307 2.325-.403 3.503-.504 22.212-1.28 44.435.526 66.637 1.154 2.9.02 5.84-.076 8.658-.816 1.116-.305 2.193-.734 3.187-1.33 1.01-.592 1.924-1.351 2.994-1.864 1.072-.533 2.287-.718 3.463-.778 1.756-.122 3.516-.123 5.274-.108 14.031.317 28.035 1.368 42.069 1.608 6.993.075 14.047.276 20.98-.747 1.413-.263 2.87-.515 4.08-1.296.649-.472 1.167-1.276 1.096-2.088-.133-1.139-1.093-1.958-1.998-2.575-1.946-1.259-4.225-1.941-6.493-2.347a10.3 10.3 0 0 1-1.733-.403c-2.161-.682-3.465-2.494-1.163-3.962 1.03-.629 2.19-.939 3.354-1.179 2.32-.447 4.679-.535 7.024-.502 10.185.061 37.861 5.052 44.953-.479.886-.704 1.461-1.769 1.435-2.917 0-.566-.113-1.132-.285-1.68-1.319-3.924-4.731-6.633-8.027-8.891-5.871-3.851-12.445-6.478-19.078-8.691-11.111-3.6-22.647-5.964-34.293-6.829-16.334-1.08-32.717-1.08-49.082-1.137-23.385.048-46.777.329-70.143 1.33-4.682.148-9.406.11-14.021-.814-1.713-.396-3.532-.816-4.922-1.985-1.255-1.14-.571-2.356.709-3.069 3.373-1.789 8.342-1.882 12.116-1.865 2.341.022 4.68.268 7.01.42 2.328.134 4.664.16 6.987-.015 3.417-.3 7.05-.852 9.86-2.949 3.408-2.667 2.055-6.293-1.084-8.453-1.899-1.352-4.145-2.088-6.424-2.494-6.914-1.162-13.98-.869-20.965-.658-8.175.313-19.747 1.152-28.01 1.688-9.34.549-18.695 1.358-28.056.885-5.129-.285-17.202-1.276-19.724-6.012-1.146-2.507 1.479-4.637 3.541-5.51 2.151-.962 4.44-1.558 6.722-2.107 13.667-2.998 27.84-4.06 41.747-5.44 2.124-.219 4.91-.423 6.974-.709 2.286-.327 4.63-.7 6.75-1.635 1.816-.811 2.818-2.104 1.12-3.713a6.5 6.5 0 0 0-1.387-.993c-.978-.502-3.204-1.371-2.98-2.588.436-1.471 5.051-1.45 6.382-1.518 2.328-.029 4.668-.106 6.952-.562.844-.19 3.513-.758 3.165-2.006-.48-1.054-1.801-1.347-2.698-1.962-.515-.312-1.404-1.041-.627-1.595.811-.476 1.752-.47 2.642-.564a32 32 0 0 1 1.762-.06c2.308-.07 4.69.365 6.926-.332.793-.256 1.604-.63 2.068-1.337.818-1.338-.617-2.64-1.669-3.316-1.96-1.24-4.24-1.906-6.483-2.446-3.317-.74-13.633-2.98-13.3-7.267.34-2.618 4.705-4.435 6.912-5.14 6.78-1.972 13.91-2.073 20.912-2.34 9.536-.294 21.975-.078 31.58-.12a315 315 0 0 0 24.523-.856c9.322-.717 18.626-1.788 27.829-3.436a.173.173 0 0 1 .201.14.173.173 0 0 1-.141.203z"/>
      </mask>
      <path fill="#67DB70" d="M144.645 54.066c-27.579 5.277-56.06 4.072-83.983 4.416-4.668.132-9.347.33-13.979.924-4 .55-8.141 1.302-11.526 3.636-5.115 3.604.845 6.467 4.3 7.67 1.646.583 3.338 1.044 5.04 1.445 2.951.657 8.714 1.898 10.183 4.824.777 1.716-.917 2.93-2.364 3.336-2.29.715-4.685.281-7.027.348-.69 0-5.123.041-4.232 1.056.808.86 2.033 1.082 2.916 1.886 2.032 1.92-1.384 2.969-2.863 3.238-2.31.461-4.673.542-7.015.57-1.164.025-2.331.08-3.479.234-1.75.254-4.037.81-1.325 2.422.502.31 1.032.51 1.56.789.785.437 1.545.987 2.056 1.747 1.8 2.943-3.18 4.184-5.186 4.647-2.294.507-4.632.768-6.966.982-15.049 1.504-30.394 2.537-45.193 5.76-1.703.403-3.395.849-5.041 1.437-1.086.391-2.168.836-3.13 1.476-3.047 2.163-2.716 4.666.594 6.514 7.814 4.123 22.127 3.833 30.988 3.442 13.472-.631 28.549-1.954 42.026-2.504 7.007-.211 14.093-.506 21.042.663 1.155.218 2.306.494 3.419.904 7.088 2.653 9.353 9.291 1.106 12.337-4.47 1.565-9.279 1.596-13.949 1.365-4.645-.369-9.336-.722-13.966-.05-1.706.266-3.447.602-4.963 1.447-.979.548-1.776 1.52-.65 2.508 2.579 2.114 8.38 2.503 11.694 2.698a86 86 0 0 0 7 .01c32.719-1.311 65.484-1.63 98.222-1.064 9.352.255 18.734.416 28.029 1.565 13.896 1.882 27.741 5.287 40.428 11.393 5.28 2.69 12.34 6.746 14.286 12.569 1.159 3.585-1.174 5.592-4.46 6.535-2.267.663-4.624.893-6.969 1.021-9.372.39-18.705-.817-28.024-1.59-5.178-.386-10.562-.986-15.619.49-3.021.948-3.713 2.878-.47 4.037.544.185 1.101.3 1.681.391 2.319.416 4.625 1.107 6.626 2.4.988.675 2.008 1.553 2.152 2.835.081.955-.499 1.86-1.242 2.404-1.261.824-2.787 1.086-4.222 1.354-6.963 1.028-14.031.826-21.044.752-11.695-.236-23.373-.91-35.058-1.407-3.503-.137-7.005-.266-10.509-.182-1.715.086-3.513.052-5.082.834-1.05.5-1.955 1.261-2.967 1.849-2.557 1.533-5.587 1.951-8.508 2.126-2.342.135-4.69.046-7.029-.034-21.02-.726-42.067-2.253-63.095-1.053-1.067.113-4.92.338-4.328 1.334.692.903 1.889 1.299 2.802 1.951 1.6 1.062 3.813 3.293 2.245 5.25-.609.702-1.519 1.055-2.388 1.262-2.031.48-4.1.182-6.154.266a57 57 0 0 0-7.826.764 44 44 0 0 0-3.42.702.174.174 0 0 1-.122-.326 52 52 0 0 1 5.244-2.309c2.228-.823 4.563-1.55 6.962-1.653.333-.034.832-.072 1.074-.226-.2-.326-.687-.528-1.016-.737-2.1-1.13-4.276-2.121-6.207-3.573-.787-.555-1.645-1.448-1.484-2.516.32-1.86 2.868-2.956 4.426-3.592 2.684-1.027 5.512-1.613 8.336-2.071 5.648-.889 11.378-1.104 17.077-1.368 16.608-.663 33.304-.918 49.92-1.038l.713-.002c2.417.115 3.614-1.596 5.425-2.863 3.225-2.271 7.412-2.191 11.163-1.827 3.777.488 7.535 1.023 11.329 1.349 15.145 1.385 30.357 2.047 45.563 2.12a26 26 0 0 1-2.604-.401c-1.723-.36-3.441-.83-5.004-1.676-3.242-1.701-3.015-4.581-.129-6.403 1.508-.955 3.204-1.514 4.903-1.99 1.699-.462 3.425-.803 5.155-1.091 3.464-.565 6.954-.931 10.45-1.229 2.604-.214 5.244-.531 7.667-1.548 2.898-1.241 3.929-3.362 1.299-5.923-1.258-1.215-2.782-2.117-4.332-2.904-4.721-2.317-9.856-3.663-15.002-4.635-24.25-3.814-48.936-3.315-73.413-3.725-27.158-.331-54.329-.403-81.471-1.438-2.963-.194-6.654-1.041-7.81-4.154-1.029-3.149 1.536-6.399 4.508-7.209.85-.267 1.76-.265 2.633-.3 7.528-.426 1.805-2.825-1.585-3.716-.841-.204-1.707-.321-2.575-.408-3.482-.321-6.994-.268-10.492-.247-8.756.103-17.535.324-26.287-.24-5.253-.312-10.538-1.041-15.48-2.949-1.64-.641-3.24-1.412-4.71-2.41-1.092-.756-2.15-1.635-2.873-2.775-.617-.991-.93-2.405.299-3.151 1.75-1.056 3.87-1.133 5.845-.967a17.5 17.5 0 0 1 2.62.441s-.106.341-.11.331c-3.42-1.32-13.192-5.546-10.1-9.981 4.72-6.077 34.251-5.928 42.885-6.766 6.88-.482 13.843-1.301 20.368-3.634 1.333-.508 6.023-2.375 4.48-4.377-2.549-2.777-14.112-4.368-16.067-7.392-.297-.464-.287-1.099-.05-1.598.85-1.716 3.878-1.858 5.55-1.966 3.98-.133 7.937.333 11.877.806 2.062.252 8.71.943 9.408-1.73.167-.932-.505-1.822-1.105-2.49-3.125-3.445-10.67-4.41-15.146-5.001-2.947-.346-5.91-.556-8.874-.686-3.97-.074-7.976-.636-11.707-2.055-4.2-1.543-8.45-4.895-2.488-8.159.879-.485 1.833-.843 2.791-1.11 3.848-1.05 7.823-1.403 11.777-1.745 31.618-2.034 63.453-.436 94.952-4.361 3.903-.55 7.849-1.144 11.583-2.428 3.962-1.416 6.234-3.456 2.272-7.016-7.578-7.118-36.692-7.651-47.636-8.073-2.466-.16-6.848.207-8.811-1.313-.425-.33-.73-.876-.702-1.428.022-.549.247-1.044.578-1.476l.095.283c-3.6-.82-8.866-2.998-10.695-6.372-1.03-2.047.423-3.554 2.46-4.262 2.295-.82 4.73-.953 7.136-1.128 5.995-.355 12.01-.16 18 .156 4.795.273 9.579.648 14.356 1.149a.175.175 0 0 1-.01.348c-2.495.127-4.989.296-7.48.497-3.735.31-7.467.675-11.164 1.282-1.228.208-2.456.44-3.656.761-.886.245-1.78.513-2.542 1.03-2.864 2.042 3.204 4.026 4.695 4.447 8.254 2.328 17.473 2.358 26.008 2.803 14.94.844 30.151 1.54 44.544 6 4.694 1.601 9.651 3.66 12.726 7.76l-.136-.071c1.62.067 3.228.224 4.83.442 3.2.45 6.396 1.131 9.387 2.402 1.326.615 3.605 1.529 3.816 2.988.082.937-.747 1.587-1.461 2.009-.717.415-1.484.706-2.26.953-4.669 1.378-9.6 1.546-14.432 1.399-1.617-.08-3.234-.146-4.835-.422-2.379-.465-4.815-1.226-6.708-2.815-1.07-.962-1.655-2.33-.269-3.312 3.088-2.16 11.206-2.475 14.178-.423 1.172.773 2.212 2.107.453 3.04-1.498.7-3.267.735-4.859.35a.173.173 0 0 1-.122-.214.173.173 0 0 1 .214-.123c1.134.295 2.362.297 3.511.055a4.5 4.5 0 0 0 1.096-.38c.332-.172.644-.422.729-.738.087-.314-.086-.665-.334-.948a5.1 5.1 0 0 0-1.919-1.296c-1.482-.57-3.101-.737-4.685-.77a21.7 21.7 0 0 0-4.763.451c-.779.168-1.551.386-2.274.701-.646.299-1.459.713-1.674 1.425-.177 1.49 1.782 2.626 2.94 3.2a17.5 17.5 0 0 0 4.548 1.453c1.574.272 3.192.337 4.789.416 4.794.146 9.69-.019 14.314-1.383 1.115-.377 2.274-.777 3.1-1.629.253-.276.42-.619.379-.962-.128-.732-.846-1.256-1.468-1.628-3.483-2.015-7.494-2.882-11.437-3.455a51 51 0 0 0-4.795-.438.17.17 0 0 1-.136-.072c-.724-1.003-1.605-1.888-2.573-2.664-9.24-7.163-27.881-8.945-39.46-10.012-7.181-.651-15.22-.922-22.463-1.296-4.999-.231-10.015-.584-14.935-1.572-2.46-.514-4.927-1.105-7.19-2.244-1.482-.723-3.314-2.292-1.265-3.714.797-.546 1.738-.827 2.65-1.08 1.218-.326 2.452-.561 3.688-.768 3.709-.609 7.451-.974 11.192-1.286 2.495-.202 4.99-.372 7.492-.499l-.01.348c-11.311-1.085-22.73-1.995-34.086-1.172-1.77.162-3.576.365-5.246.975-5.137 1.905-1.474 5.599 1.565 7.36 2.048 1.213 4.303 2.08 6.624 2.605.126.026.178.187.096.283-2.245 3.302 3.718 3.535 5.71 3.559 11.542.418 42.878.749 50.829 8.247 2.239 2.01 3.374 4.399.335 6.33-2.583 1.56-5.595 2.157-8.499 2.773-5.85 1.116-11.785 1.678-17.71 2.173-23.71 1.932-47.52 1.718-71.277 2.496-5.933.232-11.874.49-17.764 1.252-2.905.435-5.906.82-8.529 2.206-5.563 3.009-1.634 5.986 2.446 7.524 3.703 1.407 7.654 1.96 11.598 2.033 2.972.13 5.943.341 8.9.688 4.55.6 12.16 1.577 15.36 5.11.672.752 1.378 1.704 1.19 2.797-.741 2.983-7.434 2.29-9.791 2.008-3.918-.471-7.87-.936-11.82-.804-1.646.101-4.465.252-5.249 1.764-.177.396-.216.886.033 1.269.237.384.625.69 1.024.956.815.528 1.725.92 2.637 1.287 1.835.724 3.729 1.312 5.61 1.938.94.312 1.883.63 2.814.982.929.355 1.858.73 2.734 1.234.434.257.865.542 1.215.951 1.769 2.37-2.947 4.288-4.622 4.93C6.412 95.94-.586 96.766-7.495 97.25c-7.907.536-15.832.778-23.721 1.505-5.045.526-26.943 2.441-16.803 10.467 2.366 1.788 5.096 3.015 7.842 4.101a.176.176 0 0 1 .102.228.173.173 0 0 1-.206.104c-1.67-.408-3.436-.603-5.152-.447-.858.084-1.708.267-2.484.624l-.284.142-.276.159c-1.422.912-.326 2.769.596 3.695 5.19 5.125 14.98 6.564 22.01 6.99 10.495.71 21.012.191 31.524.271 1.754.029 3.51.083 5.262.256.874.089 1.75.207 2.612.416.905.252 6.357 1.773 5.395 3.281-.326.395-.78.503-1.231.633-.87.214-1.752.283-2.63.333-.874.036-1.735.027-2.573.289-2.835.77-5.31 3.864-4.333 6.868.733 2.11 2.952 3.176 4.997 3.624 1.705.397 3.464.389 5.204.48 33.275 1.105 66.574 1.104 99.861 1.592 14.014.276 28.046.645 42.001 2.069 6.967.743 13.963 1.757 20.608 4.077 3.48 1.236 9.566 3.701 10.712 7.184.784 3.002-3.104 4.279-5.338 4.828-3.429.802-6.966.795-10.439 1.279-3.467.43-6.943.963-10.311 1.904-2.165.652-5.42 1.651-6.57 3.766-.377.737-.433 1.658-.01 2.373.911 1.472 2.691 2.155 4.247 2.744 1.648.573 3.355.979 5.082 1.283-1.882.235-3.802.272-5.703.277-13.317-.14-26.628-.828-39.896-2.007-2.843-.267-5.684-.569-8.513-.967-2.8-.415-5.655-.746-8.472-.435-1.86.197-3.697.745-5.234 1.836-1.873 1.325-3.087 3.048-5.664 2.945-.385 0-1.716.008-2.138.012-14.228.122-28.551.35-42.779.812-7.586.323-15.212.441-22.73 1.574-1.873.295-3.736.664-5.561 1.162-1.803.511-3.629 1.104-5.212 2.121-.73.499-1.514 1.121-1.662 2.021-.061.418.079.845.34 1.203.26.364.606.657.988.942 1.508 1.133 3.197 2.01 4.888 2.881.637.333 1.285.652 1.893 1.048.16.106.32.226.452.379.085.085.169.277.117.421-.102.287-.436.35-.678.408-.247.05-.489.076-.73.095l-.71.048c-3.991.435-7.777 2.106-11.368 3.845l-.124-.324a44 44 0 0 1 3.453-.708 57 57 0 0 1 7.874-.77c.87-.003 1.779-.026 2.64.005 1.699.04 3.524-.005 5.017-.879 1.808-1.106 1.042-2.987-.206-4.181-.61-.607-1.328-1.111-2.074-1.543-.77-.465-1.635-.828-2.173-1.605-.464-.792.508-1.202 1.097-1.356 1.15-.307 2.325-.403 3.503-.504 22.212-1.28 44.435.526 66.637 1.154 2.9.02 5.84-.076 8.658-.816 1.116-.305 2.193-.734 3.187-1.33 1.01-.592 1.924-1.351 2.994-1.864 1.072-.533 2.287-.718 3.463-.778 1.756-.122 3.516-.123 5.274-.108 14.031.317 28.035 1.368 42.069 1.608 6.993.075 14.047.276 20.98-.747 1.413-.263 2.87-.515 4.08-1.296.649-.472 1.167-1.276 1.096-2.088-.133-1.139-1.093-1.958-1.998-2.575-1.946-1.259-4.225-1.941-6.493-2.347a10.3 10.3 0 0 1-1.733-.403c-2.161-.682-3.465-2.494-1.163-3.962 1.03-.629 2.19-.939 3.354-1.179 2.32-.447 4.679-.535 7.024-.502 10.185.061 37.861 5.052 44.953-.479.886-.704 1.461-1.769 1.435-2.917 0-.566-.113-1.132-.285-1.68-1.319-3.924-4.731-6.633-8.027-8.891-5.871-3.851-12.445-6.478-19.078-8.691-11.111-3.6-22.647-5.964-34.293-6.829-16.334-1.08-32.717-1.08-49.082-1.137-23.385.048-46.777.329-70.143 1.33-4.682.148-9.406.11-14.021-.814-1.713-.396-3.532-.816-4.922-1.985-1.255-1.14-.571-2.356.709-3.069 3.373-1.789 8.342-1.882 12.116-1.865 2.341.022 4.68.268 7.01.42 2.328.134 4.664.16 6.987-.015 3.417-.3 7.05-.852 9.86-2.949 3.408-2.667 2.055-6.293-1.084-8.453-1.899-1.352-4.145-2.088-6.424-2.494-6.914-1.162-13.98-.869-20.965-.658-8.175.313-19.747 1.152-28.01 1.688-9.34.549-18.695 1.358-28.056.885-5.129-.285-17.202-1.276-19.724-6.012-1.146-2.507 1.479-4.637 3.541-5.51 2.151-.962 4.44-1.558 6.722-2.107 13.667-2.998 27.84-4.06 41.747-5.44 2.124-.219 4.91-.423 6.974-.709 2.286-.327 4.63-.7 6.75-1.635 1.816-.811 2.818-2.104 1.12-3.713a6.5 6.5 0 0 0-1.387-.993c-.978-.502-3.204-1.371-2.98-2.588.436-1.471 5.051-1.45 6.382-1.518 2.328-.029 4.668-.106 6.952-.562.844-.19 3.513-.758 3.165-2.006-.48-1.054-1.801-1.347-2.698-1.962-.515-.312-1.404-1.041-.627-1.595.811-.476 1.752-.47 2.642-.564a32 32 0 0 1 1.762-.06c2.308-.07 4.69.365 6.926-.332.793-.256 1.604-.63 2.068-1.337.818-1.338-.617-2.64-1.669-3.316-1.96-1.24-4.24-1.906-6.483-2.446-3.317-.74-13.633-2.98-13.3-7.267.34-2.618 4.705-4.435 6.912-5.14 6.78-1.972 13.91-2.073 20.912-2.34 9.536-.294 21.975-.078 31.58-.12a315 315 0 0 0 24.523-.856c9.322-.717 18.626-1.788 27.829-3.436a.173.173 0 0 1 .201.14.173.173 0 0 1-.141.203z"/>
      <path stroke="#00D264" stroke-width=".4" d="M144.645 54.066c-27.579 5.277-56.06 4.072-83.983 4.416-4.668.132-9.347.33-13.979.924-4 .55-8.141 1.302-11.526 3.636-5.115 3.604.845 6.467 4.3 7.67 1.646.583 3.338 1.044 5.04 1.445 2.951.657 8.714 1.898 10.183 4.824.777 1.716-.917 2.93-2.364 3.336-2.29.715-4.685.281-7.027.348-.69 0-5.123.041-4.232 1.056.808.86 2.033 1.082 2.916 1.886 2.032 1.92-1.384 2.969-2.863 3.238-2.31.461-4.673.542-7.015.57-1.164.025-2.331.08-3.479.234-1.75.254-4.037.81-1.325 2.422.502.31 1.032.51 1.56.789.785.437 1.545.987 2.056 1.747 1.8 2.943-3.18 4.184-5.186 4.647-2.294.507-4.632.768-6.966.982-15.049 1.504-30.394 2.537-45.193 5.76-1.703.403-3.395.849-5.041 1.437-1.086.391-2.168.836-3.13 1.476-3.047 2.163-2.716 4.666.594 6.514 7.814 4.123 22.127 3.833 30.988 3.442 13.472-.631 28.549-1.954 42.026-2.504 7.007-.211 14.093-.506 21.042.663 1.155.218 2.306.494 3.419.904 7.088 2.653 9.353 9.291 1.106 12.337-4.47 1.565-9.279 1.596-13.949 1.365-4.645-.369-9.336-.722-13.966-.05-1.706.266-3.447.602-4.963 1.447-.979.548-1.776 1.52-.65 2.508 2.579 2.114 8.38 2.503 11.694 2.698a86 86 0 0 0 7 .01c32.719-1.311 65.484-1.63 98.222-1.064 9.352.255 18.734.416 28.029 1.565 13.896 1.882 27.741 5.287 40.428 11.393 5.28 2.69 12.34 6.746 14.286 12.569 1.159 3.585-1.174 5.592-4.46 6.535-2.267.663-4.624.893-6.969 1.021-9.372.39-18.705-.817-28.024-1.59-5.178-.386-10.562-.986-15.619.49-3.021.948-3.713 2.878-.47 4.037.544.185 1.101.3 1.681.391 2.319.416 4.625 1.107 6.626 2.4.988.675 2.008 1.553 2.152 2.835.081.955-.499 1.86-1.242 2.404-1.261.824-2.787 1.086-4.222 1.354-6.963 1.028-14.031.826-21.044.752-11.695-.236-23.373-.91-35.058-1.407-3.503-.137-7.005-.266-10.509-.182-1.715.086-3.513.052-5.082.834-1.05.5-1.955 1.261-2.967 1.849-2.557 1.533-5.587 1.951-8.508 2.126-2.342.135-4.69.046-7.029-.034-21.02-.726-42.067-2.253-63.095-1.053-1.067.113-4.92.338-4.328 1.334.692.903 1.889 1.299 2.802 1.951 1.6 1.062 3.813 3.293 2.245 5.25-.609.702-1.519 1.055-2.388 1.262-2.031.48-4.1.182-6.154.266a57 57 0 0 0-7.826.764 44 44 0 0 0-3.42.702.174.174 0 0 1-.122-.326 52 52 0 0 1 5.244-2.309c2.228-.823 4.563-1.55 6.962-1.653.333-.034.832-.072 1.074-.226-.2-.326-.687-.528-1.016-.737-2.1-1.13-4.276-2.121-6.207-3.573-.787-.555-1.645-1.448-1.484-2.516.32-1.86 2.868-2.956 4.426-3.592 2.684-1.027 5.512-1.613 8.336-2.071 5.648-.889 11.378-1.104 17.077-1.368 16.608-.663 33.304-.918 49.92-1.038l.713-.002c2.417.115 3.614-1.596 5.425-2.863 3.225-2.271 7.412-2.191 11.163-1.827 3.777.488 7.535 1.023 11.329 1.349 15.145 1.385 30.357 2.047 45.563 2.12a26 26 0 0 1-2.604-.401c-1.723-.36-3.441-.83-5.004-1.676-3.242-1.701-3.015-4.581-.129-6.403 1.508-.955 3.204-1.514 4.903-1.99 1.699-.462 3.425-.803 5.155-1.091 3.464-.565 6.954-.931 10.45-1.229 2.604-.214 5.244-.531 7.667-1.548 2.898-1.241 3.929-3.362 1.299-5.923-1.258-1.215-2.782-2.117-4.332-2.904-4.721-2.317-9.856-3.663-15.002-4.635-24.25-3.814-48.936-3.315-73.413-3.725-27.158-.331-54.329-.403-81.471-1.438-2.963-.194-6.654-1.041-7.81-4.154-1.029-3.149 1.536-6.399 4.508-7.209.85-.267 1.76-.265 2.633-.3 7.528-.426 1.805-2.825-1.585-3.716-.841-.204-1.707-.321-2.575-.408-3.482-.321-6.994-.268-10.492-.247-8.756.103-17.535.324-26.287-.24-5.253-.312-10.538-1.041-15.48-2.949-1.64-.641-3.24-1.412-4.71-2.41-1.092-.756-2.15-1.635-2.873-2.775-.617-.991-.93-2.405.299-3.151 1.75-1.056 3.87-1.133 5.845-.967a17.5 17.5 0 0 1 2.62.441s-.106.341-.11.331c-3.42-1.32-13.192-5.546-10.1-9.981 4.72-6.077 34.251-5.928 42.885-6.766 6.88-.482 13.843-1.301 20.368-3.634 1.333-.508 6.023-2.375 4.48-4.377-2.549-2.777-14.112-4.368-16.067-7.392-.297-.464-.287-1.099-.05-1.598.85-1.716 3.878-1.858 5.55-1.966 3.98-.133 7.937.333 11.877.806 2.062.252 8.71.943 9.408-1.73.167-.932-.505-1.822-1.105-2.49-3.125-3.445-10.67-4.41-15.146-5.001-2.947-.346-5.91-.556-8.874-.686-3.97-.074-7.976-.636-11.707-2.055-4.2-1.543-8.45-4.895-2.488-8.159.879-.485 1.833-.843 2.791-1.11 3.848-1.05 7.823-1.403 11.777-1.745 31.618-2.034 63.453-.436 94.952-4.361 3.903-.55 7.849-1.144 11.583-2.428 3.962-1.416 6.234-3.456 2.272-7.016-7.578-7.118-36.692-7.651-47.636-8.073-2.466-.16-6.848.207-8.811-1.313-.425-.33-.73-.876-.702-1.428.022-.549.247-1.044.578-1.476l.095.283c-3.6-.82-8.866-2.998-10.695-6.372-1.03-2.047.423-3.554 2.46-4.262 2.295-.82 4.73-.953 7.136-1.128 5.995-.355 12.01-.16 18 .156 4.795.273 9.579.648 14.356 1.149a.175.175 0 0 1-.01.348c-2.495.127-4.989.296-7.48.497-3.735.31-7.467.675-11.164 1.282-1.228.208-2.456.44-3.656.761-.886.245-1.78.513-2.542 1.03-2.864 2.042 3.204 4.026 4.695 4.447 8.254 2.328 17.473 2.358 26.008 2.803 14.94.844 30.151 1.54 44.544 6 4.694 1.601 9.651 3.66 12.726 7.76l-.136-.071c1.62.067 3.228.224 4.83.442 3.2.45 6.396 1.131 9.387 2.402 1.326.615 3.605 1.529 3.816 2.988.082.937-.747 1.587-1.461 2.009-.717.415-1.484.706-2.26.953-4.669 1.378-9.6 1.546-14.432 1.399-1.617-.08-3.234-.146-4.835-.422-2.379-.465-4.815-1.226-6.708-2.815-1.07-.962-1.655-2.33-.269-3.312 3.088-2.16 11.206-2.475 14.178-.423 1.172.773 2.212 2.107.453 3.04-1.498.7-3.267.735-4.859.35a.173.173 0 0 1-.122-.214.173.173 0 0 1 .214-.123c1.134.295 2.362.297 3.511.055a4.5 4.5 0 0 0 1.096-.38c.332-.172.644-.422.729-.738.087-.314-.086-.665-.334-.948a5.1 5.1 0 0 0-1.919-1.296c-1.482-.57-3.101-.737-4.685-.77a21.7 21.7 0 0 0-4.763.451c-.779.168-1.551.386-2.274.701-.646.299-1.459.713-1.674 1.425-.177 1.49 1.782 2.626 2.94 3.2a17.5 17.5 0 0 0 4.548 1.453c1.574.272 3.192.337 4.789.416 4.794.146 9.69-.019 14.314-1.383 1.115-.377 2.274-.777 3.1-1.629.253-.276.42-.619.379-.962-.128-.732-.846-1.256-1.468-1.628-3.483-2.015-7.494-2.882-11.437-3.455a51 51 0 0 0-4.795-.438.17.17 0 0 1-.136-.072c-.724-1.003-1.605-1.888-2.573-2.664-9.24-7.163-27.881-8.945-39.46-10.012-7.181-.651-15.22-.922-22.463-1.296-4.999-.231-10.015-.584-14.935-1.572-2.46-.514-4.927-1.105-7.19-2.244-1.482-.723-3.314-2.292-1.265-3.714.797-.546 1.738-.827 2.65-1.08 1.218-.326 2.452-.561 3.688-.768 3.709-.609 7.451-.974 11.192-1.286 2.495-.202 4.99-.372 7.492-.499l-.01.348c-11.311-1.085-22.73-1.995-34.086-1.172-1.77.162-3.576.365-5.246.975-5.137 1.905-1.474 5.599 1.565 7.36 2.048 1.213 4.303 2.08 6.624 2.605.126.026.178.187.096.283-2.245 3.302 3.718 3.535 5.71 3.559 11.542.418 42.878.749 50.829 8.247 2.239 2.01 3.374 4.399.335 6.33-2.583 1.56-5.595 2.157-8.499 2.773-5.85 1.116-11.785 1.678-17.71 2.173-23.71 1.932-47.52 1.718-71.277 2.496-5.933.232-11.874.49-17.764 1.252-2.905.435-5.906.82-8.529 2.206-5.563 3.009-1.634 5.986 2.446 7.524 3.703 1.407 7.654 1.96 11.598 2.033 2.972.13 5.943.341 8.9.688 4.55.6 12.16 1.577 15.36 5.11.672.752 1.378 1.704 1.19 2.797-.741 2.983-7.434 2.29-9.791 2.008-3.918-.471-7.87-.936-11.82-.804-1.646.101-4.465.252-5.249 1.764-.177.396-.216.886.033 1.269.237.384.625.69 1.024.956.815.528 1.725.92 2.637 1.287 1.835.724 3.729 1.312 5.61 1.938.94.312 1.883.63 2.814.982.929.355 1.858.73 2.734 1.234.434.257.865.542 1.215.951 1.769 2.37-2.947 4.288-4.622 4.93C6.412 95.94-.586 96.766-7.495 97.25c-7.907.536-15.832.778-23.721 1.505-5.045.526-26.943 2.441-16.803 10.467 2.366 1.788 5.096 3.015 7.842 4.101a.176.176 0 0 1 .102.228.173.173 0 0 1-.206.104c-1.67-.408-3.436-.603-5.152-.447-.858.084-1.708.267-2.484.624l-.284.142-.276.159c-1.422.912-.326 2.769.596 3.695 5.19 5.125 14.98 6.564 22.01 6.99 10.495.71 21.012.191 31.524.271 1.754.029 3.51.083 5.262.256.874.089 1.75.207 2.612.416.905.252 6.357 1.773 5.395 3.281-.326.395-.78.503-1.231.633-.87.214-1.752.283-2.63.333-.874.036-1.735.027-2.573.289-2.835.77-5.31 3.864-4.333 6.868.733 2.11 2.952 3.176 4.997 3.624 1.705.397 3.464.389 5.204.48 33.275 1.105 66.574 1.104 99.861 1.592 14.014.276 28.046.645 42.001 2.069 6.967.743 13.963 1.757 20.608 4.077 3.48 1.236 9.566 3.701 10.712 7.184.784 3.002-3.104 4.279-5.338 4.828-3.429.802-6.966.795-10.439 1.279-3.467.43-6.943.963-10.311 1.904-2.165.652-5.42 1.651-6.57 3.766-.377.737-.433 1.658-.01 2.373.911 1.472 2.691 2.155 4.247 2.744 1.648.573 3.355.979 5.082 1.283-1.882.235-3.802.272-5.703.277-13.317-.14-26.628-.828-39.896-2.007-2.843-.267-5.684-.569-8.513-.967-2.8-.415-5.655-.746-8.472-.435-1.86.197-3.697.745-5.234 1.836-1.873 1.325-3.087 3.048-5.664 2.945-.385 0-1.716.008-2.138.012-14.228.122-28.551.35-42.779.812-7.586.323-15.212.441-22.73 1.574-1.873.295-3.736.664-5.561 1.162-1.803.511-3.629 1.104-5.212 2.121-.73.499-1.514 1.121-1.662 2.021-.061.418.079.845.34 1.203.26.364.606.657.988.942 1.508 1.133 3.197 2.01 4.888 2.881.637.333 1.285.652 1.893 1.048.16.106.32.226.452.379.085.085.169.277.117.421-.102.287-.436.35-.678.408-.247.05-.489.076-.73.095l-.71.048c-3.991.435-7.777 2.106-11.368 3.845l-.124-.324a44 44 0 0 1 3.453-.708 57 57 0 0 1 7.874-.77c.87-.003 1.779-.026 2.64.005 1.699.04 3.524-.005 5.017-.879 1.808-1.106 1.042-2.987-.206-4.181-.61-.607-1.328-1.111-2.074-1.543-.77-.465-1.635-.828-2.173-1.605-.464-.792.508-1.202 1.097-1.356 1.15-.307 2.325-.403 3.503-.504 22.212-1.28 44.435.526 66.637 1.154 2.9.02 5.84-.076 8.658-.816 1.116-.305 2.193-.734 3.187-1.33 1.01-.592 1.924-1.351 2.994-1.864 1.072-.533 2.287-.718 3.463-.778 1.756-.122 3.516-.123 5.274-.108 14.031.317 28.035 1.368 42.069 1.608 6.993.075 14.047.276 20.98-.747 1.413-.263 2.87-.515 4.08-1.296.649-.472 1.167-1.276 1.096-2.088-.133-1.139-1.093-1.958-1.998-2.575-1.946-1.259-4.225-1.941-6.493-2.347a10.3 10.3 0 0 1-1.733-.403c-2.161-.682-3.465-2.494-1.163-3.962 1.03-.629 2.19-.939 3.354-1.179 2.32-.447 4.679-.535 7.024-.502 10.185.061 37.861 5.052 44.953-.479.886-.704 1.461-1.769 1.435-2.917 0-.566-.113-1.132-.285-1.68-1.319-3.924-4.731-6.633-8.027-8.891-5.871-3.851-12.445-6.478-19.078-8.691-11.111-3.6-22.647-5.964-34.293-6.829-16.334-1.08-32.717-1.08-49.082-1.137-23.385.048-46.777.329-70.143 1.33-4.682.148-9.406.11-14.021-.814-1.713-.396-3.532-.816-4.922-1.985-1.255-1.14-.571-2.356.709-3.069 3.373-1.789 8.342-1.882 12.116-1.865 2.341.022 4.68.268 7.01.42 2.328.134 4.664.16 6.987-.015 3.417-.3 7.05-.852 9.86-2.949 3.408-2.667 2.055-6.293-1.084-8.453-1.899-1.352-4.145-2.088-6.424-2.494-6.914-1.162-13.98-.869-20.965-.658-8.175.313-19.747 1.152-28.01 1.688-9.34.549-18.695 1.358-28.056.885-5.129-.285-17.202-1.276-19.724-6.012-1.146-2.507 1.479-4.637 3.541-5.51 2.151-.962 4.44-1.558 6.722-2.107 13.667-2.998 27.84-4.06 41.747-5.44 2.124-.219 4.91-.423 6.974-.709 2.286-.327 4.63-.7 6.75-1.635 1.816-.811 2.818-2.104 1.12-3.713a6.5 6.5 0 0 0-1.387-.993c-.978-.502-3.204-1.371-2.98-2.588.436-1.471 5.051-1.45 6.382-1.518 2.328-.029 4.668-.106 6.952-.562.844-.19 3.513-.758 3.165-2.006-.48-1.054-1.801-1.347-2.698-1.962-.515-.312-1.404-1.041-.627-1.595.811-.476 1.752-.47 2.642-.564a32 32 0 0 1 1.762-.06c2.308-.07 4.69.365 6.926-.332.793-.256 1.604-.63 2.068-1.337.818-1.338-.617-2.64-1.669-3.316-1.96-1.24-4.24-1.906-6.483-2.446-3.317-.74-13.633-2.98-13.3-7.267.34-2.618 4.705-4.435 6.912-5.14 6.78-1.972 13.91-2.073 20.912-2.34 9.536-.294 21.975-.078 31.58-.12a315 315 0 0 0 24.523-.856c9.322-.717 18.626-1.788 27.829-3.436a.173.173 0 0 1 .201.14.173.173 0 0 1-.141.203z" mask="url(#c)"/>
      <path fill="#67DB70" stroke="#00D264" stroke-width=".2" d="M28.08 74.829c.297.761.346 1.582-.02 2.357a.12.12 0 0 0-.01.09.12.12 0 0 0 .132.083.11.11 0 0 0 .083-.059c.612-1.07.397-2.429-.215-3.43-.878-1.41-2.33-2.487-3.93-3.32-1.603-.833-3.364-1.426-4.871-1.863h-.001c-2.847-.795-5.915-1.46-8.925-2.112-1.49-.323-2.967-.643-4.395-.975l-.913-.212C3.1 64.946 1.192 64.504-.661 63.9a12 12 0 0 1-1.55-.618h-.001c-.487-.23-.897-.537-1.142-1l-.002-.003c-.29-.498-.395-.955-.36-1.376.035-.422.21-.816.498-1.184.58-.74 1.605-1.367 2.801-1.883 2.39-1.03 5.41-1.598 6.728-1.781h.003c.715-.122 1.447-.203 2.175-.284.41-.046.82-.09 1.223-.143l-.016-.2c-3.793.138-8.296.721-11.697 2.588h-.001c-.951.536-1.742 1.255-2.098 2.103-.359.855-.267 1.825.517 2.832l.001.002c.26.321.677.6 1.17.845.495.246 1.074.461 1.67.65.887.281 1.818.506 2.557.684q.377.09.676.166h.002c1.603.367 3.312.707 5.02 1.046l.199.039c1.642.325 3.279.649 4.818.995l.351.083c2.115.501 4.657 1.104 7.086 1.924 2.567.867 4.997 1.973 6.661 3.452l.002.001c.61.524 1.154 1.225 1.45 1.99Zm.15 2.463-.053-.038v-.002l.005.003.052.03zm-.016-.022.022.01v.001zm4.014 54.937.12.24.04-.215a.12.12 0 0 0 .05-.081c.286-1.345 1.447-2.315 2.587-3.038 3.701-2.196 8.851-2.695 13.114-2.882a76 76 0 0 1 5.232-.026l.003-.1-.003.1.561.018c1.213.042 2.482.085 3.678-.153 1.198-.195 2.354-.725 2.984-1.529.317-.404.5-.878.486-1.41s-.226-1.109-.682-1.724l-.004-.005c-1.664-1.971-4.502-3.004-7.499-3.509-3-.507-6.18-.488-8.553-.341q-3.326.177-6.65.362c-3.374.187-6.748.373-10.123.54l.005.089-.005-.089-1.455.072c-10.696.531-21.396 1.061-32.1 1.184h-.001c-6.989.11-14.002-.165-20.734-2.144-1.995-.587-3.985-1.306-5.649-2.558v-.001c-1.745-1.281-2.638-3.205-2.366-5.373v-.001l-.033-.004v-.004.004l-.066-.008m67.063 22.586-67.196-22.597v-.007l.034.005v-.004.004l.006.001.06.008m67.096 22.59a.12.12 0 0 1-.025-.073l.036-.008zm-67.062-22.586v-.001c.002-.019-.03-.024-.034-.005v.002m.034.004v.001l-.01.08a.085.085 0 0 0 .074-.071l-.01-.001zm-.035-.004-.065-.005a.1.1 0 0 0 .024.066q.015.015.03.02zm42.991 24.835c-.388 1.928-.514 4.041.425 5.795v.001c.926 1.764 2.715 2.834 4.531 3.56 1.842.742 3.785 1.195 5.736 1.57 12.719 2.043 25.682 2.229 38.588 2.413 3.075.044 6.146.088 9.21.157l-.002.1zm0 0a.11.11 0 0 0-.023-.096.12.12 0 0 0-.149-.031.11.11 0 0 0-.058.08m.23.047-.23-.047m0 0c-.415 1.953-.58 4.133.38 5.987zm171.899 23.769c.359-.69.328-1.317-.001-1.895-.333-.586-.977-1.13-1.86-1.632-1.764-1.004-4.44-1.814-7.331-2.456-5.593-1.244-11.952-1.854-13.959-2.046l-.181-.017-.001-.001c-19.926-1.487-39.902-1.575-59.888-1.549l-5.325.009c-18.21.033-36.426.067-54.61-.873-5.982-.391-11.989-.823-17.896-1.928l-.002-.001c-1.79-.379-3.947-.843-5.883-1.652s-3.663-1.967-4.581-3.741zm0 0c-.599 1.157-1.828 2.065-3.235 2.768m3.235-2.768-3.235 2.768m0 0c-1.384.691-2.925 1.177-4.17 1.504zm6.81 12.196v-.35l.181.252.004.005c.387.441.729 1.026.849 1.625.123.607.017 1.234-.509 1.725-.404.401-.932.638-1.441.819l-.004.001c-1.664.528-3.428.579-5.142.562h-.001c-11.187-.238-22.549-.923-33.852-1.604-5.857-.353-11.698-.705-17.49-.993h-.001a359 359 0 0 0-10.267-.406l-.365-.007c-2.436-.048-4.902-.096-7.225.623l-.002.001c-.822.234-1.528.683-2.233 1.168q-.144.098-.286.198c-.608.422-1.227.853-1.919 1.159m79.703-4.778-79.703 4.778m79.703-4.778.025.028.003.004m-.028-.032.028.032m-79.731 4.746c-1.206.547-2.513.76-3.8.903h-.001c-2.147.203-4.308.144-6.451.047-1.326-.053-4.25-.194-6.283-.292l-1.421-.068c-14.957-.717-29.96-1.408-44.933-1.048-3.778.136-7.765.321-11.528.721l-.002.001c-1.232.1-2.51.288-3.748.47q-.68.1-1.338.192m79.505-.926-79.505.926m159.236-5.672c.753 1.053.905 1.828.708 2.399-.198.575-.764.983-1.541 1.266-1.551.566-3.842.597-5.251.557-9.234-.33-18.728-.839-28.225-1.357l-1.488-.081c-9.001-.492-17.993-.982-26.757-1.327a294 294 0 0 0-5.14-.192h-.001q-.4-.006-.809-.016c-1.434-.03-2.929-.062-4.38.096-1.729.189-3.404.648-4.857 1.704l-.13.093c-.66.467-1.302.921-2.025 1.227l-.002.001c-.761.343-1.584.538-2.417.68-2.523.397-5.091.287-7.647.16-1.684-.084-5.94-.307-7.698-.402-17.068-.86-34.316-1.723-51.395-.586h-.001l-2.565.194h-.004l-2.556.287c-.72.07-1.864.214-2.555.336l-2.539.401m159.275-5.44-159.275 5.44m0 0a.12.12 0 0 0-.083.058.12.12 0 0 0 .03.151c.026.021.06.029.092.023m-.039-.232.039.232m-.008-.034Z"/>
    </g>
    <g clip-path="url(#d)">
      <mask id="e" width="286" height="179" x="227.997" y="-51" fill="#000" maskUnits="userSpaceOnUse">
        <path fill="#fff" d="M227.997-51h286v179h-286z"/>
        <path d="M424.645-13.933c-27.579 5.276-56.06 4.07-83.983 4.415-4.668.132-9.347.33-13.979.924-4 .55-8.142 1.302-11.526 3.636-5.115 3.604.845 6.467 4.3 7.67 1.646.583 3.338 1.044 5.039 1.445 2.952.657 8.715 1.898 10.184 4.824.777 1.716-.917 2.93-2.364 3.336-2.291.715-4.685.281-7.027.348-.69 0-5.123.041-4.232 1.056.808.86 2.033 1.082 2.916 1.886 2.032 1.92-1.384 2.969-2.863 3.238-2.309.461-4.673.542-7.015.57-1.164.025-2.332.08-3.479.234-1.75.254-4.037.81-1.326 2.422.503.31 1.033.51 1.562.789.784.437 1.544.987 2.055 1.747 1.8 2.943-3.18 4.184-5.186 4.647-2.294.508-4.633.768-6.966.982-15.049 1.504-30.394 2.537-45.193 5.76-1.703.403-3.395.849-5.041 1.437-1.086.39-2.168.836-3.129 1.476-3.048 2.163-2.717 4.666.593 6.514 7.814 4.123 22.127 3.833 30.987 3.442 13.473-.63 28.549-1.954 42.027-2.504 7.007-.211 14.093-.506 21.042.663 1.155.218 2.306.494 3.418.904 7.089 2.653 9.354 9.291 1.107 12.337-4.471 1.565-9.279 1.596-13.949 1.365-4.646-.369-9.336-.722-13.966-.05-1.706.266-3.447.602-4.963 1.447-.979.548-1.776 1.52-.65 2.508 2.579 2.114 8.38 2.503 11.694 2.698a86 86 0 0 0 6.999.01c32.72-1.311 65.485-1.63 98.223-1.064 9.352.255 18.734.416 28.029 1.565 13.896 1.882 27.741 5.287 40.428 11.393 5.28 2.69 12.34 6.746 14.286 12.569 1.159 3.585-1.174 5.592-4.46 6.535-2.267.663-4.624.893-6.969 1.022-9.372.389-18.705-.818-28.024-1.591-5.178-.386-10.562-.986-15.619.49-3.021.948-3.713 2.878-.47 4.037.544.185 1.101.3 1.68.391 2.32.417 4.626 1.107 6.627 2.4.988.675 2.008 1.553 2.152 2.835.081.955-.499 1.86-1.242 2.404-1.261.824-2.787 1.087-4.222 1.354-6.963 1.029-14.031.826-21.044.753-11.695-.237-23.373-.911-35.058-1.408-3.503-.137-7.005-.266-10.509-.182-1.715.086-3.513.052-5.082.834-1.05.5-1.955 1.261-2.967 1.849-2.557 1.533-5.587 1.951-8.508 2.126-2.342.135-4.691.046-7.029-.034-21.019-.725-42.068-2.253-63.095-1.053-1.067.113-4.921.338-4.328 1.334.692.903 1.889 1.299 2.802 1.951 1.601 1.062 3.813 3.293 2.245 5.25-.609.702-1.519 1.055-2.388 1.262-2.031.48-4.101.182-6.154.266a57 57 0 0 0-7.826.764 44 44 0 0 0-3.421.702.174.174 0 0 1-.121-.326 52 52 0 0 1 5.244-2.309c2.228-.823 4.563-1.55 6.962-1.653.333-.034.832-.072 1.074-.226-.199-.326-.687-.528-1.016-.737-2.099-1.13-4.276-2.121-6.207-3.573-.787-.555-1.645-1.448-1.484-2.516.32-1.86 2.868-2.956 4.426-3.592 2.684-1.027 5.512-1.613 8.336-2.071 5.648-.889 11.378-1.104 17.077-1.368 16.608-.663 33.304-.918 49.919-1.038l.714-.002c2.417.115 3.613-1.596 5.425-2.863 3.225-2.271 7.412-2.191 11.163-1.827 3.777.488 7.535 1.023 11.329 1.349 15.144 1.385 30.357 2.047 45.563 2.12a26 26 0 0 1-2.604-.401c-1.723-.36-3.441-.83-5.004-1.676-3.242-1.701-3.015-4.58-.13-6.403 1.509-.955 3.205-1.514 4.904-1.99 1.699-.462 3.425-.803 5.155-1.09 3.463-.566 6.954-.931 10.449-1.23 2.605-.214 5.245-.531 7.668-1.548 2.898-1.24 3.929-3.362 1.299-5.923-1.258-1.215-2.782-2.117-4.333-2.904-4.72-2.317-9.856-3.663-15.001-4.635-24.251-3.814-48.936-3.315-73.413-3.725-27.158-.33-54.329-.403-81.471-1.438-2.963-.194-6.654-1.04-7.81-4.154-1.029-3.15 1.536-6.4 4.508-7.209.851-.267 1.759-.265 2.633-.3 7.528-.426 1.805-2.825-1.585-3.716-.842-.204-1.707-.32-2.575-.408-3.482-.32-6.994-.268-10.492-.247-8.756.103-17.535.324-26.287-.24-5.253-.312-10.538-1.04-15.48-2.948-1.64-.642-3.24-1.413-4.709-2.41-1.093-.757-2.151-1.636-2.874-2.776-.617-.991-.93-2.405.299-3.15 1.75-1.057 3.87-1.134 5.845-.968a17.5 17.5 0 0 1 2.62.44s-.106.342-.111.332c-3.419-1.32-13.191-5.546-10.1-9.98 4.721-6.078 34.252-5.929 42.886-6.767 6.88-.482 13.842-1.301 20.368-3.634 1.333-.508 6.023-2.375 4.479-4.377-2.548-2.777-14.112-4.368-16.066-7.392-.297-.464-.287-1.099-.05-1.598.851-1.715 3.878-1.858 5.549-1.966 3.98-.133 7.937.333 11.878.806 2.062.252 8.711.943 9.408-1.73.167-.932-.505-1.822-1.105-2.49-3.125-3.445-10.67-4.41-15.146-5.001-2.947-.346-5.911-.555-8.874-.686-3.97-.073-7.977-.636-11.707-2.055-4.2-1.543-8.45-4.894-2.489-8.158.88-.486 1.834-.844 2.792-1.111 3.848-1.05 7.823-1.402 11.777-1.745 31.618-2.033 63.453-.436 94.952-4.361 3.903-.55 7.849-1.144 11.583-2.428 3.962-1.416 6.234-3.456 2.272-7.016-7.578-7.118-36.692-7.651-47.636-8.073-2.466-.16-6.848.208-8.811-1.313-.425-.33-.73-.876-.702-1.428.022-.549.247-1.044.577-1.476l.096.283c-3.6-.82-8.866-2.998-10.695-6.372-1.029-2.047.423-3.554 2.46-4.262 2.295-.82 4.731-.953 7.136-1.128 5.995-.355 12.01-.16 18.001.156 4.794.273 9.578.648 14.355 1.149.095.01.165.096.155.192a.17.17 0 0 1-.165.156 253 253 0 0 0-7.481.497c-3.734.31-7.466.675-11.163 1.282-1.229.208-2.456.44-3.656.761-.886.245-1.781.513-2.542 1.03-2.864 2.042 3.204 4.026 4.695 4.448 8.254 2.328 17.473 2.357 26.008 2.802 14.94.844 30.151 1.54 44.544 6 4.693 1.601 9.651 3.66 12.726 7.76l-.136-.071a52 52 0 0 1 4.83.442c3.2.45 6.396 1.131 9.387 2.402 1.326.615 3.605 1.529 3.816 2.988.082.937-.747 1.587-1.461 2.009-.717.415-1.484.706-2.26.953-4.669 1.378-9.6 1.546-14.432 1.399-1.617-.08-3.235-.146-4.835-.422-2.379-.464-4.815-1.226-6.708-2.815-1.07-.962-1.655-2.33-.269-3.312 3.088-2.16 11.206-2.475 14.178-.423 1.172.773 2.212 2.107.453 3.04-1.498.7-3.267.735-4.859.35a.175.175 0 0 1-.123-.214.173.173 0 0 1 .215-.123c1.134.295 2.362.296 3.511.055a4.5 4.5 0 0 0 1.096-.379c.332-.173.644-.424.729-.739.087-.314-.086-.665-.334-.948a5.1 5.1 0 0 0-1.919-1.296c-1.482-.57-3.102-.737-4.685-.77a21.7 21.7 0 0 0-4.763.451c-.779.168-1.551.386-2.274.701-.646.299-1.459.714-1.674 1.425-.177 1.49 1.781 2.626 2.94 3.2a17.5 17.5 0 0 0 4.547 1.452c1.575.273 3.193.338 4.79.417 4.794.146 9.69-.019 14.314-1.383 1.115-.377 2.274-.777 3.1-1.629.253-.276.42-.619.379-.962-.128-.732-.846-1.256-1.468-1.628-3.483-2.014-7.494-2.882-11.437-3.454a51 51 0 0 0-4.795-.44.17.17 0 0 1-.136-.071c-.724-1.003-1.605-1.888-2.574-2.664-9.239-7.162-27.88-8.945-39.459-10.012-7.181-.651-15.22-.922-22.463-1.296-4.999-.231-10.015-.584-14.935-1.572-2.46-.514-4.927-1.105-7.191-2.244-1.481-.723-3.313-2.292-1.264-3.714.797-.545 1.738-.827 2.65-1.08 1.218-.326 2.452-.56 3.688-.768 3.709-.609 7.451-.974 11.192-1.286 2.495-.202 4.99-.372 7.492-.499l-.01.348c-11.311-1.085-22.73-1.995-34.086-1.172-1.769.162-3.576.365-5.246.975-5.137 1.904-1.474 5.599 1.565 7.36 2.048 1.213 4.303 2.08 6.624 2.605.126.026.177.187.096.283-2.245 3.302 3.718 3.535 5.709 3.559 11.543.418 42.879.749 50.83 8.247 2.239 2.01 3.374 4.399.335 6.33-2.583 1.56-5.595 2.157-8.499 2.773-5.849 1.116-11.785 1.678-17.71 2.174-23.71 1.931-47.519 1.717-71.277 2.496-5.933.23-11.874.49-17.764 1.25-2.905.436-5.906.82-8.529 2.207-5.563 3.009-1.634 5.986 2.446 7.524 3.703 1.408 7.654 1.96 11.598 2.033 2.972.13 5.943.341 8.9.688 4.55.6 12.16 1.577 15.361 5.11.671.752 1.377 1.704 1.189 2.798-.741 2.982-7.434 2.288-9.791 2.007-3.918-.471-7.871-.936-11.819-.804-1.647.101-4.466.252-5.25 1.764-.177.396-.216.886.033 1.268.236.384.625.691 1.024.957.815.528 1.725.92 2.636 1.287 1.836.724 3.73 1.312 5.611 1.938.941.312 1.883.63 2.814.982.929.355 1.858.73 2.734 1.234.434.257.865.542 1.215.952 1.769 2.369-2.947 4.287-4.622 4.928-6.56 2.347-13.558 3.173-20.467 3.657-7.907.536-15.832.778-23.721 1.505-5.045.526-26.944 2.44-16.803 10.467 2.366 1.788 5.096 3.016 7.842 4.1a.176.176 0 0 1 .102.229.173.173 0 0 1-.206.104c-1.671-.408-3.436-.603-5.152-.447-.858.084-1.708.267-2.484.624l-.284.142-.276.16c-1.422.912-.326 2.768.596 3.694 5.19 5.125 14.979 6.564 22.01 6.99 10.495.71 21.012.19 31.524.271 1.754.03 3.51.083 5.262.256.874.089 1.75.207 2.612.416.905.252 6.357 1.773 5.394 3.282-.325.394-.778.502-1.23.632-.869.214-1.752.283-2.63.333-.874.036-1.735.027-2.573.29-2.835.769-5.311 3.863-4.333 6.867.733 2.11 2.952 3.176 4.997 3.624 1.705.397 3.464.389 5.204.48 33.275 1.105 66.574 1.104 99.86 1.592 14.015.276 28.047.645 42.002 2.07 6.967.742 13.963 1.757 20.608 4.076 3.48 1.236 9.566 3.701 10.712 7.184.784 3.002-3.104 4.28-5.338 4.828-3.429.802-6.966.795-10.439 1.279-3.467.43-6.943.963-10.311 1.904-2.165.652-5.42 1.651-6.57 3.766-.377.738-.433 1.658-.011 2.373.912 1.473 2.692 2.155 4.248 2.744 1.648.573 3.355.979 5.082 1.283-1.882.235-3.802.272-5.703.277-13.317-.14-26.628-.828-39.896-2.007-2.843-.267-5.684-.569-8.513-.967-2.8-.415-5.655-.745-8.472-.435-1.86.197-3.697.745-5.234 1.836-1.873 1.325-3.087 3.048-5.664 2.945-.385 0-1.716.008-2.139.012-14.227.122-28.55.35-42.778.812-7.586.323-15.213.441-22.73 1.574-1.873.295-3.736.664-5.561 1.162-1.804.511-3.629 1.104-5.212 2.121-.73.499-1.514 1.121-1.662 2.021-.061.418.078.845.339 1.204.261.363.607.656.989.941 1.508 1.133 3.197 2.01 4.888 2.881.637.333 1.285.652 1.893 1.048.16.106.321.226.452.379.085.085.169.277.117.421-.102.287-.436.35-.678.408-.247.05-.489.076-.729.095l-.711.048c-3.992.435-7.777 2.106-11.368 3.845l-.124-.324a44 44 0 0 1 3.453-.708 57 57 0 0 1 7.874-.77c.871-.003 1.779-.026 2.64.005 1.699.04 3.524-.005 5.017-.879 1.808-1.106 1.041-2.987-.206-4.181-.61-.607-1.328-1.111-2.074-1.543-.771-.465-1.635-.828-2.173-1.605-.464-.792.508-1.201 1.097-1.356 1.151-.307 2.325-.403 3.503-.504 22.212-1.28 44.435.527 66.637 1.154 2.9.021 5.84-.075 8.658-.816 1.116-.305 2.193-.734 3.187-1.33 1.01-.592 1.924-1.351 2.994-1.864 1.072-.533 2.287-.718 3.463-.778 1.756-.122 3.516-.123 5.273-.108 14.032.317 28.036 1.368 42.07 1.608 6.993.075 14.047.276 20.98-.747 1.413-.263 2.87-.515 4.08-1.296.649-.472 1.167-1.276 1.096-2.088-.133-1.139-1.093-1.958-1.998-2.575-1.946-1.259-4.225-1.941-6.493-2.347a10.3 10.3 0 0 1-1.733-.403c-2.161-.682-3.465-2.494-1.163-3.962 1.03-.629 2.19-.939 3.354-1.179 2.32-.447 4.679-.535 7.024-.502 10.185.061 37.861 5.052 44.953-.479.886-.704 1.46-1.769 1.435-2.917 0-.566-.113-1.132-.285-1.68-1.319-3.924-4.731-6.633-8.027-8.89-5.871-3.852-12.445-6.479-19.078-8.692-11.111-3.6-22.647-5.964-34.293-6.83-16.334-1.08-32.717-1.08-49.082-1.136-23.385.048-46.777.33-70.143 1.33-4.682.148-9.406.11-14.021-.814-1.713-.396-3.532-.816-4.922-1.985-1.255-1.14-.571-2.356.709-3.069 3.372-1.79 8.342-1.882 12.116-1.865 2.341.023 4.68.268 7.009.42 2.329.134 4.665.16 6.988-.015 3.417-.3 7.049-.852 9.86-2.949 3.408-2.667 2.055-6.293-1.084-8.453-1.899-1.352-4.145-2.088-6.424-2.494-6.914-1.162-13.98-.87-20.965-.658-8.175.313-19.748 1.152-28.01 1.688-9.34.549-18.695 1.358-28.056.885-5.129-.285-17.202-1.276-19.724-6.012-1.146-2.507 1.479-4.637 3.541-5.51 2.151-.962 4.44-1.558 6.722-2.107 13.667-2.998 27.84-4.06 41.747-5.44 2.124-.218 4.91-.422 6.974-.709 2.286-.327 4.629-.7 6.749-1.635 1.817-.811 2.819-2.104 1.122-3.713a6.6 6.6 0 0 0-1.388-.993c-.978-.502-3.204-1.371-2.981-2.588.437-1.471 5.052-1.45 6.383-1.518 2.328-.029 4.668-.106 6.952-.562.844-.19 3.513-.758 3.165-2.005-.481-1.055-1.802-1.348-2.698-1.963-.515-.312-1.404-1.04-.627-1.595.811-.476 1.752-.47 2.641-.564a32 32 0 0 1 1.763-.06c2.307-.07 4.69.366 6.926-.332.793-.256 1.604-.63 2.067-1.337.819-1.337-.617-2.64-1.668-3.316-1.96-1.24-4.24-1.906-6.483-2.446-3.317-.74-13.633-2.98-13.301-7.267.341-2.617 4.706-4.435 6.913-5.14 6.78-1.972 13.911-2.073 20.912-2.34 9.535-.294 21.975-.078 31.579-.12a315 315 0 0 0 24.523-.856c9.323-.717 18.627-1.788 27.83-3.436a.173.173 0 0 1 .201.14.173.173 0 0 1-.141.203z"/>
      </mask>
      <path fill="#67DB70" d="M424.645-13.933c-27.579 5.276-56.06 4.07-83.983 4.415-4.668.132-9.347.33-13.979.924-4 .55-8.142 1.302-11.526 3.636-5.115 3.604.845 6.467 4.3 7.67 1.646.583 3.338 1.044 5.039 1.445 2.952.657 8.715 1.898 10.184 4.824.777 1.716-.917 2.93-2.364 3.336-2.291.715-4.685.281-7.027.348-.69 0-5.123.041-4.232 1.056.808.86 2.033 1.082 2.916 1.886 2.032 1.92-1.384 2.969-2.863 3.238-2.309.461-4.673.542-7.015.57-1.164.025-2.332.08-3.479.234-1.75.254-4.037.81-1.326 2.422.503.31 1.033.51 1.562.789.784.437 1.544.987 2.055 1.747 1.8 2.943-3.18 4.184-5.186 4.647-2.294.508-4.633.768-6.966.982-15.049 1.504-30.394 2.537-45.193 5.76-1.703.403-3.395.849-5.041 1.437-1.086.39-2.168.836-3.129 1.476-3.048 2.163-2.717 4.666.593 6.514 7.814 4.123 22.127 3.833 30.987 3.442 13.473-.63 28.549-1.954 42.027-2.504 7.007-.211 14.093-.506 21.042.663 1.155.218 2.306.494 3.418.904 7.089 2.653 9.354 9.291 1.107 12.337-4.471 1.565-9.279 1.596-13.949 1.365-4.646-.369-9.336-.722-13.966-.05-1.706.266-3.447.602-4.963 1.447-.979.548-1.776 1.52-.65 2.508 2.579 2.114 8.38 2.503 11.694 2.698a86 86 0 0 0 6.999.01c32.72-1.311 65.485-1.63 98.223-1.064 9.352.255 18.734.416 28.029 1.565 13.896 1.882 27.741 5.287 40.428 11.393 5.28 2.69 12.34 6.746 14.286 12.569 1.159 3.585-1.174 5.592-4.46 6.535-2.267.663-4.624.893-6.969 1.022-9.372.389-18.705-.818-28.024-1.591-5.178-.386-10.562-.986-15.619.49-3.021.948-3.713 2.878-.47 4.037.544.185 1.101.3 1.68.391 2.32.417 4.626 1.107 6.627 2.4.988.675 2.008 1.553 2.152 2.835.081.955-.499 1.86-1.242 2.404-1.261.824-2.787 1.087-4.222 1.354-6.963 1.029-14.031.826-21.044.753-11.695-.237-23.373-.911-35.058-1.408-3.503-.137-7.005-.266-10.509-.182-1.715.086-3.513.052-5.082.834-1.05.5-1.955 1.261-2.967 1.849-2.557 1.533-5.587 1.951-8.508 2.126-2.342.135-4.691.046-7.029-.034-21.019-.725-42.068-2.253-63.095-1.053-1.067.113-4.921.338-4.328 1.334.692.903 1.889 1.299 2.802 1.951 1.601 1.062 3.813 3.293 2.245 5.25-.609.702-1.519 1.055-2.388 1.262-2.031.48-4.101.182-6.154.266a57 57 0 0 0-7.826.764 44 44 0 0 0-3.421.702.174.174 0 0 1-.121-.326 52 52 0 0 1 5.244-2.309c2.228-.823 4.563-1.55 6.962-1.653.333-.034.832-.072 1.074-.226-.199-.326-.687-.528-1.016-.737-2.099-1.13-4.276-2.121-6.207-3.573-.787-.555-1.645-1.448-1.484-2.516.32-1.86 2.868-2.956 4.426-3.592 2.684-1.027 5.512-1.613 8.336-2.071 5.648-.889 11.378-1.104 17.077-1.368 16.608-.663 33.304-.918 49.919-1.038l.714-.002c2.417.115 3.613-1.596 5.425-2.863 3.225-2.271 7.412-2.191 11.163-1.827 3.777.488 7.535 1.023 11.329 1.349 15.144 1.385 30.357 2.047 45.563 2.12a26 26 0 0 1-2.604-.401c-1.723-.36-3.441-.83-5.004-1.676-3.242-1.701-3.015-4.58-.13-6.403 1.509-.955 3.205-1.514 4.904-1.99 1.699-.462 3.425-.803 5.155-1.09 3.463-.566 6.954-.931 10.449-1.23 2.605-.214 5.245-.531 7.668-1.548 2.898-1.24 3.929-3.362 1.299-5.923-1.258-1.215-2.782-2.117-4.333-2.904-4.72-2.317-9.856-3.663-15.001-4.635-24.251-3.814-48.936-3.315-73.413-3.725-27.158-.33-54.329-.403-81.471-1.438-2.963-.194-6.654-1.04-7.81-4.154-1.029-3.15 1.536-6.4 4.508-7.209.851-.267 1.759-.265 2.633-.3 7.528-.426 1.805-2.825-1.585-3.716-.842-.204-1.707-.32-2.575-.408-3.482-.32-6.994-.268-10.492-.247-8.756.103-17.535.324-26.287-.24-5.253-.312-10.538-1.04-15.48-2.948-1.64-.642-3.24-1.413-4.709-2.41-1.093-.757-2.151-1.636-2.874-2.776-.617-.991-.93-2.405.299-3.15 1.75-1.057 3.87-1.134 5.845-.968a17.5 17.5 0 0 1 2.62.44s-.106.342-.111.332c-3.419-1.32-13.191-5.546-10.1-9.98 4.721-6.078 34.252-5.929 42.886-6.767 6.88-.482 13.842-1.301 20.368-3.634 1.333-.508 6.023-2.375 4.479-4.377-2.548-2.777-14.112-4.368-16.066-7.392-.297-.464-.287-1.099-.05-1.598.851-1.715 3.878-1.858 5.549-1.966 3.98-.133 7.937.333 11.878.806 2.062.252 8.711.943 9.408-1.73.167-.932-.505-1.822-1.105-2.49-3.125-3.445-10.67-4.41-15.146-5.001-2.947-.346-5.911-.555-8.874-.686-3.97-.073-7.977-.636-11.707-2.055-4.2-1.543-8.45-4.894-2.489-8.158.88-.486 1.834-.844 2.792-1.111 3.848-1.05 7.823-1.402 11.777-1.745 31.618-2.033 63.453-.436 94.952-4.361 3.903-.55 7.849-1.144 11.583-2.428 3.962-1.416 6.234-3.456 2.272-7.016-7.578-7.118-36.692-7.651-47.636-8.073-2.466-.16-6.848.208-8.811-1.313-.425-.33-.73-.876-.702-1.428.022-.549.247-1.044.577-1.476l.096.283c-3.6-.82-8.866-2.998-10.695-6.372-1.029-2.047.423-3.554 2.46-4.262 2.295-.82 4.731-.953 7.136-1.128 5.995-.355 12.01-.16 18.001.156 4.794.273 9.578.648 14.355 1.149.095.01.165.096.155.192a.17.17 0 0 1-.165.156 253 253 0 0 0-7.481.497c-3.734.31-7.466.675-11.163 1.282-1.229.208-2.456.44-3.656.761-.886.245-1.781.513-2.542 1.03-2.864 2.042 3.204 4.026 4.695 4.448 8.254 2.328 17.473 2.357 26.008 2.802 14.94.844 30.151 1.54 44.544 6 4.693 1.601 9.651 3.66 12.726 7.76l-.136-.071a52 52 0 0 1 4.83.442c3.2.45 6.396 1.131 9.387 2.402 1.326.615 3.605 1.529 3.816 2.988.082.937-.747 1.587-1.461 2.009-.717.415-1.484.706-2.26.953-4.669 1.378-9.6 1.546-14.432 1.399-1.617-.08-3.235-.146-4.835-.422-2.379-.464-4.815-1.226-6.708-2.815-1.07-.962-1.655-2.33-.269-3.312 3.088-2.16 11.206-2.475 14.178-.423 1.172.773 2.212 2.107.453 3.04-1.498.7-3.267.735-4.859.35a.175.175 0 0 1-.123-.214.173.173 0 0 1 .215-.123c1.134.295 2.362.296 3.511.055a4.5 4.5 0 0 0 1.096-.379c.332-.173.644-.424.729-.739.087-.314-.086-.665-.334-.948a5.1 5.1 0 0 0-1.919-1.296c-1.482-.57-3.102-.737-4.685-.77a21.7 21.7 0 0 0-4.763.451c-.779.168-1.551.386-2.274.701-.646.299-1.459.714-1.674 1.425-.177 1.49 1.781 2.626 2.94 3.2a17.5 17.5 0 0 0 4.547 1.452c1.575.273 3.193.338 4.79.417 4.794.146 9.69-.019 14.314-1.383 1.115-.377 2.274-.777 3.1-1.629.253-.276.42-.619.379-.962-.128-.732-.846-1.256-1.468-1.628-3.483-2.014-7.494-2.882-11.437-3.454a51 51 0 0 0-4.795-.44.17.17 0 0 1-.136-.071c-.724-1.003-1.605-1.888-2.574-2.664-9.239-7.162-27.88-8.945-39.459-10.012-7.181-.651-15.22-.922-22.463-1.296-4.999-.231-10.015-.584-14.935-1.572-2.46-.514-4.927-1.105-7.191-2.244-1.481-.723-3.313-2.292-1.264-3.714.797-.545 1.738-.827 2.65-1.08 1.218-.326 2.452-.56 3.688-.768 3.709-.609 7.451-.974 11.192-1.286 2.495-.202 4.99-.372 7.492-.499l-.01.348c-11.311-1.085-22.73-1.995-34.086-1.172-1.769.162-3.576.365-5.246.975-5.137 1.904-1.474 5.599 1.565 7.36 2.048 1.213 4.303 2.08 6.624 2.605.126.026.177.187.096.283-2.245 3.302 3.718 3.535 5.709 3.559 11.543.418 42.879.749 50.83 8.247 2.239 2.01 3.374 4.399.335 6.33-2.583 1.56-5.595 2.157-8.499 2.773-5.849 1.116-11.785 1.678-17.71 2.174-23.71 1.931-47.519 1.717-71.277 2.496-5.933.23-11.874.49-17.764 1.25-2.905.436-5.906.82-8.529 2.207-5.563 3.009-1.634 5.986 2.446 7.524 3.703 1.408 7.654 1.96 11.598 2.033 2.972.13 5.943.341 8.9.688 4.55.6 12.16 1.577 15.361 5.11.671.752 1.377 1.704 1.189 2.798-.741 2.982-7.434 2.288-9.791 2.007-3.918-.471-7.871-.936-11.819-.804-1.647.101-4.466.252-5.25 1.764-.177.396-.216.886.033 1.268.236.384.625.691 1.024.957.815.528 1.725.92 2.636 1.287 1.836.724 3.73 1.312 5.611 1.938.941.312 1.883.63 2.814.982.929.355 1.858.73 2.734 1.234.434.257.865.542 1.215.952 1.769 2.369-2.947 4.287-4.622 4.928-6.56 2.347-13.558 3.173-20.467 3.657-7.907.536-15.832.778-23.721 1.505-5.045.526-26.944 2.44-16.803 10.467 2.366 1.788 5.096 3.016 7.842 4.1a.176.176 0 0 1 .102.229.173.173 0 0 1-.206.104c-1.671-.408-3.436-.603-5.152-.447-.858.084-1.708.267-2.484.624l-.284.142-.276.16c-1.422.912-.326 2.768.596 3.694 5.19 5.125 14.979 6.564 22.01 6.99 10.495.71 21.012.19 31.524.271 1.754.03 3.51.083 5.262.256.874.089 1.75.207 2.612.416.905.252 6.357 1.773 5.394 3.282-.325.394-.778.502-1.23.632-.869.214-1.752.283-2.63.333-.874.036-1.735.027-2.573.29-2.835.769-5.311 3.863-4.333 6.867.733 2.11 2.952 3.176 4.997 3.624 1.705.397 3.464.389 5.204.48 33.275 1.105 66.574 1.104 99.86 1.592 14.015.276 28.047.645 42.002 2.07 6.967.742 13.963 1.757 20.608 4.076 3.48 1.236 9.566 3.701 10.712 7.184.784 3.002-3.104 4.28-5.338 4.828-3.429.802-6.966.795-10.439 1.279-3.467.43-6.943.963-10.311 1.904-2.165.652-5.42 1.651-6.57 3.766-.377.738-.433 1.658-.011 2.373.912 1.473 2.692 2.155 4.248 2.744 1.648.573 3.355.979 5.082 1.283-1.882.235-3.802.272-5.703.277-13.317-.14-26.628-.828-39.896-2.007-2.843-.267-5.684-.569-8.513-.967-2.8-.415-5.655-.745-8.472-.435-1.86.197-3.697.745-5.234 1.836-1.873 1.325-3.087 3.048-5.664 2.945-.385 0-1.716.008-2.139.012-14.227.122-28.55.35-42.778.812-7.586.323-15.213.441-22.73 1.574-1.873.295-3.736.664-5.561 1.162-1.804.511-3.629 1.104-5.212 2.121-.73.499-1.514 1.121-1.662 2.021-.061.418.078.845.339 1.204.261.363.607.656.989.941 1.508 1.133 3.197 2.01 4.888 2.881.637.333 1.285.652 1.893 1.048.16.106.321.226.452.379.085.085.169.277.117.421-.102.287-.436.35-.678.408-.247.05-.489.076-.729.095l-.711.048c-3.992.435-7.777 2.106-11.368 3.845l-.124-.324a44 44 0 0 1 3.453-.708 57 57 0 0 1 7.874-.77c.871-.003 1.779-.026 2.64.005 1.699.04 3.524-.005 5.017-.879 1.808-1.106 1.041-2.987-.206-4.181-.61-.607-1.328-1.111-2.074-1.543-.771-.465-1.635-.828-2.173-1.605-.464-.792.508-1.201 1.097-1.356 1.151-.307 2.325-.403 3.503-.504 22.212-1.28 44.435.527 66.637 1.154 2.9.021 5.84-.075 8.658-.816 1.116-.305 2.193-.734 3.187-1.33 1.01-.592 1.924-1.351 2.994-1.864 1.072-.533 2.287-.718 3.463-.778 1.756-.122 3.516-.123 5.273-.108 14.032.317 28.036 1.368 42.07 1.608 6.993.075 14.047.276 20.98-.747 1.413-.263 2.87-.515 4.08-1.296.649-.472 1.167-1.276 1.096-2.088-.133-1.139-1.093-1.958-1.998-2.575-1.946-1.259-4.225-1.941-6.493-2.347a10.3 10.3 0 0 1-1.733-.403c-2.161-.682-3.465-2.494-1.163-3.962 1.03-.629 2.19-.939 3.354-1.179 2.32-.447 4.679-.535 7.024-.502 10.185.061 37.861 5.052 44.953-.479.886-.704 1.46-1.769 1.435-2.917 0-.566-.113-1.132-.285-1.68-1.319-3.924-4.731-6.633-8.027-8.89-5.871-3.852-12.445-6.479-19.078-8.692-11.111-3.6-22.647-5.964-34.293-6.83-16.334-1.08-32.717-1.08-49.082-1.136-23.385.048-46.777.33-70.143 1.33-4.682.148-9.406.11-14.021-.814-1.713-.396-3.532-.816-4.922-1.985-1.255-1.14-.571-2.356.709-3.069 3.372-1.79 8.342-1.882 12.116-1.865 2.341.023 4.68.268 7.009.42 2.329.134 4.665.16 6.988-.015 3.417-.3 7.049-.852 9.86-2.949 3.408-2.667 2.055-6.293-1.084-8.453-1.899-1.352-4.145-2.088-6.424-2.494-6.914-1.162-13.98-.87-20.965-.658-8.175.313-19.748 1.152-28.01 1.688-9.34.549-18.695 1.358-28.056.885-5.129-.285-17.202-1.276-19.724-6.012-1.146-2.507 1.479-4.637 3.541-5.51 2.151-.962 4.44-1.558 6.722-2.107 13.667-2.998 27.84-4.06 41.747-5.44 2.124-.218 4.91-.422 6.974-.709 2.286-.327 4.629-.7 6.749-1.635 1.817-.811 2.819-2.104 1.122-3.713a6.6 6.6 0 0 0-1.388-.993c-.978-.502-3.204-1.371-2.981-2.588.437-1.471 5.052-1.45 6.383-1.518 2.328-.029 4.668-.106 6.952-.562.844-.19 3.513-.758 3.165-2.005-.481-1.055-1.802-1.348-2.698-1.963-.515-.312-1.404-1.04-.627-1.595.811-.476 1.752-.47 2.641-.564a32 32 0 0 1 1.763-.06c2.307-.07 4.69.366 6.926-.332.793-.256 1.604-.63 2.067-1.337.819-1.337-.617-2.64-1.668-3.316-1.96-1.24-4.24-1.906-6.483-2.446-3.317-.74-13.633-2.98-13.301-7.267.341-2.617 4.706-4.435 6.913-5.14 6.78-1.972 13.911-2.073 20.912-2.34 9.535-.294 21.975-.078 31.579-.12a315 315 0 0 0 24.523-.856c9.323-.717 18.627-1.788 27.83-3.436a.173.173 0 0 1 .201.14.173.173 0 0 1-.141.203z"/>
      <path stroke="#00D264" stroke-width=".4" d="M424.645-13.933c-27.579 5.276-56.06 4.07-83.983 4.415-4.668.132-9.347.33-13.979.924-4 .55-8.142 1.302-11.526 3.636-5.115 3.604.845 6.467 4.3 7.67 1.646.583 3.338 1.044 5.039 1.445 2.952.657 8.715 1.898 10.184 4.824.777 1.716-.917 2.93-2.364 3.336-2.291.715-4.685.281-7.027.348-.69 0-5.123.041-4.232 1.056.808.86 2.033 1.082 2.916 1.886 2.032 1.92-1.384 2.969-2.863 3.238-2.309.461-4.673.542-7.015.57-1.164.025-2.332.08-3.479.234-1.75.254-4.037.81-1.326 2.422.503.31 1.033.51 1.562.789.784.437 1.544.987 2.055 1.747 1.8 2.943-3.18 4.184-5.186 4.647-2.294.508-4.633.768-6.966.982-15.049 1.504-30.394 2.537-45.193 5.76-1.703.403-3.395.849-5.041 1.437-1.086.39-2.168.836-3.129 1.476-3.048 2.163-2.717 4.666.593 6.514 7.814 4.123 22.127 3.833 30.987 3.442 13.473-.63 28.549-1.954 42.027-2.504 7.007-.211 14.093-.506 21.042.663 1.155.218 2.306.494 3.418.904 7.089 2.653 9.354 9.291 1.107 12.337-4.471 1.565-9.279 1.596-13.949 1.365-4.646-.369-9.336-.722-13.966-.05-1.706.266-3.447.602-4.963 1.447-.979.548-1.776 1.52-.65 2.508 2.579 2.114 8.38 2.503 11.694 2.698a86 86 0 0 0 6.999.01c32.72-1.311 65.485-1.63 98.223-1.064 9.352.255 18.734.416 28.029 1.565 13.896 1.882 27.741 5.287 40.428 11.393 5.28 2.69 12.34 6.746 14.286 12.569 1.159 3.585-1.174 5.592-4.46 6.535-2.267.663-4.624.893-6.969 1.022-9.372.389-18.705-.818-28.024-1.591-5.178-.386-10.562-.986-15.619.49-3.021.948-3.713 2.878-.47 4.037.544.185 1.101.3 1.68.391 2.32.417 4.626 1.107 6.627 2.4.988.675 2.008 1.553 2.152 2.835.081.955-.499 1.86-1.242 2.404-1.261.824-2.787 1.087-4.222 1.354-6.963 1.029-14.031.826-21.044.753-11.695-.237-23.373-.911-35.058-1.408-3.503-.137-7.005-.266-10.509-.182-1.715.086-3.513.052-5.082.834-1.05.5-1.955 1.261-2.967 1.849-2.557 1.533-5.587 1.951-8.508 2.126-2.342.135-4.691.046-7.029-.034-21.019-.725-42.068-2.253-63.095-1.053-1.067.113-4.921.338-4.328 1.334.692.903 1.889 1.299 2.802 1.951 1.601 1.062 3.813 3.293 2.245 5.25-.609.702-1.519 1.055-2.388 1.262-2.031.48-4.101.182-6.154.266a57 57 0 0 0-7.826.764 44 44 0 0 0-3.421.702.174.174 0 0 1-.121-.326 52 52 0 0 1 5.244-2.309c2.228-.823 4.563-1.55 6.962-1.653.333-.034.832-.072 1.074-.226-.199-.326-.687-.528-1.016-.737-2.099-1.13-4.276-2.121-6.207-3.573-.787-.555-1.645-1.448-1.484-2.516.32-1.86 2.868-2.956 4.426-3.592 2.684-1.027 5.512-1.613 8.336-2.071 5.648-.889 11.378-1.104 17.077-1.368 16.608-.663 33.304-.918 49.919-1.038l.714-.002c2.417.115 3.613-1.596 5.425-2.863 3.225-2.271 7.412-2.191 11.163-1.827 3.777.488 7.535 1.023 11.329 1.349 15.144 1.385 30.357 2.047 45.563 2.12a26 26 0 0 1-2.604-.401c-1.723-.36-3.441-.83-5.004-1.676-3.242-1.701-3.015-4.58-.13-6.403 1.509-.955 3.205-1.514 4.904-1.99 1.699-.462 3.425-.803 5.155-1.09 3.463-.566 6.954-.931 10.449-1.23 2.605-.214 5.245-.531 7.668-1.548 2.898-1.24 3.929-3.362 1.299-5.923-1.258-1.215-2.782-2.117-4.333-2.904-4.72-2.317-9.856-3.663-15.001-4.635-24.251-3.814-48.936-3.315-73.413-3.725-27.158-.33-54.329-.403-81.471-1.438-2.963-.194-6.654-1.04-7.81-4.154-1.029-3.15 1.536-6.4 4.508-7.209.851-.267 1.759-.265 2.633-.3 7.528-.426 1.805-2.825-1.585-3.716-.842-.204-1.707-.32-2.575-.408-3.482-.32-6.994-.268-10.492-.247-8.756.103-17.535.324-26.287-.24-5.253-.312-10.538-1.04-15.48-2.948-1.64-.642-3.24-1.413-4.709-2.41-1.093-.757-2.151-1.636-2.874-2.776-.617-.991-.93-2.405.299-3.15 1.75-1.057 3.87-1.134 5.845-.968a17.5 17.5 0 0 1 2.62.44s-.106.342-.111.332c-3.419-1.32-13.191-5.546-10.1-9.98 4.721-6.078 34.252-5.929 42.886-6.767 6.88-.482 13.842-1.301 20.368-3.634 1.333-.508 6.023-2.375 4.479-4.377-2.548-2.777-14.112-4.368-16.066-7.392-.297-.464-.287-1.099-.05-1.598.851-1.715 3.878-1.858 5.549-1.966 3.98-.133 7.937.333 11.878.806 2.062.252 8.711.943 9.408-1.73.167-.932-.505-1.822-1.105-2.49-3.125-3.445-10.67-4.41-15.146-5.001-2.947-.346-5.911-.555-8.874-.686-3.97-.073-7.977-.636-11.707-2.055-4.2-1.543-8.45-4.894-2.489-8.158.88-.486 1.834-.844 2.792-1.111 3.848-1.05 7.823-1.402 11.777-1.745 31.618-2.033 63.453-.436 94.952-4.361 3.903-.55 7.849-1.144 11.583-2.428 3.962-1.416 6.234-3.456 2.272-7.016-7.578-7.118-36.692-7.651-47.636-8.073-2.466-.16-6.848.208-8.811-1.313-.425-.33-.73-.876-.702-1.428.022-.549.247-1.044.577-1.476l.096.283c-3.6-.82-8.866-2.998-10.695-6.372-1.029-2.047.423-3.554 2.46-4.262 2.295-.82 4.731-.953 7.136-1.128 5.995-.355 12.01-.16 18.001.156 4.794.273 9.578.648 14.355 1.149.095.01.165.096.155.192a.17.17 0 0 1-.165.156 253 253 0 0 0-7.481.497c-3.734.31-7.466.675-11.163 1.282-1.229.208-2.456.44-3.656.761-.886.245-1.781.513-2.542 1.03-2.864 2.042 3.204 4.026 4.695 4.448 8.254 2.328 17.473 2.357 26.008 2.802 14.94.844 30.151 1.54 44.544 6 4.693 1.601 9.651 3.66 12.726 7.76l-.136-.071a52 52 0 0 1 4.83.442c3.2.45 6.396 1.131 9.387 2.402 1.326.615 3.605 1.529 3.816 2.988.082.937-.747 1.587-1.461 2.009-.717.415-1.484.706-2.26.953-4.669 1.378-9.6 1.546-14.432 1.399-1.617-.08-3.235-.146-4.835-.422-2.379-.464-4.815-1.226-6.708-2.815-1.07-.962-1.655-2.33-.269-3.312 3.088-2.16 11.206-2.475 14.178-.423 1.172.773 2.212 2.107.453 3.04-1.498.7-3.267.735-4.859.35a.175.175 0 0 1-.123-.214.173.173 0 0 1 .215-.123c1.134.295 2.362.296 3.511.055a4.5 4.5 0 0 0 1.096-.379c.332-.173.644-.424.729-.739.087-.314-.086-.665-.334-.948a5.1 5.1 0 0 0-1.919-1.296c-1.482-.57-3.102-.737-4.685-.77a21.7 21.7 0 0 0-4.763.451c-.779.168-1.551.386-2.274.701-.646.299-1.459.714-1.674 1.425-.177 1.49 1.781 2.626 2.94 3.2a17.5 17.5 0 0 0 4.547 1.452c1.575.273 3.193.338 4.79.417 4.794.146 9.69-.019 14.314-1.383 1.115-.377 2.274-.777 3.1-1.629.253-.276.42-.619.379-.962-.128-.732-.846-1.256-1.468-1.628-3.483-2.014-7.494-2.882-11.437-3.454a51 51 0 0 0-4.795-.44.17.17 0 0 1-.136-.071c-.724-1.003-1.605-1.888-2.574-2.664-9.239-7.162-27.88-8.945-39.459-10.012-7.181-.651-15.22-.922-22.463-1.296-4.999-.231-10.015-.584-14.935-1.572-2.46-.514-4.927-1.105-7.191-2.244-1.481-.723-3.313-2.292-1.264-3.714.797-.545 1.738-.827 2.65-1.08 1.218-.326 2.452-.56 3.688-.768 3.709-.609 7.451-.974 11.192-1.286 2.495-.202 4.99-.372 7.492-.499l-.01.348c-11.311-1.085-22.73-1.995-34.086-1.172-1.769.162-3.576.365-5.246.975-5.137 1.904-1.474 5.599 1.565 7.36 2.048 1.213 4.303 2.08 6.624 2.605.126.026.177.187.096.283-2.245 3.302 3.718 3.535 5.709 3.559 11.543.418 42.879.749 50.83 8.247 2.239 2.01 3.374 4.399.335 6.33-2.583 1.56-5.595 2.157-8.499 2.773-5.849 1.116-11.785 1.678-17.71 2.174-23.71 1.931-47.519 1.717-71.277 2.496-5.933.23-11.874.49-17.764 1.25-2.905.436-5.906.82-8.529 2.207-5.563 3.009-1.634 5.986 2.446 7.524 3.703 1.408 7.654 1.96 11.598 2.033 2.972.13 5.943.341 8.9.688 4.55.6 12.16 1.577 15.361 5.11.671.752 1.377 1.704 1.189 2.798-.741 2.982-7.434 2.288-9.791 2.007-3.918-.471-7.871-.936-11.819-.804-1.647.101-4.466.252-5.25 1.764-.177.396-.216.886.033 1.268.236.384.625.691 1.024.957.815.528 1.725.92 2.636 1.287 1.836.724 3.73 1.312 5.611 1.938.941.312 1.883.63 2.814.982.929.355 1.858.73 2.734 1.234.434.257.865.542 1.215.952 1.769 2.369-2.947 4.287-4.622 4.928-6.56 2.347-13.558 3.173-20.467 3.657-7.907.536-15.832.778-23.721 1.505-5.045.526-26.944 2.44-16.803 10.467 2.366 1.788 5.096 3.016 7.842 4.1a.176.176 0 0 1 .102.229.173.173 0 0 1-.206.104c-1.671-.408-3.436-.603-5.152-.447-.858.084-1.708.267-2.484.624l-.284.142-.276.16c-1.422.912-.326 2.768.596 3.694 5.19 5.125 14.979 6.564 22.01 6.99 10.495.71 21.012.19 31.524.271 1.754.03 3.51.083 5.262.256.874.089 1.75.207 2.612.416.905.252 6.357 1.773 5.394 3.282-.325.394-.778.502-1.23.632-.869.214-1.752.283-2.63.333-.874.036-1.735.027-2.573.29-2.835.769-5.311 3.863-4.333 6.867.733 2.11 2.952 3.176 4.997 3.624 1.705.397 3.464.389 5.204.48 33.275 1.105 66.574 1.104 99.86 1.592 14.015.276 28.047.645 42.002 2.07 6.967.742 13.963 1.757 20.608 4.076 3.48 1.236 9.566 3.701 10.712 7.184.784 3.002-3.104 4.28-5.338 4.828-3.429.802-6.966.795-10.439 1.279-3.467.43-6.943.963-10.311 1.904-2.165.652-5.42 1.651-6.57 3.766-.377.738-.433 1.658-.011 2.373.912 1.473 2.692 2.155 4.248 2.744 1.648.573 3.355.979 5.082 1.283-1.882.235-3.802.272-5.703.277-13.317-.14-26.628-.828-39.896-2.007-2.843-.267-5.684-.569-8.513-.967-2.8-.415-5.655-.745-8.472-.435-1.86.197-3.697.745-5.234 1.836-1.873 1.325-3.087 3.048-5.664 2.945-.385 0-1.716.008-2.139.012-14.227.122-28.55.35-42.778.812-7.586.323-15.213.441-22.73 1.574-1.873.295-3.736.664-5.561 1.162-1.804.511-3.629 1.104-5.212 2.121-.73.499-1.514 1.121-1.662 2.021-.061.418.078.845.339 1.204.261.363.607.656.989.941 1.508 1.133 3.197 2.01 4.888 2.881.637.333 1.285.652 1.893 1.048.16.106.321.226.452.379.085.085.169.277.117.421-.102.287-.436.35-.678.408-.247.05-.489.076-.729.095l-.711.048c-3.992.435-7.777 2.106-11.368 3.845l-.124-.324a44 44 0 0 1 3.453-.708 57 57 0 0 1 7.874-.77c.871-.003 1.779-.026 2.64.005 1.699.04 3.524-.005 5.017-.879 1.808-1.106 1.041-2.987-.206-4.181-.61-.607-1.328-1.111-2.074-1.543-.771-.465-1.635-.828-2.173-1.605-.464-.792.508-1.201 1.097-1.356 1.151-.307 2.325-.403 3.503-.504 22.212-1.28 44.435.527 66.637 1.154 2.9.021 5.84-.075 8.658-.816 1.116-.305 2.193-.734 3.187-1.33 1.01-.592 1.924-1.351 2.994-1.864 1.072-.533 2.287-.718 3.463-.778 1.756-.122 3.516-.123 5.273-.108 14.032.317 28.036 1.368 42.07 1.608 6.993.075 14.047.276 20.98-.747 1.413-.263 2.87-.515 4.08-1.296.649-.472 1.167-1.276 1.096-2.088-.133-1.139-1.093-1.958-1.998-2.575-1.946-1.259-4.225-1.941-6.493-2.347a10.3 10.3 0 0 1-1.733-.403c-2.161-.682-3.465-2.494-1.163-3.962 1.03-.629 2.19-.939 3.354-1.179 2.32-.447 4.679-.535 7.024-.502 10.185.061 37.861 5.052 44.953-.479.886-.704 1.46-1.769 1.435-2.917 0-.566-.113-1.132-.285-1.68-1.319-3.924-4.731-6.633-8.027-8.89-5.871-3.852-12.445-6.479-19.078-8.692-11.111-3.6-22.647-5.964-34.293-6.83-16.334-1.08-32.717-1.08-49.082-1.136-23.385.048-46.777.33-70.143 1.33-4.682.148-9.406.11-14.021-.814-1.713-.396-3.532-.816-4.922-1.985-1.255-1.14-.571-2.356.709-3.069 3.372-1.79 8.342-1.882 12.116-1.865 2.341.023 4.68.268 7.009.42 2.329.134 4.665.16 6.988-.015 3.417-.3 7.049-.852 9.86-2.949 3.408-2.667 2.055-6.293-1.084-8.453-1.899-1.352-4.145-2.088-6.424-2.494-6.914-1.162-13.98-.87-20.965-.658-8.175.313-19.748 1.152-28.01 1.688-9.34.549-18.695 1.358-28.056.885-5.129-.285-17.202-1.276-19.724-6.012-1.146-2.507 1.479-4.637 3.541-5.51 2.151-.962 4.44-1.558 6.722-2.107 13.667-2.998 27.84-4.06 41.747-5.44 2.124-.218 4.91-.422 6.974-.709 2.286-.327 4.629-.7 6.749-1.635 1.817-.811 2.819-2.104 1.122-3.713a6.6 6.6 0 0 0-1.388-.993c-.978-.502-3.204-1.371-2.981-2.588.437-1.471 5.052-1.45 6.383-1.518 2.328-.029 4.668-.106 6.952-.562.844-.19 3.513-.758 3.165-2.005-.481-1.055-1.802-1.348-2.698-1.963-.515-.312-1.404-1.04-.627-1.595.811-.476 1.752-.47 2.641-.564a32 32 0 0 1 1.763-.06c2.307-.07 4.69.366 6.926-.332.793-.256 1.604-.63 2.067-1.337.819-1.337-.617-2.64-1.668-3.316-1.96-1.24-4.24-1.906-6.483-2.446-3.317-.74-13.633-2.98-13.301-7.267.341-2.617 4.706-4.435 6.913-5.14 6.78-1.972 13.911-2.073 20.912-2.34 9.535-.294 21.975-.078 31.579-.12a315 315 0 0 0 24.523-.856c9.323-.717 18.627-1.788 27.83-3.436a.173.173 0 0 1 .201.14.173.173 0 0 1-.141.203z" mask="url(#e)"/>
      <path fill="#67DB70" stroke="#00D264" stroke-width=".2" d="M308.081 6.829c.295.761.345 1.582-.021 2.357a.11.11 0 0 0-.01.09c.009.03.029.052.05.066.02.012.049.022.082.017a.12.12 0 0 0 .083-.059c.612-1.07.397-2.429-.215-3.43h-.001c-.877-1.41-2.328-2.487-3.93-3.32s-3.363-1.426-4.87-1.863h-.001c-2.848-.795-5.915-1.46-8.925-2.112a315 315 0 0 1-4.395-.975l-.913-.212c-1.914-.442-3.823-.884-5.676-1.487a12 12 0 0 1-1.549-.619h-.002c-.487-.23-.897-.537-1.143-1h.001l-.002-.003c-.289-.497-.395-.955-.36-1.376.034-.422.21-.816.498-1.184.58-.74 1.605-1.367 2.801-1.883 2.39-1.03 5.41-1.598 6.728-1.781h.003a38 38 0 0 1 2.175-.284c.41-.045.819-.09 1.223-.143l-.017-.2c-3.792.138-8.295.721-11.696 2.588h-.001c-.951.536-1.742 1.255-2.098 2.103-.359.855-.267 1.825.517 2.832l.001.002c.261.321.677.6 1.17.846.495.245 1.074.46 1.669.649.888.281 1.819.506 2.558.684.25.06.478.115.676.166h.002c1.603.367 3.312.708 5.02 1.046l.199.039c1.642.325 3.278.649 4.818.995l.351.083c2.115.501 4.657 1.104 7.086 1.924 2.567.867 4.997 1.973 6.661 3.452l.001.001c.611.524 1.155 1.225 1.452 1.99Zm.148 2.463-.053-.038.001-.002.005.003.052.03zm-.015-.022.022.01v.001zm4.014 54.937.119.24.042-.215a.12.12 0 0 0 .049-.081c.286-1.345 1.447-2.315 2.587-3.038 3.701-2.196 8.851-2.695 13.114-2.882a76 76 0 0 1 5.232-.026l.003-.1-.003.1.561.018c1.213.042 2.482.085 3.678-.153 1.198-.194 2.354-.725 2.984-1.529.317-.404.501-.878.486-1.41-.014-.53-.226-1.11-.682-1.724l-.004-.005c-1.664-1.971-4.502-3.003-7.499-3.51-3.001-.506-6.181-.487-8.553-.34q-3.326.177-6.65.362c-3.374.187-6.748.373-10.123.54l.004.089-.004-.089-1.455.072c-10.696.53-21.396 1.061-32.101 1.185-6.989.11-14.002-.165-20.734-2.145-1.995-.587-3.985-1.306-5.649-2.558l-.001-.001c-1.744-1.28-2.637-3.205-2.365-5.373h.001l-.034-.005v-.004.004l-.066-.008m67.063 22.586L245.032 41.61v-.007l.034.005.001-.003-.001.003.006.001.059.008m67.097 22.59a.12.12 0 0 1-.025-.073l.036-.008zM245.165 41.62l.001-.001c.002-.02-.031-.024-.034-.005l-.001.002m.034.004v.001l-.009.08a.08.08 0 0 0 .074-.07l-.011-.002zm-.034-.004-.065-.005a.08.08 0 0 0 .024.066q.014.014.03.02zm42.991 24.836c-.388 1.928-.514 4.041.425 5.795.926 1.765 2.715 2.835 4.531 3.561h.001c1.841.742 3.784 1.195 5.735 1.57 12.719 2.043 25.682 2.229 38.588 2.413 3.074.044 6.146.088 9.21.157l-.002.1zm0 0a.117.117 0 0 0-.091-.138.12.12 0 0 0-.081.011.11.11 0 0 0-.058.08m.23.047-.23-.047m0 0c-.416 1.953-.58 4.133.38 5.987zm171.899 23.77c.358-.691.328-1.317-.001-1.896-.333-.586-.977-1.13-1.86-1.632-1.764-1.004-4.44-1.813-7.331-2.456-5.593-1.243-11.952-1.853-13.959-2.046l-.181-.017h-.001c-19.926-1.488-39.902-1.576-59.888-1.55l-5.325.01c-18.211.033-36.426.066-54.609-.874h-.002c-5.981-.39-11.988-.823-17.895-1.928h-.002c-1.79-.38-3.947-.844-5.883-1.653s-3.663-1.967-4.582-3.741zm0 0c-.599 1.156-1.828 2.065-3.235 2.767m3.235-2.768-3.235 2.768m0 0c-1.384.691-2.925 1.177-4.17 1.504zm6.81 12.196v-.35l.181.252.004.005c.386.441.729 1.027.849 1.625.122.607.017 1.234-.509 1.725-.404.401-.932.638-1.442.819l-.003.002c-1.664.528-3.429.578-5.142.561h-.001c-11.187-.238-22.549-.923-33.852-1.604-5.857-.353-11.698-.705-17.49-.993h-.001a359 359 0 0 0-10.267-.406l-.366-.007c-2.435-.048-4.901-.096-7.224.623l-.002.001c-.822.234-1.528.683-2.233 1.168l-.286.198c-.608.423-1.227.853-1.919 1.159m79.703-4.778-79.703 4.778m79.703-4.778.025.028.003.004m-.028-.032.028.032m-79.731 4.746c-1.206.547-2.513.76-3.8.903h-.001c-2.147.203-4.308.145-6.451.047-1.326-.053-4.25-.194-6.283-.292l-1.421-.068c-14.958-.717-29.96-1.407-44.934-1.048-3.778.136-7.764.321-11.527.722h-.002c-1.232.1-2.511.288-3.748.47q-.681.1-1.338.192m79.505-.926-79.505.926m159.236-5.672c.753 1.053.905 1.828.708 2.399-.198.575-.764.983-1.541 1.267-1.551.566-3.842.596-5.251.556-9.234-.33-18.728-.839-28.225-1.357l-1.488-.081c-9.001-.492-17.993-.982-26.757-1.327a294 294 0 0 0-5.14-.192h-.001l-.809-.016c-1.434-.03-2.929-.062-4.381.097-1.728.188-3.403.647-4.856 1.703l-.13.093c-.66.467-1.302.921-2.025 1.227l-.002.001c-.761.343-1.585.538-2.418.68-2.522.397-5.09.287-7.646.16-1.684-.084-5.941-.307-7.698-.401-17.068-.861-34.317-1.724-51.395-.587h-.001l-2.565.194-.004.001-2.556.286c-.72.07-1.864.214-2.555.337l-2.539.4v.001m159.275-5.441-159.275 5.441m0 0a.11.11 0 0 0-.083.057.12.12 0 0 0-.013.081c.005.023.018.05.043.07a.11.11 0 0 0 .092.023m-.039-.231.039.231m-.008-.034Z"/>
    </g>
    <path fill="#FFF400" d="M140.166 76.112c3.066 0 4.998 1.974 4.998 4.886s-1.932 4.914-4.998 4.914h-3.332v-4.368h-1.162v-1.218h1.162v-4.214zm0 8.4c2.156 0 3.346-1.414 3.346-3.514s-1.19-3.486-3.346-3.486h-1.722v2.814h1.806v1.218h-1.806v2.968zm9.383-6.58 1.12-1.932h1.75l-1.722 1.932zm.546 8.064c-2.184 0-3.654-1.47-3.654-3.668 0-2.184 1.47-3.668 3.654-3.668s3.654 1.484 3.654 3.668c0 2.198-1.47 3.668-3.654 3.668m0-1.288c1.274 0 2.114-.994 2.114-2.38s-.84-2.38-2.114-2.38-2.1.994-2.1 2.38.826 2.38 2.1 2.38m8.937-6.048c1.582 0 2.884.868 2.884 3.262v3.99h-1.526v-3.864c0-1.358-.574-2.086-1.708-2.086-1.204 0-1.918.882-1.918 2.338v3.612h-1.512v-7.168h1.316l.168.938c.448-.56 1.134-1.022 2.296-1.022m10.347 3.584-2.534-3.5h1.764l1.708 2.422 1.75-2.422h1.666l-2.548 3.5 2.702 3.668h-1.764l-1.876-2.604-1.89 2.604h-1.666zm8.607 3.752c-2.254 0-3.668-1.456-3.668-3.654 0-2.212 1.414-3.682 3.528-3.682 2.072 0 3.458 1.316 3.5 3.416 0 .182-.014.378-.042.574H175.9v.098c.042 1.218.812 2.016 2.002 2.016.924 0 1.596-.462 1.806-1.26h1.512c-.252 1.414-1.456 2.492-3.234 2.492m1.792-4.452c-.126-1.064-.868-1.666-1.918-1.666-.966 0-1.792.644-1.904 1.666zm11.31-2.884c1.484 0 2.688.854 2.688 3.122v4.13h-1.512V81.88c0-1.26-.518-1.918-1.498-1.918-1.036 0-1.694.784-1.694 2.072v3.878h-1.526V81.88c0-1.26-.518-1.918-1.512-1.918-1.036 0-1.68.84-1.68 2.114v3.836h-1.512v-7.168h1.316l.168.938c.406-.532 1.022-1.008 2.1-1.022.938 0 1.778.378 2.212 1.302.462-.784 1.274-1.302 2.45-1.302m7.501.084h1.624l1.974 5.544 1.946-5.544h1.596l-2.646 7.168h-1.848zm11.449-.798h-1.162L207.21 76h1.75zm3.22 6.65v1.316h-.798c-.98 0-1.316-.434-1.316-1.148-.476.728-1.204 1.232-2.366 1.232-1.568 0-2.66-.77-2.66-2.1 0-1.47 1.064-2.296 3.066-2.296h1.806v-.434c0-.798-.574-1.288-1.568-1.288-.896 0-1.498.42-1.61 1.05h-1.484c.154-1.4 1.358-2.268 3.164-2.268 1.904 0 2.996.91 2.996 2.604v2.87c0 .364.154.462.462.462zm-4.144-1.876c-.938 0-1.456.35-1.456 1.078 0 .602.504 1.022 1.33 1.022 1.26 0 1.988-.742 2.002-1.848v-.252zm8.588 3.276c-2.184 0-3.654-1.47-3.654-3.668 0-2.184 1.47-3.668 3.654-3.668s3.654 1.484 3.654 3.668c0 2.198-1.47 3.668-3.654 3.668m0-1.288c1.274 0 2.114-.994 2.114-2.38s-.84-2.38-2.114-2.38-2.1.994-2.1 2.38.826 2.38 2.1 2.38M94.036 97.712h3.666v18.2h-3.744v-11.778c-.286.078-.598.104-.988.104h-3.042v-3.094h2.704c1.04 0 1.404-.702 1.404-1.768zm12.057 8.684c0-5.434 3.094-8.84 7.514-8.84 4.394 0 7.488 3.406 7.488 8.84v.832c0 5.538-3.094 8.84-7.488 8.84-4.42 0-7.514-3.302-7.514-8.84zm11.258.13c0-3.744-1.534-5.798-3.744-5.798-2.236 0-3.77 2.054-3.77 5.798v.572c0 3.77 1.534 5.798 3.77 5.798 2.21 0 3.744-2.028 3.744-5.798zm10.328 7.384c0-1.274.936-2.184 2.21-2.184 1.248 0 2.21.91 2.21 2.184 0 1.248-.962 2.158-2.21 2.158-1.274 0-2.21-.91-2.21-2.158m10.966-7.514c0-5.434 3.094-8.84 7.514-8.84 4.394 0 7.488 3.406 7.488 8.84v.832c0 5.538-3.094 8.84-7.488 8.84-4.42 0-7.514-3.302-7.514-8.84zm11.258.13c0-3.744-1.534-5.798-3.744-5.798-2.236 0-3.77 2.054-3.77 5.798v.572c0 3.77 1.534 5.798 3.77 5.798 2.21 0 3.744-2.028 3.744-5.798zm14.926-8.814h3.666v18.2h-3.744v-11.778c-.286.078-.598.104-.988.104h-3.042v-3.094h2.704c1.04 0 1.404-.702 1.404-1.768zm12.213 16.198c0-1.274.936-2.184 2.21-2.184 1.248 0 2.21.91 2.21 2.184 0 1.248-.962 2.158-2.21 2.158-1.274 0-2.21-.91-2.21-2.158m18.865-6.604c1.586-1.3 2.574-2.392 2.574-3.874 0-1.794-1.17-2.73-2.834-2.73-1.742 0-2.938 1.196-2.938 3.172v.286h-3.77v-.52c0-3.432 2.574-6.084 6.734-6.084 4.264 0 6.578 2.314 6.578 5.72 0 2.678-1.456 4.316-3.744 6.162l-4.082 3.328h7.93v3.146h-13.364v-2.886zm13.989-.91c0-5.434 3.094-8.84 7.514-8.84 4.394 0 7.488 3.406 7.488 8.84v.832c0 5.538-3.094 8.84-7.488 8.84-4.42 0-7.514-3.302-7.514-8.84zm11.258.13c0-3.744-1.534-5.798-3.744-5.798-2.236 0-3.77 2.054-3.77 5.798v.572c0 3.77 1.534 5.798 3.77 5.798 2.21 0 3.744-2.028 3.744-5.798zm18.071.78c1.586-1.3 2.574-2.392 2.574-3.874 0-1.794-1.17-2.73-2.834-2.73-1.742 0-2.938 1.196-2.938 3.172v.286h-3.77v-.52c0-3.432 2.574-6.084 6.734-6.084 4.264 0 6.578 2.314 6.578 5.72 0 2.678-1.456 4.316-3.744 6.162l-4.082 3.328h7.93v3.146h-13.364v-2.886zm21.711-3.796c3.484 0 6.136 2.522 6.136 6.24 0 4.186-3.12 6.318-6.89 6.318-4.212 0-6.812-2.678-6.968-6.006h3.718c.182 1.638 1.43 2.938 3.25 2.938 1.586 0 3.12-1.092 3.12-3.25 0-1.898-1.222-3.276-3.12-3.276-.962 0-2.522.364-3.068 1.898H253.5l.52-10.66h11.96v3.146h-8.554l-.208 3.978c.91-.832 2.106-1.326 3.718-1.326"/>
    <g filter="url(#f)">
      <path fill="#FFEB5F" d="M345.748 13.532c-1.05 1.746-2.772 1.164-3.501.437-1.75 0-.729 1.164 0 1.746.729.436 2.626 1.047 4.376 0 2.188-1.31 2.188-5.675 0-7.421s-5.689-2.183-8.752.873c0-2.183-1.312-5.675-5.688-5.675H129V0h207.996C348.596 0 358 9.381 358 20.953V179.5h-2.625V30.12c0-7.858-3.064-9.167-7.439-9.603-4.376-.437-9.19-3.056-9.19-6.548s1.751-5.239 4.376-5.239 3.939 2.62 2.626 4.802"/>
    </g>
    <g filter="url(#g)">
      <path fill="#FFEB5F" d="M12.252 13.532c1.05 1.746 2.772 1.164 3.5.437 1.751 0 .73 1.164 0 1.746-.728.436-2.625 1.047-4.375 0-2.188-1.31-2.188-5.675 0-7.421s5.689-2.183 8.752.873c0-2.183 1.312-5.675 5.688-5.675H229V0H21.004C9.404 0 0 9.381 0 20.953V177.5h2.625V30.12c0-7.858 3.064-9.167 7.44-9.603 4.375-.437 9.189-3.056 9.189-6.548s-1.75-5.239-4.376-5.239-3.938 2.62-2.626 4.802"/>
    </g>
    <g clip-path="url(#h)">
      <mask id="i" width="358" height="59" x="0" y="143" maskUnits="userSpaceOnUse" style="mask-type:alpha">
        <path fill="#C33811" d="M0 143.794h358v36.836c0 11.444-9.277 20.721-20.72 20.721H20.72C9.277 201.351 0 192.074 0 180.63z"/>
      </mask>
      <g stroke="#DC9A38" stroke-width=".555" mask="url(#i)">
        <path fill="#fff" stroke-linejoin="round" d="M309.836 176.716c.347-5.341 10.332-5.464 11.049-.685 3.292-3.102 11.36-3.794 16.851 2.925 4.506 5.514 2.062 17.392-5.372 16.885-12.65-.861-24.709 1.891-27.207 6.031-3.119 5.169-6.412 6.892-10.051 6.892H277.95c-5.892 0-8.838-1.034-3.466-1.379 7.452 0 9.296-4.184 12.997-7.581 4.506-4.135 10.051-2.067 9.878-6.03s4.852-7.237 8.665-6.548 5.892-1.378 5.892-2.929c0-2.993-2.946-2.756-2.426-2.067.866.172 1.906 1.674 0 2.88-2.253 1.425-5.719-.055-5.719-3.569 0-3.274 2.778-5.51 6.065-4.825Z"/>
        <path fill="#fff" stroke-linejoin="round" d="M259.003 207.38h52.087c-5.923-22.642-42.8-25.732-52.087 0Z"/>
        <path fill="#fff" stroke-linejoin="round" d="M263.782 205.469h39.184c-4.456-16.684-32.198-18.961-39.184 0Z"/>
        <path fill="#fff" stroke-linejoin="round" d="M265.215 205.469h33.928c-3.858-14.3-27.879-16.252-33.928 0Z"/>
        <path fill="#fff" stroke-linejoin="round" d="M330.443 186.489c0-2.796-2.053-3.333-3.267-3.275-.795 0-.556-.852.161-.852 1.672-.173 5.295.942 4.778 4.844-.63 4.756-5.613 7.302-14.096 3.106-4.086-2.02-13.619 2.629-11.312 9.661-8.326-2.619-14.05 3.958-14.05 8.903 0 4.362-11.102 3.491-11.102 3.491 1.214 1.746 12.863 12.604 21.856 11.98 11.728-.814 27.641.352 39.376-1.571 11.449-1.876 15.265-25.596 15.786-31.008l.002-.023c.523-5.439 2.271-23.621-13.318-26.759-12.49-2.514-16.464 5.698-15.77 8.84-12.489-3.666-14.813 10.274-9.557 14.336 4.001 3.092 10.513 2.15 10.513-1.673Z"/>
        <path stroke-linecap="round" d="M337.133 180.755c-.956-3.345-5.018-6.212-7.885-6.929"/>
        <path d="M306.55 196.524c-.478 2.629.334 4.397 2.628 5.735 2.867 1.672 5.495.478 5.973-1.434"/>
        <path fill="#fff" stroke-linejoin="round" d="M45.617 176.716c-.346-5.341-10.332-5.464-11.048-.685-3.293-3.102-11.36-3.794-16.852 2.925-4.506 5.514-2.062 17.392 5.372 16.885 12.65-.861 24.71 1.891 27.207 6.031 3.12 5.169 6.412 6.892 10.051 6.892h17.156c5.892 0 8.838-1.034 3.466-1.379-7.452 0-9.295-4.184-12.997-7.581-4.506-4.135-10.051-2.067-9.878-6.03s-4.852-7.237-8.664-6.548c-3.813.69-5.892-1.378-5.892-2.929 0-2.993 2.946-2.756 2.426-2.067-.867.172-1.906 1.674 0 2.88 2.253 1.425 5.718-.055 5.718-3.569 0-3.274-2.778-5.51-6.065-4.825Z"/>
        <path fill="#fff" stroke-linejoin="round" d="M96.45 207.38H44.365c5.923-22.642 42.8-25.732 52.087 0Z"/>
        <path fill="#fff" stroke-linejoin="round" d="M91.672 205.469H52.487c4.456-16.684 32.198-18.961 39.185 0Z"/>
        <path fill="#fff" stroke-linejoin="round" d="M90.238 205.469H56.31c3.858-14.3 27.88-16.252 33.928 0Z"/>
        <path fill="#fff" stroke-linejoin="round" d="M25.01 186.489c0-2.796 2.053-3.333 3.268-3.275.794 0 .555-.852-.161-.852-1.673-.173-5.296.942-4.779 4.844.63 4.756 5.613 7.302 14.097 3.106 4.085-2.02 13.619 2.629 11.311 9.661 8.326-2.619 14.05 3.958 14.05 8.903 0 4.362 11.102 3.491 11.102 3.491-1.214 1.746-12.862 12.604-21.856 11.98-11.727-.814-27.64.352-39.376-1.571C1.217 220.9-2.599 197.18-3.119 191.768l-.002-.023c-.523-5.439-2.272-23.621 13.318-26.759 12.49-2.514 16.463 5.698 15.77 8.84 12.489-3.666 14.813 10.274 9.556 14.336-4 3.092-10.513 2.15-10.513-1.673Z"/>
        <path stroke-linecap="round" d="M18.32 180.755c.956-3.345 5.018-6.212 7.885-6.929"/>
        <path d="M48.904 196.524c.477 2.629-.335 4.397-2.629 5.735-2.867 1.672-5.495.478-5.973-1.434"/>
      </g>
    </g>
  </g>
  <defs>
    <clipPath id="a">
      <rect width="358" height="201" fill="#fff" rx="23.023"/>
    </clipPath>
    <clipPath id="b">
      <path fill="#fff" d="M-41 18h284v177H-41z"/>
    </clipPath>
    <clipPath id="d">
      <path fill="#fff" d="M229-50h284v177H229z"/>
    </clipPath>
    <clipPath id="h">
      <path fill="#fff" d="M0 143.794h358v57.556H0z"/>
    </clipPath>
    <filter id="f" width="229" height="180.407" x="129" y="0" color-interpolation-filters="sRGB" filterUnits="userSpaceOnUse">
      <feFlood flood-opacity="0" result="BackgroundImageFix"/>
      <feBlend in="SourceGraphic" in2="BackgroundImageFix" result="shape"/>
      <feColorMatrix in="SourceAlpha" result="hardAlpha" values="0 0 0 0 0 0 0 0 0 0 0 0 0 0 0 0 0 0 127 0"/>
      <feOffset dy=".907"/>
      <feGaussianBlur stdDeviation=".453"/>
      <feComposite in2="hardAlpha" k2="-1" k3="1" operator="arithmetic"/>
      <feColorMatrix values="0 0 0 0 0.992157 0 0 0 0 0.929412 0 0 0 0 0.835294 0 0 0 1 0"/>
      <feBlend in2="shape" result="effect1_innerShadow_14_16437"/>
    </filter>
    <filter id="g" width="229" height="178.407" x="0" y="0" color-interpolation-filters="sRGB" filterUnits="userSpaceOnUse">
      <feFlood flood-opacity="0" result="BackgroundImageFix"/>
      <feBlend in="SourceGraphic" in2="BackgroundImageFix" result="shape"/>
      <feColorMatrix in="SourceAlpha" result="hardAlpha" values="0 0 0 0 0 0 0 0 0 0 0 0 0 0 0 0 0 0 127 0"/>
      <feOffset dy=".907"/>
      <feGaussianBlur stdDeviation=".453"/>
      <feComposite in2="hardAlpha" k2="-1" k3="1" operator="arithmetic"/>
      <feColorMatrix values="0 0 0 0 0.992157 0 0 0 0 0.929412 0 0 0 0 0.835294 0 0 0 1 0"/>
      <feBlend in2="shape" result="effect1_innerShadow_14_16437"/>
    </filter>
  </defs>
</svg>
