<svg xmlns="http://www.w3.org/2000/svg" width="31" height="37" fill="none" viewBox="0 0 31 37">
  <path fill="#5FCE70" stroke="#0033C9" d="m26.165 35.45.46.225.214-.467 2.588-5.655.202-.443-.437-.215c-4.117-2.015-8.665-3.082-13.214-3.082q-.833-.002-1.672.037L29.389 7.212l.24-.297-.224-.31-3.544-4.898-.246-.34-.378.184c-6.5 3.168-13.931 3.168-20.402 0l-.46-.226-.214.467-2.588 5.655-.202.443.437.215c4.118 2.015 8.665 3.082 13.214 3.082a35 35 0 0 0 1.672-.037L1.611 29.788l-.24.297.224.31 3.544 4.898.246.34.378-.184c6.5-3.168 13.931-3.168 20.401 0Z"/>
</svg>
