<svg xmlns="http://www.w3.org/2000/svg" width="100" height="23" fill="none" viewBox="0 0 100 23" xmlns:xlink="http://www.w3.org/1999/xlink">
  <g clip-path="url(#a)">
    <path fill="#0033C9" d="M13.536 2.867c.41-.546.475-1.265.17-1.876A1.78 1.78 0 0 0 12.101 0H0v3.492h8.703L.4 14.566a1.78 1.78 0 0 0-.17 1.875c.306.611.92.99 1.602.99h12.104v-3.492H5.234zm31.584.619c-3.843 0-6.971 3.129-6.971 6.973 0 3.845 3.128 6.974 6.971 6.974s6.972-3.13 6.972-6.974-3.128-6.973-6.972-6.973m0 10.453a3.486 3.486 0 0 1-3.48-3.482c0-1.92 1.56-3.482 3.48-3.482a3.485 3.485 0 0 1 3.481 3.482c0 1.92-1.56 3.482-3.48 3.482Z"/>
    <path fill="#00CF6A" d="M61.658 3.486c-3.845 0-6.971 3.129-6.971 6.973v12.197h3.49v-6.163a6.9 6.9 0 0 0 3.481.94c3.846 0 6.972-3.13 6.972-6.974s-3.128-6.973-6.972-6.973m0 10.453a3.486 3.486 0 0 1-3.48-3.482 3.486 3.486 0 0 1 3.48-3.482 3.486 3.486 0 0 1 3.481 3.482c0 1.92-1.56 3.482-3.48 3.482ZM96.2 3.49l-3.713 8.664L88.96 3.49h-3.77l5.364 13.178-2.567 5.988h3.8L100 3.49zM83.864 13.939V3.486h-3.497V4.76a6.4 6.4 0 0 0-3.798-1.258c-3.666 0-6.637 3.118-6.637 6.964s2.973 6.964 6.637 6.964c1.716 0 3.274-.69 4.452-1.81a4 4 0 0 0 3.345 1.812h1.235v-3.494h-1.74.003Zm-6.97 0a3.473 3.473 0 0 1-3.473-3.474 3.473 3.473 0 1 1 6.946 0 3.473 3.473 0 0 1-3.473 3.474"/>
    <path fill="#0033C9" d="M29.173 13.939V3.486h-3.496V4.76a6.4 6.4 0 0 0-3.798-1.258c-3.667 0-6.637 3.118-6.637 6.964s2.972 6.964 6.637 6.964c1.715 0 3.274-.69 4.452-1.81a4 4 0 0 0 3.345 1.812h1.235v-3.494h-1.74.002Zm-6.967 0a3.473 3.473 0 0 1-3.473-3.474 3.473 3.473 0 1 1 6.946 0 3.473 3.473 0 0 1-3.473 3.474m13.527-.002V0h-3.498v13.427c0 2.21 1.79 4.004 4 4.004h1.248v-3.496H35.73z"/>
  </g>
  <defs>
    <clipPath id="a">
      <path fill="#fff" d="M0 0h100v22.656H0z"/>
    </clipPath>
  </defs>
</svg>
