<svg width="157" height="48" viewBox="0 0 157 48" fill="none" xmlns="http://www.w3.org/2000/svg">
<path d="M5.13809 6.69798C5.49018 6.93623 5.76505 7.27272 5.92875 7.66592C6.19978 8.3348 6.32123 9.05521 6.28454 9.77633V29.611C6.32468 31.2279 5.96042 32.829 5.22506 34.2682C4.66291 35.3991 3.74622 36.3133 2.61589 36.8705C2.60121 36.8705 2.58714 36.8764 2.57676 36.8868C2.56638 36.8972 2.56055 36.9114 2.56055 36.9261C2.56055 36.9408 2.56638 36.9549 2.57676 36.9654C2.58714 36.9758 2.60121 36.9816 2.61589 36.9816C4.0425 36.9927 5.45324 36.6809 6.74312 36.0692C7.74724 35.432 8.56556 34.5397 9.11509 33.4828C9.7235 32.3414 10.0336 31.064 10.0164 29.7697V9.77633C9.98164 9.05745 10.0947 8.33907 10.3485 7.66592C10.5085 7.27047 10.7842 6.93298 11.1392 6.69798C11.2484 6.63208 11.362 6.57376 11.4792 6.52344H4.79811C4.91682 6.57038 5.03069 6.62884 5.13809 6.69798Z" fill="black"/>
<path d="M34.3117 28.7938C33.4729 29.2496 32.5296 29.4766 31.5761 29.4524H25.1006V7.93567H30.9752C33.0941 7.93567 34.3196 8.72906 34.7861 10.0619V6.52344H19.9297C20.0356 6.57108 20.1362 6.62957 20.2301 6.69798C20.5892 6.96287 20.8639 7.32669 21.0208 7.74526C21.2761 8.45111 21.389 9.20085 21.3529 9.95088V27.3261C21.3893 28.1124 21.2766 28.8986 21.0208 29.6428C20.8727 30.0704 20.5965 30.4417 20.2301 30.7059C20.1417 30.7653 20.0492 30.8183 19.9534 30.8646H35.3159L35.9484 27.1119C35.5847 27.8256 35.0141 28.412 34.3117 28.7938Z" fill="black"/>
<path d="M71.0851 7.26129C71.317 6.90556 71.6673 6.64406 72.0735 6.52344H66.5389L58.0709 26.3026L49.429 6.52344H44.5586C45.0301 6.65951 45.4492 6.93621 45.7604 7.31683C46.232 7.99713 46.4426 8.82555 46.3534 9.64939V27.3658C46.4504 28.3132 46.2277 29.2659 45.7209 30.0712C45.4374 30.4635 45.0263 30.7442 44.5586 30.8646H49.8876C49.4373 30.7386 49.0455 30.4578 48.7807 30.0712C48.2929 29.273 48.0765 28.3376 48.164 27.4054V9.95088L57.5412 31.2534L66.784 9.83187V27.5244C66.8648 28.4088 66.692 29.298 66.2858 30.0871C66.0918 30.459 65.7638 30.7427 65.3687 30.8805H72.0735C71.6679 30.7631 71.3174 30.5043 71.0851 30.1505C70.6607 29.4137 70.4782 28.5616 70.5633 27.7148V9.73666C70.4783 8.87726 70.6606 8.01253 71.0851 7.26129Z" fill="black"/>
<path d="M107.693 7.26129C107.923 6.9041 108.274 6.64215 108.681 6.52344H103.146L94.6706 26.3026L86.0366 6.52344H81.1583C81.6298 6.65951 82.0489 6.93621 82.3601 7.31683C82.8384 7.9942 83.0523 8.82425 82.961 9.64939V27.3658C83.058 28.3132 82.8353 29.2659 82.3284 30.0712C82.0421 30.4641 81.6283 30.7446 81.1583 30.8646H86.4952C86.044 30.7405 85.6516 30.4592 85.3883 30.0712C84.8967 29.2746 84.68 28.3379 84.7716 27.4054V9.95088L94.1409 31.3248L103.384 9.90327V27.5958C103.461 28.4792 103.292 29.3668 102.893 30.1585C102.699 30.5304 102.371 30.8141 101.976 30.9519H108.681C108.263 30.8194 107.91 30.5332 107.693 30.1505C107.265 29.415 107.079 28.5625 107.163 27.7148V9.73666C107.079 8.87637 107.264 8.01127 107.693 7.26129Z" fill="black"/>
<path d="M123.314 7.66592C123.483 7.27594 123.757 6.94081 124.105 6.69798C124.213 6.63042 124.327 6.57203 124.445 6.52344H117.771C117.887 6.57274 117.998 6.6311 118.104 6.69798C118.46 6.93107 118.736 7.26916 118.894 7.66592C119.15 8.34967 119.263 9.07874 119.226 9.80806V27.572C119.265 28.3036 119.143 29.0347 118.87 29.7142C118.683 30.2206 118.306 30.6335 117.819 30.8646H124.468L124.128 30.69C123.778 30.446 123.504 30.1077 123.338 29.7142C123.065 29.0347 122.943 28.3036 122.982 27.572V9.80806C122.943 9.07652 123.065 8.34538 123.338 7.66592" fill="black"/>
<path d="M147.302 30.8663H154.418C153.97 30.7136 153.573 30.4389 153.272 30.0729C152.611 29.3032 152.101 28.4148 151.77 27.4548L142.653 5.39062L132.375 27.3675C131.996 28.3755 131.463 29.3179 130.793 30.1602C130.343 30.6362 130.003 30.8663 129.766 30.8663H135.3C134.975 30.7345 134.698 30.5037 134.509 30.2064C134.321 29.9091 134.23 29.5601 134.249 29.2081C134.284 28.4621 134.461 27.7297 134.77 27.0501L136.771 22.3374H145.595L147.547 27.431C147.861 28.0997 148.052 28.8202 148.109 29.5572C148.118 29.8309 148.046 30.1012 147.903 30.3342C147.759 30.5671 147.55 30.7523 147.302 30.8663ZM137.593 20.4967L141.436 12.063L144.93 20.4967H137.593Z" fill="black"/>
<path d="M35.9499 18.1723V18.7038C34.5505 18.9339 33.2617 19.2751 32.8426 19.6876C32.4236 20.1002 32.0915 21.4172 31.8543 22.8612H31.3404C31.1111 21.4569 30.7711 20.1478 30.3521 19.6876C29.933 19.2275 28.6284 18.8942 27.1895 18.6959V18.1802C28.5968 17.9501 29.9014 17.6089 30.3521 17.1885C30.8028 16.768 31.1427 15.4668 31.3404 14.0625H31.8701C32.0994 15.4668 32.4394 16.768 32.8506 17.1885C33.2617 17.6089 34.5584 17.9422 35.9578 18.1723" fill="black"/>
<path d="M41.1274 44.4256H40.2656V37.5469H44.0844V38.3403H41.1274V40.768H43.9026V41.5217H41.1274V44.4256Z" fill="black"/>
<path d="M47.7762 44.4256H46.8906V37.5469H47.7445L47.7762 44.4256Z" fill="black"/>
<path d="M56.7419 44.4256H55.7378L52.0849 38.737V39.1178C52.0849 39.689 52.1403 40.1809 52.1403 40.5935V44.4256H51.3496V37.5469H52.3458L52.5514 37.8801L54.7969 41.3551L55.9829 43.2117C55.9829 43.1323 55.9829 42.8705 55.9829 42.4183C55.9829 41.966 55.9829 41.6249 55.9829 41.4186V37.5469H56.7735L56.7419 44.4256Z" fill="black"/>
<path d="M63.8422 44.4256H60.0312V37.5469H63.8422V38.3403H60.8852V40.4586H63.6683V41.2044H60.8852V43.6322H63.8422V44.4256Z" fill="black"/>
<path d="M69.7252 46.2107C69.4841 46.2214 69.2437 46.1781 69.0215 46.0837V45.3617C69.2452 45.4256 69.4768 45.4576 69.7094 45.457C69.8405 45.4658 69.972 45.4447 70.0939 45.3952C70.2158 45.3458 70.3249 45.2692 70.413 45.1713C70.5744 44.9394 70.655 44.6605 70.6423 44.3779V37.5469H71.5041V44.2827C71.5393 44.8002 71.3752 45.3114 71.0456 45.7108C70.8737 45.8838 70.667 46.0178 70.4392 46.104C70.2115 46.1902 69.968 46.2266 69.7252 46.2107Z" fill="black"/>
<path d="M78.5176 44.4256H74.7383V37.5469H78.5176V38.3403H75.5922V40.4586H78.3753V41.2044H75.5922V43.6322H78.5176V44.4256Z" fill="black"/>
<path d="M87.5072 44.4335H86.6374L85.3091 39.9429C85.1665 39.5007 85.0504 39.0503 84.9612 38.5941C84.8871 39.0617 84.7787 39.5231 84.6371 39.9746L83.3483 44.4335H82.4707L80.668 37.5865H81.5614L82.6209 41.7677C82.7607 42.2896 82.869 42.8195 82.9451 43.3545C83.0276 42.7861 83.1491 42.2241 83.3088 41.6725L84.5185 37.5469H85.404L86.6611 41.7042C86.8196 42.2459 86.9437 42.7971 87.0328 43.3545C87.1045 42.8024 87.2155 42.2563 87.3648 41.7201L88.4164 37.5469H89.3098L87.5072 44.4335Z" fill="black"/>
<path d="M95.6176 44.4256H91.8066V37.5469H95.6176V38.3403H92.6685V40.4586H95.4437V41.2044H92.6685V43.6322H95.6176V44.4256Z" fill="black"/>
<path d="M98.5605 44.4256V37.5469H99.4145V43.6322H102.395V44.4256H98.5605Z" fill="black"/>
<path d="M105.858 41.5705V44.4346H104.996V37.5559H106.878C107.541 37.5043 108.203 37.6745 108.76 38.0399C108.968 38.2187 109.131 38.4439 109.237 38.6973C109.342 38.9508 109.387 39.2256 109.368 39.4997C109.385 39.9163 109.257 40.3258 109.008 40.6595C108.759 40.9932 108.404 41.2308 108.001 41.3325L109.867 44.4346H108.862L107.218 41.6022L105.858 41.5705ZM105.858 40.8406H106.878C107.306 40.8759 107.734 40.7609 108.088 40.5153C108.221 40.3925 108.326 40.2409 108.393 40.0719C108.46 39.9029 108.488 39.7208 108.475 39.5394C108.49 39.3624 108.463 39.1843 108.396 39.02C108.328 38.8557 108.223 38.7101 108.088 38.5953C107.71 38.3676 107.27 38.2649 106.83 38.3017H105.858V40.8406Z" fill="black"/>
<path d="M114.153 40.9108L115.932 37.5469H116.857L114.588 41.736V44.4256H113.718V41.8074L111.449 37.5786H112.39L114.153 40.9108Z" fill="black"/>
</svg>
