<svg width="512" height="163" viewBox="0 0 512 163" fill="none" xmlns="http://www.w3.org/2000/svg">
<path d="M71.3792 65C72.2432 48.584 72.2432 31.016 71.3792 14.6H83.9072C92.6912 14.6 100.971 16.832 100.971 27.128C100.971 32.024 96.8672 35.984 93.4112 37.64C98.6672 38.936 103.851 42.68 103.851 50.096C103.851 62.12 93.9872 65 83.6912 65H71.3792ZM83.7632 35.768C88.1552 35.768 93.4832 34.184 93.4832 27.128C93.4832 19.712 88.1552 18.776 83.7632 18.776H80.2352L79.9472 35.768H83.7632ZM84.1232 60.824C89.3792 60.824 95.8592 58.808 95.8592 50.096C95.8592 41.312 88.8752 39.944 83.7632 39.944H79.8752C79.8752 47.504 80.0192 53.264 80.2352 60.824H84.1232ZM133.436 80.192C130.7 80.192 129.044 78.536 129.044 75.8C129.044 72.992 130.7 71.336 133.436 71.336C136.244 71.336 137.9 72.992 137.9 75.8C137.9 78.536 136.244 80.192 133.436 80.192ZM130.196 0.559997H136.748L144.38 11.072H138.62L133.436 4.52L128.252 11.072H122.636L130.196 0.559997ZM133.508 65.432C116.732 65.432 109.244 52.832 109.244 39.8C109.244 26.768 116.732 14.168 133.508 14.168C150.212 14.168 157.7 26.768 157.7 39.8C157.7 52.832 150.212 65.432 133.508 65.432ZM133.508 61.472C145.532 61.472 148.844 49.52 148.844 39.8C148.844 30.008 145.532 18.056 133.508 18.056C121.844 18.056 118.172 29.288 118.172 39.8C118.172 49.52 121.484 61.472 133.508 61.472ZM196.88 65.288C191.408 65.432 184.496 64.352 180.464 62.408L182.48 55.856C186.152 58.808 191.264 60.824 196.304 60.608C202.64 60.464 206.384 57.656 206.384 52.256C206.384 40.088 180.392 43.616 180.392 26.912C180.392 17.768 188.456 14.6 196.88 14.24C202.136 14.024 208.04 15.032 211.784 16.76L209.624 22.808C206.024 20.36 201.488 18.848 196.736 18.992C192.344 19.136 188.168 20.936 188.168 26.048C188.168 36.704 213.944 34.112 213.944 50.672C213.944 60.968 205.736 65.072 196.88 65.288ZM241.008 65.216C227.04 65.216 221.208 58.664 221.352 45.416C221.496 34.616 221.352 25.184 220.776 14.6H229.776C229.344 25.328 229.272 34.832 229.344 45.488C229.416 52.976 229.632 60.968 241.008 60.968C252.312 60.968 252.456 52.976 252.6 45.488C252.672 34.832 252.528 25.328 252.168 14.6H254.688C259.656 14.6 261.168 11 261.168 7.472H267.576C267.576 11.864 265.344 15.536 260.952 17.12C260.52 26.696 260.376 35.48 260.52 45.416C260.664 58.664 254.832 65.216 241.008 65.216ZM289.243 65.216C275.275 65.216 269.443 58.664 269.587 45.416C269.731 34.616 269.587 25.184 269.011 14.6H278.011C277.579 25.328 277.507 34.832 277.579 45.488C277.651 52.976 277.867 60.968 289.243 60.968C300.547 60.968 300.691 52.976 300.835 45.488C300.907 34.832 300.763 25.328 300.403 14.6H309.331C308.755 25.184 308.611 34.616 308.755 45.416C308.899 58.664 303.067 65.216 289.243 65.216ZM346.367 65C347.087 49.736 347.231 34.184 346.583 19.208C341.471 19.424 336.431 20 332.039 21.008L332.759 14.6H368.975L369.695 21.008C365.159 20 360.335 19.424 355.223 19.208C354.719 34.4 354.863 49.88 355.367 65H346.367ZM387.364 79.472C384.628 79.472 382.972 77.816 382.972 75.08C382.972 72.272 384.628 70.616 387.364 70.616C390.172 70.616 391.828 72.272 391.828 75.08C391.828 77.816 390.172 79.472 387.364 79.472ZM385.276 0.559997H391.828L399.46 11.072H393.7L388.516 4.52L383.332 11.072H377.716L385.276 0.559997ZM395.644 47.792C393.052 40.232 390.172 32.528 387.292 25.328C384.772 32.168 381.748 40.232 379.156 47.792H395.644ZM365.404 65C371.812 49.592 379.228 33.176 384.556 18.704C383.908 17.264 383.332 15.896 382.612 14.6H392.116C396.364 27.056 405.292 51.896 410.908 65H401.332C400.108 61.04 398.74 56.72 397.228 52.256H377.716C376.204 56.864 374.908 61.328 374.116 65H365.404ZM414.856 65C415.72 48.08 415.72 31.16 414.856 14.6H426.52C436.744 14.6 445.888 17.912 445.888 29.936C445.888 41.96 436.888 45.488 426.88 45.488H423.424C423.496 51.896 423.64 58.52 423.856 65H414.856ZM426.952 41.24C432.136 41.24 438.04 38.72 438.04 29.936C438.04 21.296 432.136 18.776 426.952 18.776H423.784C423.496 26.264 423.424 33.824 423.424 41.24H426.952ZM16.7391 151.288C11.2671 151.432 4.35509 150.352 0.323094 148.408L2.33909 141.856C6.01109 144.808 11.1231 146.824 16.1631 146.608C22.4991 146.464 26.2431 143.656 26.2431 138.256C26.2431 126.088 0.251094 129.616 0.251094 112.912C0.251094 103.768 8.31509 100.6 16.7391 100.24C21.9951 100.024 27.8991 101.032 31.6431 102.76L29.4831 108.808C25.8831 106.36 21.3471 104.848 16.5951 104.992C12.2031 105.136 8.02709 106.936 8.02709 112.048C8.02709 122.704 33.8031 120.112 33.8031 136.672C33.8031 146.968 25.5951 151.072 16.7391 151.288ZM50.1398 146.536C57.9158 146.536 65.9798 146.248 72.2438 144.304L71.3798 151H41.3558C42.1478 134.008 42.1478 117.16 41.3558 100.6H70.1558L70.8038 106.936C64.4678 105.496 57.5558 105.064 50.1398 105.064C49.9238 109.456 49.8518 115.72 49.7798 122.272H65.4758L64.6118 126.664H49.8518C49.8518 134.224 49.9958 141.64 50.1398 146.536ZM79.9056 151C80.6976 135.952 80.7696 120.76 80.1216 105.424L76.9536 100.6H88.5456L113.386 139.12C113.674 126.52 113.458 113.416 112.81 100.6H119.506C118.93 117.232 118.858 134.08 119.506 151H111.802C103.882 138.112 95.3136 124.576 86.3856 112.408C86.1696 124.72 86.5296 138.544 87.0336 151H79.9056ZM234.616 147.544C246.64 147.544 250.024 135.52 250.024 125.8C250.024 116.008 246.64 104.056 234.616 104.056C223.096 104.056 219.28 115.288 219.28 125.8C219.28 135.52 222.664 147.544 234.616 147.544ZM255.136 162.952C249.232 159.928 243.544 153.736 238.36 152.008C236.776 151.432 235.48 151.432 234.616 151.432C217.912 151.432 210.424 138.832 210.424 125.8C210.424 112.768 217.912 100.168 234.616 100.168C251.392 100.168 258.88 112.768 258.88 125.8C258.88 136.384 253.912 146.68 243.04 150.136C249.88 152.224 255.64 156.328 261.832 158.632L255.136 162.952ZM286.008 151.216C272.04 151.216 266.208 144.664 266.352 131.416C266.496 120.616 266.352 111.184 265.776 100.6H274.776C274.344 111.328 274.272 120.832 274.344 131.488C274.416 138.976 274.632 146.968 286.008 146.968C297.312 146.968 297.456 138.976 297.6 131.488C297.672 120.832 297.528 111.328 297.168 100.6H306.096C305.52 111.184 305.376 120.616 305.52 131.416C305.664 144.664 299.832 151.216 286.008 151.216ZM332.299 86.56H340.435L331.363 97.072H325.387L332.299 86.56ZM324.307 151C324.667 143.584 324.883 134.8 324.883 127.168C320.059 118.24 314.731 108.52 309.331 100.6H320.059C322.651 105.856 326.755 114.64 330.139 120.328C333.523 114.64 337.123 106.72 340.075 100.6H347.635C343.027 107.584 337.267 118.024 332.803 126.592C332.803 134.368 332.947 143.512 333.163 151H324.307ZM406.04 100.6C405.392 117.448 405.536 134.296 406.04 151H397.184C397.544 142.576 397.76 134.872 397.76 127.24H376.736C376.808 134.8 376.952 142.432 377.24 151H368.168C369.104 134.008 369.104 117.16 368.168 100.6H377.24C376.952 108.592 376.808 115.792 376.736 122.848H397.76C397.76 115.72 397.544 108.448 397.184 100.6H406.04ZM415.418 151C416.282 134.008 416.282 117.16 415.418 100.6H424.418C423.77 117.448 423.914 134.296 424.418 151H415.418ZM457.17 90.232C457.098 85.768 462.066 84.616 462.066 81.304C462.066 79 460.698 78.352 458.682 78.28C457.098 78.208 454.722 79.864 453.642 81.376L452.778 77.128C454.866 75.688 457.674 74.896 460.338 74.896C463.506 74.896 467.178 76.192 467.178 80.728C467.178 86.128 461.13 86.488 460.842 90.232H457.17ZM444.714 86.56H451.266L458.898 97.072H453.138L447.954 90.52L442.77 97.072H437.154L444.714 86.56ZM442.554 146.536C450.33 146.536 458.394 146.248 464.658 144.304L463.794 151H433.77C434.562 134.008 434.562 117.16 433.77 100.6H462.57L463.218 106.936C456.882 105.496 449.97 105.064 442.554 105.064C442.338 109.456 442.266 115.72 442.194 122.272H457.89L457.026 126.664H442.266C442.266 134.224 442.41 141.64 442.554 146.536ZM472.32 151C473.112 135.952 473.184 120.76 472.536 105.424L469.368 100.6H480.96L505.8 139.12C506.088 126.52 505.872 113.416 505.224 100.6H511.92C511.344 117.232 511.272 134.08 511.92 151H504.216C496.296 138.112 487.728 124.576 478.8 112.408C478.584 124.72 478.944 138.544 479.448 151H472.32Z" fill="url(#paint0_linear_2045_2437)"/>
<path d="M71.3792 65C72.2432 48.584 72.2432 31.016 71.3792 14.6H83.9072C92.6912 14.6 100.971 16.832 100.971 27.128C100.971 32.024 96.8672 35.984 93.4112 37.64C98.6672 38.936 103.851 42.68 103.851 50.096C103.851 62.12 93.9872 65 83.6912 65H71.3792ZM83.7632 35.768C88.1552 35.768 93.4832 34.184 93.4832 27.128C93.4832 19.712 88.1552 18.776 83.7632 18.776H80.2352L79.9472 35.768H83.7632ZM84.1232 60.824C89.3792 60.824 95.8592 58.808 95.8592 50.096C95.8592 41.312 88.8752 39.944 83.7632 39.944H79.8752C79.8752 47.504 80.0192 53.264 80.2352 60.824H84.1232ZM133.436 80.192C130.7 80.192 129.044 78.536 129.044 75.8C129.044 72.992 130.7 71.336 133.436 71.336C136.244 71.336 137.9 72.992 137.9 75.8C137.9 78.536 136.244 80.192 133.436 80.192ZM130.196 0.559997H136.748L144.38 11.072H138.62L133.436 4.52L128.252 11.072H122.636L130.196 0.559997ZM133.508 65.432C116.732 65.432 109.244 52.832 109.244 39.8C109.244 26.768 116.732 14.168 133.508 14.168C150.212 14.168 157.7 26.768 157.7 39.8C157.7 52.832 150.212 65.432 133.508 65.432ZM133.508 61.472C145.532 61.472 148.844 49.52 148.844 39.8C148.844 30.008 145.532 18.056 133.508 18.056C121.844 18.056 118.172 29.288 118.172 39.8C118.172 49.52 121.484 61.472 133.508 61.472ZM196.88 65.288C191.408 65.432 184.496 64.352 180.464 62.408L182.48 55.856C186.152 58.808 191.264 60.824 196.304 60.608C202.64 60.464 206.384 57.656 206.384 52.256C206.384 40.088 180.392 43.616 180.392 26.912C180.392 17.768 188.456 14.6 196.88 14.24C202.136 14.024 208.04 15.032 211.784 16.76L209.624 22.808C206.024 20.36 201.488 18.848 196.736 18.992C192.344 19.136 188.168 20.936 188.168 26.048C188.168 36.704 213.944 34.112 213.944 50.672C213.944 60.968 205.736 65.072 196.88 65.288ZM241.008 65.216C227.04 65.216 221.208 58.664 221.352 45.416C221.496 34.616 221.352 25.184 220.776 14.6H229.776C229.344 25.328 229.272 34.832 229.344 45.488C229.416 52.976 229.632 60.968 241.008 60.968C252.312 60.968 252.456 52.976 252.6 45.488C252.672 34.832 252.528 25.328 252.168 14.6H254.688C259.656 14.6 261.168 11 261.168 7.472H267.576C267.576 11.864 265.344 15.536 260.952 17.12C260.52 26.696 260.376 35.48 260.52 45.416C260.664 58.664 254.832 65.216 241.008 65.216ZM289.243 65.216C275.275 65.216 269.443 58.664 269.587 45.416C269.731 34.616 269.587 25.184 269.011 14.6H278.011C277.579 25.328 277.507 34.832 277.579 45.488C277.651 52.976 277.867 60.968 289.243 60.968C300.547 60.968 300.691 52.976 300.835 45.488C300.907 34.832 300.763 25.328 300.403 14.6H309.331C308.755 25.184 308.611 34.616 308.755 45.416C308.899 58.664 303.067 65.216 289.243 65.216ZM346.367 65C347.087 49.736 347.231 34.184 346.583 19.208C341.471 19.424 336.431 20 332.039 21.008L332.759 14.6H368.975L369.695 21.008C365.159 20 360.335 19.424 355.223 19.208C354.719 34.4 354.863 49.88 355.367 65H346.367ZM387.364 79.472C384.628 79.472 382.972 77.816 382.972 75.08C382.972 72.272 384.628 70.616 387.364 70.616C390.172 70.616 391.828 72.272 391.828 75.08C391.828 77.816 390.172 79.472 387.364 79.472ZM385.276 0.559997H391.828L399.46 11.072H393.7L388.516 4.52L383.332 11.072H377.716L385.276 0.559997ZM395.644 47.792C393.052 40.232 390.172 32.528 387.292 25.328C384.772 32.168 381.748 40.232 379.156 47.792H395.644ZM365.404 65C371.812 49.592 379.228 33.176 384.556 18.704C383.908 17.264 383.332 15.896 382.612 14.6H392.116C396.364 27.056 405.292 51.896 410.908 65H401.332C400.108 61.04 398.74 56.72 397.228 52.256H377.716C376.204 56.864 374.908 61.328 374.116 65H365.404ZM414.856 65C415.72 48.08 415.72 31.16 414.856 14.6H426.52C436.744 14.6 445.888 17.912 445.888 29.936C445.888 41.96 436.888 45.488 426.88 45.488H423.424C423.496 51.896 423.64 58.52 423.856 65H414.856ZM426.952 41.24C432.136 41.24 438.04 38.72 438.04 29.936C438.04 21.296 432.136 18.776 426.952 18.776H423.784C423.496 26.264 423.424 33.824 423.424 41.24H426.952ZM16.7391 151.288C11.2671 151.432 4.35509 150.352 0.323094 148.408L2.33909 141.856C6.01109 144.808 11.1231 146.824 16.1631 146.608C22.4991 146.464 26.2431 143.656 26.2431 138.256C26.2431 126.088 0.251094 129.616 0.251094 112.912C0.251094 103.768 8.31509 100.6 16.7391 100.24C21.9951 100.024 27.8991 101.032 31.6431 102.76L29.4831 108.808C25.8831 106.36 21.3471 104.848 16.5951 104.992C12.2031 105.136 8.02709 106.936 8.02709 112.048C8.02709 122.704 33.8031 120.112 33.8031 136.672C33.8031 146.968 25.5951 151.072 16.7391 151.288ZM50.1398 146.536C57.9158 146.536 65.9798 146.248 72.2438 144.304L71.3798 151H41.3558C42.1478 134.008 42.1478 117.16 41.3558 100.6H70.1558L70.8038 106.936C64.4678 105.496 57.5558 105.064 50.1398 105.064C49.9238 109.456 49.8518 115.72 49.7798 122.272H65.4758L64.6118 126.664H49.8518C49.8518 134.224 49.9958 141.64 50.1398 146.536ZM79.9056 151C80.6976 135.952 80.7696 120.76 80.1216 105.424L76.9536 100.6H88.5456L113.386 139.12C113.674 126.52 113.458 113.416 112.81 100.6H119.506C118.93 117.232 118.858 134.08 119.506 151H111.802C103.882 138.112 95.3136 124.576 86.3856 112.408C86.1696 124.72 86.5296 138.544 87.0336 151H79.9056ZM234.616 147.544C246.64 147.544 250.024 135.52 250.024 125.8C250.024 116.008 246.64 104.056 234.616 104.056C223.096 104.056 219.28 115.288 219.28 125.8C219.28 135.52 222.664 147.544 234.616 147.544ZM255.136 162.952C249.232 159.928 243.544 153.736 238.36 152.008C236.776 151.432 235.48 151.432 234.616 151.432C217.912 151.432 210.424 138.832 210.424 125.8C210.424 112.768 217.912 100.168 234.616 100.168C251.392 100.168 258.88 112.768 258.88 125.8C258.88 136.384 253.912 146.68 243.04 150.136C249.88 152.224 255.64 156.328 261.832 158.632L255.136 162.952ZM286.008 151.216C272.04 151.216 266.208 144.664 266.352 131.416C266.496 120.616 266.352 111.184 265.776 100.6H274.776C274.344 111.328 274.272 120.832 274.344 131.488C274.416 138.976 274.632 146.968 286.008 146.968C297.312 146.968 297.456 138.976 297.6 131.488C297.672 120.832 297.528 111.328 297.168 100.6H306.096C305.52 111.184 305.376 120.616 305.52 131.416C305.664 144.664 299.832 151.216 286.008 151.216ZM332.299 86.56H340.435L331.363 97.072H325.387L332.299 86.56ZM324.307 151C324.667 143.584 324.883 134.8 324.883 127.168C320.059 118.24 314.731 108.52 309.331 100.6H320.059C322.651 105.856 326.755 114.64 330.139 120.328C333.523 114.64 337.123 106.72 340.075 100.6H347.635C343.027 107.584 337.267 118.024 332.803 126.592C332.803 134.368 332.947 143.512 333.163 151H324.307ZM406.04 100.6C405.392 117.448 405.536 134.296 406.04 151H397.184C397.544 142.576 397.76 134.872 397.76 127.24H376.736C376.808 134.8 376.952 142.432 377.24 151H368.168C369.104 134.008 369.104 117.16 368.168 100.6H377.24C376.952 108.592 376.808 115.792 376.736 122.848H397.76C397.76 115.72 397.544 108.448 397.184 100.6H406.04ZM415.418 151C416.282 134.008 416.282 117.16 415.418 100.6H424.418C423.77 117.448 423.914 134.296 424.418 151H415.418ZM457.17 90.232C457.098 85.768 462.066 84.616 462.066 81.304C462.066 79 460.698 78.352 458.682 78.28C457.098 78.208 454.722 79.864 453.642 81.376L452.778 77.128C454.866 75.688 457.674 74.896 460.338 74.896C463.506 74.896 467.178 76.192 467.178 80.728C467.178 86.128 461.13 86.488 460.842 90.232H457.17ZM444.714 86.56H451.266L458.898 97.072H453.138L447.954 90.52L442.77 97.072H437.154L444.714 86.56ZM442.554 146.536C450.33 146.536 458.394 146.248 464.658 144.304L463.794 151H433.77C434.562 134.008 434.562 117.16 433.77 100.6H462.57L463.218 106.936C456.882 105.496 449.97 105.064 442.554 105.064C442.338 109.456 442.266 115.72 442.194 122.272H457.89L457.026 126.664H442.266C442.266 134.224 442.41 141.64 442.554 146.536ZM472.32 151C473.112 135.952 473.184 120.76 472.536 105.424L469.368 100.6H480.96L505.8 139.12C506.088 126.52 505.872 113.416 505.224 100.6H511.92C511.344 117.232 511.272 134.08 511.92 151H504.216C496.296 138.112 487.728 124.576 478.8 112.408C478.584 124.72 478.944 138.544 479.448 151H472.32Z" fill="url(#paint1_linear_2045_2437)" fill-opacity="0.75"/>
<defs>
<linearGradient id="paint0_linear_2045_2437" x1="-74" y1="79" x2="588" y2="79" gradientUnits="userSpaceOnUse">
<stop stop-color="#525861"/>
<stop offset="1" stop-color="#97A1A7"/>
</linearGradient>
<linearGradient id="paint1_linear_2045_2437" x1="101.633" y1="33.6545" x2="184.307" y2="119.418" gradientUnits="userSpaceOnUse">
<stop offset="0.0940377" stop-color="white" stop-opacity="0"/>
<stop offset="0.292723" stop-color="white"/>
<stop offset="0.724446" stop-color="white" stop-opacity="0.775341"/>
<stop offset="1" stop-color="white" stop-opacity="0"/>
</linearGradient>
</defs>
</svg>
