<svg width="649" height="153" viewBox="0 0 649 153" fill="none" xmlns="http://www.w3.org/2000/svg">
<path d="M181.937 62C182.577 48.432 182.705 34.608 182.129 21.296C177.585 21.488 173.105 22 169.201 22.896L169.841 17.2H202.033L202.673 22.896C198.641 22 194.353 21.488 189.809 21.296C189.361 34.8 189.489 48.56 189.937 62H181.937ZM227.314 14.064C227.25 10.096 231.666 9.072 231.666 6.128C231.666 4.08 230.45 3.504 228.658 3.44C227.25 3.376 225.138 4.848 224.178 6.192L223.41 2.416C225.266 1.136 227.762 0.431995 230.13 0.431995C232.946 0.431995 236.21 1.584 236.21 5.616C236.21 10.416 230.834 10.736 230.578 14.064H227.314ZM229.042 62.384C214.13 62.384 207.474 51.184 207.474 39.6C207.474 28.016 214.13 16.816 229.042 16.816C243.89 16.816 250.546 28.016 250.546 39.6C250.546 51.184 243.89 62.384 229.042 62.384ZM229.042 58.864C239.73 58.864 242.674 48.24 242.674 39.6C242.674 30.896 239.73 20.272 229.042 20.272C218.674 20.272 215.41 30.256 215.41 39.6C215.41 48.24 218.354 58.864 229.042 58.864ZM280.926 46.704C278.622 39.984 276.062 33.136 273.502 26.736C271.262 32.816 268.574 39.984 266.27 46.704H280.926ZM254.046 62C259.742 48.304 266.334 33.712 271.07 20.848C270.494 19.568 269.982 18.352 269.342 17.2H277.79C281.566 28.272 289.502 50.352 294.494 62H285.982C284.894 58.48 283.678 54.64 282.334 50.672H264.99C263.646 54.768 262.494 58.736 261.79 62H254.046ZM325.81 62.256C320.946 62.384 314.802 61.424 311.218 59.696L313.01 53.872C316.274 56.496 320.818 58.288 325.298 58.096C330.93 57.968 334.258 55.472 334.258 50.672C334.258 39.856 311.154 42.992 311.154 28.144C311.154 20.016 318.322 17.2 325.81 16.88C330.482 16.688 335.73 17.584 339.058 19.12L337.138 24.496C333.938 22.32 329.906 20.976 325.682 21.104C321.778 21.232 318.066 22.832 318.066 27.376C318.066 36.848 340.978 34.544 340.978 49.264C340.978 58.416 333.682 62.064 325.81 62.256ZM367.467 4.72H374.699L366.635 14.064H361.323L367.467 4.72ZM371.051 46.704C368.747 39.984 366.187 33.136 363.627 26.736C361.387 32.816 358.699 39.984 356.395 46.704H371.051ZM344.171 62C349.867 48.304 356.459 33.712 361.195 20.848C360.619 19.568 360.107 18.352 359.467 17.2H367.915C371.691 28.272 379.627 50.352 384.619 62H376.107C375.019 58.48 373.803 54.64 372.459 50.672H355.115C353.771 54.768 352.619 58.736 351.915 62H344.171ZM388.833 62C389.537 48.624 389.601 35.12 389.025 21.488L386.209 17.2H396.513L418.593 51.44C418.849 40.24 418.657 28.592 418.081 17.2H424.033C423.521 31.984 423.457 46.96 424.033 62H417.185C410.145 50.544 402.529 38.512 394.593 27.696C394.401 38.64 394.721 50.928 395.169 62H388.833ZM452.603 62.384C437.691 62.384 431.099 51.184 431.099 39.6C431.099 28.016 438.459 16.816 453.371 16.816C459.963 16.816 465.531 19.056 469.051 22.64L464.699 26.736C462.523 22.96 458.619 20.272 453.371 20.272C443.003 20.272 439.163 30.064 439.163 39.6C439.163 52.848 445.499 58.928 452.923 58.928C456.251 58.928 459.707 57.648 462.715 55.28V43.76H449.851L450.683 39.856H469.563V56.304C465.659 59.248 460.411 62.384 452.603 62.384Z" fill="url(#paint0_linear_2045_2431)"/>
<path d="M181.937 62C182.577 48.432 182.705 34.608 182.129 21.296C177.585 21.488 173.105 22 169.201 22.896L169.841 17.2H202.033L202.673 22.896C198.641 22 194.353 21.488 189.809 21.296C189.361 34.8 189.489 48.56 189.937 62H181.937ZM227.314 14.064C227.25 10.096 231.666 9.072 231.666 6.128C231.666 4.08 230.45 3.504 228.658 3.44C227.25 3.376 225.138 4.848 224.178 6.192L223.41 2.416C225.266 1.136 227.762 0.431995 230.13 0.431995C232.946 0.431995 236.21 1.584 236.21 5.616C236.21 10.416 230.834 10.736 230.578 14.064H227.314ZM229.042 62.384C214.13 62.384 207.474 51.184 207.474 39.6C207.474 28.016 214.13 16.816 229.042 16.816C243.89 16.816 250.546 28.016 250.546 39.6C250.546 51.184 243.89 62.384 229.042 62.384ZM229.042 58.864C239.73 58.864 242.674 48.24 242.674 39.6C242.674 30.896 239.73 20.272 229.042 20.272C218.674 20.272 215.41 30.256 215.41 39.6C215.41 48.24 218.354 58.864 229.042 58.864ZM280.926 46.704C278.622 39.984 276.062 33.136 273.502 26.736C271.262 32.816 268.574 39.984 266.27 46.704H280.926ZM254.046 62C259.742 48.304 266.334 33.712 271.07 20.848C270.494 19.568 269.982 18.352 269.342 17.2H277.79C281.566 28.272 289.502 50.352 294.494 62H285.982C284.894 58.48 283.678 54.64 282.334 50.672H264.99C263.646 54.768 262.494 58.736 261.79 62H254.046ZM325.81 62.256C320.946 62.384 314.802 61.424 311.218 59.696L313.01 53.872C316.274 56.496 320.818 58.288 325.298 58.096C330.93 57.968 334.258 55.472 334.258 50.672C334.258 39.856 311.154 42.992 311.154 28.144C311.154 20.016 318.322 17.2 325.81 16.88C330.482 16.688 335.73 17.584 339.058 19.12L337.138 24.496C333.938 22.32 329.906 20.976 325.682 21.104C321.778 21.232 318.066 22.832 318.066 27.376C318.066 36.848 340.978 34.544 340.978 49.264C340.978 58.416 333.682 62.064 325.81 62.256ZM367.467 4.72H374.699L366.635 14.064H361.323L367.467 4.72ZM371.051 46.704C368.747 39.984 366.187 33.136 363.627 26.736C361.387 32.816 358.699 39.984 356.395 46.704H371.051ZM344.171 62C349.867 48.304 356.459 33.712 361.195 20.848C360.619 19.568 360.107 18.352 359.467 17.2H367.915C371.691 28.272 379.627 50.352 384.619 62H376.107C375.019 58.48 373.803 54.64 372.459 50.672H355.115C353.771 54.768 352.619 58.736 351.915 62H344.171ZM388.833 62C389.537 48.624 389.601 35.12 389.025 21.488L386.209 17.2H396.513L418.593 51.44C418.849 40.24 418.657 28.592 418.081 17.2H424.033C423.521 31.984 423.457 46.96 424.033 62H417.185C410.145 50.544 402.529 38.512 394.593 27.696C394.401 38.64 394.721 50.928 395.169 62H388.833ZM452.603 62.384C437.691 62.384 431.099 51.184 431.099 39.6C431.099 28.016 438.459 16.816 453.371 16.816C459.963 16.816 465.531 19.056 469.051 22.64L464.699 26.736C462.523 22.96 458.619 20.272 453.371 20.272C443.003 20.272 439.163 30.064 439.163 39.6C439.163 52.848 445.499 58.928 452.923 58.928C456.251 58.928 459.707 57.648 462.715 55.28V43.76H449.851L450.683 39.856H469.563V56.304C465.659 59.248 460.411 62.384 452.603 62.384Z" fill="url(#paint1_linear_2045_2431)" fill-opacity="0.75"/>
<path d="M21.5045 139.384C6.8485 139.384 0.1925 129.464 0.1925 116.6C0.1925 104.376 7.4885 93.816 21.4405 93.816C28.0965 93.816 33.2165 96.056 36.6725 99.64L33.0245 104.312C29.6965 99.64 26.6885 97.272 21.4405 97.272C11.4565 97.272 8.3845 107.064 8.3845 116.6C8.3845 126.072 11.3285 135.864 21.9525 135.864C26.8805 135.864 30.7845 133.368 33.8565 129.976L36.9925 133.56C33.5365 137.08 28.4165 139.384 21.5045 139.384ZM76.3865 94.2C75.8105 109.176 75.9385 124.152 76.3865 139H68.5145C68.8345 131.512 69.0265 124.664 69.0265 117.88H50.3385C50.4025 124.6 50.5305 131.384 50.7865 139H42.7225C43.5545 123.896 43.5545 108.92 42.7225 94.2H50.7865C50.5305 101.304 50.4025 107.704 50.3385 113.976H69.0265C69.0265 107.64 68.8345 101.176 68.5145 94.2H76.3865ZM102.067 139.192C89.6505 139.192 84.4665 133.368 84.5945 121.592C84.7225 111.992 84.5945 103.608 84.0825 94.2H92.0825C91.6985 103.736 91.6345 112.184 91.6985 121.656C91.7625 128.312 91.9545 135.416 102.067 135.416C112.115 135.416 112.243 128.312 112.371 121.656C112.435 112.184 112.307 103.736 111.987 94.2H119.923C119.411 103.608 119.283 111.992 119.411 121.592C119.539 133.368 114.354 139.192 102.067 139.192ZM151.564 84.984C151.5 81.016 155.916 79.992 155.916 77.048C155.916 75 154.7 74.424 152.908 74.36C151.5 74.296 149.388 75.768 148.428 77.112L147.66 73.336C149.516 72.056 152.012 71.352 154.38 71.352C157.196 71.352 160.46 72.504 160.46 76.536C160.46 81.336 155.083 81.656 154.828 84.984H151.564ZM140.492 81.72H146.316L153.1 91.064H147.98L143.372 85.24L138.764 91.064H133.772L140.492 81.72ZM149.708 123.704C147.404 116.984 144.844 110.136 142.284 103.736C140.044 109.816 137.356 116.984 135.052 123.704H149.708ZM122.828 139C128.524 125.304 135.116 110.712 139.852 97.848C139.276 96.568 138.764 95.352 138.124 94.2H146.572C150.348 105.272 158.284 127.352 163.276 139H154.764C153.676 135.48 152.46 131.64 151.116 127.672H133.772C132.428 131.768 131.276 135.736 130.572 139H122.828ZM167.489 139C168.193 125.624 168.257 112.12 167.681 98.488L164.865 94.2H175.169L197.249 128.44C197.505 117.24 197.313 105.592 196.737 94.2H202.689C202.177 108.984 202.113 123.96 202.689 139H195.841C188.801 127.544 181.185 115.512 173.249 104.696C173.057 115.64 173.377 127.928 173.825 139H167.489ZM224.825 139C226.361 124.728 227.705 107.192 228.601 94.2H237.497L249.913 128.312L261.753 94.2H270.585C271.417 107.256 273.145 126.648 274.489 139H266.233C265.913 126.456 264.761 110.712 264.057 102.52H263.545L250.809 139H246.969L233.081 102.52H232.697C231.865 111.544 231.481 128.632 231.225 139H224.825ZM299.128 152.504C296.696 152.504 295.224 151.032 295.224 148.6C295.224 146.104 296.696 144.632 299.128 144.632C301.624 144.632 303.096 146.104 303.096 148.6C303.096 151.032 301.624 152.504 299.128 152.504ZM299.192 139.192C286.776 139.192 281.592 133.368 281.72 121.592C281.848 111.992 281.72 103.608 281.208 94.2H289.208C288.824 103.736 288.76 112.184 288.824 121.656C288.888 128.312 289.08 135.416 299.192 135.416C309.24 135.416 309.368 128.312 309.496 121.656C309.56 112.184 309.432 103.736 309.112 94.2H311.352C315.768 94.2 317.112 91 317.112 87.864H322.808C322.808 91.768 320.824 95.032 316.92 96.44C316.536 104.952 316.408 112.76 316.536 121.592C316.664 133.368 311.479 139.192 299.192 139.192ZM344.755 139.384C330.099 139.384 323.443 129.464 323.443 116.6C323.443 104.376 330.739 93.816 344.691 93.816C351.347 93.816 356.467 96.056 359.923 99.64L356.275 104.312C352.947 99.64 349.939 97.272 344.691 97.272C334.707 97.272 331.635 107.064 331.635 116.6C331.635 126.072 334.579 135.864 345.203 135.864C350.131 135.864 354.035 133.368 357.107 129.976L360.243 133.56C356.787 137.08 351.667 139.384 344.755 139.384ZM400.947 135.928C411.635 135.928 414.643 125.24 414.643 116.6C414.643 107.896 411.635 97.272 400.947 97.272C390.707 97.272 387.315 107.256 387.315 116.6C387.315 125.24 390.323 135.928 400.947 135.928ZM419.187 149.624C413.939 146.936 408.882 141.432 404.275 139.896C402.867 139.384 401.715 139.384 400.947 139.384C386.099 139.384 379.443 128.184 379.443 116.6C379.443 105.016 386.099 93.816 400.947 93.816C415.859 93.816 422.515 105.016 422.515 116.6C422.515 126.008 418.099 135.16 408.435 138.232C414.515 140.088 419.635 143.736 425.139 145.784L419.187 149.624ZM446.629 139.192C434.213 139.192 429.029 133.368 429.157 121.592C429.285 111.992 429.157 103.608 428.645 94.2H436.645C436.261 103.736 436.197 112.184 436.261 121.656C436.325 128.312 436.517 135.416 446.629 135.416C456.677 135.416 456.805 128.312 456.933 121.656C456.997 112.184 456.869 103.736 456.549 94.2H464.485C463.973 103.608 463.845 111.992 463.973 121.592C464.101 133.368 458.917 139.192 446.629 139.192ZM506.464 75.64H513.696L505.632 84.984H500.32L506.464 75.64ZM489.504 81.72H495.328L502.112 91.064H496.992L492.384 85.24L487.776 91.064H482.784L489.504 81.72ZM492.448 139.384C477.536 139.384 470.88 128.184 470.88 116.6C470.88 105.016 477.536 93.816 492.448 93.816C507.296 93.816 513.952 105.016 513.952 116.6C513.952 128.184 507.296 139.384 492.448 139.384ZM492.448 135.864C503.136 135.864 506.08 125.24 506.08 116.6C506.08 107.896 503.136 97.272 492.448 97.272C482.08 97.272 478.816 107.256 478.816 116.6C478.816 125.24 481.76 135.864 492.448 135.864ZM541.005 139.384C526.349 139.384 519.693 129.464 519.693 116.6C519.693 104.376 526.989 93.816 540.941 93.816C547.597 93.816 552.717 96.056 556.173 99.64L552.525 104.312C549.197 99.64 546.189 97.272 540.941 97.272C530.957 97.272 527.885 107.064 527.885 116.6C527.885 126.072 530.829 135.864 541.453 135.864C546.381 135.864 550.285 133.368 553.357 129.976L556.493 133.56C553.037 137.08 547.917 139.384 541.005 139.384ZM587.469 139C588.109 125.432 588.237 111.608 587.661 98.296C583.117 98.488 578.637 99 574.733 99.896L575.373 94.2H607.565L608.205 99.896C604.173 99 599.885 98.488 595.341 98.296C594.893 111.8 595.021 125.56 595.469 139H587.469ZM640.973 75.64H648.205L640.141 84.984H634.829L640.973 75.64ZM624.013 81.72H629.837L636.621 91.064H631.501L626.893 85.24L622.285 91.064H617.293L624.013 81.72ZM622.093 135.032C629.005 135.032 636.173 134.776 641.741 133.048L640.973 139H614.285C614.989 123.896 614.989 108.92 614.285 94.2H639.885L640.461 99.832C634.829 98.552 628.685 98.168 622.093 98.168C621.901 102.072 621.837 107.64 621.773 113.464H635.725L634.957 117.368H621.837C621.837 124.088 621.965 130.68 622.093 135.032Z" fill="url(#paint2_linear_2045_2431)"/>
<defs>
<linearGradient id="paint0_linear_2045_2431" x1="-86" y1="75" x2="727" y2="75" gradientUnits="userSpaceOnUse">
<stop stop-color="#C9CFD7"/>
<stop offset="1" stop-color="#97A1A7"/>
</linearGradient>
<linearGradient id="paint1_linear_2045_2431" x1="129.694" y1="34.4" x2="199.386" y2="133.565" gradientUnits="userSpaceOnUse">
<stop offset="0.0940377" stop-color="white" stop-opacity="0"/>
<stop offset="0.292723" stop-color="white"/>
<stop offset="0.724446" stop-color="white" stop-opacity="0.775341"/>
<stop offset="1" stop-color="white" stop-opacity="0"/>
</linearGradient>
<linearGradient id="paint2_linear_2045_2431" x1="-86" y1="75" x2="727" y2="75" gradientUnits="userSpaceOnUse">
<stop stop-color="#F8E7BF"/>
<stop offset="1" stop-color="#B8823C"/>
</linearGradient>
</defs>
</svg>
