<svg width="564" height="154" viewBox="0 0 564 154" fill="none" xmlns="http://www.w3.org/2000/svg">
<path d="M12.8435 64C13.4835 50.432 13.6115 36.608 13.0355 23.296C8.4915 23.488 4.0115 24 0.1075 24.896L0.7475 19.2H32.9395L33.5795 24.896C29.5475 24 25.2595 23.488 20.7155 23.296C20.2675 36.8 20.3955 50.56 20.8435 64H12.8435ZM39.66 64C40.428 48.896 40.428 33.92 39.66 19.2H47.66C47.084 34.176 47.212 49.152 47.66 64H39.66ZM82.6605 0.639996H89.8925L81.8285 9.984H76.5165L82.6605 0.639996ZM65.7005 6.72H71.5245L78.3085 16.064H73.1885L68.5805 10.24L63.9725 16.064H58.9805L65.7005 6.72ZM63.7805 60.032C70.6925 60.032 77.8605 59.776 83.4285 58.048L82.6605 64H55.9725C56.6765 48.896 56.6765 33.92 55.9725 19.2H81.5725L82.1485 24.832C76.5165 23.552 70.3725 23.168 63.7805 23.168C63.5885 27.072 63.5245 32.64 63.4605 38.464H77.4125L76.6445 42.368H63.5245C63.5245 49.088 63.6525 55.68 63.7805 60.032ZM89.535 64C90.303 48.96 90.303 33.92 89.535 19.2H99.903C108.991 19.2 117.119 22.144 117.119 32.832C117.119 43.52 109.119 46.656 100.223 46.656H97.151C97.215 52.352 97.343 58.24 97.535 64H89.535ZM100.287 42.88C104.895 42.88 110.143 40.64 110.143 32.832C110.143 25.152 104.895 22.912 100.287 22.912H97.471C97.215 29.568 97.151 36.288 97.151 42.88H100.287ZM137.285 64C138.053 49.408 138.053 33.792 137.285 19.2H148.421C156.229 19.2 163.589 21.184 163.589 30.336C163.589 34.688 159.941 38.208 156.869 39.68C161.541 40.832 166.149 44.16 166.149 50.752C166.149 61.44 157.381 64 148.229 64H137.285ZM148.293 38.016C152.197 38.016 156.933 36.608 156.933 30.336C156.933 23.744 152.197 22.912 148.293 22.912H145.157L144.901 38.016H148.293ZM148.613 60.288C153.285 60.288 159.045 58.496 159.045 50.752C159.045 42.944 152.837 41.728 148.293 41.728H144.837C144.837 48.448 144.965 53.568 145.157 60.288H148.613ZM172.223 64C172.991 48.896 172.991 33.92 172.223 19.2H180.223C179.647 34.176 179.775 49.152 180.223 64H172.223ZM215.223 0.639996H222.455L214.391 9.984H209.079L215.223 0.639996ZM198.263 6.72H204.087L210.871 16.064H205.751L201.143 10.24L196.535 16.064H191.543L198.263 6.72ZM196.343 60.032C203.255 60.032 210.423 59.776 215.991 58.048L215.223 64H188.535C189.239 48.896 189.239 33.92 188.535 19.2H214.135L214.711 24.832C209.079 23.552 202.935 23.168 196.343 23.168C196.151 27.072 196.087 32.64 196.023 38.464H209.975L209.207 42.368H196.087C196.087 49.088 196.215 55.68 196.343 60.032ZM222.802 64C223.506 50.624 223.57 37.12 222.994 23.488L220.178 19.2H230.482L252.562 53.44C252.818 42.24 252.626 30.592 252.05 19.2H258.002C257.49 33.984 257.426 48.96 258.002 64H251.154C244.114 52.544 236.498 40.512 228.562 29.696C228.37 40.64 228.69 52.928 229.138 64H222.802ZM291.594 64C292.234 50.432 292.362 36.608 291.786 23.296C287.242 23.488 282.762 24 278.858 24.896L279.498 19.2H311.69L312.33 24.896C308.298 24 304.01 23.488 299.466 23.296C299.018 36.8 299.146 50.56 299.594 64H291.594ZM318.41 64C319.178 48.896 319.178 33.92 318.41 19.2H326.41C325.834 34.176 325.962 49.152 326.41 64H318.41ZM335.427 64C336.131 50.624 336.195 37.12 335.619 23.488L332.803 19.2H343.107L365.187 53.44C365.443 42.24 365.251 30.592 364.675 19.2H370.627C370.115 33.984 370.051 48.96 370.627 64H363.779C356.739 52.544 349.123 40.512 341.187 29.696C340.995 40.64 341.315 52.928 341.763 64H335.427ZM412.637 19.2C412.061 34.176 412.189 49.152 412.637 64H404.765C405.085 56.512 405.277 49.664 405.277 42.88H386.589C386.653 49.6 386.781 56.384 387.037 64H378.973C379.805 48.896 379.805 33.92 378.973 19.2H387.037C386.781 26.304 386.653 32.704 386.589 38.976H405.277C405.277 32.64 405.085 26.176 404.765 19.2H412.637ZM469.387 19.2C468.811 34.176 468.939 49.152 469.387 64H461.515C461.835 56.512 462.027 49.664 462.027 42.88H443.339C443.403 49.6 443.531 56.384 443.787 64H435.723C436.555 48.896 436.555 33.92 435.723 19.2H443.787C443.531 26.304 443.403 32.704 443.339 38.976H462.027C462.027 32.64 461.835 26.176 461.515 19.2H469.387ZM498.011 64.384C483.099 64.384 476.443 53.184 476.443 41.6C476.443 30.016 483.099 18.816 498.011 18.816C512.859 18.816 519.515 30.016 519.515 41.6C519.515 53.184 512.859 64.384 498.011 64.384ZM498.011 60.864C508.699 60.864 511.643 50.24 511.643 41.6C511.643 32.896 508.699 22.272 498.011 22.272C487.643 22.272 484.379 32.256 484.379 41.6C484.379 50.24 487.323 60.864 498.011 60.864ZM549.895 48.704C547.591 41.984 545.031 35.136 542.471 28.736C540.231 34.816 537.543 41.984 535.239 48.704H549.895ZM523.015 64C528.711 50.304 535.303 35.712 540.039 22.848C539.463 21.568 538.951 20.352 538.311 19.2H546.759C550.535 30.272 558.471 52.352 563.463 64H554.951C553.863 60.48 552.647 56.64 551.303 52.672H533.959C532.615 56.768 531.463 60.736 530.759 64H523.015Z" fill="url(#paint0_linear_2045_2581)"/>
<path d="M12.8435 64C13.4835 50.432 13.6115 36.608 13.0355 23.296C8.4915 23.488 4.0115 24 0.1075 24.896L0.7475 19.2H32.9395L33.5795 24.896C29.5475 24 25.2595 23.488 20.7155 23.296C20.2675 36.8 20.3955 50.56 20.8435 64H12.8435ZM39.66 64C40.428 48.896 40.428 33.92 39.66 19.2H47.66C47.084 34.176 47.212 49.152 47.66 64H39.66ZM82.6605 0.639996H89.8925L81.8285 9.984H76.5165L82.6605 0.639996ZM65.7005 6.72H71.5245L78.3085 16.064H73.1885L68.5805 10.24L63.9725 16.064H58.9805L65.7005 6.72ZM63.7805 60.032C70.6925 60.032 77.8605 59.776 83.4285 58.048L82.6605 64H55.9725C56.6765 48.896 56.6765 33.92 55.9725 19.2H81.5725L82.1485 24.832C76.5165 23.552 70.3725 23.168 63.7805 23.168C63.5885 27.072 63.5245 32.64 63.4605 38.464H77.4125L76.6445 42.368H63.5245C63.5245 49.088 63.6525 55.68 63.7805 60.032ZM89.535 64C90.303 48.96 90.303 33.92 89.535 19.2H99.903C108.991 19.2 117.119 22.144 117.119 32.832C117.119 43.52 109.119 46.656 100.223 46.656H97.151C97.215 52.352 97.343 58.24 97.535 64H89.535ZM100.287 42.88C104.895 42.88 110.143 40.64 110.143 32.832C110.143 25.152 104.895 22.912 100.287 22.912H97.471C97.215 29.568 97.151 36.288 97.151 42.88H100.287ZM137.285 64C138.053 49.408 138.053 33.792 137.285 19.2H148.421C156.229 19.2 163.589 21.184 163.589 30.336C163.589 34.688 159.941 38.208 156.869 39.68C161.541 40.832 166.149 44.16 166.149 50.752C166.149 61.44 157.381 64 148.229 64H137.285ZM148.293 38.016C152.197 38.016 156.933 36.608 156.933 30.336C156.933 23.744 152.197 22.912 148.293 22.912H145.157L144.901 38.016H148.293ZM148.613 60.288C153.285 60.288 159.045 58.496 159.045 50.752C159.045 42.944 152.837 41.728 148.293 41.728H144.837C144.837 48.448 144.965 53.568 145.157 60.288H148.613ZM172.223 64C172.991 48.896 172.991 33.92 172.223 19.2H180.223C179.647 34.176 179.775 49.152 180.223 64H172.223ZM215.223 0.639996H222.455L214.391 9.984H209.079L215.223 0.639996ZM198.263 6.72H204.087L210.871 16.064H205.751L201.143 10.24L196.535 16.064H191.543L198.263 6.72ZM196.343 60.032C203.255 60.032 210.423 59.776 215.991 58.048L215.223 64H188.535C189.239 48.896 189.239 33.92 188.535 19.2H214.135L214.711 24.832C209.079 23.552 202.935 23.168 196.343 23.168C196.151 27.072 196.087 32.64 196.023 38.464H209.975L209.207 42.368H196.087C196.087 49.088 196.215 55.68 196.343 60.032ZM222.802 64C223.506 50.624 223.57 37.12 222.994 23.488L220.178 19.2H230.482L252.562 53.44C252.818 42.24 252.626 30.592 252.05 19.2H258.002C257.49 33.984 257.426 48.96 258.002 64H251.154C244.114 52.544 236.498 40.512 228.562 29.696C228.37 40.64 228.69 52.928 229.138 64H222.802ZM291.594 64C292.234 50.432 292.362 36.608 291.786 23.296C287.242 23.488 282.762 24 278.858 24.896L279.498 19.2H311.69L312.33 24.896C308.298 24 304.01 23.488 299.466 23.296C299.018 36.8 299.146 50.56 299.594 64H291.594ZM318.41 64C319.178 48.896 319.178 33.92 318.41 19.2H326.41C325.834 34.176 325.962 49.152 326.41 64H318.41ZM335.427 64C336.131 50.624 336.195 37.12 335.619 23.488L332.803 19.2H343.107L365.187 53.44C365.443 42.24 365.251 30.592 364.675 19.2H370.627C370.115 33.984 370.051 48.96 370.627 64H363.779C356.739 52.544 349.123 40.512 341.187 29.696C340.995 40.64 341.315 52.928 341.763 64H335.427ZM412.637 19.2C412.061 34.176 412.189 49.152 412.637 64H404.765C405.085 56.512 405.277 49.664 405.277 42.88H386.589C386.653 49.6 386.781 56.384 387.037 64H378.973C379.805 48.896 379.805 33.92 378.973 19.2H387.037C386.781 26.304 386.653 32.704 386.589 38.976H405.277C405.277 32.64 405.085 26.176 404.765 19.2H412.637ZM469.387 19.2C468.811 34.176 468.939 49.152 469.387 64H461.515C461.835 56.512 462.027 49.664 462.027 42.88H443.339C443.403 49.6 443.531 56.384 443.787 64H435.723C436.555 48.896 436.555 33.92 435.723 19.2H443.787C443.531 26.304 443.403 32.704 443.339 38.976H462.027C462.027 32.64 461.835 26.176 461.515 19.2H469.387ZM498.011 64.384C483.099 64.384 476.443 53.184 476.443 41.6C476.443 30.016 483.099 18.816 498.011 18.816C512.859 18.816 519.515 30.016 519.515 41.6C519.515 53.184 512.859 64.384 498.011 64.384ZM498.011 60.864C508.699 60.864 511.643 50.24 511.643 41.6C511.643 32.896 508.699 22.272 498.011 22.272C487.643 22.272 484.379 32.256 484.379 41.6C484.379 50.24 487.323 60.864 498.011 60.864ZM549.895 48.704C547.591 41.984 545.031 35.136 542.471 28.736C540.231 34.816 537.543 41.984 535.239 48.704H549.895ZM523.015 64C528.711 50.304 535.303 35.712 540.039 22.848C539.463 21.568 538.951 20.352 538.311 19.2H546.759C550.535 30.272 558.471 52.352 563.463 64H554.951C553.863 60.48 552.647 56.64 551.303 52.672H533.959C532.615 56.768 531.463 60.736 530.759 64H523.015Z" fill="url(#paint1_linear_2045_2581)" fill-opacity="0.75"/>
<path d="M129.976 136.968C140.728 136.968 145.016 128.712 145.016 118.664C145.016 108.424 140.92 100.168 129.976 100.168H125.624C125.304 112.52 125.304 124.808 125.688 136.968H129.976ZM117.816 141C118.584 125.896 118.584 110.92 117.816 96.2H129.976C143.864 96.2 152.44 104.52 152.44 118.664C152.44 132.68 143.736 141 129.976 141H117.816ZM158.816 141C159.584 125.896 159.584 110.92 158.816 96.2H166.816C166.24 111.176 166.368 126.152 166.816 141H158.816ZM202.935 141.256C198.071 141.384 191.927 140.424 188.343 138.696L190.135 132.872C193.399 135.496 197.943 137.288 202.423 137.096C208.055 136.968 211.383 134.472 211.383 129.672C211.383 118.856 188.279 121.992 188.279 107.144C188.279 99.016 195.447 96.2 202.935 95.88C207.607 95.688 212.855 96.584 216.183 98.12L214.263 103.496C211.063 101.32 207.031 99.976 202.807 100.104C198.903 100.232 195.191 101.832 195.191 106.376C195.191 115.848 218.103 113.544 218.103 128.264C218.103 137.416 210.807 141.064 202.935 141.256ZM240.432 93.064C240.368 89.096 244.784 88.072 244.784 85.128C244.784 83.08 243.568 82.504 241.776 82.44C240.368 82.376 238.256 83.848 237.296 85.192L236.528 81.416C238.384 80.136 240.88 79.432 243.248 79.432C246.064 79.432 249.328 80.584 249.328 84.616C249.328 89.416 243.952 89.736 243.696 93.064H240.432ZM248.176 125.704C245.872 118.984 243.312 112.136 240.752 105.736C238.512 111.816 235.824 118.984 233.52 125.704H248.176ZM221.296 141C226.992 127.304 233.584 112.712 238.32 99.848C237.744 98.568 237.232 97.352 236.592 96.2H245.04C248.816 107.272 256.752 129.352 261.744 141H253.232C252.144 137.48 250.928 133.64 249.584 129.672H232.24C230.896 133.768 229.744 137.736 229.04 141H221.296ZM265.958 141C266.662 127.624 266.726 114.12 266.15 100.488L263.334 96.2H273.638L295.718 130.44C295.974 119.24 295.782 107.592 295.206 96.2H301.158C300.646 110.984 300.582 125.96 301.158 141H294.31C287.27 129.544 279.654 117.512 271.718 106.696C271.526 117.64 271.846 129.928 272.294 141H265.958ZM336.798 141C333.406 129.864 325.726 107.72 320.734 96.2H329.182C333.086 107.016 336.798 118.92 341.022 129.928H341.214C345.118 118.792 349.726 105.16 351.774 96.2H359.518C354.59 105.096 346.142 128.84 342.814 141H336.798ZM364.316 141C365.084 125.896 365.084 110.92 364.316 96.2H372.316C371.74 111.176 371.868 126.152 372.316 141H364.316ZM394.709 153.864C392.277 153.864 390.805 152.392 390.805 149.96C390.805 147.464 392.277 145.992 394.709 145.992C397.205 145.992 398.677 147.464 398.677 149.96C398.677 152.392 397.205 153.864 394.709 153.864ZM390.357 83.72H396.181L402.965 93.064H397.845L393.237 87.24L388.629 93.064H383.637L390.357 83.72ZM388.437 137.032C395.349 137.032 402.517 136.776 408.085 135.048L407.317 141H380.629C381.333 125.896 381.333 110.92 380.629 96.2H406.229L406.805 101.832C401.173 100.552 395.029 100.168 388.437 100.168C388.245 104.072 388.181 109.64 388.117 115.464H402.069L401.301 119.368H388.181C388.181 126.088 388.309 132.68 388.437 137.032ZM424.687 141C425.327 127.432 425.455 113.608 424.879 100.296C420.335 100.488 415.855 101 411.951 101.896L412.591 96.2H444.783L445.423 101.896C441.391 101 437.103 100.488 432.559 100.296C432.111 113.8 432.239 127.56 432.687 141H424.687Z" fill="url(#paint2_linear_2045_2581)"/>
<defs>
<linearGradient id="paint0_linear_2045_2581" x1="-24" y1="77" x2="585" y2="77" gradientUnits="userSpaceOnUse">
<stop stop-color="#C9CFD7"/>
<stop offset="1" stop-color="#97A1A7"/>
</linearGradient>
<linearGradient id="paint1_linear_2045_2581" x1="137.571" y1="36.4" x2="211.493" y2="115.19" gradientUnits="userSpaceOnUse">
<stop offset="0.0940377" stop-color="white" stop-opacity="0"/>
<stop offset="0.292723" stop-color="white"/>
<stop offset="0.724446" stop-color="white" stop-opacity="0.775341"/>
<stop offset="1" stop-color="white" stop-opacity="0"/>
</linearGradient>
<linearGradient id="paint2_linear_2045_2581" x1="-24" y1="77" x2="585" y2="77" gradientUnits="userSpaceOnUse">
<stop stop-color="#F8E7BF"/>
<stop offset="1" stop-color="#B8823C"/>
</linearGradient>
</defs>
</svg>
