<svg width="827" height="179" viewBox="0 0 827 179" fill="none" xmlns="http://www.w3.org/2000/svg">
<path d="M24.423 77.432C7.93503 77.432 0.447031 66.272 0.447031 51.8C0.447031 38.048 8.65503 26.168 24.351 26.168C31.839 26.168 37.599 28.688 41.487 32.72L37.383 37.976C33.639 32.72 30.255 30.056 24.351 30.056C13.119 30.056 9.66303 41.072 9.66303 51.8C9.66303 62.456 12.975 73.472 24.927 73.472C30.471 73.472 34.863 70.664 38.319 66.848L41.847 70.88C37.959 74.84 32.199 77.432 24.423 77.432ZM86.1653 26.6C85.5173 43.448 85.6613 60.296 86.1653 77H77.3093C77.6693 68.576 77.8853 60.872 77.8853 53.24H56.8613C56.9333 60.8 57.0773 68.432 57.3653 77H48.2933C49.2293 60.008 49.2293 43.16 48.2933 26.6H57.3653C57.0773 34.592 56.9333 41.792 56.8613 48.848H77.8853C77.8853 41.72 77.6693 34.448 77.3093 26.6H86.1653ZM117.143 12.56H125.279L116.207 23.072H110.231L117.143 12.56ZM115.055 77.216C101.087 77.216 95.2553 70.664 95.3993 57.416C95.5433 46.616 95.3993 37.184 94.8233 26.6H103.823C103.391 37.328 103.319 46.832 103.391 57.488C103.463 64.976 103.679 72.968 115.055 72.968C126.359 72.968 126.503 64.976 126.647 57.488C126.719 46.832 126.575 37.328 126.215 26.6H135.143C134.567 37.184 134.423 46.616 134.567 57.416C134.711 70.664 128.879 77.216 115.055 77.216ZM144.57 77C145.362 61.952 145.434 46.76 144.786 31.424L141.618 26.6H153.21L178.05 65.12C178.338 52.52 178.122 39.416 177.474 26.6H184.17C183.594 43.232 183.522 60.08 184.17 77H176.466C168.546 64.112 159.978 50.576 151.05 38.408C150.834 50.72 151.194 64.544 151.698 77H144.57ZM216.311 77.432C199.535 77.432 192.119 64.832 192.119 51.8C192.119 38.768 200.399 26.168 217.175 26.168C224.591 26.168 230.855 28.688 234.815 32.72L229.919 37.328C227.471 33.08 223.079 30.056 217.175 30.056C205.511 30.056 201.191 41.072 201.191 51.8C201.191 66.704 208.319 73.544 216.671 73.544C220.415 73.544 224.303 72.104 227.687 69.44V56.48H213.215L214.151 52.088H235.391V70.592C230.999 73.904 225.095 77.432 216.311 77.432ZM273.148 77C273.868 61.736 274.012 46.184 273.364 31.208C268.252 31.424 263.212 32 258.82 33.008L259.54 26.6H295.756L296.476 33.008C291.94 32 287.116 31.424 282.004 31.208C281.5 46.4 281.644 61.88 282.148 77H273.148ZM322.425 59.792C319.833 52.232 316.953 44.528 314.073 37.328C311.553 44.168 308.529 52.232 305.937 59.792H322.425ZM292.185 77C298.593 61.592 306.009 45.176 311.337 30.704C310.689 29.264 310.113 27.896 309.393 26.6H318.897C323.145 39.056 332.073 63.896 337.689 77H328.113C326.889 73.04 325.521 68.72 324.009 64.256H304.497C302.985 68.864 301.689 73.328 300.897 77H292.185ZM380.767 77.432C364.279 77.432 356.791 66.272 356.791 51.8C356.791 38.048 364.999 26.168 380.695 26.168C388.183 26.168 393.943 28.688 397.831 32.72L393.727 37.976C389.983 32.72 386.599 30.056 380.695 30.056C369.463 30.056 366.007 41.072 366.007 51.8C366.007 62.456 369.319 73.472 381.271 73.472C386.815 73.472 391.207 70.664 394.663 66.848L398.191 70.88C394.303 74.84 388.543 77.432 380.767 77.432ZM442.509 26.6C441.861 43.448 442.005 60.296 442.509 77H433.653C434.013 68.576 434.229 60.872 434.229 53.24H413.205C413.277 60.8 413.421 68.432 413.709 77H404.637C405.573 60.008 405.573 43.16 404.637 26.6H413.709C413.421 34.592 413.277 41.792 413.205 48.848H434.229C434.229 41.72 434.013 34.448 433.653 26.6H442.509ZM471.399 77.216C457.431 77.216 451.599 70.664 451.743 57.416C451.887 46.616 451.743 37.184 451.167 26.6H460.167C459.735 37.328 459.663 46.832 459.735 57.488C459.807 64.976 460.023 72.968 471.399 72.968C482.703 72.968 482.847 64.976 482.991 57.488C483.063 46.832 482.919 37.328 482.559 26.6H491.487C490.911 37.184 490.767 46.616 490.911 57.416C491.055 70.664 485.223 77.216 471.399 77.216ZM509.697 77C510.057 69.584 510.273 60.8 510.273 53.168C505.449 44.24 500.121 34.52 494.721 26.6H505.449C508.041 31.856 512.145 40.64 515.529 46.328C518.913 40.64 522.513 32.72 525.465 26.6H533.025C528.417 33.584 522.657 44.024 518.193 52.592C518.193 60.368 518.337 69.512 518.553 77H509.697ZM560.365 16.232C560.293 11.768 565.261 10.616 565.261 7.304C565.261 5 563.893 4.352 561.877 4.28C560.293 4.208 557.917 5.864 556.837 7.376L555.973 3.128C558.061 1.688 560.869 0.895997 563.533 0.895997C566.701 0.895997 570.373 2.192 570.373 6.72799C570.373 12.128 564.325 12.488 564.037 16.232H560.365ZM547.909 12.56H554.461L562.093 23.072H556.333L551.149 16.52L545.965 23.072H540.349L547.909 12.56ZM545.749 72.536C553.525 72.536 561.589 72.248 567.853 70.304L566.989 77H536.965C537.757 60.008 537.757 43.16 536.965 26.6H565.765L566.413 32.936C560.077 31.496 553.165 31.064 545.749 31.064C545.533 35.456 545.461 41.72 545.389 48.272H561.085L560.221 52.664H545.461C545.461 60.224 545.605 67.64 545.749 72.536ZM575.515 77C576.307 61.952 576.379 46.76 575.731 31.424L572.563 26.6H584.155L608.995 65.12C609.283 52.52 609.067 39.416 608.419 26.6H615.115C614.539 43.232 614.467 60.08 615.115 77H607.411C599.491 64.112 590.923 50.576 581.995 38.408C581.779 50.72 582.139 64.544 582.643 77H575.515ZM640.018 77C641.746 60.944 643.258 41.216 644.266 26.6H654.274L668.242 64.976L681.562 26.6H691.498C692.434 41.288 694.378 63.104 695.89 77H686.602C686.242 62.888 684.946 45.176 684.154 35.96H683.578L669.25 77H664.93L649.306 35.96H648.874C647.938 46.112 647.506 65.336 647.218 77H640.018ZM697.832 12.56H705.968L712.88 23.072H706.904L697.832 12.56ZM704.168 77C705.032 60.008 705.032 43.16 704.168 26.6H713.168C712.52 43.448 712.664 60.296 713.168 77H704.168ZM723.312 77C724.104 61.952 724.176 46.76 723.528 31.424L720.36 26.6H731.952L756.792 65.12C757.08 52.52 756.864 39.416 756.216 26.6H762.912C762.336 43.232 762.264 60.08 762.912 77H755.208C747.288 64.112 738.72 50.576 729.792 38.408C729.576 50.72 729.936 64.544 730.44 77H723.312ZM810.173 26.6C809.525 43.448 809.669 60.296 810.173 77H801.317C801.677 68.576 801.893 60.872 801.893 53.24H780.869C780.941 60.8 781.085 68.432 781.373 77H772.301C773.237 60.008 773.237 43.16 772.301 26.6H781.373C781.085 34.592 780.941 41.792 780.869 48.848H801.893C801.893 41.72 801.677 34.448 801.317 26.6H810.173ZM818.327 85.352C823.079 75.92 817.103 78.8 817.031 73.256C816.959 70.16 818.759 68.216 821.783 68.216C825.815 68.216 826.607 70.952 826.607 73.832C826.607 78.512 823.943 82.472 819.767 86.288L818.327 85.352ZM132.493 163C132.853 155.152 133.069 147.376 133.141 139.6H127.668L128.317 135.712H133.141C133.069 128.008 132.853 120.232 132.493 112.6H146.173C161.797 112.6 171.445 121.96 171.445 137.872C171.445 153.64 161.653 163 146.173 163H132.493ZM146.173 158.464C158.269 158.464 163.093 149.176 163.093 137.872C163.093 126.352 158.485 117.064 146.173 117.064H141.277C141.133 123.328 140.989 129.52 140.989 135.712H150.781L150.277 139.6H140.989C141.061 145.936 141.133 152.2 141.349 158.464H146.173ZM202.018 102.232C201.946 97.768 206.914 96.616 206.914 93.304C206.914 91 205.546 90.352 203.53 90.28C201.946 90.208 199.57 91.864 198.49 93.376L197.626 89.128C199.714 87.688 202.522 86.896 205.186 86.896C208.354 86.896 212.026 88.192 212.026 92.728C212.026 98.128 205.978 98.488 205.69 102.232H202.018ZM189.562 98.56H196.114L203.746 109.072H197.986L192.802 102.52L187.618 109.072H182.002L189.562 98.56ZM187.402 158.536C195.178 158.536 203.242 158.248 209.506 156.304L208.642 163H178.618C179.41 146.008 179.41 129.16 178.618 112.6H207.418L208.066 118.936C201.73 117.496 194.818 117.064 187.402 117.064C187.186 121.456 187.114 127.72 187.042 134.272H202.738L201.874 138.664H187.114C187.114 146.224 187.258 153.64 187.402 158.536Z" fill="url(#paint0_linear_2045_2565)"/>
<path d="M24.423 77.432C7.93503 77.432 0.447031 66.272 0.447031 51.8C0.447031 38.048 8.65503 26.168 24.351 26.168C31.839 26.168 37.599 28.688 41.487 32.72L37.383 37.976C33.639 32.72 30.255 30.056 24.351 30.056C13.119 30.056 9.66303 41.072 9.66303 51.8C9.66303 62.456 12.975 73.472 24.927 73.472C30.471 73.472 34.863 70.664 38.319 66.848L41.847 70.88C37.959 74.84 32.199 77.432 24.423 77.432ZM86.1653 26.6C85.5173 43.448 85.6613 60.296 86.1653 77H77.3093C77.6693 68.576 77.8853 60.872 77.8853 53.24H56.8613C56.9333 60.8 57.0773 68.432 57.3653 77H48.2933C49.2293 60.008 49.2293 43.16 48.2933 26.6H57.3653C57.0773 34.592 56.9333 41.792 56.8613 48.848H77.8853C77.8853 41.72 77.6693 34.448 77.3093 26.6H86.1653ZM117.143 12.56H125.279L116.207 23.072H110.231L117.143 12.56ZM115.055 77.216C101.087 77.216 95.2553 70.664 95.3993 57.416C95.5433 46.616 95.3993 37.184 94.8233 26.6H103.823C103.391 37.328 103.319 46.832 103.391 57.488C103.463 64.976 103.679 72.968 115.055 72.968C126.359 72.968 126.503 64.976 126.647 57.488C126.719 46.832 126.575 37.328 126.215 26.6H135.143C134.567 37.184 134.423 46.616 134.567 57.416C134.711 70.664 128.879 77.216 115.055 77.216ZM144.57 77C145.362 61.952 145.434 46.76 144.786 31.424L141.618 26.6H153.21L178.05 65.12C178.338 52.52 178.122 39.416 177.474 26.6H184.17C183.594 43.232 183.522 60.08 184.17 77H176.466C168.546 64.112 159.978 50.576 151.05 38.408C150.834 50.72 151.194 64.544 151.698 77H144.57ZM216.311 77.432C199.535 77.432 192.119 64.832 192.119 51.8C192.119 38.768 200.399 26.168 217.175 26.168C224.591 26.168 230.855 28.688 234.815 32.72L229.919 37.328C227.471 33.08 223.079 30.056 217.175 30.056C205.511 30.056 201.191 41.072 201.191 51.8C201.191 66.704 208.319 73.544 216.671 73.544C220.415 73.544 224.303 72.104 227.687 69.44V56.48H213.215L214.151 52.088H235.391V70.592C230.999 73.904 225.095 77.432 216.311 77.432ZM273.148 77C273.868 61.736 274.012 46.184 273.364 31.208C268.252 31.424 263.212 32 258.82 33.008L259.54 26.6H295.756L296.476 33.008C291.94 32 287.116 31.424 282.004 31.208C281.5 46.4 281.644 61.88 282.148 77H273.148ZM322.425 59.792C319.833 52.232 316.953 44.528 314.073 37.328C311.553 44.168 308.529 52.232 305.937 59.792H322.425ZM292.185 77C298.593 61.592 306.009 45.176 311.337 30.704C310.689 29.264 310.113 27.896 309.393 26.6H318.897C323.145 39.056 332.073 63.896 337.689 77H328.113C326.889 73.04 325.521 68.72 324.009 64.256H304.497C302.985 68.864 301.689 73.328 300.897 77H292.185ZM380.767 77.432C364.279 77.432 356.791 66.272 356.791 51.8C356.791 38.048 364.999 26.168 380.695 26.168C388.183 26.168 393.943 28.688 397.831 32.72L393.727 37.976C389.983 32.72 386.599 30.056 380.695 30.056C369.463 30.056 366.007 41.072 366.007 51.8C366.007 62.456 369.319 73.472 381.271 73.472C386.815 73.472 391.207 70.664 394.663 66.848L398.191 70.88C394.303 74.84 388.543 77.432 380.767 77.432ZM442.509 26.6C441.861 43.448 442.005 60.296 442.509 77H433.653C434.013 68.576 434.229 60.872 434.229 53.24H413.205C413.277 60.8 413.421 68.432 413.709 77H404.637C405.573 60.008 405.573 43.16 404.637 26.6H413.709C413.421 34.592 413.277 41.792 413.205 48.848H434.229C434.229 41.72 434.013 34.448 433.653 26.6H442.509ZM471.399 77.216C457.431 77.216 451.599 70.664 451.743 57.416C451.887 46.616 451.743 37.184 451.167 26.6H460.167C459.735 37.328 459.663 46.832 459.735 57.488C459.807 64.976 460.023 72.968 471.399 72.968C482.703 72.968 482.847 64.976 482.991 57.488C483.063 46.832 482.919 37.328 482.559 26.6H491.487C490.911 37.184 490.767 46.616 490.911 57.416C491.055 70.664 485.223 77.216 471.399 77.216ZM509.697 77C510.057 69.584 510.273 60.8 510.273 53.168C505.449 44.24 500.121 34.52 494.721 26.6H505.449C508.041 31.856 512.145 40.64 515.529 46.328C518.913 40.64 522.513 32.72 525.465 26.6H533.025C528.417 33.584 522.657 44.024 518.193 52.592C518.193 60.368 518.337 69.512 518.553 77H509.697ZM560.365 16.232C560.293 11.768 565.261 10.616 565.261 7.304C565.261 5 563.893 4.352 561.877 4.28C560.293 4.208 557.917 5.864 556.837 7.376L555.973 3.128C558.061 1.688 560.869 0.895997 563.533 0.895997C566.701 0.895997 570.373 2.192 570.373 6.72799C570.373 12.128 564.325 12.488 564.037 16.232H560.365ZM547.909 12.56H554.461L562.093 23.072H556.333L551.149 16.52L545.965 23.072H540.349L547.909 12.56ZM545.749 72.536C553.525 72.536 561.589 72.248 567.853 70.304L566.989 77H536.965C537.757 60.008 537.757 43.16 536.965 26.6H565.765L566.413 32.936C560.077 31.496 553.165 31.064 545.749 31.064C545.533 35.456 545.461 41.72 545.389 48.272H561.085L560.221 52.664H545.461C545.461 60.224 545.605 67.64 545.749 72.536ZM575.515 77C576.307 61.952 576.379 46.76 575.731 31.424L572.563 26.6H584.155L608.995 65.12C609.283 52.52 609.067 39.416 608.419 26.6H615.115C614.539 43.232 614.467 60.08 615.115 77H607.411C599.491 64.112 590.923 50.576 581.995 38.408C581.779 50.72 582.139 64.544 582.643 77H575.515ZM640.018 77C641.746 60.944 643.258 41.216 644.266 26.6H654.274L668.242 64.976L681.562 26.6H691.498C692.434 41.288 694.378 63.104 695.89 77H686.602C686.242 62.888 684.946 45.176 684.154 35.96H683.578L669.25 77H664.93L649.306 35.96H648.874C647.938 46.112 647.506 65.336 647.218 77H640.018ZM697.832 12.56H705.968L712.88 23.072H706.904L697.832 12.56ZM704.168 77C705.032 60.008 705.032 43.16 704.168 26.6H713.168C712.52 43.448 712.664 60.296 713.168 77H704.168ZM723.312 77C724.104 61.952 724.176 46.76 723.528 31.424L720.36 26.6H731.952L756.792 65.12C757.08 52.52 756.864 39.416 756.216 26.6H762.912C762.336 43.232 762.264 60.08 762.912 77H755.208C747.288 64.112 738.72 50.576 729.792 38.408C729.576 50.72 729.936 64.544 730.44 77H723.312ZM810.173 26.6C809.525 43.448 809.669 60.296 810.173 77H801.317C801.677 68.576 801.893 60.872 801.893 53.24H780.869C780.941 60.8 781.085 68.432 781.373 77H772.301C773.237 60.008 773.237 43.16 772.301 26.6H781.373C781.085 34.592 780.941 41.792 780.869 48.848H801.893C801.893 41.72 801.677 34.448 801.317 26.6H810.173ZM818.327 85.352C823.079 75.92 817.103 78.8 817.031 73.256C816.959 70.16 818.759 68.216 821.783 68.216C825.815 68.216 826.607 70.952 826.607 73.832C826.607 78.512 823.943 82.472 819.767 86.288L818.327 85.352ZM132.493 163C132.853 155.152 133.069 147.376 133.141 139.6H127.668L128.317 135.712H133.141C133.069 128.008 132.853 120.232 132.493 112.6H146.173C161.797 112.6 171.445 121.96 171.445 137.872C171.445 153.64 161.653 163 146.173 163H132.493ZM146.173 158.464C158.269 158.464 163.093 149.176 163.093 137.872C163.093 126.352 158.485 117.064 146.173 117.064H141.277C141.133 123.328 140.989 129.52 140.989 135.712H150.781L150.277 139.6H140.989C141.061 145.936 141.133 152.2 141.349 158.464H146.173ZM202.018 102.232C201.946 97.768 206.914 96.616 206.914 93.304C206.914 91 205.546 90.352 203.53 90.28C201.946 90.208 199.57 91.864 198.49 93.376L197.626 89.128C199.714 87.688 202.522 86.896 205.186 86.896C208.354 86.896 212.026 88.192 212.026 92.728C212.026 98.128 205.978 98.488 205.69 102.232H202.018ZM189.562 98.56H196.114L203.746 109.072H197.986L192.802 102.52L187.618 109.072H182.002L189.562 98.56ZM187.402 158.536C195.178 158.536 203.242 158.248 209.506 156.304L208.642 163H178.618C179.41 146.008 179.41 129.16 178.618 112.6H207.418L208.066 118.936C201.73 117.496 194.818 117.064 187.402 117.064C187.186 121.456 187.114 127.72 187.042 134.272H202.738L201.874 138.664H187.114C187.114 146.224 187.258 153.64 187.402 158.536Z" fill="url(#paint1_linear_2045_2565)" fill-opacity="0.75"/>
<path d="M232.969 163C233.833 146.08 233.833 129.16 232.969 112.6H244.561C254.857 112.6 264.145 114.544 264.145 125.488C264.145 133.12 257.449 137.512 252.553 138.304C261.697 140.392 263.929 159.688 273.505 160.192V162.568C261.265 165.88 258.025 157.744 253.633 150.256C250.033 144.136 248.089 139.6 241.537 139.6C241.609 146.152 241.753 156.52 241.969 163H232.969ZM245.065 135.424C250.249 135.424 256.153 133.912 256.153 126.208C256.153 118.504 250.249 116.776 245.065 116.776H241.825C241.609 124.264 241.537 127.936 241.537 135.424H245.065ZM294.034 178.192C291.298 178.192 289.642 176.536 289.642 173.8C289.642 170.992 291.298 169.336 294.034 169.336C296.842 169.336 298.498 170.992 298.498 173.8C298.498 176.536 296.842 178.192 294.034 178.192ZM294.106 163.216C280.138 163.216 274.306 156.664 274.45 143.416C274.594 132.616 274.45 123.184 273.874 112.6H282.874C282.442 123.328 282.37 132.832 282.442 143.488C282.514 150.976 282.73 158.968 294.106 158.968C305.41 158.968 305.554 150.976 305.698 143.488C305.77 132.832 305.626 123.328 305.266 112.6H307.786C312.754 112.6 314.266 109 314.266 105.472H320.674C320.674 109.864 318.442 113.536 314.05 115.12C313.618 124.696 313.474 133.48 313.618 143.416C313.762 156.664 307.93 163.216 294.106 163.216ZM345.364 163.432C328.876 163.432 321.388 152.272 321.388 137.8C321.388 124.048 329.596 112.168 345.292 112.168C352.78 112.168 358.54 114.688 362.428 118.72L358.324 123.976C354.58 118.72 351.196 116.056 345.292 116.056C334.06 116.056 330.604 127.072 330.604 137.8C330.604 148.456 333.916 159.472 345.868 159.472C351.412 159.472 355.804 156.664 359.26 152.848L362.788 156.88C358.9 160.84 353.14 163.432 345.364 163.432ZM435.61 163C436.474 146.08 436.474 129.16 435.61 112.6H447.202C457.498 112.6 466.786 114.544 466.786 125.488C466.786 133.12 460.09 137.512 455.194 138.304C464.338 140.392 466.57 159.688 476.146 160.192V162.568C463.906 165.88 460.666 157.744 456.274 150.256C452.674 144.136 450.73 139.6 444.178 139.6C444.25 146.152 444.394 156.52 444.61 163H435.61ZM447.706 135.424C452.89 135.424 458.794 133.912 458.794 126.208C458.794 118.504 452.89 116.776 447.706 116.776H444.466C444.25 124.264 444.178 127.936 444.178 135.424H447.706ZM490.79 106.624C493.166 100.504 497.774 98.848 502.526 101.224C505.91 102.952 508.862 103.744 511.022 99.64L513.542 101.368C510.446 108.712 506.486 109.144 501.806 107.056C497.63 105.112 495.254 104.608 492.95 108.28L490.79 106.624ZM502.238 163.432C485.462 163.432 477.974 150.832 477.974 137.8C477.974 124.768 485.462 112.168 502.238 112.168C505.19 112.168 507.926 112.6 510.302 113.32C514.91 113.104 516.35 109.648 516.35 106.192H522.758C522.758 110.656 520.454 114.4 515.918 115.912C523.118 120.592 526.43 129.088 526.43 137.8C526.43 150.832 518.942 163.432 502.238 163.432ZM502.238 159.472C514.262 159.472 517.574 147.52 517.574 137.8C517.574 128.008 514.262 116.056 502.238 116.056C490.574 116.056 486.902 127.288 486.902 137.8C486.902 147.52 490.214 159.472 502.238 159.472ZM588.794 112.6C588.146 129.448 588.29 146.296 588.794 163H579.938C580.298 154.576 580.514 146.872 580.514 139.24H559.49C559.562 146.8 559.706 154.432 559.994 163H550.922C551.858 146.008 551.858 129.16 550.922 112.6H559.994C559.706 120.592 559.562 127.792 559.49 134.848H580.514C580.514 127.72 580.298 120.448 579.938 112.6H588.794ZM620.996 163.432C604.22 163.432 596.732 150.832 596.732 137.8C596.732 124.768 604.22 112.168 620.996 112.168C623.948 112.168 626.684 112.6 629.06 113.32C633.668 113.104 635.108 109.648 635.108 106.192H641.516C641.516 110.656 639.212 114.4 634.676 115.912C641.876 120.592 645.188 129.088 645.188 137.8C645.188 150.832 637.7 163.432 620.996 163.432ZM620.996 159.472C633.02 159.472 636.332 147.52 636.332 137.8C636.332 128.008 633.02 116.056 620.996 116.056C609.332 116.056 605.66 127.288 605.66 137.8C605.66 147.52 608.972 159.472 620.996 159.472ZM653.878 163C654.67 147.952 654.742 132.76 654.094 117.424L650.926 112.6H662.518L687.358 151.12C687.646 138.52 687.43 125.416 686.782 112.6H693.478C692.902 129.232 692.83 146.08 693.478 163H685.774C677.854 150.112 669.286 136.576 660.358 124.408C660.142 136.72 660.502 150.544 661.006 163H653.878Z" fill="url(#paint2_linear_2045_2565)"/>
<defs>
<linearGradient id="paint0_linear_2045_2565" x1="-3" y1="91" x2="829" y2="91" gradientUnits="userSpaceOnUse">
<stop stop-color="#525861"/>
<stop offset="1" stop-color="#97A1A7"/>
</linearGradient>
<linearGradient id="paint1_linear_2045_2565" x1="217.735" y1="45.6545" x2="297.637" y2="149.828" gradientUnits="userSpaceOnUse">
<stop offset="0.0940377" stop-color="white" stop-opacity="0"/>
<stop offset="0.292723" stop-color="white"/>
<stop offset="0.724446" stop-color="white" stop-opacity="0.775341"/>
<stop offset="1" stop-color="white" stop-opacity="0"/>
</linearGradient>
<linearGradient id="paint2_linear_2045_2565" x1="309.533" y1="91" x2="522.867" y2="91" gradientUnits="userSpaceOnUse">
<stop stop-color="#DDB27C"/>
<stop offset="1" stop-color="#A16D3C"/>
</linearGradient>
</defs>
</svg>
