<svg width="319" height="27" viewBox="0 0 319 27" fill="none" xmlns="http://www.w3.org/2000/svg">
<path d="M5.48888 21.24C4.70488 21.24 4.00088 21.16 3.37688 21C2.75288 20.824 2.21688 20.592 1.76888 20.304C1.33688 20 1.00888 19.648 0.784875 19.248C0.560875 18.848 0.448875 18.408 0.448875 17.928C0.448875 17.56 0.512875 17.256 0.640875 17.016C0.784875 16.76 0.984875 16.568 1.24088 16.44C1.49688 16.312 1.80888 16.248 2.17688 16.248C2.19288 17.288 2.32088 18.168 2.56088 18.888C2.81688 19.592 3.20088 20.12 3.71288 20.472C4.22488 20.824 4.87288 21 5.65688 21C6.68088 21 7.50488 20.704 8.12888 20.112C8.76888 19.504 9.08888 18.616 9.08888 17.448C9.08888 16.728 8.95288 16.144 8.68088 15.696C8.42488 15.248 8.00088 14.848 7.40888 14.496C6.83288 14.128 6.07288 13.728 5.12888 13.296C4.63288 13.056 4.12088 12.8 3.59288 12.528C3.08088 12.24 2.60088 11.904 2.15288 11.52C1.72088 11.12 1.36888 10.64 1.09688 10.08C0.840875 9.504 0.712875 8.824 0.712875 8.04C0.712875 7.08 0.920875 6.272 1.33688 5.616C1.75288 4.96 2.33688 4.464 3.08888 4.128C3.85688 3.792 4.75288 3.624 5.77688 3.624C6.72088 3.624 7.53688 3.752 8.22488 4.008C8.92888 4.264 9.47288 4.6 9.85688 5.016C10.2569 5.432 10.4569 5.888 10.4569 6.384C10.4569 6.848 10.2809 7.216 9.92888 7.488C9.57688 7.744 9.12088 7.872 8.56088 7.872C8.56088 6.544 8.34488 5.544 7.91288 4.872C7.48088 4.2 6.76088 3.864 5.75288 3.864C5.14488 3.864 4.60888 3.992 4.14488 4.248C3.68088 4.488 3.32088 4.856 3.06488 5.352C2.82488 5.832 2.70488 6.44 2.70488 7.176C2.70488 7.96 2.84888 8.592 3.13688 9.072C3.42488 9.552 3.85688 9.968 4.43288 10.32C5.02488 10.656 5.76088 11.032 6.64088 11.448C7.44088 11.816 8.17688 12.2 8.84888 12.6C9.53688 13 10.0889 13.504 10.5049 14.112C10.9209 14.72 11.1289 15.52 11.1289 16.512C11.1289 17.488 10.9049 18.328 10.4569 19.032C10.0249 19.736 9.38488 20.28 8.53688 20.664C7.70488 21.048 6.68888 21.24 5.48888 21.24ZM19.3596 21.24C17.5676 21.24 16.1676 20.664 15.1596 19.512C14.1676 18.36 13.6716 16.744 13.6716 14.664C13.6716 12.424 14.1356 10.736 15.0636 9.6C15.9916 8.464 17.3036 7.896 18.9996 7.896C20.5516 7.896 21.7676 8.376 22.6476 9.336C23.5436 10.296 23.9916 11.728 23.9916 13.632V14.208H15.9996C16.0156 15.84 16.1356 17.152 16.3596 18.144C16.5836 19.136 16.9436 19.864 17.4396 20.328C17.9516 20.776 18.6156 21 19.4316 21C20.0396 21 20.5756 20.888 21.0396 20.664C21.5196 20.44 21.9196 20.112 22.2396 19.68C22.5596 19.232 22.7756 18.688 22.8876 18.048C23.0796 18.08 23.2236 18.176 23.3196 18.336C23.4156 18.496 23.4636 18.664 23.4636 18.84C23.4636 19.16 23.3116 19.512 23.0076 19.896C22.7036 20.264 22.2476 20.584 21.6396 20.856C21.0476 21.112 20.2876 21.24 19.3596 21.24ZM21.5676 13.968C21.5676 12.56 21.4796 11.432 21.3036 10.584C21.1276 9.736 20.8476 9.12 20.4636 8.736C20.0796 8.336 19.5756 8.136 18.9516 8.136C18.2956 8.136 17.7596 8.336 17.3436 8.736C16.9276 9.12 16.6156 9.736 16.4076 10.584C16.1996 11.432 16.0636 12.56 15.9996 13.968H21.5676ZM25.8673 21V20.76H26.0593C26.5553 20.76 26.9473 20.696 27.2353 20.568C27.5233 20.424 27.7233 20.192 27.8353 19.872C27.9633 19.552 28.0273 19.112 28.0273 18.552V10.536C28.0273 9.992 27.9633 9.568 27.8353 9.264C27.7233 8.944 27.5313 8.72 27.2593 8.592C26.9873 8.448 26.6033 8.376 26.1073 8.376H25.9873V8.136H30.2593V10.392H30.3073C30.5313 9.64 30.8433 9.088 31.2433 8.736C31.6433 8.384 32.0753 8.16 32.5393 8.064C33.0193 7.952 33.4593 7.896 33.8593 7.896C35.2833 7.896 36.3393 8.272 37.0273 9.024C37.7313 9.76 38.0833 10.952 38.0833 12.6V18.552C38.0833 19.112 38.1393 19.552 38.2513 19.872C38.3633 20.192 38.5473 20.424 38.8033 20.568C39.0753 20.696 39.4353 20.76 39.8833 20.76H40.0033V21H35.8273V11.784C35.8273 10.744 35.6353 9.896 35.2513 9.24C34.8673 8.584 34.2033 8.256 33.2593 8.256C32.5073 8.256 31.9153 8.456 31.4833 8.856C31.0513 9.256 30.7393 9.776 30.5473 10.416C30.3713 11.04 30.2833 11.696 30.2833 12.384V18.552C30.2833 19.112 30.3393 19.552 30.4513 19.872C30.5793 20.192 30.7793 20.424 31.0513 20.568C31.3393 20.696 31.7233 20.76 32.2033 20.76H32.3233V21H25.8673ZM51.8147 21.24C50.5987 21.24 49.7107 20.968 49.1507 20.424C48.6067 19.864 48.3347 18.896 48.3347 17.52V8.376H46.5107V8.136C47.0867 8.136 47.5827 8.088 47.9987 7.992C48.4307 7.88 48.7987 7.712 49.1027 7.488C49.4227 7.264 49.6787 6.96 49.8707 6.576C50.0787 6.192 50.2387 5.728 50.3507 5.184H50.5907V8.136H53.9507V8.376H50.5907V18.408C50.5907 19.24 50.7507 19.864 51.0707 20.28C51.3907 20.696 51.8627 20.904 52.4867 20.904C52.7107 20.904 52.9427 20.88 53.1827 20.832C53.4227 20.784 53.6787 20.712 53.9507 20.616V20.856C53.7427 20.952 53.4307 21.04 53.0147 21.12C52.5987 21.2 52.1987 21.24 51.8147 21.24ZM54.9242 21V20.76H55.1162C55.6122 20.76 56.0042 20.696 56.2922 20.568C56.5802 20.424 56.7802 20.192 56.8922 19.872C57.0202 19.552 57.0842 19.112 57.0842 18.552V5.16C57.0842 4.616 57.0202 4.192 56.8922 3.888C56.7802 3.568 56.5882 3.344 56.3162 3.216C56.0442 3.072 55.6602 3 55.1642 3H55.0442V2.76H59.3402V7.608C59.3402 7.912 59.3402 8.224 59.3402 8.544C59.3402 8.848 59.3402 9.152 59.3402 9.456C59.3402 9.76 59.3322 10.072 59.3162 10.392H59.3642C59.5882 9.64 59.9002 9.088 60.3002 8.736C60.7002 8.384 61.1322 8.16 61.5962 8.064C62.0762 7.952 62.5162 7.896 62.9162 7.896C64.3402 7.896 65.3962 8.272 66.0842 9.024C66.7882 9.76 67.1402 10.952 67.1402 12.6V18.552C67.1402 19.112 67.1962 19.552 67.3082 19.872C67.4202 20.192 67.6042 20.424 67.8602 20.568C68.1322 20.696 68.4922 20.76 68.9402 20.76H69.0602V21H64.8842V11.784C64.8842 10.744 64.6922 9.896 64.3082 9.24C63.9242 8.584 63.2602 8.256 62.3162 8.256C61.5642 8.256 60.9722 8.456 60.5402 8.856C60.1082 9.256 59.7962 9.776 59.6042 10.416C59.4282 11.04 59.3402 11.696 59.3402 12.384V18.552C59.3402 19.112 59.3962 19.552 59.5082 19.872C59.6362 20.192 59.8362 20.424 60.1082 20.568C60.3962 20.696 60.7802 20.76 61.2602 20.76H61.3802V21H54.9242ZM76.5186 21.24C75.1106 21.24 74.0546 20.872 73.3506 20.136C72.6626 19.384 72.3186 18.184 72.3186 16.536V10.536C72.3186 9.992 72.2546 9.568 72.1266 9.264C72.0146 8.944 71.8146 8.72 71.5266 8.592C71.2386 8.448 70.8466 8.376 70.3506 8.376H70.2786V8.136H74.5746V16.656C74.5746 17.68 74.6466 18.504 74.7906 19.128C74.9346 19.736 75.1746 20.184 75.5106 20.472C75.8626 20.76 76.3266 20.904 76.9026 20.904C77.6226 20.904 78.2146 20.72 78.6786 20.352C79.1586 19.968 79.5186 19.416 79.7586 18.696C79.9986 17.96 80.1186 17.08 80.1186 16.056V10.536C80.1186 9.992 80.0546 9.568 79.9266 9.264C79.8146 8.944 79.6146 8.72 79.3266 8.592C79.0386 8.448 78.6466 8.376 78.1506 8.376H78.0786V8.136H82.3746V18.624C82.3746 19.168 82.4306 19.6 82.5426 19.92C82.6706 20.224 82.8786 20.44 83.1666 20.568C83.4546 20.696 83.8466 20.76 84.3426 20.76H84.4146V21H80.2866V17.712H80.2386C80.1106 18.528 79.9026 19.176 79.6146 19.656C79.3426 20.12 79.0226 20.464 78.6546 20.688C78.3026 20.912 77.9346 21.056 77.5506 21.12C77.1826 21.2 76.8386 21.24 76.5186 21.24ZM91.0236 21V20.76H91.2156C91.6956 20.76 92.0796 20.696 92.3676 20.568C92.6556 20.44 92.8636 20.24 92.9916 19.968C93.1196 19.696 93.1836 19.344 93.1836 18.912V10.248C93.1836 9.8 93.1196 9.44 92.9916 9.168C92.8636 8.896 92.6556 8.696 92.3676 8.568C92.0796 8.44 91.6956 8.376 91.2156 8.376H91.1436V8.136H95.4156V10.416H95.4636C95.6876 9.712 95.9836 9.184 96.3516 8.832C96.7356 8.464 97.1596 8.216 97.6236 8.088C98.0876 7.96 98.5596 7.896 99.0396 7.896C99.8876 7.896 100.648 8.104 101.32 8.52C102.008 8.92 102.512 9.688 102.832 10.824H102.88C103.088 9.96 103.376 9.32 103.744 8.904C104.128 8.488 104.552 8.216 105.016 8.088C105.48 7.96 105.936 7.896 106.384 7.896C107.76 7.896 108.776 8.296 109.432 9.096C110.104 9.88 110.44 11.072 110.44 12.672V18.792C110.44 19.272 110.504 19.656 110.632 19.944C110.76 20.232 110.968 20.44 111.256 20.568C111.56 20.696 111.944 20.76 112.408 20.76H112.48V21H108.184V12.192C108.184 10.864 108 9.896 107.632 9.288C107.264 8.68 106.672 8.376 105.856 8.376C105.248 8.376 104.728 8.536 104.296 8.856C103.864 9.16 103.536 9.608 103.312 10.2C103.104 10.792 103 11.512 103 12.36V18.792C103 19.272 103.064 19.656 103.192 19.944C103.32 20.232 103.528 20.44 103.816 20.568C104.12 20.696 104.504 20.76 104.968 20.76H105.04V21H100.744V12.192C100.744 10.864 100.552 9.896 100.168 9.288C99.7996 8.68 99.1916 8.376 98.3436 8.376C97.7036 8.376 97.1676 8.536 96.7356 8.856C96.3036 9.176 95.9756 9.656 95.7516 10.296C95.5436 10.936 95.4396 11.736 95.4396 12.696V18.792C95.4396 19.272 95.5036 19.656 95.6316 19.944C95.7596 20.232 95.9676 20.44 96.2556 20.568C96.5596 20.696 96.9436 20.76 97.4076 20.76H97.4796V21H91.0236ZM113.591 21V20.76H113.903C114.383 20.76 114.767 20.696 115.055 20.568C115.343 20.44 115.551 20.24 115.679 19.968C115.807 19.696 115.871 19.344 115.871 18.912V10.248C115.871 9.8 115.807 9.44 115.679 9.168C115.551 8.896 115.343 8.696 115.055 8.568C114.767 8.44 114.383 8.376 113.903 8.376H113.831V8.136H118.127V18.792C118.127 19.272 118.191 19.656 118.319 19.944C118.447 20.232 118.655 20.44 118.943 20.568C119.247 20.696 119.631 20.76 120.095 20.76H120.407V21H113.591ZM117.623 6.456C117.319 6.216 116.975 5.936 116.591 5.616C116.207 5.28 115.823 4.944 115.439 4.608C115.071 4.256 114.727 3.928 114.407 3.624C114.103 3.32 113.863 3.064 113.687 2.856V2.616H115.847C116.023 2.968 116.223 3.36 116.447 3.792C116.671 4.224 116.903 4.648 117.143 5.064C117.399 5.48 117.639 5.864 117.863 6.216V6.456H117.623ZM121.399 21V20.76H121.591C122.087 20.76 122.479 20.696 122.767 20.568C123.055 20.424 123.255 20.192 123.367 19.872C123.495 19.552 123.559 19.112 123.559 18.552V10.536C123.559 9.992 123.495 9.568 123.367 9.264C123.255 8.944 123.063 8.72 122.791 8.592C122.519 8.448 122.135 8.376 121.639 8.376H121.519V8.136H125.791V10.392H125.839C126.063 9.64 126.375 9.088 126.775 8.736C127.175 8.384 127.607 8.16 128.071 8.064C128.551 7.952 128.991 7.896 129.391 7.896C130.815 7.896 131.871 8.272 132.559 9.024C133.263 9.76 133.615 10.952 133.615 12.6V18.552C133.615 19.112 133.671 19.552 133.783 19.872C133.895 20.192 134.079 20.424 134.335 20.568C134.607 20.696 134.967 20.76 135.415 20.76H135.535V21H131.359V11.784C131.359 10.744 131.167 9.896 130.783 9.24C130.399 8.584 129.735 8.256 128.791 8.256C128.039 8.256 127.447 8.456 127.015 8.856C126.583 9.256 126.271 9.776 126.079 10.416C125.903 11.04 125.815 11.696 125.815 12.384V18.552C125.815 19.112 125.871 19.552 125.983 19.872C126.111 20.192 126.311 20.424 126.583 20.568C126.871 20.696 127.255 20.76 127.735 20.76H127.855V21H121.399ZM136.627 21V20.76H136.819C137.315 20.76 137.707 20.696 137.995 20.568C138.283 20.424 138.483 20.192 138.595 19.872C138.723 19.552 138.787 19.112 138.787 18.552V5.16C138.787 4.616 138.723 4.192 138.595 3.888C138.483 3.568 138.291 3.344 138.019 3.216C137.747 3.072 137.363 3 136.867 3H136.747V2.76H141.043V7.608C141.043 7.912 141.043 8.224 141.043 8.544C141.043 8.848 141.043 9.152 141.043 9.456C141.043 9.76 141.035 10.072 141.019 10.392H141.067C141.291 9.64 141.603 9.088 142.003 8.736C142.403 8.384 142.835 8.16 143.299 8.064C143.779 7.952 144.219 7.896 144.619 7.896C146.043 7.896 147.099 8.272 147.787 9.024C148.491 9.76 148.843 10.952 148.843 12.6V18.552C148.843 19.112 148.899 19.552 149.011 19.872C149.123 20.192 149.307 20.424 149.563 20.568C149.835 20.696 150.195 20.76 150.643 20.76H150.763V21H146.587V11.784C146.587 10.744 146.395 9.896 146.011 9.24C145.627 8.584 144.963 8.256 144.019 8.256C143.267 8.256 142.675 8.456 142.243 8.856C141.811 9.256 141.499 9.776 141.307 10.416C141.131 11.04 141.043 11.696 141.043 12.384V18.552C141.043 19.112 141.099 19.552 141.211 19.872C141.339 20.192 141.539 20.424 141.811 20.568C142.099 20.696 142.483 20.76 142.963 20.76H143.083V21H136.627ZM162.964 21.24C161.924 21.24 161.044 20.992 160.324 20.496C159.604 20 159.06 19.272 158.692 18.312C158.324 17.336 158.14 16.16 158.14 14.784C158.14 13.392 158.316 12.224 158.668 11.28C159.036 10.32 159.572 9.6 160.276 9.12C160.996 8.624 161.876 8.376 162.916 8.376C164.004 8.376 164.852 8.672 165.46 9.264C166.084 9.84 166.5 10.736 166.708 11.952H166.756C166.74 11.376 166.724 10.8 166.708 10.224C166.708 9.632 166.708 9.104 166.708 8.64C166.708 8.176 166.708 7.848 166.708 7.656V6.312H162.604V6.072H166.708V4.872C166.708 4.424 166.644 4.064 166.516 3.792C166.388 3.52 166.18 3.32 165.892 3.192C165.604 3.064 165.22 3 164.74 3H164.668V2.76H168.964V6.072H171.148V6.312H168.964V18.912C168.964 19.344 169.028 19.696 169.156 19.968C169.284 20.24 169.492 20.44 169.78 20.568C170.084 20.696 170.468 20.76 170.932 20.76H171.124V21H166.732V17.616H166.684C166.476 18.848 166.06 19.76 165.436 20.352C164.828 20.944 164.004 21.24 162.964 21.24ZM163.372 20.88C164.508 20.88 165.348 20.376 165.892 19.368C166.436 18.344 166.708 16.816 166.708 14.784C166.708 13.472 166.588 12.368 166.348 11.472C166.124 10.576 165.772 9.896 165.292 9.432C164.812 8.968 164.18 8.736 163.396 8.736C162.692 8.736 162.124 8.944 161.692 9.36C161.26 9.76 160.948 10.408 160.756 11.304C160.564 12.184 160.468 13.336 160.468 14.76C160.468 16.2 160.564 17.376 160.756 18.288C160.948 19.184 161.26 19.84 161.692 20.256C162.124 20.672 162.684 20.88 163.372 20.88ZM174.515 6.24C174.835 5.936 175.155 5.6 175.475 5.232C175.795 4.864 176.099 4.496 176.387 4.128C176.691 3.744 176.947 3.4 177.155 3.096H178.955C179.163 3.4 179.411 3.744 179.699 4.128C180.003 4.496 180.315 4.864 180.635 5.232C180.971 5.6 181.291 5.936 181.595 6.24V6.456H181.355C181.051 6.296 180.691 6.096 180.275 5.856C179.859 5.616 179.451 5.36 179.051 5.088C178.651 4.816 178.323 4.568 178.067 4.344C177.827 4.568 177.499 4.816 177.083 5.088C176.683 5.36 176.267 5.616 175.835 5.856C175.419 6.096 175.059 6.296 174.755 6.456H174.515V6.24ZM180.875 2.952C181.323 2.952 181.643 2.864 181.835 2.688C182.043 2.512 182.147 2.184 182.147 1.704C182.147 1.304 182.091 1.024 181.979 0.863999C181.867 0.687999 181.651 0.599999 181.331 0.599999C180.963 0.599999 180.715 0.711999 180.587 0.935999C180.459 1.16 180.395 1.448 180.395 1.8C180.187 1.8 180.011 1.744 179.867 1.632C179.739 1.52 179.675 1.384 179.675 1.224C179.675 0.951999 179.827 0.743999 180.131 0.599999C180.435 0.44 180.859 0.36 181.403 0.36C182.011 0.36 182.491 0.48 182.843 0.719999C183.211 0.943999 183.395 1.28 183.395 1.728C183.395 2.064 183.275 2.36 183.035 2.616C182.811 2.872 182.403 3.04 181.811 3.12L181.475 4.032H181.235L180.875 2.952ZM178.571 21.24C176.779 21.24 175.379 20.664 174.371 19.512C173.379 18.36 172.883 16.744 172.883 14.664C172.883 12.424 173.347 10.736 174.275 9.6C175.203 8.464 176.515 7.896 178.211 7.896C179.763 7.896 180.979 8.376 181.859 9.336C182.755 10.296 183.203 11.728 183.203 13.632V14.208H175.211C175.227 15.84 175.347 17.152 175.571 18.144C175.795 19.136 176.155 19.864 176.651 20.328C177.163 20.776 177.827 21 178.643 21C179.251 21 179.787 20.888 180.251 20.664C180.731 20.44 181.131 20.112 181.451 19.68C181.771 19.232 181.987 18.688 182.099 18.048C182.291 18.08 182.435 18.176 182.531 18.336C182.627 18.496 182.675 18.664 182.675 18.84C182.675 19.16 182.523 19.512 182.219 19.896C181.915 20.264 181.459 20.584 180.851 20.856C180.259 21.112 179.499 21.24 178.571 21.24ZM180.779 13.968C180.779 12.56 180.691 11.432 180.515 10.584C180.339 9.736 180.059 9.12 179.675 8.736C179.291 8.336 178.787 8.136 178.163 8.136C177.507 8.136 176.971 8.336 176.555 8.736C176.139 9.12 175.827 9.736 175.619 10.584C175.411 11.432 175.275 12.56 175.211 13.968H180.779ZM190.469 21V20.76H190.661C191.157 20.76 191.549 20.696 191.837 20.568C192.125 20.424 192.325 20.192 192.437 19.872C192.565 19.552 192.629 19.112 192.629 18.552V10.536C192.629 9.992 192.565 9.568 192.437 9.264C192.325 8.944 192.133 8.72 191.861 8.592C191.589 8.448 191.205 8.376 190.709 8.376H190.589V8.136H194.861V10.392H194.909C195.133 9.64 195.445 9.088 195.845 8.736C196.245 8.384 196.677 8.16 197.141 8.064C197.621 7.952 198.061 7.896 198.461 7.896C199.885 7.896 200.941 8.272 201.629 9.024C202.333 9.76 202.685 10.952 202.685 12.6V18.552C202.685 19.112 202.741 19.552 202.853 19.872C202.965 20.192 203.149 20.424 203.405 20.568C203.677 20.696 204.037 20.76 204.485 20.76H204.605V21H200.429V11.784C200.429 10.744 200.237 9.896 199.853 9.24C199.469 8.584 198.805 8.256 197.861 8.256C197.109 8.256 196.517 8.456 196.085 8.856C195.653 9.256 195.341 9.776 195.149 10.416C194.973 11.04 194.885 11.696 194.885 12.384V18.552C194.885 19.112 194.941 19.552 195.053 19.872C195.181 20.192 195.381 20.424 195.653 20.568C195.941 20.696 196.325 20.76 196.805 20.76H196.925V21H190.469ZM211.506 4.944C212.034 4.944 212.482 4.832 212.85 4.608C213.218 4.384 213.402 3.904 213.402 3.168C213.402 2.528 213.266 2.104 212.994 1.896C212.738 1.672 212.41 1.56 212.01 1.56C211.626 1.56 211.29 1.68 211.002 1.92C210.714 2.16 210.57 2.68 210.57 3.48C210.218 3.416 209.978 3.304 209.85 3.144C209.738 2.984 209.682 2.808 209.682 2.616C209.682 2.152 209.922 1.824 210.402 1.632C210.882 1.424 211.442 1.32 212.082 1.32C212.93 1.32 213.618 1.488 214.146 1.824C214.69 2.144 214.962 2.624 214.962 3.264C214.962 3.616 214.866 3.912 214.674 4.152C214.498 4.392 214.226 4.592 213.858 4.752C213.506 4.896 213.058 5 212.514 5.064L212.13 6.84H211.89L211.506 4.944ZM212.154 21.24C210.426 21.24 209.066 20.688 208.074 19.584C207.082 18.48 206.586 16.8 206.586 14.544C206.586 12.304 207.058 10.64 208.002 9.552C208.962 8.448 210.37 7.896 212.226 7.896C213.394 7.896 214.394 8.144 215.226 8.64C216.058 9.12 216.69 9.864 217.122 10.872C217.602 10.696 218.002 10.472 218.322 10.2C218.642 9.928 218.802 9.592 218.802 9.192C218.802 8.952 218.746 8.768 218.634 8.64C218.538 8.496 218.418 8.392 218.274 8.328C218.13 8.248 217.978 8.168 217.818 8.088C217.674 7.992 217.546 7.872 217.434 7.728C217.338 7.584 217.29 7.384 217.29 7.128C217.29 6.792 217.402 6.512 217.626 6.288C217.866 6.048 218.21 5.928 218.658 5.928C219.122 5.928 219.482 6.064 219.738 6.336C219.994 6.592 220.122 6.96 220.122 7.44C220.122 8.176 219.914 8.864 219.498 9.504C219.098 10.144 218.338 10.672 217.218 11.088C217.41 11.552 217.554 12.072 217.65 12.648C217.746 13.224 217.794 13.856 217.794 14.544C217.794 16.8 217.314 18.48 216.354 19.584C215.41 20.688 214.01 21.24 212.154 21.24ZM212.202 21C212.986 21 213.618 20.784 214.098 20.352C214.578 19.92 214.922 19.232 215.13 18.288C215.354 17.344 215.466 16.096 215.466 14.544C215.466 13.008 215.354 11.768 215.13 10.824C214.922 9.88 214.578 9.2 214.098 8.784C213.618 8.352 212.978 8.136 212.178 8.136C211.394 8.136 210.762 8.352 210.282 8.784C209.802 9.2 209.45 9.88 209.226 10.824C209.018 11.768 208.914 13.008 208.914 14.544C208.914 16.096 209.018 17.344 209.226 18.288C209.45 19.232 209.802 19.92 210.282 20.352C210.778 20.784 211.418 21 212.202 21ZM231.378 21.24C230.338 21.24 229.458 20.992 228.738 20.496C228.018 20 227.474 19.272 227.106 18.312C226.738 17.336 226.554 16.16 226.554 14.784C226.554 13.392 226.73 12.224 227.082 11.28C227.45 10.32 227.986 9.6 228.69 9.12C229.41 8.624 230.29 8.376 231.33 8.376C232.418 8.376 233.266 8.672 233.874 9.264C234.498 9.84 234.914 10.736 235.122 11.952H235.17C235.154 11.376 235.138 10.8 235.122 10.224C235.122 9.632 235.122 9.104 235.122 8.64C235.122 8.176 235.122 7.848 235.122 7.656V6.312H231.018V6.072H235.122V4.872C235.122 4.424 235.058 4.064 234.93 3.792C234.802 3.52 234.594 3.32 234.306 3.192C234.018 3.064 233.634 3 233.154 3H233.082V2.76H237.378V6.072H239.562V6.312H237.378V18.912C237.378 19.344 237.442 19.696 237.57 19.968C237.698 20.24 237.906 20.44 238.194 20.568C238.498 20.696 238.882 20.76 239.346 20.76H239.538V21H235.146V17.616H235.098C234.89 18.848 234.474 19.76 233.85 20.352C233.242 20.944 232.418 21.24 231.378 21.24ZM231.786 20.88C232.922 20.88 233.762 20.376 234.306 19.368C234.85 18.344 235.122 16.816 235.122 14.784C235.122 13.472 235.002 12.368 234.762 11.472C234.538 10.576 234.186 9.896 233.706 9.432C233.226 8.968 232.594 8.736 231.81 8.736C231.106 8.736 230.538 8.944 230.106 9.36C229.674 9.76 229.362 10.408 229.17 11.304C228.978 12.184 228.882 13.336 228.882 14.76C228.882 16.2 228.978 17.376 229.17 18.288C229.362 19.184 229.674 19.84 230.106 20.256C230.538 20.672 231.098 20.88 231.786 20.88ZM246.985 21.24C245.193 21.24 243.793 20.664 242.785 19.512C241.793 18.36 241.297 16.744 241.297 14.664C241.297 12.424 241.761 10.736 242.689 9.6C243.617 8.464 244.929 7.896 246.625 7.896C248.177 7.896 249.393 8.376 250.273 9.336C251.169 10.296 251.617 11.728 251.617 13.632V14.208H243.625C243.641 15.84 243.761 17.152 243.985 18.144C244.209 19.136 244.569 19.864 245.065 20.328C245.577 20.776 246.241 21 247.057 21C247.665 21 248.201 20.888 248.665 20.664C249.145 20.44 249.545 20.112 249.865 19.68C250.185 19.232 250.401 18.688 250.513 18.048C250.705 18.08 250.849 18.176 250.945 18.336C251.041 18.496 251.089 18.664 251.089 18.84C251.089 19.16 250.937 19.512 250.633 19.896C250.329 20.264 249.873 20.584 249.265 20.856C248.673 21.112 247.913 21.24 246.985 21.24ZM249.193 13.968C249.193 12.56 249.105 11.432 248.929 10.584C248.753 9.736 248.473 9.12 248.089 8.736C247.705 8.336 247.201 8.136 246.577 8.136C245.921 8.136 245.385 8.336 244.969 8.736C244.553 9.12 244.241 9.736 244.033 10.584C243.825 11.432 243.689 12.56 243.625 13.968H249.193ZM246.481 25.392C246.177 25.392 245.921 25.288 245.713 25.08C245.521 24.888 245.425 24.544 245.425 24.048C245.425 23.536 245.521 23.184 245.713 22.992C245.921 22.8 246.177 22.704 246.481 22.704C246.769 22.704 247.017 22.8 247.225 22.992C247.433 23.184 247.537 23.536 247.537 24.048C247.537 24.544 247.433 24.888 247.225 25.08C247.017 25.288 246.769 25.392 246.481 25.392ZM253.252 26.76V26.52H253.444C253.924 26.52 254.308 26.456 254.596 26.328C254.884 26.2 255.092 26 255.22 25.728C255.348 25.456 255.412 25.104 255.412 24.672V10.248C255.412 9.8 255.348 9.44 255.22 9.168C255.092 8.896 254.884 8.696 254.596 8.568C254.308 8.44 253.924 8.376 253.444 8.376H253.132V8.136H257.62V11.472H257.668C257.892 10.256 258.308 9.36 258.916 8.784C259.54 8.192 260.388 7.896 261.46 7.896C263.028 7.896 264.212 8.456 265.012 9.576C265.828 10.696 266.236 12.352 266.236 14.544C266.236 16.736 265.82 18.4 264.988 19.536C264.172 20.672 262.98 21.24 261.412 21.24C260.372 21.24 259.548 20.944 258.94 20.352C258.332 19.76 257.916 18.848 257.692 17.616H257.644C257.66 18.016 257.668 18.416 257.668 18.816C257.668 19.216 257.668 19.616 257.668 20.016V24.552C257.668 25.016 257.732 25.392 257.86 25.68C257.988 25.984 258.196 26.2 258.484 26.328C258.772 26.456 259.156 26.52 259.636 26.52H259.708V26.76H253.252ZM261.004 20.88C261.708 20.88 262.268 20.672 262.684 20.256C263.116 19.824 263.428 19.144 263.62 18.216C263.812 17.272 263.908 16.04 263.908 14.52C263.908 13.016 263.812 11.808 263.62 10.896C263.428 9.968 263.116 9.296 262.684 8.88C262.252 8.464 261.684 8.256 260.98 8.256C260.212 8.256 259.58 8.496 259.084 8.976C258.604 9.44 258.244 10.136 258.004 11.064C257.78 11.992 257.668 13.152 257.668 14.544C257.668 15.968 257.788 17.152 258.028 18.096C258.268 19.04 258.636 19.744 259.132 20.208C259.628 20.656 260.252 20.88 261.004 20.88ZM273.385 21V20.76H273.577C274.073 20.76 274.465 20.696 274.753 20.568C275.041 20.424 275.241 20.192 275.353 19.872C275.481 19.552 275.545 19.112 275.545 18.552V5.16C275.545 4.616 275.481 4.192 275.353 3.888C275.241 3.568 275.049 3.344 274.777 3.216C274.505 3.072 274.121 3 273.625 3H273.505V2.76H277.801V7.608C277.801 7.912 277.801 8.224 277.801 8.544C277.801 8.848 277.801 9.152 277.801 9.456C277.801 9.76 277.793 10.072 277.777 10.392H277.825C278.049 9.64 278.361 9.088 278.761 8.736C279.161 8.384 279.593 8.16 280.057 8.064C280.537 7.952 280.977 7.896 281.377 7.896C282.801 7.896 283.857 8.272 284.545 9.024C285.249 9.76 285.601 10.952 285.601 12.6V18.552C285.601 19.112 285.657 19.552 285.769 19.872C285.881 20.192 286.065 20.424 286.321 20.568C286.593 20.696 286.953 20.76 287.401 20.76H287.521V21H283.345V11.784C283.345 10.744 283.153 9.896 282.769 9.24C282.385 8.584 281.721 8.256 280.777 8.256C280.025 8.256 279.433 8.456 279.001 8.856C278.569 9.256 278.257 9.776 278.065 10.416C277.889 11.04 277.801 11.696 277.801 12.384V18.552C277.801 19.112 277.857 19.552 277.969 19.872C278.097 20.192 278.297 20.424 278.569 20.568C278.857 20.696 279.241 20.76 279.721 20.76H279.841V21H273.385ZM295.076 21.24C293.348 21.24 291.988 20.688 290.996 19.584C290.004 18.48 289.508 16.8 289.508 14.544C289.508 12.304 289.98 10.64 290.924 9.552C291.884 8.448 293.292 7.896 295.148 7.896C296.316 7.896 297.316 8.144 298.148 8.64C298.98 9.12 299.612 9.864 300.044 10.872C300.524 10.696 300.924 10.472 301.244 10.2C301.564 9.928 301.724 9.592 301.724 9.192C301.724 8.952 301.668 8.768 301.556 8.64C301.46 8.496 301.34 8.392 301.196 8.328C301.052 8.248 300.9 8.168 300.74 8.088C300.595 7.992 300.468 7.872 300.356 7.728C300.26 7.584 300.212 7.384 300.212 7.128C300.212 6.792 300.324 6.512 300.548 6.288C300.788 6.048 301.132 5.928 301.58 5.928C302.044 5.928 302.404 6.064 302.66 6.336C302.916 6.592 303.044 6.96 303.044 7.44C303.044 8.176 302.836 8.864 302.42 9.504C302.02 10.144 301.26 10.672 300.14 11.088C300.332 11.552 300.476 12.072 300.572 12.648C300.668 13.224 300.716 13.856 300.716 14.544C300.716 16.8 300.236 18.48 299.276 19.584C298.332 20.688 296.932 21.24 295.076 21.24ZM295.124 21C295.908 21 296.54 20.784 297.02 20.352C297.5 19.92 297.844 19.232 298.052 18.288C298.276 17.344 298.388 16.096 298.388 14.544C298.388 13.008 298.276 11.768 298.052 10.824C297.844 9.88 297.5 9.2 297.02 8.784C296.54 8.352 295.9 8.136 295.1 8.136C294.316 8.136 293.684 8.352 293.204 8.784C292.724 9.2 292.372 9.88 292.148 10.824C291.94 11.768 291.836 13.008 291.836 14.544C291.836 16.096 291.94 17.344 292.148 18.288C292.372 19.232 292.724 19.92 293.204 20.352C293.7 20.784 294.34 21 295.124 21ZM303.906 21V20.76H304.098C304.594 20.76 304.986 20.696 305.274 20.568C305.562 20.424 305.762 20.192 305.874 19.872C306.002 19.552 306.066 19.112 306.066 18.552V10.536C306.066 9.992 306.002 9.568 305.874 9.264C305.762 8.944 305.57 8.72 305.298 8.592C305.026 8.448 304.642 8.376 304.146 8.376H304.026V8.136H308.298V10.392H308.346C308.57 9.64 308.882 9.088 309.282 8.736C309.682 8.384 310.114 8.16 310.578 8.064C311.058 7.952 311.498 7.896 311.898 7.896C313.322 7.896 314.378 8.272 315.066 9.024C315.77 9.76 316.122 10.952 316.122 12.6V18.552C316.122 19.112 316.178 19.552 316.29 19.872C316.402 20.192 316.586 20.424 316.842 20.568C317.114 20.696 317.474 20.76 317.922 20.76H318.042V21H313.866V11.784C313.866 10.744 313.674 9.896 313.29 9.24C312.906 8.584 312.242 8.256 311.298 8.256C310.546 8.256 309.954 8.456 309.522 8.856C309.09 9.256 308.778 9.776 308.586 10.416C308.41 11.04 308.322 11.696 308.322 12.384V18.552C308.322 19.112 308.378 19.552 308.49 19.872C308.618 20.192 308.818 20.424 309.09 20.568C309.378 20.696 309.762 20.76 310.242 20.76H310.362V21H303.906Z" fill="black"/>
</svg>
