<svg xmlns="http://www.w3.org/2000/svg" width="125" height="109" fill="none" viewBox="0 0 125 109">
  <path fill="#2F68DC" d="M92.826 51.589H68.024v-7.446a6.18 6.18 0 0 0-6.174-6.175l-30.676-.011C27.775 37.945 25 40.72 25 44.12v19.644a6.18 6.18 0 0 0 6.174 6.175h1.145v3.468c0 .613.335 1.168.879 1.457a1.67 1.67 0 0 0 1.711-.08l7.25-4.845h13.828v7.457c0 3.4 2.764 6.163 6.163 6.163h19.703l7.25 4.856a1.67 1.67 0 0 0 1.71.081c.544-.289.88-.844.88-1.456v-3.47h1.144a6.19 6.19 0 0 0 6.186-6.162V57.775c-.023-3.411-2.798-6.186-6.197-6.186M57.687 66.62H41.638c-.323 0-.647.093-.925.278l-5.087 3.399v-2.023c0-.914-.74-1.654-1.654-1.654h-2.798a2.86 2.86 0 0 1-2.856-2.856V44.12a2.86 2.86 0 0 1 2.856-2.856l30.676.011a2.86 2.86 0 0 1 2.856 2.856v19.633a2.86 2.86 0 0 1-2.856 2.856zm37.995 10.788a2.865 2.865 0 0 1-2.868 2.856h-2.798c-.913 0-1.654.74-1.654 1.653v2.024l-5.087-3.411a1.64 1.64 0 0 0-.925-.278H62.139a2.86 2.86 0 0 1-2.856-2.856V69.94h2.555a6.18 6.18 0 0 0 6.175-6.175v-8.88h24.801a2.867 2.867 0 0 1 2.868 2.868z"/>
  <path fill="#2F68DC" d="M48.961 62.02 47.74 60.2a8.6 8.6 0 0 1-1.732.178c-4.284 0-7.281-3.108-7.281-7.393s3.086-7.392 7.281-7.392c4.307 0 7.238 3.107 7.238 7.392 0 2.575-1.066 4.729-2.842 6.038l1.998 2.997zm-2.997-4.506-1.265-1.91h3.418l.666 1c1-.822 1.577-2.087 1.577-3.619 0-2.62-1.71-4.529-4.352-4.529-2.641 0-4.417 1.91-4.417 4.53 0 2.597 1.753 4.506 4.373 4.528M70.658 75l5.86-14.43h2.176L84.533 75H81.49l-.932-2.376h-5.927L73.699 75zm5.017-4.995h3.863l-1.932-4.906zm4.267-31.787a8.96 8.96 0 0 1-11.346-1.122 9.04 9.04 0 0 1-1.117-11.388 9 9 0 0 1 4.032-3.322 8.96 8.96 0 0 1 9.792 1.956 9.05 9.05 0 0 1 1.948 9.829 9 9 0 0 1-3.31 4.047"/>
  <path fill="#2F68DC" d="M90.496 53.15a15.8 15.8 0 0 0-4.427-8.79 15.7 15.7 0 0 0-11.12-4.623 15.7 15.7 0 0 0-9.249 3.02v2.53l1.388 5.088v2.775z"/>
  <path fill="#fff" d="M73.892 33.716v-.267c0-1.148.566-1.824 1.069-2.312.676-.692 1.258-1.164 1.258-1.934 0-.613-.425-1.117-1.305-1.117-.77 0-1.494.582-1.73 1.211l-1.73-.833c.44-1.148 1.636-2.233 3.46-2.233 1.934 0 3.412.96 3.412 2.799 0 1.274-.645 1.918-1.226 2.516-.677.723-1.18 1.226-1.18 1.903v.267zm1.038 3.035a1.025 1.025 0 0 1-1.054-1.054c0-.597.44-1.053 1.054-1.053.613 0 1.053.456 1.053 1.053 0 .598-.44 1.054-1.053 1.054"/>
</svg>
