<svg xmlns="http://www.w3.org/2000/svg" width="31" height="32" fill="none" viewBox="0 0 31 32">
  <path fill="#fff" fill-rule="evenodd" d="M23.25 2.444h-6.643V1.337a1.108 1.108 0 0 0-2.214 0v1.107H7.75V1.337a1.108 1.108 0 0 0-2.214 0v1.107H3.32A3.323 3.323 0 0 0 0 5.766v22.142a3.323 3.323 0 0 0 3.321 3.322H27.68A3.323 3.323 0 0 0 31 27.908V5.766a3.323 3.323 0 0 0-3.321-3.322h-2.215V1.337a1.108 1.108 0 0 0-2.214 0zm5.536 8.857v16.607c0 .612-.496 1.108-1.107 1.108H3.32a1.11 1.11 0 0 1-1.107-1.108V11.301zM7.75 21.266a2.215 2.215 0 1 0 .002 4.43 2.215 2.215 0 0 0-.002-4.43m7.75 0a2.215 2.215 0 1 0 .002 4.43 2.215 2.215 0 0 0-.002-4.43m-7.75-6.643a2.215 2.215 0 1 0 .002 4.43 2.215 2.215 0 0 0-.002-4.43m7.75 0a2.215 2.215 0 1 0 .002 4.43 2.215 2.215 0 0 0-.002-4.43m7.75 0a2.215 2.215 0 1 0 .002 4.43 2.215 2.215 0 0 0-.002-4.43m2.214-9.965H23.25v1.108a1.108 1.108 0 0 0 2.214 0zm-8.857 0h-2.214v1.108a1.108 1.108 0 0 0 2.214 0zm-8.857 0H5.536v1.108a1.108 1.108 0 0 0 2.214 0z" clip-rule="evenodd"/>
</svg>
