<svg xmlns="http://www.w3.org/2000/svg" width="252" height="100" fill="none" viewBox="0 0 252 100">
  <path fill="#D61313" d="M130.074-.36C61.759-.36 11.09 23.823 11.09 23.823l26.939 66.9c34.07-12.05 65.022-16.054 91.139-16.054 52.01 0 84.84 15.906 84.84 15.906l26.884-67.103C202.291 5.614 164.005-.36 130.065-.351z"/>
  <g style="mix-blend-mode:multiply">
    <mask id="a" width="230" height="92" x="11" y="-1" maskUnits="userSpaceOnUse" style="mask-type:luminance">
      <path fill="#fff" d="M130.074-.36C61.759-.36 11.09 23.823 11.09 23.823l26.939 66.9c34.07-12.05 65.022-16.054 91.139-16.054 52.01 0 84.84 15.906 84.84 15.906l26.884-67.103C202.291 5.614 164.005-.36 130.065-.351z"/>
    </mask>
    <g fill="#F56D27" mask="url(#a)">
      <path d="M11.09 84.61c5.105 0 9.248 4.143 9.248 9.248-5.105 0-9.248-4.143-9.248-9.248m18.496 0c0 5.105-4.144 9.248-9.248 9.248 0-5.105 4.143-9.248 9.247-9.248m.001 0c-5.105 0-9.248-4.143-9.248-9.248 5.104 0 9.247 4.143 9.247 9.248m-9.247-9.248c0 5.105-4.143 9.248-9.248 9.248 0-5.105 4.143-9.248 9.248-9.248m27.744 9.248c0 5.105-4.144 9.248-9.248 9.248 0-5.105 4.143-9.248 9.247-9.248m.001 0c-5.105 0-9.248-4.143-9.248-9.248 5.104 0 9.247 4.143 9.247 9.248m-9.247-9.248c0 5.105-4.144 9.248-9.248 9.248 0-5.105 4.143-9.248 9.248-9.248m-9.248 9.248c5.104 0 9.248 4.143 9.248 9.248-5.105 0-9.248-4.143-9.248-9.248m36.991 0c0 5.105-4.143 9.248-9.248 9.248 0-5.105 4.143-9.248 9.248-9.248"/>
      <path d="M57.33 75.362c0 5.105-4.144 9.248-9.249 9.248 0-5.105 4.143-9.248 9.248-9.248m-9.248 9.248c5.105 0 9.248 4.143 9.248 9.248-5.105 0-9.248-4.143-9.248-9.248"/>
      <path d="M66.577 84.61c-5.105 0-9.248-4.143-9.248-9.248 5.105 0 9.248 4.143 9.248 9.248m0 0c5.105 0 9.248 4.143 9.248 9.248-5.105 0-9.248-4.143-9.248-9.248m9.248-9.248c0 5.105-4.143 9.248-9.248 9.248 0-5.105 4.144-9.248 9.248-9.248"/>
      <path d="M85.073 84.61c0 5.105-4.143 9.239-9.248 9.248 0-5.105 4.143-9.248 9.248-9.248m0 0c-5.105 0-9.248-4.143-9.248-9.248 5.105 0 9.248 4.143 9.248 9.248m9.248-9.248c0 5.105-4.143 9.248-9.248 9.248 0-5.105 4.143-9.248 9.248-9.248m-9.248 9.248c5.105 0 9.248 4.143 9.248 9.248-5.105 0-9.239-4.143-9.248-9.248m18.496 0c0 5.105-4.143 9.248-9.248 9.248 0-5.105 4.143-9.248 9.248-9.248m0 0c-5.105 0-9.248-4.143-9.248-9.248 5.105 0 9.248 4.143 9.248 9.248m18.496 0c-5.105 0-9.248-4.143-9.248-9.248 5.105 0 9.248 4.143 9.248 9.248"/>
      <path d="M112.817 75.362c0 5.105-4.143 9.248-9.248 9.248 0-5.105 4.143-9.248 9.248-9.248m-9.248 9.248c5.105 0 9.248 4.143 9.248 9.248-5.105 0-9.248-4.143-9.248-9.248m18.496 0c0 5.105-4.143 9.248-9.248 9.248 0-5.105 4.143-9.248 9.248-9.248m9.248-9.248c0 5.105-4.143 9.248-9.248 9.248 0-5.105 4.143-9.248 9.248-9.248m9.248 9.248c-5.105 0-9.248-4.143-9.248-9.248 5.105 0 9.248 4.143 9.248 9.248m0 0c0 5.105-4.143 9.239-9.248 9.248 0-5.105 4.143-9.248 9.248-9.248m-18.496 0c5.105 0 9.248 4.143 9.248 9.248-5.105 0-9.248-4.143-9.248-9.248m36.992 0c-5.105 0-9.248-4.143-9.248-9.248 5.105 0 9.248 4.143 9.248 9.248m0 0c0 5.105-4.143 9.248-9.248 9.248 0-5.105 4.143-9.248 9.248-9.248m-9.248-9.248c0 5.105-4.143 9.248-9.248 9.248 0-5.105 4.143-9.248 9.248-9.248m-9.248 9.248c5.105 0 9.248 4.143 9.248 9.248-5.105 0-9.239-4.143-9.248-9.248m18.496 0c5.105 0 9.248 4.143 9.248 9.248-5.105 0-9.248-4.143-9.248-9.248m9.248-9.248c0 5.105-4.143 9.248-9.248 9.248 0-5.105 4.143-9.248 9.248-9.248m9.248 9.248c-5.105 0-9.248-4.143-9.248-9.248 5.105 0 9.248 4.143 9.248 9.248m0 0c0 5.105-4.143 9.248-9.248 9.248 0-5.105 4.143-9.248 9.248-9.248m18.496 0c-5.105 0-9.248-4.143-9.248-9.248 5.105 0 9.248 4.143 9.248 9.248m-9.248-9.248c0 5.105-4.143 9.248-9.248 9.248 0-5.105 4.143-9.248 9.248-9.248m-9.248 9.248c5.105 0 9.248 4.143 9.248 9.248-5.105 0-9.248-4.143-9.248-9.248m18.496 0c0 5.105-4.143 9.248-9.248 9.248 0-5.105 4.143-9.248 9.248-9.248m9.248-9.248c0 5.105-4.143 9.248-9.248 9.248 0-5.105 4.143-9.248 9.248-9.248m9.248 9.248c0 5.105-4.143 9.248-9.248 9.248 0-5.105 4.143-9.248 9.248-9.248m0 0c-5.105 0-9.248-4.143-9.248-9.248 5.105 0 9.248 4.143 9.248 9.248m-18.496 0c5.105 0 9.248 4.143 9.248 9.248-5.105 0-9.248-4.143-9.248-9.248m36.992 0c0 5.105-4.144 9.248-9.248 9.248 0-5.105 4.143-9.248 9.248-9.248m-18.496 0c5.104 0 9.248 4.143 9.248 9.248-5.105 0-9.248-4.143-9.248-9.248"/>
      <path d="M223.783 75.362c0 5.105-4.143 9.248-9.248 9.248 0-5.105 4.143-9.248 9.248-9.248m9.258 9.248c-5.105 0-9.248-4.143-9.248-9.248 5.104 0 9.248 4.143 9.248 9.248m0 0c5.104 0 9.247 4.143 9.247 9.248-5.104 0-9.247-4.143-9.247-9.248"/>
      <path d="M242.279 75.362c0 5.105-4.143 9.248-9.248 9.248 0-5.105 4.143-9.248 9.248-9.248M29.586 66.114c-5.105 0-9.248-4.143-9.248-9.248 5.104 0 9.247 4.143 9.247 9.248m-9.247-9.248c0 5.105-4.143 9.248-9.248 9.248 0-5.105 4.143-9.248 9.248-9.248m9.248 9.248c0 5.105-4.144 9.248-9.248 9.248 0-5.105 4.143-9.248 9.247-9.248m-18.495 0c5.105 0 9.248 4.143 9.248 9.248-5.105 0-9.248-4.143-9.248-9.248m18.496 0c5.104 0 9.248 4.143 9.248 9.248-5.105 0-9.248-4.143-9.248-9.248m9.248-9.248c0 5.105-4.144 9.248-9.248 9.248 0-5.105 4.143-9.248 9.248-9.248m9.248 9.248c0 5.105-4.144 9.248-9.248 9.248 0-5.105 4.143-9.248 9.247-9.248m.001 0c-5.105 0-9.248-4.143-9.248-9.248 5.104 0 9.247 4.143 9.247 9.248"/>
      <path d="M48.081 66.114c5.105 0 9.248 4.143 9.248 9.248-5.105 0-9.248-4.143-9.248-9.248m18.496 0c0 5.105-4.143 9.248-9.248 9.248 0-5.105 4.143-9.248 9.248-9.248m0 0c-5.105 0-9.248-4.143-9.248-9.248 5.105 0 9.248 4.143 9.248 9.248"/>
      <path d="M57.33 56.866c0 5.105-4.144 9.248-9.249 9.248 0-5.105 4.143-9.248 9.248-9.248m18.496 0c0 5.105-4.143 9.248-9.248 9.248 0-5.105 4.144-9.248 9.248-9.248m9.248 9.248c0 5.105-4.143 9.248-9.248 9.248 0-5.105 4.143-9.248 9.248-9.248"/>
      <path d="M66.577 66.114c5.105 0 9.248 4.143 9.248 9.248-5.105 0-9.248-4.143-9.248-9.248m18.496 0c-5.105 0-9.248-4.143-9.248-9.248 5.105 0 9.248 4.143 9.248 9.248m9.248-9.248c0 5.105-4.143 9.248-9.248 9.248 0-5.105 4.143-9.248 9.248-9.248m9.248 9.248c0 5.105-4.143 9.248-9.248 9.248 0-5.105 4.143-9.248 9.248-9.248m-18.496 0c5.105 0 9.248 4.143 9.248 9.248-5.105 0-9.248-4.143-9.248-9.248m18.496 0c-5.105 0-9.248-4.143-9.248-9.248 5.105 0 9.248 4.143 9.248 9.248"/>
      <path d="M112.817 56.866c0 5.105-4.143 9.248-9.248 9.248 0-5.105 4.143-9.248 9.248-9.248m9.248 9.248c0 5.105-4.143 9.248-9.248 9.248 0-5.105 4.143-9.248 9.248-9.248"/>
      <path d="M103.569 66.114c5.105 0 9.248 4.143 9.248 9.248-5.105 0-9.248-4.143-9.248-9.248m18.496 0c-5.105 0-9.248-4.143-9.248-9.248 5.105 0 9.248 4.143 9.248 9.248m18.496 0c-5.105 0-9.248-4.143-9.248-9.248 5.105 0 9.248 4.143 9.248 9.248m0 0c0 5.105-4.143 9.248-9.248 9.248 0-5.105 4.143-9.248 9.248-9.248m-18.496 0c5.105 0 9.248 4.143 9.248 9.248-5.105 0-9.248-4.143-9.248-9.248"/>
      <path d="M131.313 56.866c0 5.105-4.143 9.248-9.248 9.248 0-5.105 4.143-9.248 9.248-9.248m18.496 0c0 5.105-4.143 9.248-9.248 9.248 0-5.105 4.143-9.248 9.248-9.248m-9.248 9.248c5.105 0 9.248 4.143 9.248 9.248-5.105 0-9.248-4.143-9.248-9.248m18.496 0c-5.105 0-9.248-4.143-9.248-9.248 5.105 0 9.248 4.143 9.248 9.248m0 0c0 5.105-4.143 9.248-9.248 9.248 0-5.105 4.143-9.248 9.248-9.248m18.496 0c-5.105 0-9.248-4.143-9.248-9.248 5.105 0 9.248 4.143 9.248 9.248m-9.248-9.248c0 5.105-4.143 9.248-9.248 9.248 0-5.105 4.143-9.248 9.248-9.248m9.248 9.248c0 5.105-4.143 9.248-9.248 9.248 0-5.105 4.143-9.248 9.248-9.248m-18.496 0c5.105 0 9.248 4.143 9.248 9.248-5.105 0-9.248-4.143-9.248-9.248m36.992 0c0 5.105-4.143 9.248-9.248 9.248 0-5.105 4.143-9.248 9.248-9.248m0 0c-5.105 0-9.248-4.143-9.248-9.248 5.105 0 9.248 4.143 9.248 9.248m-18.496 0c5.105 0 9.248 4.143 9.248 9.248-5.105 0-9.248-4.143-9.248-9.248m9.248-9.248c0 5.105-4.143 9.248-9.248 9.248 0-5.105 4.143-9.248 9.248-9.248"/>
      <path d="M205.287 56.866c0 5.105-4.143 9.248-9.247 9.248 0-5.105 4.143-9.248 9.247-9.248m-9.238 9.248c5.105 0 9.248 4.143 9.248 9.248-5.105 0-9.248-4.143-9.248-9.248m18.496 0c-5.105 0-9.248-4.143-9.248-9.248 5.105 0 9.248 4.143 9.248 9.248m0 0c0 5.105-4.143 9.248-9.248 9.248 0-5.105 4.143-9.248 9.248-9.248"/>
      <path d="M223.783 56.866c0 5.105-4.143 9.248-9.248 9.248 0-5.105 4.143-9.248 9.248-9.248m9.258 9.248c-5.105 0-9.248-4.143-9.248-9.248 5.104 0 9.248 4.143 9.248 9.248m0 0c0 5.105-4.144 9.248-9.248 9.248 0-5.105 4.143-9.248 9.248-9.248m-18.496 0c5.104 0 9.248 4.143 9.248 9.248-5.105 0-9.248-4.143-9.248-9.248m18.496 0c5.104 0 9.247 4.143 9.247 9.248-5.104 0-9.247-4.143-9.247-9.248"/>
      <path d="M242.279 56.866c0 5.105-4.143 9.248-9.248 9.248 0-5.105 4.143-9.248 9.248-9.248M29.586 47.618c-5.105 0-9.248-4.143-9.248-9.248 5.104 0 9.247 4.144 9.247 9.248m-9.247 9.248c-5.105 0-9.248-4.143-9.248-9.248 5.105 0 9.248 4.143 9.248 9.248m0-18.496c0 5.105-4.143 9.248-9.248 9.248 0-5.105 4.143-9.248 9.248-9.248m9.248 9.248c0 5.105-4.144 9.248-9.248 9.248 0-5.105 4.143-9.248 9.247-9.248m.001 0c5.104 0 9.248 4.143 9.248 9.248-5.105 0-9.248-4.143-9.248-9.248m18.496 0c0 5.105-4.144 9.248-9.248 9.248 0-5.105 4.143-9.248 9.247-9.248m.001 0c-5.105 0-9.248-4.143-9.248-9.248 5.104 0 9.247 4.144 9.247 9.248m-9.247-9.248c0 5.105-4.144 9.248-9.248 9.248 0-5.105 4.143-9.248 9.248-9.248m27.743 9.248c0 5.105-4.143 9.248-9.248 9.248 0-5.105 4.143-9.248 9.248-9.248"/>
      <path d="M57.33 38.37c0 5.105-4.144 9.248-9.249 9.248 0-5.105 4.143-9.248 9.248-9.248"/>
      <path d="M66.577 47.618c-5.105 0-9.248-4.143-9.248-9.248 5.105 0 9.248 4.144 9.248 9.248m-18.496 0c5.105 0 9.248 4.143 9.248 9.248-5.105 0-9.248-4.143-9.248-9.248m36.992 0c-5.105 0-9.248-4.143-9.248-9.248 5.105 0 9.248 4.144 9.248 9.248m-9.248-9.248c0 5.105-4.143 9.248-9.248 9.248 0-5.105 4.144-9.248 9.248-9.248m-9.248 9.248c5.105 0 9.248 4.143 9.248 9.248-5.105 0-9.248-4.143-9.248-9.248"/>
      <path d="M85.073 47.618c0 5.105-4.143 9.248-9.248 9.248 0-5.105 4.143-9.248 9.248-9.248m18.496 0c-5.105 0-9.248-4.143-9.248-9.248 5.105 0 9.248 4.144 9.248 9.248m-9.248-9.248c0 5.105-4.143 9.248-9.248 9.248 0-5.105 4.143-9.248 9.248-9.248m9.248 9.248c0 5.105-4.143 9.248-9.248 9.248 0-5.105 4.143-9.248 9.248-9.248m-18.496 0c5.105 0 9.248 4.143 9.248 9.248-5.105 0-9.248-4.143-9.248-9.248m36.992 0c0 5.105-4.143 9.248-9.248 9.248 0-5.105 4.143-9.248 9.248-9.248"/>
      <path d="M103.569 47.618c5.105 0 9.248 4.143 9.248 9.248-5.105 0-9.248-4.143-9.248-9.248m18.496 0c-5.105 0-9.248-4.143-9.248-9.248 5.105 0 9.248 4.144 9.248 9.248m-9.248-9.248c0 5.105-4.143 9.248-9.248 9.248 0-5.105 4.143-9.248 9.248-9.248"/>
      <path d="M131.313 38.37c0 5.105-4.143 9.248-9.248 9.248 0-5.105 4.143-9.248 9.248-9.248m9.248 9.248c-5.105 0-9.248-4.143-9.248-9.248 5.105 0 9.248 4.144 9.248 9.248m0 0c0 5.105-4.143 9.248-9.248 9.248 0-5.105 4.143-9.248 9.248-9.248m-18.496 0c5.105 0 9.248 4.143 9.248 9.248-5.105 0-9.248-4.143-9.248-9.248m36.992 0c0 5.105-4.143 9.248-9.248 9.248 0-5.105 4.143-9.248 9.248-9.248m-18.496 0c5.105 0 9.248 4.143 9.248 9.248-5.105 0-9.248-4.143-9.248-9.248m9.248-9.248c0 5.105-4.143 9.248-9.248 9.248 0-5.105 4.143-9.248 9.248-9.248m9.248 9.248c-5.105 0-9.248-4.143-9.248-9.248 5.105 0 9.248 4.144 9.248 9.248m18.496 0c-5.105 0-9.248-4.143-9.248-9.248 5.105 0 9.248 4.144 9.248 9.248"/>
      <path d="M168.296 38.37c0 5.105-4.144 9.248-9.248 9.248 0-5.105 4.143-9.248 9.248-9.248m-9.239 9.248c5.105 0 9.248 4.143 9.248 9.248-5.105 0-9.248-4.143-9.248-9.248m18.496 0c0 5.105-4.143 9.248-9.248 9.248 0-5.105 4.143-9.248 9.248-9.248m18.496 0c-5.105 0-9.248-4.143-9.248-9.248 5.105 0 9.248 4.144 9.248 9.248m-9.257-9.248c0 5.105-4.144 9.248-9.248 9.248 0-5.105 4.143-9.248 9.248-9.248m9.257 9.248c0 5.105-4.143 9.248-9.248 9.248 0-5.105 4.143-9.248 9.248-9.248m-18.496 0c5.105 0 9.248 4.143 9.248 9.248-5.105 0-9.248-4.143-9.248-9.248m18.496 0c5.105 0 9.248 4.143 9.248 9.248-5.105 0-9.248-4.143-9.248-9.248m18.496 0c-5.105 0-9.248-4.143-9.248-9.248 5.105 0 9.248 4.144 9.248 9.248"/>
      <path d="M205.287 38.37c0 5.105-4.143 9.248-9.247 9.248 0-5.105 4.143-9.248 9.247-9.248m9.258 9.248c0 5.105-4.143 9.248-9.248 9.248 0-5.105 4.143-9.248 9.248-9.248m0 0c5.104 0 9.248 4.143 9.248 9.248-5.105 0-9.248-4.143-9.248-9.248m18.496 0c0 5.105-4.144 9.248-9.248 9.248 0-5.105 4.143-9.248 9.248-9.248m0 0c-5.105 0-9.248-4.143-9.248-9.248 5.104 0 9.248 4.144 9.248 9.248m-9.258-9.248c0 5.105-4.143 9.248-9.248 9.248 0-5.105 4.143-9.248 9.248-9.248"/>
      <path d="M242.279 38.37c0 5.105-4.143 9.248-9.248 9.248 0-5.105 4.143-9.248 9.248-9.248m-9.238 9.248c5.104 0 9.247 4.143 9.247 9.248-5.104 0-9.247-4.143-9.247-9.248M20.347 38.37c0-5.104 4.143-9.247 9.248-9.247 0 5.104-4.143 9.247-9.248 9.247m-.009 0c-5.105 0-9.248-4.143-9.248-9.247 5.105 0 9.248 4.143 9.248 9.247m0-18.495c0 5.104-4.143 9.247-9.248 9.247 0-5.104 4.143-9.247 9.248-9.247"/>
      <path d="M29.586 29.123c-5.105 0-9.248-4.144-9.248-9.248 5.104 0 9.247 4.143 9.247 9.247m18.497.001c-5.105 0-9.248-4.144-9.248-9.248 5.104 0 9.247 4.143 9.247 9.247m.001.001c0 5.104-4.144 9.247-9.248 9.247 0-5.104 4.143-9.247 9.247-9.247m-9.247 9.247c-5.105 0-9.248-4.143-9.248-9.247 5.104 0 9.248 4.143 9.248 9.247m0-18.495c0 5.104-4.144 9.247-9.248 9.247 0-5.104 4.143-9.247 9.248-9.247"/>
      <path d="M57.33 19.875c0 5.104-4.144 9.247-9.249 9.247 0-5.104 4.143-9.247 9.248-9.247m-9.248 9.248c5.105 0 9.248 4.143 9.248 9.247-5.105 0-9.248-4.143-9.248-9.247m18.496 0c0 5.104-4.143 9.247-9.248 9.247 0-5.104 4.143-9.247 9.248-9.247"/>
      <path d="M66.577 29.123c-5.105 0-9.248-4.144-9.248-9.248 5.105 0 9.248 4.143 9.248 9.247m18.496.001c-5.105 0-9.248-4.144-9.248-9.248 5.105 0 9.248 4.143 9.248 9.247m-18.496.001c5.105 0 9.248 4.143 9.248 9.247-5.105 0-9.248-4.143-9.248-9.247"/>
      <path d="M85.073 29.123c0 5.104-4.143 9.247-9.248 9.247 0-5.104 4.143-9.247 9.248-9.247m-9.248-9.248c0 5.104-4.143 9.247-9.248 9.247 0-5.104 4.144-9.247 9.248-9.247m9.248 9.248c5.105 0 9.248 4.143 9.248 9.247-5.105 0-9.248-4.143-9.248-9.247m9.248-9.248c0 5.104-4.143 9.247-9.248 9.247 0-5.104 4.143-9.247 9.248-9.247m9.248 9.248c-5.105 0-9.248-4.144-9.248-9.248 5.105 0 9.248 4.143 9.248 9.247m0 .001c0 5.104-4.143 9.247-9.248 9.247 0-5.104 4.143-9.247 9.248-9.247m18.496 0c0 5.104-4.143 9.247-9.248 9.247 0-5.104 4.143-9.247 9.248-9.247"/>
      <path d="M103.569 29.123c5.105 0 9.248 4.143 9.248 9.247-5.105 0-9.248-4.143-9.248-9.247m18.496 0c-5.105 0-9.248-4.144-9.248-9.248 5.105 0 9.248 4.143 9.248 9.247m-9.248-9.247c0 5.104-4.143 9.247-9.248 9.247 0-5.104 4.143-9.247 9.248-9.247m27.744 9.248c0 5.104-4.143 9.247-9.248 9.247 0-5.104 4.143-9.247 9.248-9.247m-18.496 0c5.105 0 9.248 4.143 9.248 9.247-5.105 0-9.248-4.143-9.248-9.247m18.496 0c-5.105 0-9.248-4.144-9.248-9.248 5.105 0 9.248 4.143 9.248 9.247"/>
      <path d="M131.313 19.875c0 5.104-4.143 9.247-9.248 9.247 0-5.104 4.143-9.247 9.248-9.247m18.496 0c0 5.104-4.143 9.247-9.248 9.247 0-5.104 4.143-9.247 9.248-9.247m9.248 9.248c0 5.104-4.143 9.247-9.248 9.247 0-5.104 4.143-9.247 9.248-9.247m0 0c-5.105 0-9.248-4.144-9.248-9.248 5.105 0 9.248 4.143 9.248 9.247m-18.496.001c5.105 0 9.248 4.143 9.248 9.247-5.105 0-9.248-4.143-9.248-9.247m27.744-9.248c0 5.104-4.143 9.247-9.248 9.247 0-5.104 4.143-9.247 9.248-9.247m9.248 9.248c0 5.104-4.143 9.247-9.248 9.247 0-5.104 4.143-9.247 9.248-9.247m0 0c-5.105 0-9.248-4.144-9.248-9.248 5.105 0 9.248 4.143 9.248 9.247m-18.496.001c5.105 0 9.248 4.143 9.248 9.247-5.105 0-9.248-4.143-9.248-9.247m36.992 0c0 5.104-4.143 9.247-9.248 9.247 0-5.104 4.143-9.247 9.248-9.247m-18.496 0c5.105 0 9.248 4.143 9.248 9.247-5.105 0-9.248-4.143-9.248-9.247m18.496 0c-5.105 0-9.248-4.144-9.248-9.248 5.105 0 9.248 4.143 9.248 9.247m-9.248-9.247c0 5.104-4.143 9.247-9.248 9.247 0-5.104 4.143-9.247 9.248-9.247m27.744 9.248c-5.105 0-9.248-4.144-9.248-9.248 5.105 0 9.248 4.143 9.248 9.247m0 .001c0 5.104-4.143 9.247-9.248 9.247 0-5.104 4.143-9.247 9.248-9.247"/>
      <path d="M205.287 19.875c0 5.104-4.143 9.247-9.247 9.247 0-5.104 4.143-9.247 9.247-9.247m-9.238 9.248c5.105 0 9.248 4.143 9.248 9.247-5.105 0-9.248-4.143-9.248-9.247m36.982 0c0 5.104-4.143 9.247-9.248 9.247 0-5.104 4.143-9.247 9.248-9.247m-9.248-9.248c0 5.104-4.143 9.247-9.248 9.247 0-5.104 4.143-9.247 9.248-9.247m9.258 9.248c-5.105 0-9.248-4.144-9.248-9.248 5.104 0 9.248 4.143 9.248 9.247"/>
      <path d="M214.545 29.123c5.104 0 9.248 4.143 9.248 9.247-5.105 0-9.248-4.143-9.248-9.247m27.734-9.248c0 5.104-4.143 9.247-9.248 9.247 0-5.104 4.143-9.247 9.248-9.247m-9.238 9.248c5.104 0 9.247 4.143 9.247 9.247-5.104 0-9.247-4.143-9.247-9.247M29.586 10.627c-5.105 0-9.248-4.144-9.248-9.248 5.104 0 9.247 4.143 9.247 9.248m-9.247 9.248c-5.105 0-9.248-4.144-9.248-9.248 5.105 0 9.248 4.143 9.248 9.248"/>
      <path d="M20.338 19.875c0-5.105 4.143-9.248 9.247-9.248 0 5.104-4.143 9.248-9.248 9.248m.001-18.496c0 5.104-4.143 9.248-9.248 9.248 0-5.105 4.143-9.248 9.248-9.248m18.496 18.496c0-5.105 4.143-9.248 9.247-9.248 0 5.104-4.143 9.248-9.248 9.248m9.249-9.248c-5.105 0-9.248-4.144-9.248-9.248 5.104 0 9.247 4.143 9.247 9.248"/>
      <path d="M38.834 19.875c-5.105 0-9.248-4.144-9.248-9.248 5.104 0 9.248 4.143 9.248 9.248m0-18.496c0 5.104-4.144 9.248-9.248 9.248 0-5.105 4.143-9.248 9.248-9.248M57.33 19.875c-5.105 0-9.249-4.144-9.249-9.248 5.105 0 9.248 4.143 9.248 9.248m9.248-9.248c-5.105 0-9.248-4.144-9.248-9.248 5.105 0 9.248 4.143 9.248 9.248"/>
      <path d="M66.577 10.627c0 5.104-4.143 9.248-9.248 9.248 0-5.105 4.143-9.248 9.248-9.248M57.33 1.379c0 5.104-4.144 9.248-9.249 9.248 0-5.105 4.143-9.248 9.248-9.248m9.248 9.248c5.105 0 9.248 4.143 9.248 9.248-5.105 0-9.248-4.144-9.248-9.248m18.496 0c-5.105 0-9.248-4.144-9.248-9.248 5.105 0 9.248 4.143 9.248 9.248"/>
      <path d="M75.825 1.379c0 5.104-4.143 9.248-9.248 9.248 0-5.105 4.144-9.248 9.248-9.248m9.248 9.248c0 5.104-4.143 9.248-9.248 9.248 0-5.105 4.143-9.248 9.248-9.248m0 0c5.105 0 9.248 4.143 9.248 9.248-5.105 0-9.248-4.144-9.248-9.248m18.496 0c-5.105 0-9.248-4.144-9.248-9.248 5.105 0 9.248 4.143 9.248 9.248m0 0c0 5.104-4.143 9.248-9.248 9.248 0-5.105 4.143-9.248 9.248-9.248m-9.248-9.248c0 5.104-4.143 9.248-9.248 9.248 0-5.105 4.143-9.248 9.248-9.248m9.248 9.248c5.105 0 9.248 4.143 9.248 9.248-5.105 0-9.248-4.144-9.248-9.248"/>
      <path d="M122.065 10.627c0 5.104-4.143 9.248-9.248 9.248 0-5.105 4.143-9.248 9.248-9.248m-9.248-9.248c0 5.104-4.143 9.248-9.248 9.248 0-5.105 4.143-9.248 9.248-9.248m9.248 9.248c-5.105 0-9.248-4.144-9.248-9.248 5.105 0 9.248 4.143 9.248 9.248"/>
      <path d="M122.065 10.627c5.105 0 9.248 4.143 9.248 9.248-5.105 0-9.248-4.144-9.248-9.248m18.496 0c0 5.104-4.143 9.248-9.248 9.248 0-5.105 4.143-9.248 9.248-9.248m-9.248-9.248c0 5.104-4.143 9.248-9.248 9.248 0-5.105 4.143-9.248 9.248-9.248m9.248 9.248c-5.105 0-9.248-4.144-9.248-9.248 5.105 0 9.248 4.143 9.248 9.248m0 0c5.105 0 9.248 4.143 9.248 9.248-5.105 0-9.248-4.144-9.248-9.248m18.496 0c0 5.104-4.143 9.248-9.248 9.248 0-5.105 4.143-9.248 9.248-9.248m-9.248-9.248c0 5.104-4.143 9.248-9.248 9.248 0-5.105 4.143-9.248 9.248-9.248m9.248 9.248c-5.105 0-9.248-4.144-9.248-9.248 5.105 0 9.248 4.143 9.248 9.248m18.496 0c0 5.104-4.143 9.248-9.248 9.248 0-5.105 4.143-9.248 9.248-9.248m0 0c-5.105 0-9.248-4.144-9.248-9.248 5.105 0 9.248 4.143 9.248 9.248m-9.248-9.248c0 5.104-4.143 9.248-9.248 9.248 0-5.105 4.143-9.248 9.248-9.248m-9.248 9.248c5.105 0 9.248 4.143 9.248 9.248-5.105 0-9.248-4.144-9.248-9.248"/>
      <path d="M186.792 1.379c0 5.104-4.144 9.248-9.248 9.248 0-5.105 4.143-9.248 9.248-9.248m9.257 9.248c0 5.104-4.143 9.248-9.248 9.248 0-5.105 4.143-9.248 9.248-9.248m0 0c-5.105 0-9.248-4.144-9.248-9.248 5.105 0 9.248 4.143 9.248 9.248m-18.496 0c5.105 0 9.248 4.143 9.248 9.248-5.105 0-9.248-4.144-9.248-9.248m36.992 0c-5.105 0-9.248-4.144-9.248-9.248 5.105 0 9.248 4.143 9.248 9.248m0 0c0 5.104-4.143 9.248-9.248 9.248 0-5.105 4.143-9.248 9.248-9.248"/>
      <path d="M205.287 1.379c0 5.104-4.143 9.248-9.247 9.248 0-5.105 4.143-9.248 9.247-9.248m-9.238 9.248c5.105 0 9.248 4.143 9.248 9.248-5.105 0-9.248-4.144-9.248-9.248m18.496 0c5.104 0 9.248 4.143 9.248 9.248-5.105 0-9.248-4.144-9.248-9.248m9.238-9.248c0 5.104-4.143 9.248-9.248 9.248 0-5.105 4.143-9.248 9.248-9.248m.01 18.496c0-5.105 4.143-9.248 9.248-9.248 0 5.104-4.144 9.248-9.248 9.248m0-18.496c5.104 0 9.248 4.143 9.248 9.248-5.105 0-9.248-4.144-9.248-9.248m9.248 9.248c5.104 0 9.247 4.143 9.247 9.248-5.104 0-9.247-4.144-9.247-9.248"/>
      <path d="M242.279 1.379c0 5.104-4.143 9.248-9.248 9.248 0-5.105 4.143-9.248 9.248-9.248m-221.932 0c0-5.105 4.143-9.248 9.248-9.248 0 5.105-4.143 9.248-9.248 9.248m-.009 0c-5.105 0-9.248-4.143-9.248-9.248 5.105 0 9.248 4.143 9.248 9.248"/>
      <path d="M38.834 1.379c-5.105 0-9.248-4.143-9.248-9.248 5.104 0 9.248 4.143 9.248 9.248"/>
      <path d="M38.834 1.379c0-5.105 4.143-9.248 9.247-9.248 0 5.105-4.143 9.248-9.248 9.248m18.497 0c0-5.105 4.142-9.248 9.247-9.248 0 5.105-4.143 9.248-9.248 9.248"/>
      <path d="M57.33 1.379c-5.105 0-9.249-4.143-9.249-9.248 5.105 0 9.248 4.143 9.248 9.248m18.496 0c-5.105 0-9.248-4.143-9.248-9.248 5.105 0 9.248 4.143 9.248 9.248m9.248-9.249c0 5.106-4.143 9.249-9.248 9.249 0-5.105 4.143-9.248 9.248-9.248m18.496-.001c0 5.106-4.143 9.249-9.248 9.249 0-5.105 4.143-9.248 9.248-9.248m-18.496.009c5.105 0 9.248 4.143 9.248 9.248-5.105 0-9.248-4.143-9.248-9.248m36.992-.01c0 5.106-4.143 9.249-9.248 9.249 0-5.105 4.143-9.248 9.248-9.248"/>
      <path d="M103.569-7.87c5.105 0 9.248 4.144 9.248 9.249-5.105 0-9.248-4.143-9.248-9.248m18.496-.001c5.105 0 9.248 4.144 9.248 9.249-5.105 0-9.248-4.143-9.248-9.248m18.496-.001c0 5.106-4.143 9.249-9.248 9.249 0-5.105 4.143-9.248 9.248-9.248m0 .009c5.105 0 9.248 4.143 9.248 9.248-5.105 0-9.248-4.143-9.248-9.248m18.496-.01c0 5.106-4.143 9.249-9.248 9.249 0-5.105 4.143-9.248 9.248-9.248m18.496-.001c0 5.106-4.143 9.249-9.248 9.249 0-5.105 4.143-9.248 9.248-9.248m-18.496-.001c5.105 0 9.248 4.144 9.248 9.249-5.105 0-9.248-4.143-9.248-9.248m36.992-.001c0 5.106-4.143 9.249-9.248 9.249 0-5.105 4.143-9.248 9.248-9.248m-18.496-.001c5.105 0 9.248 4.144 9.248 9.249-5.105 0-9.248-4.143-9.248-9.248m27.744 9.248c0-5.105 4.143-9.248 9.248-9.248 0 5.105-4.143 9.248-9.248 9.248m-9.248-9.249c5.105 0 9.248 4.144 9.248 9.249-5.105 0-9.248-4.143-9.248-9.248m18.496-.001c5.104 0 9.248 4.144 9.248 9.249-5.105 0-9.248-4.143-9.248-9.248m9.248 9.248c0-5.105 4.143-9.248 9.248-9.248 0 5.105-4.144 9.248-9.248 9.248m9.248-9.249c5.104 0 9.247 4.144 9.247 9.249-5.104 0-9.247-4.143-9.247-9.248"/>
    </g>
  </g>
  <path stroke="#000" stroke-linecap="round" stroke-linejoin="round" d="M129.907 8.463c33.626 0 65.587 6.603 95.143 19.624l-19.531 50.956c-12.864-4.938-39.868-13.206-76.481-13.206-27.411 0-55.072 4.66-82.335 13.853L27.015 28.577c15.6-6.39 54.71-20.114 102.892-20.114"/>
  <path fill="#EF4B23" d="M129.907 8.463c33.626 0 65.587 6.603 95.143 19.624l-19.531 50.956c-12.864-4.938-39.868-13.206-76.481-13.206-27.411 0-55.072 4.66-82.335 13.853L27.015 28.577c15.6-6.39 54.71-20.114 102.892-20.114"/>
  <path fill="#C71E11" d="m2.461 20.208-.49-1.49s2.312-3.625 8.222-2.543l.897 1.591z"/>
  <path fill="#EF4B23" d="m11.95 17.026 29.64 74.465-16.268 4.522L1.01 20.633s2.442-3.81 10.94-3.607"/>
  <mask id="b" width="41" height="80" x="1" y="17" maskUnits="userSpaceOnUse" style="mask-type:luminance">
    <path fill="#fff" d="m11.95 17.026 29.64 74.465-16.268 4.522L1.01 20.633s2.442-3.81 10.94-3.607"/>
  </mask>
  <g fill="#F56D27" mask="url(#b)">
    <path d="M32.758 19.301a7.085 7.085 0 0 0 7.084-7.084 7.075 7.075 0 0 0-7.075 7.075z"/>
    <path d="M39.841 12.217a7.085 7.085 0 0 0 7.084 7.084 7.075 7.075 0 0 0-7.074-7.074zm.001 14.159a7.075 7.075 0 0 0 7.074-7.075 7.084 7.084 0 0 0-7.084 7.084z"/>
    <path d="M39.842 26.376a7.085 7.085 0 0 0-7.084-7.084 7.075 7.075 0 0 0 7.074 7.075zm0 14.159a7.085 7.085 0 0 0-7.084-7.084 7.075 7.075 0 0 0 7.074 7.074z"/>
    <path d="M32.758 33.46a7.085 7.085 0 0 0 7.084-7.084 7.075 7.075 0 0 0-7.075 7.074z"/>
    <path d="M39.841 26.376a7.085 7.085 0 0 0 7.084 7.084 7.075 7.075 0 0 0-7.074-7.075zm.001 14.159a7.075 7.075 0 0 0 7.074-7.075 7.084 7.084 0 0 0-7.084 7.084z"/>
    <path d="M32.758 47.618a7.084 7.084 0 0 0 7.084-7.084 7.075 7.075 0 0 0-7.075 7.075z"/>
    <path d="M39.842 54.693a7.084 7.084 0 0 0-7.084-7.084 7.075 7.075 0 0 0 7.074 7.075z"/>
    <path d="M39.842 54.693a7.075 7.075 0 0 0 7.074-7.075 7.085 7.085 0 0 0-7.084 7.084zm-.001-14.158a7.085 7.085 0 0 0 7.084 7.083 7.075 7.075 0 0 0-7.074-7.074zm.001 28.317a7.084 7.084 0 0 0-7.084-7.084 7.075 7.075 0 0 0 7.074 7.074z"/>
    <path d="M39.842 68.852a7.075 7.075 0 0 0 7.074-7.075 7.085 7.085 0 0 0-7.084 7.084zm-7.084-7.075a7.084 7.084 0 0 0 7.084-7.084 7.075 7.075 0 0 0-7.075 7.075z"/>
    <path d="M39.841 54.693a7.085 7.085 0 0 0 7.084 7.084 7.075 7.075 0 0 0-7.074-7.075zm0 14.159a7.085 7.085 0 0 0 7.084 7.084 7.075 7.075 0 0 0-7.074-7.075z"/>
    <path d="M32.758 75.936a7.085 7.085 0 0 0 7.084-7.084 7.075 7.075 0 0 0-7.075 7.074z"/>
    <path d="M39.842 83.02a7.084 7.084 0 0 0-7.084-7.084 7.075 7.075 0 0 0 7.074 7.074z"/>
    <path d="M39.842 83.02a7.075 7.075 0 0 0 7.074-7.075 7.084 7.084 0 0 0-7.084 7.084zm0 14.158a7.085 7.085 0 0 0-7.084-7.084 7.075 7.075 0 0 0 7.074 7.075z"/>
    <path d="M32.758 90.094a7.084 7.084 0 0 0 7.084-7.084 7.075 7.075 0 0 0-7.075 7.075z"/>
    <path d="M39.841 83.02a7.085 7.085 0 0 0 7.084 7.084 7.075 7.075 0 0 0-7.074-7.075zm.001 14.158a7.075 7.075 0 0 0 7.074-7.074 7.085 7.085 0 0 0-7.084 7.083zM18.599 19.301a7.085 7.085 0 0 0 7.084-7.084 7.075 7.075 0 0 0-7.075 7.075zm7.084 7.075a7.075 7.075 0 0 0 7.075-7.075 7.084 7.084 0 0 0-7.084 7.084zm0-14.159a7.085 7.085 0 0 0 7.084 7.084 7.075 7.075 0 0 0-7.075-7.074z"/>
    <path d="M25.683 26.376a7.085 7.085 0 0 0-7.084-7.084 7.075 7.075 0 0 0 7.075 7.075zm-7.084 7.084a7.085 7.085 0 0 0 7.084-7.084 7.075 7.075 0 0 0-7.075 7.074zm7.084 7.075a7.075 7.075 0 0 0 7.075-7.075 7.084 7.084 0 0 0-7.084 7.084zm0-14.159a7.085 7.085 0 0 0 7.084 7.084 7.075 7.075 0 0 0-7.075-7.075z"/>
    <path d="M25.683 40.535a7.085 7.085 0 0 0-7.084-7.084 7.075 7.075 0 0 0 7.075 7.074zm0 14.158a7.084 7.084 0 0 0-7.084-7.084 7.075 7.075 0 0 0 7.075 7.075z"/>
    <path d="M25.683 54.693a7.075 7.075 0 0 0 7.075-7.075 7.085 7.085 0 0 0-7.084 7.084zm0-14.158a7.084 7.084 0 0 0 7.084 7.083 7.075 7.075 0 0 0-7.075-7.074z"/>
    <path d="M18.599 47.618a7.084 7.084 0 0 0 7.084-7.084 7.075 7.075 0 0 0-7.075 7.075zm0 14.159a7.084 7.084 0 0 0 7.084-7.084 7.075 7.075 0 0 0-7.075 7.075zm7.084-7.084a7.084 7.084 0 0 0 7.084 7.084 7.075 7.075 0 0 0-7.075-7.075z"/>
    <path d="M25.683 68.852a7.084 7.084 0 0 0-7.084-7.084 7.075 7.075 0 0 0 7.075 7.074z"/>
    <path d="M25.683 68.852a7.075 7.075 0 0 0 7.075-7.075 7.085 7.085 0 0 0-7.084 7.084zm0 14.168a7.084 7.084 0 0 0-7.084-7.084 7.075 7.075 0 0 0 7.075 7.074z"/>
    <path d="M18.599 75.936a7.085 7.085 0 0 0 7.084-7.084 7.075 7.075 0 0 0-7.075 7.074zm7.084 7.084a7.075 7.075 0 0 0 7.075-7.075 7.084 7.084 0 0 0-7.084 7.084zm0-14.168a7.085 7.085 0 0 0 7.084 7.084 7.075 7.075 0 0 0-7.075-7.075zm0 28.326a7.075 7.075 0 0 0 7.075-7.074 7.085 7.085 0 0 0-7.084 7.083z"/>
    <path d="M25.683 97.178a7.085 7.085 0 0 0-7.084-7.084 7.075 7.075 0 0 0 7.075 7.075zm0-14.158a7.084 7.084 0 0 0 7.084 7.084 7.075 7.075 0 0 0-7.075-7.075zm-7.084 7.074a7.084 7.084 0 0 0 7.084-7.084 7.075 7.075 0 0 0-7.075 7.075zm-7.075-63.718a7.085 7.085 0 0 0-7.084-7.084 7.075 7.075 0 0 0 7.075 7.075z"/>
    <path d="M4.44 19.301a7.085 7.085 0 0 0 7.084-7.084 7.075 7.075 0 0 0-7.074 7.075zm7.084 7.075A7.075 7.075 0 0 0 18.6 19.3a7.085 7.085 0 0 0-7.084 7.084z"/>
    <path d="M11.524 12.217a7.085 7.085 0 0 0 7.084 7.084 7.075 7.075 0 0 0-7.074-7.074zm0 28.318A7.075 7.075 0 0 0 18.6 33.46a7.085 7.085 0 0 0-7.084 7.084zm0-14.159a7.085 7.085 0 0 0 7.084 7.084 7.075 7.075 0 0 0-7.074-7.075z"/>
    <path d="M11.524 40.535A7.085 7.085 0 0 0 4.44 33.45a7.075 7.075 0 0 0 7.075 7.074z"/>
    <path d="M4.44 33.46a7.085 7.085 0 0 0 7.084-7.084A7.075 7.075 0 0 0 4.45 33.45zm0 14.158a7.084 7.084 0 0 0 7.084-7.084A7.075 7.075 0 0 0 4.45 47.61z"/>
    <path d="M11.515 54.693a7.085 7.085 0 0 0-7.084-7.084 7.075 7.075 0 0 0 7.075 7.075zm.009 0a7.075 7.075 0 0 0 7.075-7.075 7.085 7.085 0 0 0-7.084 7.084zm0-14.158a7.084 7.084 0 0 0 7.084 7.083 7.075 7.075 0 0 0-7.074-7.074zm0 28.317a7.075 7.075 0 0 0 7.075-7.075 7.085 7.085 0 0 0-7.084 7.084z"/>
    <path d="M11.524 54.693a7.084 7.084 0 0 0 7.084 7.084 7.075 7.075 0 0 0-7.074-7.075z"/>
    <path d="M4.44 61.777a7.084 7.084 0 0 0 7.084-7.084 7.075 7.075 0 0 0-7.074 7.075z"/>
    <path d="M11.524 68.852a7.084 7.084 0 0 0-7.084-7.084 7.075 7.075 0 0 0 7.075 7.074zm0 14.168a7.084 7.084 0 0 0-7.084-7.084 7.075 7.075 0 0 0 7.075 7.074zM4.44 75.936a7.085 7.085 0 0 0 7.084-7.084 7.075 7.075 0 0 0-7.074 7.074z"/>
    <path d="M11.524 68.852a7.085 7.085 0 0 0 7.084 7.084 7.075 7.075 0 0 0-7.074-7.075zm0 14.168a7.075 7.075 0 0 0 7.075-7.075 7.085 7.085 0 0 0-7.084 7.084zm0 14.158a7.085 7.085 0 0 0-7.084-7.084 7.075 7.075 0 0 0 7.075 7.075z"/>
    <path d="M4.44 90.094a7.084 7.084 0 0 0 7.084-7.084 7.075 7.075 0 0 0-7.074 7.075zm7.084 7.084a7.075 7.075 0 0 0 7.075-7.074 7.085 7.085 0 0 0-7.084 7.083z"/>
    <path d="M11.524 83.02a7.084 7.084 0 0 0 7.084 7.084 7.075 7.075 0 0 0-7.074-7.075zM-2.634 12.217a7.085 7.085 0 0 0 7.084 7.084 7.075 7.075 0 0 0-7.075-7.074z"/>
    <path d="M-2.634 26.376A7.075 7.075 0 0 0 4.44 19.3a7.084 7.084 0 0 0-7.084 7.084zm0 14.159A7.075 7.075 0 0 0 4.44 33.46a7.084 7.084 0 0 0-7.084 7.084z"/>
    <path d="M-2.634 26.376A7.085 7.085 0 0 0 4.45 33.46a7.075 7.075 0 0 0-7.075-7.075zm0 28.317a7.075 7.075 0 0 0 7.074-7.075 7.085 7.085 0 0 0-7.084 7.084zm0-14.158a7.084 7.084 0 0 0 7.084 7.083 7.075 7.075 0 0 0-7.075-7.074zm0 28.317a7.075 7.075 0 0 0 7.074-7.075 7.085 7.085 0 0 0-7.084 7.084z"/>
    <path d="M-2.634 54.693a7.084 7.084 0 0 0 7.084 7.084 7.075 7.075 0 0 0-7.075-7.075zm0 28.327a7.075 7.075 0 0 0 7.074-7.075 7.084 7.084 0 0 0-7.084 7.084zm0-14.168a7.085 7.085 0 0 0 7.084 7.084 7.075 7.075 0 0 0-7.075-7.075zm0 28.326a7.075 7.075 0 0 0 7.074-7.074 7.085 7.085 0 0 0-7.084 7.083z"/>
    <path d="M-2.634 83.02a7.084 7.084 0 0 0 7.084 7.084 7.075 7.075 0 0 0-7.075-7.075z"/>
  </g>
  <path fill="#C71E11" d="M34.53 97.633c4.494-1.242 7.657-3.989 7.064-6.135s-4.717-2.88-9.212-1.639c-4.495 1.242-7.658 3.988-7.065 6.135s4.717 2.88 9.212 1.638"/>
  <path fill="#FFF400" d="M32.684 92.064s-6.187 1.998-4.819 5.188c1.175 1.767 5.031 2.534 7.584 1.563s4.744-2.931 4.624-5.567c-.12-1.628-3.154-2.738-7.39-1.184"/>
  <path fill="#C71E11" d="m249.53 20.208.49-1.49s-2.312-3.625-8.222-2.543l-.897 1.591z"/>
  <path fill="#EF4B23" d="m240.041 17.026-29.639 74.465 16.267 4.522 24.313-75.38s-2.442-3.81-10.941-3.607"/>
  <mask id="c" width="41" height="80" x="210" y="17" maskUnits="userSpaceOnUse" style="mask-type:luminance">
    <path fill="#fff" d="m240.041 17.026-29.639 74.465 16.267 4.522 24.313-75.38s-2.442-3.81-10.941-3.607"/>
  </mask>
  <g fill="#F56D27" mask="url(#c)">
    <path d="M219.233 19.301a7.085 7.085 0 0 1-7.084-7.084 7.075 7.075 0 0 1 7.075 7.075zm-7.084-7.084a7.085 7.085 0 0 1-7.084 7.084 7.075 7.075 0 0 1 7.075-7.074zm.01 14.159a7.075 7.075 0 0 1-7.075-7.075 7.084 7.084 0 0 1 7.084 7.084z"/>
    <path d="M212.159 26.376a7.085 7.085 0 0 1 7.084-7.084 7.075 7.075 0 0 1-7.075 7.075zm0 14.159a7.085 7.085 0 0 1 7.084-7.084 7.075 7.075 0 0 1-7.075 7.074z"/>
    <path d="M219.233 33.46a7.085 7.085 0 0 1-7.084-7.084 7.075 7.075 0 0 1 7.075 7.074zm-7.084-7.084a7.085 7.085 0 0 1-7.084 7.084 7.075 7.075 0 0 1 7.075-7.075zm.01 14.159a7.075 7.075 0 0 1-7.075-7.075 7.084 7.084 0 0 1 7.084 7.084z"/>
    <path d="M219.233 47.618a7.084 7.084 0 0 1-7.084-7.084 7.075 7.075 0 0 1 7.075 7.075z"/>
    <path d="M212.159 54.693a7.084 7.084 0 0 1 7.084-7.084 7.075 7.075 0 0 1-7.075 7.075z"/>
    <path d="M212.159 54.693a7.075 7.075 0 0 1-7.075-7.075 7.085 7.085 0 0 1 7.084 7.084zm-.01-14.158a7.084 7.084 0 0 1-7.084 7.083 7.075 7.075 0 0 1 7.075-7.074zm.01 28.317a7.084 7.084 0 0 1 7.084-7.084 7.075 7.075 0 0 1-7.075 7.074z"/>
    <path d="M212.159 68.852a7.075 7.075 0 0 1-7.075-7.075 7.085 7.085 0 0 1 7.084 7.084zm7.074-7.075a7.084 7.084 0 0 1-7.084-7.084 7.075 7.075 0 0 1 7.075 7.075zm-7.084-7.084a7.084 7.084 0 0 1-7.084 7.084 7.075 7.075 0 0 1 7.075-7.075z"/>
    <path d="M212.149 68.852a7.085 7.085 0 0 1-7.084 7.084 7.075 7.075 0 0 1 7.075-7.075zm7.084 7.084a7.085 7.085 0 0 1-7.084-7.084 7.075 7.075 0 0 1 7.075 7.074z"/>
    <path d="M212.159 83.02a7.084 7.084 0 0 1 7.084-7.084 7.075 7.075 0 0 1-7.075 7.074z"/>
    <path d="M212.159 83.02a7.075 7.075 0 0 1-7.075-7.075 7.084 7.084 0 0 1 7.084 7.084zm0 14.158a7.085 7.085 0 0 1 7.084-7.084 7.075 7.075 0 0 1-7.075 7.075z"/>
    <path d="M219.233 90.094a7.084 7.084 0 0 1-7.084-7.084 7.075 7.075 0 0 1 7.075 7.075zm-7.084-7.074a7.084 7.084 0 0 1-7.084 7.084 7.075 7.075 0 0 1 7.075-7.075zm.01 14.158a7.075 7.075 0 0 1-7.075-7.074 7.085 7.085 0 0 1 7.084 7.083zm21.233-77.877a7.085 7.085 0 0 1-7.084-7.084 7.075 7.075 0 0 1 7.075 7.075zm-7.075 7.075a7.074 7.074 0 0 1-7.074-7.075 7.084 7.084 0 0 1 7.084 7.084zm-.009-14.159a7.085 7.085 0 0 1-7.084 7.084 7.075 7.075 0 0 1 7.075-7.074z"/>
    <path d="M226.317 26.376a7.085 7.085 0 0 1 7.084-7.084 7.075 7.075 0 0 1-7.075 7.075zm7.075 7.084a7.085 7.085 0 0 1-7.084-7.084 7.075 7.075 0 0 1 7.075 7.074zm-7.075 7.075a7.074 7.074 0 0 1-7.074-7.075 7.084 7.084 0 0 1 7.084 7.084z"/>
    <path d="M226.317 26.376a7.085 7.085 0 0 1-7.084 7.084 7.075 7.075 0 0 1 7.075-7.075zm0 14.159a7.085 7.085 0 0 1 7.084-7.084 7.075 7.075 0 0 1-7.075 7.074zm0 14.158a7.084 7.084 0 0 1 7.084-7.084 7.075 7.075 0 0 1-7.075 7.075z"/>
    <path d="M226.317 54.693a7.074 7.074 0 0 1-7.074-7.075 7.085 7.085 0 0 1 7.084 7.084zm-.009-14.158a7.084 7.084 0 0 1-7.084 7.083 7.075 7.075 0 0 1 7.075-7.074z"/>
    <path d="M233.392 47.618a7.084 7.084 0 0 1-7.084-7.084 7.075 7.075 0 0 1 7.075 7.075zm0 14.159a7.084 7.084 0 0 1-7.084-7.084 7.075 7.075 0 0 1 7.075 7.075zm-7.084-7.084a7.084 7.084 0 0 1-7.084 7.084 7.075 7.075 0 0 1 7.075-7.075z"/>
    <path d="M226.317 68.852a7.084 7.084 0 0 1 7.084-7.084 7.075 7.075 0 0 1-7.075 7.074z"/>
    <path d="M226.317 68.852a7.074 7.074 0 0 1-7.074-7.075 7.085 7.085 0 0 1 7.084 7.084zm0 14.168a7.084 7.084 0 0 1 7.084-7.084 7.075 7.075 0 0 1-7.075 7.074z"/>
    <path d="M233.392 75.936a7.085 7.085 0 0 1-7.084-7.084 7.075 7.075 0 0 1 7.075 7.074zm-7.075 7.084a7.074 7.074 0 0 1-7.074-7.075 7.084 7.084 0 0 1 7.084 7.084z"/>
    <path d="M226.317 68.852a7.085 7.085 0 0 1-7.084 7.084 7.075 7.075 0 0 1 7.075-7.075zm0 28.326a7.074 7.074 0 0 1-7.074-7.074 7.085 7.085 0 0 1 7.084 7.083z"/>
    <path d="M226.317 97.178a7.085 7.085 0 0 1 7.084-7.084 7.075 7.075 0 0 1-7.075 7.075zm0-14.158a7.084 7.084 0 0 1-7.084 7.084 7.075 7.075 0 0 1 7.075-7.075z"/>
    <path d="M233.392 90.094a7.084 7.084 0 0 1-7.084-7.084 7.075 7.075 0 0 1 7.075 7.075zm7.084-63.718a7.085 7.085 0 0 1 7.084-7.084 7.075 7.075 0 0 1-7.075 7.075z"/>
    <path d="M247.551 19.301a7.085 7.085 0 0 1-7.084-7.084 7.074 7.074 0 0 1 7.074 7.075zm-7.075 7.075a7.075 7.075 0 0 1-7.075-7.075 7.084 7.084 0 0 1 7.084 7.084z"/>
    <path d="M240.467 12.217a7.085 7.085 0 0 1-7.084 7.084 7.074 7.074 0 0 1 7.074-7.074zm.009 28.318a7.075 7.075 0 0 1-7.075-7.075 7.084 7.084 0 0 1 7.084 7.084zm0-14.159a7.085 7.085 0 0 1-7.084 7.084 7.075 7.075 0 0 1 7.075-7.075z"/>
    <path d="M240.476 40.535a7.085 7.085 0 0 1 7.084-7.084 7.075 7.075 0 0 1-7.075 7.074z"/>
    <path d="M247.551 33.46a7.085 7.085 0 0 1-7.084-7.084 7.074 7.074 0 0 1 7.074 7.074zm0 14.158a7.084 7.084 0 0 1-7.084-7.084 7.074 7.074 0 0 1 7.074 7.075z"/>
    <path d="M240.476 54.693a7.084 7.084 0 0 1 7.084-7.084 7.075 7.075 0 0 1-7.075 7.075z"/>
    <path d="M240.476 54.693a7.075 7.075 0 0 1-7.075-7.075 7.085 7.085 0 0 1 7.084 7.084zm0-14.158a7.084 7.084 0 0 1-7.084 7.083 7.075 7.075 0 0 1 7.075-7.074zm0 28.317a7.075 7.075 0 0 1-7.075-7.075 7.085 7.085 0 0 1 7.084 7.084z"/>
    <path d="M240.467 54.693a7.084 7.084 0 0 1-7.084 7.084 7.074 7.074 0 0 1 7.074-7.075z"/>
    <path d="M247.551 61.777a7.084 7.084 0 0 1-7.084-7.084 7.074 7.074 0 0 1 7.074 7.075z"/>
    <path d="M240.476 68.852a7.084 7.084 0 0 1 7.084-7.084 7.075 7.075 0 0 1-7.075 7.074zm0 14.168a7.084 7.084 0 0 1 7.084-7.084 7.075 7.075 0 0 1-7.075 7.074zm7.075-7.084a7.085 7.085 0 0 1-7.084-7.084 7.074 7.074 0 0 1 7.074 7.074z"/>
    <path d="M240.476 68.852a7.085 7.085 0 0 1-7.084 7.084 7.075 7.075 0 0 1 7.075-7.075zm0 14.168a7.075 7.075 0 0 1-7.075-7.075 7.084 7.084 0 0 1 7.084 7.084zm0 14.158a7.085 7.085 0 0 1 7.084-7.084 7.075 7.075 0 0 1-7.075 7.075z"/>
    <path d="M247.551 90.094a7.084 7.084 0 0 1-7.084-7.084 7.074 7.074 0 0 1 7.074 7.075zm-7.075 7.084a7.075 7.075 0 0 1-7.075-7.074 7.085 7.085 0 0 1 7.084 7.083z"/>
    <path d="M240.476 83.02a7.084 7.084 0 0 1-7.084 7.084 7.075 7.075 0 0 1 7.075-7.075zm14.159-70.803a7.085 7.085 0 0 1-7.084 7.084 7.074 7.074 0 0 1 7.074-7.074zm-.001 14.159a7.075 7.075 0 0 1-7.074-7.075 7.084 7.084 0 0 1 7.084 7.084zm0 14.159a7.075 7.075 0 0 1-7.074-7.075 7.084 7.084 0 0 1 7.084 7.084z"/>
    <path d="M254.635 26.376a7.085 7.085 0 0 1-7.084 7.084 7.074 7.074 0 0 1 7.074-7.075zm-.001 28.317a7.075 7.075 0 0 1-7.074-7.075 7.085 7.085 0 0 1 7.084 7.084zm.001-14.158a7.085 7.085 0 0 1-7.084 7.083 7.074 7.074 0 0 1 7.074-7.074zm-.001 28.317a7.075 7.075 0 0 1-7.074-7.075 7.085 7.085 0 0 1 7.084 7.084z"/>
    <path d="M254.635 54.693a7.085 7.085 0 0 1-7.084 7.084 7.074 7.074 0 0 1 7.074-7.075zm-.001 28.327a7.075 7.075 0 0 1-7.074-7.075 7.084 7.084 0 0 1 7.084 7.084zm.001-14.168a7.085 7.085 0 0 1-7.084 7.084 7.074 7.074 0 0 1 7.074-7.075zm-.001 28.326a7.075 7.075 0 0 1-7.074-7.074 7.085 7.085 0 0 1 7.084 7.083z"/>
    <path d="M254.635 83.02a7.085 7.085 0 0 1-7.084 7.084 7.074 7.074 0 0 1 7.074-7.075z"/>
  </g>
  <path fill="#C71E11" d="M226.679 95.993c.593-2.147-2.57-4.893-7.065-6.135s-8.619-.508-9.212 1.639 2.57 4.893 7.065 6.135c4.495 1.24 8.619.507 9.212-1.64"/>
  <path fill="#FFF400" d="M219.307 92.064s6.187 1.998 4.818 5.188c-1.174 1.767-5.03 2.534-7.583 1.563s-4.744-2.931-4.624-5.567c.12-1.628 3.154-2.738 7.389-1.184"/>
  <path stroke="#000" stroke-linecap="round" stroke-linejoin="round" d="M130.074-.36c-58.521 0-104.095 17.747-115.96 22.824l26.754 67.251c32.96-11.282 62.905-15.065 88.29-15.065 43.207 0 73.179 10.977 82.094 14.686l26.607-66.872.129-.314C200.367 5.308 163.172-.36 130.074-.36"/>
  <path stroke="#000" stroke-linecap="round" stroke-linejoin="round" d="M129.907 8.463c33.626 0 65.587 6.603 95.143 19.624l-19.531 50.956c-12.864-4.938-39.868-13.206-76.481-13.206-27.411 0-55.072 4.66-82.335 13.853L27.015 28.577c15.6-6.39 54.71-20.114 102.892-20.114M10.683 17.026c-4.541.111-7.13 1.424-8.471 2.432l-.24-.74s2.32-3.615 8.23-2.533c.203.351.37.629.48.841"/>
  <path stroke="#000" stroke-linecap="round" stroke-linejoin="round" d="M41.423 91.102c-.24-.453-.657-.832-1.22-1.137-.704-.37-1.656-.592-2.748-.666-1.488-.111-3.255.065-5.067.564-4.458 1.22-7.611 3.949-7.084 6.076L1 20.642s.342-.527 1.211-1.184c1.332-1.008 3.93-2.32 8.472-2.432q.61-.015 1.276 0l2.164 5.447 26.754 67.251z"/>
  <path stroke="#000" stroke-linecap="round" stroke-linejoin="round" d="M39.767 95.07a4.4 4.4 0 0 0 .306-1.813c-.028-.425-.269-.823-.685-1.147-1.119-.878-3.588-1.183-6.704-.037 0 0-3.709 1.193-4.735 3.219h-.01c-.305.591-.379 1.248-.064 1.979.212.314.517.6.878.86-1.812-.25-3.116-.98-3.43-2.109l-.01-.028s-.01-.037-.01-.046c-.527-2.127 2.618-4.855 7.085-6.076 1.812-.508 3.579-.684 5.067-.564 1.101.074 2.044.305 2.747.666.564.305.98.684 1.22 1.138l.167.406c.315 1.12-.416 2.405-1.812 3.57z"/>
  <path stroke="#000" stroke-linecap="round" stroke-linejoin="round" d="M40.073 93.257a4.2 4.2 0 0 1-.306 1.813h-.009c-.666 1.73-2.386 3.024-4.3 3.754-2.09.796-5.04.426-6.696-.703h-.009a3.3 3.3 0 0 1-.878-.86 2.21 2.21 0 0 1 .064-1.979h.01c1.035-2.016 4.735-3.218 4.735-3.218 3.116-1.147 5.585-.841 6.704.037.416.324.657.721.685 1.147zM250.02 18.719l-.241.74c-1.331-1.009-3.93-2.322-8.471-2.433.111-.212.278-.49.481-.841 5.909-1.082 8.231 2.534 8.231 2.534"/>
  <path stroke="#000" stroke-linecap="round" stroke-linejoin="round" d="M226.687 95.939c.527-2.127-2.617-4.855-7.084-6.076-1.812-.509-3.579-.684-5.068-.564-.878.065-1.655.213-2.293.48h-.009a2 2 0 0 0-.444.186c-.564.305-.981.684-1.221 1.137l.546-1.378.148-.379 26.606-66.872.129-.314 2.044-5.133q.666-.015 1.276 0c4.541.111 7.131 1.424 8.472 2.432.869.657 1.211 1.184 1.211 1.184L226.696 95.94z"/>
  <path stroke="#000" stroke-linecap="round" stroke-linejoin="round" d="M226.687 95.939s-.009.037-.009.046 0 .01-.009.028c-.315 1.119-1.61 1.85-3.431 2.108.37-.25.665-.545.878-.86.315-.73.241-1.387-.065-1.979h-.009c-1.036-2.016-4.735-3.218-4.735-3.218-3.116-1.147-5.586-.841-6.705.037-.416.324-.656.721-.684 1.147a4.2 4.2 0 0 0 .305 1.812c-1.396-1.156-2.127-2.441-1.812-3.57l.166-.406c.241-.453.657-.833 1.221-1.138.139-.074.277-.138.444-.185h.009c.647-.268 1.415-.416 2.294-.48 1.488-.112 3.255.064 5.067.563 4.458 1.221 7.611 3.95 7.084 6.077z"/>
  <path stroke="#000" stroke-linecap="round" stroke-linejoin="round" d="M224.116 97.261c-.213.315-.518.602-.878.86h-.01c-1.655 1.138-4.596 1.499-6.695.703-1.914-.73-3.635-2.025-4.3-3.754h-.01c-.231-.564-.323-1.175-.305-1.813.028-.425.268-.823.684-1.147 1.119-.878 3.589-1.183 6.705-.037 0 0 3.709 1.193 4.735 3.219h.009c.306.591.38 1.248.065 1.979z"/>
</svg>
