<svg width="252" height="100" viewBox="0 0 252 100" fill="none" xmlns="http://www.w3.org/2000/svg">
<path d="M130.074 -0.359985C61.7592 -0.359985 11.0896 23.8234 11.0896 23.8234L38.0289 90.7231C72.0984 78.673 103.051 74.6687 129.168 74.6687C181.178 74.6687 214.008 90.5752 214.008 90.5752L240.892 23.472C202.291 5.6142 164.005 -0.359983 130.065 -0.350735L130.074 -0.359985Z" fill="#D61313"/>
<g style="mix-blend-mode:multiply">
<mask id="mask0_2380_47115" style="mask-type:luminance" maskUnits="userSpaceOnUse" x="11" y="-1" width="230" height="92">
<path d="M130.074 -0.359985C61.7592 -0.359985 11.0896 23.8234 11.0896 23.8234L38.0289 90.7231C72.0984 78.673 103.051 74.6687 129.168 74.6687C181.178 74.6687 214.008 90.5752 214.008 90.5752L240.892 23.472C202.291 5.6142 164.005 -0.359983 130.065 -0.350735L130.074 -0.359985Z" fill="white"/>
</mask>
<g mask="url(#mask0_2380_47115)">
<path d="M11.0896 84.6102C16.1945 84.6102 20.3376 88.7533 20.3376 93.8582C15.2327 93.8582 11.0896 89.7151 11.0896 84.6102Z" fill="#F56D27"/>
<path d="M29.5855 84.6102C29.5855 89.7151 25.4424 93.8582 20.3375 93.8582C20.3375 88.7533 24.4806 84.6102 29.5855 84.6102Z" fill="#F56D27"/>
<path d="M29.5855 84.6103C24.4806 84.6103 20.3375 80.4672 20.3375 75.3623C25.4424 75.3623 29.5855 79.5054 29.5855 84.6103Z" fill="#F56D27"/>
<path d="M20.3376 75.3623C20.3376 80.4672 16.1945 84.6103 11.0896 84.6103C11.0896 79.5054 15.2327 75.3623 20.3376 75.3623Z" fill="#F56D27"/>
<path d="M48.0815 84.6102C48.0815 89.7151 43.9384 93.8582 38.8335 93.8582C38.8335 88.7533 42.9766 84.6102 48.0815 84.6102Z" fill="#F56D27"/>
<path d="M48.0815 84.6103C42.9766 84.6103 38.8335 80.4672 38.8335 75.3623C43.9384 75.3623 48.0815 79.5054 48.0815 84.6103Z" fill="#F56D27"/>
<path d="M38.8335 75.3623C38.8335 80.4672 34.6904 84.6103 29.5856 84.6103C29.5856 79.5054 33.7287 75.3623 38.8335 75.3623Z" fill="#F56D27"/>
<path d="M29.5856 84.6102C34.6904 84.6102 38.8335 88.7533 38.8335 93.8582C33.7287 93.8582 29.5856 89.7151 29.5856 84.6102Z" fill="#F56D27"/>
<path d="M66.5773 84.6102C66.5773 89.7151 62.4342 93.8582 57.3293 93.8582C57.3293 88.7533 61.4724 84.6102 66.5773 84.6102Z" fill="#F56D27"/>
<path d="M57.3294 75.3623C57.3294 80.4672 53.1863 84.6103 48.0814 84.6103C48.0814 79.5054 52.2245 75.3623 57.3294 75.3623Z" fill="#F56D27"/>
<path d="M48.0814 84.6102C53.1863 84.6102 57.3294 88.7533 57.3294 93.8582C52.2245 93.8582 48.0814 89.7151 48.0814 84.6102Z" fill="#F56D27"/>
<path d="M66.5773 84.6103C61.4724 84.6103 57.3293 80.4672 57.3293 75.3623C62.4342 75.3623 66.5773 79.5054 66.5773 84.6103Z" fill="#F56D27"/>
<path d="M66.5774 84.6102C71.6823 84.6102 75.8253 88.7533 75.8253 93.8582C70.7205 93.8582 66.5774 89.7151 66.5774 84.6102Z" fill="#F56D27"/>
<path d="M75.8253 75.3623C75.8253 80.4672 71.6823 84.6103 66.5774 84.6103C66.5774 79.5054 70.7205 75.3623 75.8253 75.3623Z" fill="#F56D27"/>
<path d="M85.0733 84.6102C85.0733 89.7151 80.9302 93.8489 75.8253 93.8582C75.8253 88.7533 79.9684 84.6102 85.0733 84.6102Z" fill="#F56D27"/>
<path d="M85.0733 84.6103C79.9684 84.6103 75.8253 80.4672 75.8253 75.3623C80.9302 75.3623 85.0733 79.5054 85.0733 84.6103Z" fill="#F56D27"/>
<path d="M94.3212 75.3623C94.3212 80.4672 90.1781 84.6103 85.0732 84.6103C85.0732 79.5054 89.2163 75.3623 94.3212 75.3623Z" fill="#F56D27"/>
<path d="M85.0732 84.6102C90.1781 84.6102 94.3212 88.7533 94.3212 93.8582C89.2163 93.8582 85.0825 89.7151 85.0732 84.6102Z" fill="#F56D27"/>
<path d="M103.569 84.6102C103.569 89.7151 99.426 93.8582 94.3212 93.8582C94.3212 88.7533 98.4643 84.6102 103.569 84.6102Z" fill="#F56D27"/>
<path d="M103.569 84.6103C98.4643 84.6103 94.3212 80.4672 94.3212 75.3623C99.426 75.3623 103.569 79.5054 103.569 84.6103Z" fill="#F56D27"/>
<path d="M122.065 84.6103C116.96 84.6103 112.817 80.4672 112.817 75.3623C117.922 75.3623 122.065 79.5054 122.065 84.6103Z" fill="#F56D27"/>
<path d="M112.817 75.3623C112.817 80.4672 108.674 84.6103 103.569 84.6103C103.569 79.5054 107.712 75.3623 112.817 75.3623Z" fill="#F56D27"/>
<path d="M103.569 84.6102C108.674 84.6102 112.817 88.7533 112.817 93.8582C107.712 93.8582 103.569 89.7151 103.569 84.6102Z" fill="#F56D27"/>
<path d="M122.065 84.6102C122.065 89.7151 117.922 93.8582 112.817 93.8582C112.817 88.7533 116.96 84.6102 122.065 84.6102Z" fill="#F56D27"/>
<path d="M131.313 75.3623C131.313 80.4672 127.17 84.6103 122.065 84.6103C122.065 79.5054 126.208 75.3623 131.313 75.3623Z" fill="#F56D27"/>
<path d="M140.561 84.6103C135.456 84.6103 131.313 80.4672 131.313 75.3623C136.418 75.3623 140.561 79.5054 140.561 84.6103Z" fill="#F56D27"/>
<path d="M140.561 84.6102C140.561 89.7151 136.418 93.8489 131.313 93.8582C131.313 88.7533 135.456 84.6102 140.561 84.6102Z" fill="#F56D27"/>
<path d="M122.065 84.6102C127.17 84.6102 131.313 88.7533 131.313 93.8582C126.208 93.8582 122.065 89.7151 122.065 84.6102Z" fill="#F56D27"/>
<path d="M159.057 84.6103C153.952 84.6103 149.809 80.4672 149.809 75.3623C154.914 75.3623 159.057 79.5054 159.057 84.6103Z" fill="#F56D27"/>
<path d="M159.057 84.6102C159.057 89.7151 154.914 93.8582 149.809 93.8582C149.809 88.7533 153.952 84.6102 159.057 84.6102Z" fill="#F56D27"/>
<path d="M149.809 75.3623C149.809 80.4672 145.666 84.6103 140.561 84.6103C140.561 79.5054 144.704 75.3623 149.809 75.3623Z" fill="#F56D27"/>
<path d="M140.561 84.6102C145.666 84.6102 149.809 88.7533 149.809 93.8582C144.704 93.8582 140.57 89.7151 140.561 84.6102Z" fill="#F56D27"/>
<path d="M159.057 84.6102C164.162 84.6102 168.305 88.7533 168.305 93.8582C163.2 93.8582 159.057 89.7151 159.057 84.6102Z" fill="#F56D27"/>
<path d="M168.305 75.3623C168.305 80.4672 164.162 84.6103 159.057 84.6103C159.057 79.5054 163.2 75.3623 168.305 75.3623Z" fill="#F56D27"/>
<path d="M177.553 84.6103C172.448 84.6103 168.305 80.4672 168.305 75.3623C173.41 75.3623 177.553 79.5054 177.553 84.6103Z" fill="#F56D27"/>
<path d="M177.553 84.6102C177.553 89.7151 173.41 93.8582 168.305 93.8582C168.305 88.7533 172.448 84.6102 177.553 84.6102Z" fill="#F56D27"/>
<path d="M196.049 84.6103C190.944 84.6103 186.801 80.4672 186.801 75.3623C191.906 75.3623 196.049 79.5054 196.049 84.6103Z" fill="#F56D27"/>
<path d="M186.801 75.3623C186.801 80.4672 182.658 84.6103 177.553 84.6103C177.553 79.5054 181.696 75.3623 186.801 75.3623Z" fill="#F56D27"/>
<path d="M177.553 84.6102C182.658 84.6102 186.801 88.7533 186.801 93.8582C181.696 93.8582 177.553 89.7151 177.553 84.6102Z" fill="#F56D27"/>
<path d="M196.049 84.6102C196.049 89.7151 191.906 93.8582 186.801 93.8582C186.801 88.7533 190.944 84.6102 196.049 84.6102Z" fill="#F56D27"/>
<path d="M205.297 75.3623C205.297 80.4672 201.154 84.6103 196.049 84.6103C196.049 79.5054 200.192 75.3623 205.297 75.3623Z" fill="#F56D27"/>
<path d="M214.545 84.6102C214.545 89.7151 210.402 93.8582 205.297 93.8582C205.297 88.7533 209.44 84.6102 214.545 84.6102Z" fill="#F56D27"/>
<path d="M214.545 84.6103C209.44 84.6103 205.297 80.4672 205.297 75.3623C210.402 75.3623 214.545 79.5054 214.545 84.6103Z" fill="#F56D27"/>
<path d="M196.049 84.6102C201.154 84.6102 205.297 88.7533 205.297 93.8582C200.192 93.8582 196.049 89.7151 196.049 84.6102Z" fill="#F56D27"/>
<path d="M233.041 84.6102C233.041 89.7151 228.897 93.8582 223.793 93.8582C223.793 88.7533 227.936 84.6102 233.041 84.6102Z" fill="#F56D27"/>
<path d="M214.545 84.6102C219.649 84.6102 223.793 88.7533 223.793 93.8582C218.688 93.8582 214.545 89.7151 214.545 84.6102Z" fill="#F56D27"/>
<path d="M223.783 75.3623C223.783 80.4672 219.64 84.6103 214.535 84.6103C214.535 79.5054 218.678 75.3623 223.783 75.3623Z" fill="#F56D27"/>
<path d="M233.041 84.6103C227.936 84.6103 223.793 80.4672 223.793 75.3623C228.897 75.3623 233.041 79.5054 233.041 84.6103Z" fill="#F56D27"/>
<path d="M233.041 84.6102C238.145 84.6102 242.288 88.7533 242.288 93.8582C237.184 93.8582 233.041 89.7151 233.041 84.6102Z" fill="#F56D27"/>
<path d="M242.279 75.3623C242.279 80.4672 238.136 84.6103 233.031 84.6103C233.031 79.5054 237.174 75.3623 242.279 75.3623Z" fill="#F56D27"/>
<path d="M29.5855 66.1143C24.4806 66.1143 20.3375 61.9712 20.3375 56.8663C25.4424 56.8663 29.5855 61.0094 29.5855 66.1143Z" fill="#F56D27"/>
<path d="M20.3376 56.8663C20.3376 61.9712 16.1945 66.1143 11.0896 66.1143C11.0896 61.0094 15.2327 56.8663 20.3376 56.8663Z" fill="#F56D27"/>
<path d="M29.5855 66.1143C29.5855 71.2192 25.4424 75.3623 20.3375 75.3623C20.3375 70.2574 24.4806 66.1143 29.5855 66.1143Z" fill="#F56D27"/>
<path d="M11.0896 66.1143C16.1945 66.1143 20.3376 70.2574 20.3376 75.3623C15.2327 75.3623 11.0896 71.2192 11.0896 66.1143Z" fill="#F56D27"/>
<path d="M29.5856 66.1143C34.6904 66.1143 38.8335 70.2574 38.8335 75.3623C33.7287 75.3623 29.5856 71.2192 29.5856 66.1143Z" fill="#F56D27"/>
<path d="M38.8335 56.8663C38.8335 61.9712 34.6904 66.1143 29.5856 66.1143C29.5856 61.0094 33.7287 56.8663 38.8335 56.8663Z" fill="#F56D27"/>
<path d="M48.0815 66.1143C48.0815 71.2192 43.9384 75.3623 38.8335 75.3623C38.8335 70.2574 42.9766 66.1143 48.0815 66.1143Z" fill="#F56D27"/>
<path d="M48.0815 66.1143C42.9766 66.1143 38.8335 61.9712 38.8335 56.8663C43.9384 56.8663 48.0815 61.0094 48.0815 66.1143Z" fill="#F56D27"/>
<path d="M48.0814 66.1143C53.1863 66.1143 57.3294 70.2574 57.3294 75.3623C52.2245 75.3623 48.0814 71.2192 48.0814 66.1143Z" fill="#F56D27"/>
<path d="M66.5773 66.1143C66.5773 71.2192 62.4342 75.3623 57.3293 75.3623C57.3293 70.2574 61.4724 66.1143 66.5773 66.1143Z" fill="#F56D27"/>
<path d="M66.5773 66.1143C61.4724 66.1143 57.3293 61.9712 57.3293 56.8663C62.4342 56.8663 66.5773 61.0094 66.5773 66.1143Z" fill="#F56D27"/>
<path d="M57.3294 56.8663C57.3294 61.9712 53.1863 66.1143 48.0814 66.1143C48.0814 61.0094 52.2245 56.8663 57.3294 56.8663Z" fill="#F56D27"/>
<path d="M75.8253 56.8663C75.8253 61.9712 71.6823 66.1143 66.5774 66.1143C66.5774 61.0094 70.7205 56.8663 75.8253 56.8663Z" fill="#F56D27"/>
<path d="M85.0733 66.1143C85.0733 71.2192 80.9302 75.3623 75.8253 75.3623C75.8253 70.2574 79.9684 66.1143 85.0733 66.1143Z" fill="#F56D27"/>
<path d="M66.5774 66.1143C71.6823 66.1143 75.8253 70.2574 75.8253 75.3623C70.7205 75.3623 66.5774 71.2192 66.5774 66.1143Z" fill="#F56D27"/>
<path d="M85.0733 66.1143C79.9684 66.1143 75.8253 61.9712 75.8253 56.8663C80.9302 56.8663 85.0733 61.0094 85.0733 66.1143Z" fill="#F56D27"/>
<path d="M94.3212 56.8663C94.3212 61.9712 90.1781 66.1143 85.0732 66.1143C85.0732 61.0094 89.2163 56.8663 94.3212 56.8663Z" fill="#F56D27"/>
<path d="M103.569 66.1143C103.569 71.2192 99.426 75.3623 94.3212 75.3623C94.3212 70.2574 98.4643 66.1143 103.569 66.1143Z" fill="#F56D27"/>
<path d="M85.0732 66.1143C90.1781 66.1143 94.3212 70.2574 94.3212 75.3623C89.2163 75.3623 85.0732 71.2192 85.0732 66.1143Z" fill="#F56D27"/>
<path d="M103.569 66.1143C98.4643 66.1143 94.3212 61.9712 94.3212 56.8663C99.426 56.8663 103.569 61.0094 103.569 66.1143Z" fill="#F56D27"/>
<path d="M112.817 56.8663C112.817 61.9712 108.674 66.1143 103.569 66.1143C103.569 61.0094 107.712 56.8663 112.817 56.8663Z" fill="#F56D27"/>
<path d="M122.065 66.1143C122.065 71.2192 117.922 75.3623 112.817 75.3623C112.817 70.2574 116.96 66.1143 122.065 66.1143Z" fill="#F56D27"/>
<path d="M103.569 66.1143C108.674 66.1143 112.817 70.2574 112.817 75.3623C107.712 75.3623 103.569 71.2192 103.569 66.1143Z" fill="#F56D27"/>
<path d="M122.065 66.1143C116.96 66.1143 112.817 61.9712 112.817 56.8663C117.922 56.8663 122.065 61.0094 122.065 66.1143Z" fill="#F56D27"/>
<path d="M140.561 66.1143C135.456 66.1143 131.313 61.9712 131.313 56.8663C136.418 56.8663 140.561 61.0094 140.561 66.1143Z" fill="#F56D27"/>
<path d="M140.561 66.1143C140.561 71.2192 136.418 75.3623 131.313 75.3623C131.313 70.2574 135.456 66.1143 140.561 66.1143Z" fill="#F56D27"/>
<path d="M122.065 66.1143C127.17 66.1143 131.313 70.2574 131.313 75.3623C126.208 75.3623 122.065 71.2192 122.065 66.1143Z" fill="#F56D27"/>
<path d="M131.313 56.8663C131.313 61.9712 127.17 66.1143 122.065 66.1143C122.065 61.0094 126.208 56.8663 131.313 56.8663Z" fill="#F56D27"/>
<path d="M149.809 56.8663C149.809 61.9712 145.666 66.1143 140.561 66.1143C140.561 61.0094 144.704 56.8663 149.809 56.8663Z" fill="#F56D27"/>
<path d="M140.561 66.1143C145.666 66.1143 149.809 70.2574 149.809 75.3623C144.704 75.3623 140.561 71.2192 140.561 66.1143Z" fill="#F56D27"/>
<path d="M159.057 66.1143C153.952 66.1143 149.809 61.9712 149.809 56.8663C154.914 56.8663 159.057 61.0094 159.057 66.1143Z" fill="#F56D27"/>
<path d="M159.057 66.1143C159.057 71.2192 154.914 75.3623 149.809 75.3623C149.809 70.2574 153.952 66.1143 159.057 66.1143Z" fill="#F56D27"/>
<path d="M177.553 66.1143C172.448 66.1143 168.305 61.9712 168.305 56.8663C173.41 56.8663 177.553 61.0094 177.553 66.1143Z" fill="#F56D27"/>
<path d="M168.305 56.8663C168.305 61.9712 164.162 66.1143 159.057 66.1143C159.057 61.0094 163.2 56.8663 168.305 56.8663Z" fill="#F56D27"/>
<path d="M177.553 66.1143C177.553 71.2192 173.41 75.3623 168.305 75.3623C168.305 70.2574 172.448 66.1143 177.553 66.1143Z" fill="#F56D27"/>
<path d="M159.057 66.1143C164.162 66.1143 168.305 70.2574 168.305 75.3623C163.2 75.3623 159.057 71.2192 159.057 66.1143Z" fill="#F56D27"/>
<path d="M196.049 66.1143C196.049 71.2192 191.906 75.3623 186.801 75.3623C186.801 70.2574 190.944 66.1143 196.049 66.1143Z" fill="#F56D27"/>
<path d="M196.049 66.1143C190.944 66.1143 186.801 61.9712 186.801 56.8663C191.906 56.8663 196.049 61.0094 196.049 66.1143Z" fill="#F56D27"/>
<path d="M177.553 66.1143C182.658 66.1143 186.801 70.2574 186.801 75.3623C181.696 75.3623 177.553 71.2192 177.553 66.1143Z" fill="#F56D27"/>
<path d="M186.801 56.8663C186.801 61.9712 182.658 66.1143 177.553 66.1143C177.553 61.0094 181.696 56.8663 186.801 56.8663Z" fill="#F56D27"/>
<path d="M205.287 56.8663C205.287 61.9712 201.144 66.1143 196.04 66.1143C196.04 61.0094 200.183 56.8663 205.287 56.8663Z" fill="#F56D27"/>
<path d="M196.049 66.1143C201.154 66.1143 205.297 70.2574 205.297 75.3623C200.192 75.3623 196.049 71.2192 196.049 66.1143Z" fill="#F56D27"/>
<path d="M214.545 66.1143C209.44 66.1143 205.297 61.9712 205.297 56.8663C210.402 56.8663 214.545 61.0094 214.545 66.1143Z" fill="#F56D27"/>
<path d="M214.545 66.1143C214.545 71.2192 210.402 75.3623 205.297 75.3623C205.297 70.2574 209.44 66.1143 214.545 66.1143Z" fill="#F56D27"/>
<path d="M223.783 56.8663C223.783 61.9712 219.64 66.1143 214.535 66.1143C214.535 61.0094 218.678 56.8663 223.783 56.8663Z" fill="#F56D27"/>
<path d="M233.041 66.1143C227.936 66.1143 223.793 61.9712 223.793 56.8663C228.897 56.8663 233.041 61.0094 233.041 66.1143Z" fill="#F56D27"/>
<path d="M233.041 66.1143C233.041 71.2192 228.897 75.3623 223.793 75.3623C223.793 70.2574 227.936 66.1143 233.041 66.1143Z" fill="#F56D27"/>
<path d="M214.545 66.1143C219.649 66.1143 223.793 70.2574 223.793 75.3623C218.688 75.3623 214.545 71.2192 214.545 66.1143Z" fill="#F56D27"/>
<path d="M233.041 66.1143C238.145 66.1143 242.288 70.2574 242.288 75.3623C237.184 75.3623 233.041 71.2192 233.041 66.1143Z" fill="#F56D27"/>
<path d="M242.279 56.8663C242.279 61.9712 238.136 66.1143 233.031 66.1143C233.031 61.0094 237.174 56.8663 242.279 56.8663Z" fill="#F56D27"/>
<path d="M29.5855 47.6184C24.4806 47.6184 20.3375 43.4753 20.3375 38.3704C25.4424 38.3704 29.5855 42.5135 29.5855 47.6184Z" fill="#F56D27"/>
<path d="M20.3376 56.8663C15.2327 56.8663 11.0896 52.7232 11.0896 47.6184C16.1945 47.6184 20.3376 51.7615 20.3376 56.8663Z" fill="#F56D27"/>
<path d="M20.3376 38.3704C20.3376 43.4753 16.1945 47.6184 11.0896 47.6184C11.0896 42.5135 15.2327 38.3704 20.3376 38.3704Z" fill="#F56D27"/>
<path d="M29.5855 47.6184C29.5855 52.7232 25.4424 56.8663 20.3375 56.8663C20.3375 51.7615 24.4806 47.6184 29.5855 47.6184Z" fill="#F56D27"/>
<path d="M29.5856 47.6184C34.6904 47.6184 38.8335 51.7615 38.8335 56.8663C33.7287 56.8663 29.5856 52.7232 29.5856 47.6184Z" fill="#F56D27"/>
<path d="M48.0815 47.6184C48.0815 52.7232 43.9384 56.8663 38.8335 56.8663C38.8335 51.7615 42.9766 47.6184 48.0815 47.6184Z" fill="#F56D27"/>
<path d="M48.0815 47.6184C42.9766 47.6184 38.8335 43.4753 38.8335 38.3704C43.9384 38.3704 48.0815 42.5135 48.0815 47.6184Z" fill="#F56D27"/>
<path d="M38.8335 38.3704C38.8335 43.4753 34.6904 47.6184 29.5856 47.6184C29.5856 42.5135 33.7287 38.3704 38.8335 38.3704Z" fill="#F56D27"/>
<path d="M66.5773 47.6184C66.5773 52.7232 62.4342 56.8663 57.3293 56.8663C57.3293 51.7615 61.4724 47.6184 66.5773 47.6184Z" fill="#F56D27"/>
<path d="M57.3294 38.3704C57.3294 43.4753 53.1863 47.6184 48.0814 47.6184C48.0814 42.5135 52.2245 38.3704 57.3294 38.3704Z" fill="#F56D27"/>
<path d="M66.5773 47.6184C61.4724 47.6184 57.3293 43.4753 57.3293 38.3704C62.4342 38.3704 66.5773 42.5135 66.5773 47.6184Z" fill="#F56D27"/>
<path d="M48.0814 47.6184C53.1863 47.6184 57.3294 51.7615 57.3294 56.8663C52.2245 56.8663 48.0814 52.7232 48.0814 47.6184Z" fill="#F56D27"/>
<path d="M85.0733 47.6184C79.9684 47.6184 75.8253 43.4753 75.8253 38.3704C80.9302 38.3704 85.0733 42.5135 85.0733 47.6184Z" fill="#F56D27"/>
<path d="M75.8253 38.3704C75.8253 43.4753 71.6823 47.6184 66.5774 47.6184C66.5774 42.5135 70.7205 38.3704 75.8253 38.3704Z" fill="#F56D27"/>
<path d="M66.5774 47.6184C71.6823 47.6184 75.8253 51.7615 75.8253 56.8663C70.7205 56.8663 66.5774 52.7232 66.5774 47.6184Z" fill="#F56D27"/>
<path d="M85.0733 47.6184C85.0733 52.7232 80.9302 56.8663 75.8253 56.8663C75.8253 51.7615 79.9684 47.6184 85.0733 47.6184Z" fill="#F56D27"/>
<path d="M103.569 47.6184C98.4643 47.6184 94.3212 43.4753 94.3212 38.3704C99.426 38.3704 103.569 42.5135 103.569 47.6184Z" fill="#F56D27"/>
<path d="M94.3212 38.3704C94.3212 43.4753 90.1781 47.6184 85.0732 47.6184C85.0732 42.5135 89.2163 38.3704 94.3212 38.3704Z" fill="#F56D27"/>
<path d="M103.569 47.6184C103.569 52.7232 99.426 56.8663 94.3212 56.8663C94.3212 51.7615 98.4643 47.6184 103.569 47.6184Z" fill="#F56D27"/>
<path d="M85.0732 47.6184C90.1781 47.6184 94.3212 51.7615 94.3212 56.8663C89.2163 56.8663 85.0732 52.7232 85.0732 47.6184Z" fill="#F56D27"/>
<path d="M122.065 47.6184C122.065 52.7232 117.922 56.8663 112.817 56.8663C112.817 51.7615 116.96 47.6184 122.065 47.6184Z" fill="#F56D27"/>
<path d="M103.569 47.6184C108.674 47.6184 112.817 51.7615 112.817 56.8663C107.712 56.8663 103.569 52.7232 103.569 47.6184Z" fill="#F56D27"/>
<path d="M122.065 47.6184C116.96 47.6184 112.817 43.4753 112.817 38.3704C117.922 38.3704 122.065 42.5135 122.065 47.6184Z" fill="#F56D27"/>
<path d="M112.817 38.3704C112.817 43.4753 108.674 47.6184 103.569 47.6184C103.569 42.5135 107.712 38.3704 112.817 38.3704Z" fill="#F56D27"/>
<path d="M131.313 38.3704C131.313 43.4753 127.17 47.6184 122.065 47.6184C122.065 42.5135 126.208 38.3704 131.313 38.3704Z" fill="#F56D27"/>
<path d="M140.561 47.6184C135.456 47.6184 131.313 43.4753 131.313 38.3704C136.418 38.3704 140.561 42.5135 140.561 47.6184Z" fill="#F56D27"/>
<path d="M140.561 47.6184C140.561 52.7232 136.418 56.8663 131.313 56.8663C131.313 51.7615 135.456 47.6184 140.561 47.6184Z" fill="#F56D27"/>
<path d="M122.065 47.6184C127.17 47.6184 131.313 51.7615 131.313 56.8663C126.208 56.8663 122.065 52.7232 122.065 47.6184Z" fill="#F56D27"/>
<path d="M159.057 47.6184C159.057 52.7232 154.914 56.8663 149.809 56.8663C149.809 51.7615 153.952 47.6184 159.057 47.6184Z" fill="#F56D27"/>
<path d="M140.561 47.6184C145.666 47.6184 149.809 51.7615 149.809 56.8663C144.704 56.8663 140.561 52.7232 140.561 47.6184Z" fill="#F56D27"/>
<path d="M149.809 38.3704C149.809 43.4753 145.666 47.6184 140.561 47.6184C140.561 42.5135 144.704 38.3704 149.809 38.3704Z" fill="#F56D27"/>
<path d="M159.057 47.6184C153.952 47.6184 149.809 43.4753 149.809 38.3704C154.914 38.3704 159.057 42.5135 159.057 47.6184Z" fill="#F56D27"/>
<path d="M177.553 47.6184C172.448 47.6184 168.305 43.4753 168.305 38.3704C173.41 38.3704 177.553 42.5135 177.553 47.6184Z" fill="#F56D27"/>
<path d="M168.296 38.3704C168.296 43.4753 164.152 47.6184 159.048 47.6184C159.048 42.5135 163.191 38.3704 168.296 38.3704Z" fill="#F56D27"/>
<path d="M159.057 47.6184C164.162 47.6184 168.305 51.7615 168.305 56.8663C163.2 56.8663 159.057 52.7232 159.057 47.6184Z" fill="#F56D27"/>
<path d="M177.553 47.6184C177.553 52.7232 173.41 56.8663 168.305 56.8663C168.305 51.7615 172.448 47.6184 177.553 47.6184Z" fill="#F56D27"/>
<path d="M196.049 47.6184C190.944 47.6184 186.801 43.4753 186.801 38.3704C191.906 38.3704 196.049 42.5135 196.049 47.6184Z" fill="#F56D27"/>
<path d="M186.792 38.3704C186.792 43.4753 182.648 47.6184 177.544 47.6184C177.544 42.5135 181.687 38.3704 186.792 38.3704Z" fill="#F56D27"/>
<path d="M196.049 47.6184C196.049 52.7232 191.906 56.8663 186.801 56.8663C186.801 51.7615 190.944 47.6184 196.049 47.6184Z" fill="#F56D27"/>
<path d="M177.553 47.6184C182.658 47.6184 186.801 51.7615 186.801 56.8663C181.696 56.8663 177.553 52.7232 177.553 47.6184Z" fill="#F56D27"/>
<path d="M196.049 47.6184C201.154 47.6184 205.297 51.7615 205.297 56.8663C200.192 56.8663 196.049 52.7232 196.049 47.6184Z" fill="#F56D27"/>
<path d="M214.545 47.6184C209.44 47.6184 205.297 43.4753 205.297 38.3704C210.402 38.3704 214.545 42.5135 214.545 47.6184Z" fill="#F56D27"/>
<path d="M205.287 38.3704C205.287 43.4753 201.144 47.6184 196.04 47.6184C196.04 42.5135 200.183 38.3704 205.287 38.3704Z" fill="#F56D27"/>
<path d="M214.545 47.6184C214.545 52.7232 210.402 56.8663 205.297 56.8663C205.297 51.7615 209.44 47.6184 214.545 47.6184Z" fill="#F56D27"/>
<path d="M214.545 47.6184C219.649 47.6184 223.793 51.7615 223.793 56.8663C218.688 56.8663 214.545 52.7232 214.545 47.6184Z" fill="#F56D27"/>
<path d="M233.041 47.6184C233.041 52.7232 228.897 56.8663 223.793 56.8663C223.793 51.7615 227.936 47.6184 233.041 47.6184Z" fill="#F56D27"/>
<path d="M233.041 47.6184C227.936 47.6184 223.793 43.4753 223.793 38.3704C228.897 38.3704 233.041 42.5135 233.041 47.6184Z" fill="#F56D27"/>
<path d="M223.783 38.3704C223.783 43.4753 219.64 47.6184 214.535 47.6184C214.535 42.5135 218.678 38.3704 223.783 38.3704Z" fill="#F56D27"/>
<path d="M242.279 38.3704C242.279 43.4753 238.136 47.6184 233.031 47.6184C233.031 42.5135 237.174 38.3704 242.279 38.3704Z" fill="#F56D27"/>
<path d="M233.041 47.6184C238.145 47.6184 242.288 51.7615 242.288 56.8663C237.184 56.8663 233.041 52.7232 233.041 47.6184Z" fill="#F56D27"/>
<path d="M20.3468 38.3704C20.3468 33.2656 24.4899 29.1225 29.5948 29.1225C29.5948 34.2273 25.4517 38.3704 20.3468 38.3704Z" fill="#F56D27"/>
<path d="M20.3376 38.3704C15.2327 38.3704 11.0896 34.2273 11.0896 29.1225C16.1945 29.1225 20.3376 33.2656 20.3376 38.3704Z" fill="#F56D27"/>
<path d="M20.3376 19.8745C20.3376 24.9794 16.1945 29.1225 11.0896 29.1225C11.0896 24.0176 15.2327 19.8745 20.3376 19.8745Z" fill="#F56D27"/>
<path d="M29.5855 29.1225C24.4806 29.1225 20.3375 24.9794 20.3375 19.8745C25.4424 19.8745 29.5855 24.0176 29.5855 29.1225Z" fill="#F56D27"/>
<path d="M48.0815 29.1225C42.9766 29.1225 38.8335 24.9794 38.8335 19.8745C43.9384 19.8745 48.0815 24.0176 48.0815 29.1225Z" fill="#F56D27"/>
<path d="M48.0815 29.1225C48.0815 34.2273 43.9384 38.3704 38.8335 38.3704C38.8335 33.2656 42.9766 29.1225 48.0815 29.1225Z" fill="#F56D27"/>
<path d="M38.8335 38.3704C33.7287 38.3704 29.5856 34.2273 29.5856 29.1225C34.6904 29.1225 38.8335 33.2656 38.8335 38.3704Z" fill="#F56D27"/>
<path d="M38.8335 19.8745C38.8335 24.9794 34.6904 29.1225 29.5856 29.1225C29.5856 24.0176 33.7287 19.8745 38.8335 19.8745Z" fill="#F56D27"/>
<path d="M57.3294 19.8745C57.3294 24.9794 53.1863 29.1225 48.0814 29.1225C48.0814 24.0176 52.2245 19.8745 57.3294 19.8745Z" fill="#F56D27"/>
<path d="M48.0814 29.1225C53.1863 29.1225 57.3294 33.2656 57.3294 38.3704C52.2245 38.3704 48.0814 34.2273 48.0814 29.1225Z" fill="#F56D27"/>
<path d="M66.5773 29.1225C66.5773 34.2273 62.4342 38.3704 57.3293 38.3704C57.3293 33.2656 61.4724 29.1225 66.5773 29.1225Z" fill="#F56D27"/>
<path d="M66.5773 29.1225C61.4724 29.1225 57.3293 24.9794 57.3293 19.8745C62.4342 19.8745 66.5773 24.0176 66.5773 29.1225Z" fill="#F56D27"/>
<path d="M85.0733 29.1225C79.9684 29.1225 75.8253 24.9794 75.8253 19.8745C80.9302 19.8745 85.0733 24.0176 85.0733 29.1225Z" fill="#F56D27"/>
<path d="M66.5774 29.1225C71.6823 29.1225 75.8253 33.2656 75.8253 38.3704C70.7205 38.3704 66.5774 34.2273 66.5774 29.1225Z" fill="#F56D27"/>
<path d="M85.0733 29.1225C85.0733 34.2273 80.9302 38.3704 75.8253 38.3704C75.8253 33.2656 79.9684 29.1225 85.0733 29.1225Z" fill="#F56D27"/>
<path d="M75.8253 19.8745C75.8253 24.9794 71.6823 29.1225 66.5774 29.1225C66.5774 24.0176 70.7205 19.8745 75.8253 19.8745Z" fill="#F56D27"/>
<path d="M85.0732 29.1225C90.1781 29.1225 94.3212 33.2656 94.3212 38.3704C89.2163 38.3704 85.0732 34.2273 85.0732 29.1225Z" fill="#F56D27"/>
<path d="M94.3212 19.8745C94.3212 24.9794 90.1781 29.1225 85.0732 29.1225C85.0732 24.0176 89.2163 19.8745 94.3212 19.8745Z" fill="#F56D27"/>
<path d="M103.569 29.1225C98.4643 29.1225 94.3212 24.9794 94.3212 19.8745C99.426 19.8745 103.569 24.0176 103.569 29.1225Z" fill="#F56D27"/>
<path d="M103.569 29.1225C103.569 34.2273 99.426 38.3704 94.3212 38.3704C94.3212 33.2656 98.4643 29.1225 103.569 29.1225Z" fill="#F56D27"/>
<path d="M122.065 29.1225C122.065 34.2273 117.922 38.3704 112.817 38.3704C112.817 33.2656 116.96 29.1225 122.065 29.1225Z" fill="#F56D27"/>
<path d="M103.569 29.1225C108.674 29.1225 112.817 33.2656 112.817 38.3704C107.712 38.3704 103.569 34.2273 103.569 29.1225Z" fill="#F56D27"/>
<path d="M122.065 29.1225C116.96 29.1225 112.817 24.9794 112.817 19.8745C117.922 19.8745 122.065 24.0176 122.065 29.1225Z" fill="#F56D27"/>
<path d="M112.817 19.8745C112.817 24.9794 108.674 29.1225 103.569 29.1225C103.569 24.0176 107.712 19.8745 112.817 19.8745Z" fill="#F56D27"/>
<path d="M140.561 29.1225C140.561 34.2273 136.418 38.3704 131.313 38.3704C131.313 33.2656 135.456 29.1225 140.561 29.1225Z" fill="#F56D27"/>
<path d="M122.065 29.1225C127.17 29.1225 131.313 33.2656 131.313 38.3704C126.208 38.3704 122.065 34.2273 122.065 29.1225Z" fill="#F56D27"/>
<path d="M140.561 29.1225C135.456 29.1225 131.313 24.9794 131.313 19.8745C136.418 19.8745 140.561 24.0176 140.561 29.1225Z" fill="#F56D27"/>
<path d="M131.313 19.8745C131.313 24.9794 127.17 29.1225 122.065 29.1225C122.065 24.0176 126.208 19.8745 131.313 19.8745Z" fill="#F56D27"/>
<path d="M149.809 19.8745C149.809 24.9794 145.666 29.1225 140.561 29.1225C140.561 24.0176 144.704 19.8745 149.809 19.8745Z" fill="#F56D27"/>
<path d="M159.057 29.1225C159.057 34.2273 154.914 38.3704 149.809 38.3704C149.809 33.2656 153.952 29.1225 159.057 29.1225Z" fill="#F56D27"/>
<path d="M159.057 29.1225C153.952 29.1225 149.809 24.9794 149.809 19.8745C154.914 19.8745 159.057 24.0176 159.057 29.1225Z" fill="#F56D27"/>
<path d="M140.561 29.1225C145.666 29.1225 149.809 33.2656 149.809 38.3704C144.704 38.3704 140.561 34.2273 140.561 29.1225Z" fill="#F56D27"/>
<path d="M168.305 19.8745C168.305 24.9794 164.162 29.1225 159.057 29.1225C159.057 24.0176 163.2 19.8745 168.305 19.8745Z" fill="#F56D27"/>
<path d="M177.553 29.1225C177.553 34.2273 173.41 38.3704 168.305 38.3704C168.305 33.2656 172.448 29.1225 177.553 29.1225Z" fill="#F56D27"/>
<path d="M177.553 29.1225C172.448 29.1225 168.305 24.9794 168.305 19.8745C173.41 19.8745 177.553 24.0176 177.553 29.1225Z" fill="#F56D27"/>
<path d="M159.057 29.1225C164.162 29.1225 168.305 33.2656 168.305 38.3704C163.2 38.3704 159.057 34.2273 159.057 29.1225Z" fill="#F56D27"/>
<path d="M196.049 29.1225C196.049 34.2273 191.906 38.3704 186.801 38.3704C186.801 33.2656 190.944 29.1225 196.049 29.1225Z" fill="#F56D27"/>
<path d="M177.553 29.1225C182.658 29.1225 186.801 33.2656 186.801 38.3704C181.696 38.3704 177.553 34.2273 177.553 29.1225Z" fill="#F56D27"/>
<path d="M196.049 29.1225C190.944 29.1225 186.801 24.9794 186.801 19.8745C191.906 19.8745 196.049 24.0176 196.049 29.1225Z" fill="#F56D27"/>
<path d="M186.801 19.8745C186.801 24.9794 182.658 29.1225 177.553 29.1225C177.553 24.0176 181.696 19.8745 186.801 19.8745Z" fill="#F56D27"/>
<path d="M214.545 29.1225C209.44 29.1225 205.297 24.9794 205.297 19.8745C210.402 19.8745 214.545 24.0176 214.545 29.1225Z" fill="#F56D27"/>
<path d="M214.545 29.1225C214.545 34.2273 210.402 38.3704 205.297 38.3704C205.297 33.2656 209.44 29.1225 214.545 29.1225Z" fill="#F56D27"/>
<path d="M205.287 19.8745C205.287 24.9794 201.144 29.1225 196.04 29.1225C196.04 24.0176 200.183 19.8745 205.287 19.8745Z" fill="#F56D27"/>
<path d="M196.049 29.1225C201.154 29.1225 205.297 33.2656 205.297 38.3704C200.192 38.3704 196.049 34.2273 196.049 29.1225Z" fill="#F56D27"/>
<path d="M233.031 29.1225C233.031 34.2273 228.888 38.3704 223.783 38.3704C223.783 33.2656 227.926 29.1225 233.031 29.1225Z" fill="#F56D27"/>
<path d="M223.783 19.8745C223.783 24.9794 219.64 29.1225 214.535 29.1225C214.535 24.0176 218.678 19.8745 223.783 19.8745Z" fill="#F56D27"/>
<path d="M233.041 29.1225C227.936 29.1225 223.793 24.9794 223.793 19.8745C228.897 19.8745 233.041 24.0176 233.041 29.1225Z" fill="#F56D27"/>
<path d="M214.545 29.1225C219.649 29.1225 223.793 33.2656 223.793 38.3704C218.688 38.3704 214.545 34.2273 214.545 29.1225Z" fill="#F56D27"/>
<path d="M242.279 19.8745C242.279 24.9794 238.136 29.1225 233.031 29.1225C233.031 24.0176 237.174 19.8745 242.279 19.8745Z" fill="#F56D27"/>
<path d="M233.041 29.1225C238.145 29.1225 242.288 33.2656 242.288 38.3704C237.184 38.3704 233.041 34.2273 233.041 29.1225Z" fill="#F56D27"/>
<path d="M29.5855 10.6266C24.4806 10.6266 20.3375 6.48347 20.3375 1.3786C25.4424 1.3786 29.5855 5.52169 29.5855 10.6266Z" fill="#F56D27"/>
<path d="M20.3376 19.8745C15.2327 19.8745 11.0896 15.7314 11.0896 10.6266C16.1945 10.6266 20.3376 14.7696 20.3376 19.8745Z" fill="#F56D27"/>
<path d="M20.3375 19.8745C20.3375 14.7696 24.4806 10.6266 29.5855 10.6266C29.5855 15.7314 25.4424 19.8745 20.3375 19.8745Z" fill="#F56D27"/>
<path d="M20.3376 1.3786C20.3376 6.48347 16.1945 10.6266 11.0896 10.6266C11.0896 5.52169 15.2327 1.3786 20.3376 1.3786Z" fill="#F56D27"/>
<path d="M38.8335 19.8745C38.8335 14.7696 42.9766 10.6266 48.0815 10.6266C48.0815 15.7314 43.9384 19.8745 38.8335 19.8745Z" fill="#F56D27"/>
<path d="M48.0815 10.6266C42.9766 10.6266 38.8335 6.48347 38.8335 1.3786C43.9384 1.3786 48.0815 5.52169 48.0815 10.6266Z" fill="#F56D27"/>
<path d="M38.8335 19.8745C33.7287 19.8745 29.5856 15.7314 29.5856 10.6266C34.6904 10.6266 38.8335 14.7696 38.8335 19.8745Z" fill="#F56D27"/>
<path d="M38.8335 1.3786C38.8335 6.48347 34.6904 10.6266 29.5856 10.6266C29.5856 5.52169 33.7287 1.3786 38.8335 1.3786Z" fill="#F56D27"/>
<path d="M57.3294 19.8745C52.2245 19.8745 48.0814 15.7314 48.0814 10.6266C53.1863 10.6266 57.3294 14.7696 57.3294 19.8745Z" fill="#F56D27"/>
<path d="M66.5773 10.6266C61.4724 10.6266 57.3293 6.48347 57.3293 1.3786C62.4342 1.3786 66.5773 5.52169 66.5773 10.6266Z" fill="#F56D27"/>
<path d="M66.5773 10.6266C66.5773 15.7314 62.4342 19.8745 57.3293 19.8745C57.3293 14.7696 61.4724 10.6266 66.5773 10.6266Z" fill="#F56D27"/>
<path d="M57.3294 1.3786C57.3294 6.48347 53.1863 10.6266 48.0814 10.6266C48.0814 5.52169 52.2245 1.3786 57.3294 1.3786Z" fill="#F56D27"/>
<path d="M66.5774 10.6266C71.6823 10.6266 75.8253 14.7696 75.8253 19.8745C70.7205 19.8745 66.5774 15.7314 66.5774 10.6266Z" fill="#F56D27"/>
<path d="M85.0733 10.6266C79.9684 10.6266 75.8253 6.48347 75.8253 1.3786C80.9302 1.3786 85.0733 5.52169 85.0733 10.6266Z" fill="#F56D27"/>
<path d="M75.8253 1.3786C75.8253 6.48347 71.6823 10.6266 66.5774 10.6266C66.5774 5.52169 70.7205 1.3786 75.8253 1.3786Z" fill="#F56D27"/>
<path d="M85.0733 10.6266C85.0733 15.7314 80.9302 19.8745 75.8253 19.8745C75.8253 14.7696 79.9684 10.6266 85.0733 10.6266Z" fill="#F56D27"/>
<path d="M85.0732 10.6266C90.1781 10.6266 94.3212 14.7696 94.3212 19.8745C89.2163 19.8745 85.0732 15.7314 85.0732 10.6266Z" fill="#F56D27"/>
<path d="M103.569 10.6266C98.4643 10.6266 94.3212 6.48347 94.3212 1.3786C99.426 1.3786 103.569 5.52169 103.569 10.6266Z" fill="#F56D27"/>
<path d="M103.569 10.6266C103.569 15.7314 99.426 19.8745 94.3212 19.8745C94.3212 14.7696 98.4643 10.6266 103.569 10.6266Z" fill="#F56D27"/>
<path d="M94.3212 1.3786C94.3212 6.48347 90.1781 10.6266 85.0732 10.6266C85.0732 5.52169 89.2163 1.3786 94.3212 1.3786Z" fill="#F56D27"/>
<path d="M103.569 10.6266C108.674 10.6266 112.817 14.7696 112.817 19.8745C107.712 19.8745 103.569 15.7314 103.569 10.6266Z" fill="#F56D27"/>
<path d="M122.065 10.6266C122.065 15.7314 117.922 19.8745 112.817 19.8745C112.817 14.7696 116.96 10.6266 122.065 10.6266Z" fill="#F56D27"/>
<path d="M112.817 1.3786C112.817 6.48347 108.674 10.6266 103.569 10.6266C103.569 5.52169 107.712 1.3786 112.817 1.3786Z" fill="#F56D27"/>
<path d="M122.065 10.6266C116.96 10.6266 112.817 6.48347 112.817 1.3786C117.922 1.3786 122.065 5.52169 122.065 10.6266Z" fill="#F56D27"/>
<path d="M122.065 10.6266C127.17 10.6266 131.313 14.7696 131.313 19.8745C126.208 19.8745 122.065 15.7314 122.065 10.6266Z" fill="#F56D27"/>
<path d="M140.561 10.6266C140.561 15.7314 136.418 19.8745 131.313 19.8745C131.313 14.7696 135.456 10.6266 140.561 10.6266Z" fill="#F56D27"/>
<path d="M131.313 1.3786C131.313 6.48347 127.17 10.6266 122.065 10.6266C122.065 5.52169 126.208 1.3786 131.313 1.3786Z" fill="#F56D27"/>
<path d="M140.561 10.6266C135.456 10.6266 131.313 6.48347 131.313 1.3786C136.418 1.3786 140.561 5.52169 140.561 10.6266Z" fill="#F56D27"/>
<path d="M140.561 10.6266C145.666 10.6266 149.809 14.7696 149.809 19.8745C144.704 19.8745 140.561 15.7314 140.561 10.6266Z" fill="#F56D27"/>
<path d="M159.057 10.6266C159.057 15.7314 154.914 19.8745 149.809 19.8745C149.809 14.7696 153.952 10.6266 159.057 10.6266Z" fill="#F56D27"/>
<path d="M149.809 1.3786C149.809 6.48347 145.666 10.6266 140.561 10.6266C140.561 5.52169 144.704 1.3786 149.809 1.3786Z" fill="#F56D27"/>
<path d="M159.057 10.6266C153.952 10.6266 149.809 6.48347 149.809 1.3786C154.914 1.3786 159.057 5.52169 159.057 10.6266Z" fill="#F56D27"/>
<path d="M177.553 10.6266C177.553 15.7314 173.41 19.8745 168.305 19.8745C168.305 14.7696 172.448 10.6266 177.553 10.6266Z" fill="#F56D27"/>
<path d="M177.553 10.6266C172.448 10.6266 168.305 6.48347 168.305 1.3786C173.41 1.3786 177.553 5.52169 177.553 10.6266Z" fill="#F56D27"/>
<path d="M168.305 1.3786C168.305 6.48347 164.162 10.6266 159.057 10.6266C159.057 5.52169 163.2 1.3786 168.305 1.3786Z" fill="#F56D27"/>
<path d="M159.057 10.6266C164.162 10.6266 168.305 14.7696 168.305 19.8745C163.2 19.8745 159.057 15.7314 159.057 10.6266Z" fill="#F56D27"/>
<path d="M186.792 1.3786C186.792 6.48347 182.648 10.6266 177.544 10.6266C177.544 5.52169 181.687 1.3786 186.792 1.3786Z" fill="#F56D27"/>
<path d="M196.049 10.6266C196.049 15.7314 191.906 19.8745 186.801 19.8745C186.801 14.7696 190.944 10.6266 196.049 10.6266Z" fill="#F56D27"/>
<path d="M196.049 10.6266C190.944 10.6266 186.801 6.48347 186.801 1.3786C191.906 1.3786 196.049 5.52169 196.049 10.6266Z" fill="#F56D27"/>
<path d="M177.553 10.6266C182.658 10.6266 186.801 14.7696 186.801 19.8745C181.696 19.8745 177.553 15.7314 177.553 10.6266Z" fill="#F56D27"/>
<path d="M214.545 10.6266C209.44 10.6266 205.297 6.48347 205.297 1.3786C210.402 1.3786 214.545 5.52169 214.545 10.6266Z" fill="#F56D27"/>
<path d="M214.545 10.6266C214.545 15.7314 210.402 19.8745 205.297 19.8745C205.297 14.7696 209.44 10.6266 214.545 10.6266Z" fill="#F56D27"/>
<path d="M205.287 1.3786C205.287 6.48347 201.144 10.6266 196.04 10.6266C196.04 5.52169 200.183 1.3786 205.287 1.3786Z" fill="#F56D27"/>
<path d="M196.049 10.6266C201.154 10.6266 205.297 14.7696 205.297 19.8745C200.192 19.8745 196.049 15.7314 196.049 10.6266Z" fill="#F56D27"/>
<path d="M214.545 10.6266C219.649 10.6266 223.793 14.7696 223.793 19.8745C218.688 19.8745 214.545 15.7314 214.545 10.6266Z" fill="#F56D27"/>
<path d="M223.783 1.3786C223.783 6.48347 219.64 10.6266 214.535 10.6266C214.535 5.52169 218.678 1.3786 223.783 1.3786Z" fill="#F56D27"/>
<path d="M223.793 19.8745C223.793 14.7696 227.936 10.6266 233.041 10.6266C233.041 15.7314 228.897 19.8745 223.793 19.8745Z" fill="#F56D27"/>
<path d="M223.793 1.3786C228.897 1.3786 233.041 5.52169 233.041 10.6266C227.936 10.6266 223.793 6.48347 223.793 1.3786Z" fill="#F56D27"/>
<path d="M233.041 10.6266C238.145 10.6266 242.288 14.7696 242.288 19.8745C237.184 19.8745 233.041 15.7314 233.041 10.6266Z" fill="#F56D27"/>
<path d="M242.279 1.3786C242.279 6.48347 238.136 10.6266 233.031 10.6266C233.031 5.52169 237.174 1.3786 242.279 1.3786Z" fill="#F56D27"/>
<path d="M20.3468 1.3786C20.3468 -3.72627 24.4899 -7.86935 29.5948 -7.86935C29.5948 -2.76448 25.4517 1.3786 20.3468 1.3786Z" fill="#F56D27"/>
<path d="M20.3376 1.3786C15.2327 1.3786 11.0896 -2.76448 11.0896 -7.86935C16.1945 -7.86935 20.3376 -3.72627 20.3376 1.3786Z" fill="#F56D27"/>
<path d="M38.8335 1.3786C33.7287 1.3786 29.5856 -2.76448 29.5856 -7.86935C34.6904 -7.86935 38.8335 -3.72627 38.8335 1.3786Z" fill="#F56D27"/>
<path d="M38.8335 1.3786C38.8335 -3.72627 42.9766 -7.86935 48.0815 -7.86935C48.0815 -2.76448 43.9384 1.3786 38.8335 1.3786Z" fill="#F56D27"/>
<path d="M57.3293 1.3786C57.3293 -3.72627 61.4724 -7.86935 66.5773 -7.86935C66.5773 -2.76448 62.4342 1.3786 57.3293 1.3786Z" fill="#F56D27"/>
<path d="M57.3294 1.3786C52.2245 1.3786 48.0814 -2.76448 48.0814 -7.86935C53.1863 -7.86935 57.3294 -3.72627 57.3294 1.3786Z" fill="#F56D27"/>
<path d="M75.8253 1.3786C70.7205 1.3786 66.5774 -2.76448 66.5774 -7.86935C71.6823 -7.86935 75.8253 -3.72627 75.8253 1.3786Z" fill="#F56D27"/>
<path d="M85.0733 -7.86935C85.0733 -2.76448 80.9302 1.3786 75.8253 1.3786C75.8253 -3.72627 79.9684 -7.86935 85.0733 -7.86935Z" fill="#F56D27"/>
<path d="M103.569 -7.86935C103.569 -2.76448 99.426 1.3786 94.3212 1.3786C94.3212 -3.72627 98.4643 -7.86935 103.569 -7.86935Z" fill="#F56D27"/>
<path d="M85.0732 -7.86011C90.1781 -7.86011 94.3212 -3.71702 94.3212 1.38785C89.2163 1.38785 85.0732 -2.75524 85.0732 -7.86011Z" fill="#F56D27"/>
<path d="M122.065 -7.86935C122.065 -2.76448 117.922 1.3786 112.817 1.3786C112.817 -3.72627 116.96 -7.86935 122.065 -7.86935Z" fill="#F56D27"/>
<path d="M103.569 -7.86935C108.674 -7.86935 112.817 -3.72627 112.817 1.3786C107.712 1.3786 103.569 -2.76448 103.569 -7.86935Z" fill="#F56D27"/>
<path d="M122.065 -7.86935C127.17 -7.86935 131.313 -3.72627 131.313 1.3786C126.208 1.3786 122.065 -2.76448 122.065 -7.86935Z" fill="#F56D27"/>
<path d="M140.561 -7.86935C140.561 -2.76448 136.418 1.3786 131.313 1.3786C131.313 -3.72627 135.456 -7.86935 140.561 -7.86935Z" fill="#F56D27"/>
<path d="M140.561 -7.86011C145.666 -7.86011 149.809 -3.71702 149.809 1.38785C144.704 1.38785 140.561 -2.75524 140.561 -7.86011Z" fill="#F56D27"/>
<path d="M159.057 -7.86935C159.057 -2.76448 154.914 1.3786 149.809 1.3786C149.809 -3.72627 153.952 -7.86935 159.057 -7.86935Z" fill="#F56D27"/>
<path d="M177.553 -7.86935C177.553 -2.76448 173.41 1.3786 168.305 1.3786C168.305 -3.72627 172.448 -7.86935 177.553 -7.86935Z" fill="#F56D27"/>
<path d="M159.057 -7.86935C164.162 -7.86935 168.305 -3.72627 168.305 1.3786C163.2 1.3786 159.057 -2.76448 159.057 -7.86935Z" fill="#F56D27"/>
<path d="M196.049 -7.86935C196.049 -2.76448 191.906 1.3786 186.801 1.3786C186.801 -3.72627 190.944 -7.86935 196.049 -7.86935Z" fill="#F56D27"/>
<path d="M177.553 -7.86935C182.658 -7.86935 186.801 -3.72627 186.801 1.3786C181.696 1.3786 177.553 -2.76448 177.553 -7.86935Z" fill="#F56D27"/>
<path d="M205.297 1.3786C205.297 -3.72627 209.44 -7.86935 214.545 -7.86935C214.545 -2.76448 210.402 1.3786 205.297 1.3786Z" fill="#F56D27"/>
<path d="M196.049 -7.86935C201.154 -7.86935 205.297 -3.72627 205.297 1.3786C200.192 1.3786 196.049 -2.76448 196.049 -7.86935Z" fill="#F56D27"/>
<path d="M214.545 -7.86935C219.649 -7.86935 223.793 -3.72627 223.793 1.3786C218.688 1.3786 214.545 -2.76448 214.545 -7.86935Z" fill="#F56D27"/>
<path d="M223.793 1.3786C223.793 -3.72627 227.936 -7.86935 233.041 -7.86935C233.041 -2.76448 228.897 1.3786 223.793 1.3786Z" fill="#F56D27"/>
<path d="M233.041 -7.86935C238.145 -7.86935 242.288 -3.72627 242.288 1.3786C237.184 1.3786 233.041 -2.76448 233.041 -7.86935Z" fill="#F56D27"/>
</g>
</g>
<path d="M129.907 8.46259C163.533 8.46259 195.494 15.0656 225.05 28.0867L205.519 79.043C192.655 74.1046 165.651 65.8369 129.038 65.8369C101.627 65.8369 73.9664 70.4979 46.7034 79.6903L27.0145 28.5769C42.6158 22.1866 81.7254 8.46259 129.907 8.46259Z" stroke="black" stroke-linecap="round" stroke-linejoin="round"/>
<path d="M129.907 8.46259C163.533 8.46259 195.494 15.0656 225.05 28.0867L205.519 79.043C192.655 74.1046 165.651 65.8369 129.038 65.8369C101.627 65.8369 73.9664 70.4979 46.7034 79.6903L27.0145 28.5769C42.6158 22.1866 81.7254 8.46259 129.907 8.46259Z" fill="#EF4B23"/>
<path d="M2.46121 20.2075L1.97107 18.7185C1.97107 18.7185 4.28306 15.0933 10.1925 16.1754L11.0896 17.766L2.46121 20.2075Z" fill="#C71E11"/>
<path d="M11.9496 17.0262L41.5893 91.4907L25.3222 96.013L1.00928 20.6329C1.00928 20.6329 3.45074 16.8227 11.9496 17.0262Z" fill="#EF4B23"/>
<mask id="mask1_2380_47115" style="mask-type:luminance" maskUnits="userSpaceOnUse" x="1" y="17" width="41" height="80">
<path d="M11.9496 17.0262L41.5893 91.4907L25.3222 96.013L1.00928 20.6329C1.00928 20.6329 3.45074 16.8227 11.9496 17.0262Z" fill="white"/>
</mask>
<g mask="url(#mask1_2380_47115)">
<path d="M32.7576 19.3012C36.6695 19.3012 39.8415 16.1291 39.8415 12.2172C35.9296 12.2172 32.7668 15.3893 32.7668 19.2919L32.7576 19.3012Z" fill="#F56D27"/>
<path d="M39.8414 12.2172C39.8414 16.1291 43.0135 19.3012 46.9254 19.3012C46.9254 15.3893 43.7533 12.2265 39.8507 12.2265L39.8414 12.2172Z" fill="#F56D27"/>
<path d="M39.8415 26.3759C43.7534 26.3759 46.9162 23.2038 46.9162 19.3012C43.0043 19.3012 39.8323 22.4732 39.8323 26.3851L39.8415 26.3759Z" fill="#F56D27"/>
<path d="M39.8415 26.3759C39.8415 22.464 36.6695 19.2919 32.7576 19.2919C32.7576 23.2038 35.9296 26.3666 39.8322 26.3666L39.8415 26.3759Z" fill="#F56D27"/>
<path d="M39.8415 40.5345C39.8415 36.6226 36.6695 33.4505 32.7576 33.4505C32.7576 37.3624 35.9296 40.5252 39.8322 40.5252L39.8415 40.5345Z" fill="#F56D27"/>
<path d="M32.7576 33.4598C36.6695 33.4598 39.8415 30.2877 39.8415 26.3759C35.9296 26.3759 32.7668 29.5479 32.7668 33.4505L32.7576 33.4598Z" fill="#F56D27"/>
<path d="M39.8414 26.3759C39.8414 30.2877 43.0135 33.4598 46.9254 33.4598C46.9254 29.5479 43.7533 26.3851 39.8507 26.3851L39.8414 26.3759Z" fill="#F56D27"/>
<path d="M39.8415 40.5345C43.7534 40.5345 46.9162 37.3624 46.9162 33.4598C43.0043 33.4598 39.8323 36.6318 39.8323 40.5437L39.8415 40.5345Z" fill="#F56D27"/>
<path d="M32.7576 47.6184C36.6695 47.6184 39.8415 44.4464 39.8415 40.5345C35.9296 40.5345 32.7668 43.7065 32.7668 47.6092L32.7576 47.6184Z" fill="#F56D27"/>
<path d="M39.8415 54.6931C39.8415 50.7812 36.6695 47.6092 32.7576 47.6092C32.7576 51.521 35.9296 54.6838 39.8322 54.6838L39.8415 54.6931Z" fill="#F56D27"/>
<path d="M39.8415 54.6931C43.7534 54.6931 46.9162 51.521 46.9162 47.6184C43.0043 47.6184 39.8323 50.7905 39.8323 54.7023L39.8415 54.6931Z" fill="#F56D27"/>
<path d="M39.8414 40.5345C39.8414 44.4464 43.0135 47.6184 46.9254 47.6184C46.9254 43.7065 43.7533 40.5437 39.8507 40.5437L39.8414 40.5345Z" fill="#F56D27"/>
<path d="M39.8415 68.8517C39.8415 64.9398 36.6695 61.7678 32.7576 61.7678C32.7576 65.6796 35.9296 68.8424 39.8322 68.8424L39.8415 68.8517Z" fill="#F56D27"/>
<path d="M39.8415 68.8517C43.7534 68.8517 46.9162 65.6797 46.9162 61.777C43.0043 61.777 39.8323 64.9491 39.8323 68.861L39.8415 68.8517Z" fill="#F56D27"/>
<path d="M32.7576 61.777C36.6695 61.777 39.8415 58.605 39.8415 54.6931C35.9296 54.6931 32.7668 57.8651 32.7668 61.7678L32.7576 61.777Z" fill="#F56D27"/>
<path d="M39.8414 54.6931C39.8414 58.605 43.0135 61.777 46.9254 61.777C46.9254 57.8651 43.7533 54.7023 39.8507 54.7023L39.8414 54.6931Z" fill="#F56D27"/>
<path d="M39.8414 68.8517C39.8414 72.7636 43.0135 75.9357 46.9254 75.9357C46.9254 72.0238 43.7533 68.861 39.8507 68.861L39.8414 68.8517Z" fill="#F56D27"/>
<path d="M32.7576 75.9357C36.6695 75.9357 39.8415 72.7636 39.8415 68.8517C35.9296 68.8517 32.7668 72.0238 32.7668 75.9264L32.7576 75.9357Z" fill="#F56D27"/>
<path d="M39.8415 83.0196C39.8415 79.1077 36.6695 75.9357 32.7576 75.9357C32.7576 79.8476 35.9296 83.0103 39.8322 83.0103L39.8415 83.0196Z" fill="#F56D27"/>
<path d="M39.8415 83.0196C43.7534 83.0196 46.9162 79.8475 46.9162 75.9449C43.0043 75.9449 39.8323 79.1169 39.8323 83.0288L39.8415 83.0196Z" fill="#F56D27"/>
<path d="M39.8415 97.1782C39.8415 93.2663 36.6695 90.0942 32.7576 90.0942C32.7576 94.0061 35.9296 97.1689 39.8322 97.1689L39.8415 97.1782Z" fill="#F56D27"/>
<path d="M32.7576 90.0943C36.6695 90.0943 39.8415 86.9223 39.8415 83.0104C35.9296 83.0104 32.7668 86.1824 32.7668 90.0851L32.7576 90.0943Z" fill="#F56D27"/>
<path d="M39.8414 83.0196C39.8414 86.9315 43.0135 90.1035 46.9254 90.1035C46.9254 86.1916 43.7533 83.0288 39.8507 83.0288L39.8414 83.0196Z" fill="#F56D27"/>
<path d="M39.8415 97.1782C43.7534 97.1782 46.9162 94.0062 46.9162 90.1035C43.0043 90.1035 39.8323 93.2756 39.8323 97.1874L39.8415 97.1782Z" fill="#F56D27"/>
<path d="M18.5989 19.3012C22.5108 19.3012 25.6828 16.1291 25.6828 12.2172C21.7709 12.2172 18.6081 15.3893 18.6081 19.2919L18.5989 19.3012Z" fill="#F56D27"/>
<path d="M25.6828 26.3759C29.5947 26.3759 32.7575 23.2038 32.7575 19.3012C28.8456 19.3012 25.6736 22.4732 25.6736 26.3851L25.6828 26.3759Z" fill="#F56D27"/>
<path d="M25.6829 12.2172C25.6829 16.1291 28.8549 19.3012 32.7668 19.3012C32.7668 15.3893 29.5947 12.2265 25.6921 12.2265L25.6829 12.2172Z" fill="#F56D27"/>
<path d="M25.6828 26.3759C25.6828 22.464 22.5108 19.2919 18.5989 19.2919C18.5989 23.2038 21.7709 26.3666 25.6736 26.3666L25.6828 26.3759Z" fill="#F56D27"/>
<path d="M18.5989 33.4598C22.5108 33.4598 25.6828 30.2877 25.6828 26.3759C21.7709 26.3759 18.6081 29.5479 18.6081 33.4505L18.5989 33.4598Z" fill="#F56D27"/>
<path d="M25.6828 40.5345C29.5947 40.5345 32.7575 37.3624 32.7575 33.4598C28.8456 33.4598 25.6736 36.6318 25.6736 40.5437L25.6828 40.5345Z" fill="#F56D27"/>
<path d="M25.6829 26.3759C25.6829 30.2877 28.8549 33.4598 32.7668 33.4598C32.7668 29.5479 29.5947 26.3851 25.6921 26.3851L25.6829 26.3759Z" fill="#F56D27"/>
<path d="M25.6828 40.5345C25.6828 36.6226 22.5108 33.4505 18.5989 33.4505C18.5989 37.3624 21.7709 40.5252 25.6736 40.5252L25.6828 40.5345Z" fill="#F56D27"/>
<path d="M25.6828 54.6931C25.6828 50.7812 22.5108 47.6092 18.5989 47.6092C18.5989 51.521 21.7709 54.6838 25.6736 54.6838L25.6828 54.6931Z" fill="#F56D27"/>
<path d="M25.6828 54.6931C29.5947 54.6931 32.7575 51.521 32.7575 47.6184C28.8456 47.6184 25.6736 50.7905 25.6736 54.7023L25.6828 54.6931Z" fill="#F56D27"/>
<path d="M25.6829 40.5345C25.6829 44.4464 28.8549 47.6184 32.7668 47.6184C32.7668 43.7065 29.5947 40.5437 25.6921 40.5437L25.6829 40.5345Z" fill="#F56D27"/>
<path d="M18.5989 47.6184C22.5108 47.6184 25.6828 44.4464 25.6828 40.5345C21.7709 40.5345 18.6081 43.7065 18.6081 47.6092L18.5989 47.6184Z" fill="#F56D27"/>
<path d="M18.5989 61.777C22.5108 61.777 25.6828 58.605 25.6828 54.6931C21.7709 54.6931 18.6081 57.8651 18.6081 61.7678L18.5989 61.777Z" fill="#F56D27"/>
<path d="M25.6829 54.6931C25.6829 58.605 28.8549 61.777 32.7668 61.777C32.7668 57.8651 29.5947 54.7023 25.6921 54.7023L25.6829 54.6931Z" fill="#F56D27"/>
<path d="M25.6828 68.8517C25.6828 64.9398 22.5108 61.7678 18.5989 61.7678C18.5989 65.6796 21.7709 68.8424 25.6736 68.8424L25.6828 68.8517Z" fill="#F56D27"/>
<path d="M25.6828 68.8517C29.5947 68.8517 32.7575 65.6797 32.7575 61.777C28.8456 61.777 25.6736 64.9491 25.6736 68.861L25.6828 68.8517Z" fill="#F56D27"/>
<path d="M25.6828 83.0196C25.6828 79.1077 22.5108 75.9357 18.5989 75.9357C18.5989 79.8476 21.7709 83.0103 25.6736 83.0103L25.6828 83.0196Z" fill="#F56D27"/>
<path d="M18.5989 75.9357C22.5108 75.9357 25.6828 72.7636 25.6828 68.8517C21.7709 68.8517 18.6081 72.0238 18.6081 75.9264L18.5989 75.9357Z" fill="#F56D27"/>
<path d="M25.6828 83.0196C29.5947 83.0196 32.7575 79.8475 32.7575 75.9449C28.8456 75.9449 25.6736 79.1169 25.6736 83.0288L25.6828 83.0196Z" fill="#F56D27"/>
<path d="M25.6829 68.8517C25.6829 72.7636 28.8549 75.9357 32.7668 75.9357C32.7668 72.0238 29.5947 68.861 25.6921 68.861L25.6829 68.8517Z" fill="#F56D27"/>
<path d="M25.6828 97.1782C29.5947 97.1782 32.7575 94.0062 32.7575 90.1035C28.8456 90.1035 25.6736 93.2756 25.6736 97.1874L25.6828 97.1782Z" fill="#F56D27"/>
<path d="M25.6828 97.1782C25.6828 93.2663 22.5108 90.0942 18.5989 90.0942C18.5989 94.0061 21.7709 97.1689 25.6736 97.1689L25.6828 97.1782Z" fill="#F56D27"/>
<path d="M25.6829 83.0196C25.6829 86.9315 28.8549 90.1035 32.7668 90.1035C32.7668 86.1916 29.5947 83.0288 25.6921 83.0288L25.6829 83.0196Z" fill="#F56D27"/>
<path d="M18.5989 90.0943C22.5108 90.0943 25.6828 86.9223 25.6828 83.0104C21.7709 83.0104 18.6081 86.1824 18.6081 90.0851L18.5989 90.0943Z" fill="#F56D27"/>
<path d="M11.5242 26.3759C11.5242 22.464 8.35219 19.2919 4.44031 19.2919C4.44031 23.2038 7.61236 26.3666 11.515 26.3666L11.5242 26.3759Z" fill="#F56D27"/>
<path d="M4.44031 19.3012C8.35219 19.3012 11.5242 16.1291 11.5242 12.2172C7.61236 12.2172 4.44955 15.3893 4.44955 19.2919L4.44031 19.3012Z" fill="#F56D27"/>
<path d="M11.5243 26.3759C15.4361 26.3759 18.5989 23.2038 18.5989 19.3012C14.6871 19.3012 11.515 22.4732 11.515 26.3851L11.5243 26.3759Z" fill="#F56D27"/>
<path d="M11.5243 12.2172C11.5243 16.1291 14.6963 19.3012 18.6082 19.3012C18.6082 15.3893 15.4362 12.2265 11.5335 12.2265L11.5243 12.2172Z" fill="#F56D27"/>
<path d="M11.5243 40.5345C15.4361 40.5345 18.5989 37.3624 18.5989 33.4598C14.6871 33.4598 11.515 36.6318 11.515 40.5437L11.5243 40.5345Z" fill="#F56D27"/>
<path d="M11.5243 26.3759C11.5243 30.2877 14.6963 33.4598 18.6082 33.4598C18.6082 29.5479 15.4362 26.3851 11.5335 26.3851L11.5243 26.3759Z" fill="#F56D27"/>
<path d="M11.5242 40.5345C11.5242 36.6226 8.35219 33.4505 4.44031 33.4505C4.44031 37.3624 7.61236 40.5252 11.515 40.5252L11.5242 40.5345Z" fill="#F56D27"/>
<path d="M4.44031 33.4598C8.35219 33.4598 11.5242 30.2877 11.5242 26.3759C7.61236 26.3759 4.44955 29.5479 4.44955 33.4505L4.44031 33.4598Z" fill="#F56D27"/>
<path d="M4.44031 47.6184C8.35219 47.6184 11.5242 44.4464 11.5242 40.5345C7.61236 40.5345 4.44955 43.7065 4.44955 47.6092L4.44031 47.6184Z" fill="#F56D27"/>
<path d="M11.515 54.6931C11.515 50.7812 8.34292 47.6092 4.43103 47.6092C4.43103 51.521 7.60308 54.6838 11.5057 54.6838L11.515 54.6931Z" fill="#F56D27"/>
<path d="M11.5243 54.6931C15.4361 54.6931 18.5989 51.521 18.5989 47.6184C14.6871 47.6184 11.515 50.7905 11.515 54.7023L11.5243 54.6931Z" fill="#F56D27"/>
<path d="M11.5243 40.5345C11.5243 44.4464 14.6963 47.6184 18.6082 47.6184C18.6082 43.7065 15.4362 40.5437 11.5335 40.5437L11.5243 40.5345Z" fill="#F56D27"/>
<path d="M11.5243 68.8517C15.4361 68.8517 18.5989 65.6797 18.5989 61.777C14.6871 61.777 11.515 64.9491 11.515 68.861L11.5243 68.8517Z" fill="#F56D27"/>
<path d="M11.5243 54.6931C11.5243 58.605 14.6963 61.777 18.6082 61.777C18.6082 57.8651 15.4362 54.7023 11.5335 54.7023L11.5243 54.6931Z" fill="#F56D27"/>
<path d="M4.44031 61.777C8.35219 61.777 11.5242 58.605 11.5242 54.6931C7.61236 54.6931 4.44955 57.8651 4.44955 61.7678L4.44031 61.777Z" fill="#F56D27"/>
<path d="M11.5242 68.8517C11.5242 64.9398 8.35219 61.7678 4.44031 61.7678C4.44031 65.6796 7.61236 68.8424 11.515 68.8424L11.5242 68.8517Z" fill="#F56D27"/>
<path d="M11.5242 83.0196C11.5242 79.1077 8.35219 75.9357 4.44031 75.9357C4.44031 79.8476 7.61236 83.0103 11.515 83.0103L11.5242 83.0196Z" fill="#F56D27"/>
<path d="M4.44031 75.9357C8.35219 75.9357 11.5242 72.7636 11.5242 68.8517C7.61236 68.8517 4.44955 72.0238 4.44955 75.9264L4.44031 75.9357Z" fill="#F56D27"/>
<path d="M11.5243 68.8517C11.5243 72.7636 14.6963 75.9357 18.6082 75.9357C18.6082 72.0238 15.4362 68.861 11.5335 68.861L11.5243 68.8517Z" fill="#F56D27"/>
<path d="M11.5243 83.0196C15.4361 83.0196 18.5989 79.8475 18.5989 75.9449C14.6871 75.9449 11.515 79.1169 11.515 83.0288L11.5243 83.0196Z" fill="#F56D27"/>
<path d="M11.5242 97.1782C11.5242 93.2663 8.35219 90.0942 4.44031 90.0942C4.44031 94.0061 7.61236 97.1689 11.515 97.1689L11.5242 97.1782Z" fill="#F56D27"/>
<path d="M4.44031 90.0943C8.35219 90.0943 11.5242 86.9223 11.5242 83.0104C7.61236 83.0104 4.44955 86.1824 4.44955 90.0851L4.44031 90.0943Z" fill="#F56D27"/>
<path d="M11.5243 97.1782C15.4361 97.1782 18.5989 94.0062 18.5989 90.1035C14.6871 90.1035 11.515 93.2756 11.515 97.1874L11.5243 97.1782Z" fill="#F56D27"/>
<path d="M11.5243 83.0196C11.5243 86.9315 14.6963 90.1035 18.6082 90.1035C18.6082 86.1916 15.4362 83.0288 11.5335 83.0288L11.5243 83.0196Z" fill="#F56D27"/>
<path d="M-2.6344 12.2172C-2.6344 16.1291 0.537649 19.3012 4.44953 19.3012C4.44953 15.3893 1.27749 12.2265 -2.62515 12.2265L-2.6344 12.2172Z" fill="#F56D27"/>
<path d="M-2.63443 26.3759C1.27745 26.3759 4.44026 23.2038 4.44026 19.3012C0.528372 19.3012 -2.64368 22.4732 -2.64368 26.3851L-2.63443 26.3759Z" fill="#F56D27"/>
<path d="M-2.63443 40.5345C1.27745 40.5345 4.44026 37.3624 4.44026 33.4598C0.528372 33.4598 -2.64368 36.6318 -2.64368 40.5437L-2.63443 40.5345Z" fill="#F56D27"/>
<path d="M-2.6344 26.3759C-2.6344 30.2877 0.537649 33.4598 4.44953 33.4598C4.44953 29.5479 1.27749 26.3851 -2.62515 26.3851L-2.6344 26.3759Z" fill="#F56D27"/>
<path d="M-2.63443 54.6931C1.27745 54.6931 4.44026 51.521 4.44026 47.6184C0.528372 47.6184 -2.64368 50.7905 -2.64368 54.7023L-2.63443 54.6931Z" fill="#F56D27"/>
<path d="M-2.6344 40.5345C-2.6344 44.4464 0.537649 47.6184 4.44953 47.6184C4.44953 43.7065 1.27749 40.5437 -2.62515 40.5437L-2.6344 40.5345Z" fill="#F56D27"/>
<path d="M-2.63443 68.8517C1.27745 68.8517 4.44026 65.6797 4.44026 61.777C0.528372 61.777 -2.64368 64.9491 -2.64368 68.861L-2.63443 68.8517Z" fill="#F56D27"/>
<path d="M-2.6344 54.6931C-2.6344 58.605 0.537649 61.777 4.44953 61.777C4.44953 57.8651 1.27749 54.7023 -2.62515 54.7023L-2.6344 54.6931Z" fill="#F56D27"/>
<path d="M-2.63443 83.0196C1.27745 83.0196 4.44026 79.8475 4.44026 75.9449C0.528372 75.9449 -2.64368 79.1169 -2.64368 83.0288L-2.63443 83.0196Z" fill="#F56D27"/>
<path d="M-2.6344 68.8517C-2.6344 72.7636 0.537649 75.9357 4.44953 75.9357C4.44953 72.0238 1.27749 68.861 -2.62515 68.861L-2.6344 68.8517Z" fill="#F56D27"/>
<path d="M-2.63443 97.1782C1.27745 97.1782 4.44026 94.0062 4.44026 90.1035C0.528372 90.1035 -2.64368 93.2756 -2.64368 97.1874L-2.63443 97.1782Z" fill="#F56D27"/>
<path d="M-2.6344 83.0196C-2.6344 86.9315 0.537649 90.1035 4.44953 90.1035C4.44953 86.1916 1.27749 83.0288 -2.62515 83.0288L-2.6344 83.0196Z" fill="#F56D27"/>
</g>
<path d="M34.5291 97.6325C39.024 96.391 42.1872 93.6445 41.5943 91.498C41.0015 89.3515 36.8771 88.6178 32.3822 89.8593C27.8873 91.1008 24.7241 93.8473 25.317 95.9938C25.9099 98.1403 30.0343 98.8739 34.5291 97.6325Z" fill="#C71E11"/>
<path d="M32.6835 92.0641C32.6835 92.0641 26.4966 94.0616 27.8653 97.2522C29.0398 99.0185 32.8962 99.7861 35.4486 98.8151C38.001 97.8441 40.1928 95.8835 40.0726 93.2478C39.9524 91.6202 36.919 90.5104 32.6835 92.0641Z" fill="#FFF400"/>
<path d="M249.53 20.2075L250.02 18.7185C250.02 18.7185 247.708 15.0933 241.798 16.1754L240.901 17.766L249.53 20.2075Z" fill="#C71E11"/>
<path d="M240.041 17.0262L210.402 91.4907L226.669 96.013L250.982 20.6329C250.982 20.6329 248.54 16.8227 240.041 17.0262Z" fill="#EF4B23"/>
<mask id="mask2_2380_47115" style="mask-type:luminance" maskUnits="userSpaceOnUse" x="210" y="17" width="41" height="80">
<path d="M240.041 17.0262L210.402 91.4907L226.669 96.013L250.982 20.6329C250.982 20.6329 248.54 16.8227 240.041 17.0262Z" fill="white"/>
</mask>
<g mask="url(#mask2_2380_47115)">
<path d="M219.233 19.3012C215.321 19.3012 212.149 16.1291 212.149 12.2172C216.061 12.2172 219.224 15.3893 219.224 19.2919L219.233 19.3012Z" fill="#F56D27"/>
<path d="M212.149 12.2172C212.149 16.1291 208.977 19.3012 205.065 19.3012C205.065 15.3893 208.238 12.2265 212.14 12.2265L212.149 12.2172Z" fill="#F56D27"/>
<path d="M212.159 26.3759C208.247 26.3759 205.084 23.2038 205.084 19.3012C208.996 19.3012 212.168 22.4732 212.168 26.3851L212.159 26.3759Z" fill="#F56D27"/>
<path d="M212.159 26.3759C212.159 22.464 215.331 19.2919 219.243 19.2919C219.243 23.2038 216.071 26.3666 212.168 26.3666L212.159 26.3759Z" fill="#F56D27"/>
<path d="M212.159 40.5345C212.159 36.6226 215.331 33.4505 219.243 33.4505C219.243 37.3624 216.071 40.5252 212.168 40.5252L212.159 40.5345Z" fill="#F56D27"/>
<path d="M219.233 33.4598C215.321 33.4598 212.149 30.2877 212.149 26.3759C216.061 26.3759 219.224 29.5479 219.224 33.4505L219.233 33.4598Z" fill="#F56D27"/>
<path d="M212.149 26.3759C212.149 30.2877 208.977 33.4598 205.065 33.4598C205.065 29.5479 208.238 26.3851 212.14 26.3851L212.149 26.3759Z" fill="#F56D27"/>
<path d="M212.159 40.5345C208.247 40.5345 205.084 37.3624 205.084 33.4598C208.996 33.4598 212.168 36.6318 212.168 40.5437L212.159 40.5345Z" fill="#F56D27"/>
<path d="M219.233 47.6184C215.321 47.6184 212.149 44.4464 212.149 40.5345C216.061 40.5345 219.224 43.7065 219.224 47.6092L219.233 47.6184Z" fill="#F56D27"/>
<path d="M212.159 54.6931C212.159 50.7812 215.331 47.6092 219.243 47.6092C219.243 51.521 216.071 54.6838 212.168 54.6838L212.159 54.6931Z" fill="#F56D27"/>
<path d="M212.159 54.6931C208.247 54.6931 205.084 51.521 205.084 47.6184C208.996 47.6184 212.168 50.7905 212.168 54.7023L212.159 54.6931Z" fill="#F56D27"/>
<path d="M212.149 40.5345C212.149 44.4464 208.977 47.6184 205.065 47.6184C205.065 43.7065 208.238 40.5437 212.14 40.5437L212.149 40.5345Z" fill="#F56D27"/>
<path d="M212.159 68.8517C212.159 64.9398 215.331 61.7678 219.243 61.7678C219.243 65.6796 216.071 68.8424 212.168 68.8424L212.159 68.8517Z" fill="#F56D27"/>
<path d="M212.159 68.8517C208.247 68.8517 205.084 65.6797 205.084 61.777C208.996 61.777 212.168 64.9491 212.168 68.861L212.159 68.8517Z" fill="#F56D27"/>
<path d="M219.233 61.777C215.321 61.777 212.149 58.605 212.149 54.6931C216.061 54.6931 219.224 57.8651 219.224 61.7678L219.233 61.777Z" fill="#F56D27"/>
<path d="M212.149 54.6931C212.149 58.605 208.977 61.777 205.065 61.777C205.065 57.8651 208.238 54.7023 212.14 54.7023L212.149 54.6931Z" fill="#F56D27"/>
<path d="M212.149 68.8517C212.149 72.7636 208.977 75.9357 205.065 75.9357C205.065 72.0238 208.238 68.861 212.14 68.861L212.149 68.8517Z" fill="#F56D27"/>
<path d="M219.233 75.9357C215.321 75.9357 212.149 72.7636 212.149 68.8517C216.061 68.8517 219.224 72.0238 219.224 75.9264L219.233 75.9357Z" fill="#F56D27"/>
<path d="M212.159 83.0196C212.159 79.1077 215.331 75.9357 219.243 75.9357C219.243 79.8476 216.071 83.0103 212.168 83.0103L212.159 83.0196Z" fill="#F56D27"/>
<path d="M212.159 83.0196C208.247 83.0196 205.084 79.8475 205.084 75.9449C208.996 75.9449 212.168 79.1169 212.168 83.0288L212.159 83.0196Z" fill="#F56D27"/>
<path d="M212.159 97.1782C212.159 93.2663 215.331 90.0942 219.243 90.0942C219.243 94.0061 216.071 97.1689 212.168 97.1689L212.159 97.1782Z" fill="#F56D27"/>
<path d="M219.233 90.0943C215.321 90.0943 212.149 86.9223 212.149 83.0104C216.061 83.0104 219.224 86.1824 219.224 90.0851L219.233 90.0943Z" fill="#F56D27"/>
<path d="M212.149 83.0196C212.149 86.9315 208.977 90.1035 205.065 90.1035C205.065 86.1916 208.238 83.0288 212.14 83.0288L212.149 83.0196Z" fill="#F56D27"/>
<path d="M212.159 97.1782C208.247 97.1782 205.084 94.0062 205.084 90.1035C208.996 90.1035 212.168 93.2756 212.168 97.1874L212.159 97.1782Z" fill="#F56D27"/>
<path d="M233.392 19.3012C229.48 19.3012 226.308 16.1291 226.308 12.2172C230.22 12.2172 233.383 15.3893 233.383 19.2919L233.392 19.3012Z" fill="#F56D27"/>
<path d="M226.317 26.3759C222.405 26.3759 219.243 23.2038 219.243 19.3012C223.155 19.3012 226.327 22.4732 226.327 26.3851L226.317 26.3759Z" fill="#F56D27"/>
<path d="M226.308 12.2172C226.308 16.1291 223.136 19.3012 219.224 19.3012C219.224 15.3893 222.396 12.2265 226.299 12.2265L226.308 12.2172Z" fill="#F56D27"/>
<path d="M226.317 26.3759C226.317 22.464 229.489 19.2919 233.401 19.2919C233.401 23.2038 230.229 26.3666 226.326 26.3666L226.317 26.3759Z" fill="#F56D27"/>
<path d="M233.392 33.4598C229.48 33.4598 226.308 30.2877 226.308 26.3759C230.22 26.3759 233.383 29.5479 233.383 33.4505L233.392 33.4598Z" fill="#F56D27"/>
<path d="M226.317 40.5345C222.405 40.5345 219.243 37.3624 219.243 33.4598C223.155 33.4598 226.327 36.6318 226.327 40.5437L226.317 40.5345Z" fill="#F56D27"/>
<path d="M226.317 26.3759C226.317 30.2877 223.145 33.4598 219.233 33.4598C219.233 29.5479 222.405 26.3851 226.308 26.3851L226.317 26.3759Z" fill="#F56D27"/>
<path d="M226.317 40.5345C226.317 36.6226 229.489 33.4505 233.401 33.4505C233.401 37.3624 230.229 40.5252 226.326 40.5252L226.317 40.5345Z" fill="#F56D27"/>
<path d="M226.317 54.6931C226.317 50.7812 229.489 47.6092 233.401 47.6092C233.401 51.521 230.229 54.6838 226.326 54.6838L226.317 54.6931Z" fill="#F56D27"/>
<path d="M226.317 54.6931C222.405 54.6931 219.243 51.521 219.243 47.6184C223.155 47.6184 226.327 50.7905 226.327 54.7023L226.317 54.6931Z" fill="#F56D27"/>
<path d="M226.308 40.5345C226.308 44.4464 223.136 47.6184 219.224 47.6184C219.224 43.7065 222.396 40.5437 226.299 40.5437L226.308 40.5345Z" fill="#F56D27"/>
<path d="M233.392 47.6184C229.48 47.6184 226.308 44.4464 226.308 40.5345C230.22 40.5345 233.383 43.7065 233.383 47.6092L233.392 47.6184Z" fill="#F56D27"/>
<path d="M233.392 61.777C229.48 61.777 226.308 58.605 226.308 54.6931C230.22 54.6931 233.383 57.8651 233.383 61.7678L233.392 61.777Z" fill="#F56D27"/>
<path d="M226.308 54.6931C226.308 58.605 223.136 61.777 219.224 61.777C219.224 57.8651 222.396 54.7023 226.299 54.7023L226.308 54.6931Z" fill="#F56D27"/>
<path d="M226.317 68.8517C226.317 64.9398 229.489 61.7678 233.401 61.7678C233.401 65.6796 230.229 68.8424 226.326 68.8424L226.317 68.8517Z" fill="#F56D27"/>
<path d="M226.317 68.8517C222.405 68.8517 219.243 65.6797 219.243 61.777C223.155 61.777 226.327 64.9491 226.327 68.861L226.317 68.8517Z" fill="#F56D27"/>
<path d="M226.317 83.0196C226.317 79.1077 229.489 75.9357 233.401 75.9357C233.401 79.8476 230.229 83.0103 226.326 83.0103L226.317 83.0196Z" fill="#F56D27"/>
<path d="M233.392 75.9357C229.48 75.9357 226.308 72.7636 226.308 68.8517C230.22 68.8517 233.383 72.0238 233.383 75.9264L233.392 75.9357Z" fill="#F56D27"/>
<path d="M226.317 83.0196C222.405 83.0196 219.243 79.8475 219.243 75.9449C223.155 75.9449 226.327 79.1169 226.327 83.0288L226.317 83.0196Z" fill="#F56D27"/>
<path d="M226.317 68.8517C226.317 72.7636 223.145 75.9357 219.233 75.9357C219.233 72.0238 222.405 68.861 226.308 68.861L226.317 68.8517Z" fill="#F56D27"/>
<path d="M226.317 97.1782C222.405 97.1782 219.243 94.0062 219.243 90.1035C223.155 90.1035 226.327 93.2756 226.327 97.1874L226.317 97.1782Z" fill="#F56D27"/>
<path d="M226.317 97.1782C226.317 93.2663 229.489 90.0942 233.401 90.0942C233.401 94.0061 230.229 97.1689 226.326 97.1689L226.317 97.1782Z" fill="#F56D27"/>
<path d="M226.317 83.0196C226.317 86.9315 223.145 90.1035 219.233 90.1035C219.233 86.1916 222.405 83.0288 226.308 83.0288L226.317 83.0196Z" fill="#F56D27"/>
<path d="M233.392 90.0943C229.48 90.0943 226.308 86.9223 226.308 83.0104C230.22 83.0104 233.383 86.1824 233.383 90.0851L233.392 90.0943Z" fill="#F56D27"/>
<path d="M240.476 26.3759C240.476 22.464 243.648 19.2919 247.56 19.2919C247.56 23.2038 244.388 26.3666 240.485 26.3666L240.476 26.3759Z" fill="#F56D27"/>
<path d="M247.551 19.3012C243.639 19.3012 240.467 16.1291 240.467 12.2172C244.379 12.2172 247.541 15.3893 247.541 19.2919L247.551 19.3012Z" fill="#F56D27"/>
<path d="M240.476 26.3759C236.564 26.3759 233.401 23.2038 233.401 19.3012C237.313 19.3012 240.485 22.4732 240.485 26.3851L240.476 26.3759Z" fill="#F56D27"/>
<path d="M240.467 12.2172C240.467 16.1291 237.295 19.3012 233.383 19.3012C233.383 15.3893 236.555 12.2265 240.457 12.2265L240.467 12.2172Z" fill="#F56D27"/>
<path d="M240.476 40.5345C236.564 40.5345 233.401 37.3624 233.401 33.4598C237.313 33.4598 240.485 36.6318 240.485 40.5437L240.476 40.5345Z" fill="#F56D27"/>
<path d="M240.476 26.3759C240.476 30.2877 237.304 33.4598 233.392 33.4598C233.392 29.5479 236.564 26.3851 240.467 26.3851L240.476 26.3759Z" fill="#F56D27"/>
<path d="M240.476 40.5345C240.476 36.6226 243.648 33.4505 247.56 33.4505C247.56 37.3624 244.388 40.5252 240.485 40.5252L240.476 40.5345Z" fill="#F56D27"/>
<path d="M247.551 33.4598C243.639 33.4598 240.467 30.2877 240.467 26.3759C244.379 26.3759 247.541 29.5479 247.541 33.4505L247.551 33.4598Z" fill="#F56D27"/>
<path d="M247.551 47.6184C243.639 47.6184 240.467 44.4464 240.467 40.5345C244.379 40.5345 247.541 43.7065 247.541 47.6092L247.551 47.6184Z" fill="#F56D27"/>
<path d="M240.476 54.6931C240.476 50.7812 243.648 47.6092 247.56 47.6092C247.56 51.521 244.388 54.6838 240.485 54.6838L240.476 54.6931Z" fill="#F56D27"/>
<path d="M240.476 54.6931C236.564 54.6931 233.401 51.521 233.401 47.6184C237.313 47.6184 240.485 50.7905 240.485 54.7023L240.476 54.6931Z" fill="#F56D27"/>
<path d="M240.476 40.5345C240.476 44.4464 237.304 47.6184 233.392 47.6184C233.392 43.7065 236.564 40.5437 240.467 40.5437L240.476 40.5345Z" fill="#F56D27"/>
<path d="M240.476 68.8517C236.564 68.8517 233.401 65.6797 233.401 61.777C237.313 61.777 240.485 64.9491 240.485 68.861L240.476 68.8517Z" fill="#F56D27"/>
<path d="M240.467 54.6931C240.467 58.605 237.295 61.777 233.383 61.777C233.383 57.8651 236.555 54.7023 240.457 54.7023L240.467 54.6931Z" fill="#F56D27"/>
<path d="M247.551 61.777C243.639 61.777 240.467 58.605 240.467 54.6931C244.379 54.6931 247.541 57.8651 247.541 61.7678L247.551 61.777Z" fill="#F56D27"/>
<path d="M240.476 68.8517C240.476 64.9398 243.648 61.7678 247.56 61.7678C247.56 65.6796 244.388 68.8424 240.485 68.8424L240.476 68.8517Z" fill="#F56D27"/>
<path d="M240.476 83.0196C240.476 79.1077 243.648 75.9357 247.56 75.9357C247.56 79.8476 244.388 83.0103 240.485 83.0103L240.476 83.0196Z" fill="#F56D27"/>
<path d="M247.551 75.9357C243.639 75.9357 240.467 72.7636 240.467 68.8517C244.379 68.8517 247.541 72.0238 247.541 75.9264L247.551 75.9357Z" fill="#F56D27"/>
<path d="M240.476 68.8517C240.476 72.7636 237.304 75.9357 233.392 75.9357C233.392 72.0238 236.564 68.861 240.467 68.861L240.476 68.8517Z" fill="#F56D27"/>
<path d="M240.476 83.0196C236.564 83.0196 233.401 79.8475 233.401 75.9449C237.313 75.9449 240.485 79.1169 240.485 83.0288L240.476 83.0196Z" fill="#F56D27"/>
<path d="M240.476 97.1782C240.476 93.2663 243.648 90.0942 247.56 90.0942C247.56 94.0061 244.388 97.1689 240.485 97.1689L240.476 97.1782Z" fill="#F56D27"/>
<path d="M247.551 90.0943C243.639 90.0943 240.467 86.9223 240.467 83.0104C244.379 83.0104 247.541 86.1824 247.541 90.0851L247.551 90.0943Z" fill="#F56D27"/>
<path d="M240.476 97.1782C236.564 97.1782 233.401 94.0062 233.401 90.1035C237.313 90.1035 240.485 93.2756 240.485 97.1874L240.476 97.1782Z" fill="#F56D27"/>
<path d="M240.476 83.0196C240.476 86.9315 237.304 90.1035 233.392 90.1035C233.392 86.1916 236.564 83.0288 240.467 83.0288L240.476 83.0196Z" fill="#F56D27"/>
<path d="M254.635 12.2172C254.635 16.1291 251.462 19.3012 247.551 19.3012C247.551 15.3893 250.723 12.2265 254.625 12.2265L254.635 12.2172Z" fill="#F56D27"/>
<path d="M254.634 26.3759C250.723 26.3759 247.56 23.2038 247.56 19.3012C251.472 19.3012 254.644 22.4732 254.644 26.3851L254.634 26.3759Z" fill="#F56D27"/>
<path d="M254.634 40.5345C250.723 40.5345 247.56 37.3624 247.56 33.4598C251.472 33.4598 254.644 36.6318 254.644 40.5437L254.634 40.5345Z" fill="#F56D27"/>
<path d="M254.635 26.3759C254.635 30.2877 251.462 33.4598 247.551 33.4598C247.551 29.5479 250.723 26.3851 254.625 26.3851L254.635 26.3759Z" fill="#F56D27"/>
<path d="M254.634 54.6931C250.723 54.6931 247.56 51.521 247.56 47.6184C251.472 47.6184 254.644 50.7905 254.644 54.7023L254.634 54.6931Z" fill="#F56D27"/>
<path d="M254.635 40.5345C254.635 44.4464 251.462 47.6184 247.551 47.6184C247.551 43.7065 250.723 40.5437 254.625 40.5437L254.635 40.5345Z" fill="#F56D27"/>
<path d="M254.634 68.8517C250.723 68.8517 247.56 65.6797 247.56 61.777C251.472 61.777 254.644 64.9491 254.644 68.861L254.634 68.8517Z" fill="#F56D27"/>
<path d="M254.635 54.6931C254.635 58.605 251.462 61.777 247.551 61.777C247.551 57.8651 250.723 54.7023 254.625 54.7023L254.635 54.6931Z" fill="#F56D27"/>
<path d="M254.634 83.0196C250.723 83.0196 247.56 79.8475 247.56 75.9449C251.472 75.9449 254.644 79.1169 254.644 83.0288L254.634 83.0196Z" fill="#F56D27"/>
<path d="M254.635 68.8517C254.635 72.7636 251.462 75.9357 247.551 75.9357C247.551 72.0238 250.723 68.861 254.625 68.861L254.635 68.8517Z" fill="#F56D27"/>
<path d="M254.634 97.1782C250.723 97.1782 247.56 94.0062 247.56 90.1035C251.472 90.1035 254.644 93.2756 254.644 97.1874L254.634 97.1782Z" fill="#F56D27"/>
<path d="M254.635 83.0196C254.635 86.9315 251.462 90.1035 247.551 90.1035C247.551 86.1916 250.723 83.0288 254.625 83.0288L254.635 83.0196Z" fill="#F56D27"/>
</g>
<path d="M226.679 95.9928C227.272 93.8462 224.109 91.0998 219.614 89.8583C215.119 88.6168 210.995 89.3505 210.402 91.497C209.809 93.6435 212.972 96.39 217.467 97.6315C221.962 98.8729 226.086 98.1393 226.679 95.9928Z" fill="#C71E11"/>
<path d="M219.307 92.0641C219.307 92.0641 225.494 94.0616 224.125 97.2522C222.951 99.0185 219.095 99.7861 216.542 98.8151C213.99 97.8441 211.798 95.8835 211.918 93.2478C212.038 91.6202 215.072 90.5104 219.307 92.0641Z" fill="#FFF400"/>
<path d="M130.074 -0.359985C71.5527 -0.359985 25.9788 17.3868 14.1136 22.464L40.868 89.7151C73.8277 78.4326 103.773 74.6502 129.158 74.6502C172.365 74.6502 202.337 85.6275 211.252 89.3359L237.859 22.464L237.988 22.1495C200.367 5.30902 163.172 -0.359985 130.074 -0.359985Z" stroke="black" stroke-linecap="round" stroke-linejoin="round"/>
<path d="M129.907 8.46259C163.533 8.46259 195.494 15.0656 225.05 28.0867L205.519 79.043C192.655 74.1046 165.651 65.8369 129.038 65.8369C101.627 65.8369 73.9664 70.4979 46.7034 79.6903L27.0145 28.5769C42.6158 22.1866 81.7254 8.46259 129.907 8.46259Z" stroke="black" stroke-linecap="round" stroke-linejoin="round"/>
<path d="M10.6826 17.0262C6.1419 17.1372 3.55247 18.4504 2.21152 19.4584L1.97107 18.7185C1.97107 18.7185 4.29231 15.1026 10.2018 16.1846C10.4052 16.536 10.5717 16.8135 10.6826 17.0262Z" stroke="black" stroke-linecap="round" stroke-linejoin="round"/>
<path d="M41.4228 91.1023C41.1824 90.6492 40.7662 90.27 40.2021 89.9648C39.4992 89.5949 38.5467 89.3729 37.4554 89.299C35.9665 89.188 34.2002 89.3637 32.3876 89.8631C27.93 91.0838 24.7765 93.812 25.3036 95.939L1 20.6421C1 20.6421 1.34218 20.115 2.21148 19.4584C3.54319 18.4504 6.14186 17.1372 10.6826 17.0262C11.0895 17.0169 11.5149 17.0169 11.9588 17.0262L14.1229 22.4732L40.8772 89.7244L41.4228 91.1023Z" stroke="black" stroke-linecap="round" stroke-linejoin="round"/>
<path d="M39.7674 95.0696C39.9986 94.5055 40.0911 93.8952 40.0726 93.257C40.0449 92.8316 39.8044 92.434 39.3883 92.1103C38.2693 91.2318 35.8001 90.9266 32.6835 92.0733C32.6835 92.0733 28.9751 93.2663 27.9486 95.2916H27.9393C27.6341 95.8835 27.5601 96.5401 27.8746 97.2707C28.0873 97.5851 28.3925 97.8718 28.7531 98.1307C26.9405 97.881 25.6366 97.1504 25.3221 96.0222C25.3221 96.0222 25.3191 96.0129 25.3129 95.9944C25.3129 95.9944 25.3036 95.9574 25.3036 95.9482C24.7765 93.8212 27.9208 91.093 32.3876 89.8723C34.2002 89.3637 35.9665 89.188 37.4554 89.3082C38.556 89.3822 39.4992 89.6134 40.2021 89.974C40.7662 90.2792 41.1824 90.6584 41.4228 91.1115L41.5893 91.5184C41.9037 92.6374 41.1731 93.9229 39.7767 95.0881L39.7674 95.0696Z" stroke="black" stroke-linecap="round" stroke-linejoin="round"/>
<path d="M40.0727 93.2571C40.1004 93.9044 39.9987 94.5056 39.7675 95.0697H39.7583C39.0924 96.7991 37.3723 98.0938 35.458 98.8244C33.3679 99.6197 30.4178 99.2498 28.7624 98.1215H28.7532C28.3833 97.8718 28.0873 97.5759 27.8746 97.2614C27.5602 96.5309 27.6342 95.8743 27.9394 95.2824H27.9486C28.9844 93.2663 32.6836 92.0641 32.6836 92.0641C35.8001 90.9174 38.2693 91.2225 39.3883 92.1011C39.8045 92.4248 40.0449 92.8224 40.0727 93.2478V93.2571Z" stroke="black" stroke-linecap="round" stroke-linejoin="round"/>
<path d="M250.02 18.7185L249.779 19.4584C248.448 18.4504 245.849 17.1372 241.308 17.0262C241.419 16.8135 241.586 16.536 241.789 16.1846C247.698 15.1026 250.02 18.7185 250.02 18.7185Z" stroke="black" stroke-linecap="round" stroke-linejoin="round"/>
<path d="M226.687 95.939C227.214 93.812 224.07 91.0838 219.603 89.8631C217.791 89.3544 216.024 89.1787 214.535 89.299C213.657 89.3637 212.88 89.5117 212.242 89.7799H212.233C212.066 89.8261 211.927 89.8908 211.789 89.9648C211.225 90.27 210.808 90.6492 210.568 91.1023L211.114 89.7244L211.262 89.3452L237.868 22.4732L237.997 22.1588L240.041 17.0262C240.485 17.0169 240.91 17.0169 241.317 17.0262C245.858 17.1372 248.448 18.4504 249.789 19.4584C250.658 20.115 251 20.6421 251 20.6421L226.696 95.939H226.687Z" stroke="black" stroke-linecap="round" stroke-linejoin="round"/>
<path d="M226.687 95.939C226.687 95.939 226.678 95.976 226.678 95.9852C226.678 95.9944 226.678 95.9944 226.669 96.0129C226.354 97.1319 225.059 97.8625 223.238 98.1215C223.608 97.8718 223.903 97.5758 224.116 97.2614C224.431 96.5308 224.357 95.8742 224.051 95.2823H224.042C223.006 93.2663 219.307 92.0641 219.307 92.0641C216.191 90.9173 213.721 91.2225 212.602 92.101C212.186 92.4247 211.946 92.8224 211.918 93.2478C211.89 93.8952 211.992 94.4963 212.223 95.0604C210.827 93.9044 210.096 92.6189 210.411 91.4907L210.577 91.0838C210.818 90.6306 211.234 90.2515 211.798 89.9463C211.937 89.8723 212.075 89.8076 212.242 89.7613H212.251C212.898 89.4931 213.666 89.3452 214.545 89.2804C216.033 89.1695 217.8 89.3452 219.612 89.8445C224.07 91.0653 227.223 93.7934 226.696 95.9205L226.687 95.939Z" stroke="black" stroke-linecap="round" stroke-linejoin="round"/>
<path d="M224.116 97.2614C223.903 97.5758 223.598 97.8625 223.238 98.1215H223.228C221.573 99.259 218.632 99.6196 216.533 98.8243C214.619 98.0937 212.898 96.799 212.233 95.0697H212.223C211.992 94.5055 211.9 93.8952 211.918 93.257C211.946 92.8316 212.186 92.434 212.602 92.1103C213.721 91.2318 216.191 90.9266 219.307 92.0733C219.307 92.0733 223.016 93.2663 224.042 95.2916H224.051C224.357 95.8835 224.431 96.5401 224.116 97.2707V97.2614Z" stroke="black" stroke-linecap="round" stroke-linejoin="round"/>
</svg>
