<svg width="244" height="101" viewBox="0 0 244 101" fill="none" xmlns="http://www.w3.org/2000/svg">
<path d="M125.976 0.71582C59.3009 0.71582 9.84741 24.8992 9.84741 24.8992L36.1402 91.7989C69.392 79.7489 99.602 75.7445 125.091 75.7445C175.854 75.7445 207.896 91.651 207.896 91.651L234.135 24.5478C196.46 6.69 159.092 0.715822 125.967 0.72507L125.976 0.71582Z" fill="#D61313"/>
<g style="mix-blend-mode:multiply">
<mask id="mask0_2380_27190" style="mask-type:luminance" maskUnits="userSpaceOnUse" x="9" y="0" width="226" height="92">
<path d="M125.976 0.71582C59.3009 0.71582 9.84741 24.8992 9.84741 24.8992L36.1402 91.7989C69.392 79.7489 99.602 75.7445 125.091 75.7445C175.854 75.7445 207.896 91.651 207.896 91.651L234.135 24.5478C196.46 6.69 159.092 0.715822 125.967 0.72507L125.976 0.71582Z" fill="white"/>
</mask>
<g mask="url(#mask0_2380_27190)">
<path d="M9.84741 85.686C14.8298 85.686 18.8734 89.8291 18.8734 94.934C13.8911 94.934 9.84741 90.7909 9.84741 85.686Z" fill="#F56D27"/>
<path d="M27.8994 85.686C27.8994 90.7909 23.8558 94.934 18.8734 94.934C18.8734 89.8291 22.9171 85.686 27.8994 85.686Z" fill="#F56D27"/>
<path d="M27.8994 85.6861C22.9171 85.6861 18.8734 81.543 18.8734 76.4381C23.8558 76.4381 27.8994 80.5812 27.8994 85.6861Z" fill="#F56D27"/>
<path d="M18.8734 76.4381C18.8734 81.543 14.8298 85.6861 9.84741 85.6861C9.84741 80.5812 13.8911 76.4381 18.8734 76.4381Z" fill="#F56D27"/>
<path d="M45.9514 85.686C45.9514 90.7909 41.9078 94.934 36.9254 94.934C36.9254 89.8291 40.9691 85.686 45.9514 85.686Z" fill="#F56D27"/>
<path d="M45.9514 85.6861C40.9691 85.6861 36.9254 81.543 36.9254 76.4381C41.9078 76.4381 45.9514 80.5812 45.9514 85.6861Z" fill="#F56D27"/>
<path d="M36.9254 76.4381C36.9254 81.543 32.8818 85.6861 27.8994 85.6861C27.8994 80.5812 31.9431 76.4381 36.9254 76.4381Z" fill="#F56D27"/>
<path d="M27.8994 85.686C32.8818 85.686 36.9254 89.8291 36.9254 94.934C31.9431 94.934 27.8994 90.7909 27.8994 85.686Z" fill="#F56D27"/>
<path d="M64.0034 85.686C64.0034 90.7909 59.9598 94.934 54.9774 94.934C54.9774 89.8291 59.0211 85.686 64.0034 85.686Z" fill="#F56D27"/>
<path d="M54.9774 76.4381C54.9774 81.543 50.9338 85.6861 45.9514 85.6861C45.9514 80.5812 49.9951 76.4381 54.9774 76.4381Z" fill="#F56D27"/>
<path d="M45.9514 85.686C50.9338 85.686 54.9774 89.8291 54.9774 94.934C49.9951 94.934 45.9514 90.7909 45.9514 85.686Z" fill="#F56D27"/>
<path d="M64.0034 85.6861C59.0211 85.6861 54.9774 81.543 54.9774 76.4381C59.9598 76.4381 64.0034 80.5812 64.0034 85.6861Z" fill="#F56D27"/>
<path d="M64.0034 85.686C68.9858 85.686 73.0294 89.8291 73.0294 94.934C68.0471 94.934 64.0034 90.7909 64.0034 85.686Z" fill="#F56D27"/>
<path d="M73.0294 76.4381C73.0294 81.543 68.9858 85.6861 64.0034 85.6861C64.0034 80.5812 68.0471 76.4381 73.0294 76.4381Z" fill="#F56D27"/>
<path d="M82.0554 85.686C82.0554 90.7909 78.0118 94.9247 73.0294 94.934C73.0294 89.8291 77.0731 85.686 82.0554 85.686Z" fill="#F56D27"/>
<path d="M82.0554 85.6861C77.0731 85.6861 73.0294 81.543 73.0294 76.4381C78.0118 76.4381 82.0554 80.5812 82.0554 85.6861Z" fill="#F56D27"/>
<path d="M91.0814 76.4381C91.0814 81.543 87.0378 85.6861 82.0554 85.6861C82.0554 80.5812 86.0991 76.4381 91.0814 76.4381Z" fill="#F56D27"/>
<path d="M82.0554 85.686C87.0378 85.686 91.0814 89.8291 91.0814 94.934C86.0991 94.934 82.0644 90.7909 82.0554 85.686Z" fill="#F56D27"/>
<path d="M100.107 85.686C100.107 90.7909 96.0638 94.934 91.0814 94.934C91.0814 89.8291 95.1251 85.686 100.107 85.686Z" fill="#F56D27"/>
<path d="M100.107 85.6861C95.1251 85.6861 91.0814 81.543 91.0814 76.4381C96.0638 76.4381 100.107 80.5812 100.107 85.6861Z" fill="#F56D27"/>
<path d="M118.159 85.6861C113.177 85.6861 109.133 81.543 109.133 76.4381C114.116 76.4381 118.159 80.5812 118.159 85.6861Z" fill="#F56D27"/>
<path d="M109.133 76.4381C109.133 81.543 105.09 85.6861 100.107 85.6861C100.107 80.5812 104.151 76.4381 109.133 76.4381Z" fill="#F56D27"/>
<path d="M100.107 85.686C105.09 85.686 109.133 89.8291 109.133 94.934C104.151 94.934 100.107 90.7909 100.107 85.686Z" fill="#F56D27"/>
<path d="M118.159 85.686C118.159 90.7909 114.116 94.934 109.133 94.934C109.133 89.8291 113.177 85.686 118.159 85.686Z" fill="#F56D27"/>
<path d="M127.185 76.4381C127.185 81.543 123.142 85.6861 118.159 85.6861C118.159 80.5812 122.203 76.4381 127.185 76.4381Z" fill="#F56D27"/>
<path d="M136.211 85.6861C131.229 85.6861 127.185 81.543 127.185 76.4381C132.168 76.4381 136.211 80.5812 136.211 85.6861Z" fill="#F56D27"/>
<path d="M136.211 85.686C136.211 90.7909 132.168 94.9247 127.185 94.934C127.185 89.8291 131.229 85.686 136.211 85.686Z" fill="#F56D27"/>
<path d="M118.159 85.686C123.142 85.686 127.185 89.8291 127.185 94.934C122.203 94.934 118.159 90.7909 118.159 85.686Z" fill="#F56D27"/>
<path d="M154.263 85.6861C149.281 85.6861 145.237 81.543 145.237 76.4381C150.22 76.4381 154.263 80.5812 154.263 85.6861Z" fill="#F56D27"/>
<path d="M154.263 85.686C154.263 90.7909 150.22 94.934 145.237 94.934C145.237 89.8291 149.281 85.686 154.263 85.686Z" fill="#F56D27"/>
<path d="M145.237 76.4381C145.237 81.543 141.194 85.6861 136.211 85.6861C136.211 80.5812 140.255 76.4381 145.237 76.4381Z" fill="#F56D27"/>
<path d="M136.211 85.686C141.194 85.686 145.237 89.8291 145.237 94.934C140.255 94.934 136.22 90.7909 136.211 85.686Z" fill="#F56D27"/>
<path d="M154.263 85.686C159.246 85.686 163.289 89.8291 163.289 94.934C158.307 94.934 154.263 90.7909 154.263 85.686Z" fill="#F56D27"/>
<path d="M163.289 76.4381C163.289 81.543 159.246 85.6861 154.263 85.6861C154.263 80.5812 158.307 76.4381 163.289 76.4381Z" fill="#F56D27"/>
<path d="M172.315 85.6861C167.333 85.6861 163.289 81.543 163.289 76.4381C168.272 76.4381 172.315 80.5812 172.315 85.6861Z" fill="#F56D27"/>
<path d="M172.315 85.686C172.315 90.7909 168.272 94.934 163.289 94.934C163.289 89.8291 167.333 85.686 172.315 85.686Z" fill="#F56D27"/>
<path d="M190.367 85.6861C185.385 85.6861 181.341 81.543 181.341 76.4381C186.324 76.4381 190.367 80.5812 190.367 85.6861Z" fill="#F56D27"/>
<path d="M181.341 76.4381C181.341 81.543 177.298 85.6861 172.315 85.6861C172.315 80.5812 176.359 76.4381 181.341 76.4381Z" fill="#F56D27"/>
<path d="M172.315 85.686C177.298 85.686 181.341 89.8291 181.341 94.934C176.359 94.934 172.315 90.7909 172.315 85.686Z" fill="#F56D27"/>
<path d="M190.367 85.686C190.367 90.7909 186.324 94.934 181.341 94.934C181.341 89.8291 185.385 85.686 190.367 85.686Z" fill="#F56D27"/>
<path d="M199.393 76.4381C199.393 81.543 195.35 85.6861 190.367 85.6861C190.367 80.5812 194.411 76.4381 199.393 76.4381Z" fill="#F56D27"/>
<path d="M208.419 85.686C208.419 90.7909 204.376 94.934 199.393 94.934C199.393 89.8291 203.437 85.686 208.419 85.686Z" fill="#F56D27"/>
<path d="M208.419 85.6861C203.437 85.6861 199.393 81.543 199.393 76.4381C204.376 76.4381 208.419 80.5812 208.419 85.6861Z" fill="#F56D27"/>
<path d="M190.367 85.686C195.35 85.686 199.393 89.8291 199.393 94.934C194.411 94.934 190.367 90.7909 190.367 85.686Z" fill="#F56D27"/>
<path d="M226.472 85.686C226.472 90.7909 222.428 94.934 217.445 94.934C217.445 89.8291 221.489 85.686 226.472 85.686Z" fill="#F56D27"/>
<path d="M208.419 85.686C213.402 85.686 217.445 89.8291 217.445 94.934C212.463 94.934 208.419 90.7909 208.419 85.686Z" fill="#F56D27"/>
<path d="M217.436 76.4381C217.436 81.543 213.393 85.6861 208.41 85.6861C208.41 80.5812 212.454 76.4381 217.436 76.4381Z" fill="#F56D27"/>
<path d="M226.472 85.6861C221.489 85.6861 217.445 81.543 217.445 76.4381C222.428 76.4381 226.472 80.5812 226.472 85.6861Z" fill="#F56D27"/>
<path d="M226.471 85.686C231.454 85.686 235.498 89.8291 235.498 94.934C230.515 94.934 226.471 90.7909 226.471 85.686Z" fill="#F56D27"/>
<path d="M235.488 76.4381C235.488 81.543 231.445 85.6861 226.462 85.6861C226.462 80.5812 230.506 76.4381 235.488 76.4381Z" fill="#F56D27"/>
<path d="M27.8994 67.1901C22.9171 67.1901 18.8734 63.047 18.8734 57.9421C23.8558 57.9421 27.8994 62.0852 27.8994 67.1901Z" fill="#F56D27"/>
<path d="M18.8734 57.9421C18.8734 63.047 14.8298 67.1901 9.84741 67.1901C9.84741 62.0852 13.8911 57.9421 18.8734 57.9421Z" fill="#F56D27"/>
<path d="M27.8994 67.1902C27.8994 72.2951 23.8558 76.4381 18.8734 76.4381C18.8734 71.3333 22.9171 67.1902 27.8994 67.1902Z" fill="#F56D27"/>
<path d="M9.84741 67.1902C14.8298 67.1902 18.8734 71.3333 18.8734 76.4381C13.8911 76.4381 9.84741 72.2951 9.84741 67.1902Z" fill="#F56D27"/>
<path d="M27.8994 67.1902C32.8818 67.1902 36.9254 71.3333 36.9254 76.4381C31.9431 76.4381 27.8994 72.2951 27.8994 67.1902Z" fill="#F56D27"/>
<path d="M36.9254 57.9421C36.9254 63.047 32.8818 67.1901 27.8994 67.1901C27.8994 62.0852 31.9431 57.9421 36.9254 57.9421Z" fill="#F56D27"/>
<path d="M45.9514 67.1902C45.9514 72.2951 41.9078 76.4381 36.9254 76.4381C36.9254 71.3333 40.9691 67.1902 45.9514 67.1902Z" fill="#F56D27"/>
<path d="M45.9514 67.1901C40.9691 67.1901 36.9254 63.047 36.9254 57.9421C41.9078 57.9421 45.9514 62.0852 45.9514 67.1901Z" fill="#F56D27"/>
<path d="M45.9514 67.1902C50.9338 67.1902 54.9774 71.3333 54.9774 76.4381C49.9951 76.4381 45.9514 72.2951 45.9514 67.1902Z" fill="#F56D27"/>
<path d="M64.0034 67.1902C64.0034 72.2951 59.9598 76.4381 54.9774 76.4381C54.9774 71.3333 59.0211 67.1902 64.0034 67.1902Z" fill="#F56D27"/>
<path d="M64.0034 67.1901C59.0211 67.1901 54.9774 63.047 54.9774 57.9421C59.9598 57.9421 64.0034 62.0852 64.0034 67.1901Z" fill="#F56D27"/>
<path d="M54.9774 57.9421C54.9774 63.047 50.9338 67.1901 45.9514 67.1901C45.9514 62.0852 49.9951 57.9421 54.9774 57.9421Z" fill="#F56D27"/>
<path d="M73.0294 57.9421C73.0294 63.047 68.9858 67.1901 64.0034 67.1901C64.0034 62.0852 68.0471 57.9421 73.0294 57.9421Z" fill="#F56D27"/>
<path d="M82.0554 67.1902C82.0554 72.2951 78.0118 76.4381 73.0294 76.4381C73.0294 71.3333 77.0731 67.1902 82.0554 67.1902Z" fill="#F56D27"/>
<path d="M64.0034 67.1902C68.9858 67.1902 73.0294 71.3333 73.0294 76.4381C68.0471 76.4381 64.0034 72.2951 64.0034 67.1902Z" fill="#F56D27"/>
<path d="M82.0554 67.1901C77.0731 67.1901 73.0294 63.047 73.0294 57.9421C78.0118 57.9421 82.0554 62.0852 82.0554 67.1901Z" fill="#F56D27"/>
<path d="M91.0814 57.9421C91.0814 63.047 87.0378 67.1901 82.0554 67.1901C82.0554 62.0852 86.0991 57.9421 91.0814 57.9421Z" fill="#F56D27"/>
<path d="M100.107 67.1902C100.107 72.2951 96.0638 76.4381 91.0814 76.4381C91.0814 71.3333 95.1251 67.1902 100.107 67.1902Z" fill="#F56D27"/>
<path d="M82.0554 67.1902C87.0378 67.1902 91.0814 71.3333 91.0814 76.4381C86.0991 76.4381 82.0554 72.2951 82.0554 67.1902Z" fill="#F56D27"/>
<path d="M100.107 67.1901C95.1251 67.1901 91.0814 63.047 91.0814 57.9421C96.0638 57.9421 100.107 62.0852 100.107 67.1901Z" fill="#F56D27"/>
<path d="M109.133 57.9421C109.133 63.047 105.09 67.1901 100.107 67.1901C100.107 62.0852 104.151 57.9421 109.133 57.9421Z" fill="#F56D27"/>
<path d="M118.159 67.1902C118.159 72.2951 114.116 76.4381 109.133 76.4381C109.133 71.3333 113.177 67.1902 118.159 67.1902Z" fill="#F56D27"/>
<path d="M100.107 67.1902C105.09 67.1902 109.133 71.3333 109.133 76.4381C104.151 76.4381 100.107 72.2951 100.107 67.1902Z" fill="#F56D27"/>
<path d="M118.159 67.1901C113.177 67.1901 109.133 63.047 109.133 57.9421C114.116 57.9421 118.159 62.0852 118.159 67.1901Z" fill="#F56D27"/>
<path d="M136.211 67.1901C131.229 67.1901 127.185 63.047 127.185 57.9421C132.168 57.9421 136.211 62.0852 136.211 67.1901Z" fill="#F56D27"/>
<path d="M136.211 67.1902C136.211 72.2951 132.168 76.4381 127.185 76.4381C127.185 71.3333 131.229 67.1902 136.211 67.1902Z" fill="#F56D27"/>
<path d="M118.159 67.1902C123.142 67.1902 127.185 71.3333 127.185 76.4381C122.203 76.4381 118.159 72.2951 118.159 67.1902Z" fill="#F56D27"/>
<path d="M127.185 57.9421C127.185 63.047 123.142 67.1901 118.159 67.1901C118.159 62.0852 122.203 57.9421 127.185 57.9421Z" fill="#F56D27"/>
<path d="M145.237 57.9421C145.237 63.047 141.194 67.1901 136.211 67.1901C136.211 62.0852 140.255 57.9421 145.237 57.9421Z" fill="#F56D27"/>
<path d="M136.211 67.1902C141.194 67.1902 145.237 71.3333 145.237 76.4381C140.255 76.4381 136.211 72.2951 136.211 67.1902Z" fill="#F56D27"/>
<path d="M154.263 67.1901C149.281 67.1901 145.237 63.047 145.237 57.9421C150.22 57.9421 154.263 62.0852 154.263 67.1901Z" fill="#F56D27"/>
<path d="M154.263 67.1902C154.263 72.2951 150.22 76.4381 145.237 76.4381C145.237 71.3333 149.281 67.1902 154.263 67.1902Z" fill="#F56D27"/>
<path d="M172.315 67.1901C167.333 67.1901 163.289 63.047 163.289 57.9421C168.272 57.9421 172.315 62.0852 172.315 67.1901Z" fill="#F56D27"/>
<path d="M163.289 57.9421C163.289 63.047 159.246 67.1901 154.263 67.1901C154.263 62.0852 158.307 57.9421 163.289 57.9421Z" fill="#F56D27"/>
<path d="M172.315 67.1902C172.315 72.2951 168.272 76.4381 163.289 76.4381C163.289 71.3333 167.333 67.1902 172.315 67.1902Z" fill="#F56D27"/>
<path d="M154.263 67.1902C159.246 67.1902 163.289 71.3333 163.289 76.4381C158.307 76.4381 154.263 72.2951 154.263 67.1902Z" fill="#F56D27"/>
<path d="M190.367 67.1902C190.367 72.2951 186.324 76.4381 181.341 76.4381C181.341 71.3333 185.385 67.1902 190.367 67.1902Z" fill="#F56D27"/>
<path d="M190.367 67.1901C185.385 67.1901 181.341 63.047 181.341 57.9421C186.324 57.9421 190.367 62.0852 190.367 67.1901Z" fill="#F56D27"/>
<path d="M172.315 67.1902C177.298 67.1902 181.341 71.3333 181.341 76.4381C176.359 76.4381 172.315 72.2951 172.315 67.1902Z" fill="#F56D27"/>
<path d="M181.341 57.9421C181.341 63.047 177.298 67.1901 172.315 67.1901C172.315 62.0852 176.359 57.9421 181.341 57.9421Z" fill="#F56D27"/>
<path d="M199.384 57.9421C199.384 63.047 195.341 67.1901 190.358 67.1901C190.358 62.0852 194.402 57.9421 199.384 57.9421Z" fill="#F56D27"/>
<path d="M190.367 67.1902C195.35 67.1902 199.393 71.3333 199.393 76.4381C194.411 76.4381 190.367 72.2951 190.367 67.1902Z" fill="#F56D27"/>
<path d="M208.419 67.1901C203.437 67.1901 199.393 63.047 199.393 57.9421C204.376 57.9421 208.419 62.0852 208.419 67.1901Z" fill="#F56D27"/>
<path d="M208.419 67.1902C208.419 72.2951 204.376 76.4381 199.393 76.4381C199.393 71.3333 203.437 67.1902 208.419 67.1902Z" fill="#F56D27"/>
<path d="M217.436 57.9421C217.436 63.047 213.393 67.1901 208.41 67.1901C208.41 62.0852 212.454 57.9421 217.436 57.9421Z" fill="#F56D27"/>
<path d="M226.472 67.1901C221.489 67.1901 217.445 63.047 217.445 57.9421C222.428 57.9421 226.472 62.0852 226.472 67.1901Z" fill="#F56D27"/>
<path d="M226.472 67.1902C226.472 72.2951 222.428 76.4381 217.445 76.4381C217.445 71.3333 221.489 67.1902 226.472 67.1902Z" fill="#F56D27"/>
<path d="M208.419 67.1902C213.402 67.1902 217.445 71.3333 217.445 76.4381C212.463 76.4381 208.419 72.2951 208.419 67.1902Z" fill="#F56D27"/>
<path d="M226.471 67.1902C231.454 67.1902 235.498 71.3333 235.498 76.4381C230.515 76.4381 226.471 72.2951 226.471 67.1902Z" fill="#F56D27"/>
<path d="M235.488 57.9421C235.488 63.047 231.445 67.1901 226.462 67.1901C226.462 62.0852 230.506 57.9421 235.488 57.9421Z" fill="#F56D27"/>
<path d="M27.8994 48.6942C22.9171 48.6942 18.8734 44.5512 18.8734 39.4463C23.8558 39.4463 27.8994 43.5894 27.8994 48.6942Z" fill="#F56D27"/>
<path d="M18.8734 57.9422C13.8911 57.9422 9.84741 53.7991 9.84741 48.6942C14.8298 48.6942 18.8734 52.8373 18.8734 57.9422Z" fill="#F56D27"/>
<path d="M18.8734 39.4463C18.8734 44.5512 14.8298 48.6942 9.84741 48.6942C9.84741 43.5894 13.8911 39.4463 18.8734 39.4463Z" fill="#F56D27"/>
<path d="M27.8994 48.6942C27.8994 53.7991 23.8558 57.9422 18.8734 57.9422C18.8734 52.8373 22.9171 48.6942 27.8994 48.6942Z" fill="#F56D27"/>
<path d="M27.8994 48.6942C32.8818 48.6942 36.9254 52.8373 36.9254 57.9422C31.9431 57.9422 27.8994 53.7991 27.8994 48.6942Z" fill="#F56D27"/>
<path d="M45.9514 48.6942C45.9514 53.7991 41.9078 57.9422 36.9254 57.9422C36.9254 52.8373 40.9691 48.6942 45.9514 48.6942Z" fill="#F56D27"/>
<path d="M45.9514 48.6942C40.9691 48.6942 36.9254 44.5512 36.9254 39.4463C41.9078 39.4463 45.9514 43.5894 45.9514 48.6942Z" fill="#F56D27"/>
<path d="M36.9254 39.4463C36.9254 44.5512 32.8818 48.6942 27.8994 48.6942C27.8994 43.5894 31.9431 39.4463 36.9254 39.4463Z" fill="#F56D27"/>
<path d="M64.0034 48.6942C64.0034 53.7991 59.9598 57.9422 54.9774 57.9422C54.9774 52.8373 59.0211 48.6942 64.0034 48.6942Z" fill="#F56D27"/>
<path d="M54.9774 39.4463C54.9774 44.5512 50.9338 48.6942 45.9514 48.6942C45.9514 43.5894 49.9951 39.4463 54.9774 39.4463Z" fill="#F56D27"/>
<path d="M64.0034 48.6942C59.0211 48.6942 54.9774 44.5512 54.9774 39.4463C59.9598 39.4463 64.0034 43.5894 64.0034 48.6942Z" fill="#F56D27"/>
<path d="M45.9514 48.6942C50.9338 48.6942 54.9774 52.8373 54.9774 57.9422C49.9951 57.9422 45.9514 53.7991 45.9514 48.6942Z" fill="#F56D27"/>
<path d="M82.0554 48.6942C77.0731 48.6942 73.0294 44.5512 73.0294 39.4463C78.0118 39.4463 82.0554 43.5894 82.0554 48.6942Z" fill="#F56D27"/>
<path d="M73.0294 39.4463C73.0294 44.5512 68.9858 48.6942 64.0034 48.6942C64.0034 43.5894 68.0471 39.4463 73.0294 39.4463Z" fill="#F56D27"/>
<path d="M64.0034 48.6942C68.9858 48.6942 73.0294 52.8373 73.0294 57.9422C68.0471 57.9422 64.0034 53.7991 64.0034 48.6942Z" fill="#F56D27"/>
<path d="M82.0554 48.6942C82.0554 53.7991 78.0118 57.9422 73.0294 57.9422C73.0294 52.8373 77.0731 48.6942 82.0554 48.6942Z" fill="#F56D27"/>
<path d="M100.107 48.6942C95.1251 48.6942 91.0814 44.5512 91.0814 39.4463C96.0638 39.4463 100.107 43.5894 100.107 48.6942Z" fill="#F56D27"/>
<path d="M91.0814 39.4463C91.0814 44.5512 87.0378 48.6942 82.0554 48.6942C82.0554 43.5894 86.0991 39.4463 91.0814 39.4463Z" fill="#F56D27"/>
<path d="M100.107 48.6942C100.107 53.7991 96.0638 57.9422 91.0814 57.9422C91.0814 52.8373 95.1251 48.6942 100.107 48.6942Z" fill="#F56D27"/>
<path d="M82.0554 48.6942C87.0378 48.6942 91.0814 52.8373 91.0814 57.9422C86.0991 57.9422 82.0554 53.7991 82.0554 48.6942Z" fill="#F56D27"/>
<path d="M118.159 48.6942C118.159 53.7991 114.116 57.9422 109.133 57.9422C109.133 52.8373 113.177 48.6942 118.159 48.6942Z" fill="#F56D27"/>
<path d="M100.107 48.6942C105.09 48.6942 109.133 52.8373 109.133 57.9422C104.151 57.9422 100.107 53.7991 100.107 48.6942Z" fill="#F56D27"/>
<path d="M118.159 48.6942C113.177 48.6942 109.133 44.5512 109.133 39.4463C114.116 39.4463 118.159 43.5894 118.159 48.6942Z" fill="#F56D27"/>
<path d="M109.133 39.4463C109.133 44.5512 105.09 48.6942 100.107 48.6942C100.107 43.5894 104.151 39.4463 109.133 39.4463Z" fill="#F56D27"/>
<path d="M127.185 39.4463C127.185 44.5512 123.142 48.6942 118.159 48.6942C118.159 43.5894 122.203 39.4463 127.185 39.4463Z" fill="#F56D27"/>
<path d="M136.211 48.6942C131.229 48.6942 127.185 44.5512 127.185 39.4463C132.168 39.4463 136.211 43.5894 136.211 48.6942Z" fill="#F56D27"/>
<path d="M136.211 48.6942C136.211 53.7991 132.168 57.9422 127.185 57.9422C127.185 52.8373 131.229 48.6942 136.211 48.6942Z" fill="#F56D27"/>
<path d="M118.159 48.6942C123.142 48.6942 127.185 52.8373 127.185 57.9422C122.203 57.9422 118.159 53.7991 118.159 48.6942Z" fill="#F56D27"/>
<path d="M154.263 48.6942C154.263 53.7991 150.22 57.9422 145.237 57.9422C145.237 52.8373 149.281 48.6942 154.263 48.6942Z" fill="#F56D27"/>
<path d="M136.211 48.6942C141.194 48.6942 145.237 52.8373 145.237 57.9422C140.255 57.9422 136.211 53.7991 136.211 48.6942Z" fill="#F56D27"/>
<path d="M145.237 39.4463C145.237 44.5512 141.194 48.6942 136.211 48.6942C136.211 43.5894 140.255 39.4463 145.237 39.4463Z" fill="#F56D27"/>
<path d="M154.263 48.6942C149.281 48.6942 145.237 44.5512 145.237 39.4463C150.22 39.4463 154.263 43.5894 154.263 48.6942Z" fill="#F56D27"/>
<path d="M172.315 48.6942C167.333 48.6942 163.289 44.5512 163.289 39.4463C168.272 39.4463 172.315 43.5894 172.315 48.6942Z" fill="#F56D27"/>
<path d="M163.28 39.4463C163.28 44.5512 159.237 48.6942 154.254 48.6942C154.254 43.5894 158.298 39.4463 163.28 39.4463Z" fill="#F56D27"/>
<path d="M154.263 48.6942C159.246 48.6942 163.289 52.8373 163.289 57.9422C158.307 57.9422 154.263 53.7991 154.263 48.6942Z" fill="#F56D27"/>
<path d="M172.315 48.6942C172.315 53.7991 168.272 57.9422 163.289 57.9422C163.289 52.8373 167.333 48.6942 172.315 48.6942Z" fill="#F56D27"/>
<path d="M190.367 48.6942C185.385 48.6942 181.341 44.5512 181.341 39.4463C186.324 39.4463 190.367 43.5894 190.367 48.6942Z" fill="#F56D27"/>
<path d="M181.332 39.4463C181.332 44.5512 177.289 48.6942 172.306 48.6942C172.306 43.5894 176.35 39.4463 181.332 39.4463Z" fill="#F56D27"/>
<path d="M190.367 48.6942C190.367 53.7991 186.324 57.9422 181.341 57.9422C181.341 52.8373 185.385 48.6942 190.367 48.6942Z" fill="#F56D27"/>
<path d="M172.315 48.6942C177.298 48.6942 181.341 52.8373 181.341 57.9422C176.359 57.9422 172.315 53.7991 172.315 48.6942Z" fill="#F56D27"/>
<path d="M190.367 48.6942C195.35 48.6942 199.393 52.8373 199.393 57.9422C194.411 57.9422 190.367 53.7991 190.367 48.6942Z" fill="#F56D27"/>
<path d="M208.419 48.6942C203.437 48.6942 199.393 44.5512 199.393 39.4463C204.376 39.4463 208.419 43.5894 208.419 48.6942Z" fill="#F56D27"/>
<path d="M199.384 39.4463C199.384 44.5512 195.341 48.6942 190.358 48.6942C190.358 43.5894 194.402 39.4463 199.384 39.4463Z" fill="#F56D27"/>
<path d="M208.419 48.6942C208.419 53.7991 204.376 57.9422 199.393 57.9422C199.393 52.8373 203.437 48.6942 208.419 48.6942Z" fill="#F56D27"/>
<path d="M208.419 48.6942C213.402 48.6942 217.445 52.8373 217.445 57.9422C212.463 57.9422 208.419 53.7991 208.419 48.6942Z" fill="#F56D27"/>
<path d="M226.472 48.6942C226.472 53.7991 222.428 57.9422 217.445 57.9422C217.445 52.8373 221.489 48.6942 226.472 48.6942Z" fill="#F56D27"/>
<path d="M226.472 48.6942C221.489 48.6942 217.445 44.5512 217.445 39.4463C222.428 39.4463 226.472 43.5894 226.472 48.6942Z" fill="#F56D27"/>
<path d="M217.436 39.4463C217.436 44.5512 213.393 48.6942 208.41 48.6942C208.41 43.5894 212.454 39.4463 217.436 39.4463Z" fill="#F56D27"/>
<path d="M235.488 39.4463C235.488 44.5512 231.445 48.6942 226.462 48.6942C226.462 43.5894 230.506 39.4463 235.488 39.4463Z" fill="#F56D27"/>
<path d="M226.471 48.6942C231.454 48.6942 235.498 52.8373 235.498 57.9422C230.515 57.9422 226.471 53.7991 226.471 48.6942Z" fill="#F56D27"/>
<path d="M18.8824 39.4463C18.8824 34.3414 22.9261 30.1984 27.9084 30.1984C27.9084 35.3032 23.8648 39.4463 18.8824 39.4463Z" fill="#F56D27"/>
<path d="M18.8734 39.4463C13.8911 39.4463 9.84741 35.3032 9.84741 30.1984C14.8298 30.1984 18.8734 34.3414 18.8734 39.4463Z" fill="#F56D27"/>
<path d="M18.8734 20.9503C18.8734 26.0552 14.8298 30.1983 9.84741 30.1983C9.84741 25.0934 13.8911 20.9503 18.8734 20.9503Z" fill="#F56D27"/>
<path d="M27.8994 30.1983C22.9171 30.1983 18.8734 26.0552 18.8734 20.9503C23.8558 20.9503 27.8994 25.0934 27.8994 30.1983Z" fill="#F56D27"/>
<path d="M45.9514 30.1983C40.9691 30.1983 36.9254 26.0552 36.9254 20.9503C41.9078 20.9503 45.9514 25.0934 45.9514 30.1983Z" fill="#F56D27"/>
<path d="M45.9514 30.1984C45.9514 35.3032 41.9078 39.4463 36.9254 39.4463C36.9254 34.3414 40.9691 30.1984 45.9514 30.1984Z" fill="#F56D27"/>
<path d="M36.9254 39.4463C31.9431 39.4463 27.8994 35.3032 27.8994 30.1984C32.8818 30.1984 36.9254 34.3414 36.9254 39.4463Z" fill="#F56D27"/>
<path d="M36.9254 20.9503C36.9254 26.0552 32.8818 30.1983 27.8994 30.1983C27.8994 25.0934 31.9431 20.9503 36.9254 20.9503Z" fill="#F56D27"/>
<path d="M54.9774 20.9503C54.9774 26.0552 50.9338 30.1983 45.9514 30.1983C45.9514 25.0934 49.9951 20.9503 54.9774 20.9503Z" fill="#F56D27"/>
<path d="M45.9514 30.1984C50.9338 30.1984 54.9774 34.3414 54.9774 39.4463C49.9951 39.4463 45.9514 35.3032 45.9514 30.1984Z" fill="#F56D27"/>
<path d="M64.0034 30.1984C64.0034 35.3032 59.9598 39.4463 54.9774 39.4463C54.9774 34.3414 59.0211 30.1984 64.0034 30.1984Z" fill="#F56D27"/>
<path d="M64.0034 30.1983C59.0211 30.1983 54.9774 26.0552 54.9774 20.9503C59.9598 20.9503 64.0034 25.0934 64.0034 30.1983Z" fill="#F56D27"/>
<path d="M82.0554 30.1983C77.0731 30.1983 73.0294 26.0552 73.0294 20.9503C78.0118 20.9503 82.0554 25.0934 82.0554 30.1983Z" fill="#F56D27"/>
<path d="M64.0034 30.1984C68.9858 30.1984 73.0294 34.3414 73.0294 39.4463C68.0471 39.4463 64.0034 35.3032 64.0034 30.1984Z" fill="#F56D27"/>
<path d="M82.0554 30.1984C82.0554 35.3032 78.0118 39.4463 73.0294 39.4463C73.0294 34.3414 77.0731 30.1984 82.0554 30.1984Z" fill="#F56D27"/>
<path d="M73.0294 20.9503C73.0294 26.0552 68.9858 30.1983 64.0034 30.1983C64.0034 25.0934 68.0471 20.9503 73.0294 20.9503Z" fill="#F56D27"/>
<path d="M82.0554 30.1984C87.0378 30.1984 91.0814 34.3414 91.0814 39.4463C86.0991 39.4463 82.0554 35.3032 82.0554 30.1984Z" fill="#F56D27"/>
<path d="M91.0814 20.9503C91.0814 26.0552 87.0378 30.1983 82.0554 30.1983C82.0554 25.0934 86.0991 20.9503 91.0814 20.9503Z" fill="#F56D27"/>
<path d="M100.107 30.1983C95.1251 30.1983 91.0814 26.0552 91.0814 20.9503C96.0638 20.9503 100.107 25.0934 100.107 30.1983Z" fill="#F56D27"/>
<path d="M100.107 30.1984C100.107 35.3032 96.0638 39.4463 91.0814 39.4463C91.0814 34.3414 95.1251 30.1984 100.107 30.1984Z" fill="#F56D27"/>
<path d="M118.159 30.1984C118.159 35.3032 114.116 39.4463 109.133 39.4463C109.133 34.3414 113.177 30.1984 118.159 30.1984Z" fill="#F56D27"/>
<path d="M100.107 30.1984C105.09 30.1984 109.133 34.3414 109.133 39.4463C104.151 39.4463 100.107 35.3032 100.107 30.1984Z" fill="#F56D27"/>
<path d="M118.159 30.1983C113.177 30.1983 109.133 26.0552 109.133 20.9503C114.116 20.9503 118.159 25.0934 118.159 30.1983Z" fill="#F56D27"/>
<path d="M109.133 20.9503C109.133 26.0552 105.09 30.1983 100.107 30.1983C100.107 25.0934 104.151 20.9503 109.133 20.9503Z" fill="#F56D27"/>
<path d="M136.211 30.1984C136.211 35.3032 132.168 39.4463 127.185 39.4463C127.185 34.3414 131.229 30.1984 136.211 30.1984Z" fill="#F56D27"/>
<path d="M118.159 30.1984C123.142 30.1984 127.185 34.3414 127.185 39.4463C122.203 39.4463 118.159 35.3032 118.159 30.1984Z" fill="#F56D27"/>
<path d="M136.211 30.1983C131.229 30.1983 127.185 26.0552 127.185 20.9503C132.168 20.9503 136.211 25.0934 136.211 30.1983Z" fill="#F56D27"/>
<path d="M127.185 20.9503C127.185 26.0552 123.142 30.1983 118.159 30.1983C118.159 25.0934 122.203 20.9503 127.185 20.9503Z" fill="#F56D27"/>
<path d="M145.237 20.9503C145.237 26.0552 141.194 30.1983 136.211 30.1983C136.211 25.0934 140.255 20.9503 145.237 20.9503Z" fill="#F56D27"/>
<path d="M154.263 30.1984C154.263 35.3032 150.22 39.4463 145.237 39.4463C145.237 34.3414 149.281 30.1984 154.263 30.1984Z" fill="#F56D27"/>
<path d="M154.263 30.1983C149.281 30.1983 145.237 26.0552 145.237 20.9503C150.22 20.9503 154.263 25.0934 154.263 30.1983Z" fill="#F56D27"/>
<path d="M136.211 30.1984C141.194 30.1984 145.237 34.3414 145.237 39.4463C140.255 39.4463 136.211 35.3032 136.211 30.1984Z" fill="#F56D27"/>
<path d="M163.289 20.9503C163.289 26.0552 159.246 30.1983 154.263 30.1983C154.263 25.0934 158.307 20.9503 163.289 20.9503Z" fill="#F56D27"/>
<path d="M172.315 30.1984C172.315 35.3032 168.272 39.4463 163.289 39.4463C163.289 34.3414 167.333 30.1984 172.315 30.1984Z" fill="#F56D27"/>
<path d="M172.315 30.1983C167.333 30.1983 163.289 26.0552 163.289 20.9503C168.272 20.9503 172.315 25.0934 172.315 30.1983Z" fill="#F56D27"/>
<path d="M154.263 30.1984C159.246 30.1984 163.289 34.3414 163.289 39.4463C158.307 39.4463 154.263 35.3032 154.263 30.1984Z" fill="#F56D27"/>
<path d="M190.367 30.1984C190.367 35.3032 186.324 39.4463 181.341 39.4463C181.341 34.3414 185.385 30.1984 190.367 30.1984Z" fill="#F56D27"/>
<path d="M172.315 30.1984C177.298 30.1984 181.341 34.3414 181.341 39.4463C176.359 39.4463 172.315 35.3032 172.315 30.1984Z" fill="#F56D27"/>
<path d="M190.367 30.1983C185.385 30.1983 181.341 26.0552 181.341 20.9503C186.324 20.9503 190.367 25.0934 190.367 30.1983Z" fill="#F56D27"/>
<path d="M181.341 20.9503C181.341 26.0552 177.298 30.1983 172.315 30.1983C172.315 25.0934 176.359 20.9503 181.341 20.9503Z" fill="#F56D27"/>
<path d="M208.419 30.1983C203.437 30.1983 199.393 26.0552 199.393 20.9503C204.376 20.9503 208.419 25.0934 208.419 30.1983Z" fill="#F56D27"/>
<path d="M208.419 30.1984C208.419 35.3032 204.376 39.4463 199.393 39.4463C199.393 34.3414 203.437 30.1984 208.419 30.1984Z" fill="#F56D27"/>
<path d="M199.384 20.9503C199.384 26.0552 195.341 30.1983 190.358 30.1983C190.358 25.0934 194.402 20.9503 199.384 20.9503Z" fill="#F56D27"/>
<path d="M190.367 30.1984C195.35 30.1984 199.393 34.3414 199.393 39.4463C194.411 39.4463 190.367 35.3032 190.367 30.1984Z" fill="#F56D27"/>
<path d="M226.462 30.1984C226.462 35.3032 222.419 39.4463 217.436 39.4463C217.436 34.3414 221.48 30.1984 226.462 30.1984Z" fill="#F56D27"/>
<path d="M217.436 20.9503C217.436 26.0552 213.393 30.1983 208.41 30.1983C208.41 25.0934 212.454 20.9503 217.436 20.9503Z" fill="#F56D27"/>
<path d="M226.472 30.1983C221.489 30.1983 217.445 26.0552 217.445 20.9503C222.428 20.9503 226.472 25.0934 226.472 30.1983Z" fill="#F56D27"/>
<path d="M208.419 30.1984C213.402 30.1984 217.445 34.3414 217.445 39.4463C212.463 39.4463 208.419 35.3032 208.419 30.1984Z" fill="#F56D27"/>
<path d="M235.488 20.9503C235.488 26.0552 231.445 30.1983 226.462 30.1983C226.462 25.0934 230.506 20.9503 235.488 20.9503Z" fill="#F56D27"/>
<path d="M226.471 30.1984C231.454 30.1984 235.498 34.3414 235.498 39.4463C230.515 39.4463 226.471 35.3032 226.471 30.1984Z" fill="#F56D27"/>
<path d="M27.8994 11.7024C22.9171 11.7024 18.8734 7.55934 18.8734 2.45447C23.8558 2.45447 27.8994 6.59755 27.8994 11.7024Z" fill="#F56D27"/>
<path d="M18.8734 20.9503C13.8911 20.9503 9.84741 16.8073 9.84741 11.7024C14.8298 11.7024 18.8734 15.8455 18.8734 20.9503Z" fill="#F56D27"/>
<path d="M18.8734 20.9503C18.8734 15.8455 22.9171 11.7024 27.8994 11.7024C27.8994 16.8073 23.8558 20.9503 18.8734 20.9503Z" fill="#F56D27"/>
<path d="M18.8734 2.45447C18.8734 7.55934 14.8298 11.7024 9.84741 11.7024C9.84741 6.59755 13.8911 2.45447 18.8734 2.45447Z" fill="#F56D27"/>
<path d="M36.9254 20.9503C36.9254 15.8455 40.9691 11.7024 45.9514 11.7024C45.9514 16.8073 41.9078 20.9503 36.9254 20.9503Z" fill="#F56D27"/>
<path d="M45.9514 11.7024C40.9691 11.7024 36.9254 7.55934 36.9254 2.45447C41.9078 2.45447 45.9514 6.59755 45.9514 11.7024Z" fill="#F56D27"/>
<path d="M36.9254 20.9503C31.9431 20.9503 27.8994 16.8073 27.8994 11.7024C32.8818 11.7024 36.9254 15.8455 36.9254 20.9503Z" fill="#F56D27"/>
<path d="M36.9254 2.45447C36.9254 7.55934 32.8818 11.7024 27.8994 11.7024C27.8994 6.59755 31.9431 2.45447 36.9254 2.45447Z" fill="#F56D27"/>
<path d="M54.9774 20.9503C49.9951 20.9503 45.9514 16.8073 45.9514 11.7024C50.9338 11.7024 54.9774 15.8455 54.9774 20.9503Z" fill="#F56D27"/>
<path d="M64.0034 11.7024C59.0211 11.7024 54.9774 7.55934 54.9774 2.45447C59.9598 2.45447 64.0034 6.59755 64.0034 11.7024Z" fill="#F56D27"/>
<path d="M64.0034 11.7024C64.0034 16.8073 59.9598 20.9503 54.9774 20.9503C54.9774 15.8455 59.0211 11.7024 64.0034 11.7024Z" fill="#F56D27"/>
<path d="M54.9774 2.45447C54.9774 7.55934 50.9338 11.7024 45.9514 11.7024C45.9514 6.59755 49.9951 2.45447 54.9774 2.45447Z" fill="#F56D27"/>
<path d="M64.0034 11.7024C68.9858 11.7024 73.0294 15.8455 73.0294 20.9503C68.0471 20.9503 64.0034 16.8073 64.0034 11.7024Z" fill="#F56D27"/>
<path d="M82.0554 11.7024C77.0731 11.7024 73.0294 7.55934 73.0294 2.45447C78.0118 2.45447 82.0554 6.59755 82.0554 11.7024Z" fill="#F56D27"/>
<path d="M73.0294 2.45447C73.0294 7.55934 68.9858 11.7024 64.0034 11.7024C64.0034 6.59755 68.0471 2.45447 73.0294 2.45447Z" fill="#F56D27"/>
<path d="M82.0554 11.7024C82.0554 16.8073 78.0118 20.9503 73.0294 20.9503C73.0294 15.8455 77.0731 11.7024 82.0554 11.7024Z" fill="#F56D27"/>
<path d="M82.0554 11.7024C87.0378 11.7024 91.0814 15.8455 91.0814 20.9503C86.0991 20.9503 82.0554 16.8073 82.0554 11.7024Z" fill="#F56D27"/>
<path d="M100.107 11.7024C95.1251 11.7024 91.0814 7.55934 91.0814 2.45447C96.0638 2.45447 100.107 6.59755 100.107 11.7024Z" fill="#F56D27"/>
<path d="M100.107 11.7024C100.107 16.8073 96.0638 20.9503 91.0814 20.9503C91.0814 15.8455 95.1251 11.7024 100.107 11.7024Z" fill="#F56D27"/>
<path d="M91.0814 2.45447C91.0814 7.55934 87.0378 11.7024 82.0554 11.7024C82.0554 6.59755 86.0991 2.45447 91.0814 2.45447Z" fill="#F56D27"/>
<path d="M100.107 11.7024C105.09 11.7024 109.133 15.8455 109.133 20.9503C104.151 20.9503 100.107 16.8073 100.107 11.7024Z" fill="#F56D27"/>
<path d="M118.159 11.7024C118.159 16.8073 114.116 20.9503 109.133 20.9503C109.133 15.8455 113.177 11.7024 118.159 11.7024Z" fill="#F56D27"/>
<path d="M109.133 2.45447C109.133 7.55934 105.09 11.7024 100.107 11.7024C100.107 6.59755 104.151 2.45447 109.133 2.45447Z" fill="#F56D27"/>
<path d="M118.159 11.7024C113.177 11.7024 109.133 7.55934 109.133 2.45447C114.116 2.45447 118.159 6.59755 118.159 11.7024Z" fill="#F56D27"/>
<path d="M118.159 11.7024C123.142 11.7024 127.185 15.8455 127.185 20.9503C122.203 20.9503 118.159 16.8073 118.159 11.7024Z" fill="#F56D27"/>
<path d="M136.211 11.7024C136.211 16.8073 132.168 20.9503 127.185 20.9503C127.185 15.8455 131.229 11.7024 136.211 11.7024Z" fill="#F56D27"/>
<path d="M127.185 2.45447C127.185 7.55934 123.142 11.7024 118.159 11.7024C118.159 6.59755 122.203 2.45447 127.185 2.45447Z" fill="#F56D27"/>
<path d="M136.211 11.7024C131.229 11.7024 127.185 7.55934 127.185 2.45447C132.168 2.45447 136.211 6.59755 136.211 11.7024Z" fill="#F56D27"/>
<path d="M136.211 11.7024C141.194 11.7024 145.237 15.8455 145.237 20.9503C140.255 20.9503 136.211 16.8073 136.211 11.7024Z" fill="#F56D27"/>
<path d="M154.263 11.7024C154.263 16.8073 150.22 20.9503 145.237 20.9503C145.237 15.8455 149.281 11.7024 154.263 11.7024Z" fill="#F56D27"/>
<path d="M145.237 2.45447C145.237 7.55934 141.194 11.7024 136.211 11.7024C136.211 6.59755 140.255 2.45447 145.237 2.45447Z" fill="#F56D27"/>
<path d="M154.263 11.7024C149.281 11.7024 145.237 7.55934 145.237 2.45447C150.22 2.45447 154.263 6.59755 154.263 11.7024Z" fill="#F56D27"/>
<path d="M172.315 11.7024C172.315 16.8073 168.272 20.9503 163.289 20.9503C163.289 15.8455 167.333 11.7024 172.315 11.7024Z" fill="#F56D27"/>
<path d="M172.315 11.7024C167.333 11.7024 163.289 7.55934 163.289 2.45447C168.272 2.45447 172.315 6.59755 172.315 11.7024Z" fill="#F56D27"/>
<path d="M163.289 2.45447C163.289 7.55934 159.246 11.7024 154.263 11.7024C154.263 6.59755 158.307 2.45447 163.289 2.45447Z" fill="#F56D27"/>
<path d="M154.263 11.7024C159.246 11.7024 163.289 15.8455 163.289 20.9503C158.307 20.9503 154.263 16.8073 154.263 11.7024Z" fill="#F56D27"/>
<path d="M181.332 2.45447C181.332 7.55934 177.289 11.7024 172.306 11.7024C172.306 6.59755 176.35 2.45447 181.332 2.45447Z" fill="#F56D27"/>
<path d="M190.367 11.7024C190.367 16.8073 186.324 20.9503 181.341 20.9503C181.341 15.8455 185.385 11.7024 190.367 11.7024Z" fill="#F56D27"/>
<path d="M190.367 11.7024C185.385 11.7024 181.341 7.55934 181.341 2.45447C186.324 2.45447 190.367 6.59755 190.367 11.7024Z" fill="#F56D27"/>
<path d="M172.315 11.7024C177.298 11.7024 181.341 15.8455 181.341 20.9503C176.359 20.9503 172.315 16.8073 172.315 11.7024Z" fill="#F56D27"/>
<path d="M208.419 11.7024C203.437 11.7024 199.393 7.55934 199.393 2.45447C204.376 2.45447 208.419 6.59755 208.419 11.7024Z" fill="#F56D27"/>
<path d="M208.419 11.7024C208.419 16.8073 204.376 20.9503 199.393 20.9503C199.393 15.8455 203.437 11.7024 208.419 11.7024Z" fill="#F56D27"/>
<path d="M199.384 2.45447C199.384 7.55934 195.341 11.7024 190.358 11.7024C190.358 6.59755 194.402 2.45447 199.384 2.45447Z" fill="#F56D27"/>
<path d="M190.367 11.7024C195.35 11.7024 199.393 15.8455 199.393 20.9503C194.411 20.9503 190.367 16.8073 190.367 11.7024Z" fill="#F56D27"/>
<path d="M208.419 11.7024C213.402 11.7024 217.445 15.8455 217.445 20.9503C212.463 20.9503 208.419 16.8073 208.419 11.7024Z" fill="#F56D27"/>
<path d="M217.436 2.45447C217.436 7.55934 213.393 11.7024 208.41 11.7024C208.41 6.59755 212.454 2.45447 217.436 2.45447Z" fill="#F56D27"/>
<path d="M217.445 20.9503C217.445 15.8455 221.489 11.7024 226.472 11.7024C226.472 16.8073 222.428 20.9503 217.445 20.9503Z" fill="#F56D27"/>
<path d="M217.445 2.45447C222.428 2.45447 226.472 6.59755 226.472 11.7024C221.489 11.7024 217.445 7.55934 217.445 2.45447Z" fill="#F56D27"/>
<path d="M226.471 11.7024C231.454 11.7024 235.498 15.8455 235.498 20.9503C230.515 20.9503 226.471 16.8073 226.471 11.7024Z" fill="#F56D27"/>
<path d="M235.488 2.45447C235.488 7.55934 231.445 11.7024 226.462 11.7024C226.462 6.59755 230.506 2.45447 235.488 2.45447Z" fill="#F56D27"/>
<path d="M18.8824 2.4545C18.8824 -2.65037 22.9261 -6.79346 27.9084 -6.79346C27.9084 -1.68859 23.8648 2.4545 18.8824 2.4545Z" fill="#F56D27"/>
<path d="M18.8734 2.4545C13.8911 2.4545 9.84741 -1.68859 9.84741 -6.79346C14.8298 -6.79346 18.8734 -2.65037 18.8734 2.4545Z" fill="#F56D27"/>
<path d="M36.9254 2.4545C31.9431 2.4545 27.8994 -1.68859 27.8994 -6.79346C32.8818 -6.79346 36.9254 -2.65037 36.9254 2.4545Z" fill="#F56D27"/>
<path d="M36.9254 2.4545C36.9254 -2.65037 40.9691 -6.79346 45.9514 -6.79346C45.9514 -1.68859 41.9078 2.4545 36.9254 2.4545Z" fill="#F56D27"/>
<path d="M54.9774 2.4545C54.9774 -2.65037 59.0211 -6.79346 64.0034 -6.79346C64.0034 -1.68859 59.9598 2.4545 54.9774 2.4545Z" fill="#F56D27"/>
<path d="M54.9774 2.4545C49.9951 2.4545 45.9514 -1.68859 45.9514 -6.79346C50.9338 -6.79346 54.9774 -2.65037 54.9774 2.4545Z" fill="#F56D27"/>
<path d="M73.0294 2.4545C68.0471 2.4545 64.0034 -1.68859 64.0034 -6.79346C68.9858 -6.79346 73.0294 -2.65037 73.0294 2.4545Z" fill="#F56D27"/>
<path d="M82.0554 -6.79346C82.0554 -1.68859 78.0118 2.4545 73.0294 2.4545C73.0294 -2.65037 77.0731 -6.79346 82.0554 -6.79346Z" fill="#F56D27"/>
<path d="M100.107 -6.79346C100.107 -1.68859 96.0638 2.4545 91.0814 2.4545C91.0814 -2.65037 95.1251 -6.79346 100.107 -6.79346Z" fill="#F56D27"/>
<path d="M82.0554 -6.7843C87.0378 -6.7843 91.0814 -2.64122 91.0814 2.46365C86.0991 2.46365 82.0554 -1.67943 82.0554 -6.7843Z" fill="#F56D27"/>
<path d="M118.159 -6.79346C118.159 -1.68859 114.116 2.4545 109.133 2.4545C109.133 -2.65037 113.177 -6.79346 118.159 -6.79346Z" fill="#F56D27"/>
<path d="M100.107 -6.79346C105.09 -6.79346 109.133 -2.65037 109.133 2.4545C104.151 2.4545 100.107 -1.68859 100.107 -6.79346Z" fill="#F56D27"/>
<path d="M118.159 -6.79346C123.142 -6.79346 127.185 -2.65037 127.185 2.4545C122.203 2.4545 118.159 -1.68859 118.159 -6.79346Z" fill="#F56D27"/>
<path d="M136.211 -6.79346C136.211 -1.68859 132.168 2.4545 127.185 2.4545C127.185 -2.65037 131.229 -6.79346 136.211 -6.79346Z" fill="#F56D27"/>
<path d="M136.211 -6.7843C141.194 -6.7843 145.237 -2.64122 145.237 2.46365C140.255 2.46365 136.211 -1.67943 136.211 -6.7843Z" fill="#F56D27"/>
<path d="M154.263 -6.79346C154.263 -1.68859 150.22 2.4545 145.237 2.4545C145.237 -2.65037 149.281 -6.79346 154.263 -6.79346Z" fill="#F56D27"/>
<path d="M172.315 -6.79346C172.315 -1.68859 168.272 2.4545 163.289 2.4545C163.289 -2.65037 167.333 -6.79346 172.315 -6.79346Z" fill="#F56D27"/>
<path d="M154.263 -6.79346C159.246 -6.79346 163.289 -2.65037 163.289 2.4545C158.307 2.4545 154.263 -1.68859 154.263 -6.79346Z" fill="#F56D27"/>
<path d="M190.367 -6.79346C190.367 -1.68859 186.324 2.4545 181.341 2.4545C181.341 -2.65037 185.385 -6.79346 190.367 -6.79346Z" fill="#F56D27"/>
<path d="M172.315 -6.79346C177.298 -6.79346 181.341 -2.65037 181.341 2.4545C176.359 2.4545 172.315 -1.68859 172.315 -6.79346Z" fill="#F56D27"/>
<path d="M199.393 2.4545C199.393 -2.65037 203.437 -6.79346 208.419 -6.79346C208.419 -1.68859 204.376 2.4545 199.393 2.4545Z" fill="#F56D27"/>
<path d="M190.367 -6.79346C195.35 -6.79346 199.393 -2.65037 199.393 2.4545C194.411 2.4545 190.367 -1.68859 190.367 -6.79346Z" fill="#F56D27"/>
<path d="M208.419 -6.79346C213.402 -6.79346 217.445 -2.65037 217.445 2.4545C212.463 2.4545 208.419 -1.68859 208.419 -6.79346Z" fill="#F56D27"/>
<path d="M217.445 2.4545C217.445 -2.65037 221.489 -6.79346 226.472 -6.79346C226.472 -1.68859 222.428 2.4545 217.445 2.4545Z" fill="#F56D27"/>
<path d="M226.471 -6.79346C231.454 -6.79346 235.498 -2.65037 235.498 2.4545C230.515 2.4545 226.471 -1.68859 226.471 -6.79346Z" fill="#F56D27"/>
</g>
</g>
<path d="M125.813 9.53833C158.632 9.53833 189.826 16.1414 218.673 29.1625L199.61 80.1187C187.055 75.1803 160.699 66.9126 124.965 66.9126C98.2119 66.9126 71.2152 71.5736 44.6065 80.7661L25.3901 29.6526C40.617 23.2623 78.788 9.53833 125.813 9.53833Z" stroke="black" stroke-width="0.924796" stroke-linecap="round" stroke-linejoin="round"/>
<path d="M125.813 9.53833C158.632 9.53833 189.826 16.1414 218.673 29.1625L199.61 80.1187C187.055 75.1803 160.699 66.9126 124.965 66.9126C98.212 66.9126 71.2152 71.5736 44.6065 80.7661L25.3901 29.6526C40.617 23.2623 78.788 9.53833 125.813 9.53833Z" fill="#EF4B23"/>
<path d="M1.42613 21.2833L0.947754 19.7944C0.947754 19.7944 3.20426 16.1692 8.97188 17.2512L9.84739 18.8418L1.42613 21.2833Z" fill="#C71E11"/>
<path d="M10.687 18.102L39.6154 92.5665L23.7386 97.0888L0.00927734 21.7087C0.00927734 21.7087 2.39214 17.8985 10.687 18.102Z" fill="#EF4B23"/>
<mask id="mask1_2380_27190" style="mask-type:luminance" maskUnits="userSpaceOnUse" x="0" y="18" width="40" height="80">
<path d="M10.687 18.102L39.6154 92.5665L23.7386 97.0888L0.00927734 21.7087C0.00927734 21.7087 2.39214 17.8985 10.687 18.102Z" fill="white"/>
</mask>
<g mask="url(#mask1_2380_27190)">
<path d="M30.9954 20.3769C34.8134 20.3769 37.9093 17.2049 37.9093 13.293C34.0913 13.293 31.0044 16.465 31.0044 20.3677L30.9954 20.3769Z" fill="#F56D27"/>
<path d="M37.9092 13.293C37.9092 17.2049 41.0051 20.3769 44.8231 20.3769C44.8231 16.465 41.7272 13.3022 37.9182 13.3022L37.9092 13.293Z" fill="#F56D27"/>
<path d="M37.9093 27.4516C41.7273 27.4516 44.8142 24.2796 44.8142 20.377C40.9962 20.377 37.9003 23.549 37.9003 27.4609L37.9093 27.4516Z" fill="#F56D27"/>
<path d="M37.9093 27.4516C37.9093 23.5397 34.8134 20.3677 30.9954 20.3677C30.9954 24.2796 34.0913 27.4424 37.9002 27.4424L37.9093 27.4516Z" fill="#F56D27"/>
<path d="M37.9093 41.6103C37.9093 37.6984 34.8134 34.5264 30.9954 34.5264C30.9954 38.4383 34.0913 41.6011 37.9002 41.6011L37.9093 41.6103Z" fill="#F56D27"/>
<path d="M30.9954 34.5356C34.8134 34.5356 37.9093 31.3635 37.9093 27.4517C34.0913 27.4517 31.0044 30.6237 31.0044 34.5263L30.9954 34.5356Z" fill="#F56D27"/>
<path d="M37.9092 27.4517C37.9092 31.3635 41.0051 34.5356 44.8231 34.5356C44.8231 30.6237 41.7272 27.4609 37.9182 27.4609L37.9092 27.4517Z" fill="#F56D27"/>
<path d="M37.9093 41.6102C41.7273 41.6102 44.8142 38.4382 44.8142 34.5355C40.9962 34.5355 37.9003 37.7076 37.9003 41.6195L37.9093 41.6102Z" fill="#F56D27"/>
<path d="M30.9954 48.6942C34.8134 48.6942 37.9093 45.5221 37.9093 41.6102C34.0913 41.6102 31.0044 44.7823 31.0044 48.6849L30.9954 48.6942Z" fill="#F56D27"/>
<path d="M37.9093 55.7689C37.9093 51.857 34.8134 48.6849 30.9954 48.6849C30.9954 52.5968 34.0913 55.7596 37.9002 55.7596L37.9093 55.7689Z" fill="#F56D27"/>
<path d="M37.9093 55.7689C41.7273 55.7689 44.8142 52.5969 44.8142 48.6942C40.9962 48.6942 37.9003 51.8663 37.9003 55.7782L37.9093 55.7689Z" fill="#F56D27"/>
<path d="M37.9092 41.6102C37.9092 45.5221 41.0051 48.6942 44.8231 48.6942C44.8231 44.7823 41.7272 41.6195 37.9182 41.6195L37.9092 41.6102Z" fill="#F56D27"/>
<path d="M37.9093 69.9274C37.9093 66.0156 34.8134 62.8435 30.9954 62.8435C30.9954 66.7554 34.0913 69.9182 37.9002 69.9182L37.9093 69.9274Z" fill="#F56D27"/>
<path d="M37.9093 69.9275C41.7273 69.9275 44.8142 66.7554 44.8142 62.8528C40.9962 62.8528 37.9003 66.0248 37.9003 69.9367L37.9093 69.9275Z" fill="#F56D27"/>
<path d="M30.9954 62.8529C34.8134 62.8529 37.9093 59.6808 37.9093 55.7689C34.0913 55.7689 31.0044 58.941 31.0044 62.8436L30.9954 62.8529Z" fill="#F56D27"/>
<path d="M37.9092 55.7689C37.9092 59.6808 41.0051 62.8529 44.8231 62.8529C44.8231 58.941 41.7272 55.7782 37.9182 55.7782L37.9092 55.7689Z" fill="#F56D27"/>
<path d="M37.9092 69.9275C37.9092 73.8394 41.0051 77.0114 44.8231 77.0114C44.8231 73.0995 41.7272 69.9367 37.9182 69.9367L37.9092 69.9275Z" fill="#F56D27"/>
<path d="M30.9954 77.0114C34.8134 77.0114 37.9093 73.8394 37.9093 69.9275C34.0913 69.9275 31.0044 73.0995 31.0044 77.0022L30.9954 77.0114Z" fill="#F56D27"/>
<path d="M37.9093 84.0954C37.9093 80.1835 34.8134 77.0115 30.9954 77.0115C30.9954 80.9234 34.0913 84.0862 37.9002 84.0862L37.9093 84.0954Z" fill="#F56D27"/>
<path d="M37.9093 84.0953C41.7273 84.0953 44.8142 80.9233 44.8142 77.0206C40.9962 77.0206 37.9003 80.1927 37.9003 84.1046L37.9093 84.0953Z" fill="#F56D27"/>
<path d="M37.9093 98.254C37.9093 94.3421 34.8134 91.17 30.9954 91.17C30.9954 95.0819 34.0913 98.2447 37.9002 98.2447L37.9093 98.254Z" fill="#F56D27"/>
<path d="M30.9954 91.17C34.8134 91.17 37.9093 87.9979 37.9093 84.0861C34.0913 84.0861 31.0044 87.2581 31.0044 91.1608L30.9954 91.17Z" fill="#F56D27"/>
<path d="M37.9092 84.0953C37.9092 88.0072 41.0051 91.1793 44.8231 91.1793C44.8231 87.2674 41.7272 84.1046 37.9182 84.1046L37.9092 84.0953Z" fill="#F56D27"/>
<path d="M37.9093 98.254C41.7273 98.254 44.8142 95.082 44.8142 91.1793C40.9962 91.1793 37.9003 94.3514 37.9003 98.2632L37.9093 98.254Z" fill="#F56D27"/>
<path d="M17.1765 20.3769C20.9945 20.3769 24.0904 17.2049 24.0904 13.293C20.2724 13.293 17.1855 16.465 17.1855 20.3677L17.1765 20.3769Z" fill="#F56D27"/>
<path d="M24.0904 27.4516C27.9084 27.4516 30.9953 24.2796 30.9953 20.377C27.1773 20.377 24.0814 23.549 24.0814 27.4609L24.0904 27.4516Z" fill="#F56D27"/>
<path d="M24.0905 13.293C24.0905 17.2049 27.1864 20.3769 31.0044 20.3769C31.0044 16.465 27.9085 13.3022 24.0995 13.3022L24.0905 13.293Z" fill="#F56D27"/>
<path d="M24.0904 27.4516C24.0904 23.5397 20.9945 20.3677 17.1765 20.3677C17.1765 24.2796 20.2724 27.4424 24.0814 27.4424L24.0904 27.4516Z" fill="#F56D27"/>
<path d="M17.1765 34.5356C20.9945 34.5356 24.0904 31.3635 24.0904 27.4517C20.2724 27.4517 17.1855 30.6237 17.1855 34.5263L17.1765 34.5356Z" fill="#F56D27"/>
<path d="M24.0904 41.6102C27.9084 41.6102 30.9953 38.4382 30.9953 34.5355C27.1773 34.5355 24.0814 37.7076 24.0814 41.6195L24.0904 41.6102Z" fill="#F56D27"/>
<path d="M24.0905 27.4517C24.0905 31.3635 27.1864 34.5356 31.0044 34.5356C31.0044 30.6237 27.9085 27.4609 24.0995 27.4609L24.0905 27.4517Z" fill="#F56D27"/>
<path d="M24.0904 41.6103C24.0904 37.6984 20.9945 34.5264 17.1765 34.5264C17.1765 38.4383 20.2724 41.6011 24.0814 41.6011L24.0904 41.6103Z" fill="#F56D27"/>
<path d="M24.0904 55.7689C24.0904 51.857 20.9945 48.6849 17.1765 48.6849C17.1765 52.5968 20.2724 55.7596 24.0814 55.7596L24.0904 55.7689Z" fill="#F56D27"/>
<path d="M24.0904 55.7689C27.9084 55.7689 30.9953 52.5969 30.9953 48.6942C27.1773 48.6942 24.0814 51.8663 24.0814 55.7782L24.0904 55.7689Z" fill="#F56D27"/>
<path d="M24.0905 41.6102C24.0905 45.5221 27.1864 48.6942 31.0044 48.6942C31.0044 44.7823 27.9085 41.6195 24.0995 41.6195L24.0905 41.6102Z" fill="#F56D27"/>
<path d="M17.1765 48.6942C20.9945 48.6942 24.0904 45.5221 24.0904 41.6102C20.2724 41.6102 17.1855 44.7823 17.1855 48.6849L17.1765 48.6942Z" fill="#F56D27"/>
<path d="M17.1765 62.8529C20.9945 62.8529 24.0904 59.6808 24.0904 55.7689C20.2724 55.7689 17.1855 58.941 17.1855 62.8436L17.1765 62.8529Z" fill="#F56D27"/>
<path d="M24.0905 55.7689C24.0905 59.6808 27.1864 62.8529 31.0044 62.8529C31.0044 58.941 27.9085 55.7782 24.0995 55.7782L24.0905 55.7689Z" fill="#F56D27"/>
<path d="M24.0904 69.9274C24.0904 66.0156 20.9945 62.8435 17.1765 62.8435C17.1765 66.7554 20.2724 69.9182 24.0814 69.9182L24.0904 69.9274Z" fill="#F56D27"/>
<path d="M24.0904 69.9275C27.9084 69.9275 30.9953 66.7554 30.9953 62.8528C27.1773 62.8528 24.0814 66.0248 24.0814 69.9367L24.0904 69.9275Z" fill="#F56D27"/>
<path d="M24.0904 84.0954C24.0904 80.1835 20.9945 77.0115 17.1765 77.0115C17.1765 80.9234 20.2724 84.0862 24.0814 84.0862L24.0904 84.0954Z" fill="#F56D27"/>
<path d="M17.1765 77.0114C20.9945 77.0114 24.0904 73.8394 24.0904 69.9275C20.2724 69.9275 17.1855 73.0995 17.1855 77.0022L17.1765 77.0114Z" fill="#F56D27"/>
<path d="M24.0904 84.0953C27.9084 84.0953 30.9953 80.9233 30.9953 77.0206C27.1773 77.0206 24.0814 80.1927 24.0814 84.1046L24.0904 84.0953Z" fill="#F56D27"/>
<path d="M24.0905 69.9275C24.0905 73.8394 27.1864 77.0114 31.0044 77.0114C31.0044 73.0995 27.9085 69.9367 24.0995 69.9367L24.0905 69.9275Z" fill="#F56D27"/>
<path d="M24.0904 98.254C27.9084 98.254 30.9953 95.082 30.9953 91.1793C27.1773 91.1793 24.0814 94.3514 24.0814 98.2632L24.0904 98.254Z" fill="#F56D27"/>
<path d="M24.0904 98.254C24.0904 94.3421 20.9945 91.17 17.1765 91.17C17.1765 95.0819 20.2724 98.2447 24.0814 98.2447L24.0904 98.254Z" fill="#F56D27"/>
<path d="M24.0905 84.0953C24.0905 88.0072 27.1864 91.1793 31.0044 91.1793C31.0044 87.2674 27.9085 84.1046 24.0995 84.1046L24.0905 84.0953Z" fill="#F56D27"/>
<path d="M17.1765 91.17C20.9945 91.17 24.0904 87.9979 24.0904 84.0861C20.2724 84.0861 17.1855 87.2581 17.1855 91.1608L17.1765 91.17Z" fill="#F56D27"/>
<path d="M10.2716 27.4516C10.2716 23.5397 7.17567 20.3677 3.35767 20.3677C3.35767 24.2796 6.45359 27.4424 10.2626 27.4424L10.2716 27.4516Z" fill="#F56D27"/>
<path d="M3.35767 20.3769C7.17567 20.3769 10.2716 17.2049 10.2716 13.293C6.45359 13.293 3.36669 16.465 3.36669 20.3677L3.35767 20.3769Z" fill="#F56D27"/>
<path d="M10.2716 27.4516C14.0896 27.4516 17.1765 24.2796 17.1765 20.377C13.3585 20.377 10.2626 23.549 10.2626 27.4609L10.2716 27.4516Z" fill="#F56D27"/>
<path d="M10.2716 13.293C10.2716 17.2049 13.3675 20.3769 17.1855 20.3769C17.1855 16.465 14.0896 13.3022 10.2806 13.3022L10.2716 13.293Z" fill="#F56D27"/>
<path d="M10.2716 41.6102C14.0896 41.6102 17.1765 38.4382 17.1765 34.5355C13.3585 34.5355 10.2626 37.7076 10.2626 41.6195L10.2716 41.6102Z" fill="#F56D27"/>
<path d="M10.2716 27.4517C10.2716 31.3635 13.3675 34.5356 17.1855 34.5356C17.1855 30.6237 14.0896 27.4609 10.2806 27.4609L10.2716 27.4517Z" fill="#F56D27"/>
<path d="M10.2716 41.6103C10.2716 37.6984 7.17567 34.5264 3.35767 34.5264C3.35767 38.4383 6.45359 41.6011 10.2626 41.6011L10.2716 41.6103Z" fill="#F56D27"/>
<path d="M3.35767 34.5356C7.17567 34.5356 10.2716 31.3635 10.2716 27.4517C6.45359 27.4517 3.36669 30.6237 3.36669 34.5263L3.35767 34.5356Z" fill="#F56D27"/>
<path d="M3.35767 48.6942C7.17567 48.6942 10.2716 45.5221 10.2716 41.6102C6.45359 41.6102 3.36669 44.7823 3.36669 48.6849L3.35767 48.6942Z" fill="#F56D27"/>
<path d="M10.2626 55.7689C10.2626 51.857 7.16663 48.6849 3.34863 48.6849C3.34863 52.5968 6.44455 55.7596 10.2535 55.7596L10.2626 55.7689Z" fill="#F56D27"/>
<path d="M10.2716 55.7689C14.0896 55.7689 17.1765 52.5969 17.1765 48.6942C13.3585 48.6942 10.2626 51.8663 10.2626 55.7782L10.2716 55.7689Z" fill="#F56D27"/>
<path d="M10.2716 41.6102C10.2716 45.5221 13.3675 48.6942 17.1855 48.6942C17.1855 44.7823 14.0896 41.6195 10.2806 41.6195L10.2716 41.6102Z" fill="#F56D27"/>
<path d="M10.2716 69.9275C14.0896 69.9275 17.1765 66.7554 17.1765 62.8528C13.3585 62.8528 10.2626 66.0248 10.2626 69.9367L10.2716 69.9275Z" fill="#F56D27"/>
<path d="M10.2716 55.7689C10.2716 59.6808 13.3675 62.8529 17.1855 62.8529C17.1855 58.941 14.0896 55.7782 10.2806 55.7782L10.2716 55.7689Z" fill="#F56D27"/>
<path d="M3.35767 62.8529C7.17567 62.8529 10.2716 59.6808 10.2716 55.7689C6.45359 55.7689 3.36669 58.941 3.36669 62.8436L3.35767 62.8529Z" fill="#F56D27"/>
<path d="M10.2716 69.9274C10.2716 66.0156 7.17567 62.8435 3.35767 62.8435C3.35767 66.7554 6.45359 69.9182 10.2626 69.9182L10.2716 69.9274Z" fill="#F56D27"/>
<path d="M10.2716 84.0954C10.2716 80.1835 7.17567 77.0115 3.35767 77.0115C3.35767 80.9234 6.45359 84.0862 10.2626 84.0862L10.2716 84.0954Z" fill="#F56D27"/>
<path d="M3.35767 77.0114C7.17567 77.0114 10.2716 73.8394 10.2716 69.9275C6.45359 69.9275 3.36669 73.0995 3.36669 77.0022L3.35767 77.0114Z" fill="#F56D27"/>
<path d="M10.2716 69.9275C10.2716 73.8394 13.3675 77.0114 17.1855 77.0114C17.1855 73.0995 14.0896 69.9367 10.2806 69.9367L10.2716 69.9275Z" fill="#F56D27"/>
<path d="M10.2716 84.0953C14.0896 84.0953 17.1765 80.9233 17.1765 77.0206C13.3585 77.0206 10.2626 80.1927 10.2626 84.1046L10.2716 84.0953Z" fill="#F56D27"/>
<path d="M10.2716 98.254C10.2716 94.3421 7.17567 91.17 3.35767 91.17C3.35767 95.0819 6.45359 98.2447 10.2626 98.2447L10.2716 98.254Z" fill="#F56D27"/>
<path d="M3.35767 91.17C7.17567 91.17 10.2716 87.9979 10.2716 84.0861C6.45359 84.0861 3.36669 87.2581 3.36669 91.1608L3.35767 91.17Z" fill="#F56D27"/>
<path d="M10.2716 98.254C14.0896 98.254 17.1765 95.082 17.1765 91.1793C13.3585 91.1793 10.2626 94.3514 10.2626 98.2632L10.2716 98.254Z" fill="#F56D27"/>
<path d="M10.2716 84.0953C10.2716 88.0072 13.3675 91.1793 17.1855 91.1793C17.1855 87.2674 14.0896 84.1046 10.2806 84.1046L10.2716 84.0953Z" fill="#F56D27"/>
<path d="M-3.54724 13.293C-3.54724 17.2049 -0.451322 20.3769 3.36668 20.3769C3.36668 16.465 0.270761 13.3022 -3.53821 13.3022L-3.54724 13.293Z" fill="#F56D27"/>
<path d="M-3.54725 27.4516C0.27075 27.4516 3.35765 24.2796 3.35765 20.377C-0.460355 20.377 -3.55627 23.549 -3.55627 27.4609L-3.54725 27.4516Z" fill="#F56D27"/>
<path d="M-3.54725 41.6102C0.27075 41.6102 3.35765 38.4382 3.35765 34.5355C-0.460355 34.5355 -3.55627 37.7076 -3.55627 41.6195L-3.54725 41.6102Z" fill="#F56D27"/>
<path d="M-3.54724 27.4517C-3.54724 31.3635 -0.451322 34.5356 3.36668 34.5356C3.36668 30.6237 0.270761 27.4609 -3.53821 27.4609L-3.54724 27.4517Z" fill="#F56D27"/>
<path d="M-3.54725 55.7689C0.27075 55.7689 3.35765 52.5969 3.35765 48.6942C-0.460355 48.6942 -3.55627 51.8663 -3.55627 55.7782L-3.54725 55.7689Z" fill="#F56D27"/>
<path d="M-3.54724 41.6102C-3.54724 45.5221 -0.451322 48.6942 3.36668 48.6942C3.36668 44.7823 0.270761 41.6195 -3.53821 41.6195L-3.54724 41.6102Z" fill="#F56D27"/>
<path d="M-3.54725 69.9275C0.27075 69.9275 3.35765 66.7554 3.35765 62.8528C-0.460355 62.8528 -3.55627 66.0248 -3.55627 69.9367L-3.54725 69.9275Z" fill="#F56D27"/>
<path d="M-3.54724 55.7689C-3.54724 59.6808 -0.451322 62.8529 3.36668 62.8529C3.36668 58.941 0.270761 55.7782 -3.53821 55.7782L-3.54724 55.7689Z" fill="#F56D27"/>
<path d="M-3.54725 84.0953C0.27075 84.0953 3.35765 80.9233 3.35765 77.0206C-0.460355 77.0206 -3.55627 80.1927 -3.55627 84.1046L-3.54725 84.0953Z" fill="#F56D27"/>
<path d="M-3.54724 69.9275C-3.54724 73.8394 -0.451322 77.0114 3.36668 77.0114C3.36668 73.0995 0.270761 69.9367 -3.53821 69.9367L-3.54724 69.9275Z" fill="#F56D27"/>
<path d="M-3.54725 98.254C0.27075 98.254 3.35765 95.082 3.35765 91.1793C-0.460355 91.1793 -3.55627 94.3514 -3.55627 98.2632L-3.54725 98.254Z" fill="#F56D27"/>
<path d="M-3.54724 84.0953C-3.54724 88.0072 -0.451322 91.1793 3.36668 91.1793C3.36668 87.2674 0.270761 84.1046 -3.53821 84.1046L-3.54724 84.0953Z" fill="#F56D27"/>
</g>
<path d="M32.7244 98.7084C37.1114 97.4669 40.1987 94.7204 39.62 92.5739C39.0414 90.4274 35.016 89.6938 30.629 90.9352C26.242 92.1767 23.1547 94.9232 23.7334 97.0697C24.312 99.2162 28.3374 99.9499 32.7244 98.7084Z" fill="#C71E11"/>
<path d="M30.9231 93.14C30.9231 93.14 24.8847 95.1375 26.2205 98.3281C27.3668 100.094 31.1307 100.862 33.6219 99.891C36.113 98.9199 38.2522 96.9594 38.1349 94.3237C38.0175 92.696 35.057 91.5863 30.9231 93.14Z" fill="#FFF400"/>
<path d="M242.565 21.2833L243.043 19.7944C243.043 19.7944 240.787 16.1692 235.019 17.2512L234.144 18.8418L242.565 21.2833Z" fill="#C71E11"/>
<path d="M233.304 18.102L204.376 92.5665L220.253 97.0888L243.982 21.7087C243.982 21.7087 241.599 17.8985 233.304 18.102Z" fill="#EF4B23"/>
<mask id="mask2_2380_27190" style="mask-type:luminance" maskUnits="userSpaceOnUse" x="204" y="18" width="40" height="80">
<path d="M233.304 18.102L204.376 92.5665L220.253 97.0888L243.982 21.7087C243.982 21.7087 241.599 17.8985 233.304 18.102Z" fill="white"/>
</mask>
<g mask="url(#mask2_2380_27190)">
<path d="M212.996 20.3769C209.178 20.3769 206.082 17.2049 206.082 13.293C209.9 13.293 212.987 16.465 212.987 20.3677L212.996 20.3769Z" fill="#F56D27"/>
<path d="M206.082 13.293C206.082 17.2049 202.986 20.3769 199.168 20.3769C199.168 16.465 202.264 13.3022 206.073 13.3022L206.082 13.293Z" fill="#F56D27"/>
<path d="M206.091 27.4516C202.273 27.4516 199.186 24.2796 199.186 20.377C203.004 20.377 206.1 23.549 206.1 27.4609L206.091 27.4516Z" fill="#F56D27"/>
<path d="M206.091 27.4516C206.091 23.5397 209.187 20.3677 213.005 20.3677C213.005 24.2796 209.909 27.4424 206.1 27.4424L206.091 27.4516Z" fill="#F56D27"/>
<path d="M206.091 41.6103C206.091 37.6984 209.187 34.5264 213.005 34.5264C213.005 38.4383 209.909 41.6011 206.1 41.6011L206.091 41.6103Z" fill="#F56D27"/>
<path d="M212.996 34.5356C209.178 34.5356 206.082 31.3635 206.082 27.4517C209.9 27.4517 212.987 30.6237 212.987 34.5263L212.996 34.5356Z" fill="#F56D27"/>
<path d="M206.082 27.4517C206.082 31.3635 202.986 34.5356 199.168 34.5356C199.168 30.6237 202.264 27.4609 206.073 27.4609L206.082 27.4517Z" fill="#F56D27"/>
<path d="M206.091 41.6102C202.273 41.6102 199.186 38.4382 199.186 34.5355C203.004 34.5355 206.1 37.7076 206.1 41.6195L206.091 41.6102Z" fill="#F56D27"/>
<path d="M212.996 48.6942C209.178 48.6942 206.082 45.5221 206.082 41.6102C209.9 41.6102 212.987 44.7823 212.987 48.6849L212.996 48.6942Z" fill="#F56D27"/>
<path d="M206.091 55.7689C206.091 51.857 209.187 48.6849 213.005 48.6849C213.005 52.5968 209.909 55.7596 206.1 55.7596L206.091 55.7689Z" fill="#F56D27"/>
<path d="M206.091 55.7689C202.273 55.7689 199.186 52.5969 199.186 48.6942C203.004 48.6942 206.1 51.8663 206.1 55.7782L206.091 55.7689Z" fill="#F56D27"/>
<path d="M206.082 41.6102C206.082 45.5221 202.986 48.6942 199.168 48.6942C199.168 44.7823 202.264 41.6195 206.073 41.6195L206.082 41.6102Z" fill="#F56D27"/>
<path d="M206.091 69.9274C206.091 66.0156 209.187 62.8435 213.005 62.8435C213.005 66.7554 209.909 69.9182 206.1 69.9182L206.091 69.9274Z" fill="#F56D27"/>
<path d="M206.091 69.9275C202.273 69.9275 199.186 66.7554 199.186 62.8528C203.004 62.8528 206.1 66.0248 206.1 69.9367L206.091 69.9275Z" fill="#F56D27"/>
<path d="M212.996 62.8529C209.178 62.8529 206.082 59.6808 206.082 55.7689C209.9 55.7689 212.987 58.941 212.987 62.8436L212.996 62.8529Z" fill="#F56D27"/>
<path d="M206.082 55.7689C206.082 59.6808 202.986 62.8529 199.168 62.8529C199.168 58.941 202.264 55.7782 206.073 55.7782L206.082 55.7689Z" fill="#F56D27"/>
<path d="M206.082 69.9275C206.082 73.8394 202.986 77.0114 199.168 77.0114C199.168 73.0995 202.264 69.9367 206.073 69.9367L206.082 69.9275Z" fill="#F56D27"/>
<path d="M212.996 77.0114C209.178 77.0114 206.082 73.8394 206.082 69.9275C209.9 69.9275 212.987 73.0995 212.987 77.0022L212.996 77.0114Z" fill="#F56D27"/>
<path d="M206.091 84.0954C206.091 80.1835 209.187 77.0115 213.005 77.0115C213.005 80.9234 209.909 84.0862 206.1 84.0862L206.091 84.0954Z" fill="#F56D27"/>
<path d="M206.091 84.0953C202.273 84.0953 199.186 80.9233 199.186 77.0206C203.004 77.0206 206.1 80.1927 206.1 84.1046L206.091 84.0953Z" fill="#F56D27"/>
<path d="M206.091 98.254C206.091 94.3421 209.187 91.17 213.005 91.17C213.005 95.0819 209.909 98.2447 206.1 98.2447L206.091 98.254Z" fill="#F56D27"/>
<path d="M212.996 91.17C209.178 91.17 206.082 87.9979 206.082 84.0861C209.9 84.0861 212.987 87.2581 212.987 91.1608L212.996 91.17Z" fill="#F56D27"/>
<path d="M206.082 84.0953C206.082 88.0072 202.986 91.1793 199.168 91.1793C199.168 87.2674 202.264 84.1046 206.073 84.1046L206.082 84.0953Z" fill="#F56D27"/>
<path d="M206.091 98.254C202.273 98.254 199.186 95.082 199.186 91.1793C203.004 91.1793 206.1 94.3514 206.1 98.2632L206.091 98.254Z" fill="#F56D27"/>
<path d="M226.814 20.3769C222.996 20.3769 219.901 17.2049 219.901 13.293C223.719 13.293 226.805 16.465 226.805 20.3677L226.814 20.3769Z" fill="#F56D27"/>
<path d="M219.91 27.4516C216.092 27.4516 213.005 24.2796 213.005 20.377C216.823 20.377 219.919 23.549 219.919 27.4609L219.91 27.4516Z" fill="#F56D27"/>
<path d="M219.901 13.293C219.901 17.2049 216.805 20.3769 212.987 20.3769C212.987 16.465 216.083 13.3022 219.892 13.3022L219.901 13.293Z" fill="#F56D27"/>
<path d="M219.91 27.4516C219.91 23.5397 223.005 20.3677 226.823 20.3677C226.823 24.2796 223.728 27.4424 219.919 27.4424L219.91 27.4516Z" fill="#F56D27"/>
<path d="M226.814 34.5356C222.996 34.5356 219.901 31.3635 219.901 27.4517C223.719 27.4517 226.805 30.6237 226.805 34.5263L226.814 34.5356Z" fill="#F56D27"/>
<path d="M219.91 41.6102C216.092 41.6102 213.005 38.4382 213.005 34.5355C216.823 34.5355 219.919 37.7076 219.919 41.6195L219.91 41.6102Z" fill="#F56D27"/>
<path d="M219.91 27.4517C219.91 31.3635 216.814 34.5356 212.996 34.5356C212.996 30.6237 216.092 27.4609 219.901 27.4609L219.91 27.4517Z" fill="#F56D27"/>
<path d="M219.91 41.6103C219.91 37.6984 223.005 34.5264 226.823 34.5264C226.823 38.4383 223.728 41.6011 219.919 41.6011L219.91 41.6103Z" fill="#F56D27"/>
<path d="M219.91 55.7689C219.91 51.857 223.005 48.6849 226.823 48.6849C226.823 52.5968 223.728 55.7596 219.919 55.7596L219.91 55.7689Z" fill="#F56D27"/>
<path d="M219.91 55.7689C216.092 55.7689 213.005 52.5969 213.005 48.6942C216.823 48.6942 219.919 51.8663 219.919 55.7782L219.91 55.7689Z" fill="#F56D27"/>
<path d="M219.901 41.6102C219.901 45.5221 216.805 48.6942 212.987 48.6942C212.987 44.7823 216.083 41.6195 219.892 41.6195L219.901 41.6102Z" fill="#F56D27"/>
<path d="M226.814 48.6942C222.996 48.6942 219.901 45.5221 219.901 41.6102C223.719 41.6102 226.805 44.7823 226.805 48.6849L226.814 48.6942Z" fill="#F56D27"/>
<path d="M226.814 62.8529C222.996 62.8529 219.901 59.6808 219.901 55.7689C223.719 55.7689 226.805 58.941 226.805 62.8436L226.814 62.8529Z" fill="#F56D27"/>
<path d="M219.901 55.7689C219.901 59.6808 216.805 62.8529 212.987 62.8529C212.987 58.941 216.083 55.7782 219.892 55.7782L219.901 55.7689Z" fill="#F56D27"/>
<path d="M219.91 69.9274C219.91 66.0156 223.005 62.8435 226.823 62.8435C226.823 66.7554 223.728 69.9182 219.919 69.9182L219.91 69.9274Z" fill="#F56D27"/>
<path d="M219.91 69.9275C216.092 69.9275 213.005 66.7554 213.005 62.8528C216.823 62.8528 219.919 66.0248 219.919 69.9367L219.91 69.9275Z" fill="#F56D27"/>
<path d="M219.91 84.0954C219.91 80.1835 223.005 77.0115 226.823 77.0115C226.823 80.9234 223.728 84.0862 219.919 84.0862L219.91 84.0954Z" fill="#F56D27"/>
<path d="M226.814 77.0114C222.996 77.0114 219.901 73.8394 219.901 69.9275C223.719 69.9275 226.805 73.0995 226.805 77.0022L226.814 77.0114Z" fill="#F56D27"/>
<path d="M219.91 84.0953C216.092 84.0953 213.005 80.9233 213.005 77.0206C216.823 77.0206 219.919 80.1927 219.919 84.1046L219.91 84.0953Z" fill="#F56D27"/>
<path d="M219.91 69.9275C219.91 73.8394 216.814 77.0114 212.996 77.0114C212.996 73.0995 216.092 69.9367 219.901 69.9367L219.91 69.9275Z" fill="#F56D27"/>
<path d="M219.91 98.254C216.092 98.254 213.005 95.082 213.005 91.1793C216.823 91.1793 219.919 94.3514 219.919 98.2632L219.91 98.254Z" fill="#F56D27"/>
<path d="M219.91 98.254C219.91 94.3421 223.005 91.17 226.823 91.17C226.823 95.0819 223.728 98.2447 219.919 98.2447L219.91 98.254Z" fill="#F56D27"/>
<path d="M219.91 84.0953C219.91 88.0072 216.814 91.1793 212.996 91.1793C212.996 87.2674 216.092 84.1046 219.901 84.1046L219.91 84.0953Z" fill="#F56D27"/>
<path d="M226.814 91.17C222.996 91.17 219.901 87.9979 219.901 84.0861C223.719 84.0861 226.805 87.2581 226.805 91.1608L226.814 91.17Z" fill="#F56D27"/>
<path d="M233.728 27.4516C233.728 23.5397 236.824 20.3677 240.642 20.3677C240.642 24.2796 237.546 27.4424 233.737 27.4424L233.728 27.4516Z" fill="#F56D27"/>
<path d="M240.633 20.3769C236.815 20.3769 233.719 17.2049 233.719 13.293C237.537 13.293 240.624 16.465 240.624 20.3677L240.633 20.3769Z" fill="#F56D27"/>
<path d="M233.728 27.4516C229.91 27.4516 226.823 24.2796 226.823 20.377C230.641 20.377 233.737 23.549 233.737 27.4609L233.728 27.4516Z" fill="#F56D27"/>
<path d="M233.719 13.293C233.719 17.2049 230.623 20.3769 226.805 20.3769C226.805 16.465 229.901 13.3022 233.71 13.3022L233.719 13.293Z" fill="#F56D27"/>
<path d="M233.728 41.6102C229.91 41.6102 226.823 38.4382 226.823 34.5355C230.641 34.5355 233.737 37.7076 233.737 41.6195L233.728 41.6102Z" fill="#F56D27"/>
<path d="M233.728 27.4517C233.728 31.3635 230.632 34.5356 226.814 34.5356C226.814 30.6237 229.91 27.4609 233.719 27.4609L233.728 27.4517Z" fill="#F56D27"/>
<path d="M233.728 41.6103C233.728 37.6984 236.824 34.5264 240.642 34.5264C240.642 38.4383 237.546 41.6011 233.737 41.6011L233.728 41.6103Z" fill="#F56D27"/>
<path d="M240.633 34.5356C236.815 34.5356 233.719 31.3635 233.719 27.4517C237.537 27.4517 240.624 30.6237 240.624 34.5263L240.633 34.5356Z" fill="#F56D27"/>
<path d="M240.633 48.6942C236.815 48.6942 233.719 45.5221 233.719 41.6102C237.537 41.6102 240.624 44.7823 240.624 48.6849L240.633 48.6942Z" fill="#F56D27"/>
<path d="M233.728 55.7689C233.728 51.857 236.824 48.6849 240.642 48.6849C240.642 52.5968 237.546 55.7596 233.737 55.7596L233.728 55.7689Z" fill="#F56D27"/>
<path d="M233.728 55.7689C229.91 55.7689 226.823 52.5969 226.823 48.6942C230.641 48.6942 233.737 51.8663 233.737 55.7782L233.728 55.7689Z" fill="#F56D27"/>
<path d="M233.728 41.6102C233.728 45.5221 230.632 48.6942 226.814 48.6942C226.814 44.7823 229.91 41.6195 233.719 41.6195L233.728 41.6102Z" fill="#F56D27"/>
<path d="M233.728 69.9275C229.91 69.9275 226.823 66.7554 226.823 62.8528C230.641 62.8528 233.737 66.0248 233.737 69.9367L233.728 69.9275Z" fill="#F56D27"/>
<path d="M233.719 55.7689C233.719 59.6808 230.623 62.8529 226.805 62.8529C226.805 58.941 229.901 55.7782 233.71 55.7782L233.719 55.7689Z" fill="#F56D27"/>
<path d="M240.633 62.8529C236.815 62.8529 233.719 59.6808 233.719 55.7689C237.537 55.7689 240.624 58.941 240.624 62.8436L240.633 62.8529Z" fill="#F56D27"/>
<path d="M233.728 69.9274C233.728 66.0156 236.824 62.8435 240.642 62.8435C240.642 66.7554 237.546 69.9182 233.737 69.9182L233.728 69.9274Z" fill="#F56D27"/>
<path d="M233.728 84.0954C233.728 80.1835 236.824 77.0115 240.642 77.0115C240.642 80.9234 237.546 84.0862 233.737 84.0862L233.728 84.0954Z" fill="#F56D27"/>
<path d="M240.633 77.0114C236.815 77.0114 233.719 73.8394 233.719 69.9275C237.537 69.9275 240.624 73.0995 240.624 77.0022L240.633 77.0114Z" fill="#F56D27"/>
<path d="M233.728 69.9275C233.728 73.8394 230.632 77.0114 226.814 77.0114C226.814 73.0995 229.91 69.9367 233.719 69.9367L233.728 69.9275Z" fill="#F56D27"/>
<path d="M233.728 84.0953C229.91 84.0953 226.823 80.9233 226.823 77.0206C230.641 77.0206 233.737 80.1927 233.737 84.1046L233.728 84.0953Z" fill="#F56D27"/>
<path d="M233.728 98.254C233.728 94.3421 236.824 91.17 240.642 91.17C240.642 95.0819 237.546 98.2447 233.737 98.2447L233.728 98.254Z" fill="#F56D27"/>
<path d="M240.633 91.17C236.815 91.17 233.719 87.9979 233.719 84.0861C237.537 84.0861 240.624 87.2581 240.624 91.1608L240.633 91.17Z" fill="#F56D27"/>
<path d="M233.728 98.254C229.91 98.254 226.823 95.082 226.823 91.1793C230.641 91.1793 233.737 94.3514 233.737 98.2632L233.728 98.254Z" fill="#F56D27"/>
<path d="M233.728 84.0953C233.728 88.0072 230.632 91.1793 226.814 91.1793C226.814 87.2674 229.91 84.1046 233.719 84.1046L233.728 84.0953Z" fill="#F56D27"/>
<path d="M247.547 13.293C247.547 17.2049 244.451 20.3769 240.633 20.3769C240.633 16.465 243.729 13.3022 247.538 13.3022L247.547 13.293Z" fill="#F56D27"/>
<path d="M247.547 27.4516C243.729 27.4516 240.642 24.2796 240.642 20.377C244.46 20.377 247.556 23.549 247.556 27.4609L247.547 27.4516Z" fill="#F56D27"/>
<path d="M247.547 41.6102C243.729 41.6102 240.642 38.4382 240.642 34.5355C244.46 34.5355 247.556 37.7076 247.556 41.6195L247.547 41.6102Z" fill="#F56D27"/>
<path d="M247.547 27.4517C247.547 31.3635 244.451 34.5356 240.633 34.5356C240.633 30.6237 243.729 27.4609 247.538 27.4609L247.547 27.4517Z" fill="#F56D27"/>
<path d="M247.547 55.7689C243.729 55.7689 240.642 52.5969 240.642 48.6942C244.46 48.6942 247.556 51.8663 247.556 55.7782L247.547 55.7689Z" fill="#F56D27"/>
<path d="M247.547 41.6102C247.547 45.5221 244.451 48.6942 240.633 48.6942C240.633 44.7823 243.729 41.6195 247.538 41.6195L247.547 41.6102Z" fill="#F56D27"/>
<path d="M247.547 69.9275C243.729 69.9275 240.642 66.7554 240.642 62.8528C244.46 62.8528 247.556 66.0248 247.556 69.9367L247.547 69.9275Z" fill="#F56D27"/>
<path d="M247.547 55.7689C247.547 59.6808 244.451 62.8529 240.633 62.8529C240.633 58.941 243.729 55.7782 247.538 55.7782L247.547 55.7689Z" fill="#F56D27"/>
<path d="M247.547 84.0953C243.729 84.0953 240.642 80.9233 240.642 77.0206C244.46 77.0206 247.556 80.1927 247.556 84.1046L247.547 84.0953Z" fill="#F56D27"/>
<path d="M247.547 69.9275C247.547 73.8394 244.451 77.0114 240.633 77.0114C240.633 73.0995 243.729 69.9367 247.538 69.9367L247.547 69.9275Z" fill="#F56D27"/>
<path d="M247.547 98.254C243.729 98.254 240.642 95.082 240.642 91.1793C244.46 91.1793 247.556 94.3514 247.556 98.2632L247.547 98.254Z" fill="#F56D27"/>
<path d="M247.547 84.0953C247.547 88.0072 244.451 91.1793 240.633 91.1793C240.633 87.2674 243.729 84.1046 247.538 84.1046L247.547 84.0953Z" fill="#F56D27"/>
</g>
<path d="M220.263 97.0686C220.841 94.9221 217.754 92.1756 213.367 90.9342C208.98 89.6927 204.955 90.4264 204.376 92.5729C203.797 94.7194 206.885 97.4659 211.272 98.7073C215.659 99.9488 219.684 99.2151 220.263 97.0686Z" fill="#C71E11"/>
<path d="M213.068 93.14C213.068 93.14 219.106 95.1375 217.77 98.3281C216.624 100.094 212.86 100.862 210.369 99.891C207.878 98.9199 205.739 96.9594 205.856 94.3237C205.973 92.696 208.934 91.5863 213.068 93.14Z" fill="#FFF400"/>
<path d="M125.976 0.71582C68.8595 0.71582 24.3793 18.4626 12.799 23.5398L38.9112 90.7909C71.0799 79.5084 100.306 75.726 125.082 75.726C167.252 75.726 196.505 86.7033 205.206 90.4117L231.174 23.5398L231.3 23.2253C194.583 6.38482 158.28 0.71582 125.976 0.71582Z" stroke="black" stroke-width="0.924796" stroke-linecap="round" stroke-linejoin="round"/>
<path d="M125.814 9.53833C158.632 9.53833 189.826 16.1414 218.673 29.1625L199.61 80.1187C187.055 75.1803 160.699 66.9126 124.965 66.9126C98.2121 66.9126 71.2153 71.5736 44.6066 80.7661L25.3903 29.6526C40.6171 23.2623 78.7881 9.53833 125.814 9.53833Z" stroke="black" stroke-width="0.924796" stroke-linecap="round" stroke-linejoin="round"/>
<path d="M9.45025 18.102C5.01848 18.213 2.4912 19.5262 1.18243 20.5342L0.947754 19.7944C0.947754 19.7944 3.21328 16.1784 8.9809 17.2604C9.17947 17.6118 9.34194 17.8893 9.45025 18.102Z" stroke="black" stroke-width="0.924796" stroke-linecap="round" stroke-linejoin="round"/>
<path d="M39.4527 92.1781C39.218 91.725 38.8118 91.3458 38.2612 91.0407C37.5753 90.6707 36.6456 90.4488 35.5805 90.3748C34.1273 90.2638 32.4034 90.4395 30.6343 90.9389C26.2837 92.1597 23.2059 94.8878 23.7203 97.0148L0 21.718C0 21.718 0.333963 21.1908 1.18241 20.5342C2.48215 19.5262 5.01846 18.213 9.45023 18.102C9.84737 18.0928 10.2626 18.0928 10.6958 18.102L12.8079 23.5491L38.9201 90.8002L39.4527 92.1781Z" stroke="black" stroke-width="0.924796" stroke-linecap="round" stroke-linejoin="round"/>
<path d="M37.837 96.1455C38.0627 95.5813 38.1529 94.971 38.1349 94.3328C38.1078 93.9074 37.8731 93.5098 37.467 93.1861C36.3748 92.3076 33.9649 92.0024 30.9231 93.1491C30.9231 93.1491 27.3037 94.3421 26.3018 96.3674H26.2928C25.9949 96.9593 25.9227 97.6159 26.2296 98.3465C26.4372 98.6609 26.735 98.9476 27.087 99.2065C25.3179 98.9568 24.0453 98.2262 23.7384 97.098C23.7384 97.098 23.7354 97.0887 23.7294 97.0703C23.7294 97.0703 23.7203 97.0333 23.7203 97.024C23.2059 94.897 26.2747 92.1688 30.6343 90.9481C32.4034 90.4395 34.1273 90.2638 35.5805 90.384C36.6546 90.458 37.5753 90.6892 38.2612 91.0498C38.8118 91.355 39.218 91.7342 39.4527 92.1873L39.6151 92.5942C39.922 93.7132 39.209 94.9987 37.846 96.164L37.837 96.1455Z" stroke="black" stroke-width="0.924796" stroke-linecap="round" stroke-linejoin="round"/>
<path d="M38.1349 94.3329C38.162 94.9802 38.0627 95.5814 37.8371 96.1455H37.828C37.1782 97.8749 35.4993 99.1696 33.6309 99.9002C31.5911 100.695 28.7118 100.326 27.0961 99.1973H27.0871C26.7261 98.9476 26.4372 98.6517 26.2296 98.3373C25.9227 97.6067 25.9949 96.9501 26.2928 96.3582H26.3018C27.3127 94.3421 30.9231 93.1399 30.9231 93.1399C33.9649 91.9932 36.3749 92.2983 37.467 93.1769C37.8732 93.5006 38.1078 93.8982 38.1349 94.3236V94.3329Z" stroke="black" stroke-width="0.924796" stroke-linecap="round" stroke-linejoin="round"/>
<path d="M243.043 19.7944L242.809 20.5342C241.509 19.5262 238.972 18.213 234.541 18.102C234.649 17.8893 234.811 17.6118 235.01 17.2604C240.778 16.1784 243.043 19.7944 243.043 19.7944Z" stroke="black" stroke-width="0.924796" stroke-linecap="round" stroke-linejoin="round"/>
<path d="M220.271 97.0148C220.785 94.8878 217.716 92.1597 213.357 90.9389C211.588 90.4303 209.864 90.2546 208.41 90.3748C207.553 90.4395 206.795 90.5875 206.172 90.8557H206.163C206 90.9019 205.865 90.9667 205.73 91.0407C205.179 91.3458 204.773 91.725 204.538 92.1781L205.071 90.8002L205.215 90.421L231.183 23.5491L231.309 23.2346L233.304 18.102C233.737 18.0928 234.153 18.0928 234.55 18.102C238.982 18.213 241.509 19.5262 242.818 20.5342C243.666 21.1908 244 21.718 244 21.718L220.28 97.0148H220.271Z" stroke="black" stroke-width="0.924796" stroke-linecap="round" stroke-linejoin="round"/>
<path d="M220.271 97.0148C220.271 97.0148 220.262 97.0518 220.262 97.0611C220.262 97.0703 220.262 97.0703 220.253 97.0888C219.946 98.2078 218.682 98.9384 216.904 99.1973C217.265 98.9476 217.554 98.6517 217.761 98.3373C218.068 97.6067 217.996 96.9501 217.698 96.3582H217.689C216.678 94.3422 213.068 93.1399 213.068 93.1399C210.026 91.9932 207.616 92.2984 206.524 93.1769C206.118 93.5006 205.883 93.8983 205.856 94.3237C205.829 94.971 205.928 95.5721 206.154 96.1363C204.791 94.9803 204.078 93.6948 204.385 92.5666L204.547 92.1596C204.782 91.7065 205.188 91.3273 205.739 91.0221C205.874 90.9482 206.01 90.8834 206.172 90.8372H206.181C206.813 90.569 207.562 90.421 208.419 90.3563C209.873 90.2453 211.597 90.421 213.366 90.9204C217.716 92.1411 220.794 94.8693 220.28 96.9963L220.271 97.0148Z" stroke="black" stroke-width="0.924796" stroke-linecap="round" stroke-linejoin="round"/>
<path d="M217.761 98.3373C217.554 98.6517 217.256 98.9384 216.904 99.1973H216.895C215.279 100.335 212.409 100.696 210.36 99.9002C208.492 99.1696 206.813 97.8749 206.163 96.1455H206.154C205.928 95.5814 205.838 94.971 205.856 94.3329C205.883 93.9075 206.118 93.5099 206.524 93.1862C207.616 92.3076 210.026 92.0024 213.068 93.1492C213.068 93.1492 216.687 94.3422 217.689 96.3675H217.698C217.996 96.9593 218.068 97.6159 217.761 98.3465V98.3373Z" stroke="black" stroke-width="0.924796" stroke-linecap="round" stroke-linejoin="round"/>
</svg>
