<svg xmlns="http://www.w3.org/2000/svg" width="244" height="101" fill="none" viewBox="0 0 244 101">
  <path fill="#D61313" d="M125.976.716C59.301.716 9.847 24.899 9.847 24.899L36.14 91.8c33.252-12.05 63.462-16.055 88.951-16.055 50.763 0 82.805 15.907 82.805 15.907l26.239-67.103C196.46 6.69 159.092.716 125.967.725z"/>
  <g style="mix-blend-mode:multiply">
    <mask id="a" width="226" height="92" x="9" y="0" maskUnits="userSpaceOnUse" style="mask-type:luminance">
      <path fill="#fff" d="M125.976.716C59.301.716 9.847 24.899 9.847 24.899L36.14 91.8c33.252-12.05 63.462-16.055 88.951-16.055 50.763 0 82.805 15.907 82.805 15.907l26.239-67.103C196.46 6.69 159.092.716 125.967.725z"/>
    </mask>
    <g fill="#F56D27" mask="url(#a)">
      <path d="M9.847 85.686c4.983 0 9.026 4.143 9.026 9.248-4.982 0-9.026-4.143-9.026-9.248m18.053 0c0 5.105-4.044 9.248-9.027 9.248 0-5.105 4.044-9.248 9.026-9.248m.001 0c-4.983 0-9.027-4.143-9.027-9.248 4.983 0 9.026 4.143 9.026 9.248"/>
      <path d="M18.873 76.438c0 5.105-4.043 9.248-9.026 9.248 0-5.105 4.044-9.248 9.026-9.248m27.078 9.248c0 5.105-4.043 9.248-9.026 9.248 0-5.105 4.044-9.248 9.026-9.248m0 0c-4.982 0-9.026-4.143-9.026-9.248 4.983 0 9.026 4.143 9.026 9.248m-9.026-9.248c0 5.105-4.043 9.248-9.026 9.248 0-5.105 4.044-9.248 9.026-9.248M27.9 85.686c4.982 0 9.025 4.143 9.025 9.248-4.982 0-9.026-4.143-9.026-9.248m36.104 0c0 5.105-4.043 9.248-9.026 9.248 0-5.105 4.044-9.248 9.026-9.248"/>
      <path d="M54.977 76.438c0 5.105-4.043 9.248-9.026 9.248 0-5.105 4.044-9.248 9.026-9.248m-9.026 9.248c4.983 0 9.026 4.143 9.026 9.248-4.982 0-9.026-4.143-9.026-9.248m18.052 0c-4.982 0-9.026-4.143-9.026-9.248 4.983 0 9.026 4.143 9.026 9.248m0 0c4.983 0 9.026 4.143 9.026 9.248-4.982 0-9.026-4.143-9.026-9.248m9.027-9.248c0 5.105-4.044 9.248-9.027 9.248 0-5.105 4.044-9.248 9.026-9.248m9.026 9.248c0 5.105-4.043 9.239-9.026 9.248 0-5.105 4.044-9.248 9.026-9.248"/>
      <path d="M82.055 85.686c-4.982 0-9.026-4.143-9.026-9.248 4.983 0 9.026 4.143 9.026 9.248m9.026-9.248c0 5.105-4.043 9.248-9.026 9.248 0-5.105 4.044-9.248 9.026-9.248m-9.026 9.248c4.983 0 9.026 4.143 9.026 9.248-4.982 0-9.017-4.143-9.026-9.248m18.052 0c0 5.105-4.043 9.248-9.026 9.248 0-5.105 4.044-9.248 9.026-9.248m0 0c-4.982 0-9.026-4.143-9.026-9.248 4.983 0 9.026 4.143 9.026 9.248m18.052 0c-4.982 0-9.026-4.143-9.026-9.248 4.983 0 9.026 4.143 9.026 9.248m-9.026-9.248c0 5.105-4.043 9.248-9.026 9.248 0-5.105 4.044-9.248 9.026-9.248m-9.026 9.248c4.983 0 9.026 4.143 9.026 9.248-4.982 0-9.026-4.143-9.026-9.248m18.052 0c0 5.105-4.043 9.248-9.026 9.248 0-5.105 4.044-9.248 9.026-9.248m9.026-9.248c0 5.105-4.043 9.248-9.026 9.248 0-5.105 4.044-9.248 9.026-9.248m9.026 9.248c-4.982 0-9.026-4.143-9.026-9.248 4.983 0 9.026 4.143 9.026 9.248m0 0c0 5.105-4.043 9.239-9.026 9.248 0-5.105 4.044-9.248 9.026-9.248m-18.052 0c4.983 0 9.026 4.143 9.026 9.248-4.982 0-9.026-4.143-9.026-9.248m36.104 0c-4.982 0-9.026-4.143-9.026-9.248 4.983 0 9.026 4.143 9.026 9.248m0 0c0 5.105-4.043 9.248-9.026 9.248 0-5.105 4.044-9.248 9.026-9.248"/>
      <path d="M145.237 76.438c0 5.105-4.043 9.248-9.026 9.248 0-5.105 4.044-9.248 9.026-9.248m-9.026 9.248c4.983 0 9.026 4.143 9.026 9.248-4.982 0-9.017-4.143-9.026-9.248m18.052 0c4.983 0 9.026 4.143 9.026 9.248-4.982 0-9.026-4.143-9.026-9.248m9.026-9.248c0 5.105-4.043 9.248-9.026 9.248 0-5.105 4.044-9.248 9.026-9.248m9.026 9.248c-4.982 0-9.026-4.143-9.026-9.248 4.983 0 9.026 4.143 9.026 9.248m0 0c0 5.105-4.043 9.248-9.026 9.248 0-5.105 4.044-9.248 9.026-9.248m18.052 0c-4.982 0-9.026-4.143-9.026-9.248 4.983 0 9.026 4.143 9.026 9.248"/>
      <path d="M181.341 76.438c0 5.105-4.043 9.248-9.026 9.248 0-5.105 4.044-9.248 9.026-9.248m-9.026 9.248c4.983 0 9.026 4.143 9.026 9.248-4.982 0-9.026-4.143-9.026-9.248"/>
      <path d="M190.367 85.686c0 5.105-4.043 9.248-9.026 9.248 0-5.105 4.044-9.248 9.026-9.248m9.026-9.248c0 5.105-4.043 9.248-9.026 9.248 0-5.105 4.044-9.248 9.026-9.248m9.026 9.248c0 5.105-4.043 9.248-9.026 9.248 0-5.105 4.044-9.248 9.026-9.248m0 0c-4.982 0-9.026-4.143-9.026-9.248 4.983 0 9.026 4.143 9.026 9.248m-18.052 0c4.983 0 9.026 4.143 9.026 9.248-4.982 0-9.026-4.143-9.026-9.248m36.105 0c0 5.105-4.044 9.248-9.027 9.248 0-5.105 4.044-9.248 9.027-9.248m-18.053 0c4.983 0 9.026 4.143 9.026 9.248-4.982 0-9.026-4.143-9.026-9.248"/>
      <path d="M217.436 76.438c0 5.105-4.043 9.248-9.026 9.248 0-5.105 4.044-9.248 9.026-9.248m9.036 9.248c-4.983 0-9.027-4.143-9.027-9.248 4.983 0 9.027 4.143 9.027 9.248m-.001 0c4.983 0 9.027 4.143 9.027 9.248-4.983 0-9.027-4.143-9.027-9.248"/>
      <path d="M235.488 76.438c0 5.105-4.043 9.248-9.026 9.248 0-5.105 4.044-9.248 9.026-9.248M27.9 67.19c-4.983 0-9.027-4.143-9.027-9.248 4.983 0 9.026 4.143 9.026 9.248"/>
      <path d="M18.873 57.942c0 5.105-4.043 9.248-9.026 9.248 0-5.105 4.044-9.248 9.026-9.248M27.9 67.19c0 5.105-4.044 9.248-9.027 9.248 0-5.105 4.044-9.248 9.026-9.248m-18.052 0c4.983 0 9.026 4.143 9.026 9.248-4.982 0-9.026-4.143-9.026-9.248"/>
      <path d="M27.9 67.19c4.982 0 9.025 4.143 9.025 9.248-4.982 0-9.026-4.143-9.026-9.248m9.026-9.248c0 5.105-4.043 9.248-9.026 9.248 0-5.105 4.044-9.248 9.026-9.248m9.026 9.248c0 5.105-4.043 9.248-9.026 9.248 0-5.105 4.044-9.248 9.026-9.248m0 0c-4.982 0-9.026-4.143-9.026-9.248 4.983 0 9.026 4.143 9.026 9.248m0 0c4.983 0 9.026 4.143 9.026 9.248-4.982 0-9.026-4.143-9.026-9.248m18.052 0c0 5.105-4.043 9.248-9.026 9.248 0-5.105 4.044-9.248 9.026-9.248m0 0c-4.982 0-9.026-4.143-9.026-9.248 4.983 0 9.026 4.143 9.026 9.248"/>
      <path d="M54.977 57.942c0 5.105-4.043 9.248-9.026 9.248 0-5.105 4.044-9.248 9.026-9.248m18.053 0c0 5.105-4.044 9.248-9.027 9.248 0-5.105 4.044-9.248 9.026-9.248m9.026 9.248c0 5.105-4.043 9.248-9.026 9.248 0-5.105 4.044-9.248 9.026-9.248m-18.052 0c4.983 0 9.026 4.143 9.026 9.248-4.982 0-9.026-4.143-9.026-9.248"/>
      <path d="M82.055 67.19c-4.982 0-9.026-4.143-9.026-9.248 4.983 0 9.026 4.143 9.026 9.248m9.026-9.248c0 5.105-4.043 9.248-9.026 9.248 0-5.105 4.044-9.248 9.026-9.248m9.026 9.248c0 5.105-4.043 9.248-9.026 9.248 0-5.105 4.044-9.248 9.026-9.248m-18.052 0c4.983 0 9.026 4.143 9.026 9.248-4.982 0-9.026-4.143-9.026-9.248m18.052 0c-4.982 0-9.026-4.143-9.026-9.248 4.983 0 9.026 4.143 9.026 9.248m9.026-9.248c0 5.105-4.043 9.248-9.026 9.248 0-5.105 4.044-9.248 9.026-9.248m9.026 9.248c0 5.105-4.043 9.248-9.026 9.248 0-5.105 4.044-9.248 9.026-9.248m-18.052 0c4.983 0 9.026 4.143 9.026 9.248-4.982 0-9.026-4.143-9.026-9.248m18.052 0c-4.982 0-9.026-4.143-9.026-9.248 4.983 0 9.026 4.143 9.026 9.248m18.052 0c-4.982 0-9.026-4.143-9.026-9.248 4.983 0 9.026 4.143 9.026 9.248m0 0c0 5.105-4.043 9.248-9.026 9.248 0-5.105 4.044-9.248 9.026-9.248m-18.052 0c4.983 0 9.026 4.143 9.026 9.248-4.982 0-9.026-4.143-9.026-9.248m9.026-9.248c0 5.105-4.043 9.248-9.026 9.248 0-5.105 4.044-9.248 9.026-9.248m18.052 0c0 5.105-4.043 9.248-9.026 9.248 0-5.105 4.044-9.248 9.026-9.248m-9.026 9.248c4.983 0 9.026 4.143 9.026 9.248-4.982 0-9.026-4.143-9.026-9.248m18.052 0c-4.982 0-9.026-4.143-9.026-9.248 4.983 0 9.026 4.143 9.026 9.248m0 0c0 5.105-4.043 9.248-9.026 9.248 0-5.105 4.044-9.248 9.026-9.248m18.052 0c-4.982 0-9.026-4.143-9.026-9.248 4.983 0 9.026 4.143 9.026 9.248m-9.026-9.248c0 5.105-4.043 9.248-9.026 9.248 0-5.105 4.044-9.248 9.026-9.248m9.026 9.248c0 5.105-4.043 9.248-9.026 9.248 0-5.105 4.044-9.248 9.026-9.248"/>
      <path d="M154.263 67.19c4.983 0 9.026 4.143 9.026 9.248-4.982 0-9.026-4.143-9.026-9.248m36.104 0c0 5.105-4.043 9.248-9.026 9.248 0-5.105 4.044-9.248 9.026-9.248m0 0c-4.982 0-9.026-4.143-9.026-9.248 4.983 0 9.026 4.143 9.026 9.248"/>
      <path d="M172.315 67.19c4.983 0 9.026 4.143 9.026 9.248-4.982 0-9.026-4.143-9.026-9.248m9.026-9.248c0 5.105-4.043 9.248-9.026 9.248 0-5.105 4.044-9.248 9.026-9.248m18.043 0c0 5.105-4.043 9.248-9.026 9.248 0-5.105 4.044-9.248 9.026-9.248m-9.017 9.248c4.983 0 9.026 4.143 9.026 9.248-4.982 0-9.026-4.143-9.026-9.248m18.052 0c-4.982 0-9.026-4.143-9.026-9.248 4.983 0 9.026 4.143 9.026 9.248m0 0c0 5.105-4.043 9.248-9.026 9.248 0-5.105 4.044-9.248 9.026-9.248"/>
      <path d="M217.436 57.942c0 5.105-4.043 9.248-9.026 9.248 0-5.105 4.044-9.248 9.026-9.248m9.036 9.248c-4.983 0-9.027-4.143-9.027-9.248 4.983 0 9.027 4.143 9.027 9.248m0 0c0 5.105-4.044 9.248-9.027 9.248 0-5.105 4.044-9.248 9.027-9.248m-18.053 0c4.983 0 9.026 4.143 9.026 9.248-4.982 0-9.026-4.143-9.026-9.248"/>
      <path d="M226.471 67.19c4.983 0 9.027 4.143 9.027 9.248-4.983 0-9.027-4.143-9.027-9.248m9.017-9.248c0 5.105-4.043 9.248-9.026 9.248 0-5.105 4.044-9.248 9.026-9.248M27.9 48.694c-4.983 0-9.027-4.143-9.027-9.248 4.983 0 9.026 4.143 9.026 9.248m-9.026 9.248c-4.982 0-9.026-4.143-9.026-9.248 4.983 0 9.026 4.143 9.026 9.248"/>
      <path d="M18.873 39.446c0 5.105-4.043 9.248-9.026 9.248 0-5.105 4.044-9.248 9.026-9.248m9.027 9.248c0 5.105-4.044 9.248-9.027 9.248 0-5.105 4.044-9.248 9.026-9.248"/>
      <path d="M27.9 48.694c4.982 0 9.025 4.143 9.025 9.248-4.982 0-9.026-4.143-9.026-9.248m18.052 0c0 5.105-4.043 9.248-9.026 9.248 0-5.105 4.044-9.248 9.026-9.248m0 0c-4.982 0-9.026-4.143-9.026-9.248 4.983 0 9.026 4.143 9.026 9.248m-9.026-9.248c0 5.105-4.043 9.248-9.026 9.248 0-5.105 4.044-9.248 9.026-9.248m27.078 9.248c0 5.105-4.043 9.248-9.026 9.248 0-5.105 4.044-9.248 9.026-9.248"/>
      <path d="M54.977 39.446c0 5.105-4.043 9.248-9.026 9.248 0-5.105 4.044-9.248 9.026-9.248m9.026 9.248c-4.982 0-9.026-4.143-9.026-9.248 4.983 0 9.026 4.143 9.026 9.248m-18.052 0c4.983 0 9.026 4.143 9.026 9.248-4.982 0-9.026-4.143-9.026-9.248m36.104 0c-4.982 0-9.026-4.143-9.026-9.248 4.983 0 9.026 4.143 9.026 9.248"/>
      <path d="M73.03 39.446c0 5.105-4.044 9.248-9.027 9.248 0-5.105 4.044-9.248 9.026-9.248m-9.026 9.248c4.983 0 9.026 4.143 9.026 9.248-4.982 0-9.026-4.143-9.026-9.248m18.052 0c0 5.105-4.043 9.248-9.026 9.248 0-5.105 4.044-9.248 9.026-9.248m18.052 0c-4.982 0-9.026-4.143-9.026-9.248 4.983 0 9.026 4.143 9.026 9.248m-9.026-9.248c0 5.105-4.043 9.248-9.026 9.248 0-5.105 4.044-9.248 9.026-9.248m9.026 9.248c0 5.105-4.043 9.248-9.026 9.248 0-5.105 4.044-9.248 9.026-9.248m-18.052 0c4.983 0 9.026 4.143 9.026 9.248-4.982 0-9.026-4.143-9.026-9.248m36.104 0c0 5.105-4.043 9.248-9.026 9.248 0-5.105 4.044-9.248 9.026-9.248m-18.052 0c4.983 0 9.026 4.143 9.026 9.248-4.982 0-9.026-4.143-9.026-9.248m18.052 0c-4.982 0-9.026-4.143-9.026-9.248 4.983 0 9.026 4.143 9.026 9.248m-9.026-9.248c0 5.105-4.043 9.248-9.026 9.248 0-5.105 4.044-9.248 9.026-9.248m18.052 0c0 5.105-4.043 9.248-9.026 9.248 0-5.105 4.044-9.248 9.026-9.248m9.026 9.248c-4.982 0-9.026-4.143-9.026-9.248 4.983 0 9.026 4.143 9.026 9.248m0 0c0 5.105-4.043 9.248-9.026 9.248 0-5.105 4.044-9.248 9.026-9.248m-18.052 0c4.983 0 9.026 4.143 9.026 9.248-4.982 0-9.026-4.143-9.026-9.248m36.104 0c0 5.105-4.043 9.248-9.026 9.248 0-5.105 4.044-9.248 9.026-9.248"/>
      <path d="M136.211 48.694c4.983 0 9.026 4.143 9.026 9.248-4.982 0-9.026-4.143-9.026-9.248m9.026-9.248c0 5.105-4.043 9.248-9.026 9.248 0-5.105 4.044-9.248 9.026-9.248m9.026 9.248c-4.982 0-9.026-4.143-9.026-9.248 4.983 0 9.026 4.143 9.026 9.248m18.052 0c-4.982 0-9.026-4.143-9.026-9.248 4.983 0 9.026 4.143 9.026 9.248"/>
      <path d="M163.28 39.446c0 5.105-4.043 9.248-9.026 9.248 0-5.105 4.044-9.248 9.026-9.248m-9.017 9.248c4.983 0 9.026 4.143 9.026 9.248-4.982 0-9.026-4.143-9.026-9.248"/>
      <path d="M172.315 48.694c0 5.105-4.043 9.248-9.026 9.248 0-5.105 4.044-9.248 9.026-9.248m18.052 0c-4.982 0-9.026-4.143-9.026-9.248 4.983 0 9.026 4.143 9.026 9.248m-9.035-9.248c0 5.105-4.043 9.248-9.026 9.248 0-5.105 4.044-9.248 9.026-9.248m9.035 9.248c0 5.105-4.043 9.248-9.026 9.248 0-5.105 4.044-9.248 9.026-9.248"/>
      <path d="M172.315 48.694c4.983 0 9.026 4.143 9.026 9.248-4.982 0-9.026-4.143-9.026-9.248m18.052 0c4.983 0 9.026 4.143 9.026 9.248-4.982 0-9.026-4.143-9.026-9.248m18.052 0c-4.982 0-9.026-4.143-9.026-9.248 4.983 0 9.026 4.143 9.026 9.248m-9.035-9.248c0 5.105-4.043 9.248-9.026 9.248 0-5.105 4.044-9.248 9.026-9.248m9.035 9.248c0 5.105-4.043 9.248-9.026 9.248 0-5.105 4.044-9.248 9.026-9.248m0 0c4.983 0 9.026 4.143 9.026 9.248-4.982 0-9.026-4.143-9.026-9.248m18.053 0c0 5.105-4.044 9.248-9.027 9.248 0-5.105 4.044-9.248 9.027-9.248m0 0c-4.983 0-9.027-4.143-9.027-9.248 4.983 0 9.027 4.143 9.027 9.248"/>
      <path d="M217.436 39.446c0 5.105-4.043 9.248-9.026 9.248 0-5.105 4.044-9.248 9.026-9.248m18.052 0c0 5.105-4.043 9.248-9.026 9.248 0-5.105 4.044-9.248 9.026-9.248m-9.017 9.248c4.983 0 9.027 4.143 9.027 9.248-4.983 0-9.027-4.143-9.027-9.248M18.882 39.446c0-5.105 4.044-9.248 9.026-9.248 0 5.105-4.043 9.248-9.026 9.248m-.009 0c-4.982 0-9.026-4.143-9.026-9.248 4.983 0 9.026 4.143 9.026 9.248m0-18.496c0 5.105-4.043 9.248-9.026 9.248 0-5.105 4.044-9.248 9.026-9.248"/>
      <path d="M27.9 30.198c-4.983 0-9.027-4.143-9.027-9.248 4.983 0 9.026 4.143 9.026 9.248m18.052 0c-4.982 0-9.026-4.143-9.026-9.248 4.983 0 9.026 4.143 9.026 9.248m0 0c0 5.105-4.043 9.248-9.026 9.248 0-5.105 4.044-9.248 9.026-9.248m-9.026 9.248c-4.982 0-9.026-4.143-9.026-9.248 4.983 0 9.026 4.143 9.026 9.248"/>
      <path d="M36.925 20.95c0 5.105-4.043 9.248-9.026 9.248 0-5.105 4.044-9.248 9.026-9.248m18.052 0c0 5.105-4.043 9.248-9.026 9.248 0-5.105 4.044-9.248 9.026-9.248m-9.026 9.248c4.983 0 9.026 4.143 9.026 9.248-4.982 0-9.026-4.143-9.026-9.248m18.052 0c0 5.105-4.043 9.248-9.026 9.248 0-5.105 4.044-9.248 9.026-9.248m0 0c-4.982 0-9.026-4.143-9.026-9.248 4.983 0 9.026 4.143 9.026 9.248m18.052 0c-4.982 0-9.026-4.143-9.026-9.248 4.983 0 9.026 4.143 9.026 9.248m-18.052 0c4.983 0 9.026 4.143 9.026 9.248-4.982 0-9.026-4.143-9.026-9.248m18.052 0c0 5.105-4.043 9.248-9.026 9.248 0-5.105 4.044-9.248 9.026-9.248"/>
      <path d="M73.03 20.95c0 5.105-4.044 9.248-9.027 9.248 0-5.105 4.044-9.248 9.026-9.248m9.026 9.248c4.983 0 9.026 4.143 9.026 9.248-4.982 0-9.026-4.143-9.026-9.248m9.026-9.248c0 5.105-4.043 9.248-9.026 9.248 0-5.105 4.044-9.248 9.026-9.248m9.026 9.248c-4.982 0-9.026-4.143-9.026-9.248 4.983 0 9.026 4.143 9.026 9.248m0 0c0 5.105-4.043 9.248-9.026 9.248 0-5.105 4.044-9.248 9.026-9.248m18.052 0c0 5.105-4.043 9.248-9.026 9.248 0-5.105 4.044-9.248 9.026-9.248m-18.052 0c4.983 0 9.026 4.143 9.026 9.248-4.982 0-9.026-4.143-9.026-9.248m18.052 0c-4.982 0-9.026-4.143-9.026-9.248 4.983 0 9.026 4.143 9.026 9.248m-9.026-9.248c0 5.105-4.043 9.248-9.026 9.248 0-5.105 4.044-9.248 9.026-9.248m27.078 9.248c0 5.105-4.043 9.248-9.026 9.248 0-5.105 4.044-9.248 9.026-9.248m-18.052 0c4.983 0 9.026 4.143 9.026 9.248-4.982 0-9.026-4.143-9.026-9.248m18.052 0c-4.982 0-9.026-4.143-9.026-9.248 4.983 0 9.026 4.143 9.026 9.248m-9.026-9.248c0 5.105-4.043 9.248-9.026 9.248 0-5.105 4.044-9.248 9.026-9.248m18.052 0c0 5.105-4.043 9.248-9.026 9.248 0-5.105 4.044-9.248 9.026-9.248m9.026 9.248c0 5.105-4.043 9.248-9.026 9.248 0-5.105 4.044-9.248 9.026-9.248m0 0c-4.982 0-9.026-4.143-9.026-9.248 4.983 0 9.026 4.143 9.026 9.248"/>
      <path d="M136.211 30.198c4.983 0 9.026 4.143 9.026 9.248-4.982 0-9.026-4.143-9.026-9.248m27.078-9.248c0 5.105-4.043 9.248-9.026 9.248 0-5.105 4.044-9.248 9.026-9.248m9.026 9.248c0 5.105-4.043 9.248-9.026 9.248 0-5.105 4.044-9.248 9.026-9.248m0 0c-4.982 0-9.026-4.143-9.026-9.248 4.983 0 9.026 4.143 9.026 9.248m-18.052 0c4.983 0 9.026 4.143 9.026 9.248-4.982 0-9.026-4.143-9.026-9.248m36.104 0c0 5.105-4.043 9.248-9.026 9.248 0-5.105 4.044-9.248 9.026-9.248"/>
      <path d="M172.315 30.198c4.983 0 9.026 4.143 9.026 9.248-4.982 0-9.026-4.143-9.026-9.248m18.052 0c-4.982 0-9.026-4.143-9.026-9.248 4.983 0 9.026 4.143 9.026 9.248"/>
      <path d="M181.341 20.95c0 5.105-4.043 9.248-9.026 9.248 0-5.105 4.044-9.248 9.026-9.248m27.078 9.248c-4.982 0-9.026-4.143-9.026-9.248 4.983 0 9.026 4.143 9.026 9.248m0 0c0 5.105-4.043 9.248-9.026 9.248 0-5.105 4.044-9.248 9.026-9.248m-9.035-9.248c0 5.105-4.043 9.248-9.026 9.248 0-5.105 4.044-9.248 9.026-9.248m-9.017 9.248c4.983 0 9.026 4.143 9.026 9.248-4.982 0-9.026-4.143-9.026-9.248m36.095 0c0 5.105-4.043 9.248-9.026 9.248 0-5.105 4.044-9.248 9.026-9.248"/>
      <path d="M217.436 20.95c0 5.105-4.043 9.248-9.026 9.248 0-5.105 4.044-9.248 9.026-9.248m9.036 9.248c-4.983 0-9.027-4.143-9.027-9.248 4.983 0 9.027 4.143 9.027 9.248m-18.053 0c4.983 0 9.026 4.143 9.026 9.248-4.982 0-9.026-4.143-9.026-9.248"/>
      <path d="M235.488 20.95c0 5.105-4.043 9.248-9.026 9.248 0-5.105 4.044-9.248 9.026-9.248m-9.017 9.248c4.983 0 9.027 4.143 9.027 9.248-4.983 0-9.027-4.143-9.027-9.248M27.9 11.702c-4.983 0-9.027-4.143-9.027-9.248 4.983 0 9.026 4.144 9.026 9.248m-9.026 9.248c-4.982 0-9.026-4.143-9.026-9.248 4.983 0 9.026 4.143 9.026 9.248m0 0c0-5.104 4.044-9.248 9.026-9.248 0 5.105-4.043 9.248-9.026 9.248"/>
      <path d="M18.873 2.454c0 5.105-4.043 9.248-9.026 9.248 0-5.104 4.044-9.248 9.026-9.248M36.925 20.95c0-5.104 4.044-9.248 9.026-9.248 0 5.105-4.043 9.248-9.026 9.248m9.026-9.248c-4.982 0-9.026-4.143-9.026-9.248 4.983 0 9.026 4.144 9.026 9.248m-9.026 9.248c-4.982 0-9.026-4.143-9.026-9.248 4.983 0 9.026 4.143 9.026 9.248m0-18.496c0 5.105-4.043 9.248-9.026 9.248 0-5.104 4.044-9.248 9.026-9.248M54.977 20.95c-4.982 0-9.026-4.143-9.026-9.248 4.983 0 9.026 4.143 9.026 9.248m9.026-9.248c-4.982 0-9.026-4.143-9.026-9.248 4.983 0 9.026 4.144 9.026 9.248m0 0c0 5.105-4.043 9.248-9.026 9.248 0-5.104 4.044-9.248 9.026-9.248"/>
      <path d="M54.977 2.454c0 5.105-4.043 9.248-9.026 9.248 0-5.104 4.044-9.248 9.026-9.248m9.026 9.248c4.983 0 9.026 4.143 9.026 9.248-4.982 0-9.026-4.143-9.026-9.248m18.052 0c-4.982 0-9.026-4.143-9.026-9.248 4.983 0 9.026 4.144 9.026 9.248"/>
      <path d="M73.03 2.454c0 5.105-4.044 9.248-9.027 9.248 0-5.104 4.044-9.248 9.026-9.248m9.026 9.248c0 5.105-4.043 9.248-9.026 9.248 0-5.104 4.044-9.248 9.026-9.248m0 0c4.983 0 9.026 4.143 9.026 9.248-4.982 0-9.026-4.143-9.026-9.248m18.052 0c-4.982 0-9.026-4.143-9.026-9.248 4.983 0 9.026 4.144 9.026 9.248m0 0c0 5.105-4.043 9.248-9.026 9.248 0-5.104 4.044-9.248 9.026-9.248m-9.026-9.248c0 5.105-4.043 9.248-9.026 9.248 0-5.104 4.044-9.248 9.026-9.248m9.026 9.248c4.983 0 9.026 4.143 9.026 9.248-4.982 0-9.026-4.143-9.026-9.248m18.052 0c0 5.105-4.043 9.248-9.026 9.248 0-5.104 4.044-9.248 9.026-9.248m-9.026-9.248c0 5.105-4.043 9.248-9.026 9.248 0-5.104 4.044-9.248 9.026-9.248m9.026 9.248c-4.982 0-9.026-4.143-9.026-9.248 4.983 0 9.026 4.144 9.026 9.248m0 0c4.983 0 9.026 4.143 9.026 9.248-4.982 0-9.026-4.143-9.026-9.248m18.052 0c0 5.105-4.043 9.248-9.026 9.248 0-5.104 4.044-9.248 9.026-9.248m-9.026-9.248c0 5.105-4.043 9.248-9.026 9.248 0-5.104 4.044-9.248 9.026-9.248m9.026 9.248c-4.982 0-9.026-4.143-9.026-9.248 4.983 0 9.026 4.144 9.026 9.248m0 0c4.983 0 9.026 4.143 9.026 9.248-4.982 0-9.026-4.143-9.026-9.248m18.052 0c0 5.105-4.043 9.248-9.026 9.248 0-5.104 4.044-9.248 9.026-9.248m-9.026-9.248c0 5.105-4.043 9.248-9.026 9.248 0-5.104 4.044-9.248 9.026-9.248m9.026 9.248c-4.982 0-9.026-4.143-9.026-9.248 4.983 0 9.026 4.144 9.026 9.248m18.052 0c0 5.105-4.043 9.248-9.026 9.248 0-5.104 4.044-9.248 9.026-9.248m0 0c-4.982 0-9.026-4.143-9.026-9.248 4.983 0 9.026 4.144 9.026 9.248"/>
      <path d="M163.289 2.454c0 5.105-4.043 9.248-9.026 9.248 0-5.104 4.044-9.248 9.026-9.248m-9.026 9.248c4.983 0 9.026 4.143 9.026 9.248-4.982 0-9.026-4.143-9.026-9.248m27.069-9.248c0 5.105-4.043 9.248-9.026 9.248 0-5.104 4.044-9.248 9.026-9.248m9.035 9.248c0 5.105-4.043 9.248-9.026 9.248 0-5.104 4.044-9.248 9.026-9.248m0 0c-4.982 0-9.026-4.143-9.026-9.248 4.983 0 9.026 4.144 9.026 9.248"/>
      <path d="M172.315 11.702c4.983 0 9.026 4.143 9.026 9.248-4.982 0-9.026-4.143-9.026-9.248m36.104 0c-4.982 0-9.026-4.143-9.026-9.248 4.983 0 9.026 4.144 9.026 9.248m0 0c0 5.105-4.043 9.248-9.026 9.248 0-5.104 4.044-9.248 9.026-9.248m-9.035-9.248c0 5.105-4.043 9.248-9.026 9.248 0-5.104 4.044-9.248 9.026-9.248m-9.017 9.248c4.983 0 9.026 4.143 9.026 9.248-4.982 0-9.026-4.143-9.026-9.248m18.052 0c4.983 0 9.026 4.143 9.026 9.248-4.982 0-9.026-4.143-9.026-9.248"/>
      <path d="M217.436 2.454c0 5.105-4.043 9.248-9.026 9.248 0-5.104 4.044-9.248 9.026-9.248m.009 18.496c0-5.104 4.044-9.248 9.027-9.248 0 5.105-4.044 9.248-9.027 9.248m0-18.496c4.983 0 9.027 4.144 9.027 9.248-4.983 0-9.027-4.143-9.027-9.248"/>
      <path d="M226.471 11.702c4.983 0 9.027 4.143 9.027 9.248-4.983 0-9.027-4.143-9.027-9.248m9.017-9.248c0 5.105-4.043 9.248-9.026 9.248 0-5.104 4.044-9.248 9.026-9.248m-216.606.001c0-5.105 4.044-9.248 9.026-9.248 0 5.104-4.043 9.247-9.026 9.247m-.009.001c-4.982 0-9.026-4.144-9.026-9.248 4.983 0 9.026 4.143 9.026 9.247"/>
      <path d="M36.925 2.455c-4.982 0-9.026-4.144-9.026-9.248 4.983 0 9.026 4.143 9.026 9.247m0 .001c0-5.105 4.044-9.248 9.026-9.248 0 5.104-4.043 9.247-9.026 9.247m18.052.001c0-5.105 4.044-9.248 9.026-9.248 0 5.104-4.043 9.247-9.026 9.247m0 .001c-4.982 0-9.026-4.144-9.026-9.248 4.983 0 9.026 4.143 9.026 9.247m18.053.001c-4.983 0-9.027-4.144-9.027-9.248 4.983 0 9.026 4.143 9.026 9.247"/>
      <path d="M82.055-6.793c0 5.104-4.043 9.247-9.026 9.247 0-5.104 4.044-9.247 9.026-9.247m18.052 0c0 5.104-4.043 9.247-9.026 9.247 0-5.104 4.044-9.247 9.026-9.247m-18.052.009c4.983 0 9.026 4.143 9.026 9.248-4.982 0-9.026-4.143-9.026-9.248m36.104-.009c0 5.104-4.043 9.247-9.026 9.247 0-5.104 4.044-9.247 9.026-9.247m-18.052 0c4.983 0 9.026 4.143 9.026 9.247-4.982 0-9.026-4.143-9.026-9.247m18.052 0c4.983 0 9.026 4.143 9.026 9.247-4.982 0-9.026-4.143-9.026-9.247m18.052 0c0 5.104-4.043 9.247-9.026 9.247 0-5.104 4.044-9.247 9.026-9.247m0 .009c4.983 0 9.026 4.143 9.026 9.248-4.982 0-9.026-4.143-9.026-9.248m18.052-.009c0 5.104-4.043 9.247-9.026 9.247 0-5.104 4.044-9.247 9.026-9.247m18.052 0c0 5.104-4.043 9.247-9.026 9.247 0-5.104 4.044-9.247 9.026-9.247"/>
      <path d="M154.263-6.793c4.983 0 9.026 4.143 9.026 9.247-4.982 0-9.026-4.143-9.026-9.247m36.104 0c0 5.104-4.043 9.247-9.026 9.247 0-5.104 4.044-9.247 9.026-9.247"/>
      <path d="M172.315-6.793c4.983 0 9.026 4.143 9.026 9.247-4.982 0-9.026-4.143-9.026-9.247m27.078 9.248c0-5.105 4.044-9.248 9.026-9.248 0 5.104-4.043 9.247-9.026 9.247m-9.026-9.247c4.983 0 9.026 4.143 9.026 9.247-4.982 0-9.026-4.143-9.026-9.247m18.052 0c4.983 0 9.026 4.143 9.026 9.247-4.982 0-9.026-4.143-9.026-9.247m9.026 9.248c0-5.105 4.044-9.248 9.027-9.248 0 5.104-4.044 9.247-9.027 9.247"/>
      <path d="M226.471-6.793c4.983 0 9.027 4.143 9.027 9.247-4.983 0-9.027-4.143-9.027-9.247"/>
    </g>
  </g>
  <path stroke="#000" stroke-linecap="round" stroke-linejoin="round" stroke-width=".925" d="M125.813 9.538c32.819 0 64.013 6.603 92.86 19.624L199.61 80.12c-12.555-4.939-38.911-13.206-74.645-13.206-26.753 0-53.75 4.66-80.358 13.853L25.39 29.653c15.227-6.39 53.398-20.115 100.423-20.115"/>
  <path fill="#EF4B23" d="M125.813 9.538c32.819 0 64.013 6.603 92.86 19.624L199.61 80.12c-12.555-4.939-38.911-13.206-74.645-13.206-26.753 0-53.75 4.66-80.358 13.853L25.39 29.653c15.227-6.39 53.398-20.115 100.423-20.115"/>
  <path fill="#C71E11" d="m1.426 21.283-.478-1.489s2.256-3.625 8.024-2.543l.875 1.59z"/>
  <path fill="#EF4B23" d="m10.687 18.102 28.928 74.465-15.876 4.522-23.73-75.38s2.383-3.81 10.678-3.607"/>
  <mask id="b" width="40" height="80" x="0" y="18" maskUnits="userSpaceOnUse" style="mask-type:luminance">
    <path fill="#fff" d="m10.687 18.102 28.928 74.465-15.876 4.522-23.73-75.38s2.383-3.81 10.678-3.607"/>
  </mask>
  <g fill="#F56D27" mask="url(#b)">
    <path d="M30.995 20.377c3.818 0 6.914-3.172 6.914-7.084-3.818 0-6.905 3.172-6.905 7.075zm6.915-7.084c0 3.912 3.095 7.084 6.913 7.084 0-3.912-3.096-7.075-6.905-7.075zm0 14.159c3.817 0 6.904-3.172 6.904-7.075-3.818 0-6.914 3.172-6.914 7.084z"/>
    <path d="M37.91 27.452c0-3.912-3.097-7.084-6.915-7.084 0 3.912 3.096 7.074 6.905 7.074zm0 14.158c0-3.912-3.097-7.084-6.915-7.084 0 3.912 3.096 7.075 6.905 7.075z"/>
    <path d="M30.995 34.536c3.818 0 6.914-3.173 6.914-7.084-3.818 0-6.905 3.172-6.905 7.074zm6.915-7.084c0 3.911 3.095 7.084 6.913 7.084 0-3.912-3.096-7.075-6.905-7.075zm0 14.158c3.817 0 6.904-3.172 6.904-7.074-3.818 0-6.914 3.172-6.914 7.084z"/>
    <path d="M30.995 48.694c3.818 0 6.914-3.172 6.914-7.084-3.818 0-6.905 3.172-6.905 7.075z"/>
    <path d="M37.91 55.769c0-3.912-3.097-7.084-6.915-7.084 0 3.912 3.096 7.075 6.905 7.075z"/>
    <path d="M37.91 55.769c3.817 0 6.904-3.172 6.904-7.075-3.818 0-6.914 3.172-6.914 7.084z"/>
    <path d="M37.91 41.61c0 3.912 3.095 7.084 6.913 7.084 0-3.912-3.096-7.074-6.905-7.074zm0 28.317c0-3.911-3.097-7.084-6.915-7.084 0 3.912 3.096 7.075 6.905 7.075z"/>
    <path d="M37.91 69.928c3.817 0 6.904-3.173 6.904-7.075-3.818 0-6.914 3.172-6.914 7.084zm-6.915-7.075c3.818 0 6.914-3.172 6.914-7.084-3.818 0-6.905 3.172-6.905 7.075zm6.915-7.084c0 3.912 3.095 7.084 6.913 7.084 0-3.912-3.096-7.075-6.905-7.075z"/>
    <path d="M37.91 69.928c0 3.911 3.095 7.083 6.913 7.083 0-3.911-3.096-7.074-6.905-7.074zm-6.915 7.083c3.818 0 6.914-3.172 6.914-7.084-3.818 0-6.905 3.172-6.905 7.075zm6.915 7.084c0-3.912-3.097-7.084-6.915-7.084 0 3.912 3.096 7.075 6.905 7.075z"/>
    <path d="M37.91 84.095c3.817 0 6.904-3.172 6.904-7.074-3.818 0-6.914 3.172-6.914 7.084zm0 14.159c0-3.912-3.097-7.084-6.915-7.084 0 3.912 3.096 7.075 6.905 7.075z"/>
    <path d="M30.995 91.17c3.818 0 6.914-3.172 6.914-7.084-3.818 0-6.905 3.172-6.905 7.075zm6.915-7.075c0 3.912 3.095 7.084 6.913 7.084 0-3.912-3.096-7.074-6.905-7.074zm0 14.159c3.817 0 6.904-3.172 6.904-7.075-3.818 0-6.914 3.172-6.914 7.084zM17.177 20.377c3.817 0 6.913-3.172 6.913-7.084-3.818 0-6.904 3.172-6.904 7.075zm6.913 7.075c3.818 0 6.905-3.172 6.905-7.075-3.818 0-6.914 3.172-6.914 7.084zm0-14.159c0 3.912 3.096 7.084 6.914 7.084 0-3.912-3.096-7.075-6.905-7.075z"/>
    <path d="M24.09 27.452c0-3.912-3.096-7.084-6.913-7.084 0 3.912 3.095 7.074 6.904 7.074zm-6.913 7.084c3.817 0 6.913-3.173 6.913-7.084-3.818 0-6.904 3.172-6.904 7.074zm6.913 7.074c3.818 0 6.905-3.172 6.905-7.074-3.818 0-6.914 3.172-6.914 7.084zm0-14.158c0 3.911 3.096 7.084 6.914 7.084 0-3.912-3.096-7.075-6.905-7.075z"/>
    <path d="M24.09 41.61c0-3.912-3.096-7.084-6.913-7.084 0 3.912 3.095 7.075 6.904 7.075zm0 14.159c0-3.912-3.096-7.084-6.913-7.084 0 3.912 3.095 7.075 6.904 7.075z"/>
    <path d="M24.09 55.769c3.818 0 6.905-3.172 6.905-7.075-3.818 0-6.914 3.172-6.914 7.084z"/>
    <path d="M24.09 41.61c0 3.912 3.096 7.084 6.914 7.084 0-3.912-3.096-7.074-6.905-7.074zm-6.913 7.084c3.817 0 6.913-3.172 6.913-7.084-3.818 0-6.904 3.172-6.904 7.075zm0 14.159c3.817 0 6.913-3.172 6.913-7.084-3.818 0-6.904 3.172-6.904 7.075zm6.913-7.084c0 3.912 3.096 7.084 6.914 7.084 0-3.912-3.096-7.075-6.905-7.075z"/>
    <path d="M24.09 69.927c0-3.911-3.096-7.084-6.913-7.084 0 3.912 3.095 7.075 6.904 7.075z"/>
    <path d="M24.09 69.928c3.818 0 6.905-3.173 6.905-7.075-3.818 0-6.914 3.172-6.914 7.084zm0 14.167c0-3.912-3.096-7.084-6.913-7.084 0 3.912 3.095 7.075 6.904 7.075z"/>
    <path d="M17.177 77.011c3.817 0 6.913-3.172 6.913-7.084-3.818 0-6.904 3.172-6.904 7.075zm6.913 7.084c3.818 0 6.905-3.172 6.905-7.074-3.818 0-6.914 3.172-6.914 7.084zm0-14.167c0 3.911 3.096 7.083 6.914 7.083 0-3.911-3.096-7.074-6.905-7.074zm0 28.326c3.818 0 6.905-3.172 6.905-7.075-3.818 0-6.914 3.172-6.914 7.084z"/>
    <path d="M24.09 98.254c0-3.912-3.096-7.084-6.913-7.084 0 3.912 3.095 7.075 6.904 7.075zm0-14.159c0 3.912 3.096 7.084 6.914 7.084 0-3.912-3.096-7.074-6.905-7.074zm-6.913 7.075c3.817 0 6.913-3.172 6.913-7.084-3.818 0-6.904 3.172-6.904 7.075zm-6.905-63.718c0-3.912-3.096-7.084-6.914-7.084 0 3.912 3.096 7.074 6.905 7.074z"/>
    <path d="M3.358 20.377c3.818 0 6.914-3.172 6.914-7.084-3.818 0-6.905 3.172-6.905 7.075zm6.914 7.075c3.818 0 6.905-3.172 6.905-7.075-3.818 0-6.914 3.172-6.914 7.084zm0-14.159c0 3.912 3.095 7.084 6.914 7.084 0-3.912-3.096-7.075-6.905-7.075zm0 28.317c3.818 0 6.905-3.172 6.905-7.074-3.818 0-6.914 3.172-6.914 7.084z"/>
    <path d="M10.272 27.452c0 3.911 3.095 7.084 6.914 7.084 0-3.912-3.096-7.075-6.905-7.075zm0 14.158c0-3.912-3.096-7.084-6.914-7.084 0 3.912 3.096 7.075 6.905 7.075z"/>
    <path d="M3.358 34.536c3.818 0 6.914-3.173 6.914-7.084-3.818 0-6.905 3.172-6.905 7.074zm0 14.158c3.818 0 6.914-3.172 6.914-7.084-3.818 0-6.905 3.172-6.905 7.075z"/>
    <path d="M10.263 55.769c0-3.912-3.096-7.084-6.914-7.084 0 3.912 3.096 7.075 6.905 7.075zm.009 0c3.818 0 6.905-3.172 6.905-7.075-3.818 0-6.914 3.172-6.914 7.084z"/>
    <path d="M10.272 41.61c0 3.912 3.095 7.084 6.914 7.084 0-3.912-3.096-7.074-6.905-7.074zm0 28.318c3.818 0 6.905-3.173 6.905-7.075-3.818 0-6.914 3.172-6.914 7.084zm0-14.159c0 3.912 3.095 7.084 6.914 7.084 0-3.912-3.096-7.075-6.905-7.075z"/>
    <path d="M3.358 62.853c3.818 0 6.914-3.172 6.914-7.084-3.818 0-6.905 3.172-6.905 7.075z"/>
    <path d="M10.272 69.927c0-3.911-3.096-7.084-6.914-7.084 0 3.912 3.096 7.075 6.905 7.075zm0 14.168c0-3.912-3.096-7.084-6.914-7.084 0 3.912 3.096 7.075 6.905 7.075z"/>
    <path d="M3.358 77.011c3.818 0 6.914-3.172 6.914-7.084-3.818 0-6.905 3.172-6.905 7.075zm6.914-7.083c0 3.911 3.095 7.083 6.914 7.083 0-3.911-3.096-7.074-6.905-7.074zm0 14.167c3.818 0 6.905-3.172 6.905-7.074-3.818 0-6.914 3.172-6.914 7.084zm0 14.159c0-3.912-3.096-7.084-6.914-7.084 0 3.912 3.096 7.075 6.905 7.075z"/>
    <path d="M3.358 91.17c3.818 0 6.914-3.172 6.914-7.084-3.818 0-6.905 3.172-6.905 7.075zm6.914 7.084c3.818 0 6.905-3.172 6.905-7.075-3.818 0-6.914 3.172-6.914 7.084zm0-14.159c0 3.912 3.095 7.084 6.914 7.084 0-3.912-3.096-7.074-6.905-7.074zM-3.547 13.293c0 3.912 3.096 7.084 6.914 7.084 0-3.912-3.096-7.075-6.905-7.075zm0 14.159c3.818 0 6.905-3.172 6.905-7.075-3.818 0-6.914 3.172-6.914 7.084zm0 14.158c3.818 0 6.905-3.172 6.905-7.074-3.818 0-6.914 3.172-6.914 7.084z"/>
    <path d="M-3.547 27.452c0 3.911 3.096 7.084 6.914 7.084 0-3.912-3.096-7.075-6.905-7.075zm0 28.317c3.818 0 6.905-3.172 6.905-7.075-3.818 0-6.914 3.172-6.914 7.084z"/>
    <path d="M-3.547 41.61c0 3.912 3.096 7.084 6.914 7.084 0-3.912-3.096-7.074-6.905-7.074zm0 28.318c3.818 0 6.905-3.173 6.905-7.075-3.818 0-6.914 3.172-6.914 7.084zm0-14.159c0 3.912 3.096 7.084 6.914 7.084 0-3.912-3.096-7.075-6.905-7.075zm0 28.326c3.818 0 6.905-3.172 6.905-7.074-3.818 0-6.914 3.172-6.914 7.084z"/>
    <path d="M-3.547 69.928c0 3.911 3.096 7.083 6.914 7.083 0-3.911-3.096-7.074-6.905-7.074zm0 28.326c3.818 0 6.905-3.172 6.905-7.075-3.818 0-6.914 3.172-6.914 7.084zm0-14.159c0 3.912 3.096 7.084 6.914 7.084 0-3.912-3.096-7.074-6.905-7.074z"/>
  </g>
  <path fill="#C71E11" d="M32.724 98.708c4.387-1.241 7.475-3.988 6.896-6.134s-4.604-2.88-8.991-1.639c-4.387 1.242-7.474 3.988-6.896 6.135s4.604 2.88 8.991 1.638"/>
  <path fill="#FFF400" d="M30.923 93.14s-6.038 1.998-4.702 5.188c1.146 1.766 4.91 2.534 7.4 1.563 2.492-.971 4.631-2.932 4.514-5.567-.117-1.628-3.078-2.738-7.212-1.184"/>
  <path fill="#C71E11" d="m242.565 21.283.478-1.489s-2.256-3.625-8.024-2.543l-.875 1.59z"/>
  <path fill="#EF4B23" d="m233.304 18.102-28.928 74.465 15.877 4.522 23.729-75.38s-2.383-3.81-10.678-3.607"/>
  <mask id="c" width="40" height="80" x="204" y="18" maskUnits="userSpaceOnUse" style="mask-type:luminance">
    <path fill="#fff" d="m233.304 18.102-28.928 74.465 15.877 4.522 23.729-75.38s-2.383-3.81-10.678-3.607"/>
  </mask>
  <g fill="#F56D27" mask="url(#c)">
    <path d="M212.996 20.377c-3.818 0-6.914-3.172-6.914-7.084 3.818 0 6.905 3.172 6.905 7.075zm-6.914-7.084c0 3.912-3.096 7.084-6.914 7.084 0-3.912 3.096-7.075 6.905-7.075zm.009 14.159c-3.818 0-6.905-3.172-6.905-7.075 3.818 0 6.914 3.172 6.914 7.084z"/>
    <path d="M206.091 27.452c0-3.912 3.096-7.084 6.914-7.084 0 3.912-3.096 7.074-6.905 7.074zm0 14.158c0-3.912 3.096-7.084 6.914-7.084 0 3.912-3.096 7.075-6.905 7.075z"/>
    <path d="M212.996 34.536c-3.818 0-6.914-3.173-6.914-7.084 3.818 0 6.905 3.172 6.905 7.074zm-6.914-7.084c0 3.911-3.096 7.084-6.914 7.084 0-3.912 3.096-7.075 6.905-7.075zm.009 14.158c-3.818 0-6.905-3.172-6.905-7.074 3.818 0 6.914 3.172 6.914 7.084z"/>
    <path d="M212.996 48.694c-3.818 0-6.914-3.172-6.914-7.084 3.818 0 6.905 3.172 6.905 7.075z"/>
    <path d="M206.091 55.769c0-3.912 3.096-7.084 6.914-7.084 0 3.912-3.096 7.075-6.905 7.075z"/>
    <path d="M206.091 55.769c-3.818 0-6.905-3.172-6.905-7.075 3.818 0 6.914 3.172 6.914 7.084z"/>
    <path d="M206.082 41.61c0 3.912-3.096 7.084-6.914 7.084 0-3.912 3.096-7.074 6.905-7.074zm.009 28.317c0-3.911 3.096-7.084 6.914-7.084 0 3.912-3.096 7.075-6.905 7.075z"/>
    <path d="M206.091 69.928c-3.818 0-6.905-3.173-6.905-7.075 3.818 0 6.914 3.172 6.914 7.084zm6.905-7.075c-3.818 0-6.914-3.172-6.914-7.084 3.818 0 6.905 3.172 6.905 7.075zm-6.914-7.084c0 3.912-3.096 7.084-6.914 7.084 0-3.912 3.096-7.075 6.905-7.075z"/>
    <path d="M206.082 69.928c0 3.911-3.096 7.083-6.914 7.083 0-3.911 3.096-7.074 6.905-7.074zm6.914 7.083c-3.818 0-6.914-3.172-6.914-7.084 3.818 0 6.905 3.172 6.905 7.075zm-6.905 7.084c0-3.912 3.096-7.084 6.914-7.084 0 3.912-3.096 7.075-6.905 7.075z"/>
    <path d="M206.091 84.095c-3.818 0-6.905-3.172-6.905-7.074 3.818 0 6.914 3.172 6.914 7.084zm0 14.159c0-3.912 3.096-7.084 6.914-7.084 0 3.912-3.096 7.075-6.905 7.075z"/>
    <path d="M212.996 91.17c-3.818 0-6.914-3.172-6.914-7.084 3.818 0 6.905 3.172 6.905 7.075zm-6.914-7.075c0 3.912-3.096 7.084-6.914 7.084 0-3.912 3.096-7.074 6.905-7.074zm.009 14.159c-3.818 0-6.905-3.172-6.905-7.075 3.818 0 6.914 3.172 6.914 7.084zm20.723-77.877c-3.818 0-6.913-3.172-6.913-7.084 3.818 0 6.904 3.172 6.904 7.075zm-6.904 7.075c-3.818 0-6.905-3.172-6.905-7.075 3.818 0 6.914 3.172 6.914 7.084z"/>
    <path d="M219.901 13.293c0 3.912-3.096 7.084-6.914 7.084 0-3.912 3.096-7.075 6.905-7.075zm.009 14.159c0-3.912 3.095-7.084 6.913-7.084 0 3.912-3.095 7.074-6.904 7.074zm6.904 7.084c-3.818 0-6.913-3.173-6.913-7.084 3.818 0 6.904 3.172 6.904 7.074zm-6.904 7.074c-3.818 0-6.905-3.172-6.905-7.074 3.818 0 6.914 3.172 6.914 7.084z"/>
    <path d="M219.91 27.452c0 3.911-3.096 7.084-6.914 7.084 0-3.912 3.096-7.075 6.905-7.075zm0 14.158c0-3.912 3.095-7.084 6.913-7.084 0 3.912-3.095 7.075-6.904 7.075zm0 14.159c0-3.912 3.095-7.084 6.913-7.084 0 3.912-3.095 7.075-6.904 7.075z"/>
    <path d="M219.91 55.769c-3.818 0-6.905-3.172-6.905-7.075 3.818 0 6.914 3.172 6.914 7.084z"/>
    <path d="M219.901 41.61c0 3.912-3.096 7.084-6.914 7.084 0-3.912 3.096-7.074 6.905-7.074z"/>
    <path d="M226.814 48.694c-3.818 0-6.913-3.172-6.913-7.084 3.818 0 6.904 3.172 6.904 7.075zm0 14.159c-3.818 0-6.913-3.172-6.913-7.084 3.818 0 6.904 3.172 6.904 7.075z"/>
    <path d="M219.901 55.769c0 3.912-3.096 7.084-6.914 7.084 0-3.912 3.096-7.075 6.905-7.075zm.009 14.158c0-3.911 3.095-7.084 6.913-7.084 0 3.912-3.095 7.075-6.904 7.075z"/>
    <path d="M219.91 69.928c-3.818 0-6.905-3.173-6.905-7.075 3.818 0 6.914 3.172 6.914 7.084zm0 14.167c0-3.912 3.095-7.084 6.913-7.084 0 3.912-3.095 7.075-6.904 7.075z"/>
    <path d="M226.814 77.011c-3.818 0-6.913-3.172-6.913-7.084 3.818 0 6.904 3.172 6.904 7.075zm-6.904 7.084c-3.818 0-6.905-3.172-6.905-7.074 3.818 0 6.914 3.172 6.914 7.084z"/>
    <path d="M219.91 69.928c0 3.911-3.096 7.083-6.914 7.083 0-3.911 3.096-7.074 6.905-7.074zm0 28.326c-3.818 0-6.905-3.172-6.905-7.075 3.818 0 6.914 3.172 6.914 7.084z"/>
    <path d="M219.91 98.254c0-3.912 3.095-7.084 6.913-7.084 0 3.912-3.095 7.075-6.904 7.075zm0-14.159c0 3.912-3.096 7.084-6.914 7.084 0-3.912 3.096-7.074 6.905-7.074z"/>
    <path d="M226.814 91.17c-3.818 0-6.913-3.172-6.913-7.084 3.818 0 6.904 3.172 6.904 7.075zm6.914-63.718c0-3.912 3.096-7.084 6.914-7.084 0 3.912-3.096 7.074-6.905 7.074z"/>
    <path d="M240.633 20.377c-3.818 0-6.914-3.172-6.914-7.084 3.818 0 6.905 3.172 6.905 7.075zm-6.905 7.075c-3.818 0-6.905-3.172-6.905-7.075 3.818 0 6.914 3.172 6.914 7.084zm-.009-14.159c0 3.912-3.096 7.084-6.914 7.084 0-3.912 3.096-7.075 6.905-7.075zm.009 28.317c-3.818 0-6.905-3.172-6.905-7.074 3.818 0 6.914 3.172 6.914 7.084z"/>
    <path d="M233.728 27.452c0 3.911-3.096 7.084-6.914 7.084 0-3.912 3.096-7.075 6.905-7.075zm0 14.158c0-3.912 3.096-7.084 6.914-7.084 0 3.912-3.096 7.075-6.905 7.075z"/>
    <path d="M240.633 34.536c-3.818 0-6.914-3.173-6.914-7.084 3.818 0 6.905 3.172 6.905 7.074zm0 14.158c-3.818 0-6.914-3.172-6.914-7.084 3.818 0 6.905 3.172 6.905 7.075z"/>
    <path d="M233.728 55.769c0-3.912 3.096-7.084 6.914-7.084 0 3.912-3.096 7.075-6.905 7.075z"/>
    <path d="M233.728 55.769c-3.818 0-6.905-3.172-6.905-7.075 3.818 0 6.914 3.172 6.914 7.084z"/>
    <path d="M233.728 41.61c0 3.912-3.096 7.084-6.914 7.084 0-3.912 3.096-7.074 6.905-7.074zm0 28.318c-3.818 0-6.905-3.173-6.905-7.075 3.818 0 6.914 3.172 6.914 7.084zm-.009-14.159c0 3.912-3.096 7.084-6.914 7.084 0-3.912 3.096-7.075 6.905-7.075zm6.914 7.084c-3.818 0-6.914-3.172-6.914-7.084 3.818 0 6.905 3.172 6.905 7.075z"/>
    <path d="M233.728 69.927c0-3.911 3.096-7.084 6.914-7.084 0 3.912-3.096 7.075-6.905 7.075zm0 14.168c0-3.912 3.096-7.084 6.914-7.084 0 3.912-3.096 7.075-6.905 7.075z"/>
    <path d="M240.633 77.011c-3.818 0-6.914-3.172-6.914-7.084 3.818 0 6.905 3.172 6.905 7.075z"/>
    <path d="M233.728 69.928c0 3.911-3.096 7.083-6.914 7.083 0-3.911 3.096-7.074 6.905-7.074zm0 14.167c-3.818 0-6.905-3.172-6.905-7.074 3.818 0 6.914 3.172 6.914 7.084zm0 14.159c0-3.912 3.096-7.084 6.914-7.084 0 3.912-3.096 7.075-6.905 7.075z"/>
    <path d="M240.633 91.17c-3.818 0-6.914-3.172-6.914-7.084 3.818 0 6.905 3.172 6.905 7.075zm-6.905 7.084c-3.818 0-6.905-3.172-6.905-7.075 3.818 0 6.914 3.172 6.914 7.084z"/>
    <path d="M233.728 84.095c0 3.912-3.096 7.084-6.914 7.084 0-3.912 3.096-7.074 6.905-7.074zm13.819-70.802c0 3.912-3.096 7.084-6.914 7.084 0-3.912 3.096-7.075 6.905-7.075zm0 14.159c-3.818 0-6.905-3.172-6.905-7.075 3.818 0 6.914 3.172 6.914 7.084zm0 14.158c-3.818 0-6.905-3.172-6.905-7.074 3.818 0 6.914 3.172 6.914 7.084z"/>
    <path d="M247.547 27.452c0 3.911-3.096 7.084-6.914 7.084 0-3.912 3.096-7.075 6.905-7.075zm0 28.317c-3.818 0-6.905-3.172-6.905-7.075 3.818 0 6.914 3.172 6.914 7.084z"/>
    <path d="M247.547 41.61c0 3.912-3.096 7.084-6.914 7.084 0-3.912 3.096-7.074 6.905-7.074zm0 28.318c-3.818 0-6.905-3.173-6.905-7.075 3.818 0 6.914 3.172 6.914 7.084zm0-14.159c0 3.912-3.096 7.084-6.914 7.084 0-3.912 3.096-7.075 6.905-7.075zm0 28.326c-3.818 0-6.905-3.172-6.905-7.074 3.818 0 6.914 3.172 6.914 7.084z"/>
    <path d="M247.547 69.928c0 3.911-3.096 7.083-6.914 7.083 0-3.911 3.096-7.074 6.905-7.074zm0 28.326c-3.818 0-6.905-3.172-6.905-7.075 3.818 0 6.914 3.172 6.914 7.084zm0-14.159c0 3.912-3.096 7.084-6.914 7.084 0-3.912 3.096-7.074 6.905-7.074z"/>
  </g>
  <path fill="#C71E11" d="M220.263 97.069c.578-2.147-2.509-4.893-6.896-6.135s-8.412-.508-8.991 1.639c-.579 2.146 2.509 4.893 6.896 6.134s8.412.508 8.991-1.638"/>
  <path fill="#FFF400" d="M213.068 93.14s6.038 1.998 4.702 5.188c-1.146 1.766-4.91 2.534-7.401 1.563s-4.63-2.932-4.513-5.567c.117-1.628 3.078-2.738 7.212-1.184"/>
  <path stroke="#000" stroke-linecap="round" stroke-linejoin="round" stroke-width=".925" d="M125.976.716C68.86.716 24.379 18.463 12.799 23.54l26.112 67.25c32.169-11.282 61.395-15.064 86.171-15.064 42.17 0 71.423 10.977 80.124 14.686l25.968-66.872.126-.315C194.583 6.385 158.28.715 125.976.715"/>
  <path stroke="#000" stroke-linecap="round" stroke-linejoin="round" stroke-width=".925" d="M125.814 9.538c32.818 0 64.012 6.603 92.859 19.624L199.61 80.12c-12.555-4.939-38.911-13.206-74.645-13.206-26.753 0-53.75 4.66-80.358 13.853L25.39 29.653c15.227-6.39 53.398-20.115 100.424-20.115M9.45 18.102c-4.432.111-6.959 1.424-8.268 2.432l-.234-.74s2.265-3.616 8.033-2.534c.198.352.36.63.47.842"/>
  <path stroke="#000" stroke-linecap="round" stroke-linejoin="round" stroke-width=".925" d="M39.453 92.178c-.235-.453-.641-.832-1.192-1.137-.686-.37-1.615-.592-2.68-.666-1.454-.111-3.178.064-4.947.564-4.35 1.22-7.428 3.949-6.914 6.076L0 21.718s.334-.527 1.182-1.184c1.3-1.008 3.836-2.321 8.268-2.432q.596-.015 1.246 0l2.112 5.447L38.92 90.8z"/>
  <path stroke="#000" stroke-linecap="round" stroke-linejoin="round" stroke-width=".925" d="M37.837 96.146a4.5 4.5 0 0 0 .298-1.813c-.027-.426-.262-.823-.668-1.147-1.092-.878-3.502-1.184-6.544-.037 0 0-3.62 1.193-4.621 3.218h-.01a2.26 2.26 0 0 0-.062 1.98c.207.314.505.6.857.86-1.77-.25-3.042-.98-3.349-2.109l-.009-.028s-.009-.037-.009-.046c-.514-2.127 2.555-4.855 6.914-6.076 1.77-.508 3.493-.684 4.947-.564 1.074.074 1.994.305 2.68.666.55.305.957.684 1.192 1.137l.162.407c.307 1.12-.406 2.405-1.769 3.57z"/>
  <path stroke="#000" stroke-linecap="round" stroke-linejoin="round" stroke-width=".925" d="M38.135 94.333a4.3 4.3 0 0 1-.298 1.813h-.009c-.65 1.729-2.329 3.024-4.197 3.754-2.04.795-4.92.426-6.535-.703h-.009a3.2 3.2 0 0 1-.857-.86c-.307-.73-.235-1.387.063-1.979h.009c1.01-2.016 4.621-3.218 4.621-3.218 3.042-1.147 5.452-.842 6.544.037.406.324.64.721.668 1.147zm204.908-74.539-.234.74c-1.3-1.008-3.837-2.321-8.268-2.432.108-.213.27-.49.469-.842 5.768-1.082 8.033 2.534 8.033 2.534"/>
  <path stroke="#000" stroke-linecap="round" stroke-linejoin="round" stroke-width=".925" d="M220.271 97.015c.514-2.127-2.555-4.855-6.914-6.076-1.769-.509-3.493-.684-4.947-.564-.857.064-1.615.213-2.238.48h-.009a2 2 0 0 0-.433.186c-.551.305-.957.684-1.192 1.137l.533-1.378.144-.379 25.968-66.872.126-.314 1.995-5.133q.65-.015 1.246 0c4.432.111 6.959 1.424 8.268 2.432.848.657 1.182 1.184 1.182 1.184l-23.72 75.297z"/>
  <path stroke="#000" stroke-linecap="round" stroke-linejoin="round" stroke-width=".925" d="M220.271 97.015s-.009.037-.009.046 0 .01-.009.028c-.307 1.119-1.571 1.85-3.349 2.108a3.2 3.2 0 0 0 .857-.86c.307-.73.235-1.387-.063-1.979h-.009c-1.011-2.016-4.621-3.218-4.621-3.218-3.042-1.147-5.452-.842-6.544.037-.406.324-.641.721-.668 1.147a4.3 4.3 0 0 0 .298 1.812c-1.363-1.156-2.076-2.441-1.769-3.57l.162-.406c.235-.453.641-.833 1.192-1.138.135-.074.271-.139.433-.185h.009c.632-.268 1.381-.416 2.238-.48 1.454-.112 3.178.064 4.947.563 4.35 1.221 7.428 3.95 6.914 6.076z"/>
  <path stroke="#000" stroke-linecap="round" stroke-linejoin="round" stroke-width=".925" d="M217.761 98.337c-.207.315-.505.601-.857.86h-.009c-1.616 1.138-4.486 1.499-6.535.703-1.868-.73-3.547-2.025-4.197-3.755h-.009c-.226-.564-.316-1.174-.298-1.812.027-.425.262-.823.668-1.147 1.092-.878 3.502-1.184 6.544-.037 0 0 3.619 1.193 4.621 3.219h.009c.298.591.37 1.248.063 1.979z"/>
</svg>
