<svg width="252" height="101" viewBox="0 0 252 101" fill="none" xmlns="http://www.w3.org/2000/svg">
<path d="M130.074 0.640015C61.7591 0.640015 11.0896 24.8234 11.0896 24.8234L38.0289 91.7231C72.0984 79.673 103.051 75.6687 129.168 75.6687C181.178 75.6687 214.008 91.5752 214.008 91.5752L240.892 24.472C202.291 6.6142 164.005 0.640017 130.065 0.649265L130.074 0.640015Z" fill="#D61313"/>
<g style="mix-blend-mode:multiply">
<mask id="mask0_9_5187" style="mask-type:luminance" maskUnits="userSpaceOnUse" x="11" y="0" width="230" height="92">
<path d="M130.074 0.640015C61.7591 0.640015 11.0896 24.8234 11.0896 24.8234L38.0289 91.7231C72.0984 79.673 103.051 75.6687 129.168 75.6687C181.178 75.6687 214.008 91.5752 214.008 91.5752L240.892 24.472C202.291 6.6142 164.005 0.640017 130.065 0.649265L130.074 0.640015Z" fill="white"/>
</mask>
<g mask="url(#mask0_9_5187)">
<path d="M11.0896 85.6102C16.1945 85.6102 20.3376 89.7533 20.3376 94.8582C15.2327 94.8582 11.0896 90.7151 11.0896 85.6102Z" fill="#F56D27"/>
<path d="M29.5855 85.6102C29.5855 90.7151 25.4424 94.8582 20.3375 94.8582C20.3375 89.7533 24.4806 85.6102 29.5855 85.6102Z" fill="#F56D27"/>
<path d="M29.5855 85.6103C24.4806 85.6103 20.3375 81.4672 20.3375 76.3623C25.4424 76.3623 29.5855 80.5054 29.5855 85.6103Z" fill="#F56D27"/>
<path d="M20.3376 76.3623C20.3376 81.4672 16.1945 85.6103 11.0896 85.6103C11.0896 80.5054 15.2327 76.3623 20.3376 76.3623Z" fill="#F56D27"/>
<path d="M48.0815 85.6102C48.0815 90.7151 43.9384 94.8582 38.8335 94.8582C38.8335 89.7533 42.9766 85.6102 48.0815 85.6102Z" fill="#F56D27"/>
<path d="M48.0815 85.6103C42.9766 85.6103 38.8335 81.4672 38.8335 76.3623C43.9384 76.3623 48.0815 80.5054 48.0815 85.6103Z" fill="#F56D27"/>
<path d="M38.8335 76.3623C38.8335 81.4672 34.6904 85.6103 29.5856 85.6103C29.5856 80.5054 33.7287 76.3623 38.8335 76.3623Z" fill="#F56D27"/>
<path d="M29.5856 85.6102C34.6904 85.6102 38.8335 89.7533 38.8335 94.8582C33.7287 94.8582 29.5856 90.7151 29.5856 85.6102Z" fill="#F56D27"/>
<path d="M66.5773 85.6102C66.5773 90.7151 62.4342 94.8582 57.3293 94.8582C57.3293 89.7533 61.4724 85.6102 66.5773 85.6102Z" fill="#F56D27"/>
<path d="M57.3294 76.3623C57.3294 81.4672 53.1863 85.6103 48.0814 85.6103C48.0814 80.5054 52.2245 76.3623 57.3294 76.3623Z" fill="#F56D27"/>
<path d="M48.0814 85.6102C53.1863 85.6102 57.3294 89.7533 57.3294 94.8582C52.2245 94.8582 48.0814 90.7151 48.0814 85.6102Z" fill="#F56D27"/>
<path d="M66.5773 85.6103C61.4724 85.6103 57.3293 81.4672 57.3293 76.3623C62.4342 76.3623 66.5773 80.5054 66.5773 85.6103Z" fill="#F56D27"/>
<path d="M66.5774 85.6102C71.6823 85.6102 75.8253 89.7533 75.8253 94.8582C70.7205 94.8582 66.5774 90.7151 66.5774 85.6102Z" fill="#F56D27"/>
<path d="M75.8253 76.3623C75.8253 81.4672 71.6823 85.6103 66.5774 85.6103C66.5774 80.5054 70.7205 76.3623 75.8253 76.3623Z" fill="#F56D27"/>
<path d="M85.0733 85.6102C85.0733 90.7151 80.9302 94.8489 75.8253 94.8582C75.8253 89.7533 79.9684 85.6102 85.0733 85.6102Z" fill="#F56D27"/>
<path d="M85.0733 85.6103C79.9684 85.6103 75.8253 81.4672 75.8253 76.3623C80.9302 76.3623 85.0733 80.5054 85.0733 85.6103Z" fill="#F56D27"/>
<path d="M94.3212 76.3623C94.3212 81.4672 90.1781 85.6103 85.0732 85.6103C85.0732 80.5054 89.2163 76.3623 94.3212 76.3623Z" fill="#F56D27"/>
<path d="M85.0732 85.6102C90.1781 85.6102 94.3212 89.7533 94.3212 94.8582C89.2163 94.8582 85.0825 90.7151 85.0732 85.6102Z" fill="#F56D27"/>
<path d="M103.569 85.6102C103.569 90.7151 99.426 94.8582 94.3212 94.8582C94.3212 89.7533 98.4643 85.6102 103.569 85.6102Z" fill="#F56D27"/>
<path d="M103.569 85.6103C98.4643 85.6103 94.3212 81.4672 94.3212 76.3623C99.426 76.3623 103.569 80.5054 103.569 85.6103Z" fill="#F56D27"/>
<path d="M122.065 85.6103C116.96 85.6103 112.817 81.4672 112.817 76.3623C117.922 76.3623 122.065 80.5054 122.065 85.6103Z" fill="#F56D27"/>
<path d="M112.817 76.3623C112.817 81.4672 108.674 85.6103 103.569 85.6103C103.569 80.5054 107.712 76.3623 112.817 76.3623Z" fill="#F56D27"/>
<path d="M103.569 85.6102C108.674 85.6102 112.817 89.7533 112.817 94.8582C107.712 94.8582 103.569 90.7151 103.569 85.6102Z" fill="#F56D27"/>
<path d="M122.065 85.6102C122.065 90.7151 117.922 94.8582 112.817 94.8582C112.817 89.7533 116.96 85.6102 122.065 85.6102Z" fill="#F56D27"/>
<path d="M131.313 76.3623C131.313 81.4672 127.17 85.6103 122.065 85.6103C122.065 80.5054 126.208 76.3623 131.313 76.3623Z" fill="#F56D27"/>
<path d="M140.561 85.6103C135.456 85.6103 131.313 81.4672 131.313 76.3623C136.418 76.3623 140.561 80.5054 140.561 85.6103Z" fill="#F56D27"/>
<path d="M140.561 85.6102C140.561 90.7151 136.418 94.8489 131.313 94.8582C131.313 89.7533 135.456 85.6102 140.561 85.6102Z" fill="#F56D27"/>
<path d="M122.065 85.6102C127.17 85.6102 131.313 89.7533 131.313 94.8582C126.208 94.8582 122.065 90.7151 122.065 85.6102Z" fill="#F56D27"/>
<path d="M159.057 85.6103C153.952 85.6103 149.809 81.4672 149.809 76.3623C154.914 76.3623 159.057 80.5054 159.057 85.6103Z" fill="#F56D27"/>
<path d="M159.057 85.6102C159.057 90.7151 154.914 94.8582 149.809 94.8582C149.809 89.7533 153.952 85.6102 159.057 85.6102Z" fill="#F56D27"/>
<path d="M149.809 76.3623C149.809 81.4672 145.666 85.6103 140.561 85.6103C140.561 80.5054 144.704 76.3623 149.809 76.3623Z" fill="#F56D27"/>
<path d="M140.561 85.6102C145.666 85.6102 149.809 89.7533 149.809 94.8582C144.704 94.8582 140.57 90.7151 140.561 85.6102Z" fill="#F56D27"/>
<path d="M159.057 85.6102C164.162 85.6102 168.305 89.7533 168.305 94.8582C163.2 94.8582 159.057 90.7151 159.057 85.6102Z" fill="#F56D27"/>
<path d="M168.305 76.3623C168.305 81.4672 164.162 85.6103 159.057 85.6103C159.057 80.5054 163.2 76.3623 168.305 76.3623Z" fill="#F56D27"/>
<path d="M177.553 85.6103C172.448 85.6103 168.305 81.4672 168.305 76.3623C173.41 76.3623 177.553 80.5054 177.553 85.6103Z" fill="#F56D27"/>
<path d="M177.553 85.6102C177.553 90.7151 173.41 94.8582 168.305 94.8582C168.305 89.7533 172.448 85.6102 177.553 85.6102Z" fill="#F56D27"/>
<path d="M196.049 85.6103C190.944 85.6103 186.801 81.4672 186.801 76.3623C191.906 76.3623 196.049 80.5054 196.049 85.6103Z" fill="#F56D27"/>
<path d="M186.801 76.3623C186.801 81.4672 182.658 85.6103 177.553 85.6103C177.553 80.5054 181.696 76.3623 186.801 76.3623Z" fill="#F56D27"/>
<path d="M177.553 85.6102C182.658 85.6102 186.801 89.7533 186.801 94.8582C181.696 94.8582 177.553 90.7151 177.553 85.6102Z" fill="#F56D27"/>
<path d="M196.049 85.6102C196.049 90.7151 191.906 94.8582 186.801 94.8582C186.801 89.7533 190.944 85.6102 196.049 85.6102Z" fill="#F56D27"/>
<path d="M205.297 76.3623C205.297 81.4672 201.154 85.6103 196.049 85.6103C196.049 80.5054 200.192 76.3623 205.297 76.3623Z" fill="#F56D27"/>
<path d="M214.545 85.6102C214.545 90.7151 210.402 94.8582 205.297 94.8582C205.297 89.7533 209.44 85.6102 214.545 85.6102Z" fill="#F56D27"/>
<path d="M214.545 85.6103C209.44 85.6103 205.297 81.4672 205.297 76.3623C210.402 76.3623 214.545 80.5054 214.545 85.6103Z" fill="#F56D27"/>
<path d="M196.049 85.6102C201.154 85.6102 205.297 89.7533 205.297 94.8582C200.192 94.8582 196.049 90.7151 196.049 85.6102Z" fill="#F56D27"/>
<path d="M233.041 85.6102C233.041 90.7151 228.897 94.8582 223.793 94.8582C223.793 89.7533 227.936 85.6102 233.041 85.6102Z" fill="#F56D27"/>
<path d="M214.545 85.6102C219.65 85.6102 223.793 89.7533 223.793 94.8582C218.688 94.8582 214.545 90.7151 214.545 85.6102Z" fill="#F56D27"/>
<path d="M223.783 76.3623C223.783 81.4672 219.64 85.6103 214.535 85.6103C214.535 80.5054 218.678 76.3623 223.783 76.3623Z" fill="#F56D27"/>
<path d="M233.041 85.6103C227.936 85.6103 223.793 81.4672 223.793 76.3623C228.897 76.3623 233.041 80.5054 233.041 85.6103Z" fill="#F56D27"/>
<path d="M233.041 85.6102C238.145 85.6102 242.288 89.7533 242.288 94.8582C237.184 94.8582 233.041 90.7151 233.041 85.6102Z" fill="#F56D27"/>
<path d="M242.279 76.3623C242.279 81.4672 238.136 85.6103 233.031 85.6103C233.031 80.5054 237.174 76.3623 242.279 76.3623Z" fill="#F56D27"/>
<path d="M29.5855 67.1143C24.4806 67.1143 20.3375 62.9713 20.3375 57.8664C25.4424 57.8664 29.5855 62.0095 29.5855 67.1143Z" fill="#F56D27"/>
<path d="M20.3376 57.8664C20.3376 62.9713 16.1945 67.1143 11.0896 67.1143C11.0896 62.0095 15.2327 57.8664 20.3376 57.8664Z" fill="#F56D27"/>
<path d="M29.5855 67.1144C29.5855 72.2193 25.4424 76.3623 20.3375 76.3623C20.3375 71.2575 24.4806 67.1144 29.5855 67.1144Z" fill="#F56D27"/>
<path d="M11.0896 67.1144C16.1945 67.1144 20.3376 71.2575 20.3376 76.3623C15.2327 76.3623 11.0896 72.2193 11.0896 67.1144Z" fill="#F56D27"/>
<path d="M29.5856 67.1144C34.6904 67.1144 38.8335 71.2575 38.8335 76.3623C33.7287 76.3623 29.5856 72.2193 29.5856 67.1144Z" fill="#F56D27"/>
<path d="M38.8335 57.8664C38.8335 62.9713 34.6904 67.1143 29.5856 67.1143C29.5856 62.0095 33.7287 57.8664 38.8335 57.8664Z" fill="#F56D27"/>
<path d="M48.0815 67.1144C48.0815 72.2193 43.9384 76.3623 38.8335 76.3623C38.8335 71.2575 42.9766 67.1144 48.0815 67.1144Z" fill="#F56D27"/>
<path d="M48.0815 67.1143C42.9766 67.1143 38.8335 62.9713 38.8335 57.8664C43.9384 57.8664 48.0815 62.0095 48.0815 67.1143Z" fill="#F56D27"/>
<path d="M48.0814 67.1144C53.1863 67.1144 57.3294 71.2575 57.3294 76.3623C52.2245 76.3623 48.0814 72.2193 48.0814 67.1144Z" fill="#F56D27"/>
<path d="M66.5773 67.1144C66.5773 72.2193 62.4342 76.3623 57.3293 76.3623C57.3293 71.2575 61.4724 67.1144 66.5773 67.1144Z" fill="#F56D27"/>
<path d="M66.5773 67.1143C61.4724 67.1143 57.3293 62.9713 57.3293 57.8664C62.4342 57.8664 66.5773 62.0095 66.5773 67.1143Z" fill="#F56D27"/>
<path d="M57.3294 57.8664C57.3294 62.9713 53.1863 67.1143 48.0814 67.1143C48.0814 62.0095 52.2245 57.8664 57.3294 57.8664Z" fill="#F56D27"/>
<path d="M75.8253 57.8664C75.8253 62.9713 71.6823 67.1143 66.5774 67.1143C66.5774 62.0095 70.7205 57.8664 75.8253 57.8664Z" fill="#F56D27"/>
<path d="M85.0733 67.1144C85.0733 72.2193 80.9302 76.3623 75.8253 76.3623C75.8253 71.2575 79.9684 67.1144 85.0733 67.1144Z" fill="#F56D27"/>
<path d="M66.5774 67.1144C71.6823 67.1144 75.8253 71.2575 75.8253 76.3623C70.7205 76.3623 66.5774 72.2193 66.5774 67.1144Z" fill="#F56D27"/>
<path d="M85.0733 67.1143C79.9684 67.1143 75.8253 62.9713 75.8253 57.8664C80.9302 57.8664 85.0733 62.0095 85.0733 67.1143Z" fill="#F56D27"/>
<path d="M94.3212 57.8664C94.3212 62.9713 90.1781 67.1143 85.0732 67.1143C85.0732 62.0095 89.2163 57.8664 94.3212 57.8664Z" fill="#F56D27"/>
<path d="M103.569 67.1144C103.569 72.2193 99.426 76.3623 94.3212 76.3623C94.3212 71.2575 98.4643 67.1144 103.569 67.1144Z" fill="#F56D27"/>
<path d="M85.0732 67.1144C90.1781 67.1144 94.3212 71.2575 94.3212 76.3623C89.2163 76.3623 85.0732 72.2193 85.0732 67.1144Z" fill="#F56D27"/>
<path d="M103.569 67.1143C98.4643 67.1143 94.3212 62.9713 94.3212 57.8664C99.426 57.8664 103.569 62.0095 103.569 67.1143Z" fill="#F56D27"/>
<path d="M112.817 57.8664C112.817 62.9713 108.674 67.1143 103.569 67.1143C103.569 62.0095 107.712 57.8664 112.817 57.8664Z" fill="#F56D27"/>
<path d="M122.065 67.1144C122.065 72.2193 117.922 76.3623 112.817 76.3623C112.817 71.2575 116.96 67.1144 122.065 67.1144Z" fill="#F56D27"/>
<path d="M103.569 67.1144C108.674 67.1144 112.817 71.2575 112.817 76.3623C107.712 76.3623 103.569 72.2193 103.569 67.1144Z" fill="#F56D27"/>
<path d="M122.065 67.1143C116.96 67.1143 112.817 62.9713 112.817 57.8664C117.922 57.8664 122.065 62.0095 122.065 67.1143Z" fill="#F56D27"/>
<path d="M140.561 67.1143C135.456 67.1143 131.313 62.9713 131.313 57.8664C136.418 57.8664 140.561 62.0095 140.561 67.1143Z" fill="#F56D27"/>
<path d="M140.561 67.1144C140.561 72.2193 136.418 76.3623 131.313 76.3623C131.313 71.2575 135.456 67.1144 140.561 67.1144Z" fill="#F56D27"/>
<path d="M122.065 67.1144C127.17 67.1144 131.313 71.2575 131.313 76.3623C126.208 76.3623 122.065 72.2193 122.065 67.1144Z" fill="#F56D27"/>
<path d="M131.313 57.8664C131.313 62.9713 127.17 67.1143 122.065 67.1143C122.065 62.0095 126.208 57.8664 131.313 57.8664Z" fill="#F56D27"/>
<path d="M149.809 57.8664C149.809 62.9713 145.666 67.1143 140.561 67.1143C140.561 62.0095 144.704 57.8664 149.809 57.8664Z" fill="#F56D27"/>
<path d="M140.561 67.1144C145.666 67.1144 149.809 71.2575 149.809 76.3623C144.704 76.3623 140.561 72.2193 140.561 67.1144Z" fill="#F56D27"/>
<path d="M159.057 67.1143C153.952 67.1143 149.809 62.9713 149.809 57.8664C154.914 57.8664 159.057 62.0095 159.057 67.1143Z" fill="#F56D27"/>
<path d="M159.057 67.1144C159.057 72.2193 154.914 76.3623 149.809 76.3623C149.809 71.2575 153.952 67.1144 159.057 67.1144Z" fill="#F56D27"/>
<path d="M177.553 67.1143C172.448 67.1143 168.305 62.9713 168.305 57.8664C173.41 57.8664 177.553 62.0095 177.553 67.1143Z" fill="#F56D27"/>
<path d="M168.305 57.8664C168.305 62.9713 164.162 67.1143 159.057 67.1143C159.057 62.0095 163.2 57.8664 168.305 57.8664Z" fill="#F56D27"/>
<path d="M177.553 67.1144C177.553 72.2193 173.41 76.3623 168.305 76.3623C168.305 71.2575 172.448 67.1144 177.553 67.1144Z" fill="#F56D27"/>
<path d="M159.057 67.1144C164.162 67.1144 168.305 71.2575 168.305 76.3623C163.2 76.3623 159.057 72.2193 159.057 67.1144Z" fill="#F56D27"/>
<path d="M196.049 67.1144C196.049 72.2193 191.906 76.3623 186.801 76.3623C186.801 71.2575 190.944 67.1144 196.049 67.1144Z" fill="#F56D27"/>
<path d="M196.049 67.1143C190.944 67.1143 186.801 62.9713 186.801 57.8664C191.906 57.8664 196.049 62.0095 196.049 67.1143Z" fill="#F56D27"/>
<path d="M177.553 67.1144C182.658 67.1144 186.801 71.2575 186.801 76.3623C181.696 76.3623 177.553 72.2193 177.553 67.1144Z" fill="#F56D27"/>
<path d="M186.801 57.8664C186.801 62.9713 182.658 67.1143 177.553 67.1143C177.553 62.0095 181.696 57.8664 186.801 57.8664Z" fill="#F56D27"/>
<path d="M205.287 57.8664C205.287 62.9713 201.144 67.1143 196.04 67.1143C196.04 62.0095 200.183 57.8664 205.287 57.8664Z" fill="#F56D27"/>
<path d="M196.049 67.1144C201.154 67.1144 205.297 71.2575 205.297 76.3623C200.192 76.3623 196.049 72.2193 196.049 67.1144Z" fill="#F56D27"/>
<path d="M214.545 67.1143C209.44 67.1143 205.297 62.9713 205.297 57.8664C210.402 57.8664 214.545 62.0095 214.545 67.1143Z" fill="#F56D27"/>
<path d="M214.545 67.1144C214.545 72.2193 210.402 76.3623 205.297 76.3623C205.297 71.2575 209.44 67.1144 214.545 67.1144Z" fill="#F56D27"/>
<path d="M223.783 57.8664C223.783 62.9713 219.64 67.1143 214.535 67.1143C214.535 62.0095 218.678 57.8664 223.783 57.8664Z" fill="#F56D27"/>
<path d="M233.041 67.1143C227.936 67.1143 223.793 62.9713 223.793 57.8664C228.897 57.8664 233.041 62.0095 233.041 67.1143Z" fill="#F56D27"/>
<path d="M233.041 67.1144C233.041 72.2193 228.897 76.3623 223.793 76.3623C223.793 71.2575 227.936 67.1144 233.041 67.1144Z" fill="#F56D27"/>
<path d="M214.545 67.1144C219.65 67.1144 223.793 71.2575 223.793 76.3623C218.688 76.3623 214.545 72.2193 214.545 67.1144Z" fill="#F56D27"/>
<path d="M233.041 67.1144C238.145 67.1144 242.288 71.2575 242.288 76.3623C237.184 76.3623 233.041 72.2193 233.041 67.1144Z" fill="#F56D27"/>
<path d="M242.279 57.8664C242.279 62.9713 238.136 67.1143 233.031 67.1143C233.031 62.0095 237.174 57.8664 242.279 57.8664Z" fill="#F56D27"/>
<path d="M29.5855 48.6184C24.4806 48.6184 20.3375 44.4754 20.3375 39.3705C25.4424 39.3705 29.5855 43.5136 29.5855 48.6184Z" fill="#F56D27"/>
<path d="M20.3376 57.8664C15.2327 57.8664 11.0896 53.7233 11.0896 48.6184C16.1945 48.6184 20.3376 52.7615 20.3376 57.8664Z" fill="#F56D27"/>
<path d="M20.3376 39.3705C20.3376 44.4754 16.1945 48.6184 11.0896 48.6184C11.0896 43.5136 15.2327 39.3705 20.3376 39.3705Z" fill="#F56D27"/>
<path d="M29.5855 48.6184C29.5855 53.7233 25.4424 57.8664 20.3375 57.8664C20.3375 52.7615 24.4806 48.6184 29.5855 48.6184Z" fill="#F56D27"/>
<path d="M29.5856 48.6184C34.6904 48.6184 38.8335 52.7615 38.8335 57.8664C33.7287 57.8664 29.5856 53.7233 29.5856 48.6184Z" fill="#F56D27"/>
<path d="M48.0815 48.6184C48.0815 53.7233 43.9384 57.8664 38.8335 57.8664C38.8335 52.7615 42.9766 48.6184 48.0815 48.6184Z" fill="#F56D27"/>
<path d="M48.0815 48.6184C42.9766 48.6184 38.8335 44.4754 38.8335 39.3705C43.9384 39.3705 48.0815 43.5136 48.0815 48.6184Z" fill="#F56D27"/>
<path d="M38.8335 39.3705C38.8335 44.4754 34.6904 48.6184 29.5856 48.6184C29.5856 43.5136 33.7287 39.3705 38.8335 39.3705Z" fill="#F56D27"/>
<path d="M66.5773 48.6184C66.5773 53.7233 62.4342 57.8664 57.3293 57.8664C57.3293 52.7615 61.4724 48.6184 66.5773 48.6184Z" fill="#F56D27"/>
<path d="M57.3294 39.3705C57.3294 44.4754 53.1863 48.6184 48.0814 48.6184C48.0814 43.5136 52.2245 39.3705 57.3294 39.3705Z" fill="#F56D27"/>
<path d="M66.5773 48.6184C61.4724 48.6184 57.3293 44.4754 57.3293 39.3705C62.4342 39.3705 66.5773 43.5136 66.5773 48.6184Z" fill="#F56D27"/>
<path d="M48.0814 48.6184C53.1863 48.6184 57.3294 52.7615 57.3294 57.8664C52.2245 57.8664 48.0814 53.7233 48.0814 48.6184Z" fill="#F56D27"/>
<path d="M85.0733 48.6184C79.9684 48.6184 75.8253 44.4754 75.8253 39.3705C80.9302 39.3705 85.0733 43.5136 85.0733 48.6184Z" fill="#F56D27"/>
<path d="M75.8253 39.3705C75.8253 44.4754 71.6823 48.6184 66.5774 48.6184C66.5774 43.5136 70.7205 39.3705 75.8253 39.3705Z" fill="#F56D27"/>
<path d="M66.5774 48.6184C71.6823 48.6184 75.8253 52.7615 75.8253 57.8664C70.7205 57.8664 66.5774 53.7233 66.5774 48.6184Z" fill="#F56D27"/>
<path d="M85.0733 48.6184C85.0733 53.7233 80.9302 57.8664 75.8253 57.8664C75.8253 52.7615 79.9684 48.6184 85.0733 48.6184Z" fill="#F56D27"/>
<path d="M103.569 48.6184C98.4643 48.6184 94.3212 44.4754 94.3212 39.3705C99.426 39.3705 103.569 43.5136 103.569 48.6184Z" fill="#F56D27"/>
<path d="M94.3212 39.3705C94.3212 44.4754 90.1781 48.6184 85.0732 48.6184C85.0732 43.5136 89.2163 39.3705 94.3212 39.3705Z" fill="#F56D27"/>
<path d="M103.569 48.6184C103.569 53.7233 99.426 57.8664 94.3212 57.8664C94.3212 52.7615 98.4643 48.6184 103.569 48.6184Z" fill="#F56D27"/>
<path d="M85.0732 48.6184C90.1781 48.6184 94.3212 52.7615 94.3212 57.8664C89.2163 57.8664 85.0732 53.7233 85.0732 48.6184Z" fill="#F56D27"/>
<path d="M122.065 48.6184C122.065 53.7233 117.922 57.8664 112.817 57.8664C112.817 52.7615 116.96 48.6184 122.065 48.6184Z" fill="#F56D27"/>
<path d="M103.569 48.6184C108.674 48.6184 112.817 52.7615 112.817 57.8664C107.712 57.8664 103.569 53.7233 103.569 48.6184Z" fill="#F56D27"/>
<path d="M122.065 48.6184C116.96 48.6184 112.817 44.4754 112.817 39.3705C117.922 39.3705 122.065 43.5136 122.065 48.6184Z" fill="#F56D27"/>
<path d="M112.817 39.3705C112.817 44.4754 108.674 48.6184 103.569 48.6184C103.569 43.5136 107.712 39.3705 112.817 39.3705Z" fill="#F56D27"/>
<path d="M131.313 39.3705C131.313 44.4754 127.17 48.6184 122.065 48.6184C122.065 43.5136 126.208 39.3705 131.313 39.3705Z" fill="#F56D27"/>
<path d="M140.561 48.6184C135.456 48.6184 131.313 44.4754 131.313 39.3705C136.418 39.3705 140.561 43.5136 140.561 48.6184Z" fill="#F56D27"/>
<path d="M140.561 48.6184C140.561 53.7233 136.418 57.8664 131.313 57.8664C131.313 52.7615 135.456 48.6184 140.561 48.6184Z" fill="#F56D27"/>
<path d="M122.065 48.6184C127.17 48.6184 131.313 52.7615 131.313 57.8664C126.208 57.8664 122.065 53.7233 122.065 48.6184Z" fill="#F56D27"/>
<path d="M159.057 48.6184C159.057 53.7233 154.914 57.8664 149.809 57.8664C149.809 52.7615 153.952 48.6184 159.057 48.6184Z" fill="#F56D27"/>
<path d="M140.561 48.6184C145.666 48.6184 149.809 52.7615 149.809 57.8664C144.704 57.8664 140.561 53.7233 140.561 48.6184Z" fill="#F56D27"/>
<path d="M149.809 39.3705C149.809 44.4754 145.666 48.6184 140.561 48.6184C140.561 43.5136 144.704 39.3705 149.809 39.3705Z" fill="#F56D27"/>
<path d="M159.057 48.6184C153.952 48.6184 149.809 44.4754 149.809 39.3705C154.914 39.3705 159.057 43.5136 159.057 48.6184Z" fill="#F56D27"/>
<path d="M177.553 48.6184C172.448 48.6184 168.305 44.4754 168.305 39.3705C173.41 39.3705 177.553 43.5136 177.553 48.6184Z" fill="#F56D27"/>
<path d="M168.296 39.3705C168.296 44.4754 164.152 48.6184 159.048 48.6184C159.048 43.5136 163.191 39.3705 168.296 39.3705Z" fill="#F56D27"/>
<path d="M159.057 48.6184C164.162 48.6184 168.305 52.7615 168.305 57.8664C163.2 57.8664 159.057 53.7233 159.057 48.6184Z" fill="#F56D27"/>
<path d="M177.553 48.6184C177.553 53.7233 173.41 57.8664 168.305 57.8664C168.305 52.7615 172.448 48.6184 177.553 48.6184Z" fill="#F56D27"/>
<path d="M196.049 48.6184C190.944 48.6184 186.801 44.4754 186.801 39.3705C191.906 39.3705 196.049 43.5136 196.049 48.6184Z" fill="#F56D27"/>
<path d="M186.792 39.3705C186.792 44.4754 182.648 48.6184 177.544 48.6184C177.544 43.5136 181.687 39.3705 186.792 39.3705Z" fill="#F56D27"/>
<path d="M196.049 48.6184C196.049 53.7233 191.906 57.8664 186.801 57.8664C186.801 52.7615 190.944 48.6184 196.049 48.6184Z" fill="#F56D27"/>
<path d="M177.553 48.6184C182.658 48.6184 186.801 52.7615 186.801 57.8664C181.696 57.8664 177.553 53.7233 177.553 48.6184Z" fill="#F56D27"/>
<path d="M196.049 48.6184C201.154 48.6184 205.297 52.7615 205.297 57.8664C200.192 57.8664 196.049 53.7233 196.049 48.6184Z" fill="#F56D27"/>
<path d="M214.545 48.6184C209.44 48.6184 205.297 44.4754 205.297 39.3705C210.402 39.3705 214.545 43.5136 214.545 48.6184Z" fill="#F56D27"/>
<path d="M205.287 39.3705C205.287 44.4754 201.144 48.6184 196.04 48.6184C196.04 43.5136 200.183 39.3705 205.287 39.3705Z" fill="#F56D27"/>
<path d="M214.545 48.6184C214.545 53.7233 210.402 57.8664 205.297 57.8664C205.297 52.7615 209.44 48.6184 214.545 48.6184Z" fill="#F56D27"/>
<path d="M214.545 48.6184C219.65 48.6184 223.793 52.7615 223.793 57.8664C218.688 57.8664 214.545 53.7233 214.545 48.6184Z" fill="#F56D27"/>
<path d="M233.041 48.6184C233.041 53.7233 228.897 57.8664 223.793 57.8664C223.793 52.7615 227.936 48.6184 233.041 48.6184Z" fill="#F56D27"/>
<path d="M233.041 48.6184C227.936 48.6184 223.793 44.4754 223.793 39.3705C228.897 39.3705 233.041 43.5136 233.041 48.6184Z" fill="#F56D27"/>
<path d="M223.783 39.3705C223.783 44.4754 219.64 48.6184 214.535 48.6184C214.535 43.5136 218.678 39.3705 223.783 39.3705Z" fill="#F56D27"/>
<path d="M242.279 39.3705C242.279 44.4754 238.136 48.6184 233.031 48.6184C233.031 43.5136 237.174 39.3705 242.279 39.3705Z" fill="#F56D27"/>
<path d="M233.041 48.6184C238.145 48.6184 242.288 52.7615 242.288 57.8664C237.184 57.8664 233.041 53.7233 233.041 48.6184Z" fill="#F56D27"/>
<path d="M20.3468 39.3705C20.3468 34.2656 24.4899 30.1225 29.5948 30.1225C29.5948 35.2274 25.4517 39.3705 20.3468 39.3705Z" fill="#F56D27"/>
<path d="M20.3376 39.3705C15.2327 39.3705 11.0896 35.2274 11.0896 30.1225C16.1945 30.1225 20.3376 34.2656 20.3376 39.3705Z" fill="#F56D27"/>
<path d="M20.3376 20.8746C20.3376 25.9794 16.1945 30.1225 11.0896 30.1225C11.0896 25.0177 15.2327 20.8746 20.3376 20.8746Z" fill="#F56D27"/>
<path d="M29.5855 30.1225C24.4806 30.1225 20.3375 25.9794 20.3375 20.8746C25.4424 20.8746 29.5855 25.0177 29.5855 30.1225Z" fill="#F56D27"/>
<path d="M48.0815 30.1225C42.9766 30.1225 38.8335 25.9794 38.8335 20.8746C43.9384 20.8746 48.0815 25.0177 48.0815 30.1225Z" fill="#F56D27"/>
<path d="M48.0815 30.1225C48.0815 35.2274 43.9384 39.3705 38.8335 39.3705C38.8335 34.2656 42.9766 30.1225 48.0815 30.1225Z" fill="#F56D27"/>
<path d="M38.8335 39.3705C33.7287 39.3705 29.5856 35.2274 29.5856 30.1225C34.6904 30.1225 38.8335 34.2656 38.8335 39.3705Z" fill="#F56D27"/>
<path d="M38.8335 20.8746C38.8335 25.9794 34.6904 30.1225 29.5856 30.1225C29.5856 25.0177 33.7287 20.8746 38.8335 20.8746Z" fill="#F56D27"/>
<path d="M57.3294 20.8746C57.3294 25.9794 53.1863 30.1225 48.0814 30.1225C48.0814 25.0177 52.2245 20.8746 57.3294 20.8746Z" fill="#F56D27"/>
<path d="M48.0814 30.1225C53.1863 30.1225 57.3294 34.2656 57.3294 39.3705C52.2245 39.3705 48.0814 35.2274 48.0814 30.1225Z" fill="#F56D27"/>
<path d="M66.5773 30.1225C66.5773 35.2274 62.4342 39.3705 57.3293 39.3705C57.3293 34.2656 61.4724 30.1225 66.5773 30.1225Z" fill="#F56D27"/>
<path d="M66.5773 30.1225C61.4724 30.1225 57.3293 25.9794 57.3293 20.8746C62.4342 20.8746 66.5773 25.0177 66.5773 30.1225Z" fill="#F56D27"/>
<path d="M85.0733 30.1225C79.9684 30.1225 75.8253 25.9794 75.8253 20.8746C80.9302 20.8746 85.0733 25.0177 85.0733 30.1225Z" fill="#F56D27"/>
<path d="M66.5774 30.1225C71.6823 30.1225 75.8253 34.2656 75.8253 39.3705C70.7205 39.3705 66.5774 35.2274 66.5774 30.1225Z" fill="#F56D27"/>
<path d="M85.0733 30.1225C85.0733 35.2274 80.9302 39.3705 75.8253 39.3705C75.8253 34.2656 79.9684 30.1225 85.0733 30.1225Z" fill="#F56D27"/>
<path d="M75.8253 20.8746C75.8253 25.9794 71.6823 30.1225 66.5774 30.1225C66.5774 25.0177 70.7205 20.8746 75.8253 20.8746Z" fill="#F56D27"/>
<path d="M85.0732 30.1225C90.1781 30.1225 94.3212 34.2656 94.3212 39.3705C89.2163 39.3705 85.0732 35.2274 85.0732 30.1225Z" fill="#F56D27"/>
<path d="M94.3212 20.8746C94.3212 25.9794 90.1781 30.1225 85.0732 30.1225C85.0732 25.0177 89.2163 20.8746 94.3212 20.8746Z" fill="#F56D27"/>
<path d="M103.569 30.1225C98.4643 30.1225 94.3212 25.9794 94.3212 20.8746C99.426 20.8746 103.569 25.0177 103.569 30.1225Z" fill="#F56D27"/>
<path d="M103.569 30.1225C103.569 35.2274 99.426 39.3705 94.3212 39.3705C94.3212 34.2656 98.4643 30.1225 103.569 30.1225Z" fill="#F56D27"/>
<path d="M122.065 30.1225C122.065 35.2274 117.922 39.3705 112.817 39.3705C112.817 34.2656 116.96 30.1225 122.065 30.1225Z" fill="#F56D27"/>
<path d="M103.569 30.1225C108.674 30.1225 112.817 34.2656 112.817 39.3705C107.712 39.3705 103.569 35.2274 103.569 30.1225Z" fill="#F56D27"/>
<path d="M122.065 30.1225C116.96 30.1225 112.817 25.9794 112.817 20.8746C117.922 20.8746 122.065 25.0177 122.065 30.1225Z" fill="#F56D27"/>
<path d="M112.817 20.8746C112.817 25.9794 108.674 30.1225 103.569 30.1225C103.569 25.0177 107.712 20.8746 112.817 20.8746Z" fill="#F56D27"/>
<path d="M140.561 30.1225C140.561 35.2274 136.418 39.3705 131.313 39.3705C131.313 34.2656 135.456 30.1225 140.561 30.1225Z" fill="#F56D27"/>
<path d="M122.065 30.1225C127.17 30.1225 131.313 34.2656 131.313 39.3705C126.208 39.3705 122.065 35.2274 122.065 30.1225Z" fill="#F56D27"/>
<path d="M140.561 30.1225C135.456 30.1225 131.313 25.9794 131.313 20.8746C136.418 20.8746 140.561 25.0177 140.561 30.1225Z" fill="#F56D27"/>
<path d="M131.313 20.8746C131.313 25.9794 127.17 30.1225 122.065 30.1225C122.065 25.0177 126.208 20.8746 131.313 20.8746Z" fill="#F56D27"/>
<path d="M149.809 20.8746C149.809 25.9794 145.666 30.1225 140.561 30.1225C140.561 25.0177 144.704 20.8746 149.809 20.8746Z" fill="#F56D27"/>
<path d="M159.057 30.1225C159.057 35.2274 154.914 39.3705 149.809 39.3705C149.809 34.2656 153.952 30.1225 159.057 30.1225Z" fill="#F56D27"/>
<path d="M159.057 30.1225C153.952 30.1225 149.809 25.9794 149.809 20.8746C154.914 20.8746 159.057 25.0177 159.057 30.1225Z" fill="#F56D27"/>
<path d="M140.561 30.1225C145.666 30.1225 149.809 34.2656 149.809 39.3705C144.704 39.3705 140.561 35.2274 140.561 30.1225Z" fill="#F56D27"/>
<path d="M168.305 20.8746C168.305 25.9794 164.162 30.1225 159.057 30.1225C159.057 25.0177 163.2 20.8746 168.305 20.8746Z" fill="#F56D27"/>
<path d="M177.553 30.1225C177.553 35.2274 173.41 39.3705 168.305 39.3705C168.305 34.2656 172.448 30.1225 177.553 30.1225Z" fill="#F56D27"/>
<path d="M177.553 30.1225C172.448 30.1225 168.305 25.9794 168.305 20.8746C173.41 20.8746 177.553 25.0177 177.553 30.1225Z" fill="#F56D27"/>
<path d="M159.057 30.1225C164.162 30.1225 168.305 34.2656 168.305 39.3705C163.2 39.3705 159.057 35.2274 159.057 30.1225Z" fill="#F56D27"/>
<path d="M196.049 30.1225C196.049 35.2274 191.906 39.3705 186.801 39.3705C186.801 34.2656 190.944 30.1225 196.049 30.1225Z" fill="#F56D27"/>
<path d="M177.553 30.1225C182.658 30.1225 186.801 34.2656 186.801 39.3705C181.696 39.3705 177.553 35.2274 177.553 30.1225Z" fill="#F56D27"/>
<path d="M196.049 30.1225C190.944 30.1225 186.801 25.9794 186.801 20.8746C191.906 20.8746 196.049 25.0177 196.049 30.1225Z" fill="#F56D27"/>
<path d="M186.801 20.8746C186.801 25.9794 182.658 30.1225 177.553 30.1225C177.553 25.0177 181.696 20.8746 186.801 20.8746Z" fill="#F56D27"/>
<path d="M214.545 30.1225C209.44 30.1225 205.297 25.9794 205.297 20.8746C210.402 20.8746 214.545 25.0177 214.545 30.1225Z" fill="#F56D27"/>
<path d="M214.545 30.1225C214.545 35.2274 210.402 39.3705 205.297 39.3705C205.297 34.2656 209.44 30.1225 214.545 30.1225Z" fill="#F56D27"/>
<path d="M205.287 20.8746C205.287 25.9794 201.144 30.1225 196.04 30.1225C196.04 25.0177 200.183 20.8746 205.287 20.8746Z" fill="#F56D27"/>
<path d="M196.049 30.1225C201.154 30.1225 205.297 34.2656 205.297 39.3705C200.192 39.3705 196.049 35.2274 196.049 30.1225Z" fill="#F56D27"/>
<path d="M233.031 30.1225C233.031 35.2274 228.888 39.3705 223.783 39.3705C223.783 34.2656 227.926 30.1225 233.031 30.1225Z" fill="#F56D27"/>
<path d="M223.783 20.8746C223.783 25.9794 219.64 30.1225 214.535 30.1225C214.535 25.0177 218.678 20.8746 223.783 20.8746Z" fill="#F56D27"/>
<path d="M233.041 30.1225C227.936 30.1225 223.793 25.9794 223.793 20.8746C228.897 20.8746 233.041 25.0177 233.041 30.1225Z" fill="#F56D27"/>
<path d="M214.545 30.1225C219.65 30.1225 223.793 34.2656 223.793 39.3705C218.688 39.3705 214.545 35.2274 214.545 30.1225Z" fill="#F56D27"/>
<path d="M242.279 20.8746C242.279 25.9794 238.136 30.1225 233.031 30.1225C233.031 25.0177 237.174 20.8746 242.279 20.8746Z" fill="#F56D27"/>
<path d="M233.041 30.1225C238.145 30.1225 242.288 34.2656 242.288 39.3705C237.184 39.3705 233.041 35.2274 233.041 30.1225Z" fill="#F56D27"/>
<path d="M29.5855 11.6266C24.4806 11.6266 20.3375 7.48353 20.3375 2.37866C25.4424 2.37866 29.5855 6.52175 29.5855 11.6266Z" fill="#F56D27"/>
<path d="M20.3376 20.8745C15.2327 20.8745 11.0896 16.7315 11.0896 11.6266C16.1945 11.6266 20.3376 15.7697 20.3376 20.8745Z" fill="#F56D27"/>
<path d="M20.3375 20.8745C20.3375 15.7697 24.4806 11.6266 29.5855 11.6266C29.5855 16.7315 25.4424 20.8745 20.3375 20.8745Z" fill="#F56D27"/>
<path d="M20.3376 2.37866C20.3376 7.48353 16.1945 11.6266 11.0896 11.6266C11.0896 6.52175 15.2327 2.37866 20.3376 2.37866Z" fill="#F56D27"/>
<path d="M38.8335 20.8745C38.8335 15.7697 42.9766 11.6266 48.0815 11.6266C48.0815 16.7315 43.9384 20.8745 38.8335 20.8745Z" fill="#F56D27"/>
<path d="M48.0815 11.6266C42.9766 11.6266 38.8335 7.48353 38.8335 2.37866C43.9384 2.37866 48.0815 6.52175 48.0815 11.6266Z" fill="#F56D27"/>
<path d="M38.8335 20.8745C33.7287 20.8745 29.5856 16.7315 29.5856 11.6266C34.6904 11.6266 38.8335 15.7697 38.8335 20.8745Z" fill="#F56D27"/>
<path d="M38.8335 2.37866C38.8335 7.48353 34.6904 11.6266 29.5856 11.6266C29.5856 6.52175 33.7287 2.37866 38.8335 2.37866Z" fill="#F56D27"/>
<path d="M57.3294 20.8745C52.2245 20.8745 48.0814 16.7315 48.0814 11.6266C53.1863 11.6266 57.3294 15.7697 57.3294 20.8745Z" fill="#F56D27"/>
<path d="M66.5773 11.6266C61.4724 11.6266 57.3293 7.48353 57.3293 2.37866C62.4342 2.37866 66.5773 6.52175 66.5773 11.6266Z" fill="#F56D27"/>
<path d="M66.5773 11.6266C66.5773 16.7315 62.4342 20.8745 57.3293 20.8745C57.3293 15.7697 61.4724 11.6266 66.5773 11.6266Z" fill="#F56D27"/>
<path d="M57.3294 2.37866C57.3294 7.48353 53.1863 11.6266 48.0814 11.6266C48.0814 6.52175 52.2245 2.37866 57.3294 2.37866Z" fill="#F56D27"/>
<path d="M66.5774 11.6266C71.6823 11.6266 75.8253 15.7697 75.8253 20.8745C70.7205 20.8745 66.5774 16.7315 66.5774 11.6266Z" fill="#F56D27"/>
<path d="M85.0733 11.6266C79.9684 11.6266 75.8253 7.48353 75.8253 2.37866C80.9302 2.37866 85.0733 6.52175 85.0733 11.6266Z" fill="#F56D27"/>
<path d="M75.8253 2.37866C75.8253 7.48353 71.6823 11.6266 66.5774 11.6266C66.5774 6.52175 70.7205 2.37866 75.8253 2.37866Z" fill="#F56D27"/>
<path d="M85.0733 11.6266C85.0733 16.7315 80.9302 20.8745 75.8253 20.8745C75.8253 15.7697 79.9684 11.6266 85.0733 11.6266Z" fill="#F56D27"/>
<path d="M85.0732 11.6266C90.1781 11.6266 94.3212 15.7697 94.3212 20.8745C89.2163 20.8745 85.0732 16.7315 85.0732 11.6266Z" fill="#F56D27"/>
<path d="M103.569 11.6266C98.4643 11.6266 94.3212 7.48353 94.3212 2.37866C99.426 2.37866 103.569 6.52175 103.569 11.6266Z" fill="#F56D27"/>
<path d="M103.569 11.6266C103.569 16.7315 99.426 20.8745 94.3212 20.8745C94.3212 15.7697 98.4643 11.6266 103.569 11.6266Z" fill="#F56D27"/>
<path d="M94.3212 2.37866C94.3212 7.48353 90.1781 11.6266 85.0732 11.6266C85.0732 6.52175 89.2163 2.37866 94.3212 2.37866Z" fill="#F56D27"/>
<path d="M103.569 11.6266C108.674 11.6266 112.817 15.7697 112.817 20.8745C107.712 20.8745 103.569 16.7315 103.569 11.6266Z" fill="#F56D27"/>
<path d="M122.065 11.6266C122.065 16.7315 117.922 20.8745 112.817 20.8745C112.817 15.7697 116.96 11.6266 122.065 11.6266Z" fill="#F56D27"/>
<path d="M112.817 2.37866C112.817 7.48353 108.674 11.6266 103.569 11.6266C103.569 6.52175 107.712 2.37866 112.817 2.37866Z" fill="#F56D27"/>
<path d="M122.065 11.6266C116.96 11.6266 112.817 7.48353 112.817 2.37866C117.922 2.37866 122.065 6.52175 122.065 11.6266Z" fill="#F56D27"/>
<path d="M122.065 11.6266C127.17 11.6266 131.313 15.7697 131.313 20.8745C126.208 20.8745 122.065 16.7315 122.065 11.6266Z" fill="#F56D27"/>
<path d="M140.561 11.6266C140.561 16.7315 136.418 20.8745 131.313 20.8745C131.313 15.7697 135.456 11.6266 140.561 11.6266Z" fill="#F56D27"/>
<path d="M131.313 2.37866C131.313 7.48353 127.17 11.6266 122.065 11.6266C122.065 6.52175 126.208 2.37866 131.313 2.37866Z" fill="#F56D27"/>
<path d="M140.561 11.6266C135.456 11.6266 131.313 7.48353 131.313 2.37866C136.418 2.37866 140.561 6.52175 140.561 11.6266Z" fill="#F56D27"/>
<path d="M140.561 11.6266C145.666 11.6266 149.809 15.7697 149.809 20.8745C144.704 20.8745 140.561 16.7315 140.561 11.6266Z" fill="#F56D27"/>
<path d="M159.057 11.6266C159.057 16.7315 154.914 20.8745 149.809 20.8745C149.809 15.7697 153.952 11.6266 159.057 11.6266Z" fill="#F56D27"/>
<path d="M149.809 2.37866C149.809 7.48353 145.666 11.6266 140.561 11.6266C140.561 6.52175 144.704 2.37866 149.809 2.37866Z" fill="#F56D27"/>
<path d="M159.057 11.6266C153.952 11.6266 149.809 7.48353 149.809 2.37866C154.914 2.37866 159.057 6.52175 159.057 11.6266Z" fill="#F56D27"/>
<path d="M177.553 11.6266C177.553 16.7315 173.41 20.8745 168.305 20.8745C168.305 15.7697 172.448 11.6266 177.553 11.6266Z" fill="#F56D27"/>
<path d="M177.553 11.6266C172.448 11.6266 168.305 7.48353 168.305 2.37866C173.41 2.37866 177.553 6.52175 177.553 11.6266Z" fill="#F56D27"/>
<path d="M168.305 2.37866C168.305 7.48353 164.162 11.6266 159.057 11.6266C159.057 6.52175 163.2 2.37866 168.305 2.37866Z" fill="#F56D27"/>
<path d="M159.057 11.6266C164.162 11.6266 168.305 15.7697 168.305 20.8745C163.2 20.8745 159.057 16.7315 159.057 11.6266Z" fill="#F56D27"/>
<path d="M186.792 2.37866C186.792 7.48353 182.648 11.6266 177.544 11.6266C177.544 6.52175 181.687 2.37866 186.792 2.37866Z" fill="#F56D27"/>
<path d="M196.049 11.6266C196.049 16.7315 191.906 20.8745 186.801 20.8745C186.801 15.7697 190.944 11.6266 196.049 11.6266Z" fill="#F56D27"/>
<path d="M196.049 11.6266C190.944 11.6266 186.801 7.48353 186.801 2.37866C191.906 2.37866 196.049 6.52175 196.049 11.6266Z" fill="#F56D27"/>
<path d="M177.553 11.6266C182.658 11.6266 186.801 15.7697 186.801 20.8745C181.696 20.8745 177.553 16.7315 177.553 11.6266Z" fill="#F56D27"/>
<path d="M214.545 11.6266C209.44 11.6266 205.297 7.48353 205.297 2.37866C210.402 2.37866 214.545 6.52175 214.545 11.6266Z" fill="#F56D27"/>
<path d="M214.545 11.6266C214.545 16.7315 210.402 20.8745 205.297 20.8745C205.297 15.7697 209.44 11.6266 214.545 11.6266Z" fill="#F56D27"/>
<path d="M205.287 2.37866C205.287 7.48353 201.144 11.6266 196.04 11.6266C196.04 6.52175 200.183 2.37866 205.287 2.37866Z" fill="#F56D27"/>
<path d="M196.049 11.6266C201.154 11.6266 205.297 15.7697 205.297 20.8745C200.192 20.8745 196.049 16.7315 196.049 11.6266Z" fill="#F56D27"/>
<path d="M214.545 11.6266C219.65 11.6266 223.793 15.7697 223.793 20.8745C218.688 20.8745 214.545 16.7315 214.545 11.6266Z" fill="#F56D27"/>
<path d="M223.783 2.37866C223.783 7.48353 219.64 11.6266 214.535 11.6266C214.535 6.52175 218.678 2.37866 223.783 2.37866Z" fill="#F56D27"/>
<path d="M223.793 20.8745C223.793 15.7697 227.936 11.6266 233.041 11.6266C233.041 16.7315 228.897 20.8745 223.793 20.8745Z" fill="#F56D27"/>
<path d="M223.793 2.37866C228.897 2.37866 233.041 6.52175 233.041 11.6266C227.936 11.6266 223.793 7.48353 223.793 2.37866Z" fill="#F56D27"/>
<path d="M233.041 11.6266C238.145 11.6266 242.288 15.7697 242.288 20.8745C237.184 20.8745 233.041 16.7315 233.041 11.6266Z" fill="#F56D27"/>
<path d="M242.279 2.37866C242.279 7.48353 238.136 11.6266 233.031 11.6266C233.031 6.52175 237.174 2.37866 242.279 2.37866Z" fill="#F56D27"/>
<path d="M20.3468 2.37863C20.3468 -2.72624 24.4899 -6.86932 29.5948 -6.86932C29.5948 -1.76445 25.4517 2.37863 20.3468 2.37863Z" fill="#F56D27"/>
<path d="M20.3376 2.37863C15.2327 2.37863 11.0896 -1.76445 11.0896 -6.86932C16.1945 -6.86932 20.3376 -2.72624 20.3376 2.37863Z" fill="#F56D27"/>
<path d="M38.8335 2.37863C33.7287 2.37863 29.5856 -1.76445 29.5856 -6.86932C34.6904 -6.86932 38.8335 -2.72624 38.8335 2.37863Z" fill="#F56D27"/>
<path d="M38.8335 2.37863C38.8335 -2.72624 42.9766 -6.86932 48.0815 -6.86932C48.0815 -1.76445 43.9384 2.37863 38.8335 2.37863Z" fill="#F56D27"/>
<path d="M57.3293 2.37863C57.3293 -2.72624 61.4724 -6.86932 66.5773 -6.86932C66.5773 -1.76445 62.4342 2.37863 57.3293 2.37863Z" fill="#F56D27"/>
<path d="M57.3294 2.37863C52.2245 2.37863 48.0814 -1.76445 48.0814 -6.86932C53.1863 -6.86932 57.3294 -2.72624 57.3294 2.37863Z" fill="#F56D27"/>
<path d="M75.8253 2.37863C70.7205 2.37863 66.5774 -1.76445 66.5774 -6.86932C71.6823 -6.86932 75.8253 -2.72624 75.8253 2.37863Z" fill="#F56D27"/>
<path d="M85.0733 -6.86932C85.0733 -1.76445 80.9302 2.37863 75.8253 2.37863C75.8253 -2.72624 79.9684 -6.86932 85.0733 -6.86932Z" fill="#F56D27"/>
<path d="M103.569 -6.86932C103.569 -1.76445 99.426 2.37863 94.3212 2.37863C94.3212 -2.72624 98.4643 -6.86932 103.569 -6.86932Z" fill="#F56D27"/>
<path d="M85.0732 -6.86005C90.1781 -6.86005 94.3212 -2.71696 94.3212 2.38791C89.2163 2.38791 85.0732 -1.75518 85.0732 -6.86005Z" fill="#F56D27"/>
<path d="M122.065 -6.86932C122.065 -1.76445 117.922 2.37863 112.817 2.37863C112.817 -2.72624 116.96 -6.86932 122.065 -6.86932Z" fill="#F56D27"/>
<path d="M103.569 -6.86932C108.674 -6.86932 112.817 -2.72624 112.817 2.37863C107.712 2.37863 103.569 -1.76445 103.569 -6.86932Z" fill="#F56D27"/>
<path d="M122.065 -6.86932C127.17 -6.86932 131.313 -2.72624 131.313 2.37863C126.208 2.37863 122.065 -1.76445 122.065 -6.86932Z" fill="#F56D27"/>
<path d="M140.561 -6.86932C140.561 -1.76445 136.418 2.37863 131.313 2.37863C131.313 -2.72624 135.456 -6.86932 140.561 -6.86932Z" fill="#F56D27"/>
<path d="M140.561 -6.86005C145.666 -6.86005 149.809 -2.71696 149.809 2.38791C144.704 2.38791 140.561 -1.75518 140.561 -6.86005Z" fill="#F56D27"/>
<path d="M159.057 -6.86932C159.057 -1.76445 154.914 2.37863 149.809 2.37863C149.809 -2.72624 153.952 -6.86932 159.057 -6.86932Z" fill="#F56D27"/>
<path d="M177.553 -6.86932C177.553 -1.76445 173.41 2.37863 168.305 2.37863C168.305 -2.72624 172.448 -6.86932 177.553 -6.86932Z" fill="#F56D27"/>
<path d="M159.057 -6.86932C164.162 -6.86932 168.305 -2.72624 168.305 2.37863C163.2 2.37863 159.057 -1.76445 159.057 -6.86932Z" fill="#F56D27"/>
<path d="M196.049 -6.86932C196.049 -1.76445 191.906 2.37863 186.801 2.37863C186.801 -2.72624 190.944 -6.86932 196.049 -6.86932Z" fill="#F56D27"/>
<path d="M177.553 -6.86932C182.658 -6.86932 186.801 -2.72624 186.801 2.37863C181.696 2.37863 177.553 -1.76445 177.553 -6.86932Z" fill="#F56D27"/>
<path d="M205.297 2.37863C205.297 -2.72624 209.44 -6.86932 214.545 -6.86932C214.545 -1.76445 210.402 2.37863 205.297 2.37863Z" fill="#F56D27"/>
<path d="M196.049 -6.86932C201.154 -6.86932 205.297 -2.72624 205.297 2.37863C200.192 2.37863 196.049 -1.76445 196.049 -6.86932Z" fill="#F56D27"/>
<path d="M214.545 -6.86932C219.65 -6.86932 223.793 -2.72624 223.793 2.37863C218.688 2.37863 214.545 -1.76445 214.545 -6.86932Z" fill="#F56D27"/>
<path d="M223.793 2.37863C223.793 -2.72624 227.936 -6.86932 233.041 -6.86932C233.041 -1.76445 228.897 2.37863 223.793 2.37863Z" fill="#F56D27"/>
<path d="M233.041 -6.86932C238.145 -6.86932 242.288 -2.72624 242.288 2.37863C237.184 2.37863 233.041 -1.76445 233.041 -6.86932Z" fill="#F56D27"/>
</g>
</g>
<path d="M129.907 9.46259C163.533 9.46259 195.494 16.0656 225.05 29.0867L205.519 80.043C192.655 75.1046 165.651 66.8369 129.038 66.8369C101.627 66.8369 73.9664 71.4979 46.7034 80.6903L27.0145 29.5769C42.6158 23.1866 81.7254 9.46259 129.907 9.46259Z" stroke="black" stroke-linecap="round" stroke-linejoin="round"/>
<path d="M129.907 9.46259C163.533 9.46259 195.494 16.0656 225.05 29.0867L205.519 80.043C192.655 75.1046 165.651 66.8369 129.038 66.8369C101.627 66.8369 73.9664 71.4979 46.7034 80.6903L27.0145 29.5769C42.6158 23.1866 81.7254 9.46259 129.907 9.46259Z" fill="#EF4B23"/>
<path d="M2.46121 21.2074L1.97107 19.7185C1.97107 19.7185 4.28306 16.0933 10.1925 17.1753L11.0896 18.766L2.46121 21.2074Z" fill="#C71E11"/>
<path d="M11.9496 18.0262L41.5893 92.4907L25.3222 97.013L1.00928 21.6329C1.00928 21.6329 3.45074 17.8227 11.9496 18.0262Z" fill="#EF4B23"/>
<mask id="mask1_9_5187" style="mask-type:luminance" maskUnits="userSpaceOnUse" x="1" y="18" width="41" height="80">
<path d="M11.9496 18.0262L41.5893 92.4907L25.3222 97.013L1.00928 21.6329C1.00928 21.6329 3.45074 17.8227 11.9496 18.0262Z" fill="white"/>
</mask>
<g mask="url(#mask1_9_5187)">
<path d="M32.7576 20.3012C36.6695 20.3012 39.8415 17.1291 39.8415 13.2172C35.9296 13.2172 32.7668 16.3893 32.7668 20.2919L32.7576 20.3012Z" fill="#F56D27"/>
<path d="M39.8414 13.2172C39.8414 17.1291 43.0135 20.3012 46.9254 20.3012C46.9254 16.3893 43.7533 13.2265 39.8507 13.2265L39.8414 13.2172Z" fill="#F56D27"/>
<path d="M39.8415 27.3758C43.7534 27.3758 46.9162 24.2038 46.9162 20.3011C43.0043 20.3011 39.8323 23.4732 39.8323 27.3851L39.8415 27.3758Z" fill="#F56D27"/>
<path d="M39.8415 27.3758C39.8415 23.4639 36.6695 20.2919 32.7576 20.2919C32.7576 24.2038 35.9296 27.3666 39.8322 27.3666L39.8415 27.3758Z" fill="#F56D27"/>
<path d="M39.8415 41.5344C39.8415 37.6226 36.6695 34.4505 32.7576 34.4505C32.7576 38.3624 35.9296 41.5252 39.8322 41.5252L39.8415 41.5344Z" fill="#F56D27"/>
<path d="M32.7576 34.4598C36.6695 34.4598 39.8415 31.2877 39.8415 27.3759C35.9296 27.3759 32.7668 30.5479 32.7668 34.4505L32.7576 34.4598Z" fill="#F56D27"/>
<path d="M39.8414 27.3759C39.8414 31.2877 43.0135 34.4598 46.9254 34.4598C46.9254 30.5479 43.7533 27.3851 39.8507 27.3851L39.8414 27.3759Z" fill="#F56D27"/>
<path d="M39.8415 41.5345C43.7534 41.5345 46.9162 38.3624 46.9162 34.4598C43.0043 34.4598 39.8323 37.6318 39.8323 41.5437L39.8415 41.5345Z" fill="#F56D27"/>
<path d="M32.7576 48.6184C36.6695 48.6184 39.8415 45.4463 39.8415 41.5344C35.9296 41.5344 32.7668 44.7065 32.7668 48.6091L32.7576 48.6184Z" fill="#F56D27"/>
<path d="M39.8415 55.6931C39.8415 51.7812 36.6695 48.6091 32.7576 48.6091C32.7576 52.521 35.9296 55.6838 39.8322 55.6838L39.8415 55.6931Z" fill="#F56D27"/>
<path d="M39.8415 55.6931C43.7534 55.6931 46.9162 52.521 46.9162 48.6184C43.0043 48.6184 39.8323 51.7905 39.8323 55.7023L39.8415 55.6931Z" fill="#F56D27"/>
<path d="M39.8414 41.5344C39.8414 45.4463 43.0135 48.6184 46.9254 48.6184C46.9254 44.7065 43.7533 41.5437 39.8507 41.5437L39.8414 41.5344Z" fill="#F56D27"/>
<path d="M39.8415 69.8517C39.8415 65.9398 36.6695 62.7678 32.7576 62.7678C32.7576 66.6796 35.9296 69.8424 39.8322 69.8424L39.8415 69.8517Z" fill="#F56D27"/>
<path d="M39.8415 69.8517C43.7534 69.8517 46.9162 66.6796 46.9162 62.777C43.0043 62.777 39.8323 65.949 39.8323 69.8609L39.8415 69.8517Z" fill="#F56D27"/>
<path d="M32.7576 62.777C36.6695 62.777 39.8415 59.6049 39.8415 55.6931C35.9296 55.6931 32.7668 58.8651 32.7668 62.7677L32.7576 62.777Z" fill="#F56D27"/>
<path d="M39.8414 55.6931C39.8414 59.6049 43.0135 62.777 46.9254 62.777C46.9254 58.8651 43.7533 55.7023 39.8507 55.7023L39.8414 55.6931Z" fill="#F56D27"/>
<path d="M39.8414 69.8517C39.8414 73.7636 43.0135 76.9356 46.9254 76.9356C46.9254 73.0237 43.7533 69.8609 39.8507 69.8609L39.8414 69.8517Z" fill="#F56D27"/>
<path d="M32.7576 76.9356C36.6695 76.9356 39.8415 73.7636 39.8415 69.8517C35.9296 69.8517 32.7668 73.0237 32.7668 76.9264L32.7576 76.9356Z" fill="#F56D27"/>
<path d="M39.8415 84.0195C39.8415 80.1077 36.6695 76.9356 32.7576 76.9356C32.7576 80.8475 35.9296 84.0103 39.8322 84.0103L39.8415 84.0195Z" fill="#F56D27"/>
<path d="M39.8415 84.0196C43.7534 84.0196 46.9162 80.8475 46.9162 76.9449C43.0043 76.9449 39.8323 80.1169 39.8323 84.0288L39.8415 84.0196Z" fill="#F56D27"/>
<path d="M39.8415 98.1782C39.8415 94.2663 36.6695 91.0942 32.7576 91.0942C32.7576 95.0061 35.9296 98.1689 39.8322 98.1689L39.8415 98.1782Z" fill="#F56D27"/>
<path d="M32.7576 91.0943C36.6695 91.0943 39.8415 87.9222 39.8415 84.0103C35.9296 84.0103 32.7668 87.1824 32.7668 91.085L32.7576 91.0943Z" fill="#F56D27"/>
<path d="M39.8414 84.0196C39.8414 87.9315 43.0135 91.1035 46.9254 91.1035C46.9254 87.1916 43.7533 84.0288 39.8507 84.0288L39.8414 84.0196Z" fill="#F56D27"/>
<path d="M39.8415 98.1782C43.7534 98.1782 46.9162 95.0062 46.9162 91.1035C43.0043 91.1035 39.8323 94.2756 39.8323 98.1874L39.8415 98.1782Z" fill="#F56D27"/>
<path d="M18.5989 20.3012C22.5108 20.3012 25.6828 17.1291 25.6828 13.2172C21.7709 13.2172 18.6081 16.3893 18.6081 20.2919L18.5989 20.3012Z" fill="#F56D27"/>
<path d="M25.6828 27.3758C29.5947 27.3758 32.7575 24.2038 32.7575 20.3011C28.8456 20.3011 25.6736 23.4732 25.6736 27.3851L25.6828 27.3758Z" fill="#F56D27"/>
<path d="M25.6829 13.2172C25.6829 17.1291 28.8549 20.3012 32.7668 20.3012C32.7668 16.3893 29.5947 13.2265 25.6921 13.2265L25.6829 13.2172Z" fill="#F56D27"/>
<path d="M25.6828 27.3758C25.6828 23.4639 22.5108 20.2919 18.5989 20.2919C18.5989 24.2038 21.7709 27.3666 25.6736 27.3666L25.6828 27.3758Z" fill="#F56D27"/>
<path d="M18.5989 34.4598C22.5108 34.4598 25.6828 31.2877 25.6828 27.3759C21.7709 27.3759 18.6081 30.5479 18.6081 34.4505L18.5989 34.4598Z" fill="#F56D27"/>
<path d="M25.6828 41.5345C29.5947 41.5345 32.7575 38.3624 32.7575 34.4598C28.8456 34.4598 25.6736 37.6318 25.6736 41.5437L25.6828 41.5345Z" fill="#F56D27"/>
<path d="M25.6829 27.3759C25.6829 31.2877 28.8549 34.4598 32.7668 34.4598C32.7668 30.5479 29.5947 27.3851 25.6921 27.3851L25.6829 27.3759Z" fill="#F56D27"/>
<path d="M25.6828 41.5344C25.6828 37.6226 22.5108 34.4505 18.5989 34.4505C18.5989 38.3624 21.7709 41.5252 25.6736 41.5252L25.6828 41.5344Z" fill="#F56D27"/>
<path d="M25.6828 55.6931C25.6828 51.7812 22.5108 48.6091 18.5989 48.6091C18.5989 52.521 21.7709 55.6838 25.6736 55.6838L25.6828 55.6931Z" fill="#F56D27"/>
<path d="M25.6828 55.6931C29.5947 55.6931 32.7575 52.521 32.7575 48.6184C28.8456 48.6184 25.6736 51.7905 25.6736 55.7023L25.6828 55.6931Z" fill="#F56D27"/>
<path d="M25.6829 41.5344C25.6829 45.4463 28.8549 48.6184 32.7668 48.6184C32.7668 44.7065 29.5947 41.5437 25.6921 41.5437L25.6829 41.5344Z" fill="#F56D27"/>
<path d="M18.5989 48.6184C22.5108 48.6184 25.6828 45.4463 25.6828 41.5344C21.7709 41.5344 18.6081 44.7065 18.6081 48.6091L18.5989 48.6184Z" fill="#F56D27"/>
<path d="M18.5989 62.777C22.5108 62.777 25.6828 59.6049 25.6828 55.6931C21.7709 55.6931 18.6081 58.8651 18.6081 62.7677L18.5989 62.777Z" fill="#F56D27"/>
<path d="M25.6829 55.6931C25.6829 59.6049 28.8549 62.777 32.7668 62.777C32.7668 58.8651 29.5947 55.7023 25.6921 55.7023L25.6829 55.6931Z" fill="#F56D27"/>
<path d="M25.6828 69.8517C25.6828 65.9398 22.5108 62.7678 18.5989 62.7678C18.5989 66.6796 21.7709 69.8424 25.6736 69.8424L25.6828 69.8517Z" fill="#F56D27"/>
<path d="M25.6828 69.8517C29.5947 69.8517 32.7575 66.6796 32.7575 62.777C28.8456 62.777 25.6736 65.949 25.6736 69.8609L25.6828 69.8517Z" fill="#F56D27"/>
<path d="M25.6828 84.0195C25.6828 80.1077 22.5108 76.9356 18.5989 76.9356C18.5989 80.8475 21.7709 84.0103 25.6736 84.0103L25.6828 84.0195Z" fill="#F56D27"/>
<path d="M18.5989 76.9356C22.5108 76.9356 25.6828 73.7636 25.6828 69.8517C21.7709 69.8517 18.6081 73.0237 18.6081 76.9264L18.5989 76.9356Z" fill="#F56D27"/>
<path d="M25.6828 84.0196C29.5947 84.0196 32.7575 80.8475 32.7575 76.9449C28.8456 76.9449 25.6736 80.1169 25.6736 84.0288L25.6828 84.0196Z" fill="#F56D27"/>
<path d="M25.6829 69.8517C25.6829 73.7636 28.8549 76.9356 32.7668 76.9356C32.7668 73.0237 29.5947 69.8609 25.6921 69.8609L25.6829 69.8517Z" fill="#F56D27"/>
<path d="M25.6828 98.1782C29.5947 98.1782 32.7575 95.0062 32.7575 91.1035C28.8456 91.1035 25.6736 94.2756 25.6736 98.1874L25.6828 98.1782Z" fill="#F56D27"/>
<path d="M25.6828 98.1782C25.6828 94.2663 22.5108 91.0942 18.5989 91.0942C18.5989 95.0061 21.7709 98.1689 25.6736 98.1689L25.6828 98.1782Z" fill="#F56D27"/>
<path d="M25.6829 84.0196C25.6829 87.9315 28.8549 91.1035 32.7668 91.1035C32.7668 87.1916 29.5947 84.0288 25.6921 84.0288L25.6829 84.0196Z" fill="#F56D27"/>
<path d="M18.5989 91.0943C22.5108 91.0943 25.6828 87.9222 25.6828 84.0103C21.7709 84.0103 18.6081 87.1824 18.6081 91.085L18.5989 91.0943Z" fill="#F56D27"/>
<path d="M11.5242 27.3758C11.5242 23.4639 8.35219 20.2919 4.44031 20.2919C4.44031 24.2038 7.61236 27.3666 11.515 27.3666L11.5242 27.3758Z" fill="#F56D27"/>
<path d="M4.44031 20.3012C8.35219 20.3012 11.5242 17.1291 11.5242 13.2172C7.61236 13.2172 4.44955 16.3893 4.44955 20.2919L4.44031 20.3012Z" fill="#F56D27"/>
<path d="M11.5243 27.3758C15.4361 27.3758 18.5989 24.2038 18.5989 20.3011C14.6871 20.3011 11.515 23.4732 11.515 27.3851L11.5243 27.3758Z" fill="#F56D27"/>
<path d="M11.5243 13.2172C11.5243 17.1291 14.6963 20.3012 18.6082 20.3012C18.6082 16.3893 15.4362 13.2265 11.5335 13.2265L11.5243 13.2172Z" fill="#F56D27"/>
<path d="M11.5243 41.5345C15.4361 41.5345 18.5989 38.3624 18.5989 34.4598C14.6871 34.4598 11.515 37.6318 11.515 41.5437L11.5243 41.5345Z" fill="#F56D27"/>
<path d="M11.5243 27.3759C11.5243 31.2877 14.6963 34.4598 18.6082 34.4598C18.6082 30.5479 15.4362 27.3851 11.5335 27.3851L11.5243 27.3759Z" fill="#F56D27"/>
<path d="M11.5242 41.5344C11.5242 37.6226 8.35219 34.4505 4.44031 34.4505C4.44031 38.3624 7.61236 41.5252 11.515 41.5252L11.5242 41.5344Z" fill="#F56D27"/>
<path d="M4.44031 34.4598C8.35219 34.4598 11.5242 31.2877 11.5242 27.3759C7.61236 27.3759 4.44955 30.5479 4.44955 34.4505L4.44031 34.4598Z" fill="#F56D27"/>
<path d="M4.44031 48.6184C8.35219 48.6184 11.5242 45.4463 11.5242 41.5344C7.61236 41.5344 4.44955 44.7065 4.44955 48.6091L4.44031 48.6184Z" fill="#F56D27"/>
<path d="M11.515 55.6931C11.515 51.7812 8.34292 48.6091 4.43103 48.6091C4.43103 52.521 7.60308 55.6838 11.5057 55.6838L11.515 55.6931Z" fill="#F56D27"/>
<path d="M11.5243 55.6931C15.4361 55.6931 18.5989 52.521 18.5989 48.6184C14.6871 48.6184 11.515 51.7905 11.515 55.7023L11.5243 55.6931Z" fill="#F56D27"/>
<path d="M11.5243 41.5344C11.5243 45.4463 14.6963 48.6184 18.6082 48.6184C18.6082 44.7065 15.4362 41.5437 11.5335 41.5437L11.5243 41.5344Z" fill="#F56D27"/>
<path d="M11.5243 69.8517C15.4361 69.8517 18.5989 66.6796 18.5989 62.777C14.6871 62.777 11.515 65.949 11.515 69.8609L11.5243 69.8517Z" fill="#F56D27"/>
<path d="M11.5243 55.6931C11.5243 59.6049 14.6963 62.777 18.6082 62.777C18.6082 58.8651 15.4362 55.7023 11.5335 55.7023L11.5243 55.6931Z" fill="#F56D27"/>
<path d="M4.44031 62.777C8.35219 62.777 11.5242 59.6049 11.5242 55.6931C7.61236 55.6931 4.44955 58.8651 4.44955 62.7677L4.44031 62.777Z" fill="#F56D27"/>
<path d="M11.5242 69.8517C11.5242 65.9398 8.35219 62.7678 4.44031 62.7678C4.44031 66.6796 7.61236 69.8424 11.515 69.8424L11.5242 69.8517Z" fill="#F56D27"/>
<path d="M11.5242 84.0195C11.5242 80.1077 8.35219 76.9356 4.44031 76.9356C4.44031 80.8475 7.61236 84.0103 11.515 84.0103L11.5242 84.0195Z" fill="#F56D27"/>
<path d="M4.44031 76.9356C8.35219 76.9356 11.5242 73.7636 11.5242 69.8517C7.61236 69.8517 4.44955 73.0237 4.44955 76.9264L4.44031 76.9356Z" fill="#F56D27"/>
<path d="M11.5243 69.8517C11.5243 73.7636 14.6963 76.9356 18.6082 76.9356C18.6082 73.0237 15.4362 69.8609 11.5335 69.8609L11.5243 69.8517Z" fill="#F56D27"/>
<path d="M11.5243 84.0196C15.4361 84.0196 18.5989 80.8475 18.5989 76.9449C14.6871 76.9449 11.515 80.1169 11.515 84.0288L11.5243 84.0196Z" fill="#F56D27"/>
<path d="M11.5242 98.1782C11.5242 94.2663 8.35219 91.0942 4.44031 91.0942C4.44031 95.0061 7.61236 98.1689 11.515 98.1689L11.5242 98.1782Z" fill="#F56D27"/>
<path d="M4.44031 91.0943C8.35219 91.0943 11.5242 87.9222 11.5242 84.0103C7.61236 84.0103 4.44955 87.1824 4.44955 91.085L4.44031 91.0943Z" fill="#F56D27"/>
<path d="M11.5243 98.1782C15.4361 98.1782 18.5989 95.0062 18.5989 91.1035C14.6871 91.1035 11.515 94.2756 11.515 98.1874L11.5243 98.1782Z" fill="#F56D27"/>
<path d="M11.5243 84.0196C11.5243 87.9315 14.6963 91.1035 18.6082 91.1035C18.6082 87.1916 15.4362 84.0288 11.5335 84.0288L11.5243 84.0196Z" fill="#F56D27"/>
<path d="M-2.6344 13.2172C-2.6344 17.1291 0.537649 20.3012 4.44953 20.3012C4.44953 16.3893 1.27749 13.2265 -2.62515 13.2265L-2.6344 13.2172Z" fill="#F56D27"/>
<path d="M-2.63443 27.3758C1.27745 27.3758 4.44026 24.2038 4.44026 20.3011C0.528372 20.3011 -2.64368 23.4732 -2.64368 27.3851L-2.63443 27.3758Z" fill="#F56D27"/>
<path d="M-2.63443 41.5345C1.27745 41.5345 4.44026 38.3624 4.44026 34.4598C0.528372 34.4598 -2.64368 37.6318 -2.64368 41.5437L-2.63443 41.5345Z" fill="#F56D27"/>
<path d="M-2.6344 27.3759C-2.6344 31.2877 0.537649 34.4598 4.44953 34.4598C4.44953 30.5479 1.27749 27.3851 -2.62515 27.3851L-2.6344 27.3759Z" fill="#F56D27"/>
<path d="M-2.63443 55.6931C1.27745 55.6931 4.44026 52.521 4.44026 48.6184C0.528372 48.6184 -2.64368 51.7905 -2.64368 55.7023L-2.63443 55.6931Z" fill="#F56D27"/>
<path d="M-2.6344 41.5344C-2.6344 45.4463 0.537649 48.6184 4.44953 48.6184C4.44953 44.7065 1.27749 41.5437 -2.62515 41.5437L-2.6344 41.5344Z" fill="#F56D27"/>
<path d="M-2.63443 69.8517C1.27745 69.8517 4.44026 66.6796 4.44026 62.777C0.528372 62.777 -2.64368 65.949 -2.64368 69.8609L-2.63443 69.8517Z" fill="#F56D27"/>
<path d="M-2.6344 55.6931C-2.6344 59.6049 0.537649 62.777 4.44953 62.777C4.44953 58.8651 1.27749 55.7023 -2.62515 55.7023L-2.6344 55.6931Z" fill="#F56D27"/>
<path d="M-2.63443 84.0196C1.27745 84.0196 4.44026 80.8475 4.44026 76.9449C0.528372 76.9449 -2.64368 80.1169 -2.64368 84.0288L-2.63443 84.0196Z" fill="#F56D27"/>
<path d="M-2.6344 69.8517C-2.6344 73.7636 0.537649 76.9356 4.44953 76.9356C4.44953 73.0237 1.27749 69.8609 -2.62515 69.8609L-2.6344 69.8517Z" fill="#F56D27"/>
<path d="M-2.63443 98.1782C1.27745 98.1782 4.44026 95.0062 4.44026 91.1035C0.528372 91.1035 -2.64368 94.2756 -2.64368 98.1874L-2.63443 98.1782Z" fill="#F56D27"/>
<path d="M-2.6344 84.0196C-2.6344 87.9315 0.537649 91.1035 4.44953 91.1035C4.44953 87.1916 1.27749 84.0288 -2.62515 84.0288L-2.6344 84.0196Z" fill="#F56D27"/>
</g>
<path d="M34.5291 98.6325C39.024 97.391 42.1872 94.6445 41.5943 92.498C41.0015 90.3515 36.8771 89.6178 32.3822 90.8593C27.8873 92.1008 24.7241 94.8473 25.317 96.9938C25.9099 99.1403 30.0343 99.8739 34.5291 98.6325Z" fill="#C71E11"/>
<path d="M32.6835 93.0641C32.6835 93.0641 26.4966 95.0616 27.8653 98.2522C29.0398 100.019 32.8962 100.786 35.4486 99.8151C38.001 98.8441 40.1928 96.8835 40.0726 94.2478C39.9524 92.6202 36.919 91.5104 32.6835 93.0641Z" fill="#FFF400"/>
<path d="M249.53 21.2074L250.02 19.7185C250.02 19.7185 247.708 16.0933 241.798 17.1753L240.901 18.766L249.53 21.2074Z" fill="#C71E11"/>
<path d="M240.041 18.0262L210.401 92.4907L226.669 97.013L250.981 21.6329C250.981 21.6329 248.54 17.8227 240.041 18.0262Z" fill="#EF4B23"/>
<mask id="mask2_9_5187" style="mask-type:luminance" maskUnits="userSpaceOnUse" x="210" y="18" width="41" height="80">
<path d="M240.041 18.0262L210.401 92.4907L226.669 97.013L250.981 21.6329C250.981 21.6329 248.54 17.8227 240.041 18.0262Z" fill="white"/>
</mask>
<g mask="url(#mask2_9_5187)">
<path d="M219.233 20.3012C215.321 20.3012 212.149 17.1291 212.149 13.2172C216.061 13.2172 219.224 16.3893 219.224 20.2919L219.233 20.3012Z" fill="#F56D27"/>
<path d="M212.149 13.2172C212.149 17.1291 208.977 20.3012 205.065 20.3012C205.065 16.3893 208.237 13.2265 212.14 13.2265L212.149 13.2172Z" fill="#F56D27"/>
<path d="M212.159 27.3758C208.247 27.3758 205.084 24.2038 205.084 20.3011C208.996 20.3011 212.168 23.4732 212.168 27.3851L212.159 27.3758Z" fill="#F56D27"/>
<path d="M212.159 27.3758C212.159 23.4639 215.331 20.2919 219.243 20.2919C219.243 24.2038 216.07 27.3666 212.168 27.3666L212.159 27.3758Z" fill="#F56D27"/>
<path d="M212.159 41.5344C212.159 37.6226 215.331 34.4505 219.243 34.4505C219.243 38.3624 216.07 41.5252 212.168 41.5252L212.159 41.5344Z" fill="#F56D27"/>
<path d="M219.233 34.4598C215.321 34.4598 212.149 31.2877 212.149 27.3759C216.061 27.3759 219.224 30.5479 219.224 34.4505L219.233 34.4598Z" fill="#F56D27"/>
<path d="M212.149 27.3759C212.149 31.2877 208.977 34.4598 205.065 34.4598C205.065 30.5479 208.237 27.3851 212.14 27.3851L212.149 27.3759Z" fill="#F56D27"/>
<path d="M212.159 41.5345C208.247 41.5345 205.084 38.3624 205.084 34.4598C208.996 34.4598 212.168 37.6318 212.168 41.5437L212.159 41.5345Z" fill="#F56D27"/>
<path d="M219.233 48.6184C215.321 48.6184 212.149 45.4463 212.149 41.5344C216.061 41.5344 219.224 44.7065 219.224 48.6091L219.233 48.6184Z" fill="#F56D27"/>
<path d="M212.159 55.6931C212.159 51.7812 215.331 48.6091 219.243 48.6091C219.243 52.521 216.07 55.6838 212.168 55.6838L212.159 55.6931Z" fill="#F56D27"/>
<path d="M212.159 55.6931C208.247 55.6931 205.084 52.521 205.084 48.6184C208.996 48.6184 212.168 51.7905 212.168 55.7023L212.159 55.6931Z" fill="#F56D27"/>
<path d="M212.149 41.5344C212.149 45.4463 208.977 48.6184 205.065 48.6184C205.065 44.7065 208.237 41.5437 212.14 41.5437L212.149 41.5344Z" fill="#F56D27"/>
<path d="M212.159 69.8517C212.159 65.9398 215.331 62.7678 219.243 62.7678C219.243 66.6796 216.07 69.8424 212.168 69.8424L212.159 69.8517Z" fill="#F56D27"/>
<path d="M212.159 69.8517C208.247 69.8517 205.084 66.6796 205.084 62.777C208.996 62.777 212.168 65.949 212.168 69.8609L212.159 69.8517Z" fill="#F56D27"/>
<path d="M219.233 62.777C215.321 62.777 212.149 59.6049 212.149 55.6931C216.061 55.6931 219.224 58.8651 219.224 62.7677L219.233 62.777Z" fill="#F56D27"/>
<path d="M212.149 55.6931C212.149 59.6049 208.977 62.777 205.065 62.777C205.065 58.8651 208.237 55.7023 212.14 55.7023L212.149 55.6931Z" fill="#F56D27"/>
<path d="M212.149 69.8517C212.149 73.7636 208.977 76.9356 205.065 76.9356C205.065 73.0237 208.237 69.8609 212.14 69.8609L212.149 69.8517Z" fill="#F56D27"/>
<path d="M219.233 76.9356C215.321 76.9356 212.149 73.7636 212.149 69.8517C216.061 69.8517 219.224 73.0237 219.224 76.9264L219.233 76.9356Z" fill="#F56D27"/>
<path d="M212.159 84.0195C212.159 80.1077 215.331 76.9356 219.243 76.9356C219.243 80.8475 216.07 84.0103 212.168 84.0103L212.159 84.0195Z" fill="#F56D27"/>
<path d="M212.159 84.0196C208.247 84.0196 205.084 80.8475 205.084 76.9449C208.996 76.9449 212.168 80.1169 212.168 84.0288L212.159 84.0196Z" fill="#F56D27"/>
<path d="M212.159 98.1782C212.159 94.2663 215.331 91.0942 219.243 91.0942C219.243 95.0061 216.07 98.1689 212.168 98.1689L212.159 98.1782Z" fill="#F56D27"/>
<path d="M219.233 91.0943C215.321 91.0943 212.149 87.9222 212.149 84.0103C216.061 84.0103 219.224 87.1824 219.224 91.085L219.233 91.0943Z" fill="#F56D27"/>
<path d="M212.149 84.0196C212.149 87.9315 208.977 91.1035 205.065 91.1035C205.065 87.1916 208.237 84.0288 212.14 84.0288L212.149 84.0196Z" fill="#F56D27"/>
<path d="M212.159 98.1782C208.247 98.1782 205.084 95.0062 205.084 91.1035C208.996 91.1035 212.168 94.2756 212.168 98.1874L212.159 98.1782Z" fill="#F56D27"/>
<path d="M233.392 20.3012C229.48 20.3012 226.308 17.1291 226.308 13.2172C230.22 13.2172 233.383 16.3893 233.383 20.2919L233.392 20.3012Z" fill="#F56D27"/>
<path d="M226.317 27.3758C222.405 27.3758 219.242 24.2038 219.242 20.3011C223.154 20.3011 226.326 23.4732 226.326 27.3851L226.317 27.3758Z" fill="#F56D27"/>
<path d="M226.308 13.2172C226.308 17.1291 223.136 20.3012 219.224 20.3012C219.224 16.3893 222.396 13.2265 226.299 13.2265L226.308 13.2172Z" fill="#F56D27"/>
<path d="M226.317 27.3758C226.317 23.4639 229.489 20.2919 233.401 20.2919C233.401 24.2038 230.229 27.3666 226.326 27.3666L226.317 27.3758Z" fill="#F56D27"/>
<path d="M233.392 34.4598C229.48 34.4598 226.308 31.2877 226.308 27.3759C230.22 27.3759 233.383 30.5479 233.383 34.4505L233.392 34.4598Z" fill="#F56D27"/>
<path d="M226.317 41.5345C222.405 41.5345 219.242 38.3624 219.242 34.4598C223.154 34.4598 226.326 37.6318 226.326 41.5437L226.317 41.5345Z" fill="#F56D27"/>
<path d="M226.317 27.3759C226.317 31.2877 223.145 34.4598 219.233 34.4598C219.233 30.5479 222.405 27.3851 226.308 27.3851L226.317 27.3759Z" fill="#F56D27"/>
<path d="M226.317 41.5344C226.317 37.6226 229.489 34.4505 233.401 34.4505C233.401 38.3624 230.229 41.5252 226.326 41.5252L226.317 41.5344Z" fill="#F56D27"/>
<path d="M226.317 55.6931C226.317 51.7812 229.489 48.6091 233.401 48.6091C233.401 52.521 230.229 55.6838 226.326 55.6838L226.317 55.6931Z" fill="#F56D27"/>
<path d="M226.317 55.6931C222.405 55.6931 219.242 52.521 219.242 48.6184C223.154 48.6184 226.326 51.7905 226.326 55.7023L226.317 55.6931Z" fill="#F56D27"/>
<path d="M226.308 41.5344C226.308 45.4463 223.136 48.6184 219.224 48.6184C219.224 44.7065 222.396 41.5437 226.299 41.5437L226.308 41.5344Z" fill="#F56D27"/>
<path d="M233.392 48.6184C229.48 48.6184 226.308 45.4463 226.308 41.5344C230.22 41.5344 233.383 44.7065 233.383 48.6091L233.392 48.6184Z" fill="#F56D27"/>
<path d="M233.392 62.777C229.48 62.777 226.308 59.6049 226.308 55.6931C230.22 55.6931 233.383 58.8651 233.383 62.7677L233.392 62.777Z" fill="#F56D27"/>
<path d="M226.308 55.6931C226.308 59.6049 223.136 62.777 219.224 62.777C219.224 58.8651 222.396 55.7023 226.299 55.7023L226.308 55.6931Z" fill="#F56D27"/>
<path d="M226.317 69.8517C226.317 65.9398 229.489 62.7678 233.401 62.7678C233.401 66.6796 230.229 69.8424 226.326 69.8424L226.317 69.8517Z" fill="#F56D27"/>
<path d="M226.317 69.8517C222.405 69.8517 219.242 66.6796 219.242 62.777C223.154 62.777 226.326 65.949 226.326 69.8609L226.317 69.8517Z" fill="#F56D27"/>
<path d="M226.317 84.0195C226.317 80.1077 229.489 76.9356 233.401 76.9356C233.401 80.8475 230.229 84.0103 226.326 84.0103L226.317 84.0195Z" fill="#F56D27"/>
<path d="M233.392 76.9356C229.48 76.9356 226.308 73.7636 226.308 69.8517C230.22 69.8517 233.383 73.0237 233.383 76.9264L233.392 76.9356Z" fill="#F56D27"/>
<path d="M226.317 84.0196C222.405 84.0196 219.242 80.8475 219.242 76.9449C223.154 76.9449 226.326 80.1169 226.326 84.0288L226.317 84.0196Z" fill="#F56D27"/>
<path d="M226.317 69.8517C226.317 73.7636 223.145 76.9356 219.233 76.9356C219.233 73.0237 222.405 69.8609 226.308 69.8609L226.317 69.8517Z" fill="#F56D27"/>
<path d="M226.317 98.1782C222.405 98.1782 219.242 95.0062 219.242 91.1035C223.154 91.1035 226.326 94.2756 226.326 98.1874L226.317 98.1782Z" fill="#F56D27"/>
<path d="M226.317 98.1782C226.317 94.2663 229.489 91.0942 233.401 91.0942C233.401 95.0061 230.229 98.1689 226.326 98.1689L226.317 98.1782Z" fill="#F56D27"/>
<path d="M226.317 84.0196C226.317 87.9315 223.145 91.1035 219.233 91.1035C219.233 87.1916 222.405 84.0288 226.308 84.0288L226.317 84.0196Z" fill="#F56D27"/>
<path d="M233.392 91.0943C229.48 91.0943 226.308 87.9222 226.308 84.0103C230.22 84.0103 233.383 87.1824 233.383 91.085L233.392 91.0943Z" fill="#F56D27"/>
<path d="M240.476 27.3758C240.476 23.4639 243.648 20.2919 247.56 20.2919C247.56 24.2038 244.388 27.3666 240.485 27.3666L240.476 27.3758Z" fill="#F56D27"/>
<path d="M247.55 20.3012C243.639 20.3012 240.467 17.1291 240.467 13.2172C244.378 13.2172 247.541 16.3893 247.541 20.2919L247.55 20.3012Z" fill="#F56D27"/>
<path d="M240.476 27.3758C236.564 27.3758 233.401 24.2038 233.401 20.3011C237.313 20.3011 240.485 23.4732 240.485 27.3851L240.476 27.3758Z" fill="#F56D27"/>
<path d="M240.467 13.2172C240.467 17.1291 237.294 20.3012 233.383 20.3012C233.383 16.3893 236.555 13.2265 240.457 13.2265L240.467 13.2172Z" fill="#F56D27"/>
<path d="M240.476 41.5345C236.564 41.5345 233.401 38.3624 233.401 34.4598C237.313 34.4598 240.485 37.6318 240.485 41.5437L240.476 41.5345Z" fill="#F56D27"/>
<path d="M240.476 27.3759C240.476 31.2877 237.304 34.4598 233.392 34.4598C233.392 30.5479 236.564 27.3851 240.467 27.3851L240.476 27.3759Z" fill="#F56D27"/>
<path d="M240.476 41.5344C240.476 37.6226 243.648 34.4505 247.56 34.4505C247.56 38.3624 244.388 41.5252 240.485 41.5252L240.476 41.5344Z" fill="#F56D27"/>
<path d="M247.55 34.4598C243.639 34.4598 240.467 31.2877 240.467 27.3759C244.378 27.3759 247.541 30.5479 247.541 34.4505L247.55 34.4598Z" fill="#F56D27"/>
<path d="M247.55 48.6184C243.639 48.6184 240.467 45.4463 240.467 41.5344C244.378 41.5344 247.541 44.7065 247.541 48.6091L247.55 48.6184Z" fill="#F56D27"/>
<path d="M240.476 55.6931C240.476 51.7812 243.648 48.6091 247.56 48.6091C247.56 52.521 244.388 55.6838 240.485 55.6838L240.476 55.6931Z" fill="#F56D27"/>
<path d="M240.476 55.6931C236.564 55.6931 233.401 52.521 233.401 48.6184C237.313 48.6184 240.485 51.7905 240.485 55.7023L240.476 55.6931Z" fill="#F56D27"/>
<path d="M240.476 41.5344C240.476 45.4463 237.304 48.6184 233.392 48.6184C233.392 44.7065 236.564 41.5437 240.467 41.5437L240.476 41.5344Z" fill="#F56D27"/>
<path d="M240.476 69.8517C236.564 69.8517 233.401 66.6796 233.401 62.777C237.313 62.777 240.485 65.949 240.485 69.8609L240.476 69.8517Z" fill="#F56D27"/>
<path d="M240.467 55.6931C240.467 59.6049 237.294 62.777 233.383 62.777C233.383 58.8651 236.555 55.7023 240.457 55.7023L240.467 55.6931Z" fill="#F56D27"/>
<path d="M247.55 62.777C243.639 62.777 240.467 59.6049 240.467 55.6931C244.378 55.6931 247.541 58.8651 247.541 62.7677L247.55 62.777Z" fill="#F56D27"/>
<path d="M240.476 69.8517C240.476 65.9398 243.648 62.7678 247.56 62.7678C247.56 66.6796 244.388 69.8424 240.485 69.8424L240.476 69.8517Z" fill="#F56D27"/>
<path d="M240.476 84.0195C240.476 80.1077 243.648 76.9356 247.56 76.9356C247.56 80.8475 244.388 84.0103 240.485 84.0103L240.476 84.0195Z" fill="#F56D27"/>
<path d="M247.55 76.9356C243.639 76.9356 240.467 73.7636 240.467 69.8517C244.378 69.8517 247.541 73.0237 247.541 76.9264L247.55 76.9356Z" fill="#F56D27"/>
<path d="M240.476 69.8517C240.476 73.7636 237.304 76.9356 233.392 76.9356C233.392 73.0237 236.564 69.8609 240.467 69.8609L240.476 69.8517Z" fill="#F56D27"/>
<path d="M240.476 84.0196C236.564 84.0196 233.401 80.8475 233.401 76.9449C237.313 76.9449 240.485 80.1169 240.485 84.0288L240.476 84.0196Z" fill="#F56D27"/>
<path d="M240.476 98.1782C240.476 94.2663 243.648 91.0942 247.56 91.0942C247.56 95.0061 244.388 98.1689 240.485 98.1689L240.476 98.1782Z" fill="#F56D27"/>
<path d="M247.55 91.0943C243.639 91.0943 240.467 87.9222 240.467 84.0103C244.378 84.0103 247.541 87.1824 247.541 91.085L247.55 91.0943Z" fill="#F56D27"/>
<path d="M240.476 98.1782C236.564 98.1782 233.401 95.0062 233.401 91.1035C237.313 91.1035 240.485 94.2756 240.485 98.1874L240.476 98.1782Z" fill="#F56D27"/>
<path d="M240.476 84.0196C240.476 87.9315 237.304 91.1035 233.392 91.1035C233.392 87.1916 236.564 84.0288 240.467 84.0288L240.476 84.0196Z" fill="#F56D27"/>
<path d="M254.634 13.2172C254.634 17.1291 251.462 20.3012 247.551 20.3012C247.551 16.3893 250.723 13.2265 254.625 13.2265L254.634 13.2172Z" fill="#F56D27"/>
<path d="M254.634 27.3758C250.722 27.3758 247.56 24.2038 247.56 20.3011C251.472 20.3011 254.644 23.4732 254.644 27.3851L254.634 27.3758Z" fill="#F56D27"/>
<path d="M254.634 41.5345C250.722 41.5345 247.56 38.3624 247.56 34.4598C251.472 34.4598 254.644 37.6318 254.644 41.5437L254.634 41.5345Z" fill="#F56D27"/>
<path d="M254.634 27.3759C254.634 31.2877 251.462 34.4598 247.551 34.4598C247.551 30.5479 250.723 27.3851 254.625 27.3851L254.634 27.3759Z" fill="#F56D27"/>
<path d="M254.634 55.6931C250.722 55.6931 247.56 52.521 247.56 48.6184C251.472 48.6184 254.644 51.7905 254.644 55.7023L254.634 55.6931Z" fill="#F56D27"/>
<path d="M254.634 41.5344C254.634 45.4463 251.462 48.6184 247.551 48.6184C247.551 44.7065 250.723 41.5437 254.625 41.5437L254.634 41.5344Z" fill="#F56D27"/>
<path d="M254.634 69.8517C250.722 69.8517 247.56 66.6796 247.56 62.777C251.472 62.777 254.644 65.949 254.644 69.8609L254.634 69.8517Z" fill="#F56D27"/>
<path d="M254.634 55.6931C254.634 59.6049 251.462 62.777 247.551 62.777C247.551 58.8651 250.723 55.7023 254.625 55.7023L254.634 55.6931Z" fill="#F56D27"/>
<path d="M254.634 84.0196C250.722 84.0196 247.56 80.8475 247.56 76.9449C251.472 76.9449 254.644 80.1169 254.644 84.0288L254.634 84.0196Z" fill="#F56D27"/>
<path d="M254.634 69.8517C254.634 73.7636 251.462 76.9356 247.551 76.9356C247.551 73.0237 250.723 69.8609 254.625 69.8609L254.634 69.8517Z" fill="#F56D27"/>
<path d="M254.634 98.1782C250.722 98.1782 247.56 95.0062 247.56 91.1035C251.472 91.1035 254.644 94.2756 254.644 98.1874L254.634 98.1782Z" fill="#F56D27"/>
<path d="M254.634 84.0196C254.634 87.9315 251.462 91.1035 247.551 91.1035C247.551 87.1916 250.723 84.0288 254.625 84.0288L254.634 84.0196Z" fill="#F56D27"/>
</g>
<path d="M226.679 96.9928C227.272 94.8462 224.109 92.0998 219.614 90.8583C215.119 89.6168 210.995 90.3505 210.402 92.497C209.809 94.6435 212.972 97.39 217.467 98.6315C221.962 99.8729 226.086 99.1393 226.679 96.9928Z" fill="#C71E11"/>
<path d="M219.307 93.0641C219.307 93.0641 225.494 95.0616 224.125 98.2522C222.951 100.019 219.095 100.786 216.542 99.8151C213.99 98.8441 211.798 96.8835 211.918 94.2478C212.038 92.6202 215.072 91.5104 219.307 93.0641Z" fill="#FFF400"/>
<path d="M130.074 0.640015C71.5527 0.640015 25.9788 18.3868 14.1136 23.464L40.868 90.7151C73.8277 79.4326 103.773 75.6502 129.158 75.6502C172.365 75.6502 202.337 86.6275 211.252 90.3359L237.859 23.464L237.988 23.1495C200.367 6.30902 163.172 0.640015 130.074 0.640015Z" stroke="black" stroke-linecap="round" stroke-linejoin="round"/>
<path d="M129.907 9.46259C163.533 9.46259 195.494 16.0656 225.05 29.0867L205.519 80.043C192.655 75.1046 165.651 66.8369 129.038 66.8369C101.627 66.8369 73.9664 71.4979 46.7034 80.6903L27.0145 29.5769C42.6158 23.1866 81.7254 9.46259 129.907 9.46259Z" stroke="black" stroke-linecap="round" stroke-linejoin="round"/>
<path d="M10.6826 18.0262C6.1419 18.1372 3.55247 19.4504 2.21152 20.4584L1.97107 19.7185C1.97107 19.7185 4.29231 16.1026 10.2018 17.1846C10.4052 17.536 10.5717 17.8135 10.6826 18.0262Z" stroke="black" stroke-linecap="round" stroke-linejoin="round"/>
<path d="M41.4228 92.1023C41.1824 91.6491 40.7662 91.27 40.2021 90.9648C39.4992 90.5949 38.5467 90.3729 37.4554 90.2989C35.9665 90.1879 34.2002 90.3637 32.3876 90.8631C27.93 92.0838 24.7765 94.8119 25.3036 96.939L1 21.6421C1 21.6421 1.34218 21.115 2.21148 20.4584C3.54319 19.4503 6.14186 18.1371 10.6826 18.0262C11.0895 18.0169 11.5149 18.0169 11.9588 18.0262L14.1229 23.4732L40.8772 90.7243L41.4228 92.1023Z" stroke="black" stroke-linecap="round" stroke-linejoin="round"/>
<path d="M39.7674 96.0696C39.9986 95.5055 40.0911 94.8952 40.0726 94.257C40.0449 93.8316 39.8044 93.434 39.3883 93.1103C38.2693 92.2318 35.8001 91.9266 32.6835 93.0733C32.6835 93.0733 28.9751 94.2663 27.9486 96.2916H27.9393C27.6341 96.8835 27.5601 97.5401 27.8746 98.2707C28.0873 98.5851 28.3925 98.8718 28.7531 99.1307C26.9405 98.881 25.6366 98.1504 25.3221 97.0222C25.3221 97.0222 25.3191 97.0129 25.3129 96.9944C25.3129 96.9944 25.3036 96.9574 25.3036 96.9482C24.7765 94.8212 27.9208 92.093 32.3876 90.8723C34.2002 90.3637 35.9665 90.188 37.4554 90.3082C38.556 90.3822 39.4992 90.6134 40.2021 90.974C40.7662 91.2792 41.1824 91.6584 41.4228 92.1115L41.5893 92.5184C41.9037 93.6374 41.1731 94.9229 39.7767 96.0881L39.7674 96.0696Z" stroke="black" stroke-linecap="round" stroke-linejoin="round"/>
<path d="M40.0727 94.2571C40.1004 94.9044 39.9987 95.5056 39.7675 96.0697H39.7583C39.0924 97.7991 37.3723 99.0938 35.458 99.8244C33.3679 100.62 30.4178 100.25 28.7624 99.1215H28.7532C28.3833 98.8718 28.0873 98.5759 27.8746 98.2614C27.5602 97.5309 27.6342 96.8743 27.9394 96.2824H27.9486C28.9844 94.2663 32.6836 93.0641 32.6836 93.0641C35.8001 91.9174 38.2693 92.2225 39.3883 93.1011C39.8045 93.4248 40.0449 93.8224 40.0727 94.2478V94.2571Z" stroke="black" stroke-linecap="round" stroke-linejoin="round"/>
<path d="M250.02 19.7185L249.779 20.4584C248.448 19.4504 245.849 18.1372 241.308 18.0262C241.419 17.8135 241.586 17.536 241.789 17.1846C247.698 16.1026 250.02 19.7185 250.02 19.7185Z" stroke="black" stroke-linecap="round" stroke-linejoin="round"/>
<path d="M226.687 96.939C227.214 94.8119 224.07 92.0838 219.603 90.8631C217.791 90.3544 216.024 90.1787 214.535 90.2989C213.657 90.3637 212.88 90.5116 212.242 90.7798H212.232C212.066 90.8261 211.927 90.8908 211.789 90.9648C211.224 91.27 210.808 91.6491 210.568 92.1023L211.113 90.7243L211.261 90.3452L237.868 23.4732L237.997 23.1588L240.041 18.0262C240.485 18.0169 240.91 18.0169 241.317 18.0262C245.858 18.1371 248.448 19.4503 249.788 20.4584C250.658 21.115 251 21.6421 251 21.6421L226.696 96.939H226.687Z" stroke="black" stroke-linecap="round" stroke-linejoin="round"/>
<path d="M226.687 96.939C226.687 96.939 226.678 96.976 226.678 96.9852C226.678 96.9944 226.678 96.9944 226.669 97.0129C226.354 98.1319 225.059 98.8625 223.238 99.1215C223.608 98.8718 223.903 98.5758 224.116 98.2614C224.431 97.5308 224.357 96.8742 224.051 96.2823H224.042C223.006 94.2663 219.307 93.0641 219.307 93.0641C216.191 91.9173 213.721 92.2225 212.602 93.101C212.186 93.4247 211.946 93.8224 211.918 94.2478C211.89 94.8952 211.992 95.4963 212.223 96.0604C210.827 94.9044 210.096 93.6189 210.411 92.4907L210.577 92.0838C210.818 91.6306 211.234 91.2515 211.798 90.9463C211.937 90.8723 212.075 90.8076 212.242 90.7613H212.251C212.898 90.4931 213.666 90.3452 214.545 90.2804C216.033 90.1695 217.8 90.3452 219.612 90.8445C224.07 92.0653 227.223 94.7934 226.696 96.9205L226.687 96.939Z" stroke="black" stroke-linecap="round" stroke-linejoin="round"/>
<path d="M224.116 98.2614C223.903 98.5758 223.598 98.8625 223.238 99.1215H223.228C221.573 100.259 218.632 100.62 216.533 99.8243C214.618 99.0937 212.898 97.799 212.232 96.0697H212.223C211.992 95.5055 211.9 94.8952 211.918 94.257C211.946 93.8316 212.186 93.434 212.602 93.1103C213.721 92.2318 216.191 91.9266 219.307 93.0733C219.307 93.0733 223.016 94.2663 224.042 96.2916H224.051C224.357 96.8835 224.431 97.5401 224.116 98.2707V98.2614Z" stroke="black" stroke-linecap="round" stroke-linejoin="round"/>
</svg>
