<svg xmlns="http://www.w3.org/2000/svg" width="220" height="89" fill="none" viewBox="0 0 220 89" xmlns:xlink="http://www.w3.org/1999/xlink">
  <g clip-path="url(#a)">
    <path fill="#EABD00" d="M113.585 1C53.468 1 8.879 22.281 8.879 22.281l23.706 58.872c29.981-10.604 57.22-14.128 80.202-14.128 45.77 0 74.66 13.998 74.66 13.998l23.658-59.05C177.136 6.256 143.444 1 113.577 1.007z"/>
    <g style="mix-blend-mode:multiply">
      <mask id="b" width="204" height="81" x="8" y="1" maskUnits="userSpaceOnUse" style="mask-type:luminance">
        <path fill="#fff" d="M113.585 1C53.468 1 8.879 22.281 8.879 22.281l23.706 58.872c29.981-10.604 57.22-14.128 80.202-14.128 45.77 0 74.66 13.998 74.66 13.998l23.658-59.05C177.136 6.256 143.444 1 113.577 1.007z"/>
      </mask>
      <g fill="#FFF400" mask="url(#b)">
        <path d="M8.879 75.774a8.14 8.14 0 0 1 8.138 8.138 8.14 8.14 0 0 1-8.138-8.138m16.276 0a8.14 8.14 0 0 1-8.138 8.138 8.14 8.14 0 0 1 8.138-8.138m0 0a8.14 8.14 0 0 1-8.138-8.138 8.14 8.14 0 0 1 8.138 8.138m-8.138-8.138a8.14 8.14 0 0 1-8.138 8.138 8.14 8.14 0 0 1 8.138-8.138m24.414 8.138a8.14 8.14 0 0 1-8.138 8.138 8.14 8.14 0 0 1 8.139-8.138Zm0 0a8.14 8.14 0 0 1-8.138-8.138 8.14 8.14 0 0 1 8.139 8.138Zm-8.138-8.138a8.14 8.14 0 0 1-8.138 8.138 8.14 8.14 0 0 1 8.138-8.138m-8.138 8.138a8.14 8.14 0 0 1 8.138 8.138 8.14 8.14 0 0 1-8.138-8.138m32.553 0a8.14 8.14 0 0 1-8.138 8.138 8.14 8.14 0 0 1 8.138-8.138m-8.138-8.138a8.14 8.14 0 0 1-8.138 8.138 8.14 8.14 0 0 1 8.138-8.138m-8.138 8.138a8.14 8.14 0 0 1 8.138 8.138 8.14 8.14 0 0 1-8.138-8.138m16.276 0a8.14 8.14 0 0 1-8.138-8.138 8.14 8.14 0 0 1 8.138 8.138m0 0a8.14 8.14 0 0 1 8.138 8.138 8.14 8.14 0 0 1-8.138-8.138m8.138-8.138a8.14 8.14 0 0 1-8.138 8.138 8.14 8.14 0 0 1 8.138-8.138"/>
        <path d="M73.984 75.774c0 4.492-3.646 8.13-8.138 8.138a8.14 8.14 0 0 1 8.138-8.138m0 0a8.14 8.14 0 0 1-8.138-8.138 8.14 8.14 0 0 1 8.138 8.138m8.139-8.138a8.14 8.14 0 0 1-8.139 8.138 8.14 8.14 0 0 1 8.139-8.138m-8.139 8.138a8.14 8.14 0 0 1 8.139 8.138c-4.493 0-8.13-3.646-8.139-8.138m16.276 0a8.14 8.14 0 0 1-8.137 8.138 8.14 8.14 0 0 1 8.138-8.138Zm0 0a8.14 8.14 0 0 1-8.137-8.138 8.14 8.14 0 0 1 8.138 8.138Zm16.277 0a8.14 8.14 0 0 1-8.138-8.138 8.14 8.14 0 0 1 8.138 8.138"/>
        <path d="M98.399 67.636a8.14 8.14 0 0 1-8.138 8.138 8.14 8.14 0 0 1 8.138-8.138m-8.139 8.138a8.14 8.14 0 0 1 8.139 8.138 8.14 8.14 0 0 1-8.138-8.138Zm16.277 0a8.14 8.14 0 0 1-8.138 8.138 8.14 8.14 0 0 1 8.138-8.138m8.138-8.138a8.14 8.14 0 0 1-8.138 8.138 8.14 8.14 0 0 1 8.138-8.138m8.139 8.138a8.14 8.14 0 0 1-8.139-8.138 8.14 8.14 0 0 1 8.139 8.138m0 0c0 4.492-3.646 8.13-8.139 8.138a8.14 8.14 0 0 1 8.139-8.138"/>
        <path d="M106.537 75.774a8.14 8.14 0 0 1 8.138 8.138 8.14 8.14 0 0 1-8.138-8.138m32.553 0a8.14 8.14 0 0 1-8.138-8.138 8.14 8.14 0 0 1 8.138 8.138m0 0a8.14 8.14 0 0 1-8.138 8.138 8.14 8.14 0 0 1 8.138-8.138m-8.138-8.138a8.14 8.14 0 0 1-8.138 8.138 8.14 8.14 0 0 1 8.138-8.138m-8.138 8.138a8.14 8.14 0 0 1 8.138 8.138c-4.493 0-8.13-3.646-8.138-8.138m16.276 0a8.14 8.14 0 0 1 8.138 8.138 8.14 8.14 0 0 1-8.138-8.138m8.138-8.138a8.14 8.14 0 0 1-8.138 8.138 8.14 8.14 0 0 1 8.138-8.138m8.138 8.138a8.14 8.14 0 0 1-8.138-8.138 8.14 8.14 0 0 1 8.138 8.138m0 0a8.14 8.14 0 0 1-8.138 8.138 8.14 8.14 0 0 1 8.138-8.138m16.277 0a8.14 8.14 0 0 1-8.138-8.138 8.14 8.14 0 0 1 8.138 8.138"/>
        <path d="M163.505 67.636a8.14 8.14 0 0 1-8.139 8.138 8.14 8.14 0 0 1 8.139-8.138m-8.139 8.138a8.14 8.14 0 0 1 8.139 8.138 8.14 8.14 0 0 1-8.139-8.138m16.277 0a8.14 8.14 0 0 1-8.138 8.138 8.14 8.14 0 0 1 8.138-8.138m8.138-8.138a8.14 8.14 0 0 1-8.138 8.138 8.14 8.14 0 0 1 8.138-8.138m8.138 8.138a8.14 8.14 0 0 1-8.138 8.138 8.14 8.14 0 0 1 8.138-8.138m0 0a8.14 8.14 0 0 1-8.138-8.138 8.14 8.14 0 0 1 8.138 8.138m-16.276 0a8.14 8.14 0 0 1 8.138 8.138 8.14 8.14 0 0 1-8.138-8.138m32.553 0a8.14 8.14 0 0 1-8.139 8.138 8.14 8.14 0 0 1 8.139-8.138"/>
        <path d="M187.919 75.774a8.14 8.14 0 0 1 8.138 8.138 8.14 8.14 0 0 1-8.138-8.138m8.13-8.138a8.14 8.14 0 0 1-8.138 8.138 8.14 8.14 0 0 1 8.138-8.138m8.147 8.138a8.14 8.14 0 0 1-8.139-8.138 8.14 8.14 0 0 1 8.139 8.138m0 0a8.14 8.14 0 0 1 8.138 8.138 8.14 8.14 0 0 1-8.138-8.138"/>
        <path d="M212.326 67.636a8.14 8.14 0 0 1-8.139 8.138 8.14 8.14 0 0 1 8.139-8.138M25.155 59.497a8.14 8.14 0 0 1-8.138-8.138 8.14 8.14 0 0 1 8.138 8.138m-8.138-8.137a8.14 8.14 0 0 1-8.138 8.137 8.14 8.14 0 0 1 8.138-8.138Zm8.138 8.137a8.14 8.14 0 0 1-8.138 8.138 8.14 8.14 0 0 1 8.138-8.138m-16.276 0a8.14 8.14 0 0 1 8.138 8.138 8.14 8.14 0 0 1-8.138-8.138m16.276 0a8.14 8.14 0 0 1 8.138 8.138 8.14 8.14 0 0 1-8.138-8.138m8.138-8.137a8.14 8.14 0 0 1-8.138 8.137 8.14 8.14 0 0 1 8.138-8.138Zm8.138 8.137a8.14 8.14 0 0 1-8.138 8.138 8.14 8.14 0 0 1 8.139-8.138Zm0 0a8.14 8.14 0 0 1-8.138-8.138 8.14 8.14 0 0 1 8.139 8.138Zm.001 0a8.14 8.14 0 0 1 8.138 8.138 8.14 8.14 0 0 1-8.138-8.138m16.276 0a8.14 8.14 0 0 1-8.138 8.138 8.14 8.14 0 0 1 8.138-8.138m0 0a8.14 8.14 0 0 1-8.138-8.138 8.14 8.14 0 0 1 8.138 8.138M49.57 51.36a8.14 8.14 0 0 1-8.138 8.137 8.14 8.14 0 0 1 8.138-8.138Zm16.276 0a8.14 8.14 0 0 1-8.138 8.137 8.14 8.14 0 0 1 8.138-8.138Zm8.138 8.137a8.14 8.14 0 0 1-8.138 8.138 8.14 8.14 0 0 1 8.138-8.138"/>
        <path d="M57.708 59.497a8.14 8.14 0 0 1 8.138 8.138 8.14 8.14 0 0 1-8.138-8.138m16.276 0a8.14 8.14 0 0 1-8.138-8.138 8.14 8.14 0 0 1 8.138 8.138m8.139-8.137a8.14 8.14 0 0 1-8.139 8.137 8.14 8.14 0 0 1 8.139-8.138Zm8.137 8.137a8.14 8.14 0 0 1-8.137 8.138 8.14 8.14 0 0 1 8.138-8.138Zm-16.276 0a8.14 8.14 0 0 1 8.139 8.138 8.14 8.14 0 0 1-8.139-8.138m16.276 0a8.14 8.14 0 0 1-8.137-8.138 8.14 8.14 0 0 1 8.138 8.138Z"/>
        <path d="M98.399 51.36a8.14 8.14 0 0 1-8.138 8.137 8.14 8.14 0 0 1 8.138-8.138Zm8.138 8.137a8.14 8.14 0 0 1-8.138 8.138 8.14 8.14 0 0 1 8.138-8.138m-16.277 0a8.14 8.14 0 0 1 8.139 8.138 8.14 8.14 0 0 1-8.138-8.138Zm16.277 0a8.14 8.14 0 0 1-8.138-8.138 8.14 8.14 0 0 1 8.138 8.138m16.277 0a8.14 8.14 0 0 1-8.139-8.138 8.14 8.14 0 0 1 8.139 8.138m0 0a8.14 8.14 0 0 1-8.139 8.138 8.14 8.14 0 0 1 8.139-8.138"/>
        <path d="M106.537 59.497a8.14 8.14 0 0 1 8.138 8.138 8.14 8.14 0 0 1-8.138-8.138m8.138-8.137a8.14 8.14 0 0 1-8.138 8.137 8.14 8.14 0 0 1 8.138-8.138Zm16.277 0a8.14 8.14 0 0 1-8.138 8.137 8.14 8.14 0 0 1 8.138-8.138Zm-8.138 8.137a8.14 8.14 0 0 1 8.138 8.138 8.14 8.14 0 0 1-8.138-8.138m16.276 0a8.14 8.14 0 0 1-8.138-8.138 8.14 8.14 0 0 1 8.138 8.138m0 0a8.14 8.14 0 0 1-8.138 8.138 8.14 8.14 0 0 1 8.138-8.138m16.276 0a8.14 8.14 0 0 1-8.138-8.138 8.14 8.14 0 0 1 8.138 8.138m-8.138-8.137a8.14 8.14 0 0 1-8.138 8.137 8.14 8.14 0 0 1 8.138-8.138Zm8.138 8.137a8.14 8.14 0 0 1-8.138 8.138 8.14 8.14 0 0 1 8.138-8.138m-16.276 0a8.14 8.14 0 0 1 8.138 8.138 8.14 8.14 0 0 1-8.138-8.138m32.553 0a8.14 8.14 0 0 1-8.138 8.138 8.14 8.14 0 0 1 8.138-8.138m0 0a8.14 8.14 0 0 1-8.138-8.138 8.14 8.14 0 0 1 8.138 8.138"/>
        <path d="M155.366 59.497a8.14 8.14 0 0 1 8.139 8.138 8.14 8.14 0 0 1-8.139-8.138m8.139-8.137a8.14 8.14 0 0 1-8.139 8.137 8.14 8.14 0 0 1 8.139-8.138Zm16.268 0a8.14 8.14 0 0 1-8.138 8.137 8.14 8.14 0 0 1 8.138-8.138Zm-8.13 8.137a8.14 8.14 0 0 1 8.138 8.138 8.14 8.14 0 0 1-8.138-8.138m16.276 0a8.14 8.14 0 0 1-8.138-8.138 8.14 8.14 0 0 1 8.138 8.138m0 0a8.14 8.14 0 0 1-8.138 8.138 8.14 8.14 0 0 1 8.138-8.138"/>
        <path d="M196.049 51.36a8.14 8.14 0 0 1-8.138 8.137 8.14 8.14 0 0 1 8.138-8.138Zm8.147 8.137a8.14 8.14 0 0 1-8.139-8.138 8.14 8.14 0 0 1 8.139 8.138m0 0a8.14 8.14 0 0 1-8.139 8.138 8.14 8.14 0 0 1 8.139-8.138"/>
        <path d="M187.919 59.497a8.14 8.14 0 0 1 8.138 8.138 8.14 8.14 0 0 1-8.138-8.138m16.277 0a8.14 8.14 0 0 1 8.138 8.138 8.14 8.14 0 0 1-8.138-8.138m8.13-8.137a8.14 8.14 0 0 1-8.139 8.137 8.14 8.14 0 0 1 8.139-8.138ZM25.155 43.221a8.14 8.14 0 0 1-8.138-8.138 8.14 8.14 0 0 1 8.138 8.138m-8.138 8.139a8.14 8.14 0 0 1-8.138-8.14 8.14 8.14 0 0 1 8.138 8.14"/>
        <path d="M17.017 35.083a8.14 8.14 0 0 1-8.138 8.138 8.14 8.14 0 0 1 8.138-8.138m8.138 8.137a8.14 8.14 0 0 1-8.138 8.14 8.14 8.14 0 0 1 8.138-8.14m0 0a8.14 8.14 0 0 1 8.138 8.14 8.14 8.14 0 0 1-8.138-8.14m16.276 0a8.14 8.14 0 0 1-8.138 8.14 8.14 8.14 0 0 1 8.139-8.14Z"/>
        <path d="M41.431 43.221a8.14 8.14 0 0 1-8.138-8.138 8.14 8.14 0 0 1 8.139 8.138Zm-8.138-8.138a8.14 8.14 0 0 1-8.138 8.138 8.14 8.14 0 0 1 8.138-8.138m24.415 8.137a8.14 8.14 0 0 1-8.138 8.14 8.14 8.14 0 0 1 8.138-8.14m-8.138-8.137a8.14 8.14 0 0 1-8.138 8.138 8.14 8.14 0 0 1 8.138-8.138"/>
        <path d="M57.708 43.221a8.14 8.14 0 0 1-8.138-8.138 8.14 8.14 0 0 1 8.138 8.138m-16.276-.001a8.14 8.14 0 0 1 8.138 8.14 8.14 8.14 0 0 1-8.138-8.14m32.552.001a8.14 8.14 0 0 1-8.138-8.138 8.14 8.14 0 0 1 8.138 8.138m-8.138-8.138a8.14 8.14 0 0 1-8.138 8.138 8.14 8.14 0 0 1 8.138-8.138"/>
        <path d="M57.708 43.22a8.14 8.14 0 0 1 8.138 8.14 8.14 8.14 0 0 1-8.138-8.14"/>
        <path d="M73.984 43.22a8.14 8.14 0 0 1-8.138 8.14 8.14 8.14 0 0 1 8.138-8.14m16.276.001a8.14 8.14 0 0 1-8.137-8.138 8.14 8.14 0 0 1 8.138 8.138Zm-8.137-8.138a8.14 8.14 0 0 1-8.139 8.138 8.14 8.14 0 0 1 8.139-8.138"/>
        <path d="M90.26 43.22a8.14 8.14 0 0 1-8.137 8.14 8.14 8.14 0 0 1 8.138-8.14Zm-16.276 0a8.14 8.14 0 0 1 8.139 8.14 8.14 8.14 0 0 1-8.139-8.14m32.553 0a8.14 8.14 0 0 1-8.138 8.14 8.14 8.14 0 0 1 8.138-8.14"/>
        <path d="M90.26 43.22a8.14 8.14 0 0 1 8.139 8.14 8.14 8.14 0 0 1-8.138-8.14Zm16.277.001a8.14 8.14 0 0 1-8.138-8.138 8.14 8.14 0 0 1 8.138 8.138"/>
        <path d="M98.399 35.083a8.14 8.14 0 0 1-8.138 8.138 8.14 8.14 0 0 1 8.138-8.138m16.276 0a8.14 8.14 0 0 1-8.138 8.138 8.14 8.14 0 0 1 8.138-8.138m8.139 8.138a8.14 8.14 0 0 1-8.139-8.138 8.14 8.14 0 0 1 8.139 8.138"/>
        <path d="M122.814 43.22a8.14 8.14 0 0 1-8.139 8.14 8.14 8.14 0 0 1 8.139-8.14"/>
        <path d="M106.537 43.22a8.14 8.14 0 0 1 8.138 8.14 8.14 8.14 0 0 1-8.138-8.14m32.553 0a8.14 8.14 0 0 1-8.138 8.14 8.14 8.14 0 0 1 8.138-8.14m-16.276 0a8.14 8.14 0 0 1 8.138 8.14 8.14 8.14 0 0 1-8.138-8.14"/>
        <path d="M130.952 35.083a8.14 8.14 0 0 1-8.138 8.138 8.14 8.14 0 0 1 8.138-8.138m8.138 8.138a8.14 8.14 0 0 1-8.138-8.138 8.14 8.14 0 0 1 8.138 8.138m16.276 0a8.14 8.14 0 0 1-8.138-8.138 8.14 8.14 0 0 1 8.138 8.138"/>
        <path d="M147.22 35.083a8.14 8.14 0 0 1-8.138 8.138 8.14 8.14 0 0 1 8.138-8.138"/>
        <path d="M139.09 43.22a8.14 8.14 0 0 1 8.138 8.14 8.14 8.14 0 0 1-8.138-8.14m16.276 0a8.14 8.14 0 0 1-8.138 8.14 8.14 8.14 0 0 1 8.138-8.14m16.277.001a8.14 8.14 0 0 1-8.138-8.138 8.14 8.14 0 0 1 8.138 8.138"/>
        <path d="M163.496 35.083a8.14 8.14 0 0 1-8.138 8.138 8.14 8.14 0 0 1 8.138-8.138m8.147 8.137a8.14 8.14 0 0 1-8.138 8.14 8.14 8.14 0 0 1 8.138-8.14"/>
        <path d="M155.366 43.22a8.14 8.14 0 0 1 8.139 8.14 8.14 8.14 0 0 1-8.139-8.14m16.277 0a8.14 8.14 0 0 1 8.138 8.14 8.14 8.14 0 0 1-8.138-8.14m16.276.001a8.14 8.14 0 0 1-8.138-8.138 8.14 8.14 0 0 1 8.138 8.138"/>
        <path d="M179.773 35.083a8.14 8.14 0 0 1-8.138 8.138 8.14 8.14 0 0 1 8.138-8.138m8.146 8.137a8.14 8.14 0 0 1-8.138 8.14 8.14 8.14 0 0 1 8.138-8.14m0 0a8.14 8.14 0 0 1 8.138 8.14 8.14 8.14 0 0 1-8.138-8.14m16.277 0a8.14 8.14 0 0 1-8.139 8.14 8.14 8.14 0 0 1 8.139-8.14"/>
        <path d="M204.196 43.221a8.14 8.14 0 0 1-8.139-8.138 8.14 8.14 0 0 1 8.139 8.138m-8.147-8.138a8.14 8.14 0 0 1-8.138 8.138 8.14 8.14 0 0 1 8.138-8.138"/>
        <path d="M212.326 35.083a8.14 8.14 0 0 1-8.139 8.138 8.14 8.14 0 0 1 8.139-8.138"/>
        <path d="M204.196 43.22a8.14 8.14 0 0 1 8.138 8.14 8.14 8.14 0 0 1-8.138-8.14M17.025 35.083a8.14 8.14 0 0 1 8.138-8.138 8.14 8.14 0 0 1-8.138 8.138m-.008 0a8.14 8.14 0 0 1-8.138-8.138 8.14 8.14 0 0 1 8.138 8.138m0-16.277a8.14 8.14 0 0 1-8.138 8.139 8.14 8.14 0 0 1 8.138-8.139m8.138 8.139a8.14 8.14 0 0 1-8.138-8.139 8.14 8.14 0 0 1 8.138 8.139m16.276 0a8.14 8.14 0 0 1-8.138-8.139 8.14 8.14 0 0 1 8.139 8.139Zm0 0a8.14 8.14 0 0 1-8.138 8.138 8.14 8.14 0 0 1 8.139-8.138Z"/>
        <path d="M33.293 35.083a8.14 8.14 0 0 1-8.138-8.138 8.14 8.14 0 0 1 8.138 8.138m0-16.277a8.14 8.14 0 0 1-8.138 8.139 8.14 8.14 0 0 1 8.138-8.139m16.277 0a8.14 8.14 0 0 1-8.138 8.139 8.14 8.14 0 0 1 8.138-8.139m-8.138 8.139a8.14 8.14 0 0 1 8.138 8.138 8.14 8.14 0 0 1-8.138-8.138m16.276 0a8.14 8.14 0 0 1-8.138 8.138 8.14 8.14 0 0 1 8.138-8.138m0 0a8.14 8.14 0 0 1-8.138-8.139 8.14 8.14 0 0 1 8.138 8.139m16.276 0a8.14 8.14 0 0 1-8.138-8.139 8.14 8.14 0 0 1 8.138 8.139m-16.276 0a8.14 8.14 0 0 1 8.138 8.138 8.14 8.14 0 0 1-8.138-8.138"/>
        <path d="M73.984 26.945a8.14 8.14 0 0 1-8.138 8.138 8.14 8.14 0 0 1 8.138-8.138m-8.138-8.139a8.14 8.14 0 0 1-8.138 8.139 8.14 8.14 0 0 1 8.138-8.139m8.138 8.139a8.14 8.14 0 0 1 8.139 8.138 8.14 8.14 0 0 1-8.139-8.138m8.139-8.139a8.14 8.14 0 0 1-8.139 8.139 8.14 8.14 0 0 1 8.139-8.139m8.137 8.139a8.14 8.14 0 0 1-8.137-8.139 8.14 8.14 0 0 1 8.138 8.139Zm0 0a8.14 8.14 0 0 1-8.137 8.138 8.14 8.14 0 0 1 8.138-8.138Zm16.277 0a8.14 8.14 0 0 1-8.138 8.138 8.14 8.14 0 0 1 8.138-8.138"/>
        <path d="M90.26 26.945a8.14 8.14 0 0 1 8.139 8.138 8.14 8.14 0 0 1-8.138-8.138Zm16.277 0a8.14 8.14 0 0 1-8.138-8.139 8.14 8.14 0 0 1 8.138 8.139m-8.138-8.139a8.14 8.14 0 0 1-8.138 8.139 8.14 8.14 0 0 1 8.138-8.139m24.415 8.139a8.14 8.14 0 0 1-8.139 8.138 8.14 8.14 0 0 1 8.139-8.138"/>
        <path d="M106.537 26.945a8.14 8.14 0 0 1 8.138 8.138 8.14 8.14 0 0 1-8.138-8.138m16.277 0a8.14 8.14 0 0 1-8.139-8.139 8.14 8.14 0 0 1 8.139 8.139m-8.139-8.139a8.14 8.14 0 0 1-8.138 8.139 8.14 8.14 0 0 1 8.138-8.139m16.277 0a8.14 8.14 0 0 1-8.138 8.139 8.14 8.14 0 0 1 8.138-8.139m8.138 8.139a8.14 8.14 0 0 1-8.138 8.138 8.14 8.14 0 0 1 8.138-8.138m0 0a8.14 8.14 0 0 1-8.138-8.139 8.14 8.14 0 0 1 8.138 8.139m-16.276 0a8.14 8.14 0 0 1 8.138 8.138 8.14 8.14 0 0 1-8.138-8.138m24.414-8.139a8.14 8.14 0 0 1-8.138 8.139 8.14 8.14 0 0 1 8.138-8.139m8.138 8.139a8.14 8.14 0 0 1-8.138 8.138 8.14 8.14 0 0 1 8.138-8.138m0 0a8.14 8.14 0 0 1-8.138-8.139 8.14 8.14 0 0 1 8.138 8.139m-16.276 0a8.14 8.14 0 0 1 8.138 8.138 8.14 8.14 0 0 1-8.138-8.138m32.553 0a8.14 8.14 0 0 1-8.138 8.138 8.14 8.14 0 0 1 8.138-8.138"/>
        <path d="M155.366 26.945a8.14 8.14 0 0 1 8.139 8.138 8.14 8.14 0 0 1-8.139-8.138m16.277 0a8.14 8.14 0 0 1-8.138-8.139 8.14 8.14 0 0 1 8.138 8.139m-8.138-8.139a8.14 8.14 0 0 1-8.139 8.139 8.14 8.14 0 0 1 8.139-8.139m24.414 8.139a8.14 8.14 0 0 1-8.138-8.139 8.14 8.14 0 0 1 8.138 8.139m0 0a8.14 8.14 0 0 1-8.138 8.138 8.14 8.14 0 0 1 8.138-8.138"/>
        <path d="M179.773 18.806a8.14 8.14 0 0 1-8.138 8.139 8.14 8.14 0 0 1 8.138-8.139m-8.13 8.139a8.14 8.14 0 0 1 8.138 8.138 8.14 8.14 0 0 1-8.138-8.138m32.544 0a8.14 8.14 0 0 1-8.138 8.138 8.14 8.14 0 0 1 8.138-8.138m-8.138-8.139a8.14 8.14 0 0 1-8.138 8.139 8.14 8.14 0 0 1 8.138-8.139m8.147 8.139a8.14 8.14 0 0 1-8.139-8.139 8.14 8.14 0 0 1 8.139 8.139"/>
        <path d="M187.919 26.945a8.14 8.14 0 0 1 8.138 8.138 8.14 8.14 0 0 1-8.138-8.138m24.407-8.139a8.14 8.14 0 0 1-8.139 8.139 8.14 8.14 0 0 1 8.139-8.139m-8.13 8.139a8.14 8.14 0 0 1 8.138 8.138 8.14 8.14 0 0 1-8.138-8.138M25.155 10.668a8.14 8.14 0 0 1-8.138-8.138 8.14 8.14 0 0 1 8.138 8.138m-8.138 8.138a8.14 8.14 0 0 1-8.138-8.138 8.14 8.14 0 0 1 8.138 8.138m0 0a8.14 8.14 0 0 1 8.138-8.138 8.14 8.14 0 0 1-8.138 8.138m0-16.276a8.14 8.14 0 0 1-8.138 8.138 8.14 8.14 0 0 1 8.138-8.138m16.276 16.276a8.14 8.14 0 0 1 8.139-8.138 8.14 8.14 0 0 1-8.139 8.138m8.138-8.138a8.14 8.14 0 0 1-8.138-8.138 8.14 8.14 0 0 1 8.139 8.138Zm-8.138 8.138a8.14 8.14 0 0 1-8.138-8.138 8.14 8.14 0 0 1 8.138 8.138m0-16.276a8.14 8.14 0 0 1-8.138 8.138 8.14 8.14 0 0 1 8.138-8.138M49.57 18.806a8.14 8.14 0 0 1-8.138-8.138 8.14 8.14 0 0 1 8.138 8.138m8.138-8.138A8.14 8.14 0 0 1 49.57 2.53a8.14 8.14 0 0 1 8.138 8.138"/>
        <path d="M57.708 10.668a8.14 8.14 0 0 1-8.138 8.138 8.14 8.14 0 0 1 8.138-8.138M49.57 2.53a8.14 8.14 0 0 1-8.138 8.138A8.14 8.14 0 0 1 49.57 2.53m8.138 8.138a8.14 8.14 0 0 1 8.138 8.138 8.14 8.14 0 0 1-8.138-8.138m16.276 0a8.14 8.14 0 0 1-8.138-8.138 8.14 8.14 0 0 1 8.138 8.138"/>
        <path d="M65.846 2.53a8.14 8.14 0 0 1-8.138 8.138 8.14 8.14 0 0 1 8.138-8.138m8.138 8.138a8.14 8.14 0 0 1-8.138 8.138 8.14 8.14 0 0 1 8.138-8.138m0 0a8.14 8.14 0 0 1 8.139 8.138 8.14 8.14 0 0 1-8.139-8.138m16.276 0a8.14 8.14 0 0 1-8.137-8.138 8.14 8.14 0 0 1 8.138 8.138Z"/>
        <path d="M90.26 10.668a8.14 8.14 0 0 1-8.137 8.138 8.14 8.14 0 0 1 8.138-8.138ZM82.123 2.53a8.14 8.14 0 0 1-8.139 8.138 8.14 8.14 0 0 1 8.139-8.138"/>
        <path d="M90.26 10.668a8.14 8.14 0 0 1 8.139 8.138 8.14 8.14 0 0 1-8.138-8.138Zm16.277 0a8.14 8.14 0 0 1-8.138 8.138 8.14 8.14 0 0 1 8.138-8.138"/>
        <path d="M98.399 2.53a8.14 8.14 0 0 1-8.138 8.138 8.14 8.14 0 0 1 8.138-8.138m8.138 8.138a8.14 8.14 0 0 1-8.138-8.138 8.14 8.14 0 0 1 8.138 8.138m0 0a8.14 8.14 0 0 1 8.138 8.138 8.14 8.14 0 0 1-8.138-8.138"/>
        <path d="M122.814 10.668a8.14 8.14 0 0 1-8.139 8.138 8.14 8.14 0 0 1 8.139-8.138m-8.139-8.138a8.14 8.14 0 0 1-8.138 8.138 8.14 8.14 0 0 1 8.138-8.138"/>
        <path d="M122.814 10.668a8.14 8.14 0 0 1-8.139-8.138 8.14 8.14 0 0 1 8.139 8.138m0 0a8.14 8.14 0 0 1 8.138 8.138 8.14 8.14 0 0 1-8.138-8.138m16.276 0a8.14 8.14 0 0 1-8.138 8.138 8.14 8.14 0 0 1 8.138-8.138"/>
        <path d="M130.952 2.53a8.14 8.14 0 0 1-8.138 8.138 8.14 8.14 0 0 1 8.138-8.138m8.138 8.138a8.14 8.14 0 0 1-8.138-8.138 8.14 8.14 0 0 1 8.138 8.138m16.276 0a8.14 8.14 0 0 1-8.138 8.138 8.14 8.14 0 0 1 8.138-8.138"/>
        <path d="M155.366 10.668a8.14 8.14 0 0 1-8.138-8.138 8.14 8.14 0 0 1 8.138 8.138m-8.138-8.138a8.14 8.14 0 0 1-8.138 8.138 8.14 8.14 0 0 1 8.138-8.138"/>
        <path d="M139.09 10.668a8.14 8.14 0 0 1 8.138 8.138 8.14 8.14 0 0 1-8.138-8.138m24.406-8.138a8.14 8.14 0 0 1-8.138 8.138 8.14 8.14 0 0 1 8.138-8.138m8.147 8.138a8.14 8.14 0 0 1-8.138 8.138 8.14 8.14 0 0 1 8.138-8.138"/>
        <path d="M171.643 10.668a8.14 8.14 0 0 1-8.138-8.138 8.14 8.14 0 0 1 8.138 8.138m-16.277 0a8.14 8.14 0 0 1 8.139 8.138 8.14 8.14 0 0 1-8.139-8.138m32.553 0a8.14 8.14 0 0 1-8.138-8.138 8.14 8.14 0 0 1 8.138 8.138"/>
        <path d="M187.919 10.668a8.14 8.14 0 0 1-8.138 8.138 8.14 8.14 0 0 1 8.138-8.138m-8.146-8.138a8.14 8.14 0 0 1-8.138 8.138 8.14 8.14 0 0 1 8.138-8.138m-8.13 8.138a8.14 8.14 0 0 1 8.138 8.138 8.14 8.14 0 0 1-8.138-8.138m16.276 0a8.14 8.14 0 0 1 8.138 8.138 8.14 8.14 0 0 1-8.138-8.138m8.13-8.138a8.14 8.14 0 0 1-8.138 8.138 8.14 8.14 0 0 1 8.138-8.138"/>
        <path d="M196.057 18.806a8.14 8.14 0 0 1 8.139-8.138 8.14 8.14 0 0 1-8.139 8.138m0-16.276a8.14 8.14 0 0 1 8.139 8.138 8.14 8.14 0 0 1-8.139-8.138m8.139 8.138a8.14 8.14 0 0 1 8.138 8.138 8.14 8.14 0 0 1-8.138-8.138"/>
        <path d="M212.326 2.53a8.14 8.14 0 0 1-8.139 8.138 8.14 8.14 0 0 1 8.139-8.138m-195.301 0a8.14 8.14 0 0 1 8.138-8.138 8.14 8.14 0 0 1-8.138 8.138m-.008 0a8.14 8.14 0 0 1-8.138-8.138 8.14 8.14 0 0 1 8.138 8.138"/>
        <path d="M33.293 2.53a8.14 8.14 0 0 1-8.138-8.138 8.14 8.14 0 0 1 8.138 8.138m0 0a8.14 8.14 0 0 1 8.139-8.138 8.14 8.14 0 0 1-8.139 8.138m16.277 0a8.14 8.14 0 0 1 8.138-8.138A8.14 8.14 0 0 1 49.57 2.53m0 0a8.14 8.14 0 0 1-8.138-8.138A8.14 8.14 0 0 1 49.57 2.53m16.276 0a8.14 8.14 0 0 1-8.138-8.138 8.14 8.14 0 0 1 8.138 8.138"/>
        <path d="M73.984-5.608a8.14 8.14 0 0 1-8.138 8.138 8.14 8.14 0 0 1 8.138-8.138m16.276 0a8.14 8.14 0 0 1-8.137 8.138 8.14 8.14 0 0 1 8.138-8.138ZM73.984-5.6a8.14 8.14 0 0 1 8.139 8.138A8.14 8.14 0 0 1 73.984-5.6m32.553-.008a8.14 8.14 0 0 1-8.138 8.138 8.14 8.14 0 0 1 8.138-8.138"/>
        <path d="M90.26-5.608A8.14 8.14 0 0 1 98.4 2.53a8.14 8.14 0 0 1-8.138-8.138Zm16.277 0a8.14 8.14 0 0 1 8.138 8.138 8.14 8.14 0 0 1-8.138-8.138"/>
        <path d="M122.814-5.608a8.14 8.14 0 0 1-8.139 8.138 8.14 8.14 0 0 1 8.139-8.138m0 .008a8.14 8.14 0 0 1 8.138 8.138 8.14 8.14 0 0 1-8.138-8.138m16.276-.008a8.14 8.14 0 0 1-8.138 8.138 8.14 8.14 0 0 1 8.138-8.138m16.276 0a8.14 8.14 0 0 1-8.138 8.138 8.14 8.14 0 0 1 8.138-8.138m-16.276 0a8.14 8.14 0 0 1 8.138 8.138 8.14 8.14 0 0 1-8.138-8.138m32.553 0a8.14 8.14 0 0 1-8.138 8.138 8.14 8.14 0 0 1 8.138-8.138"/>
        <path d="M155.366-5.608a8.14 8.14 0 0 1 8.139 8.138 8.14 8.14 0 0 1-8.139-8.138m24.415 8.138a8.14 8.14 0 0 1 8.138-8.138 8.14 8.14 0 0 1-8.138 8.138m-8.138-8.138a8.14 8.14 0 0 1 8.138 8.138 8.14 8.14 0 0 1-8.138-8.138m16.276 0a8.14 8.14 0 0 1 8.138 8.138 8.14 8.14 0 0 1-8.138-8.138"/>
        <path d="M196.057 2.53a8.14 8.14 0 0 1 8.139-8.138 8.14 8.14 0 0 1-8.139 8.138m8.139-8.138a8.14 8.14 0 0 1 8.138 8.138 8.14 8.14 0 0 1-8.138-8.138"/>
      </g>
    </g>
    <path stroke="#000" stroke-linecap="round" stroke-linejoin="round" stroke-width=".74" d="M113.438 8.764c29.591 0 57.717 5.81 83.726 17.27l-17.188 44.84c-11.32-4.345-35.083-11.62-67.303-11.62-24.121 0-48.463 4.1-72.454 12.19l-17.326-44.98c13.729-5.623 48.145-17.7 90.545-17.7"/>
    <path fill="#FFF400" d="M113.438 8.764c29.591 0 57.717 5.81 83.726 17.27l-17.188 44.84c-11.32-4.345-35.083-11.62-67.303-11.62-24.121 0-48.463 4.1-72.454 12.19l-17.326-44.98c13.729-5.623 48.145-17.7 90.545-17.7"/>
    <path fill="#C71E11" d="m1.286 19.1-.432-1.31s2.036-3.192 7.236-2.24l.79 1.4-7.593 2.148Z"/>
    <path fill="#FFF400" d="m9.636 16.3 26.082 65.529-14.315 3.98L.008 19.473S2.157 16.12 9.636 16.3"/>
    <mask id="c" width="36" height="70" x="0" y="16" maskUnits="userSpaceOnUse" style="mask-type:luminance">
      <path fill="#fff" d="m9.636 16.3 26.082 65.529-14.315 3.98L.008 19.473S2.157 16.12 9.636 16.3"/>
    </mask>
    <g fill="#FFCF02" mask="url(#c)">
      <path d="M27.947 18.302a6.234 6.234 0 0 0 6.234-6.234 6.226 6.226 0 0 0-6.226 6.226z"/>
      <path d="M34.18 12.068a6.234 6.234 0 0 0 6.234 6.234 6.226 6.226 0 0 0-6.225-6.226zm0 12.46a6.226 6.226 0 0 0 6.226-6.226 6.234 6.234 0 0 0-6.234 6.234z"/>
      <path d="M34.18 24.528a6.234 6.234 0 0 0-6.233-6.234 6.226 6.226 0 0 0 6.225 6.225zm0 12.459a6.234 6.234 0 0 0-6.233-6.234 6.226 6.226 0 0 0 6.225 6.226z"/>
      <path d="M27.947 30.761a6.234 6.234 0 0 0 6.234-6.233 6.226 6.226 0 0 0-6.226 6.225z"/>
      <path d="M34.18 24.527a6.234 6.234 0 0 0 6.234 6.234 6.226 6.226 0 0 0-6.225-6.225zm0 12.46a6.226 6.226 0 0 0 6.226-6.226 6.234 6.234 0 0 0-6.234 6.234z"/>
      <path d="M27.947 43.22a6.234 6.234 0 0 0 6.234-6.233 6.226 6.226 0 0 0-6.226 6.226l-.008.008Z"/>
      <path d="M34.18 49.447a6.234 6.234 0 0 0-6.233-6.234 6.226 6.226 0 0 0 6.225 6.226z"/>
      <path d="M34.18 49.447a6.226 6.226 0 0 0 6.226-6.226 6.234 6.234 0 0 0-6.234 6.234zm0-12.46a6.234 6.234 0 0 0 6.234 6.234 6.226 6.226 0 0 0-6.225-6.226zm0 24.919a6.234 6.234 0 0 0-6.233-6.233 6.226 6.226 0 0 0 6.225 6.225z"/>
      <path d="M34.18 61.906a6.226 6.226 0 0 0 6.226-6.225 6.234 6.234 0 0 0-6.234 6.233zm-6.233-6.226a6.234 6.234 0 0 0 6.234-6.233 6.226 6.226 0 0 0-6.226 6.225l-.008.009Z"/>
      <path d="M34.18 49.447a6.234 6.234 0 0 0 6.234 6.233 6.226 6.226 0 0 0-6.225-6.225zm0 12.459a6.234 6.234 0 0 0 6.234 6.234 6.226 6.226 0 0 0-6.225-6.226z"/>
      <path d="M27.947 68.14a6.234 6.234 0 0 0 6.234-6.234 6.226 6.226 0 0 0-6.226 6.226zm6.233 6.234a6.234 6.234 0 0 0-6.233-6.234 6.226 6.226 0 0 0 6.225 6.226z"/>
      <path d="M34.18 74.374a6.226 6.226 0 0 0 6.226-6.226 6.234 6.234 0 0 0-6.234 6.234zm0 12.46a6.234 6.234 0 0 0-6.233-6.234 6.226 6.226 0 0 0 6.225 6.226z"/>
      <path d="M27.947 80.6a6.234 6.234 0 0 0 6.234-6.234 6.226 6.226 0 0 0-6.226 6.226z"/>
      <path d="M34.18 74.374a6.234 6.234 0 0 0 6.234 6.234 6.226 6.226 0 0 0-6.225-6.226zm0 12.46a6.226 6.226 0 0 0 6.226-6.226 6.234 6.234 0 0 0-6.234 6.234zM15.487 18.302a6.234 6.234 0 0 0 6.234-6.234 6.226 6.226 0 0 0-6.226 6.226zm6.233 6.226a6.226 6.226 0 0 0 6.227-6.226 6.234 6.234 0 0 0-6.234 6.234l.008-.008Z"/>
      <path d="M21.72 12.068a6.234 6.234 0 0 0 6.235 6.234 6.226 6.226 0 0 0-6.226-6.226l-.008-.008Zm0 12.46a6.234 6.234 0 0 0-6.233-6.234 6.226 6.226 0 0 0 6.226 6.225zm-6.233 6.233a6.234 6.234 0 0 0 6.234-6.233 6.226 6.226 0 0 0-6.226 6.225zm6.233 6.226a6.226 6.226 0 0 0 6.227-6.226 6.234 6.234 0 0 0-6.234 6.234l.008-.008Z"/>
      <path d="M21.72 24.527a6.234 6.234 0 0 0 6.235 6.234 6.226 6.226 0 0 0-6.226-6.225l-.008-.009Zm0 12.46a6.234 6.234 0 0 0-6.233-6.234 6.226 6.226 0 0 0 6.226 6.226zm0 12.46a6.234 6.234 0 0 0-6.233-6.234 6.226 6.226 0 0 0 6.226 6.226z"/>
      <path d="M21.72 49.447a6.226 6.226 0 0 0 6.227-6.226 6.234 6.234 0 0 0-6.234 6.234l.008-.008Z"/>
      <path d="M21.72 36.987a6.234 6.234 0 0 0 6.235 6.234 6.226 6.226 0 0 0-6.226-6.226l-.008-.008Z"/>
      <path d="M15.487 43.22a6.234 6.234 0 0 0 6.234-6.233 6.226 6.226 0 0 0-6.226 6.226l-.008.008Zm0 12.46a6.234 6.234 0 0 0 6.234-6.233 6.226 6.226 0 0 0-6.226 6.225l-.008.009Z"/>
      <path d="M21.72 49.447a6.234 6.234 0 0 0 6.235 6.233 6.226 6.226 0 0 0-6.226-6.225l-.008-.008Zm0 12.459a6.234 6.234 0 0 0-6.233-6.233 6.226 6.226 0 0 0 6.226 6.225z"/>
      <path d="M21.72 61.906a6.226 6.226 0 0 0 6.227-6.225 6.234 6.234 0 0 0-6.234 6.233l.008-.008Zm0 12.468a6.234 6.234 0 0 0-6.233-6.234 6.226 6.226 0 0 0 6.226 6.226z"/>
      <path d="M15.487 68.14a6.234 6.234 0 0 0 6.234-6.234 6.226 6.226 0 0 0-6.226 6.226zm6.233 6.234a6.226 6.226 0 0 0 6.227-6.226 6.234 6.234 0 0 0-6.234 6.234l.008-.008Z"/>
      <path d="M21.72 61.906a6.234 6.234 0 0 0 6.235 6.234 6.226 6.226 0 0 0-6.226-6.226l-.008-.008Zm0 24.928a6.226 6.226 0 0 0 6.227-6.226 6.234 6.234 0 0 0-6.234 6.234l.008-.008Z"/>
      <path d="M21.72 86.834a6.234 6.234 0 0 0-6.233-6.234 6.226 6.226 0 0 0 6.226 6.226zm0-12.46a6.234 6.234 0 0 0 6.235 6.234 6.226 6.226 0 0 0-6.226-6.226l-.008-.008Z"/>
      <path d="M15.487 80.6a6.234 6.234 0 0 0 6.234-6.234 6.226 6.226 0 0 0-6.226 6.226zM9.261 24.528a6.234 6.234 0 0 0-6.234-6.234 6.226 6.226 0 0 0 6.226 6.225z"/>
      <path d="M3.027 18.302a6.234 6.234 0 0 0 6.234-6.234 6.226 6.226 0 0 0-6.225 6.226zm6.234 6.226a6.226 6.226 0 0 0 6.226-6.226 6.234 6.234 0 0 0-6.234 6.234zm0-12.46a6.234 6.234 0 0 0 6.234 6.234 6.226 6.226 0 0 0-6.226-6.226zm0 24.919a6.226 6.226 0 0 0 6.226-6.226 6.234 6.234 0 0 0-6.234 6.234z"/>
      <path d="M9.261 24.527a6.234 6.234 0 0 0 6.234 6.234 6.226 6.226 0 0 0-6.226-6.225zm0 12.46a6.234 6.234 0 0 0-6.234-6.234 6.226 6.226 0 0 0 6.226 6.226z"/>
      <path d="M3.027 30.761a6.234 6.234 0 0 0 6.234-6.233 6.226 6.226 0 0 0-6.225 6.225zm0 12.459a6.234 6.234 0 0 0 6.234-6.233 6.226 6.226 0 0 0-6.225 6.226l-.009.008Z"/>
      <path d="M9.253 49.447a6.234 6.234 0 0 0-6.234-6.234 6.226 6.226 0 0 0 6.226 6.226z"/>
      <path d="M9.261 49.447a6.226 6.226 0 0 0 6.226-6.226 6.234 6.234 0 0 0-6.234 6.234zm0-12.46a6.234 6.234 0 0 0 6.234 6.234 6.226 6.226 0 0 0-6.226-6.226zm0 24.919a6.226 6.226 0 0 0 6.226-6.225 6.234 6.234 0 0 0-6.234 6.233z"/>
      <path d="M9.261 49.447a6.234 6.234 0 0 0 6.234 6.233 6.226 6.226 0 0 0-6.226-6.225zM3.027 55.68a6.234 6.234 0 0 0 6.234-6.233 6.226 6.226 0 0 0-6.225 6.225l-.009.009Z"/>
      <path d="M9.261 61.906a6.234 6.234 0 0 0-6.234-6.233 6.226 6.226 0 0 0 6.226 6.225zm0 12.468a6.234 6.234 0 0 0-6.234-6.234 6.226 6.226 0 0 0 6.226 6.226z"/>
      <path d="M3.027 68.14a6.234 6.234 0 0 0 6.234-6.234 6.226 6.226 0 0 0-6.225 6.226zm6.234-6.234a6.234 6.234 0 0 0 6.234 6.234 6.226 6.226 0 0 0-6.226-6.226zm0 12.468a6.226 6.226 0 0 0 6.226-6.226 6.234 6.234 0 0 0-6.234 6.234zm0 12.46A6.234 6.234 0 0 0 3.027 80.6a6.226 6.226 0 0 0 6.226 6.226z"/>
      <path d="M3.027 80.6a6.234 6.234 0 0 0 6.234-6.234 6.226 6.226 0 0 0-6.225 6.226zm6.234 6.234a6.226 6.226 0 0 0 6.226-6.226 6.234 6.234 0 0 0-6.234 6.234zm0-12.46a6.234 6.234 0 0 0 6.234 6.234 6.226 6.226 0 0 0-6.226-6.226zM-3.198 12.068a6.234 6.234 0 0 0 6.233 6.234 6.226 6.226 0 0 0-6.225-6.226zm0 12.46a6.226 6.226 0 0 0 6.225-6.226 6.234 6.234 0 0 0-6.233 6.234zm0 12.459a6.226 6.226 0 0 0 6.225-6.226 6.234 6.234 0 0 0-6.233 6.234z"/>
      <path d="M-3.198 24.527a6.234 6.234 0 0 0 6.233 6.234 6.226 6.226 0 0 0-6.225-6.225zm0 24.92a6.226 6.226 0 0 0 6.225-6.226 6.234 6.234 0 0 0-6.233 6.234zm0-12.46a6.234 6.234 0 0 0 6.233 6.234 6.226 6.226 0 0 0-6.225-6.226zm0 24.919a6.226 6.226 0 0 0 6.225-6.225 6.234 6.234 0 0 0-6.233 6.233z"/>
      <path d="M-3.198 49.447a6.234 6.234 0 0 0 6.233 6.233 6.226 6.226 0 0 0-6.225-6.225zm0 24.927a6.226 6.226 0 0 0 6.225-6.226 6.234 6.234 0 0 0-6.233 6.234zm0-12.468a6.234 6.234 0 0 0 6.233 6.234 6.226 6.226 0 0 0-6.225-6.226zm0 24.928a6.226 6.226 0 0 0 6.225-6.226 6.234 6.234 0 0 0-6.233 6.234z"/>
      <path d="M-3.198 74.374a6.234 6.234 0 0 0 6.233 6.234 6.226 6.226 0 0 0-6.225-6.226z"/>
    </g>
    <path fill="#C71E11" d="M29.506 87.234c3.955-1.093 6.739-3.51 6.217-5.399s-4.151-2.534-8.107-1.442c-3.955 1.093-6.739 3.51-6.217 5.398.522 1.89 4.151 2.535 8.107 1.443"/>
    <path fill="#FE8E00" d="M27.881 82.333s-5.444 1.758-4.24 4.566c1.034 1.554 4.428 2.23 6.674 1.375 2.246-.854 4.175-2.58 4.069-4.9-.106-1.431-2.775-2.408-6.503-1.04Z"/>
    <path fill="#C71E11" d="m218.706 19.1.431-1.31s-2.034-3.191-7.235-2.239l-.789 1.4 7.593 2.148Z"/>
    <path fill="#FFF400" d="m210.356 16.3-26.083 65.529 14.315 3.98 21.396-66.335s-2.149-3.353-9.628-3.174"/>
    <mask id="d" width="36" height="70" x="184" y="16" maskUnits="userSpaceOnUse" style="mask-type:luminance">
      <path fill="#fff" d="m210.356 16.3-26.083 65.529 14.315 3.98 21.396-66.335s-2.149-3.353-9.628-3.174"/>
    </mask>
    <g fill="#FFCF02" mask="url(#d)">
      <path d="M192.045 18.302a6.235 6.235 0 0 1-6.234-6.234 6.226 6.226 0 0 1 6.226 6.226z"/>
      <path d="M185.811 12.068a6.234 6.234 0 0 1-6.234 6.234 6.226 6.226 0 0 1 6.226-6.226zm.008 12.46a6.225 6.225 0 0 1-6.225-6.226 6.235 6.235 0 0 1 6.234 6.234z"/>
      <path d="M185.819 24.528a6.235 6.235 0 0 1 6.234-6.234 6.225 6.225 0 0 1-6.225 6.225zm0 12.459a6.235 6.235 0 0 1 6.234-6.234 6.225 6.225 0 0 1-6.225 6.226z"/>
      <path d="M192.045 30.761a6.235 6.235 0 0 1-6.234-6.233 6.226 6.226 0 0 1 6.226 6.225z"/>
      <path d="M185.811 24.527a6.234 6.234 0 0 1-6.234 6.234 6.226 6.226 0 0 1 6.226-6.225zm.008 12.46a6.225 6.225 0 0 1-6.225-6.226 6.235 6.235 0 0 1 6.234 6.234z"/>
      <path d="M192.045 43.22a6.235 6.235 0 0 1-6.234-6.233 6.226 6.226 0 0 1 6.226 6.226l.008.008Z"/>
      <path d="M185.819 49.447a6.235 6.235 0 0 1 6.234-6.234 6.225 6.225 0 0 1-6.225 6.226z"/>
      <path d="M185.819 49.447a6.225 6.225 0 0 1-6.225-6.226 6.235 6.235 0 0 1 6.234 6.234zm-.008-12.46a6.234 6.234 0 0 1-6.234 6.234 6.226 6.226 0 0 1 6.226-6.226zm.008 24.919a6.235 6.235 0 0 1 6.234-6.233 6.225 6.225 0 0 1-6.225 6.225z"/>
      <path d="M185.819 61.906a6.225 6.225 0 0 1-6.225-6.225 6.235 6.235 0 0 1 6.234 6.233zm6.226-6.226a6.235 6.235 0 0 1-6.234-6.233 6.226 6.226 0 0 1 6.226 6.225l.008.009Z"/>
      <path d="M185.811 49.447a6.234 6.234 0 0 1-6.234 6.233 6.226 6.226 0 0 1 6.226-6.225zm0 12.459a6.234 6.234 0 0 1-6.234 6.234 6.226 6.226 0 0 1 6.226-6.226z"/>
      <path d="M192.045 68.14a6.235 6.235 0 0 1-6.234-6.234 6.226 6.226 0 0 1 6.226 6.226zm-6.226 6.234a6.235 6.235 0 0 1 6.234-6.234 6.225 6.225 0 0 1-6.225 6.226z"/>
      <path d="M185.819 74.374a6.225 6.225 0 0 1-6.225-6.226 6.235 6.235 0 0 1 6.234 6.234zm0 12.46a6.235 6.235 0 0 1 6.234-6.234 6.225 6.225 0 0 1-6.225 6.226z"/>
      <path d="M192.045 80.6a6.235 6.235 0 0 1-6.234-6.234 6.226 6.226 0 0 1 6.226 6.226zm-6.234-6.226a6.234 6.234 0 0 1-6.234 6.234 6.226 6.226 0 0 1 6.226-6.226zm.008 12.46a6.225 6.225 0 0 1-6.225-6.226 6.235 6.235 0 0 1 6.234 6.234zm18.686-68.532a6.234 6.234 0 0 1-6.234-6.234 6.226 6.226 0 0 1 6.226 6.226zm-6.226 6.226a6.226 6.226 0 0 1-6.226-6.226 6.234 6.234 0 0 1 6.234 6.234zm-.008-12.46a6.235 6.235 0 0 1-6.234 6.234 6.226 6.226 0 0 1 6.226-6.226z"/>
      <path d="M198.279 24.528a6.234 6.234 0 0 1 6.234-6.234 6.226 6.226 0 0 1-6.226 6.225zm6.226 6.233a6.234 6.234 0 0 1-6.234-6.233 6.226 6.226 0 0 1 6.226 6.225zm-6.226 6.226a6.226 6.226 0 0 1-6.226-6.226 6.234 6.234 0 0 1 6.234 6.234z"/>
      <path d="M198.279 24.527a6.234 6.234 0 0 1-6.234 6.234 6.226 6.226 0 0 1 6.226-6.225zm0 12.46a6.234 6.234 0 0 1 6.234-6.234 6.226 6.226 0 0 1-6.226 6.226zm0 12.46a6.234 6.234 0 0 1 6.234-6.234 6.226 6.226 0 0 1-6.226 6.226z"/>
      <path d="M198.279 49.447a6.226 6.226 0 0 1-6.226-6.226 6.234 6.234 0 0 1 6.234 6.234zm-.008-12.46a6.235 6.235 0 0 1-6.234 6.234 6.226 6.226 0 0 1 6.226-6.226zm6.234 6.233a6.234 6.234 0 0 1-6.234-6.233 6.226 6.226 0 0 1 6.226 6.226l.008.008Z"/>
      <path d="M204.505 55.68a6.234 6.234 0 0 1-6.234-6.233 6.226 6.226 0 0 1 6.226 6.225l.008.009Zm-6.234-6.233a6.235 6.235 0 0 1-6.234 6.233 6.226 6.226 0 0 1 6.226-6.225z"/>
      <path d="M198.279 61.906a6.234 6.234 0 0 1 6.234-6.233 6.226 6.226 0 0 1-6.226 6.225z"/>
      <path d="M198.279 61.906a6.226 6.226 0 0 1-6.226-6.225 6.234 6.234 0 0 1 6.234 6.233zm0 12.468a6.234 6.234 0 0 1 6.234-6.234 6.226 6.226 0 0 1-6.226 6.226z"/>
      <path d="M204.505 68.14a6.234 6.234 0 0 1-6.234-6.234 6.226 6.226 0 0 1 6.226 6.226zm-6.226 6.234a6.226 6.226 0 0 1-6.226-6.226 6.234 6.234 0 0 1 6.234 6.234z"/>
      <path d="M198.279 61.906a6.234 6.234 0 0 1-6.234 6.234 6.226 6.226 0 0 1 6.226-6.226zm0 24.928a6.226 6.226 0 0 1-6.226-6.226 6.234 6.234 0 0 1 6.234 6.234z"/>
      <path d="M198.279 86.834a6.234 6.234 0 0 1 6.234-6.234 6.226 6.226 0 0 1-6.226 6.226zm0-12.46a6.234 6.234 0 0 1-6.234 6.234 6.226 6.226 0 0 1 6.226-6.226z"/>
      <path d="M204.505 80.6a6.234 6.234 0 0 1-6.234-6.234 6.226 6.226 0 0 1 6.226 6.226zm6.234-56.072a6.234 6.234 0 0 1 6.233-6.234 6.225 6.225 0 0 1-6.225 6.225z"/>
      <path d="M216.964 18.302a6.235 6.235 0 0 1-6.234-6.234 6.226 6.226 0 0 1 6.226 6.226zm-6.225 6.226a6.226 6.226 0 0 1-6.226-6.226 6.235 6.235 0 0 1 6.234 6.234zm-.009-12.46a6.234 6.234 0 0 1-6.233 6.234 6.225 6.225 0 0 1 6.225-6.226zm.009 24.919a6.226 6.226 0 0 1-6.226-6.226 6.235 6.235 0 0 1 6.234 6.234z"/>
      <path d="M210.739 24.527a6.235 6.235 0 0 1-6.234 6.234 6.225 6.225 0 0 1 6.225-6.225zm0 12.46a6.234 6.234 0 0 1 6.233-6.234 6.225 6.225 0 0 1-6.225 6.226z"/>
      <path d="M216.964 30.761a6.235 6.235 0 0 1-6.234-6.233 6.226 6.226 0 0 1 6.226 6.225zm0 12.459a6.235 6.235 0 0 1-6.234-6.233 6.226 6.226 0 0 1 6.226 6.226l.008.008Z"/>
      <path d="M210.739 49.447a6.234 6.234 0 0 1 6.233-6.234 6.225 6.225 0 0 1-6.225 6.226z"/>
      <path d="M210.739 49.447a6.226 6.226 0 0 1-6.226-6.226 6.235 6.235 0 0 1 6.234 6.234zm0-12.46a6.235 6.235 0 0 1-6.234 6.234 6.225 6.225 0 0 1 6.225-6.226zm0 24.919a6.226 6.226 0 0 1-6.226-6.225 6.235 6.235 0 0 1 6.234 6.233z"/>
      <path d="M210.73 49.447a6.234 6.234 0 0 1-6.233 6.233 6.225 6.225 0 0 1 6.225-6.225zm6.234 6.233a6.235 6.235 0 0 1-6.234-6.233 6.226 6.226 0 0 1 6.226 6.225l.008.009Z"/>
      <path d="M210.739 61.906a6.234 6.234 0 0 1 6.233-6.233 6.225 6.225 0 0 1-6.225 6.225zm0 12.468a6.234 6.234 0 0 1 6.233-6.234 6.225 6.225 0 0 1-6.225 6.226zm6.225-6.234a6.235 6.235 0 0 1-6.234-6.234 6.226 6.226 0 0 1 6.226 6.226z"/>
      <path d="M210.739 61.906a6.235 6.235 0 0 1-6.234 6.234 6.225 6.225 0 0 1 6.225-6.226zm0 12.468a6.226 6.226 0 0 1-6.226-6.226 6.235 6.235 0 0 1 6.234 6.234zm0 12.46a6.234 6.234 0 0 1 6.233-6.234 6.225 6.225 0 0 1-6.225 6.226z"/>
      <path d="M216.964 80.6a6.235 6.235 0 0 1-6.234-6.234 6.226 6.226 0 0 1 6.226 6.226zm-6.225 6.234a6.226 6.226 0 0 1-6.226-6.226 6.235 6.235 0 0 1 6.234 6.234z"/>
      <path d="M210.739 74.374a6.235 6.235 0 0 1-6.234 6.234 6.225 6.225 0 0 1 6.225-6.226zm12.459-62.306a6.234 6.234 0 0 1-6.234 6.234 6.226 6.226 0 0 1 6.226-6.226zm0 12.46a6.225 6.225 0 0 1-6.225-6.226 6.234 6.234 0 0 1 6.233 6.234zm0 12.459a6.225 6.225 0 0 1-6.225-6.226 6.234 6.234 0 0 1 6.233 6.234z"/>
      <path d="M223.198 24.527a6.234 6.234 0 0 1-6.234 6.234 6.226 6.226 0 0 1 6.226-6.225zm0 24.92a6.225 6.225 0 0 1-6.225-6.226 6.234 6.234 0 0 1 6.233 6.234zm0-12.46a6.234 6.234 0 0 1-6.234 6.234 6.226 6.226 0 0 1 6.226-6.226zm0 24.919a6.225 6.225 0 0 1-6.225-6.225 6.234 6.234 0 0 1 6.233 6.233z"/>
      <path d="M223.198 49.447a6.234 6.234 0 0 1-6.234 6.233 6.226 6.226 0 0 1 6.226-6.225zm0 24.927a6.225 6.225 0 0 1-6.225-6.226 6.234 6.234 0 0 1 6.233 6.234zm0-12.468a6.234 6.234 0 0 1-6.234 6.234 6.226 6.226 0 0 1 6.226-6.226zm0 24.928a6.225 6.225 0 0 1-6.225-6.226 6.234 6.234 0 0 1 6.233 6.234z"/>
      <path d="M223.198 74.374a6.234 6.234 0 0 1-6.234 6.234 6.226 6.226 0 0 1 6.226-6.226z"/>
    </g>
    <path fill="#C71E11" d="M198.597 85.79c.522-1.889-2.261-4.305-6.217-5.398s-7.585-.447-8.107 1.442 2.262 4.306 6.218 5.398c3.955 1.093 7.585.447 8.106-1.442"/>
    <path fill="#FE8E00" d="M192.11 82.333s5.445 1.758 4.24 4.566c-1.033 1.554-4.427 2.23-6.673 1.375-2.246-.854-4.175-2.58-4.069-4.9.106-1.431 2.775-2.408 6.502-1.04Z"/>
    <path stroke="#000" stroke-linecap="round" stroke-linejoin="round" stroke-width=".74" d="M113.585 1C62.086 1 21.981 16.617 11.54 21.085l23.544 59.181C64.088 70.338 90.44 67.01 112.779 67.01c38.022 0 64.398 9.66 72.243 12.923l23.414-58.847.114-.277C175.443 5.988 142.711 1 113.585 1"/>
    <path stroke="#000" stroke-linecap="round" stroke-linejoin="round" stroke-width=".74" d="M113.438 8.764c29.591 0 57.717 5.81 83.726 17.27l-17.188 44.84c-11.32-4.345-35.083-11.62-67.303-11.62-24.121 0-48.463 4.1-72.454 12.19l-17.326-44.98c13.729-5.623 48.145-17.7 90.545-17.7M8.52 16.3c-3.995.097-6.274 1.253-7.454 2.14l-.212-.651s2.043-3.182 7.243-2.23c.18.31.326.554.424.74Z"/>
    <path stroke="#000" stroke-linecap="round" stroke-linejoin="round" stroke-width=".74" d="M35.572 81.487c-.212-.4-.578-.733-1.074-1.001-.619-.326-1.457-.521-2.417-.586-1.31-.098-2.865.057-4.46.496-3.923 1.074-6.698 3.475-6.234 5.347L0 19.482s.301-.464 1.066-1.042c1.172-.887 3.459-2.043 7.455-2.14q.537-.014 1.123 0l1.904 4.793 23.544 59.181z"/>
    <path stroke="#000" stroke-linecap="round" stroke-linejoin="round" stroke-width=".74" d="M34.115 84.978a3.9 3.9 0 0 0 .269-1.595c-.025-.374-.236-.724-.602-1.01-.985-.772-3.158-1.04-5.9-.032 0 0-3.264 1.05-4.167 2.832h-.008a1.94 1.94 0 0 0-.057 1.742c.187.277.455.529.773.757-1.595-.22-2.743-.863-3.02-1.856l-.008-.024s-.008-.033-.008-.04c-.464-1.873 2.303-4.273 6.234-5.348 1.595-.447 3.15-.602 4.46-.496.968.065 1.798.269 2.417.586.496.269.863.602 1.074 1l.146.359c.277.985-.366 2.116-1.595 3.141z"/>
    <path stroke="#000" stroke-linecap="round" stroke-linejoin="round" stroke-width=".74" d="M34.384 83.383a3.7 3.7 0 0 1-.269 1.595h-.008c-.586 1.522-2.1 2.661-3.784 3.304-1.84.7-4.435.375-5.892-.618h-.008a2.9 2.9 0 0 1-.773-.757 1.94 1.94 0 0 1 .057-1.742h.008c.911-1.774 4.166-2.832 4.166-2.832 2.743-1.009 4.916-.74 5.9.033.367.285.578.635.603 1.009zm184.753-65.594-.211.651c-1.172-.887-3.459-2.043-7.455-2.14.098-.187.244-.432.423-.74 5.201-.953 7.243 2.229 7.243 2.229"/>
    <path stroke="#000" stroke-linecap="round" stroke-linejoin="round" stroke-width=".74" d="M198.605 85.743c.463-1.872-2.303-4.273-6.234-5.347-1.595-.447-3.15-.602-4.46-.496-.773.057-1.457.187-2.018.423h-.008c-.147.04-.269.098-.391.163-.496.268-.863.602-1.074 1l.48-1.212.13-.334 23.414-58.847.114-.277 1.798-4.516q.586-.014 1.123 0c3.996.097 6.275 1.253 7.455 2.14.765.578 1.066 1.042 1.066 1.042l-21.387 66.261z"/>
    <path stroke="#000" stroke-linecap="round" stroke-linejoin="round" stroke-width=".74" d="M198.605 85.743s-.009.033-.009.04c0 .009.001.009-.008.025-.276.985-1.416 1.628-3.019 1.856.326-.22.586-.48.773-.757a1.94 1.94 0 0 0-.057-1.742h-.008c-.911-1.774-4.167-2.832-4.167-2.832-2.742-1.009-4.915-.74-5.9.033-.366.285-.578.635-.602 1.009q-.036.853.268 1.595c-1.228-1.017-1.871-2.148-1.595-3.141l.147-.358c.211-.4.578-.733 1.074-1.002.122-.065.244-.121.391-.162h.008c.57-.236 1.245-.366 2.018-.423 1.31-.098 2.865.056 4.46.496 3.923 1.074 6.698 3.475 6.234 5.347z"/>
    <path stroke="#000" stroke-linecap="round" stroke-linejoin="round" stroke-width=".74" d="M196.342 86.907c-.187.276-.456.529-.773.757h-.008c-1.457 1-4.045 1.318-5.892.618-1.685-.643-3.198-1.782-3.784-3.304h-.009a3.9 3.9 0 0 1-.268-1.595c.024-.374.236-.724.602-1.01.985-.772 3.158-1.04 5.9-.032 0 0 3.264 1.05 4.167 2.832h.008c.269.521.334 1.099.057 1.742z"/>
    <path fill="#FE8E00" d="M65.166 36.467c.63 2.633-.577 6-3.434 6.69-1.306.315-2.236-.397-2.543-1.672l-.068-.278c2.408-.577 3.3-2.73 2.88-4.47-.39-1.605-1.874-2.917-4.282-2.34-3.547.855-3.727 5.588-3.053 8.385.698 2.91 3.143 6.863 6.72 6.008 1.275-.308 2.34-1.238 2.663-2.573l2.557 1.26c-.75 2.115-2.572 3.578-4.702 4.088-5.295 1.275-9.06-2.948-10.238-7.853-1.2-4.987.18-10.83 5.31-12.06 3.66-.877 7.29 1.065 8.198 4.83z"/>
    <path fill="#FE8E00" d="m75.823 48.437-.075-1.695-1.238-6.84c-.39-2.16-1.47-3.18-2.535-2.985-1.627.293-2.01 3-2.257 5.303l.982 5.437.525 1.613-3.255.585-.075-1.695-2.842-15.705a26 26 0 0 1-.398-3.488c-7.245-1.47-15.78-4.305-20.887-3.382-2.55.465-5.19 2.385-4.673 5.25.308 1.68 1.733 3.015 3.81 2.64 1.77-.323 3.375-2.003 2.933-4.44l.277-.053c1.29-.232 2.318.338 2.558 1.65.525 2.888-2.07 5.355-4.74 5.835-3.788.683-6.96-1.492-7.643-5.28-.622-3.42 1.523-7.432 6.57-8.34 5.888-1.065 14.888 1.77 21.93 3.368.66-4.523 3.48-6.39 6.285-6.9 3.9-.705 6.533 1.687 7.013 4.35.457 2.527-1.035 5.317-4.545 5.947-1.658.3-3.705.18-5.933-.142.083 1.26.27 2.617.518 3.99l.727 4.012c.54-1.515 1.515-2.82 3.255-3.135 2.385-.435 4.5 1.185 5.22 5.168l1.215 6.735.525 1.612-3.255.585zm-2.813-21.33c1.793-.322 2.505-1.672 2.28-2.932-.337-1.883-2.1-2.633-3.84-2.318-2.527.458-3.57 2.355-3.832 4.92 2.16.39 4.012.578 5.392.33"/>
    <path fill="#FE8E00" d="m88.13 46.69.023-1.695-.068-.54c-.622 1.485-1.672 2.737-3.427 2.955-2.4.3-4.425-1.433-4.928-5.445l-.667-5.37c-.083-.653-.135-1.103-.435-1.643l2.88-1.792 1.065 8.565c.27 2.175 1.297 3.255 2.37 3.12 1.642-.203 2.167-2.88 2.542-5.168l-.502-4.072c-.083-.653-.135-1.103-.435-1.643l2.88-1.792 1.552 12.472.435 1.643-3.277.405zm-1.155-19.703L84.5 31.345l-1.44.18.69-4.133 3.225-.397zm16.597 6.758-2.348 2.07c-.675-1.095-1.718-1.83-3.142-1.732-2.475.165-3.458 2.572-3.315 4.732.157 2.415 1.732 4.538 4.32 4.373 1.305-.09 2.512-.826 3.06-2.093l2.31 1.672c-1.095 1.958-3.135 3.09-5.325 3.24-3.473.233-7.163-2.092-7.493-7.042-.24-3.638 1.905-7.44 6.255-7.725 2.535-.165 4.463.908 5.678 2.505"/>
    <path fill="#FE8E00" d="m118.911 45.385.232-1.672.225-6.128c.113-3.023-.532-4.155-1.357-4.185-1.508-.053-2.213 3.51-2.7 6.06l-.15 4.102.165 1.688-3.315.218.3-2.018.367-10.028c.023-.652.038-1.11-.165-1.687l3.128-1.313-.105 2.963c.982-1.875 2.265-2.595 3.457-2.557 1.763.067 2.79 1.612 3.165 3.225.99-2.19 2.393-3.023 3.675-2.978 2.31.082 3.383 2.692 3.308 4.658l-.323 8.887c-.052 1.395-.045 2.768.053 4.028 2.16-.638 4.17-1.043 5.857-.983 3.563.127 5.438 2.678 5.34 5.242-.097 2.708-2.37 5.446-6.322 5.303-2.85-.105-5.903-1.56-7.2-5.94-6.743 2.58-15.278 7.567-21.263 7.35-5.13-.188-7.814-3.855-7.687-7.328.142-3.847 2.977-6.45 6.817-6.307 2.708.098 5.625 2.175 5.52 5.108-.045 1.334-.99 2.047-2.295 1.994h-.285c.09-2.49-1.74-3.922-3.532-3.99-2.108-.075-3.33 1.448-3.398 3.158-.105 2.902 2.775 4.44 5.37 4.53 5.183.188 13.268-4.732 20.228-7.215a25 25 0 0 1-.098-3.51l.3-8.235c.113-3.023-.532-4.155-1.357-4.185-1.508-.053-2.213 3.51-2.7 6.06l-.15 4.102.112 1.688-3.187-.12zm14.827 10.268c1.763.067 3.398-.93 3.473-2.843.045-1.282-.848-2.513-2.67-2.58-1.395-.052-3.21.398-5.288 1.088.623 2.505 1.928 4.237 4.493 4.327z"/>
    <path fill="#FE8E00" d="m137.84 46.795.412-1.65.06-.54c-.945 1.305-2.257 2.28-4.012 2.085-2.408-.262-3.983-2.415-3.54-6.435l.592-5.385c.068-.652.12-1.102-.045-1.695l3.218-1.08-.938 8.587c-.24 2.183.51 3.465 1.59 3.585 1.643.18 2.775-2.302 3.668-4.447l.442-4.08c.075-.653.12-1.102-.045-1.695l2.145-.712c.63-.278 1.133-.675 1.223-1.185.082-.48-.023-1.096-1.035-1.546l1.785-1.35c1.485.848 1.68 1.936 1.552 2.835-.187 1.155-1.56 2.183-2.625 2.468l-1.192 10.905.045 1.695-3.285-.36zm.187-19.8.75 4.125-1.447-.158-2.535-4.32zm4.193 20.31.51-1.62 1.702-9.885c.113-.645.188-1.095.06-1.695l3.278-.885-.488 2.813c1.238-1.463 2.655-2.145 4.14-1.89 2.385.412 3.825 2.654 3.135 6.645l-1.162 6.742-.06 1.695-3.255-.563.51-1.62 1.185-6.855c.375-2.16-.293-3.494-1.365-3.674-1.545-.27-2.858 1.822-3.87 3.817l-1.005 5.843-.06 1.694zm15.983.72c-.42.165-.637.458-.72.795-.712 2.932 10.358 4.193 8.618 11.37-.975 4.013-4.995 5.325-8.4 4.5-3.323-.81-6.12-3.54-5.085-7.777.457-1.883 1.822-3.87 3.735-4.373-1.223-1.005-2.018-2.19-1.613-3.855.24-.998.93-2.003 1.74-2.573-2.445-4.29 1.035-10.897 7.515-9.315a8.4 8.4 0 0 1 2.145.84c.705.113 1.508-.397 2.4-1.792l1.958 2.445c-.66.78-1.365 1.282-2.063 1.613 2.475 4.297-.847 10.972-7.47 9.36-1.11-.27-2.002-.69-2.752-1.23zm.548 6.06c-1.493.578-2.655 1.755-3.03 3.285-.623 2.55.9 4.125 2.76 4.575 1.852.45 4.035-.307 4.567-2.498.63-2.572-1.852-3.945-4.297-5.362m2.88-7.605c4.732 1.155 6.39-5.775 1.687-6.922-4.71-1.148-6.367 5.782-1.687 6.922M65.166 35.185c.63 2.633-.577 6-3.434 6.69-1.306.315-2.236-.398-2.543-1.672l-.068-.278c2.408-.578 3.3-2.73 2.88-4.47-.39-1.605-1.874-2.917-4.282-2.34-3.547.855-3.727 5.587-3.053 8.385.698 2.91 3.143 6.862 6.72 6.008 1.275-.308 2.34-1.238 2.663-2.573l2.557 1.26c-.75 2.115-2.572 3.578-4.702 4.087-5.295 1.276-9.06-2.947-10.238-7.852-1.2-4.987.18-10.83 5.31-12.06 3.66-.878 7.29 1.065 8.198 4.83z"/>
    <path fill="#FE8E00" d="m75.823 47.155-.075-1.695-1.238-6.84c-.39-2.16-1.47-3.18-2.535-2.985-1.627.293-2.01 3-2.257 5.303l.982 5.437.525 1.612-3.255.585-.075-1.695-2.842-15.705a26 26 0 0 1-.398-3.487c-7.245-1.47-15.78-4.305-20.887-3.383-2.55.465-5.19 2.386-4.673 5.25.308 1.68 1.733 3.016 3.81 2.64 1.77-.322 3.375-2.002 2.933-4.44l.277-.052c1.29-.232 2.318.338 2.558 1.65.525 2.887-2.07 5.355-4.74 5.835-3.788.682-6.96-1.492-7.643-5.28-.622-3.42 1.523-7.433 6.57-8.34 5.888-1.065 14.888 1.77 21.93 3.367.66-4.522 3.48-6.39 6.285-6.9 3.9-.704 6.533 1.688 7.013 4.35.457 2.528-1.035 5.318-4.545 5.948-1.658.3-3.705.18-5.933-.142.083 1.26.27 2.617.518 3.99l.727 4.012c.54-1.515 1.515-2.82 3.255-3.135 2.385-.435 4.5 1.185 5.22 5.167l1.215 6.736.525 1.612-3.255.585zm-2.813-21.33c1.793-.322 2.505-1.672 2.28-2.933-.337-1.882-2.1-2.632-3.84-2.317-2.527.457-3.57 2.355-3.832 4.92 2.16.39 4.012.578 5.392.33"/>
    <path fill="#FE8E00" d="m88.13 45.407.023-1.694-.068-.54c-.622 1.484-1.672 2.737-3.427 2.954-2.4.3-4.425-1.432-4.928-5.445l-.667-5.37c-.083-.652-.135-1.102-.435-1.642l2.88-1.793 1.065 8.566c.27 2.175 1.297 3.255 2.37 3.12 1.642-.203 2.167-2.88 2.542-5.168l-.502-4.073c-.083-.652-.135-1.102-.435-1.642l2.88-1.793L90.98 43.36l.435 1.642-3.277.405zm-1.155-19.694L84.5 30.07l-1.44.18.69-4.133 3.225-.397zm16.597 6.757-2.348 2.07c-.675-1.095-1.718-1.83-3.142-1.733-2.475.165-3.458 2.573-3.315 4.733.157 2.415 1.732 4.538 4.32 4.373 1.305-.09 2.512-.825 3.06-2.093l2.31 1.672c-1.095 1.958-3.135 3.09-5.325 3.24-3.473.233-7.163-2.092-7.493-7.042-.24-3.637 1.905-7.44 6.255-7.725 2.535-.165 4.463.907 5.678 2.505"/>
    <path fill="#FE8E00" d="m118.911 44.102.232-1.672.225-6.127c.113-3.023-.532-4.155-1.357-4.185-1.508-.053-2.213 3.51-2.7 6.06l-.15 4.102.165 1.688-3.315.217.3-2.018.367-10.027c.023-.652.038-1.11-.165-1.688l3.128-1.312-.105 2.962c.982-1.874 2.265-2.594 3.457-2.557 1.763.067 2.79 1.612 3.165 3.225.99-2.19 2.393-3.023 3.675-2.978 2.31.083 3.383 2.693 3.308 4.658l-.323 8.887c-.052 1.395-.045 2.768.053 4.028 2.16-.638 4.17-1.043 5.857-.983 3.563.128 5.438 2.678 5.34 5.243-.097 2.708-2.37 5.445-6.322 5.303-2.85-.105-5.903-1.56-7.2-5.94-6.743 2.58-15.278 7.567-21.263 7.35-5.13-.188-7.814-3.855-7.687-7.328.142-3.847 2.977-6.45 6.817-6.307 2.708.097 5.625 2.174 5.52 5.107-.045 1.335-.99 2.047-2.295 1.995h-.285c.09-2.49-1.74-3.922-3.532-3.99-2.108-.075-3.33 1.448-3.398 3.157-.105 2.903 2.775 4.44 5.37 4.53 5.183.188 13.268-4.732 20.228-7.215a25 25 0 0 1-.098-3.51l.3-8.235c.113-3.022-.532-4.154-1.357-4.184-1.508-.053-2.213 3.51-2.7 6.06l-.15 4.102.112 1.688-3.187-.12zm14.827 10.268c1.763.068 3.398-.93 3.473-2.842.045-1.283-.848-2.513-2.67-2.58-1.395-.053-3.21.397-5.288 1.087.623 2.505 1.928 4.238 4.493 4.328z"/>
    <path fill="#FE8E00" d="m137.84 45.512.412-1.65.06-.54c-.945 1.305-2.257 2.28-4.012 2.085-2.408-.262-3.983-2.415-3.54-6.435l.592-5.385c.068-.652.12-1.102-.045-1.695l3.218-1.08-.938 8.588c-.24 2.182.51 3.465 1.59 3.585 1.643.18 2.775-2.303 3.668-4.448l.442-4.08c.075-.652.12-1.102-.045-1.695l2.145-.712c.63-.278 1.133-.675 1.223-1.185.082-.48-.023-1.095-1.035-1.545l1.785-1.35c1.485.847 1.68 1.935 1.552 2.835-.187 1.155-1.56 2.182-2.625 2.467l-1.192 10.905.045 1.695-3.285-.36zm.187-19.792.75 4.125-1.447-.158-2.535-4.32zm4.193 20.303.51-1.62 1.702-9.886c.113-.645.188-1.095.06-1.695l3.278-.885-.488 2.813c1.238-1.462 2.655-2.145 4.14-1.89 2.385.413 3.825 2.655 3.135 6.645l-1.162 6.742-.06 1.696-3.255-.563.51-1.62 1.185-6.855c.375-2.16-.293-3.495-1.365-3.675-1.545-.27-2.858 1.823-3.87 3.818l-1.005 5.842-.06 1.695-3.255-.563Zm15.983.719c-.42.166-.637.458-.72.796-.712 2.932 10.358 4.192 8.618 11.37-.975 4.012-4.995 5.325-8.4 4.5-3.323-.81-6.12-3.54-5.085-7.778.457-1.883 1.822-3.87 3.735-4.373-1.223-1.005-2.018-2.19-1.613-3.854.24-.998.93-2.003 1.74-2.573-2.445-4.29 1.035-10.898 7.515-9.315a8.4 8.4 0 0 1 2.145.84c.705.113 1.508-.397 2.4-1.792l1.958 2.444c-.66.78-1.365 1.283-2.063 1.613 2.475 4.297-.847 10.973-7.47 9.36-1.11-.27-2.002-.69-2.752-1.23zm.548 6.06c-1.493.578-2.655 1.755-3.03 3.285-.623 2.55.9 4.125 2.76 4.575 1.852.45 4.035-.307 4.567-2.497.63-2.572-1.852-3.945-4.297-5.362Zm2.88-7.597c4.732 1.155 6.39-5.775 1.687-6.922-4.71-1.148-6.367 5.782-1.687 6.922"/>
    <path fill="#FFF400" d="M65.167 35.185c.63 2.632-.577 6-3.435 6.69-1.305.315-2.235-.398-2.542-1.673l-.068-.277c2.408-.578 3.3-2.73 2.88-4.47-.39-1.605-1.875-2.918-4.282-2.34-3.548.855-3.728 5.587-3.053 8.385.698 2.91 3.143 6.862 6.72 6.007 1.275-.307 2.34-1.237 2.663-2.572l2.557 1.26c-.75 2.115-2.572 3.577-4.702 4.087-5.295 1.275-9.06-2.947-10.238-7.852-1.2-4.988.18-10.83 5.31-12.06 3.66-.878 7.29 1.065 8.198 4.83z"/>
    <path fill="#FFF400" d="m75.823 47.155-.075-1.695-1.237-6.84c-.39-2.16-1.47-3.18-2.535-2.985-1.628.292-2.01 3-2.258 5.302l.983 5.438.525 1.612-3.255.585-.075-1.695-2.843-15.705a26 26 0 0 1-.397-3.487c-7.245-1.47-15.78-4.305-20.888-3.383-2.55.465-5.19 2.385-4.672 5.25.307 1.68 1.732 3.015 3.81 2.64 1.77-.322 3.375-2.002 2.932-4.44l.278-.052c1.29-.233 2.317.337 2.557 1.65.525 2.887-2.07 5.355-4.74 5.835-3.787.682-6.96-1.493-7.642-5.28-.623-3.42 1.522-7.433 6.57-8.34 5.887-1.065 14.887 1.77 21.93 3.367.66-4.522 3.48-6.39 6.285-6.9 3.9-.705 6.532 1.688 7.012 4.35.458 2.528-1.035 5.318-4.545 5.948-1.657.3-3.705.18-5.932-.143.082 1.26.27 2.618.517 3.99l.728 4.013c.54-1.515 1.515-2.82 3.255-3.135 2.385-.435 4.5 1.185 5.22 5.167l1.215 6.735.525 1.613-3.255.585zm-2.812-21.33c1.792-.323 2.505-1.673 2.28-2.933-.338-1.882-2.1-2.632-3.84-2.317-2.528.457-3.57 2.355-3.833 4.92 2.16.39 4.013.577 5.393.33"/>
    <path fill="#FFF400" d="m88.13 45.407.023-1.695-.067-.54c-.623 1.485-1.673 2.738-3.428 2.955-2.4.3-4.425-1.432-4.927-5.445l-.668-5.37c-.082-.652-.135-1.102-.435-1.642l2.88-1.793 1.065 8.565c.27 2.175 1.298 3.255 2.37 3.12 1.643-.202 2.168-2.88 2.543-5.167l-.503-4.073c-.082-.652-.135-1.102-.435-1.642l2.88-1.793 1.553 12.473.435 1.642-3.278.405zm-1.154-19.695L84.5 30.07l-1.44.18.69-4.133 3.225-.397v-.008Zm16.596 6.758-2.347 2.07c-.675-1.095-1.718-1.83-3.143-1.733-2.475.165-3.457 2.573-3.315 4.733.158 2.415 1.733 4.537 4.32 4.372 1.305-.09 2.513-.825 3.06-2.092l2.31 1.672c-1.095 1.958-3.135 3.09-5.325 3.24-3.472.233-7.162-2.092-7.492-7.042-.24-3.638 1.905-7.44 6.255-7.725 2.535-.165 4.462.907 5.677 2.505"/>
    <path fill="#FFF400" d="m118.912 44.102.232-1.672.225-6.128c.113-3.022-.532-4.155-1.357-4.185-1.508-.052-2.213 3.51-2.7 6.06l-.15 4.103.165 1.687-3.315.218.3-2.018.367-10.027c.023-.653.038-1.11-.165-1.688l3.128-1.312-.105 2.962c.982-1.875 2.265-2.595 3.457-2.557 1.763.067 2.79 1.612 3.165 3.225.99-2.19 2.393-3.023 3.675-2.978 2.31.083 3.383 2.693 3.308 4.658l-.323 8.887c-.052 1.395-.045 2.768.053 4.028 2.16-.638 4.17-1.043 5.857-.983 3.563.128 5.438 2.678 5.34 5.243-.097 2.707-2.37 5.445-6.322 5.302-2.85-.105-5.903-1.56-7.2-5.94-6.743 2.58-15.278 7.568-21.263 7.35-5.13-.187-7.815-3.855-7.687-7.327.142-3.848 2.977-6.45 6.817-6.308 2.708.098 5.625 2.175 5.52 5.108-.045 1.335-.99 2.047-2.295 1.995h-.285c.09-2.49-1.74-3.923-3.532-3.99-2.108-.075-3.33 1.447-3.398 3.157-.105 2.903 2.775 4.44 5.37 4.53 5.183.188 13.268-4.732 20.228-7.215a25 25 0 0 1-.098-3.51l.3-8.235c.113-3.022-.532-4.155-1.357-4.185-1.508-.052-2.213 3.51-2.7 6.06l-.15 4.103.112 1.687-3.187-.12zm14.827 10.268c1.763.067 3.398-.93 3.473-2.843.045-1.282-.848-2.512-2.67-2.58-1.395-.052-3.21.398-5.288 1.088.623 2.505 1.928 4.237 4.493 4.327z"/>
    <path fill="#FFF400" d="m137.84 45.512.413-1.65.06-.54c-.945 1.305-2.258 2.28-4.013 2.085-2.407-.262-3.982-2.415-3.54-6.435l.593-5.385c.067-.652.12-1.102-.045-1.695l3.217-1.08-.937 8.588c-.24 2.182.51 3.465 1.59 3.585 1.642.18 2.775-2.303 3.667-4.448l.443-4.08c.075-.652.12-1.102-.045-1.695l2.145-.712c.63-.278 1.132-.675 1.222-1.185.083-.48-.022-1.095-1.035-1.545l1.785-1.35c1.485.847 1.68 1.935 1.553 2.835-.188 1.155-1.56 2.182-2.625 2.467l-1.193 10.905.045 1.695-3.285-.36zm.188-19.792.75 4.125-1.448-.158-2.535-4.32zm4.192 20.302.51-1.62 1.703-9.885c.112-.645.187-1.095.06-1.695l3.277-.885-.487 2.813c1.237-1.463 2.655-2.145 4.14-1.89 2.385.412 3.825 2.655 3.135 6.645l-1.163 6.742-.06 1.695-3.255-.562.51-1.62 1.185-6.855c.375-2.16-.292-3.495-1.365-3.675-1.545-.27-2.857 1.822-3.87 3.817l-1.005 5.843-.06 1.695zm15.984.72c-.42.165-.638.458-.72.795-.713 2.933 10.357 4.193 8.617 11.37-.975 4.013-4.995 5.325-8.4 4.5-3.322-.81-6.12-3.54-5.085-7.777.458-1.883 1.823-3.87 3.735-4.373-1.222-1.005-2.017-2.19-1.612-3.855.24-.997.93-2.002 1.74-2.572-2.445-4.29 1.035-10.898 7.515-9.315a8.4 8.4 0 0 1 2.145.84c.705.112 1.507-.398 2.4-1.793l1.957 2.445c-.66.78-1.365 1.283-2.062 1.613 2.475 4.297-.848 10.972-7.47 9.36-1.11-.27-2.003-.69-2.753-1.23zm.547 6.06c-1.492.578-2.655 1.755-3.03 3.285-.622 2.55.9 4.125 2.76 4.575 1.853.45 4.035-.307 4.568-2.497.63-2.573-1.853-3.945-4.298-5.363m2.88-7.597c4.733 1.155 6.39-5.775 1.688-6.923-4.71-1.147-6.368 5.783-1.688 6.923"/>
    <path fill="#D61313" d="M65.167 33.902c.63 2.633-.577 6-3.435 6.69-1.305.315-2.235-.397-2.542-1.672l-.068-.278c2.408-.577 3.3-2.73 2.88-4.47-.39-1.605-1.875-2.917-4.282-2.34-3.548.855-3.728 5.588-3.053 8.385.698 2.91 3.143 6.863 6.72 6.008 1.275-.308 2.34-1.238 2.663-2.573l2.557 1.26c-.75 2.115-2.572 3.578-4.702 4.088-5.295 1.275-9.06-2.948-10.238-7.853-1.2-4.987.18-10.83 5.31-12.06 3.66-.877 7.29 1.065 8.198 4.83z"/>
    <path fill="#D61313" d="m75.823 45.872-.075-1.695-1.237-6.84c-.39-2.16-1.47-3.18-2.535-2.985-1.628.293-2.01 3-2.258 5.303l.983 5.437.525 1.613-3.255.585-.075-1.695-2.843-15.705a26 26 0 0 1-.397-3.488c-7.245-1.47-15.78-4.305-20.888-3.382-2.55.465-5.19 2.385-4.672 5.25.307 1.68 1.732 3.015 3.81 2.64 1.77-.323 3.375-2.003 2.932-4.44l.278-.053c1.29-.232 2.317.338 2.557 1.65.525 2.888-2.07 5.355-4.74 5.835-3.787.683-6.96-1.492-7.642-5.28-.623-3.42 1.522-7.432 6.57-8.34 5.887-1.065 14.887 1.77 21.93 3.368.66-4.523 3.48-6.39 6.285-6.9 3.9-.705 6.532 1.687 7.012 4.35.458 2.527-1.035 5.317-4.545 5.947-1.657.3-3.705.18-5.932-.142.082 1.26.27 2.617.517 3.99l.728 4.012c.54-1.515 1.515-2.82 3.255-3.135 2.385-.435 4.5 1.185 5.22 5.168l1.215 6.735.525 1.612-3.255.585zm-2.812-21.33c1.792-.322 2.505-1.672 2.28-2.932-.338-1.883-2.1-2.633-3.84-2.318-2.528.458-3.57 2.355-3.833 4.92 2.16.39 4.013.578 5.393.33"/>
    <path fill="#D61313" d="m88.13 44.125.023-1.695-.067-.54c-.623 1.485-1.673 2.737-3.428 2.955-2.4.3-4.425-1.433-4.927-5.445l-.668-5.37c-.082-.653-.135-1.103-.435-1.643l2.88-1.792 1.065 8.565c.27 2.175 1.298 3.255 2.37 3.12 1.643-.203 2.168-2.88 2.543-5.168l-.503-4.072c-.082-.653-.135-1.103-.435-1.643l2.88-1.792 1.553 12.472.435 1.643-3.278.405zM86.977 24.43 84.5 28.787l-1.44.18.69-4.132 3.225-.398v-.007Zm16.595 6.757-2.347 2.07c-.675-1.095-1.718-1.83-3.143-1.732-2.475.165-3.457 2.572-3.315 4.732.158 2.415 1.733 4.538 4.32 4.373 1.305-.09 2.513-.825 3.06-2.093l2.31 1.673c-1.095 1.957-3.135 3.09-5.325 3.24-3.472.232-7.162-2.093-7.492-7.043-.24-3.637 1.905-7.44 6.255-7.725 2.535-.165 4.462.908 5.677 2.505"/>
    <path fill="#D61313" d="m118.912 42.82.232-1.673.225-6.127c.113-3.023-.532-4.155-1.357-4.185-1.508-.053-2.213 3.51-2.7 6.06l-.15 4.102.165 1.688-3.315.217.3-2.017.367-10.028c.023-.652.038-1.11-.165-1.687l3.128-1.313-.105 2.963c.982-1.875 2.265-2.595 3.457-2.558 1.763.068 2.79 1.613 3.165 3.225.99-2.19 2.393-3.022 3.675-2.977 2.31.082 3.383 2.692 3.308 4.657l-.323 8.888c-.052 1.395-.045 2.767.053 4.027 2.16-.637 4.17-1.042 5.857-.982 3.563.127 5.438 2.677 5.34 5.242-.097 2.708-2.37 5.445-6.322 5.303-2.85-.105-5.903-1.56-7.2-5.94-6.743 2.58-15.278 7.567-21.263 7.35-5.13-.188-7.815-3.855-7.687-7.328.142-3.847 2.977-6.45 6.817-6.307 2.708.097 5.625 2.175 5.52 5.107-.045 1.335-.99 2.048-2.295 1.995h-.285c.09-2.49-1.74-3.922-3.532-3.99-2.108-.075-3.33 1.448-3.398 3.158-.105 2.902 2.775 4.44 5.37 4.53 5.183.187 13.268-4.733 20.228-7.215a25 25 0 0 1-.098-3.51l.3-8.235c.113-3.023-.532-4.155-1.357-4.185-1.508-.053-2.213 3.51-2.7 6.06l-.15 4.102.112 1.688-3.187-.12zm14.827 10.267c1.763.068 3.398-.93 3.473-2.842.045-1.283-.848-2.513-2.67-2.58-1.395-.053-3.21.397-5.288 1.087.623 2.505 1.928 4.238 4.493 4.328z"/>
    <path fill="#D61313" d="m137.84 44.23.413-1.65.06-.54c-.945 1.305-2.258 2.28-4.013 2.085-2.407-.263-3.982-2.415-3.54-6.435l.593-5.385c.067-.653.12-1.103-.045-1.695l3.217-1.08-.937 8.587c-.24 2.183.51 3.465 1.59 3.585 1.642.18 2.775-2.302 3.667-4.447l.443-4.08c.075-.653.12-1.103-.045-1.695l2.145-.713c.63-.277 1.132-.675 1.222-1.185.083-.48-.022-1.095-1.035-1.545l1.785-1.35c1.485.848 1.68 1.935 1.553 2.835-.188 1.155-1.56 2.183-2.625 2.468l-1.193 10.905.045 1.695-3.285-.36zm.188-19.793.75 4.125-1.448-.157-2.535-4.32zm4.192 20.303.51-1.62 1.703-9.885c.112-.645.187-1.095.06-1.695l3.277-.885-.487 2.812c1.237-1.462 2.655-2.145 4.14-1.89 2.385.413 3.825 2.655 3.135 6.645l-1.163 6.743-.06 1.695-3.255-.563.51-1.62 1.185-6.855c.375-2.16-.292-3.495-1.365-3.675-1.545-.27-2.857 1.823-3.87 3.818l-1.005 5.842-.06 1.695zm15.984.72c-.42.165-.638.457-.72.795-.713 2.932 10.357 4.192 8.617 11.37-.975 4.012-4.995 5.325-8.4 4.5-3.322-.81-6.12-3.54-5.085-7.778.458-1.882 1.823-3.87 3.735-4.372-1.222-1.005-2.017-2.19-1.612-3.855.24-.998.93-2.003 1.74-2.573-2.445-4.29 1.035-10.897 7.515-9.315a8.4 8.4 0 0 1 2.145.84c.705.113 1.507-.397 2.4-1.792l1.957 2.445c-.66.78-1.365 1.282-2.062 1.612 2.475 4.298-.848 10.973-7.47 9.36-1.11-.27-2.003-.69-2.753-1.23zm.547 6.06c-1.492.577-2.655 1.755-3.03 3.285-.622 2.55.9 4.125 2.76 4.575 1.853.45 4.035-.308 4.568-2.498.63-2.572-1.853-3.945-4.298-5.362m2.88-7.598c4.733 1.155 6.39-5.775 1.688-6.922-4.71-1.148-6.368 5.782-1.688 6.922"/>
  </g>
  <defs>
    <clipPath id="a">
      <path fill="#fff" d="M0 0h220v89H0z"/>
    </clipPath>
  </defs>
</svg>
