<svg xmlns="http://www.w3.org/2000/svg" width="271" height="103" fill="none" viewBox="0 0 271 103" xmlns:xlink="http://www.w3.org/1999/xlink">
  <g clip-path="url(#a)">
    <path fill="#D61313" d="M139.074-.36C70.759-.36 20.09 23.823 20.09 23.823l26.939 66.9c34.07-12.05 65.022-16.054 91.139-16.054 52.01 0 84.84 15.906 84.84 15.906l26.884-67.103C211.291 5.614 173.005-.36 139.065-.351z"/>
    <g style="mix-blend-mode:multiply">
      <mask id="b" width="230" height="92" x="20" y="-1" maskUnits="userSpaceOnUse" style="mask-type:luminance">
        <path fill="#fff" d="M139.074-.36C70.759-.36 20.09 23.823 20.09 23.823l26.939 66.9c34.07-12.05 65.022-16.054 91.139-16.054 52.01 0 84.84 15.906 84.84 15.906l26.884-67.103C211.291 5.614 173.005-.36 139.065-.351z"/>
      </mask>
      <g fill="#F56D27" mask="url(#b)">
        <path d="M20.09 84.61c5.105 0 9.248 4.143 9.248 9.248-5.105 0-9.248-4.143-9.248-9.248m18.496 0c0 5.105-4.144 9.248-9.248 9.248 0-5.105 4.143-9.248 9.248-9.248m0 0c-5.105 0-9.248-4.143-9.248-9.248 5.104 0 9.248 4.143 9.248 9.248m-9.248-9.248c0 5.105-4.143 9.248-9.248 9.248 0-5.105 4.143-9.248 9.248-9.248m27.744 9.248c0 5.105-4.144 9.248-9.248 9.248 0-5.105 4.143-9.248 9.247-9.248m.001 0c-5.105 0-9.248-4.143-9.248-9.248 5.104 0 9.247 4.143 9.247 9.248m-9.247-9.248c0 5.105-4.144 9.248-9.248 9.248 0-5.105 4.143-9.248 9.248-9.248m-9.248 9.248c5.104 0 9.248 4.143 9.248 9.248-5.105 0-9.248-4.143-9.248-9.248m36.991 0c0 5.105-4.143 9.248-9.248 9.248 0-5.105 4.143-9.248 9.248-9.248"/>
        <path d="M66.33 75.362c0 5.105-4.144 9.248-9.249 9.248 0-5.105 4.143-9.248 9.248-9.248m-9.248 9.248c5.105 0 9.248 4.143 9.248 9.248-5.104 0-9.248-4.143-9.248-9.248"/>
        <path d="M75.577 84.61c-5.105 0-9.248-4.143-9.248-9.248 5.105 0 9.248 4.143 9.248 9.248m0 0c5.105 0 9.248 4.143 9.248 9.248-5.105 0-9.248-4.143-9.248-9.248m9.248-9.248c0 5.105-4.143 9.248-9.248 9.248 0-5.105 4.144-9.248 9.248-9.248"/>
        <path d="M94.073 84.61c0 5.105-4.143 9.239-9.248 9.248 0-5.105 4.143-9.248 9.248-9.248m0 0c-5.105 0-9.248-4.143-9.248-9.248 5.105 0 9.248 4.143 9.248 9.248m9.248-9.248c0 5.105-4.143 9.248-9.248 9.248 0-5.105 4.143-9.248 9.248-9.248m-9.248 9.248c5.105 0 9.248 4.143 9.248 9.248-5.105 0-9.239-4.143-9.248-9.248m18.496 0c0 5.105-4.143 9.248-9.248 9.248 0-5.105 4.143-9.248 9.248-9.248m0 0c-5.105 0-9.248-4.143-9.248-9.248 5.105 0 9.248 4.143 9.248 9.248m18.496 0c-5.105 0-9.248-4.143-9.248-9.248 5.105 0 9.248 4.143 9.248 9.248m-9.248-9.248c0 5.105-4.143 9.248-9.248 9.248 0-5.105 4.143-9.248 9.248-9.248m-9.248 9.248c5.105 0 9.248 4.143 9.248 9.248-5.105 0-9.248-4.143-9.248-9.248m18.496 0c0 5.105-4.143 9.248-9.248 9.248 0-5.105 4.143-9.248 9.248-9.248m9.248-9.248c0 5.105-4.143 9.248-9.248 9.248 0-5.105 4.143-9.248 9.248-9.248m9.248 9.248c-5.105 0-9.248-4.143-9.248-9.248 5.105 0 9.248 4.143 9.248 9.248m0 0c0 5.105-4.143 9.239-9.248 9.248 0-5.105 4.143-9.248 9.248-9.248m-18.496 0c5.105 0 9.248 4.143 9.248 9.248-5.105 0-9.248-4.143-9.248-9.248m36.992 0c-5.105 0-9.248-4.143-9.248-9.248 5.105 0 9.248 4.143 9.248 9.248m0 0c0 5.105-4.143 9.248-9.248 9.248 0-5.105 4.143-9.248 9.248-9.248m-9.248-9.248c0 5.105-4.143 9.248-9.248 9.248 0-5.105 4.143-9.248 9.248-9.248m-9.248 9.248c5.105 0 9.248 4.143 9.248 9.248-5.105 0-9.239-4.143-9.248-9.248m18.496 0c5.105 0 9.248 4.143 9.248 9.248-5.105 0-9.248-4.143-9.248-9.248m9.248-9.248c0 5.105-4.143 9.248-9.248 9.248 0-5.105 4.143-9.248 9.248-9.248m9.248 9.248c-5.105 0-9.248-4.143-9.248-9.248 5.105 0 9.248 4.143 9.248 9.248m0 0c0 5.105-4.143 9.248-9.248 9.248 0-5.105 4.143-9.248 9.248-9.248m18.496 0c-5.105 0-9.248-4.143-9.248-9.248 5.105 0 9.248 4.143 9.248 9.248m-9.248-9.248c0 5.105-4.143 9.248-9.248 9.248 0-5.105 4.143-9.248 9.248-9.248m-9.248 9.248c5.105 0 9.248 4.143 9.248 9.248-5.105 0-9.248-4.143-9.248-9.248m18.496 0c0 5.105-4.143 9.248-9.248 9.248 0-5.105 4.143-9.248 9.248-9.248m9.248-9.248c0 5.105-4.143 9.248-9.248 9.248 0-5.105 4.143-9.248 9.248-9.248m9.248 9.248c0 5.105-4.143 9.248-9.248 9.248 0-5.105 4.143-9.248 9.248-9.248m0 0c-5.105 0-9.248-4.143-9.248-9.248 5.105 0 9.248 4.143 9.248 9.248m-18.496 0c5.105 0 9.248 4.143 9.248 9.248-5.105 0-9.248-4.143-9.248-9.248m36.992 0c0 5.105-4.144 9.248-9.248 9.248 0-5.105 4.143-9.248 9.248-9.248m-18.496 0c5.105 0 9.248 4.143 9.248 9.248-5.105 0-9.248-4.143-9.248-9.248"/>
        <path d="M232.783 75.362c0 5.105-4.143 9.248-9.248 9.248 0-5.105 4.143-9.248 9.248-9.248m9.258 9.248c-5.105 0-9.248-4.143-9.248-9.248 5.104 0 9.248 4.143 9.248 9.248m0 0c5.104 0 9.247 4.143 9.247 9.248-5.104 0-9.247-4.143-9.247-9.248"/>
        <path d="M251.279 75.362c0 5.105-4.143 9.248-9.248 9.248 0-5.105 4.143-9.248 9.248-9.248M38.586 66.114c-5.105 0-9.248-4.143-9.248-9.248 5.104 0 9.248 4.144 9.248 9.248m-9.248-9.248c0 5.105-4.143 9.248-9.248 9.248 0-5.105 4.143-9.248 9.248-9.248m9.248 9.248c0 5.105-4.144 9.248-9.248 9.248 0-5.105 4.143-9.248 9.248-9.248m-18.496 0c5.105 0 9.248 4.143 9.248 9.248-5.105 0-9.248-4.143-9.248-9.248m18.496 0c5.104 0 9.248 4.143 9.248 9.248-5.105 0-9.248-4.143-9.248-9.248m9.248-9.248c0 5.105-4.144 9.248-9.248 9.248 0-5.105 4.143-9.248 9.248-9.248m9.248 9.248c0 5.105-4.144 9.248-9.248 9.248 0-5.105 4.143-9.248 9.247-9.248m.001 0c-5.105 0-9.248-4.143-9.248-9.248 5.104 0 9.247 4.144 9.247 9.248"/>
        <path d="M57.081 66.114c5.105 0 9.248 4.143 9.248 9.248-5.104 0-9.248-4.143-9.248-9.248"/>
        <path d="M75.577 66.114c0 5.105-4.143 9.248-9.248 9.248 0-5.105 4.143-9.248 9.248-9.248m0 0c-5.105 0-9.248-4.143-9.248-9.248 5.105 0 9.248 4.144 9.248 9.248"/>
        <path d="M66.33 56.866c0 5.105-4.144 9.248-9.249 9.248 0-5.105 4.143-9.248 9.248-9.248m18.496 0c0 5.105-4.143 9.248-9.248 9.248 0-5.105 4.144-9.248 9.248-9.248m9.248 9.248c0 5.105-4.143 9.248-9.248 9.248 0-5.105 4.143-9.248 9.248-9.248"/>
        <path d="M75.577 66.114c5.105 0 9.248 4.143 9.248 9.248-5.105 0-9.248-4.143-9.248-9.248m18.496 0c-5.105 0-9.248-4.143-9.248-9.248 5.105 0 9.248 4.144 9.248 9.248m9.248-9.248c0 5.105-4.143 9.248-9.248 9.248 0-5.105 4.143-9.248 9.248-9.248m9.248 9.248c0 5.105-4.143 9.248-9.248 9.248 0-5.105 4.143-9.248 9.248-9.248m-18.496 0c5.105 0 9.248 4.143 9.248 9.248-5.105 0-9.248-4.143-9.248-9.248m18.496 0c-5.105 0-9.248-4.143-9.248-9.248 5.105 0 9.248 4.144 9.248 9.248"/>
        <path d="M121.817 56.866c0 5.105-4.143 9.248-9.248 9.248 0-5.105 4.143-9.248 9.248-9.248m9.248 9.248c0 5.105-4.143 9.248-9.248 9.248 0-5.105 4.143-9.248 9.248-9.248"/>
        <path d="M112.569 66.114c5.105 0 9.248 4.143 9.248 9.248-5.105 0-9.248-4.143-9.248-9.248m18.496 0c-5.105 0-9.248-4.143-9.248-9.248 5.105 0 9.248 4.144 9.248 9.248m18.496 0c-5.105 0-9.248-4.143-9.248-9.248 5.105 0 9.248 4.144 9.248 9.248m0 0c0 5.105-4.143 9.248-9.248 9.248 0-5.105 4.143-9.248 9.248-9.248m-18.496 0c5.105 0 9.248 4.143 9.248 9.248-5.105 0-9.248-4.143-9.248-9.248m9.248-9.248c0 5.105-4.143 9.248-9.248 9.248 0-5.105 4.143-9.248 9.248-9.248m18.496 0c0 5.105-4.143 9.248-9.248 9.248 0-5.105 4.143-9.248 9.248-9.248m-9.248 9.248c5.105 0 9.248 4.143 9.248 9.248-5.105 0-9.248-4.143-9.248-9.248m18.496 0c-5.105 0-9.248-4.143-9.248-9.248 5.105 0 9.248 4.144 9.248 9.248m0 0c0 5.105-4.143 9.248-9.248 9.248 0-5.105 4.143-9.248 9.248-9.248m18.496 0c-5.105 0-9.248-4.143-9.248-9.248 5.105 0 9.248 4.144 9.248 9.248m-9.248-9.248c0 5.105-4.143 9.248-9.248 9.248 0-5.105 4.143-9.248 9.248-9.248m9.248 9.248c0 5.105-4.143 9.248-9.248 9.248 0-5.105 4.143-9.248 9.248-9.248m-18.496 0c5.105 0 9.248 4.143 9.248 9.248-5.105 0-9.248-4.143-9.248-9.248m36.992 0c0 5.105-4.143 9.248-9.248 9.248 0-5.105 4.143-9.248 9.248-9.248m0 0c-5.105 0-9.248-4.143-9.248-9.248 5.105 0 9.248 4.144 9.248 9.248m-18.496 0c5.105 0 9.248 4.143 9.248 9.248-5.105 0-9.248-4.143-9.248-9.248m9.248-9.248c0 5.105-4.143 9.248-9.248 9.248 0-5.105 4.143-9.248 9.248-9.248"/>
        <path d="M214.287 56.866c0 5.105-4.143 9.248-9.247 9.248 0-5.105 4.143-9.248 9.247-9.248m-9.238 9.248c5.105 0 9.248 4.143 9.248 9.248-5.105 0-9.248-4.143-9.248-9.248m18.496 0c-5.105 0-9.248-4.143-9.248-9.248 5.105 0 9.248 4.144 9.248 9.248m0 0c0 5.105-4.143 9.248-9.248 9.248 0-5.105 4.143-9.248 9.248-9.248"/>
        <path d="M232.783 56.866c0 5.105-4.143 9.248-9.248 9.248 0-5.105 4.143-9.248 9.248-9.248m9.258 9.248c-5.105 0-9.248-4.143-9.248-9.248 5.104 0 9.248 4.144 9.248 9.248m0 0c0 5.105-4.144 9.248-9.248 9.248 0-5.105 4.143-9.248 9.248-9.248m-18.496 0c5.105 0 9.248 4.143 9.248 9.248-5.105 0-9.248-4.143-9.248-9.248m18.496 0c5.104 0 9.247 4.143 9.247 9.248-5.104 0-9.247-4.143-9.247-9.248"/>
        <path d="M251.279 56.866c0 5.105-4.143 9.248-9.248 9.248 0-5.105 4.143-9.248 9.248-9.248M38.586 47.618c-5.105 0-9.248-4.143-9.248-9.248 5.104 0 9.248 4.144 9.248 9.248m-9.248 9.248c-5.105 0-9.248-4.143-9.248-9.248 5.105 0 9.248 4.143 9.248 9.248m0-18.496c0 5.105-4.143 9.248-9.248 9.248 0-5.104 4.143-9.248 9.248-9.248m9.248 9.248c0 5.105-4.144 9.248-9.248 9.248 0-5.105 4.143-9.248 9.248-9.248m0 0c5.104 0 9.248 4.143 9.248 9.248-5.105 0-9.248-4.143-9.248-9.248m18.496 0c0 5.105-4.144 9.248-9.248 9.248 0-5.105 4.143-9.248 9.247-9.248m.001 0c-5.105 0-9.248-4.143-9.248-9.248 5.104 0 9.247 4.144 9.247 9.248m-9.247-9.248c0 5.105-4.144 9.248-9.248 9.248 0-5.104 4.143-9.248 9.248-9.248m27.743 9.248c0 5.105-4.143 9.248-9.248 9.248 0-5.105 4.143-9.248 9.248-9.248"/>
        <path d="M66.33 38.37c0 5.105-4.144 9.248-9.249 9.248 0-5.104 4.143-9.248 9.248-9.248"/>
        <path d="M75.577 47.618c-5.105 0-9.248-4.143-9.248-9.248 5.105 0 9.248 4.144 9.248 9.248m-18.496 0c5.105 0 9.248 4.143 9.248 9.248-5.104 0-9.248-4.143-9.248-9.248m36.992 0c-5.105 0-9.248-4.143-9.248-9.248 5.105 0 9.248 4.144 9.248 9.248m-9.248-9.248c0 5.105-4.143 9.248-9.248 9.248 0-5.104 4.144-9.248 9.248-9.248m-9.248 9.248c5.105 0 9.248 4.143 9.248 9.248-5.105 0-9.248-4.143-9.248-9.248"/>
        <path d="M94.073 47.618c0 5.105-4.143 9.248-9.248 9.248 0-5.105 4.143-9.248 9.248-9.248m18.496 0c-5.105 0-9.248-4.143-9.248-9.248 5.105 0 9.248 4.144 9.248 9.248m-9.248-9.248c0 5.105-4.143 9.248-9.248 9.248 0-5.104 4.143-9.248 9.248-9.248m9.248 9.248c0 5.105-4.143 9.248-9.248 9.248 0-5.105 4.143-9.248 9.248-9.248m-18.496 0c5.105 0 9.248 4.143 9.248 9.248-5.105 0-9.248-4.143-9.248-9.248m36.992 0c0 5.105-4.143 9.248-9.248 9.248 0-5.105 4.143-9.248 9.248-9.248"/>
        <path d="M112.569 47.618c5.105 0 9.248 4.143 9.248 9.248-5.105 0-9.248-4.143-9.248-9.248m18.496 0c-5.105 0-9.248-4.143-9.248-9.248 5.105 0 9.248 4.144 9.248 9.248m-9.248-9.248c0 5.105-4.143 9.248-9.248 9.248 0-5.104 4.143-9.248 9.248-9.248m18.496 0c0 5.105-4.143 9.248-9.248 9.248 0-5.104 4.143-9.248 9.248-9.248m9.248 9.248c-5.105 0-9.248-4.143-9.248-9.248 5.105 0 9.248 4.144 9.248 9.248m0 0c0 5.105-4.143 9.248-9.248 9.248 0-5.105 4.143-9.248 9.248-9.248m-18.496 0c5.105 0 9.248 4.143 9.248 9.248-5.105 0-9.248-4.143-9.248-9.248m36.992 0c0 5.105-4.143 9.248-9.248 9.248 0-5.105 4.143-9.248 9.248-9.248m-18.496 0c5.105 0 9.248 4.143 9.248 9.248-5.105 0-9.248-4.143-9.248-9.248m9.248-9.248c0 5.105-4.143 9.248-9.248 9.248 0-5.104 4.143-9.248 9.248-9.248m9.248 9.248c-5.105 0-9.248-4.143-9.248-9.248 5.105 0 9.248 4.144 9.248 9.248m18.496 0c-5.105 0-9.248-4.143-9.248-9.248 5.105 0 9.248 4.144 9.248 9.248"/>
        <path d="M177.296 38.37c0 5.105-4.144 9.248-9.248 9.248 0-5.104 4.143-9.248 9.248-9.248m-9.239 9.248c5.105 0 9.248 4.143 9.248 9.248-5.105 0-9.248-4.143-9.248-9.248m18.496 0c0 5.105-4.143 9.248-9.248 9.248 0-5.105 4.143-9.248 9.248-9.248m18.496 0c-5.105 0-9.248-4.143-9.248-9.248 5.105 0 9.248 4.144 9.248 9.248m-9.257-9.248c0 5.105-4.144 9.248-9.248 9.248 0-5.104 4.143-9.248 9.248-9.248m9.257 9.248c0 5.105-4.143 9.248-9.248 9.248 0-5.105 4.143-9.248 9.248-9.248m-18.496 0c5.105 0 9.248 4.143 9.248 9.248-5.105 0-9.248-4.143-9.248-9.248m18.496 0c5.105 0 9.248 4.143 9.248 9.248-5.105 0-9.248-4.143-9.248-9.248m18.496 0c-5.105 0-9.248-4.143-9.248-9.248 5.105 0 9.248 4.144 9.248 9.248"/>
        <path d="M214.287 38.37c0 5.105-4.143 9.248-9.247 9.248 0-5.104 4.143-9.248 9.247-9.248m9.258 9.248c0 5.105-4.143 9.248-9.248 9.248 0-5.105 4.143-9.248 9.248-9.248m0 0c5.105 0 9.248 4.143 9.248 9.248-5.105 0-9.248-4.143-9.248-9.248m18.496 0c0 5.105-4.144 9.248-9.248 9.248 0-5.105 4.143-9.248 9.248-9.248m0 0c-5.105 0-9.248-4.143-9.248-9.248 5.104 0 9.248 4.144 9.248 9.248m-9.258-9.248c0 5.105-4.143 9.248-9.248 9.248 0-5.104 4.143-9.248 9.248-9.248"/>
        <path d="M251.279 38.37c0 5.105-4.143 9.248-9.248 9.248 0-5.104 4.143-9.248 9.248-9.248m-9.238 9.248c5.104 0 9.247 4.143 9.247 9.248-5.104 0-9.247-4.143-9.247-9.248M29.347 38.37c0-5.104 4.143-9.247 9.248-9.247 0 5.104-4.143 9.247-9.248 9.247m-.009 0c-5.105 0-9.248-4.143-9.248-9.247 5.105 0 9.248 4.143 9.248 9.247m0-18.495c0 5.104-4.143 9.247-9.248 9.247 0-5.104 4.143-9.247 9.248-9.247"/>
        <path d="M38.586 29.123c-5.105 0-9.248-4.144-9.248-9.248 5.104 0 9.248 4.143 9.248 9.247m18.496.001c-5.105 0-9.248-4.144-9.248-9.248 5.104 0 9.247 4.143 9.247 9.247m.001.001c0 5.104-4.144 9.247-9.248 9.247 0-5.104 4.143-9.247 9.247-9.247m-9.247 9.247c-5.105 0-9.248-4.143-9.248-9.247 5.104 0 9.248 4.143 9.248 9.247m0-18.495c0 5.104-4.144 9.247-9.248 9.247 0-5.104 4.143-9.247 9.248-9.247"/>
        <path d="M66.33 19.875c0 5.104-4.144 9.247-9.249 9.247 0-5.104 4.143-9.247 9.248-9.247m-9.248 9.248c5.105 0 9.248 4.143 9.248 9.247-5.104 0-9.248-4.143-9.248-9.247"/>
        <path d="M75.577 29.123c0 5.104-4.143 9.247-9.248 9.247 0-5.104 4.143-9.247 9.248-9.247m0 0c-5.105 0-9.248-4.144-9.248-9.248 5.105 0 9.248 4.143 9.248 9.247m18.496.001c-5.105 0-9.248-4.144-9.248-9.248 5.105 0 9.248 4.143 9.248 9.247m-18.496.001c5.105 0 9.248 4.143 9.248 9.247-5.105 0-9.248-4.143-9.248-9.247"/>
        <path d="M94.073 29.123c0 5.104-4.143 9.247-9.248 9.247 0-5.104 4.143-9.247 9.248-9.247m-9.248-9.248c0 5.104-4.143 9.247-9.248 9.247 0-5.104 4.144-9.247 9.248-9.247m9.248 9.248c5.105 0 9.248 4.143 9.248 9.247-5.105 0-9.248-4.143-9.248-9.247m9.248-9.248c0 5.104-4.143 9.247-9.248 9.247 0-5.104 4.143-9.247 9.248-9.247m9.248 9.248c-5.105 0-9.248-4.144-9.248-9.248 5.105 0 9.248 4.143 9.248 9.247m0 .001c0 5.104-4.143 9.247-9.248 9.247 0-5.104 4.143-9.247 9.248-9.247m18.496 0c0 5.104-4.143 9.247-9.248 9.247 0-5.104 4.143-9.247 9.248-9.247"/>
        <path d="M112.569 29.123c5.105 0 9.248 4.143 9.248 9.247-5.105 0-9.248-4.143-9.248-9.247m18.496 0c-5.105 0-9.248-4.144-9.248-9.248 5.105 0 9.248 4.143 9.248 9.247m-9.248-9.247c0 5.104-4.143 9.247-9.248 9.247 0-5.104 4.143-9.247 9.248-9.247m27.744 9.248c0 5.104-4.143 9.247-9.248 9.247 0-5.104 4.143-9.247 9.248-9.247m-18.496 0c5.105 0 9.248 4.143 9.248 9.247-5.105 0-9.248-4.143-9.248-9.247m18.496 0c-5.105 0-9.248-4.144-9.248-9.248 5.105 0 9.248 4.143 9.248 9.247m-9.248-9.247c0 5.104-4.143 9.247-9.248 9.247 0-5.104 4.143-9.247 9.248-9.247m18.496 0c0 5.104-4.143 9.247-9.248 9.247 0-5.104 4.143-9.247 9.248-9.247m9.248 9.248c0 5.104-4.143 9.247-9.248 9.247 0-5.104 4.143-9.247 9.248-9.247m0 0c-5.105 0-9.248-4.144-9.248-9.248 5.105 0 9.248 4.143 9.248 9.247m-18.496.001c5.105 0 9.248 4.143 9.248 9.247-5.105 0-9.248-4.143-9.248-9.247m27.744-9.248c0 5.104-4.143 9.247-9.248 9.247 0-5.104 4.143-9.247 9.248-9.247m9.248 9.248c0 5.104-4.143 9.247-9.248 9.247 0-5.104 4.143-9.247 9.248-9.247m0 0c-5.105 0-9.248-4.144-9.248-9.248 5.105 0 9.248 4.143 9.248 9.247m-18.496.001c5.105 0 9.248 4.143 9.248 9.247-5.105 0-9.248-4.143-9.248-9.247m36.992 0c0 5.104-4.143 9.247-9.248 9.247 0-5.104 4.143-9.247 9.248-9.247m-18.496 0c5.105 0 9.248 4.143 9.248 9.247-5.105 0-9.248-4.143-9.248-9.247m18.496 0c-5.105 0-9.248-4.144-9.248-9.248 5.105 0 9.248 4.143 9.248 9.247m-9.248-9.247c0 5.104-4.143 9.247-9.248 9.247 0-5.104 4.143-9.247 9.248-9.247m27.744 9.248c-5.105 0-9.248-4.144-9.248-9.248 5.105 0 9.248 4.143 9.248 9.247m0 .001c0 5.104-4.143 9.247-9.248 9.247 0-5.104 4.143-9.247 9.248-9.247"/>
        <path d="M214.287 19.875c0 5.104-4.143 9.247-9.247 9.247 0-5.104 4.143-9.247 9.247-9.247m-9.238 9.248c5.105 0 9.248 4.143 9.248 9.247-5.105 0-9.248-4.143-9.248-9.247m36.982 0c0 5.104-4.143 9.247-9.248 9.247 0-5.104 4.143-9.247 9.248-9.247m-9.248-9.248c0 5.104-4.143 9.247-9.248 9.247 0-5.104 4.143-9.247 9.248-9.247m9.258 9.248c-5.105 0-9.248-4.144-9.248-9.248 5.104 0 9.248 4.143 9.248 9.247"/>
        <path d="M223.545 29.123c5.105 0 9.248 4.143 9.248 9.247-5.105 0-9.248-4.143-9.248-9.247m27.734-9.248c0 5.104-4.143 9.247-9.248 9.247 0-5.104 4.143-9.247 9.248-9.247m-9.238 9.248c5.104 0 9.247 4.143 9.247 9.247-5.104 0-9.247-4.143-9.247-9.247M38.586 10.627c-5.105 0-9.248-4.143-9.248-9.248 5.104 0 9.248 4.143 9.248 9.248m-9.248 9.248c-5.105 0-9.248-4.143-9.248-9.248 5.105 0 9.248 4.143 9.248 9.248m0 0c0-5.105 4.143-9.248 9.248-9.248 0 5.105-4.144 9.248-9.248 9.248m0-18.496c0 5.105-4.143 9.248-9.248 9.248 0-5.105 4.143-9.248 9.248-9.248m18.496 18.496c0-5.105 4.143-9.248 9.247-9.248 0 5.105-4.143 9.248-9.248 9.248m9.249-9.248c-5.105 0-9.248-4.143-9.248-9.248 5.104 0 9.247 4.143 9.247 9.248"/>
        <path d="M47.834 19.875c-5.105 0-9.248-4.143-9.248-9.248 5.104 0 9.248 4.143 9.248 9.248m0-18.496c0 5.105-4.144 9.248-9.248 9.248 0-5.105 4.143-9.248 9.248-9.248M66.33 19.875c-5.105 0-9.249-4.143-9.249-9.248 5.105 0 9.248 4.143 9.248 9.248m9.248-9.248c-5.105 0-9.248-4.143-9.248-9.248 5.105 0 9.248 4.143 9.248 9.248"/>
        <path d="M75.577 10.627c0 5.105-4.143 9.248-9.248 9.248 0-5.105 4.143-9.248 9.248-9.248M66.33 1.379c0 5.105-4.144 9.248-9.249 9.248 0-5.105 4.143-9.248 9.248-9.248m9.248 9.248c5.105 0 9.248 4.143 9.248 9.248-5.105 0-9.248-4.143-9.248-9.248m18.496 0c-5.105 0-9.248-4.143-9.248-9.248 5.105 0 9.248 4.143 9.248 9.248"/>
        <path d="M84.825 1.379c0 5.105-4.143 9.248-9.248 9.248 0-5.105 4.144-9.248 9.248-9.248m9.248 9.248c0 5.105-4.143 9.248-9.248 9.248 0-5.105 4.143-9.248 9.248-9.248m0 0c5.105 0 9.248 4.143 9.248 9.248-5.105 0-9.248-4.143-9.248-9.248m18.496 0c-5.105 0-9.248-4.143-9.248-9.248 5.105 0 9.248 4.143 9.248 9.248m0 0c0 5.105-4.143 9.248-9.248 9.248 0-5.105 4.143-9.248 9.248-9.248m-9.248-9.248c0 5.105-4.143 9.248-9.248 9.248 0-5.105 4.143-9.248 9.248-9.248m9.248 9.248c5.105 0 9.248 4.143 9.248 9.248-5.105 0-9.248-4.143-9.248-9.248"/>
        <path d="M131.065 10.627c0 5.105-4.143 9.248-9.248 9.248 0-5.105 4.143-9.248 9.248-9.248m-9.248-9.248c0 5.105-4.143 9.248-9.248 9.248 0-5.105 4.143-9.248 9.248-9.248m9.248 9.248c-5.105 0-9.248-4.143-9.248-9.248 5.105 0 9.248 4.143 9.248 9.248m0 0c5.105 0 9.248 4.143 9.248 9.248-5.105 0-9.248-4.143-9.248-9.248m18.496 0c0 5.105-4.143 9.248-9.248 9.248 0-5.105 4.143-9.248 9.248-9.248m-9.248-9.248c0 5.105-4.143 9.248-9.248 9.248 0-5.105 4.143-9.248 9.248-9.248m9.248 9.248c-5.105 0-9.248-4.143-9.248-9.248 5.105 0 9.248 4.143 9.248 9.248m0 0c5.105 0 9.248 4.143 9.248 9.248-5.105 0-9.248-4.143-9.248-9.248m18.496 0c0 5.105-4.143 9.248-9.248 9.248 0-5.105 4.143-9.248 9.248-9.248m-9.248-9.248c0 5.105-4.143 9.248-9.248 9.248 0-5.105 4.143-9.248 9.248-9.248m9.248 9.248c-5.105 0-9.248-4.143-9.248-9.248 5.105 0 9.248 4.143 9.248 9.248m18.496 0c0 5.105-4.143 9.248-9.248 9.248 0-5.105 4.143-9.248 9.248-9.248m0 0c-5.105 0-9.248-4.143-9.248-9.248 5.105 0 9.248 4.143 9.248 9.248m-9.248-9.248c0 5.105-4.143 9.248-9.248 9.248 0-5.105 4.143-9.248 9.248-9.248m-9.248 9.248c5.105 0 9.248 4.143 9.248 9.248-5.105 0-9.248-4.143-9.248-9.248"/>
        <path d="M195.792 1.379c0 5.105-4.144 9.248-9.248 9.248 0-5.105 4.143-9.248 9.248-9.248m9.257 9.248c0 5.105-4.143 9.248-9.248 9.248 0-5.105 4.143-9.248 9.248-9.248m0 0c-5.105 0-9.248-4.143-9.248-9.248 5.105 0 9.248 4.143 9.248 9.248m-18.496 0c5.105 0 9.248 4.143 9.248 9.248-5.105 0-9.248-4.143-9.248-9.248m36.992 0c-5.105 0-9.248-4.143-9.248-9.248 5.105 0 9.248 4.143 9.248 9.248m0 0c0 5.105-4.143 9.248-9.248 9.248 0-5.105 4.143-9.248 9.248-9.248"/>
        <path d="M214.287 1.379c0 5.105-4.143 9.248-9.247 9.248 0-5.105 4.143-9.248 9.247-9.248m-9.238 9.248c5.105 0 9.248 4.143 9.248 9.248-5.105 0-9.248-4.143-9.248-9.248m18.496 0c5.105 0 9.248 4.143 9.248 9.248-5.105 0-9.248-4.143-9.248-9.248m9.238-9.248c0 5.105-4.143 9.248-9.248 9.248 0-5.105 4.143-9.248 9.248-9.248m.01 18.496c0-5.105 4.143-9.248 9.248-9.248 0 5.105-4.144 9.248-9.248 9.248m0-18.496c5.104 0 9.248 4.143 9.248 9.248-5.105 0-9.248-4.143-9.248-9.248m9.248 9.248c5.104 0 9.247 4.143 9.247 9.248-5.104 0-9.247-4.143-9.247-9.248"/>
        <path d="M251.279 1.379c0 5.105-4.143 9.248-9.248 9.248 0-5.105 4.143-9.248 9.248-9.248m-221.932 0c0-5.105 4.143-9.248 9.248-9.248 0 5.105-4.143 9.248-9.248 9.248m-.009 0c-5.105 0-9.248-4.143-9.248-9.248 5.105 0 9.248 4.143 9.248 9.248"/>
        <path d="M47.834 1.379c-5.105 0-9.248-4.143-9.248-9.248 5.104 0 9.248 4.143 9.248 9.248"/>
        <path d="M47.834 1.379c0-5.105 4.143-9.248 9.247-9.248 0 5.105-4.143 9.248-9.248 9.248m18.497 0c0-5.105 4.142-9.248 9.247-9.248 0 5.105-4.143 9.248-9.248 9.248"/>
        <path d="M66.33 1.379c-5.105 0-9.249-4.143-9.249-9.248 5.105 0 9.248 4.143 9.248 9.248m18.496 0c-5.105 0-9.248-4.143-9.248-9.248 5.105 0 9.248 4.143 9.248 9.248m9.248-9.249c0 5.106-4.143 9.249-9.248 9.249 0-5.105 4.143-9.248 9.248-9.248m18.496-.001c0 5.106-4.143 9.249-9.248 9.249 0-5.105 4.143-9.248 9.248-9.248m-18.496.009c5.105 0 9.248 4.143 9.248 9.248-5.105 0-9.248-4.143-9.248-9.248m36.992-.01c0 5.106-4.143 9.249-9.248 9.249 0-5.105 4.143-9.248 9.248-9.248"/>
        <path d="M112.569-7.87c5.105 0 9.248 4.144 9.248 9.249-5.105 0-9.248-4.143-9.248-9.248m18.496-.001c5.105 0 9.248 4.144 9.248 9.249-5.105 0-9.248-4.143-9.248-9.248m18.496-.001c0 5.106-4.143 9.249-9.248 9.249 0-5.105 4.143-9.248 9.248-9.248m0 .009c5.105 0 9.248 4.143 9.248 9.248-5.105 0-9.248-4.143-9.248-9.248m18.496-.01c0 5.106-4.143 9.249-9.248 9.249 0-5.105 4.143-9.248 9.248-9.248m18.496-.001c0 5.106-4.143 9.249-9.248 9.249 0-5.105 4.143-9.248 9.248-9.248m-18.496-.001c5.105 0 9.248 4.144 9.248 9.249-5.105 0-9.248-4.143-9.248-9.248m36.992-.001c0 5.106-4.143 9.249-9.248 9.249 0-5.105 4.143-9.248 9.248-9.248m-18.496-.001c5.105 0 9.248 4.144 9.248 9.249-5.105 0-9.248-4.143-9.248-9.248m27.744 9.248c0-5.105 4.143-9.248 9.248-9.248 0 5.105-4.143 9.248-9.248 9.248m-9.248-9.249c5.105 0 9.248 4.144 9.248 9.249-5.105 0-9.248-4.143-9.248-9.248m18.496-.001c5.105 0 9.248 4.144 9.248 9.249-5.105 0-9.248-4.143-9.248-9.248m9.248 9.248c0-5.105 4.143-9.248 9.248-9.248 0 5.105-4.144 9.248-9.248 9.248m9.248-9.249c5.104 0 9.247 4.144 9.247 9.249-5.104 0-9.247-4.143-9.247-9.248"/>
      </g>
    </g>
    <path stroke="#000" stroke-linecap="round" stroke-linejoin="round" d="M138.907 8.463c33.626 0 65.587 6.603 95.143 19.624l-19.531 50.956c-12.864-4.938-39.868-13.206-76.481-13.206-27.411 0-55.072 4.66-82.335 13.853L36.014 28.577c15.602-6.39 54.711-20.114 102.893-20.114"/>
    <path fill="#EF4B23" d="M138.907 8.463c33.626 0 65.587 6.603 95.143 19.624l-19.531 50.956c-12.864-4.938-39.868-13.206-76.481-13.206-27.411 0-55.072 4.66-82.335 13.853L36.014 28.577c15.602-6.39 54.711-20.114 102.893-20.114"/>
    <path fill="#C71E11" d="m11.461 20.207-.49-1.489s2.312-3.625 8.221-2.543l.898 1.591z"/>
    <path fill="#EF4B23" d="m20.95 17.026 29.64 74.465-16.268 4.522-24.313-75.38s2.442-3.81 10.94-3.607"/>
    <mask id="c" width="41" height="80" x="10" y="17" maskUnits="userSpaceOnUse" style="mask-type:luminance">
      <path fill="#fff" d="m20.95 17.026 29.64 74.465-16.268 4.522-24.313-75.38s2.442-3.81 10.94-3.607"/>
    </mask>
    <g fill="#F56D27" mask="url(#c)">
      <path d="M41.758 19.301a7.085 7.085 0 0 0 7.084-7.084 7.075 7.075 0 0 0-7.075 7.075z"/>
      <path d="M48.841 12.217a7.085 7.085 0 0 0 7.084 7.084 7.075 7.075 0 0 0-7.074-7.074zm.001 14.159a7.075 7.075 0 0 0 7.074-7.075 7.085 7.085 0 0 0-7.084 7.084z"/>
      <path d="M48.842 26.376a7.084 7.084 0 0 0-7.084-7.084 7.075 7.075 0 0 0 7.074 7.075zm0 14.158a7.085 7.085 0 0 0-7.084-7.084 7.075 7.075 0 0 0 7.074 7.075z"/>
      <path d="M41.758 33.46a7.085 7.085 0 0 0 7.084-7.084 7.075 7.075 0 0 0-7.075 7.074z"/>
      <path d="M48.841 26.376a7.085 7.085 0 0 0 7.084 7.084 7.075 7.075 0 0 0-7.074-7.075zm.001 14.159a7.075 7.075 0 0 0 7.074-7.075 7.084 7.084 0 0 0-7.084 7.084z"/>
      <path d="M41.758 47.618a7.085 7.085 0 0 0 7.084-7.084 7.075 7.075 0 0 0-7.075 7.075z"/>
      <path d="M48.842 54.693a7.085 7.085 0 0 0-7.084-7.084 7.075 7.075 0 0 0 7.074 7.075z"/>
      <path d="M48.842 54.693a7.075 7.075 0 0 0 7.074-7.075 7.085 7.085 0 0 0-7.084 7.084zm-.001-14.159a7.085 7.085 0 0 0 7.084 7.084 7.075 7.075 0 0 0-7.074-7.074zm.001 28.318a7.084 7.084 0 0 0-7.084-7.084 7.075 7.075 0 0 0 7.074 7.074z"/>
      <path d="M48.842 68.852a7.075 7.075 0 0 0 7.074-7.075 7.084 7.084 0 0 0-7.084 7.084zm-7.084-7.075a7.085 7.085 0 0 0 7.084-7.084 7.075 7.075 0 0 0-7.075 7.075z"/>
      <path d="M48.841 54.693a7.085 7.085 0 0 0 7.084 7.084 7.075 7.075 0 0 0-7.074-7.075zm0 14.159a7.085 7.085 0 0 0 7.084 7.084 7.075 7.075 0 0 0-7.074-7.075z"/>
      <path d="M41.758 75.936a7.084 7.084 0 0 0 7.084-7.084 7.075 7.075 0 0 0-7.075 7.074z"/>
      <path d="M48.842 83.02a7.085 7.085 0 0 0-7.084-7.084 7.075 7.075 0 0 0 7.074 7.074z"/>
      <path d="M48.842 83.02a7.075 7.075 0 0 0 7.074-7.075 7.084 7.084 0 0 0-7.084 7.084zm0 14.158a7.085 7.085 0 0 0-7.084-7.084 7.075 7.075 0 0 0 7.074 7.075z"/>
      <path d="M41.758 90.094a7.085 7.085 0 0 0 7.084-7.084 7.075 7.075 0 0 0-7.075 7.075z"/>
      <path d="M48.841 83.02a7.085 7.085 0 0 0 7.084 7.084 7.075 7.075 0 0 0-7.074-7.075zm.001 14.158a7.075 7.075 0 0 0 7.074-7.074 7.085 7.085 0 0 0-7.084 7.083zM27.599 19.301a7.085 7.085 0 0 0 7.084-7.084 7.075 7.075 0 0 0-7.075 7.075zm7.084 7.075a7.075 7.075 0 0 0 7.075-7.075 7.085 7.085 0 0 0-7.084 7.084zm0-14.159a7.085 7.085 0 0 0 7.084 7.084 7.075 7.075 0 0 0-7.075-7.074z"/>
      <path d="M34.683 26.376a7.084 7.084 0 0 0-7.084-7.084 7.075 7.075 0 0 0 7.075 7.075zm-7.084 7.084a7.085 7.085 0 0 0 7.084-7.084 7.075 7.075 0 0 0-7.075 7.074zm7.084 7.075a7.075 7.075 0 0 0 7.075-7.075 7.084 7.084 0 0 0-7.084 7.084zm0-14.159a7.085 7.085 0 0 0 7.084 7.084 7.075 7.075 0 0 0-7.075-7.075z"/>
      <path d="M34.683 40.534a7.085 7.085 0 0 0-7.084-7.084 7.075 7.075 0 0 0 7.075 7.075zm0 14.159a7.085 7.085 0 0 0-7.084-7.084 7.075 7.075 0 0 0 7.075 7.075z"/>
      <path d="M34.683 54.693a7.075 7.075 0 0 0 7.075-7.075 7.085 7.085 0 0 0-7.084 7.084zm0-14.159a7.085 7.085 0 0 0 7.084 7.084 7.075 7.075 0 0 0-7.075-7.074zm-7.084 7.084a7.085 7.085 0 0 0 7.084-7.084 7.075 7.075 0 0 0-7.075 7.075z"/>
      <path d="M27.599 61.777a7.085 7.085 0 0 0 7.084-7.084 7.075 7.075 0 0 0-7.075 7.075zm7.084-7.084a7.085 7.085 0 0 0 7.084 7.084 7.075 7.075 0 0 0-7.075-7.075z"/>
      <path d="M34.683 68.852a7.084 7.084 0 0 0-7.084-7.084 7.075 7.075 0 0 0 7.075 7.074z"/>
      <path d="M34.683 68.852a7.075 7.075 0 0 0 7.075-7.075 7.084 7.084 0 0 0-7.084 7.084zm0 14.168a7.085 7.085 0 0 0-7.084-7.084 7.075 7.075 0 0 0 7.075 7.074z"/>
      <path d="M27.599 75.936a7.084 7.084 0 0 0 7.084-7.084 7.075 7.075 0 0 0-7.075 7.074zm7.084 7.084a7.075 7.075 0 0 0 7.075-7.075 7.084 7.084 0 0 0-7.084 7.084zm0-14.168a7.084 7.084 0 0 0 7.084 7.084 7.075 7.075 0 0 0-7.075-7.075zm0 28.326a7.075 7.075 0 0 0 7.075-7.074 7.085 7.085 0 0 0-7.084 7.083z"/>
      <path d="M34.683 97.178a7.085 7.085 0 0 0-7.084-7.084 7.075 7.075 0 0 0 7.075 7.075zm0-14.158a7.084 7.084 0 0 0 7.084 7.084 7.075 7.075 0 0 0-7.075-7.075zm-7.084 7.074a7.085 7.085 0 0 0 7.084-7.084 7.075 7.075 0 0 0-7.075 7.075zm-7.075-63.718a7.084 7.084 0 0 0-7.084-7.084 7.075 7.075 0 0 0 7.075 7.075z"/>
      <path d="M13.44 19.301a7.085 7.085 0 0 0 7.084-7.084 7.075 7.075 0 0 0-7.074 7.075zm7.084 7.075A7.075 7.075 0 0 0 27.6 19.3a7.085 7.085 0 0 0-7.084 7.084z"/>
      <path d="M20.524 12.217a7.085 7.085 0 0 0 7.084 7.084 7.075 7.075 0 0 0-7.074-7.074zm0 28.318A7.075 7.075 0 0 0 27.6 33.46a7.085 7.085 0 0 0-7.084 7.084zm0-14.159a7.085 7.085 0 0 0 7.084 7.084 7.075 7.075 0 0 0-7.074-7.075z"/>
      <path d="M20.524 40.534a7.085 7.085 0 0 0-7.084-7.084 7.075 7.075 0 0 0 7.075 7.075z"/>
      <path d="M13.44 33.46a7.085 7.085 0 0 0 7.084-7.084 7.075 7.075 0 0 0-7.074 7.074zm0 14.158a7.085 7.085 0 0 0 7.084-7.084 7.075 7.075 0 0 0-7.074 7.075z"/>
      <path d="M20.515 54.693a7.085 7.085 0 0 0-7.084-7.084 7.075 7.075 0 0 0 7.075 7.075zm.009 0a7.075 7.075 0 0 0 7.075-7.075 7.085 7.085 0 0 0-7.084 7.084zm0-14.159a7.085 7.085 0 0 0 7.084 7.084 7.075 7.075 0 0 0-7.074-7.074zm0 28.318a7.075 7.075 0 0 0 7.075-7.075 7.085 7.085 0 0 0-7.084 7.084z"/>
      <path d="M20.524 54.693a7.085 7.085 0 0 0 7.084 7.084 7.075 7.075 0 0 0-7.074-7.075zm-7.084 7.084a7.085 7.085 0 0 0 7.084-7.084 7.075 7.075 0 0 0-7.074 7.075z"/>
      <path d="M20.524 68.852a7.084 7.084 0 0 0-7.084-7.084 7.075 7.075 0 0 0 7.075 7.074zm0 14.168a7.085 7.085 0 0 0-7.084-7.084 7.075 7.075 0 0 0 7.075 7.074z"/>
      <path d="M13.44 75.936a7.084 7.084 0 0 0 7.084-7.084 7.075 7.075 0 0 0-7.074 7.074zm7.084-7.084a7.084 7.084 0 0 0 7.084 7.084 7.075 7.075 0 0 0-7.074-7.075zm0 14.168a7.075 7.075 0 0 0 7.075-7.075 7.085 7.085 0 0 0-7.084 7.084zm0 14.158a7.085 7.085 0 0 0-7.084-7.084 7.075 7.075 0 0 0 7.075 7.075z"/>
      <path d="M13.44 90.094a7.085 7.085 0 0 0 7.084-7.084 7.075 7.075 0 0 0-7.074 7.075zm7.084 7.084a7.075 7.075 0 0 0 7.075-7.074 7.085 7.085 0 0 0-7.084 7.083zm0-14.158a7.084 7.084 0 0 0 7.084 7.084 7.075 7.075 0 0 0-7.074-7.075zM6.366 12.217a7.085 7.085 0 0 0 7.084 7.084 7.075 7.075 0 0 0-7.075-7.074z"/>
      <path d="M6.366 26.376A7.075 7.075 0 0 0 13.44 19.3a7.085 7.085 0 0 0-7.084 7.084zm0 14.159a7.075 7.075 0 0 0 7.074-7.075 7.084 7.084 0 0 0-7.084 7.084z"/>
      <path d="M6.366 26.376a7.085 7.085 0 0 0 7.084 7.084 7.075 7.075 0 0 0-7.075-7.075zm0 28.317a7.075 7.075 0 0 0 7.074-7.075 7.085 7.085 0 0 0-7.084 7.084zm0-14.159a7.085 7.085 0 0 0 7.084 7.084 7.075 7.075 0 0 0-7.075-7.074zm0 28.318a7.075 7.075 0 0 0 7.074-7.075 7.084 7.084 0 0 0-7.084 7.084z"/>
      <path d="M6.366 54.693a7.085 7.085 0 0 0 7.084 7.084 7.075 7.075 0 0 0-7.075-7.075zm0 28.327a7.075 7.075 0 0 0 7.074-7.075 7.084 7.084 0 0 0-7.084 7.084zm0-14.168a7.084 7.084 0 0 0 7.084 7.084 7.075 7.075 0 0 0-7.075-7.075zm0 28.326a7.075 7.075 0 0 0 7.074-7.074 7.085 7.085 0 0 0-7.084 7.083z"/>
      <path d="M6.366 83.02a7.084 7.084 0 0 0 7.084 7.084 7.075 7.075 0 0 0-7.075-7.075z"/>
    </g>
    <path fill="#C71E11" d="M43.53 97.633c4.494-1.242 7.657-3.989 7.064-6.135s-4.717-2.88-9.212-1.639c-4.495 1.242-7.658 3.988-7.065 6.135s4.717 2.88 9.212 1.638"/>
    <path fill="#FFF400" d="M41.684 92.064s-6.187 1.998-4.819 5.188c1.175 1.767 5.031 2.534 7.584 1.563s4.744-2.931 4.624-5.567c-.12-1.628-3.154-2.738-7.39-1.184"/>
    <path fill="#C71E11" d="m258.53 20.207.49-1.489s-2.312-3.625-8.222-2.543l-.897 1.591z"/>
    <path fill="#EF4B23" d="m249.041 17.026-29.64 74.465 16.268 4.522 24.312-75.38s-2.441-3.81-10.94-3.607"/>
    <mask id="d" width="41" height="80" x="219" y="17" maskUnits="userSpaceOnUse" style="mask-type:luminance">
      <path fill="#fff" d="m249.041 17.026-29.64 74.465 16.268 4.522 24.312-75.38s-2.441-3.81-10.94-3.607"/>
    </mask>
    <g fill="#F56D27" mask="url(#d)">
      <path d="M228.233 19.301a7.085 7.085 0 0 1-7.084-7.084 7.075 7.075 0 0 1 7.075 7.075zm-7.084-7.084a7.085 7.085 0 0 1-7.084 7.084 7.075 7.075 0 0 1 7.075-7.074zm.01 14.159a7.075 7.075 0 0 1-7.075-7.075 7.085 7.085 0 0 1 7.084 7.084z"/>
      <path d="M221.159 26.376a7.084 7.084 0 0 1 7.084-7.084 7.075 7.075 0 0 1-7.075 7.075zm0 14.158a7.085 7.085 0 0 1 7.084-7.084 7.075 7.075 0 0 1-7.075 7.075z"/>
      <path d="M228.233 33.46a7.085 7.085 0 0 1-7.084-7.084 7.075 7.075 0 0 1 7.075 7.074zm-7.084-7.084a7.085 7.085 0 0 1-7.084 7.084 7.075 7.075 0 0 1 7.075-7.075zm.01 14.159a7.075 7.075 0 0 1-7.075-7.075 7.084 7.084 0 0 1 7.084 7.084z"/>
      <path d="M228.233 47.618a7.085 7.085 0 0 1-7.084-7.084 7.075 7.075 0 0 1 7.075 7.075z"/>
      <path d="M221.159 54.693a7.085 7.085 0 0 1 7.084-7.084 7.075 7.075 0 0 1-7.075 7.075z"/>
      <path d="M221.159 54.693a7.075 7.075 0 0 1-7.075-7.075 7.085 7.085 0 0 1 7.084 7.084zm-.01-14.159a7.085 7.085 0 0 1-7.084 7.084 7.075 7.075 0 0 1 7.075-7.074zm.01 28.318a7.084 7.084 0 0 1 7.084-7.084 7.075 7.075 0 0 1-7.075 7.074z"/>
      <path d="M221.159 68.852a7.075 7.075 0 0 1-7.075-7.075 7.084 7.084 0 0 1 7.084 7.084zm7.074-7.075a7.085 7.085 0 0 1-7.084-7.084 7.075 7.075 0 0 1 7.075 7.075zm-7.084-7.084a7.085 7.085 0 0 1-7.084 7.084 7.075 7.075 0 0 1 7.075-7.075z"/>
      <path d="M221.149 68.852a7.084 7.084 0 0 1-7.084 7.084 7.075 7.075 0 0 1 7.075-7.075zm7.084 7.084a7.084 7.084 0 0 1-7.084-7.084 7.075 7.075 0 0 1 7.075 7.074zm-7.074 7.084a7.085 7.085 0 0 1 7.084-7.084 7.075 7.075 0 0 1-7.075 7.074z"/>
      <path d="M221.159 83.02a7.075 7.075 0 0 1-7.075-7.075 7.084 7.084 0 0 1 7.084 7.084zm0 14.158a7.085 7.085 0 0 1 7.084-7.084 7.075 7.075 0 0 1-7.075 7.075z"/>
      <path d="M228.233 90.094a7.085 7.085 0 0 1-7.084-7.084 7.075 7.075 0 0 1 7.075 7.075zm-7.084-7.074a7.084 7.084 0 0 1-7.084 7.084 7.075 7.075 0 0 1 7.075-7.075zm.01 14.158a7.075 7.075 0 0 1-7.075-7.074 7.085 7.085 0 0 1 7.084 7.083zm21.233-77.877a7.085 7.085 0 0 1-7.084-7.084 7.075 7.075 0 0 1 7.075 7.075zm-7.075 7.075a7.075 7.075 0 0 1-7.075-7.075 7.085 7.085 0 0 1 7.084 7.084zm-.009-14.159a7.085 7.085 0 0 1-7.084 7.084 7.075 7.075 0 0 1 7.075-7.074z"/>
      <path d="M235.317 26.376a7.084 7.084 0 0 1 7.084-7.084 7.075 7.075 0 0 1-7.075 7.075zm7.075 7.084a7.085 7.085 0 0 1-7.084-7.084 7.075 7.075 0 0 1 7.075 7.074zm-7.075 7.075a7.075 7.075 0 0 1-7.075-7.075 7.084 7.084 0 0 1 7.084 7.084z"/>
      <path d="M235.317 26.376a7.085 7.085 0 0 1-7.084 7.084 7.075 7.075 0 0 1 7.075-7.075zm0 14.158a7.085 7.085 0 0 1 7.084-7.084 7.075 7.075 0 0 1-7.075 7.075zm0 14.159a7.085 7.085 0 0 1 7.084-7.084 7.075 7.075 0 0 1-7.075 7.075z"/>
      <path d="M235.317 54.693a7.075 7.075 0 0 1-7.075-7.075 7.085 7.085 0 0 1 7.084 7.084zm-.009-14.159a7.085 7.085 0 0 1-7.084 7.084 7.075 7.075 0 0 1 7.075-7.074zm7.084 7.084a7.085 7.085 0 0 1-7.084-7.084 7.075 7.075 0 0 1 7.075 7.075z"/>
      <path d="M242.392 61.777a7.085 7.085 0 0 1-7.084-7.084 7.075 7.075 0 0 1 7.075 7.075zm-7.084-7.084a7.085 7.085 0 0 1-7.084 7.084 7.075 7.075 0 0 1 7.075-7.075z"/>
      <path d="M235.317 68.852a7.084 7.084 0 0 1 7.084-7.084 7.075 7.075 0 0 1-7.075 7.074z"/>
      <path d="M235.317 68.852a7.075 7.075 0 0 1-7.075-7.075 7.084 7.084 0 0 1 7.084 7.084zm0 14.168a7.085 7.085 0 0 1 7.084-7.084 7.075 7.075 0 0 1-7.075 7.074z"/>
      <path d="M242.392 75.936a7.084 7.084 0 0 1-7.084-7.084 7.075 7.075 0 0 1 7.075 7.074zm-7.075 7.084a7.075 7.075 0 0 1-7.075-7.075 7.084 7.084 0 0 1 7.084 7.084z"/>
      <path d="M235.317 68.852a7.084 7.084 0 0 1-7.084 7.084 7.075 7.075 0 0 1 7.075-7.075zm0 28.326a7.075 7.075 0 0 1-7.075-7.074 7.085 7.085 0 0 1 7.084 7.083z"/>
      <path d="M235.317 97.178a7.085 7.085 0 0 1 7.084-7.084 7.075 7.075 0 0 1-7.075 7.075zm0-14.158a7.084 7.084 0 0 1-7.084 7.084 7.075 7.075 0 0 1 7.075-7.075z"/>
      <path d="M242.392 90.094a7.085 7.085 0 0 1-7.084-7.084 7.075 7.075 0 0 1 7.075 7.075zm7.084-63.718a7.084 7.084 0 0 1 7.084-7.084 7.075 7.075 0 0 1-7.075 7.075z"/>
      <path d="M256.55 19.301a7.084 7.084 0 0 1-7.083-7.084 7.075 7.075 0 0 1 7.074 7.075zm-7.074 7.075a7.075 7.075 0 0 1-7.075-7.075 7.085 7.085 0 0 1 7.084 7.084z"/>
      <path d="M249.467 12.217a7.085 7.085 0 0 1-7.084 7.084 7.074 7.074 0 0 1 7.074-7.074zm.009 28.318a7.075 7.075 0 0 1-7.075-7.075 7.084 7.084 0 0 1 7.084 7.084zm0-14.159a7.085 7.085 0 0 1-7.084 7.084 7.075 7.075 0 0 1 7.075-7.075z"/>
      <path d="M249.476 40.534a7.085 7.085 0 0 1 7.084-7.084 7.075 7.075 0 0 1-7.075 7.075z"/>
      <path d="M256.55 33.46a7.084 7.084 0 0 1-7.083-7.084 7.075 7.075 0 0 1 7.074 7.074zm0 14.158a7.084 7.084 0 0 1-7.083-7.084 7.075 7.075 0 0 1 7.074 7.075z"/>
      <path d="M249.476 54.693a7.085 7.085 0 0 1 7.084-7.084 7.075 7.075 0 0 1-7.075 7.075z"/>
      <path d="M249.476 54.693a7.075 7.075 0 0 1-7.075-7.075 7.085 7.085 0 0 1 7.084 7.084zm0-14.159a7.085 7.085 0 0 1-7.084 7.084 7.075 7.075 0 0 1 7.075-7.074zm0 28.318a7.075 7.075 0 0 1-7.075-7.075 7.084 7.084 0 0 1 7.084 7.084z"/>
      <path d="M249.467 54.693a7.085 7.085 0 0 1-7.084 7.084 7.074 7.074 0 0 1 7.074-7.075zm7.083 7.084a7.084 7.084 0 0 1-7.083-7.084 7.075 7.075 0 0 1 7.074 7.075z"/>
      <path d="M249.476 68.852a7.084 7.084 0 0 1 7.084-7.084 7.075 7.075 0 0 1-7.075 7.074zm0 14.168a7.085 7.085 0 0 1 7.084-7.084 7.075 7.075 0 0 1-7.075 7.074zm7.074-7.084a7.084 7.084 0 0 1-7.083-7.084 7.075 7.075 0 0 1 7.074 7.074z"/>
      <path d="M249.476 68.852a7.084 7.084 0 0 1-7.084 7.084 7.075 7.075 0 0 1 7.075-7.075zm0 14.168a7.075 7.075 0 0 1-7.075-7.075 7.084 7.084 0 0 1 7.084 7.084zm0 14.158a7.085 7.085 0 0 1 7.084-7.084 7.075 7.075 0 0 1-7.075 7.075z"/>
      <path d="M256.55 90.094a7.084 7.084 0 0 1-7.083-7.084 7.075 7.075 0 0 1 7.074 7.075zm-7.074 7.084a7.075 7.075 0 0 1-7.075-7.074 7.085 7.085 0 0 1 7.084 7.083z"/>
      <path d="M249.476 83.02a7.084 7.084 0 0 1-7.084 7.084 7.075 7.075 0 0 1 7.075-7.075zm14.158-70.803a7.084 7.084 0 0 1-7.083 7.084 7.074 7.074 0 0 1 7.074-7.074zm0 14.159a7.074 7.074 0 0 1-7.074-7.075 7.085 7.085 0 0 1 7.084 7.084zm0 14.159a7.074 7.074 0 0 1-7.074-7.075 7.084 7.084 0 0 1 7.084 7.084z"/>
      <path d="M263.634 26.376a7.084 7.084 0 0 1-7.083 7.084 7.074 7.074 0 0 1 7.074-7.075zm0 28.317a7.074 7.074 0 0 1-7.074-7.075 7.085 7.085 0 0 1 7.084 7.084zm0-14.159a7.084 7.084 0 0 1-7.083 7.084 7.074 7.074 0 0 1 7.074-7.074zm0 28.318a7.074 7.074 0 0 1-7.074-7.075 7.084 7.084 0 0 1 7.084 7.084z"/>
      <path d="M263.634 54.693a7.084 7.084 0 0 1-7.083 7.084 7.074 7.074 0 0 1 7.074-7.075zm0 28.327a7.074 7.074 0 0 1-7.074-7.075 7.084 7.084 0 0 1 7.084 7.084zm0-14.168a7.084 7.084 0 0 1-7.083 7.084 7.074 7.074 0 0 1 7.074-7.075zm0 28.326a7.074 7.074 0 0 1-7.074-7.074 7.085 7.085 0 0 1 7.084 7.083z"/>
      <path d="M263.634 83.02a7.084 7.084 0 0 1-7.083 7.084 7.074 7.074 0 0 1 7.074-7.075z"/>
    </g>
    <path fill="#C71E11" d="M235.679 95.993c.593-2.147-2.57-4.893-7.065-6.135s-8.619-.508-9.212 1.639 2.57 4.893 7.065 6.135c4.495 1.24 8.619.507 9.212-1.64"/>
    <path fill="#FFF400" d="M228.307 92.064s6.187 1.998 4.818 5.188c-1.174 1.767-5.03 2.534-7.583 1.563s-4.744-2.931-4.624-5.567c.12-1.628 3.154-2.738 7.389-1.184"/>
    <path stroke="#000" stroke-linecap="round" stroke-linejoin="round" d="M139.074-.36c-58.521 0-104.095 17.747-115.96 22.824l26.754 67.251c32.96-11.282 62.905-15.065 88.29-15.065 43.207 0 73.179 10.977 82.094 14.686l26.607-66.872.129-.314C209.367 5.308 172.172-.36 139.074-.36"/>
    <path stroke="#000" stroke-linecap="round" stroke-linejoin="round" d="M138.907 8.463c33.626 0 65.587 6.603 95.143 19.624l-19.531 50.956c-12.864-4.938-39.868-13.206-76.481-13.206-27.411 0-55.072 4.66-82.335 13.853L36.014 28.577c15.602-6.39 54.711-20.114 102.893-20.114M19.683 17.026c-4.541.111-7.13 1.424-8.471 2.432l-.24-.74s2.32-3.615 8.23-2.533c.203.351.37.629.48.841"/>
    <path stroke="#000" stroke-linecap="round" stroke-linejoin="round" d="M50.423 91.102c-.24-.453-.657-.832-1.22-1.137-.704-.37-1.656-.592-2.748-.666-1.488-.111-3.255.065-5.067.564-4.458 1.22-7.611 3.949-7.084 6.076L10 20.642s.342-.527 1.211-1.184c1.332-1.008 3.93-2.32 8.472-2.432q.61-.015 1.276 0l2.164 5.447 26.754 67.251z"/>
    <path stroke="#000" stroke-linecap="round" stroke-linejoin="round" d="M48.767 95.07a4.4 4.4 0 0 0 .306-1.813c-.028-.425-.269-.823-.685-1.147-1.119-.878-3.588-1.183-6.704-.037 0 0-3.709 1.193-4.735 3.219h-.01c-.305.591-.379 1.248-.064 1.979.212.314.517.6.878.86-1.812-.25-3.116-.98-3.43-2.109l-.01-.028s-.01-.037-.01-.046c-.526-2.127 2.618-4.855 7.085-6.076 1.812-.508 3.579-.684 5.067-.564 1.101.074 2.044.305 2.747.666.564.305.98.684 1.22 1.138l.167.406c.315 1.12-.416 2.405-1.812 3.57z"/>
    <path stroke="#000" stroke-linecap="round" stroke-linejoin="round" d="M49.073 93.257a4.2 4.2 0 0 1-.306 1.813h-.009c-.666 1.73-2.386 3.024-4.3 3.754-2.09.796-5.04.426-6.696-.703h-.009a3.3 3.3 0 0 1-.878-.86 2.21 2.21 0 0 1 .064-1.979h.01c1.035-2.016 4.735-3.218 4.735-3.218 3.116-1.147 5.585-.841 6.704.037.416.324.657.721.685 1.147zM259.02 18.719l-.241.74c-1.331-1.009-3.93-2.322-8.471-2.433.111-.212.278-.49.481-.841 5.909-1.082 8.231 2.534 8.231 2.534"/>
    <path stroke="#000" stroke-linecap="round" stroke-linejoin="round" d="M235.687 95.939c.527-2.127-2.617-4.855-7.084-6.076-1.812-.509-3.579-.684-5.068-.564-.878.065-1.655.213-2.293.48h-.01a2 2 0 0 0-.443.186c-.565.305-.981.684-1.221 1.137l.545-1.378.148-.379 26.607-66.872.129-.314 2.044-5.133q.666-.015 1.276 0c4.541.111 7.131 1.424 8.471 2.432.87.657 1.212 1.184 1.212 1.184L235.696 95.94z"/>
    <path stroke="#000" stroke-linecap="round" stroke-linejoin="round" d="M235.687 95.939s-.009.037-.009.046 0 .01-.009.028c-.315 1.119-1.61 1.85-3.431 2.108.37-.25.665-.545.878-.86.315-.73.241-1.387-.065-1.979h-.009c-1.036-2.016-4.735-3.218-4.735-3.218-3.116-1.147-5.586-.841-6.705.037-.416.324-.656.721-.684 1.147a4.2 4.2 0 0 0 .305 1.812c-1.396-1.156-2.127-2.441-1.812-3.57l.166-.406c.241-.453.657-.833 1.221-1.138.139-.074.277-.138.444-.185h.009c.647-.268 1.415-.416 2.294-.48 1.488-.112 3.255.064 5.067.563 4.458 1.221 7.611 3.95 7.084 6.077z"/>
    <path stroke="#000" stroke-linecap="round" stroke-linejoin="round" d="M233.116 97.261c-.213.315-.518.602-.878.86h-.01c-1.655 1.138-4.596 1.499-6.695.703-1.915-.73-3.635-2.025-4.301-3.754h-.009c-.231-.564-.323-1.175-.305-1.813.028-.425.268-.823.684-1.147 1.119-.878 3.589-1.183 6.705-.037 0 0 3.709 1.193 4.735 3.219h.009c.306.591.38 1.248.065 1.979z"/>
    <path fill="#C12202" d="m54.125 46.02-.189-1.375-3.404-12.215c-1.877.476-3.728 1.329-3.063 3.691.395 1.42 1.886 2.596 3.844 2.057l.063.225c.288 1.033-.098 1.913-1.15 2.21-2.317.646-4.526-1.285-5.12-3.423-.861-3.108 1.043-5.91 4.052-6.754l3.781-1.051c2.587-.719 3.71-1.473 3.162-3.432l.224-.062c1.033-.288 1.914.099 2.21 1.15.647 2.317-1.536 3.628-4.976 4.59l-.764.215 3.396 12.17.548 1.276-2.605.728z"/>
    <path fill="#C12202" d="m59.263 44.61-.153-1.384-1.967-7.985c-.126-.52-.216-.88-.512-1.293l2.173-1.734.638 2.587c.315-1.473 1.033-2.758 2.57-3.135 1.176-.287 2.541.144 3.718 1.518l-1.599 2.003c-.782-1.203-1.473-1.59-2.084-1.437-1.203.296-1.653 3.17-1.608 5.11l.934 3.81.512 1.293-2.631.646zm15.117-4.375a4.9 4.9 0 0 1-2.722 1.662c-2.443.53-3.997-1.024-4.41-2.92-.432-2.011.53-4.418 3.224-4.993a4.6 4.6 0 0 1 2.605.224c-.422-1.724-1.644-2.3-2.74-2.057-.799.17-1.527.809-1.77 1.886l-2.1-1.005c.745-1.878 2.1-2.893 3.556-3.207 2.237-.485 4.653.736 5.165 3.117l1.356 6.26.476 1.312-2.47.53-.17-.8zm-.728-3.35c-.557-.692-1.689-1.069-2.515-.89-1.168.252-1.617 1.357-1.41 2.336.242 1.123 1.15 1.662 2.263 1.42.8-.171 1.59-.827 1.877-1.842l-.224-1.024zm3.135-2.111c-.557-3.054.628-6.476 4.329-7.15 3.629-.655 6.01 1.994 6.557 4.985.539 2.991-.755 6.306-4.383 6.97-3.566.647-5.965-1.886-6.494-4.805zm2.488-.674c.332 1.842 1.634 3.521 3.593 3.171 1.949-.35 2.604-2.371 2.272-4.213-.332-1.84-1.68-3.494-3.61-3.143-1.932.35-2.588 2.344-2.255 4.185m18.332 1.105a.9.9 0 0 0-.323.818c.314 2.452 9.153.18 9.916 6.18.423 3.359-2.263 5.532-5.11 5.892-2.776.35-5.722-.926-6.171-4.465-.198-1.571.26-3.494 1.58-4.437-1.23-.413-2.182-1.087-2.362-2.479-.108-.835.126-1.805.584-2.47-3.126-2.569-2.39-8.64 3.036-9.323a7 7 0 0 1 1.886.018c.575-.117 1.033-.746 1.312-2.075l2.209 1.293c-.278.79-.673 1.383-1.113 1.832 3.152 2.57 2.551 8.641-2.982 9.342-.926.117-1.734.054-2.462-.135zm2.165-2.182c3.961-.504 3.207-6.288-.736-5.794-3.935.503-3.18 6.288.736 5.794m.027 6.655c-.97.88-1.518 2.12-1.356 3.396.27 2.128 1.895 2.892 3.449 2.694s3-1.419 2.766-3.242c-.269-2.156-2.568-2.47-4.859-2.848m13.015-4.284.063-1.392-.036-.44c-.548 1.194-1.437 2.191-2.883 2.326-1.976.18-3.593-1.294-3.889-4.59l-.405-4.42c-.044-.53-.08-.907-.314-1.356l2.407-1.392.647 7.051c.162 1.788.97 2.704 1.859 2.623 1.348-.126 1.851-2.3 2.219-4.168l-.305-3.35c-.045-.54-.081-.907-.315-1.356l1.608-.917c.467-.323.799-.727.79-1.15-.009-.395-.197-.87-1.086-1.077l1.212-1.375c1.329.44 1.662 1.276 1.707 2.021.036.962-.898 2.004-1.707 2.408l.818 8.955.314 1.356-2.695.243zm-3.709-12.557c-.135-1.51 1.221-1.752 1.14-2.614-.036-.395-.386-.665-.781-.629-.35.036-.701.252-.871.71l-1.213-.97a2.57 2.57 0 0 1 2.057-1.357c1.159-.107 2.371.53 2.497 1.95.135 1.49-1.59 1.859-1.554 2.793z"/>
    <path fill="#C12202" d="M116.739 18.462c.836-.053 1.438.468 1.491 1.303.063.862-.458 1.464-1.302 1.518-.835.054-1.437-.458-1.5-1.32-.054-.836.467-1.438 1.302-1.492zm-.206 16.644.09-1.383c-.369-5.29-.216-3.144-.584-8.434-.036-.54-.063-.907-.279-1.365l2.435-1.339.754 10.976.278 1.366-2.703.188zm8.632-12.233 2.937-.081c-.153.233-.09.862.108 1.374l2.416 6.548 2.066-6.665c.152-.52.206-1.15.036-1.383l2.658-.072-3.601 11.776c-.818 2.659-1.312 6.108-4.572 6.198-1.402.035-2.596-.962-3.638-2.444l1.985-1.616c.548 1.248 1.141 1.742 1.706 1.733 1.213-.036 1.653-1.913 2.237-3.8l-4.329-11.56zm13.697 7.957c.557.8 1.42 1.366 2.587 1.375 1.024 0 1.824-.458 2.372-1.5l1.787 1.51c-1.015 1.535-2.515 2.343-4.311 2.325-3.827-.026-5.722-3.215-5.704-6.323.018-2.964 1.859-5.847 5.506-5.83 2.362.019 4.617 1.546 4.599 4.231 0 .98-.548 1.869-2.515 2.596l-4.312 1.608zm2.911-9.367-.62-1.752-.665 1.752-2.497-.018 2.569-3.279h1.195l2.524 3.314-2.497-.018zm-.18 6.116c1.662-.575 1.527-.97 1.527-1.23 0-1.051-.853-1.644-1.877-1.644-2.03-.009-3.072 1.779-3.081 3.62 0 .143 0 .278.018.422zm11.327 7.051.242-1.365.018-.44c-.701 1.114-1.716 1.985-3.162 1.931-1.985-.08-3.386-1.751-3.251-5.066l.179-4.437c.018-.539.036-.907-.134-1.383l2.569-1.06-.288 7.069c-.072 1.796.611 2.802 1.5 2.847 1.356.054 2.138-2.039 2.758-3.835l.134-3.36c.027-.538.036-.907-.125-1.383l2.569-1.06-.423 10.294.135 1.383-2.703-.108zm10.131-11.084c1.33.126 1.411-.053 1.491-.916l.063-.655c.063-.647.126-1.33-.018-1.806l2.623-.934-.431 4.653 3.485.323-.198 2.093-3.485-.323-.485 5.236c-.116 1.303.081 2.38.881 2.452.79.072 1.221-.826 1.607-1.374l1.653 1.653c-1.069 1.383-2.156 2.03-3.512 1.904-1.554-.144-3.269-1.455-3-4.356l.431-4.671c.081-.862.027-1.051-1.302-1.177l.197-2.093z"/>
    <path fill="#C12202" d="m177.315 36.804.359-1.347.71-5.65c.224-1.788-.377-2.847-1.258-2.955-1.347-.17-2.308 1.85-3.063 3.593l-.565 4.5.018 1.392-2.686-.341.359-1.348 1.626-12.979a23 23 0 0 1 .539-2.83c-5.309-2.927-11.291-7.23-15.503-7.76-2.111-.26-4.644.593-4.94 2.955-.171 1.393.619 2.785 2.326 3 1.464.18 3.126-.736 3.386-2.757l.234.027c1.069.134 1.733.826 1.598 1.922-.296 2.39-2.937 3.683-5.137 3.404-3.126-.395-5.075-2.874-4.689-6 .35-2.83 3.009-5.434 7.186-4.913 4.868.61 11.209 5.03 16.32 8.003 1.626-3.377 4.285-4.15 6.602-3.853 3.225.404 4.698 2.919 4.419 5.12-.26 2.083-2.11 3.898-5.012 3.538-1.365-.17-2.937-.772-4.607-1.562a30 30 0 0 0-.575 3.251l-.414 3.314c.791-1.05 1.878-1.832 3.315-1.652 1.967.251 3.233 2.03 2.82 5.317l-.7 5.56.018 1.392zm3.027-17.371c1.482.188 2.371-.692 2.497-1.734.198-1.554-.997-2.578-2.434-2.758-2.084-.26-3.368.97-4.204 2.91 1.59.836 3 1.438 4.132 1.582z"/>
    <path fill="#C12202" d="m187.546 38.349.404-1.33.072-.44c-.827 1.024-1.94 1.77-3.378 1.536-1.958-.323-3.152-2.146-2.622-5.416l.709-4.383c.09-.53.144-.898.036-1.392l2.677-.746-1.141 6.988c-.287 1.779.27 2.857 1.141 3 1.338.216 2.371-1.77 3.197-3.476l.539-3.323c.09-.53.144-.899.036-1.393l1.788-.494c.53-.197.961-.503 1.051-.916.089-.386.027-.898-.782-1.311l1.518-1.033c1.177.764 1.294 1.653 1.15 2.39-.198.933-1.365 1.715-2.255 1.903l-1.446 8.875-.036 1.392-2.676-.44zm4.518-4.994c.619-3.045 2.991-5.776 6.673-5.03a5.5 5.5 0 0 1 2.524 1.204c.584-.171 1.078-.477 1.186-.899.099-.386.063-.898-.728-1.338l1.554-.97c1.15.808 1.231 1.706 1.051 2.434-.224.88-1.329 1.59-2.2 1.77.934 1.383 1.185 3.197.844 4.868-.602 2.973-3.045 5.578-6.656 4.841-3.548-.718-4.841-3.97-4.248-6.871zm2.56.305c-.378 1.833.215 3.88 2.155 4.276 1.949.395 3.306-1.23 3.674-3.063.377-1.832-.261-3.862-2.183-4.258s-3.278 1.213-3.646 3.045m7.886 7.626.512-1.293 1.976-7.977c.126-.52.216-.88.153-1.383l2.73-.53-.557 2.264c1.096-1.123 2.3-1.599 3.494-1.303 1.932.476 2.965 2.399 2.174 5.614l-1.347 5.443-.153 1.384-2.632-.647.512-1.293 1.366-5.533c.431-1.743-.036-2.875-.899-3.081-1.248-.306-2.443 1.32-3.386 2.892l-1.168 4.715-.152 1.384-2.632-.647zm13.186 1.491a.91.91 0 0 0-.62.62c-.701 2.371 8.317 3.826 6.62 9.638-.952 3.251-4.294 4.167-7.051 3.36-2.686-.791-4.868-3.136-3.862-6.567.449-1.527 1.634-3.099 3.224-3.431-.961-.862-1.572-1.868-1.177-3.216.234-.808.836-1.607 1.518-2.039-1.841-3.61 1.267-8.874 6.512-7.338a6.7 6.7 0 0 1 1.725.772c.575.117 1.249-.269 2.03-1.374l1.509 2.075a5 5 0 0 1-1.751 1.24c1.859 3.61-1.114 8.946-6.477 7.374a6.5 6.5 0 0 1-2.209-1.114zm.215 4.976c-1.239.413-2.245 1.339-2.605 2.57-.601 2.065.584 3.403 2.084 3.852 1.5.44 3.315-.098 3.836-1.868.611-2.084-1.366-3.296-3.315-4.554m2.65-6.108c3.835 1.123 5.452-4.482 1.644-5.605-3.809-1.122-5.434 4.492-1.644 5.605M54.125 44.484l-.189-1.375-3.404-12.215c-1.877.476-3.728 1.33-3.063 3.691.395 1.42 1.886 2.596 3.844 2.057l.063.225c.288 1.033-.098 1.913-1.15 2.21-2.317.646-4.526-1.285-5.12-3.423-.861-3.108 1.043-5.91 4.052-6.754l3.781-1.051c2.587-.719 3.71-1.473 3.162-3.431l.224-.063c1.033-.288 1.914.098 2.21 1.15.647 2.317-1.536 3.628-4.976 4.59l-.764.215 3.396 12.17.548 1.276-2.605.728z"/>
    <path fill="#C12202" d="m59.263 43.074-.153-1.384-1.967-7.985c-.126-.52-.216-.88-.512-1.293l2.173-1.734.638 2.587c.315-1.473 1.033-2.758 2.57-3.135 1.176-.287 2.541.144 3.718 1.518l-1.599 2.003c-.782-1.203-1.473-1.59-2.084-1.437-1.203.297-1.653 3.17-1.608 5.11l.934 3.81.512 1.293-2.631.647zm15.117-4.366a4.9 4.9 0 0 1-2.722 1.662c-2.443.53-3.997-1.024-4.41-2.92-.432-2.011.53-4.419 3.224-4.993a4.6 4.6 0 0 1 2.605.224c-.422-1.724-1.644-2.3-2.74-2.057-.799.17-1.527.809-1.77 1.887l-2.1-1.007c.745-1.877 2.1-2.892 3.556-3.206 2.237-.485 4.653.736 5.165 3.117l1.356 6.26.476 1.312-2.47.53-.17-.8zm-.728-3.36c-.557-.69-1.689-1.068-2.515-.888-1.168.251-1.617 1.356-1.41 2.335.242 1.123 1.15 1.662 2.263 1.42.8-.172 1.59-.827 1.877-1.842l-.224-1.024zm3.135-2.11c-.557-3.054.628-6.476 4.329-7.15 3.629-.655 6.01 1.994 6.557 4.985.539 2.991-.755 6.306-4.383 6.97-3.566.647-5.965-1.886-6.494-4.805zm2.488-.665c.332 1.842 1.634 3.521 3.593 3.171 1.949-.35 2.604-2.371 2.272-4.213-.332-1.84-1.68-3.494-3.61-3.143-1.932.35-2.588 2.344-2.255 4.185m18.332 1.097a.9.9 0 0 0-.323.817c.314 2.452 9.153.18 9.916 6.18.423 3.359-2.263 5.532-5.11 5.892-2.776.35-5.722-.926-6.171-4.465-.198-1.571.26-3.494 1.58-4.437-1.23-.413-2.182-1.086-2.362-2.479-.108-.835.126-1.805.584-2.47-3.126-2.569-2.39-8.64 3.036-9.323a7 7 0 0 1 1.886.018c.575-.117 1.033-.746 1.312-2.075l2.209 1.293c-.278.79-.673 1.383-1.113 1.832 3.152 2.57 2.551 8.641-2.982 9.342-.926.117-1.734.054-2.462-.135zm2.165-2.183c3.961-.503 3.207-6.288-.736-5.794-3.935.503-3.18 6.288.736 5.794m.027 6.655c-.97.88-1.518 2.12-1.356 3.396.27 2.128 1.895 2.892 3.449 2.694s3-1.419 2.766-3.242c-.269-2.156-2.568-2.47-4.859-2.848m13.015-4.284.063-1.392-.036-.44c-.548 1.194-1.437 2.191-2.883 2.326-1.976.18-3.593-1.294-3.889-4.59l-.405-4.42c-.044-.53-.08-.906-.314-1.356l2.407-1.392.647 7.051c.162 1.788.97 2.704 1.859 2.623 1.348-.126 1.851-2.3 2.219-4.168l-.305-3.35c-.045-.539-.081-.907-.315-1.356l1.608-.917c.467-.323.799-.727.79-1.15-.009-.395-.197-.87-1.086-1.077l1.212-1.374c1.329.44 1.662 1.275 1.707 2.02.036.962-.898 2.004-1.707 2.408l.818 8.955.314 1.356-2.695.243zM109.105 21.3c-.135-1.51 1.221-1.752 1.14-2.614-.036-.395-.386-.665-.781-.629-.35.036-.701.252-.871.71l-1.213-.97a2.57 2.57 0 0 1 2.057-1.357c1.159-.107 2.371.53 2.497 1.95.135 1.49-1.59 1.859-1.554 2.793z"/>
    <path fill="#C12202" d="M116.739 16.936c.836-.054 1.438.466 1.491 1.302.063.862-.458 1.464-1.302 1.518-.835.054-1.437-.458-1.5-1.32-.054-.836.467-1.438 1.302-1.492zm-.206 16.634.09-1.383c-.369-5.29-.216-3.144-.584-8.434-.036-.539-.063-.907-.279-1.365l2.435-1.339.754 10.977.278 1.365-2.703.188zm8.632-12.233 2.937-.081c-.153.233-.09.862.108 1.374l2.416 6.548 2.066-6.665c.152-.52.206-1.15.036-1.383l2.658-.072-3.601 11.776c-.818 2.659-1.312 6.108-4.572 6.198-1.402.036-2.596-.961-3.638-2.444l1.985-1.616c.548 1.248 1.141 1.742 1.706 1.733 1.213-.036 1.653-1.913 2.237-3.8l-4.329-11.56zm13.697 7.958c.557.8 1.42 1.365 2.587 1.374 1.024 0 1.824-.458 2.372-1.5l1.787 1.51c-1.015 1.535-2.515 2.344-4.311 2.326-3.827-.027-5.722-3.216-5.704-6.324.018-2.964 1.859-5.847 5.506-5.83 2.362.019 4.617 1.546 4.599 4.231 0 .98-.548 1.869-2.515 2.596l-4.312 1.608zm2.911-9.369-.62-1.751-.665 1.752-2.497-.018 2.569-3.279h1.195l2.524 3.315-2.497-.018zm-.18 6.117c1.662-.575 1.527-.97 1.527-1.23 0-1.051-.853-1.644-1.877-1.644-2.03-.009-3.072 1.779-3.081 3.62 0 .144 0 .278.018.422zm11.327 7.051.242-1.365.018-.44c-.701 1.114-1.716 1.985-3.162 1.931-1.985-.08-3.386-1.751-3.251-5.066l.179-4.437c.018-.539.036-.907-.134-1.383l2.569-1.06-.288 7.069c-.072 1.796.611 2.802 1.5 2.847 1.356.054 2.138-2.039 2.758-3.835l.134-3.36c.027-.539.036-.907-.125-1.383l2.569-1.06-.423 10.294.135 1.383-2.703-.108zm10.131-11.084c1.33.126 1.411-.054 1.491-.916l.063-.655c.063-.647.126-1.33-.018-1.806l2.623-.934-.431 4.653 3.485.323-.198 2.093-3.485-.323-.485 5.236c-.116 1.303.081 2.38.881 2.452.79.072 1.221-.826 1.607-1.374l1.653 1.653c-1.069 1.383-2.156 2.03-3.512 1.904-1.554-.144-3.269-1.455-3-4.356l.431-4.671c.081-.862.027-1.051-1.302-1.177l.197-2.093z"/>
    <path fill="#C12202" d="m177.315 35.268.359-1.347.71-5.65c.224-1.788-.377-2.847-1.258-2.955-1.347-.17-2.308 1.85-3.063 3.593l-.565 4.5.018 1.392-2.686-.341.359-1.348 1.626-12.979c.135-1.069.323-1.985.539-2.83-5.309-2.927-11.291-7.23-15.503-7.76-2.111-.26-4.644.593-4.94 2.955-.171 1.393.619 2.785 2.326 3 1.464.18 3.126-.736 3.386-2.757l.234.027c1.069.134 1.733.826 1.598 1.922-.296 2.39-2.937 3.683-5.137 3.404-3.126-.395-5.075-2.874-4.689-6 .35-2.83 3.009-5.434 7.186-4.913 4.868.61 11.209 5.03 16.32 8.003 1.626-3.377 4.285-4.15 6.602-3.853 3.225.404 4.698 2.919 4.419 5.12-.26 2.083-2.11 3.898-5.012 3.538-1.365-.17-2.937-.772-4.607-1.562a30 30 0 0 0-.575 3.251l-.414 3.314c.791-1.05 1.878-1.832 3.315-1.652 1.967.251 3.233 2.03 2.82 5.317l-.7 5.56.018 1.392zm3.027-17.371c1.482.188 2.371-.692 2.497-1.734.198-1.554-.997-2.578-2.434-2.758-2.084-.26-3.368.97-4.204 2.91 1.59.836 3 1.438 4.132 1.582z"/>
    <path fill="#C12202" d="m187.546 36.813.404-1.33.072-.44c-.827 1.024-1.94 1.77-3.378 1.536-1.958-.323-3.152-2.146-2.622-5.416l.709-4.383c.09-.53.144-.898.036-1.392l2.677-.746-1.141 6.988c-.287 1.779.27 2.857 1.141 3 1.338.216 2.371-1.77 3.197-3.476l.539-3.323c.09-.53.144-.898.036-1.392l1.788-.494c.53-.198.961-.503 1.051-.917.089-.386.027-.898-.782-1.311l1.518-1.033c1.177.764 1.294 1.653 1.15 2.39-.198.933-1.365 1.715-2.255 1.903l-1.446 8.875-.036 1.392-2.676-.44zm4.518-4.994c.619-3.045 2.991-5.776 6.673-5.03a5.5 5.5 0 0 1 2.524 1.203c.584-.17 1.078-.476 1.186-.898.099-.386.063-.898-.728-1.338l1.554-.97c1.15.808 1.231 1.706 1.051 2.434-.224.88-1.329 1.59-2.2 1.77.934 1.383 1.185 3.197.844 4.868-.602 2.973-3.045 5.578-6.656 4.841-3.548-.718-4.841-3.97-4.248-6.871zm2.56.305c-.378 1.833.215 3.88 2.155 4.276 1.949.395 3.306-1.23 3.674-3.063.377-1.833-.261-3.862-2.183-4.258s-3.278 1.213-3.646 3.045m7.886 7.626.512-1.293 1.976-7.977c.126-.52.216-.88.153-1.383l2.73-.53-.557 2.264c1.096-1.123 2.3-1.599 3.494-1.303 1.932.477 2.965 2.399 2.174 5.614l-1.347 5.443-.153 1.384-2.632-.647.512-1.294 1.366-5.532c.431-1.743-.036-2.875-.899-3.081-1.248-.306-2.443 1.32-3.386 2.892l-1.168 4.715-.152 1.384-2.632-.647zm13.186 1.491a.91.91 0 0 0-.62.62c-.701 2.371 8.317 3.826 6.62 9.638-.952 3.251-4.294 4.167-7.051 3.36-2.686-.791-4.868-3.136-3.862-6.567.449-1.527 1.634-3.099 3.224-3.431-.961-.862-1.572-1.868-1.177-3.216.234-.808.836-1.607 1.518-2.039-1.841-3.61 1.267-8.874 6.512-7.338a6.7 6.7 0 0 1 1.725.773c.575.116 1.249-.27 2.03-1.375l1.509 2.075a5 5 0 0 1-1.751 1.24c1.859 3.61-1.114 8.946-6.477 7.374a6.5 6.5 0 0 1-2.209-1.114zm.215 4.985c-1.239.413-2.245 1.339-2.605 2.57-.601 2.065.584 3.403 2.084 3.852 1.5.44 3.315-.098 3.836-1.868.611-2.084-1.366-3.296-3.315-4.554m2.65-6.117c3.835 1.123 5.452-4.482 1.644-5.604-3.809-1.123-5.434 4.49-1.644 5.604"/>
    <path fill="#EF4B23" d="m54.125 44.484-.189-1.375-3.404-12.215c-1.877.476-3.728 1.33-3.063 3.691.395 1.42 1.886 2.596 3.844 2.057l.063.225c.288 1.033-.098 1.913-1.15 2.21-2.317.646-4.526-1.285-5.12-3.423-.861-3.108 1.043-5.91 4.052-6.754l3.781-1.051c2.587-.719 3.71-1.473 3.162-3.431l.224-.063c1.033-.288 1.914.098 2.21 1.15.647 2.317-1.536 3.628-4.976 4.59l-.764.215 3.396 12.17.548 1.276-2.605.728z"/>
    <path fill="#EF4B23" d="m59.263 43.074-.153-1.384-1.967-7.985c-.126-.52-.216-.88-.512-1.293l2.173-1.734.638 2.587c.315-1.473 1.033-2.758 2.57-3.135 1.176-.287 2.541.144 3.718 1.518l-1.599 2.003c-.782-1.203-1.473-1.59-2.084-1.437-1.203.297-1.653 3.17-1.608 5.11l.934 3.81.512 1.293-2.631.647zm15.117-4.366a4.9 4.9 0 0 1-2.722 1.662c-2.443.53-3.997-1.024-4.41-2.92-.432-2.011.53-4.419 3.224-4.993a4.6 4.6 0 0 1 2.605.224c-.422-1.724-1.644-2.3-2.74-2.057-.799.17-1.527.809-1.77 1.887l-2.1-1.007c.745-1.877 2.1-2.892 3.556-3.206 2.237-.485 4.653.736 5.165 3.117l1.356 6.26.476 1.312-2.47.53-.17-.8zm-.728-3.36c-.557-.69-1.689-1.068-2.515-.888-1.168.251-1.617 1.356-1.41 2.335.242 1.123 1.15 1.662 2.263 1.42.8-.172 1.59-.827 1.877-1.842l-.224-1.024zm3.135-2.11c-.557-3.054.628-6.476 4.329-7.15 3.629-.655 6.01 1.994 6.557 4.985.539 2.991-.755 6.306-4.383 6.97-3.566.647-5.965-1.886-6.494-4.805zm2.488-.665c.332 1.842 1.634 3.521 3.593 3.171 1.949-.35 2.604-2.371 2.272-4.213-.332-1.84-1.68-3.494-3.61-3.143-1.932.35-2.588 2.344-2.255 4.185m18.332 1.097a.9.9 0 0 0-.323.817c.314 2.452 9.153.18 9.916 6.18.423 3.359-2.263 5.532-5.11 5.892-2.776.35-5.722-.926-6.171-4.465-.198-1.571.26-3.494 1.58-4.437-1.23-.413-2.182-1.086-2.362-2.479-.108-.835.126-1.805.584-2.47-3.126-2.569-2.39-8.64 3.036-9.323a7 7 0 0 1 1.886.018c.575-.117 1.033-.746 1.312-2.075l2.209 1.293c-.278.79-.673 1.383-1.113 1.832 3.152 2.57 2.551 8.641-2.982 9.342-.926.117-1.734.054-2.462-.135zm2.165-2.183c3.961-.503 3.207-6.288-.736-5.794-3.935.503-3.18 6.288.736 5.794m.027 6.655c-.97.88-1.518 2.12-1.356 3.396.27 2.128 1.895 2.892 3.449 2.694s3-1.419 2.766-3.242c-.269-2.156-2.568-2.47-4.859-2.848m13.015-4.284.063-1.392-.036-.44c-.548 1.194-1.437 2.191-2.883 2.326-1.976.18-3.593-1.294-3.889-4.59l-.405-4.42c-.044-.53-.08-.906-.314-1.356l2.407-1.392.647 7.051c.162 1.788.97 2.704 1.859 2.623 1.348-.126 1.851-2.3 2.219-4.168l-.305-3.35c-.045-.539-.081-.907-.315-1.356l1.608-.917c.467-.323.799-.727.79-1.15-.009-.395-.197-.87-1.086-1.077l1.212-1.374c1.329.44 1.662 1.275 1.707 2.02.036.962-.898 2.004-1.707 2.408l.818 8.955.314 1.356-2.695.243zM109.105 21.3c-.135-1.51 1.221-1.752 1.14-2.614-.036-.395-.386-.665-.781-.629-.35.036-.701.252-.871.71l-1.213-.97a2.57 2.57 0 0 1 2.057-1.357c1.159-.107 2.371.53 2.497 1.95.135 1.49-1.59 1.859-1.554 2.793z"/>
    <path fill="#EF4B23" d="M116.739 16.936c.836-.054 1.438.466 1.491 1.302.063.862-.458 1.464-1.302 1.518-.835.054-1.437-.458-1.5-1.32-.054-.836.467-1.438 1.302-1.492zm-.206 16.634.09-1.383c-.369-5.29-.216-3.144-.584-8.434-.036-.539-.063-.907-.279-1.365l2.435-1.339.754 10.977.278 1.365-2.703.188zm8.632-12.233 2.937-.081c-.153.233-.09.862.108 1.374l2.416 6.548 2.066-6.665c.152-.52.206-1.15.036-1.383l2.658-.072-3.601 11.776c-.818 2.659-1.312 6.108-4.572 6.198-1.402.036-2.596-.961-3.638-2.444l1.985-1.616c.548 1.248 1.141 1.742 1.706 1.733 1.213-.036 1.653-1.913 2.237-3.8l-4.329-11.56zm13.697 7.958c.557.8 1.42 1.365 2.587 1.374 1.024 0 1.824-.458 2.372-1.5l1.787 1.51c-1.015 1.535-2.515 2.344-4.311 2.326-3.827-.027-5.722-3.216-5.704-6.324.018-2.964 1.859-5.847 5.506-5.83 2.362.019 4.617 1.546 4.599 4.231 0 .98-.548 1.869-2.515 2.596l-4.312 1.608zm2.911-9.369-.62-1.751-.665 1.752-2.497-.018 2.569-3.279h1.195l2.524 3.315-2.497-.018zm-.18 6.117c1.662-.575 1.527-.97 1.527-1.23 0-1.051-.853-1.644-1.877-1.644-2.03-.009-3.072 1.779-3.081 3.62 0 .144 0 .278.018.422zm11.327 7.051.242-1.365.018-.44c-.701 1.114-1.716 1.985-3.162 1.931-1.985-.08-3.386-1.751-3.251-5.066l.179-4.437c.018-.539.036-.907-.134-1.383l2.569-1.06-.288 7.069c-.072 1.796.611 2.802 1.5 2.847 1.356.054 2.138-2.039 2.758-3.835l.134-3.36c.027-.539.036-.907-.125-1.383l2.569-1.06-.423 10.294.135 1.383-2.703-.108zm10.131-11.084c1.33.126 1.411-.054 1.491-.916l.063-.655c.063-.647.126-1.33-.018-1.806l2.623-.934-.431 4.653 3.485.323-.198 2.093-3.485-.323-.485 5.236c-.116 1.303.081 2.38.881 2.452.79.072 1.221-.826 1.607-1.374l1.653 1.653c-1.069 1.383-2.156 2.03-3.512 1.904-1.554-.144-3.269-1.455-3-4.356l.431-4.671c.081-.862.027-1.051-1.302-1.177l.197-2.093z"/>
    <path fill="#EF4B23" d="m177.315 35.268.359-1.347.71-5.65c.224-1.788-.377-2.847-1.258-2.955-1.347-.17-2.308 1.85-3.063 3.593l-.565 4.5.018 1.392-2.686-.341.359-1.348 1.626-12.979c.135-1.069.323-1.985.539-2.83-5.309-2.927-11.291-7.23-15.503-7.76-2.111-.26-4.644.593-4.94 2.955-.171 1.393.619 2.785 2.326 3 1.464.18 3.126-.736 3.386-2.757l.234.027c1.069.134 1.733.826 1.598 1.922-.296 2.39-2.937 3.683-5.137 3.404-3.126-.395-5.075-2.874-4.689-6 .35-2.83 3.009-5.434 7.186-4.913 4.868.61 11.209 5.03 16.32 8.003 1.626-3.377 4.285-4.15 6.602-3.853 3.225.404 4.698 2.919 4.419 5.12-.26 2.083-2.11 3.898-5.012 3.538-1.365-.17-2.937-.772-4.607-1.562a30 30 0 0 0-.575 3.251l-.414 3.314c.791-1.05 1.878-1.832 3.315-1.652 1.967.251 3.233 2.03 2.82 5.317l-.7 5.56.018 1.392zm3.027-17.371c1.482.188 2.371-.692 2.497-1.734.198-1.554-.997-2.578-2.434-2.758-2.084-.26-3.368.97-4.204 2.91 1.59.836 3 1.438 4.132 1.582z"/>
    <path fill="#EF4B23" d="m187.546 36.813.404-1.33.072-.44c-.827 1.024-1.94 1.77-3.378 1.536-1.958-.323-3.152-2.146-2.622-5.416l.709-4.383c.09-.53.144-.898.036-1.392l2.677-.746-1.141 6.988c-.287 1.779.27 2.857 1.141 3 1.338.216 2.371-1.77 3.197-3.476l.539-3.323c.09-.53.144-.898.036-1.392l1.788-.494c.53-.198.961-.503 1.051-.917.089-.386.027-.898-.782-1.311l1.518-1.033c1.177.764 1.294 1.653 1.15 2.39-.198.933-1.365 1.715-2.255 1.903l-1.446 8.875-.036 1.392-2.676-.44zm4.518-4.994c.619-3.045 2.991-5.776 6.673-5.03a5.5 5.5 0 0 1 2.524 1.203c.584-.17 1.078-.476 1.186-.898.099-.386.063-.898-.728-1.338l1.554-.97c1.15.808 1.231 1.706 1.051 2.434-.224.88-1.329 1.59-2.2 1.77.934 1.383 1.185 3.197.844 4.868-.602 2.973-3.045 5.578-6.656 4.841-3.548-.718-4.841-3.97-4.248-6.871zm2.56.305c-.378 1.833.215 3.88 2.155 4.276 1.949.395 3.306-1.23 3.674-3.063.377-1.833-.261-3.862-2.183-4.258s-3.278 1.213-3.646 3.045m7.886 7.626.512-1.293 1.976-7.977c.126-.52.216-.88.153-1.383l2.73-.53-.557 2.264c1.096-1.123 2.3-1.599 3.494-1.303 1.932.477 2.965 2.399 2.174 5.614l-1.347 5.443-.153 1.384-2.632-.647.512-1.294 1.366-5.532c.431-1.743-.036-2.875-.899-3.081-1.248-.306-2.443 1.32-3.386 2.892l-1.168 4.715-.152 1.384-2.632-.647zm13.186 1.491a.91.91 0 0 0-.62.62c-.701 2.371 8.317 3.826 6.62 9.638-.952 3.251-4.294 4.167-7.051 3.36-2.686-.791-4.868-3.136-3.862-6.567.449-1.527 1.634-3.099 3.224-3.431-.961-.862-1.572-1.868-1.177-3.216.234-.808.836-1.607 1.518-2.039-1.841-3.61 1.267-8.874 6.512-7.338a6.7 6.7 0 0 1 1.725.773c.575.116 1.249-.27 2.03-1.375l1.509 2.075a5 5 0 0 1-1.751 1.24c1.859 3.61-1.114 8.946-6.477 7.374a6.5 6.5 0 0 1-2.209-1.114zm.215 4.985c-1.239.413-2.245 1.339-2.605 2.57-.601 2.065.584 3.403 2.084 3.852 1.5.44 3.315-.098 3.836-1.868.611-2.084-1.366-3.296-3.315-4.554m2.65-6.117c3.835 1.123 5.452-4.482 1.644-5.604-3.809-1.123-5.434 4.49-1.644 5.604"/>
    <path fill="#FFF400" d="m54.125 42.948-.189-1.374-3.404-12.216c-1.877.476-3.728 1.33-3.063 3.691.395 1.42 1.886 2.596 3.844 2.057l.063.225c.288 1.033-.098 1.913-1.15 2.21-2.317.646-4.526-1.285-5.12-3.423-.861-3.108 1.043-5.91 4.052-6.754l3.781-1.051c2.587-.719 3.71-1.473 3.162-3.431l.224-.063c1.033-.288 1.914.099 2.21 1.15.647 2.317-1.536 3.628-4.976 4.59l-.764.215 3.396 12.17.548 1.276-2.605.728z"/>
    <path fill="#FFF400" d="m59.263 41.538-.153-1.384-1.967-7.985c-.126-.52-.216-.88-.512-1.293l2.173-1.734.638 2.587c.315-1.473 1.033-2.758 2.57-3.135 1.176-.287 2.541.144 3.718 1.518l-1.599 2.003c-.782-1.203-1.473-1.59-2.084-1.437-1.203.296-1.653 3.17-1.608 5.111l.934 3.808.512 1.294-2.631.647zm15.117-4.366a4.9 4.9 0 0 1-2.722 1.662c-2.443.53-3.997-1.024-4.41-2.92-.432-2.011.53-4.419 3.224-4.993a4.6 4.6 0 0 1 2.605.224c-.422-1.724-1.644-2.3-2.74-2.057-.799.171-1.527.809-1.77 1.887l-2.1-1.006c.745-1.878 2.1-2.893 3.556-3.207 2.237-.485 4.653.736 5.165 3.117l1.356 6.26.476 1.312-2.47.53-.17-.8zm-.728-3.36c-.557-.69-1.689-1.068-2.515-.888-1.168.251-1.617 1.356-1.41 2.335.242 1.123 1.15 1.662 2.263 1.42.8-.171 1.59-.827 1.877-1.842l-.224-1.024zm3.135-2.11c-.557-3.054.628-6.476 4.329-7.15 3.629-.655 6.01 1.994 6.557 4.985.539 2.992-.755 6.306-4.383 6.97-3.566.647-5.965-1.886-6.494-4.805zm2.488-.665c.332 1.842 1.634 3.521 3.593 3.171 1.949-.35 2.604-2.371 2.272-4.212-.332-1.842-1.68-3.495-3.61-3.144-1.932.35-2.588 2.344-2.255 4.185m18.332 1.096a.9.9 0 0 0-.323.818c.314 2.452 9.153.18 9.916 6.18.423 3.359-2.263 5.532-5.11 5.892-2.776.35-5.722-.926-6.171-4.465-.198-1.571.26-3.494 1.58-4.437-1.23-.413-2.182-1.087-2.362-2.479-.108-.835.126-1.805.584-2.47-3.126-2.569-2.39-8.64 3.036-9.323a7 7 0 0 1 1.886.018c.575-.117 1.033-.746 1.312-2.075l2.209 1.293c-.278.79-.673 1.383-1.113 1.832 3.152 2.57 2.551 8.641-2.982 9.342-.926.117-1.734.054-2.462-.135zm2.165-2.182c3.961-.503 3.207-6.288-.736-5.794-3.935.503-3.18 6.288.736 5.794m.027 6.655c-.97.88-1.518 2.12-1.356 3.396.27 2.128 1.895 2.892 3.449 2.694s3-1.419 2.766-3.242c-.269-2.156-2.568-2.47-4.859-2.848m13.015-4.284.063-1.392-.036-.44c-.548 1.194-1.437 2.191-2.883 2.326-1.976.18-3.593-1.294-3.889-4.59l-.405-4.42c-.044-.53-.08-.906-.314-1.355l2.407-1.393.647 7.051c.162 1.788.97 2.704 1.859 2.623 1.348-.126 1.851-2.3 2.219-4.168l-.305-3.35c-.045-.539-.081-.907-.315-1.356l1.608-.916c.467-.324.799-.728.79-1.15-.009-.396-.197-.872-1.086-1.078l1.212-1.374c1.329.44 1.662 1.275 1.707 2.02.036.962-.898 2.004-1.707 2.408l.818 8.955.314 1.356-2.695.243zm-3.709-12.557c-.135-1.51 1.221-1.752 1.14-2.614-.036-.395-.386-.665-.781-.629-.35.036-.701.252-.871.71l-1.213-.97a2.57 2.57 0 0 1 2.057-1.357c1.159-.107 2.371.53 2.497 1.95.135 1.49-1.59 1.859-1.554 2.793z"/>
    <path fill="#FFF400" d="M116.739 15.4c.836-.054 1.438.467 1.491 1.302.063.862-.458 1.464-1.302 1.518-.835.054-1.437-.458-1.5-1.32-.054-.836.467-1.438 1.302-1.491zm-.206 16.634.09-1.383c-.369-5.29-.216-3.144-.584-8.434-.036-.539-.063-.907-.279-1.365l2.435-1.339.754 10.976.278 1.366-2.703.188zm8.632-12.234 2.937-.08c-.153.233-.09.862.108 1.374l2.416 6.548 2.066-6.665c.152-.52.206-1.15.036-1.383l2.658-.072-3.601 11.776c-.818 2.659-1.312 6.108-4.572 6.198-1.402.035-2.596-.962-3.638-2.443l1.985-1.617c.548 1.248 1.141 1.742 1.706 1.733 1.213-.036 1.653-1.913 2.237-3.8l-4.329-11.56zm13.697 7.968c.557.8 1.42 1.365 2.587 1.374 1.024 0 1.824-.458 2.372-1.5l1.787 1.51c-1.015 1.535-2.515 2.343-4.311 2.326-3.827-.027-5.722-3.216-5.704-6.324.018-2.964 1.859-5.847 5.506-5.83 2.362.019 4.617 1.546 4.599 4.231 0 .98-.548 1.869-2.515 2.596l-4.312 1.608zm2.911-9.377-.62-1.752-.665 1.752-2.497-.018 2.569-3.279h1.195l2.524 3.315-2.497-.018zm-.18 6.125c1.662-.574 1.527-.97 1.527-1.23 0-1.051-.853-1.644-1.877-1.644-2.03-.009-3.072 1.779-3.081 3.62 0 .144 0 .278.018.422zm11.327 7.042.242-1.365.018-.44c-.701 1.114-1.716 1.985-3.162 1.931-1.985-.08-3.386-1.751-3.251-5.066l.179-4.437c.018-.539.036-.907-.134-1.383l2.569-1.06-.288 7.069c-.072 1.796.611 2.802 1.5 2.847 1.356.054 2.138-2.039 2.758-3.835l.134-3.36c.027-.538.036-.907-.125-1.383l2.569-1.06-.423 10.294.135 1.383-2.703-.108zm10.131-11.084c1.33.126 1.411-.053 1.491-.916l.063-.655c.063-.647.126-1.33-.018-1.806l2.623-.934-.431 4.653 3.485.323-.198 2.093-3.485-.323-.485 5.236c-.116 1.303.081 2.38.881 2.452.79.072 1.221-.826 1.607-1.374l1.653 1.653c-1.069 1.383-2.156 2.03-3.512 1.904-1.554-.144-3.269-1.455-3-4.356l.431-4.671c.081-.862.027-1.051-1.302-1.177l.197-2.093z"/>
    <path fill="#FFF400" d="m177.315 33.741.359-1.347.71-5.65c.224-1.788-.377-2.847-1.258-2.955-1.347-.17-2.308 1.85-3.063 3.593l-.565 4.5.018 1.392-2.686-.341.359-1.348 1.626-12.979c.135-1.069.323-1.985.539-2.83-5.309-2.927-11.291-7.23-15.503-7.76-2.111-.26-4.644.593-4.94 2.955-.171 1.393.619 2.785 2.326 3 1.464.18 3.126-.736 3.386-2.757l.234.027c1.069.135 1.733.826 1.598 1.922-.296 2.39-2.937 3.683-5.137 3.404-3.126-.395-5.075-2.874-4.689-6 .35-2.83 3.009-5.434 7.186-4.913 4.868.61 11.209 5.03 16.32 8.003 1.626-3.377 4.285-4.15 6.602-3.853 3.225.404 4.698 2.919 4.419 5.12-.26 2.083-2.11 3.898-5.012 3.538-1.365-.17-2.937-.772-4.607-1.562a30 30 0 0 0-.575 3.251l-.414 3.314c.791-1.05 1.878-1.832 3.315-1.652 1.967.251 3.233 2.03 2.82 5.317l-.7 5.56.018 1.392zm3.027-17.371c1.482.188 2.371-.692 2.497-1.734.198-1.554-.997-2.578-2.434-2.757-2.084-.261-3.368.97-4.204 2.91 1.59.835 3 1.437 4.132 1.58z"/>
    <path fill="#FFF400" d="m187.546 35.277.404-1.33.072-.44c-.827 1.025-1.94 1.77-3.378 1.537-1.958-.324-3.152-2.147-2.622-5.417l.709-4.383c.09-.53.144-.898.036-1.392l2.677-.746-1.141 6.988c-.287 1.779.27 2.857 1.141 3 1.338.216 2.371-1.77 3.197-3.476l.539-3.323c.09-.53.144-.898.036-1.392l1.788-.494c.53-.198.961-.503 1.051-.917.089-.386.027-.898-.782-1.311l1.518-1.033c1.177.764 1.294 1.653 1.15 2.39-.198.933-1.365 1.715-2.255 1.904l-1.446 8.874-.036 1.392-2.676-.44zm4.518-4.985c.619-3.045 2.991-5.776 6.673-5.03a5.5 5.5 0 0 1 2.524 1.203c.584-.17 1.078-.476 1.186-.898.099-.386.063-.898-.728-1.338l1.554-.97c1.15.808 1.231 1.706 1.051 2.434-.224.88-1.329 1.59-2.2 1.77.934 1.383 1.185 3.197.844 4.868-.602 2.973-3.045 5.578-6.656 4.841-3.548-.718-4.841-3.97-4.248-6.871zm2.56.305c-.378 1.833.215 3.88 2.155 4.276 1.949.395 3.306-1.23 3.674-3.063.377-1.832-.261-3.862-2.183-4.258s-3.278 1.213-3.646 3.045m7.886 7.617.512-1.293 1.976-7.976c.126-.521.216-.88.153-1.384l2.73-.53-.557 2.264c1.096-1.123 2.3-1.599 3.494-1.303 1.932.476 2.965 2.399 2.174 5.614l-1.347 5.444-.153 1.383-2.632-.647.512-1.293 1.366-5.533c.431-1.743-.036-2.875-.899-3.081-1.248-.306-2.443 1.32-3.386 2.892l-1.168 4.716-.152 1.383-2.632-.647zm13.186 1.491a.91.91 0 0 0-.62.62c-.701 2.371 8.317 3.826 6.62 9.638-.952 3.251-4.294 4.167-7.051 3.36-2.686-.791-4.868-3.136-3.862-6.567.449-1.527 1.634-3.099 3.224-3.431-.961-.862-1.572-1.868-1.177-3.216.234-.808.836-1.607 1.518-2.038-1.841-3.611 1.267-8.875 6.512-7.339a6.7 6.7 0 0 1 1.725.773c.575.116 1.249-.27 2.03-1.375l1.509 2.075a5 5 0 0 1-1.751 1.24c1.859 3.61-1.114 8.946-6.477 7.374a6.5 6.5 0 0 1-2.209-1.114zm.215 4.985c-1.239.413-2.245 1.339-2.605 2.57-.601 2.065.584 3.403 2.084 3.852 1.5.44 3.315-.098 3.836-1.868.611-2.084-1.366-3.296-3.315-4.554m2.65-6.116c3.835 1.122 5.452-4.483 1.644-5.605-3.809-1.123-5.434 4.49-1.644 5.605"/>
    <path fill="#C12202" d="M54.942 60.14c.557-.162.755-.665.79-1.186a1.9 1.9 0 0 1-.709.404c-.629.189-1.32-.099-1.554-.88-.242-.809.26-1.42.89-1.599.601-.18 1.374.126 1.688 1.177.26.898.162 2.263-.979 2.533l-.134-.45zm2.91-.863c.558-.161.755-.664.791-1.185a1.9 1.9 0 0 1-.71.404c-.628.188-1.32-.099-1.553-.88-.243-.809.26-1.42.889-1.6.602-.179 1.374.127 1.689 1.177.26.899.161 2.264-.98 2.533l-.134-.449zm12.899-4.455-1.572 2.03c-.71-.781-1.67-1.203-2.793-.907-2.937.772-3.072 4.59-2.452 6.943.62 2.371 2.694 5.569 5.604 4.806 1.042-.27 1.896-1.051 2.138-2.156l-.736-2.82-3.459.907-.592-2.255 5.712-1.5 1.59 6.054c-1.024 1.985-1.76 3.404-4.177 4.042-4.31 1.132-7.473-2.263-8.524-6.26-1.086-4.132.036-8.893 4.303-10.016 2.012-.53 3.727.036 4.958 1.141zm2.291-2.928c.817-.189 1.49.224 1.68 1.042.197.844-.225 1.518-1.043 1.706-.817.19-1.49-.224-1.688-1.068-.19-.818.224-1.491 1.041-1.68zm2.443 16.455-.135-1.383c-1.204-5.165-.719-3.072-1.922-8.228-.126-.52-.207-.889-.494-1.302l2.191-1.707 2.497 10.707.494 1.302-2.64.611zm10.005-2.2-.098-1.384-.09-.43c-.404 1.248-1.186 2.344-2.596 2.64-1.94.404-3.71-.871-4.383-4.123l-.898-4.347c-.108-.521-.189-.89-.467-1.312l2.236-1.652 1.437 6.925c.369 1.76 1.276 2.569 2.138 2.39 1.33-.28 1.58-2.498 1.734-4.393l-.683-3.297c-.108-.52-.189-.889-.458-1.31l2.228-1.654 2.092 10.078.467 1.312-2.65.548zm-2.245-16.007-1.733 3.72-1.168.242.287-3.423 2.605-.538zm6.898 19.618L87.71 55.2l-.413-1.33 2.488-.413.126.763c.673-.8 1.608-1.284 2.596-1.455 3.386-.566 5.541 2.156 6.054 5.174.502 2.991-.665 6.243-3.935 6.79-.97.162-2.012 0-3.045-.512l.863 5.165.413 1.33-2.668.449-.045-1.393zm1.051-7.878c.638.674 1.464 1.105 2.452.943 1.563-.26 2.776-2.102 2.372-4.536-.315-1.868-1.563-3.548-3.504-3.224-.87.143-1.688.781-2.137 1.922l.817 4.904zm14.668.943.045-1.392-.862-8.174c-.054-.53-.099-.907-.332-1.347l2.38-1.428.242 2.317c.647-1.428 1.617-2.281 2.848-2.416 1.976-.207 3.601 1.24 3.952 4.536l.593 5.569.332 1.347-2.695.288.045-1.393-.602-5.667c-.188-1.788-1.015-2.686-1.895-2.596-1.275.135-1.85 2.075-2.2 3.871l.512 4.832.332 1.348-2.695.287zm10.267-1.069.099-1.383-.899-13.563c-.035-.539-.062-.907-.278-1.365l2.434-1.33.512 7.644c.575-1.185 1.491-2.156 2.937-2.254 1.985-.135 3.557 1.383 3.773 4.688l.368 5.596.279 1.365-2.704.18.099-1.383-.378-5.686c-.116-1.796-.907-2.721-1.796-2.668-1.347.09-1.913 2.255-2.326 4.114l.296 4.518.279 1.366-2.704.18zm16.643-1.661a4.9 4.9 0 0 1-2.982 1.131c-2.497.072-3.736-1.742-3.79-3.673-.054-2.057 1.329-4.24 4.087-4.32a4.56 4.56 0 0 1 2.515.7c-.099-1.77-1.195-2.56-2.318-2.524-.817.027-1.643.512-2.083 1.527l-1.887-1.374c1.069-1.716 2.596-2.453 4.087-2.497 2.291-.063 4.437 1.58 4.5 4.006l.18 6.395.224 1.374-2.524.072-.026-.817zm-.089-3.432c-.423-.781-1.464-1.356-2.309-1.338-1.194.036-1.841 1.033-1.814 2.039.036 1.14.826 1.841 1.967 1.814.817-.026 1.716-.511 2.174-1.464l-.027-1.05zm10.248 4.24.198-1.374v-.44c-.665 1.14-1.653 2.039-3.099 2.02-1.985-.017-3.44-1.652-3.404-4.967l.054-4.437c0-.539.009-.907-.171-1.383l2.533-1.14-.081 7.077c-.018 1.797.692 2.785 1.581 2.794 1.356.018 2.075-2.102 2.632-3.916l.036-3.36c0-.539.009-.907-.171-1.383l2.533-1.14-.117 10.302.171 1.383-2.713-.027zm14.408-3.009 2.722-6.45c.197-.502.314-1.122.17-1.364l2.839.206-4.77 11.354-2.47-.18-3.054-11.928 2.838.206c-.179.225-.152.854-.036 1.383l1.752 6.773zm8.326.961c.467.853 1.267 1.51 2.426 1.644 1.024.117 1.859-.26 2.515-1.24l1.616 1.689c-1.167 1.42-2.748 2.057-4.536 1.86-3.808-.432-5.344-3.81-4.994-6.89.333-2.946 2.47-5.614 6.09-5.2 2.345.269 4.419 2.03 4.114 4.697-.108.97-.746 1.796-2.775 2.317l-4.456 1.141zm3.063-2.946c1.716-.395 1.617-.8 1.644-1.06.117-1.042-.674-1.724-1.698-1.841-2.021-.234-3.242 1.437-3.449 3.27-.018.143-.036.278-.027.421l3.521-.799zm.827-6.063-.432-1.814-.844 1.661-2.479-.278 2.901-2.982 1.186.135 2.156 3.557-2.479-.288zm3.063-5.003.601 3.386-1.185-.135-2.066-3.547zm5.703 19.15.431-1.32 1.464-8.093c.099-.53.162-.899.063-1.393l2.695-.7-.413 2.3c1.024-1.195 2.191-1.743 3.404-1.519 1.958.35 3.117 2.2 2.524 5.47l-.997 5.515-.063 1.393-2.668-.485.432-1.32 1.014-5.606c.324-1.77-.215-2.865-1.086-3.027-1.267-.224-2.354 1.473-3.198 3.1l-.862 4.778-.063 1.392-2.668-.485zm10.105 1.859.485-1.302c1.177-5.174 1.842-8.084 3.018-13.258.117-.52.198-.89.126-1.383l2.722-.584-1.698 7.473c.889-.97 2.048-1.644 3.467-1.32 1.94.44 3.018 2.335 2.281 5.569l-1.239 5.47-.126 1.383-2.641-.602.485-1.302 1.267-5.56c.395-1.751-.09-2.874-.952-3.072-1.321-.296-2.479 1.617-3.404 3.279l-1.006 4.419-.126 1.383-2.641-.602zm16.366 3.207a4.87 4.87 0 0 1-3.18.206c-2.407-.664-3.063-2.757-2.551-4.625.548-1.985 2.515-3.665 5.174-2.929a4.6 4.6 0 0 1 2.2 1.41c.431-1.724-.386-2.793-1.473-3.098-.79-.216-1.724 0-2.443.853l-1.401-1.868c1.527-1.32 3.198-1.59 4.644-1.186 2.209.611 3.781 2.812 3.125 5.156l-1.706 6.17-.189 1.375-2.434-.674.216-.79zm.907-3.306c-.171-.87-.997-1.733-1.806-1.958-1.149-.314-2.057.45-2.326 1.42-.305 1.104.243 2.002 1.347 2.308.791.216 1.788.009 2.515-.764l.279-1.015zm1.509-11.919.072 3.431-1.15-.314-1.482-3.827 2.569.71zm4.069 8.614c.557.18.997-.126 1.32-.539a1.9 1.9 0 0 1-.817-.063c-.62-.197-1.042-.817-.791-1.599.252-.8 1.015-1.024 1.635-.826.602.189 1.069.88.737 1.922-.288.89-1.141 1.967-2.228 1.545l.144-.449zm2.892.925c.557.18.997-.126 1.32-.539a1.9 1.9 0 0 1-.817-.063c-.62-.197-1.042-.817-.79-1.599.251-.799 1.015-1.023 1.634-.826.602.189 1.069.88.737 1.922-.288.89-1.141 1.967-2.237 1.545l.144-.449z"/>
    <path fill="#C12202" d="M54.942 58.604c.557-.162.755-.665.79-1.186-.215.189-.44.323-.709.404-.629.189-1.32-.099-1.554-.88-.242-.809.26-1.42.89-1.599.601-.18 1.374.126 1.688 1.177.26.898.162 2.263-.979 2.533l-.134-.45zm2.91-.863c.558-.161.755-.664.791-1.185-.215.188-.44.323-.71.404-.628.188-1.32-.099-1.553-.88-.243-.809.26-1.42.889-1.6.602-.179 1.374.127 1.689 1.178.26.898.161 2.263-.98 2.532l-.134-.449zm12.899-4.455-1.572 2.03c-.71-.781-1.67-1.204-2.793-.907-2.937.772-3.072 4.59-2.452 6.943.62 2.371 2.694 5.57 5.604 4.806 1.042-.27 1.896-1.051 2.138-2.156l-.736-2.82-3.459.907-.592-2.255 5.712-1.5 1.59 6.054c-1.024 1.985-1.76 3.404-4.177 4.042-4.31 1.132-7.473-2.263-8.524-6.26-1.086-4.132.036-8.893 4.303-10.016 2.012-.53 3.727.036 4.958 1.141zm2.291-2.928c.817-.189 1.49.225 1.68 1.042.197.844-.225 1.518-1.043 1.706-.817.19-1.49-.224-1.688-1.068-.19-.818.224-1.491 1.041-1.68zm2.443 16.455-.135-1.383c-1.204-5.165-.719-3.072-1.922-8.228-.126-.52-.207-.889-.494-1.302l2.191-1.707L77.622 64.9l.494 1.302-2.64.611zm10.005-2.2-.098-1.384-.09-.43c-.404 1.248-1.186 2.344-2.596 2.64-1.94.404-3.71-.871-4.383-4.123l-.898-4.347c-.108-.521-.189-.89-.467-1.312l2.236-1.652 1.437 6.925c.369 1.76 1.276 2.569 2.138 2.39 1.33-.28 1.58-2.498 1.734-4.393l-.683-3.297c-.108-.52-.189-.889-.458-1.31l2.228-1.654 2.092 10.078.467 1.312-2.65.548zm-2.245-16.007-1.733 3.72-1.168.242.287-3.423 2.605-.539zm6.898 19.618-2.434-14.56-.413-1.33 2.488-.413.126.763c.673-.799 1.608-1.284 2.596-1.455 3.386-.566 5.541 2.156 6.054 5.174.502 2.991-.665 6.243-3.935 6.79-.97.162-2.012 0-3.045-.511l.863 5.164.413 1.33-2.668.449-.045-1.392zm1.051-7.869c.638.674 1.464 1.105 2.452.943 1.563-.26 2.776-2.102 2.372-4.536-.315-1.868-1.563-3.548-3.504-3.224-.87.143-1.688.781-2.137 1.922l.817 4.904zm14.668.935.045-1.393-.862-8.174c-.054-.53-.099-.907-.332-1.347l2.38-1.428.242 2.317c.647-1.428 1.617-2.281 2.848-2.416 1.976-.207 3.601 1.24 3.952 4.536l.593 5.569.332 1.347-2.695.288.045-1.392-.602-5.668c-.188-1.788-1.015-2.686-1.895-2.596-1.275.135-1.85 2.075-2.2 3.871l.512 4.833.332 1.347-2.695.287zm10.267-1.07.099-1.383-.899-13.563c-.035-.539-.062-.907-.278-1.365l2.434-1.33.512 7.644c.575-1.185 1.491-2.155 2.937-2.254 1.985-.135 3.557 1.383 3.773 4.688l.368 5.596.279 1.366-2.704.18.099-1.384-.378-5.686c-.116-1.796-.907-2.721-1.796-2.667-1.347.09-1.913 2.254-2.326 4.113l.296 4.518.279 1.366-2.704.18zm16.643-1.661a4.9 4.9 0 0 1-2.982 1.131c-2.497.072-3.736-1.742-3.79-3.673-.054-2.057 1.329-4.24 4.087-4.32a4.56 4.56 0 0 1 2.515.7c-.099-1.77-1.195-2.56-2.318-2.524-.817.027-1.643.512-2.083 1.527l-1.887-1.374c1.069-1.716 2.596-2.453 4.087-2.497 2.291-.063 4.437 1.58 4.5 4.006l.18 6.395.224 1.374-2.524.072-.026-.817zm-.089-3.431c-.423-.782-1.464-1.357-2.309-1.339-1.194.036-1.841 1.033-1.814 2.04.036 1.14.826 1.84 1.967 1.813.817-.026 1.716-.512 2.174-1.464l-.027-1.05zm10.248 4.239.198-1.374v-.44c-.665 1.14-1.653 2.039-3.099 2.02-1.985-.017-3.44-1.652-3.404-4.967l.054-4.437c0-.539.009-.907-.171-1.383l2.533-1.14-.081 7.077c-.018 1.797.692 2.785 1.581 2.794 1.356.018 2.075-2.102 2.632-3.917l.036-3.359c0-.539.009-.907-.171-1.383l2.533-1.14-.117 10.302.171 1.383-2.713-.027zm14.408-3 2.722-6.45c.197-.502.314-1.122.17-1.364l2.839.206-4.77 11.354-2.47-.18-3.054-11.928 2.838.206c-.179.225-.152.854-.036 1.383l1.752 6.773zm8.326.953c.467.852 1.267 1.508 2.426 1.643 1.024.117 1.859-.26 2.515-1.24l1.616 1.689c-1.167 1.42-2.748 2.057-4.536 1.86-3.808-.432-5.344-3.81-4.994-6.89.333-2.946 2.47-5.614 6.09-5.2 2.345.269 4.419 2.03 4.114 4.697-.108.97-.746 1.796-2.775 2.317l-4.456 1.141zm3.063-2.938c1.716-.395 1.617-.8 1.644-1.06.117-1.042-.674-1.724-1.698-1.841-2.021-.234-3.242 1.437-3.449 3.27-.018.143-.036.278-.027.421l3.521-.799zm.827-6.063-.432-1.814-.844 1.661-2.479-.278 2.901-2.982 1.186.135 2.156 3.557-2.479-.288zm3.063-5.012.601 3.386-1.185-.134-2.066-3.548zm5.703 19.15.431-1.32 1.464-8.093c.099-.53.162-.899.063-1.393l2.695-.7-.413 2.3c1.024-1.195 2.191-1.743 3.404-1.519 1.958.35 3.117 2.2 2.524 5.47l-.997 5.515-.063 1.393-2.668-.485.432-1.32 1.014-5.606c.324-1.77-.215-2.865-1.086-3.027-1.267-.224-2.354 1.474-3.198 3.1l-.862 4.778-.063 1.392-2.668-.485zm10.105 1.859.485-1.302c1.177-5.174 1.842-8.084 3.018-13.258.117-.52.198-.889.126-1.383l2.722-.584-1.698 7.473c.889-.97 2.048-1.644 3.467-1.32 1.94.44 3.018 2.335 2.281 5.569l-1.239 5.47-.126 1.383-2.641-.602.485-1.302 1.267-5.56c.395-1.751-.09-2.874-.952-3.072-1.321-.296-2.479 1.617-3.404 3.279l-1.006 4.419-.126 1.383-2.641-.602zm16.366 3.207a4.88 4.88 0 0 1-3.18.207c-2.407-.665-3.063-2.758-2.551-4.626.548-1.985 2.515-3.665 5.174-2.928a4.57 4.57 0 0 1 2.2 1.41c.431-1.725-.386-2.794-1.473-3.1-.79-.215-1.724 0-2.443.854l-1.401-1.868c1.527-1.32 3.198-1.59 4.644-1.186 2.209.611 3.781 2.812 3.125 5.156l-1.706 6.17-.189 1.375-2.434-.674.216-.79zm.907-3.305c-.171-.872-.997-1.734-1.806-1.959-1.149-.314-2.057.45-2.326 1.42-.305 1.104.243 2.003 1.347 2.308.791.216 1.788.009 2.515-.763l.279-1.016zm1.509-11.92.072 3.431-1.15-.314-1.482-3.826 2.569.71zm4.069 8.623c.557.18.997-.126 1.32-.539a1.9 1.9 0 0 1-.817-.063c-.62-.197-1.042-.817-.791-1.599.252-.799 1.015-1.024 1.635-.826.602.189 1.069.88.737 1.922-.288.89-1.141 1.967-2.228 1.545l.144-.449zm2.892.916c.557.18.997-.126 1.32-.539a1.9 1.9 0 0 1-.817-.063c-.62-.197-1.042-.817-.79-1.599.251-.799 1.015-1.023 1.634-.826.602.189 1.069.88.737 1.922-.288.89-1.141 1.968-2.237 1.545l.144-.449z"/>
    <path fill="#EF4B23" d="M54.942 58.604c.557-.162.755-.665.79-1.186-.215.189-.44.323-.709.404-.629.189-1.32-.099-1.554-.88-.242-.809.26-1.42.89-1.599.601-.18 1.374.126 1.688 1.177.26.898.162 2.263-.979 2.533l-.134-.45zm2.91-.863c.558-.161.755-.664.791-1.185-.215.188-.44.323-.71.404-.628.188-1.32-.099-1.553-.88-.243-.809.26-1.42.889-1.6.602-.179 1.374.127 1.689 1.178.26.898.161 2.263-.98 2.532l-.134-.449zm12.899-4.455-1.572 2.03c-.71-.781-1.67-1.204-2.793-.907-2.937.772-3.072 4.59-2.452 6.943.62 2.371 2.694 5.57 5.604 4.806 1.042-.27 1.896-1.051 2.138-2.156l-.736-2.82-3.459.907-.592-2.255 5.712-1.5 1.59 6.054c-1.024 1.985-1.76 3.404-4.177 4.042-4.31 1.132-7.473-2.263-8.524-6.26-1.086-4.132.036-8.893 4.303-10.016 2.012-.53 3.727.036 4.958 1.141zm2.291-2.928c.817-.189 1.49.225 1.68 1.042.197.844-.225 1.518-1.043 1.706-.817.19-1.49-.224-1.688-1.068-.19-.818.224-1.491 1.041-1.68zm2.443 16.455-.135-1.383c-1.204-5.165-.719-3.072-1.922-8.228-.126-.52-.207-.889-.494-1.302l2.191-1.707L77.622 64.9l.494 1.302-2.64.611zm10.005-2.2-.098-1.384-.09-.43c-.404 1.248-1.186 2.344-2.596 2.64-1.94.404-3.71-.871-4.383-4.123l-.898-4.347c-.108-.521-.189-.89-.467-1.312l2.236-1.652 1.437 6.925c.369 1.76 1.276 2.569 2.138 2.39 1.33-.28 1.58-2.498 1.734-4.393l-.683-3.297c-.108-.52-.189-.889-.458-1.31l2.228-1.654 2.092 10.078.467 1.312-2.65.548zm-2.245-16.007-1.733 3.72-1.168.242.287-3.423 2.605-.539zm6.898 19.618-2.434-14.56-.413-1.33 2.488-.413.126.763c.673-.799 1.608-1.284 2.596-1.455 3.386-.566 5.541 2.156 6.054 5.174.502 2.991-.665 6.243-3.935 6.79-.97.162-2.012 0-3.045-.511l.863 5.164.413 1.33-2.668.449-.045-1.392zm1.051-7.869c.638.674 1.464 1.105 2.452.943 1.563-.26 2.776-2.102 2.372-4.536-.315-1.868-1.563-3.548-3.504-3.224-.87.143-1.688.781-2.137 1.922l.817 4.904zm14.668.935.045-1.393-.862-8.174c-.054-.53-.099-.907-.332-1.347l2.38-1.428.242 2.317c.647-1.428 1.617-2.281 2.848-2.416 1.976-.207 3.601 1.24 3.952 4.536l.593 5.569.332 1.347-2.695.288.045-1.392-.602-5.668c-.188-1.788-1.015-2.686-1.895-2.596-1.275.135-1.85 2.075-2.2 3.871l.512 4.833.332 1.347-2.695.287zm10.267-1.07.099-1.383-.899-13.563c-.035-.539-.062-.907-.278-1.365l2.434-1.33.512 7.644c.575-1.185 1.491-2.155 2.937-2.254 1.985-.135 3.557 1.383 3.773 4.688l.368 5.596.279 1.366-2.704.18.099-1.384-.378-5.686c-.116-1.796-.907-2.721-1.796-2.667-1.347.09-1.913 2.254-2.326 4.113l.296 4.518.279 1.366-2.704.18zm16.643-1.661a4.9 4.9 0 0 1-2.982 1.131c-2.497.072-3.736-1.742-3.79-3.673-.054-2.057 1.329-4.24 4.087-4.32a4.56 4.56 0 0 1 2.515.7c-.099-1.77-1.195-2.56-2.318-2.524-.817.027-1.643.512-2.083 1.527l-1.887-1.374c1.069-1.716 2.596-2.453 4.087-2.497 2.291-.063 4.437 1.58 4.5 4.006l.18 6.395.224 1.374-2.524.072-.026-.817zm-.089-3.431c-.423-.782-1.464-1.357-2.309-1.339-1.194.036-1.841 1.033-1.814 2.04.036 1.14.826 1.84 1.967 1.813.817-.026 1.716-.512 2.174-1.464l-.027-1.05zm10.248 4.239.198-1.374v-.44c-.665 1.14-1.653 2.039-3.099 2.02-1.985-.017-3.44-1.652-3.404-4.967l.054-4.437c0-.539.009-.907-.171-1.383l2.533-1.14-.081 7.077c-.018 1.797.692 2.785 1.581 2.794 1.356.018 2.075-2.102 2.632-3.917l.036-3.359c0-.539.009-.907-.171-1.383l2.533-1.14-.117 10.302.171 1.383-2.713-.027zm14.408-3 2.722-6.45c.197-.502.314-1.122.17-1.364l2.839.206-4.77 11.354-2.47-.18-3.054-11.928 2.838.206c-.179.225-.152.854-.036 1.383l1.752 6.773zm8.326.953c.467.852 1.267 1.508 2.426 1.643 1.024.117 1.859-.26 2.515-1.24l1.616 1.689c-1.167 1.42-2.748 2.057-4.536 1.86-3.808-.432-5.344-3.81-4.994-6.89.333-2.946 2.47-5.614 6.09-5.2 2.345.269 4.419 2.03 4.114 4.697-.108.97-.746 1.796-2.775 2.317l-4.456 1.141zm3.063-2.938c1.716-.395 1.617-.8 1.644-1.06.117-1.042-.674-1.724-1.698-1.841-2.021-.234-3.242 1.437-3.449 3.27-.018.143-.036.278-.027.421l3.521-.799zm.827-6.063-.432-1.814-.844 1.661-2.479-.278 2.901-2.982 1.186.135 2.156 3.557-2.479-.288zm3.063-5.012.601 3.386-1.185-.134-2.066-3.548zm5.703 19.15.431-1.32 1.464-8.093c.099-.53.162-.899.063-1.393l2.695-.7-.413 2.3c1.024-1.195 2.191-1.743 3.404-1.519 1.958.35 3.117 2.2 2.524 5.47l-.997 5.515-.063 1.393-2.668-.485.432-1.32 1.014-5.606c.324-1.77-.215-2.865-1.086-3.027-1.267-.224-2.354 1.474-3.198 3.1l-.862 4.778-.063 1.392-2.668-.485zm10.105 1.859.485-1.302c1.177-5.174 1.842-8.084 3.018-13.258.117-.52.198-.889.126-1.383l2.722-.584-1.698 7.473c.889-.97 2.048-1.644 3.467-1.32 1.94.44 3.018 2.335 2.281 5.569l-1.239 5.47-.126 1.383-2.641-.602.485-1.302 1.267-5.56c.395-1.751-.09-2.874-.952-3.072-1.321-.296-2.479 1.617-3.404 3.279l-1.006 4.419-.126 1.383-2.641-.602zm16.366 3.207a4.88 4.88 0 0 1-3.18.207c-2.407-.665-3.063-2.758-2.551-4.626.548-1.985 2.515-3.665 5.174-2.928a4.57 4.57 0 0 1 2.2 1.41c.431-1.725-.386-2.794-1.473-3.1-.79-.215-1.724 0-2.443.854l-1.401-1.868c1.527-1.32 3.198-1.59 4.644-1.186 2.209.611 3.781 2.812 3.125 5.156l-1.706 6.17-.189 1.375-2.434-.674.216-.79zm.907-3.305c-.171-.872-.997-1.734-1.806-1.959-1.149-.314-2.057.45-2.326 1.42-.305 1.104.243 2.003 1.347 2.308.791.216 1.788.009 2.515-.763l.279-1.016zm1.509-11.92.072 3.431-1.15-.314-1.482-3.826 2.569.71zm4.069 8.623c.557.18.997-.126 1.32-.539a1.9 1.9 0 0 1-.817-.063c-.62-.197-1.042-.817-.791-1.599.252-.799 1.015-1.024 1.635-.826.602.189 1.069.88.737 1.922-.288.89-1.141 1.967-2.228 1.545l.144-.449zm2.892.916c.557.18.997-.126 1.32-.539a1.9 1.9 0 0 1-.817-.063c-.62-.197-1.042-.817-.79-1.599.251-.799 1.015-1.023 1.634-.826.602.189 1.069.88.737 1.922-.288.89-1.141 1.968-2.237 1.545l.144-.449z"/>
    <path fill="#FFF400" d="M54.942 57.068c.557-.162.755-.665.79-1.186a1.9 1.9 0 0 1-.709.404c-.629.189-1.32-.099-1.554-.88-.242-.808.26-1.42.89-1.599.601-.18 1.374.126 1.688 1.177.26.898.162 2.263-.979 2.533l-.134-.45zm2.91-.863c.558-.161.755-.664.791-1.185a1.9 1.9 0 0 1-.71.404c-.628.188-1.32-.099-1.553-.88-.243-.809.26-1.42.889-1.6.602-.179 1.374.127 1.689 1.177.26.899.161 2.264-.98 2.533l-.134-.449zm12.899-4.455-1.572 2.03c-.71-.781-1.67-1.203-2.793-.907-2.937.772-3.072 4.59-2.452 6.943.62 2.371 2.694 5.57 5.604 4.806 1.042-.27 1.896-1.051 2.138-2.156l-.736-2.82-3.459.907-.592-2.255 5.712-1.5 1.59 6.054c-1.024 1.985-1.76 3.404-4.177 4.042-4.31 1.132-7.473-2.263-8.524-6.26-1.086-4.132.036-8.893 4.303-10.016 2.012-.53 3.727.036 4.958 1.141zm2.291-2.919c.817-.189 1.49.225 1.68 1.042.197.844-.225 1.518-1.043 1.707-.817.188-1.49-.225-1.688-1.07-.19-.817.224-1.49 1.041-1.679zm2.443 16.446-.135-1.383c-1.204-5.165-.719-3.072-1.922-8.228-.126-.52-.207-.889-.494-1.302l2.191-1.707 2.497 10.707.494 1.303-2.64.61zm10.005-2.191-.098-1.383-.09-.432c-.404 1.249-1.186 2.345-2.596 2.641-1.94.404-3.71-.871-4.383-4.123l-.898-4.347c-.108-.521-.189-.89-.467-1.312l2.236-1.652 1.437 6.925c.369 1.76 1.276 2.569 2.138 2.39 1.33-.28 1.58-2.498 1.734-4.393l-.683-3.296c-.108-.521-.189-.89-.458-1.312l2.228-1.653 2.092 10.078.467 1.312-2.65.548zM83.246 47.07l-1.733 3.718-1.168.243.287-3.422 2.605-.54zm6.897 19.618-2.434-14.56-.413-1.33 2.488-.413.126.763c.673-.799 1.608-1.284 2.596-1.455 3.386-.566 5.541 2.156 6.054 5.174.502 2.991-.665 6.243-3.935 6.79-.97.162-2.012 0-3.045-.511l.863 5.164.413 1.33-2.668.449-.045-1.392zm1.051-7.869c.638.674 1.464 1.105 2.452.943 1.563-.26 2.776-2.102 2.372-4.536-.315-1.868-1.563-3.548-3.504-3.224-.87.143-1.688.781-2.137 1.922l.817 4.904zm14.668.934.045-1.392-.862-8.174c-.054-.53-.099-.907-.332-1.347l2.38-1.428.242 2.317c.647-1.428 1.617-2.281 2.848-2.416 1.976-.207 3.601 1.24 3.952 4.536l.593 5.569.332 1.347-2.695.288.045-1.392-.602-5.668c-.188-1.788-1.015-2.686-1.895-2.596-1.275.135-1.85 2.075-2.2 3.871l.512 4.833.332 1.347-2.695.287zm10.267-1.069.099-1.383-.899-13.563c-.035-.539-.062-.907-.278-1.365l2.434-1.33.512 7.644c.575-1.185 1.491-2.155 2.937-2.254 1.985-.135 3.557 1.383 3.773 4.688l.368 5.596.279 1.366-2.704.18.099-1.384-.378-5.686c-.116-1.796-.907-2.721-1.796-2.667-1.347.09-1.913 2.254-2.326 4.113l.296 4.518.279 1.366-2.704.18zm16.643-1.661a4.9 4.9 0 0 1-2.982 1.131c-2.497.072-3.736-1.742-3.79-3.673-.054-2.057 1.329-4.24 4.087-4.32a4.56 4.56 0 0 1 2.515.7c-.099-1.77-1.195-2.56-2.318-2.524-.817.027-1.643.512-2.083 1.527l-1.887-1.374c1.069-1.716 2.596-2.452 4.087-2.497 2.291-.063 4.437 1.58 4.5 4.006l.18 6.395.224 1.374-2.524.072-.026-.817zm-.089-3.431c-.423-.782-1.464-1.357-2.309-1.339-1.194.036-1.841 1.033-1.814 2.04.036 1.14.826 1.84 1.967 1.814.817-.027 1.716-.512 2.174-1.465l-.027-1.05zm10.248 4.239.198-1.374v-.44c-.665 1.14-1.653 2.039-3.099 2.02-1.985-.017-3.44-1.652-3.404-4.966l.054-4.438c0-.539.009-.907-.171-1.383l2.533-1.14-.081 7.077c-.018 1.797.692 2.785 1.581 2.794 1.356.018 2.075-2.102 2.632-3.916l.036-3.36c0-.539.009-.907-.171-1.383l2.533-1.14-.117 10.302.171 1.383-2.713-.027zm14.408-3 2.722-6.45c.197-.502.314-1.122.17-1.364l2.839.206-4.77 11.354-2.47-.18-3.054-11.928 2.838.206c-.179.225-.152.854-.036 1.384l1.752 6.772zm8.326.952c.467.853 1.267 1.51 2.426 1.644 1.024.117 1.859-.26 2.515-1.24l1.616 1.69c-1.167 1.418-2.748 2.056-4.536 1.858-3.808-.43-5.344-3.808-4.994-6.889.333-2.946 2.47-5.614 6.09-5.2 2.345.269 4.419 2.03 4.114 4.697-.108.97-.746 1.796-2.775 2.317l-4.456 1.141zm3.063-2.937c1.716-.395 1.617-.8 1.644-1.06.117-1.042-.674-1.724-1.698-1.841-2.021-.234-3.242 1.437-3.449 3.27-.018.143-.036.278-.027.421l3.521-.799zm.827-6.063-.432-1.814-.844 1.661-2.479-.278 2.901-2.982 1.186.135 2.156 3.557-2.479-.288zm3.063-5.012.601 3.386-1.185-.134-2.066-3.548zm5.703 19.159.431-1.32 1.464-8.093c.099-.53.162-.899.063-1.393l2.695-.7-.413 2.3c1.024-1.195 2.191-1.743 3.404-1.519 1.958.35 3.117 2.2 2.524 5.47l-.997 5.515-.063 1.393-2.668-.485.432-1.32 1.014-5.606c.324-1.77-.215-2.865-1.086-3.027-1.267-.224-2.354 1.473-3.198 3.1l-.862 4.778-.063 1.392-2.668-.485zm10.105 1.85.485-1.302c1.177-5.174 1.842-8.084 3.018-13.258.117-.52.198-.889.126-1.383l2.722-.584-1.698 7.473c.889-.97 2.048-1.643 3.467-1.32 1.94.44 3.018 2.335 2.281 5.569l-1.239 5.47-.126 1.383-2.641-.602.485-1.302 1.267-5.56c.395-1.751-.09-2.874-.952-3.072-1.321-.296-2.479 1.617-3.404 3.279l-1.006 4.419-.126 1.383-2.641-.602zm16.366 3.207a4.87 4.87 0 0 1-3.18.207c-2.407-.665-3.063-2.758-2.551-4.626.548-1.985 2.515-3.665 5.174-2.928a4.6 4.6 0 0 1 2.2 1.41c.431-1.725-.386-2.794-1.473-3.1-.79-.215-1.724 0-2.443.854l-1.401-1.868c1.527-1.32 3.198-1.59 4.644-1.186 2.209.611 3.781 2.812 3.125 5.156l-1.706 6.17-.189 1.375-2.434-.674.216-.79zm.907-3.305c-.171-.872-.997-1.734-1.806-1.959-1.149-.314-2.057.45-2.326 1.42-.305 1.104.243 2.003 1.347 2.308.791.216 1.788.009 2.515-.763l.279-1.016zm1.509-11.91.072 3.43-1.15-.314-1.482-3.826 2.569.71zm4.069 8.613c.557.18.997-.126 1.32-.539a1.9 1.9 0 0 1-.817-.063c-.62-.197-1.042-.817-.791-1.599.252-.799 1.015-1.023 1.635-.826.602.189 1.069.88.737 1.922-.288.89-1.141 1.967-2.228 1.545l.144-.449zm2.892.916c.557.18.997-.126 1.32-.539a1.9 1.9 0 0 1-.817-.063c-.62-.197-1.042-.817-.79-1.598.251-.8 1.015-1.024 1.634-.827.602.189 1.069.88.737 1.922-.288.89-1.141 1.968-2.237 1.545l.144-.449z"/>
  </g>
  <defs>
    <clipPath id="a">
      <path fill="#fff" d="M0 0h271v103H0z"/>
    </clipPath>
  </defs>
</svg>
