<svg xmlns="http://www.w3.org/2000/svg" width="244" height="103" fill="none" viewBox="0 0 244 103" xmlns:xlink="http://www.w3.org/1999/xlink">
  <g clip-path="url(#a)">
    <path fill="#D61313" d="M125.976 1.716C59.301 1.716 9.847 25.899 9.847 25.899L36.14 92.8c33.252-12.05 63.462-16.055 88.951-16.055 50.763 0 82.805 15.907 82.805 15.907l26.239-67.103C196.46 7.69 159.092 1.716 125.967 1.725z"/>
    <g style="mix-blend-mode:multiply">
      <mask id="b" width="226" height="92" x="9" y="1" maskUnits="userSpaceOnUse" style="mask-type:luminance">
        <path fill="#fff" d="M125.976 1.716C59.301 1.716 9.847 25.899 9.847 25.899L36.14 92.8c33.252-12.05 63.462-16.055 88.951-16.055 50.763 0 82.805 15.907 82.805 15.907l26.239-67.103C196.46 7.69 159.092 1.716 125.967 1.725z"/>
      </mask>
      <g fill="#F56D27" mask="url(#b)">
        <path d="M9.847 86.686c4.983 0 9.026 4.143 9.026 9.248-4.982 0-9.026-4.143-9.026-9.248m18.053 0c0 5.105-4.044 9.248-9.027 9.248 0-5.105 4.044-9.248 9.026-9.248Zm0 0c-4.983 0-9.027-4.143-9.027-9.248 4.983 0 9.026 4.143 9.026 9.248Z"/>
        <path d="M18.873 77.438c0 5.105-4.043 9.248-9.026 9.248 0-5.105 4.044-9.248 9.026-9.248m27.078 9.248c0 5.105-4.043 9.248-9.026 9.248 0-5.105 4.044-9.248 9.026-9.248m0 0c-4.982 0-9.026-4.143-9.026-9.248 4.983 0 9.026 4.143 9.026 9.248m-9.026-9.248c0 5.105-4.043 9.248-9.026 9.248 0-5.105 4.044-9.248 9.026-9.248M27.9 86.686c4.982 0 9.025 4.143 9.025 9.248-4.982 0-9.026-4.143-9.026-9.248Zm36.103 0c0 5.105-4.043 9.248-9.026 9.248 0-5.105 4.044-9.248 9.026-9.248"/>
        <path d="M54.977 77.438c0 5.105-4.043 9.248-9.026 9.248 0-5.105 4.044-9.248 9.026-9.248m-9.026 9.248c4.983 0 9.026 4.143 9.026 9.248-4.982 0-9.026-4.143-9.026-9.248m18.052 0c-4.982 0-9.026-4.143-9.026-9.248 4.983 0 9.026 4.143 9.026 9.248m0 0c4.983 0 9.026 4.143 9.026 9.248-4.982 0-9.026-4.143-9.026-9.248m9.027-9.248c0 5.105-4.044 9.248-9.027 9.248 0-5.105 4.044-9.248 9.026-9.248Zm9.025 9.248c0 5.105-4.043 9.239-9.026 9.248 0-5.105 4.044-9.248 9.026-9.248"/>
        <path d="M82.055 86.686c-4.982 0-9.026-4.143-9.026-9.248 4.983 0 9.026 4.143 9.026 9.248m9.026-9.248c0 5.105-4.043 9.248-9.026 9.248 0-5.105 4.044-9.248 9.026-9.248m-9.026 9.248c4.983 0 9.026 4.143 9.026 9.248-4.982 0-9.017-4.143-9.026-9.248m18.052 0c0 5.105-4.043 9.248-9.026 9.248 0-5.105 4.044-9.248 9.026-9.248m0 0c-4.982 0-9.026-4.143-9.026-9.248 4.983 0 9.026 4.143 9.026 9.248m18.052 0c-4.982 0-9.026-4.143-9.026-9.248 4.983 0 9.026 4.143 9.026 9.248m-9.026-9.248c0 5.105-4.043 9.248-9.026 9.248 0-5.105 4.044-9.248 9.026-9.248m-9.026 9.248c4.983 0 9.026 4.143 9.026 9.248-4.982 0-9.026-4.143-9.026-9.248m18.052 0c0 5.105-4.043 9.248-9.026 9.248 0-5.105 4.044-9.248 9.026-9.248m9.026-9.248c0 5.105-4.043 9.248-9.026 9.248 0-5.105 4.044-9.248 9.026-9.248m9.026 9.248c-4.982 0-9.026-4.143-9.026-9.248 4.983 0 9.026 4.143 9.026 9.248m0 0c0 5.105-4.043 9.239-9.026 9.248 0-5.105 4.044-9.248 9.026-9.248m-18.052 0c4.983 0 9.026 4.143 9.026 9.248-4.982 0-9.026-4.143-9.026-9.248m36.104 0c-4.982 0-9.026-4.143-9.026-9.248 4.983 0 9.026 4.143 9.026 9.248m0 0c0 5.105-4.043 9.248-9.026 9.248 0-5.105 4.044-9.248 9.026-9.248"/>
        <path d="M145.237 77.438c0 5.105-4.043 9.248-9.026 9.248 0-5.105 4.044-9.248 9.026-9.248m-9.026 9.248c4.983 0 9.026 4.143 9.026 9.248-4.982 0-9.017-4.143-9.026-9.248m18.052 0c4.983 0 9.026 4.143 9.026 9.248-4.982 0-9.026-4.143-9.026-9.248m9.026-9.248c0 5.105-4.043 9.248-9.026 9.248 0-5.105 4.044-9.248 9.026-9.248m9.026 9.248c-4.982 0-9.026-4.143-9.026-9.248 4.983 0 9.026 4.143 9.026 9.248m0 0c0 5.105-4.043 9.248-9.026 9.248 0-5.105 4.044-9.248 9.026-9.248m18.052 0c-4.982 0-9.026-4.143-9.026-9.248 4.983 0 9.026 4.143 9.026 9.248"/>
        <path d="M181.341 77.438c0 5.105-4.043 9.248-9.026 9.248 0-5.105 4.044-9.248 9.026-9.248m-9.026 9.248c4.983 0 9.026 4.143 9.026 9.248-4.982 0-9.026-4.143-9.026-9.248"/>
        <path d="M190.367 86.686c0 5.105-4.043 9.248-9.026 9.248 0-5.105 4.044-9.248 9.026-9.248m9.026-9.248c0 5.105-4.043 9.248-9.026 9.248 0-5.105 4.044-9.248 9.026-9.248m9.026 9.248c0 5.105-4.043 9.248-9.026 9.248 0-5.105 4.044-9.248 9.026-9.248m0 0c-4.982 0-9.026-4.143-9.026-9.248 4.983 0 9.026 4.143 9.026 9.248m-18.052 0c4.983 0 9.026 4.143 9.026 9.248-4.982 0-9.026-4.143-9.026-9.248m36.105 0c0 5.105-4.044 9.248-9.026 9.248 0-5.105 4.043-9.248 9.026-9.248m-18.053 0c4.983 0 9.026 4.143 9.026 9.248-4.982 0-9.026-4.143-9.026-9.248"/>
        <path d="M217.436 77.438c0 5.105-4.043 9.248-9.026 9.248 0-5.105 4.044-9.248 9.026-9.248m9.036 9.248c-4.983 0-9.026-4.143-9.026-9.248 4.982 0 9.026 4.143 9.026 9.248m-.001 0c4.983 0 9.026 4.143 9.026 9.248-4.982 0-9.026-4.143-9.026-9.248"/>
        <path d="M235.488 77.438c0 5.105-4.043 9.248-9.026 9.248 0-5.105 4.044-9.248 9.026-9.248M27.9 68.19c-4.983 0-9.027-4.143-9.027-9.248 4.983 0 9.026 4.143 9.026 9.248Z"/>
        <path d="M18.873 58.942c0 5.105-4.043 9.248-9.026 9.248 0-5.105 4.044-9.248 9.026-9.248M27.9 68.19c0 5.105-4.044 9.248-9.027 9.248 0-5.105 4.044-9.248 9.026-9.248Zm-18.053 0c4.983 0 9.026 4.143 9.026 9.248-4.982 0-9.026-4.143-9.026-9.248"/>
        <path d="M27.9 68.19c4.982 0 9.025 4.143 9.025 9.248-4.982 0-9.026-4.143-9.026-9.248Zm9.025-9.248c0 5.105-4.043 9.248-9.026 9.248 0-5.105 4.044-9.248 9.026-9.248m9.026 9.248c0 5.105-4.043 9.248-9.026 9.248 0-5.105 4.044-9.248 9.026-9.248m0 0c-4.982 0-9.026-4.143-9.026-9.248 4.983 0 9.026 4.143 9.026 9.248m0 0c4.983 0 9.026 4.143 9.026 9.248-4.982 0-9.026-4.143-9.026-9.248m18.052 0c0 5.105-4.043 9.248-9.026 9.248 0-5.105 4.044-9.248 9.026-9.248m0 0c-4.982 0-9.026-4.143-9.026-9.248 4.983 0 9.026 4.143 9.026 9.248"/>
        <path d="M54.977 58.942c0 5.105-4.043 9.248-9.026 9.248 0-5.105 4.044-9.248 9.026-9.248m18.053 0c0 5.105-4.044 9.248-9.027 9.248 0-5.105 4.044-9.248 9.026-9.248Zm9.025 9.248c0 5.105-4.043 9.248-9.026 9.248 0-5.105 4.044-9.248 9.026-9.248m-18.052 0c4.983 0 9.026 4.143 9.026 9.248-4.982 0-9.026-4.143-9.026-9.248"/>
        <path d="M82.055 68.19c-4.982 0-9.026-4.143-9.026-9.248 4.983 0 9.026 4.143 9.026 9.248m9.026-9.248c0 5.105-4.043 9.248-9.026 9.248 0-5.105 4.044-9.248 9.026-9.248m9.026 9.248c0 5.105-4.043 9.248-9.026 9.248 0-5.105 4.044-9.248 9.026-9.248m-18.052 0c4.983 0 9.026 4.143 9.026 9.248-4.982 0-9.026-4.143-9.026-9.248m18.052 0c-4.982 0-9.026-4.143-9.026-9.248 4.983 0 9.026 4.143 9.026 9.248m9.026-9.248c0 5.105-4.043 9.248-9.026 9.248 0-5.105 4.044-9.248 9.026-9.248m9.026 9.248c0 5.105-4.043 9.248-9.026 9.248 0-5.105 4.044-9.248 9.026-9.248m-18.052 0c4.983 0 9.026 4.143 9.026 9.248-4.982 0-9.026-4.143-9.026-9.248m18.052 0c-4.982 0-9.026-4.143-9.026-9.248 4.983 0 9.026 4.143 9.026 9.248m18.052 0c-4.982 0-9.026-4.143-9.026-9.248 4.983 0 9.026 4.143 9.026 9.248m0 0c0 5.105-4.043 9.248-9.026 9.248 0-5.105 4.044-9.248 9.026-9.248m-18.052 0c4.983 0 9.026 4.143 9.026 9.248-4.982 0-9.026-4.143-9.026-9.248m9.026-9.248c0 5.105-4.043 9.248-9.026 9.248 0-5.105 4.044-9.248 9.026-9.248m18.052 0c0 5.105-4.043 9.248-9.026 9.248 0-5.105 4.044-9.248 9.026-9.248m-9.026 9.248c4.983 0 9.026 4.143 9.026 9.248-4.982 0-9.026-4.143-9.026-9.248m18.052 0c-4.982 0-9.026-4.143-9.026-9.248 4.983 0 9.026 4.143 9.026 9.248m0 0c0 5.105-4.043 9.248-9.026 9.248 0-5.105 4.044-9.248 9.026-9.248m18.052 0c-4.982 0-9.026-4.143-9.026-9.248 4.983 0 9.026 4.143 9.026 9.248m-9.026-9.248c0 5.105-4.043 9.248-9.026 9.248 0-5.105 4.044-9.248 9.026-9.248m9.026 9.248c0 5.105-4.043 9.248-9.026 9.248 0-5.105 4.044-9.248 9.026-9.248"/>
        <path d="M154.263 68.19c4.983 0 9.026 4.143 9.026 9.248-4.982 0-9.026-4.143-9.026-9.248m36.104 0c0 5.105-4.043 9.248-9.026 9.248 0-5.105 4.044-9.248 9.026-9.248m0 0c-4.982 0-9.026-4.143-9.026-9.248 4.983 0 9.026 4.143 9.026 9.248"/>
        <path d="M172.315 68.19c4.983 0 9.026 4.143 9.026 9.248-4.982 0-9.026-4.143-9.026-9.248m9.026-9.248c0 5.105-4.043 9.248-9.026 9.248 0-5.105 4.044-9.248 9.026-9.248m18.043 0c0 5.105-4.043 9.248-9.026 9.248 0-5.105 4.044-9.248 9.026-9.248m-9.017 9.248c4.983 0 9.026 4.143 9.026 9.248-4.982 0-9.026-4.143-9.026-9.248m18.052 0c-4.982 0-9.026-4.143-9.026-9.248 4.983 0 9.026 4.143 9.026 9.248m0 0c0 5.105-4.043 9.248-9.026 9.248 0-5.105 4.044-9.248 9.026-9.248"/>
        <path d="M217.436 58.942c0 5.105-4.043 9.248-9.026 9.248 0-5.105 4.044-9.248 9.026-9.248m9.036 9.248c-4.983 0-9.026-4.143-9.026-9.248 4.982 0 9.026 4.143 9.026 9.248m0 0c0 5.105-4.044 9.248-9.026 9.248 0-5.105 4.043-9.248 9.026-9.248m-18.053 0c4.983 0 9.026 4.143 9.026 9.248-4.982 0-9.026-4.143-9.026-9.248"/>
        <path d="M226.471 68.19c4.983 0 9.026 4.143 9.026 9.248-4.982 0-9.026-4.143-9.026-9.248m9.017-9.248c0 5.105-4.043 9.248-9.026 9.248 0-5.105 4.044-9.248 9.026-9.248M27.9 49.694c-4.983 0-9.027-4.143-9.027-9.248 4.983 0 9.026 4.143 9.026 9.248Zm-9.027 9.248c-4.982 0-9.026-4.143-9.026-9.248 4.983 0 9.026 4.143 9.026 9.248"/>
        <path d="M18.873 40.446c0 5.105-4.043 9.248-9.026 9.248 0-5.105 4.044-9.248 9.026-9.248m9.027 9.248c0 5.105-4.044 9.248-9.027 9.248 0-5.105 4.044-9.248 9.026-9.248Z"/>
        <path d="M27.9 49.694c4.982 0 9.025 4.143 9.025 9.248-4.982 0-9.026-4.143-9.026-9.248Zm18.051 0c0 5.105-4.043 9.248-9.026 9.248 0-5.105 4.044-9.248 9.026-9.248m0 0c-4.982 0-9.026-4.143-9.026-9.248 4.983 0 9.026 4.143 9.026 9.248m-9.026-9.248c0 5.105-4.043 9.248-9.026 9.248 0-5.105 4.044-9.248 9.026-9.248m27.078 9.248c0 5.105-4.043 9.248-9.026 9.248 0-5.105 4.044-9.248 9.026-9.248m-9.026-9.248c0 5.105-4.043 9.248-9.026 9.248 0-5.105 4.044-9.248 9.026-9.248m9.026 9.248c-4.982 0-9.026-4.143-9.026-9.248 4.983 0 9.026 4.143 9.026 9.248m-18.052 0c4.983 0 9.026 4.143 9.026 9.248-4.982 0-9.026-4.143-9.026-9.248m36.104 0c-4.982 0-9.026-4.143-9.026-9.248 4.983 0 9.026 4.143 9.026 9.248"/>
        <path d="M73.03 40.446c0 5.105-4.044 9.248-9.027 9.248 0-5.105 4.044-9.248 9.026-9.248Zm-9.027 9.248c4.983 0 9.026 4.143 9.026 9.248-4.982 0-9.026-4.143-9.026-9.248m18.052 0c0 5.105-4.043 9.248-9.026 9.248 0-5.105 4.044-9.248 9.026-9.248m18.052 0c-4.982 0-9.026-4.143-9.026-9.248 4.983 0 9.026 4.143 9.026 9.248m-9.026-9.248c0 5.105-4.043 9.248-9.026 9.248 0-5.105 4.044-9.248 9.026-9.248m9.026 9.248c0 5.105-4.043 9.248-9.026 9.248 0-5.105 4.044-9.248 9.026-9.248m-18.052 0c4.983 0 9.026 4.143 9.026 9.248-4.982 0-9.026-4.143-9.026-9.248m36.104 0c0 5.105-4.043 9.248-9.026 9.248 0-5.105 4.044-9.248 9.026-9.248m-18.052 0c4.983 0 9.026 4.143 9.026 9.248-4.982 0-9.026-4.143-9.026-9.248m18.052 0c-4.982 0-9.026-4.143-9.026-9.248 4.983 0 9.026 4.143 9.026 9.248m-9.026-9.248c0 5.105-4.043 9.248-9.026 9.248 0-5.105 4.044-9.248 9.026-9.248m18.052 0c0 5.105-4.043 9.248-9.026 9.248 0-5.105 4.044-9.248 9.026-9.248m9.026 9.248c-4.982 0-9.026-4.143-9.026-9.248 4.983 0 9.026 4.143 9.026 9.248m0 0c0 5.105-4.043 9.248-9.026 9.248 0-5.105 4.044-9.248 9.026-9.248m-18.052 0c4.983 0 9.026 4.143 9.026 9.248-4.982 0-9.026-4.143-9.026-9.248m36.104 0c0 5.105-4.043 9.248-9.026 9.248 0-5.105 4.044-9.248 9.026-9.248"/>
        <path d="M136.211 49.694c4.983 0 9.026 4.143 9.026 9.248-4.982 0-9.026-4.143-9.026-9.248m9.026-9.248c0 5.105-4.043 9.248-9.026 9.248 0-5.105 4.044-9.248 9.026-9.248m9.026 9.248c-4.982 0-9.026-4.143-9.026-9.248 4.983 0 9.026 4.143 9.026 9.248m18.052 0c-4.982 0-9.026-4.143-9.026-9.248 4.983 0 9.026 4.143 9.026 9.248"/>
        <path d="M163.28 40.446c0 5.105-4.043 9.248-9.026 9.248 0-5.105 4.044-9.248 9.026-9.248m-9.017 9.248c4.983 0 9.026 4.143 9.026 9.248-4.982 0-9.026-4.143-9.026-9.248"/>
        <path d="M172.315 49.694c0 5.105-4.043 9.248-9.026 9.248 0-5.105 4.044-9.248 9.026-9.248m18.052 0c-4.982 0-9.026-4.143-9.026-9.248 4.983 0 9.026 4.143 9.026 9.248m-9.035-9.248c0 5.105-4.043 9.248-9.026 9.248 0-5.105 4.044-9.248 9.026-9.248m9.035 9.248c0 5.105-4.043 9.248-9.026 9.248 0-5.105 4.044-9.248 9.026-9.248"/>
        <path d="M172.315 49.694c4.983 0 9.026 4.143 9.026 9.248-4.982 0-9.026-4.143-9.026-9.248m18.052 0c4.983 0 9.026 4.143 9.026 9.248-4.982 0-9.026-4.143-9.026-9.248m18.052 0c-4.982 0-9.026-4.143-9.026-9.248 4.983 0 9.026 4.143 9.026 9.248m-9.035-9.248c0 5.105-4.043 9.248-9.026 9.248 0-5.105 4.044-9.248 9.026-9.248m9.035 9.248c0 5.105-4.043 9.248-9.026 9.248 0-5.105 4.044-9.248 9.026-9.248m0 0c4.983 0 9.026 4.143 9.026 9.248-4.982 0-9.026-4.143-9.026-9.248m18.053 0c0 5.105-4.044 9.248-9.026 9.248 0-5.105 4.043-9.248 9.026-9.248m0 0c-4.983 0-9.026-4.143-9.026-9.248 4.982 0 9.026 4.143 9.026 9.248"/>
        <path d="M217.436 40.446c0 5.105-4.043 9.248-9.026 9.248 0-5.105 4.044-9.248 9.026-9.248m18.052 0c0 5.105-4.043 9.248-9.026 9.248 0-5.105 4.044-9.248 9.026-9.248m-9.017 9.248c4.983 0 9.026 4.143 9.026 9.248-4.982 0-9.026-4.143-9.026-9.248M18.882 40.446c0-5.105 4.044-9.248 9.026-9.248 0 5.105-4.043 9.248-9.026 9.248m-.009 0c-4.982 0-9.026-4.143-9.026-9.248 4.983 0 9.026 4.143 9.026 9.248m0-18.496c0 5.105-4.043 9.248-9.026 9.248 0-5.105 4.044-9.248 9.026-9.248"/>
        <path d="M27.9 31.198c-4.983 0-9.027-4.143-9.027-9.248 4.983 0 9.026 4.143 9.026 9.248Zm18.051 0c-4.982 0-9.026-4.143-9.026-9.248 4.983 0 9.026 4.143 9.026 9.248m0 0c0 5.105-4.043 9.248-9.026 9.248 0-5.105 4.044-9.248 9.026-9.248m-9.026 9.248c-4.982 0-9.026-4.143-9.026-9.248 4.983 0 9.026 4.143 9.026 9.248"/>
        <path d="M36.925 21.95c0 5.105-4.043 9.248-9.026 9.248 0-5.105 4.044-9.248 9.026-9.248m18.052 0c0 5.105-4.043 9.248-9.026 9.248 0-5.105 4.044-9.248 9.026-9.248m-9.026 9.248c4.983 0 9.026 4.143 9.026 9.248-4.982 0-9.026-4.143-9.026-9.248m18.052 0c0 5.105-4.043 9.248-9.026 9.248 0-5.105 4.044-9.248 9.026-9.248m0 0c-4.982 0-9.026-4.143-9.026-9.248 4.983 0 9.026 4.143 9.026 9.248m18.052 0c-4.982 0-9.026-4.143-9.026-9.248 4.983 0 9.026 4.143 9.026 9.248m-18.052 0c4.983 0 9.026 4.143 9.026 9.248-4.982 0-9.026-4.143-9.026-9.248m18.052 0c0 5.105-4.043 9.248-9.026 9.248 0-5.105 4.044-9.248 9.026-9.248"/>
        <path d="M73.03 21.95c0 5.105-4.044 9.248-9.027 9.248 0-5.105 4.044-9.248 9.026-9.248Zm9.025 9.248c4.983 0 9.026 4.143 9.026 9.248-4.982 0-9.026-4.143-9.026-9.248m9.026-9.248c0 5.105-4.043 9.248-9.026 9.248 0-5.105 4.044-9.248 9.026-9.248m9.026 9.248c-4.982 0-9.026-4.143-9.026-9.248 4.983 0 9.026 4.143 9.026 9.248m0 0c0 5.105-4.043 9.248-9.026 9.248 0-5.105 4.044-9.248 9.026-9.248m18.052 0c0 5.105-4.043 9.248-9.026 9.248 0-5.105 4.044-9.248 9.026-9.248m-18.052 0c4.983 0 9.026 4.143 9.026 9.248-4.982 0-9.026-4.143-9.026-9.248m18.052 0c-4.982 0-9.026-4.143-9.026-9.248 4.983 0 9.026 4.143 9.026 9.248m-9.026-9.248c0 5.105-4.043 9.248-9.026 9.248 0-5.105 4.044-9.248 9.026-9.248m27.078 9.248c0 5.105-4.043 9.248-9.026 9.248 0-5.105 4.044-9.248 9.026-9.248m-18.052 0c4.983 0 9.026 4.143 9.026 9.248-4.982 0-9.026-4.143-9.026-9.248m18.052 0c-4.982 0-9.026-4.143-9.026-9.248 4.983 0 9.026 4.143 9.026 9.248m-9.026-9.248c0 5.105-4.043 9.248-9.026 9.248 0-5.105 4.044-9.248 9.026-9.248m18.052 0c0 5.105-4.043 9.248-9.026 9.248 0-5.105 4.044-9.248 9.026-9.248m9.026 9.248c0 5.105-4.043 9.248-9.026 9.248 0-5.105 4.044-9.248 9.026-9.248m0 0c-4.982 0-9.026-4.143-9.026-9.248 4.983 0 9.026 4.143 9.026 9.248"/>
        <path d="M136.211 31.198c4.983 0 9.026 4.143 9.026 9.248-4.982 0-9.026-4.143-9.026-9.248m27.078-9.248c0 5.105-4.043 9.248-9.026 9.248 0-5.105 4.044-9.248 9.026-9.248m9.026 9.248c0 5.105-4.043 9.248-9.026 9.248 0-5.105 4.044-9.248 9.026-9.248m0 0c-4.982 0-9.026-4.143-9.026-9.248 4.983 0 9.026 4.143 9.026 9.248m-18.052 0c4.983 0 9.026 4.143 9.026 9.248-4.982 0-9.026-4.143-9.026-9.248m36.104 0c0 5.105-4.043 9.248-9.026 9.248 0-5.105 4.044-9.248 9.026-9.248"/>
        <path d="M172.315 31.198c4.983 0 9.026 4.143 9.026 9.248-4.982 0-9.026-4.143-9.026-9.248m18.052 0c-4.982 0-9.026-4.143-9.026-9.248 4.983 0 9.026 4.143 9.026 9.248"/>
        <path d="M181.341 21.95c0 5.105-4.043 9.248-9.026 9.248 0-5.105 4.044-9.248 9.026-9.248m27.078 9.248c-4.982 0-9.026-4.143-9.026-9.248 4.983 0 9.026 4.143 9.026 9.248m0 0c0 5.105-4.043 9.248-9.026 9.248 0-5.105 4.044-9.248 9.026-9.248m-9.035-9.248c0 5.105-4.043 9.248-9.026 9.248 0-5.105 4.044-9.248 9.026-9.248m-9.017 9.248c4.983 0 9.026 4.143 9.026 9.248-4.982 0-9.026-4.143-9.026-9.248m36.095 0c0 5.105-4.043 9.248-9.026 9.248 0-5.105 4.044-9.248 9.026-9.248"/>
        <path d="M217.436 21.95c0 5.105-4.043 9.248-9.026 9.248 0-5.105 4.044-9.248 9.026-9.248m9.036 9.248c-4.983 0-9.026-4.143-9.026-9.248 4.982 0 9.026 4.143 9.026 9.248m-18.053 0c4.983 0 9.026 4.143 9.026 9.248-4.982 0-9.026-4.143-9.026-9.248"/>
        <path d="M235.488 21.95c0 5.105-4.043 9.248-9.026 9.248 0-5.105 4.044-9.248 9.026-9.248m-9.017 9.248c4.983 0 9.026 4.143 9.026 9.248-4.982 0-9.026-4.143-9.026-9.248M27.9 12.702c-4.983 0-9.027-4.143-9.027-9.248 4.983 0 9.026 4.144 9.026 9.248Zm-9.027 9.248c-4.982 0-9.026-4.143-9.026-9.248 4.983 0 9.026 4.144 9.026 9.248m0 0c0-5.104 4.044-9.248 9.026-9.248 0 5.105-4.043 9.248-9.026 9.248"/>
        <path d="M18.873 3.454c0 5.105-4.043 9.248-9.026 9.248 0-5.104 4.044-9.248 9.026-9.248M36.925 21.95c0-5.104 4.044-9.248 9.026-9.248 0 5.105-4.043 9.248-9.026 9.248m9.026-9.248c-4.982 0-9.026-4.143-9.026-9.248 4.983 0 9.026 4.144 9.026 9.248m-9.026 9.248c-4.982 0-9.026-4.143-9.026-9.248 4.983 0 9.026 4.144 9.026 9.248m0-18.496c0 5.105-4.043 9.248-9.026 9.248 0-5.104 4.044-9.248 9.026-9.248M54.977 21.95c-4.982 0-9.026-4.143-9.026-9.248 4.983 0 9.026 4.144 9.026 9.248m9.026-9.248c-4.982 0-9.026-4.143-9.026-9.248 4.983 0 9.026 4.144 9.026 9.248m0 0c0 5.105-4.043 9.248-9.026 9.248 0-5.104 4.044-9.248 9.026-9.248m-9.026-9.248c0 5.105-4.043 9.248-9.026 9.248 0-5.104 4.044-9.248 9.026-9.248m9.026 9.248c4.983 0 9.026 4.144 9.026 9.248-4.982 0-9.026-4.143-9.026-9.248m18.052 0c-4.982 0-9.026-4.143-9.026-9.248 4.983 0 9.026 4.144 9.026 9.248"/>
        <path d="M73.03 3.454c0 5.105-4.044 9.248-9.027 9.248 0-5.104 4.044-9.248 9.026-9.248Zm9.025 9.248c0 5.105-4.043 9.248-9.026 9.248 0-5.104 4.044-9.248 9.026-9.248m0 0c4.983 0 9.026 4.144 9.026 9.248-4.982 0-9.026-4.143-9.026-9.248m18.052 0c-4.982 0-9.026-4.143-9.026-9.248 4.983 0 9.026 4.144 9.026 9.248m0 0c0 5.105-4.043 9.248-9.026 9.248 0-5.104 4.044-9.248 9.026-9.248m-9.026-9.248c0 5.105-4.043 9.248-9.026 9.248 0-5.104 4.044-9.248 9.026-9.248m9.026 9.248c4.983 0 9.026 4.144 9.026 9.248-4.982 0-9.026-4.143-9.026-9.248m18.052 0c0 5.105-4.043 9.248-9.026 9.248 0-5.104 4.044-9.248 9.026-9.248m-9.026-9.248c0 5.105-4.043 9.248-9.026 9.248 0-5.104 4.044-9.248 9.026-9.248m9.026 9.248c-4.982 0-9.026-4.143-9.026-9.248 4.983 0 9.026 4.144 9.026 9.248m0 0c4.983 0 9.026 4.144 9.026 9.248-4.982 0-9.026-4.143-9.026-9.248m18.052 0c0 5.105-4.043 9.248-9.026 9.248 0-5.104 4.044-9.248 9.026-9.248m-9.026-9.248c0 5.105-4.043 9.248-9.026 9.248 0-5.104 4.044-9.248 9.026-9.248m9.026 9.248c-4.982 0-9.026-4.143-9.026-9.248 4.983 0 9.026 4.144 9.026 9.248m0 0c4.983 0 9.026 4.144 9.026 9.248-4.982 0-9.026-4.143-9.026-9.248m18.052 0c0 5.105-4.043 9.248-9.026 9.248 0-5.104 4.044-9.248 9.026-9.248m-9.026-9.248c0 5.105-4.043 9.248-9.026 9.248 0-5.104 4.044-9.248 9.026-9.248m9.026 9.248c-4.982 0-9.026-4.143-9.026-9.248 4.983 0 9.026 4.144 9.026 9.248m18.052 0c0 5.105-4.043 9.248-9.026 9.248 0-5.104 4.044-9.248 9.026-9.248m0 0c-4.982 0-9.026-4.143-9.026-9.248 4.983 0 9.026 4.144 9.026 9.248"/>
        <path d="M163.289 3.454c0 5.105-4.043 9.248-9.026 9.248 0-5.104 4.044-9.248 9.026-9.248m-9.026 9.248c4.983 0 9.026 4.144 9.026 9.248-4.982 0-9.026-4.143-9.026-9.248m27.069-9.248c0 5.105-4.043 9.248-9.026 9.248 0-5.104 4.044-9.248 9.026-9.248m9.035 9.248c0 5.105-4.043 9.248-9.026 9.248 0-5.104 4.044-9.248 9.026-9.248m0 0c-4.982 0-9.026-4.143-9.026-9.248 4.983 0 9.026 4.144 9.026 9.248"/>
        <path d="M172.315 12.702c4.983 0 9.026 4.144 9.026 9.248-4.982 0-9.026-4.143-9.026-9.248m36.104 0c-4.982 0-9.026-4.143-9.026-9.248 4.983 0 9.026 4.144 9.026 9.248m0 0c0 5.105-4.043 9.248-9.026 9.248 0-5.104 4.044-9.248 9.026-9.248m-9.035-9.248c0 5.105-4.043 9.248-9.026 9.248 0-5.104 4.044-9.248 9.026-9.248m-9.017 9.248c4.983 0 9.026 4.144 9.026 9.248-4.982 0-9.026-4.143-9.026-9.248m18.052 0c4.983 0 9.026 4.144 9.026 9.248-4.982 0-9.026-4.143-9.026-9.248"/>
        <path d="M217.436 3.454c0 5.105-4.043 9.248-9.026 9.248 0-5.104 4.044-9.248 9.026-9.248m.01 18.496c0-5.104 4.043-9.248 9.026-9.248 0 5.105-4.044 9.248-9.026 9.248m0-18.496c4.982 0 9.026 4.144 9.026 9.248-4.983 0-9.026-4.143-9.026-9.248"/>
        <path d="M226.471 12.702c4.983 0 9.026 4.144 9.026 9.248-4.982 0-9.026-4.143-9.026-9.248m9.017-9.248c0 5.105-4.043 9.248-9.026 9.248 0-5.104 4.044-9.248 9.026-9.248m-216.606 0c0-5.104 4.044-9.247 9.026-9.247 0 5.104-4.043 9.247-9.026 9.247m-.009 0c-4.982 0-9.026-4.143-9.026-9.247 4.983 0 9.026 4.143 9.026 9.247"/>
        <path d="M36.925 3.454c-4.982 0-9.026-4.143-9.026-9.247 4.983 0 9.026 4.143 9.026 9.247m0 0c0-5.104 4.044-9.247 9.026-9.247 0 5.104-4.043 9.247-9.026 9.247m18.052 0c0-5.104 4.044-9.247 9.026-9.247 0 5.104-4.043 9.247-9.026 9.247m0 0c-4.982 0-9.026-4.143-9.026-9.247 4.983 0 9.026 4.143 9.026 9.247m18.053 0c-4.983 0-9.027-4.143-9.027-9.247 4.983 0 9.026 4.143 9.026 9.247Z"/>
        <path d="M82.055-5.793c0 5.104-4.043 9.247-9.026 9.247 0-5.104 4.044-9.247 9.026-9.247m18.052 0c0 5.104-4.043 9.247-9.026 9.247 0-5.104 4.044-9.247 9.026-9.247m-18.052.009c4.983 0 9.026 4.143 9.026 9.248-4.982 0-9.026-4.143-9.026-9.248m36.104-.009c0 5.104-4.043 9.247-9.026 9.247 0-5.104 4.044-9.247 9.026-9.247m-18.052 0c4.983 0 9.026 4.143 9.026 9.247-4.982 0-9.026-4.143-9.026-9.247m18.052 0c4.983 0 9.026 4.143 9.026 9.247-4.982 0-9.026-4.143-9.026-9.247m18.052 0c0 5.104-4.043 9.247-9.026 9.247 0-5.104 4.044-9.247 9.026-9.247m0 .009c4.983 0 9.026 4.143 9.026 9.248-4.982 0-9.026-4.143-9.026-9.248m18.052-.009c0 5.104-4.043 9.247-9.026 9.247 0-5.104 4.044-9.247 9.026-9.247m18.052 0c0 5.104-4.043 9.247-9.026 9.247 0-5.104 4.044-9.247 9.026-9.247"/>
        <path d="M154.263-5.793c4.983 0 9.026 4.143 9.026 9.247-4.982 0-9.026-4.143-9.026-9.247m36.104 0c0 5.104-4.043 9.247-9.026 9.247 0-5.104 4.044-9.247 9.026-9.247"/>
        <path d="M172.315-5.793c4.983 0 9.026 4.143 9.026 9.247-4.982 0-9.026-4.143-9.026-9.247m27.078 9.247c0-5.104 4.044-9.247 9.026-9.247 0 5.104-4.043 9.247-9.026 9.247m-9.026-9.247c4.983 0 9.026 4.143 9.026 9.247-4.982 0-9.026-4.143-9.026-9.247m18.052 0c4.983 0 9.026 4.143 9.026 9.247-4.982 0-9.026-4.143-9.026-9.247m9.027 9.247c0-5.104 4.043-9.247 9.026-9.247 0 5.104-4.044 9.247-9.026 9.247"/>
        <path d="M226.471-5.793c4.983 0 9.026 4.143 9.026 9.247-4.982 0-9.026-4.143-9.026-9.247"/>
      </g>
    </g>
    <path stroke="#000" stroke-linecap="round" stroke-linejoin="round" stroke-width=".925" d="M125.813 10.538c32.819 0 64.013 6.603 92.86 19.625L199.61 81.119c-12.555-4.939-38.911-13.206-74.645-13.206-26.753 0-53.75 4.66-80.359 13.853L25.39 30.653c15.227-6.39 53.398-20.115 100.423-20.115"/>
    <path fill="#EF4B23" d="M125.813 10.538c32.819 0 64.013 6.603 92.86 19.625L199.61 81.119c-12.555-4.939-38.911-13.206-74.645-13.206-26.753 0-53.75 4.66-80.359 13.853L25.39 30.653c15.227-6.39 53.398-20.115 100.423-20.115"/>
    <path fill="#C71E11" d="m1.426 22.283-.478-1.489s2.256-3.625 8.024-2.543l.875 1.59z"/>
    <path fill="#EF4B23" d="m10.687 19.102 28.928 74.465-15.876 4.522-23.73-75.38s2.383-3.81 10.678-3.607"/>
    <mask id="c" width="40" height="80" x="0" y="19" maskUnits="userSpaceOnUse" style="mask-type:luminance">
      <path fill="#fff" d="m10.687 19.102 28.928 74.465-15.876 4.522-23.73-75.38s2.383-3.81 10.678-3.607"/>
    </mask>
    <g fill="#F56D27" mask="url(#c)">
      <path d="M30.995 21.377c3.818 0 6.914-3.172 6.914-7.084-3.818 0-6.905 3.172-6.905 7.075z"/>
      <path d="M37.91 14.293c0 3.912 3.095 7.084 6.913 7.084 0-3.912-3.096-7.075-6.905-7.075l-.009-.009Zm0 14.159c3.817 0 6.904-3.172 6.904-7.075-3.818 0-6.914 3.172-6.914 7.084l.01-.01Z"/>
      <path d="M37.91 28.452c0-3.912-3.097-7.084-6.915-7.084 0 3.912 3.096 7.074 6.905 7.074zm0 14.158c0-3.912-3.097-7.084-6.915-7.084 0 3.912 3.096 7.075 6.905 7.075z"/>
      <path d="M30.995 35.536c3.818 0 6.914-3.172 6.914-7.084-3.818 0-6.905 3.172-6.905 7.074zm6.915-7.084c0 3.912 3.095 7.084 6.913 7.084 0-3.912-3.096-7.075-6.905-7.075l-.009-.01Z"/>
      <path d="M37.91 42.61c3.817 0 6.904-3.172 6.904-7.075-3.818 0-6.914 3.173-6.914 7.085z"/>
      <path d="M30.995 49.694c3.818 0 6.914-3.172 6.914-7.084-3.818 0-6.905 3.172-6.905 7.075z"/>
      <path d="M37.91 56.769c0-3.912-3.097-7.084-6.915-7.084 0 3.912 3.096 7.075 6.905 7.075z"/>
      <path d="M37.91 56.769c3.817 0 6.904-3.172 6.904-7.075-3.818 0-6.914 3.172-6.914 7.084l.01-.01Z"/>
      <path d="M37.91 42.61c0 3.912 3.095 7.084 6.913 7.084 0-3.912-3.096-7.075-6.905-7.075l-.009-.009Zm0 28.317c0-3.911-3.097-7.084-6.915-7.084 0 3.912 3.096 7.075 6.905 7.075z"/>
      <path d="M37.91 70.927c3.817 0 6.904-3.172 6.904-7.074-3.818 0-6.914 3.172-6.914 7.084zm-6.915-7.074c3.818 0 6.914-3.172 6.914-7.084-3.818 0-6.905 3.172-6.905 7.075zm6.915-7.084c0 3.912 3.095 7.084 6.913 7.084 0-3.912-3.096-7.075-6.905-7.075l-.009-.01Z"/>
      <path d="M37.91 70.927c0 3.912 3.095 7.084 6.913 7.084 0-3.911-3.096-7.074-6.905-7.074l-.009-.01Z"/>
      <path d="M30.995 78.011c3.818 0 6.914-3.172 6.914-7.084-3.818 0-6.905 3.172-6.905 7.075l-.009.01Z"/>
      <path d="M37.91 85.095c0-3.912-3.097-7.084-6.915-7.084 0 3.912 3.096 7.075 6.905 7.075l.01.01Z"/>
      <path d="M37.91 85.095c3.817 0 6.904-3.172 6.904-7.074-3.818 0-6.914 3.172-6.914 7.084zm0 14.159c0-3.912-3.097-7.084-6.915-7.084 0 3.912 3.096 7.075 6.905 7.075z"/>
      <path d="M30.995 92.17c3.818 0 6.914-3.172 6.914-7.084-3.818 0-6.905 3.172-6.905 7.075z"/>
      <path d="M37.91 85.095c0 3.912 3.095 7.084 6.913 7.084 0-3.912-3.096-7.074-6.905-7.074l-.009-.01Zm0 14.159c3.817 0 6.904-3.172 6.904-7.075-3.818 0-6.914 3.172-6.914 7.084zM17.177 21.377c3.817 0 6.913-3.172 6.913-7.084-3.818 0-6.904 3.172-6.904 7.075l-.01.009Zm6.913 7.075c3.818 0 6.905-3.172 6.905-7.075-3.818 0-6.914 3.172-6.914 7.084l.01-.01Z"/>
      <path d="M24.09 14.293c0 3.912 3.096 7.084 6.914 7.084 0-3.912-3.096-7.075-6.905-7.075zm0 14.159c0-3.912-3.096-7.084-6.913-7.084 0 3.912 3.095 7.074 6.904 7.074l.01.01Zm-6.913 7.084c3.817 0 6.913-3.172 6.913-7.084-3.818 0-6.904 3.172-6.904 7.074l-.01.01Zm6.913 7.074c3.818 0 6.905-3.172 6.905-7.075-3.818 0-6.914 3.173-6.914 7.085l.01-.01Z"/>
      <path d="M24.09 28.452c0 3.912 3.096 7.084 6.914 7.084 0-3.912-3.096-7.075-6.905-7.075l-.009-.01Zm0 14.158c0-3.912-3.096-7.084-6.913-7.084 0 3.912 3.095 7.075 6.904 7.075l.01.01Zm0 14.159c0-3.912-3.096-7.084-6.913-7.084 0 3.912 3.095 7.075 6.904 7.075l.01.009Z"/>
      <path d="M24.09 56.769c3.818 0 6.905-3.172 6.905-7.075-3.818 0-6.914 3.172-6.914 7.084l.01-.01Z"/>
      <path d="M24.09 42.61c0 3.912 3.096 7.084 6.914 7.084 0-3.912-3.096-7.075-6.905-7.075zm-6.913 7.084c3.817 0 6.913-3.172 6.913-7.084-3.818 0-6.904 3.172-6.904 7.075l-.01.01Zm0 14.159c3.817 0 6.913-3.172 6.913-7.084-3.818 0-6.904 3.172-6.904 7.075l-.01.009Z"/>
      <path d="M24.09 56.769c0 3.912 3.096 7.084 6.914 7.084 0-3.912-3.096-7.075-6.905-7.075l-.009-.01Zm0 14.158c0-3.911-3.096-7.084-6.913-7.084 0 3.912 3.095 7.075 6.904 7.075l.01.01Z"/>
      <path d="M24.09 70.927c3.818 0 6.905-3.172 6.905-7.074-3.818 0-6.914 3.172-6.914 7.084l.01-.01Zm0 14.168c0-3.912-3.096-7.084-6.913-7.084 0 3.912 3.095 7.075 6.904 7.075l.01.01Z"/>
      <path d="M17.177 78.011c3.817 0 6.913-3.172 6.913-7.084-3.818 0-6.904 3.172-6.904 7.075l-.01.01Zm6.913 7.084c3.818 0 6.905-3.172 6.905-7.074-3.818 0-6.914 3.172-6.914 7.084l.01-.01Zm0-14.168c0 3.912 3.096 7.084 6.914 7.084 0-3.911-3.096-7.074-6.905-7.074zm0 28.327c3.818 0 6.905-3.172 6.905-7.075-3.818 0-6.914 3.172-6.914 7.084l.01-.009Z"/>
      <path d="M24.09 99.254c0-3.912-3.096-7.084-6.913-7.084 0 3.912 3.095 7.075 6.904 7.075l.01.009Zm0-14.159c0 3.912 3.096 7.084 6.914 7.084 0-3.912-3.096-7.074-6.905-7.074zm-6.913 7.075c3.817 0 6.913-3.172 6.913-7.084-3.818 0-6.904 3.172-6.904 7.075l-.01.009Zm-6.905-63.718c0-3.912-3.096-7.084-6.914-7.084 0 3.912 3.096 7.074 6.905 7.074z"/>
      <path d="M3.358 21.377c3.818 0 6.914-3.172 6.914-7.084-3.818 0-6.905 3.172-6.905 7.075zm6.914 7.075c3.818 0 6.905-3.172 6.905-7.075-3.819 0-6.914 3.172-6.914 7.084l.009-.01Z"/>
      <path d="M10.272 14.293c0 3.912 3.095 7.084 6.914 7.084 0-3.912-3.096-7.075-6.905-7.075l-.01-.009Zm0 28.317c3.818 0 6.905-3.172 6.905-7.075-3.819 0-6.914 3.173-6.914 7.085z"/>
      <path d="M10.272 28.452c0 3.912 3.095 7.084 6.914 7.084 0-3.912-3.096-7.075-6.905-7.075l-.01-.01Zm0 14.158c0-3.912-3.096-7.084-6.914-7.084 0 3.912 3.096 7.075 6.905 7.075z"/>
      <path d="M3.358 35.536c3.818 0 6.914-3.172 6.914-7.084-3.818 0-6.905 3.172-6.905 7.074zm0 14.158c3.818 0 6.914-3.172 6.914-7.084-3.818 0-6.905 3.172-6.905 7.075z"/>
      <path d="M10.263 56.769c0-3.912-3.096-7.084-6.914-7.084 0 3.912 3.096 7.075 6.905 7.075zm.009 0c3.818 0 6.905-3.172 6.905-7.075-3.819 0-6.914 3.172-6.914 7.084l.009-.01Z"/>
      <path d="M10.272 42.61c0 3.912 3.095 7.084 6.914 7.084 0-3.912-3.096-7.075-6.905-7.075l-.01-.009Zm0 28.317c3.818 0 6.905-3.172 6.905-7.074-3.819 0-6.914 3.172-6.914 7.084zm0-14.158c0 3.912 3.095 7.084 6.914 7.084 0-3.912-3.096-7.075-6.905-7.075l-.01-.01Z"/>
      <path d="M3.358 63.853c3.818 0 6.914-3.172 6.914-7.084-3.818 0-6.905 3.172-6.905 7.075z"/>
      <path d="M10.272 70.927c0-3.911-3.096-7.084-6.914-7.084 0 3.912 3.096 7.075 6.905 7.075l.009.01Zm0 14.168c0-3.912-3.096-7.084-6.914-7.084 0 3.912 3.096 7.075 6.905 7.075l.009.01Z"/>
      <path d="M3.358 78.011c3.818 0 6.914-3.172 6.914-7.084-3.818 0-6.905 3.172-6.905 7.075l-.01.01Z"/>
      <path d="M10.272 70.927c0 3.912 3.095 7.084 6.914 7.084 0-3.911-3.096-7.074-6.905-7.074l-.01-.01Zm0 14.168c3.818 0 6.905-3.172 6.905-7.074-3.819 0-6.914 3.172-6.914 7.084zm0 14.159c0-3.912-3.096-7.084-6.914-7.084 0 3.912 3.096 7.075 6.905 7.075z"/>
      <path d="M3.358 92.17c3.818 0 6.914-3.172 6.914-7.084-3.818 0-6.905 3.172-6.905 7.075zm6.914 7.084c3.818 0 6.905-3.172 6.905-7.075-3.819 0-6.914 3.172-6.914 7.084z"/>
      <path d="M10.272 85.095c0 3.912 3.095 7.084 6.914 7.084 0-3.912-3.096-7.074-6.905-7.074l-.01-.01ZM-3.547 14.293c0 3.912 3.096 7.084 6.914 7.084 0-3.912-3.096-7.075-6.905-7.075l-.01-.009Zm0 14.159c3.818 0 6.905-3.172 6.905-7.075-3.818 0-6.914 3.172-6.914 7.084zm0 14.158c3.818 0 6.905-3.172 6.905-7.075-3.818 0-6.914 3.173-6.914 7.085z"/>
      <path d="M-3.547 28.452c0 3.912 3.096 7.084 6.914 7.084 0-3.912-3.096-7.075-6.905-7.075l-.01-.01Zm0 28.317c3.818 0 6.905-3.172 6.905-7.075-3.818 0-6.914 3.172-6.914 7.084z"/>
      <path d="M-3.547 42.61c0 3.912 3.096 7.084 6.914 7.084 0-3.912-3.096-7.075-6.905-7.075l-.01-.009Zm0 28.317c3.818 0 6.905-3.172 6.905-7.074-3.818 0-6.914 3.172-6.914 7.084zm0-14.158c0 3.912 3.096 7.084 6.914 7.084 0-3.912-3.096-7.075-6.905-7.075l-.01-.01Zm0 28.326c3.818 0 6.905-3.172 6.905-7.074-3.818 0-6.914 3.172-6.914 7.084z"/>
      <path d="M-3.547 70.927c0 3.912 3.096 7.084 6.914 7.084 0-3.911-3.096-7.074-6.905-7.074l-.01-.01Zm0 28.327c3.818 0 6.905-3.172 6.905-7.075-3.818 0-6.914 3.172-6.914 7.084zm0-14.159c0 3.912 3.096 7.084 6.914 7.084 0-3.912-3.096-7.074-6.905-7.074l-.01-.01Z"/>
    </g>
    <path fill="#C71E11" d="M32.724 99.708c4.387-1.241 7.475-3.988 6.896-6.134s-4.604-2.88-8.991-1.639c-4.387 1.242-7.474 3.988-6.896 6.135s4.604 2.88 8.991 1.638"/>
    <path fill="#FFF400" d="M30.923 94.14s-6.038 1.998-4.702 5.188c1.146 1.766 4.91 2.534 7.4 1.563 2.492-.971 4.631-2.932 4.514-5.567-.117-1.628-3.078-2.738-7.212-1.184"/>
    <path fill="#C71E11" d="m242.565 22.283.478-1.489s-2.256-3.625-8.024-2.543l-.875 1.59z"/>
    <path fill="#EF4B23" d="m233.304 19.102-28.928 74.465 15.877 4.522 23.729-75.38s-2.383-3.81-10.678-3.607"/>
    <mask id="d" width="40" height="80" x="204" y="19" maskUnits="userSpaceOnUse" style="mask-type:luminance">
      <path fill="#fff" d="m233.304 19.102-28.928 74.465 15.877 4.522 23.729-75.38s-2.383-3.81-10.678-3.607"/>
    </mask>
    <g fill="#F56D27" mask="url(#d)">
      <path d="M212.996 21.377c-3.818 0-6.914-3.172-6.914-7.084 3.818 0 6.905 3.172 6.905 7.075zm-6.914-7.084c0 3.912-3.096 7.084-6.914 7.084 0-3.912 3.096-7.075 6.905-7.075zm.009 14.159c-3.818 0-6.905-3.172-6.905-7.075 3.818 0 6.914 3.172 6.914 7.084l-.009-.01Z"/>
      <path d="M206.091 28.452c0-3.912 3.096-7.084 6.914-7.084 0 3.912-3.096 7.074-6.905 7.074zm0 14.158c0-3.912 3.096-7.084 6.914-7.084 0 3.912-3.096 7.075-6.905 7.075z"/>
      <path d="M212.996 35.536c-3.818 0-6.914-3.172-6.914-7.084 3.818 0 6.905 3.172 6.905 7.074zm-6.914-7.084c0 3.912-3.096 7.084-6.914 7.084 0-3.912 3.096-7.075 6.905-7.075l.009-.01Z"/>
      <path d="M206.091 42.61c-3.818 0-6.905-3.172-6.905-7.075 3.818 0 6.914 3.173 6.914 7.085z"/>
      <path d="M212.996 49.694c-3.818 0-6.914-3.172-6.914-7.084 3.818 0 6.905 3.172 6.905 7.075z"/>
      <path d="M206.091 56.769c0-3.912 3.096-7.084 6.914-7.084 0 3.912-3.096 7.075-6.905 7.075z"/>
      <path d="M206.091 56.769c-3.818 0-6.905-3.172-6.905-7.075 3.818 0 6.914 3.172 6.914 7.084l-.009-.01Z"/>
      <path d="M206.082 42.61c0 3.912-3.096 7.084-6.914 7.084 0-3.912 3.096-7.075 6.905-7.075zm.009 28.317c0-3.911 3.096-7.084 6.914-7.084 0 3.912-3.096 7.075-6.905 7.075z"/>
      <path d="M206.091 70.927c-3.818 0-6.905-3.172-6.905-7.074 3.818 0 6.914 3.172 6.914 7.084zm6.905-7.074c-3.818 0-6.914-3.172-6.914-7.084 3.818 0 6.905 3.172 6.905 7.075zm-6.914-7.084c0 3.912-3.096 7.084-6.914 7.084 0-3.912 3.096-7.075 6.905-7.075z"/>
      <path d="M206.082 70.927c0 3.912-3.096 7.084-6.914 7.084 0-3.911 3.096-7.074 6.905-7.074zm6.914 7.084c-3.818 0-6.914-3.172-6.914-7.084 3.818 0 6.905 3.172 6.905 7.075l.009.01Z"/>
      <path d="M206.091 85.095c0-3.912 3.096-7.084 6.914-7.084 0 3.912-3.096 7.075-6.905 7.075l-.009.01Z"/>
      <path d="M206.091 85.095c-3.818 0-6.905-3.172-6.905-7.074 3.818 0 6.914 3.172 6.914 7.084zm0 14.159c0-3.912 3.096-7.084 6.914-7.084 0 3.912-3.096 7.075-6.905 7.075z"/>
      <path d="M212.996 92.17c-3.818 0-6.914-3.172-6.914-7.084 3.818 0 6.905 3.172 6.905 7.075zm-6.914-7.075c0 3.912-3.096 7.084-6.914 7.084 0-3.912 3.096-7.074 6.905-7.074zm.009 14.159c-3.818 0-6.905-3.172-6.905-7.075 3.818 0 6.914 3.172 6.914 7.084zm20.724-77.877c-3.818 0-6.914-3.172-6.914-7.084 3.818 0 6.905 3.172 6.905 7.075zm-6.905 7.075c-3.818 0-6.905-3.172-6.905-7.075 3.818 0 6.914 3.172 6.914 7.084zm-.01-14.159c0 3.912-3.095 7.084-6.913 7.084 0-3.912 3.095-7.075 6.904-7.075z"/>
      <path d="M219.91 28.452c0-3.912 3.095-7.084 6.913-7.084 0 3.912-3.095 7.074-6.904 7.074zm6.905 7.084c-3.818 0-6.914-3.172-6.914-7.084 3.818 0 6.905 3.172 6.905 7.074zm-6.905 7.074c-3.818 0-6.905-3.172-6.905-7.075 3.818 0 6.914 3.173 6.914 7.085z"/>
      <path d="M219.91 28.452c0 3.912-3.096 7.084-6.914 7.084 0-3.912 3.096-7.075 6.905-7.075l.009-.01Zm0 14.158c0-3.912 3.095-7.084 6.913-7.084 0 3.912-3.095 7.075-6.904 7.075zm0 14.159c0-3.912 3.095-7.084 6.913-7.084 0 3.912-3.095 7.075-6.904 7.075z"/>
      <path d="M219.91 56.769c-3.818 0-6.905-3.172-6.905-7.075 3.818 0 6.914 3.172 6.914 7.084l-.009-.01Z"/>
      <path d="M219.9 42.61c0 3.912-3.095 7.084-6.913 7.084 0-3.912 3.095-7.075 6.904-7.075zm6.915 7.084c-3.818 0-6.914-3.172-6.914-7.084 3.818 0 6.905 3.172 6.905 7.075zm0 14.159c-3.818 0-6.914-3.172-6.914-7.084 3.818 0 6.905 3.172 6.905 7.075zm-6.915-7.084c0 3.912-3.095 7.084-6.913 7.084 0-3.912 3.095-7.075 6.904-7.075z"/>
      <path d="M219.91 70.927c0-3.911 3.095-7.084 6.913-7.084 0 3.912-3.095 7.075-6.904 7.075l-.009.01Z"/>
      <path d="M219.91 70.927c-3.818 0-6.905-3.172-6.905-7.074 3.818 0 6.914 3.172 6.914 7.084zm0 14.168c0-3.912 3.095-7.084 6.913-7.084 0 3.912-3.095 7.075-6.904 7.075l-.009.01Z"/>
      <path d="M226.815 78.011c-3.818 0-6.914-3.172-6.914-7.084 3.818 0 6.905 3.172 6.905 7.075l.009.01Zm-6.905 7.084c-3.818 0-6.905-3.172-6.905-7.074 3.818 0 6.914 3.172 6.914 7.084z"/>
      <path d="M219.91 70.927c0 3.912-3.096 7.084-6.914 7.084 0-3.911 3.096-7.074 6.905-7.074zm0 28.327c-3.818 0-6.905-3.172-6.905-7.075 3.818 0 6.914 3.172 6.914 7.084z"/>
      <path d="M219.91 99.254c0-3.912 3.095-7.084 6.913-7.084 0 3.912-3.095 7.075-6.904 7.075zm0-14.159c0 3.912-3.096 7.084-6.914 7.084 0-3.912 3.096-7.074 6.905-7.074z"/>
      <path d="M226.815 92.17c-3.818 0-6.914-3.172-6.914-7.084 3.818 0 6.905 3.172 6.905 7.075zm6.913-63.718c0-3.912 3.096-7.084 6.914-7.084 0 3.912-3.096 7.074-6.905 7.074z"/>
      <path d="M240.633 21.377c-3.818 0-6.914-3.172-6.914-7.084 3.818 0 6.905 3.172 6.905 7.075zm-6.905 7.075c-3.818 0-6.905-3.172-6.905-7.075 3.818 0 6.914 3.172 6.914 7.084l-.009-.01Zm-.009-14.159c0 3.912-3.096 7.084-6.914 7.084 0-3.912 3.096-7.075 6.905-7.075zm.009 28.317c-3.818 0-6.905-3.172-6.905-7.075 3.818 0 6.914 3.173 6.914 7.085z"/>
      <path d="M233.728 28.452c0 3.912-3.096 7.084-6.914 7.084 0-3.912 3.096-7.075 6.905-7.075l.009-.01Zm0 14.158c0-3.912 3.096-7.084 6.914-7.084 0 3.912-3.096 7.075-6.905 7.075z"/>
      <path d="M240.633 35.536c-3.818 0-6.914-3.172-6.914-7.084 3.818 0 6.905 3.172 6.905 7.074zm0 14.158c-3.818 0-6.914-3.172-6.914-7.084 3.818 0 6.905 3.172 6.905 7.075z"/>
      <path d="M233.728 56.769c0-3.912 3.096-7.084 6.914-7.084 0 3.912-3.096 7.075-6.905 7.075z"/>
      <path d="M233.728 56.769c-3.818 0-6.905-3.172-6.905-7.075 3.818 0 6.914 3.172 6.914 7.084l-.009-.01Z"/>
      <path d="M233.728 42.61c0 3.912-3.096 7.084-6.914 7.084 0-3.912 3.096-7.075 6.905-7.075zm0 28.317c-3.818 0-6.905-3.172-6.905-7.074 3.818 0 6.914 3.172 6.914 7.084zm-.009-14.158c0 3.912-3.096 7.084-6.914 7.084 0-3.912 3.096-7.075 6.905-7.075l.009-.01Zm6.914 7.084c-3.818 0-6.914-3.172-6.914-7.084 3.818 0 6.905 3.172 6.905 7.075z"/>
      <path d="M233.728 70.927c0-3.911 3.096-7.084 6.914-7.084 0 3.912-3.096 7.075-6.905 7.075l-.009.01Zm0 14.168c0-3.912 3.096-7.084 6.914-7.084 0 3.912-3.096 7.075-6.905 7.075l-.009.01Z"/>
      <path d="M240.633 78.011c-3.818 0-6.914-3.172-6.914-7.084 3.818 0 6.905 3.172 6.905 7.075l.009.01Z"/>
      <path d="M233.728 70.927c0 3.912-3.096 7.084-6.914 7.084 0-3.911 3.096-7.074 6.905-7.074zm0 14.168c-3.818 0-6.905-3.172-6.905-7.074 3.818 0 6.914 3.172 6.914 7.084zm0 14.159c0-3.912 3.096-7.084 6.914-7.084 0 3.912-3.096 7.075-6.905 7.075z"/>
      <path d="M240.633 92.17c-3.818 0-6.914-3.172-6.914-7.084 3.818 0 6.905 3.172 6.905 7.075zm-6.905 7.084c-3.818 0-6.905-3.172-6.905-7.075 3.818 0 6.914 3.172 6.914 7.084z"/>
      <path d="M233.728 85.095c0 3.912-3.096 7.084-6.914 7.084 0-3.912 3.096-7.074 6.905-7.074zm13.819-70.802c0 3.912-3.096 7.084-6.914 7.084 0-3.912 3.096-7.075 6.905-7.075zm0 14.159c-3.818 0-6.905-3.172-6.905-7.075 3.818 0 6.914 3.172 6.914 7.084l-.009-.01Zm0 14.158c-3.818 0-6.905-3.172-6.905-7.075 3.818 0 6.914 3.173 6.914 7.085z"/>
      <path d="M247.547 28.452c0 3.912-3.096 7.084-6.914 7.084 0-3.912 3.096-7.075 6.905-7.075l.009-.01Zm0 28.317c-3.818 0-6.905-3.172-6.905-7.075 3.818 0 6.914 3.172 6.914 7.084z"/>
      <path d="M247.547 42.61c0 3.912-3.096 7.084-6.914 7.084 0-3.912 3.096-7.075 6.905-7.075zm0 28.317c-3.818 0-6.905-3.172-6.905-7.074 3.818 0 6.914 3.172 6.914 7.084zm0-14.158c0 3.912-3.096 7.084-6.914 7.084 0-3.912 3.096-7.075 6.905-7.075l.009-.01Zm0 28.326c-3.818 0-6.905-3.172-6.905-7.074 3.818 0 6.914 3.172 6.914 7.084z"/>
      <path d="M247.547 70.927c0 3.912-3.096 7.084-6.914 7.084 0-3.911 3.096-7.074 6.905-7.074zm0 28.327c-3.818 0-6.905-3.172-6.905-7.075 3.818 0 6.914 3.172 6.914 7.084zm0-14.159c0 3.912-3.096 7.084-6.914 7.084 0-3.912 3.096-7.074 6.905-7.074z"/>
    </g>
    <path fill="#C71E11" d="M220.263 98.069c.578-2.147-2.509-4.893-6.896-6.135s-8.412-.508-8.991 1.639c-.579 2.146 2.509 4.893 6.896 6.134s8.412.508 8.991-1.638"/>
    <path fill="#FFF400" d="M213.068 94.14s6.038 1.998 4.703 5.188c-1.147 1.766-4.911 2.534-7.402 1.563s-4.63-2.932-4.513-5.567c.118-1.628 3.078-2.738 7.212-1.184"/>
    <path stroke="#000" stroke-linecap="round" stroke-linejoin="round" stroke-width=".925" d="M125.976 1.716c-57.117 0-101.597 17.747-113.177 22.824l26.112 67.25c32.169-11.282 61.395-15.064 86.171-15.064 42.17 0 71.423 10.977 80.124 14.686l25.968-66.872.126-.315c-36.717-16.84-73.02-22.51-105.324-22.51Z"/>
    <path stroke="#000" stroke-linecap="round" stroke-linejoin="round" stroke-width=".925" d="M125.814 10.538c32.818 0 64.012 6.603 92.859 19.625L199.61 81.119c-12.555-4.939-38.911-13.206-74.645-13.206-26.753 0-53.75 4.66-80.358 13.853L25.39 30.653c15.227-6.39 53.398-20.115 100.424-20.115M9.45 19.102c-4.432.111-6.959 1.424-8.268 2.432l-.234-.74s2.265-3.616 8.033-2.534c.198.352.36.63.47.842Z"/>
    <path stroke="#000" stroke-linecap="round" stroke-linejoin="round" stroke-width=".925" d="M39.453 93.178c-.235-.453-.641-.832-1.192-1.137-.686-.37-1.615-.592-2.68-.666-1.454-.111-3.178.064-4.947.564-4.35 1.22-7.428 3.949-6.914 6.076L0 22.718s.334-.527 1.182-1.184c1.3-1.008 3.836-2.321 8.268-2.432q.596-.015 1.246 0l2.112 5.447L38.92 91.8z"/>
    <path stroke="#000" stroke-linecap="round" stroke-linejoin="round" stroke-width=".925" d="M37.837 97.145a4.5 4.5 0 0 0 .298-1.812c-.027-.426-.262-.823-.668-1.147-1.092-.878-3.502-1.184-6.544-.037 0 0-3.62 1.193-4.621 3.218h-.01a2.26 2.26 0 0 0-.062 1.98c.207.314.505.6.857.86-1.77-.25-3.042-.98-3.349-2.109l-.009-.028s-.009-.037-.009-.046c-.514-2.127 2.555-4.855 6.914-6.076 1.77-.508 3.493-.684 4.947-.564 1.074.074 1.994.305 2.68.666.55.305.957.684 1.192 1.137l.162.407c.307 1.12-.406 2.405-1.769 3.57z"/>
    <path stroke="#000" stroke-linecap="round" stroke-linejoin="round" stroke-width=".925" d="M38.135 95.333a4.3 4.3 0 0 1-.298 1.813h-.009c-.65 1.729-2.329 3.024-4.197 3.754-2.04.795-4.92.426-6.535-.703h-.009a3.2 3.2 0 0 1-.857-.86c-.307-.73-.235-1.387.063-1.979h.009c1.01-2.016 4.621-3.218 4.621-3.218 3.042-1.147 5.452-.842 6.544.037.406.324.64.721.668 1.147zm204.908-74.539-.234.74c-1.3-1.008-3.836-2.321-8.268-2.432.108-.213.271-.49.469-.842 5.768-1.082 8.033 2.534 8.033 2.534"/>
    <path stroke="#000" stroke-linecap="round" stroke-linejoin="round" stroke-width=".925" d="M220.271 98.015c.514-2.127-2.555-4.855-6.914-6.076-1.769-.509-3.493-.684-4.947-.564-.857.064-1.615.213-2.238.48h-.009a2 2 0 0 0-.433.186c-.551.305-.957.684-1.192 1.137l.533-1.378.144-.379 25.968-66.872.126-.314 1.995-5.133q.65-.015 1.246 0c4.432.111 6.959 1.424 8.268 2.432.848.657 1.182 1.184 1.182 1.184l-23.72 75.297z"/>
    <path stroke="#000" stroke-linecap="round" stroke-linejoin="round" stroke-width=".925" d="M220.271 98.015s-.009.037-.009.046 0 .01-.009.028c-.307 1.119-1.571 1.85-3.349 2.108.361-.25.65-.545.857-.86.307-.73.235-1.387-.063-1.979h-.009c-1.011-2.016-4.621-3.218-4.621-3.218-3.042-1.147-5.452-.842-6.544.037-.406.324-.641.721-.668 1.147a4.3 4.3 0 0 0 .298 1.812c-1.363-1.156-2.076-2.441-1.769-3.57l.162-.406c.235-.453.641-.833 1.192-1.138.135-.074.271-.139.433-.185h.009c.632-.268 1.381-.416 2.239-.48 1.453-.112 3.177.064 4.946.563 4.35 1.221 7.428 3.95 6.914 6.076z"/>
    <path stroke="#000" stroke-linecap="round" stroke-linejoin="round" stroke-width=".925" d="M217.761 99.337c-.207.315-.505.601-.857.86h-.009c-1.616 1.138-4.486 1.499-6.535.703-1.868-.73-3.547-2.025-4.197-3.755h-.009c-.226-.564-.316-1.174-.298-1.812.027-.425.262-.823.668-1.147 1.092-.878 3.502-1.184 6.544-.037 0 0 3.619 1.193 4.621 3.219h.009c.298.591.37 1.248.063 1.979z"/>
    <path fill="#C12202" d="m46.963 63.151-.233-1.697-4.186-14.973-.89.251c-2.514.7-3.25 2.578-2.793 4.213.485 1.742 2.327 3.197 4.734 2.524l.08.278c.36 1.276-.116 2.362-1.418 2.722-2.848.8-5.578-1.581-6.306-4.204-1.069-3.817 1.276-7.284 4.985-8.317l3.683-1.024-.027.125 9.835 13.725 1.429-16.994 2.99-.835.234 1.697 4.5 16.114.674 1.572-3.216.898-.233-1.697-2.74-9.827-1.06 12.656-2.937.817-7.266-10.087 2.685 9.611.674 1.572-3.216.898.018-.017ZM63.49 51.547c-.772-3.746.593-7.986 5.12-8.91 1.267-.261 2.425-.18 3.431.143.575-.467.989-1.05.908-1.59-.072-.485-.36-1.042-1.474-1.167l1.294-1.85c1.689.358 2.21 1.337 2.371 2.245.17 1.114-.727 2.443-1.626 3.063 1.725 1.113 2.884 3.044 3.306 5.102.754 3.655-.746 7.778-5.2 8.694-4.366.898-7.393-2.147-8.13-5.721zm4.105-9.88c-.377-1.833 1.258-2.31 1.042-3.351a.87.87 0 0 0-1.042-.665c-.422.09-.826.404-.97.988l-1.617-1.015a3.2 3.2 0 0 1 2.327-1.949c1.41-.287 2.973.333 3.323 2.048.368 1.806-1.689 2.488-1.518 3.629l-1.545.314Zm-1.06 8.99c.458 2.255 2.111 4.294 4.51 3.8 2.389-.494 3.143-2.991 2.676-5.246-.458-2.254-2.165-4.248-4.527-3.763s-3.117 2.955-2.659 5.21Zm19.528 3.755v-1.716c-.944-6.458-1.465-10.105-2.39-16.563-.09-.656-.161-1.114-.467-1.644l2.866-1.868 2.82 19.662.467 1.644-3.296.476zm3.485-7.599c-.414-3.8 1.347-7.895 5.946-8.39 4.518-.484 7.203 2.983 7.599 6.701.395 3.719-1.482 7.68-6 8.165-4.429.476-7.16-2.838-7.554-6.467zm6.62-9.62-1.007-2.057-.565 2.228-3.054.332 2.676-4.365 1.455-.153 3.548 3.692-3.054.332v-.009Zm-3.513 9.027c.243 2.29 1.698 4.473 4.123 4.213s3.413-2.677 3.162-4.967c-.243-2.29-1.752-4.438-4.15-4.177-2.398.26-3.386 2.65-3.135 4.931m4.581 8.407c1.033-.107 1.788.503 1.904 1.527.117 1.06-.493 1.815-1.526 1.932-1.024.107-1.788-.503-1.905-1.554-.107-1.033.503-1.788 1.527-1.904Zm18.629-14.82-2.389 2.066c-.665-1.114-1.715-1.86-3.153-1.779-2.497.144-3.512 2.56-3.386 4.743.135 2.443 1.698 4.599 4.312 4.446 1.32-.072 2.541-.808 3.107-2.075l2.318 1.716c-1.123 1.967-3.189 3.09-5.407 3.215-3.504.198-7.204-2.182-7.492-7.176-.206-3.674 1.994-7.482 6.387-7.734 2.551-.144 4.491.952 5.703 2.587zm8.947 1.868c.062-3.251 2.856-4.86 5.784-4.805 2.066.036 4.204.997 5.461 2.865l-2.191 2.03c-.746-1.365-2.174-1.994-3.387-2.021-1.239-.027-2.623.557-2.649 1.527-.054 2.901 8.326.674 8.227 5.704-.063 3.134-2.91 4.886-5.991 4.832-2.21-.045-4.581-1.033-5.919-3.018l2.452-1.877c.781 1.365 2.461 2.003 3.674 2.02 1.239.028 2.658-.583 2.676-1.814.045-2.497-8.245-.386-8.146-5.443zm19.841 9.521a6.06 6.06 0 0 1-3.781 1.042c-3.072-.206-4.384-2.569-4.222-4.949.171-2.524 2.12-5.039 5.506-4.814a5.7 5.7 0 0 1 3.009 1.15c.09-2.183-1.159-3.28-2.542-3.369-1.006-.072-2.075.44-2.73 1.635l-2.147-1.904c1.518-1.977 3.467-2.704 5.299-2.587 2.812.188 5.246 2.452 5.048 5.434l-.53 7.86.117 1.706-3.099-.207.063-1.006.009.01Zm-2.955-18.692c-.063.97.431 1.698 1.527 1.77 1.123.072 1.707-.575 1.778-1.554l2.003.135c-.143 2.21-1.733 3.539-3.916 3.395-2.147-.144-3.548-1.68-3.395-3.89l2.003.135v.01Zm3.242 14.48c-.422-1.006-1.634-1.833-2.667-1.905-1.464-.098-2.371 1.051-2.461 2.282-.09 1.401.79 2.353 2.2 2.452 1.006.063 2.156-.431 2.839-1.536zm3.98 5.533.422-1.653 1.176-10.051c.072-.656.126-1.114-.035-1.716l3.251-1.069-.332 2.857c1.167-1.545 2.56-2.309 4.069-2.129 2.425.287 3.997 2.461 3.521 6.521l-.8 6.853.027 1.716-3.314-.386.422-1.662.817-6.961c.261-2.2-.485-3.503-1.572-3.629-1.571-.188-2.775 1.985-3.691 4.051l-.692 5.937.036 1.716-3.314-.386zm27.341 9.799 1.285-6.341a5.37 5.37 0 0 1-3.656.548c-4.141-.845-5.425-4.914-4.68-8.605.746-3.665 3.512-6.88 7.509-6.072 1.186.242 2.318.88 3.297 1.958l.027-.108 3.099-.835-4.06 20.021-.108 1.707-3.27-.665.566-1.617zm3.081-15.207c-.422-1.257-1.239-2.425-2.623-2.703-1.913-.386-3.826 1.248-4.437 4.23-.467 2.282.234 4.77 2.596 5.246 1.069.216 2.308-.117 3.341-1.285l1.114-5.488zm9.943 12.773.656-1.58.144-.53c-1.141 1.158-2.596 1.93-4.312 1.472-2.362-.629-3.601-3.009-2.56-6.952l1.402-5.282c.17-.637.287-1.086.215-1.697l3.369-.593-2.228 8.416c-.566 2.138-.018 3.53 1.042 3.818 1.608.43 3.117-1.877 4.329-3.88l1.06-3.998c.171-.637.288-1.086.216-1.697l3.368-.593-3.242 12.252-.216 1.697-3.225-.853zm12.028 2.677a6.07 6.07 0 0 1-3.926.063c-2.919-.97-3.593-3.584-2.847-5.848.799-2.398 3.323-4.347 6.539-3.287a5.63 5.63 0 0 1 2.623 1.868c.638-2.093-.306-3.467-1.617-3.898-.952-.315-2.12-.1-3.054.898l-1.608-2.38c1.958-1.527 4.033-1.752 5.785-1.177 2.676.89 4.473 3.692 3.53 6.53l-2.479 7.473-.315 1.68-2.946-.98.315-.951zm1.329-4.015c-.153-1.078-1.123-2.192-2.102-2.515-1.392-.459-2.56.422-2.955 1.598-.44 1.339.18 2.48 1.518 2.929.952.314 2.201.125 3.135-.782zm2.587-14.56-.126 4.23-1.392-.458-1.59-4.796 3.108 1.032z"/>
    <path fill="#C12202" d="m46.963 61.616-.233-1.698-4.186-14.973-.89.251c-2.514.7-3.25 2.578-2.793 4.213.485 1.742 2.327 3.197 4.734 2.524l.08.278c.36 1.276-.116 2.363-1.418 2.722-2.848.8-5.578-1.581-6.306-4.204-1.069-3.817 1.276-7.284 4.985-8.317l3.683-1.024-.027.126 9.835 13.724 1.429-16.994 2.99-.835.234 1.697 4.5 16.114.674 1.572-3.216.898-.233-1.697-2.74-9.827-1.06 12.656-2.937.817-7.266-10.086 2.685 9.61.674 1.572-3.216.898zM63.49 50.02c-.772-3.746.593-7.986 5.12-8.91 1.267-.261 2.425-.18 3.431.143.575-.467.989-1.05.908-1.59-.072-.485-.36-1.042-1.474-1.167l1.294-1.85c1.689.358 2.21 1.337 2.371 2.245.17 1.114-.727 2.443-1.626 3.063 1.725 1.113 2.884 3.045 3.306 5.102.754 3.655-.746 7.778-5.2 8.694-4.366.898-7.393-2.147-8.13-5.721v-.01Zm4.105-9.88c-.377-1.833 1.258-2.31 1.042-3.351a.87.87 0 0 0-1.042-.665c-.422.09-.826.404-.97.988l-1.617-1.015a3.2 3.2 0 0 1 2.327-1.949c1.41-.287 2.973.332 3.323 2.048.368 1.806-1.689 2.488-1.518 3.629zm-1.06 8.99c.458 2.255 2.111 4.294 4.51 3.8 2.389-.494 3.143-2.991 2.676-5.246-.458-2.254-2.165-4.248-4.527-3.763s-3.117 2.955-2.659 5.21Zm19.528 3.746V51.16c-.944-6.458-1.465-10.105-2.39-16.563-.09-.656-.161-1.114-.467-1.644l2.866-1.868 2.82 19.662.467 1.644-3.296.476zm3.485-7.599c-.414-3.8 1.347-7.895 5.946-8.39 4.518-.484 7.203 2.983 7.599 6.701.395 3.719-1.482 7.68-6 8.165-4.429.476-7.16-2.838-7.554-6.467zm6.62-9.61-1.007-2.058-.565 2.228-3.054.332 2.676-4.365 1.455-.153 3.548 3.692-3.054.332v-.009Zm-3.513 9.017c.243 2.29 1.698 4.473 4.123 4.213s3.413-2.677 3.162-4.967c-.243-2.29-1.752-4.438-4.15-4.177-2.398.26-3.386 2.65-3.135 4.931m4.581 8.408c1.033-.108 1.788.502 1.904 1.526.117 1.06-.493 1.815-1.526 1.932-1.024.107-1.788-.503-1.905-1.554-.107-1.033.503-1.788 1.527-1.904m18.629-14.812-2.389 2.066c-.665-1.114-1.715-1.86-3.153-1.779-2.497.144-3.512 2.56-3.386 4.743.135 2.443 1.698 4.599 4.312 4.446 1.32-.072 2.541-.808 3.107-2.075l2.318 1.716c-1.123 1.967-3.189 3.09-5.407 3.215-3.504.198-7.204-2.182-7.492-7.176-.206-3.674 1.994-7.482 6.387-7.734 2.551-.144 4.491.952 5.703 2.587zm8.947 1.86c.062-3.252 2.856-4.86 5.784-4.806 2.066.036 4.204.997 5.461 2.865l-2.191 2.03c-.746-1.365-2.174-1.994-3.387-2.02-1.239-.028-2.623.556-2.649 1.526-.054 2.901 8.326.674 8.227 5.704-.063 3.135-2.91 4.886-5.991 4.832-2.21-.045-4.581-1.033-5.919-3.018l2.452-1.877c.781 1.365 2.461 2.003 3.674 2.02 1.239.028 2.658-.583 2.676-1.813.045-2.498-8.245-.387-8.146-5.444zm19.841 9.52a6.06 6.06 0 0 1-3.781 1.042c-3.072-.206-4.384-2.569-4.222-4.949.171-2.524 2.12-5.039 5.506-4.814a5.7 5.7 0 0 1 3.009 1.15c.09-2.183-1.159-3.28-2.542-3.369-1.006-.072-2.075.44-2.73 1.635l-2.147-1.904c1.518-1.977 3.467-2.704 5.299-2.587 2.812.188 5.246 2.452 5.048 5.434l-.53 7.86.117 1.706-3.099-.207.063-1.006zm-2.955-18.682c-.063.97.431 1.697 1.527 1.769 1.123.072 1.707-.575 1.778-1.554l2.003.135c-.143 2.21-1.733 3.539-3.916 3.395-2.147-.144-3.548-1.68-3.395-3.89l2.003.136zm3.242 14.47c-.422-1.006-1.634-1.833-2.667-1.904-1.464-.1-2.371 1.05-2.461 2.28-.09 1.402.79 2.354 2.2 2.453 1.006.063 2.156-.431 2.839-1.536zm3.98 5.532.422-1.652 1.176-10.051c.072-.656.126-1.114-.035-1.716l3.251-1.068-.332 2.856c1.167-1.545 2.56-2.308 4.069-2.129 2.425.288 3.997 2.461 3.521 6.521l-.8 6.853.027 1.716-3.314-.386.422-1.662.817-6.961c.261-2.2-.485-3.503-1.572-3.629-1.571-.188-2.775 1.985-3.691 4.051l-.692 5.937.036 1.716-3.314-.386zm27.341 9.8 1.285-6.341a5.37 5.37 0 0 1-3.656.548c-4.141-.845-5.425-4.913-4.68-8.605.746-3.665 3.512-6.88 7.509-6.072 1.186.242 2.318.88 3.297 1.958l.027-.108 3.099-.835-4.06 20.021-.108 1.707-3.27-.665.566-1.617-.009.01Zm3.081-15.207c-.422-1.257-1.239-2.425-2.623-2.703-1.913-.386-3.826 1.248-4.437 4.23-.467 2.282.234 4.77 2.596 5.246 1.069.216 2.308-.117 3.341-1.284l1.114-5.489zm9.943 12.773.656-1.58.144-.53c-1.141 1.158-2.596 1.93-4.312 1.472-2.362-.628-3.601-3.009-2.56-6.952l1.402-5.281c.17-.638.287-1.087.215-1.698l3.369-.593-2.228 8.416c-.566 2.138-.018 3.53 1.042 3.818 1.608.431 3.117-1.877 4.329-3.88l1.06-3.997c.171-.638.288-1.087.216-1.698l3.368-.593-3.242 12.252-.216 1.697-3.225-.853zm12.028 2.677a6.07 6.07 0 0 1-3.926.063c-2.919-.97-3.593-3.584-2.847-5.848.799-2.398 3.323-4.347 6.539-3.287a5.63 5.63 0 0 1 2.623 1.868c.638-2.093-.306-3.467-1.617-3.898-.952-.315-2.12-.1-3.054.898l-1.608-2.38c1.958-1.527 4.033-1.752 5.785-1.177 2.676.89 4.473 3.692 3.53 6.53l-2.479 7.473-.315 1.68-2.946-.98.315-.951zm1.329-4.015c-.153-1.078-1.123-2.192-2.102-2.515-1.392-.458-2.56.422-2.955 1.599-.44 1.338.18 2.479 1.518 2.928.952.314 2.201.125 3.135-.782zm2.587-14.551-.126 4.23-1.392-.458-1.59-4.796 3.108 1.033z"/>
    <path fill="#EF4B23" d="m46.963 61.616-.233-1.698-4.186-14.973-.89.251c-2.514.7-3.25 2.578-2.793 4.213.485 1.742 2.327 3.197 4.734 2.524l.08.278c.36 1.276-.116 2.363-1.418 2.722-2.848.8-5.578-1.581-6.306-4.204-1.069-3.817 1.276-7.284 4.985-8.317l3.683-1.024-.027.126 9.835 13.724 1.429-16.994 2.99-.835.234 1.697 4.5 16.114.674 1.572-3.216.898-.233-1.697-2.74-9.827-1.06 12.656-2.937.817-7.266-10.086 2.685 9.61.674 1.572-3.216.898zM63.49 50.02c-.772-3.746.593-7.986 5.12-8.91 1.267-.261 2.425-.18 3.431.143.575-.467.989-1.05.908-1.59-.072-.485-.36-1.042-1.474-1.167l1.294-1.85c1.689.358 2.21 1.337 2.371 2.245.17 1.114-.727 2.443-1.626 3.063 1.725 1.113 2.884 3.045 3.306 5.102.754 3.655-.746 7.778-5.2 8.694-4.366.898-7.393-2.147-8.13-5.721v-.01Zm4.105-9.88c-.377-1.833 1.258-2.31 1.042-3.351a.87.87 0 0 0-1.042-.665c-.422.09-.826.404-.97.988l-1.617-1.015a3.2 3.2 0 0 1 2.327-1.949c1.41-.287 2.973.332 3.323 2.048.368 1.806-1.689 2.488-1.518 3.629zm-1.06 8.99c.458 2.255 2.111 4.294 4.51 3.8 2.389-.494 3.143-2.991 2.676-5.246-.458-2.254-2.165-4.248-4.527-3.763s-3.117 2.955-2.659 5.21Zm19.528 3.746V51.16c-.944-6.458-1.465-10.105-2.39-16.563-.09-.656-.161-1.114-.467-1.644l2.866-1.868 2.82 19.662.467 1.644-3.296.476zm3.485-7.599c-.414-3.8 1.347-7.895 5.946-8.39 4.518-.484 7.203 2.983 7.599 6.701.395 3.719-1.482 7.68-6 8.165-4.429.476-7.16-2.838-7.554-6.467zm6.62-9.61-1.007-2.058-.565 2.228-3.054.332 2.676-4.365 1.455-.153 3.548 3.692-3.054.332v-.009Zm-3.513 9.017c.243 2.29 1.698 4.473 4.123 4.213s3.413-2.677 3.162-4.967c-.243-2.29-1.752-4.438-4.15-4.177-2.398.26-3.386 2.65-3.135 4.931m4.581 8.408c1.033-.108 1.788.502 1.904 1.526.117 1.06-.493 1.815-1.526 1.932-1.024.107-1.788-.503-1.905-1.554-.107-1.033.503-1.788 1.527-1.904m18.629-14.812-2.389 2.066c-.665-1.114-1.715-1.86-3.153-1.779-2.497.144-3.512 2.56-3.386 4.743.135 2.443 1.698 4.599 4.312 4.446 1.32-.072 2.541-.808 3.107-2.075l2.318 1.716c-1.123 1.967-3.189 3.09-5.407 3.215-3.504.198-7.204-2.182-7.492-7.176-.206-3.674 1.994-7.482 6.387-7.734 2.551-.144 4.491.952 5.703 2.587zm8.947 1.86c.062-3.252 2.856-4.86 5.784-4.806 2.066.036 4.204.997 5.461 2.865l-2.191 2.03c-.746-1.365-2.174-1.994-3.387-2.02-1.239-.028-2.623.556-2.649 1.526-.054 2.901 8.326.674 8.227 5.704-.063 3.135-2.91 4.886-5.991 4.832-2.21-.045-4.581-1.033-5.919-3.018l2.452-1.877c.781 1.365 2.461 2.003 3.674 2.02 1.239.028 2.658-.583 2.676-1.813.045-2.498-8.245-.387-8.146-5.444zm19.841 9.52a6.06 6.06 0 0 1-3.781 1.042c-3.072-.206-4.384-2.569-4.222-4.949.171-2.524 2.12-5.039 5.506-4.814a5.7 5.7 0 0 1 3.009 1.15c.09-2.183-1.159-3.28-2.542-3.369-1.006-.072-2.075.44-2.73 1.635l-2.147-1.904c1.518-1.977 3.467-2.704 5.299-2.587 2.812.188 5.246 2.452 5.048 5.434l-.53 7.86.117 1.706-3.099-.207.063-1.006zm-2.955-18.682c-.063.97.431 1.697 1.527 1.769 1.123.072 1.707-.575 1.778-1.554l2.003.135c-.143 2.21-1.733 3.539-3.916 3.395-2.147-.144-3.548-1.68-3.395-3.89l2.003.136zm3.242 14.47c-.422-1.006-1.634-1.833-2.667-1.904-1.464-.1-2.371 1.05-2.461 2.28-.09 1.402.79 2.354 2.2 2.453 1.006.063 2.156-.431 2.839-1.536zm3.98 5.532.422-1.652 1.176-10.051c.072-.656.126-1.114-.035-1.716l3.251-1.068-.332 2.856c1.167-1.545 2.56-2.308 4.069-2.129 2.425.288 3.997 2.461 3.521 6.521l-.8 6.853.027 1.716-3.314-.386.422-1.662.817-6.961c.261-2.2-.485-3.503-1.572-3.629-1.571-.188-2.775 1.985-3.691 4.051l-.692 5.937.036 1.716-3.314-.386zm27.341 9.8 1.285-6.341a5.37 5.37 0 0 1-3.656.548c-4.141-.845-5.425-4.913-4.68-8.605.746-3.665 3.512-6.88 7.509-6.072 1.186.242 2.318.88 3.297 1.958l.027-.108 3.099-.835-4.06 20.021-.108 1.707-3.27-.665.566-1.617-.009.01Zm3.081-15.207c-.422-1.257-1.239-2.425-2.623-2.703-1.913-.386-3.826 1.248-4.437 4.23-.467 2.282.234 4.77 2.596 5.246 1.069.216 2.308-.117 3.341-1.284l1.114-5.489zm9.943 12.773.656-1.58.144-.53c-1.141 1.158-2.596 1.93-4.312 1.472-2.362-.628-3.601-3.009-2.56-6.952l1.402-5.281c.17-.638.287-1.087.215-1.698l3.369-.593-2.228 8.416c-.566 2.138-.018 3.53 1.042 3.818 1.608.431 3.117-1.877 4.329-3.88l1.06-3.997c.171-.638.288-1.087.216-1.698l3.368-.593-3.242 12.252-.216 1.697-3.225-.853zm12.028 2.677a6.07 6.07 0 0 1-3.926.063c-2.919-.97-3.593-3.584-2.847-5.848.799-2.398 3.323-4.347 6.539-3.287a5.63 5.63 0 0 1 2.623 1.868c.638-2.093-.306-3.467-1.617-3.898-.952-.315-2.12-.1-3.054.898l-1.608-2.38c1.958-1.527 4.033-1.752 5.785-1.177 2.676.89 4.473 3.692 3.53 6.53l-2.479 7.473-.315 1.68-2.946-.98.315-.951zm1.329-4.015c-.153-1.078-1.123-2.192-2.102-2.515-1.392-.458-2.56.422-2.955 1.599-.44 1.338.18 2.479 1.518 2.928.952.314 2.201.125 3.135-.782zm2.587-14.551-.126 4.23-1.392-.458-1.59-4.796 3.108 1.033z"/>
    <path fill="#FFF400" d="m46.963 60.08-.233-1.698-4.186-14.973-.89.251c-2.514.7-3.25 2.578-2.793 4.213.485 1.742 2.327 3.198 4.734 2.524l.08.278c.36 1.276-.116 2.363-1.418 2.722-2.848.8-5.578-1.58-6.306-4.204-1.069-3.817 1.276-7.284 4.985-8.317l3.683-1.024-.027.126 9.835 13.724 1.429-16.994 2.99-.835.234 1.697 4.5 16.114.674 1.572-3.216.898-.233-1.697-2.74-9.827-1.06 12.656-2.937.818-7.266-10.087 2.685 9.61.674 1.572-3.216.899zM63.49 48.484c-.772-3.746.593-7.985 5.12-8.91 1.267-.261 2.425-.18 3.431.143.575-.467.989-1.05.908-1.59-.072-.485-.36-1.042-1.474-1.167l1.294-1.85c1.689.359 2.21 1.338 2.371 2.245.17 1.114-.727 2.443-1.626 3.063 1.725 1.114 2.884 3.045 3.306 5.102.754 3.655-.746 7.778-5.2 8.694-4.366.898-7.393-2.146-8.13-5.721v-.01Zm4.105-9.88c-.377-1.833 1.258-2.31 1.042-3.351a.87.87 0 0 0-1.042-.665c-.422.09-.826.404-.97.988l-1.617-1.015a3.2 3.2 0 0 1 2.327-1.949c1.41-.287 2.973.333 3.323 2.048.368 1.806-1.689 2.488-1.518 3.629zm-1.06 8.99c.458 2.255 2.111 4.294 4.51 3.8 2.389-.494 3.143-2.991 2.676-5.246-.458-2.254-2.165-4.248-4.527-3.763s-3.117 2.955-2.659 5.21Zm19.528 3.755v-1.716c-.944-6.458-1.465-10.105-2.39-16.563-.09-.655-.161-1.113-.467-1.643l2.866-1.869 2.82 19.662.467 1.644-3.296.476zm3.485-7.599c-.414-3.8 1.347-7.895 5.946-8.39 4.518-.484 7.203 2.983 7.599 6.702s-1.482 7.68-6 8.164c-4.429.476-7.16-2.838-7.554-6.467zm6.62-9.62-1.007-2.057-.565 2.228-3.054.332 2.676-4.365 1.455-.153 3.548 3.692-3.054.332v-.009Zm-3.513 9.018c.243 2.29 1.698 4.473 4.123 4.213s3.413-2.677 3.162-4.967c-.243-2.29-1.752-4.437-4.15-4.177s-3.386 2.65-3.135 4.931m4.581 8.417c1.033-.108 1.788.503 1.904 1.527.117 1.06-.493 1.814-1.526 1.93-1.024.108-1.788-.502-1.905-1.553-.107-1.033.503-1.788 1.527-1.904m18.629-14.821-2.389 2.066c-.665-1.114-1.715-1.86-3.153-1.779-2.497.144-3.512 2.56-3.386 4.743.135 2.443 1.698 4.599 4.312 4.446 1.32-.072 2.541-.808 3.107-2.075l2.318 1.716c-1.123 1.967-3.189 3.09-5.407 3.216-3.504.197-7.204-2.183-7.492-7.177-.206-3.674 1.994-7.482 6.387-7.734 2.551-.143 4.491.952 5.703 2.587zm8.947 1.859c.062-3.251 2.856-4.859 5.784-4.805 2.066.036 4.204.997 5.461 2.865l-2.191 2.03c-.746-1.365-2.174-1.994-3.387-2.02-1.239-.028-2.623.556-2.649 1.526-.054 2.901 8.326.674 8.227 5.704-.063 3.135-2.91 4.886-5.991 4.832-2.21-.045-4.581-1.033-5.919-3.018l2.452-1.877c.781 1.365 2.461 2.003 3.674 2.021 1.239.027 2.658-.584 2.676-1.814.045-2.497-8.245-.387-8.146-5.444zm19.841 9.521a6.06 6.06 0 0 1-3.781 1.042c-3.072-.206-4.384-2.569-4.222-4.949.171-2.524 2.12-5.039 5.506-4.814a5.7 5.7 0 0 1 3.009 1.15c.09-2.183-1.159-3.279-2.542-3.369-1.006-.072-2.075.44-2.73 1.635l-2.147-1.904c1.518-1.976 3.467-2.704 5.299-2.587 2.812.188 5.246 2.452 5.048 5.434l-.53 7.86.117 1.706-3.099-.207.063-1.006zm-2.955-18.682c-.063.97.431 1.697 1.527 1.769 1.123.072 1.707-.575 1.778-1.554l2.003.135c-.143 2.21-1.733 3.539-3.916 3.395-2.147-.144-3.548-1.68-3.395-3.89l2.003.136zm3.242 14.47c-.422-1.006-1.634-1.833-2.667-1.904-1.464-.1-2.371 1.05-2.461 2.281-.09 1.401.79 2.353 2.2 2.452 1.006.063 2.156-.431 2.839-1.536zm3.98 5.533.422-1.653 1.176-10.05c.072-.657.126-1.115-.035-1.716l3.251-1.07-.332 2.857c1.167-1.545 2.56-2.308 4.069-2.129 2.425.288 3.997 2.461 3.521 6.521l-.8 6.854.027 1.715-3.314-.386.422-1.662.817-6.96c.261-2.201-.485-3.504-1.572-3.63-1.571-.188-2.775 1.985-3.691 4.051l-.692 5.938.036 1.715-3.314-.386zm27.341 9.799 1.285-6.341a5.37 5.37 0 0 1-3.656.548c-4.141-.845-5.425-4.913-4.68-8.605.746-3.665 3.512-6.88 7.509-6.072 1.186.242 2.318.88 3.297 1.958l.027-.108 3.099-.835-4.06 20.021-.108 1.707-3.27-.665.566-1.617-.009.01Zm3.081-15.206c-.422-1.258-1.239-2.426-2.623-2.704-1.913-.386-3.826 1.248-4.437 4.23-.467 2.282.234 4.77 2.596 5.246 1.069.216 2.308-.117 3.341-1.284l1.114-5.489zm9.943 12.782.656-1.582.144-.53c-1.141 1.159-2.596 1.931-4.312 1.473-2.362-.628-3.601-3.009-2.56-6.952l1.402-5.281c.17-.638.287-1.087.215-1.698l3.369-.593-2.228 8.417c-.566 2.137-.018 3.53 1.042 3.817 1.608.431 3.117-1.877 4.329-3.88l1.06-3.997c.171-.638.288-1.087.216-1.698l3.368-.593-3.242 12.252-.216 1.697-3.225-.853zm12.028 2.667a6.07 6.07 0 0 1-3.926.063c-2.919-.97-3.593-3.584-2.847-5.848.799-2.398 3.323-4.347 6.539-3.287a5.63 5.63 0 0 1 2.623 1.868c.638-2.093-.306-3.467-1.617-3.898-.952-.314-2.12-.099-3.054.898l-1.608-2.38c1.958-1.527 4.033-1.752 5.785-1.177 2.676.89 4.473 3.692 3.53 6.53l-2.479 7.473-.315 1.68-2.946-.98.315-.951zm1.329-4.006c-.153-1.078-1.123-2.192-2.102-2.515-1.392-.458-2.56.422-2.955 1.599-.44 1.338.18 2.479 1.518 2.928.952.314 2.201.125 3.135-.782zm2.587-14.56-.126 4.23-1.392-.458-1.59-4.796 3.108 1.033z"/>
  </g>
  <defs>
    <clipPath id="a">
      <path fill="#fff" d="M0 0h244v103H0z"/>
    </clipPath>
  </defs>
</svg>
