<svg xmlns="http://www.w3.org/2000/svg" width="271" height="103" fill="none" viewBox="0 0 271 103">
  <path fill="#D61313" d="M139.074.64C70.759.64 20.09 24.823 20.09 24.823l26.939 66.9c34.07-12.05 65.022-16.054 91.139-16.054 52.01 0 84.84 15.906 84.84 15.906l26.884-67.103C211.291 6.614 173.005.64 139.065.649z"/>
  <g style="mix-blend-mode:multiply">
    <mask id="a" width="230" height="92" x="20" y="0" maskUnits="userSpaceOnUse" style="mask-type:luminance">
      <path fill="#fff" d="M139.074.64C70.759.64 20.09 24.823 20.09 24.823l26.939 66.9c34.07-12.05 65.022-16.054 91.139-16.054 52.01 0 84.84 15.906 84.84 15.906l26.884-67.103C211.291 6.614 173.005.64 139.065.649z"/>
    </mask>
    <g fill="#F56D27" mask="url(#a)">
      <path d="M20.09 85.61c5.105 0 9.248 4.143 9.248 9.248-5.105 0-9.248-4.143-9.248-9.248m18.496 0c0 5.105-4.144 9.248-9.248 9.248 0-5.105 4.143-9.248 9.248-9.248m0 0c-5.105 0-9.248-4.143-9.248-9.248 5.104 0 9.248 4.143 9.248 9.248m-9.248-9.248c0 5.105-4.143 9.248-9.248 9.248 0-5.105 4.143-9.248 9.248-9.248m27.743 9.248c0 5.105-4.143 9.248-9.248 9.248 0-5.105 4.144-9.248 9.248-9.248m0 0c-5.104 0-9.248-4.143-9.248-9.248 5.105 0 9.248 4.143 9.248 9.248"/>
      <path d="M47.834 76.362c0 5.105-4.144 9.248-9.248 9.248 0-5.105 4.143-9.248 9.248-9.248m-9.248 9.248c5.104 0 9.248 4.143 9.248 9.248-5.105 0-9.248-4.143-9.248-9.248m36.991 0c0 5.105-4.143 9.248-9.248 9.248 0-5.105 4.143-9.248 9.248-9.248m-9.247-9.248c0 5.105-4.144 9.248-9.249 9.248 0-5.105 4.143-9.248 9.248-9.248Z"/>
      <path d="M57.081 85.61c5.105 0 9.248 4.143 9.248 9.248-5.104 0-9.248-4.143-9.248-9.248m18.496 0c-5.105 0-9.248-4.143-9.248-9.248 5.105 0 9.248 4.143 9.248 9.248m0 0c5.105 0 9.248 4.143 9.248 9.248-5.105 0-9.248-4.143-9.248-9.248m9.248-9.248c0 5.105-4.143 9.248-9.248 9.248 0-5.105 4.144-9.248 9.248-9.248"/>
      <path d="M94.073 85.61c0 5.105-4.143 9.239-9.248 9.248 0-5.105 4.143-9.248 9.248-9.248m0 0c-5.105 0-9.248-4.143-9.248-9.248 5.105 0 9.248 4.143 9.248 9.248m9.248-9.248c0 5.105-4.143 9.248-9.248 9.248 0-5.105 4.143-9.248 9.248-9.248m-9.248 9.248c5.105 0 9.248 4.143 9.248 9.248-5.105 0-9.239-4.143-9.248-9.248m18.496 0c0 5.105-4.143 9.248-9.248 9.248 0-5.105 4.143-9.248 9.248-9.248m0 0c-5.105 0-9.248-4.143-9.248-9.248 5.105 0 9.248 4.143 9.248 9.248m18.496 0c-5.105 0-9.248-4.143-9.248-9.248 5.105 0 9.248 4.143 9.248 9.248m-9.248-9.248c0 5.105-4.143 9.248-9.248 9.248 0-5.105 4.143-9.248 9.248-9.248m-9.248 9.248c5.105 0 9.248 4.143 9.248 9.248-5.105 0-9.248-4.143-9.248-9.248m18.496 0c0 5.105-4.143 9.248-9.248 9.248 0-5.105 4.143-9.248 9.248-9.248m9.248-9.248c0 5.105-4.143 9.248-9.248 9.248 0-5.105 4.143-9.248 9.248-9.248m9.248 9.248c-5.105 0-9.248-4.143-9.248-9.248 5.105 0 9.248 4.143 9.248 9.248m0 0c0 5.105-4.143 9.239-9.248 9.248 0-5.105 4.143-9.248 9.248-9.248m-18.496 0c5.105 0 9.248 4.143 9.248 9.248-5.105 0-9.248-4.143-9.248-9.248m36.992 0c-5.105 0-9.248-4.143-9.248-9.248 5.105 0 9.248 4.143 9.248 9.248m0 0c0 5.105-4.143 9.248-9.248 9.248 0-5.105 4.143-9.248 9.248-9.248m-9.248-9.248c0 5.105-4.143 9.248-9.248 9.248 0-5.105 4.143-9.248 9.248-9.248m-9.248 9.248c5.105 0 9.248 4.143 9.248 9.248-5.105 0-9.239-4.143-9.248-9.248m18.496 0c5.105 0 9.248 4.143 9.248 9.248-5.105 0-9.248-4.143-9.248-9.248m9.248-9.248c0 5.105-4.143 9.248-9.248 9.248 0-5.105 4.143-9.248 9.248-9.248m9.248 9.248c-5.105 0-9.248-4.143-9.248-9.248 5.105 0 9.248 4.143 9.248 9.248m0 0c0 5.105-4.143 9.248-9.248 9.248 0-5.105 4.143-9.248 9.248-9.248m18.496 0c-5.105 0-9.248-4.143-9.248-9.248 5.105 0 9.248 4.143 9.248 9.248m-9.248-9.248c0 5.105-4.143 9.248-9.248 9.248 0-5.105 4.143-9.248 9.248-9.248m-9.248 9.248c5.105 0 9.248 4.143 9.248 9.248-5.105 0-9.248-4.143-9.248-9.248m18.496 0c0 5.105-4.143 9.248-9.248 9.248 0-5.105 4.143-9.248 9.248-9.248m9.248-9.248c0 5.105-4.143 9.248-9.248 9.248 0-5.105 4.143-9.248 9.248-9.248m9.248 9.248c0 5.105-4.143 9.248-9.248 9.248 0-5.105 4.143-9.248 9.248-9.248m0 0c-5.105 0-9.248-4.143-9.248-9.248 5.105 0 9.248 4.143 9.248 9.248m-18.496 0c5.105 0 9.248 4.143 9.248 9.248-5.105 0-9.248-4.143-9.248-9.248m36.992 0c0 5.105-4.144 9.248-9.248 9.248 0-5.105 4.143-9.248 9.248-9.248m-18.496 0c5.105 0 9.248 4.143 9.248 9.248-5.105 0-9.248-4.143-9.248-9.248"/>
      <path d="M232.783 76.362c0 5.105-4.143 9.248-9.248 9.248 0-5.105 4.143-9.248 9.248-9.248m9.258 9.248c-5.105 0-9.248-4.143-9.248-9.248 5.104 0 9.248 4.143 9.248 9.248m0 0c5.104 0 9.247 4.143 9.247 9.248-5.104 0-9.247-4.143-9.247-9.248"/>
      <path d="M251.279 76.362c0 5.105-4.143 9.248-9.248 9.248 0-5.105 4.143-9.248 9.248-9.248M38.586 67.114c-5.105 0-9.248-4.143-9.248-9.248 5.104 0 9.248 4.143 9.248 9.248m-9.248-9.248c0 5.105-4.143 9.248-9.248 9.248 0-5.105 4.143-9.248 9.248-9.248m9.248 9.248c0 5.105-4.144 9.248-9.248 9.248 0-5.105 4.143-9.248 9.248-9.248m-18.496 0c5.105 0 9.248 4.143 9.248 9.248-5.105 0-9.248-4.143-9.248-9.248m18.496 0c5.104 0 9.248 4.143 9.248 9.248-5.105 0-9.248-4.143-9.248-9.248m9.248-9.248c0 5.105-4.144 9.248-9.248 9.248 0-5.105 4.143-9.248 9.248-9.248"/>
      <path d="M57.081 67.114c0 5.105-4.143 9.248-9.248 9.248 0-5.105 4.144-9.248 9.248-9.248m0 0c-5.104 0-9.248-4.143-9.248-9.248 5.105 0 9.248 4.143 9.248 9.248m0 0c5.105 0 9.248 4.143 9.248 9.248-5.104 0-9.248-4.143-9.248-9.248"/>
      <path d="M75.577 67.114c0 5.105-4.143 9.248-9.248 9.248 0-5.105 4.143-9.248 9.248-9.248m0 0c-5.105 0-9.248-4.143-9.248-9.248 5.105 0 9.248 4.143 9.248 9.248"/>
      <path d="M66.33 57.866c0 5.105-4.144 9.248-9.249 9.248 0-5.105 4.143-9.248 9.248-9.248Zm18.495 0c0 5.105-4.143 9.248-9.248 9.248 0-5.105 4.144-9.248 9.248-9.248m9.248 9.248c0 5.105-4.143 9.248-9.248 9.248 0-5.105 4.143-9.248 9.248-9.248"/>
      <path d="M75.577 67.114c5.105 0 9.248 4.143 9.248 9.248-5.105 0-9.248-4.143-9.248-9.248m18.496 0c-5.105 0-9.248-4.143-9.248-9.248 5.105 0 9.248 4.143 9.248 9.248m9.248-9.248c0 5.105-4.143 9.248-9.248 9.248 0-5.105 4.143-9.248 9.248-9.248m9.248 9.248c0 5.105-4.143 9.248-9.248 9.248 0-5.105 4.143-9.248 9.248-9.248m-18.496 0c5.105 0 9.248 4.143 9.248 9.248-5.105 0-9.248-4.143-9.248-9.248m18.496 0c-5.105 0-9.248-4.143-9.248-9.248 5.105 0 9.248 4.143 9.248 9.248"/>
      <path d="M121.817 57.866c0 5.105-4.143 9.248-9.248 9.248 0-5.105 4.143-9.248 9.248-9.248m9.248 9.248c0 5.105-4.143 9.248-9.248 9.248 0-5.105 4.143-9.248 9.248-9.248"/>
      <path d="M112.569 67.114c5.105 0 9.248 4.143 9.248 9.248-5.105 0-9.248-4.143-9.248-9.248m18.496 0c-5.105 0-9.248-4.143-9.248-9.248 5.105 0 9.248 4.143 9.248 9.248m18.496 0c-5.105 0-9.248-4.143-9.248-9.248 5.105 0 9.248 4.143 9.248 9.248m0 0c0 5.105-4.143 9.248-9.248 9.248 0-5.105 4.143-9.248 9.248-9.248m-18.496 0c5.105 0 9.248 4.143 9.248 9.248-5.105 0-9.248-4.143-9.248-9.248m9.248-9.248c0 5.105-4.143 9.248-9.248 9.248 0-5.105 4.143-9.248 9.248-9.248m18.496 0c0 5.105-4.143 9.248-9.248 9.248 0-5.105 4.143-9.248 9.248-9.248m-9.248 9.248c5.105 0 9.248 4.143 9.248 9.248-5.105 0-9.248-4.143-9.248-9.248m18.496 0c-5.105 0-9.248-4.143-9.248-9.248 5.105 0 9.248 4.143 9.248 9.248m0 0c0 5.105-4.143 9.248-9.248 9.248 0-5.105 4.143-9.248 9.248-9.248m18.496 0c-5.105 0-9.248-4.143-9.248-9.248 5.105 0 9.248 4.143 9.248 9.248m-9.248-9.248c0 5.105-4.143 9.248-9.248 9.248 0-5.105 4.143-9.248 9.248-9.248m9.248 9.248c0 5.105-4.143 9.248-9.248 9.248 0-5.105 4.143-9.248 9.248-9.248m-18.496 0c5.105 0 9.248 4.143 9.248 9.248-5.105 0-9.248-4.143-9.248-9.248m36.992 0c0 5.105-4.143 9.248-9.248 9.248 0-5.105 4.143-9.248 9.248-9.248m0 0c-5.105 0-9.248-4.143-9.248-9.248 5.105 0 9.248 4.143 9.248 9.248m-18.496 0c5.105 0 9.248 4.143 9.248 9.248-5.105 0-9.248-4.143-9.248-9.248m9.248-9.248c0 5.105-4.143 9.248-9.248 9.248 0-5.105 4.143-9.248 9.248-9.248"/>
      <path d="M214.287 57.866c0 5.105-4.143 9.248-9.247 9.248 0-5.105 4.143-9.248 9.247-9.248m-9.238 9.248c5.105 0 9.248 4.143 9.248 9.248-5.105 0-9.248-4.143-9.248-9.248m18.496 0c-5.105 0-9.248-4.143-9.248-9.248 5.105 0 9.248 4.143 9.248 9.248m0 0c0 5.105-4.143 9.248-9.248 9.248 0-5.105 4.143-9.248 9.248-9.248"/>
      <path d="M232.783 57.866c0 5.105-4.143 9.248-9.248 9.248 0-5.105 4.143-9.248 9.248-9.248m9.258 9.248c-5.105 0-9.248-4.143-9.248-9.248 5.104 0 9.248 4.143 9.248 9.248m0 0c0 5.105-4.144 9.248-9.248 9.248 0-5.105 4.143-9.248 9.248-9.248m-18.496 0c5.105 0 9.248 4.143 9.248 9.248-5.105 0-9.248-4.143-9.248-9.248m18.496 0c5.104 0 9.247 4.143 9.247 9.248-5.104 0-9.247-4.143-9.247-9.248"/>
      <path d="M251.279 57.866c0 5.105-4.143 9.248-9.248 9.248 0-5.105 4.143-9.248 9.248-9.248M38.586 48.618c-5.105 0-9.248-4.143-9.248-9.248 5.104 0 9.248 4.144 9.248 9.248m-9.248 9.248c-5.105 0-9.248-4.143-9.248-9.248 5.105 0 9.248 4.143 9.248 9.248m0-18.496c0 5.105-4.143 9.248-9.248 9.248 0-5.104 4.143-9.248 9.248-9.248m9.248 9.248c0 5.105-4.144 9.248-9.248 9.248 0-5.105 4.143-9.248 9.248-9.248m0 0c5.104 0 9.248 4.143 9.248 9.248-5.105 0-9.248-4.143-9.248-9.248"/>
      <path d="M57.081 48.618c0 5.105-4.143 9.248-9.248 9.248 0-5.105 4.144-9.248 9.248-9.248m0 0c-5.104 0-9.248-4.143-9.248-9.248 5.105 0 9.248 4.144 9.248 9.248"/>
      <path d="M47.834 39.37c0 5.105-4.144 9.248-9.248 9.248 0-5.104 4.143-9.248 9.248-9.248m27.743 9.248c0 5.105-4.143 9.248-9.248 9.248 0-5.105 4.143-9.248 9.248-9.248M66.33 39.37c0 5.105-4.144 9.248-9.249 9.248 0-5.104 4.143-9.248 9.248-9.248Z"/>
      <path d="M75.577 48.618c-5.105 0-9.248-4.143-9.248-9.248 5.105 0 9.248 4.144 9.248 9.248m-18.496 0c5.105 0 9.248 4.143 9.248 9.248-5.104 0-9.248-4.143-9.248-9.248m36.992 0c-5.105 0-9.248-4.143-9.248-9.248 5.105 0 9.248 4.144 9.248 9.248m-9.248-9.248c0 5.105-4.143 9.248-9.248 9.248 0-5.104 4.144-9.248 9.248-9.248m-9.248 9.248c5.105 0 9.248 4.143 9.248 9.248-5.105 0-9.248-4.143-9.248-9.248"/>
      <path d="M94.073 48.618c0 5.105-4.143 9.248-9.248 9.248 0-5.105 4.143-9.248 9.248-9.248m18.496 0c-5.105 0-9.248-4.143-9.248-9.248 5.105 0 9.248 4.144 9.248 9.248m-9.248-9.248c0 5.105-4.143 9.248-9.248 9.248 0-5.104 4.143-9.248 9.248-9.248m9.248 9.248c0 5.105-4.143 9.248-9.248 9.248 0-5.105 4.143-9.248 9.248-9.248m-18.496 0c5.105 0 9.248 4.143 9.248 9.248-5.105 0-9.248-4.143-9.248-9.248m36.992 0c0 5.105-4.143 9.248-9.248 9.248 0-5.105 4.143-9.248 9.248-9.248"/>
      <path d="M112.569 48.618c5.105 0 9.248 4.143 9.248 9.248-5.105 0-9.248-4.143-9.248-9.248m18.496 0c-5.105 0-9.248-4.143-9.248-9.248 5.105 0 9.248 4.144 9.248 9.248m-9.248-9.248c0 5.105-4.143 9.248-9.248 9.248 0-5.104 4.143-9.248 9.248-9.248m18.496 0c0 5.105-4.143 9.248-9.248 9.248 0-5.104 4.143-9.248 9.248-9.248m9.248 9.248c-5.105 0-9.248-4.143-9.248-9.248 5.105 0 9.248 4.144 9.248 9.248m0 0c0 5.105-4.143 9.248-9.248 9.248 0-5.105 4.143-9.248 9.248-9.248m-18.496 0c5.105 0 9.248 4.143 9.248 9.248-5.105 0-9.248-4.143-9.248-9.248m36.992 0c0 5.105-4.143 9.248-9.248 9.248 0-5.105 4.143-9.248 9.248-9.248m-18.496 0c5.105 0 9.248 4.143 9.248 9.248-5.105 0-9.248-4.143-9.248-9.248m9.248-9.248c0 5.105-4.143 9.248-9.248 9.248 0-5.104 4.143-9.248 9.248-9.248m9.248 9.248c-5.105 0-9.248-4.143-9.248-9.248 5.105 0 9.248 4.144 9.248 9.248m18.496 0c-5.105 0-9.248-4.143-9.248-9.248 5.105 0 9.248 4.144 9.248 9.248"/>
      <path d="M177.296 39.37c0 5.105-4.144 9.248-9.248 9.248 0-5.104 4.143-9.248 9.248-9.248m-9.239 9.248c5.105 0 9.248 4.143 9.248 9.248-5.105 0-9.248-4.143-9.248-9.248m18.496 0c0 5.105-4.143 9.248-9.248 9.248 0-5.105 4.143-9.248 9.248-9.248m18.496 0c-5.105 0-9.248-4.143-9.248-9.248 5.105 0 9.248 4.144 9.248 9.248m-9.257-9.248c0 5.105-4.144 9.248-9.248 9.248 0-5.104 4.143-9.248 9.248-9.248m9.257 9.248c0 5.105-4.143 9.248-9.248 9.248 0-5.105 4.143-9.248 9.248-9.248m-18.496 0c5.105 0 9.248 4.143 9.248 9.248-5.105 0-9.248-4.143-9.248-9.248m18.496 0c5.105 0 9.248 4.143 9.248 9.248-5.105 0-9.248-4.143-9.248-9.248m18.496 0c-5.105 0-9.248-4.143-9.248-9.248 5.105 0 9.248 4.144 9.248 9.248"/>
      <path d="M214.287 39.37c0 5.105-4.143 9.248-9.247 9.248 0-5.104 4.143-9.248 9.247-9.248m9.258 9.248c0 5.105-4.143 9.248-9.248 9.248 0-5.105 4.143-9.248 9.248-9.248m0 0c5.105 0 9.248 4.143 9.248 9.248-5.105 0-9.248-4.143-9.248-9.248m18.496 0c0 5.105-4.144 9.248-9.248 9.248 0-5.105 4.143-9.248 9.248-9.248m0 0c-5.105 0-9.248-4.143-9.248-9.248 5.104 0 9.248 4.144 9.248 9.248m-9.258-9.248c0 5.105-4.143 9.248-9.248 9.248 0-5.104 4.143-9.248 9.248-9.248"/>
      <path d="M251.279 39.37c0 5.105-4.143 9.248-9.248 9.248 0-5.104 4.143-9.248 9.248-9.248m-9.238 9.248c5.104 0 9.247 4.143 9.247 9.248-5.104 0-9.247-4.143-9.247-9.248M29.347 39.37c0-5.104 4.143-9.247 9.248-9.247 0 5.104-4.143 9.247-9.248 9.247m-.009 0c-5.105 0-9.248-4.143-9.248-9.247 5.105 0 9.248 4.143 9.248 9.247m0-18.495c0 5.104-4.143 9.247-9.248 9.247 0-5.104 4.143-9.247 9.248-9.247m9.248 9.247c-5.105 0-9.248-4.143-9.248-9.247 5.104 0 9.248 4.143 9.248 9.247m18.495 0c-5.104 0-9.248-4.143-9.248-9.247 5.105 0 9.248 4.143 9.248 9.247m0 .001c0 5.104-4.143 9.247-9.248 9.247 0-5.104 4.144-9.247 9.248-9.247"/>
      <path d="M47.834 39.37c-5.105 0-9.248-4.143-9.248-9.247 5.104 0 9.248 4.143 9.248 9.247m0-18.495c0 5.104-4.144 9.247-9.248 9.247 0-5.104 4.143-9.247 9.248-9.247m18.496 0c0 5.104-4.144 9.247-9.249 9.247 0-5.104 4.143-9.247 9.248-9.247Zm-9.249 9.248c5.105 0 9.248 4.143 9.248 9.247-5.104 0-9.248-4.143-9.248-9.247"/>
      <path d="M75.577 30.123c0 5.104-4.143 9.247-9.248 9.247 0-5.104 4.143-9.247 9.248-9.247m0-.001c-5.105 0-9.248-4.143-9.248-9.247 5.105 0 9.248 4.143 9.248 9.247m18.496 0c-5.105 0-9.248-4.143-9.248-9.247 5.105 0 9.248 4.143 9.248 9.247m-18.496.001c5.105 0 9.248 4.143 9.248 9.247-5.105 0-9.248-4.143-9.248-9.247"/>
      <path d="M94.073 30.123c0 5.104-4.143 9.247-9.248 9.247 0-5.104 4.143-9.247 9.248-9.247m-9.248-9.248c0 5.104-4.143 9.247-9.248 9.247 0-5.104 4.144-9.247 9.248-9.247m9.248 9.248c5.105 0 9.248 4.143 9.248 9.247-5.105 0-9.248-4.143-9.248-9.247m9.248-9.248c0 5.104-4.143 9.247-9.248 9.247 0-5.104 4.143-9.247 9.248-9.247m9.248 9.247c-5.105 0-9.248-4.143-9.248-9.247 5.105 0 9.248 4.143 9.248 9.247m0 .001c0 5.104-4.143 9.247-9.248 9.247 0-5.104 4.143-9.247 9.248-9.247m18.496 0c0 5.104-4.143 9.247-9.248 9.247 0-5.104 4.143-9.247 9.248-9.247"/>
      <path d="M112.569 30.123c5.105 0 9.248 4.143 9.248 9.247-5.105 0-9.248-4.143-9.248-9.247m18.496-.001c-5.105 0-9.248-4.143-9.248-9.247 5.105 0 9.248 4.143 9.248 9.247m-9.248-9.247c0 5.104-4.143 9.247-9.248 9.247 0-5.104 4.143-9.247 9.248-9.247m27.744 9.248c0 5.104-4.143 9.247-9.248 9.247 0-5.104 4.143-9.247 9.248-9.247m-18.496 0c5.105 0 9.248 4.143 9.248 9.247-5.105 0-9.248-4.143-9.248-9.247m18.496-.001c-5.105 0-9.248-4.143-9.248-9.247 5.105 0 9.248 4.143 9.248 9.247m-9.248-9.247c0 5.104-4.143 9.247-9.248 9.247 0-5.104 4.143-9.247 9.248-9.247m18.496 0c0 5.104-4.143 9.247-9.248 9.247 0-5.104 4.143-9.247 9.248-9.247m9.248 9.248c0 5.104-4.143 9.247-9.248 9.247 0-5.104 4.143-9.247 9.248-9.247m0-.001c-5.105 0-9.248-4.143-9.248-9.247 5.105 0 9.248 4.143 9.248 9.247m-18.496.001c5.105 0 9.248 4.143 9.248 9.247-5.105 0-9.248-4.143-9.248-9.247m27.744-9.248c0 5.104-4.143 9.247-9.248 9.247 0-5.104 4.143-9.247 9.248-9.247m9.248 9.248c0 5.104-4.143 9.247-9.248 9.247 0-5.104 4.143-9.247 9.248-9.247m0-.001c-5.105 0-9.248-4.143-9.248-9.247 5.105 0 9.248 4.143 9.248 9.247m-18.496.001c5.105 0 9.248 4.143 9.248 9.247-5.105 0-9.248-4.143-9.248-9.247m36.992 0c0 5.104-4.143 9.247-9.248 9.247 0-5.104 4.143-9.247 9.248-9.247m-18.496 0c5.105 0 9.248 4.143 9.248 9.247-5.105 0-9.248-4.143-9.248-9.247m18.496-.001c-5.105 0-9.248-4.143-9.248-9.247 5.105 0 9.248 4.143 9.248 9.247m-9.248-9.247c0 5.104-4.143 9.247-9.248 9.247 0-5.104 4.143-9.247 9.248-9.247m27.744 9.247c-5.105 0-9.248-4.143-9.248-9.247 5.105 0 9.248 4.143 9.248 9.247m0 .001c0 5.104-4.143 9.247-9.248 9.247 0-5.104 4.143-9.247 9.248-9.247"/>
      <path d="M214.287 20.875c0 5.104-4.143 9.247-9.247 9.247 0-5.104 4.143-9.247 9.247-9.247m-9.238 9.248c5.105 0 9.248 4.143 9.248 9.247-5.105 0-9.248-4.143-9.248-9.247m36.982 0c0 5.104-4.143 9.247-9.248 9.247 0-5.104 4.143-9.247 9.248-9.247m-9.248-9.248c0 5.104-4.143 9.247-9.248 9.247 0-5.104 4.143-9.247 9.248-9.247m9.258 9.247c-5.105 0-9.248-4.143-9.248-9.247 5.104 0 9.248 4.143 9.248 9.247"/>
      <path d="M223.545 30.123c5.105 0 9.248 4.143 9.248 9.247-5.105 0-9.248-4.143-9.248-9.247m27.734-9.248c0 5.104-4.143 9.247-9.248 9.247 0-5.104 4.143-9.247 9.248-9.247m-9.238 9.248c5.104 0 9.247 4.143 9.247 9.247-5.104 0-9.247-4.143-9.247-9.247M38.586 11.627c-5.105 0-9.248-4.143-9.248-9.248 5.104 0 9.248 4.143 9.248 9.248m-9.248 9.248c-5.105 0-9.248-4.143-9.248-9.248 5.105 0 9.248 4.143 9.248 9.248"/>
      <path d="M29.337 20.875c0-5.105 4.144-9.248 9.249-9.248 0 5.104-4.144 9.248-9.248 9.248Zm.001-18.496c0 5.105-4.143 9.248-9.248 9.248 0-5.105 4.143-9.248 9.248-9.248m18.496 18.496c0-5.105 4.143-9.248 9.247-9.248 0 5.104-4.143 9.248-9.248 9.248Zm9.247-9.248c-5.104 0-9.248-4.143-9.248-9.248 5.105 0 9.248 4.143 9.248 9.248"/>
      <path d="M47.834 20.875c-5.105 0-9.248-4.143-9.248-9.248 5.104 0 9.248 4.143 9.248 9.248m0-18.496c0 5.105-4.144 9.248-9.248 9.248 0-5.105 4.143-9.248 9.248-9.248M66.33 20.875c-5.105 0-9.249-4.143-9.249-9.248 5.105 0 9.248 4.143 9.248 9.248Zm9.247-9.248c-5.105 0-9.248-4.143-9.248-9.248 5.105 0 9.248 4.143 9.248 9.248"/>
      <path d="M75.577 11.627c0 5.104-4.143 9.248-9.248 9.248 0-5.105 4.143-9.248 9.248-9.248M66.33 2.379c0 5.105-4.144 9.248-9.249 9.248 0-5.105 4.143-9.248 9.248-9.248Zm9.247 9.248c5.105 0 9.248 4.143 9.248 9.248-5.105 0-9.248-4.143-9.248-9.248m18.496 0c-5.105 0-9.248-4.143-9.248-9.248 5.105 0 9.248 4.143 9.248 9.248"/>
      <path d="M84.825 2.379c0 5.105-4.143 9.248-9.248 9.248 0-5.105 4.144-9.248 9.248-9.248m9.248 9.248c0 5.104-4.143 9.248-9.248 9.248 0-5.105 4.143-9.248 9.248-9.248m0 0c5.105 0 9.248 4.143 9.248 9.248-5.105 0-9.248-4.143-9.248-9.248m18.496 0c-5.105 0-9.248-4.143-9.248-9.248 5.105 0 9.248 4.143 9.248 9.248m0 0c0 5.104-4.143 9.248-9.248 9.248 0-5.105 4.143-9.248 9.248-9.248m-9.248-9.248c0 5.105-4.143 9.248-9.248 9.248 0-5.105 4.143-9.248 9.248-9.248m9.248 9.248c5.105 0 9.248 4.143 9.248 9.248-5.105 0-9.248-4.143-9.248-9.248"/>
      <path d="M131.065 11.627c0 5.104-4.143 9.248-9.248 9.248 0-5.105 4.143-9.248 9.248-9.248m-9.248-9.248c0 5.105-4.143 9.248-9.248 9.248 0-5.105 4.143-9.248 9.248-9.248m9.248 9.248c-5.105 0-9.248-4.143-9.248-9.248 5.105 0 9.248 4.143 9.248 9.248m0 0c5.105 0 9.248 4.143 9.248 9.248-5.105 0-9.248-4.143-9.248-9.248m18.496 0c0 5.104-4.143 9.248-9.248 9.248 0-5.105 4.143-9.248 9.248-9.248m-9.248-9.248c0 5.105-4.143 9.248-9.248 9.248 0-5.105 4.143-9.248 9.248-9.248m9.248 9.248c-5.105 0-9.248-4.143-9.248-9.248 5.105 0 9.248 4.143 9.248 9.248m0 0c5.105 0 9.248 4.143 9.248 9.248-5.105 0-9.248-4.143-9.248-9.248m18.496 0c0 5.104-4.143 9.248-9.248 9.248 0-5.105 4.143-9.248 9.248-9.248m-9.248-9.248c0 5.105-4.143 9.248-9.248 9.248 0-5.105 4.143-9.248 9.248-9.248m9.248 9.248c-5.105 0-9.248-4.143-9.248-9.248 5.105 0 9.248 4.143 9.248 9.248m18.496 0c0 5.104-4.143 9.248-9.248 9.248 0-5.105 4.143-9.248 9.248-9.248m0 0c-5.105 0-9.248-4.143-9.248-9.248 5.105 0 9.248 4.143 9.248 9.248m-9.248-9.248c0 5.105-4.143 9.248-9.248 9.248 0-5.105 4.143-9.248 9.248-9.248m-9.248 9.248c5.105 0 9.248 4.143 9.248 9.248-5.105 0-9.248-4.143-9.248-9.248"/>
      <path d="M195.792 2.379c0 5.105-4.144 9.248-9.248 9.248 0-5.105 4.143-9.248 9.248-9.248m9.257 9.248c0 5.104-4.143 9.248-9.248 9.248 0-5.105 4.143-9.248 9.248-9.248m0 0c-5.105 0-9.248-4.143-9.248-9.248 5.105 0 9.248 4.143 9.248 9.248m-18.496 0c5.105 0 9.248 4.143 9.248 9.248-5.105 0-9.248-4.143-9.248-9.248m36.992 0c-5.105 0-9.248-4.143-9.248-9.248 5.105 0 9.248 4.143 9.248 9.248m0 0c0 5.104-4.143 9.248-9.248 9.248 0-5.105 4.143-9.248 9.248-9.248"/>
      <path d="M214.287 2.379c0 5.105-4.143 9.248-9.247 9.248 0-5.105 4.143-9.248 9.247-9.248m-9.238 9.248c5.105 0 9.248 4.143 9.248 9.248-5.105 0-9.248-4.143-9.248-9.248m18.496 0c5.105 0 9.248 4.143 9.248 9.248-5.105 0-9.248-4.143-9.248-9.248m9.238-9.248c0 5.105-4.143 9.248-9.248 9.248 0-5.105 4.143-9.248 9.248-9.248m.01 18.496c0-5.105 4.143-9.248 9.248-9.248 0 5.104-4.144 9.248-9.248 9.248m0-18.496c5.104 0 9.248 4.143 9.248 9.248-5.105 0-9.248-4.143-9.248-9.248m9.248 9.248c5.104 0 9.247 4.143 9.247 9.248-5.104 0-9.247-4.143-9.247-9.248"/>
      <path d="M251.279 2.379c0 5.105-4.143 9.248-9.248 9.248 0-5.105 4.143-9.248 9.248-9.248m-221.932 0c0-5.105 4.143-9.248 9.248-9.248 0 5.105-4.143 9.248-9.248 9.248m-.009 0c-5.105 0-9.248-4.143-9.248-9.248 5.105 0 9.248 4.143 9.248 9.248"/>
      <path d="M47.834 2.379c-5.105 0-9.248-4.143-9.248-9.248 5.104 0 9.248 4.143 9.248 9.248"/>
      <path d="M47.834 2.379c0-5.105 4.143-9.248 9.247-9.248 0 5.105-4.143 9.248-9.248 9.248Zm18.496 0c0-5.105 4.142-9.248 9.247-9.248 0 5.105-4.143 9.248-9.248 9.248Z"/>
      <path d="M66.33 2.379c-5.105 0-9.249-4.143-9.249-9.248 5.105 0 9.248 4.143 9.248 9.248Zm18.495 0c-5.105 0-9.248-4.143-9.248-9.248 5.105 0 9.248 4.143 9.248 9.248"/>
      <path d="M94.073-6.87c0 5.106-4.143 9.249-9.248 9.249 0-5.105 4.143-9.248 9.248-9.248Zm18.496 0c0 5.106-4.143 9.249-9.248 9.249 0-5.105 4.143-9.248 9.248-9.248Zm-18.496.01c5.105 0 9.248 4.143 9.248 9.248-5.105 0-9.248-4.143-9.248-9.248m36.992-.01c0 5.106-4.143 9.249-9.248 9.249 0-5.105 4.143-9.248 9.248-9.248Z"/>
      <path d="M112.569-6.87c5.105 0 9.248 4.144 9.248 9.249-5.105 0-9.248-4.143-9.248-9.248Zm18.496 0c5.105 0 9.248 4.144 9.248 9.249-5.105 0-9.248-4.143-9.248-9.248Zm18.496 0c0 5.106-4.143 9.249-9.248 9.249 0-5.105 4.143-9.248 9.248-9.248Zm0 .01c5.105 0 9.248 4.143 9.248 9.248-5.105 0-9.248-4.143-9.248-9.248m18.496-.01c0 5.106-4.143 9.249-9.248 9.249 0-5.105 4.143-9.248 9.248-9.248Zm18.496 0c0 5.106-4.143 9.249-9.248 9.249 0-5.105 4.143-9.248 9.248-9.248Zm-18.496 0c5.105 0 9.248 4.144 9.248 9.249-5.105 0-9.248-4.143-9.248-9.248Zm36.992 0c0 5.106-4.143 9.249-9.248 9.249 0-5.105 4.143-9.248 9.248-9.248Zm-18.496 0c5.105 0 9.248 4.144 9.248 9.249-5.105 0-9.248-4.143-9.248-9.248Zm27.744 9.249c0-5.105 4.143-9.248 9.248-9.248 0 5.105-4.143 9.248-9.248 9.248m-9.248-9.249c5.105 0 9.248 4.144 9.248 9.249-5.105 0-9.248-4.143-9.248-9.248Zm18.496 0c5.105 0 9.248 4.144 9.248 9.249-5.105 0-9.248-4.143-9.248-9.248Zm9.248 9.249c0-5.105 4.143-9.248 9.248-9.248 0 5.105-4.144 9.248-9.248 9.248m9.248-9.249c5.104 0 9.247 4.144 9.247 9.249-5.104 0-9.247-4.143-9.247-9.248Z"/>
    </g>
  </g>
  <path stroke="#000" stroke-linecap="round" stroke-linejoin="round" d="M138.907 9.463c33.626 0 65.587 6.603 95.143 19.624l-19.531 50.956c-12.864-4.939-39.868-13.206-76.481-13.206-27.411 0-55.072 4.66-82.335 13.853L36.014 29.577c15.602-6.39 54.711-20.114 102.893-20.114"/>
  <path fill="#EF4B23" d="M138.907 9.463c33.626 0 65.587 6.603 95.143 19.624l-19.531 50.956c-12.864-4.939-39.868-13.206-76.481-13.206-27.411 0-55.072 4.66-82.335 13.853L36.014 29.577c15.602-6.39 54.711-20.114 102.893-20.114"/>
  <path fill="#C71E11" d="m11.461 21.207-.49-1.488s2.312-3.626 8.221-2.544l.898 1.591-8.629 2.442Z"/>
  <path fill="#EF4B23" d="m20.95 18.026 29.64 74.465-16.268 4.522-24.313-75.38s2.442-3.81 10.94-3.607Z"/>
  <mask id="b" width="41" height="80" x="10" y="18" maskUnits="userSpaceOnUse" style="mask-type:luminance">
    <path fill="#fff" d="m20.95 18.026 29.64 74.465-16.268 4.522-24.313-75.38s2.442-3.81 10.94-3.607Z"/>
  </mask>
  <g fill="#F56D27" mask="url(#b)">
    <path d="M41.758 20.301a7.085 7.085 0 0 0 7.084-7.084 7.075 7.075 0 0 0-7.075 7.075l-.01.01Z"/>
    <path d="M48.841 13.217a7.085 7.085 0 0 0 7.084 7.084 7.075 7.075 0 0 0-7.074-7.075zm.001 14.159a7.075 7.075 0 0 0 7.074-7.075 7.085 7.085 0 0 0-7.084 7.084l.01-.01Z"/>
    <path d="M48.842 27.376a7.084 7.084 0 0 0-7.084-7.084 7.075 7.075 0 0 0 7.074 7.075zm0 14.159a7.084 7.084 0 0 0-7.084-7.084 7.075 7.075 0 0 0 7.074 7.074z"/>
    <path d="M41.758 34.46a7.085 7.085 0 0 0 7.084-7.084 7.075 7.075 0 0 0-7.075 7.074l-.01.01Z"/>
    <path d="M48.841 27.376a7.085 7.085 0 0 0 7.084 7.084 7.075 7.075 0 0 0-7.074-7.075l-.01-.01Zm.001 14.158a7.075 7.075 0 0 0 7.074-7.074 7.085 7.085 0 0 0-7.084 7.084z"/>
    <path d="M41.758 48.618a7.085 7.085 0 0 0 7.084-7.084 7.075 7.075 0 0 0-7.075 7.075l-.01.01Z"/>
    <path d="M48.842 55.693a7.085 7.085 0 0 0-7.084-7.084 7.075 7.075 0 0 0 7.074 7.075z"/>
    <path d="M48.842 55.693a7.075 7.075 0 0 0 7.074-7.075 7.085 7.085 0 0 0-7.084 7.084zm-.001-14.159a7.085 7.085 0 0 0 7.084 7.084 7.075 7.075 0 0 0-7.074-7.074zm.001 28.318a7.085 7.085 0 0 0-7.084-7.084 7.075 7.075 0 0 0 7.074 7.074z"/>
    <path d="M48.842 69.852a7.075 7.075 0 0 0 7.074-7.075 7.084 7.084 0 0 0-7.084 7.084l.01-.01Zm-7.084-7.075a7.085 7.085 0 0 0 7.084-7.084 7.075 7.075 0 0 0-7.075 7.075l-.01.01Z"/>
    <path d="M48.841 55.693a7.085 7.085 0 0 0 7.084 7.084 7.075 7.075 0 0 0-7.074-7.075zm0 14.159a7.085 7.085 0 0 0 7.084 7.084 7.075 7.075 0 0 0-7.074-7.075l-.01-.01Z"/>
    <path d="M41.758 76.936a7.084 7.084 0 0 0 7.084-7.084 7.075 7.075 0 0 0-7.075 7.074l-.01.01Z"/>
    <path d="M48.842 84.02a7.084 7.084 0 0 0-7.084-7.084 7.075 7.075 0 0 0 7.074 7.074z"/>
    <path d="M48.842 84.02a7.075 7.075 0 0 0 7.074-7.075 7.085 7.085 0 0 0-7.084 7.084l.01-.01Zm0 14.158a7.085 7.085 0 0 0-7.084-7.084 7.075 7.075 0 0 0 7.074 7.075l.01.01Z"/>
    <path d="M41.758 91.094a7.084 7.084 0 0 0 7.084-7.084 7.075 7.075 0 0 0-7.075 7.075l-.01.01Z"/>
    <path d="M48.841 84.02a7.085 7.085 0 0 0 7.084 7.084 7.075 7.075 0 0 0-7.074-7.075l-.01-.01Z"/>
    <path d="M48.842 98.178a7.075 7.075 0 0 0 7.074-7.075 7.085 7.085 0 0 0-7.084 7.084zM27.599 20.301a7.085 7.085 0 0 0 7.084-7.084 7.075 7.075 0 0 0-7.075 7.075l-.01.01Zm7.084 7.075a7.075 7.075 0 0 0 7.075-7.075 7.085 7.085 0 0 0-7.084 7.084l.009-.01Z"/>
    <path d="M34.683 13.217a7.085 7.085 0 0 0 7.084 7.084 7.075 7.075 0 0 0-7.075-7.075l-.01-.009Zm0 14.159a7.084 7.084 0 0 0-7.084-7.084 7.075 7.075 0 0 0 7.075 7.075zm-7.084 7.084a7.085 7.085 0 0 0 7.084-7.084 7.075 7.075 0 0 0-7.075 7.074l-.01.01Zm7.084 7.074a7.075 7.075 0 0 0 7.075-7.074 7.085 7.085 0 0 0-7.084 7.084z"/>
    <path d="M34.683 27.376a7.085 7.085 0 0 0 7.084 7.084 7.075 7.075 0 0 0-7.075-7.075l-.01-.01Zm0 14.159a7.084 7.084 0 0 0-7.084-7.084 7.075 7.075 0 0 0 7.075 7.074zm0 14.158a7.085 7.085 0 0 0-7.084-7.084 7.075 7.075 0 0 0 7.075 7.075l.009.01Z"/>
    <path d="M34.683 55.693a7.075 7.075 0 0 0 7.075-7.075 7.085 7.085 0 0 0-7.084 7.084zm0-14.159a7.085 7.085 0 0 0 7.084 7.084 7.075 7.075 0 0 0-7.075-7.074l-.01-.01Z"/>
    <path d="M27.599 48.618a7.085 7.085 0 0 0 7.084-7.084 7.075 7.075 0 0 0-7.075 7.075l-.01.01Zm0 14.159a7.085 7.085 0 0 0 7.084-7.084 7.075 7.075 0 0 0-7.075 7.075l-.01.01Z"/>
    <path d="M34.683 55.693a7.085 7.085 0 0 0 7.084 7.084 7.075 7.075 0 0 0-7.075-7.075l-.01-.009Zm0 14.159a7.085 7.085 0 0 0-7.084-7.084 7.075 7.075 0 0 0 7.075 7.074z"/>
    <path d="M34.683 69.852a7.075 7.075 0 0 0 7.075-7.075 7.084 7.084 0 0 0-7.084 7.084l.009-.01Zm0 14.168a7.084 7.084 0 0 0-7.084-7.084 7.075 7.075 0 0 0 7.075 7.074z"/>
    <path d="M27.599 76.936a7.084 7.084 0 0 0 7.084-7.084 7.075 7.075 0 0 0-7.075 7.074l-.01.01Zm7.084 7.084a7.075 7.075 0 0 0 7.075-7.075 7.085 7.085 0 0 0-7.084 7.084z"/>
    <path d="M34.683 69.852a7.084 7.084 0 0 0 7.084 7.084 7.075 7.075 0 0 0-7.075-7.075l-.01-.01Zm0 28.326a7.075 7.075 0 0 0 7.075-7.075 7.085 7.085 0 0 0-7.084 7.084z"/>
    <path d="M34.683 98.178a7.085 7.085 0 0 0-7.084-7.084 7.075 7.075 0 0 0 7.075 7.075l.009.01Zm0-14.158a7.085 7.085 0 0 0 7.084 7.084 7.075 7.075 0 0 0-7.075-7.075l-.01-.01Z"/>
    <path d="M27.599 91.094a7.084 7.084 0 0 0 7.084-7.084 7.075 7.075 0 0 0-7.075 7.075l-.01.01Zm-7.075-63.718a7.084 7.084 0 0 0-7.084-7.084 7.075 7.075 0 0 0 7.075 7.075l.01.009Z"/>
    <path d="M13.44 20.301a7.085 7.085 0 0 0 7.084-7.084 7.075 7.075 0 0 0-7.074 7.075l-.01.01Zm7.084 7.075A7.075 7.075 0 0 0 27.6 20.3a7.085 7.085 0 0 0-7.084 7.084l.01-.01Z"/>
    <path d="M20.524 13.217a7.085 7.085 0 0 0 7.084 7.084 7.075 7.075 0 0 0-7.075-7.075zm0 28.317A7.075 7.075 0 0 0 27.6 34.46a7.085 7.085 0 0 0-7.084 7.084l.01-.01Zm0-14.158a7.085 7.085 0 0 0 7.084 7.084 7.075 7.075 0 0 0-7.075-7.075l-.009-.01Z"/>
    <path d="M20.524 41.535a7.084 7.084 0 0 0-7.084-7.084 7.075 7.075 0 0 0 7.075 7.074l.01.01Z"/>
    <path d="M13.44 34.46a7.085 7.085 0 0 0 7.084-7.084 7.075 7.075 0 0 0-7.074 7.074zm0 14.158a7.085 7.085 0 0 0 7.084-7.084 7.075 7.075 0 0 0-7.074 7.075l-.01.01Z"/>
    <path d="M20.515 55.693a7.085 7.085 0 0 0-7.084-7.084 7.075 7.075 0 0 0 7.075 7.075zm.009 0a7.075 7.075 0 0 0 7.075-7.075 7.085 7.085 0 0 0-7.084 7.084l.01-.009Zm0-14.159a7.085 7.085 0 0 0 7.084 7.084 7.075 7.075 0 0 0-7.075-7.074zm0 28.318a7.075 7.075 0 0 0 7.075-7.075 7.085 7.085 0 0 0-7.084 7.084l.01-.01Z"/>
    <path d="M20.524 55.693a7.085 7.085 0 0 0 7.084 7.084 7.075 7.075 0 0 0-7.075-7.075zm-7.084 7.084a7.085 7.085 0 0 0 7.084-7.084 7.075 7.075 0 0 0-7.074 7.075z"/>
    <path d="M20.524 69.852a7.085 7.085 0 0 0-7.084-7.084 7.075 7.075 0 0 0 7.075 7.074l.01.01Zm0 14.168a7.084 7.084 0 0 0-7.084-7.084 7.075 7.075 0 0 0 7.075 7.074l.01.01Z"/>
    <path d="M13.44 76.936a7.084 7.084 0 0 0 7.084-7.084 7.075 7.075 0 0 0-7.074 7.074zm7.084-7.084a7.084 7.084 0 0 0 7.084 7.084 7.075 7.075 0 0 0-7.075-7.075l-.009-.01Zm0 14.168a7.075 7.075 0 0 0 7.075-7.075 7.085 7.085 0 0 0-7.084 7.084l.01-.01Zm0 14.158a7.085 7.085 0 0 0-7.084-7.084 7.075 7.075 0 0 0 7.075 7.075l.01.01Z"/>
    <path d="M13.44 91.094a7.084 7.084 0 0 0 7.084-7.084 7.075 7.075 0 0 0-7.074 7.075l-.01.01Zm7.084 7.084a7.075 7.075 0 0 0 7.075-7.075 7.085 7.085 0 0 0-7.084 7.084l.01-.009Z"/>
    <path d="M20.524 84.02a7.085 7.085 0 0 0 7.084 7.084 7.075 7.075 0 0 0-7.075-7.075l-.009-.01ZM6.366 13.217a7.085 7.085 0 0 0 7.084 7.084 7.075 7.075 0 0 0-7.075-7.075l-.01-.009Z"/>
    <path d="M6.366 27.376A7.075 7.075 0 0 0 13.44 20.3a7.085 7.085 0 0 0-7.084 7.084l.01-.01Zm0 14.158a7.075 7.075 0 0 0 7.074-7.074 7.085 7.085 0 0 0-7.084 7.084z"/>
    <path d="M6.366 27.376a7.085 7.085 0 0 0 7.084 7.084 7.075 7.075 0 0 0-7.075-7.075l-.01-.01Zm0 28.317a7.075 7.075 0 0 0 7.074-7.075 7.085 7.085 0 0 0-7.084 7.084zm0-14.159a7.085 7.085 0 0 0 7.084 7.084 7.075 7.075 0 0 0-7.075-7.074l-.01-.01Zm0 28.318a7.075 7.075 0 0 0 7.074-7.075 7.084 7.084 0 0 0-7.084 7.084l.01-.01Z"/>
    <path d="M6.366 55.693a7.085 7.085 0 0 0 7.084 7.084 7.075 7.075 0 0 0-7.075-7.075l-.01-.009Zm0 28.327a7.075 7.075 0 0 0 7.074-7.075 7.085 7.085 0 0 0-7.084 7.084l.01-.01Zm0-14.168a7.084 7.084 0 0 0 7.084 7.084 7.075 7.075 0 0 0-7.075-7.075l-.01-.01Zm0 28.326a7.075 7.075 0 0 0 7.074-7.075 7.085 7.085 0 0 0-7.084 7.084z"/>
    <path d="M6.366 84.02a7.085 7.085 0 0 0 7.084 7.084 7.075 7.075 0 0 0-7.075-7.075l-.01-.01Z"/>
  </g>
  <path fill="#C71E11" d="M43.53 98.632c4.494-1.241 7.657-3.988 7.064-6.134s-4.717-2.88-9.212-1.639c-4.495 1.242-7.658 3.988-7.065 6.135s4.717 2.88 9.212 1.638Z"/>
  <path fill="#FFF400" d="M41.684 93.064s-6.187 1.998-4.819 5.188c1.175 1.767 5.031 2.534 7.584 1.563s4.744-2.931 4.624-5.567c-.12-1.628-3.154-2.738-7.39-1.184Z"/>
  <path fill="#C71E11" d="m258.53 21.207.49-1.488s-2.312-3.626-8.222-2.544l-.897 1.591 8.629 2.442Z"/>
  <path fill="#EF4B23" d="m249.041 18.026-29.64 74.465 16.268 4.522 24.312-75.38s-2.441-3.81-10.94-3.607"/>
  <mask id="c" width="41" height="80" x="219" y="18" maskUnits="userSpaceOnUse" style="mask-type:luminance">
    <path fill="#fff" d="m249.041 18.026-29.64 74.465 16.268 4.522 24.312-75.38s-2.441-3.81-10.94-3.607"/>
  </mask>
  <g fill="#F56D27" mask="url(#c)">
    <path d="M228.233 20.301a7.085 7.085 0 0 1-7.084-7.084 7.075 7.075 0 0 1 7.075 7.075l.009.01Zm-7.084-7.084a7.085 7.085 0 0 1-7.084 7.084 7.075 7.075 0 0 1 7.075-7.075zm.01 14.159a7.075 7.075 0 0 1-7.075-7.075 7.085 7.085 0 0 1 7.084 7.084l-.009-.01Z"/>
    <path d="M221.159 27.376a7.084 7.084 0 0 1 7.084-7.084 7.075 7.075 0 0 1-7.075 7.075zm0 14.159a7.084 7.084 0 0 1 7.084-7.084 7.075 7.075 0 0 1-7.075 7.074z"/>
    <path d="M228.233 34.46a7.085 7.085 0 0 1-7.084-7.084 7.075 7.075 0 0 1 7.075 7.074zm-7.084-7.084a7.085 7.085 0 0 1-7.084 7.084 7.075 7.075 0 0 1 7.075-7.075l.009-.01Zm.01 14.158a7.075 7.075 0 0 1-7.075-7.074 7.085 7.085 0 0 1 7.084 7.084z"/>
    <path d="M228.233 48.618a7.085 7.085 0 0 1-7.084-7.084 7.075 7.075 0 0 1 7.075 7.075l.009.01Z"/>
    <path d="M221.159 55.693a7.085 7.085 0 0 1 7.084-7.084 7.075 7.075 0 0 1-7.075 7.075z"/>
    <path d="M221.159 55.693a7.075 7.075 0 0 1-7.075-7.075 7.085 7.085 0 0 1 7.084 7.084zm-.01-14.159a7.085 7.085 0 0 1-7.084 7.084 7.075 7.075 0 0 1 7.075-7.074zm.01 28.318a7.085 7.085 0 0 1 7.084-7.084 7.075 7.075 0 0 1-7.075 7.074z"/>
    <path d="M221.159 69.852a7.075 7.075 0 0 1-7.075-7.075 7.084 7.084 0 0 1 7.084 7.084l-.009-.01Zm7.074-7.075a7.085 7.085 0 0 1-7.084-7.084 7.075 7.075 0 0 1 7.075 7.075zm-7.084-7.084a7.085 7.085 0 0 1-7.084 7.084 7.075 7.075 0 0 1 7.075-7.075z"/>
    <path d="M221.149 69.852a7.084 7.084 0 0 1-7.084 7.084 7.075 7.075 0 0 1 7.075-7.075l.009-.01Zm7.084 7.084a7.084 7.084 0 0 1-7.084-7.084 7.075 7.075 0 0 1 7.075 7.074z"/>
    <path d="M221.159 84.02a7.084 7.084 0 0 1 7.084-7.084 7.075 7.075 0 0 1-7.075 7.074z"/>
    <path d="M221.159 84.02a7.075 7.075 0 0 1-7.075-7.075 7.085 7.085 0 0 1 7.084 7.084l-.009-.01Zm0 14.158a7.085 7.085 0 0 1 7.084-7.084 7.075 7.075 0 0 1-7.075 7.075l-.009.01Z"/>
    <path d="M228.233 91.094a7.084 7.084 0 0 1-7.084-7.084 7.075 7.075 0 0 1 7.075 7.075l.009.01Zm-7.084-7.074a7.085 7.085 0 0 1-7.084 7.084 7.075 7.075 0 0 1 7.075-7.075l.009-.01Z"/>
    <path d="M221.159 98.178a7.075 7.075 0 0 1-7.075-7.075 7.085 7.085 0 0 1 7.084 7.084zm21.233-77.877a7.085 7.085 0 0 1-7.084-7.084 7.075 7.075 0 0 1 7.075 7.075l.009.01Zm-7.075 7.075a7.075 7.075 0 0 1-7.075-7.075 7.085 7.085 0 0 1 7.084 7.084l-.009-.01Zm-.009-14.159a7.085 7.085 0 0 1-7.084 7.084 7.075 7.075 0 0 1 7.075-7.075z"/>
    <path d="M235.317 27.376a7.084 7.084 0 0 1 7.084-7.084 7.075 7.075 0 0 1-7.075 7.075zm7.075 7.084a7.085 7.085 0 0 1-7.084-7.084 7.075 7.075 0 0 1 7.075 7.074zm-7.075 7.074a7.075 7.075 0 0 1-7.075-7.074 7.085 7.085 0 0 1 7.084 7.084z"/>
    <path d="M235.317 27.376a7.085 7.085 0 0 1-7.084 7.084 7.075 7.075 0 0 1 7.075-7.075l.009-.01Zm0 14.159a7.084 7.084 0 0 1 7.084-7.084 7.075 7.075 0 0 1-7.075 7.074zm0 14.158a7.085 7.085 0 0 1 7.084-7.084 7.075 7.075 0 0 1-7.075 7.075l-.009.01Z"/>
    <path d="M235.317 55.693a7.075 7.075 0 0 1-7.075-7.075 7.085 7.085 0 0 1 7.084 7.084zm-.009-14.159a7.085 7.085 0 0 1-7.084 7.084 7.075 7.075 0 0 1 7.075-7.074zm7.084 7.084a7.085 7.085 0 0 1-7.084-7.084 7.075 7.075 0 0 1 7.075 7.075z"/>
    <path d="M242.392 62.777a7.085 7.085 0 0 1-7.084-7.084 7.075 7.075 0 0 1 7.075 7.075zm-7.084-7.084a7.085 7.085 0 0 1-7.084 7.084 7.075 7.075 0 0 1 7.075-7.075z"/>
    <path d="M235.317 69.852a7.085 7.085 0 0 1 7.084-7.084 7.075 7.075 0 0 1-7.075 7.074z"/>
    <path d="M235.317 69.852a7.075 7.075 0 0 1-7.075-7.075 7.084 7.084 0 0 1 7.084 7.084l-.009-.01Zm0 14.168a7.084 7.084 0 0 1 7.084-7.084 7.075 7.075 0 0 1-7.075 7.074z"/>
    <path d="M242.392 76.936a7.084 7.084 0 0 1-7.084-7.084 7.075 7.075 0 0 1 7.075 7.074zm-7.075 7.084a7.075 7.075 0 0 1-7.075-7.075 7.085 7.085 0 0 1 7.084 7.084z"/>
    <path d="M235.317 69.852a7.084 7.084 0 0 1-7.084 7.084 7.075 7.075 0 0 1 7.075-7.075l.009-.01Zm0 28.326a7.075 7.075 0 0 1-7.075-7.075 7.085 7.085 0 0 1 7.084 7.084z"/>
    <path d="M235.317 98.178a7.085 7.085 0 0 1 7.084-7.084 7.075 7.075 0 0 1-7.075 7.075l-.009.01Zm0-14.158a7.085 7.085 0 0 1-7.084 7.084 7.075 7.075 0 0 1 7.075-7.075l.009-.01Z"/>
    <path d="M242.392 91.094a7.084 7.084 0 0 1-7.084-7.084 7.075 7.075 0 0 1 7.075 7.075l.009.01Zm7.084-63.718a7.084 7.084 0 0 1 7.084-7.084 7.075 7.075 0 0 1-7.075 7.075z"/>
    <path d="M256.55 20.301a7.084 7.084 0 0 1-7.083-7.084 7.075 7.075 0 0 1 7.074 7.075l.009.01Zm-7.074 7.075a7.075 7.075 0 0 1-7.075-7.075 7.085 7.085 0 0 1 7.084 7.084l-.009-.01Z"/>
    <path d="M249.467 13.217a7.085 7.085 0 0 1-7.084 7.084 7.074 7.074 0 0 1 7.074-7.075zm.009 28.317a7.075 7.075 0 0 1-7.075-7.074 7.085 7.085 0 0 1 7.084 7.084zm0-14.158a7.085 7.085 0 0 1-7.084 7.084 7.075 7.075 0 0 1 7.075-7.075l.009-.01Z"/>
    <path d="M249.476 41.535a7.084 7.084 0 0 1 7.084-7.084 7.075 7.075 0 0 1-7.075 7.074z"/>
    <path d="M256.55 34.46a7.084 7.084 0 0 1-7.083-7.084 7.075 7.075 0 0 1 7.074 7.074zm0 14.158a7.084 7.084 0 0 1-7.083-7.084 7.075 7.075 0 0 1 7.074 7.075l.009.01Z"/>
    <path d="M249.476 55.693a7.085 7.085 0 0 1 7.084-7.084 7.075 7.075 0 0 1-7.075 7.075z"/>
    <path d="M249.476 55.693a7.075 7.075 0 0 1-7.075-7.075 7.085 7.085 0 0 1 7.084 7.084zm0-14.159a7.085 7.085 0 0 1-7.084 7.084 7.075 7.075 0 0 1 7.075-7.074zm0 28.318a7.075 7.075 0 0 1-7.075-7.075 7.084 7.084 0 0 1 7.084 7.084l-.009-.01Z"/>
    <path d="M249.467 55.693a7.085 7.085 0 0 1-7.084 7.084 7.074 7.074 0 0 1 7.074-7.075zm7.083 7.084a7.084 7.084 0 0 1-7.083-7.084 7.075 7.075 0 0 1 7.074 7.075z"/>
    <path d="M249.476 69.852a7.085 7.085 0 0 1 7.084-7.084 7.075 7.075 0 0 1-7.075 7.074zm0 14.168a7.084 7.084 0 0 1 7.084-7.084 7.075 7.075 0 0 1-7.075 7.074zm7.074-7.084a7.084 7.084 0 0 1-7.083-7.084 7.075 7.075 0 0 1 7.074 7.074z"/>
    <path d="M249.476 69.852a7.084 7.084 0 0 1-7.084 7.084 7.075 7.075 0 0 1 7.075-7.075l.009-.01Zm0 14.168a7.075 7.075 0 0 1-7.075-7.075 7.085 7.085 0 0 1 7.084 7.084zm0 14.158a7.085 7.085 0 0 1 7.084-7.084 7.075 7.075 0 0 1-7.075 7.075l-.009.01Z"/>
    <path d="M256.55 91.094a7.084 7.084 0 0 1-7.083-7.084 7.075 7.075 0 0 1 7.074 7.075l.009.01Zm-7.074 7.084a7.075 7.075 0 0 1-7.075-7.075 7.085 7.085 0 0 1 7.084 7.084z"/>
    <path d="M249.476 84.02a7.085 7.085 0 0 1-7.084 7.084 7.075 7.075 0 0 1 7.075-7.075l.009-.01Zm14.158-70.803a7.084 7.084 0 0 1-7.083 7.084 7.074 7.074 0 0 1 7.074-7.075zm0 14.159a7.074 7.074 0 0 1-7.074-7.075 7.085 7.085 0 0 1 7.084 7.084l-.01-.01Zm0 14.158a7.074 7.074 0 0 1-7.074-7.074 7.085 7.085 0 0 1 7.084 7.084z"/>
    <path d="M263.634 27.376a7.084 7.084 0 0 1-7.083 7.084 7.074 7.074 0 0 1 7.074-7.075l.009-.01Zm0 28.317a7.074 7.074 0 0 1-7.074-7.075 7.085 7.085 0 0 1 7.084 7.084zm0-14.159a7.084 7.084 0 0 1-7.083 7.084 7.074 7.074 0 0 1 7.074-7.074zm0 28.318a7.074 7.074 0 0 1-7.074-7.075 7.084 7.084 0 0 1 7.084 7.084l-.01-.01Z"/>
    <path d="M263.634 55.693a7.084 7.084 0 0 1-7.083 7.084 7.074 7.074 0 0 1 7.074-7.075zm0 28.327a7.074 7.074 0 0 1-7.074-7.075 7.085 7.085 0 0 1 7.084 7.084l-.01-.01Zm0-14.168a7.084 7.084 0 0 1-7.083 7.084 7.074 7.074 0 0 1 7.074-7.075l.009-.01Zm0 28.326a7.074 7.074 0 0 1-7.074-7.075 7.085 7.085 0 0 1 7.084 7.084z"/>
    <path d="M263.634 84.02a7.084 7.084 0 0 1-7.083 7.084 7.074 7.074 0 0 1 7.074-7.075l.009-.01Z"/>
  </g>
  <path fill="#C71E11" d="M235.679 96.993c.593-2.147-2.57-4.893-7.065-6.135s-8.619-.507-9.212 1.64 2.57 4.892 7.065 6.133c4.495 1.242 8.619.508 9.212-1.638"/>
  <path fill="#FFF400" d="M228.307 93.064s6.187 1.998 4.818 5.188c-1.174 1.767-5.03 2.534-7.583 1.563s-4.744-2.931-4.624-5.567c.12-1.628 3.154-2.738 7.389-1.184"/>
  <path stroke="#000" stroke-linecap="round" stroke-linejoin="round" d="M139.074.64C80.553.64 34.979 18.387 23.114 23.464l26.754 67.251c32.96-11.282 62.905-15.065 88.29-15.065 43.207 0 73.179 10.977 82.094 14.686l26.607-66.872.129-.314C209.367 6.308 172.172.64 139.074.64"/>
  <path stroke="#000" stroke-linecap="round" stroke-linejoin="round" d="M138.907 9.463c33.626 0 65.587 6.603 95.143 19.624l-19.531 50.956c-12.864-4.939-39.868-13.206-76.481-13.206-27.411 0-55.072 4.66-82.335 13.853L36.014 29.577c15.602-6.39 54.711-20.114 102.893-20.114M19.683 18.026c-4.541.111-7.13 1.424-8.472 2.432l-.24-.74s2.321-3.615 8.23-2.533c.204.351.37.629.482.841"/>
  <path stroke="#000" stroke-linecap="round" stroke-linejoin="round" d="M50.423 92.102c-.24-.453-.657-.832-1.22-1.137-.704-.37-1.656-.592-2.748-.666-1.488-.111-3.255.065-5.067.564-4.458 1.22-7.611 3.949-7.084 6.076L10 21.642s.342-.527 1.211-1.184c1.332-1.008 3.93-2.32 8.472-2.432a30 30 0 0 1 1.276 0l2.164 5.447 26.754 67.251z"/>
  <path stroke="#000" stroke-linecap="round" stroke-linejoin="round" d="M48.767 96.07a4.4 4.4 0 0 0 .306-1.813c-.028-.425-.269-.823-.685-1.147-1.119-.878-3.588-1.183-6.704-.037 0 0-3.709 1.193-4.735 3.219h-.01c-.305.591-.379 1.248-.064 1.979.212.314.517.6.878.86-1.813-.25-3.116-.98-3.43-2.109l-.01-.028s-.01-.037-.01-.046c-.526-2.127 2.618-4.855 7.085-6.076 1.812-.508 3.579-.684 5.067-.564 1.101.074 2.044.305 2.747.666.564.305.98.684 1.22 1.138l.167.406c.315 1.12-.416 2.405-1.812 3.57z"/>
  <path stroke="#000" stroke-linecap="round" stroke-linejoin="round" d="M49.073 94.257a4.2 4.2 0 0 1-.306 1.813h-.009c-.666 1.73-2.386 3.024-4.3 3.754-2.09.796-5.04.426-6.696-.703h-.009a3.3 3.3 0 0 1-.878-.86 2.21 2.21 0 0 1 .064-1.979h.01c1.035-2.016 4.735-3.218 4.735-3.218 3.116-1.147 5.585-.841 6.704.037.416.324.657.721.685 1.147v.01ZM259.02 19.718l-.241.74c-1.331-1.008-3.93-2.32-8.471-2.432.111-.212.278-.49.481-.841 5.909-1.082 8.231 2.534 8.231 2.534Z"/>
  <path stroke="#000" stroke-linecap="round" stroke-linejoin="round" d="M235.687 96.939c.527-2.127-2.617-4.855-7.084-6.076-1.812-.508-3.579-.684-5.068-.564-.878.065-1.655.213-2.293.48h-.01a2 2 0 0 0-.443.186c-.565.305-.981.684-1.221 1.137l.545-1.378.148-.379 26.607-66.872.129-.314 2.044-5.133a30 30 0 0 1 1.276 0c4.541.111 7.131 1.424 8.471 2.432.87.657 1.212 1.184 1.212 1.184L235.696 96.94h-.009Z"/>
  <path stroke="#000" stroke-linecap="round" stroke-linejoin="round" d="M235.687 96.939s-.009.037-.009.046 0 .01-.009.028c-.315 1.119-1.61 1.85-3.431 2.108.37-.25.665-.545.878-.86.315-.73.241-1.387-.065-1.979h-.009c-1.036-2.016-4.735-3.218-4.735-3.218-3.116-1.147-5.586-.841-6.705.037-.416.324-.656.722-.684 1.147a4.2 4.2 0 0 0 .305 1.813c-1.396-1.157-2.127-2.442-1.812-3.57l.166-.407c.241-.453.657-.833 1.221-1.138.139-.074.277-.138.444-.185h.009c.647-.268 1.415-.416 2.294-.48 1.488-.112 3.255.064 5.067.564 4.458 1.22 7.611 3.948 7.084 6.076z"/>
  <path stroke="#000" stroke-linecap="round" stroke-linejoin="round" d="M233.116 98.261c-.213.315-.518.602-.878.86h-.01c-1.655 1.138-4.596 1.499-6.695.703-1.915-.73-3.635-2.025-4.301-3.754h-.009c-.231-.564-.323-1.175-.305-1.813.028-.425.268-.823.684-1.147 1.119-.878 3.589-1.183 6.705-.037 0 0 3.709 1.193 4.735 3.219h.009c.306.591.38 1.248.065 1.979z"/>
  <path fill="#C12202" d="m69.757 47.482-.162-1.383-3.144-12.287c-1.886.43-3.754 1.248-3.143 3.628.368 1.428 1.832 2.641 3.8 2.138l.053.225c.27 1.042-.135 1.913-1.204 2.182-2.326.593-4.5-1.383-5.047-3.53-.8-3.125 1.167-5.892 4.203-6.664l3.8-.97c2.604-.665 3.745-1.393 3.242-3.36l.225-.054c1.042-.27 1.913.135 2.182 1.204.593 2.326-1.608 3.593-5.075 4.482l-.772.198 3.126 12.242.52 1.285-2.622.673z"/>
  <path fill="#C12202" d="M76.098 42.407c.719.656 1.68 1.015 2.82.764 1.007-.225 1.68-.844 1.977-1.985l2.075 1.078c-.647 1.724-1.932 2.838-3.692 3.224-3.737.818-6.288-1.868-6.952-4.904-.638-2.892.52-6.117 4.078-6.898 2.3-.503 4.841.494 5.416 3.117.207.96-.126 1.94-1.877 3.09zm.764-9.772-.988-1.572-.26 1.85-2.444.54 1.778-3.764 1.16-.252 3.188 2.668-2.443.539zm1.176 6c1.491-.925 1.276-1.285 1.213-1.536-.225-1.024-1.195-1.41-2.2-1.195-1.986.431-2.606 2.408-2.21 4.213q.04.203.108.404l3.071-1.895zm3.045-12.377-1.688 3.745-1.159.252.251-3.423 2.596-.566zm.584 6.539c1.312-.243 1.348-.44 1.186-1.285l-.117-.647c-.117-.646-.242-1.311-.512-1.733l2.273-1.608.844 4.59 3.45-.638.376 2.066-3.449.638.952 5.165c.234 1.284.728 2.263 1.51 2.12.78-.144.96-1.123 1.176-1.761l2.039 1.14c-.656 1.617-1.527 2.533-2.865 2.785-1.536.288-3.54-.512-4.07-3.386l-.844-4.617c-.152-.853-.26-1.024-1.572-.782l-.377-2.065zm21.845 8.308.027-1.392-1.437-12.557-.746.08c-2.11.243-2.937 1.653-2.775 3.019.17 1.464 1.455 2.865 3.476 2.631l.027.234c.125 1.069-.396 1.877-1.482 2.003-2.39.27-4.267-1.976-4.528-4.186-.368-3.206 1.959-5.677 5.066-6.036l3.135-.36 7.006 10.878-1.167-10.158-.342-1.348 2.695-.305L112.44 25l1.707 14.874-2.578.297-6.836-10.6 1.132 9.863.341 1.348-2.694.305zm20.946 4.32c.862-.107 1.734-.08 2.596-.008-.422-5.965-9.332-4.294-9.485-6.764a.89.89 0 0 1 .377-.79c.719.233 1.518.35 2.452.296 5.569-.341 6.566-6.36 3.593-9.135.467-.422.898-.988 1.231-1.76l-2.12-1.438c-.368 1.312-.871 1.905-1.446 1.985a6.7 6.7 0 0 0-1.878-.143c-5.452.332-6.583 6.341-3.637 9.108-.503.637-.791 1.59-.746 2.434.081 1.401.997 2.138 2.192 2.632.368.107 2.209.62 2.263.637 2.174.503 4.357.97 4.617 2.955zm-4.554-15.43c3.961-.243 4.339 5.586.35 5.829-3.943.242-4.32-5.587-.35-5.83Zm13.159 9.098.162-1.383v-.44c-.638 1.158-1.608 2.084-3.054 2.11-1.985.036-3.485-1.544-3.548-4.859l-.09-4.437c-.009-.539-.018-.907-.216-1.374l2.497-1.213.135 7.078c.036 1.796.782 2.767 1.662 2.749 1.356-.027 2.012-2.165 2.515-3.997l-.063-3.36c-.009-.539-.018-.907-.216-1.374l2.497-1.213.198 10.303.216 1.374-2.713.054z"/>
  <path fill="#C12202" d="m136.602 27.353 2.946.063c-.17.234-.135.863.045 1.383l2.102 6.656 2.38-6.566c.171-.512.261-1.14.099-1.374l2.659.054-4.159 11.596c-.943 2.623-1.599 6.045-4.868 5.973-1.402-.027-2.551-1.078-3.521-2.623l2.066-1.527c.485 1.276 1.059 1.797 1.625 1.806 1.213.027 1.743-1.833 2.417-3.692l-3.782-11.758zm13.285 8.623c.512.827 1.338 1.437 2.506 1.51 1.024.062 1.85-.36 2.443-1.375l1.706 1.599c-1.095 1.482-2.631 2.21-4.428 2.102-3.826-.225-5.542-3.512-5.362-6.611.18-2.964 2.165-5.74 5.802-5.524 2.354.143 4.527 1.787 4.366 4.473-.054.979-.647 1.832-2.65 2.461l-4.383 1.374zm2.901-3.099c1.689-.485 1.572-.889 1.59-1.15.063-1.05-.764-1.679-1.788-1.742-2.03-.117-3.161 1.617-3.269 3.458 0 .144-.018.279 0 .422l3.476-.988zm.503-6.108-.53-1.787-.755 1.707-2.497-.153 2.74-3.135 1.186.072 2.344 3.44-2.497-.152zm3.898 13.123.323-1.347.827-8.174c.054-.53.09-.907-.045-1.392l2.623-.907-.234 2.326c.925-1.266 2.048-1.904 3.279-1.778 1.976.197 3.278 1.949 2.946 5.245l-.566 5.578.045 1.393-2.695-.27.324-1.347.574-5.668c.18-1.787-.44-2.838-1.32-2.928-1.275-.126-2.228 1.652-2.946 3.341l-.485 4.833.045 1.392-2.695-.27zm23.273 3.054.126-.736c-1.033.512-2.075.647-3.018.485-3.27-.548-4.429-3.8-3.926-6.79.512-3.019 2.668-5.731 6.054-5.165a4.4 4.4 0 0 1 2.578 1.428l.297-1.77-2.3-.386.315-1.841 2.299.386.063-.368c.09-.53.153-.898.045-1.392l2.677-.737-.486 2.874.692.117-.305 1.841-.692-.116-1.886 11.191-.045 1.393-2.488-.423v.01Zm1.356-8.03c-.449-1.122-1.275-1.733-2.12-1.877-1.931-.323-3.188 1.356-3.503 3.225-.332 1.976.405 4.212 2.524 4.572.737.125 1.5-.054 2.21-.62zm8.542 9.198a4.9 4.9 0 0 1-3.171.395c-2.443-.52-3.215-2.578-2.811-4.473.431-2.012 2.299-3.808 4.994-3.224.844.18 1.68.646 2.282 1.275.323-1.743-.548-2.766-1.644-3.009-.8-.17-1.716.108-2.389.988l-1.509-1.778c1.446-1.41 3.107-1.77 4.562-1.455 2.237.485 3.935 2.586 3.423 4.967l-1.348 6.26-.107 1.383-2.471-.53.171-.799zm.719-3.36c-.225-.861-1.096-1.67-1.923-1.85-1.167-.251-2.029.566-2.245 1.545-.243 1.123.359 1.985 1.482 2.228.799.17 1.787-.09 2.461-.907l.225-1.024zm3.431-11.415-3.09 2.703-1.168-.251 1.653-3.018 2.605.556zm-.871 16.338.53-1.284 2.092-7.95c.135-.52.234-.88.171-1.383l2.74-.485-.593 2.255c1.114-1.105 2.317-1.563 3.512-1.249 1.922.503 2.937 2.434 2.093 5.64l-1.419 5.426-.171 1.383-2.623-.691.53-1.285 1.446-5.515c.458-1.742 0-2.874-.853-3.099-1.24-.323-2.461 1.285-3.431 2.839l-1.231 4.697-.171 1.384-2.622-.692zm-123.882.269-.162-1.383-3.144-12.287c-1.886.43-3.754 1.248-3.143 3.628.368 1.428 1.832 2.641 3.8 2.138l.053.225c.27 1.042-.135 1.913-1.204 2.182-2.326.593-4.5-1.383-5.047-3.53-.8-3.125 1.167-5.892 4.203-6.664l3.8-.97c2.604-.665 3.745-1.393 3.242-3.36l.225-.054c1.042-.27 1.913.135 2.182 1.204.593 2.326-1.608 3.593-5.075 4.482l-.772.198 3.126 12.242.52 1.285-2.622.673z"/>
  <path fill="#C12202" d="M76.098 40.871c.719.656 1.68 1.015 2.82.764 1.007-.225 1.68-.844 1.977-1.985l2.075 1.078c-.647 1.724-1.932 2.838-3.692 3.224-3.737.818-6.288-1.868-6.952-4.904-.638-2.892.52-6.117 4.078-6.898 2.3-.503 4.841.494 5.416 3.117.207.96-.126 1.94-1.877 3.09zm.764-9.772-.988-1.572-.26 1.85-2.444.54 1.778-3.764 1.16-.252 3.188 2.668-2.443.539zm1.176 6c1.491-.925 1.276-1.284 1.213-1.536-.225-1.024-1.195-1.41-2.2-1.195-1.986.431-2.606 2.408-2.21 4.213q.04.203.108.404l3.071-1.895zm3.045-12.377-1.688 3.745-1.159.252.251-3.423 2.596-.566zm.584 6.548c1.312-.243 1.348-.44 1.186-1.285l-.117-.647c-.117-.646-.242-1.311-.512-1.733l2.273-1.608.844 4.59 3.45-.638.376 2.066-3.449.638.952 5.165c.234 1.284.728 2.263 1.51 2.12.78-.144.96-1.123 1.176-1.761l2.039 1.14c-.656 1.617-1.527 2.534-2.865 2.785-1.536.288-3.54-.512-4.07-3.386l-.844-4.617c-.152-.853-.26-1.024-1.572-.781l-.377-2.066zm21.845 8.308.027-1.392-1.437-12.557-.746.08c-2.11.243-2.937 1.653-2.775 3.019.17 1.464 1.455 2.865 3.476 2.631l.027.234c.125 1.069-.396 1.877-1.482 2.003-2.39.27-4.267-1.976-4.528-4.186-.368-3.206 1.959-5.677 5.066-6.036l3.135-.359 7.006 10.877-1.167-10.159-.342-1.347 2.695-.305-.027 1.392 1.707 14.874-2.578.297-6.836-10.599 1.132 9.862.341 1.348-2.694.305zm20.946 4.312c.862-.108 1.734-.081 2.596-.01-.422-5.964-9.332-4.293-9.485-6.763a.89.89 0 0 1 .377-.79c.719.233 1.518.35 2.452.296 5.569-.341 6.566-6.36 3.593-9.135.467-.422.898-.988 1.231-1.76l-2.12-1.438c-.368 1.312-.871 1.905-1.446 1.986a6.7 6.7 0 0 0-1.878-.144c-5.452.332-6.583 6.341-3.637 9.108-.503.637-.791 1.59-.746 2.434.081 1.401.997 2.138 2.192 2.632.368.107 2.209.62 2.263.637 2.174.503 4.357.97 4.617 2.955zm-4.554-15.432c3.961-.242 4.339 5.587.35 5.83-3.943.242-4.32-5.587-.35-5.83m13.159 9.099.162-1.383v-.44c-.638 1.158-1.608 2.084-3.054 2.11-1.985.036-3.485-1.544-3.548-4.859l-.09-4.437c-.009-.539-.018-.907-.216-1.374l2.497-1.213.135 7.078c.036 1.797.782 2.767 1.662 2.749 1.356-.027 2.012-2.165 2.515-3.997l-.063-3.36c-.009-.539-.018-.907-.216-1.374l2.497-1.213.198 10.303.216 1.374-2.713.054z"/>
  <path fill="#C12202" d="m136.602 25.817 2.946.063c-.17.234-.135.863.045 1.384l2.102 6.655 2.38-6.566c.171-.512.261-1.14.099-1.374l2.659.054-4.159 11.596c-.943 2.623-1.599 6.045-4.868 5.973-1.402-.027-2.551-1.078-3.521-2.623l2.066-1.527c.485 1.276 1.059 1.797 1.625 1.806 1.213.027 1.743-1.833 2.417-3.692l-3.782-11.758zm13.285 8.623c.512.827 1.338 1.437 2.506 1.51 1.024.062 1.85-.36 2.443-1.375l1.706 1.599c-1.095 1.482-2.631 2.21-4.428 2.102-3.826-.225-5.542-3.512-5.362-6.611.18-2.964 2.165-5.74 5.802-5.524 2.354.144 4.527 1.787 4.366 4.473-.054.979-.647 1.832-2.65 2.461l-4.383 1.374zm2.901-3.098c1.689-.486 1.572-.89 1.59-1.15.063-1.051-.764-1.68-1.788-1.743-2.03-.117-3.161 1.617-3.269 3.458 0 .144-.018.279 0 .423l3.476-.988zm.503-6.1-.53-1.787-.755 1.707-2.497-.153 2.74-3.135 1.186.072 2.344 3.44-2.497-.152.009.009Zm3.898 13.114.323-1.347.827-8.174c.054-.53.09-.907-.045-1.392l2.623-.907-.234 2.326c.925-1.266 2.048-1.904 3.279-1.778 1.976.198 3.278 1.949 2.946 5.246l-.566 5.577.045 1.393-2.695-.27.324-1.347.574-5.668c.18-1.787-.44-2.838-1.32-2.928-1.275-.126-2.228 1.653-2.946 3.341l-.485 4.833.045 1.392-2.695-.27zm23.273 3.054.126-.736c-1.033.512-2.075.647-3.018.485-3.27-.548-4.429-3.8-3.926-6.79.512-3.018 2.668-5.731 6.054-5.165a4.4 4.4 0 0 1 2.578 1.428l.297-1.77-2.3-.386.315-1.841 2.299.386.063-.368c.09-.53.153-.898.045-1.392l2.677-.737-.486 2.874.692.117-.305 1.841-.692-.116-1.886 11.191-.045 1.393-2.488-.422zm1.356-8.03c-.449-1.122-1.275-1.733-2.12-1.877-1.931-.323-3.188 1.356-3.503 3.225-.332 1.976.405 4.212 2.524 4.572.737.125 1.5-.054 2.21-.62zm8.542 9.198a4.9 4.9 0 0 1-3.171.395c-2.443-.52-3.215-2.578-2.811-4.473.431-2.012 2.299-3.808 4.994-3.224.844.18 1.68.646 2.282 1.275.323-1.742-.548-2.766-1.644-3.009-.8-.17-1.716.108-2.389.988l-1.509-1.778c1.446-1.41 3.107-1.77 4.562-1.456 2.237.486 3.935 2.587 3.423 4.968l-1.348 6.26-.107 1.383-2.471-.53.171-.799zm.719-3.35c-.225-.863-1.096-1.67-1.923-1.85-1.167-.252-2.029.565-2.245 1.544-.243 1.123.359 1.985 1.482 2.228.799.17 1.787-.09 2.461-.907l.225-1.024zm3.431-11.426-3.09 2.704-1.168-.251 1.653-3.018 2.605.557zm-.871 16.339.53-1.285 2.092-7.949c.135-.52.234-.88.171-1.383l2.74-.485-.593 2.255c1.114-1.105 2.317-1.563 3.512-1.249 1.922.503 2.937 2.434 2.093 5.64l-1.419 5.426-.171 1.383-2.623-.691.53-1.285 1.446-5.515c.458-1.742 0-2.874-.853-3.099-1.24-.323-2.461 1.285-3.431 2.839l-1.231 4.697-.171 1.384-2.622-.692z"/>
  <path fill="#EF4B23" d="m69.757 45.946-.162-1.383-3.144-12.287c-1.886.43-3.754 1.248-3.143 3.628.368 1.428 1.832 2.641 3.8 2.138l.053.225c.27 1.042-.135 1.913-1.204 2.182-2.326.593-4.5-1.383-5.047-3.53-.8-3.125 1.167-5.892 4.203-6.664l3.8-.97c2.604-.665 3.745-1.393 3.242-3.36l.225-.054c1.042-.27 1.913.135 2.182 1.204.593 2.326-1.608 3.593-5.075 4.482l-.772.198 3.126 12.242.52 1.285-2.622.673z"/>
  <path fill="#EF4B23" d="M76.098 40.871c.719.656 1.68 1.015 2.82.764 1.007-.225 1.68-.844 1.977-1.985l2.075 1.078c-.647 1.724-1.932 2.838-3.692 3.224-3.737.818-6.288-1.868-6.952-4.904-.638-2.892.52-6.117 4.078-6.898 2.3-.503 4.841.494 5.416 3.117.207.96-.126 1.94-1.877 3.09zm.764-9.772-.988-1.572-.26 1.85-2.444.54 1.778-3.764 1.16-.252 3.188 2.668-2.443.539zm1.176 6c1.491-.925 1.276-1.284 1.213-1.536-.225-1.024-1.195-1.41-2.2-1.195-1.986.431-2.606 2.408-2.21 4.213q.04.203.108.404l3.071-1.895zm3.045-12.377-1.688 3.745-1.159.252.251-3.423 2.596-.566zm.584 6.548c1.312-.243 1.348-.44 1.186-1.285l-.117-.647c-.117-.646-.242-1.311-.512-1.733l2.273-1.608.844 4.59 3.45-.638.376 2.066-3.449.638.952 5.165c.234 1.284.728 2.263 1.51 2.12.78-.144.96-1.123 1.176-1.761l2.039 1.14c-.656 1.617-1.527 2.534-2.865 2.785-1.536.288-3.54-.512-4.07-3.386l-.844-4.617c-.152-.853-.26-1.024-1.572-.781l-.377-2.066zm21.845 8.308.027-1.392-1.437-12.557-.746.08c-2.11.243-2.937 1.653-2.775 3.019.17 1.464 1.455 2.865 3.476 2.631l.027.234c.125 1.069-.396 1.877-1.482 2.003-2.39.27-4.267-1.976-4.528-4.186-.368-3.206 1.959-5.677 5.066-6.036l3.135-.359 7.006 10.877-1.167-10.159-.342-1.347 2.695-.305-.027 1.392 1.707 14.874-2.578.297-6.836-10.599 1.132 9.862.341 1.348-2.694.305zm20.946 4.312c.862-.108 1.734-.081 2.596-.01-.422-5.964-9.332-4.293-9.485-6.763a.89.89 0 0 1 .377-.79c.719.233 1.518.35 2.452.296 5.569-.341 6.566-6.36 3.593-9.135.467-.422.898-.988 1.231-1.76l-2.12-1.438c-.368 1.312-.871 1.905-1.446 1.986a6.7 6.7 0 0 0-1.878-.144c-5.452.332-6.583 6.341-3.637 9.108-.503.637-.791 1.59-.746 2.434.081 1.401.997 2.138 2.192 2.632.368.107 2.209.62 2.263.637 2.174.503 4.357.97 4.617 2.955zm-4.554-15.432c3.961-.242 4.339 5.587.35 5.83-3.943.242-4.32-5.587-.35-5.83m13.159 9.099.162-1.383v-.44c-.638 1.158-1.608 2.084-3.054 2.11-1.985.036-3.485-1.544-3.548-4.859l-.09-4.437c-.009-.539-.018-.907-.216-1.374l2.497-1.213.135 7.078c.036 1.797.782 2.767 1.662 2.749 1.356-.027 2.012-2.165 2.515-3.997l-.063-3.36c-.009-.539-.018-.907-.216-1.374l2.497-1.213.198 10.303.216 1.374-2.713.054z"/>
  <path fill="#EF4B23" d="m136.602 25.817 2.946.063c-.17.234-.135.863.045 1.384l2.102 6.655 2.38-6.566c.171-.512.261-1.14.099-1.374l2.659.054-4.159 11.596c-.943 2.623-1.599 6.045-4.868 5.973-1.402-.027-2.551-1.078-3.521-2.623l2.066-1.527c.485 1.276 1.059 1.797 1.625 1.806 1.213.027 1.743-1.833 2.417-3.692l-3.782-11.758zm13.285 8.623c.512.827 1.338 1.437 2.506 1.51 1.024.062 1.85-.36 2.443-1.375l1.706 1.599c-1.095 1.482-2.631 2.21-4.428 2.102-3.826-.225-5.542-3.512-5.362-6.611.18-2.964 2.165-5.74 5.802-5.524 2.354.144 4.527 1.787 4.366 4.473-.054.979-.647 1.832-2.65 2.461l-4.383 1.374zm2.901-3.098c1.689-.486 1.572-.89 1.59-1.15.063-1.051-.764-1.68-1.788-1.743-2.03-.117-3.161 1.617-3.269 3.458 0 .144-.018.279 0 .423l3.476-.988zm.503-6.1-.53-1.787-.755 1.707-2.497-.153 2.74-3.135 1.186.072 2.344 3.44-2.497-.152.009.009Zm3.898 13.114.323-1.347.827-8.174c.054-.53.09-.907-.045-1.392l2.623-.907-.234 2.326c.925-1.266 2.048-1.904 3.279-1.778 1.976.198 3.278 1.949 2.946 5.246l-.566 5.577.045 1.393-2.695-.27.324-1.347.574-5.668c.18-1.787-.44-2.838-1.32-2.928-1.275-.126-2.228 1.653-2.946 3.341l-.485 4.833.045 1.392-2.695-.27zm23.273 3.054.126-.736c-1.033.512-2.075.647-3.018.485-3.27-.548-4.429-3.8-3.926-6.79.512-3.018 2.668-5.731 6.054-5.165a4.4 4.4 0 0 1 2.578 1.428l.297-1.77-2.3-.386.315-1.841 2.299.386.063-.368c.09-.53.153-.898.045-1.392l2.677-.737-.486 2.874.692.117-.305 1.841-.692-.116-1.886 11.191-.045 1.393-2.488-.422zm1.356-8.03c-.449-1.122-1.275-1.733-2.12-1.877-1.931-.323-3.188 1.356-3.503 3.225-.332 1.976.405 4.212 2.524 4.572.737.125 1.5-.054 2.21-.62zm8.542 9.198a4.9 4.9 0 0 1-3.171.395c-2.443-.52-3.215-2.578-2.811-4.473.431-2.012 2.299-3.808 4.994-3.224.844.18 1.68.646 2.282 1.275.323-1.742-.548-2.766-1.644-3.009-.8-.17-1.716.108-2.389.988l-1.509-1.778c1.446-1.41 3.107-1.77 4.562-1.456 2.237.486 3.935 2.587 3.423 4.968l-1.348 6.26-.107 1.383-2.471-.53.171-.799zm.719-3.35c-.225-.863-1.096-1.67-1.923-1.85-1.167-.252-2.029.565-2.245 1.544-.243 1.123.359 1.985 1.482 2.228.799.17 1.787-.09 2.461-.907l.225-1.024zm3.431-11.426-3.09 2.704-1.168-.251 1.653-3.018 2.605.557zm-.871 16.339.53-1.285 2.092-7.949c.135-.52.234-.88.171-1.383l2.74-.485-.593 2.255c1.114-1.105 2.317-1.563 3.512-1.249 1.922.503 2.937 2.434 2.093 5.64l-1.419 5.426-.171 1.383-2.623-.691.53-1.285 1.446-5.515c.458-1.742 0-2.874-.853-3.099-1.24-.323-2.461 1.285-3.431 2.839l-1.231 4.697-.171 1.384-2.622-.692z"/>
  <path fill="#FFF400" d="m69.757 44.41-.162-1.383-3.144-12.287c-1.886.43-3.754 1.248-3.143 3.628.368 1.429 1.832 2.641 3.8 2.138l.053.225c.27 1.042-.135 1.913-1.204 2.182-2.326.593-4.5-1.383-5.047-3.53-.8-3.125 1.167-5.892 4.203-6.664l3.8-.97c2.604-.665 3.745-1.393 3.242-3.36l.225-.054c1.042-.269 1.913.135 2.182 1.204.593 2.326-1.608 3.593-5.075 4.482l-.772.198L71.84 42.46l.52 1.285-2.622.673.018-.008Z"/>
  <path fill="#FFF400" d="M76.098 39.345c.719.655 1.68 1.014 2.82.763 1.007-.224 1.68-.844 1.977-1.985l2.075 1.078c-.647 1.724-1.932 2.838-3.692 3.224-3.737.818-6.288-1.868-6.952-4.904-.638-2.892.52-6.117 4.078-6.898 2.3-.503 4.841.494 5.416 3.117.207.96-.126 1.94-1.877 3.09zm.764-9.782-.988-1.572-.26 1.85-2.444.54 1.778-3.764 1.16-.252 3.188 2.668-2.443.539zm1.176 6.009c1.491-.925 1.276-1.284 1.213-1.536-.225-1.024-1.195-1.41-2.2-1.194-1.986.43-2.606 2.407-2.21 4.212q.04.203.108.404l3.071-1.895zm3.045-12.386-1.688 3.745-1.159.252.251-3.422 2.596-.566zm.584 6.548c1.312-.243 1.348-.44 1.186-1.285l-.117-.647c-.117-.646-.242-1.31-.512-1.733l2.273-1.608.844 4.59 3.45-.638.376 2.066-3.449.638.952 5.165c.234 1.284.728 2.263 1.51 2.12.78-.144.96-1.123 1.176-1.761l2.039 1.14c-.656 1.617-1.527 2.534-2.865 2.785-1.536.288-3.54-.512-4.07-3.386l-.844-4.617c-.152-.853-.26-1.024-1.572-.781l-.377-2.066zm21.845 8.308.027-1.392-1.437-12.557-.746.08c-2.11.243-2.937 1.653-2.775 3.019.17 1.464 1.455 2.865 3.476 2.631l.027.234c.125 1.069-.396 1.877-1.482 2.003-2.39.27-4.267-1.976-4.528-4.186-.368-3.206 1.959-5.676 5.066-6.036l3.135-.359 7.006 10.877-1.167-10.158-.342-1.348 2.695-.305-.027 1.392 1.707 14.875-2.578.296-6.836-10.599 1.132 9.862.341 1.348-2.694.305zm20.946 4.312c.862-.108 1.734-.081 2.596-.01-.422-5.964-9.332-4.293-9.485-6.763a.89.89 0 0 1 .377-.79c.719.233 1.518.35 2.452.296 5.569-.341 6.566-6.36 3.593-9.135.467-.422.898-.988 1.231-1.76l-2.12-1.438c-.368 1.312-.871 1.905-1.446 1.986a6.7 6.7 0 0 0-1.878-.144c-5.452.332-6.583 6.341-3.637 9.108-.503.638-.791 1.59-.746 2.434.081 1.401.997 2.138 2.192 2.632.368.107 2.209.62 2.263.637 2.174.503 4.357.97 4.617 2.956zm-4.554-15.432c3.961-.242 4.339 5.587.35 5.83-3.943.242-4.32-5.587-.35-5.83m13.159 9.099.162-1.383v-.44c-.638 1.158-1.608 2.084-3.054 2.11-1.985.036-3.485-1.544-3.548-4.859l-.09-4.437c-.009-.539-.018-.907-.216-1.374l2.497-1.213.135 7.078c.036 1.797.782 2.767 1.662 2.749 1.356-.027 2.012-2.165 2.515-3.997l-.063-3.36c-.009-.539-.018-.907-.216-1.374l2.497-1.213.198 10.303.216 1.374-2.713.054z"/>
  <path fill="#FFF400" d="m136.602 24.282 2.946.062c-.17.234-.135.863.045 1.384l2.102 6.655 2.38-6.566c.171-.512.261-1.14.099-1.374l2.659.054-4.159 11.596c-.943 2.623-1.599 6.045-4.868 5.973-1.402-.027-2.551-1.078-3.521-2.623l2.066-1.526c.485 1.275 1.059 1.796 1.625 1.805 1.213.027 1.743-1.833 2.417-3.692l-3.782-11.757zm13.285 8.631c.512.827 1.338 1.438 2.506 1.51 1.024.062 1.85-.36 2.443-1.375l1.706 1.599c-1.095 1.482-2.631 2.21-4.428 2.102-3.826-.225-5.542-3.512-5.362-6.611.18-2.964 2.165-5.74 5.802-5.524 2.354.144 4.527 1.787 4.366 4.473-.054.979-.647 1.832-2.65 2.461l-4.383 1.374zm2.901-3.107c1.689-.486 1.572-.89 1.59-1.15.063-1.051-.764-1.68-1.788-1.743-2.03-.116-3.161 1.617-3.269 3.458 0 .144-.018.279 0 .423l3.476-.988zm.503-6.1-.53-1.787-.755 1.707-2.497-.153 2.74-3.135 1.186.072 2.344 3.44-2.497-.152.009.009Zm3.898 13.124.323-1.348.827-8.173c.054-.53.09-.908-.045-1.393l2.623-.907-.234 2.326c.925-1.266 2.048-1.904 3.279-1.778 1.976.198 3.278 1.95 2.946 5.246l-.566 5.578.045 1.392-2.695-.27.324-1.347.574-5.668c.18-1.787-.44-2.838-1.32-2.928-1.275-.126-2.228 1.653-2.946 3.341l-.485 4.833.045 1.392-2.695-.27zm23.273 3.053.126-.736c-1.033.512-2.075.647-3.018.485-3.27-.548-4.429-3.8-3.926-6.79.512-3.018 2.668-5.731 6.054-5.165a4.4 4.4 0 0 1 2.578 1.428l.297-1.77-2.3-.386.315-1.841 2.299.386.063-.368c.09-.53.153-.898.045-1.392l2.677-.737-.486 2.874.692.117-.305 1.841-.692-.116-1.886 11.191-.045 1.393-2.488-.422zm1.356-8.039c-.449-1.122-1.275-1.733-2.12-1.877-1.931-.323-3.188 1.357-3.503 3.225-.332 1.976.405 4.212 2.524 4.572.737.125 1.5-.054 2.21-.62zm8.542 9.198a4.9 4.9 0 0 1-3.171.395c-2.443-.52-3.215-2.578-2.811-4.473.431-2.012 2.299-3.808 4.994-3.224.844.18 1.68.646 2.282 1.275.323-1.742-.548-2.766-1.644-3.009-.8-.17-1.716.108-2.389.988l-1.509-1.778c1.446-1.41 3.107-1.77 4.562-1.455 2.237.485 3.935 2.586 3.423 4.967l-1.348 6.26-.107 1.383-2.471-.53.171-.799zm.719-3.35c-.225-.862-1.096-1.67-1.923-1.85-1.167-.252-2.029.565-2.245 1.544-.243 1.123.359 1.985 1.482 2.228.799.17 1.787-.09 2.461-.907l.225-1.024zm3.431-11.425-3.09 2.703-1.168-.251 1.653-3.018 2.605.557zm-.871 16.338.53-1.284 2.092-7.95c.135-.52.234-.88.171-1.383l2.74-.485-.593 2.255c1.114-1.105 2.317-1.563 3.512-1.249 1.922.503 2.937 2.434 2.093 5.641l-1.419 5.425-.171 1.383-2.623-.691.53-1.285 1.446-5.515c.458-1.742 0-2.874-.853-3.099-1.24-.323-2.461 1.285-3.431 2.839l-1.231 4.697-.171 1.384-2.622-.692z"/>
  <path fill="#C12202" d="m54.72 77.393-.224-1.374a7161 7161 0 0 1-3.97-13.007c-.153-.511-.27-.87-.584-1.266l2.075-1.85 4.716 15.44.584 1.266-2.587.79zm3.854-17.955 1.833 2.91-1.15.323-3.252-2.506 2.56-.718zm5.785 14.29a4.9 4.9 0 0 1-2.614 1.824c-2.407.673-4.051-.782-4.572-2.65-.557-1.976.26-4.437 2.92-5.183a4.55 4.55 0 0 1 2.613.072c-.521-1.698-1.779-2.192-2.856-1.895-.79.224-1.474.898-1.653 1.985l-2.165-.871c.629-1.923 1.922-3.01 3.36-3.414 2.2-.62 4.688.458 5.344 2.803l1.724 6.161.548 1.276-2.434.683-.224-.79h.009Zm-.925-3.305c-.593-.656-1.752-.961-2.56-.737-1.15.323-1.536 1.446-1.267 2.416.306 1.105 1.249 1.59 2.344 1.285.79-.225 1.536-.916 1.76-1.95l-.286-1.014zm15.656.547-.117-1.383-2.722-12.386c-1.904.368-3.79 1.123-3.27 3.521.315 1.437 1.743 2.704 3.728 2.264l.054.224c.233 1.051-.198 1.913-1.276 2.147-2.353.52-4.446-1.536-4.922-3.7-.691-3.145 1.366-5.848 4.42-6.522l3.835-.844c2.623-.575 3.79-1.267 3.35-3.252l.225-.054c1.05-.233 1.913.198 2.147 1.276.52 2.353-1.734 3.539-5.22 4.302l-.772.17 2.713 12.342.476 1.303-2.65.584v.009Z"/>
  <path fill="#C12202" d="M85.583 66.111c.692.683 1.644 1.078 2.794.862 1.006-.188 1.706-.79 2.048-1.922l2.039 1.141c-.71 1.698-2.03 2.776-3.8 3.099-3.763.692-6.224-2.084-6.79-5.138-.54-2.92.736-6.099 4.311-6.754 2.318-.423 4.824.655 5.309 3.296.18.961-.189 1.931-1.985 3.027l-3.935 2.38.01.01Zm1.105-9.745-.934-1.608-.323 1.841-2.461.45 1.904-3.701 1.168-.216 3.098 2.776-2.46.449zm.97 6.045c1.527-.872 1.312-1.24 1.267-1.491-.189-1.033-1.15-1.456-2.156-1.267-1.994.368-2.686 2.318-2.353 4.14.027.136.054.28.099.414l3.134-1.787.01-.01Zm3.467-12.27-1.814 3.683-1.168.215.369-3.413 2.622-.485zm.369 6.557c1.32-.198 1.356-.386 1.23-1.248l-.099-.647c-.098-.647-.197-1.32-.449-1.752l2.327-1.527.682 4.626 3.467-.512.306 2.084-3.467.512.772 5.2c.189 1.294.647 2.291 1.428 2.174.79-.117.997-1.096 1.23-1.715l2.004 1.212c-.71 1.59-1.617 2.48-2.955 2.686-1.545.225-3.521-.638-3.943-3.521l-.692-4.644c-.126-.853-.225-1.033-1.536-.835l-.305-2.084zm21.521 9.081.081-1.392-.988-12.602-.746.063c-2.12.161-2.991 1.544-2.883 2.919.117 1.464 1.356 2.919 3.377 2.757l.018.234c.081 1.069-.467 1.86-1.554 1.949-2.398.189-4.194-2.129-4.374-4.347-.252-3.216 2.165-5.605 5.281-5.848l3.144-.242 6.611 11.129-.799-10.195-.297-1.357 2.704-.215-.081 1.392 1.168 14.928-2.587.207-6.449-10.832.772 9.898.297 1.356-2.704.216zm14.551-2.731a.94.94 0 0 0-.404.782c.063 2.47 9.09 1.114 9.233 7.159.081 3.386-2.811 5.272-5.685 5.344-2.803.072-5.596-1.5-5.677-5.075-.036-1.59.62-3.45 2.021-4.248-1.177-.53-2.066-1.303-2.093-2.704-.018-.844.306-1.779.826-2.398-2.847-2.875-1.5-8.839 3.962-8.974a6.6 6.6 0 0 1 1.877.216c.584-.063 1.105-.638 1.518-1.931l2.066 1.518a5.1 5.1 0 0 1-1.294 1.715c2.875 2.875 1.662 8.857-3.916 8.992a6.4 6.4 0 0 1-2.434-.387zm2.38-1.949c3.988-.099 3.827-5.928-.143-5.838-3.971.099-3.809 5.928.143 5.838m-.655 6.62c-1.06.773-1.725 1.958-1.698 3.243.054 2.146 1.59 3.072 3.153 3.027s3.125-1.105 3.081-2.947c-.054-2.173-2.309-2.721-4.536-3.323m13.311-2.883.207-1.374v-.44c-.665 1.131-1.662 2.03-3.108 2.003-1.985-.036-3.431-1.671-3.368-4.986l.08-4.437c.009-.539.018-.907-.161-1.383l2.542-1.123-.126 7.078c-.036 1.797.674 2.794 1.563 2.803 1.356.027 2.093-2.093 2.659-3.899l.062-3.359c.009-.539.018-.907-.161-1.383l2.542-1.123-.18 10.303.162 1.383-2.713-.045z"/>
  <path fill="#C12202" d="m146.599 53.23 2.937.172c-.179.224-.161.853 0 1.383l1.86 6.727 2.622-6.467c.189-.503.297-1.132.153-1.374l2.659.153-4.59 11.434c-1.042 2.587-1.814 5.973-5.084 5.784-1.401-.08-2.506-1.176-3.422-2.748l2.12-1.446c.44 1.284.997 1.832 1.554 1.868 1.212.072 1.805-1.77 2.542-3.593l-3.342-11.892zm12.934 9.118c.485.844 1.285 1.482 2.453 1.599 1.023.098 1.859-.288 2.497-1.285l1.643 1.662c-1.149 1.437-2.712 2.102-4.509 1.93-3.808-.367-5.407-3.718-5.111-6.808.288-2.955 2.381-5.658 6.009-5.308 2.345.225 4.456 1.958 4.195 4.635-.099.979-.718 1.805-2.739 2.362zm3.009-3c1.707-.422 1.608-.827 1.635-1.087.099-1.042-.7-1.707-1.724-1.815-2.021-.197-3.216 1.492-3.396 3.333a2.2 2.2 0 0 0-.018.422l3.512-.853zm.737-6.072-.458-1.806-.818 1.68-2.488-.242 2.857-3.028 1.185.117 2.219 3.521-2.488-.242zm3.404 13.257.377-1.338 1.141-8.147c.072-.53.126-.898 0-1.392l2.659-.808-.323 2.317c.97-1.23 2.119-1.823 3.341-1.653 1.967.279 3.198 2.075 2.739 5.363l-.772 5.55v1.393l-2.686-.377.378-1.339.79-5.65c.252-1.778-.332-2.856-1.213-2.973-1.275-.18-2.29 1.563-3.071 3.225l-.674 4.814v1.393zm21.045 3.513.485-1.303 2.767-12.332-.728-.162c-2.075-.467-3.314.593-3.619 1.94-.324 1.437.431 3.189 2.416 3.629l-.054.224c-.234 1.051-.988 1.644-2.066 1.402-2.344-.53-3.386-3.27-2.901-5.435.709-3.143 3.718-4.715 6.772-4.033l3.081.692 3.045 12.584 2.237-9.98.116-1.382 2.641.593-.485 1.302-3.278 14.614-2.533-.566-2.973-12.252-2.174 9.683-.117 1.383-2.641-.593zm11.453 2.712.566-1.266c1.491-5.093 2.326-7.959 3.817-13.052.153-.511.251-.87.207-1.374l2.748-.413-2.147 7.357c.952-.917 2.147-1.519 3.539-1.105 1.905.556 2.866 2.515 1.94 5.703l-1.571 5.38-.207 1.375-2.605-.764.566-1.266 1.599-5.47c.503-1.725.081-2.874-.764-3.117-1.302-.377-2.569 1.464-3.592 3.063l-1.276 4.347-.207 1.374-2.604-.763zm16.078 4.222a4.97 4.97 0 0 1-3.189 0c-2.362-.827-2.874-2.965-2.237-4.788.683-1.94 2.758-3.485 5.354-2.578a4.6 4.6 0 0 1 2.102 1.554c.539-1.688-.198-2.82-1.258-3.189-.772-.269-1.715-.107-2.488.683l-1.266-1.949c1.616-1.212 3.296-1.365 4.706-.871 2.156.754 3.584 3.063 2.776 5.353l-2.111 6.036-.279 1.365-2.38-.835.27-.772zm1.14-3.243c-.107-.88-.88-1.796-1.679-2.075-1.123-.395-2.084.306-2.417 1.258-.377 1.078.108 2.02 1.186 2.398.773.27 1.788.135 2.56-.593zm2.291-11.784-.162 3.43-1.123-.394-1.23-3.917zM54.72 75.857l-.224-1.374a7161 7161 0 0 1-3.97-13.007c-.153-.512-.27-.87-.584-1.266l2.075-1.85 4.716 15.44.584 1.266-2.587.79zm3.854-17.955 1.833 2.91-1.15.323-3.252-2.506 2.56-.718zm5.785 14.29a4.9 4.9 0 0 1-2.614 1.824c-2.407.673-4.051-.782-4.572-2.65-.557-1.976.26-4.437 2.92-5.183a4.55 4.55 0 0 1 2.613.072c-.521-1.698-1.779-2.192-2.856-1.895-.79.224-1.474.898-1.653 1.985l-2.165-.871c.629-1.923 1.922-3.01 3.36-3.414 2.2-.62 4.688.458 5.344 2.803l1.724 6.162.548 1.275-2.434.683-.224-.79h.009Zm-.925-3.305c-.593-.656-1.752-.961-2.56-.737-1.15.324-1.536 1.446-1.267 2.416.306 1.105 1.249 1.59 2.344 1.285.79-.225 1.536-.916 1.76-1.95l-.286-1.014zm15.656.548-.117-1.384-2.722-12.386c-1.904.368-3.79 1.123-3.27 3.521.315 1.437 1.743 2.704 3.728 2.264l.054.224c.233 1.05-.198 1.913-1.276 2.147-2.353.52-4.446-1.536-4.922-3.7-.691-3.145 1.366-5.848 4.42-6.522l3.835-.844c2.623-.575 3.79-1.267 3.35-3.252l.225-.054c1.05-.233 1.913.198 2.147 1.276.52 2.353-1.734 3.539-5.22 4.302l-.772.17 2.713 12.342.476 1.303-2.65.584v.009Z"/>
  <path fill="#C12202" d="M85.583 64.584c.692.683 1.644 1.078 2.794.863 1.006-.189 1.706-.79 2.048-1.923l2.039 1.141c-.71 1.698-2.03 2.776-3.8 3.099-3.763.692-6.224-2.084-6.79-5.138-.54-2.919.736-6.099 4.311-6.754 2.318-.422 4.824.655 5.309 3.296.18.961-.189 1.931-1.985 3.027l-3.935 2.38.01.01Zm1.105-9.754-.934-1.608-.323 1.841-2.461.45 1.904-3.701 1.168-.216 3.098 2.776-2.46.449zm.97 6.045c1.527-.872 1.312-1.24 1.267-1.491-.189-1.033-1.15-1.455-2.156-1.267-1.994.369-2.686 2.318-2.353 4.141.027.135.054.278.099.413l3.134-1.787.01-.01Zm3.467-12.27-1.814 3.683-1.168.215.369-3.413 2.622-.485zm.369 6.557c1.32-.198 1.356-.386 1.23-1.248l-.099-.647c-.098-.647-.197-1.32-.449-1.752l2.327-1.527.682 4.626 3.467-.512.306 2.084-3.467.512.772 5.2c.189 1.294.647 2.291 1.428 2.174.79-.117.997-1.096 1.23-1.715l2.004 1.212c-.71 1.59-1.617 2.48-2.955 2.686-1.545.225-3.521-.638-3.943-3.521l-.692-4.644c-.126-.853-.225-1.033-1.536-.835l-.305-2.084zm21.521 9.081.081-1.392-.988-12.602-.746.063c-2.12.161-2.991 1.545-2.883 2.919.117 1.464 1.356 2.92 3.377 2.757l.018.234c.081 1.069-.467 1.86-1.554 1.95-2.398.188-4.194-2.13-4.374-4.348-.252-3.216 2.165-5.605 5.281-5.848l3.144-.242 6.611 11.129-.799-10.195-.297-1.356 2.704-.216-.081 1.392 1.168 14.929-2.587.206-6.449-10.832.772 9.898.297 1.356-2.704.216zm14.551-2.73a.94.94 0 0 0-.404.78c.063 2.471 9.09 1.115 9.233 7.16.081 3.386-2.811 5.272-5.685 5.344-2.803.072-5.596-1.5-5.677-5.075-.036-1.59.62-3.449 2.021-4.248-1.177-.53-2.066-1.303-2.093-2.704-.018-.844.306-1.779.826-2.398-2.847-2.874-1.5-8.839 3.962-8.973a6.6 6.6 0 0 1 1.877.215c.584-.063 1.105-.638 1.518-1.931l2.066 1.518a5.1 5.1 0 0 1-1.294 1.716c2.875 2.874 1.662 8.856-3.916 8.99a6.4 6.4 0 0 1-2.434-.385zm2.38-1.95c3.988-.099 3.827-5.928-.143-5.838-3.971.099-3.809 5.928.143 5.838m-.655 6.63c-1.06.772-1.725 1.957-1.698 3.242.054 2.147 1.59 3.072 3.153 3.027s3.125-1.105 3.081-2.946c-.054-2.174-2.309-2.722-4.536-3.324Zm13.311-2.893.207-1.374v-.44c-.665 1.131-1.662 2.03-3.108 2.003-1.985-.036-3.431-1.671-3.368-4.986l.08-4.437c.009-.539.018-.907-.161-1.383l2.542-1.123-.126 7.078c-.036 1.797.674 2.794 1.563 2.803 1.356.026 2.093-2.093 2.659-3.899l.062-3.359c.009-.539.018-.907-.161-1.383l2.542-1.123-.18 10.303.162 1.383-2.713-.045z"/>
  <path fill="#C12202" d="m146.599 51.704 2.937.17c-.179.225-.161.854 0 1.384l1.86 6.727 2.622-6.467c.189-.503.297-1.132.153-1.374l2.659.153-4.59 11.434c-1.042 2.587-1.814 5.973-5.084 5.785-1.401-.081-2.506-1.177-3.422-2.75l2.12-1.445c.44 1.284.997 1.832 1.554 1.868 1.212.072 1.805-1.77 2.542-3.593l-3.342-11.892zm12.934 9.108c.485.844 1.285 1.482 2.453 1.599 1.023.098 1.859-.288 2.497-1.285l1.643 1.662c-1.149 1.437-2.712 2.102-4.509 1.931-3.808-.368-5.407-3.719-5.111-6.808.288-2.956 2.381-5.66 6.009-5.309 2.345.225 4.456 1.958 4.195 4.635-.099.979-.718 1.805-2.739 2.362zm3.009-2.991c1.707-.422 1.608-.827 1.635-1.087.099-1.042-.7-1.707-1.724-1.815-2.021-.197-3.216 1.492-3.396 3.333a2.2 2.2 0 0 0-.018.422l3.512-.853zm.737-6.081-.458-1.806-.818 1.68-2.488-.242 2.857-3.027 1.185.116 2.219 3.521-2.488-.242zm3.404 13.258.377-1.339 1.141-8.147c.072-.53.126-.898 0-1.392l2.659-.808-.323 2.317c.97-1.23 2.119-1.823 3.341-1.653 1.967.279 3.198 2.075 2.739 5.363l-.772 5.55v1.393l-2.686-.377.378-1.339.79-5.65c.252-1.778-.332-2.856-1.213-2.972-1.275-.18-2.29 1.562-3.071 3.224l-.674 4.815v1.392zm21.045 3.521.485-1.303 2.767-12.332-.728-.162c-2.075-.467-3.314.593-3.619 1.94-.324 1.437.431 3.189 2.416 3.629l-.054.224c-.234 1.051-.988 1.644-2.066 1.402-2.344-.53-3.386-3.27-2.901-5.434.709-3.144 3.718-4.716 6.772-4.033l3.081.691 3.045 12.584 2.237-9.98.116-1.382 2.641.593-.485 1.302-3.278 14.614-2.533-.566-2.973-12.252-2.174 9.683-.117 1.383-2.641-.593zm11.453 2.703.566-1.266c1.491-5.093 2.326-7.959 3.817-13.052.153-.512.251-.87.207-1.374l2.748-.413-2.147 7.356c.952-.916 2.147-1.517 3.539-1.104 1.905.556 2.866 2.515 1.94 5.703l-1.571 5.38-.207 1.375-2.605-.764.566-1.266 1.599-5.47c.503-1.725.081-2.874-.764-3.117-1.302-.377-2.569 1.464-3.592 3.063l-1.276 4.347-.207 1.374-2.604-.763zm16.078 4.222a4.97 4.97 0 0 1-3.189 0c-2.362-.827-2.874-2.964-2.237-4.788.683-1.94 2.758-3.485 5.354-2.578a4.6 4.6 0 0 1 2.102 1.554c.539-1.688-.198-2.82-1.258-3.188-.772-.27-1.715-.108-2.488.682l-1.266-1.949c1.616-1.212 3.296-1.365 4.706-.871 2.156.754 3.584 3.063 2.776 5.353l-2.111 6.036-.279 1.366-2.38-.836.27-.772v-.01Zm1.14-3.243c-.107-.88-.88-1.796-1.679-2.075-1.123-.395-2.084.306-2.417 1.258-.377 1.078.108 2.02 1.186 2.398.773.27 1.788.135 2.56-.593zm2.291-11.784-.162 3.43-1.123-.394-1.23-3.917 2.515.88Z"/>
  <path fill="#EF4B23" d="m54.72 75.857-.224-1.374a7161 7161 0 0 1-3.97-13.007c-.153-.512-.27-.87-.584-1.266l2.075-1.85 4.716 15.44.584 1.266-2.587.79zm3.854-17.955 1.833 2.91-1.15.323-3.252-2.506 2.56-.718zm5.785 14.29a4.9 4.9 0 0 1-2.614 1.824c-2.407.673-4.051-.782-4.572-2.65-.557-1.976.26-4.437 2.92-5.183a4.55 4.55 0 0 1 2.613.072c-.521-1.698-1.779-2.192-2.856-1.895-.79.224-1.474.898-1.653 1.985l-2.165-.871c.629-1.923 1.922-3.01 3.36-3.414 2.2-.62 4.688.458 5.344 2.803l1.724 6.162.548 1.275-2.434.683-.224-.79h.009Zm-.925-3.305c-.593-.656-1.752-.961-2.56-.737-1.15.324-1.536 1.446-1.267 2.416.306 1.105 1.249 1.59 2.344 1.285.79-.225 1.536-.916 1.76-1.95l-.286-1.014zm15.656.548-.117-1.384-2.722-12.386c-1.904.368-3.79 1.123-3.27 3.521.315 1.437 1.743 2.704 3.728 2.264l.054.224c.233 1.05-.198 1.913-1.276 2.147-2.353.52-4.446-1.536-4.922-3.7-.691-3.145 1.366-5.848 4.42-6.522l3.835-.844c2.623-.575 3.79-1.267 3.35-3.252l.225-.054c1.05-.233 1.913.198 2.147 1.276.52 2.353-1.734 3.539-5.22 4.302l-.772.17 2.713 12.342.476 1.303-2.65.584v.009Z"/>
  <path fill="#EF4B23" d="M85.583 64.584c.692.683 1.644 1.078 2.794.863 1.006-.189 1.706-.79 2.048-1.923l2.039 1.141c-.71 1.698-2.03 2.776-3.8 3.099-3.763.692-6.224-2.084-6.79-5.138-.54-2.919.736-6.099 4.311-6.754 2.318-.422 4.824.655 5.309 3.296.18.961-.189 1.931-1.985 3.027l-3.935 2.38.01.01Zm1.105-9.754-.934-1.608-.323 1.841-2.461.45 1.904-3.701 1.168-.216 3.098 2.776-2.46.449zm.97 6.045c1.527-.872 1.312-1.24 1.267-1.491-.189-1.033-1.15-1.455-2.156-1.267-1.994.369-2.686 2.318-2.353 4.141.027.135.054.278.099.413l3.134-1.787.01-.01Zm3.467-12.27-1.814 3.683-1.168.215.369-3.413 2.622-.485zm.369 6.557c1.32-.198 1.356-.386 1.23-1.248l-.099-.647c-.098-.647-.197-1.32-.449-1.752l2.327-1.527.682 4.626 3.467-.512.306 2.084-3.467.512.772 5.2c.189 1.294.647 2.291 1.428 2.174.79-.117.997-1.096 1.23-1.715l2.004 1.212c-.71 1.59-1.617 2.48-2.955 2.686-1.545.225-3.521-.638-3.943-3.521l-.692-4.644c-.126-.853-.225-1.033-1.536-.835l-.305-2.084zm21.521 9.081.081-1.392-.988-12.602-.746.063c-2.12.161-2.991 1.545-2.883 2.919.117 1.464 1.356 2.92 3.377 2.757l.018.234c.081 1.069-.467 1.86-1.554 1.95-2.398.188-4.194-2.13-4.374-4.348-.252-3.216 2.165-5.605 5.281-5.848l3.144-.242 6.611 11.129-.799-10.195-.297-1.356 2.704-.216-.081 1.392 1.168 14.929-2.587.206-6.449-10.832.772 9.898.297 1.356-2.704.216zm14.551-2.73a.94.94 0 0 0-.404.78c.063 2.471 9.09 1.115 9.233 7.16.081 3.386-2.811 5.272-5.685 5.344-2.803.072-5.596-1.5-5.677-5.075-.036-1.59.62-3.449 2.021-4.248-1.177-.53-2.066-1.303-2.093-2.704-.018-.844.306-1.779.826-2.398-2.847-2.874-1.5-8.839 3.962-8.973a6.6 6.6 0 0 1 1.877.215c.584-.063 1.105-.638 1.518-1.931l2.066 1.518a5.1 5.1 0 0 1-1.294 1.716c2.875 2.874 1.662 8.856-3.916 8.99a6.4 6.4 0 0 1-2.434-.385zm2.38-1.95c3.988-.099 3.827-5.928-.143-5.838-3.971.099-3.809 5.928.143 5.838m-.655 6.63c-1.06.772-1.725 1.957-1.698 3.242.054 2.147 1.59 3.072 3.153 3.027s3.125-1.105 3.081-2.946c-.054-2.174-2.309-2.722-4.536-3.324Zm13.311-2.893.207-1.374v-.44c-.665 1.131-1.662 2.03-3.108 2.003-1.985-.036-3.431-1.671-3.368-4.986l.08-4.437c.009-.539.018-.907-.161-1.383l2.542-1.123-.126 7.078c-.036 1.797.674 2.794 1.563 2.803 1.356.026 2.093-2.093 2.659-3.899l.062-3.359c.009-.539.018-.907-.161-1.383l2.542-1.123-.18 10.303.162 1.383-2.713-.045z"/>
  <path fill="#EF4B23" d="m146.599 51.704 2.937.17c-.179.225-.161.854 0 1.384l1.86 6.727 2.622-6.467c.189-.503.297-1.132.153-1.374l2.659.153-4.59 11.434c-1.042 2.587-1.814 5.973-5.084 5.785-1.401-.081-2.506-1.177-3.422-2.75l2.12-1.445c.44 1.284.997 1.832 1.554 1.868 1.212.072 1.805-1.77 2.542-3.593l-3.342-11.892zm12.934 9.108c.485.844 1.285 1.482 2.453 1.599 1.023.098 1.859-.288 2.497-1.285l1.643 1.662c-1.149 1.437-2.712 2.102-4.509 1.931-3.808-.368-5.407-3.719-5.111-6.808.288-2.956 2.381-5.66 6.009-5.309 2.345.225 4.456 1.958 4.195 4.635-.099.979-.718 1.805-2.739 2.362zm3.009-2.991c1.707-.422 1.608-.827 1.635-1.087.099-1.042-.7-1.707-1.724-1.815-2.021-.197-3.216 1.492-3.396 3.333a2.2 2.2 0 0 0-.018.422l3.512-.853zm.737-6.081-.458-1.806-.818 1.68-2.488-.242 2.857-3.027 1.185.116 2.219 3.521-2.488-.242zm3.404 13.258.377-1.339 1.141-8.147c.072-.53.126-.898 0-1.392l2.659-.808-.323 2.317c.97-1.23 2.119-1.823 3.341-1.653 1.967.279 3.198 2.075 2.739 5.363l-.772 5.55v1.393l-2.686-.377.378-1.339.79-5.65c.252-1.778-.332-2.856-1.213-2.972-1.275-.18-2.29 1.562-3.071 3.224l-.674 4.815v1.392zm21.045 3.521.485-1.303 2.767-12.332-.728-.162c-2.075-.467-3.314.593-3.619 1.94-.324 1.437.431 3.189 2.416 3.629l-.054.224c-.234 1.051-.988 1.644-2.066 1.402-2.344-.53-3.386-3.27-2.901-5.434.709-3.144 3.718-4.716 6.772-4.033l3.081.691 3.045 12.584 2.237-9.98.116-1.382 2.641.593-.485 1.302-3.278 14.614-2.533-.566-2.973-12.252-2.174 9.683-.117 1.383-2.641-.593zm11.453 2.703.566-1.266c1.491-5.093 2.326-7.959 3.817-13.052.153-.512.251-.87.207-1.374l2.748-.413-2.147 7.356c.952-.916 2.147-1.517 3.539-1.104 1.905.556 2.866 2.515 1.94 5.703l-1.571 5.38-.207 1.375-2.605-.764.566-1.266 1.599-5.47c.503-1.725.081-2.874-.764-3.117-1.302-.377-2.569 1.464-3.592 3.063l-1.276 4.347-.207 1.374-2.604-.763zm16.078 4.222a4.97 4.97 0 0 1-3.189 0c-2.362-.827-2.874-2.964-2.237-4.788.683-1.94 2.758-3.485 5.354-2.578a4.6 4.6 0 0 1 2.102 1.554c.539-1.688-.198-2.82-1.258-3.188-.772-.27-1.715-.108-2.488.682l-1.266-1.949c1.616-1.212 3.296-1.365 4.706-.871 2.156.754 3.584 3.063 2.776 5.353l-2.111 6.036-.279 1.366-2.38-.836.27-.772v-.01Zm1.14-3.243c-.107-.88-.88-1.796-1.679-2.075-1.123-.395-2.084.306-2.417 1.258-.377 1.078.108 2.02 1.186 2.398.773.27 1.788.135 2.56-.593zm2.291-11.784-.162 3.43-1.123-.394-1.23-3.917 2.515.88Z"/>
  <path fill="#FFF400" d="m54.72 74.321-.224-1.374a7161 7161 0 0 1-3.97-13.006c-.153-.512-.27-.872-.584-1.267l2.075-1.85 4.716 15.44.584 1.267-2.587.79zm3.854-17.955 1.833 2.91-1.15.323-3.252-2.506 2.56-.718zm5.785 14.29a4.9 4.9 0 0 1-2.614 1.824c-2.407.673-4.051-.782-4.572-2.65-.557-1.976.26-4.437 2.92-5.183a4.55 4.55 0 0 1 2.613.072c-.521-1.697-1.779-2.191-2.856-1.895-.79.224-1.474.898-1.653 1.985l-2.165-.871c.629-1.922 1.922-3.01 3.36-3.413 2.2-.62 4.688.458 5.344 2.802l1.724 6.162.548 1.275-2.434.683-.224-.79h.009Zm-.925-3.305c-.593-.656-1.752-.961-2.56-.737-1.15.324-1.536 1.447-1.267 2.417.306 1.104 1.249 1.59 2.344 1.284.79-.225 1.536-.916 1.76-1.95l-.286-1.014zm15.656.548-.117-1.383-2.722-12.387c-1.904.368-3.79 1.123-3.27 3.521.315 1.437 1.743 2.704 3.728 2.264l.054.224c.233 1.051-.198 1.913-1.276 2.147-2.353.52-4.446-1.536-4.922-3.7-.691-3.145 1.366-5.848 4.42-6.522l3.835-.844c2.623-.575 3.79-1.267 3.35-3.252l.225-.054c1.05-.233 1.913.198 2.147 1.276.52 2.353-1.734 3.539-5.22 4.302l-.772.171 2.713 12.342.476 1.302-2.65.584v.009Z"/>
  <path fill="#FFF400" d="M85.583 63.048c.692.683 1.644 1.078 2.794.863 1.006-.189 1.706-.79 2.048-1.922l2.039 1.14c-.71 1.698-2.03 2.776-3.8 3.1-3.763.69-6.224-2.085-6.79-5.139-.54-2.919.736-6.099 4.311-6.754 2.318-.422 4.824.656 5.309 3.296.18.961-.189 1.931-1.985 3.027l-3.935 2.38.01.01Zm1.105-9.754-.934-1.608-.323 1.841-2.461.45 1.904-3.701 1.168-.216 3.098 2.776-2.46.449zm.97 6.045c1.527-.871 1.312-1.24 1.267-1.491-.189-1.033-1.15-1.455-2.156-1.267-1.994.369-2.686 2.318-2.353 4.141.027.135.054.279.099.413l3.134-1.787.01-.01Zm3.467-12.27-1.814 3.683-1.168.215.369-3.413 2.622-.485zm.369 6.566c1.32-.197 1.356-.386 1.23-1.248l-.099-.647c-.098-.647-.197-1.32-.449-1.752l2.327-1.527.682 4.626 3.467-.512.306 2.084-3.467.512.772 5.2c.189 1.294.647 2.291 1.428 2.174.79-.116.997-1.095 1.23-1.715l2.004 1.212c-.71 1.59-1.617 2.48-2.955 2.686-1.545.225-3.521-.638-3.943-3.52l-.692-4.645c-.126-.853-.225-1.033-1.536-.835l-.305-2.084zm21.521 9.072.081-1.392-.988-12.602-.746.063c-2.12.161-2.991 1.545-2.883 2.919.117 1.464 1.356 2.92 3.377 2.758l.018.233c.081 1.069-.467 1.86-1.554 1.95-2.398.188-4.194-2.13-4.374-4.348-.252-3.216 2.165-5.605 5.281-5.848l3.144-.242 6.611 11.129-.799-10.195-.297-1.356 2.704-.216-.081 1.392 1.168 14.929-2.587.206-6.449-10.832.772 9.898.297 1.357-2.704.215zm14.551-2.73a.94.94 0 0 0-.404.781c.063 2.47 9.09 1.114 9.233 7.159.081 3.386-2.811 5.272-5.685 5.344-2.803.072-5.596-1.5-5.677-5.075-.036-1.59.62-3.449 2.021-4.248-1.177-.53-2.066-1.303-2.093-2.704-.018-.844.306-1.778.826-2.398-2.847-2.874-1.5-8.839 3.962-8.973a6.6 6.6 0 0 1 1.877.215c.584-.063 1.105-.638 1.518-1.93l2.066 1.517a5.1 5.1 0 0 1-1.294 1.716c2.875 2.874 1.662 8.856-3.916 8.99a6.4 6.4 0 0 1-2.434-.385zm2.38-1.95c3.988-.098 3.827-5.928-.143-5.838-3.971.099-3.809 5.928.143 5.839Zm-.655 6.63c-1.06.772-1.725 1.957-1.698 3.242.054 2.147 1.59 3.072 3.153 3.027s3.125-1.105 3.081-2.946c-.054-2.174-2.309-2.722-4.536-3.324Zm13.311-2.893.207-1.374v-.44c-.665 1.131-1.662 2.03-3.108 2.003-1.985-.036-3.431-1.671-3.368-4.986l.08-4.437c.009-.539.018-.907-.161-1.383l2.542-1.123-.126 7.078c-.036 1.797.674 2.794 1.563 2.803 1.356.027 2.093-2.093 2.659-3.899l.062-3.359c.009-.539.018-.907-.161-1.383l2.542-1.123-.18 10.303.162 1.383-2.713-.045z"/>
  <path fill="#FFF400" d="m146.599 50.168 2.937.17c-.179.225-.161.854 0 1.384l1.86 6.727 2.622-6.467c.189-.503.297-1.131.153-1.374l2.659.153-4.59 11.434c-1.042 2.587-1.814 5.973-5.084 5.785-1.401-.081-2.506-1.177-3.422-2.749l2.12-1.446c.44 1.284.997 1.832 1.554 1.868 1.212.072 1.805-1.77 2.542-3.593l-3.342-11.892zm12.934 9.108c.485.844 1.285 1.482 2.453 1.599 1.023.099 1.859-.288 2.497-1.285l1.643 1.662c-1.149 1.437-2.712 2.102-4.509 1.931-3.808-.368-5.407-3.718-5.111-6.808.288-2.955 2.381-5.659 6.009-5.309 2.345.225 4.456 1.958 4.195 4.635-.099.98-.718 1.806-2.739 2.362zm3.009-2.991c1.707-.422 1.608-.826 1.635-1.087.099-1.042-.7-1.707-1.724-1.814-2.021-.198-3.216 1.49-3.396 3.332a2.2 2.2 0 0 0-.018.422l3.512-.853zm.737-6.081-.458-1.805-.818 1.68-2.488-.243 2.857-3.027 1.185.117 2.219 3.52-2.488-.242zm3.404 13.266.377-1.338 1.141-8.147c.072-.53.126-.898 0-1.392l2.659-.808-.323 2.317c.97-1.23 2.119-1.823 3.341-1.652 1.967.278 3.198 2.074 2.739 5.362l-.772 5.55v1.393l-2.686-.377.378-1.339.79-5.65c.252-1.778-.332-2.856-1.213-2.972-1.275-.18-2.29 1.563-3.071 3.224l-.674 4.815v1.392zm21.045 3.513.485-1.303 2.767-12.332-.728-.162c-2.075-.467-3.314.593-3.619 1.94-.324 1.437.431 3.189 2.416 3.629l-.054.224c-.234 1.052-.988 1.644-2.066 1.402-2.344-.53-3.386-3.27-2.901-5.434.709-3.144 3.718-4.716 6.772-4.033l3.081.691 3.045 12.584 2.237-9.979.116-1.383 2.641.593-.485 1.302-3.278 14.614-2.533-.566-2.973-12.252-2.174 9.683-.117 1.383-2.641-.592.009-.01Zm11.453 2.712.566-1.266c1.491-5.093 2.326-7.959 3.817-13.051.153-.512.251-.872.207-1.375l2.748-.413-2.147 7.357c.952-.917 2.147-1.518 3.539-1.105 1.905.557 2.866 2.515 1.94 5.703l-1.571 5.38-.207 1.375-2.605-.763.566-1.267 1.599-5.47c.503-1.725.081-2.874-.764-3.117-1.302-.377-2.569 1.464-3.592 3.063l-1.276 4.347-.207 1.375-2.604-.764zm16.078 4.213a4.97 4.97 0 0 1-3.189 0c-2.362-.826-2.874-2.964-2.237-4.788.683-1.94 2.758-3.485 5.354-2.578a4.6 4.6 0 0 1 2.102 1.554c.539-1.688-.198-2.82-1.258-3.188-.772-.27-1.715-.108-2.488.682l-1.266-1.949c1.616-1.212 3.296-1.365 4.706-.871 2.156.755 3.584 3.063 2.776 5.353l-2.111 6.036-.279 1.366-2.38-.836.27-.772v-.01Zm1.14-3.243c-.107-.88-.88-1.796-1.679-2.075-1.123-.395-2.084.306-2.417 1.258-.377 1.078.108 2.02 1.186 2.398.773.27 1.788.135 2.56-.593zm2.291-11.784-.162 3.43-1.123-.394-1.23-3.916z"/>
  <mask id="d" width="10.955" height="11.861" x="96.185" y="6.592" fill="#000" maskUnits="userSpaceOnUse">
    <path fill="#fff" d="M96.185 6.592h10.955v11.861H96.185z"/>
    <path d="M101.569 8.615c1.816-.165 3.122.812 3.276 2.51.154 1.684-.954 2.882-2.771 3.047l-1.613.146.255 2.809-1.792.163-.761-8.365zm-1.478 1.64.234 2.57 1.446-.132c.836-.076 1.33-.615 1.258-1.404-.073-.8-.655-1.241-1.492-1.165z"/>
  </mask>
  <path fill="#fff" d="M101.569 8.615c1.816-.165 3.122.812 3.276 2.51.154 1.684-.954 2.882-2.771 3.047l-1.613.146.255 2.809-1.792.163-.761-8.365zm-1.478 1.64.234 2.57 1.446-.132c.836-.076 1.33-.615 1.258-1.404-.073-.8-.655-1.241-1.492-1.165z"/>
  <path fill="#EF4B23" d="m100.461 14.319-.091-.996-.996.09.09.996zm.255 2.808.091.996.996-.09-.091-.997zm-1.792.163-.996.09.09.997.996-.091zm-.761-8.365-.09-.996-.997.09.09.996zm1.928 1.33-.09-.996-.996.091.09.996.996-.09Zm.234 2.57-.996.09.09.996.996-.09zm1.334-3.214c.712-.065 1.23.1 1.566.356.326.248.57.648.624 1.248l1.992-.181c-.1-1.097-.585-2.035-1.405-2.659-.81-.616-1.853-.857-2.958-.756zm2.19 1.604c.054.592-.113 1.026-.389 1.328-.284.312-.765.568-1.477.633l.182 1.992c1.104-.1 2.086-.526 2.772-1.275.693-.76 1.004-1.767.904-2.86zm-1.866 1.96-1.613.148.181 1.991 1.614-.146-.182-1.992Zm-2.518 1.234.255 2.809 1.992-.182-.255-2.808zm1.161 1.722-1.793.163.181 1.992 1.793-.163zm-.707 1.068-.76-8.365-1.992.181.76 8.366zM98.253 9.92l3.406-.31-.181-1.991-3.406.31zm.842.426.234 2.57 1.992-.182-.234-2.57zm1.32 3.475 1.446-.132-.181-1.992-1.446.132zm1.446-.132c.61-.055 1.199-.291 1.622-.76.432-.48.599-1.1.542-1.73l-1.992.181c.014.158-.029.202-.035.209-.015.016-.091.088-.318.108zm2.164-2.49c-.058-.633-.332-1.215-.843-1.612-.503-.389-1.126-.515-1.735-.46l.181 1.993c.226-.021.313.036.329.048.007.006.061.044.076.212zm-2.578-2.071-1.446.131.181 1.992 1.446-.131z" mask="url(#d)"/>
  <mask id="e" width="10.714" height="11.645" x="104.564" y="6.042" fill="#000" maskUnits="userSpaceOnUse">
    <path fill="#fff" d="M104.564 6.042h10.714v11.645h-10.714z"/>
    <path d="m106.507 8.184 1.796-.12.226 3.364 3.328-.223-.225-3.365 1.796-.12.562 8.381-1.796.12-.232-3.46-3.329.224.232 3.46-1.795.12-.563-8.38Z"/>
  </mask>
  <path fill="#fff" d="m106.507 8.184 1.796-.12.226 3.364 3.328-.223-.225-3.365 1.796-.12.562 8.381-1.796.12-.232-3.46-3.329.224.232 3.46-1.795.12-.563-8.38Z"/>
  <path fill="#EF4B23" d="m106.507 8.184-.067-.998-.997.067.067.998zm1.796-.12.998-.067-.067-.998-.998.067zm.226 3.364-.998.067.067.998.998-.067zm3.328-.223.067.998.998-.067-.067-.998zm-.225-3.365-.067-.997-.998.067.067.997zm1.796-.12.998-.067-.067-.998-.998.067zm.562 8.381.067.998.998-.067-.067-.998zm-1.796.12-.998.067.067.998.998-.067zm-.232-3.46.998-.067-.067-.997-.998.067zm-3.329.224-.067-.998-.997.067.067.998zm.232 3.46.067.998.998-.067-.067-.998zm-1.795.12-.998.067.067.998.997-.067zm-.496-7.383 1.796-.12-.134-1.996-1.796.12zm.732-1.051.225 3.364 1.996-.134-.226-3.364zm1.29 4.295 3.328-.223-.133-1.996-3.329.223zm4.259-1.288-.225-3.365-1.996.134.226 3.365zm-1.156-2.3 1.796-.12-.134-1.996-1.796.12zm.731-1.051.562 8.381 1.996-.134-.562-8.381zm1.493 7.316-1.796.12.134 1.996 1.796-.12zm-.731 1.052-.232-3.46-1.996.133.232 3.46zm-1.297-4.391-3.329.223.134 1.995 3.329-.223zm-4.259 1.288.232 3.46 1.995-.134-.232-3.46zm1.163 2.395-1.796.12.133 1.996 1.796-.12zm-.732 1.051-.562-8.38-1.995.133.562 8.381z" mask="url(#e)"/>
  <mask id="f" width="5.531" height="11.231" x="113.862" y="5.851" fill="#000" maskUnits="userSpaceOnUse">
    <path fill="#fff" d="M113.862 5.851h5.531v11.231h-5.531z"/>
    <path d="m115.777 7.603 1.798-.088.41 8.39-1.797.088z"/>
  </mask>
  <path fill="#fff" d="m115.777 7.603 1.798-.088.41 8.39-1.797.088z"/>
  <path fill="#EF4B23" d="m115.777 7.603-.048-.999-.999.049.049.999zm1.798-.088.999-.049-.049-.999-.999.05zm.41 8.39.049.999.999-.049-.049-.999zm-1.797.088-.999.049.049.998.998-.048zm-.362-7.391 1.798-.088-.098-1.998-1.797.088zm.751-1.038.41 8.39 1.997-.098-.41-8.39zm1.36 7.342-1.798.088.097 1.998 1.798-.088zm-.751 1.038-.41-8.39-1.997.098.41 8.39z" mask="url(#f)"/>
  <mask id="g" width="13.302" height="11.358" x="118.221" y="5.465" fill="#000" maskUnits="userSpaceOnUse">
    <path fill="#fff" d="M118.221 5.465h13.302v11.358h-13.302z"/>
    <path d="m120.105 7.376 2.363-.066 2.499 6.1 2.083-6.228 2.315-.065.234 8.397-1.715.048-.157-5.626-2.026 5.687-1.463.04-2.341-5.564.157 5.626-1.715.048z"/>
  </mask>
  <path fill="#fff" d="m120.105 7.376 2.363-.066 2.499 6.1 2.083-6.228 2.315-.065.234 8.397-1.715.048-.157-5.626-2.026 5.687-1.463.04-2.341-5.564.157 5.626-1.715.048z"/>
  <path fill="#EF4B23" d="m120.105 7.376-.028-1-1 .028.028 1zm2.363-.066.925-.38-.262-.64-.691.02zm2.499 6.1-.925.38 1.02 2.49.853-2.552-.948-.317Zm2.083-6.228-.028-1-.699.02-.221.663zm2.315-.065 1-.028-.028-1-1 .029.028 1Zm.234 8.397.028 1 1-.028-.028-1zm-1.715.048-.999.028.027 1 1-.029zm-.157-5.626 1-.028-1.942-.308zm-2.026 5.687.028 1 .684-.02.23-.645zm-1.463.04-.922.388.265.631.684-.019zm-2.341-5.564.922-.388-1.921.416zm.157 5.626.028 1 1-.029-.028-1zm-1.715.048-1 .027.028 1 1-.028zm-.206-7.398 2.363-.066-.056-1.999-2.363.066.056 2Zm1.409-.686 2.5 6.1 1.85-.758-2.499-6.1zm4.373 6.039 2.083-6.229-1.896-.634-2.083 6.228zm1.163-5.546 2.315-.065-.056-2-2.315.065zm1.287-1.037.235 8.397 1.999-.056-.234-8.397zm1.207 7.37-1.716.047.056 2 1.715-.048zm-.688 1.019-.157-5.626-2 .056.158 5.626zM126.785 9.6l-2.026 5.687 1.884.671 2.026-5.686zm-1.112 5.023-1.463.041.055 2 1.464-.042zm-.514.653-2.34-5.565-1.843.775 2.34 5.565zm-4.261-5.15.157 5.627 1.999-.056-.157-5.626-1.999.056Zm1.129 4.599-1.716.048.056 2 1.715-.049zm-.688 1.02-.235-8.397-1.999.056.234 8.396z" mask="url(#g)"/>
  <mask id="h" width="10.122" height="11.111" x="133.778" y="5.462" fill="#000" maskUnits="userSpaceOnUse">
    <path fill="#fff" d="M133.778 5.462H143.9v11.111h-10.122z"/>
    <path d="m135.629 15.482.094-8.4 1.632.019 3.505 5.331.059-5.292 1.776.02-.094 8.4-1.644-.019-3.505-5.331-.059 5.292z"/>
  </mask>
  <path fill="#fff" d="m135.629 15.482.094-8.4 1.632.019 3.505 5.331.059-5.292 1.776.02-.094 8.4-1.644-.019-3.505-5.331-.059 5.292z"/>
  <path fill="#EF4B23" d="m135.629 15.482-1-.011-.011 1 1 .01zm.094-8.4.011-1-1-.01-.011 1zm1.632.019.835-.55-.292-.444-.532-.006zm3.505 5.331-.836.55 1.799 2.736.037-3.275zm.059-5.292.011-1-1-.01-.011 1zm1.776.02.999.011.012-1-1-.01zm-.094 8.4-.011 1 1 .01.011-1zm-1.644-.019-.836.55.293.444.532.006zm-3.505-5.331.836-.55-1.799-2.736-.037 3.275 1 .01Zm-.059 5.292-.011 1 1 .01.011-1zm-.764-.009.094-8.4-2-.022-.094 8.4zm-.917-7.41 1.632.018.022-2-1.632-.019-.022 2Zm.807-.433 3.505 5.331 1.671-1.098-3.505-5.332zm5.341 4.793.059-5.291-2-.023-.059 5.292zm-.953-4.303 1.776.02.023-2-1.776-.02zm.788-.99-.094 8.399 2 .022.093-8.4-1.999-.022Zm.917 7.41-1.644-.019-.022 2 1.644.019zm-.82.432-3.504-5.331-1.671 1.098 3.504 5.332zm-5.34-4.793-.059 5.291 2 .023.059-5.292zm.952 4.303-1.764-.02-.022 2 1.764.02z" mask="url(#h)"/>
  <mask id="i" width="11.444" height="12.406" x="142.914" y="5.541" fill="#000" maskUnits="userSpaceOnUse">
    <path fill="#fff" d="M142.914 5.541h11.444v12.406h-11.444z"/>
    <path d="M148.482 15.813c-2.398-.09-3.929-1.841-3.832-4.42s1.744-4.209 4.322-4.112c2.027.077 3.407 1.377 3.554 3.196l-1.799-.068c-.181-.931-.829-1.568-1.86-1.607-1.403-.053-2.321 1.042-2.382 2.66-.061 1.62.736 2.778 2.175 2.832.959.037 1.949-.43 2.161-1.6l.004-.107-2.086-.079.054-1.427 3.753.142-.176 4.664-1.259-.047-.142-1.014c-.466.57-1.3 1.031-2.487.987"/>
  </mask>
  <path fill="#fff" d="M148.482 15.813c-2.398-.09-3.929-1.841-3.832-4.42s1.744-4.209 4.322-4.112c2.027.077 3.407 1.377 3.554 3.196l-1.799-.068c-.181-.931-.829-1.568-1.86-1.607-1.403-.053-2.321 1.042-2.382 2.66-.061 1.62.736 2.778 2.175 2.832.959.037 1.949-.43 2.161-1.6l.004-.107-2.086-.079.054-1.427 3.753.142-.176 4.664-1.259-.047-.142-1.014c-.466.57-1.3 1.031-2.487.987"/>
  <path fill="#EF4B23" d="m152.526 10.477-.038 1 1.126.042-.091-1.123zm-1.799-.068-.981.191.151.779.793.03zm.094 2.286.984.178.013-.07.003-.07zm.004-.108 1 .037.037-.999-.999-.037zm-2.086-.079-.999-.038-.038 1 .999.037zm.054-1.427.037-1-.999-.037-.038 1zm3.753.142.999.037.038-.999-.999-.038zm-.176 4.664-.037 1 .999.037.037-.999zm-1.259-.047-.99.138.116.83.836.031.038-1Zm-.142-1.014.991-.139-.318-2.268-1.448 1.774zm-2.449-.013c-.954-.036-1.665-.393-2.135-.933-.475-.546-.777-1.366-.736-2.449l-1.998-.075c-.057 1.495.359 2.84 1.225 3.836.871 1.002 2.125 1.566 3.569 1.62zm-2.871-3.382c.041-1.085.401-1.872.925-2.376.519-.5 1.296-.815 2.36-.775l.076-1.998c-1.515-.057-2.85.395-3.823 1.331-.968.932-1.48 2.249-1.536 3.743zm3.285-3.15c1.565.058 2.492 1.006 2.595 2.277l1.994-.162c-.192-2.366-2.025-4.02-4.513-4.114l-.076 1.998Zm3.63 1.197-1.799-.068-.075 1.999 1.798.068zm-.855.74c-.125-.643-.425-1.243-.927-1.692-.506-.453-1.156-.696-1.878-.723l-.075 1.999c.31.011.499.107.62.215.126.112.241.296.297.583zm-2.805-2.415c-.994-.037-1.867.341-2.483 1.042-.599.682-.899 1.6-.936 2.58l1.999.075c.024-.638.214-1.077.44-1.334.208-.238.496-.38.905-.364zm-3.419 3.622c-.036.97.18 1.909.723 2.637.561.754 1.407 1.194 2.414 1.232l.075-1.999c-.432-.016-.704-.183-.885-.427-.201-.27-.352-.72-.328-1.368zm3.137 3.869c.644.024 1.346-.117 1.947-.511.622-.409 1.081-1.055 1.236-1.91l-1.968-.357c-.057.314-.199.486-.365.594-.187.123-.459.197-.775.185zm3.199-2.562.004-.108-1.999-.075-.004.108zm-.958-1.144-2.086-.08-.076 2 2.087.078zm-1.125.958.054-1.427-1.999-.076-.053 1.427zm-.983-.466 3.753.142.076-1.999-3.754-.141zm2.792-.895-.176 4.665 1.998.075.176-4.665zm.861 3.703-1.259-.047-.076 1.998 1.26.048zm-.307.813-.141-1.014-1.981.277.142 1.014zm-1.907-1.508c-.255.313-.78.654-1.674.62l-.075 2c1.48.055 2.623-.526 3.299-1.355z" mask="url(#i)"/>
  <mask id="j" width="12.938" height="15.739" x="152.12" y="1.865" fill="#000" maskUnits="userSpaceOnUse">
    <path fill="#fff" d="M152.12 1.865h12.938v15.739H152.12z"/>
    <path d="m158.368 5.243.9-1.469 1.928.124-1.594 1.425zm.134.346c-.026.407.209.686.616.713.383.024.676-.222.702-.629l1.209.078c-.115 1.05-.915 1.709-2.017 1.638-1.066-.069-1.739-.821-1.719-1.878zm-4.154 10.386 3.604-8.185 2.156.138 2.503 8.579-1.928-.124-.529-1.874-3.186-.205-.764 1.79zm3.192-3.09 2.216.143-.909-3.257-1.307 3.115Z"/>
  </mask>
  <path fill="#fff" d="m158.368 5.243.9-1.469 1.928.124-1.594 1.425zm.134.346c-.026.407.209.686.616.713.383.024.676-.222.702-.629l1.209.078c-.115 1.05-.915 1.709-2.017 1.638-1.066-.069-1.739-.821-1.719-1.878zm-4.154 10.386 3.604-8.185 2.156.138 2.503 8.579-1.928-.124-.529-1.874-3.186-.205-.764 1.79zm3.192-3.09 2.216.143-.909-3.257-1.307 3.115Z"/>
  <path fill="#EF4B23" d="m158.368 5.243-.852-.522-.867 1.414 1.655.106zm.9-1.469.065-.998-.602-.039-.315.515zm1.928.124.667.746 1.78-1.59-2.382-.154zm-1.594 1.425-.064.997.418.027.312-.279zm-1.1.266.998.064.065-.998-.998-.064zm1.318.084.064-.998-.998-.064-.064.998zm1.209.078.994.11.115-1.04-1.045-.068zm-3.736-.24.064-.998-1.044-.067-.02 1.046zm-2.945 10.464-.916-.403-.576 1.31 1.427.091zm3.604-8.185.064-.998-.697-.045-.282.64zm2.156.138.96-.28-.197-.673-.699-.045zm2.503 8.579-.065.997 1.424.092-.399-1.37-.96.28Zm-1.928-.124-.963.271.192.681.706.046zm-.529-1.874.962-.272-.192-.68-.706-.046zm-3.186-.205.064-.998-.706-.045-.278.65zm-.764 1.79-.064.999.706.045.277-.65-.919-.393Zm1.336-3.208-.922-.387-.543 1.295 1.401.09zm2.216.142-.064.998 1.406.09-.379-1.357zm-.909-3.257.963-.269-.773-2.77-1.112 2.652zm.374-4.005.9-1.47-1.705-1.044-.9 1.469zm-.017-.994 1.928.124.129-1.996-1.928-.124zm1.326-1.62-1.594 1.425 1.332 1.491 1.595-1.424zm-.864 1.173-1.234-.08-.128 1.996 1.234.08zm-2.162 1.2c-.026.41.076.854.384 1.213.311.363.742.534 1.166.561l.128-1.995a.36.36 0 0 1 .225.133c.096.112.094.213.093.216zm1.55 1.774c.425.028.863-.095 1.209-.399s.527-.728.555-1.163l-1.996-.128a.34.34 0 0 1 .12-.21.35.35 0 0 1 .24-.095zm.702-.628 1.209.078.128-1.996-1.209-.078zm.279-1.03c-.032.292-.148.47-.276.574-.131.107-.349.198-.683.176l-.128 1.996c.767.05 1.501-.154 2.074-.621.576-.47.918-1.146 1.001-1.906l-1.988-.218Zm-.959.75c-.306-.02-.487-.129-.591-.243-.105-.116-.198-.31-.192-.618l-2-.038c-.014.75.22 1.46.712 2.001.494.544 1.183.845 1.943.894zm-1.847.118 1.209.078.129-1.996-1.21-.078zm-1.966 9.87 3.604-8.186-1.83-.806-3.605 8.185zm2.625-7.591 2.156.138.128-1.996-2.156-.138zm1.26-.58 2.503 8.579 1.92-.56-2.503-8.579zm3.527 7.3-1.928-.123-.129 1.996 1.928.123.129-1.995Zm-1.03.603-.529-1.874-1.925.543.529 1.874zm-1.427-2.6-3.186-.205-.128 1.996 3.185.205zm-4.17.4-.764 1.791 1.839.785.765-1.79-1.84-.785Zm.22 1.186-1.856-.12-.129 1.996 1.857.12zm1.208-1.213 2.216.142.128-1.996-2.216-.142zm3.243-1.125-.909-3.257-1.926.538.909 3.257zm-2.794-3.375-1.307 3.115 1.845.774 1.306-3.115z" mask="url(#j)"/>
  <mask id="k" width="10.941" height="11.848" x="162.265" y="6.507" fill="#000" maskUnits="userSpaceOnUse">
    <path fill="#fff" d="M162.265 6.507h10.941v11.848h-10.941z"/>
    <path d="m164.186 16.631.75-8.366 1.625.146 3.078 5.588.472-5.27 1.769.158-.749 8.366-1.638-.146-3.078-5.59-.472 5.272z"/>
  </mask>
  <path fill="#fff" d="m164.186 16.631.75-8.366 1.625.146 3.078 5.588.472-5.27 1.769.158-.749 8.366-1.638-.146-3.078-5.59-.472 5.272z"/>
  <path fill="#EF4B23" d="m164.186 16.631-.996-.089-.089.996.996.09zm.75-8.366.089-.996-.996-.09-.089.997zm1.625.146.876-.483-.257-.466-.53-.048zm3.078 5.588-.876.483 1.58 2.869.292-3.262zm.472-5.27.089-.997-.996-.089-.089.996zm1.769.158.996.089.089-.996-.996-.09zm-.749 8.366-.09.996.996.09.09-.996zm-1.638-.146-.876.482.257.466.53.048zm-3.078-5.59.876-.481-1.58-2.87-.292 3.263.996.089Zm-.472 5.272-.089.996.996.089.089-.996-.996-.09Zm-.761-.068.75-8.367-1.992-.178-.75 8.366zm-.336-7.46 1.626.146.178-1.993-1.625-.145zm.839-.368 3.078 5.589 1.752-.965-3.078-5.589zm4.95 5.195.472-5.27-1.992-.179-.472 5.271zm-.613-4.364 1.769.159.178-1.992-1.769-.159zm.862-.926-.749 8.366 1.992.178.749-8.366zm.336 7.46-1.638-.147-.178 1.992 1.637.146zm-.851.366-3.078-5.588-1.752.964 3.078 5.59zm-4.95-5.195-.472 5.27 1.992.179.472-5.27-1.992-.18Zm.614 4.364-1.757-.157-.179 1.992 1.757.157z" mask="url(#k)"/>
</svg>
