<svg xmlns="http://www.w3.org/2000/svg" width="244" height="104" fill="none" viewBox="0 0 244 104">
  <g clip-path="url(#a)">
    <path fill="#D61313" d="M125.976 2.518C59.301 2.518 9.847 26.7 9.847 26.7L36.14 93.6c33.252-12.05 63.462-16.055 88.951-16.055 50.763 0 82.805 15.907 82.805 15.907l26.239-67.103C196.46 8.492 159.092 2.518 125.967 2.527l.009-.01Z"/>
    <g style="mix-blend-mode:multiply">
      <mask id="b" width="226" height="92" x="9" y="2" maskUnits="userSpaceOnUse" style="mask-type:luminance">
        <path fill="#fff" d="M125.976 2.518C59.301 2.518 9.847 26.7 9.847 26.7L36.14 93.6c33.252-12.05 63.462-16.055 88.951-16.055 50.763 0 82.805 15.907 82.805 15.907l26.239-67.103C196.46 8.492 159.092 2.518 125.967 2.527l.009-.01Z"/>
      </mask>
      <g mask="url(#b)">
        <path fill="#F56D27" d="M9.847 87.488c4.983 0 9.026 4.143 9.026 9.248-4.982 0-9.026-4.143-9.026-9.248Zm18.053 0c0 5.105-4.044 9.248-9.026 9.248 0-5.105 4.043-9.248 9.026-9.248Zm0 0c-4.983 0-9.026-4.143-9.026-9.248 4.982 0 9.026 4.143 9.026 9.248Zm-9.027-9.248c0 5.105-4.043 9.248-9.026 9.248 0-5.105 4.044-9.248 9.026-9.248Zm27.079 9.248c0 5.105-4.044 9.248-9.026 9.248 0-5.105 4.043-9.248 9.026-9.248Zm0 0c-4.983 0-9.026-4.143-9.026-9.248 4.982 0 9.026 4.143 9.026 9.248Zm-9.027-9.248c0 5.105-4.043 9.248-9.025 9.248 0-5.105 4.043-9.248 9.026-9.248Z"/>
        <path fill="#F56D27" d="M27.9 87.488c4.982 0 9.026 4.143 9.026 9.248-4.983 0-9.027-4.143-9.027-9.248Zm36.104 0c0 5.105-4.044 9.248-9.027 9.248 0-5.105 4.044-9.248 9.027-9.248Zm-9.027-9.248c0 5.105-4.043 9.248-9.025 9.248 0-5.105 4.043-9.248 9.026-9.248Z"/>
        <path fill="#F56D27" d="M45.952 87.488c4.982 0 9.026 4.143 9.026 9.248-4.983 0-9.026-4.143-9.026-9.248Zm18.052 0c-4.983 0-9.027-4.143-9.027-9.248 4.983 0 9.027 4.143 9.027 9.248Zm0 0c4.982 0 9.025 4.143 9.025 9.248-4.982 0-9.025-4.143-9.025-9.248Zm9.026-9.248c0 5.105-4.044 9.248-9.026 9.248 0-5.105 4.043-9.248 9.025-9.248Zm9.025 9.248c0 5.105-4.043 9.239-9.026 9.248 0-5.105 4.044-9.248 9.026-9.248Z"/>
        <path fill="#F56D27" d="M82.055 87.488c-4.982 0-9.026-4.143-9.026-9.248 4.983 0 9.026 4.143 9.026 9.248Zm9.027-9.248c0 5.105-4.044 9.248-9.026 9.248 0-5.105 4.043-9.248 9.026-9.248Zm-9.027 9.248c4.983 0 9.026 4.143 9.026 9.248-4.982 0-9.017-4.143-9.026-9.248Zm18.052 0c0 5.105-4.043 9.248-9.025 9.248 0-5.105 4.043-9.248 9.025-9.248Zm0 0c-4.982 0-9.025-4.143-9.025-9.248 4.982 0 9.025 4.143 9.025 9.248Zm18.052 0c-4.982 0-9.026-4.143-9.026-9.248 4.983 0 9.026 4.143 9.026 9.248Zm-9.026-9.248c0 5.105-4.043 9.248-9.026 9.248 0-5.105 4.044-9.248 9.026-9.248Zm-9.026 9.248c4.983 0 9.026 4.143 9.026 9.248-4.982 0-9.026-4.143-9.026-9.248Zm18.052 0c0 5.105-4.043 9.248-9.026 9.248 0-5.105 4.044-9.248 9.026-9.248Zm9.026-9.248c0 5.105-4.043 9.248-9.026 9.248 0-5.105 4.044-9.248 9.026-9.248Zm9.026 9.248c-4.982 0-9.026-4.143-9.026-9.248 4.983 0 9.026 4.143 9.026 9.248Zm0 0c0 5.105-4.043 9.239-9.026 9.248 0-5.105 4.044-9.248 9.026-9.248Zm-18.052 0c4.983 0 9.026 4.143 9.026 9.248-4.982 0-9.026-4.143-9.026-9.248Zm36.104 0c-4.982 0-9.026-4.143-9.026-9.248 4.983 0 9.026 4.143 9.026 9.248Zm0 0c0 5.105-4.043 9.248-9.026 9.248 0-5.105 4.044-9.248 9.026-9.248Z"/>
        <path fill="#F56D27" d="M145.237 78.24c0 5.105-4.043 9.248-9.026 9.248 0-5.105 4.044-9.248 9.026-9.248Zm-9.026 9.248c4.983 0 9.026 4.143 9.026 9.248-4.982 0-9.016-4.143-9.026-9.248Zm18.052 0c4.983 0 9.026 4.143 9.026 9.248-4.982 0-9.026-4.143-9.026-9.248Zm9.026-9.248c0 5.105-4.043 9.248-9.026 9.248 0-5.105 4.044-9.248 9.026-9.248Zm9.026 9.248c-4.982 0-9.026-4.143-9.026-9.248 4.983 0 9.026 4.143 9.026 9.248Zm0 0c0 5.105-4.043 9.248-9.026 9.248 0-5.105 4.044-9.248 9.026-9.248Zm18.053 0c-4.983 0-9.026-4.143-9.026-9.248 4.982 0 9.026 4.143 9.026 9.248Z"/>
        <path fill="#F56D27" d="M181.342 78.24c0 5.105-4.044 9.248-9.026 9.248 0-5.105 4.043-9.248 9.026-9.248Zm-9.026 9.248c4.982 0 9.026 4.143 9.026 9.248-4.983 0-9.026-4.143-9.026-9.248Z"/>
        <path fill="#F56D27" d="M190.368 87.488c0 5.105-4.044 9.248-9.026 9.248 0-5.105 4.043-9.248 9.026-9.248Zm9.026-9.248c0 5.105-4.044 9.248-9.026 9.248 0-5.105 4.043-9.248 9.026-9.248Zm9.026 9.248c0 5.105-4.044 9.248-9.026 9.248 0-5.105 4.043-9.248 9.026-9.248Z"/>
        <path fill="#F56D27" d="M208.42 87.488c-4.983 0-9.026-4.143-9.026-9.248 4.982 0 9.026 4.143 9.026 9.248Zm-18.052 0c4.982 0 9.026 4.143 9.026 9.248-4.983 0-9.026-4.143-9.026-9.248Zm36.104 0c0 5.105-4.044 9.248-9.026 9.248 0-5.105 4.043-9.248 9.026-9.248Zm-18.052 0c4.982 0 9.026 4.143 9.026 9.248-4.983 0-9.026-4.143-9.026-9.248Z"/>
        <path fill="#F56D27" d="M217.437 78.24c0 5.105-4.044 9.248-9.026 9.248 0-5.105 4.043-9.248 9.026-9.248Zm9.035 9.248c-4.983 0-9.026-4.143-9.026-9.248 4.982 0 9.026 4.143 9.026 9.248Zm0 0c4.982 0 9.026 4.143 9.026 9.248-4.983 0-9.026-4.143-9.026-9.248Z"/>
        <path fill="#F56D27" d="M235.489 78.24c0 5.105-4.044 9.248-9.026 9.248 0-5.105 4.043-9.248 9.026-9.248ZM27.9 68.992c-4.983 0-9.026-4.143-9.026-9.248 4.982 0 9.026 4.143 9.026 9.248Zm-9.027-9.248c0 5.105-4.043 9.248-9.026 9.248 0-5.105 4.044-9.248 9.026-9.248Zm9.027 9.248c0 5.105-4.044 9.248-9.026 9.248 0-5.105 4.043-9.248 9.026-9.248Zm-18.053 0c4.983 0 9.026 4.143 9.026 9.248-4.982 0-9.026-4.143-9.026-9.248Z"/>
        <path fill="#F56D27" d="M27.9 68.992c4.982 0 9.026 4.143 9.026 9.248-4.983 0-9.027-4.143-9.027-9.248Zm9.025-9.248c0 5.105-4.043 9.248-9.025 9.248 0-5.105 4.043-9.248 9.026-9.248Zm9.027 9.248c0 5.105-4.044 9.248-9.026 9.248 0-5.105 4.043-9.248 9.026-9.248Zm0 0c-4.983 0-9.026-4.143-9.026-9.248 4.982 0 9.026 4.143 9.026 9.248Zm0 0c4.982 0 9.026 4.143 9.026 9.248-4.983 0-9.026-4.143-9.026-9.248Z"/>
        <path fill="#F56D27" d="M64.004 68.992c0 5.105-4.044 9.248-9.027 9.248 0-5.105 4.044-9.248 9.027-9.248Zm0 0c-4.983 0-9.027-4.143-9.027-9.248 4.983 0 9.027 4.143 9.027 9.248Z"/>
        <path fill="#F56D27" d="M54.977 59.744c0 5.105-4.043 9.248-9.025 9.248 0-5.105 4.043-9.248 9.026-9.248Zm18.053 0c0 5.105-4.044 9.248-9.026 9.248 0-5.105 4.043-9.248 9.025-9.248Zm9.025 9.248c0 5.105-4.043 9.248-9.026 9.248 0-5.105 4.044-9.248 9.026-9.248Zm-18.051 0c4.982 0 9.025 4.143 9.025 9.248-4.982 0-9.025-4.143-9.025-9.248Z"/>
        <path fill="#F56D27" d="M82.055 68.992c-4.982 0-9.026-4.143-9.026-9.248 4.983 0 9.026 4.143 9.026 9.248Zm9.027-9.248c0 5.105-4.044 9.248-9.026 9.248 0-5.105 4.043-9.248 9.026-9.248Zm9.025 9.248c0 5.105-4.043 9.248-9.025 9.248 0-5.105 4.043-9.248 9.025-9.248Zm-18.052 0c4.983 0 9.026 4.143 9.026 9.248-4.982 0-9.026-4.143-9.026-9.248Zm18.052 0c-4.982 0-9.025-4.143-9.025-9.248 4.982 0 9.025 4.143 9.025 9.248Zm9.026-9.248c0 5.105-4.043 9.248-9.026 9.248 0-5.105 4.044-9.248 9.026-9.248Zm9.026 9.248c0 5.105-4.043 9.248-9.026 9.248 0-5.105 4.044-9.248 9.026-9.248Zm-18.052 0c4.983 0 9.026 4.143 9.026 9.248-4.982 0-9.026-4.143-9.026-9.248Zm18.052 0c-4.982 0-9.026-4.143-9.026-9.248 4.983 0 9.026 4.143 9.026 9.248Zm18.052 0c-4.982 0-9.026-4.143-9.026-9.248 4.983 0 9.026 4.143 9.026 9.248Zm0 0c0 5.105-4.043 9.248-9.026 9.248 0-5.105 4.044-9.248 9.026-9.248Zm-18.052 0c4.983 0 9.026 4.143 9.026 9.248-4.982 0-9.026-4.143-9.026-9.248Zm9.026-9.248c0 5.105-4.043 9.248-9.026 9.248 0-5.105 4.044-9.248 9.026-9.248Zm18.052 0c0 5.105-4.043 9.248-9.026 9.248 0-5.105 4.044-9.248 9.026-9.248Zm-9.026 9.248c4.983 0 9.026 4.143 9.026 9.248-4.982 0-9.026-4.143-9.026-9.248Zm18.052 0c-4.982 0-9.026-4.143-9.026-9.248 4.983 0 9.026 4.143 9.026 9.248Zm0 0c0 5.105-4.043 9.248-9.026 9.248 0-5.105 4.044-9.248 9.026-9.248Zm18.052 0c-4.982 0-9.026-4.143-9.026-9.248 4.983 0 9.026 4.143 9.026 9.248Zm-9.026-9.248c0 5.105-4.043 9.248-9.026 9.248 0-5.105 4.044-9.248 9.026-9.248Zm9.026 9.248c0 5.105-4.043 9.248-9.026 9.248 0-5.105 4.044-9.248 9.026-9.248Z"/>
        <path fill="#F56D27" d="M154.263 68.992c4.983 0 9.026 4.143 9.026 9.248-4.982 0-9.026-4.143-9.026-9.248Zm36.105 0c0 5.105-4.044 9.248-9.026 9.248 0-5.105 4.043-9.248 9.026-9.248Zm0 0c-4.983 0-9.026-4.143-9.026-9.248 4.982 0 9.026 4.143 9.026 9.248Z"/>
        <path fill="#F56D27" d="M172.316 68.992c4.982 0 9.026 4.143 9.026 9.248-4.983 0-9.026-4.143-9.026-9.248Zm9.026-9.248c0 5.105-4.044 9.248-9.026 9.248 0-5.105 4.043-9.248 9.026-9.248Zm18.043 0c0 5.105-4.044 9.248-9.026 9.248 0-5.105 4.043-9.248 9.026-9.248Zm-9.017 9.248c4.982 0 9.026 4.143 9.026 9.248-4.983 0-9.026-4.143-9.026-9.248Zm18.052 0c-4.983 0-9.026-4.143-9.026-9.248 4.982 0 9.026 4.143 9.026 9.248Z"/>
        <path fill="#F56D27" d="M208.42 68.992c0 5.105-4.044 9.248-9.026 9.248 0-5.105 4.043-9.248 9.026-9.248Zm9.017-9.248c0 5.105-4.044 9.248-9.026 9.248 0-5.105 4.043-9.248 9.026-9.248Zm9.035 9.248c-4.983 0-9.026-4.143-9.026-9.248 4.982 0 9.026 4.143 9.026 9.248Zm0 0c0 5.105-4.044 9.248-9.026 9.248 0-5.105 4.043-9.248 9.026-9.248Zm-18.052 0c4.982 0 9.026 4.143 9.026 9.248-4.983 0-9.026-4.143-9.026-9.248Zm18.052 0c4.982 0 9.026 4.143 9.026 9.248-4.983 0-9.026-4.143-9.026-9.248Z"/>
        <path fill="#F56D27" d="M235.489 59.744c0 5.105-4.044 9.248-9.026 9.248 0-5.105 4.043-9.248 9.026-9.248ZM27.9 50.496c-4.983 0-9.026-4.143-9.026-9.248 4.982 0 9.026 4.143 9.026 9.248Zm-9.027 9.248c-4.982 0-9.026-4.143-9.026-9.248 4.983 0 9.026 4.143 9.026 9.248Zm0-18.496c0 5.105-4.043 9.248-9.026 9.248 0-5.105 4.044-9.248 9.026-9.248Zm9.027 9.248c0 5.105-4.044 9.248-9.026 9.248 0-5.105 4.043-9.248 9.026-9.248Z"/>
        <path fill="#F56D27" d="M27.9 50.496c4.982 0 9.026 4.143 9.026 9.248-4.983 0-9.027-4.143-9.027-9.248Zm18.052 0c0 5.105-4.044 9.248-9.026 9.248 0-5.105 4.043-9.248 9.026-9.248Zm0 0c-4.983 0-9.026-4.143-9.026-9.248 4.982 0 9.026 4.143 9.026 9.248Zm-9.027-9.248c0 5.105-4.043 9.248-9.025 9.248 0-5.105 4.043-9.248 9.026-9.248Zm27.079 9.248c0 5.105-4.044 9.248-9.027 9.248 0-5.105 4.044-9.248 9.027-9.248Zm-9.027-9.248c0 5.105-4.043 9.248-9.025 9.248 0-5.105 4.043-9.248 9.026-9.248Z"/>
        <path fill="#F56D27" d="M64.004 50.496c-4.983 0-9.027-4.143-9.027-9.248 4.983 0 9.027 4.143 9.027 9.248Zm-18.052 0c4.982 0 9.026 4.143 9.026 9.248-4.983 0-9.026-4.143-9.026-9.248Zm36.103 0c-4.982 0-9.026-4.143-9.026-9.248 4.983 0 9.026 4.143 9.026 9.248Z"/>
        <path fill="#F56D27" d="M73.03 41.248c0 5.105-4.044 9.248-9.026 9.248 0-5.105 4.043-9.248 9.025-9.248Zm-9.026 9.248c4.982 0 9.025 4.143 9.025 9.248-4.982 0-9.025-4.143-9.025-9.248Zm18.051 0c0 5.105-4.043 9.248-9.026 9.248 0-5.105 4.044-9.248 9.026-9.248Zm18.052 0c-4.982 0-9.025-4.143-9.025-9.248 4.982 0 9.025 4.143 9.025 9.248Zm-9.025-9.248c0 5.105-4.044 9.248-9.026 9.248 0-5.105 4.043-9.248 9.026-9.248Zm9.025 9.248c0 5.105-4.043 9.248-9.025 9.248 0-5.105 4.043-9.248 9.025-9.248Zm-18.052 0c4.983 0 9.026 4.143 9.026 9.248-4.982 0-9.026-4.143-9.026-9.248Zm36.104 0c0 5.105-4.043 9.248-9.026 9.248 0-5.105 4.044-9.248 9.026-9.248Zm-18.052 0c4.983 0 9.026 4.143 9.026 9.248-4.982 0-9.026-4.143-9.026-9.248Zm18.052 0c-4.982 0-9.026-4.143-9.026-9.248 4.983 0 9.026 4.143 9.026 9.248Zm-9.026-9.248c0 5.105-4.043 9.248-9.026 9.248 0-5.105 4.044-9.248 9.026-9.248Zm18.052 0c0 5.105-4.043 9.248-9.026 9.248 0-5.105 4.044-9.248 9.026-9.248Zm9.026 9.248c-4.982 0-9.026-4.143-9.026-9.248 4.983 0 9.026 4.143 9.026 9.248Zm0 0c0 5.105-4.043 9.248-9.026 9.248 0-5.105 4.044-9.248 9.026-9.248Zm-18.052 0c4.983 0 9.026 4.143 9.026 9.248-4.982 0-9.026-4.143-9.026-9.248Zm36.104 0c0 5.105-4.043 9.248-9.026 9.248 0-5.105 4.044-9.248 9.026-9.248Z"/>
        <path fill="#F56D27" d="M136.211 50.496c4.983 0 9.026 4.143 9.026 9.248-4.982 0-9.026-4.143-9.026-9.248Zm9.026-9.248c0 5.105-4.043 9.248-9.026 9.248 0-5.105 4.044-9.248 9.026-9.248Zm9.026 9.248c-4.982 0-9.026-4.143-9.026-9.248 4.983 0 9.026 4.143 9.026 9.248Zm18.052 0c-4.982 0-9.026-4.143-9.026-9.248 4.983 0 9.026 4.143 9.026 9.248Z"/>
        <path fill="#F56D27" d="M163.281 41.248c0 5.105-4.044 9.248-9.026 9.248 0-5.105 4.043-9.248 9.026-9.248Zm-9.018 9.248c4.983 0 9.026 4.143 9.026 9.248-4.982 0-9.026-4.143-9.026-9.248Z"/>
        <path fill="#F56D27" d="M172.315 50.496c0 5.105-4.043 9.248-9.026 9.248 0-5.105 4.044-9.248 9.026-9.248Zm18.053 0c-4.983 0-9.026-4.143-9.026-9.248 4.982 0 9.026 4.143 9.026 9.248Zm-9.035-9.248c0 5.105-4.044 9.248-9.026 9.248 0-5.105 4.043-9.248 9.026-9.248Zm9.035 9.248c0 5.105-4.044 9.248-9.026 9.248 0-5.105 4.043-9.248 9.026-9.248Z"/>
        <path fill="#F56D27" d="M172.316 50.496c4.982 0 9.026 4.143 9.026 9.248-4.983 0-9.026-4.143-9.026-9.248Zm18.052 0c4.982 0 9.026 4.143 9.026 9.248-4.983 0-9.026-4.143-9.026-9.248Zm18.052 0c-4.983 0-9.026-4.143-9.026-9.248 4.982 0 9.026 4.143 9.026 9.248Zm-9.035-9.248c0 5.105-4.044 9.248-9.026 9.248 0-5.105 4.043-9.248 9.026-9.248Z"/>
        <path fill="#F56D27" d="M208.42 50.496c0 5.105-4.044 9.248-9.026 9.248 0-5.105 4.043-9.248 9.026-9.248Zm0 0c4.982 0 9.026 4.143 9.026 9.248-4.983 0-9.026-4.143-9.026-9.248Zm18.052 0c0 5.105-4.044 9.248-9.026 9.248 0-5.105 4.043-9.248 9.026-9.248Zm0 0c-4.983 0-9.026-4.143-9.026-9.248 4.982 0 9.026 4.143 9.026 9.248Zm-9.035-9.248c0 5.105-4.044 9.248-9.026 9.248 0-5.105 4.043-9.248 9.026-9.248Z"/>
        <path fill="#F56D27" d="M235.489 41.248c0 5.105-4.044 9.248-9.026 9.248 0-5.105 4.043-9.248 9.026-9.248Zm-9.017 9.248c4.982 0 9.026 4.143 9.026 9.248-4.983 0-9.026-4.143-9.026-9.248ZM18.883 41.248c0-5.105 4.043-9.248 9.026-9.248 0 5.105-4.044 9.248-9.026 9.248Zm-.01 0c-4.982 0-9.026-4.143-9.026-9.248 4.983 0 9.026 4.143 9.026 9.248Zm0-18.496c0 5.105-4.043 9.248-9.026 9.248 0-5.105 4.044-9.248 9.026-9.248ZM27.9 32c-4.983 0-9.026-4.143-9.026-9.248 4.982 0 9.026 4.143 9.026 9.248Zm18.052 0c-4.983 0-9.026-4.143-9.026-9.248 4.982 0 9.026 4.143 9.026 9.248Zm0 0c0 5.105-4.044 9.248-9.026 9.248 0-5.105 4.043-9.248 9.026-9.248Z"/>
        <path fill="#F56D27" d="M36.925 41.248c-4.982 0-9.025-4.143-9.025-9.248 4.982 0 9.026 4.143 9.026 9.248Zm0-18.496c0 5.105-4.043 9.248-9.025 9.248 0-5.105 4.043-9.248 9.026-9.248Zm18.052 0c0 5.105-4.043 9.248-9.025 9.248 0-5.105 4.043-9.248 9.026-9.248ZM45.952 32c4.982 0 9.026 4.143 9.026 9.248-4.983 0-9.026-4.143-9.026-9.248Z"/>
        <path fill="#F56D27" d="M64.004 32c0 5.105-4.044 9.248-9.027 9.248 0-5.105 4.044-9.248 9.027-9.248Zm0 0c-4.983 0-9.027-4.143-9.027-9.248 4.983 0 9.027 4.143 9.027 9.248Zm18.051 0c-4.982 0-9.026-4.143-9.026-9.248 4.983 0 9.026 4.143 9.026 9.248Zm-18.051 0c4.982 0 9.025 4.143 9.025 9.248-4.982 0-9.025-4.143-9.025-9.248Zm18.051 0c0 5.105-4.043 9.248-9.026 9.248 0-5.105 4.044-9.248 9.026-9.248Z"/>
        <path fill="#F56D27" d="M73.03 22.752c0 5.105-4.044 9.248-9.026 9.248 0-5.105 4.043-9.248 9.025-9.248ZM82.055 32c4.983 0 9.026 4.143 9.026 9.248-4.982 0-9.026-4.143-9.026-9.248Zm9.027-9.248c0 5.105-4.044 9.248-9.026 9.248 0-5.105 4.043-9.248 9.026-9.248ZM100.107 32c-4.982 0-9.025-4.143-9.025-9.248 4.982 0 9.025 4.143 9.025 9.248Zm0 0c0 5.105-4.043 9.248-9.025 9.248 0-5.105 4.043-9.248 9.025-9.248Zm18.052 0c0 5.105-4.043 9.248-9.026 9.248 0-5.105 4.044-9.248 9.026-9.248Zm-18.052 0c4.983 0 9.026 4.143 9.026 9.248-4.982 0-9.026-4.143-9.026-9.248Zm18.052 0c-4.982 0-9.026-4.143-9.026-9.248 4.983 0 9.026 4.143 9.026 9.248Zm-9.026-9.248c0 5.105-4.043 9.248-9.026 9.248 0-5.105 4.044-9.248 9.026-9.248ZM136.211 32c0 5.105-4.043 9.248-9.026 9.248 0-5.105 4.044-9.248 9.026-9.248Zm-18.052 0c4.983 0 9.026 4.143 9.026 9.248-4.982 0-9.026-4.143-9.026-9.248Zm18.052 0c-4.982 0-9.026-4.143-9.026-9.248 4.983 0 9.026 4.143 9.026 9.248Zm-9.026-9.248c0 5.105-4.043 9.248-9.026 9.248 0-5.105 4.044-9.248 9.026-9.248Z"/>
        <path fill="#F56D27" d="M145.237 22.752c0 5.105-4.043 9.248-9.026 9.248 0-5.105 4.044-9.248 9.026-9.248ZM154.263 32c0 5.105-4.043 9.248-9.026 9.248 0-5.105 4.044-9.248 9.026-9.248Zm0 0c-4.982 0-9.026-4.143-9.026-9.248 4.983 0 9.026 4.143 9.026 9.248Z"/>
        <path fill="#F56D27" d="M136.211 32c4.983 0 9.026 4.143 9.026 9.248-4.982 0-9.026-4.143-9.026-9.248Zm27.078-9.248c0 5.105-4.043 9.248-9.026 9.248 0-5.105 4.044-9.248 9.026-9.248ZM172.315 32c0 5.105-4.043 9.248-9.026 9.248 0-5.105 4.044-9.248 9.026-9.248Zm0 0c-4.982 0-9.026-4.143-9.026-9.248 4.983 0 9.026 4.143 9.026 9.248Z"/>
        <path fill="#F56D27" d="M154.263 32c4.983 0 9.026 4.143 9.026 9.248-4.982 0-9.026-4.143-9.026-9.248Zm36.105 0c0 5.105-4.044 9.248-9.026 9.248 0-5.105 4.043-9.248 9.026-9.248Z"/>
        <path fill="#F56D27" d="M172.316 32c4.982 0 9.026 4.143 9.026 9.248-4.983 0-9.026-4.143-9.026-9.248Zm18.052 0c-4.983 0-9.026-4.143-9.026-9.248 4.982 0 9.026 4.143 9.026 9.248Z"/>
        <path fill="#F56D27" d="M181.342 22.752c0 5.105-4.044 9.248-9.026 9.248 0-5.105 4.043-9.248 9.026-9.248ZM208.42 32c-4.983 0-9.026-4.143-9.026-9.248 4.982 0 9.026 4.143 9.026 9.248Zm0 0c0 5.105-4.044 9.248-9.026 9.248 0-5.105 4.043-9.248 9.026-9.248Zm-9.035-9.248c0 5.105-4.044 9.248-9.026 9.248 0-5.105 4.043-9.248 9.026-9.248Z"/>
        <path fill="#F56D27" d="M190.368 32c4.982 0 9.026 4.143 9.026 9.248-4.983 0-9.026-4.143-9.026-9.248Zm36.095 0c0 5.105-4.044 9.248-9.026 9.248 0-5.105 4.043-9.248 9.026-9.248Zm-9.026-9.248c0 5.105-4.044 9.248-9.026 9.248 0-5.105 4.043-9.248 9.026-9.248ZM226.472 32c-4.983 0-9.026-4.143-9.026-9.248 4.982 0 9.026 4.143 9.026 9.248Z"/>
        <path fill="#F56D27" d="M208.42 32c4.982 0 9.026 4.143 9.026 9.248-4.983 0-9.026-4.143-9.026-9.248Zm27.069-9.248c0 5.105-4.044 9.248-9.026 9.248 0-5.105 4.043-9.248 9.026-9.248ZM226.472 32c4.982 0 9.026 4.143 9.026 9.248-4.983 0-9.026-4.143-9.026-9.248ZM27.9 13.504c-4.983 0-9.026-4.143-9.026-9.248 4.982 0 9.026 4.143 9.026 9.248Zm-9.027 9.248c-4.982 0-9.026-4.143-9.026-9.248 4.983 0 9.026 4.143 9.026 9.248Zm0 0c0-5.105 4.044-9.248 9.026-9.248 0 5.105-4.043 9.248-9.026 9.248Zm0-18.496c0 5.105-4.043 9.248-9.026 9.248 0-5.105 4.044-9.248 9.026-9.248Zm18.052 18.496c0-5.105 4.044-9.248 9.027-9.248 0 5.105-4.044 9.248-9.026 9.248Zm9.027-9.248c-4.983 0-9.026-4.143-9.026-9.248 4.982 0 9.026 4.143 9.026 9.248Z"/>
        <path fill="#F56D27" d="M36.925 22.752c-4.982 0-9.025-4.143-9.025-9.248 4.982 0 9.026 4.143 9.026 9.248Zm0-18.496c0 5.105-4.043 9.248-9.025 9.248 0-5.105 4.043-9.248 9.026-9.248Zm18.052 18.496c-4.982 0-9.025-4.143-9.025-9.248 4.982 0 9.026 4.143 9.026 9.248Zm9.027-9.248c-4.983 0-9.027-4.143-9.027-9.248 4.983 0 9.027 4.143 9.027 9.248Z"/>
        <path fill="#F56D27" d="M64.004 13.504c0 5.105-4.044 9.248-9.027 9.248 0-5.105 4.044-9.248 9.027-9.248Zm-9.027-9.248c0 5.105-4.043 9.248-9.025 9.248 0-5.105 4.043-9.248 9.026-9.248Zm9.027 9.248c4.982 0 9.025 4.143 9.025 9.248-4.982 0-9.025-4.143-9.025-9.248Zm18.051 0c-4.982 0-9.026-4.143-9.026-9.248 4.983 0 9.026 4.143 9.026 9.248Z"/>
        <path fill="#F56D27" d="M73.03 4.256c0 5.105-4.044 9.248-9.026 9.248 0-5.105 4.043-9.248 9.025-9.248Zm9.025 9.248c0 5.105-4.043 9.248-9.026 9.248 0-5.105 4.044-9.248 9.026-9.248Zm0 0c4.983 0 9.026 4.143 9.026 9.248-4.982 0-9.026-4.143-9.026-9.248Zm18.052 0c-4.982 0-9.025-4.143-9.025-9.248 4.982 0 9.025 4.143 9.025 9.248Zm0 0c0 5.105-4.043 9.248-9.025 9.248 0-5.105 4.043-9.248 9.025-9.248Zm-9.025-9.248c0 5.105-4.044 9.248-9.026 9.248 0-5.105 4.043-9.248 9.026-9.248Zm9.025 9.248c4.983 0 9.026 4.143 9.026 9.248-4.982 0-9.026-4.143-9.026-9.248Zm18.052 0c0 5.105-4.043 9.248-9.026 9.248 0-5.105 4.044-9.248 9.026-9.248Zm-9.026-9.248c0 5.105-4.043 9.248-9.026 9.248 0-5.105 4.044-9.248 9.026-9.248Zm9.026 9.248c-4.982 0-9.026-4.143-9.026-9.248 4.983 0 9.026 4.143 9.026 9.248Zm0 0c4.983 0 9.026 4.143 9.026 9.248-4.982 0-9.026-4.143-9.026-9.248Zm18.052 0c0 5.105-4.043 9.248-9.026 9.248 0-5.105 4.044-9.248 9.026-9.248Zm-9.026-9.248c0 5.105-4.043 9.248-9.026 9.248 0-5.105 4.044-9.248 9.026-9.248Zm9.026 9.248c-4.982 0-9.026-4.143-9.026-9.248 4.983 0 9.026 4.143 9.026 9.248Zm0 0c4.983 0 9.026 4.143 9.026 9.248-4.982 0-9.026-4.143-9.026-9.248Zm18.052 0c0 5.105-4.043 9.248-9.026 9.248 0-5.105 4.044-9.248 9.026-9.248Zm-9.026-9.248c0 5.105-4.043 9.248-9.026 9.248 0-5.105 4.044-9.248 9.026-9.248Zm9.026 9.248c-4.982 0-9.026-4.143-9.026-9.248 4.983 0 9.026 4.143 9.026 9.248Zm18.052 0c0 5.105-4.043 9.248-9.026 9.248 0-5.105 4.044-9.248 9.026-9.248Zm0 0c-4.982 0-9.026-4.143-9.026-9.248 4.983 0 9.026 4.143 9.026 9.248Z"/>
        <path fill="#F56D27" d="M163.289 4.256c0 5.105-4.043 9.248-9.026 9.248 0-5.105 4.044-9.248 9.026-9.248Zm-9.026 9.248c4.983 0 9.026 4.143 9.026 9.248-4.982 0-9.026-4.143-9.026-9.248Zm27.07-9.248c0 5.105-4.044 9.248-9.026 9.248 0-5.105 4.043-9.248 9.026-9.248Zm9.035 9.248c0 5.105-4.044 9.248-9.026 9.248 0-5.105 4.043-9.248 9.026-9.248Zm0 0c-4.983 0-9.026-4.143-9.026-9.248 4.982 0 9.026 4.143 9.026 9.248Z"/>
        <path fill="#F56D27" d="M172.316 13.504c4.982 0 9.026 4.143 9.026 9.248-4.983 0-9.026-4.143-9.026-9.248Zm36.104 0c-4.983 0-9.026-4.143-9.026-9.248 4.982 0 9.026 4.143 9.026 9.248Zm0 0c0 5.105-4.044 9.248-9.026 9.248 0-5.105 4.043-9.248 9.026-9.248Zm-9.035-9.248c0 5.105-4.044 9.248-9.026 9.248 0-5.105 4.043-9.248 9.026-9.248Z"/>
        <path fill="#F56D27" d="M190.368 13.504c4.982 0 9.026 4.143 9.026 9.248-4.983 0-9.026-4.143-9.026-9.248Zm18.052 0c4.982 0 9.026 4.143 9.026 9.248-4.983 0-9.026-4.143-9.026-9.248Zm9.017-9.248c0 5.105-4.044 9.248-9.026 9.248 0-5.105 4.043-9.248 9.026-9.248Zm.009 18.496c0-5.105 4.043-9.248 9.026-9.248 0 5.105-4.044 9.248-9.026 9.248Zm0-18.496c4.982 0 9.026 4.143 9.026 9.248-4.983 0-9.026-4.143-9.026-9.248Zm9.026 9.248c4.982 0 9.026 4.143 9.026 9.248-4.983 0-9.026-4.143-9.026-9.248Z"/>
        <path fill="#F56D27" d="M235.489 4.256c0 5.105-4.044 9.248-9.026 9.248 0-5.105 4.043-9.248 9.026-9.248Zm-216.606 0c0-5.104 4.043-9.248 9.026-9.248 0 5.105-4.044 9.248-9.026 9.248Zm-.01 0c-4.982 0-9.026-4.143-9.026-9.248 4.983 0 9.026 4.144 9.026 9.248Z"/>
        <path fill="#F56D27" d="M36.925 4.256c-4.982 0-9.025-4.143-9.025-9.248 4.982 0 9.026 4.144 9.026 9.248Z"/>
        <path fill="#F56D27" d="M36.925 4.256c0-5.104 4.044-9.248 9.027-9.248 0 5.105-4.044 9.248-9.026 9.248Zm18.052 0c0-5.104 4.044-9.248 9.027-9.248 0 5.105-4.044 9.248-9.027 9.248Z"/>
        <path fill="#F56D27" d="M54.977 4.256c-4.982 0-9.025-4.143-9.025-9.248 4.982 0 9.026 4.144 9.026 9.248Zm18.053 0c-4.983 0-9.026-4.143-9.026-9.248 4.982 0 9.025 4.144 9.025 9.248Z"/>
        <path fill="#F56D27" d="M82.055-4.992c0 5.105-4.043 9.248-9.026 9.248 0-5.104 4.044-9.248 9.026-9.248Zm18.052 0c0 5.105-4.043 9.248-9.025 9.248 0-5.104 4.043-9.248 9.025-9.248Zm-18.052.01c4.983 0 9.026 4.143 9.026 9.248-4.982 0-9.026-4.144-9.026-9.248Zm36.104-.01c0 5.105-4.043 9.248-9.026 9.248 0-5.104 4.044-9.248 9.026-9.248Zm-18.052 0c4.983 0 9.026 4.144 9.026 9.248-4.982 0-9.026-4.143-9.026-9.248Zm18.052 0c4.983 0 9.026 4.144 9.026 9.248-4.982 0-9.026-4.143-9.026-9.248Zm18.052 0c0 5.105-4.043 9.248-9.026 9.248 0-5.104 4.044-9.248 9.026-9.248Zm0 .01c4.983 0 9.026 4.143 9.026 9.248-4.982 0-9.026-4.144-9.026-9.248Zm18.052-.01c0 5.105-4.043 9.248-9.026 9.248 0-5.104 4.044-9.248 9.026-9.248Zm18.052 0c0 5.105-4.043 9.248-9.026 9.248 0-5.104 4.044-9.248 9.026-9.248Z"/>
        <path fill="#F56D27" d="M154.263-4.992c4.983 0 9.026 4.144 9.026 9.248-4.982 0-9.026-4.143-9.026-9.248Zm36.105 0c0 5.105-4.044 9.248-9.026 9.248 0-5.104 4.043-9.248 9.026-9.248Z"/>
        <path fill="#F56D27" d="M172.316-4.992c4.982 0 9.026 4.144 9.026 9.248-4.983 0-9.026-4.143-9.026-9.248Zm27.078 9.248c0-5.104 4.043-9.248 9.026-9.248 0 5.105-4.044 9.248-9.026 9.248Zm-9.026-9.248c4.982 0 9.026 4.144 9.026 9.248-4.983 0-9.026-4.143-9.026-9.248Z"/>
        <path fill="#F56D27" d="M208.42-4.992c4.982 0 9.026 4.144 9.026 9.248-4.983 0-9.026-4.143-9.026-9.248Zm9.026 9.248c0-5.104 4.043-9.248 9.026-9.248 0 5.105-4.044 9.248-9.026 9.248Zm9.026-9.248c4.982 0 9.026 4.144 9.026 9.248-4.983 0-9.026-4.143-9.026-9.248Z"/>
      </g>
    </g>
    <path stroke="#000" stroke-linecap="round" stroke-linejoin="round" stroke-width=".925" d="M125.814 11.34c32.818 0 64.012 6.603 92.859 19.624L199.61 81.921c-12.555-4.939-38.911-13.207-74.645-13.207-26.753 0-53.75 4.662-80.358 13.854L25.39 31.454c15.227-6.39 53.398-20.114 100.424-20.114Z"/>
    <path fill="#EF4B23" d="M125.814 11.34c32.818 0 64.012 6.603 92.859 19.624L199.61 81.921c-12.555-4.939-38.911-13.207-74.645-13.207-26.753 0-53.75 4.662-80.358 13.854L25.39 31.454c15.227-6.39 53.398-20.114 100.424-20.114Z"/>
    <path fill="#C71E11" d="m1.426 23.085-.478-1.489s2.256-3.625 8.024-2.543l.875 1.59-8.42 2.442Z"/>
    <path fill="#EF4B23" d="m10.687 19.904 28.928 74.464-15.876 4.523L.009 23.51s2.383-3.81 10.678-3.607Z"/>
    <mask id="c" width="40" height="80" x="0" y="19" maskUnits="userSpaceOnUse" style="mask-type:luminance">
      <path fill="#fff" d="m10.687 19.904 28.928 74.464-15.876 4.523L.009 23.51s2.383-3.81 10.678-3.607Z"/>
    </mask>
    <g mask="url(#c)">
      <path fill="#F56D27" d="M30.995 22.179c3.818 0 6.914-3.172 6.914-7.084-3.818 0-6.905 3.172-6.905 7.074l-.009.01Zm6.915-7.084c0 3.912 3.095 7.084 6.913 7.084 0-3.912-3.096-7.075-6.905-7.075l-.009-.01Zm0 14.158c3.817 0 6.904-3.172 6.904-7.074-3.818 0-6.914 3.172-6.914 7.084l.01-.01Z"/>
      <path fill="#F56D27" d="M37.91 29.253c0-3.911-3.097-7.083-6.915-7.083 0 3.911 3.096 7.074 6.905 7.074l.01.01Zm0 14.159c0-3.912-3.097-7.084-6.915-7.084 0 3.912 3.096 7.075 6.905 7.075l.01.01Z"/>
      <path fill="#F56D27" d="M30.995 36.337c3.818 0 6.914-3.172 6.914-7.084-3.818 0-6.905 3.173-6.905 7.075l-.009.01Z"/>
      <path fill="#F56D27" d="M37.91 29.253c0 3.912 3.095 7.084 6.913 7.084 0-3.911-3.096-7.074-6.905-7.074l-.009-.01Z"/>
      <path fill="#F56D27" d="M37.91 43.412c3.817 0 6.904-3.172 6.904-7.075-3.818 0-6.914 3.172-6.914 7.084l.01-.009Z"/>
      <path fill="#F56D27" d="M30.995 50.496c3.818 0 6.914-3.172 6.914-7.084-3.818 0-6.905 3.172-6.905 7.075l-.009.009Z"/>
      <path fill="#F56D27" d="M37.91 57.57c0-3.911-3.097-7.083-6.915-7.083 0 3.912 3.096 7.075 6.905 7.075l.01.009Z"/>
      <path fill="#F56D27" d="M37.91 57.57c3.817 0 6.904-3.171 6.904-7.074-3.818 0-6.914 3.172-6.914 7.084l.01-.01Zm0-14.158c0 3.912 3.095 7.084 6.913 7.084 0-3.912-3.096-7.075-6.905-7.075l-.009-.009Zm0 28.318c0-3.913-3.097-7.085-6.915-7.085 0 3.912 3.096 7.075 6.905 7.075l.01.01Z"/>
      <path fill="#F56D27" d="M37.91 71.73c3.817 0 6.904-3.173 6.904-7.075-3.818 0-6.914 3.172-6.914 7.084l.01-.01Zm-6.915-7.075c3.818 0 6.914-3.172 6.914-7.084-3.818 0-6.905 3.172-6.905 7.075l-.009.009Zm6.915-7.085c0 3.913 3.095 7.085 6.913 7.085 0-3.912-3.096-7.075-6.905-7.075l-.009-.01Z"/>
      <path fill="#F56D27" d="M37.91 71.73c0 3.911 3.095 7.083 6.913 7.083 0-3.912-3.096-7.074-6.905-7.074l-.009-.01Z"/>
      <path fill="#F56D27" d="M30.995 78.813c3.818 0 6.914-3.172 6.914-7.084-3.818 0-6.905 3.172-6.905 7.075l-.009.01Z"/>
      <path fill="#F56D27" d="M37.91 85.897c0-3.912-3.097-7.084-6.915-7.084 0 3.912 3.096 7.075 6.905 7.075l.01.01Z"/>
      <path fill="#F56D27" d="M37.91 85.897c3.817 0 6.904-3.172 6.904-7.075-3.818 0-6.914 3.173-6.914 7.084l.01-.009Zm0 14.159c0-3.912-3.097-7.084-6.915-7.084 0 3.912 3.096 7.075 6.905 7.075l.01.009Z"/>
      <path fill="#F56D27" d="M30.995 92.972c3.818 0 6.914-3.172 6.914-7.084-3.818 0-6.905 3.172-6.905 7.075l-.009.009Z"/>
      <path fill="#F56D27" d="M37.91 85.897c0 3.912 3.095 7.084 6.913 7.084 0-3.912-3.096-7.075-6.905-7.075l-.009-.009Z"/>
      <path fill="#F56D27" d="M37.91 100.056c3.817 0 6.904-3.172 6.904-7.075-3.818 0-6.914 3.172-6.914 7.084l.01-.009ZM17.177 22.179c3.818 0 6.913-3.172 6.913-7.084-3.817 0-6.904 3.172-6.904 7.074l-.01.01Zm6.913 7.074c3.818 0 6.905-3.172 6.905-7.074-3.818 0-6.914 3.172-6.914 7.084l.01-.01Z"/>
      <path fill="#F56D27" d="M24.09 15.095c0 3.912 3.096 7.084 6.914 7.084 0-3.912-3.096-7.075-6.905-7.075l-.009-.01Zm0 14.158c0-3.911-3.095-7.083-6.913-7.083 0 3.911 3.096 7.074 6.904 7.074l.01.01Z"/>
      <path fill="#F56D27" d="M17.177 36.337c3.818 0 6.913-3.172 6.913-7.084-3.817 0-6.904 3.173-6.904 7.075l-.01.01Zm6.913 7.075c3.818 0 6.905-3.172 6.905-7.075-3.818 0-6.914 3.172-6.914 7.084l.01-.009Z"/>
      <path fill="#F56D27" d="M24.09 29.253c0 3.912 3.096 7.084 6.914 7.084 0-3.911-3.096-7.074-6.905-7.074l-.009-.01Zm0 14.159c0-3.912-3.095-7.084-6.913-7.084 0 3.912 3.096 7.075 6.904 7.075l.01.01Zm0 14.158c0-3.911-3.095-7.083-6.913-7.083 0 3.912 3.096 7.075 6.904 7.075l.01.009Z"/>
      <path fill="#F56D27" d="M24.09 57.57c3.818 0 6.905-3.171 6.905-7.074-3.818 0-6.914 3.172-6.914 7.084l.01-.01Zm0-14.158c0 3.912 3.096 7.084 6.914 7.084 0-3.912-3.096-7.075-6.905-7.075l-.009-.009Z"/>
      <path fill="#F56D27" d="M17.177 50.496c3.818 0 6.913-3.172 6.913-7.084-3.817 0-6.904 3.172-6.904 7.075l-.01.009Zm0 14.159c3.818 0 6.913-3.172 6.913-7.084-3.817 0-6.904 3.172-6.904 7.075l-.01.009Z"/>
      <path fill="#F56D27" d="M24.09 57.57c0 3.913 3.096 7.085 6.914 7.085 0-3.912-3.096-7.075-6.905-7.075l-.009-.01Zm0 14.16c0-3.913-3.095-7.085-6.913-7.085 0 3.912 3.096 7.075 6.904 7.075l.01.01Z"/>
      <path fill="#F56D27" d="M24.09 71.73c3.818 0 6.905-3.173 6.905-7.075-3.818 0-6.914 3.172-6.914 7.084l.01-.01Zm0 14.167c0-3.912-3.095-7.084-6.913-7.084 0 3.912 3.096 7.075 6.904 7.075l.01.01Z"/>
      <path fill="#F56D27" d="M17.177 78.813c3.818 0 6.913-3.172 6.913-7.084-3.817 0-6.904 3.172-6.904 7.075l-.01.01Zm6.913 7.084c3.818 0 6.905-3.172 6.905-7.075-3.818 0-6.914 3.173-6.914 7.084l.01-.009Z"/>
      <path fill="#F56D27" d="M24.09 71.73c0 3.911 3.096 7.083 6.914 7.083 0-3.912-3.096-7.074-6.905-7.074l-.009-.01Zm0 28.326c3.818 0 6.905-3.172 6.905-7.075-3.818 0-6.914 3.172-6.914 7.084l.01-.009Z"/>
      <path fill="#F56D27" d="M24.09 100.056c0-3.912-3.095-7.084-6.913-7.084 0 3.912 3.096 7.075 6.904 7.075l.01.009Zm0-14.159c0 3.912 3.096 7.084 6.914 7.084 0-3.912-3.096-7.075-6.905-7.075l-.009-.009Z"/>
      <path fill="#F56D27" d="M17.177 92.972c3.818 0 6.913-3.172 6.913-7.084-3.817 0-6.904 3.172-6.904 7.075l-.01.009Zm-6.905-63.719c0-3.911-3.096-7.083-6.914-7.083 0 3.911 3.096 7.074 6.905 7.074l.009.01Z"/>
      <path fill="#F56D27" d="M3.358 22.179c3.818 0 6.914-3.172 6.914-7.084-3.818 0-6.905 3.172-6.905 7.074l-.01.01Zm6.914 7.074c3.818 0 6.905-3.172 6.905-7.074-3.818 0-6.914 3.172-6.914 7.084l.009-.01Z"/>
      <path fill="#F56D27" d="M10.272 15.095c0 3.912 3.096 7.084 6.914 7.084 0-3.912-3.096-7.075-6.905-7.075l-.01-.01Zm0 28.317c3.818 0 6.905-3.172 6.905-7.075-3.818 0-6.914 3.172-6.914 7.084l.009-.009Z"/>
      <path fill="#F56D27" d="M10.272 29.253c0 3.912 3.096 7.084 6.914 7.084 0-3.911-3.096-7.074-6.905-7.074l-.01-.01Zm0 14.159c0-3.912-3.096-7.084-6.914-7.084 0 3.912 3.096 7.075 6.905 7.075l.009.01Z"/>
      <path fill="#F56D27" d="M3.358 36.337c3.818 0 6.914-3.172 6.914-7.084-3.818 0-6.905 3.173-6.905 7.075l-.01.01Zm0 14.159c3.818 0 6.914-3.172 6.914-7.084-3.818 0-6.905 3.172-6.905 7.075l-.01.009Z"/>
      <path fill="#F56D27" d="M10.263 57.57c0-3.911-3.096-7.083-6.914-7.083 0 3.912 3.096 7.075 6.905 7.075l.009.009Z"/>
      <path fill="#F56D27" d="M10.272 57.57c3.818 0 6.905-3.171 6.905-7.074-3.818 0-6.914 3.172-6.914 7.084l.009-.01Zm0-14.158c0 3.912 3.096 7.084 6.914 7.084 0-3.912-3.096-7.075-6.905-7.075l-.01-.009Zm0 28.318c3.818 0 6.905-3.173 6.905-7.075-3.818 0-6.914 3.172-6.914 7.084l.009-.01Z"/>
      <path fill="#F56D27" d="M10.272 57.57c0 3.913 3.096 7.085 6.914 7.085 0-3.912-3.096-7.075-6.905-7.075l-.01-.01Z"/>
      <path fill="#F56D27" d="M3.358 64.655c3.818 0 6.914-3.172 6.914-7.084-3.818 0-6.905 3.172-6.905 7.075l-.01.009Z"/>
      <path fill="#F56D27" d="M10.272 71.73c0-3.913-3.096-7.085-6.914-7.085 0 3.912 3.096 7.075 6.905 7.075l.009.01Zm0 14.167c0-3.912-3.096-7.084-6.914-7.084 0 3.912 3.096 7.075 6.905 7.075l.009.01Z"/>
      <path fill="#F56D27" d="M3.358 78.813c3.818 0 6.914-3.172 6.914-7.084-3.818 0-6.905 3.172-6.905 7.075l-.01.01Z"/>
      <path fill="#F56D27" d="M10.272 71.73c0 3.911 3.096 7.083 6.914 7.083 0-3.912-3.096-7.074-6.905-7.074l-.01-.01Zm0 14.167c3.818 0 6.905-3.172 6.905-7.075-3.818 0-6.914 3.173-6.914 7.084l.009-.009Zm0 14.159c0-3.912-3.096-7.084-6.914-7.084 0 3.912 3.096 7.075 6.905 7.075l.009.009Z"/>
      <path fill="#F56D27" d="M3.358 92.972c3.818 0 6.914-3.172 6.914-7.084-3.818 0-6.905 3.172-6.905 7.075l-.01.009Zm6.914 7.084c3.818 0 6.905-3.172 6.905-7.075-3.818 0-6.914 3.172-6.914 7.084l.009-.009Z"/>
      <path fill="#F56D27" d="M10.272 85.897c0 3.912 3.096 7.084 6.914 7.084 0-3.912-3.096-7.075-6.905-7.075l-.01-.009ZM-3.547 15.095c0 3.912 3.096 7.084 6.914 7.084 0-3.912-3.096-7.075-6.905-7.075l-.01-.01Zm0 14.158c3.818 0 6.905-3.172 6.905-7.074-3.818 0-6.914 3.172-6.914 7.084l.009-.01Zm0 14.159c3.818 0 6.905-3.172 6.905-7.075-3.818 0-6.914 3.172-6.914 7.084l.009-.009Z"/>
      <path fill="#F56D27" d="M-3.547 29.253c0 3.912 3.096 7.084 6.914 7.084 0-3.911-3.096-7.074-6.905-7.074l-.01-.01Zm0 28.317c3.818 0 6.905-3.171 6.905-7.074-3.818 0-6.914 3.172-6.914 7.084l.009-.01Zm0-14.158c0 3.912 3.096 7.084 6.914 7.084 0-3.912-3.096-7.075-6.905-7.075l-.01-.009Zm0 28.318c3.818 0 6.905-3.173 6.905-7.075-3.818 0-6.914 3.172-6.914 7.084l.009-.01Z"/>
      <path fill="#F56D27" d="M-3.547 57.57c0 3.913 3.096 7.085 6.914 7.085 0-3.912-3.096-7.075-6.905-7.075l-.01-.01Zm0 28.327c3.818 0 6.905-3.172 6.905-7.075-3.818 0-6.914 3.173-6.914 7.084l.009-.009Zm0-14.167c0 3.911 3.096 7.083 6.914 7.083 0-3.912-3.096-7.074-6.905-7.074l-.01-.01Zm0 28.326c3.818 0 6.905-3.172 6.905-7.075-3.818 0-6.914 3.172-6.914 7.084l.009-.009Z"/>
      <path fill="#F56D27" d="M-3.547 85.897c0 3.912 3.096 7.084 6.914 7.084 0-3.912-3.096-7.075-6.905-7.075l-.01-.009Z"/>
    </g>
    <path fill="#C71E11" d="M32.724 100.51c4.387-1.241 7.475-3.988 6.896-6.134-.579-2.147-4.604-2.88-8.991-1.639-4.387 1.242-7.474 3.988-6.896 6.135.579 2.146 4.604 2.88 8.991 1.638Z"/>
    <path fill="#FFF400" d="M30.923 94.942s-6.038 1.997-4.702 5.188c1.146 1.766 4.91 2.534 7.4 1.563 2.492-.971 4.631-2.932 4.514-5.567-.117-1.628-3.078-2.738-7.212-1.184Z"/>
    <path fill="#C71E11" d="m242.565 23.085.478-1.489s-2.256-3.625-8.024-2.543l-.875 1.59 8.421 2.442Z"/>
    <path fill="#EF4B23" d="m233.304 19.904-28.928 74.464 15.877 4.523 23.729-75.38s-2.383-3.81-10.678-3.607Z"/>
    <mask id="d" width="40" height="80" x="204" y="19" maskUnits="userSpaceOnUse" style="mask-type:luminance">
      <path fill="#fff" d="m233.304 19.904-28.928 74.464 15.877 4.523 23.729-75.38s-2.383-3.81-10.678-3.607Z"/>
    </mask>
    <g mask="url(#d)">
      <path fill="#F56D27" d="M212.996 22.179c-3.818 0-6.914-3.172-6.914-7.084 3.818 0 6.905 3.172 6.905 7.074l.009.01Zm-6.914-7.084c0 3.912-3.096 7.084-6.914 7.084 0-3.912 3.096-7.075 6.905-7.075l.009-.01Zm.009 14.158c-3.818 0-6.905-3.172-6.905-7.074 3.818 0 6.914 3.172 6.914 7.084l-.009-.01Z"/>
      <path fill="#F56D27" d="M206.091 29.253c0-3.911 3.096-7.083 6.914-7.083 0 3.911-3.096 7.074-6.905 7.074l-.009.01Zm0 14.159c0-3.912 3.096-7.084 6.914-7.084 0 3.912-3.096 7.075-6.905 7.075l-.009.01Z"/>
      <path fill="#F56D27" d="M212.996 36.337c-3.818 0-6.914-3.172-6.914-7.084 3.818 0 6.905 3.173 6.905 7.075l.009.01Zm-6.914-7.084c0 3.912-3.096 7.084-6.914 7.084 0-3.911 3.096-7.074 6.905-7.074l.009-.01Z"/>
      <path fill="#F56D27" d="M206.091 43.412c-3.818 0-6.905-3.172-6.905-7.075 3.818 0 6.914 3.172 6.914 7.084l-.009-.009Z"/>
      <path fill="#F56D27" d="M212.996 50.496c-3.818 0-6.914-3.172-6.914-7.084 3.818 0 6.905 3.172 6.905 7.075l.009.009Z"/>
      <path fill="#F56D27" d="M206.091 57.57c0-3.911 3.096-7.083 6.914-7.083 0 3.912-3.096 7.075-6.905 7.075l-.009.009Z"/>
      <path fill="#F56D27" d="M206.091 57.57c-3.818 0-6.905-3.171-6.905-7.074 3.818 0 6.914 3.172 6.914 7.084l-.009-.01Zm-.009-14.158c0 3.912-3.096 7.084-6.914 7.084 0-3.912 3.096-7.075 6.905-7.075l.009-.009Zm.009 28.318c0-3.913 3.096-7.085 6.914-7.085 0 3.912-3.096 7.075-6.905 7.075l-.009.01Z"/>
      <path fill="#F56D27" d="M206.091 71.73c-3.818 0-6.905-3.173-6.905-7.075 3.818 0 6.914 3.172 6.914 7.084l-.009-.01Zm6.905-7.075c-3.818 0-6.914-3.172-6.914-7.084 3.818 0 6.905 3.172 6.905 7.075l.009.009Zm-6.914-7.085c0 3.913-3.096 7.085-6.914 7.085 0-3.912 3.096-7.075 6.905-7.075l.009-.01Z"/>
      <path fill="#F56D27" d="M206.082 71.73c0 3.911-3.096 7.083-6.914 7.083 0-3.912 3.096-7.074 6.905-7.074l.009-.01Zm6.914 7.083c-3.818 0-6.914-3.172-6.914-7.084 3.818 0 6.905 3.172 6.905 7.075l.009.01Z"/>
      <path fill="#F56D27" d="M206.091 85.897c0-3.912 3.096-7.084 6.914-7.084 0 3.912-3.096 7.075-6.905 7.075l-.009.01Z"/>
      <path fill="#F56D27" d="M206.091 85.897c-3.818 0-6.905-3.172-6.905-7.075 3.818 0 6.914 3.173 6.914 7.084l-.009-.009Zm0 14.159c0-3.912 3.096-7.084 6.914-7.084 0 3.912-3.096 7.075-6.905 7.075l-.009.009Z"/>
      <path fill="#F56D27" d="M212.996 92.972c-3.818 0-6.914-3.172-6.914-7.084 3.818 0 6.905 3.172 6.905 7.075l.009.009Zm-6.914-7.075c0 3.912-3.096 7.084-6.914 7.084 0-3.912 3.096-7.075 6.905-7.075l.009-.009Zm.009 14.159c-3.818 0-6.905-3.172-6.905-7.075 3.818 0 6.914 3.172 6.914 7.084l-.009-.009Zm20.723-77.877c-3.818 0-6.913-3.172-6.913-7.084 3.818 0 6.904 3.172 6.904 7.074l.009.01Zm-6.904 7.074c-3.818 0-6.905-3.172-6.905-7.074 3.818 0 6.914 3.172 6.914 7.084l-.009-.01Z"/>
      <path fill="#F56D27" d="M219.901 15.095c0 3.912-3.096 7.084-6.914 7.084 0-3.912 3.096-7.075 6.905-7.075l.009-.01Zm.009 14.158c0-3.911 3.095-7.083 6.913-7.083 0 3.911-3.095 7.074-6.904 7.074l-.009.01Z"/>
      <path fill="#F56D27" d="M226.814 36.337c-3.818 0-6.913-3.172-6.913-7.084 3.818 0 6.904 3.173 6.904 7.075l.009.01Zm-6.904 7.075c-3.818 0-6.905-3.172-6.905-7.075 3.818 0 6.914 3.172 6.914 7.084l-.009-.009Z"/>
      <path fill="#F56D27" d="M219.91 29.253c0 3.912-3.096 7.084-6.914 7.084 0-3.911 3.096-7.074 6.905-7.074l.009-.01Zm0 14.159c0-3.912 3.095-7.084 6.913-7.084 0 3.912-3.095 7.075-6.904 7.075l-.009.01Zm0 14.158c0-3.911 3.095-7.083 6.913-7.083 0 3.912-3.095 7.075-6.904 7.075l-.009.009Z"/>
      <path fill="#F56D27" d="M219.91 57.57c-3.818 0-6.905-3.171-6.905-7.074 3.818 0 6.914 3.172 6.914 7.084l-.009-.01Zm-.009-14.158c0 3.912-3.096 7.084-6.914 7.084 0-3.912 3.096-7.075 6.905-7.075l.009-.009Z"/>
      <path fill="#F56D27" d="M226.814 50.496c-3.818 0-6.913-3.172-6.913-7.084 3.818 0 6.904 3.172 6.904 7.075l.009.009Zm0 14.159c-3.818 0-6.913-3.172-6.913-7.084 3.818 0 6.904 3.172 6.904 7.075l.009.009Z"/>
      <path fill="#F56D27" d="M219.901 57.57c0 3.913-3.096 7.085-6.914 7.085 0-3.912 3.096-7.075 6.905-7.075l.009-.01Zm.009 14.16c0-3.913 3.095-7.085 6.913-7.085 0 3.912-3.095 7.075-6.904 7.075l-.009.01Z"/>
      <path fill="#F56D27" d="M219.91 71.73c-3.818 0-6.905-3.173-6.905-7.075 3.818 0 6.914 3.172 6.914 7.084l-.009-.01Zm0 14.167c0-3.912 3.095-7.084 6.913-7.084 0 3.912-3.095 7.075-6.904 7.075l-.009.01Z"/>
      <path fill="#F56D27" d="M226.814 78.813c-3.818 0-6.913-3.172-6.913-7.084 3.818 0 6.904 3.172 6.904 7.075l.009.01Zm-6.904 7.084c-3.818 0-6.905-3.172-6.905-7.075 3.818 0 6.914 3.173 6.914 7.084l-.009-.009Z"/>
      <path fill="#F56D27" d="M219.91 71.73c0 3.911-3.096 7.083-6.914 7.083 0-3.912 3.096-7.074 6.905-7.074l.009-.01Zm0 28.326c-3.818 0-6.905-3.172-6.905-7.075 3.818 0 6.914 3.172 6.914 7.084l-.009-.009Z"/>
      <path fill="#F56D27" d="M219.91 100.056c0-3.912 3.095-7.084 6.913-7.084 0 3.912-3.095 7.075-6.904 7.075l-.009.009Zm0-14.159c0 3.912-3.096 7.084-6.914 7.084 0-3.912 3.096-7.075 6.905-7.075l.009-.009Z"/>
      <path fill="#F56D27" d="M226.814 92.972c-3.818 0-6.913-3.172-6.913-7.084 3.818 0 6.904 3.172 6.904 7.075l.009.009Zm6.914-63.719c0-3.911 3.096-7.083 6.914-7.083 0 3.911-3.096 7.074-6.905 7.074l-.009.01Z"/>
      <path fill="#F56D27" d="M240.633 22.179c-3.818 0-6.914-3.172-6.914-7.084 3.818 0 6.905 3.172 6.905 7.074l.009.01Zm-6.905 7.074c-3.818 0-6.905-3.172-6.905-7.074 3.818 0 6.914 3.172 6.914 7.084l-.009-.01Zm-.009-14.158c0 3.912-3.096 7.084-6.914 7.084 0-3.912 3.096-7.075 6.905-7.075l.009-.01Zm.009 28.317c-3.818 0-6.905-3.172-6.905-7.075 3.818 0 6.914 3.172 6.914 7.084l-.009-.009Z"/>
      <path fill="#F56D27" d="M233.728 29.253c0 3.912-3.096 7.084-6.914 7.084 0-3.911 3.096-7.074 6.905-7.074l.009-.01Zm0 14.159c0-3.912 3.096-7.084 6.914-7.084 0 3.912-3.096 7.075-6.905 7.075l-.009.01Z"/>
      <path fill="#F56D27" d="M240.633 36.337c-3.818 0-6.914-3.172-6.914-7.084 3.818 0 6.905 3.173 6.905 7.075l.009.01Zm0 14.159c-3.818 0-6.914-3.172-6.914-7.084 3.818 0 6.905 3.172 6.905 7.075l.009.009Z"/>
      <path fill="#F56D27" d="M233.728 57.57c0-3.911 3.096-7.083 6.914-7.083 0 3.912-3.096 7.075-6.905 7.075l-.009.009Z"/>
      <path fill="#F56D27" d="M233.728 57.57c-3.818 0-6.905-3.171-6.905-7.074 3.818 0 6.914 3.172 6.914 7.084l-.009-.01Zm0-14.158c0 3.912-3.096 7.084-6.914 7.084 0-3.912 3.096-7.075 6.905-7.075l.009-.009Zm0 28.318c-3.818 0-6.905-3.173-6.905-7.075 3.818 0 6.914 3.172 6.914 7.084l-.009-.01Z"/>
      <path fill="#F56D27" d="M233.719 57.57c0 3.913-3.096 7.085-6.914 7.085 0-3.912 3.096-7.075 6.905-7.075l.009-.01Zm6.914 7.085c-3.818 0-6.914-3.172-6.914-7.084 3.818 0 6.905 3.172 6.905 7.075l.009.009Z"/>
      <path fill="#F56D27" d="M233.728 71.73c0-3.913 3.096-7.085 6.914-7.085 0 3.912-3.096 7.075-6.905 7.075l-.009.01Zm0 14.167c0-3.912 3.096-7.084 6.914-7.084 0 3.912-3.096 7.075-6.905 7.075l-.009.01Z"/>
      <path fill="#F56D27" d="M240.633 78.813c-3.818 0-6.914-3.172-6.914-7.084 3.818 0 6.905 3.172 6.905 7.075l.009.01Z"/>
      <path fill="#F56D27" d="M233.728 71.73c0 3.911-3.096 7.083-6.914 7.083 0-3.912 3.096-7.074 6.905-7.074l.009-.01Zm0 14.167c-3.818 0-6.905-3.172-6.905-7.075 3.818 0 6.914 3.173 6.914 7.084l-.009-.009Zm0 14.159c0-3.912 3.096-7.084 6.914-7.084 0 3.912-3.096 7.075-6.905 7.075l-.009.009Z"/>
      <path fill="#F56D27" d="M240.633 92.972c-3.818 0-6.914-3.172-6.914-7.084 3.818 0 6.905 3.172 6.905 7.075l.009.009Zm-6.905 7.084c-3.818 0-6.905-3.172-6.905-7.075 3.818 0 6.914 3.172 6.914 7.084l-.009-.009Z"/>
      <path fill="#F56D27" d="M233.728 85.897c0 3.912-3.096 7.084-6.914 7.084 0-3.912 3.096-7.075 6.905-7.075l.009-.009Zm13.819-70.802c0 3.912-3.096 7.084-6.914 7.084 0-3.912 3.096-7.075 6.905-7.075l.009-.01Zm0 14.158c-3.818 0-6.905-3.172-6.905-7.074 3.818 0 6.914 3.172 6.914 7.084l-.009-.01Zm0 14.159c-3.818 0-6.905-3.172-6.905-7.075 3.818 0 6.914 3.172 6.914 7.084l-.009-.009Z"/>
      <path fill="#F56D27" d="M247.547 29.253c0 3.912-3.096 7.084-6.914 7.084 0-3.911 3.096-7.074 6.905-7.074l.009-.01Zm0 28.317c-3.818 0-6.905-3.171-6.905-7.074 3.818 0 6.914 3.172 6.914 7.084l-.009-.01Zm0-14.158c0 3.912-3.096 7.084-6.914 7.084 0-3.912 3.096-7.075 6.905-7.075l.009-.009Zm0 28.318c-3.818 0-6.905-3.173-6.905-7.075 3.818 0 6.914 3.172 6.914 7.084l-.009-.01Z"/>
      <path fill="#F56D27" d="M247.547 57.57c0 3.913-3.096 7.085-6.914 7.085 0-3.912 3.096-7.075 6.905-7.075l.009-.01Zm0 28.327c-3.818 0-6.905-3.172-6.905-7.075 3.818 0 6.914 3.173 6.914 7.084l-.009-.009Zm0-14.167c0 3.911-3.096 7.083-6.914 7.083 0-3.912 3.096-7.074 6.905-7.074l.009-.01Zm0 28.326c-3.818 0-6.905-3.172-6.905-7.075 3.818 0 6.914 3.172 6.914 7.084l-.009-.009Z"/>
      <path fill="#F56D27" d="M247.547 85.897c0 3.912-3.096 7.084-6.914 7.084 0-3.912 3.096-7.075 6.905-7.075l.009-.009Z"/>
    </g>
    <path fill="#C71E11" d="M220.263 98.87c.578-2.146-2.509-4.892-6.896-6.134-4.387-1.241-8.412-.508-8.991 1.639-.579 2.146 2.509 4.893 6.896 6.134 4.387 1.242 8.412.508 8.991-1.638Z"/>
    <path fill="#FFF400" d="M213.068 94.942s6.038 1.997 4.702 5.188c-1.146 1.766-4.91 2.534-7.401 1.563-2.491-.971-4.63-2.932-4.513-5.567.117-1.628 3.078-2.738 7.212-1.184Z"/>
    <path stroke="#000" stroke-linecap="round" stroke-linejoin="round" stroke-width=".925" d="M125.976 2.518c-57.117 0-101.597 17.747-113.177 22.824l26.112 67.25c32.169-11.282 61.395-15.064 86.171-15.064 42.17 0 71.423 10.977 80.124 14.686l25.968-66.872.126-.315c-36.717-16.84-73.02-22.51-105.324-22.51Z"/>
    <path stroke="#000" stroke-linecap="round" stroke-linejoin="round" stroke-width=".925" d="M125.814 11.34c32.818 0 64.012 6.603 92.859 19.624L199.61 81.921c-12.555-4.939-38.911-13.206-74.645-13.206-26.753 0-53.75 4.66-80.358 13.853L25.39 31.455c15.227-6.39 53.398-20.115 100.424-20.115ZM9.45 19.904c-4.432.11-6.959 1.424-8.268 2.432l-.234-.74s2.265-3.616 8.033-2.534c.198.352.36.63.47.842Z"/>
    <path stroke="#000" stroke-linecap="round" stroke-linejoin="round" stroke-width=".925" d="M39.453 93.98c-.235-.453-.641-.832-1.192-1.138-.686-.37-1.615-.591-2.68-.665-1.454-.111-3.178.064-4.947.564-4.35 1.22-7.428 3.949-6.914 6.076L0 23.52s.334-.527 1.182-1.184c1.3-1.008 3.836-2.321 8.268-2.432.397-.01.813-.01 1.246 0l2.112 5.447L38.92 92.602l.533 1.378Z"/>
    <path stroke="#000" stroke-linecap="round" stroke-linejoin="round" stroke-width=".925" d="M37.837 97.947a4.502 4.502 0 0 0 .298-1.812c-.027-.426-.262-.823-.668-1.147-1.092-.879-3.502-1.184-6.544-.037 0 0-3.62 1.193-4.621 3.218h-.01a2.256 2.256 0 0 0-.062 1.979c.207.315.505.601.857.86-1.77-.249-3.042-.98-3.349-2.108l-.009-.028s-.009-.037-.009-.046c-.514-2.127 2.555-4.855 6.914-6.076 1.77-.509 3.493-.684 4.947-.564 1.074.074 1.994.305 2.68.666.55.305.957.684 1.192 1.137l.162.407c.307 1.12-.406 2.405-1.769 3.57l-.009-.019Z"/>
    <path stroke="#000" stroke-linecap="round" stroke-linejoin="round" stroke-width=".925" d="M38.135 96.135a4.329 4.329 0 0 1-.298 1.812h-.009c-.65 1.73-2.329 3.024-4.197 3.755-2.04.795-4.92.425-6.535-.703h-.009a3.191 3.191 0 0 1-.857-.86c-.307-.73-.235-1.387.063-1.979h.009c1.01-2.016 4.621-3.218 4.621-3.218 3.042-1.147 5.452-.842 6.544.037.406.323.64.721.668 1.147v.009Zm204.908-74.539-.234.74c-1.3-1.008-3.837-2.321-8.268-2.432.108-.213.27-.49.469-.842 5.768-1.082 8.033 2.534 8.033 2.534Z"/>
    <path stroke="#000" stroke-linecap="round" stroke-linejoin="round" stroke-width=".925" d="M220.271 98.817c.514-2.127-2.555-4.855-6.914-6.076-1.769-.509-3.493-.684-4.947-.564-.857.064-1.615.212-2.238.48h-.009a2.032 2.032 0 0 0-.433.186c-.551.305-.957.684-1.192 1.137l.533-1.378.144-.379 25.968-66.872.126-.314 1.995-5.133c.433-.01.849-.01 1.246 0 4.432.11 6.959 1.424 8.268 2.432.848.657 1.182 1.184 1.182 1.184l-23.72 75.297h-.009Z"/>
    <path stroke="#000" stroke-linecap="round" stroke-linejoin="round" stroke-width=".925" d="M220.271 98.817s-.009.037-.009.046c0 .01 0 .01-.009.028-.307 1.119-1.571 1.849-3.349 2.108.361-.249.65-.545.857-.86.307-.73.235-1.387-.063-1.979h-.009c-1.011-2.016-4.621-3.218-4.621-3.218-3.042-1.147-5.452-.842-6.544.037-.406.323-.641.721-.668 1.147a4.323 4.323 0 0 0 .298 1.812c-1.363-1.156-2.076-2.441-1.769-3.57l.162-.406c.235-.454.641-.833 1.192-1.138.135-.074.271-.139.433-.185h.009c.632-.268 1.381-.416 2.238-.48 1.454-.112 3.178.064 4.947.563 4.35 1.221 7.428 3.95 6.914 6.076l-.009.019Z"/>
    <path stroke="#000" stroke-linecap="round" stroke-linejoin="round" stroke-width=".925" d="M217.761 100.139c-.207.315-.505.601-.857.86h-.009c-1.616 1.138-4.486 1.498-6.535.703-1.868-.73-3.547-2.025-4.197-3.754h-.009a4.501 4.501 0 0 1-.298-1.813c.027-.426.262-.823.668-1.147 1.092-.878 3.502-1.184 6.544-.037 0 0 3.619 1.193 4.621 3.218h.009c.298.592.37 1.249.063 1.979v-.009Z"/>
    <path fill="#C12202" d="m65.922 45.088-.153-1.706-3.45-15.216c-2.335.467-4.66 1.41-3.996 4.347.404 1.77 2.164 3.315 4.599 2.758l.063.278c.296 1.294-.234 2.354-1.554 2.65-2.884.656-5.488-1.85-6.09-4.518-.872-3.871 1.643-7.204 5.398-8.057l4.707-1.069c3.224-.727 4.652-1.58 4.095-4.024l.279-.063c1.284-.296 2.353.234 2.65 1.554.655 2.884-2.102 4.366-6.396 5.336l-.952.215 3.431 15.162.602 1.599-3.251.736.018.018Z"/>
    <path fill="#C12202" d="M73.862 39.106c.853.836 2.02 1.33 3.44 1.07 1.248-.225 2.102-.97 2.524-2.354l2.506 1.41c-.88 2.084-2.506 3.404-4.68 3.8-4.635.844-7.653-2.578-8.335-6.342-.656-3.593.916-7.5 5.326-8.3 2.857-.52 5.928.818 6.521 4.07.216 1.185-.242 2.38-2.452 3.718l-4.841 2.928h-.01Zm1.383-12-1.15-1.985-.404 2.264-3.027.547 2.353-4.544 1.447-.26 3.808 3.421-3.027.548v.01Zm1.177 7.446c1.877-1.069 1.626-1.518 1.563-1.832-.234-1.275-1.41-1.787-2.65-1.563-2.461.45-3.305 2.847-2.901 5.084.027.17.063.341.116.503l3.863-2.192h.009Zm4.293-15.099L78.47 23.98l-1.446.26.467-4.203 3.224-.584Zm.458 8.084c1.626-.224 1.68-.467 1.536-1.518l-.108-.8c-.107-.799-.224-1.625-.53-2.164l2.875-1.85.79 5.695 4.267-.593.35 2.56-4.266.592.889 6.405c.224 1.59.763 2.82 1.733 2.694.97-.134 1.24-1.329 1.536-2.101l2.444 1.518c-.89 1.949-2.021 3.035-3.665 3.26-1.904.26-4.32-.826-4.815-4.383l-.79-5.722c-.144-1.05-.26-1.266-1.886-1.042l-.35-2.56-.01.01Zm22.788 11.793 6.602-17.685-4.078.252c-3.296.206-4.446 2.173-4.329 3.979.107 1.688 1.32 3.26 3.134 3.143a4.57 4.57 0 0 0 .854-.134l.018.287c.08 1.374-.692 2.264-2.075 2.344-2.039.126-4.86-1.715-5.084-5.443-.198-3.215 1.805-6.7 7.311-7.042l8.488-.52-6.601 17.685 5.964-.368c.655-.045 1.203-.045 1.679-.333l.189 3.1-12.081.745.009-.01Zm20.785-1.769a6.059 6.059 0 0 1-3.701 1.32c-3.072.019-4.554-2.236-4.572-4.625-.018-2.533 1.743-5.183 5.138-5.21a5.73 5.73 0 0 1 3.081.925c-.072-2.182-1.401-3.18-2.785-3.17-1.006 0-2.039.593-2.604 1.832l-2.282-1.733c1.365-2.075 3.252-2.956 5.093-2.965 2.82-.017 5.416 2.057 5.443 5.048l.054 7.878.243 1.697-3.108.018v-1.015Zm-.036-4.221c-.494-.97-1.77-1.716-2.803-1.707-1.464.01-2.29 1.222-2.281 2.461.009 1.41.961 2.29 2.371 2.282 1.006 0 2.12-.593 2.722-1.743V33.34h-.009Zm4.527 5.281.269-1.688c.171-6.521.27-10.195.44-16.716.018-.665.027-1.123-.188-1.698l3.144-1.356-.521 19.85.188 1.698-3.332-.09Zm4.706-6.907c.243-3.817 2.668-7.554 7.285-7.258 4.536.288 6.593 4.16 6.359 7.887-.233 3.727-2.766 7.311-7.293 7.024-4.446-.279-6.575-4.015-6.342-7.662l-.009.009Zm3.171-.063c-.144 2.3.916 4.698 3.35 4.85 2.435.153 3.818-2.065 3.962-4.356.143-2.29-.971-4.67-3.387-4.823-2.407-.153-3.781 2.039-3.934 4.33h.009Zm10.33 13.429 2.146-18.037-.027-1.706 3.081.368-.108.943a5.266 5.266 0 0 1 3.566-.817c4.195.503 5.812 4.455 5.363 8.191-.44 3.71-2.937 7.15-6.988 6.665-1.195-.144-2.381-.691-3.423-1.653l-.763 6.396.027 1.715-3.315-.395.432-1.653.009-.018Zm3.961-8.938c.512 1.015 1.347 1.806 2.578 1.958 1.94.234 4.006-1.518 4.365-4.545.278-2.308-.62-4.733-3.018-5.02-1.087-.126-2.273.34-3.189 1.526l-.727 6.081h-.009Zm17.829 5.452a5.989 5.989 0 0 1-3.871.638c-3.027-.52-4.087-3.009-3.683-5.362.431-2.488 2.641-4.797 5.982-4.213 1.051.18 2.093.71 2.866 1.455.314-2.165-.818-3.377-2.174-3.61-.988-.171-2.111.215-2.883 1.338l-1.94-2.111c1.715-1.805 3.727-2.326 5.542-2.012 2.775.485 4.967 2.991 4.455 5.937l-1.348 7.76-.062 1.707-3.054-.53.17-.988v-.009Zm.728-4.158c-.315-1.051-1.437-1.994-2.452-2.174-1.446-.252-2.47.8-2.686 2.012-.242 1.383.539 2.425 1.931 2.668.988.17 2.192-.207 2.982-1.23l.225-1.276Z"/>
    <path fill="#C12202" d="m175.252 29.073 3.53.8c-.26.233-.377 1.006-.287 1.67l.898 8.542 4.482-7.33c.333-.574.593-1.31.458-1.634l3.198.719-7.877 12.952c-1.779 2.928-3.414 6.89-7.339 6.01-1.68-.378-2.802-1.932-3.602-4.025l2.866-1.33c.278 1.653.835 2.426 1.509 2.579 1.455.332 2.551-1.779 3.817-3.854l-1.653-15.108v.01Zm-109.33 14.48-.153-1.707-3.45-15.216c-2.335.467-4.66 1.41-3.996 4.348.404 1.769 2.164 3.314 4.599 2.757l.063.278c.296 1.294-.234 2.354-1.554 2.65-2.884.656-5.488-1.85-6.09-4.518-.872-3.871 1.643-7.204 5.398-8.057l4.707-1.069c3.224-.727 4.652-1.58 4.095-4.024l.279-.063c1.284-.296 2.353.234 2.65 1.554.655 2.884-2.102 4.366-6.396 5.336l-.952.215L68.553 41.2l.602 1.599-3.251.736.018.019Z"/>
    <path fill="#C12202" d="M73.862 37.57c.853.836 2.02 1.33 3.44 1.07 1.248-.225 2.102-.97 2.524-2.354l2.506 1.41c-.88 2.084-2.506 3.404-4.68 3.8-4.635.844-7.653-2.578-8.335-6.342-.656-3.593.916-7.5 5.326-8.3 2.857-.52 5.928.818 6.521 4.07.216 1.185-.242 2.38-2.452 3.718l-4.841 2.928h-.01Zm1.383-11.99-1.15-1.986-.404 2.264-3.027.547 2.353-4.544 1.447-.26 3.808 3.421-3.027.548v.01Zm1.177 7.436c1.877-1.068 1.626-1.518 1.563-1.832-.234-1.275-1.41-1.787-2.65-1.563-2.461.45-3.305 2.848-2.901 5.084.027.17.063.341.116.503l3.863-2.192h.009Zm4.293-15.099-2.245 4.527-1.446.26.467-4.203 3.224-.584Zm.458 8.084c1.626-.224 1.68-.467 1.536-1.518l-.108-.799c-.107-.8-.224-1.626-.53-2.165l2.875-1.85.79 5.695 4.267-.593.35 2.56-4.266.593.889 6.404c.224 1.59.763 2.82 1.733 2.694.97-.134 1.24-1.329 1.536-2.101l2.444 1.518c-.89 1.949-2.021 3.036-3.665 3.26-1.904.26-4.32-.826-4.815-4.383l-.79-5.722c-.144-1.05-.26-1.266-1.886-1.042l-.35-2.56-.01.01Zm22.788 11.803 6.602-17.686-4.078.252c-3.296.206-4.446 2.173-4.329 3.979.107 1.688 1.32 3.26 3.134 3.143.261-.018.602-.063.854-.134l.018.287c.08 1.374-.692 2.264-2.075 2.344-2.039.126-4.86-1.715-5.084-5.443-.198-3.215 1.805-6.7 7.311-7.042l8.488-.52-6.601 17.685 5.964-.368c.655-.045 1.203-.045 1.679-.333l.189 3.1-12.081.745.009-.01Zm20.785-1.779a6.059 6.059 0 0 1-3.701 1.32c-3.072.019-4.554-2.236-4.572-4.625-.018-2.533 1.743-5.183 5.138-5.21a5.73 5.73 0 0 1 3.081.925c-.072-2.182-1.401-3.18-2.785-3.17-1.006 0-2.039.593-2.604 1.832l-2.282-1.733c1.365-2.075 3.252-2.956 5.093-2.965 2.82-.018 5.416 2.057 5.443 5.049l.054 7.877.243 1.697-3.108.018v-1.015Zm-.036-4.221c-.494-.97-1.77-1.716-2.803-1.707-1.464.01-2.29 1.222-2.281 2.461.009 1.41.961 2.29 2.371 2.282 1.006 0 2.12-.593 2.722-1.743v-1.293h-.009Zm4.527 5.29.269-1.688c.171-6.521.27-10.195.44-16.716.018-.665.027-1.123-.188-1.698l3.144-1.356-.521 19.85.188 1.698-3.332-.09Zm4.706-6.916c.243-3.817 2.668-7.554 7.285-7.258 4.536.288 6.593 4.16 6.359 7.887-.233 3.727-2.766 7.311-7.293 7.024-4.446-.279-6.575-4.015-6.342-7.662l-.009.009Zm3.171-.054c-.144 2.3.916 4.698 3.35 4.85 2.435.153 3.818-2.065 3.962-4.356.143-2.29-.971-4.67-3.387-4.823-2.407-.153-3.781 2.039-3.934 4.33h.009Zm10.33 13.42 2.146-18.037-.027-1.706 3.081.368-.108.943a5.266 5.266 0 0 1 3.566-.817c4.195.503 5.812 4.455 5.363 8.191-.44 3.71-2.937 7.15-6.988 6.665-1.195-.144-2.381-.691-3.423-1.653l-.763 6.396.027 1.715-3.315-.395.432-1.653.009-.017Zm3.961-8.938c.512 1.015 1.347 1.806 2.578 1.958 1.94.234 4.006-1.518 4.365-4.545.278-2.308-.62-4.733-3.018-5.02-1.087-.126-2.273.34-3.189 1.526l-.727 6.081h-.009Zm17.829 5.461a5.988 5.988 0 0 1-3.871.638c-3.027-.52-4.087-3.009-3.683-5.362.431-2.488 2.641-4.797 5.982-4.213a5.58 5.58 0 0 1 2.866 1.455c.314-2.164-.818-3.377-2.174-3.61-.988-.171-2.111.215-2.883 1.338l-1.94-2.111c1.715-1.805 3.727-2.326 5.542-2.012 2.775.485 4.967 2.991 4.455 5.937l-1.348 7.76-.062 1.707-3.054-.53.17-.988v-.009Zm.728-4.167c-.315-1.051-1.437-1.994-2.452-2.174-1.446-.252-2.47.8-2.686 2.012-.242 1.383.539 2.425 1.931 2.668.988.17 2.192-.207 2.982-1.23l.225-1.276Z"/>
    <path fill="#C12202" d="m175.252 27.537 3.53.8c-.26.233-.377 1.006-.287 1.67l.898 8.542 4.482-7.329c.333-.575.593-1.311.458-1.635l3.198.719-7.877 12.952c-1.779 2.928-3.414 6.89-7.339 6.01-1.68-.378-2.802-1.932-3.602-4.025l2.866-1.33c.278 1.654.835 2.426 1.509 2.579 1.455.332 2.551-1.779 3.817-3.854l-1.653-15.108v.01Z"/>
    <path fill="#EF4B23" d="m65.922 43.553-.153-1.707-3.45-15.216c-2.335.467-4.66 1.41-3.996 4.348.404 1.769 2.164 3.314 4.599 2.757l.063.278c.296 1.294-.234 2.354-1.554 2.65-2.884.656-5.488-1.85-6.09-4.518-.872-3.871 1.643-7.204 5.398-8.057l4.707-1.069c3.224-.727 4.652-1.58 4.095-4.024l.279-.063c1.284-.296 2.353.234 2.65 1.554.655 2.884-2.102 4.366-6.396 5.336l-.952.215L68.553 41.2l.602 1.599-3.251.736.018.019Z"/>
    <path fill="#EF4B23" d="M73.862 37.57c.853.836 2.02 1.33 3.44 1.07 1.248-.225 2.102-.97 2.524-2.354l2.506 1.41c-.88 2.084-2.506 3.404-4.68 3.8-4.635.844-7.653-2.578-8.335-6.342-.656-3.593.916-7.5 5.326-8.3 2.857-.52 5.928.818 6.521 4.07.216 1.185-.242 2.38-2.452 3.718l-4.841 2.928h-.01Zm1.383-11.99-1.15-1.986-.404 2.264-3.027.547 2.353-4.544 1.447-.26 3.808 3.421-3.027.548v.01Zm1.177 7.436c1.877-1.068 1.626-1.518 1.563-1.832-.234-1.275-1.41-1.787-2.65-1.563-2.461.45-3.305 2.848-2.901 5.084.027.17.063.341.116.503l3.863-2.192h.009Zm4.293-15.099-2.245 4.527-1.446.26.467-4.203 3.224-.584Zm.458 8.084c1.626-.224 1.68-.467 1.536-1.518l-.108-.799c-.107-.8-.224-1.626-.53-2.165l2.875-1.85.79 5.695 4.267-.593.35 2.56-4.266.593.889 6.404c.224 1.59.763 2.82 1.733 2.694.97-.134 1.24-1.329 1.536-2.101l2.444 1.518c-.89 1.949-2.021 3.036-3.665 3.26-1.904.26-4.32-.826-4.815-4.383l-.79-5.722c-.144-1.05-.26-1.266-1.886-1.042l-.35-2.56-.01.01Zm22.788 11.803 6.602-17.686-4.078.252c-3.296.206-4.446 2.173-4.329 3.979.107 1.688 1.32 3.26 3.134 3.143.261-.018.602-.063.854-.134l.018.287c.08 1.374-.692 2.264-2.075 2.344-2.039.126-4.86-1.715-5.084-5.443-.198-3.215 1.805-6.7 7.311-7.042l8.488-.52-6.601 17.685 5.964-.368c.655-.045 1.203-.045 1.679-.333l.189 3.1-12.081.745.009-.01Zm20.785-1.779a6.059 6.059 0 0 1-3.701 1.32c-3.072.019-4.554-2.236-4.572-4.625-.018-2.533 1.743-5.183 5.138-5.21a5.73 5.73 0 0 1 3.081.925c-.072-2.182-1.401-3.18-2.785-3.17-1.006 0-2.039.593-2.604 1.832l-2.282-1.733c1.365-2.075 3.252-2.956 5.093-2.965 2.82-.018 5.416 2.057 5.443 5.049l.054 7.877.243 1.697-3.108.018v-1.015Zm-.036-4.221c-.494-.97-1.77-1.716-2.803-1.707-1.464.01-2.29 1.222-2.281 2.461.009 1.41.961 2.29 2.371 2.282 1.006 0 2.12-.593 2.722-1.743v-1.293h-.009Zm4.527 5.29.269-1.688c.171-6.521.27-10.195.44-16.716.018-.665.027-1.123-.188-1.698l3.144-1.356-.521 19.85.188 1.698-3.332-.09Zm4.706-6.916c.243-3.817 2.668-7.554 7.285-7.258 4.536.288 6.593 4.16 6.359 7.887-.233 3.727-2.766 7.311-7.293 7.024-4.446-.279-6.575-4.015-6.342-7.662l-.009.009Zm3.171-.054c-.144 2.3.916 4.698 3.35 4.85 2.435.153 3.818-2.065 3.962-4.356.143-2.29-.971-4.67-3.387-4.823-2.407-.153-3.781 2.039-3.934 4.33h.009Zm10.33 13.42 2.146-18.037-.027-1.706 3.081.368-.108.943a5.266 5.266 0 0 1 3.566-.817c4.195.503 5.812 4.455 5.363 8.191-.44 3.71-2.937 7.15-6.988 6.665-1.195-.144-2.381-.691-3.423-1.653l-.763 6.396.027 1.715-3.315-.395.432-1.653.009-.017Zm3.961-8.938c.512 1.015 1.347 1.806 2.578 1.958 1.94.234 4.006-1.518 4.365-4.545.278-2.308-.62-4.733-3.018-5.02-1.087-.126-2.273.34-3.189 1.526l-.727 6.081h-.009Zm17.829 5.461a5.988 5.988 0 0 1-3.871.638c-3.027-.52-4.087-3.009-3.683-5.362.431-2.488 2.641-4.797 5.982-4.213a5.58 5.58 0 0 1 2.866 1.455c.314-2.164-.818-3.377-2.174-3.61-.988-.171-2.111.215-2.883 1.338l-1.94-2.111c1.715-1.805 3.727-2.326 5.542-2.012 2.775.485 4.967 2.991 4.455 5.937l-1.348 7.76-.062 1.707-3.054-.53.17-.988v-.009Zm.728-4.167c-.315-1.051-1.437-1.994-2.452-2.174-1.446-.252-2.47.8-2.686 2.012-.242 1.383.539 2.425 1.931 2.668.988.17 2.192-.207 2.982-1.23l.225-1.276Z"/>
    <path fill="#EF4B23" d="m175.252 27.537 3.53.8c-.26.233-.377 1.006-.287 1.67l.898 8.542 4.482-7.329c.333-.575.593-1.311.458-1.635l3.198.719-7.877 12.952c-1.779 2.928-3.414 6.89-7.339 6.01-1.68-.378-2.802-1.932-3.602-4.025l2.866-1.33c.278 1.654.835 2.426 1.509 2.579 1.455.332 2.551-1.779 3.817-3.854l-1.653-15.108v.01Z"/>
    <path fill="#FFF400" d="m65.922 42.026-.153-1.707-3.45-15.216c-2.335.467-4.66 1.41-3.996 4.348.404 1.769 2.164 3.314 4.599 2.757l.063.279c.296 1.293-.234 2.353-1.554 2.65-2.884.655-5.488-1.851-6.09-4.519-.872-3.871 1.643-7.203 5.398-8.057l4.707-1.069c3.224-.727 4.652-1.58 4.095-4.024l.279-.063c1.284-.296 2.353.234 2.65 1.554.655 2.884-2.102 4.366-6.396 5.336l-.952.215 3.431 15.162.602 1.599-3.251.736.018.019Z"/>
    <path fill="#FFF400" d="M73.862 36.034c.853.836 2.02 1.33 3.44 1.07 1.248-.225 2.102-.97 2.524-2.354l2.506 1.41c-.88 2.084-2.506 3.404-4.68 3.8-4.635.844-7.653-2.578-8.335-6.342-.656-3.593.916-7.5 5.326-8.3 2.857-.52 5.928.818 6.521 4.07.216 1.185-.242 2.38-2.452 3.718l-4.841 2.928h-.01Zm1.383-11.99-1.15-1.986-.404 2.264-3.027.548 2.353-4.545 1.447-.26 3.808 3.421-3.027.548v.01Zm1.177 7.436c1.877-1.068 1.626-1.518 1.563-1.832-.234-1.275-1.41-1.787-2.65-1.563-2.461.45-3.305 2.848-2.901 5.084.027.17.063.341.116.503l3.863-2.192h.009Zm4.293-15.09-2.245 4.527-1.446.26.467-4.203 3.224-.584Zm.458 8.075c1.626-.224 1.68-.467 1.536-1.518l-.108-.799c-.107-.8-.224-1.626-.53-2.165l2.875-1.85.79 5.695 4.267-.593.35 2.56-4.266.593.889 6.404c.224 1.59.763 2.82 1.733 2.694.97-.134 1.24-1.329 1.536-2.101l2.444 1.518c-.89 1.949-2.021 3.036-3.665 3.26-1.904.26-4.32-.826-4.815-4.383l-.79-5.722c-.144-1.05-.26-1.266-1.886-1.042l-.35-2.56-.01.01Zm22.788 11.803 6.602-17.686-4.078.252c-3.296.206-4.446 2.173-4.329 3.979.107 1.688 1.32 3.26 3.134 3.143a4.48 4.48 0 0 0 .854-.134l.018.287c.08 1.374-.692 2.264-2.075 2.344-2.039.126-4.86-1.715-5.084-5.443-.198-3.215 1.805-6.7 7.311-7.042l8.488-.52-6.601 17.685 5.964-.368c.655-.045 1.203-.045 1.679-.332l.189 3.098-12.081.746.009-.01Zm20.785-1.778a6.059 6.059 0 0 1-3.701 1.32c-3.072.018-4.554-2.237-4.572-4.626-.018-2.533 1.743-5.183 5.138-5.21a5.73 5.73 0 0 1 3.081.926c-.072-2.183-1.401-3.18-2.785-3.171-1.006 0-2.039.593-2.604 1.832l-2.282-1.733c1.365-2.075 3.252-2.956 5.093-2.965 2.82-.017 5.416 2.058 5.443 5.049l.054 7.877.243 1.697-3.108.018V34.49Zm-.036-4.222c-.494-.97-1.77-1.716-2.803-1.707-1.464.01-2.29 1.222-2.281 2.461.009 1.41.961 2.29 2.371 2.282 1.006 0 2.12-.593 2.722-1.743v-1.293h-.009Zm4.527 5.29.269-1.688c.171-6.521.27-10.195.44-16.716.018-.665.027-1.123-.188-1.698l3.144-1.356-.521 19.85.188 1.698-3.332-.09Zm4.706-6.916c.243-3.817 2.668-7.554 7.285-7.258 4.536.288 6.593 4.16 6.359 7.887-.233 3.727-2.766 7.311-7.293 7.024-4.446-.279-6.575-4.015-6.342-7.662l-.009.01Zm3.171-.054c-.144 2.3.916 4.698 3.35 4.85 2.435.153 3.818-2.065 3.962-4.356.143-2.29-.97-4.67-3.387-4.823-2.407-.153-3.781 2.039-3.934 4.33h.009Zm10.33 13.42 2.146-18.037-.027-1.706 3.081.368-.108.943a5.266 5.266 0 0 1 3.566-.817c4.195.503 5.812 4.455 5.363 8.192-.44 3.71-2.937 7.15-6.988 6.664-1.195-.144-2.381-.691-3.423-1.653l-.763 6.396.027 1.715-3.315-.395.432-1.652.009-.019Zm3.961-8.929c.512 1.015 1.347 1.806 2.578 1.958 1.94.234 4.006-1.518 4.365-4.545.278-2.308-.62-4.733-3.018-5.02-1.087-.126-2.273.34-3.189 1.526l-.727 6.081h-.009Zm17.829 5.453a5.99 5.99 0 0 1-3.871.637c-3.027-.52-4.087-3.009-3.683-5.362.431-2.488 2.641-4.797 5.982-4.213 1.051.18 2.093.71 2.866 1.455.314-2.164-.818-3.377-2.174-3.61-.988-.171-2.111.215-2.883 1.338l-1.94-2.111c1.715-1.805 3.727-2.326 5.542-2.012 2.775.485 4.967 2.991 4.455 5.937l-1.348 7.76-.062 1.707-3.054-.53.17-.988v-.008Zm.728-4.168c-.315-1.051-1.437-1.994-2.452-2.174-1.446-.251-2.47.8-2.686 2.012-.242 1.383.539 2.425 1.931 2.668.988.17 2.192-.207 2.982-1.23l.225-1.276Z"/>
    <path fill="#FFF400" d="m175.252 26.001 3.53.8c-.26.233-.377 1.006-.287 1.67l.898 8.543 4.482-7.33c.333-.575.593-1.311.458-1.635l3.198.719-7.877 12.952c-1.779 2.928-3.414 6.89-7.339 6.01-1.68-.378-2.802-1.932-3.602-4.025l2.866-1.33c.278 1.654.835 2.426 1.509 2.579 1.455.332 2.551-1.779 3.817-3.854l-1.653-15.108v.01Z"/>
    <path fill="#C12202" d="m51.865 76.769-.216-1.698-4.033-15.018-.89.242c-2.523.683-3.278 2.542-2.838 4.186.468 1.751 2.29 3.225 4.707 2.578l.072.278c.341 1.276-.144 2.362-1.446 2.713-2.856.772-5.56-1.635-6.26-4.267-1.034-3.826 1.347-7.266 5.065-8.263l3.827-1.033.215 1.697 4.033 15.019 6.827-1.833c.637-.17.997-.27 1.58-.665l.809 3-11.461 3.081.009-.017ZM60.99 53.72l2.075 3.692-1.428.323-3.835-3.287 3.197-.719-.009-.009Zm2.533 20.084-.152-1.706-2.29-10.15c-.144-.647-.243-1.096-.603-1.608l2.713-2.084 2.982 13.204.602 1.608-3.252.736Zm10.312-2.254 3-8.057-5.129-6.153 3.737-.638c-.1.252.072.602.404.98l2.2 2.631 1.177-3.207c.18-.467.234-.853.054-1.06l3.737-.637-2.803 7.5 5.497 6.61-3.736.639c.108-.252-.072-.602-.404-.98l-2.533-3.062-1.402 3.736c-.18.467-.233.853-.053 1.06l-3.737.638h-.01Zm11.308-22.231 1.76 3.844-1.454.207-3.548-3.593 3.242-.458Zm.863 20.228V67.83c-.916-6.458-.548-3.844-1.455-10.302-.09-.656-.153-1.114-.468-1.644l2.875-1.85 1.877 13.41.467 1.644-3.305.467.009-.01Zm9.234-15.683c1.634-.144 1.697-.377 1.607-1.437l-.072-.8c-.072-.799-.143-1.634-.422-2.182l2.964-1.698.503 5.73 4.294-.377.224 2.578-4.293.378.557 6.44c.143 1.608.619 2.856 1.599 2.775.979-.08 1.302-1.266 1.643-2.02l2.363 1.643c-.988 1.904-2.165 2.928-3.827 3.072-1.922.17-4.275-1.042-4.59-4.617l-.503-5.757c-.09-1.06-.197-1.285-1.832-1.141l-.225-2.578.01-.009Zm12.026 13.374.153-1.706c-.287-6.521-.44-10.195-.727-16.716-.027-.665-.045-1.123-.306-1.689l3.036-1.572.413 9.423c.746-1.446 1.905-2.614 3.683-2.695 2.443-.108 4.338 1.797 4.509 5.874l.296 6.89.306 1.688-3.332.144.152-1.707-.305-7.006c-.099-2.21-1.042-3.377-2.129-3.332-1.662.072-2.416 2.722-2.973 4.994l.242 5.57.306 1.688-3.333.143.009.01Zm16.258-4.751c.683.979 1.743 1.68 3.18 1.688 1.266 0 2.245-.565 2.91-1.85l2.201 1.85c-1.249 1.887-3.09 2.884-5.309 2.875-4.715-.027-7.051-3.952-7.024-7.77.018-3.647 2.282-7.203 6.764-7.177 2.901.018 5.676 1.905 5.658 5.21 0 1.204-.673 2.3-3.089 3.198l-5.3 1.985.009-.01Zm3.575-11.533-.763-2.156-.818 2.147-3.072-.018 3.153-4.033h1.464l3.108 4.078-3.072-.018Zm-.216 7.527c2.048-.71 1.878-1.195 1.878-1.51 0-1.293-1.051-2.02-2.318-2.02-2.497-.018-3.781 2.191-3.79 4.464 0 .17 0 .341.027.52l4.203-1.436v-.018Zm12.62 8.722.288-1.68.413-6.17c.198-3.037-.413-4.205-1.249-4.258-1.518-.1-2.335 3.476-2.91 6.063l-.269 4.104.117 1.707-3.333-.225.342-1.68.673-10.095c.045-.665.072-1.123-.117-1.707l3.189-1.23-.198 2.982c1.042-1.86 2.363-2.551 3.566-2.47 1.779.116 2.767 1.715 3.09 3.35 1.069-2.174 2.506-2.973 3.791-2.892 2.326.152 3.332 2.811 3.197 4.796l-.557 8.38.063 1.707-3.215-.215.287-1.68.413-6.17c.207-3.037-.413-4.205-1.239-4.258-1.518-.1-2.336 3.476-2.91 6.027l-.279 4.131.063 1.707-3.216-.216v-.008Zm24.791 2.739.449-1.644 1.033-6.09c.512-3 .018-4.221-.808-4.365-1.5-.251-2.677 3.225-3.503 5.73l-.683 4.052-.054 1.706-3.287-.557.512-1.634 1.688-9.98c.108-.655.189-1.104.054-1.706l3.297-.898-.503 2.946c1.23-1.743 2.605-2.3 3.799-2.102 1.761.296 2.578 1.985 2.74 3.638 1.284-2.057 2.793-2.704 4.069-2.488 2.299.386 3.027 3.134 2.694 5.093l-1.401 8.272-.117 1.698-3.17-.54.449-1.643 1.033-6.09c.512-3 .018-4.222-.809-4.365-1.5-.252-2.676 3.224-3.503 5.703l-.691 4.078-.117 1.698-3.171-.539v.027Zm18.854 2.829a6.115 6.115 0 0 1-3.908.405c-2.991-.71-3.889-3.26-3.341-5.578.584-2.461 2.928-4.617 6.234-3.836a5.628 5.628 0 0 1 2.775 1.635c.449-2.138-.602-3.422-1.949-3.746-.979-.233-2.12.09-2.964 1.16l-1.805-2.228c1.823-1.698 3.862-2.093 5.658-1.671 2.74.656 4.77 3.287 4.078 6.198l-1.823 7.661-.171 1.707-3.018-.719.234-.979v-.009Zm.979-4.113c-.252-1.06-1.303-2.084-2.318-2.318-1.428-.341-2.515.638-2.802 1.841-.323 1.375.395 2.453 1.76 2.785.979.234 2.201-.063 3.054-1.042l.297-1.257.009-.01Z"/>
    <path fill="#C12202" d="m189.929 60.628 3.476 1.032c-.278.216-.44.98-.404 1.653l.332 8.587 4.959-7.015c.377-.548.673-1.266.565-1.599l3.144.934-8.712 12.414c-1.968 2.802-3.863 6.647-7.716 5.506-1.653-.494-2.668-2.111-3.324-4.258l2.947-1.132c.161 1.671.673 2.48 1.338 2.677 1.437.422 2.668-1.608 4.06-3.593l-.656-15.189-.009-.017ZM51.865 75.233l-.216-1.698-4.033-15.018-.89.242c-2.523.683-3.278 2.542-2.838 4.186.468 1.752 2.29 3.224 4.707 2.578l.072.278c.341 1.276-.144 2.363-1.446 2.713-2.856.772-5.56-1.635-6.26-4.267-1.034-3.826 1.347-7.266 5.065-8.263l3.827-1.033.215 1.697 4.033 15.019 6.827-1.833c.637-.17.997-.27 1.58-.664l.809 3-11.461 3.08.009-.017Zm9.125-23.049 2.075 3.692-1.428.323-3.835-3.287 3.197-.719-.009-.009Zm2.533 20.084-.152-1.706-2.29-10.15c-.144-.647-.243-1.096-.603-1.608l2.713-2.084 2.982 13.204.602 1.608-3.252.736Zm10.312-2.254 3-8.057-5.129-6.153 3.737-.638c-.1.252.072.602.404.98l2.2 2.631 1.177-3.206c.18-.468.234-.854.054-1.06l3.737-.638-2.803 7.5 5.497 6.61-3.736.639c.108-.252-.072-.602-.404-.98l-2.533-3.062-1.402 3.736c-.18.467-.233.854-.053 1.06l-3.737.638h-.01Zm11.308-22.222 1.76 3.844-1.454.207L81.9 48.25l3.242-.458Zm.863 20.219v-1.716c-.916-6.458-.548-3.844-1.455-10.302-.09-.656-.153-1.114-.468-1.644l2.875-1.85 1.877 13.41.467 1.644-3.305.467.009-.01Zm9.234-15.683c1.634-.144 1.697-.377 1.607-1.437l-.072-.8c-.072-.799-.143-1.634-.422-2.182l2.964-1.698.503 5.73 4.294-.376.224 2.577-4.293.378.557 6.44c.143 1.608.619 2.856 1.599 2.775.979-.08 1.302-1.266 1.643-2.02l2.363 1.643c-.988 1.904-2.165 2.928-3.827 3.072-1.922.17-4.275-1.042-4.59-4.617l-.503-5.757c-.09-1.06-.197-1.285-1.832-1.141l-.225-2.578.01-.009Zm12.026 13.375.153-1.707c-.287-6.521-.44-10.195-.727-16.716-.027-.665-.045-1.123-.306-1.689l3.036-1.571.413 9.422c.746-1.446 1.905-2.614 3.683-2.695 2.443-.108 4.338 1.797 4.509 5.874l.296 6.89.306 1.688-3.332.144.152-1.706-.305-7.007c-.099-2.21-1.042-3.377-2.129-3.332-1.662.072-2.416 2.722-2.973 4.994l.242 5.57.306 1.688-3.333.144.009.008Zm16.258-4.753c.683.98 1.743 1.68 3.18 1.69 1.266 0 2.245-.566 2.91-1.85l2.201 1.85c-1.249 1.886-3.09 2.883-5.309 2.874-4.715-.027-7.051-3.952-7.024-7.77.018-3.647 2.282-7.203 6.764-7.176 2.901.018 5.676 1.904 5.658 5.21 0 1.203-.673 2.299-3.089 3.197l-5.3 1.985.009-.01Zm3.575-11.532-.763-2.156-.818 2.147-3.072-.018 3.153-4.033h1.464l3.108 4.078-3.072-.018Zm-.216 7.536c2.048-.71 1.878-1.195 1.878-1.51 0-1.293-1.051-2.02-2.318-2.02-2.497-.018-3.781 2.191-3.79 4.464 0 .17 0 .341.027.521l4.203-1.437v-.018Zm12.62 8.712.288-1.68.413-6.17c.198-3.036-.413-4.204-1.249-4.257-1.518-.1-2.335 3.476-2.91 6.063l-.269 4.104.117 1.707-3.333-.225.342-1.68.673-10.095c.045-.665.072-1.123-.117-1.707l3.189-1.23-.198 2.982c1.042-1.86 2.363-2.551 3.566-2.47 1.779.116 2.767 1.715 3.09 3.35 1.069-2.174 2.506-2.973 3.791-2.892 2.326.152 3.332 2.811 3.197 4.796l-.557 8.38.063 1.707-3.215-.215.287-1.68.413-6.17c.207-3.037-.413-4.204-1.239-4.258-1.518-.1-2.336 3.476-2.91 6.027l-.279 4.132.063 1.706-3.216-.216v-.008Zm24.791 2.74.449-1.644 1.033-6.09c.512-3 .018-4.221-.808-4.365-1.5-.251-2.677 3.225-3.503 5.73l-.683 4.052-.054 1.706-3.287-.557.512-1.634 1.688-9.98c.108-.655.189-1.104.054-1.706l3.297-.898-.503 2.946c1.23-1.743 2.605-2.3 3.799-2.102 1.761.296 2.578 1.985 2.74 3.638 1.284-2.057 2.793-2.704 4.069-2.488 2.299.386 3.027 3.134 2.694 5.093l-1.401 8.272-.117 1.698-3.17-.54.449-1.643 1.033-6.09c.512-3 .018-4.221-.809-4.365-1.5-.252-2.676 3.224-3.503 5.703l-.691 4.078-.117 1.698-3.171-.539v.027Z"/>
    <path fill="#C12202" d="M183.148 71.236a6.116 6.116 0 0 1-3.908.404c-2.991-.71-3.889-3.26-3.341-5.578.584-2.461 2.928-4.617 6.234-3.836a5.629 5.629 0 0 1 2.775 1.635c.449-2.138-.602-3.422-1.949-3.745-.979-.234-2.12.09-2.964 1.158l-1.805-2.227c1.823-1.698 3.862-2.093 5.658-1.671 2.74.656 4.77 3.288 4.078 6.198l-1.823 7.662-.171 1.706-3.018-.718.234-.98v-.008Zm.979-4.114c-.252-1.06-1.303-2.084-2.318-2.318-1.428-.341-2.515.638-2.802 1.842-.323 1.374.395 2.452 1.76 2.784.979.234 2.201-.063 3.054-1.042l.297-1.257.009-.01Z"/>
    <path fill="#C12202" d="m189.929 59.1 3.476 1.033c-.278.216-.44.98-.404 1.653l.332 8.587 4.959-7.015c.377-.548.673-1.266.565-1.599l3.144.934-8.712 12.414c-1.968 2.802-3.863 6.647-7.716 5.506-1.653-.494-2.668-2.111-3.324-4.258l2.947-1.132c.161 1.671.673 2.48 1.338 2.677 1.437.422 2.668-1.608 4.06-3.593l-.656-15.188-.009-.018Z"/>
    <path fill="#EF4B23" d="m51.865 75.233-.216-1.698-4.033-15.018-.89.242c-2.523.683-3.278 2.542-2.838 4.186.468 1.752 2.29 3.224 4.707 2.578l.072.278c.341 1.276-.144 2.363-1.446 2.713-2.856.772-5.56-1.635-6.26-4.267-1.034-3.826 1.347-7.266 5.065-8.263l3.827-1.033.215 1.697 4.033 15.019 6.827-1.833c.637-.17.997-.27 1.58-.664l.809 3-11.461 3.08.009-.017Zm9.125-23.049 2.075 3.692-1.428.323-3.835-3.287 3.197-.719-.009-.009Zm2.533 20.084-.152-1.706-2.29-10.15c-.144-.647-.243-1.096-.603-1.608l2.713-2.084 2.982 13.204.602 1.608-3.252.736Zm10.312-2.254 3-8.057-5.129-6.153 3.737-.638c-.1.252.072.602.404.98l2.2 2.631 1.177-3.206c.18-.468.234-.854.054-1.06l3.737-.638-2.803 7.5 5.497 6.61-3.736.639c.108-.252-.072-.602-.404-.98l-2.533-3.062-1.402 3.736c-.18.467-.233.854-.053 1.06l-3.737.638h-.01Zm11.308-22.222 1.76 3.844-1.454.207L81.9 48.25l3.242-.458Zm.863 20.219v-1.716c-.916-6.458-.548-3.844-1.455-10.302-.09-.656-.153-1.114-.468-1.644l2.875-1.85 1.877 13.41.467 1.644-3.305.467.009-.01Zm9.234-15.683c1.634-.144 1.697-.377 1.607-1.437l-.072-.8c-.072-.799-.143-1.634-.422-2.182l2.964-1.698.503 5.73 4.294-.376.224 2.577-4.293.378.557 6.44c.143 1.608.619 2.856 1.599 2.775.979-.08 1.302-1.266 1.643-2.02l2.363 1.643c-.988 1.904-2.165 2.928-3.827 3.072-1.922.17-4.275-1.042-4.59-4.617l-.503-5.757c-.09-1.06-.197-1.285-1.832-1.141l-.225-2.578.01-.009Zm12.026 13.375.153-1.707c-.287-6.521-.44-10.195-.727-16.716-.027-.665-.045-1.123-.306-1.689l3.036-1.571.413 9.422c.746-1.446 1.905-2.614 3.683-2.695 2.443-.108 4.338 1.797 4.509 5.874l.296 6.89.306 1.688-3.332.144.152-1.706-.305-7.007c-.099-2.21-1.042-3.377-2.129-3.332-1.662.072-2.416 2.722-2.973 4.994l.242 5.57.306 1.688-3.333.144.009.008Zm16.258-4.753c.683.98 1.743 1.68 3.18 1.69 1.266 0 2.245-.566 2.91-1.85l2.201 1.85c-1.249 1.886-3.09 2.883-5.309 2.874-4.715-.027-7.051-3.952-7.024-7.77.018-3.647 2.282-7.203 6.764-7.176 2.901.018 5.676 1.904 5.658 5.21 0 1.203-.673 2.299-3.089 3.197l-5.3 1.985.009-.01Zm3.575-11.532-.763-2.156-.818 2.147-3.072-.018 3.153-4.033h1.464l3.108 4.078-3.072-.018Zm-.216 7.536c2.048-.71 1.878-1.195 1.878-1.51 0-1.293-1.051-2.02-2.318-2.02-2.497-.018-3.781 2.191-3.79 4.464 0 .17 0 .341.027.521l4.203-1.437v-.018Zm12.62 8.712.288-1.68.413-6.17c.198-3.036-.413-4.204-1.249-4.257-1.518-.1-2.335 3.476-2.91 6.063l-.269 4.104.117 1.707-3.333-.225.342-1.68.673-10.095c.045-.665.072-1.123-.117-1.707l3.189-1.23-.198 2.982c1.042-1.86 2.363-2.551 3.566-2.47 1.779.116 2.767 1.715 3.09 3.35 1.069-2.174 2.506-2.973 3.791-2.892 2.326.152 3.332 2.811 3.197 4.796l-.557 8.38.063 1.707-3.215-.215.287-1.68.413-6.17c.207-3.037-.413-4.204-1.239-4.258-1.518-.1-2.336 3.476-2.91 6.027l-.279 4.132.063 1.706-3.216-.216v-.008Zm24.791 2.74.449-1.644 1.033-6.09c.512-3 .018-4.221-.808-4.365-1.5-.251-2.677 3.225-3.503 5.73l-.683 4.052-.054 1.706-3.287-.557.512-1.634 1.688-9.98c.108-.655.189-1.104.054-1.706l3.297-.898-.503 2.946c1.23-1.743 2.605-2.3 3.799-2.102 1.761.296 2.578 1.985 2.74 3.638 1.284-2.057 2.793-2.704 4.069-2.488 2.299.386 3.027 3.134 2.694 5.093l-1.401 8.272-.117 1.698-3.17-.54.449-1.643 1.033-6.09c.512-3 .018-4.221-.809-4.365-1.5-.252-2.676 3.224-3.503 5.703l-.691 4.078-.117 1.698-3.171-.539v.027Zm18.854 2.83a6.116 6.116 0 0 1-3.908.404c-2.991-.71-3.889-3.26-3.341-5.578.584-2.461 2.928-4.617 6.234-3.836a5.629 5.629 0 0 1 2.775 1.635c.449-2.138-.602-3.422-1.949-3.745-.979-.234-2.12.09-2.964 1.158l-1.805-2.227c1.823-1.698 3.862-2.093 5.658-1.671 2.74.656 4.77 3.288 4.078 6.198l-1.823 7.662-.171 1.706-3.018-.718.234-.98v-.008Zm.979-4.114c-.252-1.06-1.303-2.084-2.318-2.318-1.428-.341-2.515.638-2.802 1.842-.323 1.374.395 2.452 1.76 2.784.979.234 2.201-.063 3.054-1.042l.297-1.257.009-.01Z"/>
    <path fill="#EF4B23" d="m189.929 59.1 3.476 1.033c-.278.216-.44.98-.404 1.653l.332 8.587 4.959-7.015c.377-.548.673-1.266.565-1.599l3.144.934-8.712 12.414c-1.968 2.802-3.863 6.647-7.716 5.506-1.653-.494-2.668-2.111-3.324-4.258l2.947-1.132c.161 1.671.673 2.48 1.338 2.677 1.437.422 2.668-1.608 4.06-3.593l-.656-15.188-.009-.018Z"/>
    <path fill="#FFF400" d="m51.865 73.697-.216-1.698-4.033-15.018-.89.242c-2.523.683-3.278 2.542-2.838 4.186.468 1.752 2.29 3.225 4.707 2.578l.072.278c.341 1.276-.144 2.363-1.446 2.713-2.856.772-5.56-1.635-6.26-4.267-1.034-3.826 1.347-7.266 5.065-8.263l3.827-1.033.215 1.697 4.033 15.019 6.827-1.833c.637-.17.997-.27 1.58-.664l.809 3-11.461 3.08.009-.017Zm9.125-23.049 2.075 3.692-1.428.323-3.835-3.287 3.197-.719-.009-.009Zm2.533 20.093-.152-1.706-2.29-10.15c-.144-.647-.243-1.096-.603-1.608l2.713-2.084 2.982 13.204.602 1.608-3.252.736Zm10.312-2.263 3-8.057-5.129-6.153 3.737-.638c-.1.252.072.602.404.98l2.2 2.631 1.177-3.206c.18-.467.234-.854.054-1.06l3.737-.638-2.803 7.5 5.497 6.611-3.736.638c.108-.252-.072-.602-.404-.98l-2.533-3.062-1.402 3.736c-.18.467-.233.854-.053 1.06l-3.737.638h-.01Zm11.308-22.222 1.76 3.844-1.454.207-3.548-3.593 3.242-.458Zm.863 20.228v-1.716c-.916-6.458-.548-3.844-1.455-10.302-.09-.656-.153-1.114-.468-1.644l2.875-1.85 1.877 13.41.467 1.644-3.305.467.009-.01Zm9.234-15.692c1.634-.144 1.697-.377 1.607-1.437l-.072-.8c-.072-.799-.143-1.634-.422-2.182l2.964-1.698.503 5.73 4.294-.376.224 2.577-4.293.378.557 6.44c.143 1.608.619 2.856 1.599 2.775.979-.08 1.302-1.266 1.643-2.02l2.363 1.643c-.988 1.904-2.165 2.928-3.827 3.072-1.922.17-4.275-1.042-4.59-4.617l-.503-5.757c-.09-1.06-.197-1.285-1.832-1.141L95.23 50.8l.01-.009Zm12.026 13.383.153-1.706c-.287-6.521-.44-10.195-.727-16.716-.027-.665-.045-1.123-.306-1.688l3.036-1.572.413 9.422c.746-1.446 1.905-2.614 3.683-2.695 2.443-.108 4.338 1.797 4.509 5.874l.296 6.89.306 1.688-3.332.144.152-1.706-.305-7.007c-.099-2.21-1.042-3.377-2.129-3.332-1.662.072-2.416 2.722-2.973 4.994l.242 5.57.306 1.688-3.333.144.009.008Zm16.258-4.751c.683.979 1.743 1.68 3.18 1.689 1.266 0 2.245-.566 2.91-1.85l2.201 1.85c-1.249 1.886-3.09 2.883-5.309 2.874-4.715-.027-7.051-3.952-7.024-7.77.018-3.646 2.282-7.203 6.764-7.176 2.901.018 5.676 1.904 5.658 5.21 0 1.203-.673 2.299-3.089 3.197l-5.3 1.985.009-.01Zm3.575-11.542-.763-2.156-.818 2.147-3.072-.018 3.153-4.033h1.464l3.108 4.078-3.072-.018Zm-.216 7.536c2.048-.71 1.878-1.195 1.878-1.51 0-1.293-1.051-2.02-2.318-2.02-2.497-.018-3.781 2.192-3.79 4.464 0 .17 0 .341.027.521l4.203-1.437v-.018Zm12.62 8.722.288-1.68.413-6.17c.198-3.037-.413-4.204-1.249-4.258-1.518-.1-2.335 3.476-2.91 6.063l-.269 4.104.117 1.707-3.333-.224.342-1.68.673-10.096c.045-.665.072-1.123-.117-1.707l3.189-1.23-.198 2.982c1.042-1.86 2.363-2.551 3.566-2.47 1.779.116 2.767 1.715 3.09 3.35 1.069-2.174 2.506-2.973 3.791-2.892 2.326.153 3.332 2.811 3.197 4.796l-.557 8.38.063 1.707-3.215-.215.287-1.68.413-6.17c.207-3.037-.413-4.204-1.239-4.258-1.518-.1-2.336 3.476-2.91 6.027l-.279 4.131.063 1.707-3.216-.216v-.008Zm24.791 2.73.449-1.644 1.033-6.09c.512-3 .018-4.221-.808-4.365-1.5-.251-2.677 3.225-3.503 5.73l-.683 4.052-.054 1.706-3.287-.557.512-1.634 1.688-9.98c.108-.655.189-1.104.054-1.706l3.297-.898-.503 2.946c1.23-1.743 2.605-2.3 3.799-2.102 1.761.296 2.578 1.985 2.74 3.638 1.284-2.057 2.793-2.704 4.069-2.488 2.299.386 3.027 3.134 2.694 5.093l-1.401 8.272-.117 1.698-3.17-.54.449-1.643 1.033-6.09c.512-3 .018-4.221-.809-4.365-1.5-.252-2.676 3.224-3.503 5.704l-.691 4.078-.117 1.697-3.171-.539v.027Zm18.854 2.83a6.115 6.115 0 0 1-3.908.404c-2.991-.71-3.889-3.26-3.341-5.578.584-2.461 2.928-4.617 6.234-3.836a5.628 5.628 0 0 1 2.775 1.635c.449-2.138-.602-3.422-1.949-3.745-.979-.234-2.12.09-2.964 1.158l-1.805-2.227c1.823-1.698 3.862-2.093 5.658-1.67 2.74.655 4.77 3.286 4.078 6.197l-1.823 7.662-.171 1.706-3.018-.719.234-.978v-.01Zm.979-4.105c-.252-1.06-1.303-2.084-2.318-2.318-1.428-.341-2.515.638-2.802 1.842-.323 1.374.395 2.452 1.76 2.784.979.234 2.201-.063 3.054-1.042l.297-1.257.009-.01Z"/>
    <path fill="#FFF400" d="m189.929 57.565 3.476 1.033c-.278.215-.44.979-.404 1.652l.332 8.587 4.959-7.015c.377-.548.673-1.266.565-1.599l3.144.934-8.712 12.414c-1.968 2.802-3.863 6.647-7.716 5.506-1.653-.494-2.668-2.11-3.324-4.258l2.947-1.131c.161 1.67.673 2.479 1.338 2.676 1.437.422 2.668-1.608 4.06-3.593l-.656-15.188-.009-.018Z"/>
  </g>
  <defs>
    <clipPath id="a">
      <path fill="#fff" d="M0 .802h244v103H0z"/>
    </clipPath>
  </defs>
</svg>
