<svg xmlns="http://www.w3.org/2000/svg" width="171" height="76" fill="none" viewBox="0 0 171 76">
  <path fill="#C12202" d="m20.757 44.482-.162-1.383-3.144-12.287c-1.886.43-3.754 1.248-3.143 3.628.368 1.428 1.832 2.641 3.8 2.138l.053.225c.27 1.042-.135 1.913-1.204 2.182-2.326.593-4.5-1.383-5.048-3.53-.799-3.125 1.168-5.892 4.204-6.664l3.8-.97c2.604-.665 3.745-1.393 3.242-3.36l.225-.054c1.042-.27 1.913.135 2.182 1.204.593 2.326-1.608 3.593-5.075 4.482l-.772.198 3.126 12.242.52 1.285-2.622.673z"/>
  <path fill="#C12202" d="M27.098 39.408c.719.655 1.68 1.014 2.82.763 1.007-.224 1.68-.844 1.977-1.985l2.075 1.078c-.647 1.724-1.932 2.838-3.692 3.224-3.737.818-6.288-1.868-6.952-4.904-.638-2.892.52-6.117 4.078-6.898 2.3-.503 4.841.494 5.416 3.117.206.96-.126 1.94-1.877 3.09zm.764-9.773-.988-1.572-.26 1.85-2.444.54 1.778-3.764 1.16-.252 3.188 2.668-2.443.539zm1.176 6c1.491-.925 1.276-1.284 1.213-1.536-.225-1.024-1.195-1.41-2.2-1.194-1.986.43-2.605 2.407-2.21 4.212q.04.203.107.404l3.072-1.895zm3.045-12.377-1.688 3.745-1.159.252.252-3.422 2.595-.566zm.584 6.539c1.312-.243 1.348-.44 1.186-1.285l-.117-.646c-.117-.647-.242-1.312-.512-1.734l2.273-1.608.844 4.59 3.45-.638.376 2.066-3.449.638.952 5.165c.234 1.284.728 2.263 1.51 2.12.78-.144.96-1.123 1.176-1.761l2.039 1.14c-.656 1.617-1.527 2.534-2.865 2.785-1.536.288-3.54-.512-4.07-3.386l-.844-4.617c-.152-.853-.26-1.024-1.572-.781l-.377-2.066zm21.845 8.308.027-1.392-1.437-12.557-.746.08c-2.11.243-2.937 1.653-2.776 3.019.171 1.464 1.456 2.865 3.477 2.632l.027.233c.125 1.069-.396 1.877-1.483 2.003-2.389.27-4.266-1.976-4.526-4.186-.369-3.206 1.958-5.676 5.065-6.036l3.135-.359 7.006 10.877-1.167-10.158-.342-1.348 2.695-.305L63.44 22l1.707 14.875-2.578.296-6.836-10.599 1.132 9.863.341 1.347-2.694.305zm20.946 4.321c.862-.108 1.734-.081 2.596-.01-.422-5.964-9.332-4.293-9.485-6.763a.88.88 0 0 1 .377-.79c.719.233 1.518.35 2.452.296 5.57-.341 6.566-6.36 3.593-9.135.467-.422.898-.988 1.23-1.76l-2.12-1.437c-.367 1.31-.87 1.904-1.445 1.984a6.7 6.7 0 0 0-1.878-.143c-5.452.332-6.584 6.341-3.637 9.108-.503.637-.79 1.59-.746 2.434.081 1.401.997 2.138 2.192 2.632.368.107 2.21.62 2.263.637 2.174.503 4.357.97 4.617 2.956zm-4.554-15.432c3.961-.242 4.339 5.587.35 5.83-3.943.242-4.32-5.587-.35-5.83m13.159 9.099.162-1.383v-.44c-.638 1.158-1.608 2.084-3.054 2.11-1.985.036-3.485-1.544-3.548-4.859l-.09-4.437c-.009-.539-.018-.907-.216-1.374l2.497-1.213.135 7.078c.036 1.796.782 2.767 1.662 2.749 1.356-.027 2.012-2.165 2.515-3.997l-.063-3.36c-.009-.539-.018-.907-.216-1.374l2.497-1.213.198 10.303.216 1.374-2.713.054z"/>
  <path fill="#C12202" d="m87.602 24.354 2.946.062c-.17.234-.135.863.045 1.384l2.102 6.655 2.38-6.566c.17-.512.26-1.14.099-1.374l2.659.054-4.159 11.596c-.943 2.623-1.599 6.045-4.868 5.973-1.401-.027-2.551-1.078-3.521-2.623l2.066-1.527c.485 1.276 1.06 1.797 1.625 1.806 1.213.027 1.743-1.833 2.416-3.692l-3.781-11.757zm13.285 8.622c.512.827 1.338 1.438 2.506 1.51 1.024.062 1.85-.36 2.443-1.375l1.706 1.599c-1.095 1.482-2.631 2.21-4.428 2.102-3.826-.225-5.542-3.512-5.362-6.611.18-2.964 2.165-5.74 5.802-5.524 2.354.143 4.527 1.787 4.366 4.473-.054.979-.647 1.832-2.65 2.461l-4.383 1.374zm2.901-3.098c1.689-.486 1.572-.89 1.59-1.15.063-1.051-.764-1.68-1.788-1.743-2.03-.116-3.161 1.617-3.269 3.458 0 .144-.018.279 0 .422l3.476-.987zm.503-6.108-.53-1.788-.755 1.707-2.497-.153 2.74-3.135 1.186.072 2.344 3.44-2.497-.152zm3.898 13.123.323-1.348.827-8.174c.054-.53.09-.907-.045-1.392l2.623-.907-.234 2.326c.925-1.266 2.048-1.904 3.279-1.778 1.976.197 3.278 1.95 2.946 5.246l-.566 5.577.045 1.393-2.695-.27.324-1.347.574-5.668c.18-1.787-.44-2.838-1.32-2.928-1.275-.126-2.228 1.653-2.946 3.341l-.485 4.833.045 1.392-2.695-.27zm23.273 3.053.126-.736c-1.033.512-2.075.647-3.018.485-3.27-.548-4.429-3.8-3.926-6.79.512-3.019 2.668-5.731 6.054-5.165a4.4 4.4 0 0 1 2.578 1.428l.297-1.77-2.3-.386.315-1.841 2.299.386.063-.368c.09-.53.153-.898.045-1.392l2.677-.737-.486 2.874.692.117-.305 1.841-.692-.116-1.886 11.191-.045 1.393-2.488-.422zm1.356-8.03c-.449-1.122-1.275-1.733-2.12-1.877-1.931-.323-3.188 1.356-3.503 3.225-.332 1.976.405 4.212 2.524 4.572.737.125 1.5-.054 2.21-.62zm8.542 9.198a4.9 4.9 0 0 1-3.171.395c-2.443-.52-3.215-2.578-2.811-4.473.431-2.012 2.299-3.808 4.994-3.224.844.18 1.68.646 2.282 1.275.323-1.742-.548-2.766-1.644-3.009-.8-.17-1.716.108-2.389.988l-1.509-1.778c1.446-1.41 3.107-1.77 4.562-1.455 2.237.485 3.935 2.586 3.423 4.967l-1.348 6.26-.107 1.383-2.471-.53.171-.799zm.719-3.36c-.225-.861-1.096-1.67-1.923-1.85-1.167-.251-2.029.566-2.245 1.545-.243 1.123.359 1.986 1.482 2.228.799.17 1.787-.09 2.461-.907l.225-1.024zm3.431-11.415-3.09 2.703-1.168-.251 1.653-3.018 2.605.556zm-.871 16.338.53-1.284 2.092-7.95c.135-.52.234-.88.171-1.383l2.74-.485-.593 2.255c1.114-1.105 2.317-1.563 3.512-1.249 1.922.503 2.937 2.434 2.093 5.64l-1.419 5.426-.171 1.383-2.623-.691.53-1.285 1.446-5.515c.458-1.742 0-2.874-.853-3.099-1.24-.323-2.461 1.285-3.431 2.839l-1.231 4.697-.171 1.384-2.622-.692zm-123.882.27-.162-1.384-3.144-12.287c-1.886.43-3.754 1.248-3.143 3.628.368 1.429 1.832 2.641 3.8 2.138l.053.225c.27 1.042-.135 1.913-1.204 2.182-2.326.593-4.5-1.383-5.048-3.53-.799-3.125 1.168-5.892 4.204-6.664l3.8-.97c2.604-.665 3.745-1.393 3.242-3.36l.225-.054c1.042-.27 1.913.135 2.182 1.204.593 2.326-1.608 3.593-5.075 4.482l-.772.198 3.126 12.242.52 1.285-2.622.674z"/>
  <path fill="#C12202" d="M27.098 37.872c.719.655 1.68 1.015 2.82.763 1.007-.224 1.68-.844 1.977-1.985l2.075 1.078c-.647 1.724-1.932 2.838-3.692 3.224-3.737.818-6.288-1.868-6.952-4.904-.638-2.892.52-6.117 4.078-6.898 2.3-.503 4.841.494 5.416 3.117.206.96-.126 1.94-1.877 3.09zm.764-9.773-.988-1.572-.26 1.85-2.444.54 1.778-3.764 1.16-.252 3.188 2.668-2.443.539zm1.176 6c1.491-.925 1.276-1.284 1.213-1.536-.225-1.024-1.195-1.41-2.2-1.195-1.986.432-2.605 2.408-2.21 4.213q.04.203.107.404l3.072-1.895zm3.045-12.377-1.688 3.745-1.159.252.252-3.422 2.595-.566zm.584 6.548c1.312-.243 1.348-.44 1.186-1.285l-.117-.646c-.117-.647-.242-1.312-.512-1.734l2.273-1.608.844 4.59 3.45-.638.376 2.066-3.449.638.952 5.165c.234 1.284.728 2.263 1.51 2.12.78-.144.96-1.123 1.176-1.761l2.039 1.14c-.656 1.617-1.527 2.534-2.865 2.785-1.536.288-3.54-.512-4.07-3.386l-.844-4.617c-.152-.853-.26-1.024-1.572-.781l-.377-2.066zm21.845 8.308.027-1.392-1.437-12.557-.746.08c-2.11.243-2.937 1.653-2.776 3.019.171 1.464 1.456 2.865 3.477 2.631l.027.234c.125 1.069-.396 1.877-1.483 2.003-2.389.27-4.266-1.976-4.526-4.186-.369-3.206 1.958-5.676 5.065-6.036l3.135-.359 7.006 10.877-1.167-10.158-.342-1.348 2.695-.305-.027 1.392 1.707 14.875-2.578.296-6.836-10.599 1.132 9.862.341 1.348-2.694.305zm20.946 4.312c.862-.108 1.734-.081 2.596-.01-.422-5.964-9.332-4.293-9.485-6.763a.88.88 0 0 1 .377-.79c.719.233 1.518.35 2.452.296 5.57-.341 6.566-6.36 3.593-9.135.467-.422.898-.988 1.23-1.76l-2.12-1.437c-.367 1.31-.87 1.904-1.445 1.985a6.7 6.7 0 0 0-1.878-.144c-5.452.332-6.584 6.341-3.637 9.108-.503.637-.79 1.59-.746 2.434.081 1.401.997 2.138 2.192 2.632.368.108 2.21.62 2.263.637 2.174.503 4.357.97 4.617 2.956zm-4.554-15.432c3.961-.242 4.339 5.587.35 5.83-3.943.242-4.32-5.587-.35-5.83m13.159 9.099.162-1.383v-.44c-.638 1.158-1.608 2.084-3.054 2.11-1.985.036-3.485-1.544-3.548-4.859l-.09-4.437c-.009-.539-.018-.907-.216-1.374l2.497-1.213.135 7.078c.036 1.797.782 2.767 1.662 2.749 1.356-.027 2.012-2.165 2.515-3.997l-.063-3.36c-.009-.539-.018-.907-.216-1.374l2.497-1.213.198 10.303.216 1.374-2.713.054z"/>
  <path fill="#C12202" d="m87.602 22.818 2.946.062c-.17.234-.135.863.045 1.384l2.102 6.655 2.38-6.565c.17-.512.26-1.141.099-1.375l2.659.054-4.159 11.596c-.943 2.623-1.599 6.045-4.868 5.973-1.401-.027-2.551-1.078-3.521-2.623l2.066-1.527c.485 1.276 1.06 1.797 1.625 1.806 1.213.027 1.743-1.833 2.416-3.692l-3.781-11.758zm13.285 8.622c.512.827 1.338 1.437 2.506 1.51 1.024.062 1.85-.36 2.443-1.375l1.706 1.599c-1.095 1.482-2.631 2.21-4.428 2.102-3.826-.225-5.542-3.512-5.362-6.611.18-2.964 2.165-5.74 5.802-5.524 2.354.144 4.527 1.787 4.366 4.473-.054.979-.647 1.832-2.65 2.461l-4.383 1.374zm2.901-3.099c1.689-.485 1.572-.889 1.59-1.15.063-1.05-.764-1.679-1.788-1.742-2.03-.117-3.161 1.617-3.269 3.458 0 .144-.018.279 0 .422l3.476-.988zm.503-6.098-.53-1.788-.755 1.707-2.497-.153 2.74-3.135 1.186.072 2.344 3.44-2.497-.152zm3.898 13.114.323-1.348.827-8.174c.054-.53.09-.907-.045-1.392l2.623-.907-.234 2.326c.925-1.266 2.048-1.904 3.279-1.778 1.976.198 3.278 1.95 2.946 5.246l-.566 5.578.045 1.392-2.695-.27.324-1.347.574-5.668c.18-1.787-.44-2.838-1.32-2.928-1.275-.126-2.228 1.653-2.946 3.341l-.485 4.833.045 1.392-2.695-.27zm23.273 3.053.126-.736c-1.033.512-2.075.647-3.018.485-3.27-.548-4.429-3.8-3.926-6.79.512-3.018 2.668-5.731 6.054-5.165a4.4 4.4 0 0 1 2.578 1.428l.297-1.77-2.3-.386.315-1.841 2.299.386.063-.368c.09-.53.153-.898.045-1.392l2.677-.737-.486 2.874.692.117-.305 1.841-.692-.116-1.886 11.191-.045 1.393-2.488-.422zm1.356-8.03c-.449-1.122-1.275-1.733-2.12-1.877-1.931-.323-3.188 1.357-3.503 3.225-.332 1.976.405 4.212 2.524 4.572.737.125 1.5-.054 2.21-.62zm8.542 9.198a4.9 4.9 0 0 1-3.171.395c-2.443-.52-3.215-2.578-2.811-4.473.431-2.012 2.299-3.808 4.994-3.224.844.18 1.68.646 2.282 1.275.323-1.742-.548-2.766-1.644-3.009-.8-.17-1.716.108-2.389.988l-1.509-1.778c1.446-1.41 3.107-1.77 4.562-1.455 2.237.485 3.935 2.587 3.423 4.967l-1.348 6.26-.107 1.384-2.471-.53.171-.8zm.719-3.35c-.225-.862-1.096-1.67-1.923-1.85-1.167-.252-2.029.565-2.245 1.544-.243 1.123.359 1.986 1.482 2.228.799.17 1.787-.09 2.461-.907l.225-1.024zm3.431-11.425-3.09 2.703-1.168-.251 1.653-3.018 2.605.557zm-.871 16.338.53-1.284 2.092-7.95c.135-.52.234-.88.171-1.383l2.74-.485-.593 2.255c1.114-1.105 2.317-1.563 3.512-1.249 1.922.503 2.937 2.434 2.093 5.64l-1.419 5.426-.171 1.383-2.623-.691.53-1.285 1.446-5.515c.458-1.742 0-2.874-.853-3.099-1.24-.323-2.461 1.285-3.431 2.839l-1.231 4.697-.171 1.384-2.622-.692z"/>
  <path fill="#EF4B23" d="m20.757 42.947-.162-1.384-3.144-12.287c-1.886.43-3.754 1.248-3.143 3.628.368 1.429 1.832 2.641 3.8 2.138l.053.225c.27 1.042-.135 1.913-1.204 2.182-2.326.593-4.5-1.383-5.048-3.53-.799-3.125 1.168-5.892 4.204-6.664l3.8-.97c2.604-.665 3.745-1.393 3.242-3.36l.225-.054c1.042-.27 1.913.135 2.182 1.204.593 2.326-1.608 3.593-5.075 4.482l-.772.198 3.126 12.242.52 1.285-2.622.674z"/>
  <path fill="#EF4B23" d="M27.098 37.872c.719.655 1.68 1.015 2.82.763 1.007-.224 1.68-.844 1.977-1.985l2.075 1.078c-.647 1.724-1.932 2.838-3.692 3.224-3.737.818-6.288-1.868-6.952-4.904-.638-2.892.52-6.117 4.078-6.898 2.3-.503 4.841.494 5.416 3.117.206.96-.126 1.94-1.877 3.09zm.764-9.773-.988-1.572-.26 1.85-2.444.54 1.778-3.764 1.16-.252 3.188 2.668-2.443.539zm1.176 6c1.491-.925 1.276-1.284 1.213-1.536-.225-1.024-1.195-1.41-2.2-1.195-1.986.432-2.605 2.408-2.21 4.213q.04.203.107.404l3.072-1.895zm3.045-12.377-1.688 3.745-1.159.252.252-3.422 2.595-.566zm.584 6.548c1.312-.243 1.348-.44 1.186-1.285l-.117-.646c-.117-.647-.242-1.312-.512-1.734l2.273-1.608.844 4.59 3.45-.638.376 2.066-3.449.638.952 5.165c.234 1.284.728 2.263 1.51 2.12.78-.144.96-1.123 1.176-1.761l2.039 1.14c-.656 1.617-1.527 2.534-2.865 2.785-1.536.288-3.54-.512-4.07-3.386l-.844-4.617c-.152-.853-.26-1.024-1.572-.781l-.377-2.066zm21.845 8.308.027-1.392-1.437-12.557-.746.08c-2.11.243-2.937 1.653-2.776 3.019.171 1.464 1.456 2.865 3.477 2.631l.027.234c.125 1.069-.396 1.877-1.483 2.003-2.389.27-4.266-1.976-4.526-4.186-.369-3.206 1.958-5.676 5.065-6.036l3.135-.359 7.006 10.877-1.167-10.158-.342-1.348 2.695-.305-.027 1.392 1.707 14.875-2.578.296-6.836-10.599 1.132 9.862.341 1.348-2.694.305zm20.946 4.312c.862-.108 1.734-.081 2.596-.01-.422-5.964-9.332-4.293-9.485-6.763a.88.88 0 0 1 .377-.79c.719.233 1.518.35 2.452.296 5.57-.341 6.566-6.36 3.593-9.135.467-.422.898-.988 1.23-1.76l-2.12-1.437c-.367 1.31-.87 1.904-1.445 1.985a6.7 6.7 0 0 0-1.878-.144c-5.452.332-6.584 6.341-3.637 9.108-.503.637-.79 1.59-.746 2.434.081 1.401.997 2.138 2.192 2.632.368.108 2.21.62 2.263.637 2.174.503 4.357.97 4.617 2.956zm-4.554-15.432c3.961-.242 4.339 5.587.35 5.83-3.943.242-4.32-5.587-.35-5.83m13.159 9.099.162-1.383v-.44c-.638 1.158-1.608 2.084-3.054 2.11-1.985.036-3.485-1.544-3.548-4.859l-.09-4.437c-.009-.539-.018-.907-.216-1.374l2.497-1.213.135 7.078c.036 1.797.782 2.767 1.662 2.749 1.356-.027 2.012-2.165 2.515-3.997l-.063-3.36c-.009-.539-.018-.907-.216-1.374l2.497-1.213.198 10.303.216 1.374-2.713.054z"/>
  <path fill="#EF4B23" d="m87.602 22.818 2.946.062c-.17.234-.135.863.045 1.384l2.102 6.655 2.38-6.565c.17-.512.26-1.141.099-1.375l2.659.054-4.159 11.596c-.943 2.623-1.599 6.045-4.868 5.973-1.401-.027-2.551-1.078-3.521-2.623l2.066-1.527c.485 1.276 1.06 1.797 1.625 1.806 1.213.027 1.743-1.833 2.416-3.692l-3.781-11.758zm13.285 8.622c.512.827 1.338 1.437 2.506 1.51 1.024.062 1.85-.36 2.443-1.375l1.706 1.599c-1.095 1.482-2.631 2.21-4.428 2.102-3.826-.225-5.542-3.512-5.362-6.611.18-2.964 2.165-5.74 5.802-5.524 2.354.144 4.527 1.787 4.366 4.473-.054.979-.647 1.832-2.65 2.461l-4.383 1.374zm2.901-3.099c1.689-.485 1.572-.889 1.59-1.15.063-1.05-.764-1.679-1.788-1.742-2.03-.117-3.161 1.617-3.269 3.458 0 .144-.018.279 0 .422l3.476-.988zm.503-6.098-.53-1.788-.755 1.707-2.497-.153 2.74-3.135 1.186.072 2.344 3.44-2.497-.152zm3.898 13.114.323-1.348.827-8.174c.054-.53.09-.907-.045-1.392l2.623-.907-.234 2.326c.925-1.266 2.048-1.904 3.279-1.778 1.976.198 3.278 1.95 2.946 5.246l-.566 5.578.045 1.392-2.695-.27.324-1.347.574-5.668c.18-1.787-.44-2.838-1.32-2.928-1.275-.126-2.228 1.653-2.946 3.341l-.485 4.833.045 1.392-2.695-.27zm23.273 3.053.126-.736c-1.033.512-2.075.647-3.018.485-3.27-.548-4.429-3.8-3.926-6.79.512-3.018 2.668-5.731 6.054-5.165a4.4 4.4 0 0 1 2.578 1.428l.297-1.77-2.3-.386.315-1.841 2.299.386.063-.368c.09-.53.153-.898.045-1.392l2.677-.737-.486 2.874.692.117-.305 1.841-.692-.116-1.886 11.191-.045 1.393-2.488-.422zm1.356-8.03c-.449-1.122-1.275-1.733-2.12-1.877-1.931-.323-3.188 1.357-3.503 3.225-.332 1.976.405 4.212 2.524 4.572.737.125 1.5-.054 2.21-.62zm8.542 9.198a4.9 4.9 0 0 1-3.171.395c-2.443-.52-3.215-2.578-2.811-4.473.431-2.012 2.299-3.808 4.994-3.224.844.18 1.68.646 2.282 1.275.323-1.742-.548-2.766-1.644-3.009-.8-.17-1.716.108-2.389.988l-1.509-1.778c1.446-1.41 3.107-1.77 4.562-1.455 2.237.485 3.935 2.587 3.423 4.967l-1.348 6.26-.107 1.384-2.471-.53.171-.8zm.719-3.35c-.225-.862-1.096-1.67-1.923-1.85-1.167-.252-2.029.565-2.245 1.544-.243 1.123.359 1.986 1.482 2.228.799.17 1.787-.09 2.461-.907l.225-1.024zm3.431-11.425-3.09 2.703-1.168-.251 1.653-3.018 2.605.557zm-.871 16.338.53-1.284 2.092-7.95c.135-.52.234-.88.171-1.383l2.74-.485-.593 2.255c1.114-1.105 2.317-1.563 3.512-1.249 1.922.503 2.937 2.434 2.093 5.64l-1.419 5.426-.171 1.383-2.623-.691.53-1.285 1.446-5.515c.458-1.742 0-2.874-.853-3.099-1.24-.323-2.461 1.285-3.431 2.839l-1.231 4.697-.171 1.384-2.622-.692z"/>
  <path fill="#FFF400" d="m20.757 41.41-.162-1.383-3.144-12.287c-1.886.43-3.754 1.248-3.143 3.629.368 1.428 1.832 2.64 3.8 2.137l.053.225c.27 1.042-.135 1.913-1.204 2.182-2.326.593-4.5-1.383-5.048-3.53-.799-3.125 1.168-5.892 4.204-6.664l3.8-.97c2.604-.665 3.745-1.393 3.242-3.36l.225-.054c1.042-.269 1.913.135 2.182 1.204.593 2.326-1.608 3.593-5.075 4.482l-.772.198L22.84 39.46l.52 1.285-2.622.673z"/>
  <path fill="#FFF400" d="M27.098 36.345c.719.655 1.68 1.015 2.82.763 1.007-.224 1.68-.844 1.977-1.985l2.075 1.078c-.647 1.724-1.932 2.838-3.692 3.224-3.737.818-6.288-1.868-6.952-4.904-.638-2.892.52-6.117 4.078-6.898 2.3-.503 4.841.494 5.416 3.117.206.96-.126 1.94-1.877 3.09zm.764-9.782-.988-1.572-.26 1.85-2.444.54 1.778-3.764 1.16-.252 3.188 2.668-2.443.539zm1.176 6.01c1.491-.926 1.276-1.285 1.213-1.537-.225-1.024-1.195-1.41-2.2-1.195-1.986.432-2.605 2.408-2.21 4.213q.04.203.107.404l3.072-1.895zm3.045-12.387-1.688 3.745-1.159.252.252-3.422 2.595-.566zm.584 6.548c1.312-.243 1.348-.44 1.186-1.285l-.117-.647c-.117-.646-.242-1.31-.512-1.733l2.273-1.608.844 4.59 3.45-.638.376 2.066-3.449.638.952 5.165c.234 1.284.728 2.263 1.51 2.12.78-.144.96-1.123 1.176-1.761l2.039 1.14c-.656 1.617-1.527 2.534-2.865 2.785-1.536.288-3.54-.512-4.07-3.386l-.844-4.617c-.152-.853-.26-1.024-1.572-.781l-.377-2.066zm21.845 8.308.027-1.392-1.437-12.557-.746.08c-2.11.243-2.937 1.654-2.776 3.019.171 1.464 1.456 2.865 3.477 2.631l.027.234c.125 1.069-.396 1.877-1.483 2.003-2.389.27-4.266-1.976-4.526-4.186-.369-3.206 1.958-5.676 5.065-6.036l3.135-.359 7.006 10.878-1.167-10.16-.342-1.347 2.695-.305-.027 1.392 1.707 14.875-2.578.296-6.836-10.599 1.132 9.862.341 1.348-2.694.305zm20.946 4.312c.862-.108 1.734-.081 2.596-.01-.422-5.964-9.332-4.293-9.485-6.763a.88.88 0 0 1 .377-.79c.719.233 1.518.35 2.452.296 5.57-.341 6.566-6.36 3.593-9.135.467-.422.898-.988 1.23-1.76l-2.12-1.437c-.367 1.311-.87 1.904-1.445 1.985a6.7 6.7 0 0 0-1.878-.144c-5.452.332-6.584 6.341-3.637 9.108-.503.637-.79 1.59-.746 2.434.081 1.401.997 2.138 2.192 2.632.368.107 2.21.62 2.263.637 2.174.504 4.357.97 4.617 2.956zm-4.554-15.432c3.961-.242 4.339 5.587.35 5.83-3.943.242-4.32-5.587-.35-5.83m13.159 9.099.162-1.383v-.44c-.638 1.158-1.608 2.084-3.054 2.11-1.985.036-3.485-1.544-3.548-4.859l-.09-4.437c-.009-.539-.018-.907-.216-1.374l2.497-1.213.135 7.078c.036 1.797.782 2.767 1.662 2.749 1.356-.027 2.012-2.165 2.515-3.997l-.063-3.36c-.009-.539-.018-.907-.216-1.374l2.497-1.213.198 10.303.216 1.374-2.713.054z"/>
  <path fill="#FFF400" d="m87.602 21.282 2.946.062c-.17.234-.135.863.045 1.384l2.102 6.656 2.38-6.567c.17-.512.26-1.14.099-1.374l2.659.054-4.159 11.596c-.943 2.623-1.599 6.045-4.868 5.973-1.401-.027-2.551-1.078-3.521-2.623l2.066-1.526c.485 1.275 1.06 1.796 1.625 1.805 1.213.027 1.743-1.833 2.416-3.692l-3.781-11.757zm13.285 8.631c.512.827 1.338 1.438 2.506 1.51 1.024.062 1.85-.36 2.443-1.375l1.706 1.599c-1.095 1.482-2.631 2.21-4.428 2.102-3.826-.225-5.542-3.512-5.362-6.611.18-2.964 2.165-5.74 5.802-5.524 2.354.144 4.527 1.787 4.366 4.473-.054.979-.647 1.832-2.65 2.461l-4.383 1.374zm2.901-3.107c1.689-.486 1.572-.89 1.59-1.15.063-1.051-.764-1.68-1.788-1.743-2.03-.116-3.161 1.617-3.269 3.458 0 .144-.018.279 0 .423l3.476-.988zm.503-6.1-.53-1.787-.755 1.707-2.497-.153 2.74-3.135 1.186.072 2.344 3.44-2.497-.152zm3.898 13.124.323-1.348.827-8.174c.054-.53.09-.907-.045-1.392l2.623-.907-.234 2.326c.925-1.266 2.048-1.904 3.279-1.778 1.976.198 3.278 1.95 2.946 5.246l-.566 5.577.045 1.393-2.695-.27.324-1.347.574-5.668c.18-1.787-.44-2.838-1.32-2.928-1.275-.126-2.228 1.653-2.946 3.341l-.485 4.833.045 1.392-2.695-.27zm23.273 3.054.126-.737c-1.033.512-2.075.647-3.018.485-3.27-.548-4.429-3.8-3.926-6.79.512-3.018 2.668-5.731 6.054-5.165a4.4 4.4 0 0 1 2.578 1.428l.297-1.77-2.3-.386.315-1.841 2.299.386.063-.368c.09-.53.153-.898.045-1.392l2.677-.737-.486 2.874.692.117-.305 1.842-.692-.117-1.886 11.191-.045 1.393-2.488-.422zm1.356-8.04c-.449-1.122-1.275-1.733-2.12-1.877-1.931-.323-3.188 1.357-3.503 3.225-.332 1.976.405 4.212 2.524 4.572.737.125 1.5-.054 2.21-.62zm8.542 9.198a4.9 4.9 0 0 1-3.171.395c-2.443-.52-3.215-2.577-2.811-4.473.431-2.012 2.299-3.808 4.994-3.224a4.57 4.57 0 0 1 2.282 1.275c.323-1.742-.548-2.766-1.644-3.009-.8-.17-1.716.108-2.389.988l-1.509-1.778c1.446-1.41 3.107-1.77 4.562-1.455 2.237.485 3.935 2.587 3.423 4.967l-1.348 6.26-.107 1.384-2.471-.53.171-.8zm.719-3.35c-.225-.862-1.096-1.67-1.923-1.85-1.167-.252-2.029.566-2.245 1.544-.243 1.123.359 1.986 1.482 2.228.799.17 1.787-.09 2.461-.907l.225-1.024zm3.431-11.425-3.09 2.703-1.168-.251 1.653-3.018 2.605.557zm-.871 16.338.53-1.284 2.092-7.95c.135-.52.234-.88.171-1.383l2.74-.485-.593 2.255c1.114-1.105 2.317-1.563 3.512-1.249 1.922.503 2.937 2.434 2.093 5.641l-1.419 5.425-.171 1.383-2.623-.691.53-1.285 1.446-5.515c.458-1.742 0-2.874-.853-3.098-1.24-.324-2.461 1.284-3.431 2.838l-1.231 4.697-.171 1.384-2.622-.692z"/>
  <path fill="#C12202" d="m5.72 74.393-.224-1.374a7177 7177 0 0 1-3.97-13.007c-.153-.511-.27-.87-.584-1.266l2.075-1.85 4.716 15.44.584 1.267-2.587.79zm3.854-17.955 1.832 2.91-1.15.323-3.25-2.506 2.56-.718zm5.785 14.29a4.9 4.9 0 0 1-2.614 1.824c-2.407.673-4.051-.782-4.572-2.65-.557-1.976.26-4.437 2.92-5.183a4.55 4.55 0 0 1 2.613.072c-.521-1.698-1.778-2.192-2.856-1.895-.79.224-1.473.898-1.653 1.985l-2.165-.871c.629-1.923 1.922-3.01 3.36-3.414 2.2-.62 4.688.458 5.344 2.803l1.724 6.162.548 1.275-2.434.683-.224-.79zm-.925-3.305c-.593-.656-1.752-.961-2.56-.737-1.15.324-1.536 1.446-1.267 2.416.306 1.105 1.249 1.59 2.344 1.285.79-.225 1.536-.916 1.76-1.95l-.287-1.014zm15.656.547-.117-1.383-2.722-12.386c-1.904.368-3.79 1.123-3.27 3.521.315 1.437 1.743 2.704 3.728 2.264l.054.224c.233 1.051-.198 1.913-1.276 2.147-2.353.52-4.446-1.536-4.922-3.7-.691-3.145 1.366-5.848 4.42-6.522l3.835-.844c2.623-.575 3.79-1.267 3.35-3.252l.225-.054c1.05-.233 1.913.198 2.146 1.276.522 2.353-1.733 3.539-5.218 4.302l-.773.171 2.713 12.341.476 1.303-2.65.584z"/>
  <path fill="#C12202" d="M36.583 63.111c.692.683 1.644 1.078 2.794.863 1.006-.189 1.706-.79 2.048-1.923l2.039 1.141c-.71 1.698-2.03 2.776-3.8 3.099-3.763.692-6.224-2.084-6.79-5.138-.54-2.919.736-6.099 4.311-6.754 2.318-.422 4.824.655 5.309 3.296.18.961-.189 1.931-1.985 3.027l-3.935 2.38zm1.105-9.745-.934-1.608-.323 1.841-2.461.45 1.904-3.701 1.167-.216 3.1 2.776-2.462.449zm.97 6.045c1.527-.872 1.312-1.24 1.267-1.491-.189-1.033-1.15-1.456-2.156-1.267-1.994.368-2.686 2.318-2.353 4.14.027.136.054.28.099.414l3.134-1.787zm3.467-12.27-1.814 3.683-1.168.215.369-3.413 2.622-.485zm.369 6.557c1.32-.197 1.356-.386 1.23-1.248l-.099-.647c-.098-.647-.197-1.32-.449-1.752l2.327-1.527.682 4.626 3.467-.512.306 2.084-3.467.512.772 5.2c.189 1.294.647 2.291 1.428 2.174.79-.116.997-1.095 1.23-1.715l2.004 1.212c-.71 1.59-1.617 2.48-2.955 2.686-1.545.225-3.521-.638-3.943-3.521l-.692-4.644c-.126-.853-.225-1.033-1.536-.835l-.305-2.084zm21.521 9.081.08-1.392-.987-12.602-.746.063c-2.12.161-2.99 1.545-2.883 2.919.117 1.464 1.356 2.92 3.377 2.757l.018.234c.081 1.069-.467 1.86-1.554 1.95-2.398.188-4.194-2.13-4.374-4.348-.252-3.216 2.165-5.605 5.282-5.848l3.143-.242 6.611 11.129-.8-10.195-.296-1.356 2.704-.216-.081 1.392 1.168 14.929-2.587.206-6.45-10.832.773 9.898.297 1.356-2.704.216zm14.551-2.731a.93.93 0 0 0-.404.782c.063 2.47 9.09 1.114 9.233 7.159.081 3.386-2.811 5.272-5.685 5.344-2.803.072-5.596-1.5-5.677-5.075-.036-1.59.62-3.449 2.021-4.248-1.177-.53-2.066-1.303-2.093-2.704-.018-.844.305-1.778.826-2.398-2.847-2.875-1.5-8.839 3.962-8.974a6.6 6.6 0 0 1 1.877.216c.584-.063 1.105-.638 1.518-1.931l2.066 1.518a5.1 5.1 0 0 1-1.294 1.715c2.875 2.875 1.662 8.857-3.916 8.992a6.4 6.4 0 0 1-2.434-.387zm2.38-1.949c3.988-.098 3.827-5.928-.144-5.838-3.97.099-3.808 5.928.144 5.838m-.656 6.62c-1.06.773-1.724 1.958-1.697 3.243.054 2.146 1.59 3.072 3.153 3.027s3.125-1.105 3.08-2.947c-.053-2.173-2.308-2.721-4.535-3.323m13.311-2.883.207-1.374v-.44c-.665 1.131-1.662 2.03-3.108 2.003-1.985-.036-3.431-1.671-3.368-4.986l.08-4.437c.01-.539.018-.907-.161-1.383l2.542-1.123-.126 7.078c-.036 1.797.674 2.794 1.563 2.803 1.356.027 2.093-2.093 2.659-3.899l.062-3.359c.01-.539.018-.907-.161-1.383l2.542-1.123-.18 10.303.162 1.383-2.713-.045z"/>
  <path fill="#C12202" d="m97.6 50.231 2.936.17c-.179.225-.161.854 0 1.384l1.86 6.728 2.622-6.468c.189-.503.297-1.131.153-1.374l2.659.153-4.59 11.434c-1.042 2.587-1.814 5.973-5.084 5.785-1.401-.081-2.506-1.177-3.422-2.749l2.12-1.446c.44 1.284.997 1.832 1.554 1.868 1.212.072 1.805-1.77 2.542-3.593l-3.342-11.892zm12.933 9.117c.485.844 1.285 1.482 2.453 1.599 1.023.098 1.859-.288 2.497-1.285l1.643 1.662c-1.149 1.437-2.712 2.102-4.509 1.931-3.808-.368-5.407-3.719-5.111-6.808.288-2.956 2.381-5.66 6.009-5.309 2.345.225 4.456 1.958 4.195 4.635-.099.979-.718 1.805-2.739 2.362zm3.009-3c1.707-.422 1.608-.827 1.635-1.087.099-1.042-.7-1.707-1.724-1.814-2.021-.198-3.216 1.49-3.396 3.332a2.2 2.2 0 0 0-.018.422l3.512-.853zm.737-6.072-.458-1.806-.818 1.68-2.488-.242 2.857-3.027 1.185.116 2.219 3.521-2.488-.242zm3.404 13.258.377-1.339 1.141-8.147c.072-.53.126-.898 0-1.392l2.659-.808-.323 2.317c.97-1.23 2.119-1.823 3.341-1.653 1.967.279 3.198 2.075 2.739 5.363l-.772 5.55v1.393l-2.686-.377.378-1.339.79-5.65c.252-1.778-.332-2.856-1.213-2.972-1.275-.18-2.29 1.562-3.071 3.224l-.674 4.815v1.392zm21.045 3.512.485-1.303 2.767-12.332-.728-.162c-2.075-.467-3.314.593-3.619 1.94-.324 1.437.431 3.189 2.416 3.629l-.054.224c-.234 1.051-.988 1.644-2.066 1.402-2.344-.53-3.386-3.27-2.901-5.435.709-3.143 3.718-4.715 6.772-4.033l3.081.692 3.045 12.584 2.237-9.98.116-1.382 2.641.593-.485 1.302-3.278 14.614-2.533-.566-2.973-12.252-2.174 9.683-.117 1.383-2.641-.593zm11.453 2.712.566-1.266c1.491-5.093 2.326-7.959 3.817-13.051.153-.512.251-.872.207-1.375l2.748-.413-2.147 7.357c.952-.917 2.147-1.518 3.539-1.105 1.905.557 2.866 2.515 1.94 5.703l-1.571 5.38-.207 1.375-2.605-.763.566-1.267 1.599-5.47c.503-1.725.081-2.874-.764-3.117-1.302-.377-2.569 1.464-3.592 3.063l-1.276 4.347-.207 1.375-2.604-.764zm16.078 4.222a4.97 4.97 0 0 1-3.189 0c-2.362-.827-2.874-2.964-2.237-4.788.683-1.94 2.758-3.485 5.354-2.578a4.6 4.6 0 0 1 2.102 1.554c.539-1.688-.198-2.82-1.258-3.188-.772-.27-1.715-.108-2.488.682l-1.266-1.949c1.616-1.212 3.296-1.365 4.706-.871 2.156.754 3.584 3.063 2.776 5.353l-2.111 6.036-.279 1.366-2.38-.836.27-.772zm1.14-3.243c-.107-.88-.88-1.796-1.679-2.075-1.123-.395-2.084.306-2.417 1.258-.377 1.078.108 2.02 1.186 2.398.773.27 1.788.135 2.56-.593zm2.291-11.784-.162 3.43-1.123-.395-1.23-3.916zM5.72 72.857l-.224-1.374a7153 7153 0 0 1-3.97-13.007c-.153-.511-.27-.87-.584-1.266l2.075-1.85L7.733 70.8l.584 1.267-2.587.79zm3.854-17.955 1.832 2.91-1.15.323-3.25-2.506 2.56-.718zm5.785 14.29a4.9 4.9 0 0 1-2.614 1.824c-2.407.673-4.051-.782-4.572-2.65-.557-1.976.26-4.437 2.92-5.183a4.55 4.55 0 0 1 2.613.072c-.521-1.698-1.778-2.192-2.856-1.895-.79.224-1.473.898-1.653 1.985l-2.165-.871c.629-1.923 1.922-3.01 3.36-3.414 2.2-.62 4.688.459 5.344 2.803l1.724 6.162.548 1.275-2.434.683-.224-.79zm-.925-3.305c-.593-.656-1.752-.961-2.56-.737-1.15.324-1.536 1.446-1.267 2.416.306 1.105 1.249 1.59 2.344 1.285.79-.225 1.536-.916 1.76-1.95l-.287-1.014zm15.656.548-.117-1.383-2.722-12.387c-1.904.368-3.79 1.123-3.27 3.521.315 1.437 1.743 2.704 3.728 2.264l.054.224c.233 1.051-.198 1.913-1.276 2.147-2.353.52-4.446-1.536-4.922-3.7-.691-3.145 1.366-5.848 4.42-6.522l3.835-.844c2.623-.575 3.79-1.267 3.35-3.252l.225-.053c1.05-.234 1.913.197 2.146 1.275.522 2.353-1.733 3.539-5.218 4.302l-.773.171 2.713 12.342.476 1.302-2.65.584z"/>
  <path fill="#C12202" d="M36.583 61.584c.692.683 1.644 1.078 2.794.863 1.006-.189 1.706-.79 2.048-1.923l2.039 1.141c-.71 1.698-2.03 2.776-3.8 3.099-3.763.692-6.224-2.084-6.79-5.138-.54-2.919.736-6.099 4.311-6.754 2.318-.422 4.824.655 5.309 3.296.18.961-.189 1.931-1.985 3.027l-3.935 2.38zm1.105-9.754-.934-1.608-.323 1.841-2.461.45 1.904-3.701 1.167-.216 3.1 2.776-2.462.449zm.97 6.045c1.527-.872 1.312-1.24 1.267-1.491-.189-1.033-1.15-1.455-2.156-1.267-1.994.369-2.686 2.318-2.353 4.141.027.135.054.278.099.413l3.134-1.787zm3.467-12.27-1.814 3.683-1.168.215.369-3.413 2.622-.485zm.369 6.557c1.32-.197 1.356-.386 1.23-1.248l-.099-.647c-.098-.647-.197-1.32-.449-1.752l2.327-1.527.682 4.626 3.467-.512.306 2.084-3.467.512.772 5.2c.189 1.294.647 2.291 1.428 2.174.79-.116.997-1.095 1.23-1.715l2.004 1.212c-.71 1.59-1.617 2.48-2.955 2.686-1.545.225-3.521-.638-3.943-3.52l-.692-4.645c-.126-.853-.225-1.033-1.536-.835l-.305-2.084zm21.521 9.081.08-1.392-.987-12.602-.746.063c-2.12.161-2.99 1.545-2.883 2.919.117 1.464 1.356 2.92 3.377 2.758l.018.233c.081 1.069-.467 1.86-1.554 1.95-2.398.188-4.194-2.13-4.374-4.348-.252-3.216 2.165-5.605 5.282-5.848l3.143-.242 6.611 11.129-.8-10.195-.296-1.356 2.704-.216-.081 1.392 1.168 14.929-2.587.206-6.45-10.832.773 9.898.297 1.356-2.704.216zm14.551-2.73a.93.93 0 0 0-.404.78c.063 2.471 9.09 1.115 9.233 7.16.081 3.386-2.811 5.272-5.685 5.344-2.803.072-5.596-1.5-5.677-5.075-.036-1.59.62-3.449 2.021-4.248-1.177-.53-2.066-1.303-2.093-2.704-.018-.844.305-1.779.826-2.398-2.847-2.874-1.5-8.839 3.962-8.973a6.6 6.6 0 0 1 1.877.215c.584-.063 1.105-.638 1.518-1.931l2.066 1.518a5.1 5.1 0 0 1-1.294 1.716c2.875 2.874 1.662 8.856-3.916 8.99a6.4 6.4 0 0 1-2.434-.385zm2.38-1.95c3.988-.099 3.827-5.928-.144-5.838-3.97.099-3.808 5.928.144 5.838m-.656 6.63c-1.06.772-1.724 1.957-1.697 3.242.054 2.147 1.59 3.072 3.153 3.027s3.125-1.105 3.08-2.946c-.053-2.174-2.308-2.722-4.535-3.324M93.602 60.3l.207-1.374v-.44c-.665 1.131-1.662 2.03-3.108 2.003-1.985-.036-3.431-1.671-3.368-4.986l.08-4.437c.01-.539.018-.907-.161-1.383l2.542-1.123-.126 7.078c-.036 1.797.674 2.794 1.563 2.803 1.356.026 2.093-2.093 2.659-3.899l.062-3.359c.01-.539.018-.907-.161-1.383l2.542-1.123-.18 10.303.162 1.383-2.713-.045z"/>
  <path fill="#C12202" d="m97.6 48.704 2.936.17c-.179.225-.161.854 0 1.384l1.86 6.727 2.622-6.467c.189-.503.297-1.131.153-1.374l2.659.153-4.59 11.434c-1.042 2.587-1.814 5.973-5.084 5.785-1.401-.081-2.506-1.177-3.422-2.749l2.12-1.446c.44 1.284.997 1.832 1.554 1.868 1.212.072 1.805-1.77 2.542-3.593l-3.342-11.892zm12.933 9.108c.485.844 1.285 1.482 2.453 1.599 1.023.099 1.859-.288 2.497-1.285l1.643 1.662c-1.149 1.437-2.712 2.102-4.509 1.931-3.808-.368-5.407-3.718-5.111-6.808.288-2.956 2.381-5.66 6.009-5.309 2.345.225 4.456 1.958 4.195 4.635-.099.979-.718 1.805-2.739 2.362zm3.009-2.991c1.707-.422 1.608-.826 1.635-1.087.099-1.042-.7-1.707-1.724-1.814-2.021-.198-3.216 1.49-3.396 3.332a2.2 2.2 0 0 0-.018.422l3.512-.853zm.737-6.081-.458-1.806-.818 1.68-2.488-.242 2.857-3.027 1.185.116 2.219 3.521-2.488-.242zm3.404 13.258.377-1.339 1.141-8.147c.072-.53.126-.898 0-1.392l2.659-.808-.323 2.317c.97-1.23 2.119-1.823 3.341-1.653 1.967.279 3.198 2.075 2.739 5.363l-.772 5.55v1.393l-2.686-.377.378-1.339.79-5.65c.252-1.778-.332-2.856-1.213-2.972-1.275-.18-2.29 1.562-3.071 3.224l-.674 4.815v1.392zm21.045 3.521.485-1.303 2.767-12.332-.728-.162c-2.075-.467-3.314.593-3.619 1.94-.324 1.437.431 3.189 2.416 3.629l-.054.224c-.234 1.051-.988 1.644-2.066 1.402-2.344-.53-3.386-3.27-2.901-5.434.709-3.144 3.718-4.716 6.772-4.033l3.081.691 3.045 12.584 2.237-9.98.116-1.382 2.641.593-.485 1.302-3.278 14.614-2.533-.566-2.973-12.252-2.174 9.683-.117 1.383-2.641-.593zm11.453 2.703.566-1.266c1.491-5.093 2.326-7.959 3.817-13.051.153-.512.251-.872.207-1.375l2.748-.413-2.147 7.357c.952-.917 2.147-1.518 3.539-1.105 1.905.557 2.866 2.515 1.94 5.703l-1.571 5.38-.207 1.375-2.605-.763.566-1.267 1.599-5.47c.503-1.725.081-2.874-.764-3.117-1.302-.377-2.569 1.464-3.592 3.063l-1.276 4.347-.207 1.375-2.604-.764zm16.078 4.222a4.97 4.97 0 0 1-3.189 0c-2.362-.827-2.874-2.964-2.237-4.788.683-1.94 2.758-3.485 5.354-2.578a4.6 4.6 0 0 1 2.102 1.554c.539-1.688-.198-2.82-1.258-3.188-.772-.27-1.715-.108-2.488.682l-1.266-1.949c1.616-1.212 3.296-1.365 4.706-.871 2.156.754 3.584 3.063 2.776 5.353l-2.111 6.036-.279 1.366-2.38-.836.27-.772zm1.14-3.243c-.107-.88-.88-1.796-1.679-2.075-1.123-.395-2.084.306-2.417 1.258-.377 1.078.108 2.02 1.186 2.398.773.27 1.788.135 2.56-.593zm2.291-11.784-.162 3.43-1.123-.394-1.23-3.917z"/>
  <path fill="#EF4B23" d="m5.72 72.857-.224-1.374a7153 7153 0 0 1-3.97-13.007c-.153-.511-.27-.87-.584-1.266l2.075-1.85L7.733 70.8l.584 1.267-2.587.79zm3.854-17.955 1.832 2.91-1.15.323-3.25-2.506 2.56-.718zm5.785 14.29a4.9 4.9 0 0 1-2.614 1.824c-2.407.673-4.051-.782-4.572-2.65-.557-1.976.26-4.437 2.92-5.183a4.55 4.55 0 0 1 2.613.072c-.521-1.698-1.778-2.192-2.856-1.895-.79.224-1.473.898-1.653 1.985l-2.165-.871c.629-1.923 1.922-3.01 3.36-3.414 2.2-.62 4.688.459 5.344 2.803l1.724 6.162.548 1.275-2.434.683-.224-.79zm-.925-3.305c-.593-.656-1.752-.961-2.56-.737-1.15.324-1.536 1.446-1.267 2.416.306 1.105 1.249 1.59 2.344 1.285.79-.225 1.536-.916 1.76-1.95l-.287-1.014zm15.656.548-.117-1.383-2.722-12.387c-1.904.368-3.79 1.123-3.27 3.521.315 1.437 1.743 2.704 3.728 2.264l.054.224c.233 1.051-.198 1.913-1.276 2.147-2.353.52-4.446-1.536-4.922-3.7-.691-3.145 1.366-5.848 4.42-6.522l3.835-.844c2.623-.575 3.79-1.267 3.35-3.252l.225-.053c1.05-.234 1.913.197 2.146 1.275.522 2.353-1.733 3.539-5.218 4.302l-.773.171 2.713 12.342.476 1.302-2.65.584z"/>
  <path fill="#EF4B23" d="M36.583 61.584c.692.683 1.644 1.078 2.794.863 1.006-.189 1.706-.79 2.048-1.923l2.039 1.141c-.71 1.698-2.03 2.776-3.8 3.099-3.763.692-6.224-2.084-6.79-5.138-.54-2.919.736-6.099 4.311-6.754 2.318-.422 4.824.655 5.309 3.296.18.961-.189 1.931-1.985 3.027l-3.935 2.38zm1.105-9.754-.934-1.608-.323 1.841-2.461.45 1.904-3.701 1.167-.216 3.1 2.776-2.462.449zm.97 6.045c1.527-.872 1.312-1.24 1.267-1.491-.189-1.033-1.15-1.455-2.156-1.267-1.994.369-2.686 2.318-2.353 4.141.027.135.054.278.099.413l3.134-1.787zm3.467-12.27-1.814 3.683-1.168.215.369-3.413 2.622-.485zm.369 6.557c1.32-.197 1.356-.386 1.23-1.248l-.099-.647c-.098-.647-.197-1.32-.449-1.752l2.327-1.527.682 4.626 3.467-.512.306 2.084-3.467.512.772 5.2c.189 1.294.647 2.291 1.428 2.174.79-.116.997-1.095 1.23-1.715l2.004 1.212c-.71 1.59-1.617 2.48-2.955 2.686-1.545.225-3.521-.638-3.943-3.52l-.692-4.645c-.126-.853-.225-1.033-1.536-.835l-.305-2.084zm21.521 9.081.08-1.392-.987-12.602-.746.063c-2.12.161-2.99 1.545-2.883 2.919.117 1.464 1.356 2.92 3.377 2.758l.018.233c.081 1.069-.467 1.86-1.554 1.95-2.398.188-4.194-2.13-4.374-4.348-.252-3.216 2.165-5.605 5.282-5.848l3.143-.242 6.611 11.129-.8-10.195-.296-1.356 2.704-.216-.081 1.392 1.168 14.929-2.587.206-6.45-10.832.773 9.898.297 1.356-2.704.216zm14.551-2.73a.93.93 0 0 0-.404.78c.063 2.471 9.09 1.115 9.233 7.16.081 3.386-2.811 5.272-5.685 5.344-2.803.072-5.596-1.5-5.677-5.075-.036-1.59.62-3.449 2.021-4.248-1.177-.53-2.066-1.303-2.093-2.704-.018-.844.305-1.779.826-2.398-2.847-2.874-1.5-8.839 3.962-8.973a6.6 6.6 0 0 1 1.877.215c.584-.063 1.105-.638 1.518-1.931l2.066 1.518a5.1 5.1 0 0 1-1.294 1.716c2.875 2.874 1.662 8.856-3.916 8.99a6.4 6.4 0 0 1-2.434-.385zm2.38-1.95c3.988-.099 3.827-5.928-.144-5.838-3.97.099-3.808 5.928.144 5.838m-.656 6.63c-1.06.772-1.724 1.957-1.697 3.242.054 2.147 1.59 3.072 3.153 3.027s3.125-1.105 3.08-2.946c-.053-2.174-2.308-2.722-4.535-3.324M93.602 60.3l.207-1.374v-.44c-.665 1.131-1.662 2.03-3.108 2.003-1.985-.036-3.431-1.671-3.368-4.986l.08-4.437c.01-.539.018-.907-.161-1.383l2.542-1.123-.126 7.078c-.036 1.797.674 2.794 1.563 2.803 1.356.026 2.093-2.093 2.659-3.899l.062-3.359c.01-.539.018-.907-.161-1.383l2.542-1.123-.18 10.303.162 1.383-2.713-.045z"/>
  <path fill="#EF4B23" d="m97.6 48.704 2.936.17c-.179.225-.161.854 0 1.384l1.86 6.727 2.622-6.467c.189-.503.297-1.131.153-1.374l2.659.153-4.59 11.434c-1.042 2.587-1.814 5.973-5.084 5.785-1.401-.081-2.506-1.177-3.422-2.749l2.12-1.446c.44 1.284.997 1.832 1.554 1.868 1.212.072 1.805-1.77 2.542-3.593l-3.342-11.892zm12.933 9.108c.485.844 1.285 1.482 2.453 1.599 1.023.099 1.859-.288 2.497-1.285l1.643 1.662c-1.149 1.437-2.712 2.102-4.509 1.931-3.808-.368-5.407-3.718-5.111-6.808.288-2.956 2.381-5.66 6.009-5.309 2.345.225 4.456 1.958 4.195 4.635-.099.979-.718 1.805-2.739 2.362zm3.009-2.991c1.707-.422 1.608-.826 1.635-1.087.099-1.042-.7-1.707-1.724-1.814-2.021-.198-3.216 1.49-3.396 3.332a2.2 2.2 0 0 0-.018.422l3.512-.853zm.737-6.081-.458-1.806-.818 1.68-2.488-.242 2.857-3.027 1.185.116 2.219 3.521-2.488-.242zm3.404 13.258.377-1.339 1.141-8.147c.072-.53.126-.898 0-1.392l2.659-.808-.323 2.317c.97-1.23 2.119-1.823 3.341-1.653 1.967.279 3.198 2.075 2.739 5.363l-.772 5.55v1.393l-2.686-.377.378-1.339.79-5.65c.252-1.778-.332-2.856-1.213-2.972-1.275-.18-2.29 1.562-3.071 3.224l-.674 4.815v1.392zm21.045 3.521.485-1.303 2.767-12.332-.728-.162c-2.075-.467-3.314.593-3.619 1.94-.324 1.437.431 3.189 2.416 3.629l-.054.224c-.234 1.051-.988 1.644-2.066 1.402-2.344-.53-3.386-3.27-2.901-5.434.709-3.144 3.718-4.716 6.772-4.033l3.081.691 3.045 12.584 2.237-9.98.116-1.382 2.641.593-.485 1.302-3.278 14.614-2.533-.566-2.973-12.252-2.174 9.683-.117 1.383-2.641-.593zm11.453 2.703.566-1.266c1.491-5.093 2.326-7.959 3.817-13.051.153-.512.251-.872.207-1.375l2.748-.413-2.147 7.357c.952-.917 2.147-1.518 3.539-1.105 1.905.557 2.866 2.515 1.94 5.703l-1.571 5.38-.207 1.375-2.605-.763.566-1.267 1.599-5.47c.503-1.725.081-2.874-.764-3.117-1.302-.377-2.569 1.464-3.592 3.063l-1.276 4.347-.207 1.375-2.604-.764zm16.078 4.222a4.97 4.97 0 0 1-3.189 0c-2.362-.827-2.874-2.964-2.237-4.788.683-1.94 2.758-3.485 5.354-2.578a4.6 4.6 0 0 1 2.102 1.554c.539-1.688-.198-2.82-1.258-3.188-.772-.27-1.715-.108-2.488.682l-1.266-1.949c1.616-1.212 3.296-1.365 4.706-.871 2.156.754 3.584 3.063 2.776 5.353l-2.111 6.036-.279 1.366-2.38-.836.27-.772zm1.14-3.243c-.107-.88-.88-1.796-1.679-2.075-1.123-.395-2.084.306-2.417 1.258-.377 1.078.108 2.02 1.186 2.398.773.27 1.788.135 2.56-.593zm2.291-11.784-.162 3.43-1.123-.394-1.23-3.917z"/>
  <path fill="#FFF400" d="m5.72 71.321-.224-1.374a7177 7177 0 0 1-3.97-13.006c-.153-.512-.27-.872-.584-1.267l2.075-1.85 4.716 15.44.584 1.267-2.587.79zm3.854-17.955 1.832 2.91-1.15.323-3.25-2.506 2.56-.718zm5.785 14.29a4.9 4.9 0 0 1-2.614 1.824c-2.407.673-4.051-.782-4.572-2.65-.557-1.976.26-4.437 2.92-5.183a4.55 4.55 0 0 1 2.613.072c-.521-1.697-1.778-2.191-2.856-1.895-.79.224-1.473.898-1.653 1.985l-2.165-.871c.629-1.922 1.922-3.01 3.36-3.413 2.2-.62 4.688.458 5.344 2.802l1.724 6.162.548 1.275-2.434.683-.224-.79zm-.925-3.305c-.593-.656-1.752-.961-2.56-.737-1.15.324-1.536 1.447-1.267 2.417.306 1.104 1.249 1.59 2.344 1.284.79-.225 1.536-.916 1.76-1.95l-.287-1.014zm15.656.548-.117-1.383-2.722-12.387c-1.904.368-3.79 1.123-3.27 3.521.315 1.437 1.743 2.704 3.728 2.264l.054.224c.233 1.051-.198 1.913-1.276 2.147-2.353.52-4.446-1.536-4.922-3.7-.691-3.145 1.366-5.848 4.42-6.522l3.835-.844c2.623-.575 3.79-1.267 3.35-3.252l.225-.053c1.05-.234 1.913.197 2.146 1.275.522 2.353-1.733 3.539-5.218 4.302l-.773.171 2.713 12.342.476 1.302-2.65.584z"/>
  <path fill="#FFF400" d="M36.583 60.048c.692.683 1.644 1.078 2.794.863 1.006-.189 1.706-.79 2.048-1.922l2.039 1.14c-.71 1.698-2.03 2.776-3.8 3.1-3.763.69-6.224-2.085-6.79-5.139-.54-2.919.736-6.099 4.311-6.754 2.318-.422 4.824.655 5.309 3.296.18.961-.189 1.931-1.985 3.027l-3.935 2.38zm1.105-9.754-.934-1.608-.323 1.841-2.461.45 1.904-3.701 1.167-.216 3.1 2.776-2.462.449zm.97 6.045c1.527-.871 1.312-1.24 1.267-1.491-.189-1.033-1.15-1.455-2.156-1.267-1.994.368-2.686 2.318-2.353 4.141.027.135.054.279.099.413l3.134-1.787zm3.467-12.27-1.814 3.683-1.168.215.369-3.413 2.622-.485zm.369 6.566c1.32-.197 1.356-.386 1.23-1.248l-.099-.647c-.098-.647-.197-1.32-.449-1.752l2.327-1.527.682 4.626 3.467-.512.306 2.084-3.467.512.772 5.2c.189 1.294.647 2.291 1.428 2.174.79-.116.997-1.095 1.23-1.715l2.004 1.212c-.71 1.59-1.617 2.48-2.955 2.686-1.545.225-3.521-.638-3.943-3.52l-.692-4.645c-.126-.853-.225-1.033-1.536-.835l-.305-2.084zm21.521 9.072.08-1.392-.987-12.602-.746.063c-2.12.161-2.99 1.545-2.883 2.919.117 1.464 1.356 2.92 3.377 2.758l.018.233c.081 1.069-.467 1.86-1.554 1.95-2.398.188-4.194-2.13-4.374-4.348-.252-3.216 2.165-5.605 5.282-5.848l3.143-.242 6.611 11.129-.8-10.195-.296-1.356 2.704-.216-.081 1.392 1.168 14.929-2.587.206-6.45-10.832.773 9.898.297 1.357-2.704.215zm14.551-2.73a.93.93 0 0 0-.404.781c.063 2.47 9.09 1.114 9.233 7.159.081 3.386-2.811 5.272-5.685 5.344-2.803.072-5.596-1.5-5.677-5.075-.036-1.59.62-3.449 2.021-4.248-1.177-.53-2.066-1.303-2.093-2.704-.018-.844.305-1.778.826-2.398-2.847-2.874-1.5-8.839 3.962-8.973a6.6 6.6 0 0 1 1.877.215c.584-.063 1.105-.638 1.518-1.931l2.066 1.518a5.1 5.1 0 0 1-1.294 1.716c2.875 2.874 1.662 8.856-3.916 8.99a6.4 6.4 0 0 1-2.434-.386zm2.38-1.95c3.988-.098 3.827-5.928-.144-5.838-3.97.099-3.808 5.928.144 5.838m-.656 6.63c-1.06.772-1.724 1.957-1.697 3.242.054 2.147 1.59 3.072 3.153 3.027s3.125-1.105 3.08-2.946c-.053-2.174-2.308-2.722-4.535-3.324m13.311-2.892.207-1.374v-.44c-.665 1.131-1.662 2.03-3.108 2.003-1.985-.036-3.431-1.671-3.368-4.986l.08-4.437c.01-.539.018-.907-.161-1.383l2.542-1.123-.126 7.078c-.036 1.797.674 2.794 1.563 2.803 1.356.027 2.093-2.093 2.659-3.899l.062-3.359c.01-.539.018-.907-.161-1.383l2.542-1.123-.18 10.303.162 1.383-2.713-.045z"/>
  <path fill="#FFF400" d="m97.6 47.168 2.936.17c-.179.225-.161.854 0 1.384l1.86 6.728 2.622-6.468c.189-.503.297-1.131.153-1.374l2.659.153-4.59 11.434c-1.042 2.587-1.814 5.973-5.084 5.785-1.401-.081-2.506-1.177-3.422-2.749l2.12-1.446c.44 1.284.997 1.832 1.554 1.868 1.212.072 1.805-1.77 2.542-3.593l-3.342-11.892zm12.933 9.108c.485.844 1.285 1.482 2.453 1.599 1.023.099 1.859-.288 2.497-1.285l1.643 1.662c-1.149 1.437-2.712 2.102-4.509 1.931-3.808-.368-5.407-3.718-5.111-6.808.288-2.955 2.381-5.659 6.009-5.309 2.345.225 4.456 1.958 4.195 4.635-.099.98-.718 1.806-2.739 2.362zm3.009-2.991c1.707-.422 1.608-.826 1.635-1.087.099-1.042-.7-1.707-1.724-1.814-2.021-.198-3.216 1.49-3.396 3.332a2.2 2.2 0 0 0-.018.422l3.512-.853zm.737-6.081-.458-1.805-.818 1.68-2.488-.243 2.857-3.027 1.185.117 2.219 3.52-2.488-.242zm3.404 13.266.377-1.338 1.141-8.147c.072-.53.126-.898 0-1.392l2.659-.808-.323 2.317c.97-1.23 2.119-1.823 3.341-1.652 1.967.278 3.198 2.074 2.739 5.362l-.772 5.55v1.393l-2.686-.377.378-1.339.79-5.65c.252-1.778-.332-2.856-1.213-2.972-1.275-.18-2.29 1.563-3.071 3.224l-.674 4.815v1.392zm21.045 3.513.485-1.303 2.767-12.332-.728-.162c-2.075-.467-3.314.593-3.619 1.94-.324 1.437.431 3.189 2.416 3.629l-.054.224c-.234 1.051-.988 1.644-2.066 1.402-2.344-.53-3.386-3.27-2.901-5.434.709-3.144 3.718-4.716 6.772-4.034l3.081.692 3.045 12.584 2.237-9.979.116-1.383 2.641.593-.485 1.302-3.278 14.614-2.533-.566-2.973-12.252-2.174 9.683-.117 1.383-2.641-.592zm11.453 2.712.566-1.266c1.491-5.093 2.326-7.959 3.817-13.051.153-.512.251-.872.207-1.375l2.748-.413-2.147 7.357c.952-.917 2.147-1.518 3.539-1.105 1.905.557 2.866 2.515 1.94 5.703l-1.571 5.38-.207 1.375-2.605-.763.566-1.267 1.599-5.47c.503-1.725.081-2.874-.764-3.117-1.302-.377-2.569 1.464-3.592 3.063l-1.276 4.347-.207 1.375-2.604-.764zm16.078 4.213a4.97 4.97 0 0 1-3.189 0c-2.362-.827-2.874-2.964-2.237-4.788.683-1.94 2.758-3.485 5.354-2.578a4.6 4.6 0 0 1 2.102 1.554c.539-1.688-.198-2.82-1.258-3.188-.772-.27-1.715-.108-2.488.682l-1.266-1.949c1.616-1.212 3.296-1.365 4.706-.871 2.156.754 3.584 3.063 2.776 5.353l-2.111 6.036-.279 1.366-2.38-.836.27-.772zm1.14-3.243c-.107-.88-.88-1.796-1.679-2.075-1.123-.395-2.084.306-2.417 1.258-.377 1.078.108 2.02 1.186 2.398.773.27 1.788.135 2.56-.593zm2.291-11.784-.162 3.43-1.123-.394-1.23-3.917z"/>
  <mask id="a" width="10.955" height="11.861" x="47.185" y="3.592" fill="#000" maskUnits="userSpaceOnUse">
    <path fill="#fff" d="M47.185 3.592H58.14v11.861H47.185z"/>
    <path d="M52.569 5.615c1.816-.165 3.122.812 3.276 2.51.154 1.684-.954 2.882-2.771 3.047l-1.613.146.255 2.809-1.793.163-.76-8.365zm-1.478 1.64.234 2.57 1.446-.132c.836-.076 1.33-.615 1.258-1.404-.073-.8-.655-1.241-1.492-1.165z"/>
  </mask>
  <path fill="#fff" d="M52.569 5.615c1.816-.165 3.122.812 3.276 2.51.154 1.684-.954 2.882-2.771 3.047l-1.613.146.255 2.809-1.793.163-.76-8.365zm-1.478 1.64.234 2.57 1.446-.132c.836-.076 1.33-.615 1.258-1.404-.073-.8-.655-1.241-1.492-1.165z"/>
  <path fill="#EF4B23" d="m51.46 11.319-.09-.996-.996.09.09.996zm.256 2.808.09.996.997-.09-.091-.997zm-1.793.163-.995.09.09.996.996-.09zm-.76-8.365-.09-.996-.997.09.09.996zm1.928 1.33-.09-.996-.996.091.09.996zm.234 2.57-.996.09.09.996.996-.09zm1.334-3.214c.712-.065 1.23.1 1.566.356.326.248.57.648.624 1.248l1.992-.181c-.1-1.097-.585-2.035-1.405-2.659-.81-.616-1.853-.857-2.958-.756zm2.19 1.604c.054.592-.113 1.026-.389 1.328-.284.312-.765.568-1.477.633l.182 1.992c1.104-.1 2.086-.526 2.772-1.275.693-.76 1.004-1.767.904-2.86zm-1.866 1.96-1.613.148.181 1.991 1.614-.146zm-2.518 1.234.255 2.808 1.992-.18-.255-2.81zm1.16 1.722-1.792.163.181 1.992 1.793-.163zm-.706 1.068-.76-8.365-1.992.181.76 8.366zM49.253 6.92l3.406-.31-.181-1.991-3.406.31zm.842.426.234 2.57 1.992-.182-.234-2.57zm1.32 3.475 1.446-.132-.18-1.992-1.447.132zm1.446-.132c.61-.055 1.199-.291 1.622-.76.432-.48.6-1.1.542-1.73l-1.992.181c.014.158-.029.202-.035.209-.015.016-.091.088-.318.108zm2.164-2.49c-.058-.633-.332-1.215-.843-1.612-.503-.389-1.126-.515-1.735-.46l.18 1.993c.227-.02.314.036.33.048.007.006.06.044.076.212zm-2.578-2.071L51 6.259l.182 1.992 1.446-.131z" mask="url(#a)"/>
  <mask id="b" width="10.714" height="11.645" x="55.564" y="3.042" fill="#000" maskUnits="userSpaceOnUse">
    <path fill="#fff" d="M55.564 3.042h10.714v11.645H55.564z"/>
    <path d="m57.507 5.184 1.796-.12.226 3.364 3.328-.223-.225-3.365 1.796-.12.562 8.381-1.796.12-.232-3.46-3.329.224.232 3.46-1.796.12z"/>
  </mask>
  <path fill="#fff" d="m57.507 5.184 1.796-.12.226 3.364 3.328-.223-.225-3.365 1.796-.12.562 8.381-1.796.12-.232-3.46-3.329.224.232 3.46-1.796.12z"/>
  <path fill="#EF4B23" d="m57.507 5.184-.067-.998-.997.067.067.998zm1.796-.12.998-.067-.067-.998-.998.067zm.226 3.364-.998.067.067.998.998-.067zm3.328-.223.067.998.998-.067-.067-.998zm-.225-3.365-.067-.997-.998.067.067.997zm1.796-.12.998-.067-.067-.998-.998.067zm.562 8.381.067.998.998-.067-.067-.998zm-1.796.12-.998.068.067.997.998-.067zm-.232-3.46.998-.067-.067-.997-.998.067zm-3.329.224-.067-.998-.997.067.067.998zm.232 3.46.067.998.998-.067-.067-.998zm-1.796.12-.997.067.067.998.997-.067zm-.495-7.383 1.796-.12-.134-1.996-1.796.12zm.732-1.051.225 3.364 1.996-.134-.226-3.364zm1.29 4.295 3.328-.223-.133-1.996-3.329.223zm4.26-1.288-.227-3.365-1.995.134.226 3.365zm-1.157-2.3 1.796-.12-.134-1.996-1.796.12zm.731-1.051.562 8.381 1.996-.134-.562-8.381zm1.493 7.316-1.796.12.134 1.996 1.796-.12zm-.731 1.052-.232-3.46-1.996.133.232 3.46zm-1.297-4.391-3.329.223.134 1.995 3.329-.223zm-4.26 1.288.233 3.46 1.995-.134-.232-3.46zm1.164 2.395-1.796.12.133 1.996 1.796-.12zm-.732 1.051-.562-8.38-1.995.133.562 8.381z" mask="url(#b)"/>
  <mask id="c" width="5.531" height="11.231" x="64.862" y="2.851" fill="#000" maskUnits="userSpaceOnUse">
    <path fill="#fff" d="M64.862 2.851h5.531v11.231h-5.531z"/>
    <path d="m66.778 4.603 1.797-.088.41 8.39-1.797.088z"/>
  </mask>
  <path fill="#fff" d="m66.778 4.603 1.797-.088.41 8.39-1.797.088z"/>
  <path fill="#EF4B23" d="m66.778 4.603-.05-.999-.998.049.049.999zm1.797-.088 1-.049-.05-.999-.999.05zm.41 8.39.05.999.998-.049-.049-.999zm-1.797.088-1 .049.05.999.998-.05zm-.362-7.391 1.798-.088-.097-1.998-1.798.088zm.75-1.038.41 8.39 1.998-.098-.41-8.39zm1.36 7.342-1.797.088.097 1.998 1.798-.088zm-.75 1.038-.41-8.39-1.997.098.41 8.39z" mask="url(#c)"/>
  <mask id="d" width="13.302" height="11.358" x="69.221" y="2.465" fill="#000" maskUnits="userSpaceOnUse">
    <path fill="#fff" d="M69.221 2.465h13.302v11.358H69.221z"/>
    <path d="m71.105 4.376 2.363-.066 2.499 6.1 2.083-6.228 2.315-.065.235 8.397-1.716.048-.157-5.626-2.026 5.687-1.463.04-2.34-5.564.156 5.626-1.715.048z"/>
  </mask>
  <path fill="#fff" d="m71.105 4.376 2.363-.066 2.499 6.1 2.083-6.228 2.315-.065.235 8.397-1.716.048-.157-5.626-2.026 5.687-1.463.04-2.34-5.564.156 5.626-1.715.048z"/>
  <path fill="#EF4B23" d="m71.105 4.376-.028-1-1 .028.028 1zm2.363-.066.925-.38-.262-.64-.691.02zm2.499 6.1-.925.38 1.02 2.49.853-2.552zm2.083-6.228-.028-1-.699.02-.221.663zm2.315-.065 1-.028-.028-1-1 .029zm.235 8.397.027 1 1-.028-.028-1zm-1.716.048-1 .028.028 1 1-.028zm-.157-5.626 1-.028-1.942-.308zm-2.026 5.687.028 1 .684-.02.23-.644zm-1.463.04-.922.388.265.631.684-.019zM72.898 7.1l.921-.388-1.921.416zm.156 5.626.028 1 1-.029-.028-1zm-1.715.048-1 .027.028 1 1-.028zm-.206-7.398 2.363-.066-.056-1.999-2.363.066zm1.41-.686 2.499 6.1 1.85-.758-2.499-6.1zm4.372 6.039L78.998 4.5l-1.896-.634-2.083 6.228zm1.163-5.546 2.315-.065-.056-2-2.315.065zm1.287-1.037.235 8.397 2-.056-.235-8.397zm1.207 7.37-1.716.047.056 2 1.715-.048zm-.688 1.019-.157-5.626-2 .056.157 5.626zM77.785 6.6l-2.026 5.687 1.884.672 2.026-5.687zm-1.112 5.023-1.463.041.056 2 1.463-.041zm-.514.653-2.34-5.565-1.843.776 2.34 5.564zm-4.261-5.15.157 5.627 1.999-.056-.157-5.626zm1.129 4.599-1.716.048.056 2 1.715-.049zm-.688 1.02-.235-8.397-1.999.056.234 8.397z" mask="url(#d)"/>
  <mask id="e" width="10.122" height="11.111" x="84.778" y="2.462" fill="#000" maskUnits="userSpaceOnUse">
    <path fill="#fff" d="M84.778 2.462H94.9v11.111H84.778z"/>
    <path d="m86.63 12.482.093-8.4 1.632.019 3.505 5.331.059-5.292 1.776.02-.094 8.4-1.644-.019-3.505-5.331-.059 5.292z"/>
  </mask>
  <path fill="#fff" d="m86.63 12.482.093-8.4 1.632.019 3.505 5.331.059-5.292 1.776.02-.094 8.4-1.644-.019-3.505-5.331-.059 5.292z"/>
  <path fill="#EF4B23" d="m86.63 12.482-1-.011-.012 1 1 .01zm.093-8.4.011-1-1-.01-.011 1zm1.632.019.835-.55-.292-.444-.532-.006zm3.505 5.331-.836.55 1.799 2.736.037-3.275zm.059-5.292.01-1-1-.01-.01 1zm1.776.02 1 .011.01-1-1-.01zm-.094 8.4-.011 1 1 .01.01-1zm-1.644-.019-.836.55.293.444.532.006zM88.452 7.21l.836-.55-1.8-2.736-.036 3.275zm-.059 5.292-.011 1 1 .01.011-1zm-.764-.009.094-8.4-2-.022-.094 8.4zm-.917-7.41 1.632.018.022-2-1.632-.019zm.807-.433 3.505 5.331 1.671-1.098-3.504-5.332zm5.34 4.793.06-5.291-2-.023-.06 5.292zm-.951-4.303 1.775.02.023-2-1.776-.02zm.787-.99-.094 8.399 2 .022.094-8.4zm.917 7.41-1.644-.019-.022 2 1.644.019zm-.82.432-3.504-5.331-1.671 1.098 3.504 5.332zM87.453 7.2l-.059 5.291 2 .023.06-5.292zm.952 4.303-1.764-.02-.022 2 1.764.02z" mask="url(#e)"/>
  <mask id="f" width="11.444" height="12.406" x="93.913" y="2.541" fill="#000" maskUnits="userSpaceOnUse">
    <path fill="#fff" d="M93.913 2.541h11.444v12.406H93.913z"/>
    <path d="M99.482 12.813c-2.398-.09-3.93-1.841-3.832-4.42.097-2.578 1.744-4.209 4.322-4.112 2.027.077 3.407 1.377 3.554 3.196l-1.799-.067c-.181-.932-.829-1.569-1.86-1.608-1.403-.053-2.321 1.042-2.382 2.66-.061 1.62.736 2.778 2.175 2.832.959.037 1.949-.43 2.161-1.6l.004-.107-2.086-.079.054-1.427 3.753.142-.176 4.664-1.259-.047-.142-1.014c-.466.57-1.3 1.031-2.487.987"/>
  </mask>
  <path fill="#fff" d="M99.482 12.813c-2.398-.09-3.93-1.841-3.832-4.42.097-2.578 1.744-4.209 4.322-4.112 2.027.077 3.407 1.377 3.554 3.196l-1.799-.067c-.181-.932-.829-1.569-1.86-1.608-1.403-.053-2.321 1.042-2.382 2.66-.061 1.62.736 2.778 2.175 2.832.959.037 1.949-.43 2.161-1.6l.004-.107-2.086-.079.054-1.427 3.753.142-.176 4.664-1.259-.047-.142-1.014c-.466.57-1.3 1.031-2.487.987"/>
  <path fill="#EF4B23" d="m103.526 7.477-.038 1 1.126.042-.091-1.123zm-1.799-.067-.981.19.151.779.793.03zm.094 2.285.984.178.013-.07.003-.07zm.004-.108 1 .037.037-.999-.999-.038zm-2.086-.079-1-.038-.037 1 1 .037zm.054-1.427.037-1-.999-.037-.038 1zm3.753.142.999.037.038-.999-.999-.038zm-.176 4.664-.037 1 .999.037.037-.999zm-1.259-.047-.99.138.116.83.836.031zm-.142-1.014.991-.139-.318-2.268-1.448 1.774zm-2.45-.013c-.953-.036-1.664-.393-2.134-.933-.475-.546-.776-1.366-.736-2.45l-1.998-.074c-.057 1.495.359 2.84 1.225 3.836.87 1.002 2.125 1.566 3.569 1.62zm-2.87-3.382c.041-1.085.401-1.872.925-2.376.52-.5 1.296-.815 2.36-.775l.076-1.998c-1.515-.057-2.85.395-3.823 1.331-.968.932-1.48 2.249-1.536 3.743zm3.285-3.15c1.565.058 2.492 1.006 2.595 2.277l1.994-.162c-.192-2.366-2.025-4.02-4.513-4.114zm3.63 1.197-1.799-.068-.075 1.999 1.798.068zm-.855.74c-.125-.643-.425-1.243-.927-1.692-.506-.453-1.156-.696-1.878-.723l-.075 1.999c.31.011.499.107.62.215.126.112.241.296.297.583zm-2.805-2.415c-.994-.037-1.867.341-2.483 1.042-.599.682-.899 1.6-.936 2.58l1.999.075c.024-.638.214-1.077.44-1.334.208-.238.496-.38.905-.364zm-3.419 3.622c-.036.97.18 1.909.723 2.637.561.754 1.407 1.194 2.414 1.232l.075-1.999c-.432-.016-.704-.183-.885-.427-.2-.27-.352-.72-.328-1.368zm3.137 3.869c.644.024 1.346-.117 1.947-.511.622-.409 1.081-1.055 1.236-1.91l-1.968-.357c-.057.314-.199.486-.365.594-.187.123-.459.197-.775.185zm3.199-2.562.004-.108-1.999-.075-.004.108zm-.958-1.145-2.086-.078-.076 1.998 2.087.079zm-1.125.959.054-1.427-1.999-.076-.053 1.427zm-.983-.466 3.753.142.076-1.999-3.754-.141zm2.792-.895-.176 4.665 1.998.075.176-4.665zm.861 3.703-1.259-.047-.076 1.998 1.26.048zm-.307.813-.141-1.014-1.981.277.142 1.014zm-1.907-1.508c-.255.313-.78.654-1.674.62l-.075 2c1.48.055 2.623-.526 3.299-1.355z" mask="url(#f)"/>
  <mask id="g" width="12.938" height="15.739" x="103.12" y="-1.135" fill="#000" maskUnits="userSpaceOnUse">
    <path fill="#fff" d="M103.12-1.135h12.938v15.739H103.12z"/>
    <path d="m109.368 2.243.9-1.469 1.928.124-1.594 1.425zm.134.346c-.026.407.209.686.616.713.383.024.676-.222.702-.629l1.209.078c-.115 1.05-.915 1.709-2.017 1.638-1.066-.069-1.739-.821-1.719-1.878zm-4.154 10.386 3.604-8.185 2.156.138 2.503 8.579-1.928-.124-.529-1.874-3.186-.205-.764 1.79zm3.192-3.09 2.216.143-.909-3.257z"/>
  </mask>
  <path fill="#fff" d="m109.368 2.243.9-1.469 1.928.124-1.594 1.425zm.134.346c-.026.407.209.686.616.713.383.024.676-.222.702-.629l1.209.078c-.115 1.05-.915 1.709-2.017 1.638-1.066-.069-1.739-.821-1.719-1.878zm-4.154 10.386 3.604-8.185 2.156.138 2.503 8.579-1.928-.124-.529-1.874-3.186-.205-.764 1.79zm3.192-3.09 2.216.143-.909-3.257z"/>
  <path fill="#EF4B23" d="m109.368 2.243-.852-.522-.867 1.414 1.655.106zm.9-1.469.065-.998-.602-.039-.315.515zm1.928.124.667.746 1.78-1.59-2.382-.154zm-1.594 1.425-.064.997.418.027.312-.279zm-1.1.266.998.064.065-.998-.998-.064zm1.318.084.064-.998-.998-.064-.064.998zm1.209.078.994.11.115-1.04-1.045-.068zm-3.736-.24.064-.998-1.044-.067-.02 1.046zm-2.945 10.464-.916-.403-.576 1.31 1.427.091zm3.604-8.185.064-.998-.697-.045-.282.64zm2.156.138.96-.28-.197-.673-.699-.045zm2.503 8.579-.065.998 1.424.091-.399-1.37zm-1.928-.124-.963.271.192.681.706.046zm-.529-1.874.962-.272-.192-.68-.706-.046zm-3.186-.205.064-.998-.706-.045-.278.65zm-.764 1.79-.064.999.706.045.277-.65zm1.336-3.208-.922-.387-.543 1.295 1.401.09zm2.216.142-.064.998 1.406.09-.379-1.357zm-.909-3.257.963-.269-.773-2.77-1.112 2.652zm.374-4.005.9-1.47-1.705-1.044-.9 1.469zm-.017-.994 1.928.124.129-1.996-1.928-.124zm1.326-1.62-1.594 1.425 1.332 1.491 1.595-1.424zm-.864 1.173-1.234-.08-.128 1.996 1.234.08zm-2.162 1.2c-.026.41.076.854.384 1.213.311.363.742.534 1.166.561l.128-1.995a.36.36 0 0 1 .225.133c.096.112.094.213.093.216zm1.55 1.774c.425.028.863-.095 1.209-.399s.527-.728.555-1.163l-1.996-.128a.34.34 0 0 1 .12-.21.35.35 0 0 1 .24-.095zm.702-.628 1.209.078.128-1.996-1.209-.078zm.279-1.03c-.032.292-.148.47-.276.574-.131.107-.349.198-.683.176l-.128 1.996c.767.05 1.501-.154 2.074-.621.576-.47.918-1.146 1.001-1.906zm-.959.75c-.306-.02-.487-.129-.591-.243-.105-.116-.198-.31-.192-.618l-2-.038c-.014.75.22 1.46.712 2.001.494.544 1.183.845 1.943.894zm-1.847.118 1.209.078.129-1.996-1.21-.078zm-1.966 9.87 3.604-8.186-1.83-.806-3.605 8.185zm2.625-7.591 2.156.138.128-1.996-2.156-.138zm1.26-.58 2.503 8.579 1.92-.56-2.503-8.579zm3.527 7.3-1.928-.123-.129 1.996 1.928.123zm-1.03.603-.529-1.874-1.925.543.529 1.874zm-1.427-2.6-3.186-.205-.128 1.996 3.185.205zm-4.17.4-.764 1.791 1.839.785.765-1.79zm.22 1.186-1.856-.12-.129 1.996 1.857.12zm1.208-1.213 2.216.142.128-1.996-2.216-.142zm3.243-1.125-.909-3.257-1.926.538.909 3.257zm-2.794-3.375L107.618 9.5l1.845.774 1.306-3.115z" mask="url(#g)"/>
  <mask id="h" width="10.941" height="11.848" x="113.265" y="3.507" fill="#000" maskUnits="userSpaceOnUse">
    <path fill="#fff" d="M113.265 3.507h10.941v11.848h-10.941z"/>
    <path d="m115.186 13.632.75-8.367 1.625.146 3.078 5.588.472-5.27 1.769.158-.749 8.366-1.638-.146-3.078-5.59-.472 5.272z"/>
  </mask>
  <path fill="#fff" d="m115.186 13.632.75-8.367 1.625.146 3.078 5.588.472-5.27 1.769.158-.749 8.366-1.638-.146-3.078-5.59-.472 5.272z"/>
  <path fill="#EF4B23" d="m115.186 13.632-.996-.09-.089.996.996.09zm.75-8.367.089-.996-.996-.09-.089.997zm1.625.146.876-.483-.257-.466-.53-.048zm3.078 5.588-.876.483 1.58 2.869.292-3.263zm.472-5.27.089-.997-.996-.089-.089.996zm1.769.158.996.089.089-.996-.996-.09zm-.749 8.366-.09.996.996.09.09-.997zm-1.638-.146-.876.482.257.466.53.048zm-3.078-5.59.876-.481-1.58-2.87-.292 3.263zm-.472 5.272-.089.996.996.089.089-.996zm-.761-.068.75-8.367-1.992-.178-.75 8.366zm-.336-7.46 1.626.146.178-1.993-1.625-.145zm.839-.368 3.078 5.589 1.752-.965-3.078-5.589zm4.95 5.196.472-5.271-1.992-.179-.472 5.271zm-.613-4.365 1.769.159.178-1.992-1.769-.159zm.862-.926-.749 8.366 1.992.178.749-8.366zm.336 7.46-1.638-.147-.178 1.992 1.637.146zm-.851.366-3.078-5.588-1.752.964 3.078 5.59zm-4.95-5.195-.472 5.27 1.992.179.472-5.27zm.614 4.364-1.757-.157-.179 1.992 1.757.157z" mask="url(#h)"/>
</svg>
