<svg xmlns="http://www.w3.org/2000/svg" width="172" height="36" fill="none" viewBox="0 0 172 36">
  <path fill="#C12202" d="m11.963 34.152-.233-1.698L7.544 17.48l-.89.251c-2.514.7-3.25 2.578-2.793 4.213.485 1.742 2.327 3.197 4.734 2.524l.08.278c.36 1.276-.116 2.363-1.418 2.722-2.848.8-5.578-1.581-6.306-4.204-1.069-3.817 1.276-7.284 4.985-8.317l3.683-1.024-.027.125 9.835 13.725 1.429-16.994 2.99-.835.234 1.697 4.5 16.114.674 1.572-3.216.898-.233-1.697-2.74-9.827-1.06 12.656-2.937.817-7.266-10.087 2.685 9.611.674 1.572-3.216.898zM28.49 22.547c-.772-3.746.593-7.986 5.12-8.91 1.267-.261 2.425-.18 3.431.143.575-.467.989-1.05.908-1.59-.072-.485-.36-1.042-1.474-1.167l1.294-1.85c1.689.358 2.21 1.338 2.371 2.245.17 1.114-.727 2.443-1.626 3.063 1.725 1.113 2.884 3.045 3.306 5.102.754 3.655-.746 7.778-5.2 8.694-4.366.898-7.393-2.147-8.13-5.722zm4.105-9.88c-.377-1.833 1.258-2.31 1.042-3.351a.87.87 0 0 0-1.042-.665c-.422.09-.826.404-.97.988l-1.617-1.015a3.2 3.2 0 0 1 2.327-1.949c1.41-.287 2.973.332 3.323 2.048.368 1.805-1.689 2.488-1.518 3.629zm-1.06 8.99c.458 2.255 2.111 4.294 4.51 3.8 2.389-.494 3.143-2.991 2.676-5.246-.458-2.254-2.165-4.248-4.527-3.763s-3.117 2.955-2.659 5.21m19.528 3.754v-1.716c-.944-6.458-1.465-10.105-2.39-16.563-.09-.655-.161-1.114-.467-1.644l2.866-1.868 2.82 19.662.467 1.644-3.296.476zm3.485-7.599c-.414-3.8 1.347-7.895 5.946-8.39 4.518-.484 7.204 2.983 7.599 6.701.395 3.719-1.482 7.68-6 8.165-4.429.476-7.16-2.838-7.554-6.467zm6.62-9.62L60.16 6.136l-.565 2.228-3.054.332 2.676-4.365 1.455-.153L64.22 7.87l-3.054.332zm-3.513 9.027c.243 2.29 1.698 4.473 4.123 4.213s3.413-2.677 3.162-4.967c-.243-2.29-1.752-4.438-4.15-4.177-2.398.26-3.386 2.65-3.135 4.931m4.581 8.408c1.033-.108 1.788.503 1.905 1.526.116 1.06-.495 1.815-1.527 1.932-1.024.107-1.788-.503-1.905-1.554-.107-1.033.503-1.788 1.527-1.904m18.629-14.821-2.389 2.066c-.665-1.114-1.716-1.86-3.153-1.779-2.497.144-3.512 2.56-3.386 4.743.135 2.443 1.698 4.599 4.312 4.446 1.32-.072 2.541-.808 3.107-2.075l2.318 1.716c-1.123 1.967-3.189 3.09-5.408 3.215-3.503.198-7.203-2.182-7.49-7.176-.207-3.674 1.993-7.482 6.386-7.734 2.55-.144 4.49.952 5.703 2.587zm8.947 1.868c.062-3.251 2.856-4.86 5.784-4.805 2.066.036 4.204.997 5.461 2.865l-2.192 2.03c-.745-1.365-2.173-1.994-3.386-2.021-1.24-.027-2.623.557-2.65 1.527-.053 2.901 8.327.674 8.228 5.704-.063 3.134-2.91 4.886-5.99 4.832-2.21-.045-4.582-1.033-5.92-3.018l2.452-1.877c.781 1.365 2.461 2.003 3.674 2.02 1.24.028 2.658-.583 2.676-1.814.045-2.497-8.245-.386-8.147-5.443zm19.841 9.521a6.06 6.06 0 0 1-3.781 1.042c-3.072-.206-4.384-2.569-4.222-4.949.171-2.524 2.12-5.039 5.506-4.814a5.7 5.7 0 0 1 3.009 1.15c.09-2.183-1.159-3.28-2.542-3.369-1.006-.072-2.075.44-2.73 1.635l-2.147-1.904c1.518-1.977 3.467-2.704 5.299-2.587 2.812.188 5.246 2.452 5.048 5.434l-.53 7.86.117 1.706-3.099-.207.063-1.006zm-2.955-18.692c-.063.97.431 1.698 1.527 1.77 1.123.072 1.707-.575 1.778-1.554l2.003.135c-.143 2.21-1.733 3.539-3.916 3.395-2.147-.144-3.548-1.68-3.395-3.89l2.003.135zm3.242 14.48c-.422-1.006-1.634-1.833-2.667-1.905-1.464-.098-2.371 1.051-2.461 2.282-.09 1.401.79 2.353 2.2 2.452 1.006.063 2.156-.431 2.839-1.536zm3.98 5.533.422-1.653 1.176-10.051c.072-.656.126-1.114-.035-1.716l3.251-1.069-.332 2.857c1.167-1.545 2.56-2.309 4.069-2.129 2.425.287 3.997 2.461 3.521 6.521l-.8 6.853.027 1.716-3.314-.386.422-1.662.817-6.961c.261-2.2-.485-3.503-1.572-3.629-1.571-.188-2.775 1.985-3.691 4.051l-.692 5.937.036 1.716-3.314-.386zm27.341 9.799 1.285-6.341a5.37 5.37 0 0 1-3.656.548c-4.141-.845-5.425-4.913-4.68-8.605.746-3.665 3.512-6.88 7.509-6.072 1.186.242 2.318.88 3.297 1.958l.027-.108 3.099-.835-4.06 20.021-.108 1.707-3.27-.665.566-1.617zm3.081-15.207c-.422-1.257-1.239-2.425-2.623-2.703-1.913-.386-3.826 1.248-4.437 4.23-.467 2.282.234 4.77 2.596 5.246 1.069.216 2.308-.117 3.341-1.285l1.114-5.488zm9.943 12.773.656-1.58.144-.53c-1.141 1.158-2.596 1.93-4.312 1.472-2.362-.628-3.601-3.009-2.56-6.952l1.402-5.282c.17-.637.287-1.086.215-1.697l3.369-.593-2.228 8.416c-.566 2.138-.018 3.53 1.042 3.818 1.608.43 3.117-1.878 4.329-3.88l1.06-3.998c.171-.637.288-1.086.216-1.697l3.368-.593-3.242 12.252-.216 1.697-3.225-.853zm12.027 2.677a6.07 6.07 0 0 1-3.925.063c-2.919-.97-3.593-3.584-2.847-5.848.799-2.398 3.323-4.347 6.539-3.287a5.63 5.63 0 0 1 2.623 1.868c.637-2.093-.306-3.467-1.617-3.898-.952-.315-2.12-.1-3.054.898l-1.608-2.38c1.958-1.527 4.033-1.752 5.785-1.177 2.676.89 4.473 3.692 3.53 6.53l-2.479 7.473-.315 1.68-2.946-.98.314-.951zm1.33-4.015c-.153-1.078-1.123-2.192-2.102-2.515-1.392-.459-2.56.422-2.955 1.598-.44 1.339.18 2.48 1.518 2.929.952.314 2.201.125 3.135-.782zm2.587-14.56-.126 4.23-1.392-.458-1.59-4.796 3.108 1.032z"/>
  <path fill="#C12202" d="m11.963 32.616-.233-1.698-4.186-14.973-.89.251c-2.514.7-3.25 2.578-2.793 4.213.485 1.742 2.327 3.198 4.734 2.524l.08.278c.36 1.276-.116 2.363-1.418 2.722-2.848.8-5.578-1.581-6.306-4.204-1.069-3.817 1.276-7.284 4.985-8.317l3.683-1.024-.027.126 9.835 13.724 1.429-16.994 2.99-.835.234 1.697 4.5 16.114.674 1.572-3.216.898-.233-1.697-2.74-9.827-1.06 12.656-2.937.818-7.266-10.087 2.685 9.61.674 1.572-3.216.898zM28.49 21.02c-.772-3.746.593-7.985 5.12-8.91 1.267-.261 2.425-.18 3.431.143.575-.467.989-1.05.908-1.59-.072-.485-.36-1.042-1.474-1.168l1.294-1.85c1.689.36 2.21 1.339 2.371 2.246.17 1.114-.727 2.443-1.626 3.063 1.725 1.113 2.884 3.045 3.306 5.101.754 3.656-.746 7.779-5.2 8.695-4.366.898-7.393-2.146-8.13-5.721zm4.105-9.88c-.377-1.833 1.258-2.31 1.042-3.351a.87.87 0 0 0-1.042-.665c-.422.09-.826.404-.97.988l-1.617-1.015a3.2 3.2 0 0 1 2.327-1.949c1.41-.287 2.973.332 3.323 2.048.368 1.805-1.689 2.488-1.518 3.629zm-1.06 8.99c.458 2.255 2.111 4.294 4.51 3.8 2.389-.494 3.143-2.991 2.676-5.246-.458-2.254-2.165-4.248-4.527-3.763s-3.117 2.955-2.659 5.21m19.528 3.745V22.16c-.944-6.458-1.465-10.105-2.39-16.563-.09-.655-.161-1.114-.467-1.644l2.866-1.868 2.82 19.662.467 1.644-3.296.476zm3.485-7.599c-.414-3.8 1.347-7.895 5.946-8.39 4.518-.484 7.204 2.983 7.599 6.701.395 3.719-1.482 7.68-6 8.165-4.429.476-7.16-2.838-7.554-6.467zm6.62-9.61L60.16 4.608l-.565 2.228-3.054.332 2.676-4.365 1.455-.153 3.548 3.692-3.054.332zm-3.513 9.017c.243 2.29 1.698 4.473 4.123 4.213s3.413-2.677 3.162-4.967c-.243-2.29-1.752-4.437-4.15-4.177s-3.386 2.65-3.135 4.931m4.581 8.408c1.033-.108 1.788.503 1.905 1.527.116 1.06-.495 1.814-1.527 1.93-1.024.108-1.788-.502-1.905-1.553-.107-1.033.503-1.788 1.527-1.904M80.865 9.28l-2.389 2.066c-.665-1.114-1.716-1.86-3.153-1.779-2.497.144-3.512 2.56-3.386 4.743.135 2.443 1.698 4.599 4.312 4.446 1.32-.072 2.541-.808 3.107-2.075l2.318 1.716c-1.123 1.967-3.189 3.09-5.408 3.216-3.503.197-7.203-2.183-7.49-7.177-.207-3.674 1.993-7.482 6.386-7.734 2.55-.144 4.49.952 5.703 2.587zm8.947 1.86c.062-3.252 2.856-4.86 5.784-4.806 2.066.036 4.204.997 5.461 2.865l-2.192 2.03c-.745-1.365-2.173-1.994-3.386-2.02-1.24-.028-2.623.556-2.65 1.526-.053 2.901 8.327.674 8.228 5.704-.063 3.134-2.91 4.886-5.99 4.832-2.21-.045-4.582-1.033-5.92-3.018l2.452-1.877c.781 1.365 2.461 2.003 3.674 2.02 1.24.028 2.658-.583 2.676-1.814.045-2.497-8.245-.386-8.147-5.443zm19.841 9.52a6.06 6.06 0 0 1-3.781 1.042c-3.072-.206-4.384-2.569-4.222-4.949.171-2.524 2.12-5.039 5.506-4.814a5.7 5.7 0 0 1 3.009 1.15c.09-2.183-1.159-3.28-2.542-3.369-1.006-.072-2.075.44-2.73 1.635l-2.147-1.904c1.518-1.976 3.467-2.704 5.299-2.587 2.812.188 5.246 2.452 5.048 5.434l-.53 7.86.117 1.706-3.099-.207.063-1.006zm-2.955-18.683c-.063.97.431 1.698 1.527 1.77 1.123.072 1.707-.575 1.778-1.554l2.003.135c-.143 2.21-1.733 3.539-3.916 3.395-2.147-.144-3.548-1.68-3.395-3.89l2.003.135zm3.242 14.47c-.422-1.005-1.634-1.832-2.667-1.903-1.464-.1-2.371 1.05-2.461 2.28-.09 1.402.79 2.354 2.2 2.453 1.006.063 2.156-.431 2.839-1.536zm3.98 5.533.422-1.652 1.176-10.051c.072-.656.126-1.114-.035-1.716l3.251-1.068-.332 2.856c1.167-1.545 2.56-2.309 4.069-2.129 2.425.288 3.997 2.461 3.521 6.521l-.8 6.854.027 1.715-3.314-.386.422-1.662.817-6.961c.261-2.2-.485-3.503-1.572-3.629-1.571-.188-2.775 1.985-3.691 4.051l-.692 5.937.036 1.716-3.314-.386zm27.341 9.8 1.285-6.341a5.37 5.37 0 0 1-3.656.548c-4.141-.845-5.425-4.913-4.68-8.605.746-3.665 3.512-6.88 7.509-6.072 1.186.242 2.318.88 3.297 1.958l.027-.108 3.099-.835-4.06 20.021-.108 1.707-3.27-.665.566-1.617zm3.081-15.207c-.422-1.257-1.239-2.425-2.623-2.703-1.913-.386-3.826 1.248-4.437 4.23-.467 2.282.234 4.77 2.596 5.246 1.069.215 2.308-.117 3.341-1.285l1.114-5.488zm9.943 12.773.656-1.58.144-.53c-1.141 1.158-2.596 1.93-4.312 1.472-2.362-.628-3.601-3.009-2.56-6.952l1.402-5.281c.17-.638.287-1.087.215-1.698l3.369-.593-2.228 8.417c-.566 2.137-.018 3.53 1.042 3.817 1.608.431 3.117-1.877 4.329-3.88l1.06-3.997c.171-.638.288-1.087.216-1.698l3.368-.593-3.242 12.252-.216 1.697-3.225-.853zm12.027 2.677a6.07 6.07 0 0 1-3.925.063c-2.919-.97-3.593-3.584-2.847-5.848.799-2.398 3.323-4.347 6.539-3.287a5.63 5.63 0 0 1 2.623 1.868c.637-2.093-.306-3.467-1.617-3.898-.952-.315-2.12-.1-3.054.898l-1.608-2.38c1.958-1.527 4.033-1.752 5.785-1.177 2.676.89 4.473 3.692 3.53 6.53l-2.479 7.473-.315 1.68-2.946-.98.314-.951zm1.33-4.015c-.153-1.078-1.123-2.192-2.102-2.515-1.392-.458-2.56.422-2.955 1.599-.44 1.338.18 2.479 1.518 2.928.952.314 2.201.125 3.135-.782zm2.587-14.551-.126 4.23-1.392-.458-1.59-4.796 3.108 1.033z"/>
  <path fill="#EF4B23" d="m11.963 32.616-.233-1.698-4.186-14.973-.89.251c-2.514.7-3.25 2.578-2.793 4.213.485 1.742 2.327 3.198 4.734 2.524l.08.278c.36 1.276-.116 2.363-1.418 2.722-2.848.8-5.578-1.581-6.306-4.204-1.069-3.817 1.276-7.284 4.985-8.317l3.683-1.024-.027.126 9.835 13.724 1.429-16.994 2.99-.835.234 1.697 4.5 16.114.674 1.572-3.216.898-.233-1.697-2.74-9.827-1.06 12.656-2.937.818-7.266-10.087 2.685 9.61.674 1.572-3.216.898zM28.49 21.02c-.772-3.746.593-7.985 5.12-8.91 1.267-.261 2.425-.18 3.431.143.575-.467.989-1.05.908-1.59-.072-.485-.36-1.042-1.474-1.168l1.294-1.85c1.689.36 2.21 1.339 2.371 2.246.17 1.114-.727 2.443-1.626 3.063 1.725 1.113 2.884 3.045 3.306 5.101.754 3.656-.746 7.779-5.2 8.695-4.366.898-7.393-2.146-8.13-5.721zm4.105-9.88c-.377-1.833 1.258-2.31 1.042-3.351a.87.87 0 0 0-1.042-.665c-.422.09-.826.404-.97.988l-1.617-1.015a3.2 3.2 0 0 1 2.327-1.949c1.41-.287 2.973.332 3.323 2.048.368 1.805-1.689 2.488-1.518 3.629zm-1.06 8.99c.458 2.255 2.111 4.294 4.51 3.8 2.389-.494 3.143-2.991 2.676-5.246-.458-2.254-2.165-4.248-4.527-3.763s-3.117 2.955-2.659 5.21m19.528 3.745V22.16c-.944-6.458-1.465-10.105-2.39-16.563-.09-.655-.161-1.114-.467-1.644l2.866-1.868 2.82 19.662.467 1.644-3.296.476zm3.485-7.599c-.414-3.8 1.347-7.895 5.946-8.39 4.518-.484 7.204 2.983 7.599 6.701.395 3.719-1.482 7.68-6 8.165-4.429.476-7.16-2.838-7.554-6.467zm6.62-9.61L60.16 4.608l-.565 2.228-3.054.332 2.676-4.365 1.455-.153 3.548 3.692-3.054.332zm-3.513 9.017c.243 2.29 1.698 4.473 4.123 4.213s3.413-2.677 3.162-4.967c-.243-2.29-1.752-4.437-4.15-4.177s-3.386 2.65-3.135 4.931m4.581 8.408c1.033-.108 1.788.503 1.905 1.527.116 1.06-.495 1.814-1.527 1.93-1.024.108-1.788-.502-1.905-1.553-.107-1.033.503-1.788 1.527-1.904M80.865 9.28l-2.389 2.066c-.665-1.114-1.716-1.86-3.153-1.779-2.497.144-3.512 2.56-3.386 4.743.135 2.443 1.698 4.599 4.312 4.446 1.32-.072 2.541-.808 3.107-2.075l2.318 1.716c-1.123 1.967-3.189 3.09-5.408 3.216-3.503.197-7.203-2.183-7.49-7.177-.207-3.674 1.993-7.482 6.386-7.734 2.55-.144 4.49.952 5.703 2.587zm8.947 1.86c.062-3.252 2.856-4.86 5.784-4.806 2.066.036 4.204.997 5.461 2.865l-2.192 2.03c-.745-1.365-2.173-1.994-3.386-2.02-1.24-.028-2.623.556-2.65 1.526-.053 2.901 8.327.674 8.228 5.704-.063 3.134-2.91 4.886-5.99 4.832-2.21-.045-4.582-1.033-5.92-3.018l2.452-1.877c.781 1.365 2.461 2.003 3.674 2.02 1.24.028 2.658-.583 2.676-1.814.045-2.497-8.245-.386-8.147-5.443zm19.841 9.52a6.06 6.06 0 0 1-3.781 1.042c-3.072-.206-4.384-2.569-4.222-4.949.171-2.524 2.12-5.039 5.506-4.814a5.7 5.7 0 0 1 3.009 1.15c.09-2.183-1.159-3.28-2.542-3.369-1.006-.072-2.075.44-2.73 1.635l-2.147-1.904c1.518-1.976 3.467-2.704 5.299-2.587 2.812.188 5.246 2.452 5.048 5.434l-.53 7.86.117 1.706-3.099-.207.063-1.006zm-2.955-18.683c-.063.97.431 1.698 1.527 1.77 1.123.072 1.707-.575 1.778-1.554l2.003.135c-.143 2.21-1.733 3.539-3.916 3.395-2.147-.144-3.548-1.68-3.395-3.89l2.003.135zm3.242 14.47c-.422-1.005-1.634-1.832-2.667-1.903-1.464-.1-2.371 1.05-2.461 2.28-.09 1.402.79 2.354 2.2 2.453 1.006.063 2.156-.431 2.839-1.536zm3.98 5.533.422-1.652 1.176-10.051c.072-.656.126-1.114-.035-1.716l3.251-1.068-.332 2.856c1.167-1.545 2.56-2.309 4.069-2.129 2.425.288 3.997 2.461 3.521 6.521l-.8 6.854.027 1.715-3.314-.386.422-1.662.817-6.961c.261-2.2-.485-3.503-1.572-3.629-1.571-.188-2.775 1.985-3.691 4.051l-.692 5.937.036 1.716-3.314-.386zm27.341 9.8 1.285-6.341a5.37 5.37 0 0 1-3.656.548c-4.141-.845-5.425-4.913-4.68-8.605.746-3.665 3.512-6.88 7.509-6.072 1.186.242 2.318.88 3.297 1.958l.027-.108 3.099-.835-4.06 20.021-.108 1.707-3.27-.665.566-1.617zm3.081-15.207c-.422-1.257-1.239-2.425-2.623-2.703-1.913-.386-3.826 1.248-4.437 4.23-.467 2.282.234 4.77 2.596 5.246 1.069.215 2.308-.117 3.341-1.285l1.114-5.488zm9.943 12.773.656-1.58.144-.53c-1.141 1.158-2.596 1.93-4.312 1.472-2.362-.628-3.601-3.009-2.56-6.952l1.402-5.281c.17-.638.287-1.087.215-1.698l3.369-.593-2.228 8.417c-.566 2.137-.018 3.53 1.042 3.817 1.608.431 3.117-1.877 4.329-3.88l1.06-3.997c.171-.638.288-1.087.216-1.698l3.368-.593-3.242 12.252-.216 1.697-3.225-.853zm12.027 2.677a6.07 6.07 0 0 1-3.925.063c-2.919-.97-3.593-3.584-2.847-5.848.799-2.398 3.323-4.347 6.539-3.287a5.63 5.63 0 0 1 2.623 1.868c.637-2.093-.306-3.467-1.617-3.898-.952-.315-2.12-.1-3.054.898l-1.608-2.38c1.958-1.527 4.033-1.752 5.785-1.177 2.676.89 4.473 3.692 3.53 6.53l-2.479 7.473-.315 1.68-2.946-.98.314-.951zm1.33-4.015c-.153-1.078-1.123-2.192-2.102-2.515-1.392-.458-2.56.422-2.955 1.599-.44 1.338.18 2.479 1.518 2.928.952.314 2.201.125 3.135-.782zm2.587-14.551-.126 4.23-1.392-.458-1.59-4.796 3.108 1.033z"/>
  <path fill="#FFF400" d="m11.963 31.08-.233-1.698L7.544 14.41l-.89.251c-2.514.7-3.25 2.578-2.793 4.213.485 1.742 2.327 3.198 4.734 2.524l.08.278c.36 1.276-.116 2.363-1.418 2.722-2.848.8-5.578-1.58-6.306-4.204-1.069-3.817 1.276-7.284 4.985-8.317l3.683-1.024-.027.126 9.835 13.724 1.429-16.994 2.99-.835.234 1.697 4.5 16.114.674 1.572-3.216.898-.233-1.697-2.74-9.827-1.06 12.656-2.937.818-7.266-10.087 2.685 9.61.674 1.572-3.216.899zM28.49 19.484c-.772-3.746.593-7.985 5.12-8.91 1.267-.261 2.425-.18 3.431.143.575-.467.989-1.05.908-1.59-.072-.485-.36-1.042-1.474-1.167l1.294-1.85c1.689.359 2.21 1.338 2.371 2.245.17 1.114-.727 2.443-1.626 3.063 1.725 1.114 2.884 3.045 3.306 5.102.754 3.655-.746 7.778-5.2 8.694-4.366.899-7.393-2.146-8.13-5.721zm4.105-9.88c-.377-1.833 1.258-2.31 1.042-3.351a.87.87 0 0 0-1.042-.665c-.422.09-.826.405-.97.988l-1.617-1.015a3.2 3.2 0 0 1 2.327-1.949c1.41-.287 2.973.333 3.323 2.048.368 1.806-1.689 2.488-1.518 3.629zm-1.06 8.99c.458 2.255 2.111 4.294 4.51 3.8 2.389-.494 3.143-2.991 2.676-5.246-.458-2.254-2.165-4.248-4.527-3.763s-3.117 2.955-2.659 5.21m19.528 3.754v-1.716c-.944-6.458-1.465-10.104-2.39-16.563-.09-.655-.161-1.113-.467-1.643L51.072.558l2.82 19.662.467 1.644-3.296.476zm3.485-7.599c-.414-3.8 1.347-7.895 5.946-8.39 4.518-.484 7.204 2.983 7.599 6.702s-1.482 7.68-6 8.164c-4.429.476-7.16-2.838-7.554-6.467zm6.62-9.62L60.16 3.073l-.565 2.228-3.054.332 2.676-4.365 1.455-.153 3.548 3.692-3.054.332zm-3.513 9.018c.243 2.29 1.698 4.473 4.123 4.213s3.413-2.677 3.162-4.967c-.243-2.29-1.752-4.437-4.15-4.177s-3.386 2.65-3.135 4.931m4.581 8.417c1.033-.108 1.788.503 1.905 1.527.116 1.06-.495 1.814-1.527 1.93-1.024.109-1.788-.502-1.905-1.553-.107-1.033.503-1.788 1.527-1.904M80.865 7.744 78.476 9.81c-.665-1.114-1.716-1.86-3.153-1.779-2.497.144-3.512 2.56-3.386 4.743.135 2.443 1.698 4.599 4.312 4.446 1.32-.072 2.541-.808 3.107-2.075l2.318 1.716c-1.123 1.967-3.189 3.09-5.408 3.216-3.503.197-7.203-2.183-7.49-7.177-.207-3.674 1.993-7.482 6.386-7.734 2.55-.144 4.49.952 5.703 2.587zm8.947 1.859c.062-3.251 2.856-4.859 5.784-4.805 2.066.036 4.204.997 5.461 2.865l-2.192 2.03c-.745-1.365-2.173-1.994-3.386-2.02-1.24-.028-2.623.556-2.65 1.526-.053 2.901 8.327.674 8.228 5.704-.063 3.135-2.91 4.886-5.99 4.832-2.21-.045-4.582-1.033-5.92-3.018l2.452-1.877c.781 1.365 2.461 2.003 3.674 2.021 1.24.027 2.658-.584 2.676-1.814.045-2.498-8.245-.387-8.147-5.444zm19.841 9.521a6.06 6.06 0 0 1-3.781 1.042c-3.072-.206-4.384-2.568-4.222-4.949.171-2.524 2.12-5.039 5.506-4.814a5.7 5.7 0 0 1 3.009 1.15c.09-2.183-1.159-3.279-2.542-3.369-1.006-.072-2.075.44-2.73 1.635l-2.147-1.904c1.518-1.976 3.467-2.704 5.299-2.587 2.812.188 5.246 2.452 5.048 5.434l-.53 7.86.117 1.706-3.099-.207.063-1.006zM106.698.442c-.063.97.431 1.697 1.527 1.77 1.123.07 1.707-.576 1.778-1.555l2.003.135c-.143 2.21-1.733 3.539-3.916 3.395-2.147-.144-3.548-1.68-3.395-3.89l2.003.136zm3.242 14.47c-.422-1.006-1.634-1.833-2.667-1.904-1.464-.1-2.371 1.05-2.461 2.281-.09 1.401.79 2.353 2.2 2.452 1.006.063 2.156-.431 2.839-1.536zm3.98 5.533.422-1.653 1.176-10.05c.072-.657.126-1.115-.035-1.716l3.251-1.07-.332 2.857c1.167-1.545 2.56-2.308 4.069-2.129 2.425.288 3.997 2.461 3.521 6.521l-.8 6.854.027 1.715-3.314-.386.422-1.662.817-6.96c.261-2.201-.485-3.504-1.572-3.63-1.571-.188-2.775 1.985-3.691 4.051l-.692 5.938.036 1.715-3.314-.386zm27.341 9.799 1.285-6.341a5.37 5.37 0 0 1-3.656.548c-4.141-.844-5.425-4.913-4.68-8.605.746-3.665 3.512-6.88 7.509-6.072 1.186.243 2.318.88 3.297 1.958l.027-.108 3.099-.835-4.06 20.021-.108 1.707-3.27-.665.566-1.617zm3.081-15.206c-.422-1.258-1.239-2.426-2.623-2.704-1.913-.386-3.826 1.248-4.437 4.23-.467 2.282.234 4.77 2.596 5.246 1.069.216 2.308-.117 3.341-1.284l1.114-5.488zm9.943 12.782.656-1.582.144-.53c-1.141 1.159-2.596 1.931-4.312 1.473-2.362-.628-3.601-3.009-2.56-6.952l1.402-5.281c.17-.638.287-1.087.215-1.698l3.369-.593-2.228 8.417c-.566 2.137-.018 3.53 1.042 3.817 1.608.431 3.117-1.877 4.329-3.88l1.06-3.997c.171-.638.288-1.087.216-1.698l3.368-.593-3.242 12.252-.216 1.697-3.225-.853zm12.027 2.667a6.07 6.07 0 0 1-3.925.063c-2.919-.97-3.593-3.584-2.847-5.848.799-2.398 3.323-4.347 6.539-3.287a5.63 5.63 0 0 1 2.623 1.868c.637-2.093-.306-3.467-1.617-3.898-.952-.315-2.12-.099-3.054.898l-1.608-2.38c1.958-1.527 4.033-1.752 5.785-1.177 2.676.89 4.473 3.692 3.53 6.53l-2.479 7.473-.315 1.68-2.946-.98.314-.951zm1.33-4.006c-.153-1.078-1.123-2.192-2.102-2.515-1.392-.458-2.56.422-2.955 1.599-.44 1.338.18 2.479 1.518 2.928.952.314 2.201.126 3.135-.782zm2.587-14.56-.126 4.23-1.392-.458-1.59-4.796 3.108 1.033z"/>
</svg>
