<svg xmlns="http://www.w3.org/2000/svg" width="162" height="69" fill="none" viewBox="0 0 162 69">
  <path fill="#C12202" d="m25.922 31.088-.153-1.706-3.45-15.216c-2.335.467-4.661 1.41-3.996 4.347.404 1.77 2.164 3.315 4.599 2.758l.062.278c.297 1.294-.233 2.354-1.554 2.65-2.883.656-5.488-1.85-6.09-4.518-.87-3.871 1.644-7.204 5.399-8.057l4.706-1.069c3.225-.727 4.653-1.58 4.096-4.024l.279-.063c1.284-.296 2.353.234 2.65 1.554.655 2.883-2.102 4.366-6.396 5.336l-.952.215 3.431 15.162.602 1.599-3.251.736z"/>
  <path fill="#C12202" d="M33.862 25.106c.853.836 2.02 1.33 3.44 1.07 1.249-.225 2.102-.97 2.524-2.354l2.506 1.41c-.88 2.084-2.506 3.404-4.68 3.8-4.635.844-7.652-2.578-8.335-6.342-.656-3.593.916-7.5 5.326-8.3 2.857-.52 5.928.818 6.521 4.07.216 1.185-.242 2.38-2.452 3.718l-4.841 2.928zm1.383-12-1.15-1.985-.404 2.264-3.027.547 2.353-4.544 1.447-.26 3.808 3.421-3.027.548zm1.177 7.446c1.877-1.069 1.626-1.518 1.563-1.832-.234-1.275-1.41-1.787-2.65-1.563-2.461.45-3.306 2.847-2.901 5.084.027.17.063.341.116.503l3.863-2.192zm4.293-15.099L38.47 9.98l-1.447.26.468-4.203zm.458 8.084c1.626-.224 1.68-.467 1.536-1.518l-.108-.8c-.107-.799-.224-1.625-.53-2.164l2.875-1.85.79 5.695 4.267-.593.35 2.56-4.267.592.89 6.405c.224 1.59.763 2.82 1.733 2.694.97-.134 1.24-1.329 1.536-2.102l2.443 1.518c-.889 1.95-2.02 3.037-3.664 3.261-1.905.26-4.32-.826-4.815-4.383l-.79-5.722c-.144-1.05-.26-1.266-1.886-1.042l-.35-2.56zM63.961 25.33l6.602-17.685-4.078.251c-3.297.207-4.446 2.174-4.33 3.98.108 1.688 1.32 3.26 3.135 3.143a4.6 4.6 0 0 0 .854-.134l.018.287c.08 1.374-.692 2.264-2.075 2.344-2.04.126-4.86-1.715-5.084-5.443-.198-3.215 1.805-6.7 7.311-7.042l8.488-.52L68.2 22.195l5.965-.368c.655-.045 1.203-.045 1.68-.333l.188 3.1-12.081.745zm20.785-1.769a6.06 6.06 0 0 1-3.701 1.32c-3.072.019-4.554-2.236-4.572-4.625-.018-2.533 1.743-5.183 5.138-5.21a5.73 5.73 0 0 1 3.08.925c-.071-2.182-1.4-3.18-2.784-3.17-1.006 0-2.039.592-2.605 1.832L77.021 12.9c1.365-2.075 3.251-2.956 5.093-2.965 2.82-.018 5.416 2.057 5.443 5.048l.054 7.878.242 1.697-3.107.018zm-.036-4.221c-.494-.97-1.77-1.716-2.803-1.707-1.464.01-2.29 1.222-2.281 2.461.009 1.41.96 2.29 2.371 2.282 1.006 0 2.12-.593 2.722-1.743V19.34zm4.527 5.281.27-1.688c.17-6.521.269-10.195.44-16.716.017-.665.026-1.123-.19-1.698l3.144-1.356-.52 19.85.188 1.698zm4.706-6.907c.243-3.817 2.668-7.554 7.285-7.258 4.536.288 6.593 4.16 6.359 7.887s-2.766 7.311-7.293 7.024c-4.446-.279-6.575-4.015-6.342-7.662zm3.171-.063c-.144 2.3.916 4.698 3.35 4.85 2.435.153 3.818-2.065 3.962-4.356.143-2.29-.971-4.67-3.387-4.823-2.407-.153-3.781 2.039-3.934 4.33zm10.33 13.429 2.146-18.037-.027-1.706 3.081.368-.108.943a5.27 5.27 0 0 1 3.566-.817c4.195.503 5.812 4.455 5.363 8.191-.44 3.71-2.937 7.15-6.988 6.665-1.195-.144-2.381-.692-3.423-1.653l-.763 6.396.027 1.715-3.315-.395.432-1.653zm3.961-8.938c.512 1.015 1.347 1.806 2.578 1.958 1.94.234 4.006-1.518 4.365-4.545.278-2.308-.62-4.733-3.018-5.02-1.087-.126-2.273.34-3.189 1.526l-.727 6.081zm17.829 5.452a6 6 0 0 1-3.871.638c-3.027-.52-4.087-3.009-3.683-5.362.431-2.488 2.641-4.797 5.982-4.213 1.051.18 2.093.71 2.866 1.455.314-2.164-.818-3.377-2.174-3.61-.988-.171-2.111.215-2.883 1.338l-1.94-2.111c1.715-1.805 3.727-2.326 5.541-2.012 2.776.485 4.968 2.991 4.456 5.937l-1.348 7.76-.063 1.707-3.053-.53.17-.988zm.728-4.158c-.315-1.051-1.437-1.994-2.452-2.174-1.447-.252-2.47.8-2.686 2.012-.243 1.383.539 2.425 1.931 2.668.988.17 2.192-.207 2.982-1.23z"/>
  <path fill="#C12202" d="m135.252 15.073 3.53.8c-.26.233-.377 1.006-.287 1.67l.898 8.542 4.482-7.33c.332-.574.593-1.31.458-1.634l3.198.719-7.877 12.952c-1.779 2.928-3.414 6.89-7.339 6.009-1.68-.377-2.802-1.931-3.602-4.024l2.866-1.33c.278 1.653.835 2.426 1.509 2.579 1.455.332 2.55-1.779 3.817-3.854l-1.653-15.108zM25.922 29.552l-.153-1.706-3.45-15.216c-2.335.467-4.661 1.41-3.996 4.347.404 1.77 2.164 3.315 4.599 2.758l.062.278c.297 1.294-.233 2.354-1.554 2.65-2.883.656-5.488-1.85-6.09-4.518-.87-3.871 1.644-7.204 5.399-8.057l4.706-1.069c3.225-.727 4.653-1.58 4.096-4.024l.279-.063c1.284-.296 2.353.234 2.65 1.554.655 2.884-2.102 4.366-6.396 5.336l-.952.215L28.553 27.2l.602 1.599-3.251.737z"/>
  <path fill="#C12202" d="M33.862 23.57c.853.836 2.02 1.33 3.44 1.07 1.249-.225 2.102-.97 2.524-2.354l2.506 1.41c-.88 2.084-2.506 3.404-4.68 3.8-4.635.844-7.652-2.578-8.335-6.342-.656-3.593.916-7.5 5.326-8.3 2.857-.52 5.928.818 6.521 4.07.216 1.185-.242 2.38-2.452 3.718l-4.841 2.928zm1.383-11.99-1.15-1.986-.404 2.264-3.027.547 2.353-4.544 1.447-.26 3.808 3.421-3.027.548zm1.177 7.436c1.877-1.068 1.626-1.518 1.563-1.832-.234-1.275-1.41-1.787-2.65-1.563-2.461.45-3.306 2.847-2.901 5.084.027.17.063.341.116.503l3.863-2.192zm4.293-15.099L38.47 8.444l-1.447.26.468-4.203zm.458 8.084c1.626-.224 1.68-.467 1.536-1.518l-.108-.8c-.107-.799-.224-1.625-.53-2.164l2.875-1.85.79 5.695 4.267-.593.35 2.56-4.267.593.89 6.404c.224 1.59.763 2.82 1.733 2.694.97-.134 1.24-1.329 1.536-2.101l2.443 1.518c-.889 1.949-2.02 3.035-3.664 3.26-1.905.26-4.32-.826-4.815-4.383l-.79-5.722c-.144-1.05-.26-1.266-1.886-1.042l-.35-2.56zm22.788 11.803 6.602-17.686-4.078.252c-3.297.206-4.446 2.173-4.33 3.979.108 1.688 1.32 3.26 3.135 3.143a4.6 4.6 0 0 0 .854-.134l.018.287c.08 1.374-.692 2.264-2.075 2.344-2.04.126-4.86-1.715-5.084-5.443-.198-3.215 1.805-6.7 7.311-7.042l8.488-.52L68.2 20.668l5.965-.368c.655-.045 1.203-.045 1.68-.332l.188 3.098-12.081.746zm20.785-1.779a6.06 6.06 0 0 1-3.701 1.32c-3.072.019-4.554-2.236-4.572-4.625-.018-2.533 1.743-5.183 5.138-5.21a5.73 5.73 0 0 1 3.08.925c-.071-2.182-1.4-3.18-2.784-3.17-1.006 0-2.039.593-2.605 1.832l-2.281-1.733c1.365-2.075 3.251-2.956 5.093-2.965 2.82-.017 5.416 2.057 5.443 5.048l.054 7.878.242 1.697-3.107.018zm-.036-4.221c-.494-.97-1.77-1.716-2.803-1.707-1.464.01-2.29 1.222-2.281 2.461.009 1.41.96 2.29 2.371 2.282 1.006 0 2.12-.593 2.722-1.743v-1.293zm4.527 5.29.27-1.688c.17-6.521.269-10.195.44-16.716.017-.665.026-1.123-.19-1.698l3.144-1.356-.52 19.85.188 1.698zm4.706-6.916c.243-3.817 2.668-7.554 7.285-7.258 4.536.288 6.593 4.16 6.359 7.887s-2.766 7.311-7.293 7.024c-4.446-.279-6.575-4.015-6.342-7.662zm3.171-.054c-.144 2.3.916 4.698 3.35 4.85 2.435.153 3.818-2.065 3.962-4.356.143-2.29-.971-4.67-3.387-4.823-2.407-.153-3.781 2.039-3.934 4.33zm10.33 13.42 2.146-18.037-.027-1.706 3.081.368-.108.943a5.27 5.27 0 0 1 3.566-.817c4.195.503 5.812 4.455 5.363 8.192-.44 3.71-2.937 7.15-6.988 6.664-1.195-.143-2.381-.691-3.423-1.652l-.763 6.395.027 1.715-3.315-.395.432-1.653zm3.961-8.938c.512 1.015 1.347 1.806 2.578 1.958 1.94.234 4.006-1.518 4.365-4.545.278-2.308-.62-4.733-3.018-5.02-1.087-.126-2.273.34-3.189 1.526l-.727 6.081zm17.829 5.461a6 6 0 0 1-3.871.638c-3.027-.52-4.087-3.009-3.683-5.362.431-2.488 2.641-4.797 5.982-4.213 1.051.18 2.093.71 2.866 1.455.314-2.165-.818-3.377-2.174-3.61-.988-.171-2.111.215-2.883 1.338l-1.94-2.111c1.715-1.806 3.727-2.326 5.541-2.012 2.776.485 4.968 2.991 4.456 5.937l-1.348 7.76-.063 1.707-3.053-.53.17-.988zm.728-4.167c-.315-1.051-1.437-1.994-2.452-2.174-1.447-.252-2.47.8-2.686 2.012-.243 1.383.539 2.425 1.931 2.668.988.17 2.192-.207 2.982-1.23z"/>
  <path fill="#C12202" d="m135.252 13.537 3.53.8c-.26.233-.377 1.006-.287 1.67l.898 8.542 4.482-7.33c.332-.574.593-1.31.458-1.634l3.198.719-7.877 12.952c-1.779 2.928-3.414 6.89-7.339 6.01-1.68-.378-2.802-1.932-3.602-4.025l2.866-1.33c.278 1.653.835 2.426 1.509 2.579 1.455.332 2.55-1.779 3.817-3.854l-1.653-15.108z"/>
  <path fill="#EF4B23" d="m25.922 29.552-.153-1.706-3.45-15.216c-2.335.467-4.661 1.41-3.996 4.347.404 1.77 2.164 3.315 4.599 2.758l.062.278c.297 1.294-.233 2.354-1.554 2.65-2.883.656-5.488-1.85-6.09-4.518-.87-3.871 1.644-7.204 5.399-8.057l4.706-1.069c3.225-.727 4.653-1.58 4.096-4.024l.279-.063c1.284-.296 2.353.234 2.65 1.554.655 2.884-2.102 4.366-6.396 5.336l-.952.215L28.553 27.2l.602 1.599-3.251.737z"/>
  <path fill="#EF4B23" d="M33.862 23.57c.853.836 2.02 1.33 3.44 1.07 1.249-.225 2.102-.97 2.524-2.354l2.506 1.41c-.88 2.084-2.506 3.404-4.68 3.8-4.635.844-7.652-2.578-8.335-6.342-.656-3.593.916-7.5 5.326-8.3 2.857-.52 5.928.818 6.521 4.07.216 1.185-.242 2.38-2.452 3.718l-4.841 2.928zm1.383-11.99-1.15-1.986-.404 2.264-3.027.547 2.353-4.544 1.447-.26 3.808 3.421-3.027.548zm1.177 7.436c1.877-1.068 1.626-1.518 1.563-1.832-.234-1.275-1.41-1.787-2.65-1.563-2.461.45-3.306 2.847-2.901 5.084.027.17.063.341.116.503l3.863-2.192zm4.293-15.099L38.47 8.444l-1.447.26.468-4.203zm.458 8.084c1.626-.224 1.68-.467 1.536-1.518l-.108-.8c-.107-.799-.224-1.625-.53-2.164l2.875-1.85.79 5.695 4.267-.593.35 2.56-4.267.593.89 6.404c.224 1.59.763 2.82 1.733 2.694.97-.134 1.24-1.329 1.536-2.101l2.443 1.518c-.889 1.949-2.02 3.035-3.664 3.26-1.905.26-4.32-.826-4.815-4.383l-.79-5.722c-.144-1.05-.26-1.266-1.886-1.042l-.35-2.56zm22.788 11.803 6.602-17.686-4.078.252c-3.297.206-4.446 2.173-4.33 3.979.108 1.688 1.32 3.26 3.135 3.143a4.6 4.6 0 0 0 .854-.134l.018.287c.08 1.374-.692 2.264-2.075 2.344-2.04.126-4.86-1.715-5.084-5.443-.198-3.215 1.805-6.7 7.311-7.042l8.488-.52L68.2 20.668l5.965-.368c.655-.045 1.203-.045 1.68-.332l.188 3.098-12.081.746zm20.785-1.779a6.06 6.06 0 0 1-3.701 1.32c-3.072.019-4.554-2.236-4.572-4.625-.018-2.533 1.743-5.183 5.138-5.21a5.73 5.73 0 0 1 3.08.925c-.071-2.182-1.4-3.18-2.784-3.17-1.006 0-2.039.593-2.605 1.832l-2.281-1.733c1.365-2.075 3.251-2.956 5.093-2.965 2.82-.017 5.416 2.057 5.443 5.048l.054 7.878.242 1.697-3.107.018zm-.036-4.221c-.494-.97-1.77-1.716-2.803-1.707-1.464.01-2.29 1.222-2.281 2.461.009 1.41.96 2.29 2.371 2.282 1.006 0 2.12-.593 2.722-1.743v-1.293zm4.527 5.29.27-1.688c.17-6.521.269-10.195.44-16.716.017-.665.026-1.123-.19-1.698l3.144-1.356-.52 19.85.188 1.698zm4.706-6.916c.243-3.817 2.668-7.554 7.285-7.258 4.536.288 6.593 4.16 6.359 7.887s-2.766 7.311-7.293 7.024c-4.446-.279-6.575-4.015-6.342-7.662zm3.171-.054c-.144 2.3.916 4.698 3.35 4.85 2.435.153 3.818-2.065 3.962-4.356.143-2.29-.971-4.67-3.387-4.823-2.407-.153-3.781 2.039-3.934 4.33zm10.33 13.42 2.146-18.037-.027-1.706 3.081.368-.108.943a5.27 5.27 0 0 1 3.566-.817c4.195.503 5.812 4.455 5.363 8.192-.44 3.71-2.937 7.15-6.988 6.664-1.195-.143-2.381-.691-3.423-1.652l-.763 6.395.027 1.715-3.315-.395.432-1.653zm3.961-8.938c.512 1.015 1.347 1.806 2.578 1.958 1.94.234 4.006-1.518 4.365-4.545.278-2.308-.62-4.733-3.018-5.02-1.087-.126-2.273.34-3.189 1.526l-.727 6.081zm17.829 5.461a6 6 0 0 1-3.871.638c-3.027-.52-4.087-3.009-3.683-5.362.431-2.488 2.641-4.797 5.982-4.213 1.051.18 2.093.71 2.866 1.455.314-2.165-.818-3.377-2.174-3.61-.988-.171-2.111.215-2.883 1.338l-1.94-2.111c1.715-1.806 3.727-2.326 5.541-2.012 2.776.485 4.968 2.991 4.456 5.937l-1.348 7.76-.063 1.707-3.053-.53.17-.988zm.728-4.167c-.315-1.051-1.437-1.994-2.452-2.174-1.447-.252-2.47.8-2.686 2.012-.243 1.383.539 2.425 1.931 2.668.988.17 2.192-.207 2.982-1.23z"/>
  <path fill="#EF4B23" d="m135.252 13.537 3.53.8c-.26.233-.377 1.006-.287 1.67l.898 8.542 4.482-7.33c.332-.574.593-1.31.458-1.634l3.198.719-7.877 12.952c-1.779 2.928-3.414 6.89-7.339 6.01-1.68-.378-2.802-1.932-3.602-4.025l2.866-1.33c.278 1.653.835 2.426 1.509 2.579 1.455.332 2.55-1.779 3.817-3.854l-1.653-15.108z"/>
  <path fill="#FFF400" d="m25.922 28.026-.153-1.707-3.45-15.216c-2.335.467-4.661 1.41-3.996 4.347.404 1.77 2.164 3.315 4.599 2.758l.062.278c.297 1.294-.233 2.354-1.554 2.65-2.883.656-5.488-1.85-6.09-4.518-.87-3.871 1.644-7.204 5.399-8.057l4.706-1.069c3.225-.727 4.653-1.58 4.096-4.024l.279-.063c1.284-.296 2.353.234 2.65 1.554.655 2.884-2.102 4.366-6.396 5.336l-.952.215 3.431 15.162.602 1.599-3.251.736z"/>
  <path fill="#FFF400" d="M33.862 22.034c.853.836 2.02 1.33 3.44 1.07 1.249-.225 2.102-.97 2.524-2.354l2.506 1.41c-.88 2.084-2.506 3.404-4.68 3.8-4.635.844-7.652-2.578-8.335-6.342-.656-3.593.916-7.5 5.326-8.3 2.857-.52 5.928.818 6.521 4.07.216 1.185-.242 2.38-2.452 3.718l-4.841 2.928zm1.383-11.99-1.15-1.986-.404 2.264-3.027.548 2.353-4.545 1.447-.26 3.808 3.421-3.027.548zm1.177 7.436c1.877-1.068 1.626-1.517 1.563-1.832-.234-1.275-1.41-1.787-2.65-1.563-2.461.45-3.306 2.848-2.901 5.084.027.17.063.341.116.503l3.863-2.192zm4.293-15.09L38.47 6.917l-1.447.26.468-4.203zm.458 8.075c1.626-.224 1.68-.467 1.536-1.518l-.108-.799c-.107-.8-.224-1.626-.53-2.165l2.875-1.85.79 5.695 4.267-.593.35 2.56-4.267.592.89 6.405c.224 1.59.763 2.82 1.733 2.694.97-.134 1.24-1.329 1.536-2.101l2.443 1.518c-.889 1.949-2.02 3.036-3.664 3.26-1.905.26-4.32-.826-4.815-4.383l-.79-5.722c-.144-1.05-.26-1.266-1.886-1.042l-.35-2.56zm22.788 11.803 6.602-17.686-4.078.252c-3.297.206-4.446 2.173-4.33 3.979.108 1.688 1.32 3.26 3.135 3.143.26-.018.602-.062.854-.134l.018.287c.08 1.374-.692 2.264-2.075 2.345-2.04.125-4.86-1.716-5.084-5.444-.198-3.215 1.805-6.7 7.311-7.042l8.488-.52L68.2 19.132l5.965-.368c.655-.045 1.203-.045 1.68-.332l.188 3.098-12.081.746zm20.785-1.778a6.06 6.06 0 0 1-3.701 1.32c-3.072.018-4.554-2.237-4.572-4.626-.018-2.533 1.743-5.183 5.138-5.21a5.73 5.73 0 0 1 3.08.925c-.071-2.182-1.4-3.18-2.784-3.17-1.006 0-2.039.593-2.605 1.832l-2.281-1.733c1.365-2.075 3.251-2.955 5.093-2.964 2.82-.018 5.416 2.056 5.443 5.048l.054 7.877.242 1.697-3.107.018zm-.036-4.222c-.494-.97-1.77-1.716-2.803-1.707-1.464.01-2.29 1.222-2.281 2.461.009 1.41.96 2.29 2.371 2.282 1.006 0 2.12-.593 2.722-1.743v-1.293zm4.527 5.29.27-1.688c.17-6.521.269-10.195.44-16.716.017-.665.026-1.123-.19-1.698L92.902.1l-.52 19.85.188 1.698zm4.706-6.916c.243-3.817 2.668-7.554 7.285-7.257 4.536.287 6.593 4.158 6.359 7.886s-2.766 7.311-7.293 7.024c-4.446-.279-6.575-4.015-6.342-7.662zm3.171-.054c-.144 2.3.916 4.698 3.35 4.85 2.435.153 3.818-2.065 3.962-4.356.143-2.29-.971-4.67-3.387-4.823-2.407-.153-3.781 2.039-3.934 4.33zm10.33 13.42L109.59 9.97l-.027-1.706 3.081.368-.108.943a5.27 5.27 0 0 1 3.566-.817c4.195.503 5.812 4.455 5.363 8.192-.44 3.71-2.937 7.15-6.988 6.664-1.195-.143-2.381-.691-3.423-1.652l-.763 6.395.027 1.715-3.315-.395.432-1.652zm3.961-8.929c.512 1.015 1.347 1.806 2.578 1.958 1.94.234 4.006-1.518 4.365-4.545.278-2.308-.62-4.733-3.018-5.02-1.087-.126-2.273.34-3.189 1.526l-.727 6.081zm17.829 5.452a6 6 0 0 1-3.871.638c-3.027-.52-4.087-3.009-3.683-5.362.431-2.488 2.641-4.797 5.982-4.213a5.6 5.6 0 0 1 2.866 1.455c.314-2.164-.818-3.377-2.174-3.61-.988-.171-2.111.215-2.883 1.338l-1.94-2.111c1.715-1.805 3.727-2.326 5.541-2.012 2.776.485 4.968 2.991 4.456 5.937l-1.348 7.76-.063 1.707-3.053-.53.17-.988zm.728-4.167c-.315-1.051-1.437-1.994-2.452-2.174-1.447-.252-2.47.8-2.686 2.012-.243 1.383.539 2.425 1.931 2.668.988.17 2.192-.207 2.982-1.23z"/>
  <path fill="#FFF400" d="m135.252 12.001 3.53.8c-.26.233-.377 1.006-.287 1.67l.898 8.542 4.482-7.329c.332-.575.593-1.311.458-1.635l3.198.719-7.877 12.952c-1.779 2.928-3.414 6.89-7.339 6.01-1.68-.378-2.802-1.932-3.602-4.025l2.866-1.33c.278 1.654.835 2.426 1.509 2.579 1.455.332 2.55-1.779 3.817-3.854l-1.653-15.108z"/>
  <path fill="#C12202" d="m11.865 62.768-.216-1.697-4.033-15.018-.89.242c-2.523.683-3.278 2.542-2.838 4.186.467 1.751 2.29 3.224 4.707 2.578l.072.278c.341 1.276-.144 2.362-1.446 2.713-2.857.772-5.56-1.635-6.26-4.267-1.034-3.826 1.347-7.266 5.065-8.263l3.827-1.033.215 1.697 4.033 15.019 6.826-1.833c.638-.17.997-.27 1.581-.664l.809 3-11.461 3.08zM20.99 39.72l2.075 3.692-1.428.323-3.835-3.287 3.197-.719zm2.533 20.084-.152-1.706-2.29-10.15c-.145-.647-.243-1.096-.603-1.608l2.713-2.084 2.982 13.204.602 1.608zm10.312-2.254 3-8.057-5.129-6.153 3.737-.638c-.1.252.072.602.404.98l2.2 2.631 1.177-3.207c.18-.467.234-.853.054-1.06l3.737-.637-2.803 7.5 5.497 6.61-3.736.639c.107-.252-.072-.602-.404-.98l-2.534-3.062-1.4 3.736c-.18.467-.234.854-.055 1.06l-3.736.638zm11.308-22.231 1.76 3.844-1.454.207-3.548-3.593zm.863 20.228V53.83c-.916-6.458-.548-3.844-1.455-10.302-.09-.656-.153-1.114-.468-1.644l2.875-1.85 1.877 13.41.467 1.644-3.305.467zm9.234-15.683c1.634-.144 1.697-.377 1.607-1.437l-.072-.8c-.072-.799-.143-1.634-.422-2.182l2.964-1.698.503 5.73 4.294-.377.224 2.578-4.293.378.557 6.44c.143 1.608.62 2.856 1.599 2.775.978-.08 1.302-1.266 1.643-2.02l2.363 1.643c-.988 1.904-2.165 2.928-3.827 3.072-1.922.17-4.275-1.042-4.59-4.617l-.503-5.757c-.09-1.06-.197-1.285-1.832-1.141l-.225-2.578zm12.026 13.374.153-1.706c-.287-6.521-.44-10.195-.727-16.716-.027-.665-.045-1.123-.306-1.689l3.036-1.572.413 9.423c.746-1.446 1.905-2.614 3.683-2.695 2.443-.108 4.338 1.797 4.509 5.874l.296 6.89.306 1.688-3.333.144.153-1.706-.305-7.007c-.1-2.21-1.042-3.377-2.13-3.332-1.66.072-2.415 2.722-2.972 4.994l.242 5.569.306 1.689-3.333.143zm16.258-4.751c.683.979 1.743 1.68 3.18 1.688 1.266 0 2.245-.565 2.91-1.85l2.2 1.85c-1.248 1.887-3.09 2.884-5.308 2.875-4.715-.027-7.05-3.952-7.024-7.77.018-3.647 2.282-7.203 6.764-7.177 2.901.018 5.676 1.905 5.659 5.21 0 1.204-.674 2.3-3.09 3.198l-5.3 1.985zM87.1 36.954l-.764-2.156-.817 2.147-3.072-.018 3.153-4.033h1.464l3.108 4.078zm-.216 7.527c2.048-.71 1.878-1.195 1.878-1.51 0-1.293-1.051-2.02-2.318-2.02-2.497-.018-3.781 2.191-3.79 4.464 0 .17 0 .341.027.52l4.203-1.436zm12.619 8.722.288-1.68.413-6.17c.198-3.037-.413-4.205-1.248-4.259-1.519-.098-2.336 3.477-2.91 6.063l-.27 4.105.117 1.707-3.333-.225.341-1.68.674-10.095c.045-.665.072-1.123-.117-1.707l3.19-1.23-.198 2.982c1.041-1.86 2.362-2.551 3.565-2.47 1.779.116 2.767 1.715 3.09 3.35 1.069-2.174 2.506-2.973 3.791-2.892 2.326.152 3.332 2.811 3.197 4.796l-.557 8.38.063 1.707-3.215-.215.287-1.68.413-6.17c.207-3.037-.413-4.205-1.239-4.258-1.518-.1-2.336 3.476-2.91 6.027l-.279 4.131.063 1.707-3.216-.216zm24.791 2.739.449-1.644 1.033-6.09c.512-3 .018-4.221-.808-4.365-1.5-.251-2.677 3.225-3.503 5.73l-.683 4.052-.054 1.706-3.287-.557.512-1.634 1.688-9.98c.108-.655.189-1.104.054-1.706l3.297-.898-.503 2.946c1.23-1.743 2.604-2.3 3.799-2.102 1.761.296 2.578 1.985 2.74 3.638 1.284-2.057 2.793-2.704 4.069-2.488 2.299.386 3.027 3.134 2.694 5.093l-1.401 8.272-.117 1.698-3.17-.54.449-1.643 1.033-6.09c.512-3 .018-4.222-.809-4.365-1.5-.252-2.677 3.224-3.503 5.703l-.691 4.078-.117 1.698-3.171-.539zm18.854 2.829a6.1 6.1 0 0 1-3.908.405c-2.991-.71-3.889-3.26-3.341-5.578.584-2.461 2.928-4.617 6.234-3.836a5.63 5.63 0 0 1 2.775 1.635c.449-2.138-.602-3.422-1.949-3.745-.979-.234-2.12.09-2.964 1.158l-1.806-2.227c1.824-1.698 3.863-2.093 5.659-1.671 2.74.656 4.77 3.287 4.078 6.198l-1.823 7.661-.171 1.707-3.018-.719.234-.979zm.979-4.113c-.252-1.06-1.303-2.084-2.318-2.318-1.428-.341-2.515.638-2.802 1.841-.324 1.375.395 2.453 1.76 2.785.979.233 2.201-.063 3.054-1.042l.297-1.258z"/>
  <path fill="#C12202" d="m149.929 46.628 3.476 1.032c-.278.216-.44.98-.404 1.653l.332 8.587 4.959-7.015c.377-.548.673-1.266.565-1.599l3.144.934-8.713 12.414c-1.967 2.802-3.862 6.647-7.715 5.506-1.653-.494-2.668-2.111-3.324-4.258l2.947-1.131c.161 1.67.673 2.479 1.338 2.676 1.437.422 2.668-1.608 4.06-3.593l-.656-15.189zM11.865 61.233l-.216-1.698-4.033-15.018-.89.242c-2.523.683-3.278 2.542-2.838 4.186.467 1.751 2.29 3.224 4.707 2.578l.072.278c.341 1.276-.144 2.362-1.446 2.713-2.857.772-5.56-1.635-6.26-4.267-1.034-3.826 1.347-7.266 5.065-8.263l3.827-1.033.215 1.697 4.033 15.019 6.826-1.833c.638-.17.997-.27 1.581-.665l.809 3-11.461 3.082zm9.125-23.049 2.075 3.692-1.428.323-3.835-3.287 3.197-.719zm2.533 20.084-.152-1.706-2.29-10.15c-.145-.647-.243-1.096-.603-1.608l2.713-2.084 2.982 13.204.602 1.608zm10.312-2.254 3-8.057-5.129-6.153 3.737-.638c-.1.252.072.602.404.98l2.2 2.631 1.177-3.206c.18-.468.234-.854.054-1.06l3.737-.638-2.803 7.5 5.497 6.61-3.736.639c.107-.252-.072-.602-.404-.98l-2.534-3.062-1.4 3.736c-.18.467-.234.853-.055 1.06l-3.736.638zm11.308-22.222 1.76 3.844-1.454.207L41.9 34.25zm.863 20.219v-1.716c-.916-6.458-.548-3.844-1.455-10.302-.09-.656-.153-1.114-.468-1.644l2.875-1.85 1.877 13.41.467 1.644-3.305.467zm9.234-15.683c1.634-.144 1.697-.377 1.607-1.437l-.072-.8c-.072-.799-.143-1.634-.422-2.182l2.964-1.698.503 5.73 4.294-.377.224 2.578-4.293.378.557 6.44c.143 1.608.62 2.856 1.599 2.775.978-.08 1.302-1.266 1.643-2.02l2.363 1.643c-.988 1.904-2.165 2.928-3.827 3.072-1.922.17-4.275-1.042-4.59-4.617l-.503-5.757c-.09-1.06-.197-1.285-1.832-1.141l-.225-2.578zm12.026 13.374.153-1.706c-.287-6.521-.44-10.195-.727-16.716-.027-.665-.045-1.123-.306-1.689l3.036-1.572.413 9.423c.746-1.446 1.905-2.614 3.683-2.695 2.443-.108 4.338 1.797 4.509 5.874l.296 6.89.306 1.688-3.333.144.153-1.707-.305-7.006c-.1-2.21-1.042-3.377-2.13-3.332-1.66.072-2.415 2.722-2.972 4.994l.242 5.57.306 1.688-3.333.144zm16.258-4.752c.683.98 1.743 1.68 3.18 1.69 1.266 0 2.245-.566 2.91-1.85l2.2 1.85c-1.248 1.886-3.09 2.883-5.308 2.874-4.715-.027-7.05-3.952-7.024-7.77.018-3.647 2.282-7.203 6.764-7.176 2.901.018 5.676 1.904 5.659 5.21 0 1.203-.674 2.299-3.09 3.197l-5.3 1.985zM87.1 35.419l-.764-2.156-.817 2.147-3.072-.018 3.153-4.033h1.464l3.108 4.078zm-.216 7.536c2.048-.71 1.878-1.195 1.878-1.51 0-1.293-1.051-2.02-2.318-2.02-2.497-.018-3.781 2.191-3.79 4.464 0 .17 0 .341.027.52l4.203-1.436zm12.619 8.712.288-1.68.413-6.17c.198-3.037-.413-4.205-1.248-4.258-1.519-.1-2.336 3.476-2.91 6.063l-.27 4.104.117 1.707-3.333-.225.341-1.68.674-10.095c.045-.665.072-1.123-.117-1.707l3.19-1.23-.198 2.982c1.041-1.86 2.362-2.551 3.565-2.47 1.779.116 2.767 1.715 3.09 3.35 1.069-2.174 2.506-2.973 3.791-2.892 2.326.152 3.332 2.811 3.197 4.796l-.557 8.38.063 1.707-3.215-.215.287-1.68.413-6.17c.207-3.037-.413-4.204-1.239-4.258-1.518-.1-2.336 3.476-2.91 6.027l-.279 4.132.063 1.706-3.216-.215zm24.791 2.739.449-1.644 1.033-6.09c.512-3 .018-4.221-.808-4.365-1.5-.251-2.677 3.225-3.503 5.73l-.683 4.052-.054 1.706-3.287-.557.512-1.634 1.688-9.98c.108-.655.189-1.104.054-1.706l3.297-.898-.503 2.946c1.23-1.743 2.604-2.3 3.799-2.102 1.761.296 2.578 1.985 2.74 3.638 1.284-2.057 2.793-2.704 4.069-2.488 2.299.386 3.027 3.134 2.694 5.093l-1.401 8.272-.117 1.698-3.17-.54.449-1.643 1.033-6.09c.512-3 .018-4.221-.809-4.365-1.5-.252-2.677 3.224-3.503 5.703l-.691 4.078-.117 1.698-3.171-.539z"/>
  <path fill="#C12202" d="M143.148 57.235a6.1 6.1 0 0 1-3.908.405c-2.991-.71-3.889-3.26-3.341-5.578.584-2.461 2.928-4.617 6.234-3.836a5.63 5.63 0 0 1 2.775 1.635c.449-2.138-.602-3.422-1.949-3.745-.979-.234-2.12.09-2.964 1.158l-1.806-2.227c1.824-1.698 3.863-2.093 5.659-1.671 2.74.656 4.77 3.287 4.078 6.198l-1.823 7.661-.171 1.707-3.018-.718.234-.98zm.979-4.113c-.252-1.06-1.303-2.084-2.318-2.318-1.428-.341-2.515.638-2.802 1.842-.324 1.374.395 2.452 1.76 2.784.979.234 2.201-.063 3.054-1.042l.297-1.257z"/>
  <path fill="#C12202" d="m149.929 45.1 3.476 1.033c-.278.216-.44.98-.404 1.653l.332 8.587 4.959-7.015c.377-.548.673-1.266.565-1.599l3.144.934-8.713 12.414c-1.967 2.802-3.862 6.647-7.715 5.506-1.653-.494-2.668-2.111-3.324-4.258l2.947-1.131c.161 1.67.673 2.479 1.338 2.676 1.437.422 2.668-1.608 4.06-3.593l-.656-15.189z"/>
  <path fill="#EF4B23" d="m11.865 61.233-.216-1.698-4.033-15.018-.89.242c-2.523.683-3.278 2.542-2.838 4.186.467 1.751 2.29 3.224 4.707 2.578l.072.278c.341 1.276-.144 2.362-1.446 2.713-2.857.772-5.56-1.635-6.26-4.267-1.034-3.826 1.347-7.266 5.065-8.263l3.827-1.033.215 1.697 4.033 15.019 6.826-1.833c.638-.17.997-.27 1.581-.665l.809 3-11.461 3.082zm9.125-23.049 2.075 3.692-1.428.323-3.835-3.287 3.197-.719zm2.533 20.084-.152-1.706-2.29-10.15c-.145-.647-.243-1.096-.603-1.608l2.713-2.084 2.982 13.204.602 1.608zm10.312-2.254 3-8.057-5.129-6.153 3.737-.638c-.1.252.072.602.404.98l2.2 2.631 1.177-3.206c.18-.468.234-.854.054-1.06l3.737-.638-2.803 7.5 5.497 6.61-3.736.639c.107-.252-.072-.602-.404-.98l-2.534-3.062-1.4 3.736c-.18.467-.234.853-.055 1.06l-3.736.638zm11.308-22.222 1.76 3.844-1.454.207L41.9 34.25zm.863 20.219v-1.716c-.916-6.458-.548-3.844-1.455-10.302-.09-.656-.153-1.114-.468-1.644l2.875-1.85 1.877 13.41.467 1.644-3.305.467zm9.234-15.683c1.634-.144 1.697-.377 1.607-1.437l-.072-.8c-.072-.799-.143-1.634-.422-2.182l2.964-1.698.503 5.73 4.294-.377.224 2.578-4.293.378.557 6.44c.143 1.608.62 2.856 1.599 2.775.978-.08 1.302-1.266 1.643-2.02l2.363 1.643c-.988 1.904-2.165 2.928-3.827 3.072-1.922.17-4.275-1.042-4.59-4.617l-.503-5.757c-.09-1.06-.197-1.285-1.832-1.141l-.225-2.578zm12.026 13.374.153-1.706c-.287-6.521-.44-10.195-.727-16.716-.027-.665-.045-1.123-.306-1.689l3.036-1.572.413 9.423c.746-1.446 1.905-2.614 3.683-2.695 2.443-.108 4.338 1.797 4.509 5.874l.296 6.89.306 1.688-3.333.144.153-1.707-.305-7.006c-.1-2.21-1.042-3.377-2.13-3.332-1.66.072-2.415 2.722-2.972 4.994l.242 5.57.306 1.688-3.333.144zm16.258-4.752c.683.98 1.743 1.68 3.18 1.69 1.266 0 2.245-.566 2.91-1.85l2.2 1.85c-1.248 1.886-3.09 2.883-5.308 2.874-4.715-.027-7.05-3.952-7.024-7.77.018-3.647 2.282-7.203 6.764-7.176 2.901.018 5.676 1.904 5.659 5.21 0 1.203-.674 2.299-3.09 3.197l-5.3 1.985zM87.1 35.419l-.764-2.156-.817 2.147-3.072-.018 3.153-4.033h1.464l3.108 4.078zm-.216 7.536c2.048-.71 1.878-1.195 1.878-1.51 0-1.293-1.051-2.02-2.318-2.02-2.497-.018-3.781 2.191-3.79 4.464 0 .17 0 .341.027.52l4.203-1.436zm12.619 8.712.288-1.68.413-6.17c.198-3.037-.413-4.205-1.248-4.258-1.519-.1-2.336 3.476-2.91 6.063l-.27 4.104.117 1.707-3.333-.225.341-1.68.674-10.095c.045-.665.072-1.123-.117-1.707l3.19-1.23-.198 2.982c1.041-1.86 2.362-2.551 3.565-2.47 1.779.116 2.767 1.715 3.09 3.35 1.069-2.174 2.506-2.973 3.791-2.892 2.326.152 3.332 2.811 3.197 4.796l-.557 8.38.063 1.707-3.215-.215.287-1.68.413-6.17c.207-3.037-.413-4.204-1.239-4.258-1.518-.1-2.336 3.476-2.91 6.027l-.279 4.132.063 1.706-3.216-.215zm24.791 2.739.449-1.644 1.033-6.09c.512-3 .018-4.221-.808-4.365-1.5-.251-2.677 3.225-3.503 5.73l-.683 4.052-.054 1.706-3.287-.557.512-1.634 1.688-9.98c.108-.655.189-1.104.054-1.706l3.297-.898-.503 2.946c1.23-1.743 2.604-2.3 3.799-2.102 1.761.296 2.578 1.985 2.74 3.638 1.284-2.057 2.793-2.704 4.069-2.488 2.299.386 3.027 3.134 2.694 5.093l-1.401 8.272-.117 1.698-3.17-.54.449-1.643 1.033-6.09c.512-3 .018-4.221-.809-4.365-1.5-.252-2.677 3.224-3.503 5.703l-.691 4.078-.117 1.698-3.171-.539zm18.854 2.829a6.1 6.1 0 0 1-3.908.405c-2.991-.71-3.889-3.26-3.341-5.578.584-2.461 2.928-4.617 6.234-3.836a5.63 5.63 0 0 1 2.775 1.635c.449-2.138-.602-3.422-1.949-3.745-.979-.234-2.12.09-2.964 1.158l-1.806-2.227c1.824-1.698 3.863-2.093 5.659-1.671 2.74.656 4.77 3.287 4.078 6.198l-1.823 7.661-.171 1.707-3.018-.718.234-.98zm.979-4.113c-.252-1.06-1.303-2.084-2.318-2.318-1.428-.341-2.515.638-2.802 1.842-.324 1.374.395 2.452 1.76 2.784.979.234 2.201-.063 3.054-1.042l.297-1.257z"/>
  <path fill="#EF4B23" d="m149.929 45.1 3.476 1.033c-.278.216-.44.98-.404 1.653l.332 8.587 4.959-7.015c.377-.548.673-1.266.565-1.599l3.144.934-8.713 12.414c-1.967 2.802-3.862 6.647-7.715 5.506-1.653-.494-2.668-2.111-3.324-4.258l2.947-1.131c.161 1.67.673 2.479 1.338 2.676 1.437.422 2.668-1.608 4.06-3.593l-.656-15.189z"/>
  <path fill="#FFF400" d="m11.865 59.697-.216-1.698L7.616 42.98l-.89.242c-2.523.683-3.278 2.542-2.838 4.186.467 1.752 2.29 3.225 4.707 2.578l.072.278c.341 1.276-.144 2.363-1.446 2.713-2.857.772-5.56-1.635-6.26-4.267-1.034-3.826 1.347-7.266 5.065-8.263l3.827-1.033.215 1.697 4.033 15.019 6.826-1.833c.638-.17.997-.27 1.581-.664l.809 3-11.461 3.08zm9.125-23.049 2.075 3.692-1.428.323-3.835-3.287 3.197-.719zm2.533 20.093-.152-1.706-2.29-10.15c-.145-.647-.243-1.096-.603-1.608l2.713-2.084 2.982 13.204.602 1.608zm10.312-2.263 3-8.057-5.129-6.153 3.737-.638c-.1.252.072.602.404.98l2.2 2.631 1.177-3.206c.18-.467.234-.854.054-1.06l3.737-.638-2.803 7.5 5.497 6.61-3.736.639c.107-.252-.072-.602-.404-.98l-2.534-3.062-1.4 3.736c-.18.467-.234.854-.055 1.06l-3.736.638zm11.308-22.222 1.76 3.844-1.454.207-3.548-3.593zm.863 20.228v-1.716c-.916-6.458-.548-3.844-1.455-10.302-.09-.656-.153-1.114-.468-1.644l2.875-1.85 1.877 13.41.467 1.644-3.305.467zm9.234-15.692c1.634-.144 1.697-.377 1.607-1.437l-.072-.8c-.072-.799-.143-1.634-.422-2.182l2.964-1.698.503 5.73 4.294-.376.224 2.577-4.293.378.557 6.44c.143 1.608.62 2.856 1.599 2.775.978-.08 1.302-1.266 1.643-2.02l2.363 1.643c-.988 1.904-2.165 2.928-3.827 3.072-1.922.17-4.275-1.042-4.59-4.617l-.503-5.757c-.09-1.06-.197-1.285-1.832-1.141L55.23 36.8zm12.026 13.384.153-1.707c-.287-6.521-.44-10.195-.727-16.716-.027-.665-.045-1.123-.306-1.689l3.036-1.571.413 9.422c.746-1.446 1.905-2.614 3.683-2.695 2.443-.108 4.338 1.797 4.509 5.874l.296 6.89.306 1.688-3.333.144.153-1.706-.305-7.007c-.1-2.21-1.042-3.377-2.13-3.332-1.66.072-2.415 2.722-2.972 4.994l.242 5.57.306 1.688-3.333.143zm16.258-4.752c.683.979 1.743 1.68 3.18 1.688 1.266 0 2.245-.565 2.91-1.85l2.2 1.85c-1.248 1.887-3.09 2.884-5.308 2.875-4.715-.027-7.05-3.952-7.024-7.77.018-3.646 2.282-7.203 6.764-7.176 2.901.018 5.676 1.904 5.659 5.21 0 1.203-.674 2.299-3.09 3.197l-5.3 1.985zM87.1 33.882l-.764-2.156-.817 2.147-3.072-.018 3.153-4.033h1.464l3.108 4.078zm-.216 7.536c2.048-.71 1.878-1.195 1.878-1.51 0-1.293-1.051-2.02-2.318-2.02-2.497-.018-3.781 2.192-3.79 4.464 0 .17 0 .341.027.521l4.203-1.437zm12.619 8.722.288-1.68.413-6.17c.198-3.037-.413-4.204-1.248-4.258-1.519-.1-2.336 3.476-2.91 6.063l-.27 4.104.117 1.707-3.333-.225.341-1.68.674-10.095c.045-.665.072-1.123-.117-1.707l3.19-1.23-.198 2.982c1.041-1.86 2.362-2.551 3.565-2.47 1.779.116 2.767 1.715 3.09 3.35 1.069-2.174 2.506-2.973 3.791-2.892 2.326.153 3.332 2.811 3.197 4.796l-.557 8.38.063 1.707-3.215-.215.287-1.68.413-6.17c.207-3.037-.413-4.204-1.239-4.258-1.518-.1-2.336 3.476-2.91 6.027l-.279 4.131.063 1.707-3.216-.215zm24.791 2.73.449-1.644 1.033-6.09c.512-3 .018-4.221-.808-4.365-1.5-.251-2.677 3.225-3.503 5.73l-.683 4.052-.054 1.706-3.287-.557.512-1.634 1.688-9.98c.108-.655.189-1.104.054-1.706l3.297-.898-.503 2.946c1.23-1.743 2.604-2.3 3.799-2.102 1.761.296 2.578 1.985 2.74 3.638 1.284-2.057 2.793-2.704 4.069-2.488 2.299.386 3.027 3.134 2.694 5.093l-1.401 8.272-.117 1.698-3.17-.54.449-1.643 1.033-6.09c.512-3 .018-4.221-.809-4.365-1.5-.252-2.677 3.224-3.503 5.704l-.691 4.078-.117 1.697-3.171-.539zm18.854 2.83a6.1 6.1 0 0 1-3.908.404c-2.991-.71-3.889-3.26-3.341-5.578.584-2.461 2.928-4.617 6.234-3.836a5.63 5.63 0 0 1 2.775 1.635c.449-2.138-.602-3.422-1.949-3.745-.979-.234-2.12.09-2.964 1.158l-1.806-2.227c1.824-1.698 3.863-2.093 5.659-1.671 2.74.656 4.77 3.287 4.078 6.198l-1.823 7.662-.171 1.706-3.018-.718.234-.98zm.979-4.105c-.252-1.06-1.303-2.084-2.318-2.318-1.428-.341-2.515.638-2.802 1.842-.324 1.374.395 2.452 1.76 2.784.979.234 2.201-.063 3.054-1.042l.297-1.257z"/>
  <path fill="#FFF400" d="m149.929 43.565 3.476 1.032c-.278.216-.44.98-.404 1.653l.332 8.587 4.959-7.015c.377-.548.673-1.266.565-1.599l3.144.934-8.713 12.414c-1.967 2.802-3.862 6.647-7.715 5.506-1.653-.494-2.668-2.111-3.324-4.258l2.947-1.132c.161 1.671.673 2.48 1.338 2.677 1.437.422 2.668-1.608 4.06-3.593l-.656-15.188z"/>
</svg>
