<svg width="171" height="76" viewBox="0 0 171 76" fill="none" xmlns="http://www.w3.org/2000/svg">
<path d="M20.7569 44.4824L20.5952 43.0992L17.4514 30.8116C15.5652 31.2427 13.6969 32.0601 14.3077 34.4404C14.676 35.8685 16.14 37.0811 18.1071 36.5781L18.161 36.8027C18.4305 37.8446 18.0263 38.7159 16.9574 38.9854C14.631 39.5782 12.4574 37.6021 11.9095 35.4554C11.11 32.3296 13.0771 29.5631 16.1131 28.7906L19.9125 27.8205C22.5174 27.1559 23.6581 26.4283 23.1551 24.4612L23.3797 24.4073C24.4216 24.1379 25.2929 24.5421 25.5623 25.6109C26.1551 27.9373 23.9545 29.2038 20.4874 30.093L19.7149 30.2906L22.8407 42.5333L23.3617 43.8177L20.7389 44.4914L20.7569 44.4824Z" fill="#C12202"/>
<path d="M27.0983 39.4075C27.8168 40.0632 28.7779 40.4225 29.9186 40.171C30.9246 39.9465 31.5983 39.3267 31.8947 38.186L33.9696 39.2638C33.3229 40.9884 32.0384 42.1022 30.2779 42.4884C26.5414 43.3058 23.9904 40.6201 23.3258 37.5842C22.688 34.6919 23.8467 31.4673 27.4036 30.6859C29.7031 30.1829 32.245 31.1799 32.8199 33.8027C33.0265 34.7638 32.6941 35.7428 30.9426 36.8925L27.0983 39.4075ZM27.8617 29.635L26.8737 28.0631L26.6132 29.9134L24.1701 30.4523L25.9485 26.6888L27.1072 26.4373L30.2959 29.105L27.8528 29.6439L27.8617 29.635ZM29.0384 35.635C30.5294 34.7099 30.3139 34.3506 30.251 34.0991C30.0264 33.0751 29.0564 32.6889 28.0504 32.9045C26.0653 33.3356 25.4455 35.3117 25.8407 37.1171C25.8677 37.2518 25.9036 37.3865 25.9485 37.5213L29.0204 35.626L29.0384 35.635ZM32.0833 23.2576L30.3947 27.0032L29.236 27.2547L29.4875 23.8325L32.0833 23.2666V23.2576Z" fill="#C12202"/>
<path d="M32.6672 29.7966C33.9786 29.5541 34.0146 29.3565 33.8529 28.5122L33.7361 27.8655C33.6193 27.2188 33.4936 26.5541 33.2241 26.1319L35.4966 24.5241L36.3409 29.114L39.7901 28.4763L40.1673 30.5421L36.7182 31.1799L37.6703 36.3446C37.9038 37.6291 38.3978 38.6081 39.1793 38.4644C39.9607 38.3207 40.1404 37.3416 40.356 36.7039L42.3949 37.8446C41.7392 39.4614 40.8679 40.3776 39.5296 40.6291C37.9936 40.9165 35.9906 40.1171 35.4607 37.2428L34.6164 32.626C34.4637 31.7727 34.3559 31.602 33.0445 31.8446L32.6672 29.7787V29.7966Z" fill="#C12202"/>
<path d="M54.5117 38.1051L54.5387 36.7129L53.1015 24.1559L52.356 24.2367C50.2452 24.4792 49.4188 25.8894 49.5805 27.2547C49.7512 28.7188 51.0356 30.12 53.0566 29.8865L53.0836 30.12C53.2093 31.1889 52.6883 31.9973 51.6015 32.123C49.2123 32.3925 47.335 30.1469 47.0745 27.9373C46.7062 24.7307 49.0326 22.2606 52.1404 21.9013L55.2752 21.5421L62.2813 32.4194L61.1136 22.2606L60.7723 20.9133L63.4669 20.6079L63.44 22.0001L65.1466 36.8746L62.5687 37.171L55.7333 26.5721L56.865 36.4345L57.2064 37.7818L54.5117 38.0872V38.1051Z" fill="#C12202"/>
<path d="M75.4581 42.4255C76.3204 42.3177 77.1917 42.3447 78.054 42.4165C77.6318 36.4524 68.7215 38.1231 68.5688 35.653C68.5509 35.3745 68.6497 35.0871 68.9461 34.8626C69.6646 35.0961 70.4641 35.2129 71.3982 35.159C76.9671 34.8176 77.9641 28.7996 74.9911 26.0241C75.4581 25.602 75.8893 25.0361 76.2216 24.2636L74.1018 22.8265C73.7336 24.1379 73.2306 24.7307 72.6557 24.8115C72.0898 24.6858 71.4521 24.6229 70.7784 24.6678C65.3263 25.0002 64.1945 31.0092 67.1407 33.7757C66.6377 34.4134 66.3502 35.3656 66.3951 36.2099C66.476 37.6111 67.3922 38.3476 68.5868 38.8416C68.9551 38.9494 70.7964 39.4614 70.8503 39.4794C73.024 39.9824 75.2066 40.4494 75.4671 42.4345L75.4581 42.4255ZM70.9042 26.9942C74.8653 26.7517 75.2426 32.5811 71.2545 32.8236C67.3113 33.0661 66.9341 27.2367 70.9042 26.9942Z" fill="#C12202"/>
<path d="M84.063 36.0931L84.2247 34.7098V34.2697C83.5869 35.4284 82.6168 36.3536 81.1707 36.3805C79.1857 36.4164 77.6856 34.8356 77.6228 31.5212L77.533 27.084C77.524 26.5451 77.515 26.1768 77.3174 25.7097L79.8144 24.4971L79.9491 31.5751C79.9851 33.3715 80.7306 34.3416 81.6108 34.3236C82.9672 34.2967 83.6229 32.1589 84.1259 30.3266L84.063 26.9672C84.054 26.4283 84.045 26.06 83.8474 25.593L86.3444 24.3804L86.5421 34.6829L86.7576 36.0572L84.045 36.1111L84.063 36.0931Z" fill="#C12202"/>
<path d="M87.6021 24.3535L90.5482 24.4163C90.3775 24.6499 90.4135 25.2786 90.5931 25.7996L92.6949 32.4554L95.0752 25.8894C95.2459 25.3774 95.3357 24.7487 95.174 24.5151L97.8327 24.569L93.674 36.165C92.7309 38.7878 92.0752 42.21 88.8057 42.1381C87.4045 42.1112 86.2547 41.0603 85.2847 39.5153L87.3506 37.9884C87.8356 39.2638 88.4105 39.7848 88.9763 39.7938C90.1889 39.8207 90.7189 37.9614 91.3925 36.1021L87.611 24.3445L87.6021 24.3535Z" fill="#C12202"/>
<path d="M100.887 32.9763C101.399 33.8027 102.225 34.4135 103.393 34.4853C104.417 34.5482 105.243 34.126 105.836 33.111L107.542 34.7099C106.447 36.1919 104.911 36.9195 103.114 36.8117C99.2878 36.5871 97.5722 33.2997 97.7519 30.2008C97.9315 27.2367 99.9166 24.4612 103.554 24.6768C105.908 24.8205 108.081 26.4643 107.92 29.1499C107.866 30.129 107.273 30.9823 105.27 31.611L100.887 32.9853V32.9763ZM103.788 29.8775C105.477 29.3924 105.36 28.9882 105.378 28.7278C105.441 27.6768 104.614 27.0481 103.59 26.9852C101.56 26.8685 100.429 28.602 100.321 30.4433C100.321 30.5871 100.303 30.7218 100.321 30.8655L103.797 29.8775H103.788ZM104.291 23.7696L103.761 21.9822L103.006 23.6888L100.509 23.5361L103.249 20.4013L104.435 20.4732L106.779 23.9133L104.282 23.7606L104.291 23.7696Z" fill="#C12202"/>
<path d="M108.189 36.8925L108.512 35.5452L109.339 27.3715C109.393 26.8415 109.429 26.4643 109.294 25.9792L111.917 25.072L111.683 27.3984C112.608 26.1319 113.731 25.4942 114.962 25.6199C116.938 25.8175 118.24 27.5691 117.908 30.8655L117.342 36.4434L117.387 37.8357L114.692 37.5662L115.016 36.2189L115.59 30.5511C115.77 28.7637 115.15 27.7128 114.27 27.623C112.995 27.4972 112.042 29.2757 111.324 30.9643L110.839 35.7967L110.884 37.1889L108.189 36.9195V36.8925Z" fill="#C12202"/>
<path d="M131.462 39.9464L131.588 39.2099C130.555 39.7219 129.513 39.8566 128.57 39.6949C125.3 39.147 124.141 35.8955 124.644 32.9044C125.156 29.8864 127.312 27.1738 130.698 27.7397C131.686 27.9104 132.603 28.3954 133.276 29.1679L133.573 27.3984L131.273 27.0121L131.588 25.1708L133.887 25.557L133.95 25.1888C134.04 24.6588 134.103 24.2906 133.995 23.7965L136.672 23.06L136.186 25.9343L136.878 26.0511L136.573 27.8924L135.881 27.7756L133.995 38.9674L133.95 40.3596L131.462 39.9375V39.9464ZM132.818 31.9164C132.369 30.7936 131.543 30.1828 130.698 30.0391C128.767 29.7158 127.51 31.3954 127.195 33.2637C126.863 35.2398 127.6 37.4763 129.719 37.8356C130.456 37.9614 131.219 37.7817 131.929 37.2159L132.818 31.9164Z" fill="#C12202"/>
<path d="M141.36 41.1142C140.345 41.6172 139.195 41.7249 138.189 41.5094C135.746 40.9884 134.974 38.9315 135.378 37.0363C135.809 35.0243 137.677 33.2278 140.372 33.8117C141.216 33.9913 142.052 34.4584 142.654 35.0871C142.977 33.3446 142.106 32.3206 141.01 32.0781C140.21 31.9075 139.294 32.1859 138.621 33.0661L137.112 31.2877C138.558 29.8775 140.219 29.5182 141.674 29.8326C143.911 30.3176 145.609 32.4194 145.097 34.7997L143.749 41.0603L143.642 42.4435L141.171 41.9136L141.342 41.1142H141.36ZM142.079 37.7548C141.854 36.8925 140.983 36.0841 140.156 35.9045C138.989 35.653 138.127 36.4704 137.911 37.4494C137.668 38.5722 138.27 39.4345 139.393 39.677C140.192 39.8477 141.18 39.5872 141.854 38.7698L142.079 37.7458V37.7548ZM145.51 26.3385L142.42 29.0421L141.252 28.7906L142.905 25.7726L145.51 26.3295V26.3385Z" fill="#C12202"/>
<path d="M144.639 42.677L145.169 41.3926L147.261 33.4434C147.396 32.9224 147.495 32.5631 147.432 32.0601L150.172 31.5751L149.579 33.8296C150.693 32.7248 151.896 32.2667 153.091 32.5811C155.013 33.0841 156.028 35.0152 155.184 38.2219L153.765 43.6471L153.594 45.0303L150.971 44.3387L151.501 43.0543L152.947 37.5392C153.405 35.7967 152.947 34.6649 152.094 34.4404C150.854 34.117 149.633 35.7248 148.663 37.2787L147.432 41.9764L147.261 43.3597L144.639 42.668V42.677Z" fill="#C12202"/>
<path d="M20.7569 42.9465L20.5952 41.5632L17.4514 29.2756C15.5652 29.7068 13.6969 30.5242 14.3077 32.9044C14.676 34.3326 16.14 35.5452 18.1071 35.0422L18.161 35.2667C18.4305 36.3087 18.0263 37.1799 16.9574 37.4494C14.631 38.0422 12.4574 36.0662 11.9095 33.9194C11.11 30.7936 13.0771 28.0271 16.1131 27.2547L19.9125 26.2846C22.5174 25.6199 23.6581 24.8924 23.1551 22.9253L23.3797 22.8714C24.4216 22.6019 25.2929 23.0061 25.5623 24.075C26.1551 26.4014 23.9545 27.6678 20.4874 28.5571L19.7149 28.7547L22.8407 40.9973L23.3617 42.2818L20.7389 42.9555L20.7569 42.9465Z" fill="#C12202"/>
<path d="M27.0983 37.8716C27.8168 38.5273 28.7779 38.8866 29.9186 38.6351C30.9246 38.4105 31.5983 37.7907 31.8947 36.65L33.9696 37.7279C33.3229 39.4524 32.0384 40.5662 30.2779 40.9525C26.5414 41.7698 23.9904 39.0842 23.3258 36.0482C22.688 33.156 23.8467 29.9314 27.4036 29.1499C29.7031 28.6469 32.245 29.6439 32.8199 32.2667C33.0265 33.2278 32.6941 34.2069 30.9426 35.3566L27.0983 37.8716ZM27.8617 28.099L26.8737 26.5271L26.6132 28.3775L24.1701 28.9164L25.9485 25.1529L27.1072 24.9014L30.2959 27.5691L27.8528 28.108L27.8617 28.099ZM29.0384 34.0991C30.5294 33.1739 30.3139 32.8146 30.251 32.5631C30.0264 31.5392 29.0564 31.1529 28.0504 31.3685C26.0653 31.7996 25.4455 33.7757 25.8407 35.5811C25.8677 35.7159 25.9036 35.8506 25.9485 35.9853L29.0204 34.0901L29.0384 34.0991ZM32.0833 21.7217L30.3947 25.4672L29.236 25.7187L29.4875 22.2965L32.0833 21.7307V21.7217Z" fill="#C12202"/>
<path d="M32.6672 28.2697C33.9786 28.0271 34.0146 27.8295 33.8529 26.9852L33.7361 26.3385C33.6193 25.6918 33.4936 25.0271 33.2241 24.6049L35.4966 22.9971L36.3409 27.587L39.7901 26.9493L40.1673 29.0152L36.7182 29.6529L37.6703 34.8176C37.9038 36.1021 38.3978 37.0811 39.1793 36.9374C39.9607 36.7937 40.1404 35.8147 40.356 35.1769L42.3949 36.3177C41.7392 37.9344 40.8679 38.8506 39.5296 39.1021C37.9936 39.3895 35.9906 38.5901 35.4607 35.7159L34.6164 31.099C34.4637 30.2457 34.3559 30.0751 33.0445 30.3176L32.6672 28.2517V28.2697Z" fill="#C12202"/>
<path d="M54.5117 36.5782L54.5387 35.1859L53.1015 22.6289L52.356 22.7097C50.2452 22.9522 49.4188 24.3624 49.5805 25.7277C49.7512 27.1918 51.0356 28.593 53.0566 28.3595L53.0836 28.593C53.2093 29.6619 52.6883 30.4703 51.6015 30.596C49.2123 30.8655 47.335 28.62 47.0745 26.4104C46.7062 23.2037 49.0326 20.7336 52.1404 20.3744L55.2752 20.0151L62.2813 30.8925L61.1136 20.7336L60.7723 19.3863L63.4669 19.0809L63.44 20.4732L65.1466 35.3476L62.5687 35.644L55.7333 25.0451L56.865 34.9075L57.2064 36.2548L54.5117 36.5602V36.5782Z" fill="#C12202"/>
<path d="M75.4581 40.8896C76.3204 40.7818 77.1917 40.8087 78.054 40.8806C77.6318 34.9164 68.7215 36.5871 68.5688 34.117C68.5509 33.8386 68.6497 33.5512 68.9461 33.3266C69.6646 33.5601 70.4641 33.6769 71.3982 33.623C76.9671 33.2817 77.9641 27.2637 74.9911 24.4882C75.4581 24.066 75.8893 23.5001 76.2216 22.7277L74.1018 21.2905C73.7336 22.6019 73.2306 23.1947 72.6557 23.2756C72.0898 23.1498 71.4521 23.087 70.7784 23.1319C65.3263 23.4642 64.1945 29.4733 67.1407 32.2398C66.6377 32.8775 66.3502 33.8296 66.3951 34.6739C66.476 36.0751 67.3922 36.8117 68.5868 37.3057C68.9551 37.4135 70.7964 37.9255 70.8503 37.9434C73.024 38.4464 75.2066 38.9135 75.4671 40.8986L75.4581 40.8896ZM70.9042 25.4582C74.8653 25.2157 75.2426 31.0451 71.2545 31.2877C67.3113 31.5302 66.9341 25.7008 70.9042 25.4582Z" fill="#C12202"/>
<path d="M84.063 34.5571L84.2247 33.1739V32.7338C83.5869 33.8925 82.6168 34.8176 81.1707 34.8446C79.1857 34.8805 77.6856 33.2996 77.6228 29.9852L77.533 25.548C77.524 25.0091 77.515 24.6409 77.3174 24.1738L79.8144 22.9612L79.9491 30.0391C79.9851 31.8356 80.7306 32.8056 81.6108 32.7877C82.9672 32.7607 83.6229 30.623 84.1259 28.7906L84.063 25.4313C84.054 24.8924 84.045 24.5241 83.8474 24.057L86.3444 22.8444L86.5421 33.1469L86.7576 34.5212L84.045 34.5751L84.063 34.5571Z" fill="#C12202"/>
<path d="M87.6021 22.8175L90.5482 22.8804C90.3775 23.1139 90.4135 23.7427 90.5931 24.2636L92.6949 30.9194L95.0752 24.3535C95.2459 23.8415 95.3357 23.2127 95.174 22.9792L97.8327 23.0331L93.674 34.629C92.7309 37.2518 92.0752 40.674 88.8057 40.6022C87.4045 40.5752 86.2547 39.5243 85.2847 37.9794L87.3506 36.4524C87.8356 37.7279 88.4105 38.2488 88.9763 38.2578C90.1889 38.2848 90.7189 36.4255 91.3925 34.5662L87.611 22.8085L87.6021 22.8175Z" fill="#C12202"/>
<path d="M100.887 31.4404C101.399 32.2667 102.225 32.8775 103.393 32.9494C104.417 33.0122 105.243 32.5901 105.836 31.5751L107.542 33.1739C106.447 34.656 104.911 35.3835 103.114 35.2757C99.2878 35.0512 97.5722 31.7637 97.7519 28.6649C97.9315 25.7008 99.9166 22.9253 103.554 23.1408C105.908 23.2846 108.081 24.9283 107.92 27.614C107.866 28.593 107.273 29.4463 105.27 30.0751L100.887 31.4493V31.4404ZM103.788 28.3415C105.477 27.8565 105.36 27.4523 105.378 27.1918C105.441 26.1409 104.614 25.5121 103.59 25.4493C101.56 25.3325 100.429 27.066 100.321 28.9074C100.321 29.0511 100.303 29.1858 100.321 29.3295L103.797 28.3415H103.788ZM104.291 22.2426L103.761 20.4552L103.006 22.1618L100.509 22.0091L103.249 18.8743L104.435 18.9462L106.779 22.3863L104.282 22.2337L104.291 22.2426Z" fill="#C12202"/>
<path d="M108.189 35.3566L108.512 34.0093L109.339 25.8355C109.393 25.3056 109.429 24.9283 109.294 24.4433L111.917 23.5361L111.683 25.8624C112.608 24.596 113.731 23.9582 114.962 24.084C116.938 24.2816 118.24 26.0331 117.908 29.3296L117.342 34.9075L117.387 36.2997L114.692 36.0302L115.016 34.6829L115.59 29.0152C115.77 27.2277 115.15 26.1768 114.27 26.087C112.995 25.9613 112.042 27.7397 111.324 29.4284L110.839 34.2608L110.884 35.653L108.189 35.3835V35.3566Z" fill="#C12202"/>
<path d="M131.462 38.4105L131.588 37.6739C130.555 38.1859 129.513 38.3207 128.57 38.159C125.3 37.6111 124.141 34.3595 124.644 31.3685C125.156 28.3505 127.312 25.6379 130.698 26.2037C131.686 26.3744 132.603 26.8594 133.276 27.6319L133.573 25.8624L131.273 25.4762L131.588 23.6349L133.887 24.0211L133.95 23.6528C134.04 23.1229 134.103 22.7546 133.995 22.2606L136.672 21.524L136.186 24.3983L136.878 24.5151L136.573 26.3564L135.881 26.2397L133.995 37.4314L133.95 38.8237L131.462 38.4015V38.4105ZM132.818 30.3804C132.369 29.2577 131.543 28.6469 130.698 28.5032C128.767 28.1798 127.51 29.8595 127.195 31.7278C126.863 33.7038 127.6 35.9404 129.719 36.2997C130.456 36.4254 131.219 36.2458 131.929 35.6799L132.818 30.3804Z" fill="#C12202"/>
<path d="M141.36 39.5782C140.345 40.0812 139.195 40.189 138.189 39.9734C135.746 39.4525 134.974 37.3955 135.378 35.5003C135.809 33.4883 137.677 31.6919 140.372 32.2757C141.216 32.4554 142.052 32.9224 142.654 33.5512C142.977 31.8086 142.106 30.7847 141.01 30.5422C140.21 30.3715 139.294 30.6499 138.621 31.5302L137.112 29.7517C138.558 28.3415 140.219 27.9822 141.674 28.2966C143.911 28.7817 145.609 30.8835 145.097 33.2638L143.749 39.5243L143.642 40.9076L141.171 40.3776L141.342 39.5782H141.36ZM142.079 36.2279C141.854 35.3656 140.983 34.5572 140.156 34.3775C138.989 34.126 138.127 34.9434 137.911 35.9225C137.668 37.0452 138.27 37.9075 139.393 38.15C140.192 38.3207 141.18 38.0602 141.854 37.2428L142.079 36.2189V36.2279ZM145.51 24.8026L142.42 27.5062L141.252 27.2547L142.905 24.2367L145.51 24.7936V24.8026Z" fill="#C12202"/>
<path d="M144.639 41.1411L145.169 39.8566L147.261 31.9074C147.396 31.3864 147.495 31.0272 147.432 30.5242L150.172 30.0391L149.579 32.2936C150.693 31.1888 151.896 30.7307 153.091 31.0451C155.013 31.5481 156.028 33.4793 155.184 36.6859L153.765 42.1111L153.594 43.4944L150.971 42.8028L151.501 41.5183L152.947 36.0033C153.405 34.2607 152.947 33.129 152.094 32.9044C150.854 32.5811 149.633 34.1889 148.663 35.7428L147.432 40.4405L147.261 41.8237L144.639 41.1321V41.1411Z" fill="#C12202"/>
<path d="M20.7569 42.9465L20.5952 41.5632L17.4514 29.2756C15.5652 29.7068 13.6969 30.5242 14.3077 32.9044C14.676 34.3326 16.14 35.5452 18.1071 35.0422L18.161 35.2667C18.4305 36.3087 18.0263 37.1799 16.9574 37.4494C14.631 38.0422 12.4574 36.0662 11.9095 33.9194C11.11 30.7936 13.0771 28.0271 16.1131 27.2547L19.9125 26.2846C22.5174 25.6199 23.6581 24.8924 23.1551 22.9253L23.3797 22.8714C24.4216 22.6019 25.2929 23.0061 25.5623 24.075C26.1551 26.4014 23.9545 27.6678 20.4874 28.5571L19.7149 28.7547L22.8407 40.9973L23.3617 42.2818L20.7389 42.9555L20.7569 42.9465Z" fill="#EF4B23"/>
<path d="M27.0983 37.8716C27.8168 38.5273 28.7779 38.8866 29.9186 38.6351C30.9246 38.4105 31.5983 37.7907 31.8947 36.65L33.9696 37.7279C33.3229 39.4524 32.0384 40.5662 30.2779 40.9525C26.5414 41.7698 23.9904 39.0842 23.3258 36.0482C22.688 33.156 23.8467 29.9314 27.4036 29.1499C29.7031 28.6469 32.245 29.6439 32.8199 32.2667C33.0265 33.2278 32.6941 34.2069 30.9426 35.3566L27.0983 37.8716ZM27.8617 28.099L26.8737 26.5271L26.6132 28.3775L24.1701 28.9164L25.9485 25.1529L27.1072 24.9014L30.2959 27.5691L27.8528 28.108L27.8617 28.099ZM29.0384 34.0991C30.5294 33.1739 30.3139 32.8146 30.251 32.5631C30.0264 31.5392 29.0564 31.1529 28.0504 31.3685C26.0653 31.7996 25.4455 33.7757 25.8407 35.5811C25.8677 35.7159 25.9036 35.8506 25.9485 35.9853L29.0204 34.0901L29.0384 34.0991ZM32.0833 21.7217L30.3947 25.4672L29.236 25.7187L29.4875 22.2965L32.0833 21.7307V21.7217Z" fill="#EF4B23"/>
<path d="M32.6672 28.2697C33.9786 28.0271 34.0146 27.8295 33.8529 26.9852L33.7361 26.3385C33.6193 25.6918 33.4936 25.0271 33.2241 24.6049L35.4966 22.9971L36.3409 27.587L39.7901 26.9493L40.1673 29.0152L36.7182 29.6529L37.6703 34.8176C37.9038 36.1021 38.3978 37.0811 39.1793 36.9374C39.9607 36.7937 40.1404 35.8147 40.356 35.1769L42.3949 36.3177C41.7392 37.9344 40.8679 38.8506 39.5296 39.1021C37.9936 39.3895 35.9906 38.5901 35.4607 35.7159L34.6164 31.099C34.4637 30.2457 34.3559 30.0751 33.0445 30.3176L32.6672 28.2517V28.2697Z" fill="#EF4B23"/>
<path d="M54.5117 36.5782L54.5387 35.1859L53.1015 22.6289L52.356 22.7097C50.2452 22.9522 49.4188 24.3624 49.5805 25.7277C49.7512 27.1918 51.0356 28.593 53.0566 28.3595L53.0836 28.593C53.2093 29.6619 52.6883 30.4703 51.6015 30.596C49.2123 30.8655 47.335 28.62 47.0745 26.4104C46.7062 23.2037 49.0326 20.7336 52.1404 20.3744L55.2752 20.0151L62.2813 30.8925L61.1136 20.7336L60.7723 19.3863L63.4669 19.0809L63.44 20.4732L65.1466 35.3476L62.5687 35.644L55.7333 25.0451L56.865 34.9075L57.2064 36.2548L54.5117 36.5602V36.5782Z" fill="#EF4B23"/>
<path d="M75.4581 40.8896C76.3204 40.7818 77.1917 40.8087 78.054 40.8806C77.6318 34.9164 68.7215 36.5871 68.5688 34.117C68.5509 33.8386 68.6497 33.5512 68.9461 33.3266C69.6646 33.5601 70.4641 33.6769 71.3982 33.623C76.9671 33.2817 77.9641 27.2637 74.9911 24.4882C75.4581 24.066 75.8893 23.5001 76.2216 22.7277L74.1018 21.2905C73.7336 22.6019 73.2306 23.1947 72.6557 23.2756C72.0898 23.1498 71.4521 23.087 70.7784 23.1319C65.3263 23.4642 64.1945 29.4733 67.1407 32.2398C66.6377 32.8775 66.3502 33.8296 66.3951 34.6739C66.476 36.0751 67.3922 36.8117 68.5868 37.3057C68.9551 37.4135 70.7964 37.9255 70.8503 37.9434C73.024 38.4464 75.2066 38.9135 75.4671 40.8986L75.4581 40.8896ZM70.9042 25.4582C74.8653 25.2157 75.2426 31.0451 71.2545 31.2877C67.3113 31.5302 66.9341 25.7008 70.9042 25.4582Z" fill="#EF4B23"/>
<path d="M84.063 34.5571L84.2247 33.1739V32.7338C83.5869 33.8925 82.6168 34.8176 81.1707 34.8446C79.1857 34.8805 77.6856 33.2996 77.6228 29.9852L77.533 25.548C77.524 25.0091 77.515 24.6409 77.3174 24.1738L79.8144 22.9612L79.9491 30.0391C79.9851 31.8356 80.7306 32.8056 81.6108 32.7877C82.9672 32.7607 83.6229 30.623 84.1259 28.7906L84.063 25.4313C84.054 24.8924 84.045 24.5241 83.8474 24.057L86.3444 22.8444L86.5421 33.1469L86.7576 34.5212L84.045 34.5751L84.063 34.5571Z" fill="#EF4B23"/>
<path d="M87.6021 22.8175L90.5482 22.8804C90.3775 23.1139 90.4135 23.7427 90.5931 24.2636L92.6949 30.9194L95.0752 24.3535C95.2459 23.8415 95.3357 23.2127 95.174 22.9792L97.8327 23.0331L93.674 34.629C92.7309 37.2518 92.0752 40.674 88.8057 40.6022C87.4045 40.5752 86.2547 39.5243 85.2847 37.9794L87.3506 36.4524C87.8356 37.7279 88.4105 38.2488 88.9763 38.2578C90.1889 38.2848 90.7189 36.4255 91.3925 34.5662L87.611 22.8085L87.6021 22.8175Z" fill="#EF4B23"/>
<path d="M100.887 31.4404C101.399 32.2667 102.225 32.8775 103.393 32.9494C104.417 33.0122 105.243 32.5901 105.836 31.5751L107.542 33.1739C106.447 34.656 104.911 35.3835 103.114 35.2757C99.2878 35.0512 97.5722 31.7637 97.7519 28.6649C97.9315 25.7008 99.9166 22.9253 103.554 23.1408C105.908 23.2846 108.081 24.9283 107.92 27.614C107.866 28.593 107.273 29.4463 105.27 30.0751L100.887 31.4493V31.4404ZM103.788 28.3415C105.477 27.8565 105.36 27.4523 105.378 27.1918C105.441 26.1409 104.614 25.5121 103.59 25.4493C101.56 25.3325 100.429 27.066 100.321 28.9074C100.321 29.0511 100.303 29.1858 100.321 29.3295L103.797 28.3415H103.788ZM104.291 22.2426L103.761 20.4552L103.006 22.1618L100.509 22.0091L103.249 18.8743L104.435 18.9462L106.779 22.3863L104.282 22.2337L104.291 22.2426Z" fill="#EF4B23"/>
<path d="M108.189 35.3566L108.512 34.0093L109.339 25.8355C109.393 25.3056 109.429 24.9283 109.294 24.4433L111.917 23.5361L111.683 25.8624C112.608 24.596 113.731 23.9582 114.962 24.084C116.938 24.2816 118.24 26.0331 117.908 29.3296L117.342 34.9075L117.387 36.2997L114.692 36.0302L115.016 34.6829L115.59 29.0152C115.77 27.2277 115.15 26.1768 114.27 26.087C112.995 25.9613 112.042 27.7397 111.324 29.4284L110.839 34.2608L110.884 35.653L108.189 35.3835V35.3566Z" fill="#EF4B23"/>
<path d="M131.462 38.4105L131.588 37.6739C130.555 38.1859 129.513 38.3207 128.57 38.159C125.3 37.6111 124.141 34.3595 124.644 31.3685C125.156 28.3505 127.312 25.6379 130.698 26.2037C131.686 26.3744 132.603 26.8594 133.276 27.6319L133.573 25.8624L131.273 25.4762L131.588 23.6349L133.887 24.0211L133.95 23.6528C134.04 23.1229 134.103 22.7546 133.995 22.2606L136.672 21.524L136.186 24.3983L136.878 24.5151L136.573 26.3564L135.881 26.2397L133.995 37.4314L133.95 38.8237L131.462 38.4015V38.4105ZM132.818 30.3804C132.369 29.2577 131.543 28.6469 130.698 28.5032C128.767 28.1798 127.51 29.8595 127.195 31.7278C126.863 33.7038 127.6 35.9404 129.719 36.2997C130.456 36.4254 131.219 36.2458 131.929 35.6799L132.818 30.3804Z" fill="#EF4B23"/>
<path d="M141.36 39.5782C140.345 40.0812 139.195 40.189 138.189 39.9734C135.746 39.4525 134.974 37.3955 135.378 35.5003C135.809 33.4883 137.677 31.6919 140.372 32.2757C141.216 32.4554 142.052 32.9224 142.654 33.5512C142.977 31.8086 142.106 30.7847 141.01 30.5422C140.21 30.3715 139.294 30.6499 138.621 31.5302L137.112 29.7517C138.558 28.3415 140.219 27.9822 141.674 28.2966C143.911 28.7817 145.609 30.8835 145.097 33.2638L143.749 39.5243L143.642 40.9076L141.171 40.3776L141.342 39.5782H141.36ZM142.079 36.2279C141.854 35.3656 140.983 34.5572 140.156 34.3775C138.989 34.126 138.127 34.9434 137.911 35.9225C137.668 37.0452 138.27 37.9075 139.393 38.15C140.192 38.3207 141.18 38.0602 141.854 37.2428L142.079 36.2189V36.2279ZM145.51 24.8026L142.42 27.5062L141.252 27.2547L142.905 24.2367L145.51 24.7936V24.8026Z" fill="#EF4B23"/>
<path d="M144.639 41.1411L145.169 39.8566L147.261 31.9074C147.396 31.3864 147.495 31.0272 147.432 30.5242L150.172 30.0391L149.579 32.2936C150.693 31.1888 151.896 30.7307 153.091 31.0451C155.013 31.5481 156.028 33.4793 155.184 36.6859L153.765 42.1111L153.594 43.4944L150.971 42.8028L151.501 41.5183L152.947 36.0033C153.405 34.2607 152.947 33.129 152.094 32.9044C150.854 32.5811 149.633 34.1889 148.663 35.7428L147.432 40.4405L147.261 41.8237L144.639 41.1321V41.1411Z" fill="#EF4B23"/>
<path d="M20.7569 41.4105L20.5952 40.0273L17.4514 27.7397C15.5652 28.1708 13.6969 28.9882 14.3077 31.3685C14.676 32.7966 16.14 34.0092 18.1071 33.5062L18.161 33.7308C18.4305 34.7727 18.0263 35.644 16.9574 35.9135C14.631 36.5063 12.4574 34.5302 11.9095 32.3835C11.11 29.2577 13.0771 26.4912 16.1131 25.7187L19.9125 24.7486C22.5174 24.084 23.6581 23.3564 23.1551 21.3893L23.3797 21.3354C24.4216 21.066 25.2929 21.4702 25.5623 22.539C26.1551 24.8654 23.9545 26.1319 20.4874 27.0211L19.7149 27.2187L22.8407 39.4614L23.3617 40.7458L20.7389 41.4195L20.7569 41.4105Z" fill="#FFF400"/>
<path d="M27.0983 36.3446C27.8168 37.0003 28.7779 37.3596 29.9186 37.1081C30.9246 36.8835 31.5983 36.2638 31.8947 35.123L33.9696 36.2009C33.3229 37.9255 32.0384 39.0393 30.2779 39.4255C26.5414 40.2429 23.9904 37.5572 23.3258 34.5212C22.688 31.629 23.8467 28.4044 27.4036 27.6229C29.7031 27.1199 32.245 28.117 32.8199 30.7398C33.0265 31.7008 32.6941 32.6799 30.9426 33.8296L27.0983 36.3446ZM27.8617 26.5631L26.8737 24.9912L26.6132 26.8415L24.1701 27.3804L25.9485 23.6169L27.1072 23.3654L30.2959 26.0331L27.8528 26.572L27.8617 26.5631ZM29.0384 32.5721C30.5294 31.6469 30.3139 31.2877 30.251 31.0362C30.0264 30.0122 29.0564 29.626 28.0504 29.8415C26.0653 30.2727 25.4455 32.2488 25.8407 34.0542C25.8677 34.1889 25.9036 34.3236 25.9485 34.4584L29.0204 32.5631L29.0384 32.5721ZM32.0833 20.1857L30.3947 23.9313L29.236 24.1828L29.4875 20.7606L32.0833 20.1947V20.1857Z" fill="#FFF400"/>
<path d="M32.6672 26.7337C33.9786 26.4912 34.0146 26.2936 33.8529 25.4493L33.7361 24.8025C33.6193 24.1558 33.4936 23.4911 33.2241 23.069L35.4966 21.4612L36.3409 26.0511L39.7901 25.4133L40.1673 27.4792L36.7182 28.117L37.6703 33.2817C37.9038 34.5661 38.3978 35.5452 39.1793 35.4015C39.9607 35.2578 40.1404 34.2787 40.356 33.641L42.3949 34.7817C41.7392 36.3985 40.8679 37.3147 39.5296 37.5662C37.9936 37.8536 35.9906 37.0542 35.4607 34.1799L34.6164 29.5631C34.4637 28.7098 34.3559 28.5391 33.0445 28.7816L32.6672 26.7157V26.7337Z" fill="#FFF400"/>
<path d="M54.5117 35.0422L54.5387 33.65L53.1015 21.0929L52.356 21.1738C50.2452 21.4163 49.4188 22.8265 49.5805 24.1918C49.7512 25.6559 51.0356 27.0571 53.0566 26.8235L53.0836 27.0571C53.2093 28.126 52.6883 28.9343 51.6015 29.0601C49.2123 29.3296 47.335 27.084 47.0745 24.8744C46.7062 21.6678 49.0326 19.1977 52.1404 18.8384L55.2752 18.4791L62.2813 29.3565L61.1136 19.1977L60.7723 17.8504L63.4669 17.545L63.44 18.9372L65.1466 33.8117L62.5687 34.1081L55.7333 23.5091L56.865 33.3715L57.2064 34.7188L54.5117 35.0242V35.0422Z" fill="#FFF400"/>
<path d="M75.4581 39.3536C76.3204 39.2458 77.1917 39.2728 78.054 39.3446C77.6318 33.3805 68.7215 35.0512 68.5688 32.5811C68.5509 32.3026 68.6497 32.0152 68.9461 31.7907C69.6646 32.0242 70.4641 32.141 71.3982 32.0871C76.9671 31.7457 77.9641 25.7277 74.9911 22.9522C75.4581 22.5301 75.8893 21.9642 76.2216 21.1917L74.1018 19.7546C73.7336 21.066 73.2306 21.6588 72.6557 21.7396C72.0898 21.6139 71.4521 21.551 70.7784 21.5959C65.3263 21.9283 64.1945 27.9373 67.1407 30.7038C66.6377 31.3415 66.3502 32.2937 66.3951 33.138C66.476 34.5392 67.3922 35.2757 68.5868 35.7697C68.9551 35.8775 70.7964 36.3895 70.8503 36.4075C73.024 36.9105 75.2066 37.3775 75.4671 39.3626L75.4581 39.3536ZM70.9042 23.9223C74.8653 23.6798 75.2426 29.5092 71.2545 29.7517C67.3113 29.9942 66.9341 24.1648 70.9042 23.9223Z" fill="#FFF400"/>
<path d="M84.063 33.0212L84.2247 31.6379V31.1978C83.5869 32.3565 82.6168 33.2817 81.1707 33.3086C79.1857 33.3445 77.6856 31.7637 77.6228 28.4493L77.533 24.0121C77.524 23.4732 77.515 23.1049 77.3174 22.6378L79.8144 21.4252L79.9491 28.5032C79.9851 30.2996 80.7306 31.2697 81.6108 31.2517C82.9672 31.2248 83.6229 29.087 84.1259 27.2547L84.063 23.8953C84.054 23.3564 84.045 22.9881 83.8474 22.5211L86.3444 21.3085L86.5421 31.611L86.7576 32.9853L84.045 33.0392L84.063 33.0212Z" fill="#FFF400"/>
<path d="M87.6021 21.2816L90.5482 21.3444C90.3775 21.578 90.4135 22.2067 90.5931 22.7277L92.6949 29.3835L95.0752 22.8175C95.2459 22.3055 95.3357 21.6768 95.174 21.4432L97.8327 21.4971L93.674 33.0931C92.7309 35.7159 92.0752 39.1381 88.8057 39.0662C87.4045 39.0393 86.2547 37.9884 85.2847 36.4434L87.3506 34.9165C87.8356 36.1919 88.4105 36.7129 88.9763 36.7219C90.1889 36.7488 90.7189 34.8895 91.3925 33.0302L87.611 21.2726L87.6021 21.2816Z" fill="#FFF400"/>
<path d="M100.887 29.9134C101.399 30.7397 102.225 31.3505 103.393 31.4224C104.417 31.4853 105.243 31.0631 105.836 30.0481L107.542 31.6469C106.447 33.129 104.911 33.8565 103.114 33.7488C99.2878 33.5242 97.5722 30.2367 97.7519 27.1379C97.9315 24.1738 99.9166 21.3983 103.554 21.6139C105.908 21.7576 108.081 23.4013 107.92 26.087C107.866 27.066 107.273 27.9193 105.27 28.5481L100.887 29.9224V29.9134ZM103.788 26.8056C105.477 26.3205 105.36 25.9163 105.378 25.6558C105.441 24.6049 104.614 23.9762 103.59 23.9133C101.56 23.7965 100.429 25.5301 100.321 27.3714C100.321 27.5152 100.303 27.6499 100.321 27.7936L103.797 26.8056H103.788ZM104.291 20.7067L103.761 18.9192L103.006 20.6258L100.509 20.4731L103.249 17.3384L104.435 17.4102L106.779 20.8504L104.282 20.6977L104.291 20.7067Z" fill="#FFF400"/>
<path d="M108.189 33.8296L108.512 32.4823L109.339 24.3085C109.393 23.7786 109.429 23.4013 109.294 22.9163L111.917 22.0091L111.683 24.3355C112.608 23.069 113.731 22.4313 114.962 22.557C116.938 22.7546 118.24 24.5061 117.908 27.8026L117.342 33.3805L117.387 34.7727L114.692 34.5033L115.016 33.1559L115.59 27.4882C115.77 25.7008 115.15 24.6498 114.27 24.56C112.995 24.4343 112.042 26.2127 111.324 27.9014L110.839 32.7338L110.884 34.126L108.189 33.8565V33.8296Z" fill="#FFF400"/>
<path d="M131.462 36.8835L131.588 36.147C130.555 36.659 129.513 36.7937 128.57 36.632C125.3 36.0841 124.141 32.8326 124.644 29.8415C125.156 26.8235 127.312 24.1109 130.698 24.6768C131.686 24.8474 132.603 25.3325 133.276 26.1049L133.573 24.3354L131.273 23.9492L131.588 22.1079L133.887 22.4941L133.95 22.1258C134.04 21.5959 134.103 21.2276 133.995 20.7336L136.672 19.9971L136.186 22.8714L136.878 22.9881L136.573 24.8295L135.881 24.7127L133.995 35.9045L133.95 37.2967L131.462 36.8745V36.8835ZM132.818 28.8445C132.369 27.7217 131.543 27.1109 130.698 26.9672C128.767 26.6439 127.51 28.3235 127.195 30.1918C126.863 32.1679 127.6 34.4044 129.719 34.7637C130.456 34.8895 131.219 34.7098 131.929 34.144L132.818 28.8445Z" fill="#FFF400"/>
<path d="M141.36 38.0422C140.345 38.5452 139.195 38.653 138.189 38.4375C135.746 37.9165 134.974 35.8596 135.378 33.9644C135.809 31.9524 137.677 30.1559 140.372 30.7398C141.216 30.9194 142.052 31.3865 142.654 32.0152C142.977 30.2727 142.106 29.2487 141.01 29.0062C140.21 28.8356 139.294 29.114 138.621 29.9942L137.112 28.2158C138.558 26.8056 140.219 26.4463 141.674 26.7607C143.911 27.2457 145.609 29.3475 145.097 31.7278L143.749 37.9884L143.642 39.3716L141.171 38.8417L141.342 38.0422H141.36ZM142.079 34.6919C141.854 33.8296 140.983 33.0212 140.156 32.8416C138.989 32.5901 138.127 33.4075 137.911 34.3865C137.668 35.5093 138.27 36.3716 139.393 36.6141C140.192 36.7847 141.18 36.5243 141.854 35.7069L142.079 34.6829V34.6919ZM145.51 23.2666L142.42 25.9702L141.252 25.7187L142.905 22.7007L145.51 23.2576V23.2666Z" fill="#FFF400"/>
<path d="M144.639 39.6051L145.169 38.3207L147.261 30.3715C147.396 29.8505 147.495 29.4912 147.432 28.9882L150.172 28.5032L149.579 30.7577C150.693 29.6529 151.896 29.1948 153.091 29.5092C155.013 30.0122 156.028 31.9433 155.184 35.15L153.765 40.5752L153.594 41.9584L150.971 41.2668L151.501 39.9824L152.947 34.4673C153.405 32.7248 152.947 31.593 152.094 31.3685C150.854 31.0451 149.633 32.6529 148.663 34.2068L147.432 38.9045L147.261 40.2877L144.639 39.5961V39.6051Z" fill="#FFF400"/>
<path d="M5.72076 74.3929L5.49621 73.0186C3.9423 67.9437 3.07103 65.0874 1.5261 60.0125C1.37341 59.5005 1.25664 59.1412 0.942261 58.746L3.01714 56.8957L7.73276 72.336L8.3166 73.6025L5.72975 74.3929H5.72076Z" fill="#C12202"/>
<path d="M9.57414 56.4376L11.4065 59.3478L10.2568 59.6712L7.00525 57.1652L9.56516 56.4466L9.57414 56.4376ZM15.3586 70.7282C14.694 71.6444 13.7329 72.2731 12.7448 72.5516C10.3376 73.2253 8.69389 71.7701 8.17293 69.9019C7.61603 67.9258 8.43341 65.4647 11.0921 64.7192C11.9275 64.4856 12.8796 64.5126 13.7059 64.791C13.185 63.0934 11.9275 62.5994 10.8496 62.8958C10.0592 63.1203 9.37654 63.794 9.19689 64.8808L7.0322 64.0096C7.66095 62.0874 8.95438 61.0006 10.3915 60.5964C12.5921 59.9766 15.0802 61.0544 15.7359 63.3988L17.4605 69.5605L18.0084 70.836L15.5742 71.5186L15.3497 70.7282H15.3586ZM14.4335 67.4228C13.8407 66.7671 12.682 66.4617 11.8736 66.6863C10.7239 67.0096 10.3376 68.1324 10.6071 69.1024C10.9125 70.2073 11.8556 70.6923 12.9514 70.3869C13.7419 70.1623 14.4874 69.4707 14.7119 68.4378L14.4245 67.4228H14.4335Z" fill="#C12202"/>
<path d="M30.0893 67.9707L29.9726 66.5874L27.251 54.2011C25.3468 54.5693 23.4605 55.3238 23.9815 57.7221C24.2958 59.1592 25.724 60.4257 27.7091 59.9856L27.763 60.2101C27.9965 61.261 27.5653 62.1233 26.4875 62.3568C24.1342 62.8778 22.0413 60.8209 21.5653 58.6562C20.8736 55.5124 22.9306 52.8088 25.9845 52.1352L29.8199 51.2908C32.4426 50.716 33.6103 50.0244 33.1702 48.0393L33.3948 47.9854C34.4457 47.7519 35.308 48.183 35.5415 49.2609C36.0625 51.6142 33.8079 52.7998 30.3229 53.5633L29.5504 53.734L32.263 66.0754L32.7391 67.3779L30.0893 67.9617V67.9707Z" fill="#C12202"/>
<path d="M36.5834 63.1113C37.275 63.794 38.2271 64.1892 39.3768 63.9736C40.3828 63.785 41.0834 63.1832 41.4248 62.0514L43.4637 63.1921C42.7541 64.8898 41.4338 65.9676 39.6643 66.291C35.9008 66.9826 33.4396 64.2071 32.8738 61.1532C32.3348 58.234 33.6103 55.0543 37.1852 54.3986C39.5026 53.9765 42.0086 55.0543 42.4936 57.6951C42.6733 58.6562 42.305 59.6262 40.5086 60.7221L36.5744 63.1023L36.5834 63.1113ZM37.6882 53.3657L36.7541 51.7579L36.4307 53.5992L33.9696 54.0483L35.8738 50.3477L37.0415 50.1321L40.1403 52.9076L37.6792 53.3567L37.6882 53.3657ZM38.6583 59.4107C40.1852 58.5394 39.9697 58.1711 39.9247 57.9196C39.7361 56.8867 38.775 56.4645 37.769 56.6531C35.775 57.0214 35.0834 58.9705 35.4157 60.7939C35.4427 60.9286 35.4696 61.0724 35.5145 61.2071L38.6493 59.4196L38.6583 59.4107ZM42.1254 47.1411L40.311 50.8237L39.1433 51.0393L39.5116 47.6261L42.1344 47.1411H42.1254Z" fill="#C12202"/>
<path d="M42.4937 53.6981C43.814 53.5005 43.85 53.3118 43.7242 52.4496L43.6254 51.8028C43.5266 51.1561 43.4278 50.4825 43.1763 50.0513L45.5027 48.5244L46.1853 53.1502L49.6524 52.6382L49.9578 54.722L46.4907 55.234L47.2632 60.4347C47.4518 61.7281 47.9099 62.7251 48.6913 62.6084C49.4818 62.4916 49.6884 61.5125 49.9219 60.8928L51.9249 62.1054C51.2153 63.6952 50.3081 64.5844 48.9698 64.791C47.4248 65.0156 45.4488 64.1533 45.0266 61.27L44.335 56.6262C44.2092 55.7729 44.1104 55.5933 42.799 55.7909L42.4937 53.7071V53.6981Z" fill="#C12202"/>
<path d="M64.0149 62.779L64.0958 61.3868L63.1077 48.7848L62.3622 48.8477C60.2424 49.0094 59.3712 50.3926 59.4789 51.7669C59.5957 53.231 60.8352 54.6861 62.8562 54.5244L62.8742 54.7579C62.955 55.8268 62.4071 56.6172 61.3203 56.7071C58.922 56.8957 57.1256 54.5783 56.946 52.3597C56.6945 49.1441 59.1107 46.7548 62.2275 46.5123L65.3712 46.2698L71.9821 57.3987L71.1827 47.204L70.8863 45.8476L73.5899 45.6321L73.509 47.0243L74.6767 61.9526L72.0899 62.1592L65.6407 51.3268L66.4132 61.2251L66.7096 62.5814L64.0059 62.797L64.0149 62.779Z" fill="#C12202"/>
<path d="M78.5659 60.0484C78.2695 60.264 78.1618 60.5514 78.1618 60.8299C78.2246 63.3 87.2517 61.9436 87.3954 67.9886C87.4762 71.3749 84.584 73.2612 81.7097 73.333C78.9073 73.4049 76.1138 71.833 76.033 68.2581C75.9971 66.6683 76.6527 64.809 78.054 64.0095C76.8773 63.4796 75.9881 62.7071 75.9611 61.3059C75.9432 60.4616 76.2665 59.5275 76.7875 58.9077C73.9401 56.0334 75.2875 50.0693 80.7486 49.9345C81.4223 49.9166 82.06 49.9974 82.6259 50.1501C83.2097 50.0872 83.7307 49.5124 84.1438 48.2189L86.2097 49.7369C85.8505 50.4914 85.4014 51.0393 84.9163 51.4525C87.7906 54.3268 86.578 60.3089 81.0001 60.4436C80.066 60.4706 79.2666 60.3179 78.5659 60.0574V60.0484ZM80.9462 58.0993C84.9343 58.0005 84.7726 52.1711 80.8025 52.2609C76.8324 52.3597 76.9941 58.1891 80.9462 58.0993ZM80.2905 64.7191C79.2306 65.4916 78.5659 66.6772 78.5929 67.9617C78.6468 70.1084 80.1827 71.0336 81.7456 70.9887C83.3085 70.9438 84.8714 69.8839 84.8265 68.0425C84.7726 65.8689 82.5181 65.3209 80.2905 64.7191Z" fill="#C12202"/>
<path d="M93.6021 61.8359L93.8087 60.4616V60.0215C93.144 61.1532 92.147 62.0514 90.7008 62.0245C88.7158 61.9886 87.2697 60.3538 87.3325 57.0394L87.4134 52.6022C87.4224 52.0633 87.4314 51.695 87.2517 51.219L89.7937 50.0962L89.6679 57.1741C89.632 58.9706 90.3416 59.9676 91.2308 59.9766C92.5871 60.0035 93.3236 57.8837 93.8895 56.0783L93.9524 52.719C93.9614 52.1801 93.9704 51.8118 93.7907 51.3357L96.3327 50.213L96.153 60.5155L96.3147 61.8987L93.6021 61.8538V61.8359Z" fill="#C12202"/>
<path d="M97.5992 50.231L100.536 50.4016C100.357 50.6262 100.375 51.2549 100.536 51.7849L102.396 58.5125L105.018 52.0454C105.207 51.5424 105.315 50.9136 105.171 50.6711L107.83 50.8238L103.24 62.2581C102.198 64.8449 101.426 68.2312 98.1561 68.0426C96.7549 67.9617 95.6501 66.8659 94.7339 65.294L96.8537 63.8479C97.2938 65.1323 97.8507 65.6802 98.4076 65.7162C99.6202 65.788 100.213 63.9467 100.95 62.1233L97.6082 50.231H97.5992Z" fill="#C12202"/>
<path d="M110.533 59.3478C111.018 60.1922 111.818 60.8299 112.986 60.9467C114.009 61.0455 114.845 60.6592 115.483 59.6622L117.126 61.3239C115.977 62.761 114.414 63.4257 112.617 63.2551C108.809 62.8868 107.21 59.5365 107.506 56.4466C107.794 53.4915 109.887 50.7879 113.515 51.1382C115.86 51.3627 117.971 53.0963 117.71 55.7729C117.611 56.752 116.992 57.5784 114.971 58.1352L110.533 59.3478ZM113.542 56.3478C115.249 55.9256 115.15 55.5214 115.177 55.261C115.276 54.219 114.477 53.5544 113.453 53.4466C111.432 53.249 110.237 54.9376 110.057 56.7789C110.039 56.9227 110.03 57.0574 110.039 57.2011L113.551 56.3478H113.542ZM114.279 50.2759L113.821 48.4705L113.003 50.1501L110.515 49.9076L113.372 46.8806L114.557 46.9974L116.776 50.5184L114.288 50.2759H114.279Z" fill="#C12202"/>
<path d="M117.683 63.5335L118.06 62.1951L119.201 54.0483C119.273 53.5184 119.327 53.1501 119.201 52.6561L121.86 51.8477L121.537 54.1651C122.507 52.9346 123.656 52.3417 124.878 52.5124C126.845 52.7908 128.076 54.5873 127.617 57.8747L126.845 63.4257V64.8179L124.159 64.4407L124.537 63.1023L125.327 57.4526C125.579 55.6741 124.995 54.5963 124.114 54.4795C122.839 54.2998 121.824 56.0424 121.043 57.7041L120.369 62.5185V63.9107L117.683 63.5335Z" fill="#C12202"/>
<path d="M138.728 67.0455L139.213 65.7431L141.98 53.4106L141.252 53.2489C139.177 52.7819 137.938 53.8418 137.633 55.1891C137.309 56.6262 138.064 58.3777 140.049 58.8179L139.995 59.0424C139.761 60.0933 139.007 60.6861 137.929 60.4436C135.585 59.9137 134.543 57.1741 135.028 55.0094C135.737 51.8657 138.746 50.2938 141.8 50.9764L144.881 51.6681L147.926 64.2521L150.163 54.2729L150.279 52.8896L152.92 53.4825L152.435 54.7849L149.157 69.3988L146.624 68.833L143.651 56.5813L141.477 66.2641L141.36 67.6473L138.719 67.0545L138.728 67.0455Z" fill="#C12202"/>
<path d="M150.181 69.7581L150.747 68.4916C152.238 63.3988 153.073 60.5335 154.564 55.4406C154.717 54.9286 154.815 54.5693 154.771 54.0663L157.519 53.6531L155.372 61.0095C156.324 60.0933 157.519 59.4915 158.911 59.9047C160.816 60.4616 161.777 62.4197 160.851 65.6084L159.28 70.9887L159.073 72.3629L156.468 71.5995L157.034 70.333L158.633 64.8629C159.136 63.1383 158.714 61.9886 157.869 61.746C156.567 61.3688 155.3 63.2101 154.277 64.809L153.001 69.1563L152.794 70.5306L150.19 69.7671L150.181 69.7581Z" fill="#C12202"/>
<path d="M166.259 73.9797C165.19 74.348 164.04 74.312 163.07 73.9797C160.708 73.1533 160.196 71.0156 160.833 69.1922C161.516 67.2521 163.591 65.7071 166.187 66.6143C167.004 66.9018 167.768 67.4676 168.289 68.1683C168.828 66.4796 168.091 65.3479 167.031 64.9796C166.259 64.7101 165.316 64.8718 164.543 65.6622L163.277 63.7131C164.893 62.5005 166.573 62.3478 167.983 62.8418C170.139 63.5963 171.567 65.9048 170.759 68.1952L168.648 74.2312L168.369 75.5965L165.989 74.7611L166.259 73.9887V73.9797ZM167.399 70.7372C167.292 69.8569 166.519 68.9407 165.72 68.6623C164.597 68.2671 163.636 68.9677 163.303 69.9198C162.926 70.9976 163.411 71.9408 164.489 72.318C165.262 72.5875 166.277 72.4527 167.049 71.7252L167.399 70.7372ZM169.69 58.9526L169.528 62.3838L168.405 61.9885L167.175 58.0723L169.69 58.9526Z" fill="#C12202"/>
<path d="M5.72076 72.857L5.49621 71.4827C3.9423 66.4078 3.07103 63.5515 1.5261 58.4765C1.37341 57.9646 1.25664 57.6053 0.942261 57.2101L3.01714 55.3597L7.73276 70.8001L8.3166 72.0665L5.72975 72.857H5.72076Z" fill="#C12202"/>
<path d="M9.57414 54.9017L11.4065 57.8119L10.2568 58.1352L7.00525 55.6292L9.56516 54.9107L9.57414 54.9017ZM15.3586 69.1923C14.694 70.1084 13.7329 70.7372 12.7448 71.0156C10.3376 71.6893 8.69389 70.2342 8.17293 68.3659C7.61603 66.3898 8.43341 63.9287 11.0921 63.1832C11.9275 62.9497 12.8796 62.9766 13.7059 63.2551C13.185 61.5574 11.9275 61.0634 10.8496 61.3598C10.0592 61.5844 9.37654 62.258 9.19689 63.3449L7.0322 62.4736C7.66095 60.5514 8.95438 59.4646 10.3915 59.0604C12.5921 58.4406 15.0802 59.5185 15.7359 61.8628L17.4605 68.0246L18.0084 69.3001L15.5742 69.9827L15.3497 69.1923H15.3586ZM14.4335 65.8868C13.8407 65.2311 12.682 64.9257 11.8736 65.1503C10.7239 65.4737 10.3376 66.5964 10.6071 67.5665C10.9125 68.6713 11.8556 69.1563 12.9514 68.8509C13.7419 68.6264 14.4874 67.9348 14.7119 66.9018L14.4245 65.8868H14.4335Z" fill="#C12202"/>
<path d="M30.0893 66.4347L29.9726 65.0515L27.251 52.6651C25.3468 53.0334 23.4605 53.7879 23.9815 56.1861C24.2958 57.6232 25.724 58.8897 27.7091 58.4496L27.763 58.6742C27.9965 59.7251 27.5653 60.5874 26.4875 60.8209C24.1342 61.3419 22.0413 59.2849 21.5653 57.1202C20.8736 53.9765 22.9306 51.2729 25.9845 50.5992L29.8199 49.7549C32.4426 49.18 33.6103 48.4884 33.1702 46.5033L33.3948 46.4495C34.4457 46.2159 35.308 46.6471 35.5415 47.7249C36.0625 50.0782 33.8079 51.2639 30.3229 52.0274L29.5504 52.198L32.263 64.5395L32.7391 65.8419L30.0893 66.4257V66.4347Z" fill="#C12202"/>
<path d="M36.5834 61.5843C37.275 62.267 38.2271 62.6622 39.3768 62.4466C40.3828 62.258 41.0834 61.6562 41.4248 60.5244L43.4637 61.6652C42.7541 63.3628 41.4338 64.4407 39.6643 64.764C35.9008 65.4556 33.4396 62.6802 32.8738 59.6262C32.3348 56.707 33.6103 53.5274 37.1852 52.8717C39.5026 52.4495 42.0086 53.5274 42.4936 56.1681C42.6733 57.1292 42.305 58.0993 40.5086 59.1951L36.5744 61.5754L36.5834 61.5843ZM37.6882 51.8297L36.7541 50.2219L36.4307 52.0633L33.9696 52.5124L35.8738 48.8117L37.0415 48.5962L40.1403 51.3716L37.6792 51.8207L37.6882 51.8297ZM38.6583 57.8747C40.1852 57.0034 39.9697 56.6352 39.9247 56.3837C39.7361 55.3507 38.775 54.9286 37.769 55.1172C35.775 55.4855 35.0834 57.4346 35.4157 59.258C35.4427 59.3927 35.4696 59.5364 35.5145 59.6711L38.6493 57.8837L38.6583 57.8747ZM42.1254 45.6051L40.311 49.2878L39.1433 49.5034L39.5116 46.0901L42.1344 45.6051H42.1254Z" fill="#C12202"/>
<path d="M42.4937 52.1621C43.814 51.9645 43.85 51.7759 43.7242 50.9136L43.6254 50.2669C43.5266 49.6202 43.4278 48.9465 43.1763 48.5154L45.5027 46.9884L46.1853 51.6142L49.6524 51.1022L49.9578 53.1861L46.4907 53.6981L47.2632 58.8987C47.4518 60.1922 47.9099 61.1892 48.6913 61.0724C49.4818 60.9556 49.6884 59.9766 49.9219 59.3568L51.9249 60.5694C51.2153 62.1593 50.3081 63.0485 48.9698 63.2551C47.4248 63.4796 45.4488 62.6173 45.0266 59.7341L44.335 55.0903C44.2092 54.237 44.1104 54.0574 42.799 54.255L42.4937 52.1711V52.1621Z" fill="#C12202"/>
<path d="M64.0149 61.243L64.0958 59.8508L63.1077 47.2489L62.3622 47.3117C60.2424 47.4734 59.3712 48.8567 59.4789 50.2309C59.5957 51.695 60.8352 53.1501 62.8562 52.9885L62.8742 53.222C62.955 54.2909 62.4071 55.0813 61.3203 55.1711C58.922 55.3597 57.1256 53.0423 56.946 50.8238C56.6945 47.6081 59.1107 45.2189 62.2275 44.9764L65.3712 44.7339L71.9821 55.8627L71.1827 45.668L70.8863 44.3117L73.5899 44.0961L73.509 45.4884L74.6767 60.4167L72.0899 60.6233L65.6407 49.7908L66.4132 59.6891L66.7096 61.0454L64.0059 61.261L64.0149 61.243Z" fill="#C12202"/>
<path d="M78.5659 58.5125C78.2695 58.728 78.1618 59.0155 78.1618 59.2939C78.2246 61.764 87.2517 60.4077 87.3954 66.4527C87.4762 69.839 84.584 71.7252 81.7097 71.7971C78.9073 71.8689 76.1138 70.297 76.033 66.7222C75.9971 65.1323 76.6527 63.273 78.054 62.4736C76.8773 61.9436 75.9881 61.1712 75.9611 59.77C75.9432 58.9257 76.2665 57.9915 76.7875 57.3717C73.9401 54.4975 75.2875 48.5333 80.7486 48.3986C81.4223 48.3806 82.06 48.4614 82.6259 48.6141C83.2097 48.5513 83.7307 47.9764 84.1438 46.683L86.2097 48.201C85.8505 48.9555 85.4014 49.5034 84.9163 49.9166C87.7906 52.7908 86.578 58.773 81.0001 58.9077C80.066 58.9346 79.2666 58.7819 78.5659 58.5215V58.5125ZM80.9462 56.5633C84.9343 56.4645 84.7726 50.6351 80.8025 50.7249C76.8324 50.8238 76.9941 56.6532 80.9462 56.5633ZM80.2905 63.1922C79.2306 63.9646 78.5659 65.1503 78.5929 66.4347C78.6468 68.5815 80.1827 69.5066 81.7456 69.4617C83.3085 69.4168 84.8714 68.3569 84.8265 66.5156C84.7726 64.3419 82.5181 63.794 80.2905 63.1922Z" fill="#C12202"/>
<path d="M93.6021 60.2999L93.8087 58.9256V58.4855C93.144 59.6173 92.147 60.5155 90.7008 60.4885C88.7158 60.4526 87.2697 58.8179 87.3325 55.5034L87.4134 51.0663C87.4224 50.5273 87.4314 50.1591 87.2517 49.683L89.7937 48.5602L89.6679 55.6382C89.632 57.4346 90.3416 58.4316 91.2308 58.4406C92.5871 58.4675 93.3236 56.3478 93.8895 54.5424L93.9524 51.183C93.9614 50.6441 93.9704 50.2758 93.7907 49.7998L96.3327 48.677L96.153 58.9795L96.3147 60.3628L93.6021 60.3179V60.2999Z" fill="#C12202"/>
<path d="M97.5992 48.704L100.536 48.8746C100.357 49.0992 100.375 49.7279 100.536 50.2579L102.396 56.9855L105.018 50.5184C105.207 50.0154 105.315 49.3866 105.171 49.1441L107.83 49.2968L103.24 60.7311C102.198 63.3179 101.426 66.7042 98.1561 66.5156C96.7549 66.4347 95.6501 65.3389 94.7339 63.767L96.8537 62.3209C97.2938 63.6054 97.8507 64.1533 98.4076 64.1892C99.6202 64.2611 100.213 62.4197 100.95 60.5963L97.6082 48.704H97.5992Z" fill="#C12202"/>
<path d="M110.533 57.8119C111.018 58.6562 111.818 59.2939 112.986 59.4107C114.009 59.5095 114.845 59.1233 115.483 58.1263L117.126 59.788C115.977 61.2251 114.414 61.8898 112.617 61.7191C108.809 61.3508 107.21 58.0005 107.506 54.9106C107.794 51.9555 109.887 49.2519 113.515 49.6022C115.86 49.8268 117.971 51.5603 117.71 54.237C117.611 55.216 116.992 56.0424 114.971 56.5993L110.533 57.8119ZM113.542 54.8208C115.249 54.3987 115.15 53.9945 115.177 53.734C115.276 52.6921 114.477 52.0274 113.453 51.9196C111.432 51.722 110.237 53.4106 110.057 55.252C110.039 55.3957 110.03 55.5304 110.039 55.6741L113.551 54.8208H113.542ZM114.279 48.7399L113.821 46.9345L113.003 48.6142L110.515 48.3716L113.372 45.3447L114.557 45.4614L116.776 48.9824L114.288 48.7399H114.279Z" fill="#C12202"/>
<path d="M117.683 61.9975L118.06 60.6592L119.201 52.5124C119.273 51.9824 119.327 51.6142 119.201 51.1202L121.86 50.3118L121.537 52.6292C122.507 51.3986 123.656 50.8058 124.878 50.9764C126.845 51.2549 128.076 53.0513 127.617 56.3388L126.845 61.8898V63.282L124.159 62.9047L124.537 61.5664L125.327 55.9166C125.579 54.1382 124.995 53.0603 124.114 52.9435C122.839 52.7639 121.824 54.5064 121.043 56.1681L120.369 60.9826V62.3748L117.683 61.9975Z" fill="#C12202"/>
<path d="M138.728 65.5185L139.213 64.2161L141.98 51.8836L141.252 51.722C139.177 51.2549 137.938 52.3148 137.633 53.6621C137.309 55.0992 138.064 56.8508 140.049 57.2909L139.995 57.5154C139.761 58.5663 139.007 59.1592 137.929 58.9166C135.585 58.3867 134.543 55.6471 135.028 53.4825C135.737 50.3387 138.746 48.7668 141.8 49.4495L144.881 50.1411L147.926 62.7251L150.163 52.7459L150.279 51.3627L152.92 51.9555L152.435 53.2579L149.157 67.8718L146.624 67.306L143.651 55.0543L141.477 64.7371L141.36 66.1203L138.719 65.5275L138.728 65.5185Z" fill="#C12202"/>
<path d="M150.181 68.2222L150.747 66.9557C152.238 61.8628 153.073 58.9975 154.564 53.9046C154.717 53.3927 154.815 53.0334 154.771 52.5304L157.519 52.1172L155.372 59.4736C156.324 58.5574 157.519 57.9556 158.911 58.3688C160.816 58.9257 161.777 60.8838 160.851 64.0724L159.28 69.4527L159.073 70.827L156.468 70.0635L157.034 68.797L158.633 63.3269C159.136 61.6023 158.714 60.4526 157.869 60.2101C156.567 59.8329 155.3 61.6742 154.277 63.273L153.001 67.6204L152.794 68.9946L150.19 68.2312L150.181 68.2222Z" fill="#C12202"/>
<path d="M166.259 72.4438C165.19 72.812 164.04 72.7761 163.07 72.4438C160.708 71.6174 160.196 69.4797 160.833 67.6563C161.516 65.7161 163.591 64.1712 166.187 65.0784C167.004 65.3658 167.768 65.9317 168.289 66.6323C168.828 64.9437 168.091 63.8119 167.031 63.4436C166.259 63.1742 165.316 63.3359 164.543 64.1263L163.277 62.1772C164.893 60.9646 166.573 60.8119 167.983 61.3059C170.139 62.0604 171.567 64.3688 170.759 66.6593L168.648 72.6953L168.369 74.0605L165.989 73.2252L166.259 72.4527V72.4438ZM167.399 69.2012C167.292 68.321 166.519 67.4048 165.72 67.1263C164.597 66.7311 163.636 67.4317 163.303 68.3838C162.926 69.4617 163.411 70.4048 164.489 70.7821C165.262 71.0515 166.277 70.9168 167.049 70.1892L167.399 69.2012ZM169.69 57.4166L169.528 60.8478L168.405 60.4526L167.175 56.5364L169.69 57.4166Z" fill="#C12202"/>
<path d="M5.72076 72.857L5.49621 71.4827C3.9423 66.4078 3.07103 63.5515 1.5261 58.4765C1.37341 57.9646 1.25664 57.6053 0.942261 57.2101L3.01714 55.3597L7.73276 70.8001L8.3166 72.0665L5.72975 72.857H5.72076Z" fill="#EF4B23"/>
<path d="M9.57414 54.9017L11.4065 57.8119L10.2568 58.1352L7.00525 55.6292L9.56516 54.9107L9.57414 54.9017ZM15.3586 69.1923C14.694 70.1084 13.7329 70.7372 12.7448 71.0156C10.3376 71.6893 8.69389 70.2342 8.17293 68.3659C7.61603 66.3898 8.43341 63.9287 11.0921 63.1832C11.9275 62.9497 12.8796 62.9766 13.7059 63.2551C13.185 61.5574 11.9275 61.0634 10.8496 61.3598C10.0592 61.5844 9.37654 62.258 9.19689 63.3449L7.0322 62.4736C7.66095 60.5514 8.95438 59.4646 10.3915 59.0604C12.5921 58.4406 15.0802 59.5185 15.7359 61.8628L17.4605 68.0246L18.0084 69.3001L15.5742 69.9827L15.3497 69.1923H15.3586ZM14.4335 65.8868C13.8407 65.2311 12.682 64.9257 11.8736 65.1503C10.7239 65.4737 10.3376 66.5964 10.6071 67.5665C10.9125 68.6713 11.8556 69.1563 12.9514 68.8509C13.7419 68.6264 14.4874 67.9348 14.7119 66.9018L14.4245 65.8868H14.4335Z" fill="#EF4B23"/>
<path d="M30.0893 66.4347L29.9726 65.0515L27.251 52.6651C25.3468 53.0334 23.4605 53.7879 23.9815 56.1861C24.2958 57.6232 25.724 58.8897 27.7091 58.4496L27.763 58.6742C27.9965 59.7251 27.5653 60.5874 26.4875 60.8209C24.1342 61.3419 22.0413 59.2849 21.5653 57.1202C20.8736 53.9765 22.9306 51.2729 25.9845 50.5992L29.8199 49.7549C32.4426 49.18 33.6103 48.4884 33.1702 46.5033L33.3948 46.4495C34.4457 46.2159 35.308 46.6471 35.5415 47.7249C36.0625 50.0782 33.8079 51.2639 30.3229 52.0274L29.5504 52.198L32.263 64.5395L32.7391 65.8419L30.0893 66.4257V66.4347Z" fill="#EF4B23"/>
<path d="M36.5834 61.5843C37.275 62.267 38.2271 62.6622 39.3768 62.4466C40.3828 62.258 41.0834 61.6562 41.4248 60.5244L43.4637 61.6652C42.7541 63.3628 41.4338 64.4407 39.6643 64.764C35.9008 65.4556 33.4396 62.6802 32.8738 59.6262C32.3348 56.707 33.6103 53.5274 37.1852 52.8717C39.5026 52.4495 42.0086 53.5274 42.4936 56.1681C42.6733 57.1292 42.305 58.0993 40.5086 59.1951L36.5744 61.5754L36.5834 61.5843ZM37.6882 51.8297L36.7541 50.2219L36.4307 52.0633L33.9696 52.5124L35.8738 48.8117L37.0415 48.5962L40.1403 51.3716L37.6792 51.8207L37.6882 51.8297ZM38.6583 57.8747C40.1852 57.0034 39.9697 56.6352 39.9247 56.3837C39.7361 55.3507 38.775 54.9286 37.769 55.1172C35.775 55.4855 35.0834 57.4346 35.4157 59.258C35.4427 59.3927 35.4696 59.5364 35.5145 59.6711L38.6493 57.8837L38.6583 57.8747ZM42.1254 45.6051L40.311 49.2878L39.1433 49.5034L39.5116 46.0901L42.1344 45.6051H42.1254Z" fill="#EF4B23"/>
<path d="M42.4937 52.1621C43.814 51.9645 43.85 51.7759 43.7242 50.9136L43.6254 50.2669C43.5266 49.6202 43.4278 48.9465 43.1763 48.5154L45.5027 46.9884L46.1853 51.6142L49.6524 51.1022L49.9578 53.1861L46.4907 53.6981L47.2632 58.8987C47.4518 60.1922 47.9099 61.1892 48.6913 61.0724C49.4818 60.9556 49.6884 59.9766 49.9219 59.3568L51.9249 60.5694C51.2153 62.1593 50.3081 63.0485 48.9698 63.2551C47.4248 63.4796 45.4488 62.6173 45.0266 59.7341L44.335 55.0903C44.2092 54.237 44.1104 54.0574 42.799 54.255L42.4937 52.1711V52.1621Z" fill="#EF4B23"/>
<path d="M64.0149 61.243L64.0958 59.8508L63.1077 47.2489L62.3622 47.3117C60.2424 47.4734 59.3712 48.8567 59.4789 50.2309C59.5957 51.695 60.8352 53.1501 62.8562 52.9885L62.8742 53.222C62.955 54.2909 62.4071 55.0813 61.3203 55.1711C58.922 55.3597 57.1256 53.0423 56.946 50.8238C56.6945 47.6081 59.1107 45.2189 62.2275 44.9764L65.3712 44.7339L71.9821 55.8627L71.1827 45.668L70.8863 44.3117L73.5899 44.0961L73.509 45.4884L74.6767 60.4167L72.0899 60.6233L65.6407 49.7908L66.4132 59.6891L66.7096 61.0454L64.0059 61.261L64.0149 61.243Z" fill="#EF4B23"/>
<path d="M78.5659 58.5125C78.2695 58.728 78.1618 59.0155 78.1618 59.2939C78.2246 61.764 87.2517 60.4077 87.3954 66.4527C87.4762 69.839 84.584 71.7252 81.7097 71.7971C78.9073 71.8689 76.1138 70.297 76.033 66.7222C75.9971 65.1323 76.6527 63.273 78.054 62.4736C76.8773 61.9436 75.9881 61.1712 75.9611 59.77C75.9432 58.9257 76.2665 57.9915 76.7875 57.3717C73.9401 54.4975 75.2875 48.5333 80.7486 48.3986C81.4223 48.3806 82.06 48.4614 82.6259 48.6141C83.2097 48.5513 83.7307 47.9764 84.1438 46.683L86.2097 48.201C85.8505 48.9555 85.4014 49.5034 84.9163 49.9166C87.7906 52.7908 86.578 58.773 81.0001 58.9077C80.066 58.9346 79.2666 58.7819 78.5659 58.5215V58.5125ZM80.9462 56.5633C84.9343 56.4645 84.7726 50.6351 80.8025 50.7249C76.8324 50.8238 76.9941 56.6532 80.9462 56.5633ZM80.2905 63.1922C79.2306 63.9646 78.5659 65.1503 78.5929 66.4347C78.6468 68.5815 80.1827 69.5066 81.7456 69.4617C83.3085 69.4168 84.8714 68.3569 84.8265 66.5156C84.7726 64.3419 82.5181 63.794 80.2905 63.1922Z" fill="#EF4B23"/>
<path d="M93.6021 60.2999L93.8087 58.9256V58.4855C93.144 59.6173 92.147 60.5155 90.7008 60.4885C88.7158 60.4526 87.2697 58.8179 87.3325 55.5034L87.4134 51.0663C87.4224 50.5273 87.4314 50.1591 87.2517 49.683L89.7937 48.5602L89.6679 55.6382C89.632 57.4346 90.3416 58.4316 91.2308 58.4406C92.5871 58.4675 93.3236 56.3478 93.8895 54.5424L93.9524 51.183C93.9614 50.6441 93.9704 50.2758 93.7907 49.7998L96.3327 48.677L96.153 58.9795L96.3147 60.3628L93.6021 60.3179V60.2999Z" fill="#EF4B23"/>
<path d="M97.5992 48.704L100.536 48.8746C100.357 49.0992 100.375 49.7279 100.536 50.2579L102.396 56.9855L105.018 50.5184C105.207 50.0154 105.315 49.3866 105.171 49.1441L107.83 49.2968L103.24 60.7311C102.198 63.3179 101.426 66.7042 98.1561 66.5156C96.7549 66.4347 95.6501 65.3389 94.7339 63.767L96.8537 62.3209C97.2938 63.6054 97.8507 64.1533 98.4076 64.1892C99.6202 64.2611 100.213 62.4197 100.95 60.5963L97.6082 48.704H97.5992Z" fill="#EF4B23"/>
<path d="M110.533 57.8119C111.018 58.6562 111.818 59.2939 112.986 59.4107C114.009 59.5095 114.845 59.1233 115.483 58.1263L117.126 59.788C115.977 61.2251 114.414 61.8898 112.617 61.7191C108.809 61.3508 107.21 58.0005 107.506 54.9106C107.794 51.9555 109.887 49.2519 113.515 49.6022C115.86 49.8268 117.971 51.5603 117.71 54.237C117.611 55.216 116.992 56.0424 114.971 56.5993L110.533 57.8119ZM113.542 54.8208C115.249 54.3987 115.15 53.9945 115.177 53.734C115.276 52.6921 114.477 52.0274 113.453 51.9196C111.432 51.722 110.237 53.4106 110.057 55.252C110.039 55.3957 110.03 55.5304 110.039 55.6741L113.551 54.8208H113.542ZM114.279 48.7399L113.821 46.9345L113.003 48.6142L110.515 48.3716L113.372 45.3447L114.557 45.4614L116.776 48.9824L114.288 48.7399H114.279Z" fill="#EF4B23"/>
<path d="M117.683 61.9975L118.06 60.6592L119.201 52.5124C119.273 51.9824 119.327 51.6142 119.201 51.1202L121.86 50.3118L121.537 52.6292C122.507 51.3986 123.656 50.8058 124.878 50.9764C126.845 51.2549 128.076 53.0513 127.617 56.3388L126.845 61.8898V63.282L124.159 62.9047L124.537 61.5664L125.327 55.9166C125.579 54.1382 124.995 53.0603 124.114 52.9435C122.839 52.7639 121.824 54.5064 121.043 56.1681L120.369 60.9826V62.3748L117.683 61.9975Z" fill="#EF4B23"/>
<path d="M138.728 65.5185L139.213 64.2161L141.98 51.8836L141.252 51.722C139.177 51.2549 137.938 52.3148 137.633 53.6621C137.309 55.0992 138.064 56.8508 140.049 57.2909L139.995 57.5154C139.761 58.5663 139.007 59.1592 137.929 58.9166C135.585 58.3867 134.543 55.6471 135.028 53.4825C135.737 50.3387 138.746 48.7668 141.8 49.4495L144.881 50.1411L147.926 62.7251L150.163 52.7459L150.279 51.3627L152.92 51.9555L152.435 53.2579L149.157 67.8718L146.624 67.306L143.651 55.0543L141.477 64.7371L141.36 66.1203L138.719 65.5275L138.728 65.5185Z" fill="#EF4B23"/>
<path d="M150.181 68.2222L150.747 66.9557C152.238 61.8628 153.073 58.9975 154.564 53.9046C154.717 53.3927 154.815 53.0334 154.771 52.5304L157.519 52.1172L155.372 59.4736C156.324 58.5574 157.519 57.9556 158.911 58.3688C160.816 58.9257 161.777 60.8838 160.851 64.0724L159.28 69.4527L159.073 70.827L156.468 70.0635L157.034 68.797L158.633 63.3269C159.136 61.6023 158.714 60.4526 157.869 60.2101C156.567 59.8329 155.3 61.6742 154.277 63.273L153.001 67.6204L152.794 68.9946L150.19 68.2312L150.181 68.2222Z" fill="#EF4B23"/>
<path d="M166.259 72.4438C165.19 72.812 164.04 72.7761 163.07 72.4438C160.708 71.6174 160.196 69.4797 160.833 67.6563C161.516 65.7161 163.591 64.1712 166.187 65.0784C167.004 65.3658 167.768 65.9317 168.289 66.6323C168.828 64.9437 168.091 63.8119 167.031 63.4436C166.259 63.1742 165.316 63.3359 164.543 64.1263L163.277 62.1772C164.893 60.9646 166.573 60.8119 167.983 61.3059C170.139 62.0604 171.567 64.3688 170.759 66.6593L168.648 72.6953L168.369 74.0605L165.989 73.2252L166.259 72.4527V72.4438ZM167.399 69.2012C167.292 68.321 166.519 67.4048 165.72 67.1263C164.597 66.7311 163.636 67.4317 163.303 68.3838C162.926 69.4617 163.411 70.4048 164.489 70.7821C165.262 71.0515 166.277 70.9168 167.049 70.1892L167.399 69.2012ZM169.69 57.4166L169.528 60.8478L168.405 60.4526L167.175 56.5364L169.69 57.4166Z" fill="#EF4B23"/>
<path d="M5.72076 71.321L5.49621 69.9467C3.9423 64.8718 3.07103 62.0155 1.5261 56.9406C1.37341 56.4286 1.25664 56.0693 0.942261 55.6741L3.01714 53.8238L7.73276 69.2641L8.3166 70.5306L5.72975 71.321H5.72076Z" fill="#FFF400"/>
<path d="M9.57414 53.3657L11.4065 56.2759L10.2568 56.5993L7.00525 54.0933L9.56516 53.3747L9.57414 53.3657ZM15.3586 67.6563C14.694 68.5725 13.7329 69.2012 12.7448 69.4797C10.3376 70.1534 8.69389 68.6982 8.17293 66.83C7.61603 64.8539 8.43341 62.3928 11.0921 61.6473C11.9275 61.4137 12.8796 61.4407 13.7059 61.7191C13.185 60.0215 11.9275 59.5275 10.8496 59.8239C10.0592 60.0484 9.37654 60.7221 9.19689 61.8089L7.0322 60.9377C7.66095 59.0155 8.95438 57.9287 10.3915 57.5245C12.5921 56.9047 15.0802 57.9825 15.7359 60.3269L17.4605 66.4886L18.0084 67.7641L15.5742 68.4467L15.3497 67.6563H15.3586ZM14.4335 64.3509C13.8407 63.6952 12.682 63.3898 11.8736 63.6144C10.7239 63.9377 10.3376 65.0605 10.6071 66.0306C10.9125 67.1354 11.8556 67.6204 12.9514 67.315C13.7419 67.0904 14.4874 66.3988 14.7119 65.3659L14.4245 64.3509H14.4335Z" fill="#FFF400"/>
<path d="M30.0893 64.8988L29.9726 63.5155L27.251 51.1291C25.3468 51.4974 23.4605 52.2519 23.9815 54.6502C24.2958 56.0873 25.724 57.3538 27.7091 56.9137L27.763 57.1382C27.9965 58.1891 27.5653 59.0514 26.4875 59.2849C24.1342 59.8059 22.0413 57.749 21.5653 55.5843C20.8736 52.4405 22.9306 49.7369 25.9845 49.0633L29.8199 48.2189C32.4426 47.6441 33.6103 46.9525 33.1702 44.9674L33.3948 44.9135C34.4457 44.68 35.308 45.1111 35.5415 46.189C36.0625 48.5423 33.8079 49.7279 30.3229 50.4914L29.5504 50.6621L32.263 63.0035L32.7391 64.306L30.0893 64.8898V64.8988Z" fill="#FFF400"/>
<path d="M36.5834 60.0484C37.275 60.731 38.2271 61.1262 39.3768 60.9107C40.3828 60.7221 41.0834 60.1202 41.4248 58.9885L43.4637 60.1292C42.7541 61.8269 41.4338 62.9047 39.6643 63.2281C35.9008 63.9197 33.4396 61.1442 32.8738 58.0903C32.3348 55.1711 33.6103 51.9914 37.1852 51.3357C39.5026 50.9135 42.0086 51.9914 42.4936 54.6322C42.6733 55.5932 42.305 56.5633 40.5086 57.6591L36.5744 60.0394L36.5834 60.0484ZM37.6882 50.2938L36.7541 48.686L36.4307 50.5273L33.9696 50.9764L35.8738 47.2758L37.0415 47.0602L40.1403 49.8357L37.6792 50.2848L37.6882 50.2938ZM38.6583 56.3388C40.1852 55.4675 39.9697 55.0992 39.9247 54.8477C39.7361 53.8148 38.775 53.3926 37.769 53.5812C35.775 53.9495 35.0834 55.8986 35.4157 57.722C35.4427 57.8567 35.4696 58.0005 35.5145 58.1352L38.6493 56.3477L38.6583 56.3388ZM42.1254 44.0692L40.311 47.7518L39.1433 47.9674L39.5116 44.5542L42.1344 44.0692H42.1254Z" fill="#FFF400"/>
<path d="M42.4937 50.6351C43.814 50.4375 43.85 50.2489 43.7242 49.3866L43.6254 48.7399C43.5266 48.0932 43.4278 47.4195 43.1763 46.9884L45.5027 45.4614L46.1853 50.0872L49.6524 49.5753L49.9578 51.6591L46.4907 52.1711L47.2632 57.3718C47.4518 58.6652 47.9099 59.6622 48.6913 59.5454C49.4818 59.4287 49.6884 58.4496 49.9219 57.8298L51.9249 59.0424C51.2153 60.6323 50.3081 61.5215 48.9698 61.7281C47.4248 61.9527 45.4488 61.0904 45.0266 58.2071L44.335 53.5633C44.2092 52.71 44.1104 52.5304 42.799 52.728L42.4937 50.6441V50.6351Z" fill="#FFF400"/>
<path d="M64.0149 59.7071L64.0958 58.3149L63.1077 45.7129L62.3622 45.7758C60.2424 45.9375 59.3712 47.3207 59.4789 48.695C59.5957 50.1591 60.8352 51.6142 62.8562 51.4525L62.8742 51.686C62.955 52.7549 62.4071 53.5453 61.3203 53.6352C58.922 53.8238 57.1256 51.5064 56.946 49.2878C56.6945 46.0722 59.1107 43.6829 62.2275 43.4404L65.3712 43.1979L71.9821 54.3268L71.1827 44.1321L70.8863 42.7758L73.5899 42.5602L73.509 43.9524L74.6767 58.8807L72.0899 59.0873L65.6407 48.2549L66.4132 58.1532L66.7096 59.5095L64.0059 59.7251L64.0149 59.7071Z" fill="#FFF400"/>
<path d="M78.5659 56.9765C78.2695 57.1921 78.1618 57.4795 78.1618 57.758C78.2246 60.2281 87.2517 58.8718 87.3954 64.9167C87.4762 68.303 84.584 70.1893 81.7097 70.2611C78.9073 70.333 76.1138 68.7611 76.033 65.1862C75.9971 63.5964 76.6527 61.7371 78.054 60.9376C76.8773 60.4077 75.9881 59.6352 75.9611 58.234C75.9432 57.3897 76.2665 56.4556 76.7875 55.8358C73.9401 52.9615 75.2875 46.9974 80.7486 46.8626C81.4223 46.8447 82.06 46.9255 82.6259 47.0782C83.2097 47.0153 83.7307 46.4405 84.1438 45.147L86.2097 46.665C85.8505 47.4195 85.4014 47.9674 84.9163 48.3806C87.7906 51.2549 86.578 57.237 81.0001 57.3717C80.066 57.3987 79.2666 57.246 78.5659 56.9855V56.9765ZM80.9462 55.0274C84.9343 54.9286 84.7726 49.0992 80.8025 49.189C76.8324 49.2878 76.9941 55.1172 80.9462 55.0274ZM80.2905 61.6562C79.2306 62.4287 78.5659 63.6143 78.5929 64.8988C78.6468 67.0455 80.1827 67.9707 81.7456 67.9258C83.3085 67.8808 84.8714 66.821 84.8265 64.9796C84.7726 62.8059 82.5181 62.258 80.2905 61.6562Z" fill="#FFF400"/>
<path d="M93.6021 58.764L93.8087 57.3897V56.9496C93.144 58.0813 92.147 58.9795 90.7008 58.9526C88.7158 58.9167 87.2697 57.2819 87.3325 53.9675L87.4134 49.5303C87.4224 48.9914 87.4314 48.6231 87.2517 48.1471L89.7937 47.0243L89.6679 54.1022C89.632 55.8987 90.3416 56.8957 91.2308 56.9047C92.5871 56.9316 93.3236 54.8118 93.8895 53.0064L93.9524 49.6471C93.9614 49.1081 93.9704 48.7399 93.7907 48.2638L96.3327 47.1411L96.153 57.4436L96.3147 58.8268L93.6021 58.7819V58.764Z" fill="#FFF400"/>
<path d="M97.5992 47.168L100.536 47.3387C100.357 47.5632 100.375 48.192 100.536 48.7219L102.396 55.4496L105.018 48.9824C105.207 48.4794 105.315 47.8507 105.171 47.6082L107.83 47.7609L103.24 59.1951C102.198 61.782 101.426 65.1682 98.1561 64.9796C96.7549 64.8988 95.6501 63.803 94.7339 62.2311L96.8537 60.785C97.2938 62.0694 97.8507 62.6173 98.4076 62.6533C99.6202 62.7251 100.213 60.8838 100.95 59.0604L97.6082 47.168H97.5992Z" fill="#FFF400"/>
<path d="M110.533 56.2759C111.018 57.1203 111.818 57.758 112.986 57.8748C114.009 57.9736 114.845 57.5873 115.483 56.5903L117.126 58.252C115.977 59.6892 114.414 60.3538 112.617 60.1832C108.809 59.8149 107.21 56.4646 107.506 53.3747C107.794 50.4196 109.887 47.716 113.515 48.0663C115.86 48.2908 117.971 50.0244 117.71 52.701C117.611 53.6801 116.992 54.5065 114.971 55.0633L110.533 56.2759ZM113.542 53.2849C115.249 52.8627 115.15 52.4585 115.177 52.198C115.276 51.1561 114.477 50.4914 113.453 50.3837C111.432 50.186 110.237 51.8747 110.057 53.716C110.039 53.8597 110.03 53.9945 110.039 54.1382L113.551 53.2849H113.542ZM114.279 47.204L113.821 45.3986L113.003 47.0782L110.515 46.8357L113.372 43.8087L114.557 43.9255L116.776 47.4465L114.288 47.204H114.279Z" fill="#FFF400"/>
<path d="M117.683 60.4706L118.06 59.1322L119.201 50.9854C119.273 50.4555 119.327 50.0872 119.201 49.5932L121.86 48.7848L121.537 51.1022C122.507 49.8716 123.656 49.2788 124.878 49.4495C126.845 49.7279 128.076 51.5243 127.617 54.8118L126.845 60.3628V61.755L124.159 61.3778L124.537 60.0394L125.327 54.3897C125.579 52.6112 124.995 51.5333 124.114 51.4166C122.839 51.2369 121.824 52.9795 121.043 54.6411L120.369 59.4556V60.8478L117.683 60.4706Z" fill="#FFF400"/>
<path d="M138.728 63.9826L139.213 62.6802L141.98 50.3477L141.252 50.186C139.177 49.7189 137.938 50.7788 137.633 52.1261C137.309 53.5633 138.064 55.3148 140.049 55.7549L139.995 55.9795C139.761 57.0304 139.007 57.6232 137.929 57.3807C135.585 56.8508 134.543 54.1112 135.028 51.9465C135.737 48.8027 138.746 47.2309 141.8 47.9135L144.881 48.6051L147.926 61.1891L150.163 51.21L150.279 49.8267L152.92 50.4195L152.435 51.7219L149.157 66.3359L146.624 65.77L143.651 53.5184L141.477 63.2011L141.36 64.5844L138.719 63.9916L138.728 63.9826Z" fill="#FFF400"/>
<path d="M150.181 66.6952L150.747 65.4287C152.238 60.3358 153.073 57.4705 154.564 52.3777C154.717 51.8657 154.815 51.5064 154.771 51.0034L157.519 50.5902L155.372 57.9466C156.324 57.0304 157.519 56.4286 158.911 56.8418C160.816 57.3987 161.777 59.3568 160.851 62.5454L159.28 67.9257L159.073 69.3L156.468 68.5365L157.034 67.2701L158.633 61.7999C159.136 60.0754 158.714 58.9256 157.869 58.6831C156.567 58.3059 155.3 60.1472 154.277 61.746L153.001 66.0934L152.794 67.4677L150.19 66.7042L150.181 66.6952Z" fill="#FFF400"/>
<path d="M166.259 70.9078C165.19 71.2761 164.04 71.2401 163.07 70.9078C160.708 70.0814 160.196 67.9437 160.833 66.1203C161.516 64.1802 163.591 62.6353 166.187 63.5424C167.004 63.8299 167.768 64.3958 168.289 65.0964C168.828 63.4077 168.091 62.276 167.031 61.9077C166.259 61.6382 165.316 61.7999 164.543 62.5903L163.277 60.6412C164.893 59.4286 166.573 59.2759 167.983 59.7699C170.139 60.5244 171.567 62.8329 170.759 65.1233L168.648 71.1593L168.369 72.5246L165.989 71.6893L166.259 70.9168V70.9078ZM167.399 67.6653C167.292 66.785 166.519 65.8688 165.72 65.5904C164.597 65.1952 163.636 65.8958 163.303 66.8479C162.926 67.9257 163.411 68.8689 164.489 69.2461C165.262 69.5156 166.277 69.3808 167.049 68.6533L167.399 67.6653ZM169.69 55.8807L169.528 59.3119L168.405 58.9166L167.175 55.0004L169.69 55.8807Z" fill="#FFF400"/>
<mask id="path-105-outside-1_9_7867" maskUnits="userSpaceOnUse" x="47.1853" y="3.59195" width="10.9553" height="11.8606" fill="black">
<rect fill="white" x="47.1853" y="3.59195" width="10.9553" height="11.8606"/>
<path d="M52.5686 5.61473C54.3851 5.44951 55.691 6.42723 55.8454 8.12423C55.9986 9.80927 54.8905 11.0066 53.074 11.1718L51.4607 11.3185L51.7161 14.1269L49.9235 14.29L49.1626 5.92452L52.5686 5.61473ZM51.0911 7.2553L51.3248 9.8247L52.7708 9.69317C53.6074 9.61708 54.1006 9.07819 54.0289 8.28945C53.956 7.48875 53.3737 7.04769 52.5371 7.12378L51.0911 7.2553Z"/>
</mask>
<path d="M52.5686 5.61473C54.3851 5.44951 55.691 6.42723 55.8454 8.12423C55.9986 9.80927 54.8905 11.0066 53.074 11.1718L51.4607 11.3185L51.7161 14.1269L49.9235 14.29L49.1626 5.92452L52.5686 5.61473ZM51.0911 7.2553L51.3248 9.8247L52.7708 9.69317C53.6074 9.61708 54.1006 9.07819 54.0289 8.28945C53.956 7.48875 53.3737 7.04769 52.5371 7.12378L51.0911 7.2553Z" fill="white"/>
<path d="M51.4607 11.3185L51.3701 10.3226L50.3742 10.4132L50.4648 11.4091L51.4607 11.3185ZM51.7161 14.1269L51.8067 15.1228L52.8026 15.0322L52.712 14.0364L51.7161 14.1269ZM49.9235 14.29L48.9276 14.3806L49.0182 15.3765L50.0141 15.2859L49.9235 14.29ZM49.1626 5.92452L49.0721 4.92863L48.0762 5.01921L48.1668 6.0151L49.1626 5.92452ZM51.0911 7.2553L51.0005 6.25941L50.0046 6.35L50.0952 7.34588L51.0911 7.2553ZM51.3248 9.8247L50.3289 9.91528L50.4195 10.9112L51.4154 10.8206L51.3248 9.8247ZM52.6592 6.61062C53.371 6.54587 53.889 6.71151 54.2247 6.96694C54.5506 7.2149 54.7949 7.61461 54.8495 8.21481L56.8413 8.03364C56.7415 6.93685 56.2557 5.9992 55.4358 5.37535C54.6258 4.75898 53.5827 4.51836 52.478 4.61884L52.6592 6.61062ZM54.8495 8.21481C54.9033 8.80701 54.7363 9.24121 54.4602 9.54332C54.1757 9.85465 53.6953 10.1112 52.9834 10.1759L53.1646 12.1677C54.2693 12.0672 55.2512 11.6424 55.9365 10.8926C56.6303 10.1335 56.9407 9.12649 56.8413 8.03364L54.8495 8.21481ZM52.9834 10.1759L51.3701 10.3226L51.5513 12.3144L53.1646 12.1677L52.9834 10.1759ZM50.4648 11.4091L50.7202 14.2175L52.712 14.0364L52.4566 11.2279L50.4648 11.4091ZM51.6255 13.131L49.8329 13.2941L50.0141 15.2859L51.8067 15.1228L51.6255 13.131ZM50.9194 14.1994L50.1585 5.83393L48.1668 6.0151L48.9276 14.3806L50.9194 14.1994ZM49.2532 6.92041L52.6592 6.61062L52.478 4.61884L49.0721 4.92863L49.2532 6.92041ZM50.0952 7.34588L50.3289 9.91528L52.3207 9.73411L52.087 7.16472L50.0952 7.34588ZM51.4154 10.8206L52.8614 10.6891L52.6803 8.69728L51.2342 8.82881L51.4154 10.8206ZM52.8614 10.6891C53.4712 10.6336 54.0598 10.3978 54.4832 9.92813C54.9148 9.44942 55.0821 8.82963 55.0248 8.19887L53.033 8.38003C53.0473 8.53801 53.004 8.58204 52.9977 8.58898C52.9834 8.60492 52.907 8.67666 52.6803 8.69728L52.8614 10.6891ZM55.0248 8.19887C54.9672 7.56637 54.6933 6.98355 54.1818 6.58728C53.6794 6.19808 53.0564 6.07242 52.4466 6.12789L52.6277 8.11967C52.8544 8.09905 52.9409 8.15587 52.957 8.16836C52.964 8.17377 53.0177 8.21183 53.033 8.38003L55.0248 8.19887ZM52.4466 6.12789L51.0005 6.25941L51.1817 8.25119L52.6277 8.11967L52.4466 6.12789Z" fill="#EF4B23" mask="url(#path-105-outside-1_9_7867)"/>
<mask id="path-107-outside-2_9_7867" maskUnits="userSpaceOnUse" x="55.5643" y="3.04156" width="10.7138" height="11.6447" fill="black">
<rect fill="white" x="55.5643" y="3.04156" width="10.7138" height="11.6447"/>
<path d="M57.5073 5.18414L59.3033 5.06366L59.529 8.4281L62.8575 8.20481L62.6318 4.84037L64.4277 4.71989L64.99 13.1011L63.194 13.2215L62.9619 9.76131L59.6334 9.9846L59.8655 13.4448L58.0695 13.5653L57.5073 5.18414Z"/>
</mask>
<path d="M57.5073 5.18414L59.3033 5.06366L59.529 8.4281L62.8575 8.20481L62.6318 4.84037L64.4277 4.71989L64.99 13.1011L63.194 13.2215L62.9619 9.76131L59.6334 9.9846L59.8655 13.4448L58.0695 13.5653L57.5073 5.18414Z" fill="white"/>
<path d="M57.5073 5.18414L57.4404 4.18638L56.4426 4.25332L56.5095 5.25107L57.5073 5.18414ZM59.3033 5.06366L60.301 4.99673L60.2341 3.99897L59.2363 4.0659L59.3033 5.06366ZM59.529 8.4281L58.5312 8.49503L58.5981 9.49279L59.5959 9.42586L59.529 8.4281ZM62.8575 8.20481L62.9244 9.20257L63.9222 9.13564L63.8552 8.13788L62.8575 8.20481ZM62.6318 4.84037L62.5648 3.84262L61.5671 3.90955L61.634 4.90731L62.6318 4.84037ZM64.4277 4.71989L65.4255 4.65296L65.3586 3.6552L64.3608 3.72214L64.4277 4.71989ZM64.99 13.1011L65.0569 14.0988L66.0547 14.0319L65.9877 13.0341L64.99 13.1011ZM63.194 13.2215L62.1963 13.2885L62.2632 14.2862L63.2609 14.2193L63.194 13.2215ZM62.9619 9.76131L63.9597 9.69438L63.8927 8.69662L62.895 8.76356L62.9619 9.76131ZM59.6334 9.9846L59.5664 8.98684L58.5687 9.05378L58.6356 10.0515L59.6334 9.9846ZM59.8655 13.4448L59.9324 14.4426L60.9302 14.3756L60.8633 13.3779L59.8655 13.4448ZM58.0695 13.5653L57.0718 13.6322L57.1387 14.63L58.1365 14.5631L58.0695 13.5653ZM57.5742 6.1819L59.3702 6.06142L59.2363 4.0659L57.4404 4.18638L57.5742 6.1819ZM58.3055 5.13059L58.5312 8.49503L60.5267 8.36117L60.301 4.99673L58.3055 5.13059ZM59.5959 9.42586L62.9244 9.20257L62.7905 7.20705L59.462 7.43034L59.5959 9.42586ZM63.8552 8.13788L63.6295 4.77344L61.634 4.90731L61.8597 8.27174L63.8552 8.13788ZM62.6987 5.83813L64.4947 5.71765L64.3608 3.72214L62.5648 3.84262L62.6987 5.83813ZM63.43 4.78683L63.9922 13.168L65.9877 13.0341L65.4255 4.65296L63.43 4.78683ZM64.923 12.1033L63.1271 12.2238L63.2609 14.2193L65.0569 14.0988L64.923 12.1033ZM64.1918 13.1546L63.9597 9.69438L61.9641 9.82825L62.1963 13.2885L64.1918 13.1546ZM62.895 8.76356L59.5664 8.98684L59.7003 10.9824L63.0288 10.7591L62.895 8.76356ZM58.6356 10.0515L58.8677 13.5118L60.8633 13.3779L60.6311 9.91767L58.6356 10.0515ZM59.7986 12.4471L58.0026 12.5675L58.1365 14.5631L59.9324 14.4426L59.7986 12.4471ZM59.0673 13.4984L58.5051 5.11721L56.5095 5.25107L57.0718 13.6322L59.0673 13.4984Z" fill="#EF4B23" mask="url(#path-107-outside-2_9_7867)"/>
<mask id="path-109-outside-3_9_7867" maskUnits="userSpaceOnUse" x="64.8615" y="2.85054" width="5.53108" height="11.231" fill="black">
<rect fill="white" x="64.8615" y="2.85054" width="5.53108" height="11.231"/>
<path d="M66.7775 4.60291L68.5753 4.51503L68.9854 12.905L67.1876 12.9929L66.7775 4.60291Z"/>
</mask>
<path d="M66.7775 4.60291L68.5753 4.51503L68.9854 12.905L67.1876 12.9929L66.7775 4.60291Z" fill="white"/>
<path d="M66.7775 4.60291L66.7286 3.60411L65.7298 3.65293L65.7786 4.65174L66.7775 4.60291ZM68.5753 4.51503L69.5741 4.46621L69.5253 3.4674L68.5265 3.51623L68.5753 4.51503ZM68.9854 12.905L69.0342 13.9038L70.033 13.855L69.9842 12.8562L68.9854 12.905ZM67.1876 12.9929L66.1888 13.0417L66.2376 14.0405L67.2364 13.9917L67.1876 12.9929ZM66.8263 5.60172L68.6241 5.51384L68.5265 3.51623L66.7286 3.60411L66.8263 5.60172ZM67.5765 4.56386L67.9866 12.9538L69.9842 12.8562L69.5741 4.46621L67.5765 4.56386ZM68.9366 11.9062L67.1387 11.9941L67.2364 13.9917L69.0342 13.9038L68.9366 11.9062ZM68.1864 12.9441L67.7763 4.55409L65.7786 4.65174L66.1888 13.0417L68.1864 12.9441Z" fill="#EF4B23" mask="url(#path-109-outside-3_9_7867)"/>
<mask id="path-111-outside-4_9_7867" maskUnits="userSpaceOnUse" x="69.2208" y="2.46501" width="13.3019" height="11.3585" fill="black">
<rect fill="white" x="69.2208" y="2.46501" width="13.3019" height="11.3585"/>
<path d="M71.1047 4.37582L73.4678 4.30985L75.967 10.4105L78.05 4.18193L80.3651 4.11729L80.5995 12.514L78.8842 12.5619L78.7271 6.9361L76.701 12.6229L75.2376 12.6637L72.8974 7.09885L73.0544 12.7247L71.3391 12.7725L71.1047 4.37582Z"/>
</mask>
<path d="M71.1047 4.37582L73.4678 4.30985L75.967 10.4105L78.05 4.18193L80.3651 4.11729L80.5995 12.514L78.8842 12.5619L78.7271 6.9361L76.701 12.6229L75.2376 12.6637L72.8974 7.09885L73.0544 12.7247L71.3391 12.7725L71.1047 4.37582Z" fill="white"/>
<path d="M71.1047 4.37582L71.0768 3.37621L70.0772 3.40411L70.1051 4.40372L71.1047 4.37582ZM73.4678 4.30985L74.3931 3.93076L74.131 3.29094L73.4399 3.31024L73.4678 4.30985ZM75.967 10.4105L75.0416 10.7896L76.0618 13.2799L76.9154 10.7276L75.967 10.4105ZM78.05 4.18193L78.0221 3.18231L77.3233 3.20182L77.1016 3.86476L78.05 4.18193ZM80.3651 4.11729L81.3647 4.08939L81.3368 3.08978L80.3372 3.11768L80.3651 4.11729ZM80.5995 12.514L80.6274 13.5136L81.627 13.4857L81.5991 12.4861L80.5995 12.514ZM78.8842 12.5619L77.8845 12.5898L77.9125 13.5894L78.9121 13.5615L78.8842 12.5619ZM78.7271 6.9361L79.7267 6.9082L77.7851 6.60048L78.7271 6.9361ZM76.701 12.6229L76.7289 13.6225L77.4132 13.6034L77.643 12.9585L76.701 12.6229ZM75.2376 12.6637L74.3158 13.0514L74.5812 13.6824L75.2655 13.6633L75.2376 12.6637ZM72.8974 7.09885L73.8192 6.7112L71.8978 7.12676L72.8974 7.09885ZM73.0544 12.7247L73.0823 13.7243L74.0819 13.6964L74.054 12.6968L73.0544 12.7247ZM71.3391 12.7725L70.3395 12.8005L70.3674 13.8001L71.367 13.7722L71.3391 12.7725ZM71.1326 5.37543L73.4957 5.30946L73.4399 3.31024L71.0768 3.37621L71.1326 5.37543ZM72.5424 4.68893L75.0416 10.7896L76.8923 10.0314L74.3931 3.93076L72.5424 4.68893ZM76.9154 10.7276L78.9984 4.49909L77.1016 3.86476L75.0186 10.0933L76.9154 10.7276ZM78.0779 5.18154L80.393 5.11691L80.3372 3.11768L78.0221 3.18231L78.0779 5.18154ZM79.3655 4.1452L79.5999 12.5419L81.5991 12.4861L81.3647 4.08939L79.3655 4.1452ZM80.5716 11.5144L78.8563 11.5623L78.9121 13.5615L80.6274 13.5136L80.5716 11.5144ZM79.8838 12.534L79.7267 6.9082L77.7275 6.96401L77.8845 12.5898L79.8838 12.534ZM77.7851 6.60048L75.759 12.2872L77.643 12.9585L79.6691 7.27172L77.7851 6.60048ZM76.6731 11.6232L75.2097 11.6641L75.2655 13.6633L76.7289 13.6225L76.6731 11.6232ZM76.1594 12.2761L73.8192 6.7112L71.9756 7.4865L74.3158 13.0514L76.1594 12.2761ZM71.8978 7.12676L72.0548 12.7526L74.054 12.6968L73.897 7.07094L71.8978 7.12676ZM73.0265 11.725L71.3112 11.7729L71.367 13.7722L73.0823 13.7243L73.0265 11.725ZM72.3387 12.7446L72.1043 4.34791L70.1051 4.40372L70.3395 12.8005L72.3387 12.7446Z" fill="#EF4B23" mask="url(#path-111-outside-4_9_7867)"/>
<mask id="path-113-outside-5_9_7867" maskUnits="userSpaceOnUse" x="84.7782" y="2.46198" width="10.1222" height="11.111" fill="black">
<rect fill="white" x="84.7782" y="2.46198" width="10.1222" height="11.111"/>
<path d="M86.6292 12.4819L86.723 4.08242L88.3549 4.10064L91.8596 9.4321L91.9187 4.14043L93.6945 4.16025L93.6008 12.5597L91.9569 12.5414L88.4522 7.20992L88.3931 12.5016L86.6292 12.4819Z"/>
</mask>
<path d="M86.6292 12.4819L86.723 4.08242L88.3549 4.10064L91.8596 9.4321L91.9187 4.14043L93.6945 4.16025L93.6008 12.5597L91.9569 12.5414L88.4522 7.20992L88.3931 12.5016L86.6292 12.4819Z" fill="white"/>
<path d="M86.6292 12.4819L85.6293 12.4707L85.6181 13.4707L86.618 13.4818L86.6292 12.4819ZM86.723 4.08242L86.7341 3.08248L85.7342 3.07132L85.723 4.07126L86.723 4.08242ZM88.3549 4.10064L89.1905 3.55133L88.8982 3.10664L88.366 3.1007L88.3549 4.10064ZM91.8596 9.4321L91.024 9.9814L92.823 12.7181L92.8595 9.44326L91.8596 9.4321ZM91.9187 4.14043L91.9298 3.14049L90.9299 3.12932L90.9187 4.12926L91.9187 4.14043ZM93.6945 4.16025L94.6945 4.17142L94.7056 3.17148L93.7057 3.16031L93.6945 4.16025ZM93.6008 12.5597L93.5896 13.5597L94.5895 13.5708L94.6007 12.5709L93.6008 12.5597ZM91.9569 12.5414L91.1212 13.0907L91.4136 13.5354L91.9457 13.5413L91.9569 12.5414ZM88.4522 7.20992L89.2878 6.66061L87.4888 3.92392L87.4522 7.19876L88.4522 7.20992ZM88.3931 12.5016L88.3819 13.5015L89.3819 13.5127L89.393 12.5128L88.3931 12.5016ZM87.6291 12.4931L87.7229 4.09358L85.723 4.07126L85.6293 12.4707L87.6291 12.4931ZM86.7118 5.08236L88.3437 5.10058L88.366 3.1007L86.7341 3.08248L86.7118 5.08236ZM87.5193 4.64994L91.024 9.9814L92.6952 8.88279L89.1905 3.55133L87.5193 4.64994ZM92.8595 9.44326L92.9186 4.15159L90.9187 4.12926L90.8596 9.42093L92.8595 9.44326ZM91.9075 5.14036L93.6834 5.16019L93.7057 3.16031L91.9298 3.14049L91.9075 5.14036ZM92.6946 4.14909L92.6008 12.5486L94.6007 12.5709L94.6945 4.17142L92.6946 4.14909ZM93.6119 11.5598L91.968 11.5414L91.9457 13.5413L93.5896 13.5597L93.6119 11.5598ZM92.7925 11.9921L89.2878 6.66061L87.6165 7.75922L91.1212 13.0907L92.7925 11.9921ZM87.4522 7.19876L87.3932 12.4904L89.393 12.5128L89.4521 7.22108L87.4522 7.19876ZM88.4043 11.5017L86.6404 11.482L86.618 13.4818L88.3819 13.5015L88.4043 11.5017Z" fill="#EF4B23" mask="url(#path-113-outside-5_9_7867)"/>
<mask id="path-115-outside-6_9_7867" maskUnits="userSpaceOnUse" x="93.9135" y="2.54075" width="11.4442" height="12.4058" fill="black">
<rect fill="white" x="93.9135" y="2.54075" width="11.4442" height="12.4058"/>
<path d="M99.4823 12.8128C97.084 12.7224 95.5528 10.9715 95.65 8.39328C95.7472 5.81511 97.3938 4.18398 99.972 4.28117C101.999 4.35756 103.379 5.65847 103.526 7.47732L101.727 7.40951C101.546 6.47803 100.898 5.84115 99.8666 5.80228C98.4636 5.74939 97.5457 6.84359 97.4847 8.46244C97.4237 10.0813 98.2206 11.2401 99.6596 11.2944C100.619 11.3305 101.609 10.8635 101.821 9.69468L101.825 9.58675L99.7389 9.5081L99.7927 8.08111L103.546 8.2226L103.37 12.8873L102.111 12.8398L101.969 11.8258C101.503 12.3966 100.669 12.8575 99.4823 12.8128Z"/>
</mask>
<path d="M99.4823 12.8128C97.084 12.7224 95.5528 10.9715 95.65 8.39328C95.7472 5.81511 97.3938 4.18398 99.972 4.28117C101.999 4.35756 103.379 5.65847 103.526 7.47732L101.727 7.40951C101.546 6.47803 100.898 5.84115 99.8666 5.80228C98.4636 5.74939 97.5457 6.84359 97.4847 8.46244C97.4237 10.0813 98.2206 11.2401 99.6596 11.2944C100.619 11.3305 101.609 10.8635 101.821 9.69468L101.825 9.58675L99.7389 9.5081L99.7927 8.08111L103.546 8.2226L103.37 12.8873L102.111 12.8398L101.969 11.8258C101.503 12.3966 100.669 12.8575 99.4823 12.8128Z" fill="white"/>
<path d="M103.526 7.47732L103.488 8.47661L104.614 8.51903L104.523 7.39644L103.526 7.47732ZM101.727 7.40951L100.746 7.6003L100.897 8.37892L101.69 8.4088L101.727 7.40951ZM101.821 9.69468L102.805 9.87329L102.818 9.80336L102.821 9.73234L101.821 9.69468ZM101.825 9.58675L102.825 9.62442L102.862 8.62513L101.863 8.58746L101.825 9.58675ZM99.7389 9.5081L98.7396 9.47043L98.702 10.4697L99.7012 10.5074L99.7389 9.5081ZM99.7927 8.08111L99.8304 7.08182L98.8311 7.04415L98.7934 8.04344L99.7927 8.08111ZM103.546 8.2226L104.545 8.26027L104.583 7.26098L103.584 7.22331L103.546 8.2226ZM103.37 12.8873L103.333 13.8866L104.332 13.9242L104.369 12.925L103.37 12.8873ZM102.111 12.8398L101.121 12.9784L101.237 13.8076L102.073 13.8391L102.111 12.8398ZM101.969 11.8258L102.96 11.6872L102.642 9.41934L101.194 11.1935L101.969 11.8258ZM99.5199 11.8135C98.5656 11.7775 97.8546 11.4201 97.3851 10.8799C96.9103 10.3337 96.6085 9.51392 96.6493 8.43095L94.6507 8.35561C94.5944 9.85081 95.0096 11.1956 95.8756 12.192C96.7469 13.1944 98.0006 13.7576 99.4446 13.8121L99.5199 11.8135ZM96.6493 8.43095C96.6902 7.3464 97.0501 6.55864 97.574 6.05455C98.0933 5.55485 98.8703 5.24035 99.9343 5.28046L100.01 3.28188C98.4954 3.2248 97.1601 3.67728 96.1873 4.61339C95.219 5.5451 94.707 6.862 94.6507 8.35561L96.6493 8.43095ZM99.9343 5.28046C101.499 5.33945 102.426 6.2874 102.529 7.5582L104.523 7.39644C104.331 5.02953 102.498 3.37567 100.01 3.28188L99.9343 5.28046ZM103.564 6.47803L101.765 6.41022L101.69 8.4088L103.488 8.47661L103.564 6.47803ZM102.709 7.21873C102.584 6.57481 102.284 5.97458 101.782 5.52578C101.276 5.07276 100.626 4.83018 99.9043 4.80299L99.8289 6.80157C100.139 6.81325 100.328 6.90855 100.449 7.01656C100.575 7.12879 100.69 7.31274 100.746 7.6003L102.709 7.21873ZM99.9043 4.80299C98.9101 4.76551 98.0375 5.14421 97.4213 5.84529C96.8223 6.5268 96.5224 7.44408 96.4854 8.42477L98.484 8.50011C98.5081 7.86196 98.6976 7.42271 98.9235 7.16563C99.1323 6.92811 99.4201 6.78616 99.8289 6.80157L99.9043 4.80299ZM96.4854 8.42477C96.4488 9.39585 96.6649 10.3337 97.2076 11.0624C97.769 11.8163 98.6155 12.2557 99.6219 12.2937L99.6972 10.2951C99.2647 10.2788 98.9932 10.1117 98.8117 9.86788C98.6114 9.59892 98.4596 9.14789 98.484 8.50011L96.4854 8.42477ZM99.6219 12.2937C100.266 12.3179 100.968 12.1766 101.569 11.7827C102.191 11.3745 102.65 10.7282 102.805 9.87329L100.837 9.51606C100.78 9.83002 100.638 10.0016 100.472 10.1101C100.285 10.2329 100.013 10.307 99.6972 10.2951L99.6219 12.2937ZM102.821 9.73234L102.825 9.62442L100.826 9.54908L100.822 9.65701L102.821 9.73234ZM101.863 8.58746L99.7766 8.50881L99.7012 10.5074L101.788 10.586L101.863 8.58746ZM100.738 9.54577L100.792 8.11878L98.7934 8.04344L98.7396 9.47043L100.738 9.54577ZM99.755 9.0804L103.508 9.22189L103.584 7.22331L99.8304 7.08182L99.755 9.0804ZM102.547 8.18493L102.371 12.8496L104.369 12.925L104.545 8.26027L102.547 8.18493ZM103.408 11.888L102.149 11.8405L102.073 13.8391L103.333 13.8866L103.408 11.888ZM103.101 12.7012L102.96 11.6872L100.979 11.9643L101.121 12.9784L103.101 12.7012ZM101.194 11.1935C100.939 11.5064 100.414 11.8472 99.5199 11.8135L99.4446 13.8121C100.925 13.8679 102.068 13.2868 102.744 12.458L101.194 11.1935Z" fill="#EF4B23" mask="url(#path-115-outside-6_9_7867)"/>
<mask id="path-117-outside-7_9_7867" maskUnits="userSpaceOnUse" x="103.12" y="-1.1348" width="12.9375" height="15.7389" fill="black">
<rect fill="white" x="103.12" y="-1.1348" width="12.9375" height="15.7389"/>
<path d="M109.368 2.24326L110.268 0.773973L112.196 0.897907L110.602 2.32255L109.368 2.24326ZM109.502 2.58857C109.476 2.99573 109.711 3.27535 110.118 3.30153C110.501 3.32616 110.794 3.08041 110.82 2.67325L112.029 2.751C111.914 3.80174 111.114 4.45979 110.012 4.38897C108.946 4.32046 108.273 3.56773 108.293 2.51083L109.502 2.58857ZM105.348 12.9754L108.952 4.7898L111.108 4.92836L113.611 13.5066L111.683 13.3827L111.154 11.5089L107.968 11.3041L107.204 13.0948L105.348 12.9754ZM108.54 9.88589L110.756 10.0283L109.847 6.77128L108.54 9.88589Z"/>
</mask>
<path d="M109.368 2.24326L110.268 0.773973L112.196 0.897907L110.602 2.32255L109.368 2.24326ZM109.502 2.58857C109.476 2.99573 109.711 3.27535 110.118 3.30153C110.501 3.32616 110.794 3.08041 110.82 2.67325L112.029 2.751C111.914 3.80174 111.114 4.45979 110.012 4.38897C108.946 4.32046 108.273 3.56773 108.293 2.51083L109.502 2.58857ZM105.348 12.9754L108.952 4.7898L111.108 4.92836L113.611 13.5066L111.683 13.3827L111.154 11.5089L107.968 11.3041L107.204 13.0948L105.348 12.9754ZM108.54 9.88589L110.756 10.0283L109.847 6.77128L108.54 9.88589Z" fill="white"/>
<path d="M109.368 2.24326L108.516 1.72088L107.649 3.13483L109.304 3.2412L109.368 2.24326ZM110.268 0.773973L110.333 -0.223968L109.731 -0.262653L109.416 0.25159L110.268 0.773973ZM112.196 0.897907L112.863 1.64365L114.643 0.0531113L112.261 -0.100034L112.196 0.897907ZM110.602 2.32255L110.538 3.32049L110.956 3.34736L111.268 3.06829L110.602 2.32255ZM109.502 2.58857L110.5 2.65272L110.565 1.65478L109.567 1.59063L109.502 2.58857ZM110.82 2.67325L110.884 1.67531L109.886 1.61116L109.822 2.6091L110.82 2.67325ZM112.029 2.751L113.023 2.86039L113.138 1.82019L112.093 1.75306L112.029 2.751ZM108.293 2.51083L108.357 1.51289L107.313 1.44576L107.293 2.49206L108.293 2.51083ZM105.348 12.9754L104.432 12.5724L103.856 13.8816L105.283 13.9734L105.348 12.9754ZM108.952 4.7898L109.016 3.79186L108.319 3.74702L108.037 4.3868L108.952 4.7898ZM111.108 4.92836L112.068 4.64827L111.871 3.97539L111.172 3.93042L111.108 4.92836ZM113.611 13.5066L113.546 14.5045L114.97 14.596L114.571 13.2265L113.611 13.5066ZM111.683 13.3827L110.72 13.6543L110.912 14.3352L111.618 14.3806L111.683 13.3827ZM111.154 11.5089L112.116 11.2372L111.924 10.5563L111.218 10.5109L111.154 11.5089ZM107.968 11.3041L108.032 10.3062L107.326 10.2608L107.048 10.9115L107.968 11.3041ZM107.204 13.0948L107.14 14.0927L107.846 14.1381L108.123 13.4874L107.204 13.0948ZM108.54 9.88589L107.618 9.49907L107.075 10.7938L108.476 10.8838L108.54 9.88589ZM110.756 10.0283L110.692 11.0262L112.098 11.1166L111.719 9.7595L110.756 10.0283ZM109.847 6.77128L110.81 6.50248L110.037 3.73263L108.925 6.38446L109.847 6.77128ZM110.221 2.76564L111.121 1.29636L109.416 0.25159L108.516 1.72088L110.221 2.76564ZM110.204 1.77191L112.132 1.89585L112.261 -0.100034L110.333 -0.223968L110.204 1.77191ZM111.53 0.15216L109.936 1.5768L111.268 3.06829L112.863 1.64365L111.53 0.15216ZM110.666 1.32461L109.432 1.24532L109.304 3.2412L110.538 3.32049L110.666 1.32461ZM108.504 2.52443C108.478 2.93425 108.58 3.37874 108.888 3.7384C109.199 4.1015 109.63 4.27219 110.054 4.29947L110.182 2.30359C110.199 2.30469 110.309 2.32249 110.407 2.43744C110.503 2.54896 110.501 2.65006 110.5 2.65272L108.504 2.52443ZM110.054 4.29947C110.479 4.32679 110.917 4.20431 111.263 3.90032C111.61 3.59512 111.79 3.17241 111.818 2.7374L109.822 2.6091C109.824 2.58125 109.844 2.485 109.942 2.3983C110.04 2.31282 110.14 2.3009 110.182 2.30359L110.054 4.29947ZM110.756 3.67119L111.965 3.74894L112.093 1.75306L110.884 1.67531L110.756 3.67119ZM111.035 2.6416C111.003 2.93292 110.887 3.11049 110.759 3.21542C110.628 3.32216 110.41 3.41251 110.076 3.39103L109.948 5.38691C110.715 5.43625 111.449 5.23299 112.022 4.76572C112.598 4.29664 112.94 3.61982 113.023 2.86039L111.035 2.6416ZM110.076 3.39103C109.77 3.37136 109.589 3.26222 109.485 3.1478C109.38 3.03193 109.287 2.83738 109.293 2.52959L107.293 2.49206C107.279 3.24118 107.513 3.95144 108.005 4.49329C108.499 5.03659 109.188 5.33807 109.948 5.38691L110.076 3.39103ZM108.229 3.50877L109.438 3.58651L109.567 1.59063L108.357 1.51289L108.229 3.50877ZM106.263 13.3784L109.867 5.19281L108.037 4.3868L104.432 12.5724L106.263 13.3784ZM108.888 5.78774L111.044 5.9263L111.172 3.93042L109.016 3.79186L108.888 5.78774ZM110.148 5.20846L112.651 13.7867L114.571 13.2265L112.068 4.64827L110.148 5.20846ZM113.675 12.5086L111.747 12.3847L111.618 14.3806L113.546 14.5045L113.675 12.5086ZM112.645 13.111L112.116 11.2372L110.191 11.7805L110.72 13.6543L112.645 13.111ZM111.218 10.5109L108.032 10.3062L107.904 12.302L111.089 12.5068L111.218 10.5109ZM107.048 10.9115L106.284 12.7021L108.123 13.4874L108.888 11.6967L107.048 10.9115ZM107.268 12.0968L105.412 11.9775L105.283 13.9734L107.14 14.0927L107.268 12.0968ZM108.476 10.8838L110.692 11.0262L110.82 9.03036L108.604 8.88795L108.476 10.8838ZM111.719 9.7595L110.81 6.50248L108.884 7.04008L109.793 10.2971L111.719 9.7595ZM108.925 6.38446L107.618 9.49907L109.463 10.2727L110.769 7.1581L108.925 6.38446Z" fill="#EF4B23" mask="url(#path-117-outside-7_9_7867)"/>
<mask id="path-119-outside-8_9_7867" maskUnits="userSpaceOnUse" x="113.265" y="3.50721" width="10.9413" height="11.8481" fill="black">
<rect fill="white" x="113.265" y="3.50721" width="10.9413" height="11.8481"/>
<path d="M115.186 13.6315L115.936 5.26494L117.561 5.4105L120.639 10.9993L121.111 5.72838L122.88 5.88679L122.131 14.2533L120.493 14.1067L117.415 8.51789L116.943 13.7888L115.186 13.6315Z"/>
</mask>
<path d="M115.186 13.6315L115.936 5.26494L117.561 5.4105L120.639 10.9993L121.111 5.72838L122.88 5.88679L122.131 14.2533L120.493 14.1067L117.415 8.51789L116.943 13.7888L115.186 13.6315Z" fill="white"/>
<path d="M115.186 13.6315L114.19 13.5423L114.101 14.5383L115.097 14.6275L115.186 13.6315ZM115.936 5.26494L116.025 4.26893L115.029 4.17974L114.94 5.17575L115.936 5.26494ZM117.561 5.4105L118.437 4.92811L118.18 4.46195L117.65 4.41449L117.561 5.4105ZM120.639 10.9993L119.763 11.4817L121.343 14.3505L121.635 11.0885L120.639 10.9993ZM121.111 5.72838L121.2 4.73237L120.204 4.64318L120.115 5.63919L121.111 5.72838ZM122.88 5.88679L123.876 5.97598L123.965 4.97997L122.969 4.89077L122.88 5.88679ZM122.131 14.2533L122.041 15.2493L123.037 15.3385L123.127 14.3425L122.131 14.2533ZM120.493 14.1067L119.617 14.5891L119.874 15.0552L120.404 15.1027L120.493 14.1067ZM117.415 8.51789L118.291 8.0355L116.711 5.16671L116.419 8.4287L117.415 8.51789ZM116.943 13.7888L116.854 14.7848L117.85 14.874L117.939 13.878L116.943 13.7888ZM116.182 13.7207L116.932 5.35413L114.94 5.17575L114.19 13.5423L116.182 13.7207ZM115.846 6.26096L117.472 6.40652L117.65 4.41449L116.025 4.26893L115.846 6.26096ZM116.685 5.8929L119.763 11.4817L121.515 10.5169L118.437 4.92811L116.685 5.8929ZM121.635 11.0885L122.107 5.81758L120.115 5.63919L119.643 10.9101L121.635 11.0885ZM121.022 6.7244L122.791 6.8828L122.969 4.89077L121.2 4.73237L121.022 6.7244ZM121.884 5.7976L121.135 14.1641L123.127 14.3425L123.876 5.97598L121.884 5.7976ZM122.22 13.2573L120.582 13.1107L120.404 15.1027L122.041 15.2493L122.22 13.2573ZM121.369 13.6243L118.291 8.0355L116.539 9.00029L119.617 14.5891L121.369 13.6243ZM116.419 8.4287L115.947 13.6996L117.939 13.878L118.411 8.60708L116.419 8.4287ZM117.033 12.7928L115.276 12.6355L115.097 14.6275L116.854 14.7848L117.033 12.7928Z" fill="#EF4B23" mask="url(#path-119-outside-8_9_7867)"/>
</svg>
