<svg width="183" height="67" viewBox="0 0 183 67" fill="none" xmlns="http://www.w3.org/2000/svg">
<path d="M10.1249 41.0197L9.93624 39.6454L6.53201 27.4297C4.65474 27.9057 2.80441 28.759 3.46909 31.1213C3.86431 32.5405 5.35534 33.7172 7.31345 33.1783L7.37633 33.4028C7.66375 34.4358 7.27752 35.316 6.22661 35.6124C3.90922 36.2591 1.69961 34.328 1.10679 32.1902C0.244502 29.0824 2.14872 26.28 5.15774 25.4356L8.93922 24.3847C11.5261 23.6662 12.6488 22.9117 12.1009 20.9536L12.3255 20.8907C13.3584 20.6033 14.2387 20.9895 14.5351 22.0404C15.1818 24.3578 12.9992 25.6692 9.55899 26.6303L8.79551 26.8458L12.1908 39.0166L12.7387 40.2921L10.1338 41.0197H10.1249Z" fill="#C12202"/>
<path d="M15.2626 39.6094L15.1099 38.2262L13.1428 30.2411C13.0171 29.7201 12.9273 29.3608 12.6309 28.9476L14.8045 27.2141L15.4423 29.8009C15.7566 28.3279 16.4752 27.0434 18.0112 26.6662C19.1878 26.3787 20.5531 26.8099 21.7298 28.1842L20.131 30.1872C19.3495 28.9836 18.6579 28.5973 18.0471 28.75C16.8435 29.0464 16.3944 31.9207 16.4393 33.8609L17.3734 37.6693L17.8854 38.9627L15.2536 39.6094H15.2626Z" fill="#C12202"/>
<path d="M30.3793 35.2351C29.6608 36.1064 28.6637 36.6813 27.6577 36.8968C25.2146 37.4268 23.6607 35.8729 23.2475 33.9776C22.8164 31.9656 23.7775 29.5584 26.4721 28.9836C27.3164 28.8039 28.2685 28.8848 29.0769 29.2081C28.6548 27.4836 27.4332 26.9087 26.3374 27.1512C25.538 27.3219 24.8104 27.9596 24.5679 29.0375L22.4661 28.0315C23.2116 26.1542 24.5679 25.1392 26.023 24.8248C28.2595 24.3398 30.6757 25.5614 31.1877 27.9416L32.544 34.2022L33.0201 35.5136L30.55 36.0435L30.3793 35.2441V35.2351ZM29.6518 31.8848C29.0949 31.1932 27.9631 30.8159 27.1368 30.9956C25.9691 31.2471 25.52 32.3519 25.7266 33.3309C25.9691 34.4537 26.8763 34.9926 27.9901 34.7501C28.7895 34.5794 29.5799 33.9237 29.8674 32.9088L29.6428 31.8848H29.6518Z" fill="#C12202"/>
<path d="M32.7866 29.774C32.2297 26.7201 33.4154 23.2979 37.116 22.6242C40.7448 21.9685 43.1251 24.6183 43.673 27.6093C44.2119 30.6004 42.9185 33.9148 39.2897 34.5795C35.7238 35.2262 33.3255 32.6932 32.7956 29.774H32.7866ZM35.2747 29.1003C35.607 30.9417 36.9094 32.6213 38.8675 32.271C40.8167 31.9207 41.4724 29.8998 41.14 28.0584C40.8077 26.2171 39.4603 24.5644 37.5292 24.9147C35.598 25.265 34.9423 27.259 35.2747 29.1003Z" fill="#C12202"/>
<path d="M53.6074 30.2051C53.329 30.4477 53.2481 30.7441 53.2841 31.0225C53.5984 33.4746 62.4369 31.2022 63.2004 37.2022C63.6225 40.5616 60.9368 42.7352 58.0895 43.0945C55.314 43.4448 52.3679 42.1694 51.9188 38.6304C51.7212 37.0585 52.1793 35.1363 53.4996 34.1932C52.2691 33.78 51.317 33.1064 51.1373 31.7141C51.0295 30.8788 51.2631 29.9087 51.7212 29.2441C48.5954 26.6752 49.3319 20.6032 54.7571 19.9206C55.4308 19.8398 56.0685 19.8487 56.6434 19.9386C57.2182 19.8218 57.6763 19.193 57.9548 17.8637L60.1644 19.1571C59.8859 19.9475 59.4907 20.5404 59.0506 20.9895C62.2033 23.5584 61.6015 29.6303 56.0685 30.3309C55.1434 30.4477 54.335 30.3848 53.6074 30.1962V30.2051ZM55.7721 28.0225C59.7332 27.5195 58.9787 21.735 55.0356 22.229C51.1014 22.732 51.8559 28.5165 55.7721 28.0225ZM55.7991 34.6783C54.829 35.5585 54.2811 36.798 54.4428 38.0735C54.7122 40.2023 56.338 40.9658 57.8919 40.7682C59.4458 40.5705 60.8919 39.349 60.6584 37.5256C60.3889 35.3699 58.0895 35.0555 55.7991 34.6783Z" fill="#C12202"/>
<path d="M68.8143 30.3938L68.8771 29.0016L68.8412 28.5614C68.2933 29.7561 67.4041 30.7531 65.9579 30.8878C63.9819 31.0674 62.3651 29.5944 62.0687 26.2979L61.6645 21.8787C61.6196 21.3488 61.5836 20.9715 61.3501 20.5224L63.7573 19.1302L64.404 26.1812C64.5657 27.9686 65.3741 28.8848 66.2633 28.8039C67.6107 28.6782 68.1136 26.5045 68.4819 24.6362L68.1765 21.2859C68.1316 20.747 68.0957 20.3787 67.8622 19.9296L69.47 19.0134C69.937 18.69 70.2694 18.2859 70.2604 17.8637C70.2514 17.4685 70.0628 16.9924 69.1735 16.7858L70.3861 15.4116C71.7155 15.8517 72.0478 16.687 72.0927 17.4325C72.1287 18.3936 71.1945 19.4356 70.3861 19.8398L71.2035 28.795L71.5179 30.1513L68.8232 30.3938H68.8143ZM65.1046 17.8367C64.9699 16.3277 66.3262 16.0852 66.2454 15.2229C66.2094 14.8277 65.8591 14.5583 65.4639 14.5942C65.1136 14.6301 64.7633 14.8457 64.5927 15.3038L63.3801 14.3337C63.8381 13.4714 64.6735 13.0403 65.437 12.9774C66.5957 12.8696 67.8083 13.5073 67.934 14.9265C68.0687 16.4176 66.3442 16.7858 66.3801 17.72L65.1046 17.8367Z" fill="#C12202"/>
<path d="M72.7394 13.4624C73.5747 13.4085 74.1765 13.9295 74.2304 14.7648C74.2933 15.6271 73.7723 16.2289 72.928 16.2828C72.0927 16.3367 71.4909 15.8247 71.428 14.9625C71.3741 14.1271 71.8951 13.5253 72.7304 13.4714L72.7394 13.4624ZM72.5328 30.1064L72.6226 28.7231C72.2544 23.4326 72.4071 25.5794 72.0388 20.2889C72.0029 19.7499 71.9759 19.3817 71.7603 18.9236L74.1945 17.5852L74.949 28.5614L75.2275 29.9267L72.5238 30.1153L72.5328 30.1064Z" fill="#C12202"/>
<path d="M81.1647 17.8727L84.1018 17.7918C83.9491 18.0254 84.012 18.6541 84.2096 19.1661L86.6258 25.7141L88.6917 19.0493C88.8444 18.5284 88.8983 17.8996 88.7276 17.6661L91.3863 17.5942L87.7845 29.3698C86.9671 32.0285 86.4731 35.4777 83.2126 35.5675C81.8114 35.6034 80.6168 34.6064 79.5748 33.1243L81.5599 31.5076C82.1078 32.7561 82.7006 33.2501 83.2665 33.2411C84.4791 33.2052 84.9192 31.3279 85.503 29.4417L81.1737 17.8816L81.1647 17.8727Z" fill="#C12202"/>
<path d="M94.8624 25.8308C95.4193 26.6303 96.2816 27.1961 97.4493 27.2051C98.4732 27.2051 99.2726 26.747 99.8205 25.7051L101.608 27.2141C100.593 28.75 99.093 29.5584 97.2966 29.5405C93.4702 29.5135 91.5749 26.3249 91.5929 23.217C91.6109 20.2529 93.4522 17.3697 97.099 17.3876C99.4613 17.4056 101.716 18.9326 101.698 21.6182C101.698 22.5973 101.15 23.4865 99.1828 24.2141L94.8714 25.8219L94.8624 25.8308ZM97.7726 16.4625L97.1529 14.7109L96.4882 16.4625L93.9911 16.4445L96.56 13.166H97.7547L100.279 16.4804L97.7816 16.4625H97.7726ZM97.593 22.5793C99.2547 22.0044 99.1199 21.6092 99.1199 21.3488C99.1199 20.2978 98.2666 19.705 97.2427 19.705C95.2127 19.696 94.1708 21.4835 94.1618 23.3248C94.1618 23.4685 94.1618 23.6033 94.1798 23.747L97.593 22.5793Z" fill="#C12202"/>
<path d="M108.92 29.6303L109.162 28.265L109.18 27.8249C108.479 28.9387 107.464 29.8099 106.018 29.756C104.033 29.6752 102.632 28.0045 102.767 24.6901L102.946 20.2529C102.964 19.714 102.982 19.3457 102.812 18.8697L105.381 17.8098L105.093 24.8787C105.021 26.6752 105.704 27.6812 106.593 27.7261C107.949 27.78 108.731 25.6871 109.351 23.8907L109.485 20.5314C109.512 19.9924 109.521 19.6242 109.36 19.1481L111.929 18.0882L111.506 28.3818L111.641 29.765L108.938 29.6572L108.92 29.6303Z" fill="#C12202"/>
<path d="M119.051 18.5463C120.381 18.6721 120.462 18.4924 120.542 17.6301L120.605 16.9744C120.668 16.3277 120.731 15.6451 120.587 15.169L123.21 14.2349L122.779 18.8876L126.264 19.211L126.066 21.3038L122.581 20.9805L122.096 26.2171C121.98 27.5195 122.177 28.5973 122.977 28.6692C123.767 28.7411 124.198 27.8428 124.584 27.2949L126.237 28.9476C125.168 30.3309 124.081 30.9776 122.725 30.8519C121.171 30.7081 119.456 29.3968 119.725 26.4955L120.156 21.8248C120.237 20.9625 120.183 20.7739 118.854 20.6481L119.051 18.5553V18.5463Z" fill="#C12202"/>
<path d="M133.315 31.804L133.674 30.4567L134.384 24.8069C134.608 23.0194 134.007 21.9595 133.126 21.8518C131.779 21.6811 130.818 23.7021 130.063 25.4446L129.498 29.9447L129.516 31.3369L126.83 30.9956L127.189 29.6483L128.815 16.6691C128.95 15.6002 129.138 14.684 129.354 13.8397C124.045 10.9115 118.063 6.60906 113.851 6.07911C111.74 5.81863 109.207 6.67193 108.911 9.03424C108.74 10.4265 109.53 11.8187 111.237 12.0343C112.701 12.2139 114.363 11.2977 114.623 9.27676L114.857 9.3037C115.926 9.43843 116.59 10.1301 116.455 11.2259C116.159 13.6151 113.518 14.9086 111.318 14.6301C108.192 14.2349 106.243 11.7558 106.629 8.63004C106.979 5.80066 109.638 3.19584 113.815 3.71681C118.683 4.32759 125.024 8.74681 130.135 11.7199C131.761 8.34261 134.42 7.57015 136.737 7.86656C139.962 8.27076 141.435 10.7858 141.156 12.9864C140.896 15.0702 139.046 16.8846 136.144 16.5253C134.779 16.3547 133.207 15.7529 131.537 14.9625C131.294 15.9685 131.105 17.0733 130.962 18.214L130.548 21.5284C131.339 20.4775 132.426 19.696 133.863 19.8757C135.83 20.1272 137.096 21.9057 136.683 25.1931L135.983 30.7531L136.001 32.1453L133.315 31.804ZM136.342 14.4325C137.824 14.6211 138.713 13.7409 138.839 12.699C139.037 11.145 137.842 10.1211 136.405 9.94143C134.321 9.68095 133.037 10.9115 132.201 12.8516C133.791 13.687 135.201 14.2888 136.333 14.4325H136.342Z" fill="#C12202"/>
<path d="M143.546 33.3489L143.95 32.0196L144.022 31.5794C143.195 32.6034 142.082 33.3489 140.644 33.1154C138.686 32.792 137.492 30.9686 138.022 27.6991L138.731 23.3159C138.821 22.7859 138.875 22.4176 138.767 21.9236L141.444 21.1781L140.303 28.1662C140.016 29.9447 140.573 31.0225 141.444 31.1663C142.782 31.3818 143.815 29.3968 144.641 27.6902L145.18 24.3668C145.27 23.8368 145.324 23.4686 145.216 22.9745L147.004 22.4805C147.534 22.2829 147.965 21.9775 148.055 21.5643C148.144 21.1781 148.082 20.6661 147.273 20.2529L148.791 19.22C149.968 19.9835 150.085 20.8727 149.941 21.6093C149.743 22.5434 148.576 23.3248 147.686 23.5135L146.24 32.3878L146.204 33.7801L143.528 33.3399L143.546 33.3489Z" fill="#C12202"/>
<path d="M148.064 28.3548C148.683 25.3099 151.055 22.5793 154.737 23.3248C155.77 23.5314 156.606 23.9715 157.261 24.5284C157.845 24.3578 158.339 24.0524 158.447 23.6302C158.546 23.244 158.51 22.732 157.719 22.2919L159.273 21.3218C160.423 22.1302 160.504 23.0284 160.324 23.756C160.1 24.6362 158.995 25.3458 158.124 25.5255C159.058 26.9087 159.309 28.7231 158.968 30.3938C158.366 33.3669 155.923 35.9717 152.312 35.2352C148.764 34.5166 147.471 31.265 148.064 28.3638V28.3548ZM150.624 28.6602C150.246 30.4926 150.839 32.5405 152.779 32.9357C154.728 33.3309 156.085 31.7052 156.453 29.8728C156.83 28.0405 156.192 26.0105 154.27 25.6153C152.348 25.2201 150.992 26.8279 150.624 28.6602Z" fill="#C12202"/>
<path d="M158.51 36.2861L159.022 34.9926L160.998 27.0165C161.124 26.4955 161.214 26.1362 161.151 25.6332L163.881 25.1033L163.324 27.3668C164.42 26.244 165.624 25.768 166.818 26.0644C168.75 26.5404 169.783 28.4626 168.992 31.6782L167.645 37.1214L167.492 38.5047L164.86 37.858L165.372 36.5645L166.738 31.0315C167.169 29.289 166.702 28.1572 165.839 27.9506C164.591 27.6452 163.396 29.271 162.453 30.8429L161.285 35.5585L161.133 36.9418L158.501 36.2951L158.51 36.2861Z" fill="#C12202"/>
<path d="M171.696 37.7771C171.345 37.8939 171.157 38.1274 171.076 38.3969C170.375 40.7682 179.393 42.2233 177.696 48.0347C176.744 51.2863 173.402 52.2024 170.645 51.3941C167.959 50.6036 165.776 48.2593 166.782 44.8281C167.232 43.3011 168.417 41.7293 170.007 41.3969C169.046 40.5346 168.435 39.5286 168.83 38.1813C169.064 37.3729 169.666 36.5735 170.348 36.1424C168.507 32.5315 171.615 27.268 176.86 28.804C177.507 28.9926 178.091 29.262 178.585 29.5764C179.16 29.6932 179.834 29.307 180.615 28.2021L182.124 30.277C181.558 30.8878 180.956 31.274 180.372 31.5166C182.232 35.1274 179.259 40.4628 173.896 38.8909C172.998 38.6304 172.289 38.2442 171.687 37.7771H171.696ZM171.911 42.7532C170.672 43.1664 169.666 44.0916 169.306 45.3221C168.705 47.388 169.89 48.7264 171.39 49.1755C172.89 49.6156 174.705 49.0767 175.226 47.3072C175.836 45.2233 173.86 44.0107 171.911 42.7532ZM174.561 36.6454C178.396 37.7681 180.013 32.1633 176.205 31.0405C172.396 29.9177 170.771 35.5316 174.561 36.6454Z" fill="#C12202"/>
<path d="M10.1249 39.4837L9.93624 38.1095L6.53201 25.8937C4.65474 26.3698 2.80441 27.2231 3.46909 29.5854C3.86431 31.0046 5.35534 32.1812 7.31345 31.6423L7.37633 31.8669C7.66375 32.8998 7.27752 33.7801 6.22661 34.0765C3.90922 34.7232 1.69961 32.792 1.10679 30.6543C0.244502 27.5464 2.14872 24.744 5.15774 23.8997L8.93922 22.8488C11.5261 22.1302 12.6488 21.3757 12.1009 19.4176L12.3255 19.3547C13.3584 19.0673 14.2387 19.4535 14.5351 20.5044C15.1818 22.8218 12.9992 24.1332 9.55899 25.0943L8.79551 25.3099L12.1908 37.4807L12.7387 38.7562L10.1338 39.4837H10.1249Z" fill="#C12202"/>
<path d="M15.2626 38.0735L15.1099 36.6902L13.1428 28.7051C13.0171 28.1842 12.9273 27.8249 12.6309 27.4117L14.8045 25.6781L15.4423 28.265C15.7566 26.7919 16.4752 25.5075 18.0112 25.1302C19.1878 24.8428 20.5531 25.2739 21.7298 26.6482L20.131 28.6512C19.3495 27.4476 18.6579 27.0614 18.0471 27.2141C16.8435 27.5105 16.3944 30.3848 16.4393 32.3249L17.3734 36.1334L17.8854 37.4268L15.2536 38.0735H15.2626Z" fill="#C12202"/>
<path d="M30.3793 33.7082C29.6608 34.5795 28.6637 35.1543 27.6577 35.3699C25.2146 35.8998 23.6607 34.3459 23.2475 32.4507C22.8164 30.4387 23.7775 28.0315 26.4721 27.4566C27.3164 27.277 28.2685 27.3578 29.0769 27.6812C28.6548 25.9566 27.4332 25.3817 26.3374 25.6243C25.538 25.7949 24.8104 26.4327 24.5679 27.5105L22.4661 26.5045C23.2116 24.6272 24.5679 23.6123 26.023 23.2979C28.2595 22.8129 30.6757 24.0344 31.1877 26.4147L32.544 32.6753L33.0201 33.9866L30.55 34.5166L30.3793 33.7172V33.7082ZM29.6518 30.3489C29.0949 29.6572 27.9631 29.28 27.1368 29.4596C25.9691 29.7111 25.52 30.8159 25.7266 31.795C25.9691 32.9178 26.8763 33.4567 27.9901 33.2142C28.7895 33.0435 29.5799 32.3878 29.8674 31.3728L29.6428 30.3489H29.6518Z" fill="#C12202"/>
<path d="M32.7866 28.2381C32.2297 25.1841 33.4154 21.7619 37.116 21.0883C40.7448 20.4326 43.1251 23.0823 43.673 26.0734C44.2119 29.0644 42.9185 32.3788 39.2897 33.0435C35.7238 33.6902 33.3255 31.1573 32.7956 28.2381H32.7866ZM35.2747 27.5734C35.607 29.4147 36.9094 31.0944 38.8675 30.7441C40.8167 30.3938 41.4724 28.3728 41.14 26.5314C40.8077 24.6901 39.4603 23.0374 37.5292 23.3877C35.598 23.738 34.9423 25.732 35.2747 27.5734Z" fill="#C12202"/>
<path d="M53.6074 28.6692C53.329 28.9117 53.2481 29.2081 53.2841 29.4866C53.5984 31.9387 62.4369 29.6662 63.2004 35.6663C63.6225 39.0256 60.9368 41.1993 58.0895 41.5586C55.314 41.9089 52.3679 40.6334 51.9188 37.0944C51.7212 35.5226 52.1793 33.6004 53.4996 32.6573C52.2691 32.2441 51.317 31.5704 51.1373 30.1782C51.0295 29.3429 51.2631 28.3728 51.7212 27.7081C48.5954 25.1392 49.3319 19.0673 54.7571 18.3846C55.4308 18.3038 56.0685 18.3128 56.6434 18.4026C57.2182 18.2858 57.6763 17.6571 57.9548 16.3277L60.1644 17.6212C59.8859 18.4116 59.4907 19.0044 59.0506 19.4535C62.2033 22.0224 61.6015 28.0943 56.0685 28.7949C55.1434 28.9117 54.335 28.8488 53.6074 28.6602V28.6692ZM55.7721 26.4865C59.7332 25.9835 58.9787 20.199 55.0356 20.6931C51.1014 21.1961 51.8559 26.9806 55.7721 26.4865ZM55.7991 33.1423C54.829 34.0226 54.2811 35.2621 54.4428 36.5376C54.7122 38.6663 56.338 39.4298 57.8919 39.2322C59.4458 39.0346 60.8919 37.813 60.6584 35.9896C60.3889 33.8339 58.0895 33.5196 55.7991 33.1423Z" fill="#C12202"/>
<path d="M68.8143 28.8578L68.8771 27.4656L68.8412 27.0255C68.2933 28.2201 67.4041 29.2171 65.9579 29.3519C63.9819 29.5315 62.3651 28.0584 62.0687 24.762L61.6645 20.3428C61.6196 19.8128 61.5836 19.4356 61.3501 18.9865L63.7573 17.5942L64.404 24.6452C64.5657 26.4327 65.3741 27.3488 66.2633 27.268C67.6107 27.1422 68.1136 24.9686 68.4819 23.1003L68.1765 19.7499C68.1316 19.211 68.0957 18.8427 67.8622 18.3936L69.47 17.4775C69.937 17.1541 70.2694 16.7499 70.2604 16.3277C70.2514 15.9325 70.0628 15.4565 69.1735 15.2499L70.3861 13.8756C71.7155 14.3157 72.0478 15.1511 72.0927 15.8966C72.1287 16.8577 71.1945 17.8996 70.3861 18.3038L71.2035 27.259L71.5179 28.6153L68.8232 28.8578H68.8143ZM65.1046 16.3008C64.9699 14.7918 66.3262 14.5493 66.2454 13.687C66.2094 13.2918 65.8591 13.0223 65.4639 13.0582C65.1136 13.0942 64.7633 13.3097 64.5927 13.7678L63.3801 12.7978C63.8381 11.9355 64.6735 11.5043 65.437 11.4415C66.5957 11.3337 67.8083 11.9714 67.934 13.3906C68.0687 14.8816 66.3442 15.2499 66.3801 16.184L65.1046 16.3008Z" fill="#C12202"/>
<path d="M72.7394 11.9355C73.5747 11.8816 74.1765 12.4025 74.2304 13.2379C74.2933 14.1002 73.7723 14.702 72.928 14.7559C72.0927 14.8097 71.4909 14.2978 71.428 13.4355C71.3741 12.6001 71.8951 11.9983 72.7304 11.9444L72.7394 11.9355ZM72.5328 28.5704L72.6226 27.1871C72.2544 21.8967 72.4071 24.0434 72.0388 18.7529C72.0029 18.214 71.9759 17.8457 71.7603 17.3876L74.1945 16.0493L74.949 27.0255L75.2275 28.3907L72.5238 28.5794L72.5328 28.5704Z" fill="#C12202"/>
<path d="M81.1647 16.3367L84.1018 16.2559C83.9491 16.4894 84.012 17.1182 84.2096 17.6301L86.6258 24.1781L88.6917 17.5134C88.8444 16.9924 88.8983 16.3637 88.7276 16.1301L91.3863 16.0583L87.7845 27.8339C86.9671 30.4926 86.4731 33.9417 83.2126 34.0315C81.8114 34.0675 80.6168 33.0704 79.5748 31.5884L81.5599 29.9716C82.1078 31.2201 82.7006 31.7141 83.2665 31.7052C84.4791 31.6692 84.9192 29.792 85.503 27.9057L81.1737 16.3457L81.1647 16.3367Z" fill="#C12202"/>
<path d="M94.8624 24.2949C95.4193 25.0943 96.2816 25.6602 97.4493 25.6692C98.4732 25.6692 99.2726 25.2111 99.8205 24.1691L101.608 25.6781C100.593 27.2141 99.093 28.0225 97.2966 28.0045C93.4702 27.9776 91.5749 24.7889 91.5929 21.6811C91.6109 18.717 93.4522 15.8337 97.099 15.8517C99.4613 15.8696 101.716 17.3966 101.698 20.0823C101.698 21.0613 101.15 21.9506 99.1828 22.6781L94.8714 24.2859L94.8624 24.2949ZM97.7726 14.9265L97.1529 13.175L96.4882 14.9265L93.9911 14.9085L96.56 11.6301H97.7547L100.279 14.9445L97.7816 14.9265H97.7726ZM97.593 21.0434C99.2547 20.4685 99.1199 20.0733 99.1199 19.8128C99.1199 18.7619 98.2666 18.1691 97.2427 18.1691C95.2127 18.1601 94.1708 19.9475 94.1618 21.7889C94.1618 21.9326 94.1618 22.0673 94.1798 22.211L97.593 21.0434Z" fill="#C12202"/>
<path d="M108.92 28.0943L109.162 26.7291L109.18 26.2889C108.479 27.4027 107.464 28.274 106.018 28.2201C104.033 28.1392 102.632 26.4686 102.767 23.1542L102.946 18.717C102.964 18.178 102.982 17.8098 102.812 17.3337L105.381 16.2738L105.093 23.3428C105.021 25.1392 105.704 26.1452 106.593 26.1901C107.949 26.244 108.731 24.1512 109.351 22.3547L109.485 18.9954C109.512 18.4565 109.521 18.0882 109.36 17.6122L111.929 16.5523L111.506 26.8458L111.641 28.2291L108.938 28.1213L108.92 28.0943Z" fill="#C12202"/>
<path d="M119.051 17.0104C120.381 17.1361 120.462 16.9565 120.542 16.0942L120.605 15.4385C120.668 14.7918 120.731 14.1091 120.587 13.6331L123.21 12.6989L122.779 17.3517L126.264 17.6751L126.066 19.7679L122.581 19.4445L122.096 24.6811C121.98 25.9835 122.177 27.0614 122.977 27.1333C123.767 27.2051 124.198 26.3069 124.584 25.759L126.237 27.4117C125.168 28.795 124.081 29.4417 122.725 29.3159C121.171 29.1722 119.456 27.8608 119.725 24.9596L120.156 20.2889C120.237 19.4266 120.183 19.2379 118.854 19.1122L119.051 17.0194V17.0104Z" fill="#C12202"/>
<path d="M133.315 30.268L133.674 28.9207L134.384 23.2709C134.608 21.4835 134.007 20.4236 133.126 20.3158C131.779 20.1452 130.818 22.1661 130.063 23.9087L129.498 28.4087L129.516 29.801L126.83 29.4596L127.189 28.1123L128.815 15.1331C128.95 14.0642 129.138 13.1481 129.354 12.3037C124.045 9.37556 118.063 5.07311 113.851 4.54316C111.74 4.28268 109.207 5.13598 108.911 7.49829C108.74 8.89052 109.53 10.2828 111.237 10.4983C112.701 10.678 114.363 9.76179 114.623 7.74081L114.857 7.76775C115.926 7.90248 116.59 8.59411 116.455 9.68993C116.159 12.0792 113.518 13.3726 111.318 13.0942C108.192 12.699 106.243 10.2199 106.629 7.09409C106.979 4.26472 109.638 1.65989 113.815 2.18086C118.683 2.79164 125.024 7.21086 130.135 10.184C131.761 6.80666 134.42 6.0342 136.737 6.33061C139.962 6.73481 141.435 9.24981 141.156 11.4504C140.896 13.5343 139.046 15.3487 136.144 14.9894C134.779 14.8187 133.207 14.2169 131.537 13.4265C131.294 14.4325 131.105 15.5373 130.962 16.678L130.548 19.9925C131.339 18.9415 132.426 18.1601 133.863 18.3397C135.83 18.5912 137.096 20.3697 136.683 23.6572L135.983 29.2171L136.001 30.6094L133.315 30.268ZM136.342 12.8966C137.824 13.0852 138.713 12.2049 138.839 11.163C139.037 9.60909 137.842 8.58513 136.405 8.40549C134.321 8.145 133.037 9.37556 132.201 11.3157C133.791 12.151 135.201 12.7528 136.333 12.8966H136.342Z" fill="#C12202"/>
<path d="M143.546 31.813L143.95 30.4836L144.022 30.0435C143.195 31.0674 142.082 31.813 140.644 31.5794C138.686 31.2561 137.492 29.4327 138.022 26.1632L138.731 21.7799C138.821 21.25 138.875 20.8817 138.767 20.3877L141.444 19.6422L140.303 26.6303C140.016 28.4087 140.573 29.4866 141.444 29.6303C142.782 29.8459 143.815 27.8608 144.641 26.1542L145.18 22.8308C145.27 22.3009 145.324 21.9326 145.216 21.4386L147.004 20.9446C147.534 20.747 147.965 20.4416 148.055 20.0284C148.144 19.6422 148.082 19.1302 147.273 18.717L148.791 17.6841C149.968 18.4475 150.085 19.3368 149.941 20.0733C149.743 21.0074 148.576 21.7889 147.686 21.9775L146.24 30.8519L146.204 32.2441L143.528 31.804L143.546 31.813Z" fill="#C12202"/>
<path d="M148.064 26.8189C148.683 23.7739 151.055 21.0434 154.737 21.7889C155.77 21.9955 156.606 22.4356 157.261 22.9925C157.845 22.8218 158.339 22.5164 158.447 22.0943C158.546 21.708 158.51 21.1961 157.719 20.7559L159.273 19.7859C160.423 20.5943 160.504 21.4925 160.324 22.22C160.1 23.1003 158.995 23.8099 158.124 23.9895C159.058 25.3728 159.309 27.1871 158.968 28.8578C158.366 31.8309 155.923 34.4357 152.312 33.6992C148.764 32.9806 147.471 29.7291 148.064 26.8279V26.8189ZM150.624 27.1243C150.246 28.9566 150.839 31.0046 152.779 31.3998C154.728 31.795 156.085 30.1692 156.453 28.3369C156.83 26.5045 156.192 24.4745 154.27 24.0793C152.348 23.6841 150.992 25.2919 150.624 27.1243Z" fill="#C12202"/>
<path d="M158.51 34.7501L159.022 33.4567L160.998 25.4805C161.124 24.9596 161.214 24.6003 161.151 24.0973L163.881 23.5674L163.324 25.8309C164.42 24.7081 165.624 24.232 166.818 24.5284C168.75 25.0045 169.783 26.9267 168.992 30.1423L167.645 35.5855L167.492 36.9687L164.86 36.322L165.372 35.0286L166.738 29.4956C167.169 27.753 166.702 26.6213 165.839 26.4147C164.591 26.1093 163.396 27.7351 162.453 29.3069L161.285 34.0226L161.133 35.4058L158.501 34.7591L158.51 34.7501Z" fill="#C12202"/>
<path d="M171.696 36.2412C171.345 36.3579 171.157 36.5915 171.076 36.8609C170.375 39.2322 179.393 40.6873 177.696 46.4988C176.744 49.7503 173.402 50.6665 170.645 49.8581C167.959 49.0677 165.776 46.7233 166.782 43.2922C167.232 41.7652 168.417 40.1933 170.007 39.861C169.046 38.9987 168.435 37.9927 168.83 36.6454C169.064 35.837 169.666 35.0376 170.348 34.6064C168.507 30.9956 171.615 25.7321 176.86 27.268C177.507 27.4566 178.091 27.7261 178.585 28.0405C179.16 28.1572 179.834 27.771 180.615 26.6662L182.124 28.7411C181.558 29.3519 180.956 29.7381 180.372 29.9806C182.232 33.5914 179.259 38.9268 173.896 37.355C172.998 37.0945 172.289 36.7082 171.687 36.2412H171.696ZM171.911 41.2263C170.672 41.6394 169.666 42.5646 169.306 43.7952C168.705 45.861 169.89 47.1994 171.39 47.6485C172.89 48.0886 174.705 47.5497 175.226 45.7802C175.836 43.6964 173.86 42.4838 171.911 41.2263ZM174.561 35.1094C178.396 36.2322 180.013 30.6273 176.205 29.5046C172.396 28.3818 170.771 33.9956 174.561 35.1094Z" fill="#C12202"/>
<path d="M10.1249 39.4837L9.93624 38.1095L6.53201 25.8937C4.65474 26.3698 2.80441 27.2231 3.46909 29.5854C3.86431 31.0046 5.35534 32.1812 7.31345 31.6423L7.37633 31.8669C7.66375 32.8998 7.27752 33.7801 6.22661 34.0765C3.90922 34.7232 1.69961 32.792 1.10679 30.6543C0.244502 27.5464 2.14872 24.744 5.15774 23.8997L8.93922 22.8488C11.5261 22.1302 12.6488 21.3757 12.1009 19.4176L12.3255 19.3547C13.3584 19.0673 14.2387 19.4535 14.5351 20.5044C15.1818 22.8218 12.9992 24.1332 9.55899 25.0943L8.79551 25.3099L12.1908 37.4807L12.7387 38.7562L10.1338 39.4837H10.1249Z" fill="#EF4B23"/>
<path d="M15.2626 38.0735L15.1099 36.6902L13.1428 28.7051C13.0171 28.1842 12.9273 27.8249 12.6309 27.4117L14.8045 25.6781L15.4423 28.265C15.7566 26.7919 16.4752 25.5075 18.0112 25.1302C19.1878 24.8428 20.5531 25.2739 21.7298 26.6482L20.131 28.6512C19.3495 27.4476 18.6579 27.0614 18.0471 27.2141C16.8435 27.5105 16.3944 30.3848 16.4393 32.3249L17.3734 36.1334L17.8854 37.4268L15.2536 38.0735H15.2626Z" fill="#EF4B23"/>
<path d="M30.3793 33.7082C29.6608 34.5795 28.6637 35.1543 27.6577 35.3699C25.2146 35.8998 23.6607 34.3459 23.2475 32.4507C22.8164 30.4387 23.7775 28.0315 26.4721 27.4566C27.3164 27.277 28.2685 27.3578 29.0769 27.6812C28.6548 25.9566 27.4332 25.3817 26.3374 25.6243C25.538 25.7949 24.8104 26.4327 24.5679 27.5105L22.4661 26.5045C23.2116 24.6272 24.5679 23.6123 26.023 23.2979C28.2595 22.8129 30.6757 24.0344 31.1877 26.4147L32.544 32.6753L33.0201 33.9866L30.55 34.5166L30.3793 33.7172V33.7082ZM29.6518 30.3489C29.0949 29.6572 27.9631 29.28 27.1368 29.4596C25.9691 29.7111 25.52 30.8159 25.7266 31.795C25.9691 32.9178 26.8763 33.4567 27.9901 33.2142C28.7895 33.0435 29.5799 32.3878 29.8674 31.3728L29.6428 30.3489H29.6518Z" fill="#EF4B23"/>
<path d="M32.7866 28.2381C32.2297 25.1841 33.4154 21.7619 37.116 21.0883C40.7448 20.4326 43.1251 23.0823 43.673 26.0734C44.2119 29.0644 42.9185 32.3788 39.2897 33.0435C35.7238 33.6902 33.3255 31.1573 32.7956 28.2381H32.7866ZM35.2747 27.5734C35.607 29.4147 36.9094 31.0944 38.8675 30.7441C40.8167 30.3938 41.4724 28.3728 41.14 26.5314C40.8077 24.6901 39.4603 23.0374 37.5292 23.3877C35.598 23.738 34.9423 25.732 35.2747 27.5734Z" fill="#EF4B23"/>
<path d="M53.6074 28.6692C53.329 28.9117 53.2481 29.2081 53.2841 29.4866C53.5984 31.9387 62.4369 29.6662 63.2004 35.6663C63.6225 39.0256 60.9368 41.1993 58.0895 41.5586C55.314 41.9089 52.3679 40.6334 51.9188 37.0944C51.7212 35.5226 52.1793 33.6004 53.4996 32.6573C52.2691 32.2441 51.317 31.5704 51.1373 30.1782C51.0295 29.3429 51.2631 28.3728 51.7212 27.7081C48.5954 25.1392 49.3319 19.0673 54.7571 18.3846C55.4308 18.3038 56.0685 18.3128 56.6434 18.4026C57.2182 18.2858 57.6763 17.6571 57.9548 16.3277L60.1644 17.6212C59.8859 18.4116 59.4907 19.0044 59.0506 19.4535C62.2033 22.0224 61.6015 28.0943 56.0685 28.7949C55.1434 28.9117 54.335 28.8488 53.6074 28.6602V28.6692ZM55.7721 26.4865C59.7332 25.9835 58.9787 20.199 55.0356 20.6931C51.1014 21.1961 51.8559 26.9806 55.7721 26.4865ZM55.7991 33.1423C54.829 34.0226 54.2811 35.2621 54.4428 36.5376C54.7122 38.6663 56.338 39.4298 57.8919 39.2322C59.4458 39.0346 60.8919 37.813 60.6584 35.9896C60.3889 33.8339 58.0895 33.5196 55.7991 33.1423Z" fill="#EF4B23"/>
<path d="M68.8143 28.8578L68.8771 27.4656L68.8412 27.0255C68.2933 28.2201 67.4041 29.2171 65.9579 29.3519C63.9819 29.5315 62.3651 28.0584 62.0687 24.762L61.6645 20.3428C61.6196 19.8128 61.5836 19.4356 61.3501 18.9865L63.7573 17.5942L64.404 24.6452C64.5657 26.4327 65.3741 27.3488 66.2633 27.268C67.6107 27.1422 68.1136 24.9686 68.4819 23.1003L68.1765 19.7499C68.1316 19.211 68.0957 18.8427 67.8622 18.3936L69.47 17.4775C69.937 17.1541 70.2694 16.7499 70.2604 16.3277C70.2514 15.9325 70.0628 15.4565 69.1735 15.2499L70.3861 13.8756C71.7155 14.3157 72.0478 15.1511 72.0927 15.8966C72.1287 16.8577 71.1945 17.8996 70.3861 18.3038L71.2035 27.259L71.5179 28.6153L68.8232 28.8578H68.8143ZM65.1046 16.3008C64.9699 14.7918 66.3262 14.5493 66.2454 13.687C66.2094 13.2918 65.8591 13.0223 65.4639 13.0582C65.1136 13.0942 64.7633 13.3097 64.5927 13.7678L63.3801 12.7978C63.8381 11.9355 64.6735 11.5043 65.437 11.4415C66.5957 11.3337 67.8083 11.9714 67.934 13.3906C68.0687 14.8816 66.3442 15.2499 66.3801 16.184L65.1046 16.3008Z" fill="#EF4B23"/>
<path d="M72.7394 11.9355C73.5747 11.8816 74.1765 12.4025 74.2304 13.2379C74.2933 14.1002 73.7723 14.702 72.928 14.7559C72.0927 14.8097 71.4909 14.2978 71.428 13.4355C71.3741 12.6001 71.8951 11.9983 72.7304 11.9444L72.7394 11.9355ZM72.5328 28.5704L72.6226 27.1871C72.2544 21.8967 72.4071 24.0434 72.0388 18.7529C72.0029 18.214 71.9759 17.8457 71.7603 17.3876L74.1945 16.0493L74.949 27.0255L75.2275 28.3907L72.5238 28.5794L72.5328 28.5704Z" fill="#EF4B23"/>
<path d="M81.1647 16.3367L84.1018 16.2559C83.9491 16.4894 84.012 17.1182 84.2096 17.6301L86.6258 24.1781L88.6917 17.5134C88.8444 16.9924 88.8983 16.3637 88.7276 16.1301L91.3863 16.0583L87.7845 27.8339C86.9671 30.4926 86.4731 33.9417 83.2126 34.0315C81.8114 34.0675 80.6168 33.0704 79.5748 31.5884L81.5599 29.9716C82.1078 31.2201 82.7006 31.7141 83.2665 31.7052C84.4791 31.6692 84.9192 29.792 85.503 27.9057L81.1737 16.3457L81.1647 16.3367Z" fill="#EF4B23"/>
<path d="M94.8624 24.2949C95.4193 25.0943 96.2816 25.6602 97.4493 25.6692C98.4732 25.6692 99.2726 25.2111 99.8205 24.1691L101.608 25.6781C100.593 27.2141 99.093 28.0225 97.2966 28.0045C93.4702 27.9776 91.5749 24.7889 91.5929 21.6811C91.6109 18.717 93.4522 15.8337 97.099 15.8517C99.4613 15.8696 101.716 17.3966 101.698 20.0823C101.698 21.0613 101.15 21.9506 99.1828 22.6781L94.8714 24.2859L94.8624 24.2949ZM97.7726 14.9265L97.1529 13.175L96.4882 14.9265L93.9911 14.9085L96.56 11.6301H97.7547L100.279 14.9445L97.7816 14.9265H97.7726ZM97.593 21.0434C99.2547 20.4685 99.1199 20.0733 99.1199 19.8128C99.1199 18.7619 98.2666 18.1691 97.2427 18.1691C95.2127 18.1601 94.1708 19.9475 94.1618 21.7889C94.1618 21.9326 94.1618 22.0673 94.1798 22.211L97.593 21.0434Z" fill="#EF4B23"/>
<path d="M108.92 28.0943L109.162 26.7291L109.18 26.2889C108.479 27.4027 107.464 28.274 106.018 28.2201C104.033 28.1392 102.632 26.4686 102.767 23.1542L102.946 18.717C102.964 18.178 102.982 17.8098 102.812 17.3337L105.381 16.2738L105.093 23.3428C105.021 25.1392 105.704 26.1452 106.593 26.1901C107.949 26.244 108.731 24.1512 109.351 22.3547L109.485 18.9954C109.512 18.4565 109.521 18.0882 109.36 17.6122L111.929 16.5523L111.506 26.8458L111.641 28.2291L108.938 28.1213L108.92 28.0943Z" fill="#EF4B23"/>
<path d="M119.051 17.0104C120.381 17.1361 120.462 16.9565 120.542 16.0942L120.605 15.4385C120.668 14.7918 120.731 14.1091 120.587 13.6331L123.21 12.6989L122.779 17.3517L126.264 17.6751L126.066 19.7679L122.581 19.4445L122.096 24.6811C121.98 25.9835 122.177 27.0614 122.977 27.1333C123.767 27.2051 124.198 26.3069 124.584 25.759L126.237 27.4117C125.168 28.795 124.081 29.4417 122.725 29.3159C121.171 29.1722 119.456 27.8608 119.725 24.9596L120.156 20.2889C120.237 19.4266 120.183 19.2379 118.854 19.1122L119.051 17.0194V17.0104Z" fill="#EF4B23"/>
<path d="M133.315 30.268L133.674 28.9207L134.384 23.2709C134.608 21.4835 134.007 20.4236 133.126 20.3158C131.779 20.1452 130.818 22.1661 130.063 23.9087L129.498 28.4087L129.516 29.801L126.83 29.4596L127.189 28.1123L128.815 15.1331C128.95 14.0642 129.138 13.1481 129.354 12.3037C124.045 9.37556 118.063 5.07311 113.851 4.54316C111.74 4.28268 109.207 5.13598 108.911 7.49829C108.74 8.89052 109.53 10.2828 111.237 10.4983C112.701 10.678 114.363 9.76179 114.623 7.74081L114.857 7.76775C115.926 7.90248 116.59 8.59411 116.455 9.68993C116.159 12.0792 113.518 13.3726 111.318 13.0942C108.192 12.699 106.243 10.2199 106.629 7.09409C106.979 4.26472 109.638 1.65989 113.815 2.18086C118.683 2.79164 125.024 7.21086 130.135 10.184C131.761 6.80666 134.42 6.0342 136.737 6.33061C139.962 6.73481 141.435 9.24981 141.156 11.4504C140.896 13.5343 139.046 15.3487 136.144 14.9894C134.779 14.8187 133.207 14.2169 131.537 13.4265C131.294 14.4325 131.105 15.5373 130.962 16.678L130.548 19.9925C131.339 18.9415 132.426 18.1601 133.863 18.3397C135.83 18.5912 137.096 20.3697 136.683 23.6572L135.983 29.2171L136.001 30.6094L133.315 30.268ZM136.342 12.8966C137.824 13.0852 138.713 12.2049 138.839 11.163C139.037 9.60909 137.842 8.58513 136.405 8.40549C134.321 8.145 133.037 9.37556 132.201 11.3157C133.791 12.151 135.201 12.7528 136.333 12.8966H136.342Z" fill="#EF4B23"/>
<path d="M143.546 31.813L143.95 30.4836L144.022 30.0435C143.195 31.0674 142.082 31.813 140.644 31.5794C138.686 31.2561 137.492 29.4327 138.022 26.1632L138.731 21.7799C138.821 21.25 138.875 20.8817 138.767 20.3877L141.444 19.6422L140.303 26.6303C140.016 28.4087 140.573 29.4866 141.444 29.6303C142.782 29.8459 143.815 27.8608 144.641 26.1542L145.18 22.8308C145.27 22.3009 145.324 21.9326 145.216 21.4386L147.004 20.9446C147.534 20.747 147.965 20.4416 148.055 20.0284C148.144 19.6422 148.082 19.1302 147.273 18.717L148.791 17.6841C149.968 18.4475 150.085 19.3368 149.941 20.0733C149.743 21.0074 148.576 21.7889 147.686 21.9775L146.24 30.8519L146.204 32.2441L143.528 31.804L143.546 31.813Z" fill="#EF4B23"/>
<path d="M148.064 26.8189C148.683 23.7739 151.055 21.0434 154.737 21.7889C155.77 21.9955 156.606 22.4356 157.261 22.9925C157.845 22.8218 158.339 22.5164 158.447 22.0943C158.546 21.708 158.51 21.1961 157.719 20.7559L159.273 19.7859C160.423 20.5943 160.504 21.4925 160.324 22.22C160.1 23.1003 158.995 23.8099 158.124 23.9895C159.058 25.3728 159.309 27.1871 158.968 28.8578C158.366 31.8309 155.923 34.4357 152.312 33.6992C148.764 32.9806 147.471 29.7291 148.064 26.8279V26.8189ZM150.624 27.1243C150.246 28.9566 150.839 31.0046 152.779 31.3998C154.728 31.795 156.085 30.1692 156.453 28.3369C156.83 26.5045 156.192 24.4745 154.27 24.0793C152.348 23.6841 150.992 25.2919 150.624 27.1243Z" fill="#EF4B23"/>
<path d="M158.51 34.7501L159.022 33.4567L160.998 25.4805C161.124 24.9596 161.214 24.6003 161.151 24.0973L163.881 23.5674L163.324 25.8309C164.42 24.7081 165.624 24.232 166.818 24.5284C168.75 25.0045 169.783 26.9267 168.992 30.1423L167.645 35.5855L167.492 36.9687L164.86 36.322L165.372 35.0286L166.738 29.4956C167.169 27.753 166.702 26.6213 165.839 26.4147C164.591 26.1093 163.396 27.7351 162.453 29.3069L161.285 34.0226L161.133 35.4058L158.501 34.7591L158.51 34.7501Z" fill="#EF4B23"/>
<path d="M171.696 36.2412C171.345 36.3579 171.157 36.5915 171.076 36.8609C170.375 39.2322 179.393 40.6873 177.696 46.4988C176.744 49.7503 173.402 50.6665 170.645 49.8581C167.959 49.0677 165.776 46.7233 166.782 43.2922C167.232 41.7652 168.417 40.1933 170.007 39.861C169.046 38.9987 168.435 37.9927 168.83 36.6454C169.064 35.837 169.666 35.0376 170.348 34.6064C168.507 30.9956 171.615 25.7321 176.86 27.268C177.507 27.4566 178.091 27.7261 178.585 28.0405C179.16 28.1572 179.834 27.771 180.615 26.6662L182.124 28.7411C181.558 29.3519 180.956 29.7381 180.372 29.9806C182.232 33.5914 179.259 38.9268 173.896 37.355C172.998 37.0945 172.289 36.7082 171.687 36.2412H171.696ZM171.911 41.2263C170.672 41.6394 169.666 42.5646 169.306 43.7952C168.705 45.861 169.89 47.1994 171.39 47.6485C172.89 48.0886 174.705 47.5497 175.226 45.7802C175.836 43.6964 173.86 42.4838 171.911 41.2263ZM174.561 35.1094C178.396 36.2322 180.013 30.6273 176.205 29.5046C172.396 28.3818 170.771 33.9956 174.561 35.1094Z" fill="#EF4B23"/>
<path d="M10.1249 37.9477L9.93624 36.5735L6.53201 24.3578C4.65474 24.8338 2.80441 25.6871 3.46909 28.0494C3.86431 29.4686 5.35534 30.6453 7.31345 30.1063L7.37633 30.3309C7.66375 31.3638 7.27752 32.2441 6.22661 32.5405C3.90922 33.1872 1.69961 31.256 1.10679 29.1183C0.244502 26.0105 2.14872 23.208 5.15774 22.3637L8.93922 21.3128C11.5261 20.5942 12.6488 19.8397 12.1009 17.8816L12.3255 17.8187C13.3584 17.5313 14.2387 17.9176 14.5351 18.9685C15.1818 21.2859 12.9992 22.5973 9.55899 23.5583L8.79551 23.7739L12.1908 35.9447L12.7387 37.2202L10.1338 37.9477H10.1249Z" fill="#FFF400"/>
<path d="M15.2626 36.5375L15.1099 35.1543L13.1428 27.1692C13.0171 26.6482 12.9273 26.2889 12.6309 25.8757L14.8045 24.1422L15.4423 26.729C15.7566 25.256 16.4752 23.9715 18.0112 23.5943C19.1878 23.3068 20.5531 23.738 21.7298 25.1123L20.131 27.1153C19.3495 25.9117 18.6579 25.5254 18.0471 25.6781C16.8435 25.9745 16.3944 28.8488 16.4393 30.789L17.3734 34.5974L17.8854 35.8908L15.2536 36.5375H15.2626Z" fill="#FFF400"/>
<path d="M30.3793 32.1722C29.6608 33.0435 28.6637 33.6184 27.6577 33.8339C25.2146 34.3639 23.6607 32.81 23.2475 30.9147C22.8164 28.9027 23.7775 26.4955 26.4721 25.9207C27.3164 25.741 28.2685 25.8219 29.0769 26.1452C28.6548 24.4207 27.4332 23.8458 26.3374 24.0883C25.538 24.259 24.8104 24.8967 24.5679 25.9746L22.4661 24.9686C23.2116 23.0913 24.5679 22.0763 26.023 21.7619C28.2595 21.2769 30.6757 22.4985 31.1877 24.8787L32.544 31.1393L33.0201 32.4507L30.55 32.9806L30.3793 32.1812V32.1722ZM29.6518 28.8129C29.0949 28.1213 27.9631 27.744 27.1368 27.9237C25.9691 28.1752 25.52 29.28 25.7266 30.259C25.9691 31.3818 26.8763 31.9207 27.9901 31.6782C28.7895 31.5076 29.5799 30.8519 29.8674 29.8369L29.6428 28.8129H29.6518Z" fill="#FFF400"/>
<path d="M32.7866 26.7021C32.2297 23.6482 33.4154 20.226 37.116 19.5523C40.7448 18.8966 43.1251 21.5464 43.673 24.5374C44.2119 27.5285 42.9185 30.8429 39.2897 31.5076C35.7238 32.1543 33.3255 29.6213 32.7956 26.7021H32.7866ZM35.2747 26.0374C35.607 27.8788 36.9094 29.5584 38.8675 29.2081C40.8167 28.8578 41.4724 26.8368 41.14 24.9955C40.8077 23.1542 39.4603 21.5014 37.5292 21.8517C35.598 22.202 34.9423 24.1961 35.2747 26.0374Z" fill="#FFF400"/>
<path d="M53.6074 27.1332C53.329 27.3758 53.2481 27.6722 53.2841 27.9506C53.5984 30.4027 62.4369 28.1303 63.2004 34.1303C63.6225 37.4897 60.9368 39.6633 58.0895 40.0226C55.314 40.3729 52.3679 39.0975 51.9188 35.5585C51.7212 33.9866 52.1793 32.0644 53.4996 31.1213C52.2691 30.7081 51.317 30.0345 51.1373 28.6422C51.0295 27.8069 51.2631 26.8368 51.7212 26.1722C48.5954 23.6033 49.3319 17.5313 54.7571 16.8487C55.4308 16.7679 56.0685 16.7768 56.6434 16.8667C57.2182 16.7499 57.6763 16.1211 57.9548 14.7918L60.1644 16.0852C59.8859 16.8756 59.4907 17.4685 59.0506 17.9176C62.2033 20.4865 61.6015 26.5584 56.0685 27.259C55.1434 27.3758 54.335 27.3129 53.6074 27.1243V27.1332ZM55.7721 24.9506C59.7332 24.4476 58.9787 18.6631 55.0356 19.1571C51.1014 19.6601 51.8559 25.4446 55.7721 24.9506ZM55.7991 31.6064C54.829 32.4866 54.2811 33.7261 54.4428 35.0016C54.7122 37.1304 56.338 37.8939 57.8919 37.6963C59.4458 37.4986 60.8919 36.2771 60.6584 34.4537C60.3889 32.298 58.0895 31.9836 55.7991 31.6064Z" fill="#FFF400"/>
<path d="M68.8143 27.3219L68.8771 25.9296L68.8412 25.4895C68.2933 26.6841 67.4041 27.6811 65.9579 27.8159C63.9819 27.9955 62.3651 26.5224 62.0687 23.226L61.6645 18.8068C61.6196 18.2768 61.5836 17.8996 61.3501 17.4505L63.7573 16.0582L64.404 23.1092C64.5657 24.8967 65.3741 25.8129 66.2633 25.732C67.6107 25.6063 68.1136 23.4326 68.4819 21.5643L68.1765 18.214C68.1316 17.675 68.0957 17.3068 67.8622 16.8577L69.47 15.9415C69.937 15.6181 70.2694 15.2139 70.2604 14.7918C70.2514 14.3965 70.0628 13.9205 69.1735 13.7139L70.3861 12.3396C71.7155 12.7798 72.0478 13.6151 72.0927 14.3606C72.1287 15.3217 71.1945 16.3636 70.3861 16.7678L71.2035 25.723L71.5179 27.0793L68.8232 27.3219H68.8143ZM65.1046 14.7648C64.9699 13.2558 66.3262 13.0133 66.2454 12.151C66.2094 11.7558 65.8591 11.4863 65.4639 11.5223C65.1136 11.5582 64.7633 11.7738 64.5927 12.2318L63.3801 11.2618C63.8381 10.3995 64.6735 9.96835 65.437 9.90547C66.5957 9.79769 67.8083 10.4354 67.934 11.8546C68.0687 13.3456 66.3442 13.7139 66.3801 14.648L65.1046 14.7648Z" fill="#FFF400"/>
<path d="M72.7394 10.3995C73.5747 10.3456 74.1765 10.8666 74.2304 11.7019C74.2933 12.5642 73.7723 13.166 72.928 13.2199C72.0927 13.2738 71.4909 12.7618 71.428 11.8995C71.3741 11.0642 71.8951 10.4624 72.7304 10.4085L72.7394 10.3995ZM72.5328 27.0344L72.6226 25.6512C72.2544 20.3607 72.4071 22.5074 72.0388 17.217C72.0029 16.678 71.9759 16.3098 71.7603 15.8517L74.1945 14.5133L74.949 25.4895L75.2275 26.8548L72.5238 27.0434L72.5328 27.0344Z" fill="#FFF400"/>
<path d="M81.1647 14.8008L84.1018 14.7199C83.9491 14.9535 84.012 15.5822 84.2096 16.0942L86.6258 22.6422L88.6917 15.9774C88.8444 15.4565 88.8983 14.8277 88.7276 14.5942L91.3863 14.5223L87.7845 26.2979C86.9671 28.9566 86.4731 32.4058 83.2126 32.4956C81.8114 32.5315 80.6168 31.5345 79.5748 30.0524L81.5599 28.4357C82.1078 29.6842 82.7006 30.1782 83.2665 30.1692C84.4791 30.1333 84.9192 28.256 85.503 26.3698L81.1737 14.8097L81.1647 14.8008Z" fill="#FFF400"/>
<path d="M94.8624 22.7679C95.4193 23.5673 96.2816 24.1332 97.4493 24.1422C98.4732 24.1422 99.2726 23.6841 99.8205 22.6422L101.608 24.1512C100.593 25.6871 99.093 26.4955 97.2966 26.4776C93.4702 26.4506 91.5749 23.2619 91.5929 20.1541C91.6109 17.19 93.4522 14.3067 97.099 14.3247C99.4613 14.3427 101.716 15.8696 101.698 18.5553C101.698 19.5344 101.15 20.4236 99.1828 21.1511L94.8714 22.7589L94.8624 22.7679ZM97.7726 13.3906L97.1529 11.639L96.4882 13.3906L93.9911 13.3726L96.56 10.0941H97.7547L100.279 13.4085L97.7816 13.3906H97.7726ZM97.593 19.5164C99.2547 18.9415 99.1199 18.5463 99.1199 18.2858C99.1199 17.2349 98.2666 16.6421 97.2427 16.6421C95.2127 16.6331 94.1708 18.4206 94.1618 20.2619C94.1618 20.4056 94.1618 20.5404 94.1798 20.6841L97.593 19.5164Z" fill="#FFF400"/>
<path d="M108.92 26.5584L109.162 25.1931L109.18 24.753C108.479 25.8668 107.464 26.738 106.018 26.6841C104.033 26.6033 102.632 24.9326 102.767 21.6182L102.946 17.181C102.964 16.6421 102.982 16.2738 102.812 15.7978L105.381 14.7379L105.093 21.8068C105.021 23.6033 105.704 24.6093 106.593 24.6542C107.949 24.7081 108.731 22.6152 109.351 20.8188L109.485 17.4595C109.512 16.9205 109.521 16.5523 109.36 16.0762L111.929 15.0163L111.506 25.3099L111.641 26.6931L108.938 26.5853L108.92 26.5584Z" fill="#FFF400"/>
<path d="M119.051 15.4744C120.381 15.6002 120.462 15.4205 120.542 14.5582L120.605 13.9025C120.668 13.2558 120.731 12.5732 120.587 12.0971L123.21 11.163L122.779 15.8157L126.264 16.1391L126.066 18.2319L122.581 17.9086L122.096 23.1452C121.98 24.4476 122.177 25.5254 122.977 25.5973C123.767 25.6692 124.198 24.7709 124.584 24.223L126.237 25.8758C125.168 27.259 124.081 27.9057 122.725 27.78C121.171 27.6363 119.456 26.3249 119.725 23.4236L120.156 18.7529C120.237 17.8906 120.183 17.702 118.854 17.5762L119.051 15.4834V15.4744Z" fill="#FFF400"/>
<path d="M133.315 28.7411L133.674 27.3937L134.384 21.744C134.608 19.9565 134.007 18.8966 133.126 18.7888C131.779 18.6182 130.818 20.6392 130.063 22.3817L129.498 26.8817L129.516 28.274L126.83 27.9327L127.189 26.5853L128.815 13.6061C128.95 12.5373 129.138 11.6211 129.354 10.7768C124.045 7.84858 118.063 3.54613 113.851 3.01618C111.74 2.7557 109.207 3.60901 108.911 5.97131C108.74 7.36354 109.53 8.75578 111.237 8.97135C112.701 9.15099 114.363 8.23481 114.623 6.21383L114.857 6.24078C115.926 6.37551 116.59 7.06713 116.455 8.16296C116.159 10.5522 113.518 11.8456 111.318 11.5672C108.192 11.172 106.243 8.6929 106.629 5.56711C106.979 2.73774 109.638 0.132916 113.815 0.65388C118.683 1.26467 125.024 5.68388 130.135 8.65697C131.761 5.27969 134.42 4.50722 136.737 4.80363C139.962 5.20783 141.435 7.72283 141.156 9.92346C140.896 12.0073 139.046 13.8217 136.144 13.4624C134.779 13.2918 133.207 12.69 131.537 11.8995C131.294 12.9055 131.105 14.0103 130.962 15.1511L130.548 18.4655C131.339 17.4146 132.426 16.6331 133.863 16.8128C135.83 17.0643 137.096 18.8427 136.683 22.1302L135.983 27.6901L136.001 29.0824L133.315 28.7411ZM136.342 11.3696C137.824 11.5582 138.713 10.678 138.839 9.63603C139.037 8.08212 137.842 7.05815 136.405 6.87851C134.321 6.61803 133.037 7.84858 132.201 9.78872C133.791 10.6241 135.201 11.2259 136.333 11.3696H136.342Z" fill="#FFF400"/>
<path d="M143.546 30.277L143.95 28.9476L144.022 28.5075C143.195 29.5315 142.082 30.277 140.644 30.0435C138.686 29.7201 137.492 27.8967 138.022 24.6272L138.731 20.2439C138.821 19.714 138.875 19.3457 138.767 18.8517L141.444 18.1062L140.303 25.0943C140.016 26.8728 140.573 27.9506 141.444 28.0943C142.782 28.3099 143.815 26.3248 144.641 24.6182L145.18 21.2948C145.27 20.7649 145.324 20.3966 145.216 19.9026L147.004 19.4086C147.534 19.211 147.965 18.9056 148.055 18.4924C148.144 18.1062 148.082 17.5942 147.273 17.181L148.791 16.1481C149.968 16.9116 150.085 17.8008 149.941 18.5373C149.743 19.4715 148.576 20.2529 147.686 20.4415L146.24 29.3159L146.204 30.7081L143.528 30.268L143.546 30.277Z" fill="#FFF400"/>
<path d="M148.064 25.2919C148.683 22.247 151.055 19.5164 154.737 20.2619C155.77 20.4685 156.606 20.9086 157.261 21.4655C157.845 21.2948 158.339 20.9895 158.447 20.5673C158.546 20.1811 158.51 19.6691 157.719 19.229L159.273 18.2589C160.423 19.0673 160.504 19.9655 160.324 20.693C160.1 21.5733 158.995 22.2829 158.124 22.4625C159.058 23.8458 159.309 25.6602 158.968 27.3308C158.366 30.3039 155.923 32.9088 152.312 32.1722C148.764 31.4537 147.471 28.2021 148.064 25.3009V25.2919ZM150.624 25.5973C150.246 27.4297 150.839 29.4776 152.779 29.8728C154.728 30.268 156.085 28.6422 156.453 26.8099C156.83 24.9775 156.192 22.9476 154.27 22.5523C152.348 22.1571 150.992 23.7649 150.624 25.5973Z" fill="#FFF400"/>
<path d="M158.51 33.2141L159.022 31.9207L160.998 23.9446C161.124 23.4236 161.214 23.0643 161.151 22.5613L163.881 22.0314L163.324 24.2949C164.42 23.1721 165.624 22.6961 166.818 22.9925C168.75 23.4685 169.783 25.3907 168.992 28.6063L167.645 34.0495L167.492 35.4327L164.86 34.786L165.372 33.4926L166.738 27.9596C167.169 26.2171 166.702 25.0853 165.839 24.8787C164.591 24.5733 163.396 26.1991 162.453 27.771L161.285 32.4866L161.133 33.8698L158.501 33.2231L158.51 33.2141Z" fill="#FFF400"/>
<path d="M171.696 34.7052C171.345 34.822 171.157 35.0555 171.076 35.325C170.375 37.6962 179.393 39.1514 177.696 44.9628C176.744 48.2143 173.402 49.1305 170.645 48.3221C167.959 47.5317 165.776 45.1874 166.782 41.7562C167.232 40.2292 168.417 38.6573 170.007 38.325C169.046 37.4627 168.435 36.4567 168.83 35.1094C169.064 34.301 169.666 33.5016 170.348 33.0704C168.507 29.4596 171.615 24.1961 176.86 25.732C177.507 25.9206 178.091 26.1901 178.585 26.5045C179.16 26.6213 179.834 26.235 180.615 25.1302L182.124 27.2051C181.558 27.8159 180.956 28.2021 180.372 28.4446C182.232 32.0555 179.259 37.3909 173.896 35.819C172.998 35.5585 172.289 35.1723 171.687 34.7052H171.696ZM171.911 39.6903C170.672 40.1035 169.666 41.0286 169.306 42.2592C168.705 44.3251 169.89 45.6634 171.39 46.1125C172.89 46.5526 174.705 46.0137 175.226 44.2442C175.836 42.1604 173.86 40.9478 171.911 39.6903ZM174.561 33.5734C178.396 34.6962 180.013 29.0913 176.205 27.9686C172.396 26.8458 170.771 32.4597 174.561 33.5734Z" fill="#FFF400"/>
<path d="M10.9424 55.1395C11.4993 54.9779 11.6969 54.4749 11.7329 53.9539C11.5173 54.1425 11.2928 54.2773 11.0233 54.3581C10.3945 54.5467 9.70291 54.2593 9.46938 53.4779C9.22686 52.6695 9.72986 52.0587 10.3586 51.879C10.9604 51.6994 11.7329 52.0048 12.0473 53.0557C12.3077 53.9539 12.2089 55.3192 11.0682 55.5887L10.9335 55.1395H10.9424ZM13.8527 54.2773C14.4096 54.1156 14.6072 53.6126 14.6431 53.0916C14.4275 53.2802 14.203 53.415 13.9335 53.4958C13.3048 53.6844 12.6131 53.397 12.3796 52.6156C12.1371 51.8072 12.6401 51.1964 13.2688 51.0167C13.8706 50.8371 14.6431 51.1425 14.9575 52.1934C15.2179 53.0916 15.1191 54.4569 13.9784 54.7264L13.8437 54.2773H13.8527Z" fill="#C12202"/>
<path d="M26.751 49.8221L25.1792 51.8521C24.4696 51.0707 23.5085 50.6485 22.3857 50.9449C19.4486 51.7174 19.3138 55.5348 19.9336 57.8881C20.5534 60.2594 22.6282 63.457 25.5384 62.6936C26.5804 62.4241 27.4337 61.6426 27.6762 60.5378L26.9397 57.7174L23.4815 58.6246L22.8887 56.3701L28.6014 54.8701L30.1912 60.9241C29.1672 62.9091 28.4307 64.3283 26.0145 64.966C21.7031 66.0978 18.5414 62.7025 17.4904 58.7055C16.4036 54.5737 17.5264 49.8132 21.7929 48.6904C23.8049 48.1604 25.5205 48.7263 26.751 49.8311V49.8221Z" fill="#C12202"/>
<path d="M29.0415 46.8939C29.8589 46.7053 30.5325 47.1185 30.7211 47.9359C30.9187 48.7802 30.4966 49.4539 29.6792 49.6425C28.8618 49.8311 28.1882 49.4179 27.9906 48.5736C27.8019 47.7562 28.2151 47.0826 29.0325 46.8939H29.0415ZM31.4846 63.3492L31.3499 61.966C30.1463 56.8013 30.6313 58.8941 29.4277 53.7383C29.302 53.2174 29.2211 52.8491 28.9337 52.4359L31.1253 50.7293L33.6224 61.436L34.1164 62.7385L31.4756 63.3492H31.4846Z" fill="#C12202"/>
<path d="M41.4907 61.1486L41.3919 59.7654L41.3021 59.3342C40.8979 60.5827 40.1164 61.6786 38.7062 61.975C36.7661 62.3792 34.9966 61.1037 34.3229 57.8522L33.4247 53.5048C33.3169 52.9838 33.2361 52.6156 32.9576 52.1934L35.1942 50.5407L36.6313 57.4659C36.9996 59.2264 37.9068 60.0348 38.7691 59.8552C40.0984 59.5767 40.3499 57.3581 40.5026 55.4629L39.82 52.1665C39.7122 51.6455 39.6314 51.2772 39.3619 50.8551L41.5895 49.2024L43.6823 59.2803L44.1494 60.5917L41.4997 61.1396L41.4907 61.1486ZM39.2451 45.1424L37.5116 48.861L36.3439 49.1036L36.6313 45.6814L39.2362 45.1424H39.2451Z" fill="#C12202"/>
<path d="M46.1432 64.7594L43.7091 50.1994L43.2959 48.87L45.7839 48.4568L45.9097 49.2203C46.5834 48.4209 47.5175 47.9359 48.5055 47.7652C51.8918 47.1993 54.0475 49.9209 54.5595 52.9389C55.0625 55.93 53.8948 59.1815 50.6253 59.7294C49.6553 59.8911 48.6133 59.7294 47.5804 59.2174L48.4427 64.3822L48.8558 65.7115L46.1881 66.1606L46.1432 64.7684V64.7594ZM47.1941 56.8821C47.8319 57.5557 48.6582 57.9869 49.6463 57.8252C51.2092 57.5647 52.4218 55.7234 52.0176 53.2892C51.7032 51.4209 50.4547 49.7413 48.5145 50.0646C47.6433 50.2084 46.8259 50.8461 46.3768 51.9868L47.1941 56.8911V56.8821Z" fill="#C12202"/>
<path d="M61.8622 57.8252L61.9071 56.433L61.0449 48.2592C60.991 47.7293 60.9461 47.352 60.7125 46.9119L63.0928 45.4838L63.3353 47.8012C63.982 46.373 64.9521 45.5197 66.1826 45.385C68.1587 45.1784 69.7845 46.6245 70.1348 49.9209L70.7276 55.4899L71.06 56.8372L68.3653 57.1246L68.4102 55.7324L67.8084 50.0647C67.6198 48.2772 66.7934 47.379 65.9132 47.4688C64.6377 47.6035 64.0629 49.5437 63.7126 51.3401L64.2245 56.1725L64.5569 57.5198L61.8622 57.8073V57.8252Z" fill="#C12202"/>
<path d="M72.1289 56.7564L72.2277 55.3731C71.8774 50.0826 71.6798 47.1005 71.3295 41.8101C71.2935 41.2711 71.2666 40.9029 71.051 40.4448L73.4852 39.1154L73.9972 46.7592C74.572 45.5736 75.4882 44.6035 76.9343 44.5047C78.9194 44.37 80.4913 45.888 80.7068 49.1934L81.0751 54.7893L81.3535 56.1545L78.6499 56.3342L78.7487 54.9509L78.3715 49.2652C78.2547 47.4688 77.4643 46.5437 76.575 46.5975C75.2277 46.6874 74.6619 48.8521 74.2487 50.7114L74.5451 55.2294L74.8235 56.5947L72.1199 56.7743L72.1289 56.7564Z" fill="#C12202"/>
<path d="M88.7725 55.0947C87.9012 55.8222 86.8144 56.1995 85.7904 56.2264C83.2934 56.2983 82.0538 54.4839 81.9999 52.5527C81.946 50.4958 83.3293 48.3131 86.0868 48.2323C86.9491 48.2053 87.8653 48.4658 88.6018 48.9329C88.503 47.1634 87.4072 46.373 86.2844 46.4089C85.467 46.4359 84.6407 46.9209 84.2006 47.9359L82.3143 46.5616C83.3832 44.846 84.9101 44.1095 86.4012 44.0646C88.6916 44.0017 90.8384 45.6454 90.9012 48.0706L91.0809 54.4659L91.3054 55.8402L88.7815 55.912L88.7545 55.0947H88.7725ZM88.6826 51.6635C88.2605 50.882 87.2186 50.3072 86.3742 50.3251C85.1796 50.3611 84.5329 51.3581 84.5598 52.3641C84.5958 53.5048 85.3862 54.2054 86.5269 54.1785C87.3443 54.1515 88.2425 53.6665 88.7006 52.7144L88.6737 51.6635H88.6826Z" fill="#C12202"/>
<path d="M98.9313 55.903L99.1289 54.5288V54.0886C98.4642 55.2294 97.4762 56.1276 96.03 56.1096C94.045 56.0917 92.5899 54.4569 92.6258 51.1425L92.6797 46.7053C92.6797 46.1664 92.6887 45.7981 92.509 45.3221L95.042 44.1813L94.9612 51.2593C94.9432 53.0557 95.6528 54.0437 96.542 54.0527C97.8983 54.0707 98.6169 51.9509 99.1738 50.1365L99.2097 46.7772C99.2097 46.2382 99.2187 45.87 99.0391 45.3939L101.572 44.2532L101.455 54.5557L101.626 55.939L98.9133 55.912L98.9313 55.903Z" fill="#C12202"/>
<path d="M113.339 52.894L116.061 46.4448C116.258 45.9418 116.375 45.3221 116.231 45.0796L119.07 45.2861L114.3 56.6396L111.83 56.4599L108.776 44.5316L111.614 44.7382C111.435 44.9628 111.462 45.5915 111.578 46.1215L113.33 52.894H113.339Z" fill="#C12202"/>
<path d="M121.665 53.8551C122.132 54.7084 122.932 55.3641 124.091 55.4989C125.115 55.6156 125.95 55.2384 126.606 54.2593L128.222 55.948C127.055 57.3671 125.474 58.0049 123.686 57.8073C119.878 57.3761 118.342 53.9988 118.692 50.918C119.025 47.9718 121.162 45.3041 124.782 45.7173C127.127 45.9868 129.201 47.7473 128.896 50.415C128.788 51.385 128.15 52.2114 126.121 52.7324L121.665 53.8731V53.8551ZM124.728 50.909C126.444 50.5138 126.345 50.1096 126.372 49.8491C126.489 48.8072 125.698 48.1245 124.674 48.0078C122.653 47.7742 121.432 49.4449 121.225 51.2773C121.207 51.421 121.189 51.5557 121.198 51.6994L124.719 50.9L124.728 50.909ZM125.555 44.846L125.123 43.0316L124.279 44.6933L121.8 44.4149L124.701 41.4328L125.887 41.5676L128.043 45.1245L125.564 44.8371L125.555 44.846ZM128.618 39.843L129.219 43.2293L128.034 43.0945L125.968 39.5466L128.618 39.843Z" fill="#C12202"/>
<path d="M134.321 58.9929L134.752 57.6725L136.216 49.5796C136.315 49.0497 136.378 48.6814 136.279 48.1874L138.974 47.4868L138.561 49.7862C139.585 48.5916 140.752 48.0437 141.965 48.2682C143.923 48.6185 145.082 50.4689 144.489 53.7384L143.492 59.2534L143.429 60.6456L140.761 60.1606L141.193 58.8402L142.207 53.2354C142.531 51.4659 141.992 50.3701 141.121 50.2084C139.854 49.9838 138.767 51.6814 137.923 53.3072L137.061 58.0857L136.998 59.478L134.33 58.9929H134.321Z" fill="#C12202"/>
<path d="M144.426 60.8522L144.911 59.5498C146.088 54.3761 146.753 51.4659 147.929 46.2922C148.046 45.7712 148.127 45.4029 148.055 44.9089L150.777 44.3251L149.079 51.7982C149.968 50.8281 151.127 50.1545 152.546 50.4778C154.486 50.918 155.564 52.8132 154.827 56.0468L153.588 61.5169L153.462 62.9002L150.821 62.2983L151.306 60.9959L152.573 55.436C152.968 53.6845 152.483 52.5617 151.621 52.3641C150.3 52.0677 149.142 53.9809 148.217 55.6426L147.211 60.0618L147.085 61.445L144.444 60.8432L144.426 60.8522Z" fill="#C12202"/>
<path d="M160.792 64.0588C159.75 64.499 158.6 64.5439 157.612 64.2654C155.205 63.6008 154.549 61.5079 155.061 59.6396C155.609 57.6546 157.576 55.9749 160.235 56.7114C161.07 56.945 161.869 57.457 162.435 58.1216C162.866 56.3971 162.049 55.3282 160.962 55.0228C160.172 54.8072 159.238 55.0228 158.519 55.8761L157.118 54.0078C158.645 52.6874 160.316 52.418 161.762 52.8222C163.971 53.433 165.543 55.6336 164.887 57.9779L163.181 64.1487L162.992 65.5229L160.558 64.8493L160.774 64.0588H160.792ZM161.699 60.7534C161.528 59.8821 160.702 59.0199 159.893 58.7953C158.744 58.4809 157.836 59.2444 157.567 60.2145C157.262 61.3193 157.81 62.2175 158.914 62.5229C159.705 62.7385 160.702 62.5319 161.429 61.7594L161.708 60.7444L161.699 60.7534ZM163.208 48.8341L163.28 52.2653L162.13 51.9509L160.648 48.1245L163.217 48.8341H163.208Z" fill="#C12202"/>
<path d="M167.277 57.448C167.834 57.6276 168.274 57.3222 168.597 56.909C168.319 56.945 168.049 56.927 167.78 56.8462C167.16 56.6486 166.738 56.0288 166.989 55.2473C167.241 54.4479 168.004 54.2234 168.624 54.421C169.226 54.6096 169.693 55.3012 169.361 56.3432C169.073 57.2324 168.22 58.3103 167.133 57.8881L167.277 57.439V57.448ZM170.169 58.3731C170.726 58.5528 171.166 58.2474 171.489 57.8342C171.211 57.8701 170.941 57.8522 170.672 57.7713C170.052 57.5737 169.63 56.954 169.882 56.1725C170.133 55.3731 170.897 55.1485 171.516 55.3462C172.118 55.5348 172.585 56.2264 172.253 57.2683C171.965 58.1576 171.112 59.2354 170.016 58.8133L170.16 58.3642L170.169 58.3731Z" fill="#C12202"/>
<path d="M10.9424 53.6036C11.4993 53.4419 11.6969 52.939 11.7329 52.418C11.5173 52.6066 11.2928 52.7413 11.0233 52.8222C10.3945 53.0108 9.70291 52.7234 9.46938 51.9419C9.22686 51.1335 9.72986 50.5228 10.3586 50.3431C10.9604 50.1635 11.7329 50.4689 12.0473 51.5198C12.3077 52.418 12.2089 53.7833 11.0682 54.0527L10.9335 53.6036H10.9424ZM13.8527 52.7413C14.4096 52.5797 14.6072 52.0767 14.6431 51.5557C14.4275 51.7443 14.203 51.8791 13.9335 51.9599C13.3048 52.1485 12.6131 51.8611 12.3796 51.0796C12.1371 50.2713 12.6401 49.6605 13.2688 49.4808C13.8706 49.3012 14.6431 49.6066 14.9575 50.6575C15.2179 51.5557 15.1191 52.921 13.9784 53.1905L13.8437 52.7413H13.8527Z" fill="#C12202"/>
<path d="M26.751 48.2862L25.1792 50.3162C24.4696 49.5347 23.5085 49.1125 22.3857 49.409C19.4486 50.1814 19.3138 53.9988 19.9336 56.3522C20.5534 58.7234 22.6282 61.9211 25.5384 61.1576C26.5804 60.8881 27.4337 60.1067 27.6762 59.0019L26.9397 56.1815L23.4815 57.0887L22.8887 54.8342L28.6014 53.3342L30.1912 59.3881C29.1672 61.3732 28.4307 62.7924 26.0145 63.4301C21.7031 64.5618 18.5414 61.1666 17.4904 57.1695C16.4036 53.0377 17.5264 48.2772 21.7929 47.1544C23.8049 46.6245 25.5205 47.1904 26.751 48.2952V48.2862Z" fill="#C12202"/>
<path d="M29.0415 45.358C29.8589 45.1694 30.5325 45.5826 30.7211 46.3999C30.9187 47.2442 30.4966 47.9179 29.6792 48.1065C28.8618 48.2952 28.1882 47.882 27.9906 47.0377C27.8019 46.2203 28.2151 45.5466 29.0325 45.358H29.0415ZM31.4846 61.8133L31.3499 60.43C30.1463 55.2653 30.6313 57.3581 29.4277 52.2024C29.302 51.6814 29.2211 51.3132 28.9337 50.9L31.1253 49.1934L33.6224 59.9001L34.1164 61.2025L31.4756 61.8133H31.4846Z" fill="#C12202"/>
<path d="M41.4907 59.6127L41.3919 58.2294L41.3021 57.7983C40.8979 59.0468 40.1164 60.1426 38.7062 60.439C36.7661 60.8432 34.9966 59.5677 34.3229 56.3162L33.4247 51.9689C33.3169 51.4479 33.2361 51.0796 32.9576 50.6575L35.1942 49.0047L36.6313 55.93C36.9996 57.6905 37.9068 58.4989 38.7691 58.3192C40.0984 58.0408 40.3499 55.8222 40.5026 53.927L39.82 50.6305C39.7122 50.1095 39.6314 49.7413 39.3619 49.3191L41.5895 47.6664L43.6823 57.7444L44.1494 59.0558L41.4997 59.6037L41.4907 59.6127ZM39.2451 43.6065L37.5116 47.3251L36.3439 47.5676L36.6313 44.1454L39.2362 43.6065H39.2451Z" fill="#C12202"/>
<path d="M46.1432 63.2235L43.7091 48.6634L43.2959 47.3341L45.7839 46.9209L45.9097 47.6844C46.5834 46.885 47.5175 46.3999 48.5055 46.2293C51.8918 45.6634 54.0475 48.385 54.5595 51.403C55.0625 54.3941 53.8948 57.6456 50.6253 58.1935C49.6553 58.3552 48.6133 58.1935 47.5804 57.6815L48.4427 62.8463L48.8558 64.1756L46.1881 64.6247L46.1432 63.2325V63.2235ZM47.1941 55.3551C47.8319 56.0288 48.6582 56.46 49.6463 56.2983C51.2092 56.0378 52.4218 54.1965 52.0176 51.7623C51.7032 49.894 50.4547 48.2143 48.5145 48.5377C47.6433 48.6814 46.8259 49.3191 46.3768 50.4599L47.1941 55.3641V55.3551Z" fill="#C12202"/>
<path d="M61.8622 56.2893L61.9071 54.897L61.0449 46.7233C60.991 46.1933 60.9461 45.8161 60.7125 45.376L63.0928 43.9478L63.3353 46.2652C63.982 44.837 64.9521 43.9837 66.1826 43.849C68.1587 43.6424 69.7845 45.0885 70.1348 48.385L70.7276 53.9539L71.06 55.3012L68.3653 55.5887L68.4102 54.1964L67.8084 48.5287C67.6198 46.7413 66.7934 45.843 65.9132 45.9329C64.6377 46.0676 64.0629 48.0077 63.7126 49.8042L64.2245 54.6366L64.5569 55.9839L61.8622 56.2713V56.2893Z" fill="#C12202"/>
<path d="M72.1289 55.2204L72.2277 53.8372C71.8774 48.5467 71.6798 45.5646 71.3295 40.2741C71.2935 39.7352 71.2666 39.3669 71.051 38.9088L73.4852 37.5795L73.9972 45.2233C74.572 44.0376 75.4882 43.0676 76.9343 42.9688C78.9194 42.834 80.4913 44.352 80.7068 47.6574L81.0751 53.2533L81.3535 54.6186L78.6499 54.7982L78.7487 53.415L78.3715 47.7293C78.2547 45.9329 77.4643 45.0077 76.575 45.0616C75.2277 45.1514 74.6619 47.3161 74.2487 49.1754L74.5451 53.6934L74.8235 55.0587L72.1199 55.2384L72.1289 55.2204Z" fill="#C12202"/>
<path d="M88.7725 53.5587C87.9012 54.2863 86.8144 54.6635 85.7904 54.6905C83.2934 54.7623 82.0538 52.9479 81.9999 51.0168C81.946 48.9598 83.3293 46.7772 86.0868 46.6963C86.9491 46.6694 87.8653 46.9299 88.6018 47.397C88.503 45.6275 87.4072 44.837 86.2844 44.873C85.467 44.8999 84.6407 45.385 84.2006 46.3999L82.3143 45.0257C83.3832 43.3101 84.9101 42.5735 86.4012 42.5286C88.6916 42.4658 90.8384 44.1095 90.9012 46.5347L91.0809 52.93L91.3054 54.3042L88.7815 54.3761L88.7545 53.5587H88.7725ZM88.6826 50.1275C88.2605 49.3461 87.2186 48.7712 86.3742 48.7892C85.1796 48.8251 84.5329 49.8221 84.5598 50.8281C84.5958 51.9689 85.3862 52.6695 86.5269 52.6425C87.3443 52.6156 88.2425 52.1305 88.7006 51.1784L88.6737 50.1275H88.6826Z" fill="#C12202"/>
<path d="M98.9313 54.3671L99.1289 52.9928V52.5527C98.4642 53.6934 97.4762 54.5916 96.03 54.5737C94.045 54.5557 92.5899 52.921 92.6258 49.6065L92.6797 45.1694C92.6797 44.6304 92.6887 44.2622 92.509 43.7861L95.042 42.6454L94.9612 49.7233C94.9432 51.5197 95.6528 52.5078 96.542 52.5168C97.8983 52.5347 98.6169 50.4149 99.1738 48.6005L99.2097 45.2412C99.2097 44.7023 99.2187 44.334 99.0391 43.858L101.572 42.7172L101.455 53.0198L101.626 54.403L98.9133 54.3761L98.9313 54.3671Z" fill="#C12202"/>
<path d="M113.339 51.3671L116.061 44.9179C116.258 44.4149 116.375 43.7951 116.231 43.5526L119.07 43.7592L114.3 55.1126L111.83 54.933L108.776 43.0047L111.614 43.2113C111.435 43.4358 111.462 44.0646 111.578 44.5945L113.33 51.3671H113.339Z" fill="#C12202"/>
<path d="M121.665 52.3192C122.132 53.1725 122.932 53.8282 124.091 53.9629C125.115 54.0797 125.95 53.7024 126.606 52.7234L128.222 54.412C127.055 55.8312 125.474 56.4689 123.686 56.2713C119.878 55.8402 118.342 52.4629 118.692 49.382C119.025 46.4359 121.162 43.7682 124.782 44.1814C127.127 44.4508 129.201 46.2113 128.896 48.879C128.788 49.8491 128.15 50.6754 126.121 51.1964L121.665 52.3371V52.3192ZM124.728 49.382C126.444 48.9868 126.345 48.5826 126.372 48.3221C126.489 47.2802 125.698 46.5976 124.674 46.4808C122.653 46.2472 121.432 47.9179 121.225 49.7503C121.207 49.894 121.189 50.0287 121.198 50.1724L124.719 49.373L124.728 49.382ZM125.555 43.3191L125.123 41.5047L124.279 43.1664L121.8 42.8879L124.701 39.9059L125.887 40.0406L128.043 43.5975L125.564 43.3101L125.555 43.3191ZM128.618 38.307L129.219 41.6933L128.034 41.5586L125.968 38.0106L128.618 38.307Z" fill="#C12202"/>
<path d="M134.321 57.457L134.752 56.1366L136.216 48.0437C136.315 47.5137 136.378 47.1455 136.279 46.6514L138.974 45.9508L138.561 48.2503C139.585 47.0556 140.752 46.5077 141.965 46.7323C143.923 47.0826 145.082 48.9329 144.489 52.2024L143.492 57.7175L143.429 59.1097L140.761 58.6246L141.193 57.3043L142.207 51.6994C142.531 49.9299 141.992 48.8341 141.121 48.6724C139.854 48.4479 138.767 50.1455 137.923 51.7713L137.061 56.5498L136.998 57.942L134.33 57.457H134.321Z" fill="#C12202"/>
<path d="M144.426 59.3163L144.911 58.0139C146.088 52.8401 146.753 49.9299 147.929 44.7562C148.046 44.2353 148.127 43.867 148.055 43.373L150.777 42.7891L149.079 50.2623C149.968 49.2922 151.127 48.6185 152.546 48.9419C154.486 49.382 155.564 51.2773 154.827 54.5108L153.588 59.981L153.462 61.3642L150.821 60.7624L151.306 59.46L152.573 53.9C152.968 52.1485 152.483 51.0258 151.621 50.8281C150.3 50.5317 149.142 52.4449 148.217 54.1066L147.211 58.5258L147.085 59.9091L144.444 59.3073L144.426 59.3163Z" fill="#C12202"/>
<path d="M160.792 62.5229C159.75 62.963 158.6 63.0079 157.612 62.7295C155.205 62.0648 154.549 59.972 155.061 58.1037C155.609 56.1186 157.576 54.439 160.235 55.1755C161.07 55.409 161.869 55.921 162.435 56.5857C162.866 54.8611 162.049 53.7922 160.962 53.4869C160.172 53.2713 159.238 53.4869 158.519 54.3402L157.118 52.4719C158.645 51.1515 160.316 50.882 161.762 51.2862C163.971 51.897 165.543 54.0976 164.887 56.442L163.181 62.6127L162.992 63.987L160.558 63.3133L160.774 62.5229H160.792ZM161.699 59.2175C161.528 58.3462 160.702 57.4839 159.893 57.2594C158.744 56.945 157.836 57.7085 157.567 58.6785C157.262 59.7833 157.81 60.6816 158.914 60.9869C159.705 61.2025 160.702 60.9959 161.429 60.2235L161.708 59.2085L161.699 59.2175ZM163.208 47.2982L163.28 50.7293L162.13 50.415L160.648 46.5886L163.217 47.2982H163.208Z" fill="#C12202"/>
<path d="M167.277 55.921C167.834 56.1007 168.274 55.7953 168.597 55.3821C168.319 55.418 168.049 55.4001 167.78 55.3192C167.16 55.1216 166.738 54.5018 166.989 53.7204C167.241 52.921 168.004 52.6964 168.624 52.894C169.226 53.0827 169.693 53.7743 169.361 54.8162C169.073 55.7054 168.22 56.7833 167.133 56.3611L167.277 55.912V55.921ZM170.169 56.8372C170.726 57.0168 171.166 56.7115 171.489 56.2983C171.211 56.3342 170.941 56.3162 170.672 56.2354C170.052 56.0378 169.63 55.418 169.882 54.6366C170.133 53.8372 170.897 53.6126 171.516 53.8102C172.118 53.9988 172.585 54.6905 172.253 55.7324C171.965 56.6216 171.112 57.6995 170.016 57.2773L170.16 56.8282L170.169 56.8372Z" fill="#C12202"/>
<path d="M10.9424 53.6036C11.4993 53.4419 11.6969 52.939 11.7329 52.418C11.5173 52.6066 11.2928 52.7413 11.0233 52.8222C10.3945 53.0108 9.70291 52.7234 9.46938 51.9419C9.22686 51.1335 9.72986 50.5228 10.3586 50.3431C10.9604 50.1635 11.7329 50.4689 12.0473 51.5198C12.3077 52.418 12.2089 53.7833 11.0682 54.0527L10.9335 53.6036H10.9424ZM13.8527 52.7413C14.4096 52.5797 14.6072 52.0767 14.6431 51.5557C14.4275 51.7443 14.203 51.8791 13.9335 51.9599C13.3048 52.1485 12.6131 51.8611 12.3796 51.0796C12.1371 50.2713 12.6401 49.6605 13.2688 49.4808C13.8706 49.3012 14.6431 49.6066 14.9575 50.6575C15.2179 51.5557 15.1191 52.921 13.9784 53.1905L13.8437 52.7413H13.8527Z" fill="#EF4B23"/>
<path d="M26.751 48.2862L25.1792 50.3162C24.4696 49.5347 23.5085 49.1125 22.3857 49.409C19.4486 50.1814 19.3138 53.9988 19.9336 56.3522C20.5534 58.7234 22.6282 61.9211 25.5384 61.1576C26.5804 60.8881 27.4337 60.1067 27.6762 59.0019L26.9397 56.1815L23.4815 57.0887L22.8887 54.8342L28.6014 53.3342L30.1912 59.3881C29.1672 61.3732 28.4307 62.7924 26.0145 63.4301C21.7031 64.5618 18.5414 61.1666 17.4904 57.1695C16.4036 53.0377 17.5264 48.2772 21.7929 47.1544C23.8049 46.6245 25.5205 47.1904 26.751 48.2952V48.2862Z" fill="#EF4B23"/>
<path d="M29.0415 45.358C29.8589 45.1694 30.5325 45.5826 30.7211 46.3999C30.9187 47.2442 30.4966 47.9179 29.6792 48.1065C28.8618 48.2952 28.1882 47.882 27.9906 47.0377C27.8019 46.2203 28.2151 45.5466 29.0325 45.358H29.0415ZM31.4846 61.8133L31.3499 60.43C30.1463 55.2653 30.6313 57.3581 29.4277 52.2024C29.302 51.6814 29.2211 51.3132 28.9337 50.9L31.1253 49.1934L33.6224 59.9001L34.1164 61.2025L31.4756 61.8133H31.4846Z" fill="#EF4B23"/>
<path d="M41.4907 59.6127L41.3919 58.2294L41.3021 57.7983C40.8979 59.0468 40.1164 60.1426 38.7062 60.439C36.7661 60.8432 34.9966 59.5677 34.3229 56.3162L33.4247 51.9689C33.3169 51.4479 33.2361 51.0796 32.9576 50.6575L35.1942 49.0047L36.6313 55.93C36.9996 57.6905 37.9068 58.4989 38.7691 58.3192C40.0984 58.0408 40.3499 55.8222 40.5026 53.927L39.82 50.6305C39.7122 50.1095 39.6314 49.7413 39.3619 49.3191L41.5895 47.6664L43.6823 57.7444L44.1494 59.0558L41.4997 59.6037L41.4907 59.6127ZM39.2451 43.6065L37.5116 47.3251L36.3439 47.5676L36.6313 44.1454L39.2362 43.6065H39.2451Z" fill="#EF4B23"/>
<path d="M46.1432 63.2235L43.7091 48.6634L43.2959 47.3341L45.7839 46.9209L45.9097 47.6844C46.5834 46.885 47.5175 46.3999 48.5055 46.2293C51.8918 45.6634 54.0475 48.385 54.5595 51.403C55.0625 54.3941 53.8948 57.6456 50.6253 58.1935C49.6553 58.3552 48.6133 58.1935 47.5804 57.6815L48.4427 62.8463L48.8558 64.1756L46.1881 64.6247L46.1432 63.2325V63.2235ZM47.1941 55.3551C47.8319 56.0288 48.6582 56.46 49.6463 56.2983C51.2092 56.0378 52.4218 54.1965 52.0176 51.7623C51.7032 49.894 50.4547 48.2143 48.5145 48.5377C47.6433 48.6814 46.8259 49.3191 46.3768 50.4599L47.1941 55.3641V55.3551Z" fill="#EF4B23"/>
<path d="M61.8622 56.2893L61.9071 54.897L61.0449 46.7233C60.991 46.1933 60.9461 45.8161 60.7125 45.376L63.0928 43.9478L63.3353 46.2652C63.982 44.837 64.9521 43.9837 66.1826 43.849C68.1587 43.6424 69.7845 45.0885 70.1348 48.385L70.7276 53.9539L71.06 55.3012L68.3653 55.5887L68.4102 54.1964L67.8084 48.5287C67.6198 46.7413 66.7934 45.843 65.9132 45.9329C64.6377 46.0676 64.0629 48.0077 63.7126 49.8042L64.2245 54.6366L64.5569 55.9839L61.8622 56.2713V56.2893Z" fill="#EF4B23"/>
<path d="M72.1289 55.2204L72.2277 53.8372C71.8774 48.5467 71.6798 45.5646 71.3295 40.2741C71.2935 39.7352 71.2666 39.3669 71.051 38.9088L73.4852 37.5795L73.9972 45.2233C74.572 44.0376 75.4882 43.0676 76.9343 42.9688C78.9194 42.834 80.4913 44.352 80.7068 47.6574L81.0751 53.2533L81.3535 54.6186L78.6499 54.7982L78.7487 53.415L78.3715 47.7293C78.2547 45.9329 77.4643 45.0077 76.575 45.0616C75.2277 45.1514 74.6619 47.3161 74.2487 49.1754L74.5451 53.6934L74.8235 55.0587L72.1199 55.2384L72.1289 55.2204Z" fill="#EF4B23"/>
<path d="M88.7725 53.5587C87.9012 54.2863 86.8144 54.6635 85.7904 54.6905C83.2934 54.7623 82.0538 52.9479 81.9999 51.0168C81.946 48.9598 83.3293 46.7772 86.0868 46.6963C86.9491 46.6694 87.8653 46.9299 88.6018 47.397C88.503 45.6275 87.4072 44.837 86.2844 44.873C85.467 44.8999 84.6407 45.385 84.2006 46.3999L82.3143 45.0257C83.3832 43.3101 84.9101 42.5735 86.4012 42.5286C88.6916 42.4658 90.8384 44.1095 90.9012 46.5347L91.0809 52.93L91.3054 54.3042L88.7815 54.3761L88.7545 53.5587H88.7725ZM88.6826 50.1275C88.2605 49.3461 87.2186 48.7712 86.3742 48.7892C85.1796 48.8251 84.5329 49.8221 84.5598 50.8281C84.5958 51.9689 85.3862 52.6695 86.5269 52.6425C87.3443 52.6156 88.2425 52.1305 88.7006 51.1784L88.6737 50.1275H88.6826Z" fill="#EF4B23"/>
<path d="M98.9313 54.3671L99.1289 52.9928V52.5527C98.4642 53.6934 97.4762 54.5916 96.03 54.5737C94.045 54.5557 92.5899 52.921 92.6258 49.6065L92.6797 45.1694C92.6797 44.6304 92.6887 44.2622 92.509 43.7861L95.042 42.6454L94.9612 49.7233C94.9432 51.5197 95.6528 52.5078 96.542 52.5168C97.8983 52.5347 98.6169 50.4149 99.1738 48.6005L99.2097 45.2412C99.2097 44.7023 99.2187 44.334 99.0391 43.858L101.572 42.7172L101.455 53.0198L101.626 54.403L98.9133 54.3761L98.9313 54.3671Z" fill="#EF4B23"/>
<path d="M113.339 51.3671L116.061 44.9179C116.258 44.4149 116.375 43.7951 116.231 43.5526L119.07 43.7592L114.3 55.1126L111.83 54.933L108.776 43.0047L111.614 43.2113C111.435 43.4358 111.462 44.0646 111.578 44.5945L113.33 51.3671H113.339Z" fill="#EF4B23"/>
<path d="M121.665 52.3192C122.132 53.1725 122.932 53.8282 124.091 53.9629C125.115 54.0797 125.95 53.7024 126.606 52.7234L128.222 54.412C127.055 55.8312 125.474 56.4689 123.686 56.2713C119.878 55.8402 118.342 52.4629 118.692 49.382C119.025 46.4359 121.162 43.7682 124.782 44.1814C127.127 44.4508 129.201 46.2113 128.896 48.879C128.788 49.8491 128.15 50.6754 126.121 51.1964L121.665 52.3371V52.3192ZM124.728 49.382C126.444 48.9868 126.345 48.5826 126.372 48.3221C126.489 47.2802 125.698 46.5976 124.674 46.4808C122.653 46.2472 121.432 47.9179 121.225 49.7503C121.207 49.894 121.189 50.0287 121.198 50.1724L124.719 49.373L124.728 49.382ZM125.555 43.3191L125.123 41.5047L124.279 43.1664L121.8 42.8879L124.701 39.9059L125.887 40.0406L128.043 43.5975L125.564 43.3101L125.555 43.3191ZM128.618 38.307L129.219 41.6933L128.034 41.5586L125.968 38.0106L128.618 38.307Z" fill="#EF4B23"/>
<path d="M134.321 57.457L134.752 56.1366L136.216 48.0437C136.315 47.5137 136.378 47.1455 136.279 46.6514L138.974 45.9508L138.561 48.2503C139.585 47.0556 140.752 46.5077 141.965 46.7323C143.923 47.0826 145.082 48.9329 144.489 52.2024L143.492 57.7175L143.429 59.1097L140.761 58.6246L141.193 57.3043L142.207 51.6994C142.531 49.9299 141.992 48.8341 141.121 48.6724C139.854 48.4479 138.767 50.1455 137.923 51.7713L137.061 56.5498L136.998 57.942L134.33 57.457H134.321Z" fill="#EF4B23"/>
<path d="M144.426 59.3163L144.911 58.0139C146.088 52.8401 146.753 49.9299 147.929 44.7562C148.046 44.2353 148.127 43.867 148.055 43.373L150.777 42.7891L149.079 50.2623C149.968 49.2922 151.127 48.6185 152.546 48.9419C154.486 49.382 155.564 51.2773 154.827 54.5108L153.588 59.981L153.462 61.3642L150.821 60.7624L151.306 59.46L152.573 53.9C152.968 52.1485 152.483 51.0258 151.621 50.8281C150.3 50.5317 149.142 52.4449 148.217 54.1066L147.211 58.5258L147.085 59.9091L144.444 59.3073L144.426 59.3163Z" fill="#EF4B23"/>
<path d="M160.792 62.5229C159.75 62.963 158.6 63.0079 157.612 62.7295C155.205 62.0648 154.549 59.972 155.061 58.1037C155.609 56.1186 157.576 54.439 160.235 55.1755C161.07 55.409 161.869 55.921 162.435 56.5857C162.866 54.8611 162.049 53.7922 160.962 53.4869C160.172 53.2713 159.238 53.4869 158.519 54.3402L157.118 52.4719C158.645 51.1515 160.316 50.882 161.762 51.2862C163.971 51.897 165.543 54.0976 164.887 56.442L163.181 62.6127L162.992 63.987L160.558 63.3133L160.774 62.5229H160.792ZM161.699 59.2175C161.528 58.3462 160.702 57.4839 159.893 57.2594C158.744 56.945 157.836 57.7085 157.567 58.6785C157.262 59.7833 157.81 60.6816 158.914 60.9869C159.705 61.2025 160.702 60.9959 161.429 60.2235L161.708 59.2085L161.699 59.2175ZM163.208 47.2982L163.28 50.7293L162.13 50.415L160.648 46.5886L163.217 47.2982H163.208Z" fill="#EF4B23"/>
<path d="M167.277 55.921C167.834 56.1007 168.274 55.7953 168.597 55.3821C168.319 55.418 168.049 55.4001 167.78 55.3192C167.16 55.1216 166.738 54.5018 166.989 53.7204C167.241 52.921 168.004 52.6964 168.624 52.894C169.226 53.0827 169.693 53.7743 169.361 54.8162C169.073 55.7054 168.22 56.7833 167.133 56.3611L167.277 55.912V55.921ZM170.169 56.8372C170.726 57.0168 171.166 56.7115 171.489 56.2983C171.211 56.3342 170.941 56.3162 170.672 56.2354C170.052 56.0378 169.63 55.418 169.882 54.6366C170.133 53.8372 170.897 53.6126 171.516 53.8102C172.118 53.9988 172.585 54.6905 172.253 55.7324C171.965 56.6216 171.112 57.6995 170.016 57.2773L170.16 56.8282L170.169 56.8372Z" fill="#EF4B23"/>
<path d="M10.9424 52.0677C11.4993 51.906 11.6969 51.403 11.7329 50.882C11.5173 51.0707 11.2928 51.2054 11.0233 51.2862C10.3945 51.4749 9.70291 51.1874 9.46938 50.406C9.22686 49.5976 9.72986 48.9868 10.3586 48.8072C10.9604 48.6275 11.7329 48.9329 12.0473 49.9838C12.3077 50.882 12.2089 52.2473 11.0682 52.5168L10.9335 52.0677H10.9424ZM13.8527 51.2054C14.4096 51.0437 14.6072 50.5407 14.6431 50.0197C14.4275 50.2084 14.203 50.3431 13.9335 50.4239C13.3048 50.6126 12.6131 50.3251 12.3796 49.5437C12.1371 48.7353 12.6401 48.1245 13.2688 47.9449C13.8706 47.7652 14.6431 48.0706 14.9575 49.1215C15.2179 50.0197 15.1191 51.385 13.9784 51.6545L13.8437 51.2054H13.8527Z" fill="#FFF400"/>
<path d="M26.751 46.7502L25.1792 48.7802C24.4696 47.9988 23.5085 47.5766 22.3857 47.873C19.4486 48.6455 19.3138 52.4629 19.9336 54.8162C20.5534 57.1875 22.6282 60.3851 25.5384 59.6217C26.5804 59.3522 27.4337 58.5707 27.6762 57.4659L26.9397 54.6455L23.4815 55.5527L22.8887 53.2982L28.6014 51.7982L30.1912 57.8522C29.1672 59.8372 28.4307 61.2564 26.0145 61.8941C21.7031 63.0259 18.5414 59.6306 17.4904 55.6336C16.4036 51.5018 17.5264 46.7413 21.7929 45.6185C23.8049 45.0885 25.5205 45.6544 26.751 46.7592V46.7502Z" fill="#FFF400"/>
<path d="M29.0415 43.831C29.8589 43.6424 30.5325 44.0556 30.7211 44.873C30.9187 45.7173 30.4966 46.3909 29.6792 46.5796C28.8618 46.7682 28.1882 46.355 27.9906 45.5107C27.8019 44.6933 28.2151 44.0196 29.0325 43.831H29.0415ZM31.4846 60.2773L31.3499 58.8941C30.1463 53.7293 30.6313 55.8222 29.4277 50.6664C29.302 50.1455 29.2211 49.7772 28.9337 49.364L31.1253 47.6574L33.6224 58.3641L34.1164 59.6665L31.4756 60.2773H31.4846Z" fill="#FFF400"/>
<path d="M41.4907 58.0857L41.3919 56.7024L41.3021 56.2713C40.8979 57.5198 40.1164 58.6156 38.7062 58.912C36.7661 59.3162 34.9966 58.0408 34.3229 54.7892L33.4247 50.4419C33.3169 49.9209 33.2361 49.5527 32.9576 49.1305L35.1942 47.4778L36.6313 54.403C36.9996 56.1635 37.9068 56.9719 38.7691 56.7923C40.0984 56.5138 40.3499 54.2952 40.5026 52.4L39.82 49.1035C39.7122 48.5826 39.6314 48.2143 39.3619 47.7922L41.5895 46.1394L43.6823 56.2174L44.1494 57.5288L41.4997 58.0767L41.4907 58.0857ZM39.2451 42.0705L37.5116 45.7891L36.3439 46.0317L36.6313 42.6095L39.2362 42.0705H39.2451Z" fill="#FFF400"/>
<path d="M46.1432 61.6875L43.7091 47.1275L43.2959 45.7981L45.7839 45.3849L45.9097 46.1484C46.5834 45.349 47.5175 44.864 48.5055 44.6933C51.8918 44.1274 54.0475 46.849 54.5595 49.867C55.0625 52.8581 53.8948 56.1096 50.6253 56.6575C49.6553 56.8192 48.6133 56.6575 47.5804 56.1455L48.4427 61.3103L48.8558 62.6396L46.1881 63.0887L46.1432 61.6965V61.6875ZM47.1941 53.8192C47.8319 54.4928 48.6582 54.924 49.6463 54.7623C51.2092 54.5018 52.4218 52.6605 52.0176 50.2263C51.7032 48.358 50.4547 46.6784 48.5145 47.0017C47.6433 47.1454 46.8259 47.7832 46.3768 48.9239L47.1941 53.8282V53.8192Z" fill="#FFF400"/>
<path d="M61.8622 54.7533L61.9071 53.3611L61.0449 45.1873C60.991 44.6574 60.9461 44.2801 60.7125 43.84L63.0928 42.4119L63.3353 44.7292C63.982 43.3011 64.9521 42.4478 66.1826 42.3131C68.1587 42.1065 69.7845 43.5526 70.1348 46.849L70.7276 52.418L71.06 53.7653L68.3653 54.0527L68.4102 52.6605L67.8084 46.9927C67.6198 45.2053 66.7934 44.3071 65.9132 44.3969C64.6377 44.5316 64.0629 46.4718 63.7126 48.2682L64.2245 53.1006L64.5569 54.4479L61.8622 54.7354V54.7533Z" fill="#FFF400"/>
<path d="M72.1289 53.6845L72.2277 52.3012C71.8774 47.0107 71.6798 44.0286 71.3295 38.7382C71.2935 38.1992 71.2666 37.831 71.051 37.3729L73.4852 36.0435L73.9972 43.6873C74.572 42.5017 75.4882 41.5316 76.9343 41.4328C78.9194 41.2981 80.4913 42.8161 80.7068 46.1215L81.0751 51.7174L81.3535 53.0826L78.6499 53.2623L78.7487 51.879L78.3715 46.1933C78.2547 44.3969 77.4643 43.4718 76.575 43.5256C75.2277 43.6155 74.6619 45.7802 74.2487 47.6395L74.5451 52.1575L74.8235 53.5228L72.1199 53.7024L72.1289 53.6845Z" fill="#FFF400"/>
<path d="M88.7725 52.0228C87.9012 52.7503 86.8144 53.1276 85.7904 53.1545C83.2934 53.2264 82.0538 51.412 81.9999 49.4808C81.946 47.4239 83.3293 45.2412 86.0868 45.1604C86.9491 45.1334 87.8653 45.3939 88.6018 45.861C88.503 44.0915 87.4072 43.3011 86.2844 43.337C85.467 43.364 84.6407 43.849 84.2006 44.864L82.3143 43.4897C83.3832 41.7741 84.9101 41.0376 86.4012 40.9927C88.6916 40.9298 90.8384 42.5735 90.9012 44.9987L91.0809 51.394L91.3054 52.7683L88.7815 52.8401L88.7545 52.0228H88.7725ZM88.6826 48.5916C88.2605 47.8101 87.2186 47.2353 86.3742 47.2532C85.1796 47.2892 84.5329 48.2862 84.5598 49.2922C84.5958 50.4329 85.3862 51.1335 86.5269 51.1066C87.3443 51.0796 88.2425 50.5946 88.7006 49.6425L88.6737 48.5916H88.6826Z" fill="#FFF400"/>
<path d="M98.9313 52.8311L99.1289 51.4569V51.0167C98.4642 52.1575 97.4762 53.0557 96.03 53.0377C94.045 53.0198 92.5899 51.385 92.6258 48.0706L92.6797 43.6334C92.6797 43.0945 92.6887 42.7262 92.509 42.2502L95.042 41.1094L94.9612 48.1874C94.9432 49.9838 95.6528 50.9718 96.542 50.9808C97.8983 50.9988 98.6169 48.879 99.1738 47.0646L99.2097 43.7053C99.2097 43.1663 99.2187 42.7981 99.0391 42.322L101.572 41.1813L101.455 51.4838L101.626 52.8671L98.9133 52.8401L98.9313 52.8311Z" fill="#FFF400"/>
<path d="M113.339 49.8311L116.061 43.3819C116.258 42.8789 116.375 42.2591 116.231 42.0166L119.07 42.2232L114.3 53.5767L111.83 53.397L108.776 41.4687L111.614 41.6753C111.435 41.8999 111.462 42.5286 111.578 43.0586L113.33 49.8311H113.339Z" fill="#FFF400"/>
<path d="M121.665 50.7832C122.132 51.6365 122.932 52.2922 124.091 52.427C125.115 52.5437 125.95 52.1665 126.606 51.1874L128.222 52.8761C127.055 54.2952 125.474 54.933 123.686 54.7354C119.878 54.3042 118.342 50.9269 118.692 47.8461C119.025 44.8999 121.162 42.2322 124.782 42.6454C127.127 42.9149 129.201 44.6754 128.896 47.3431C128.788 48.3131 128.15 49.1395 126.121 49.6605L121.665 50.8012V50.7832ZM124.728 47.8461C126.444 47.4509 126.345 47.0467 126.372 46.7862C126.489 45.7442 125.698 45.0616 124.674 44.9448C122.653 44.7113 121.432 46.382 121.225 48.2143C121.207 48.358 121.189 48.4928 121.198 48.6365L124.719 47.8371L124.728 47.8461ZM125.555 41.7831L125.123 39.9687L124.279 41.6304L121.8 41.352L124.701 38.3699L125.887 38.5046L128.043 42.0616L125.564 41.7741L125.555 41.7831ZM128.618 36.7711L129.219 40.1573L128.034 40.0226L125.968 36.4747L128.618 36.7711Z" fill="#FFF400"/>
<path d="M134.321 55.93L134.752 54.6096L136.216 46.5167C136.315 45.9868 136.378 45.6185 136.279 45.1245L138.974 44.4239L138.561 46.7233C139.585 45.5287 140.752 44.9808 141.965 45.2053C143.923 45.5556 145.082 47.4059 144.489 50.6754L143.492 56.1905L143.429 57.5827L140.761 57.0977L141.193 55.7773L142.207 50.1724C142.531 48.403 141.992 47.3071 141.121 47.1455C139.854 46.9209 138.767 48.6185 137.923 50.2443L137.061 55.0228L136.998 56.415L134.33 55.93H134.321Z" fill="#FFF400"/>
<path d="M144.426 57.7803L144.911 56.4779C146.088 51.3042 146.753 48.394 147.929 43.2203C148.046 42.6993 148.127 42.331 148.055 41.837L150.777 41.2532L149.079 48.7263C149.968 47.7562 151.127 47.0826 152.546 47.4059C154.486 47.8461 155.564 49.7413 154.827 52.9749L153.588 58.445L153.462 59.8283L150.821 59.2264L151.306 57.924L152.573 52.3641C152.968 50.6126 152.483 49.4898 151.621 49.2922C150.3 48.9958 149.142 50.909 148.217 52.5707L147.211 56.9899L147.085 58.3731L144.444 57.7713L144.426 57.7803Z" fill="#FFF400"/>
<path d="M160.792 60.9869C159.75 61.4271 158.6 61.472 157.612 61.1935C155.205 60.5288 154.549 58.436 155.061 56.5677C155.609 54.5827 157.576 52.903 160.235 53.6395C161.07 53.8731 161.869 54.3851 162.435 55.0497C162.866 53.3252 162.049 52.2563 160.962 51.9509C160.172 51.7353 159.238 51.9509 158.519 52.8042L157.118 50.9359C158.645 49.6155 160.316 49.3461 161.762 49.7503C163.971 50.3611 165.543 52.5617 164.887 54.906L163.181 61.0768L162.992 62.451L160.558 61.7774L160.774 60.9869H160.792ZM161.699 57.6815C161.528 56.8102 160.702 55.9479 159.893 55.7234C158.744 55.409 157.836 56.1725 157.567 57.1426C157.262 58.2474 157.81 59.1456 158.914 59.451C159.705 59.6666 160.702 59.46 161.429 58.6875L161.708 57.6725L161.699 57.6815ZM163.208 45.7712L163.28 49.2024L162.13 48.888L160.648 45.0616L163.217 45.7712H163.208Z" fill="#FFF400"/>
<path d="M167.277 54.3851C167.834 54.5647 168.274 54.2593 168.597 53.8461C168.319 53.8821 168.049 53.8641 167.78 53.7833C167.16 53.5857 166.738 52.9659 166.989 52.1844C167.241 51.385 168.004 51.1605 168.624 51.3581C169.226 51.5467 169.693 52.2383 169.361 53.2803C169.073 54.1695 168.22 55.2474 167.133 54.8252L167.277 54.3761V54.3851ZM170.169 55.3012C170.726 55.4809 171.166 55.1755 171.489 54.7623C171.211 54.7983 170.941 54.7803 170.672 54.6994C170.052 54.5018 169.63 53.8821 169.882 53.1006C170.133 52.3012 170.897 52.0767 171.516 52.2743C172.118 52.4629 172.585 53.1545 172.253 54.1964C171.965 55.0857 171.112 56.1635 170.016 55.7414L170.16 55.2923L170.169 55.3012Z" fill="#FFF400"/>
</svg>
