<svg width="161" height="39" viewBox="0 0 161 39" fill="none" xmlns="http://www.w3.org/2000/svg">
<path d="M3.97011 33.4029L0.673661 21.5196L0 19.9477L3.21561 19.0585L3.44914 20.7561L6.73661 32.6125C7.30248 34.6604 9.07197 35.6664 11.1289 35.0916C13.2577 34.4988 14.2367 32.7383 13.6618 30.6903L10.3744 18.8339L9.70072 17.262L12.6918 16.4357C12.7546 16.2381 12.7906 16.0494 12.7367 15.8518C12.6379 15.3758 12.3055 14.8368 11.1918 14.7919L12.3594 12.8608C14.066 13.1033 14.6589 14.0464 14.8744 14.9357C15.1529 16.1393 14.1469 17.6752 13.2127 18.295L16.4463 29.9538C17.4793 33.6634 15.584 36.8431 11.8744 37.8761C8.16477 38.909 5.01204 37.1216 3.97909 33.4119L3.97011 33.4029Z" fill="#C12202"/>
<path d="M26.9372 33.7802L26.7845 32.0736L26.6588 31.5437C26.1917 33.0976 25.2575 34.4539 23.524 34.8581C21.1437 35.406 18.9341 33.87 18.0269 29.8909L16.8143 24.5645C16.6706 23.9178 16.5628 23.4687 16.2125 22.9657L18.9161 20.8729L20.8563 29.361C21.3503 31.5167 22.4821 32.4958 23.5509 32.2532C25.1767 31.885 25.4372 29.1454 25.5809 26.8101L24.6557 22.7771C24.512 22.1304 24.4042 21.6813 24.0539 21.1783L26.7576 19.0854L29.578 31.4359L30.1798 33.0347L26.9282 33.7802H26.9372Z" fill="#C12202"/>
<path d="M47.4077 30.0706L47.264 29.1634C46.258 30.1604 45.0903 30.7173 43.9227 30.8969C39.8897 31.5167 37.2849 28.1664 36.71 24.4747C36.1351 20.7561 37.6172 16.7411 41.7939 16.1033C43.0155 15.9147 44.273 16.1303 45.3598 16.777L45.0275 14.5853L42.1891 15.0255L41.8388 12.753L44.6772 12.3129L44.6053 11.8548C44.5065 11.1991 44.4346 10.75 44.1203 10.211L46.9676 8.31581L47.5155 11.8638L48.3688 11.729L48.7191 14.0015L47.8658 14.1362L49.9856 27.9418L50.4706 29.5855L47.3988 30.0526L47.4077 30.0706ZM45.8897 20.1633C44.9287 19.0315 43.734 18.6363 42.6831 18.789C40.2939 19.1573 39.4765 21.6094 39.8358 23.9088C40.213 26.352 41.9376 28.6783 44.5514 28.2741C45.4586 28.1304 46.285 27.6274 46.8958 26.6933L45.8897 20.1543V20.1633Z" fill="#C12202"/>
<path d="M59.3719 27.6544C58.3749 28.6244 57.0725 29.1903 55.815 29.325C52.7521 29.6484 51.0634 27.5376 50.8119 25.1663C50.5515 22.6513 52.0515 19.8309 55.4198 19.4806C56.4797 19.3728 57.6294 19.5974 58.5815 20.1004C58.2941 17.9357 56.8749 17.0734 55.5096 17.2171C54.5126 17.3249 53.5425 17.9986 53.0934 19.292L50.6503 17.783C51.809 15.5824 53.6054 14.5225 55.4378 14.3338C58.2402 14.0374 61.0336 15.8608 61.339 18.8339L62.1564 26.6663L62.5606 28.328L59.4707 28.6514L59.3629 27.6544H59.3719ZM56.0934 10.8847C56.6324 10.8308 56.9647 10.3637 56.8569 9.30384L58.7432 9.10623C58.9677 11.226 58.1234 12.6093 56.812 12.744C55.0964 12.9236 54.9347 11.3787 53.9377 11.4865C53.4796 11.5314 53.1922 12.0524 53.291 13.0314L51.4048 13.229C51.2611 11.8548 51.5664 9.79786 53.309 9.61821C55.0785 9.42959 55.33 10.9655 56.1024 10.8847H56.0934ZM58.9408 23.4507C58.3569 22.5256 57.0186 21.9148 55.9857 22.0226C54.5306 22.1753 53.821 23.4597 53.9557 24.6903C54.0994 26.0915 55.1413 26.8819 56.5426 26.7292C57.5396 26.6214 58.5995 25.9388 59.0755 24.7262L58.9408 23.4417V23.4507Z" fill="#C12202"/>
<path d="M63.9439 7.80382C64.9769 7.73197 65.7134 8.3697 65.7853 9.40264C65.8661 10.4625 65.2284 11.1991 64.1954 11.2799C63.1625 11.3518 62.4259 10.714 62.3451 9.65415C62.2732 8.6212 62.911 7.88466 63.9439 7.81281V7.80382ZM63.7553 28.2831L63.8631 26.5765C63.387 20.0645 63.5846 22.7052 63.1086 16.1931C63.0637 15.5375 63.0277 15.0794 62.7583 14.5225L65.7493 12.8608L66.7284 26.3699L67.0787 28.0406L63.7553 28.2831Z" fill="#C12202"/>
<path d="M75.0908 17.8369C75.0459 14.5854 77.7765 12.8787 80.7136 12.8428C82.7795 12.8159 84.9532 13.7051 86.2736 15.5195L84.1448 17.6213C83.3454 16.283 81.8993 15.6991 80.6956 15.7171C79.4561 15.7351 78.0908 16.3548 78.0998 17.3339C78.1447 20.2351 86.4442 17.7291 86.5161 22.7591C86.561 25.8939 83.7675 27.7442 80.6956 27.7891C78.486 27.825 76.0878 26.9089 74.6776 24.9687L77.0669 23.0106C77.8932 24.3489 79.5908 24.9328 80.8034 24.9148C82.043 24.8969 83.4352 24.2412 83.4172 23.0106C83.3813 20.5136 75.1626 22.9028 75.0908 17.8369Z" fill="#C12202"/>
<path d="M95.2467 26.6933C94.1239 27.5196 92.7586 27.9059 91.5011 27.861C88.4292 27.7622 87.037 25.4358 87.1178 23.0555C87.1987 20.5315 89.067 17.9447 92.4622 18.0614C93.5221 18.0974 94.6359 18.4746 95.5072 19.1123C95.5251 16.9297 94.2317 15.8788 92.8574 15.8339C91.8514 15.7979 90.8005 16.3369 90.1807 17.5584L87.9711 15.7261C89.4173 13.7051 91.3394 12.9057 93.1808 12.9686C95.9922 13.0584 98.5072 15.25 98.4084 18.2321L98.1479 26.1005L98.3186 27.8071L95.2107 27.6993L95.2467 26.6933ZM91.6718 8.10922C91.6359 9.08827 92.1658 9.79786 93.2526 9.83379C94.3754 9.86972 94.9413 9.19606 94.9772 8.22599L96.9892 8.28886C96.9174 10.4985 95.3724 11.8907 93.1898 11.8099C91.034 11.738 89.5879 10.2559 89.6598 8.03736L91.6718 8.10922ZM95.3904 22.4717C94.9323 21.4747 93.6928 20.6932 92.6598 20.6573C91.1957 20.6124 90.3245 21.789 90.2795 23.0196C90.2346 24.4298 91.1508 25.346 92.561 25.3998C93.567 25.4358 94.7077 24.8968 95.3455 23.7651L95.3904 22.4717ZM97.0431 3.9415L93.8904 7.89365L92.4263 7.84874L93.7646 3.8427L97.0431 3.95048V3.9415Z" fill="#C12202"/>
<path d="M106.394 28.4179L106.726 26.7472L107.301 20.5944C107.588 17.5584 107.004 16.3818 106.169 16.3009C104.651 16.1572 103.744 19.7142 103.097 22.2741L102.711 26.3699L102.783 28.0765L99.4594 27.7622L99.8456 26.0915L100.789 16.0225C100.852 15.3668 100.897 14.9087 100.717 14.3159L103.941 13.1752L103.663 16.1482C104.759 14.3159 106.088 13.6602 107.292 13.777C109.07 13.9386 110.013 15.5644 110.292 17.2081C111.415 15.0614 112.87 14.2979 114.163 14.4237C116.481 14.6392 117.415 17.3249 117.226 19.301L116.445 27.6544L116.463 29.361L113.256 29.0646L113.588 27.3939L114.163 21.2411C114.451 18.2052 113.867 17.0285 113.031 16.9477C111.513 16.8039 110.606 20.3609 109.968 22.8938L109.582 27.0166L109.6 28.7233L106.394 28.4268V28.4179Z" fill="#C12202"/>
<path d="M131.166 31.867L131.705 30.2412L134.597 14.8997C132.262 14.3967 129.756 14.3338 129.199 17.3069C128.867 19.0854 129.864 21.2052 132.325 21.6723L132.271 21.9507C132.029 23.2531 131.121 24.0166 129.792 23.7651C126.882 23.2172 125.49 19.8848 126.002 17.1991C126.738 13.3009 130.376 11.235 134.157 11.9536L138.9 12.8518C142.151 13.4626 143.795 13.247 144.262 10.7949L144.541 10.8488C145.843 11.0913 146.607 11.9985 146.355 13.3278C145.807 16.2381 142.69 16.4985 138.361 15.6812L137.4 15.5015L134.517 30.7802L134.427 32.4868L131.148 31.867H131.166Z" fill="#C12202"/>
<path d="M140.75 29.5496C141.19 30.6634 142.062 31.5796 143.454 31.9209C144.684 32.2173 145.771 31.8939 146.714 30.7891L148.43 33.0975C146.786 34.6515 144.756 35.1904 142.61 34.6694C138.029 33.5556 136.663 29.1993 137.562 25.4897C138.424 21.9417 141.442 19.0046 145.798 20.0645C148.619 20.7471 150.891 23.2262 150.11 26.4328C149.822 27.6095 148.924 28.5077 146.364 28.831L140.75 29.5406V29.5496ZM144.945 26.4238C147.101 26.2082 147.047 25.6873 147.119 25.3819C147.424 24.1244 146.562 23.1723 145.331 22.8759C142.897 22.283 141.145 24.1423 140.616 26.343C140.571 26.5136 140.535 26.6753 140.517 26.855L144.945 26.4238ZM146.885 19.1483L146.643 16.8668L145.349 18.771L142.358 18.0435L146.355 14.8458L147.783 15.1961L149.876 19.8758L146.885 19.1483ZM154.996 14.3698L151.107 17.5944L149.679 17.253L151.807 13.5973L154.987 14.3698H154.996Z" fill="#C12202"/>
<path d="M152.193 21.9687C153.765 22.4447 153.909 22.2471 154.214 21.2232L154.448 20.4507C154.682 19.6782 154.924 18.8788 154.87 18.268L158.256 17.792L156.595 23.298L160.727 24.5376L159.981 27.0166L155.849 25.7771L153.981 31.9658C153.514 33.5107 153.505 34.8491 154.439 35.1365C155.373 35.4149 156.119 34.4449 156.712 33.87L158.301 36.2683C156.676 37.6695 155.202 38.1815 153.604 37.7054C151.762 37.1485 150.02 35.1545 151.053 31.7143L152.723 26.1813C153.029 25.1663 153.011 24.9148 151.448 24.4477L152.193 21.9687Z" fill="#C12202"/>
<path d="M3.97011 31.876L0.673661 19.9926L0 18.4207L3.21561 17.5315L3.44914 19.2291L6.73661 31.0856C7.30248 33.1335 9.07197 34.1395 11.1289 33.5646C13.2577 32.9718 14.2367 31.2113 13.6618 29.1634L10.3744 17.3069L9.70072 15.7351L12.6918 14.9087C12.7546 14.7111 12.7906 14.5225 12.7367 14.3249C12.6379 13.8488 12.3055 13.3099 11.1918 13.265L12.3594 11.3338C14.066 11.5763 14.6589 12.5195 14.8744 13.4087C15.1529 14.6123 14.1469 16.1482 13.2127 16.768L16.4463 28.4268C17.4793 32.1365 15.584 35.3161 11.8744 36.3491C8.16477 37.382 5.01204 35.5946 3.97909 31.885L3.97011 31.876Z" fill="#C12202"/>
<path d="M26.9372 32.2443L26.7845 30.5377L26.6588 30.0077C26.1917 31.5616 25.2575 32.9179 23.524 33.3221C21.1437 33.8701 18.9341 32.3341 18.0269 28.355L16.8143 23.0286C16.6706 22.3819 16.5628 21.9328 16.2125 21.4298L18.9161 19.3369L20.8563 27.8251C21.3503 29.9808 22.4821 30.9598 23.5509 30.7173C25.1767 30.3491 25.4372 27.6095 25.5809 25.2741L24.6557 21.2412C24.512 20.5944 24.4042 20.1453 24.0539 19.6423L26.7576 17.5495L29.578 29.9L30.1798 31.4988L26.9282 32.2443H26.9372Z" fill="#C12202"/>
<path d="M47.4077 28.5436L47.264 27.6364C46.258 28.6334 45.0903 29.1903 43.9227 29.37C39.8897 29.9897 37.2849 26.6394 36.71 22.9477C36.1351 19.2291 37.6172 15.2141 41.7939 14.5764C43.0155 14.3877 44.273 14.6033 45.3598 15.25L45.0275 13.0584L42.1891 13.4985L41.8388 11.226L44.6772 10.7859L44.6053 10.3278C44.5065 9.67212 44.4346 9.22301 44.1203 8.68408L46.9676 6.78885L47.5155 10.3368L48.3688 10.2021L48.7191 12.4745L47.8658 12.6093L49.9856 26.4148L50.4706 28.0586L47.3988 28.5256L47.4077 28.5436ZM45.8897 18.6273C44.9287 17.4956 43.734 17.1004 42.6831 17.253C40.2939 17.6213 39.4765 20.0734 39.8358 22.3729C40.213 24.816 41.9376 27.1424 44.5514 26.7382C45.4586 26.5945 46.285 26.0915 46.8958 25.1573L45.8897 18.6183V18.6273Z" fill="#C12202"/>
<path d="M59.3719 26.1184C58.3749 27.0885 57.0725 27.6544 55.815 27.7891C52.7521 28.1125 51.0634 26.0017 50.8119 23.6304C50.5515 21.1154 52.0515 18.295 55.4198 17.9447C56.4797 17.8369 57.6294 18.0614 58.5815 18.5644C58.2941 16.3997 56.8749 15.5375 55.5096 15.6812C54.5126 15.789 53.5425 16.4626 53.0934 17.7561L50.6503 16.2471C51.809 14.0464 53.6054 12.9865 55.4378 12.7979C58.2402 12.5015 61.0336 14.3249 61.339 17.298L62.1564 25.1304L62.5606 26.7921L59.4707 27.1154L59.3629 26.1184H59.3719ZM56.0934 9.34876C56.6324 9.29487 56.9647 8.8278 56.8569 7.76791L58.7432 7.5703C58.9677 9.69008 58.1234 11.0733 56.812 11.2081C55.0964 11.3877 54.9347 9.84278 53.9377 9.95057C53.4796 9.99548 53.1922 10.5164 53.291 11.4955L51.4048 11.6931C51.2611 10.3188 51.5664 8.26192 53.309 8.08228C55.0785 7.89366 55.33 9.4296 56.1024 9.34876H56.0934ZM58.9408 21.9148C58.3569 20.9896 57.0186 20.3788 55.9857 20.4866C54.5306 20.6393 53.821 21.9238 53.9557 23.1543C54.0994 24.5555 55.1413 25.346 56.5426 25.1933C57.5396 25.0855 58.5995 24.4028 59.0755 23.1903L58.9408 21.9058V21.9148Z" fill="#C12202"/>
<path d="M63.9439 6.27686C64.9769 6.205 65.7134 6.84274 65.7853 7.87568C65.8661 8.93558 65.2284 9.67211 64.1954 9.75295C63.1625 9.82481 62.4259 9.18708 62.3451 8.12718C62.2732 7.09424 62.911 6.3577 63.9439 6.28584V6.27686ZM63.7553 26.7562L63.8631 25.0495C63.387 18.5375 63.5846 21.1782 63.1086 14.6662C63.0637 14.0105 63.0277 13.5524 62.7583 12.9955L65.7493 11.3338L66.7284 24.843L67.0787 26.5136L63.7553 26.7562Z" fill="#C12202"/>
<path d="M75.0908 16.3009C75.0459 13.0494 77.7765 11.3428 80.7136 11.3069C82.7795 11.2799 84.9532 12.1692 86.2736 13.9835L84.1448 16.0854C83.3454 14.747 81.8993 14.1632 80.6956 14.1812C79.4561 14.1991 78.0908 14.8189 78.0998 15.7979C78.1447 18.6992 86.4442 16.1932 86.5161 21.2232C86.561 24.3579 83.7675 26.2082 80.6956 26.2532C78.486 26.2891 76.0878 25.3729 74.6776 23.4328L77.0669 21.4747C77.8932 22.813 79.5908 23.3968 80.8034 23.3789C82.043 23.3609 83.4352 22.7052 83.4172 21.4747C83.3813 18.9776 75.1626 21.3669 75.0908 16.3009Z" fill="#C12202"/>
<path d="M95.2467 25.1573C94.1239 25.9837 92.7586 26.3699 91.5011 26.325C88.4292 26.2262 87.037 23.8998 87.1178 21.5196C87.1987 18.9956 89.067 16.4087 92.4622 16.5255C93.5221 16.5614 94.6359 16.9387 95.5072 17.5764C95.5251 15.3937 94.2317 14.3428 92.8574 14.2979C91.8514 14.262 90.8005 14.8009 90.1807 16.0225L87.9711 14.1901C89.4173 12.1691 91.3394 11.3697 93.1808 11.4326C95.9922 11.5224 98.5072 13.7141 98.4084 16.6962L98.1479 24.5645L98.3186 26.2711L95.2107 26.1633L95.2467 25.1573ZM91.6718 6.57327C91.6359 7.55233 92.1658 8.26192 93.2526 8.29784C94.3754 8.33377 94.9413 7.66011 94.9772 6.69004L96.9892 6.75291C96.9174 8.96252 95.3724 10.3548 93.1898 10.2739C91.034 10.2021 89.5879 8.72 89.6598 6.50141L91.6718 6.57327ZM95.3904 20.9357C94.9323 19.9387 93.6928 19.1573 92.6598 19.1213C91.1957 19.0764 90.3245 20.2531 90.2795 21.4836C90.2346 22.8938 91.1508 23.81 92.561 23.8639C93.567 23.8998 94.7077 23.3609 95.3455 22.2292L95.3904 20.9357ZM97.0431 2.41454L93.8904 6.36668L92.4263 6.32177L93.7646 2.31573L97.0431 2.42352V2.41454Z" fill="#C12202"/>
<path d="M106.394 26.8909L106.726 25.2202L107.301 19.0674C107.588 16.0315 107.004 14.8548 106.169 14.774C104.651 14.6303 103.744 18.1872 103.097 20.7471L102.711 24.843L102.783 26.5496L99.4594 26.2352L99.8456 24.5645L100.789 14.4955C100.852 13.8398 100.897 13.3817 100.717 12.7889L103.941 11.6482L103.663 14.6213C104.759 12.7889 106.088 12.1332 107.292 12.25C109.07 12.4117 110.013 14.0374 110.292 15.6812C111.415 13.5344 112.87 12.7709 114.163 12.8967C116.481 13.1123 117.415 15.7979 117.226 17.774L116.445 26.1274L116.463 27.834L113.256 27.5376L113.588 25.8669L114.163 19.7141C114.451 16.6782 113.867 15.5015 113.031 15.4207C111.513 15.277 110.606 18.8339 109.968 21.3669L109.582 25.4897L109.6 27.1963L106.394 26.8999V26.8909Z" fill="#C12202"/>
<path d="M131.166 30.331L131.705 28.7053L134.597 13.3638C132.262 12.8608 129.756 12.7979 129.199 15.771C128.867 17.5494 129.864 19.6692 132.325 20.1363L132.271 20.4148C132.029 21.7172 131.121 22.4806 129.792 22.2291C126.882 21.6812 125.49 18.3489 126.002 15.6632C126.738 11.7649 130.376 9.69905 134.157 10.4176L138.9 11.3158C142.151 11.9266 143.795 11.7111 144.262 9.25893L144.541 9.31282C145.843 9.55534 146.607 10.4625 146.355 11.7919C145.807 14.7021 142.69 14.9626 138.361 14.1452L137.4 13.9656L134.517 29.2442L134.427 30.9508L131.148 30.331H131.166Z" fill="#C12202"/>
<path d="M140.75 28.0137C141.19 29.1274 142.062 30.0436 143.454 30.3849C144.684 30.6814 145.771 30.358 146.714 29.2532L148.43 31.5616C146.786 33.1155 144.756 33.6544 142.61 33.1335C138.029 32.0197 136.663 27.6634 137.562 23.9537C138.424 20.4058 141.442 17.4686 145.798 18.5285C148.619 19.2112 150.891 21.6902 150.11 24.8969C149.822 26.0735 148.924 26.9717 146.364 27.2951L140.75 28.0047V28.0137ZM144.945 24.8879C147.101 24.6723 147.047 24.1513 147.119 23.8459C147.424 22.5884 146.562 21.6363 145.331 21.3399C142.897 20.7471 141.145 22.6064 140.616 24.807C140.571 24.9777 140.535 25.1394 140.517 25.319L144.945 24.8879ZM146.885 17.6123L146.643 15.3309L145.349 17.2351L142.358 16.5075L146.355 13.3099L147.783 13.6602L149.876 18.3399L146.885 17.6123ZM154.996 12.8338L151.107 16.0584L149.679 15.7171L151.807 12.0614L154.987 12.8338H154.996Z" fill="#C12202"/>
<path d="M152.193 20.4327C153.765 20.9088 153.909 20.7112 154.214 19.6872L154.448 18.9147C154.682 18.1423 154.924 17.3429 154.87 16.7321L158.256 16.256L156.595 21.7621L160.727 23.0016L159.981 25.4807L155.849 24.2412L153.981 30.4299C153.514 31.9748 153.505 33.3131 154.439 33.6006C155.373 33.879 156.119 32.9089 156.712 32.3341L158.301 34.7323C156.676 36.1335 155.202 36.6455 153.604 36.1694C151.762 35.6126 150.02 33.6185 151.053 30.1784L152.723 24.6454C153.029 23.6304 153.011 23.3789 151.448 22.9118L152.193 20.4327Z" fill="#C12202"/>
<path d="M3.97011 31.876L0.673661 19.9926L0 18.4207L3.21561 17.5315L3.44914 19.2291L6.73661 31.0856C7.30248 33.1335 9.07197 34.1395 11.1289 33.5646C13.2577 32.9718 14.2367 31.2113 13.6618 29.1634L10.3744 17.3069L9.70072 15.7351L12.6918 14.9087C12.7546 14.7111 12.7906 14.5225 12.7367 14.3249C12.6379 13.8488 12.3055 13.3099 11.1918 13.265L12.3594 11.3338C14.066 11.5763 14.6589 12.5195 14.8744 13.4087C15.1529 14.6123 14.1469 16.1482 13.2127 16.768L16.4463 28.4268C17.4793 32.1365 15.584 35.3161 11.8744 36.3491C8.16477 37.382 5.01204 35.5946 3.97909 31.885L3.97011 31.876Z" fill="#EF4B23"/>
<path d="M26.9372 32.2443L26.7845 30.5377L26.6588 30.0077C26.1917 31.5616 25.2575 32.9179 23.524 33.3221C21.1437 33.8701 18.9341 32.3341 18.0269 28.355L16.8143 23.0286C16.6706 22.3819 16.5628 21.9328 16.2125 21.4298L18.9161 19.3369L20.8563 27.8251C21.3503 29.9808 22.4821 30.9598 23.5509 30.7173C25.1767 30.3491 25.4372 27.6095 25.5809 25.2741L24.6557 21.2412C24.512 20.5944 24.4042 20.1453 24.0539 19.6423L26.7576 17.5495L29.578 29.9L30.1798 31.4988L26.9282 32.2443H26.9372Z" fill="#EF4B23"/>
<path d="M47.4077 28.5436L47.264 27.6364C46.258 28.6334 45.0903 29.1903 43.9227 29.37C39.8897 29.9897 37.2849 26.6394 36.71 22.9477C36.1351 19.2291 37.6172 15.2141 41.7939 14.5764C43.0155 14.3877 44.273 14.6033 45.3598 15.25L45.0275 13.0584L42.1891 13.4985L41.8388 11.226L44.6772 10.7859L44.6053 10.3278C44.5065 9.67212 44.4346 9.22301 44.1203 8.68408L46.9676 6.78885L47.5155 10.3368L48.3688 10.2021L48.7191 12.4745L47.8658 12.6093L49.9856 26.4148L50.4706 28.0586L47.3988 28.5256L47.4077 28.5436ZM45.8897 18.6273C44.9287 17.4956 43.734 17.1004 42.6831 17.253C40.2939 17.6213 39.4765 20.0734 39.8358 22.3729C40.213 24.816 41.9376 27.1424 44.5514 26.7382C45.4586 26.5945 46.285 26.0915 46.8958 25.1573L45.8897 18.6183V18.6273Z" fill="#EF4B23"/>
<path d="M59.3719 26.1184C58.3749 27.0885 57.0725 27.6544 55.815 27.7891C52.7521 28.1125 51.0634 26.0017 50.8119 23.6304C50.5515 21.1154 52.0515 18.295 55.4198 17.9447C56.4797 17.8369 57.6294 18.0614 58.5815 18.5644C58.2941 16.3997 56.8749 15.5375 55.5096 15.6812C54.5126 15.789 53.5425 16.4626 53.0934 17.7561L50.6503 16.2471C51.809 14.0464 53.6054 12.9865 55.4378 12.7979C58.2402 12.5015 61.0336 14.3249 61.339 17.298L62.1564 25.1304L62.5606 26.7921L59.4707 27.1154L59.3629 26.1184H59.3719ZM56.0934 9.34876C56.6324 9.29487 56.9647 8.8278 56.8569 7.76791L58.7432 7.5703C58.9677 9.69008 58.1234 11.0733 56.812 11.2081C55.0964 11.3877 54.9347 9.84278 53.9377 9.95057C53.4796 9.99548 53.1922 10.5164 53.291 11.4955L51.4048 11.6931C51.2611 10.3188 51.5664 8.26192 53.309 8.08228C55.0785 7.89366 55.33 9.4296 56.1024 9.34876H56.0934ZM58.9408 21.9148C58.3569 20.9896 57.0186 20.3788 55.9857 20.4866C54.5306 20.6393 53.821 21.9238 53.9557 23.1543C54.0994 24.5555 55.1413 25.346 56.5426 25.1933C57.5396 25.0855 58.5995 24.4028 59.0755 23.1903L58.9408 21.9058V21.9148Z" fill="#EF4B23"/>
<path d="M63.9439 6.27686C64.9769 6.205 65.7134 6.84274 65.7853 7.87568C65.8661 8.93558 65.2284 9.67211 64.1954 9.75295C63.1625 9.82481 62.4259 9.18708 62.3451 8.12718C62.2732 7.09424 62.911 6.3577 63.9439 6.28584V6.27686ZM63.7553 26.7562L63.8631 25.0495C63.387 18.5375 63.5846 21.1782 63.1086 14.6662C63.0637 14.0105 63.0277 13.5524 62.7583 12.9955L65.7493 11.3338L66.7284 24.843L67.0787 26.5136L63.7553 26.7562Z" fill="#EF4B23"/>
<path d="M75.0908 16.3009C75.0459 13.0494 77.7765 11.3428 80.7136 11.3069C82.7795 11.2799 84.9532 12.1692 86.2736 13.9835L84.1448 16.0854C83.3454 14.747 81.8993 14.1632 80.6956 14.1812C79.4561 14.1991 78.0908 14.8189 78.0998 15.7979C78.1447 18.6992 86.4442 16.1932 86.5161 21.2232C86.561 24.3579 83.7675 26.2082 80.6956 26.2532C78.486 26.2891 76.0878 25.3729 74.6776 23.4328L77.0669 21.4747C77.8932 22.813 79.5908 23.3968 80.8034 23.3789C82.043 23.3609 83.4352 22.7052 83.4172 21.4747C83.3813 18.9776 75.1626 21.3669 75.0908 16.3009Z" fill="#EF4B23"/>
<path d="M95.2467 25.1573C94.1239 25.9837 92.7586 26.3699 91.5011 26.325C88.4292 26.2262 87.037 23.8998 87.1178 21.5196C87.1987 18.9956 89.067 16.4087 92.4622 16.5255C93.5221 16.5614 94.6359 16.9387 95.5072 17.5764C95.5251 15.3937 94.2317 14.3428 92.8574 14.2979C91.8514 14.262 90.8005 14.8009 90.1807 16.0225L87.9711 14.1901C89.4173 12.1691 91.3394 11.3697 93.1808 11.4326C95.9922 11.5224 98.5072 13.7141 98.4084 16.6962L98.1479 24.5645L98.3186 26.2711L95.2107 26.1633L95.2467 25.1573ZM91.6718 6.57327C91.6359 7.55233 92.1658 8.26192 93.2526 8.29784C94.3754 8.33377 94.9413 7.66011 94.9772 6.69004L96.9892 6.75291C96.9174 8.96252 95.3724 10.3548 93.1898 10.2739C91.034 10.2021 89.5879 8.72 89.6598 6.50141L91.6718 6.57327ZM95.3904 20.9357C94.9323 19.9387 93.6928 19.1573 92.6598 19.1213C91.1957 19.0764 90.3245 20.2531 90.2795 21.4836C90.2346 22.8938 91.1508 23.81 92.561 23.8639C93.567 23.8998 94.7077 23.3609 95.3455 22.2292L95.3904 20.9357ZM97.0431 2.41454L93.8904 6.36668L92.4263 6.32177L93.7646 2.31573L97.0431 2.42352V2.41454Z" fill="#EF4B23"/>
<path d="M106.394 26.8909L106.726 25.2202L107.301 19.0674C107.588 16.0315 107.004 14.8548 106.169 14.774C104.651 14.6303 103.744 18.1872 103.097 20.7471L102.711 24.843L102.783 26.5496L99.4594 26.2352L99.8456 24.5645L100.789 14.4955C100.852 13.8398 100.897 13.3817 100.717 12.7889L103.941 11.6482L103.663 14.6213C104.759 12.7889 106.088 12.1332 107.292 12.25C109.07 12.4117 110.013 14.0374 110.292 15.6812C111.415 13.5344 112.87 12.7709 114.163 12.8967C116.481 13.1123 117.415 15.7979 117.226 17.774L116.445 26.1274L116.463 27.834L113.256 27.5376L113.588 25.8669L114.163 19.7141C114.451 16.6782 113.867 15.5015 113.031 15.4207C111.513 15.277 110.606 18.8339 109.968 21.3669L109.582 25.4897L109.6 27.1963L106.394 26.8999V26.8909Z" fill="#EF4B23"/>
<path d="M131.166 30.331L131.705 28.7053L134.597 13.3638C132.262 12.8608 129.756 12.7979 129.199 15.771C128.867 17.5494 129.864 19.6692 132.325 20.1363L132.271 20.4148C132.029 21.7172 131.121 22.4806 129.792 22.2291C126.882 21.6812 125.49 18.3489 126.002 15.6632C126.738 11.7649 130.376 9.69905 134.157 10.4176L138.9 11.3158C142.151 11.9266 143.795 11.7111 144.262 9.25893L144.541 9.31282C145.843 9.55534 146.607 10.4625 146.355 11.7919C145.807 14.7021 142.69 14.9626 138.361 14.1452L137.4 13.9656L134.517 29.2442L134.427 30.9508L131.148 30.331H131.166Z" fill="#EF4B23"/>
<path d="M140.75 28.0137C141.19 29.1274 142.062 30.0436 143.454 30.3849C144.684 30.6814 145.771 30.358 146.714 29.2532L148.43 31.5616C146.786 33.1155 144.756 33.6544 142.61 33.1335C138.029 32.0197 136.663 27.6634 137.562 23.9537C138.424 20.4058 141.442 17.4686 145.798 18.5285C148.619 19.2112 150.891 21.6902 150.11 24.8969C149.822 26.0735 148.924 26.9717 146.364 27.2951L140.75 28.0047V28.0137ZM144.945 24.8879C147.101 24.6723 147.047 24.1513 147.119 23.8459C147.424 22.5884 146.562 21.6363 145.331 21.3399C142.897 20.7471 141.145 22.6064 140.616 24.807C140.571 24.9777 140.535 25.1394 140.517 25.319L144.945 24.8879ZM146.885 17.6123L146.643 15.3309L145.349 17.2351L142.358 16.5075L146.355 13.3099L147.783 13.6602L149.876 18.3399L146.885 17.6123ZM154.996 12.8338L151.107 16.0584L149.679 15.7171L151.807 12.0614L154.987 12.8338H154.996Z" fill="#EF4B23"/>
<path d="M152.193 20.4327C153.765 20.9088 153.909 20.7112 154.214 19.6872L154.448 18.9147C154.682 18.1423 154.924 17.3429 154.87 16.7321L158.256 16.256L156.595 21.7621L160.727 23.0016L159.981 25.4807L155.849 24.2412L153.981 30.4299C153.514 31.9748 153.505 33.3131 154.439 33.6006C155.373 33.879 156.119 32.9089 156.712 32.3341L158.301 34.7323C156.676 36.1335 155.202 36.6455 153.604 36.1694C151.762 35.6126 150.02 33.6185 151.053 30.1784L152.723 24.6454C153.029 23.6304 153.011 23.3789 151.448 22.9118L152.193 20.4327Z" fill="#EF4B23"/>
<path d="M3.97011 30.34L0.673661 18.4567L0 16.8848L3.21561 15.9955L3.44914 17.6932L6.73661 29.5496C7.30248 31.5975 9.07197 32.6035 11.1289 32.0287C13.2577 31.4359 14.2367 29.6754 13.6618 27.6274L10.3744 15.771L9.70072 14.1991L12.6918 13.3728C12.7546 13.1752 12.7906 12.9865 12.7367 12.7889C12.6379 12.3129 12.3055 11.7739 11.1918 11.729L12.3594 9.79787C14.066 10.0404 14.6589 10.9835 14.8744 11.8727C15.1529 13.0763 14.1469 14.6123 13.2127 15.2321L16.4463 26.8909C17.4793 30.6005 15.584 33.7802 11.8744 34.8131C8.16477 35.8461 5.01204 34.0586 3.97909 30.349L3.97011 30.34Z" fill="#FFF400"/>
<path d="M26.9372 30.7173L26.7845 29.0107L26.6588 28.4808C26.1917 30.0347 25.2575 31.391 23.524 31.7952C21.1437 32.3431 18.9341 30.8071 18.0269 26.828L16.8143 21.5016C16.6706 20.8549 16.5628 20.4058 16.2125 19.9028L18.9161 17.81L20.8563 26.2981C21.3503 28.4538 22.4821 29.4329 23.5509 29.1903C25.1767 28.8221 25.4372 26.0825 25.5809 23.7472L24.6557 19.7142C24.512 19.0675 24.4042 18.6184 24.0539 18.1154L26.7576 16.0225L29.578 28.373L30.1798 29.9718L26.9282 30.7173H26.9372Z" fill="#FFF400"/>
<path d="M47.4077 27.0077L47.264 26.1005C46.258 27.0975 45.0903 27.6544 43.9227 27.834C39.8897 28.4538 37.2849 25.1034 36.71 21.4118C36.1351 17.6932 37.6172 13.6782 41.7939 13.0404C43.0155 12.8518 44.273 13.0674 45.3598 13.7141L45.0275 11.5224L42.1891 11.9626L41.8388 9.69008L44.6772 9.24995L44.6053 8.79187C44.5065 8.13617 44.4346 7.68706 44.1203 7.14813L46.9676 5.2529L47.5155 8.80085L48.3688 8.66612L48.7191 10.9386L47.8658 11.0733L49.9856 24.8789L50.4706 26.5226L47.3988 26.9897L47.4077 27.0077ZM45.8897 17.0914C44.9287 15.9596 43.734 15.5644 42.6831 15.7171C40.2939 16.0854 39.4765 18.5375 39.8358 20.8369C40.213 23.2801 41.9376 25.6064 44.5514 25.2022C45.4586 25.0585 46.285 24.5555 46.8958 23.6214L45.8897 17.0824V17.0914Z" fill="#FFF400"/>
<path d="M59.3719 24.5825C58.3749 25.5525 57.0725 26.1184 55.815 26.2531C52.7521 26.5765 51.0634 24.4657 50.8119 22.0944C50.5515 19.5794 52.0515 16.759 55.4198 16.4087C56.4797 16.3009 57.6294 16.5255 58.5815 17.0285C58.2941 14.8638 56.8749 14.0015 55.5096 14.1452C54.5126 14.253 53.5425 14.9267 53.0934 16.2201L50.6503 14.7111C51.809 12.5105 53.6054 11.4506 55.4378 11.2619C58.2402 10.9655 61.0336 12.7889 61.339 15.762L62.1564 23.5944L62.5606 25.2561L59.4707 25.5795L59.3629 24.5825H59.3719ZM56.0934 7.82178C56.6324 7.76789 56.9647 7.30082 56.8569 6.24093L58.7432 6.04332C58.9677 8.16311 58.1234 9.54636 56.812 9.68109C55.0964 9.86073 54.9347 8.3158 53.9377 8.42359C53.4796 8.4685 53.1922 8.98946 53.291 9.96852L51.4048 10.1661C51.2611 8.79186 51.5664 6.73494 53.309 6.5553C55.0785 6.36668 55.33 7.90262 56.1024 7.82178H56.0934ZM58.9408 20.3788C58.3569 19.4537 57.0186 18.8429 55.9857 18.9507C54.5306 19.1034 53.821 20.3878 53.9557 21.6184C54.0994 23.0196 55.1413 23.81 56.5426 23.6573C57.5396 23.5495 58.5995 22.8669 59.0755 21.6543L58.9408 20.3698V20.3788Z" fill="#FFF400"/>
<path d="M63.9439 4.74091C64.9769 4.66905 65.7134 5.30679 65.7853 6.33973C65.8661 7.39963 65.2284 8.13616 64.1954 8.217C63.1625 8.28886 62.4259 7.65113 62.3451 6.59123C62.2732 5.55829 62.911 4.82175 63.9439 4.74989V4.74091ZM63.7553 25.2202L63.8631 23.5136C63.387 17.0015 63.5846 19.6423 63.1086 13.1302C63.0637 12.4745 63.0277 12.0164 62.7583 11.4596L65.7493 9.79786L66.7284 23.307L67.0787 24.9777L63.7553 25.2202Z" fill="#FFF400"/>
<path d="M75.0908 14.765C75.0459 11.5135 77.7765 9.80685 80.7136 9.77092C82.7795 9.74397 84.9532 10.6332 86.2736 12.4476L84.1448 14.5494C83.3454 13.2111 81.8993 12.6272 80.6956 12.6452C79.4561 12.6632 78.0908 13.2829 78.0998 14.262C78.1447 17.1632 86.4442 14.6572 86.5161 19.6872C86.561 22.822 83.7675 24.6723 80.6956 24.7172C78.486 24.7531 76.0878 23.837 74.6776 21.8968L77.0669 19.9387C77.8932 21.277 79.5908 21.8609 80.8034 21.8429C82.043 21.825 83.4352 21.1693 83.4172 19.9387C83.3813 17.4417 75.1626 19.8309 75.0908 14.765Z" fill="#FFF400"/>
<path d="M95.2467 23.6214C94.1239 24.4477 92.7586 24.834 91.5011 24.7891C88.4292 24.6903 87.037 22.3639 87.1178 19.9836C87.1987 17.4596 89.067 14.8728 92.4622 14.9895C93.5221 15.0255 94.6359 15.4027 95.5072 16.0405C95.5251 13.8578 94.2317 12.8069 92.8574 12.762C91.8514 12.726 90.8005 13.265 90.1807 14.4865L87.9711 12.6542C89.4173 10.6332 91.3394 9.83379 93.1808 9.89667C95.9922 9.98649 98.5072 12.1781 98.4084 15.1602L98.1479 23.0286L98.3186 24.7352L95.2107 24.6274L95.2467 23.6214ZM91.6718 5.03732C91.6359 6.01638 92.1658 6.72597 93.2526 6.76189C94.3754 6.79782 94.9413 6.12416 94.9772 5.15409L96.9892 5.21697C96.9174 7.42657 95.3724 8.81881 93.1898 8.73797C91.034 8.66611 89.5879 7.18406 89.6598 4.96547L91.6718 5.03732ZM95.3904 19.3998C94.9323 18.4028 93.6928 17.6213 92.6598 17.5854C91.1957 17.5405 90.3245 18.7171 90.2795 19.9477C90.2346 21.3579 91.1508 22.2741 92.561 22.328C93.567 22.3639 94.7077 21.825 95.3455 20.6932L95.3904 19.3998ZM97.0431 0.878589L93.8904 4.83073L92.4263 4.78582L93.7646 0.779785L97.0431 0.887572V0.878589Z" fill="#FFF400"/>
<path d="M106.394 25.3549L106.726 23.6843L107.301 17.5315C107.588 14.4955 107.004 13.3189 106.169 13.238C104.651 13.0943 103.744 16.6512 103.097 19.2111L102.711 23.307L102.783 25.0136L99.4594 24.6992L99.8456 23.0286L100.789 12.9596C100.852 12.3039 100.897 11.8458 100.717 11.253L103.941 10.1122L103.663 13.0853C104.759 11.253 106.088 10.5973 107.292 10.714C109.07 10.8757 110.013 12.5015 110.292 14.1452C111.415 11.9985 112.87 11.235 114.163 11.3607C116.481 11.5763 117.415 14.262 117.226 16.2381L116.445 24.5914L116.463 26.2981L113.256 26.0016L113.588 24.331L114.163 18.1782C114.451 15.1422 113.867 13.9656 113.031 13.8847C111.513 13.741 110.606 17.2979 109.968 19.8309L109.582 23.9537L109.6 25.6603L106.394 25.3639V25.3549Z" fill="#FFF400"/>
<path d="M131.166 28.7951L131.705 27.1693L134.597 11.8278C132.262 11.3248 129.756 11.262 129.199 14.235C128.867 16.0135 129.864 18.1333 132.325 18.6004L132.271 18.8788C132.029 20.1812 131.121 20.9447 129.792 20.6932C126.882 20.1453 125.49 16.8129 126.002 14.1273C126.738 10.229 130.376 8.16312 134.157 8.88169L138.9 9.7799C142.151 10.3907 143.795 10.1751 144.262 7.72299L144.541 7.77689C145.843 8.0194 146.607 8.9266 146.355 10.256C145.807 13.1662 142.69 13.4267 138.361 12.6093L137.4 12.4296L134.517 27.7083L134.427 29.4149L131.148 28.7951H131.166Z" fill="#FFF400"/>
<path d="M140.75 26.4777C141.19 27.5915 142.062 28.5077 143.454 28.849C144.684 29.1454 145.771 28.8221 146.714 27.7173L148.43 30.0257C146.786 31.5796 144.756 32.1185 142.61 31.5975C138.029 30.4838 136.663 26.1274 137.562 22.4178C138.424 18.8698 141.442 15.9327 145.798 16.9926C148.619 17.6752 150.891 20.1543 150.11 23.3609C149.822 24.5376 148.924 25.4358 146.364 25.7591L140.75 26.4687V26.4777ZM144.945 23.3519C147.101 23.1364 147.047 22.6154 147.119 22.31C147.424 21.0525 146.562 20.1004 145.331 19.804C142.897 19.2112 141.145 21.0705 140.616 23.2711C140.571 23.4418 140.535 23.6034 140.517 23.7831L144.945 23.3519ZM146.885 16.0764L146.643 13.7949L145.349 15.6991L142.358 14.9716L146.355 11.7739L147.783 12.1242L149.876 16.8039L146.885 16.0764ZM154.996 11.2979L151.107 14.5225L149.679 14.1812L151.807 10.5254L154.987 11.2979H154.996Z" fill="#FFF400"/>
<path d="M152.193 18.8968C153.765 19.3728 153.909 19.1752 154.214 18.1513L154.448 17.3788C154.682 16.6063 154.924 15.8069 154.87 15.1961L158.256 14.7201L156.595 20.2261L160.727 21.4657L159.981 23.9447L155.849 22.7052L153.981 28.8939C153.514 30.4388 153.505 31.7772 154.439 32.0646C155.373 32.343 156.119 31.373 156.712 30.7981L158.301 33.1964C156.676 34.5976 155.202 35.1095 153.604 34.6335C151.762 34.0766 150.02 32.0826 151.053 28.6424L152.723 23.1094C153.029 22.0944 153.011 21.8429 151.448 21.3758L152.193 18.8968Z" fill="#FFF400"/>
</svg>
