<svg width="172" height="36" viewBox="0 0 172 36" fill="none" xmlns="http://www.w3.org/2000/svg">
<path d="M11.9633 34.1515L11.7297 32.4538L7.54407 17.4806L6.65483 17.7321C4.13983 18.4327 3.40329 20.31 3.86138 21.9447C4.34642 23.6873 6.18776 25.1424 8.59497 24.4687L8.67581 24.7472C9.0351 26.0226 8.55905 27.1095 7.25664 27.4687C4.4093 28.2682 1.67872 25.8879 0.95117 23.2651C-0.117706 19.4477 2.22663 15.9806 5.93626 14.9476L9.61894 13.9237L9.59199 14.0494L19.4274 27.7741L20.8556 10.7799L23.8467 9.94458L24.0802 11.6422L28.5803 27.7562L29.2539 29.3281L26.0383 30.2263L25.8048 28.5286L23.0652 18.7022L22.0053 31.358L19.0682 32.1754L11.8016 22.0884L14.4873 31.6993L15.1609 33.2712L11.9453 34.1694L11.9633 34.1515Z" fill="#C12202"/>
<path d="M28.4904 22.5466C27.7179 18.801 29.0832 14.5614 33.6102 13.6363C34.8767 13.3758 36.0354 13.4566 37.0414 13.78C37.6163 13.3129 38.0295 12.7291 37.9486 12.1901C37.8768 11.7051 37.5893 11.1482 36.4755 11.0225L37.769 9.17215C39.4576 9.53143 39.9786 10.5105 40.1403 11.4177C40.3109 12.5315 39.4127 13.8608 38.5145 14.4806C40.2391 15.5944 41.3978 17.5255 41.8199 19.5825C42.5744 23.2382 41.0744 27.361 36.6193 28.2772C32.2539 29.1754 29.2269 26.1304 28.4904 22.5555V22.5466ZM32.5953 12.6662C32.218 10.8338 33.8528 10.3578 33.6372 9.31586C33.5384 8.83981 33.0713 8.55238 32.5953 8.65119C32.1731 8.74101 31.7689 9.05538 31.6252 9.63922L30.0084 8.62424C30.4575 7.50147 31.4096 6.87272 32.3348 6.67511C33.745 6.38768 35.3079 7.00745 35.6582 8.72304C36.0264 10.5285 33.9695 11.2111 34.1402 12.3518L32.5953 12.6662ZM31.5354 21.6573C31.9934 23.9118 33.6462 25.9508 36.0444 25.4568C38.4336 24.9628 39.1881 22.4657 38.7211 20.2112C38.263 17.9567 36.5564 15.9627 34.1941 16.4477C31.8318 16.9327 31.0773 19.4028 31.5354 21.6573Z" fill="#C12202"/>
<path d="M51.0626 25.4119V23.6963C50.1195 17.2382 49.5985 13.5914 48.6734 7.13323C48.5835 6.47754 48.5117 6.01945 48.2063 5.4895L51.0716 3.62122L53.892 23.2831L54.3591 24.9269L51.0626 25.4029V25.4119Z" fill="#C12202"/>
<path d="M54.5476 17.813C54.1344 14.0135 55.8949 9.91769 60.4938 9.42367C65.0118 8.93864 67.6975 12.4057 68.0927 16.1244C68.4879 19.843 66.6106 23.8041 62.0926 24.2891C57.6644 24.7652 54.9338 21.4508 54.5386 17.822L54.5476 17.813ZM61.1674 8.19312L60.1614 6.13621L59.5956 8.36378L56.5416 8.69612L59.2183 4.3308L60.6734 4.1781L64.2214 7.86976L61.1674 8.2021V8.19312ZM57.6554 17.2202C57.8979 19.5106 59.3531 21.6933 61.7782 21.4328C64.2034 21.1723 65.1914 18.7561 64.9399 16.4657C64.6974 14.1752 63.1884 12.0285 60.7902 12.289C58.392 12.5495 57.4039 14.9387 57.6554 17.2202ZM62.2363 25.6275C63.2693 25.5197 64.0238 26.1305 64.1405 27.1544C64.2573 28.2143 63.6465 28.9688 62.6136 29.0856C61.5896 29.1934 60.8261 28.5826 60.7094 27.5317C60.6016 26.4987 61.2124 25.7442 62.2363 25.6275Z" fill="#C12202"/>
<path d="M80.8654 10.8069L78.4761 12.8728C77.8114 11.759 76.7605 11.0135 75.3234 11.0944C72.8263 11.2381 71.8114 13.6543 71.9371 15.8369C72.0718 18.2801 73.6347 20.4358 76.2485 20.2831C77.5689 20.2112 78.7905 19.4747 79.3564 18.2082L81.6738 19.9238C80.551 21.8909 78.4851 23.0137 76.2665 23.1394C72.7635 23.337 69.0628 20.9568 68.7754 15.9627C68.5688 12.289 70.7694 8.48057 75.1617 8.22907C77.7126 8.08535 79.6528 9.18118 80.8654 10.8159V10.8069Z" fill="#C12202"/>
<path d="M89.8115 12.6752C89.8744 9.42363 92.6678 7.81583 95.596 7.86972C97.6619 7.90565 99.7997 8.86674 101.057 10.735L98.8655 12.765C98.12 11.3997 96.6919 10.771 95.4793 10.744C94.2397 10.7171 92.8565 11.3009 92.8295 12.271C92.7756 15.1722 101.156 12.9446 101.057 17.9746C100.994 21.1094 98.147 22.8609 95.0661 22.807C92.8565 22.7621 90.4852 21.7741 89.1469 19.789L91.599 17.9118C92.3804 19.277 94.0601 19.9148 95.2727 19.9327C96.5122 19.9597 97.9314 19.3489 97.9494 18.1183C97.9943 15.6213 89.7037 17.7321 89.8025 12.6752H89.8115Z" fill="#C12202"/>
<path d="M109.653 22.1963C108.503 22.9867 107.129 23.319 105.872 23.2382C102.8 23.0316 101.488 20.6693 101.65 18.289C101.821 15.7651 103.77 13.2501 107.156 13.4746C108.216 13.5465 109.312 13.9686 110.165 14.6243C110.255 12.4417 109.006 11.3458 107.623 11.256C106.617 11.1842 105.548 11.6961 104.893 12.8908L102.746 10.9866C104.264 9.01049 106.213 8.28293 108.045 8.3997C110.857 8.58833 113.291 10.8518 113.093 13.8339L112.563 21.6933L112.68 23.3999L109.581 23.1933L109.644 22.1873L109.653 22.1963ZM106.698 3.50443C106.635 4.4745 107.129 5.20206 108.225 5.27391C109.348 5.34577 109.932 4.69906 110.003 3.72L112.006 3.85474C111.863 6.06434 110.273 7.3937 108.09 7.24999C105.943 7.10627 104.542 5.57033 104.695 3.36072L106.698 3.49545V3.50443ZM109.94 17.9837C109.518 16.9777 108.306 16.1513 107.273 16.0794C105.809 15.9806 104.902 17.1303 104.812 18.3609C104.722 19.7621 105.602 20.7142 107.012 20.813C108.018 20.8759 109.168 20.3819 109.851 19.2771L109.94 17.9837Z" fill="#C12202"/>
<path d="M113.92 23.5166L114.342 21.8639L115.518 11.8129C115.59 11.1572 115.644 10.6991 115.483 10.0973L118.734 9.02844L118.402 11.8848C119.569 10.3398 120.962 9.57635 122.471 9.756C124.896 10.0434 126.468 12.2171 125.992 16.277L125.192 23.1304L125.219 24.846L121.905 24.4598L122.327 22.7981L123.144 15.8369C123.405 13.6363 122.659 12.3339 121.572 12.2081C120.001 12.0195 118.797 14.1932 117.881 16.2591L117.189 22.1963L117.225 23.9119L113.911 23.5256L113.92 23.5166Z" fill="#C12202"/>
<path d="M141.261 33.3162L142.546 26.9748C141.396 27.5946 140.129 27.7742 138.89 27.5227C134.749 26.6784 133.465 22.6095 134.21 18.9178C134.956 15.2531 137.722 12.0375 141.719 12.8459C142.905 13.0884 144.037 13.7262 145.016 14.804L145.043 14.6962L148.142 13.8609L144.082 33.8821L143.974 35.5887L140.704 34.924L141.27 33.3072L141.261 33.3162ZM144.342 18.1094C143.92 16.8519 143.103 15.6843 141.719 15.4058C139.806 15.0196 137.893 16.6543 137.282 19.6364C136.815 21.9179 137.516 24.4059 139.878 24.882C140.947 25.0976 142.186 24.7652 143.219 23.5975L144.333 18.1094H144.342Z" fill="#C12202"/>
<path d="M154.285 30.882L154.941 29.3011L155.085 28.7712C153.944 29.9298 152.489 30.7023 150.773 30.2442C148.411 29.6155 147.172 27.2352 148.213 23.292L149.615 18.0105C149.785 17.3728 149.902 16.9237 149.83 16.3129L153.199 15.7201L150.971 24.1364C150.405 26.2741 150.953 27.6663 152.013 27.9538C153.621 28.3849 155.13 26.0765 156.342 24.0735L157.402 20.0764C157.573 19.4387 157.69 18.9896 157.618 18.3788L160.986 17.786L157.744 30.0376L157.528 31.7353L154.303 30.882H154.285Z" fill="#C12202"/>
<path d="M166.312 33.5586C165.001 34.0347 163.582 34.0167 162.387 33.6215C159.468 32.6514 158.794 30.0376 159.54 27.7741C160.339 25.3759 162.863 23.4268 166.079 24.4867C167.085 24.819 168.046 25.5017 168.702 26.355C169.339 24.2621 168.396 22.8878 167.085 22.4567C166.133 22.1423 164.965 22.3579 164.031 23.3549L162.423 20.9746C164.381 19.4477 166.456 19.2231 168.208 19.798C170.884 20.6872 172.681 23.4897 171.738 26.328L169.259 33.8012L168.944 35.4808L165.998 34.5018L166.312 33.5497V33.5586ZM167.642 29.5436C167.489 28.4658 166.519 27.352 165.54 27.0286C164.148 26.5705 162.98 27.4508 162.585 28.6274C162.145 29.9658 162.765 31.1065 164.103 31.5556C165.055 31.87 166.304 31.6814 167.238 30.7742L167.642 29.5436ZM170.229 14.9836L170.103 19.2141L168.711 18.7561L167.121 13.9596L170.229 14.9925V14.9836Z" fill="#C12202"/>
<path d="M11.9633 32.6156L11.7297 30.9179L7.54407 15.9447L6.65483 16.1962C4.13983 16.8968 3.40329 18.7741 3.86138 20.4088C4.34642 22.1514 6.18776 23.6065 8.59497 22.9328L8.67581 23.2113C9.0351 24.4867 8.55905 25.5736 7.25664 25.9329C4.4093 26.7323 1.67872 24.352 0.95117 21.7292C-0.117706 17.9118 2.22663 14.4447 5.93626 13.4117L9.61894 12.3878L9.59199 12.5135L19.4274 26.2383L20.8556 9.24403L23.8467 8.40869L24.0802 10.1063L28.5803 26.2203L29.2539 27.7922L26.0383 28.6904L25.8048 26.9928L23.0652 17.1663L22.0053 29.8221L19.0682 30.6395L11.8016 20.5526L14.4873 30.1634L15.1609 31.7353L11.9453 32.6335L11.9633 32.6156Z" fill="#C12202"/>
<path d="M28.4904 21.0196C27.7179 17.274 29.0832 13.0345 33.6102 12.1093C34.8767 11.8488 36.0354 11.9297 37.0414 12.253C37.6163 11.7859 38.0295 11.2021 37.9486 10.6632C37.8768 10.1781 37.5893 9.62124 36.4755 9.49549L37.769 7.64517C39.4576 8.00446 39.9786 8.98351 40.1403 9.89071C40.3109 11.0045 39.4127 12.3339 38.5145 12.9536C40.2391 14.0674 41.3978 15.9986 41.8199 18.0555C42.5744 21.7112 41.0744 25.834 36.6193 26.7502C32.2539 27.6484 29.2269 24.6035 28.4904 21.0286V21.0196ZM32.5953 11.1392C32.218 9.30687 33.8528 8.83081 33.6372 7.78888C33.5384 7.31283 33.0713 7.0254 32.5953 7.12421C32.1731 7.21403 31.7689 7.5284 31.6252 8.11224L30.0084 7.09726C30.4575 5.97449 31.4096 5.34574 32.3348 5.14813C33.745 4.86071 35.3079 5.48047 35.6582 7.19606C36.0264 9.00147 33.9695 9.68412 34.1402 10.8249L32.5953 11.1392ZM31.5354 20.1304C31.9934 22.3849 33.6462 24.4238 36.0444 23.9298C38.4336 23.4358 39.1881 20.9387 38.7211 18.6842C38.263 16.4297 36.5564 14.4357 34.1941 14.9207C31.8318 15.4057 31.0773 17.8758 31.5354 20.1304Z" fill="#C12202"/>
<path d="M51.0626 23.8759V22.1603C50.1195 15.7021 49.5985 12.0554 48.6734 5.59722C48.5835 4.94153 48.5117 4.48344 48.2063 3.95349L51.0716 2.08521L53.892 21.7471L54.3591 23.3909L51.0626 23.8669V23.8759Z" fill="#C12202"/>
<path d="M54.5476 16.277C54.1344 12.4776 55.8949 8.38173 60.4938 7.88771C65.0118 7.40268 67.6975 10.8698 68.0927 14.5884C68.4879 18.307 66.6106 22.2681 62.0926 22.7532C57.6644 23.2292 54.9338 19.9148 54.5386 16.286L54.5476 16.277ZM61.1674 6.66614L60.1614 4.60923L59.5956 6.8368L56.5416 7.16914L59.2183 2.80382L60.6734 2.65112L64.2214 6.34279L61.1674 6.67513V6.66614ZM57.6554 15.6842C57.8979 17.9747 59.3531 20.1573 61.7782 19.8968C64.2034 19.6364 65.1914 17.2202 64.9399 14.9297C64.6974 12.6393 63.1884 10.4925 60.7902 10.753C58.392 11.0135 57.4039 13.4028 57.6554 15.6842ZM62.2363 24.0915C63.2693 23.9837 64.0238 24.5945 64.1405 25.6185C64.2573 26.6784 63.6465 27.4329 62.6136 27.5496C61.5896 27.6574 60.8261 27.0466 60.7094 25.9957C60.6016 24.9628 61.2124 24.2083 62.2363 24.0915Z" fill="#C12202"/>
<path d="M80.8654 9.27996L78.4761 11.3459C77.8114 10.2321 76.7605 9.48655 75.3234 9.56739C72.8263 9.71111 71.8114 12.1273 71.9371 14.31C72.0718 16.7531 73.6347 18.9088 76.2485 18.7561C77.5689 18.6843 78.7905 17.9477 79.3564 16.6813L81.6738 18.3968C80.551 20.3639 78.4851 21.4867 76.2665 21.6125C72.7635 21.8101 69.0628 19.4298 68.7754 14.4357C68.5688 10.762 70.7694 6.95359 75.1617 6.70209C77.7126 6.55838 79.6528 7.6542 80.8654 9.28895V9.27996Z" fill="#C12202"/>
<path d="M89.8115 11.1393C89.8744 7.88774 92.6678 6.27994 95.596 6.33383C97.6619 6.36976 99.7997 7.33085 101.057 9.19913L98.8655 11.2291C98.12 9.86381 96.6919 9.23506 95.4793 9.20812C94.2397 9.18117 92.8565 9.76501 92.8295 10.7351C92.7756 13.6363 101.156 11.4087 101.057 16.4387C100.994 19.5735 98.147 21.325 95.0661 21.2711C92.8565 21.2262 90.4852 20.2382 89.1469 18.2531L91.599 16.3759C92.3804 17.7412 94.0601 18.3789 95.2727 18.3969C96.5122 18.4238 97.9314 17.813 97.9494 16.5825C97.9943 14.0854 89.7037 16.1962 89.8025 11.1393H89.8115Z" fill="#C12202"/>
<path d="M109.653 20.6603C108.503 21.4507 107.129 21.7831 105.872 21.7022C102.8 21.4957 101.488 19.1334 101.65 16.7531C101.821 14.2291 103.77 11.7141 107.156 11.9387C108.216 12.0105 109.312 12.4327 110.165 13.0884C110.255 10.9057 109.006 9.80989 107.623 9.72007C106.617 9.64821 105.548 10.1602 104.893 11.3548L102.746 9.4506C104.264 7.47453 106.213 6.74697 108.045 6.86374C110.857 7.05237 113.291 9.31587 113.093 12.2979L112.563 20.1573L112.68 21.8639L109.581 21.6573L109.644 20.6513L109.653 20.6603ZM106.698 1.97745C106.635 2.94753 107.129 3.67508 108.225 3.74694C109.348 3.8188 109.932 3.17208 110.003 2.19303L112.006 2.32776C111.863 4.53737 110.273 5.86672 108.09 5.72301C105.943 5.5793 104.542 4.04335 104.695 1.83374L106.698 1.96847V1.97745ZM109.94 16.4477C109.518 15.4417 108.306 14.6153 107.273 14.5435C105.809 14.4447 104.902 15.5944 104.812 16.8249C104.722 18.2262 105.602 19.1783 107.012 19.2771C108.018 19.3399 109.168 18.8459 109.851 17.7411L109.94 16.4477Z" fill="#C12202"/>
<path d="M113.92 21.9808L114.342 20.328L115.518 10.277C115.59 9.62132 115.644 9.16323 115.483 8.56143L118.734 7.49255L118.402 10.3489C119.569 8.80395 120.962 8.04046 122.471 8.22011C124.896 8.50753 126.468 10.6812 125.992 14.7411L125.192 21.5945L125.219 23.3101L121.905 22.9239L122.327 21.2622L123.144 14.301C123.405 12.1004 122.659 10.798 121.572 10.6722C120.001 10.4836 118.797 12.6573 117.881 14.7232L117.189 20.6604L117.225 22.376L113.911 21.9897L113.92 21.9808Z" fill="#C12202"/>
<path d="M141.261 31.7802L142.546 25.4388C141.396 26.0586 140.129 26.2382 138.89 25.9867C134.749 25.1424 133.465 21.0735 134.21 17.3818C134.956 13.7171 137.722 10.5015 141.719 11.3099C142.905 11.5524 144.037 12.1901 145.016 13.268L145.043 13.1602L148.142 12.3249L144.082 32.3461L143.974 34.0527L140.704 33.388L141.27 31.7712L141.261 31.7802ZM144.342 16.5734C143.92 15.3159 143.103 14.1483 141.719 13.8698C139.806 13.4836 137.893 15.1183 137.282 18.1004C136.815 20.3819 137.516 22.8699 139.878 23.346C140.947 23.5615 142.186 23.2292 143.219 22.0615L144.333 16.5734H144.342Z" fill="#C12202"/>
<path d="M154.285 29.3461L154.941 27.7652L155.085 27.2353C153.944 28.394 152.489 29.1664 150.773 28.7083C148.411 28.0796 147.172 25.6993 148.213 21.7562L149.615 16.4747C149.785 15.8369 149.902 15.3878 149.83 14.777L153.199 14.1842L150.971 22.6005C150.405 24.7382 150.953 26.1305 152.013 26.4179C153.621 26.849 155.13 24.5406 156.342 22.5376L157.402 18.5405C157.573 17.9028 157.69 17.4537 157.618 16.8429L160.986 16.2501L157.744 28.5017L157.528 30.1994L154.303 29.3461H154.285Z" fill="#C12202"/>
<path d="M166.312 32.0227C165.001 32.4987 163.582 32.4808 162.387 32.0856C159.468 31.1155 158.794 28.5017 159.54 26.2382C160.339 23.8399 162.863 21.8908 166.079 22.9507C167.085 23.283 168.046 23.9657 168.702 24.819C169.339 22.7262 168.396 21.3519 167.085 20.9207C166.133 20.6064 164.965 20.8219 164.031 21.819L162.423 19.4387C164.381 17.9117 166.456 17.6872 168.208 18.262C170.884 19.1513 172.681 21.9537 171.738 24.792L169.259 32.2652L168.944 33.9449L165.998 32.9658L166.312 32.0137V32.0227ZM167.642 28.0077C167.489 26.9298 166.519 25.816 165.54 25.4927C164.148 25.0346 162.98 25.9148 162.585 27.0915C162.145 28.4298 162.765 29.5706 164.103 30.0197C165.055 30.334 166.304 30.1454 167.238 29.2382L167.642 28.0077ZM170.229 13.4566L170.103 17.6872L168.711 17.2291L167.121 12.4326L170.229 13.4656V13.4566Z" fill="#C12202"/>
<path d="M11.9633 32.6156L11.7297 30.9179L7.54407 15.9447L6.65483 16.1962C4.13983 16.8968 3.40329 18.7741 3.86138 20.4088C4.34642 22.1514 6.18776 23.6065 8.59497 22.9328L8.67581 23.2113C9.0351 24.4867 8.55905 25.5736 7.25664 25.9329C4.4093 26.7323 1.67872 24.352 0.95117 21.7292C-0.117706 17.9118 2.22663 14.4447 5.93626 13.4117L9.61894 12.3878L9.59199 12.5135L19.4274 26.2383L20.8556 9.24403L23.8467 8.40869L24.0802 10.1063L28.5803 26.2203L29.2539 27.7922L26.0383 28.6904L25.8048 26.9928L23.0652 17.1663L22.0053 29.8221L19.0682 30.6395L11.8016 20.5526L14.4873 30.1634L15.1609 31.7353L11.9453 32.6335L11.9633 32.6156Z" fill="#EF4B23"/>
<path d="M28.4904 21.0196C27.7179 17.274 29.0832 13.0345 33.6102 12.1093C34.8767 11.8488 36.0354 11.9297 37.0414 12.253C37.6163 11.7859 38.0295 11.2021 37.9486 10.6632C37.8768 10.1781 37.5893 9.62124 36.4755 9.49549L37.769 7.64517C39.4576 8.00446 39.9786 8.98351 40.1403 9.89071C40.3109 11.0045 39.4127 12.3339 38.5145 12.9536C40.2391 14.0674 41.3978 15.9986 41.8199 18.0555C42.5744 21.7112 41.0744 25.834 36.6193 26.7502C32.2539 27.6484 29.2269 24.6035 28.4904 21.0286V21.0196ZM32.5953 11.1392C32.218 9.30687 33.8528 8.83081 33.6372 7.78888C33.5384 7.31283 33.0713 7.0254 32.5953 7.12421C32.1731 7.21403 31.7689 7.5284 31.6252 8.11224L30.0084 7.09726C30.4575 5.97449 31.4096 5.34574 32.3348 5.14813C33.745 4.86071 35.3079 5.48047 35.6582 7.19606C36.0264 9.00147 33.9695 9.68412 34.1402 10.8249L32.5953 11.1392ZM31.5354 20.1304C31.9934 22.3849 33.6462 24.4238 36.0444 23.9298C38.4336 23.4358 39.1881 20.9387 38.7211 18.6842C38.263 16.4297 36.5564 14.4357 34.1941 14.9207C31.8318 15.4057 31.0773 17.8758 31.5354 20.1304Z" fill="#EF4B23"/>
<path d="M51.0626 23.8759V22.1603C50.1195 15.7021 49.5985 12.0554 48.6734 5.59722C48.5835 4.94153 48.5117 4.48344 48.2063 3.95349L51.0716 2.08521L53.892 21.7471L54.3591 23.3909L51.0626 23.8669V23.8759Z" fill="#EF4B23"/>
<path d="M54.5476 16.277C54.1344 12.4776 55.8949 8.38173 60.4938 7.88771C65.0118 7.40268 67.6975 10.8698 68.0927 14.5884C68.4879 18.307 66.6106 22.2681 62.0926 22.7532C57.6644 23.2292 54.9338 19.9148 54.5386 16.286L54.5476 16.277ZM61.1674 6.66614L60.1614 4.60923L59.5956 6.8368L56.5416 7.16914L59.2183 2.80382L60.6734 2.65112L64.2214 6.34279L61.1674 6.67513V6.66614ZM57.6554 15.6842C57.8979 17.9747 59.3531 20.1573 61.7782 19.8968C64.2034 19.6364 65.1914 17.2202 64.9399 14.9297C64.6974 12.6393 63.1884 10.4925 60.7902 10.753C58.392 11.0135 57.4039 13.4028 57.6554 15.6842ZM62.2363 24.0915C63.2693 23.9837 64.0238 24.5945 64.1405 25.6185C64.2573 26.6784 63.6465 27.4329 62.6136 27.5496C61.5896 27.6574 60.8261 27.0466 60.7094 25.9957C60.6016 24.9628 61.2124 24.2083 62.2363 24.0915Z" fill="#EF4B23"/>
<path d="M80.8654 9.27996L78.4761 11.3459C77.8114 10.2321 76.7605 9.48655 75.3234 9.56739C72.8263 9.71111 71.8114 12.1273 71.9371 14.31C72.0718 16.7531 73.6347 18.9088 76.2485 18.7561C77.5689 18.6843 78.7905 17.9477 79.3564 16.6813L81.6738 18.3968C80.551 20.3639 78.4851 21.4867 76.2665 21.6125C72.7635 21.8101 69.0628 19.4298 68.7754 14.4357C68.5688 10.762 70.7694 6.95359 75.1617 6.70209C77.7126 6.55838 79.6528 7.6542 80.8654 9.28895V9.27996Z" fill="#EF4B23"/>
<path d="M89.8115 11.1393C89.8744 7.88774 92.6678 6.27994 95.596 6.33383C97.6619 6.36976 99.7997 7.33085 101.057 9.19913L98.8655 11.2291C98.12 9.86381 96.6919 9.23506 95.4793 9.20812C94.2397 9.18117 92.8565 9.76501 92.8295 10.7351C92.7756 13.6363 101.156 11.4087 101.057 16.4387C100.994 19.5735 98.147 21.325 95.0661 21.2711C92.8565 21.2262 90.4852 20.2382 89.1469 18.2531L91.599 16.3759C92.3804 17.7412 94.0601 18.3789 95.2727 18.3969C96.5122 18.4238 97.9314 17.813 97.9494 16.5825C97.9943 14.0854 89.7037 16.1962 89.8025 11.1393H89.8115Z" fill="#EF4B23"/>
<path d="M109.653 20.6603C108.503 21.4507 107.129 21.7831 105.872 21.7022C102.8 21.4957 101.488 19.1334 101.65 16.7531C101.821 14.2291 103.77 11.7141 107.156 11.9387C108.216 12.0105 109.312 12.4327 110.165 13.0884C110.255 10.9057 109.006 9.80989 107.623 9.72007C106.617 9.64821 105.548 10.1602 104.893 11.3548L102.746 9.4506C104.264 7.47453 106.213 6.74697 108.045 6.86374C110.857 7.05237 113.291 9.31587 113.093 12.2979L112.563 20.1573L112.68 21.8639L109.581 21.6573L109.644 20.6513L109.653 20.6603ZM106.698 1.97745C106.635 2.94753 107.129 3.67508 108.225 3.74694C109.348 3.8188 109.932 3.17208 110.003 2.19303L112.006 2.32776C111.863 4.53737 110.273 5.86672 108.09 5.72301C105.943 5.5793 104.542 4.04335 104.695 1.83374L106.698 1.96847V1.97745ZM109.94 16.4477C109.518 15.4417 108.306 14.6153 107.273 14.5435C105.809 14.4447 104.902 15.5944 104.812 16.8249C104.722 18.2262 105.602 19.1783 107.012 19.2771C108.018 19.3399 109.168 18.8459 109.851 17.7411L109.94 16.4477Z" fill="#EF4B23"/>
<path d="M113.92 21.9808L114.342 20.328L115.518 10.277C115.59 9.62132 115.644 9.16323 115.483 8.56143L118.734 7.49255L118.402 10.3489C119.569 8.80395 120.962 8.04046 122.471 8.22011C124.896 8.50753 126.468 10.6812 125.992 14.7411L125.192 21.5945L125.219 23.3101L121.905 22.9239L122.327 21.2622L123.144 14.301C123.405 12.1004 122.659 10.798 121.572 10.6722C120.001 10.4836 118.797 12.6573 117.881 14.7232L117.189 20.6604L117.225 22.376L113.911 21.9897L113.92 21.9808Z" fill="#EF4B23"/>
<path d="M141.261 31.7802L142.546 25.4388C141.396 26.0586 140.129 26.2382 138.89 25.9867C134.749 25.1424 133.465 21.0735 134.21 17.3818C134.956 13.7171 137.722 10.5015 141.719 11.3099C142.905 11.5524 144.037 12.1901 145.016 13.268L145.043 13.1602L148.142 12.3249L144.082 32.3461L143.974 34.0527L140.704 33.388L141.27 31.7712L141.261 31.7802ZM144.342 16.5734C143.92 15.3159 143.103 14.1483 141.719 13.8698C139.806 13.4836 137.893 15.1183 137.282 18.1004C136.815 20.3819 137.516 22.8699 139.878 23.346C140.947 23.5615 142.186 23.2292 143.219 22.0615L144.333 16.5734H144.342Z" fill="#EF4B23"/>
<path d="M154.285 29.3461L154.941 27.7652L155.085 27.2353C153.944 28.394 152.489 29.1664 150.773 28.7083C148.411 28.0796 147.172 25.6993 148.213 21.7562L149.615 16.4747C149.785 15.8369 149.902 15.3878 149.83 14.777L153.199 14.1842L150.971 22.6005C150.405 24.7382 150.953 26.1305 152.013 26.4179C153.621 26.849 155.13 24.5406 156.342 22.5376L157.402 18.5405C157.573 17.9028 157.69 17.4537 157.618 16.8429L160.986 16.2501L157.744 28.5017L157.528 30.1994L154.303 29.3461H154.285Z" fill="#EF4B23"/>
<path d="M166.312 32.0227C165.001 32.4987 163.582 32.4808 162.387 32.0856C159.468 31.1155 158.794 28.5017 159.54 26.2382C160.339 23.8399 162.863 21.8908 166.079 22.9507C167.085 23.283 168.046 23.9657 168.702 24.819C169.339 22.7262 168.396 21.3519 167.085 20.9207C166.133 20.6064 164.965 20.8219 164.031 21.819L162.423 19.4387C164.381 17.9117 166.456 17.6872 168.208 18.262C170.884 19.1513 172.681 21.9537 171.738 24.792L169.259 32.2652L168.944 33.9449L165.998 32.9658L166.312 32.0137V32.0227ZM167.642 28.0077C167.489 26.9298 166.519 25.816 165.54 25.4927C164.148 25.0346 162.98 25.9148 162.585 27.0915C162.145 28.4298 162.765 29.5706 164.103 30.0197C165.055 30.334 166.304 30.1454 167.238 29.2382L167.642 28.0077ZM170.229 13.4566L170.103 17.6872L168.711 17.2291L167.121 12.4326L170.229 13.4656V13.4566Z" fill="#EF4B23"/>
<path d="M11.9633 31.0797L11.7297 29.3821L7.54407 14.4088L6.65483 14.6603C4.13983 15.3609 3.40329 17.2382 3.86138 18.873C4.34642 20.6155 6.18776 22.0706 8.59497 21.3969L8.67581 21.6754C9.0351 22.9508 8.55905 24.0377 7.25664 24.397C4.4093 25.1964 1.67872 22.8161 0.95117 20.1933C-0.117706 16.3759 2.22663 12.9088 5.93626 11.8759L9.61894 10.8519L9.59199 10.9776L19.4274 24.7024L20.8556 7.70814L23.8467 6.8728L24.0802 8.57043L28.5803 24.6844L29.2539 26.2563L26.0383 27.1545L25.8048 25.4569L23.0652 15.6304L22.0053 28.2862L19.0682 29.1036L11.8016 19.0167L14.4873 28.6276L15.1609 30.1994L11.9453 31.0977L11.9633 31.0797Z" fill="#FFF400"/>
<path d="M28.4904 19.4837C27.7179 15.7381 29.0832 11.4986 33.6102 10.5734C34.8767 10.3129 36.0354 10.3938 37.0414 10.7171C37.6163 10.2501 38.0295 9.66621 37.9486 9.12728C37.8768 8.64225 37.5893 8.08535 36.4755 7.9596L37.769 6.10928C39.4576 6.46857 39.9786 7.44762 40.1403 8.35482C40.3109 9.4686 39.4127 10.798 38.5145 11.4177C40.2391 12.5315 41.3978 14.4627 41.8199 16.5196C42.5744 20.1753 41.0744 24.2981 36.6193 25.2143C32.2539 26.1125 29.2269 23.0676 28.4904 19.4927V19.4837ZM32.5953 9.60334C32.218 7.77098 33.8528 7.29492 33.6372 6.253C33.5384 5.77694 33.0713 5.48952 32.5953 5.58832C32.1731 5.67814 31.7689 5.99251 31.6252 6.57635L30.0084 5.56137C30.4575 4.4386 31.4096 3.80985 32.3348 3.61225C33.745 3.32482 35.3079 3.94458 35.6582 5.66017C36.0264 7.46559 33.9695 8.14823 34.1402 9.28896L32.5953 9.60334ZM31.5354 18.5945C31.9934 20.849 33.6462 22.8879 36.0444 22.3939C38.4336 21.8999 39.1881 19.4029 38.7211 17.1483C38.263 14.8938 36.5564 12.8998 34.1941 13.3848C31.8318 13.8699 31.0773 16.3399 31.5354 18.5945Z" fill="#FFF400"/>
<path d="M51.0626 22.349V20.6334C50.1195 14.1753 49.5985 10.5285 48.6734 4.07037C48.5835 3.41467 48.5117 2.95658 48.2063 2.42664L51.0716 0.55835L53.892 20.2203L54.3591 21.864L51.0626 22.3401V22.349Z" fill="#FFF400"/>
<path d="M54.5476 14.7501C54.1344 10.9507 55.8949 6.85482 60.4938 6.36081C65.0118 5.87577 67.6975 9.34288 68.0927 13.0615C68.4879 16.7801 66.6106 20.7412 62.0926 21.2263C57.6644 21.7023 54.9338 18.3879 54.5386 14.7591L54.5476 14.7501ZM61.1674 5.13025L60.1614 3.07334L59.5956 5.30091L56.5416 5.63325L59.2183 1.26793L60.6734 1.11523L64.2214 4.8069L61.1674 5.13924V5.13025ZM57.6554 14.1483C57.8979 16.4388 59.3531 18.6214 61.7782 18.361C64.2034 18.1005 65.1914 15.6843 64.9399 13.3938C64.6974 11.1034 63.1884 8.95665 60.7902 9.21713C58.392 9.47761 57.4039 11.8669 57.6554 14.1483ZM62.2363 22.5646C63.2693 22.4568 64.0238 23.0676 64.1405 24.0916C64.2573 25.1515 63.6465 25.906 62.6136 26.0227C61.5896 26.1305 60.8261 25.5197 60.7094 24.4688C60.6016 23.4359 61.2124 22.6814 62.2363 22.5646Z" fill="#FFF400"/>
<path d="M80.8654 7.74408L78.4761 9.80997C77.8114 8.69618 76.7605 7.95067 75.3234 8.0315C72.8263 8.17522 71.8114 10.5914 71.9371 12.7741C72.0718 15.2172 73.6347 17.3729 76.2485 17.2202C77.5689 17.1484 78.7905 16.4118 79.3564 15.1454L81.6738 16.861C80.551 18.828 78.4851 19.9508 76.2665 20.0766C72.7635 20.2742 69.0628 17.8939 68.7754 12.8998C68.5688 9.22613 70.7694 5.4177 75.1617 5.1662C77.7126 5.02249 79.6528 6.11831 80.8654 7.75306V7.74408Z" fill="#FFF400"/>
<path d="M89.8115 9.60339C89.8744 6.35185 92.6678 4.74405 95.596 4.79794C97.6619 4.83387 99.7997 5.79496 101.057 7.66325L98.8655 9.69321C98.12 8.32793 96.6919 7.69918 95.4793 7.67223C94.2397 7.64528 92.8565 8.22912 92.8295 9.19919C92.7756 12.1004 101.156 9.87285 101.057 14.9029C100.994 18.0376 98.147 19.7891 95.0661 19.7353C92.8565 19.6903 90.4852 18.7023 89.1469 16.7172L91.599 14.84C92.3804 16.2053 94.0601 16.843 95.2727 16.861C96.5122 16.8879 97.9314 16.2771 97.9494 15.0466C97.9943 12.5495 89.7037 14.6603 89.8025 9.60339H89.8115Z" fill="#FFF400"/>
<path d="M109.653 19.1244C108.503 19.9149 107.129 20.2472 105.872 20.1664C102.8 19.9598 101.488 17.5975 101.65 15.2172C101.821 12.6932 103.77 10.1782 107.156 10.4028C108.216 10.4746 109.312 10.8968 110.165 11.5525C110.255 9.36982 109.006 8.274 107.623 8.18418C106.617 8.11232 105.548 8.6243 104.893 9.81893L102.746 7.91471C104.264 5.93864 106.213 5.21109 108.045 5.32785C110.857 5.51648 113.291 7.77998 113.093 10.7621L112.563 18.6214L112.68 20.328L109.581 20.1214L109.644 19.1154L109.653 19.1244ZM106.698 0.441566C106.635 1.41164 107.129 2.13919 108.225 2.21105C109.348 2.28291 109.932 1.63619 110.003 0.657137L112.006 0.791869C111.863 3.00148 110.273 4.33084 108.09 4.18712C105.943 4.04341 104.542 2.50746 104.695 0.297852L106.698 0.432583V0.441566ZM109.94 14.9118C109.518 13.9058 108.306 13.0794 107.273 13.0076C105.809 12.9088 104.902 14.0585 104.812 15.2891C104.722 16.6903 105.602 17.6424 107.012 17.7412C108.018 17.8041 109.168 17.31 109.851 16.2052L109.94 14.9118Z" fill="#FFF400"/>
<path d="M113.92 20.4449L114.342 18.7921L115.518 8.74113C115.59 8.08543 115.644 7.62734 115.483 7.02554L118.734 5.95667L118.402 8.81299C119.569 7.26806 120.962 6.50457 122.471 6.68422C124.896 6.97165 126.468 9.14533 125.992 13.2053L125.192 20.0586L125.219 21.7742L121.905 21.388L122.327 19.7263L123.144 12.7651C123.405 10.5645 122.659 9.26209 121.572 9.13634C120.001 8.94772 118.797 11.1214 117.881 13.1873L117.189 19.1245L117.225 20.8401L113.911 20.4538L113.92 20.4449Z" fill="#FFF400"/>
<path d="M141.261 30.2443L142.546 23.9029C141.396 24.5227 140.129 24.7023 138.89 24.4508C134.749 23.6065 133.465 19.5376 134.21 15.8459C134.956 12.1812 137.722 8.96561 141.719 9.77401C142.905 10.0165 144.037 10.6543 145.016 11.7321L145.043 11.6243L148.142 10.789L144.082 30.8102L143.974 32.5168L140.704 31.8521L141.27 30.2353L141.261 30.2443ZM144.342 15.0375C143.92 13.78 143.103 12.6124 141.719 12.3339C139.806 11.9477 137.893 13.5824 137.282 16.5645C136.815 18.846 137.516 21.334 139.878 21.8101C140.947 22.0257 142.186 21.6933 143.219 20.5256L144.333 15.0375H144.342Z" fill="#FFF400"/>
<path d="M154.285 27.8191L154.941 26.2382L155.085 25.7083C153.944 26.867 152.489 27.6394 150.773 27.1814C148.411 26.5526 147.172 24.1723 148.213 20.2292L149.615 14.9477C149.785 14.3099 149.902 13.8608 149.83 13.25L153.199 12.6572L150.971 21.0735C150.405 23.2112 150.953 24.6035 152.013 24.8909C153.621 25.3221 155.13 23.0136 156.342 21.0106L157.402 17.0136C157.573 16.3758 157.69 15.9267 157.618 15.3159L160.986 14.7231L157.744 26.9748L157.528 28.6724L154.303 27.8191H154.285Z" fill="#FFF400"/>
<path d="M166.312 30.4868C165.001 30.9628 163.582 30.9449 162.387 30.5497C159.468 29.5796 158.794 26.9658 159.54 24.7023C160.339 22.3041 162.863 20.3549 166.079 21.4148C167.085 21.7472 168.046 22.4298 168.702 23.2831C169.339 21.1903 168.396 19.816 167.085 19.3849C166.133 19.0705 164.965 19.2861 164.031 20.2831L162.423 17.9028C164.381 16.3758 166.456 16.1513 168.208 16.7261C170.884 17.6154 172.681 20.4178 171.738 23.2562L169.259 30.7293L168.944 32.409L165.998 31.4299L166.312 30.4778V30.4868ZM167.642 26.4808C167.489 25.4029 166.519 24.2891 165.54 23.9658C164.148 23.5077 162.98 24.3879 162.585 25.5646C162.145 26.9029 162.765 28.0436 164.103 28.4928C165.055 28.8071 166.304 28.6185 167.238 27.7113L167.642 26.4808ZM170.229 11.9207L170.103 16.1513L168.711 15.6932L167.121 10.8967L170.229 11.9297V11.9207Z" fill="#FFF400"/>
</svg>
