<svg width="162" height="69" viewBox="0 0 162 69" fill="none" xmlns="http://www.w3.org/2000/svg">
<path d="M25.9216 31.0884L25.7689 29.3818L22.3197 14.166C19.9844 14.6331 17.658 15.5762 18.3227 18.5134C18.7269 20.2829 20.4874 21.8278 22.9215 21.2709L22.9844 21.5493C23.2808 22.8428 22.7509 23.9027 21.4305 24.1991C18.5472 24.8548 15.9424 22.3488 15.3406 19.6811C14.4693 15.8097 16.9843 12.4774 20.7389 11.6241L25.4455 10.5552C28.6701 9.82764 30.0983 8.97433 29.5414 6.53119L29.8198 6.46832C31.1043 6.17191 32.1731 6.70185 32.4696 8.02223C33.1253 10.9055 30.3677 12.3876 26.0743 13.3576L25.1222 13.5732L28.5533 28.7351L29.1552 30.3339L25.9036 31.0704L25.9216 31.0884Z" fill="#C12202"/>
<path d="M33.8618 25.1063C34.7151 25.9416 35.8828 26.4357 37.3019 26.1752C38.5505 25.9506 39.4038 25.2051 39.8259 23.8219L42.3319 25.2321C41.4517 27.3159 39.8259 28.6363 37.6522 29.0315C33.0175 29.8758 29.9995 26.4536 29.3168 22.6901C28.6611 19.0973 30.233 15.19 34.6432 14.3906C37.4996 13.8696 40.5714 15.208 41.1643 18.4595C41.3798 19.6452 40.9217 20.8398 38.7121 22.1781L33.8708 25.1063H33.8618ZM35.245 13.1062L34.0953 11.1211L33.6911 13.3846L30.6641 13.9325L33.0175 9.38755L34.4636 9.12707L38.272 12.5493L35.245 13.0972V13.1062ZM36.4217 20.5524C38.299 19.4835 38.0475 19.0344 37.9846 18.72C37.751 17.4445 36.5744 16.9326 35.3349 17.1571C32.8737 17.6062 32.0294 20.0044 32.4336 22.241C32.4606 22.4117 32.4965 22.5823 32.5504 22.744L36.4127 20.5524H36.4217ZM40.7152 5.45337L38.4696 9.98037L37.0235 10.2409L37.4906 6.03721L40.7152 5.45337Z" fill="#C12202"/>
<path d="M41.1732 13.5372C42.799 13.3127 42.8529 13.0702 42.7092 12.0193L42.6014 11.2199C42.4936 10.4204 42.3768 9.59408 42.0714 9.05516L44.9457 7.20483L45.7361 12.8995L50.0027 12.3067L50.353 14.8666L46.0865 15.4594L46.9757 21.8637C47.2002 23.4535 47.7392 24.6841 48.7092 24.5583C49.6793 24.4236 49.9488 23.229 50.2452 22.4565L52.6883 23.9745C51.7991 25.9236 50.6673 27.0105 49.0236 27.235C47.1194 27.4955 44.7032 26.4087 44.2092 22.8517L43.4188 17.1301C43.275 16.0792 43.1583 15.8636 41.5325 16.0882L41.1822 13.5283L41.1732 13.5372Z" fill="#C12202"/>
<path d="M63.961 25.3308L70.5628 7.64496L66.4849 7.89646C63.1885 8.10305 62.0388 10.0701 62.1556 11.8756C62.2633 13.5642 63.4759 15.1361 65.2903 15.0193C65.5508 15.0013 65.8921 14.9564 66.1436 14.8846L66.1616 15.172C66.2424 16.5463 65.47 17.4355 64.0867 17.5163C62.0478 17.6421 59.2274 15.8008 59.0028 12.0732C58.8052 8.85755 60.8082 5.37248 66.3143 5.03116L74.8024 4.51019L68.2005 22.196L74.1647 21.8278C74.8204 21.7829 75.3683 21.7829 75.8443 21.4954L76.033 24.5943L63.952 25.3398L63.961 25.3308Z" fill="#C12202"/>
<path d="M84.7456 23.5613C83.6588 24.4326 82.3114 24.8727 81.045 24.8817C77.9731 24.8997 76.491 22.6452 76.473 20.2559C76.4551 17.7229 78.2156 15.0732 81.6108 15.0463C82.6707 15.0463 83.7935 15.3786 84.6917 15.9714C84.6199 13.7888 83.2905 12.7917 81.9072 12.8007C80.9012 12.8007 79.8683 13.3935 79.3024 14.6331L77.0209 12.8995C78.3862 10.8247 80.2725 9.9444 82.1138 9.93542C84.9342 9.91745 87.5301 11.9923 87.557 14.9834L87.6109 22.8607L87.8534 24.5584L84.7456 24.5763V23.5703V23.5613ZM84.7097 19.3397C84.2156 18.3697 82.9402 17.6241 81.9072 17.6331C80.4431 17.6421 79.6168 18.8547 79.6258 20.0942C79.6348 21.5044 80.5869 22.3847 81.9971 22.3757C83.0031 22.3757 84.1169 21.7829 84.7187 20.6332V19.3397H84.7097Z" fill="#C12202"/>
<path d="M89.2367 24.6213L89.5062 22.9326C89.6768 16.4116 89.7756 12.7379 89.9463 6.21683C89.9642 5.55215 89.9732 5.09406 89.7577 4.51921L92.9014 3.1629L92.3804 23.0134L92.5691 24.7111L89.2367 24.6213Z" fill="#C12202"/>
<path d="M93.9434 17.714C94.1859 13.8966 96.6111 10.16 101.228 10.4564C105.764 10.7438 107.821 14.6152 107.587 18.3427C107.354 22.0703 104.821 25.6542 100.294 25.3668C95.8476 25.0883 93.7188 21.3518 93.9524 17.705L93.9434 17.714ZM97.1141 17.6511C96.9704 19.9505 98.0303 22.3488 100.464 22.5015C102.899 22.6542 104.282 20.4356 104.426 18.1451C104.569 15.8547 103.455 13.4744 101.039 13.3217C98.6321 13.169 97.2578 15.3607 97.1051 17.6511H97.1141Z" fill="#C12202"/>
<path d="M107.444 31.0794L109.59 13.0433L109.563 11.3367L112.644 11.7049L112.536 12.6481C113.605 11.9385 114.881 11.678 116.102 11.8307C120.297 12.3337 121.914 16.2858 121.465 20.0224C121.025 23.732 118.528 27.1722 114.477 26.6872C113.282 26.5434 112.096 25.9955 111.054 25.0344L110.291 31.4297L110.318 33.1453L107.003 32.7501L107.435 31.0974L107.444 31.0794ZM111.405 22.1422C111.917 23.1572 112.752 23.9476 113.983 24.1003C115.923 24.3338 117.989 22.5823 118.348 19.5553C118.626 17.2469 117.728 14.8217 115.33 14.5343C114.243 14.4086 113.057 14.8756 112.141 16.0613L111.414 22.1422H111.405Z" fill="#C12202"/>
<path d="M129.234 27.5943C128.013 28.259 126.602 28.4566 125.363 28.2321C122.336 27.7111 121.276 25.2231 121.68 22.8697C122.111 20.3817 124.321 18.0733 127.662 18.6571C128.713 18.8368 129.755 19.3667 130.528 20.1122C130.842 17.9475 129.71 16.7349 128.354 16.5014C127.366 16.3307 126.243 16.717 125.471 17.8397L123.531 15.7289C125.246 13.9235 127.258 13.4026 129.072 13.7169C131.848 14.202 134.04 16.708 133.528 19.6541L132.18 27.4147L132.117 29.1213L129.064 28.5914L129.234 27.6033V27.5943ZM129.962 23.4356C129.647 22.3847 128.525 21.4416 127.51 21.2619C126.063 21.0104 125.04 22.0613 124.824 23.2739C124.581 24.6572 125.363 25.6991 126.755 25.9416C127.743 26.1123 128.947 25.735 129.737 24.7111L129.962 23.4356Z" fill="#C12202"/>
<path d="M135.252 15.0732L138.782 15.8726C138.522 16.1061 138.405 16.8786 138.495 17.5433L139.393 26.0853L143.875 18.7559C144.207 18.181 144.468 17.4445 144.333 17.1211L147.531 17.8397L139.654 30.7919C137.875 33.7201 136.24 37.6813 132.315 36.801C130.635 36.4238 129.513 34.8698 128.713 32.777L131.579 31.4476C131.857 33.1004 132.414 33.8728 133.088 34.0255C134.543 34.3579 135.638 32.2471 136.905 30.1722L135.252 15.0642V15.0732Z" fill="#C12202"/>
<path d="M25.9216 29.5524L25.7689 27.8458L22.3197 12.6301C19.9844 13.0971 17.658 14.0403 18.3227 16.9774C18.7269 18.7469 20.4874 20.2918 22.9215 19.7349L22.9844 20.0134C23.2808 21.3068 22.7509 22.3667 21.4305 22.6631C18.5472 23.3188 15.9424 20.8128 15.3406 18.1451C14.4693 14.2738 16.9843 10.9414 20.7389 10.0881L25.4455 9.01924C28.6701 8.29169 30.0983 7.43839 29.5414 4.99524L29.8198 4.93237C31.1043 4.63596 32.1731 5.1659 32.4696 6.48628C33.1253 9.36955 30.3677 10.8516 26.0743 11.8217L25.1222 12.0372L28.5533 27.1991L29.1552 28.7979L25.9036 29.5345L25.9216 29.5524Z" fill="#C12202"/>
<path d="M33.8618 23.5704C34.7151 24.4057 35.8828 24.8997 37.3019 24.6392C38.5505 24.4147 39.4038 23.6692 39.8259 22.2859L42.3319 23.6961C41.4517 25.78 39.8259 27.1003 37.6522 27.4956C33.0175 28.3399 29.9995 24.9177 29.3168 21.1542C28.6611 17.5613 30.233 13.6541 34.6432 12.8547C37.4996 12.3337 40.5714 13.672 41.1643 16.9236C41.3798 18.1092 40.9217 19.3038 38.7121 20.6422L33.8708 23.5704H33.8618ZM35.245 11.5792L34.0953 9.59414L33.6911 11.8576L30.6641 12.4055L33.0175 7.86058L34.4636 7.6001L38.272 11.0223L35.245 11.5702V11.5792ZM36.4217 19.0164C38.299 17.9475 38.0475 17.4984 37.9846 17.184C37.751 15.9086 36.5744 15.3966 35.3349 15.6212C32.8737 16.0703 32.0294 18.4685 32.4336 20.705C32.4606 20.8757 32.4965 21.0464 32.5504 21.2081L36.4127 19.0164H36.4217ZM40.7152 3.91742L38.4696 8.44442L37.0235 8.7049L37.4906 4.50126L40.7152 3.91742Z" fill="#C12202"/>
<path d="M41.1732 12.0013C42.799 11.7767 42.8529 11.5342 42.7092 10.4833L42.6014 9.6839C42.4936 8.88449 42.3768 8.05814 42.0714 7.51921L44.9457 5.66888L45.7361 11.3636L50.0027 10.7707L50.353 13.3307L46.0865 13.9235L46.9757 20.3277C47.2002 21.9176 47.7392 23.1481 48.7092 23.0224C49.6793 22.8877 49.9488 21.693 50.2452 20.9206L52.6883 22.4386C51.7991 24.3877 50.6673 25.4745 49.0236 25.6991C47.1194 25.9596 44.7032 24.8727 44.2092 21.3158L43.4188 15.5942C43.275 14.5432 43.1583 14.3277 41.5325 14.5522L41.1822 11.9923L41.1732 12.0013Z" fill="#C12202"/>
<path d="M63.961 23.8039L70.5628 6.11804L66.4849 6.36955C63.1885 6.57613 62.0388 8.54322 62.1556 10.3486C62.2633 12.0373 63.4759 13.6092 65.2903 13.4924C65.5508 13.4744 65.8921 13.4295 66.1436 13.3577L66.1616 13.6451C66.2424 15.0194 65.47 15.9086 64.0867 15.9894C62.0478 16.1152 59.2274 14.2738 59.0028 10.5462C58.8052 7.33063 60.8082 3.84556 66.3143 3.50424L74.8024 2.98328L68.2005 20.6691L74.1647 20.3009C74.8204 20.2559 75.3683 20.2559 75.8443 19.9685L76.033 23.0674L63.952 23.8129L63.961 23.8039Z" fill="#C12202"/>
<path d="M84.7456 22.0254C83.6588 22.8967 82.3114 23.3368 81.045 23.3458C77.9731 23.3637 76.491 21.1092 76.473 18.72C76.4551 16.187 78.2156 13.5373 81.6108 13.5103C82.6707 13.5103 83.7935 13.8426 84.6917 14.4355C84.6199 12.2528 83.2905 11.2558 81.9072 11.2648C80.9012 11.2648 79.8683 11.8576 79.3024 13.0971L77.0209 11.3636C78.3862 9.2887 80.2725 8.40845 82.1138 8.39947C84.9342 8.3815 87.5301 10.4564 87.557 13.4474L87.6109 21.3248L87.8534 23.0224L84.7456 23.0404V22.0344V22.0254ZM84.7097 17.8038C84.2156 16.8337 82.9402 16.0882 81.9072 16.0972C80.4431 16.1062 79.6168 17.3187 79.6258 18.5583C79.6348 19.9685 80.5869 20.8487 81.9971 20.8397C83.0031 20.8397 84.1169 20.2469 84.7187 19.0972V17.8038H84.7097Z" fill="#C12202"/>
<path d="M89.2367 23.0943L89.5062 21.4056C89.6768 14.8846 89.7756 11.2109 89.9463 4.68985C89.9642 4.02518 89.9732 3.56709 89.7577 2.99223L92.9014 1.63593L92.3804 21.4865L92.5691 23.1841L89.2367 23.0943Z" fill="#C12202"/>
<path d="M93.9434 16.178C94.1859 12.3606 96.6111 8.62406 101.228 8.92047C105.764 9.2079 107.821 13.0792 107.587 16.8068C107.354 20.5344 104.821 24.1183 100.294 23.8308C95.8476 23.5524 93.7188 19.8158 93.9524 16.1691L93.9434 16.178ZM97.1141 16.1242C96.9704 18.4236 98.0303 20.8218 100.464 20.9745C102.899 21.1272 104.282 18.9086 104.426 16.6182C104.569 14.3277 103.455 11.9475 101.039 11.7948C98.6321 11.6421 97.2578 13.8337 97.1051 16.1242H97.1141Z" fill="#C12202"/>
<path d="M107.444 29.5435L109.59 11.5073L109.563 9.80072L112.644 10.169L112.536 11.1121C113.605 10.4025 114.881 10.142 116.102 10.2947C120.297 10.7977 121.914 14.7499 121.465 18.4865C121.025 22.1961 118.528 25.6362 114.477 25.1512C113.282 25.0075 112.096 24.4596 111.054 23.4985L110.291 29.8938L110.318 31.6094L107.003 31.2142L107.435 29.5614L107.444 29.5435ZM111.405 20.6062C111.917 21.6212 112.752 22.4117 113.983 22.5643C115.923 22.7979 117.989 21.0464 118.348 18.0194C118.626 15.711 117.728 13.2858 115.33 12.9984C114.243 12.8726 113.057 13.3397 112.141 14.5253L111.414 20.6062H111.405Z" fill="#C12202"/>
<path d="M129.234 26.0674C128.013 26.732 126.602 26.9297 125.363 26.7051C122.336 26.1841 121.276 23.6961 121.68 21.3428C122.111 18.8547 124.321 16.5463 127.662 17.1301C128.713 17.3098 129.755 17.8397 130.528 18.5852C130.842 16.4205 129.71 15.208 128.354 14.9744C127.366 14.8038 126.243 15.19 125.471 16.3128L123.531 14.202C125.246 12.3965 127.258 11.8756 129.072 12.19C131.848 12.675 134.04 15.181 133.528 18.1272L132.18 25.8877L132.117 27.5943L129.064 27.0644L129.234 26.0764V26.0674ZM129.962 21.8997C129.647 20.8487 128.525 19.9056 127.51 19.726C126.063 19.4745 125.04 20.5254 124.824 21.738C124.581 23.1212 125.363 24.1632 126.755 24.4057C127.743 24.5763 128.947 24.1991 129.737 23.1751L129.962 21.8997Z" fill="#C12202"/>
<path d="M135.252 13.5372L138.782 14.3367C138.522 14.5702 138.405 15.3427 138.495 16.0073L139.393 24.5494L143.875 17.2199C144.207 16.6451 144.468 15.9085 144.333 15.5852L147.531 16.3037L139.654 29.256C137.875 32.1842 136.24 36.1453 132.315 35.2651C130.635 34.8878 129.513 33.3339 128.713 31.2411L131.579 29.9117C131.857 31.5644 132.414 32.3369 133.088 32.4896C134.543 32.8219 135.638 30.7111 136.905 28.6362L135.252 13.5283V13.5372Z" fill="#C12202"/>
<path d="M25.9216 29.5524L25.7689 27.8458L22.3197 12.6301C19.9844 13.0971 17.658 14.0403 18.3227 16.9774C18.7269 18.7469 20.4874 20.2918 22.9215 19.7349L22.9844 20.0134C23.2808 21.3068 22.7509 22.3667 21.4305 22.6631C18.5472 23.3188 15.9424 20.8128 15.3406 18.1451C14.4693 14.2738 16.9843 10.9414 20.7389 10.0881L25.4455 9.01924C28.6701 8.29169 30.0983 7.43839 29.5414 4.99524L29.8198 4.93237C31.1043 4.63596 32.1731 5.1659 32.4696 6.48628C33.1253 9.36955 30.3677 10.8516 26.0743 11.8217L25.1222 12.0372L28.5533 27.1991L29.1552 28.7979L25.9036 29.5345L25.9216 29.5524Z" fill="#EF4B23"/>
<path d="M33.8618 23.5704C34.7151 24.4057 35.8828 24.8997 37.3019 24.6392C38.5505 24.4147 39.4038 23.6692 39.8259 22.2859L42.3319 23.6961C41.4517 25.78 39.8259 27.1003 37.6522 27.4956C33.0175 28.3399 29.9995 24.9177 29.3168 21.1542C28.6611 17.5613 30.233 13.6541 34.6432 12.8547C37.4996 12.3337 40.5714 13.672 41.1643 16.9236C41.3798 18.1092 40.9217 19.3038 38.7121 20.6422L33.8708 23.5704H33.8618ZM35.245 11.5792L34.0953 9.59414L33.6911 11.8576L30.6641 12.4055L33.0175 7.86058L34.4636 7.6001L38.272 11.0223L35.245 11.5702V11.5792ZM36.4217 19.0164C38.299 17.9475 38.0475 17.4984 37.9846 17.184C37.751 15.9086 36.5744 15.3966 35.3349 15.6212C32.8737 16.0703 32.0294 18.4685 32.4336 20.705C32.4606 20.8757 32.4965 21.0464 32.5504 21.2081L36.4127 19.0164H36.4217ZM40.7152 3.91742L38.4696 8.44442L37.0235 8.7049L37.4906 4.50126L40.7152 3.91742Z" fill="#EF4B23"/>
<path d="M41.1732 12.0013C42.799 11.7767 42.8529 11.5342 42.7092 10.4833L42.6014 9.6839C42.4936 8.88449 42.3768 8.05814 42.0714 7.51921L44.9457 5.66888L45.7361 11.3636L50.0027 10.7707L50.353 13.3307L46.0865 13.9235L46.9757 20.3277C47.2002 21.9176 47.7392 23.1481 48.7092 23.0224C49.6793 22.8877 49.9488 21.693 50.2452 20.9206L52.6883 22.4386C51.7991 24.3877 50.6673 25.4745 49.0236 25.6991C47.1194 25.9596 44.7032 24.8727 44.2092 21.3158L43.4188 15.5942C43.275 14.5432 43.1583 14.3277 41.5325 14.5522L41.1822 11.9923L41.1732 12.0013Z" fill="#EF4B23"/>
<path d="M63.961 23.8039L70.5628 6.11804L66.4849 6.36955C63.1885 6.57613 62.0388 8.54322 62.1556 10.3486C62.2633 12.0373 63.4759 13.6092 65.2903 13.4924C65.5508 13.4744 65.8921 13.4295 66.1436 13.3577L66.1616 13.6451C66.2424 15.0194 65.47 15.9086 64.0867 15.9894C62.0478 16.1152 59.2274 14.2738 59.0028 10.5462C58.8052 7.33063 60.8082 3.84556 66.3143 3.50424L74.8024 2.98328L68.2005 20.6691L74.1647 20.3009C74.8204 20.2559 75.3683 20.2559 75.8443 19.9685L76.033 23.0674L63.952 23.8129L63.961 23.8039Z" fill="#EF4B23"/>
<path d="M84.7456 22.0254C83.6588 22.8967 82.3114 23.3368 81.045 23.3458C77.9731 23.3637 76.491 21.1092 76.473 18.72C76.4551 16.187 78.2156 13.5373 81.6108 13.5103C82.6707 13.5103 83.7935 13.8426 84.6917 14.4355C84.6199 12.2528 83.2905 11.2558 81.9072 11.2648C80.9012 11.2648 79.8683 11.8576 79.3024 13.0971L77.0209 11.3636C78.3862 9.2887 80.2725 8.40845 82.1138 8.39947C84.9342 8.3815 87.5301 10.4564 87.557 13.4474L87.6109 21.3248L87.8534 23.0224L84.7456 23.0404V22.0344V22.0254ZM84.7097 17.8038C84.2156 16.8337 82.9402 16.0882 81.9072 16.0972C80.4431 16.1062 79.6168 17.3187 79.6258 18.5583C79.6348 19.9685 80.5869 20.8487 81.9971 20.8397C83.0031 20.8397 84.1169 20.2469 84.7187 19.0972V17.8038H84.7097Z" fill="#EF4B23"/>
<path d="M89.2367 23.0943L89.5062 21.4056C89.6768 14.8846 89.7756 11.2109 89.9463 4.68985C89.9642 4.02518 89.9732 3.56709 89.7577 2.99223L92.9014 1.63593L92.3804 21.4865L92.5691 23.1841L89.2367 23.0943Z" fill="#EF4B23"/>
<path d="M93.9434 16.178C94.1859 12.3606 96.6111 8.62406 101.228 8.92047C105.764 9.2079 107.821 13.0792 107.587 16.8068C107.354 20.5344 104.821 24.1183 100.294 23.8308C95.8476 23.5524 93.7188 19.8158 93.9524 16.1691L93.9434 16.178ZM97.1141 16.1242C96.9704 18.4236 98.0303 20.8218 100.464 20.9745C102.899 21.1272 104.282 18.9086 104.426 16.6182C104.569 14.3277 103.455 11.9475 101.039 11.7948C98.6321 11.6421 97.2578 13.8337 97.1051 16.1242H97.1141Z" fill="#EF4B23"/>
<path d="M107.444 29.5435L109.59 11.5073L109.563 9.80072L112.644 10.169L112.536 11.1121C113.605 10.4025 114.881 10.142 116.102 10.2947C120.297 10.7977 121.914 14.7499 121.465 18.4865C121.025 22.1961 118.528 25.6362 114.477 25.1512C113.282 25.0075 112.096 24.4596 111.054 23.4985L110.291 29.8938L110.318 31.6094L107.003 31.2142L107.435 29.5614L107.444 29.5435ZM111.405 20.6062C111.917 21.6212 112.752 22.4117 113.983 22.5643C115.923 22.7979 117.989 21.0464 118.348 18.0194C118.626 15.711 117.728 13.2858 115.33 12.9984C114.243 12.8726 113.057 13.3397 112.141 14.5253L111.414 20.6062H111.405Z" fill="#EF4B23"/>
<path d="M129.234 26.0674C128.013 26.732 126.602 26.9297 125.363 26.7051C122.336 26.1841 121.276 23.6961 121.68 21.3428C122.111 18.8547 124.321 16.5463 127.662 17.1301C128.713 17.3098 129.755 17.8397 130.528 18.5852C130.842 16.4205 129.71 15.208 128.354 14.9744C127.366 14.8038 126.243 15.19 125.471 16.3128L123.531 14.202C125.246 12.3965 127.258 11.8756 129.072 12.19C131.848 12.675 134.04 15.181 133.528 18.1272L132.18 25.8877L132.117 27.5943L129.064 27.0644L129.234 26.0764V26.0674ZM129.962 21.8997C129.647 20.8487 128.525 19.9056 127.51 19.726C126.063 19.4745 125.04 20.5254 124.824 21.738C124.581 23.1212 125.363 24.1632 126.755 24.4057C127.743 24.5763 128.947 24.1991 129.737 23.1751L129.962 21.8997Z" fill="#EF4B23"/>
<path d="M135.252 13.5372L138.782 14.3367C138.522 14.5702 138.405 15.3427 138.495 16.0073L139.393 24.5494L143.875 17.2199C144.207 16.6451 144.468 15.9085 144.333 15.5852L147.531 16.3037L139.654 29.256C137.875 32.1842 136.24 36.1453 132.315 35.2651C130.635 34.8878 129.513 33.3339 128.713 31.2411L131.579 29.9117C131.857 31.5644 132.414 32.3369 133.088 32.4896C134.543 32.8219 135.638 30.7111 136.905 28.6362L135.252 13.5283V13.5372Z" fill="#EF4B23"/>
<path d="M25.9216 28.0255L25.7689 26.3188L22.3197 11.1031C19.9844 11.5702 17.658 12.5133 18.3227 15.4504C18.7269 17.2199 20.4874 18.7649 22.9215 18.208L22.9844 18.4864C23.2808 19.7798 22.7509 20.8397 21.4305 21.1361C18.5472 21.7918 15.9424 19.2858 15.3406 16.6181C14.4693 12.7468 16.9843 9.41445 20.7389 8.56114L25.4455 7.49227C28.6701 6.76471 30.0983 5.91141 29.5414 3.46826L29.8198 3.40539C31.1043 3.10898 32.1731 3.63893 32.4696 4.9593C33.1253 7.84257 30.3677 9.32462 26.0743 10.2947L25.1222 10.5103L28.5533 25.6721L29.1552 27.271L25.9036 28.0075L25.9216 28.0255Z" fill="#FFF400"/>
<path d="M33.8618 22.0344C34.7151 22.8697 35.8828 23.3638 37.3019 23.1033C38.5505 22.8787 39.4038 22.1332 39.8259 20.7499L42.3319 22.1601C41.4517 24.244 39.8259 25.5644 37.6522 25.9596C33.0175 26.8039 29.9995 23.3817 29.3168 19.6182C28.6611 16.0253 30.233 12.1181 34.6432 11.3187C37.4996 10.7977 40.5714 12.1361 41.1643 15.3876C41.3798 16.5733 40.9217 17.7679 38.7121 19.1062L33.8708 22.0344H33.8618ZM35.245 10.0432L34.0953 8.05818L33.6911 10.3217L30.6641 10.8696L33.0175 6.32462L34.4636 6.06414L38.272 9.48634L35.245 10.0342V10.0432ZM36.4217 17.4804C38.299 16.4116 38.0475 15.9625 37.9846 15.6481C37.751 14.3726 36.5744 13.8606 35.3349 14.0852C32.8737 14.5343 32.0294 16.9325 32.4336 19.1691C32.4606 19.3398 32.4965 19.5104 32.5504 19.6721L36.4127 17.4804H36.4217ZM40.7152 2.39044L38.4696 6.91744L37.0235 7.17793L37.4906 2.97428L40.7152 2.39044Z" fill="#FFF400"/>
<path d="M41.1732 10.4653C42.799 10.2408 42.8529 9.99828 42.7092 8.94737L42.6014 8.14795C42.4936 7.34854 42.3768 6.52219 42.0714 5.98326L44.9457 4.13293L45.7361 9.82762L50.0027 9.23479L50.353 11.7947L46.0865 12.3875L46.9757 18.7918C47.2002 20.3816 47.7392 21.6122 48.7092 21.4864C49.6793 21.3517 49.9488 20.1571 50.2452 19.3846L52.6883 20.9026C51.7991 22.8517 50.6673 23.9386 49.0236 24.1631C47.1194 24.4236 44.7032 23.3368 44.2092 19.7798L43.4188 14.0582C43.275 13.0073 43.1583 12.7917 41.5325 13.0163L41.1822 10.4564L41.1732 10.4653Z" fill="#FFF400"/>
<path d="M63.961 22.2679L70.5628 4.5821L66.4849 4.8336C63.1885 5.04018 62.0388 7.00727 62.1556 8.81269C62.2633 10.5013 63.4759 12.0732 65.2903 11.9564C65.5508 11.9385 65.8921 11.8936 66.1436 11.8217L66.1616 12.1091C66.2424 13.4834 65.47 14.3726 64.0867 14.4535C62.0478 14.5792 59.2274 12.7379 59.0028 9.01029C58.8052 5.79469 60.8082 2.30961 66.3143 1.96829L74.8024 1.44733L68.2005 19.1332L74.1647 18.7649C74.8204 18.72 75.3683 18.72 75.8443 18.4326L76.033 21.5314L63.952 22.2769L63.961 22.2679Z" fill="#FFF400"/>
<path d="M84.7456 20.4894C83.6588 21.3607 82.3114 21.8008 81.045 21.8098C77.9731 21.8278 76.491 19.5733 76.473 17.184C76.4551 14.651 78.2156 12.0013 81.6108 11.9744C82.6707 11.9744 83.7935 12.3067 84.6917 12.8995C84.6199 10.7169 83.2905 9.71984 81.9072 9.72882C80.9012 9.72882 79.8683 10.3216 79.3024 11.5612L77.0209 9.82763C78.3862 7.75275 80.2725 6.8725 82.1138 6.86352C84.9342 6.84555 87.5301 8.92043 87.557 11.9115L87.6109 19.7888L87.8534 21.4865L84.7456 21.5044V20.4984V20.4894ZM84.7097 16.2678C84.2156 15.2978 82.9402 14.5522 81.9072 14.5612C80.4431 14.5702 79.6168 15.7828 79.6258 17.0223C79.6348 18.4325 80.5869 19.3128 81.9971 19.3038C83.0031 19.3038 84.1169 18.711 84.7187 17.5613V16.2678H84.7097Z" fill="#FFF400"/>
<path d="M89.2367 21.5583L89.5062 19.8697C89.6768 13.3486 89.7756 9.67494 89.9463 3.1539C89.9642 2.48923 89.9732 2.03114 89.7577 1.45628L92.9014 0.0999756L92.3804 19.9505L92.5691 21.6481L89.2367 21.5583Z" fill="#FFF400"/>
<path d="M93.9434 14.6421C94.1859 10.8247 96.6111 7.08811 101.228 7.38452C105.764 7.67195 107.821 11.5433 107.587 15.2708C107.354 18.9984 104.821 22.5823 100.294 22.2949C95.8476 22.0164 93.7188 18.2799 93.9524 14.6331L93.9434 14.6421ZM97.1141 14.5882C96.9704 16.8876 98.0303 19.2859 100.464 19.4386C102.899 19.5913 104.282 17.3727 104.426 15.0822C104.569 12.7918 103.455 10.4115 101.039 10.2588C98.6321 10.1061 97.2578 12.2978 97.1051 14.5882H97.1141Z" fill="#FFF400"/>
<path d="M107.444 28.0075L109.59 9.97138L109.563 8.26477L112.644 8.63304L112.536 9.57616C113.605 8.86657 114.881 8.60609 116.102 8.75879C120.297 9.26179 121.914 13.2139 121.465 16.9505C121.025 20.6601 118.528 24.1003 114.477 23.6153C113.282 23.4715 112.096 22.9236 111.054 21.9625L110.291 28.3578L110.318 30.0734L107.003 29.6782L107.435 28.0255L107.444 28.0075ZM111.405 19.0793C111.917 20.0943 112.752 20.8847 113.983 21.0374C115.923 21.2709 117.989 19.5194 118.348 16.4924C118.626 14.184 117.728 11.7588 115.33 11.4714C114.243 11.3456 113.057 11.8127 112.141 12.9984L111.414 19.0793H111.405Z" fill="#FFF400"/>
<path d="M129.234 24.5314C128.013 25.1961 126.602 25.3937 125.363 25.1692C122.336 24.6482 121.276 22.1601 121.68 19.8068C122.111 17.3188 124.321 15.0103 127.662 15.5942C128.713 15.7738 129.755 16.3038 130.528 17.0493C130.842 14.8846 129.71 13.672 128.354 13.4385C127.366 13.2678 126.243 13.654 125.471 14.7768L123.531 12.666C125.246 10.8606 127.258 10.3396 129.072 10.654C131.848 11.139 134.04 13.6451 133.528 16.5912L132.18 24.3518L132.117 26.0584L129.064 25.5284L129.234 24.5404V24.5314ZM129.962 20.3637C129.647 19.3128 128.525 18.3697 127.51 18.19C126.063 17.9385 125.04 18.9894 124.824 20.202C124.581 21.5853 125.363 22.6272 126.755 22.8697C127.743 23.0404 128.947 22.6631 129.737 21.6392L129.962 20.3637Z" fill="#FFF400"/>
<path d="M135.252 12.0013L138.782 12.8007C138.522 13.0342 138.405 13.8067 138.495 14.4714L139.393 23.0134L143.875 15.684C144.207 15.1091 144.468 14.3726 144.333 14.0492L147.531 14.7678L139.654 27.72C137.875 30.6482 136.24 34.6094 132.315 33.7291C130.635 33.3519 129.513 31.7979 128.713 29.7051L131.579 28.3757C131.857 30.0285 132.414 30.8009 133.088 30.9536C134.543 31.286 135.638 29.1752 136.905 27.1003L135.252 11.9923V12.0013Z" fill="#FFF400"/>
<path d="M11.8645 62.7684L11.649 61.0708L7.61598 46.0527L6.72674 46.2952C4.20276 46.9778 3.44826 48.8371 3.88838 50.4809C4.35545 52.2324 6.17883 53.7055 8.59503 53.0587L8.66689 53.3372C9.00821 54.6126 8.52317 55.6995 7.22076 56.0498C4.36444 56.8223 1.66081 54.415 0.960205 51.7833C-0.0727417 47.9569 2.30753 44.5167 6.02613 43.5197L9.85253 42.4868L10.0681 44.1844L14.1011 59.2025L20.9275 57.3702C21.5652 57.1995 21.9245 57.1007 22.5084 56.7055L23.3168 59.7055L11.8555 62.7864L11.8645 62.7684Z" fill="#C12202"/>
<path d="M20.9904 39.7203L23.0653 43.4119L21.6371 43.7353L17.8018 40.4478L20.9994 39.7293L20.9904 39.7203ZM23.5234 59.8044L23.3707 58.0977C21.9335 51.7294 22.5174 54.3163 21.0802 47.9479C20.9365 47.3012 20.8377 46.8521 20.4784 46.3401L23.191 44.2563L26.1731 57.46L26.7749 59.0678L23.5234 59.8044Z" fill="#C12202"/>
<path d="M33.8348 57.5498L36.8349 49.4928L31.7061 43.34L35.4426 42.7023C35.3438 42.9538 35.5145 43.3041 35.8468 43.6814L38.0474 46.3131L39.2241 43.1065C39.4038 42.6394 39.4576 42.2532 39.278 42.0466L43.0146 41.4089L40.2121 48.909L45.7092 55.5198L41.9726 56.1576C42.0804 55.9061 41.9008 55.5558 41.5685 55.1785L39.0355 52.1156L37.6343 55.8522C37.4546 56.3192 37.4007 56.7055 37.5804 56.9121L33.8438 57.5498H33.8348Z" fill="#C12202"/>
<path d="M45.1434 35.319L46.9039 39.1633L45.4488 39.3699L41.9009 35.7771L45.1434 35.319ZM46.0057 55.5468V53.8312C45.0895 47.373 45.4578 49.9868 44.5506 43.5287C44.4608 42.873 44.3979 42.4149 44.0835 41.8849L46.9578 40.0346L48.8351 53.4449L49.3022 55.0887L45.9967 55.5557L46.0057 55.5468Z" fill="#C12202"/>
<path d="M55.2393 39.864C56.8741 39.7203 56.937 39.4867 56.8471 38.4268L56.7753 37.6274C56.7034 36.828 56.6316 35.9927 56.3531 35.4448L59.3172 33.7471L59.8202 39.4777L64.1137 39.1005L64.3382 41.6784L60.0448 42.0556L60.6017 48.4958C60.7454 50.1036 61.2214 51.3521 62.2005 51.2713C63.1795 51.1905 63.5029 50.0048 63.8442 49.2503L66.2065 50.8941C65.2185 52.7983 64.0418 53.8222 62.3801 53.9659C60.458 54.1366 58.1046 52.924 57.7903 49.3491L57.2873 43.5916C57.1974 42.5317 57.0897 42.3071 55.4549 42.4508L55.2303 39.873L55.2393 39.864Z" fill="#C12202"/>
<path d="M67.2664 53.2384L67.4191 51.5318C67.1316 45.0107 66.9789 41.337 66.6915 34.816C66.6646 34.1513 66.6466 33.6932 66.3861 33.1274L69.4221 31.5555L69.8352 40.9778C70.5808 39.5316 71.7395 38.3639 73.5179 38.2831C75.9611 38.1753 77.8563 40.0795 78.027 44.1574L78.3234 51.0467L78.6288 52.7354L75.2964 52.8791L75.4491 51.1725L75.1437 44.1664C75.0449 41.9568 74.1018 40.7891 73.0149 40.834C71.3532 40.9059 70.5987 43.5556 70.0418 45.8281L70.2844 51.397L70.5898 53.0857L67.2574 53.2294L67.2664 53.2384Z" fill="#C12202"/>
<path d="M83.5241 48.4868C84.2068 49.4659 85.2667 50.1665 86.7038 50.1754C87.9703 50.1754 88.9493 49.6096 89.614 48.3251L91.8146 50.1754C90.5661 52.0617 88.7248 53.0587 86.5062 53.0497C81.7906 53.0228 79.4552 49.0976 79.4822 45.2802C79.5001 41.6334 81.7636 38.0765 86.2457 38.1034C89.147 38.1214 91.9224 40.0077 91.9045 43.3131C91.9045 44.5167 91.2308 45.6125 88.8146 46.5107L83.5152 48.4958L83.5241 48.4868ZM87.099 36.9537L86.3355 34.798L85.5182 36.9447L82.4463 36.9268L85.599 32.8938H87.0631L90.1709 36.9717L87.099 36.9537ZM86.8835 44.4808C88.9314 43.7712 88.7607 43.2861 88.7607 42.9718C88.7607 41.6783 87.7098 40.9508 86.4433 40.9508C83.9463 40.9328 82.6618 43.1424 82.6529 45.4149C82.6529 45.5856 82.6529 45.7562 82.6798 45.9359L86.8835 44.4987V44.4808Z" fill="#C12202"/>
<path d="M99.5034 53.2025L99.7908 51.5228L100.204 45.3521C100.402 42.3161 99.7908 41.1484 98.9555 41.0945C97.4375 40.9957 96.6201 44.5706 96.0453 47.1575L95.7758 51.2623L95.8926 52.9689L92.5602 52.7444L92.9015 51.0647L93.5752 40.9688C93.6201 40.3041 93.647 39.846 93.4584 39.2622L96.6471 38.0316L96.4495 41.0137C97.4914 39.1544 98.8118 38.4628 100.015 38.5436C101.794 38.6604 102.782 40.2592 103.105 41.8939C104.174 39.7203 105.611 38.9209 106.896 39.0017C109.222 39.1544 110.228 41.8131 110.093 43.7982L109.536 52.1785L109.599 53.8851L106.384 53.6695L106.671 51.9899L107.084 45.8191C107.291 42.7832 106.671 41.6155 105.845 41.5616C104.327 41.4628 103.509 45.0377 102.935 47.5886L102.656 51.7204L102.719 53.427L99.5034 53.2114V53.2025Z" fill="#C12202"/>
<path d="M124.294 55.942L124.743 54.2983L125.776 48.2084C126.288 45.2084 125.794 43.9868 124.968 43.8431C123.468 43.5916 122.291 47.0677 121.465 49.5737L120.782 53.6246L120.728 55.3312L117.441 54.7743L117.953 53.1396L119.641 43.1604C119.749 42.5047 119.83 42.0556 119.695 41.4538L122.992 40.5556L122.489 43.5017C123.719 41.7592 125.093 41.2023 126.288 41.3999C128.049 41.6963 128.866 43.385 129.028 45.0377C130.312 42.9808 131.821 42.3341 133.097 42.5496C135.396 42.9359 136.124 45.6844 135.791 47.6425L134.39 55.9151L134.273 57.6127L131.103 57.0738L131.552 55.43L132.585 49.3401C133.097 46.3401 132.603 45.1185 131.776 44.9748C130.276 44.7233 129.099 48.1994 128.273 50.6785L127.582 54.7564L127.465 56.454L124.294 55.9151V55.942Z" fill="#C12202"/>
<path d="M143.148 58.7714C141.89 59.3552 140.471 59.463 139.24 59.1756C136.249 58.466 135.351 55.9151 135.899 53.5977C136.483 51.1366 138.827 48.9808 142.133 49.7623C143.166 50.0048 144.181 50.6066 144.908 51.397C145.357 49.2593 144.306 47.9748 142.959 47.6515C141.98 47.4179 140.839 47.7413 139.995 48.8102L138.189 46.5826C140.013 44.885 142.052 44.4898 143.848 44.9119C146.588 45.5676 148.618 48.1994 147.926 51.1096L146.103 58.7714L145.932 60.478L142.914 59.7594L143.148 58.7804V58.7714ZM144.127 54.6576C143.875 53.5977 142.824 52.5737 141.809 52.3402C140.381 51.9988 139.294 52.9779 139.007 54.1815C138.683 55.5558 139.402 56.6336 140.767 56.966C141.746 57.1995 142.968 56.9031 143.821 55.924L144.118 54.6665L144.127 54.6576Z" fill="#C12202"/>
<path d="M149.929 46.6275L153.405 47.6605C153.127 47.876 152.965 48.6395 153.001 49.3132L153.333 57.9001L158.292 50.885C158.669 50.3371 158.965 49.6186 158.857 49.2862L162.001 50.2204L153.288 62.6337C151.321 65.4361 149.426 69.2805 145.573 68.1397C143.92 67.6457 142.905 66.0289 142.249 63.8822L145.196 62.7505C145.357 64.4211 145.869 65.2295 146.534 65.4271C147.971 65.8493 149.202 63.8193 150.594 61.8343L149.938 46.6455L149.929 46.6275Z" fill="#C12202"/>
<path d="M11.8645 61.2325L11.649 59.5349L7.61598 44.5167L6.72674 44.7592C4.20276 45.4419 3.44826 47.3012 3.88838 48.9449C4.35545 50.6964 6.17883 52.1695 8.59503 51.5228L8.66689 51.8012C9.00821 53.0767 8.52317 54.1635 7.22076 54.5138C4.36444 55.2863 1.66081 52.8791 0.960205 50.2473C-0.0727417 46.4209 2.30753 42.9808 6.02613 41.9838L9.85253 40.9508L10.0681 42.6484L14.1011 57.6666L20.9275 55.8342C21.5652 55.6636 21.9245 55.5648 22.5084 55.1695L23.3168 58.1696L11.8555 61.2505L11.8645 61.2325Z" fill="#C12202"/>
<path d="M20.9904 38.1843L23.0653 41.876L21.6371 42.1993L17.8018 38.9119L20.9994 38.1933L20.9904 38.1843ZM23.5234 58.2684L23.3707 56.5618C21.9335 50.1935 22.5174 52.7803 21.0802 46.412C20.9365 45.7653 20.8377 45.3161 20.4784 44.8042L23.191 42.7203L26.1731 55.9241L26.7749 57.5319L23.5234 58.2684Z" fill="#C12202"/>
<path d="M33.8348 56.0138L36.8349 47.9569L31.7061 41.8041L35.4426 41.1664C35.3438 41.4179 35.5145 41.7682 35.8468 42.1454L38.0474 44.7772L39.2241 41.5706C39.4038 41.1035 39.4576 40.7172 39.278 40.5107L43.0146 39.8729L40.2121 47.373L45.7092 53.9839L41.9726 54.6216C42.0804 54.3701 41.9008 54.0198 41.5685 53.6426L39.0355 50.5796L37.6343 54.3162C37.4546 54.7833 37.4007 55.1695 37.5804 55.3761L33.8438 56.0138H33.8348Z" fill="#C12202"/>
<path d="M45.1434 33.7921L46.9039 37.6364L45.4488 37.843L41.9009 34.2501L45.1434 33.7921ZM46.0057 54.0109V52.2953C45.0895 45.8371 45.4578 48.4509 44.5506 41.9928C44.4608 41.3371 44.3979 40.879 44.0835 40.349L46.9578 38.4987L48.8351 51.909L49.3022 53.5528L45.9967 54.0198L46.0057 54.0109Z" fill="#C12202"/>
<path d="M55.2393 38.328C56.8741 38.1843 56.937 37.9508 56.8471 36.8909L56.7753 36.0915C56.7034 35.2921 56.6316 34.4567 56.3531 33.9088L59.3172 32.2112L59.8202 37.9418L64.1137 37.5645L64.3382 40.1424L60.0448 40.5197L60.6017 46.9599C60.7454 48.5677 61.2214 49.8162 62.2005 49.7354C63.1795 49.6545 63.5029 48.4689 63.8442 47.7144L66.2065 49.3581C65.2185 51.2623 64.0418 52.2863 62.3801 52.43C60.458 52.6007 58.1046 51.3881 57.7903 47.8132L57.2873 42.0556C57.1974 40.9957 57.0897 40.7712 55.4549 40.9149L55.2303 38.337L55.2393 38.328Z" fill="#C12202"/>
<path d="M67.2664 51.7024L67.4191 49.9958C67.1316 43.4748 66.9789 39.8011 66.6915 33.28C66.6646 32.6154 66.6466 32.1573 66.3861 31.5914L69.4221 30.0195L69.8352 39.4418C70.5808 37.9957 71.7395 36.828 73.5179 36.7472C75.9611 36.6394 77.8563 38.5436 78.027 42.6215L78.3234 49.5108L78.6288 51.1994L75.2964 51.3431L75.4491 49.6365L75.1437 42.6305C75.0449 40.4209 74.1018 39.2532 73.0149 39.2981C71.3532 39.3699 70.5987 42.0197 70.0418 44.2922L70.2844 49.8611L70.5898 51.5497L67.2574 51.6935L67.2664 51.7024Z" fill="#C12202"/>
<path d="M83.5241 46.9509C84.2068 47.9299 85.2667 48.6305 86.7038 48.6395C87.9703 48.6395 88.9493 48.0736 89.614 46.7892L91.8146 48.6395C90.5661 50.5257 88.7248 51.5228 86.5062 51.5138C81.7906 51.4868 79.4552 47.5616 79.4822 43.7442C79.5001 40.0975 81.7636 36.5405 86.2457 36.5675C89.147 36.5855 91.9224 38.4717 91.9045 41.7771C91.9045 42.9807 91.2308 44.0766 88.8146 44.9748L83.5152 46.9598L83.5241 46.9509ZM87.099 35.4178L86.3355 33.2621L85.5182 35.4088L82.4463 35.3908L85.599 31.3578H87.0631L90.1709 35.4357L87.099 35.4178ZM86.8835 42.9538C88.9314 42.2442 88.7607 41.7592 88.7607 41.4448C88.7607 40.1514 87.7098 39.4238 86.4433 39.4238C83.9463 39.4059 82.6618 41.6155 82.6529 43.8879C82.6529 44.0586 82.6529 44.2293 82.6798 44.4089L86.8835 42.9718V42.9538Z" fill="#C12202"/>
<path d="M99.5034 51.6665L99.7908 49.9869L100.204 43.8161C100.402 40.7801 99.7908 39.6125 98.9555 39.5586C97.4375 39.4598 96.6201 43.0347 96.0453 45.6215L95.7758 49.7264L95.8926 51.433L92.5602 51.2084L92.9015 49.5288L93.5752 39.4328C93.6201 38.7681 93.647 38.3101 93.4584 37.7262L96.6471 36.4957L96.4495 39.4777C97.4914 37.6184 98.8118 36.9268 100.015 37.0076C101.794 37.1244 102.782 38.7232 103.105 40.358C104.174 38.1843 105.611 37.3849 106.896 37.4657C109.222 37.6184 110.228 40.2771 110.093 42.2622L109.536 50.6425L109.599 52.3492L106.384 52.1336L106.671 50.4539L107.084 44.2832C107.291 41.2472 106.671 40.0795 105.845 40.0257C104.327 39.9268 103.509 43.5017 102.935 46.0527L102.656 50.1845L102.719 51.8911L99.5034 51.6755V51.6665Z" fill="#C12202"/>
<path d="M124.294 54.4061L124.743 52.7623L125.776 46.6724C126.288 43.6724 125.794 42.4508 124.968 42.3071C123.468 42.0556 122.291 45.5317 121.465 48.0377L120.782 52.0887L120.728 53.7953L117.441 53.2384L117.953 51.6036L119.641 41.6245C119.749 40.9688 119.83 40.5197 119.695 39.9179L122.992 39.0197L122.489 41.9658C123.719 40.2233 125.093 39.6664 126.288 39.864C128.049 40.1604 128.866 41.849 129.028 43.5017C130.312 41.4448 131.821 40.7981 133.097 41.0137C135.396 41.3999 136.124 44.1485 135.791 46.1066L134.39 54.3791L134.273 56.0767L131.103 55.5378L131.552 53.8941L132.585 47.8042C133.097 44.8042 132.603 43.5826 131.776 43.4389C130.276 43.1874 129.099 46.6635 128.273 49.1425L127.582 53.2204L127.465 54.9181L124.294 54.3791V54.4061Z" fill="#C12202"/>
<path d="M143.148 57.2354C141.89 57.8193 140.471 57.9271 139.24 57.6396C136.249 56.93 135.351 54.3791 135.899 52.0617C136.483 49.6006 138.827 47.4449 142.133 48.2263C143.166 48.4689 144.181 49.0707 144.908 49.8611C145.357 47.7233 144.306 46.4389 142.959 46.1155C141.98 45.882 140.839 46.2054 139.995 47.2742L138.189 45.0467C140.013 43.349 142.052 42.9538 143.848 43.376C146.588 44.0317 148.618 46.6634 147.926 49.5737L146.103 57.2354L145.932 58.942L142.914 58.2235L143.148 57.2444V57.2354ZM144.127 53.1216C143.875 52.0617 142.824 51.0377 141.809 50.8042C140.381 50.4629 139.294 51.4419 139.007 52.6456C138.683 54.0198 139.402 55.0977 140.767 55.43C141.746 55.6636 142.968 55.3671 143.821 54.3881L144.118 53.1306L144.127 53.1216Z" fill="#C12202"/>
<path d="M149.929 45.1005L153.405 46.1335C153.127 46.349 152.965 47.1125 153.001 47.7862L153.333 56.3731L158.292 49.3581C158.669 48.8101 158.965 48.0916 158.857 47.7592L162.001 48.6934L153.288 61.1067C151.321 63.9091 149.426 67.7535 145.573 66.6128C143.92 66.1188 142.905 64.502 142.249 62.3552L145.196 61.2235C145.357 62.8942 145.869 63.7026 146.534 63.9002C147.971 64.3223 149.202 62.2924 150.594 60.3073L149.938 45.1185L149.929 45.1005Z" fill="#C12202"/>
<path d="M11.8645 61.2325L11.649 59.5349L7.61598 44.5167L6.72674 44.7592C4.20276 45.4419 3.44826 47.3012 3.88838 48.9449C4.35545 50.6964 6.17883 52.1695 8.59503 51.5228L8.66689 51.8012C9.00821 53.0767 8.52317 54.1635 7.22076 54.5138C4.36444 55.2863 1.66081 52.8791 0.960205 50.2473C-0.0727417 46.4209 2.30753 42.9808 6.02613 41.9838L9.85253 40.9508L10.0681 42.6484L14.1011 57.6666L20.9275 55.8342C21.5652 55.6636 21.9245 55.5648 22.5084 55.1695L23.3168 58.1696L11.8555 61.2505L11.8645 61.2325Z" fill="#EF4B23"/>
<path d="M20.9904 38.1843L23.0653 41.876L21.6371 42.1993L17.8018 38.9119L20.9994 38.1933L20.9904 38.1843ZM23.5234 58.2684L23.3707 56.5618C21.9335 50.1935 22.5174 52.7803 21.0802 46.412C20.9365 45.7653 20.8377 45.3161 20.4784 44.8042L23.191 42.7203L26.1731 55.9241L26.7749 57.5319L23.5234 58.2684Z" fill="#EF4B23"/>
<path d="M33.8348 56.0138L36.8349 47.9569L31.7061 41.8041L35.4426 41.1664C35.3438 41.4179 35.5145 41.7682 35.8468 42.1454L38.0474 44.7772L39.2241 41.5706C39.4038 41.1035 39.4576 40.7172 39.278 40.5107L43.0146 39.8729L40.2121 47.373L45.7092 53.9839L41.9726 54.6216C42.0804 54.3701 41.9008 54.0198 41.5685 53.6426L39.0355 50.5796L37.6343 54.3162C37.4546 54.7833 37.4007 55.1695 37.5804 55.3761L33.8438 56.0138H33.8348Z" fill="#EF4B23"/>
<path d="M45.1434 33.7921L46.9039 37.6364L45.4488 37.843L41.9009 34.2501L45.1434 33.7921ZM46.0057 54.0109V52.2953C45.0895 45.8371 45.4578 48.4509 44.5506 41.9928C44.4608 41.3371 44.3979 40.879 44.0835 40.349L46.9578 38.4987L48.8351 51.909L49.3022 53.5528L45.9967 54.0198L46.0057 54.0109Z" fill="#EF4B23"/>
<path d="M55.2393 38.328C56.8741 38.1843 56.937 37.9508 56.8471 36.8909L56.7753 36.0915C56.7034 35.2921 56.6316 34.4567 56.3531 33.9088L59.3172 32.2112L59.8202 37.9418L64.1137 37.5645L64.3382 40.1424L60.0448 40.5197L60.6017 46.9599C60.7454 48.5677 61.2214 49.8162 62.2005 49.7354C63.1795 49.6545 63.5029 48.4689 63.8442 47.7144L66.2065 49.3581C65.2185 51.2623 64.0418 52.2863 62.3801 52.43C60.458 52.6007 58.1046 51.3881 57.7903 47.8132L57.2873 42.0556C57.1974 40.9957 57.0897 40.7712 55.4549 40.9149L55.2303 38.337L55.2393 38.328Z" fill="#EF4B23"/>
<path d="M67.2664 51.7024L67.4191 49.9958C67.1316 43.4748 66.9789 39.8011 66.6915 33.28C66.6646 32.6154 66.6466 32.1573 66.3861 31.5914L69.4221 30.0195L69.8352 39.4418C70.5808 37.9957 71.7395 36.828 73.5179 36.7472C75.9611 36.6394 77.8563 38.5436 78.027 42.6215L78.3234 49.5108L78.6288 51.1994L75.2964 51.3431L75.4491 49.6365L75.1437 42.6305C75.0449 40.4209 74.1018 39.2532 73.0149 39.2981C71.3532 39.3699 70.5987 42.0197 70.0418 44.2922L70.2844 49.8611L70.5898 51.5497L67.2574 51.6935L67.2664 51.7024Z" fill="#EF4B23"/>
<path d="M83.5241 46.9509C84.2068 47.9299 85.2667 48.6305 86.7038 48.6395C87.9703 48.6395 88.9493 48.0736 89.614 46.7892L91.8146 48.6395C90.5661 50.5257 88.7248 51.5228 86.5062 51.5138C81.7906 51.4868 79.4552 47.5616 79.4822 43.7442C79.5001 40.0975 81.7636 36.5405 86.2457 36.5675C89.147 36.5855 91.9224 38.4717 91.9045 41.7771C91.9045 42.9807 91.2308 44.0766 88.8146 44.9748L83.5152 46.9598L83.5241 46.9509ZM87.099 35.4178L86.3355 33.2621L85.5182 35.4088L82.4463 35.3908L85.599 31.3578H87.0631L90.1709 35.4357L87.099 35.4178ZM86.8835 42.9538C88.9314 42.2442 88.7607 41.7592 88.7607 41.4448C88.7607 40.1514 87.7098 39.4238 86.4433 39.4238C83.9463 39.4059 82.6618 41.6155 82.6529 43.8879C82.6529 44.0586 82.6529 44.2293 82.6798 44.4089L86.8835 42.9718V42.9538Z" fill="#EF4B23"/>
<path d="M99.5034 51.6665L99.7908 49.9869L100.204 43.8161C100.402 40.7801 99.7908 39.6125 98.9555 39.5586C97.4375 39.4598 96.6201 43.0347 96.0453 45.6215L95.7758 49.7264L95.8926 51.433L92.5602 51.2084L92.9015 49.5288L93.5752 39.4328C93.6201 38.7681 93.647 38.3101 93.4584 37.7262L96.6471 36.4957L96.4495 39.4777C97.4914 37.6184 98.8118 36.9268 100.015 37.0076C101.794 37.1244 102.782 38.7232 103.105 40.358C104.174 38.1843 105.611 37.3849 106.896 37.4657C109.222 37.6184 110.228 40.2771 110.093 42.2622L109.536 50.6425L109.599 52.3492L106.384 52.1336L106.671 50.4539L107.084 44.2832C107.291 41.2472 106.671 40.0795 105.845 40.0257C104.327 39.9268 103.509 43.5017 102.935 46.0527L102.656 50.1845L102.719 51.8911L99.5034 51.6755V51.6665Z" fill="#EF4B23"/>
<path d="M124.294 54.4061L124.743 52.7623L125.776 46.6724C126.288 43.6724 125.794 42.4508 124.968 42.3071C123.468 42.0556 122.291 45.5317 121.465 48.0377L120.782 52.0887L120.728 53.7953L117.441 53.2384L117.953 51.6036L119.641 41.6245C119.749 40.9688 119.83 40.5197 119.695 39.9179L122.992 39.0197L122.489 41.9658C123.719 40.2233 125.093 39.6664 126.288 39.864C128.049 40.1604 128.866 41.849 129.028 43.5017C130.312 41.4448 131.821 40.7981 133.097 41.0137C135.396 41.3999 136.124 44.1485 135.791 46.1066L134.39 54.3791L134.273 56.0767L131.103 55.5378L131.552 53.8941L132.585 47.8042C133.097 44.8042 132.603 43.5826 131.776 43.4389C130.276 43.1874 129.099 46.6635 128.273 49.1425L127.582 53.2204L127.465 54.9181L124.294 54.3791V54.4061Z" fill="#EF4B23"/>
<path d="M143.148 57.2354C141.89 57.8193 140.471 57.9271 139.24 57.6396C136.249 56.93 135.351 54.3791 135.899 52.0617C136.483 49.6006 138.827 47.4449 142.133 48.2263C143.166 48.4689 144.181 49.0707 144.908 49.8611C145.357 47.7233 144.306 46.4389 142.959 46.1155C141.98 45.882 140.839 46.2054 139.995 47.2742L138.189 45.0467C140.013 43.349 142.052 42.9538 143.848 43.376C146.588 44.0317 148.618 46.6634 147.926 49.5737L146.103 57.2354L145.932 58.942L142.914 58.2235L143.148 57.2444V57.2354ZM144.127 53.1216C143.875 52.0617 142.824 51.0377 141.809 50.8042C140.381 50.4629 139.294 51.4419 139.007 52.6456C138.683 54.0198 139.402 55.0977 140.767 55.43C141.746 55.6636 142.968 55.3671 143.821 54.3881L144.118 53.1306L144.127 53.1216Z" fill="#EF4B23"/>
<path d="M149.929 45.1005L153.405 46.1335C153.127 46.349 152.965 47.1125 153.001 47.7862L153.333 56.3731L158.292 49.3581C158.669 48.8101 158.965 48.0916 158.857 47.7592L162.001 48.6934L153.288 61.1067C151.321 63.9091 149.426 67.7535 145.573 66.6128C143.92 66.1188 142.905 64.502 142.249 62.3552L145.196 61.2235C145.357 62.8942 145.869 63.7026 146.534 63.9002C147.971 64.3223 149.202 62.2924 150.594 60.3073L149.938 45.1185L149.929 45.1005Z" fill="#EF4B23"/>
<path d="M11.8645 59.6965L11.649 57.9989L7.61598 42.9808L6.72674 43.2233C4.20276 43.9059 3.44826 45.7652 3.88838 47.409C4.35545 49.1605 6.17883 50.6336 8.59503 49.9868L8.66689 50.2653C9.00821 51.5408 8.52317 52.6276 7.22076 52.9779C4.36444 53.7504 1.66081 51.3431 0.960205 48.7114C-0.0727417 44.885 2.30753 41.4448 6.02613 40.4478L9.85253 39.4149L10.0681 41.1125L14.1011 56.1306L20.9275 54.2983C21.5652 54.1276 21.9245 54.0288 22.5084 53.6336L23.3168 56.6336L11.8555 59.7145L11.8645 59.6965Z" fill="#FFF400"/>
<path d="M20.9904 36.6483L23.0653 40.34L21.6371 40.6633L17.8018 37.3759L20.9994 36.6573L20.9904 36.6483ZM23.5234 56.7414L23.3707 55.0348C21.9335 48.6664 22.5174 51.2533 21.0802 44.8849C20.9365 44.2382 20.8377 43.7891 20.4784 43.2771L23.191 41.1933L26.1731 54.397L26.7749 56.0048L23.5234 56.7414Z" fill="#FFF400"/>
<path d="M33.8348 54.4779L36.8349 46.4209L31.7061 40.2681L35.4426 39.6304C35.3438 39.8819 35.5145 40.2322 35.8468 40.6095L38.0474 43.2412L39.2241 40.0346C39.4038 39.5675 39.4576 39.1813 39.278 38.9747L43.0146 38.337L40.2121 45.8371L45.7092 52.4479L41.9726 53.0857C42.0804 52.8342 41.9008 52.4839 41.5685 52.1066L39.0355 49.0437L37.6343 52.7803C37.4546 53.2473 37.4007 53.6336 37.5804 53.8402L33.8438 54.4779H33.8348Z" fill="#FFF400"/>
<path d="M45.1434 32.256L46.9039 36.1004L45.4488 36.307L41.9009 32.7141L45.1434 32.256ZM46.0057 52.4838V50.7682C45.0895 44.3101 45.4578 46.9239 44.5506 40.4657C44.4608 39.81 44.3979 39.3519 44.0835 38.822L46.9578 36.9717L48.8351 50.382L49.3022 52.0257L45.9967 52.4928L46.0057 52.4838Z" fill="#FFF400"/>
<path d="M55.2393 36.7921C56.8741 36.6484 56.937 36.4148 56.8471 35.3549L56.7753 34.5555C56.7034 33.7561 56.6316 32.9208 56.3531 32.3729L59.3172 30.6752L59.8202 36.4058L64.1137 36.0286L64.3382 38.6065L60.0448 38.9837L60.6017 45.4239C60.7454 47.0317 61.2214 48.2802 62.2005 48.1994C63.1795 48.1186 63.5029 46.9329 63.8442 46.1784L66.2065 47.8221C65.2185 49.7264 64.0418 50.7503 62.3801 50.894C60.458 51.0647 58.1046 49.8521 57.7903 46.2772L57.2873 40.5197C57.1974 39.4598 57.0897 39.2352 55.4549 39.3789L55.2303 36.8011L55.2393 36.7921Z" fill="#FFF400"/>
<path d="M67.2664 50.1755L67.4191 48.4688C67.1316 41.9478 66.9789 38.2741 66.6915 31.7531C66.6646 31.0884 66.6466 30.6303 66.3861 30.0644L69.4221 28.4926L69.8352 37.9148C70.5808 36.4687 71.7395 35.301 73.5179 35.2202C75.9611 35.1124 77.8563 37.0166 78.027 41.0945L78.3234 47.9838L78.6288 49.6725L75.2964 49.8162L75.4491 48.1096L75.1437 41.1035C75.0449 38.8939 74.1018 37.7262 73.0149 37.7711C71.3532 37.843 70.5987 40.4927 70.0418 42.7652L70.2844 48.3341L70.5898 50.0228L67.2574 50.1665L67.2664 50.1755Z" fill="#FFF400"/>
<path d="M83.5241 45.4239C84.2068 46.4029 85.2667 47.1035 86.7038 47.1125C87.9703 47.1125 88.9493 46.5467 89.614 45.2622L91.8146 47.1125C90.5661 48.9988 88.7248 49.9958 86.5062 49.9868C81.7906 49.9599 79.4552 46.0347 79.4822 42.2173C79.5001 38.5705 81.7636 35.0136 86.2457 35.0405C89.147 35.0585 91.9224 36.9447 91.9045 40.2502C91.9045 41.4538 91.2308 42.5496 88.8146 43.4478L83.5152 45.4329L83.5241 45.4239ZM87.099 33.8818L86.3355 31.7261L85.5182 33.8728L82.4463 33.8549L85.599 29.8219H87.0631L90.1709 33.8998L87.099 33.8818ZM86.8835 41.4179C88.9314 40.7083 88.7607 40.2232 88.7607 39.9088C88.7607 38.6154 87.7098 37.8879 86.4433 37.8879C83.9463 37.8699 82.6618 40.0795 82.6529 42.352C82.6529 42.5227 82.6529 42.6933 82.6798 42.873L86.8835 41.4358V41.4179Z" fill="#FFF400"/>
<path d="M99.5034 50.1395L99.7908 48.4599L100.204 42.2891C100.402 39.2532 99.7908 38.0855 98.9555 38.0316C97.4375 37.9328 96.6201 41.5077 96.0453 44.0945L95.7758 48.1994L95.8926 49.906L92.5602 49.6814L92.9015 48.0018L93.5752 37.9059C93.6201 37.2412 93.647 36.7831 93.4584 36.1992L96.6471 34.9687L96.4495 37.9508C97.4914 36.0915 98.8118 35.3998 100.015 35.4807C101.794 35.5974 102.782 37.1963 103.105 38.831C104.174 36.6573 105.611 35.8579 106.896 35.9388C109.222 36.0915 110.228 38.7502 110.093 40.7352L109.536 49.1156L109.599 50.8222L106.384 50.6066L106.671 48.9269L107.084 42.7562C107.291 39.7202 106.671 38.5526 105.845 38.4987C104.327 38.3999 103.509 41.9748 102.935 44.5257L102.656 48.6575L102.719 50.3641L99.5034 50.1485V50.1395Z" fill="#FFF400"/>
<path d="M124.294 52.8701L124.743 51.2264L125.776 45.1365C126.288 42.1365 125.794 40.9149 124.968 40.7712C123.468 40.5197 122.291 43.9958 121.465 46.5018L120.782 50.5527L120.728 52.2593L117.441 51.7024L117.953 50.0677L119.641 40.0885C119.749 39.4328 119.83 38.9837 119.695 38.3819L122.992 37.4837L122.489 40.4298C123.719 38.6873 125.093 38.1304 126.288 38.328C128.049 38.6244 128.866 40.3131 129.028 41.9658C130.312 39.9089 131.821 39.2622 133.097 39.4777C135.396 39.864 136.124 42.6125 135.791 44.5706L134.39 52.8432L134.273 54.5408L131.103 54.0019L131.552 52.3581L132.585 46.2682C133.097 43.2682 132.603 42.0466 131.776 41.9029C130.276 41.6514 129.099 45.1275 128.273 47.6066L127.582 51.6845L127.465 53.3821L124.294 52.8432V52.8701Z" fill="#FFF400"/>
<path d="M143.148 55.6995C141.89 56.2833 140.471 56.3911 139.24 56.1037C136.249 55.3941 135.351 52.8432 135.899 50.5258C136.483 48.0647 138.827 45.9089 142.133 46.6904C143.166 46.9329 144.181 47.5347 144.908 48.3251C145.357 46.1874 144.306 44.9029 142.959 44.5796C141.98 44.3461 140.839 44.6694 139.995 45.7383L138.189 43.5107C140.013 41.8131 142.052 41.4179 143.848 41.84C146.588 42.4957 148.618 45.1275 147.926 48.0377L146.103 55.6995L145.932 57.4061L142.914 56.6875L143.148 55.7085V55.6995ZM144.127 51.5946C143.875 50.5348 142.824 49.5108 141.809 49.2772C140.381 48.9359 139.294 49.915 139.007 51.1186C138.683 52.4929 139.402 53.5707 140.767 53.9031C141.746 54.1366 142.968 53.8402 143.821 52.8611L144.118 51.6036L144.127 51.5946Z" fill="#FFF400"/>
<path d="M149.929 43.5646L153.405 44.5975C153.127 44.8131 152.965 45.5766 153.001 46.2502L153.333 54.8372L158.292 47.8221C158.669 47.2742 158.965 46.5556 158.857 46.2233L162.001 47.1574L153.288 59.5708C151.321 62.3732 149.426 66.2175 145.573 65.0768C143.92 64.5828 142.905 62.966 142.249 60.8193L145.196 59.6875C145.357 61.3582 145.869 62.1666 146.534 62.3642C147.971 62.7864 149.202 60.7564 150.594 58.7713L149.938 43.5825L149.929 43.5646Z" fill="#FFF400"/>
</svg>
