<svg xmlns="http://www.w3.org/2000/svg" width="161" height="39" fill="none" viewBox="0 0 161 39">
  <path fill="#C12202" d="M3.97 33.403.674 21.52 0 19.948l3.216-.89.233 1.698 3.288 11.856c.565 2.048 2.335 3.054 4.392 2.48 2.129-.593 3.108-2.354 2.533-4.402l-3.288-11.856-.673-1.572 2.99-.826c.064-.198.1-.387.046-.584-.1-.476-.431-1.015-1.545-1.06l1.167-1.931c1.707.242 2.3 1.185 2.515 2.075.279 1.203-.727 2.74-1.661 3.359l3.233 11.659c1.033 3.71-.862 6.89-4.572 7.922s-6.862-.754-7.895-4.464zm22.967.377-.152-1.706-.126-.53c-.467 1.554-1.401 2.91-3.135 3.314-2.38.548-4.59-.988-5.497-4.967l-1.213-5.326c-.143-.647-.251-1.096-.602-1.6l2.704-2.092 1.94 8.488c.494 2.156 1.626 3.135 2.695 2.892 1.626-.368 1.886-3.108 2.03-5.443l-.925-4.033c-.144-.647-.252-1.096-.602-1.599l2.704-2.093 2.82 12.35.602 1.6-3.252.745zm20.471-3.71-.144-.907c-1.006.997-2.174 1.554-3.341 1.734-4.033.62-6.638-2.73-7.213-6.422-.575-3.719.907-7.734 5.084-8.372a5.35 5.35 0 0 1 3.566.674l-.332-2.192-2.839.44-.35-2.272 2.838-.44-.072-.458c-.098-.656-.17-1.105-.485-1.644l2.848-1.895.547 3.548.854-.135.35 2.273-.853.134 2.12 13.806.485 1.643-3.072.468zm-1.518-9.907c-.961-1.131-2.156-1.527-3.207-1.374-2.39.368-3.206 2.82-2.847 5.12.377 2.443 2.102 4.77 4.715 4.365.908-.144 1.734-.647 2.345-1.58l-1.006-6.54zm13.482 7.491a6.1 6.1 0 0 1-3.557 1.671c-3.063.323-4.752-1.787-5.003-4.159-.26-2.515 1.24-5.335 4.608-5.685a5.7 5.7 0 0 1 3.161.62c-.287-2.165-1.706-3.028-3.071-2.884-.997.108-1.968.782-2.417 2.075l-2.443-1.509c1.159-2.2 2.955-3.26 4.788-3.45 2.802-.296 5.596 1.528 5.901 4.5l.817 7.833.405 1.662-3.09.323-.108-.997zm-3.279-16.77c.54-.053.872-.52.764-1.58l1.886-.198c.225 2.12-.62 3.503-1.931 3.638-1.716.18-1.877-1.365-2.874-1.258-.458.045-.746.566-.647 1.545l-1.886.198c-.144-1.374.161-3.431 1.904-3.61 1.77-.19 2.021 1.347 2.793 1.266zm2.848 12.567c-.584-.925-1.922-1.536-2.955-1.428-1.455.152-2.165 1.437-2.03 2.667.143 1.401 1.185 2.192 2.587 2.04.997-.109 2.057-.791 2.532-2.004l-.134-1.284zm5.003-15.647c1.033-.072 1.77.566 1.841 1.599.081 1.06-.557 1.796-1.59 1.877-1.032.072-1.77-.566-1.85-1.626-.072-1.033.566-1.77 1.599-1.841zm-.189 20.48.108-1.707c-.476-6.513-.278-3.872-.754-10.384-.045-.656-.081-1.114-.35-1.67l2.99-1.662.98 13.509.35 1.67zM75.09 17.837c-.044-3.252 2.686-4.958 5.624-4.994 2.066-.027 4.24.862 5.56 2.677l-2.13 2.101c-.799-1.338-2.245-1.922-3.448-1.904-1.24.018-2.605.638-2.596 1.617.045 2.901 8.344.395 8.416 5.425.045 3.135-2.749 4.985-5.82 5.03-2.21.036-4.608-.88-6.018-2.82l2.389-1.958c.826 1.338 2.524 1.922 3.736 1.904 1.24-.018 2.632-.674 2.614-1.904-.036-2.497-8.254-.108-8.326-5.174m20.156 8.856a6.05 6.05 0 0 1-3.746 1.168c-3.072-.099-4.464-2.425-4.383-4.806.08-2.523 1.949-5.11 5.344-4.994a5.6 5.6 0 0 1 3.045 1.051c.018-2.182-1.275-3.233-2.65-3.278-1.006-.036-2.056.503-2.676 1.724l-2.21-1.832c1.446-2.02 3.368-2.82 5.21-2.757 2.811.09 5.326 2.281 5.227 5.263l-.26 7.869.17 1.706-3.107-.108zM91.672 8.11c-.036.98.494 1.689 1.58 1.725 1.123.036 1.69-.638 1.725-1.608l2.012.063c-.072 2.21-1.617 3.602-3.8 3.52-2.155-.071-3.601-1.553-3.53-3.772zm3.718 14.363c-.458-.997-1.697-1.779-2.73-1.815-1.464-.045-2.335 1.132-2.38 2.363-.045 1.41.87 2.326 2.281 2.38 1.006.036 2.147-.503 2.784-1.635zm1.653-18.53L93.89 7.894l-1.464-.045 1.339-4.006 3.278.107zm9.351 24.475.332-1.67.575-6.154c.287-3.036-.297-4.212-1.132-4.293-1.518-.144-2.425 3.413-3.072 5.973l-.386 4.096.072 1.706-3.324-.314.387-1.67.943-10.07c.063-.655.108-1.113-.072-1.706l3.224-1.14-.278 2.972c1.096-1.832 2.425-2.488 3.629-2.371 1.778.162 2.721 1.787 3 3.431 1.123-2.147 2.578-2.91 3.871-2.784 2.318.215 3.252 2.9 3.063 4.877l-.781 8.353.018 1.707-3.207-.296.332-1.671.575-6.153c.288-3.036-.296-4.212-1.132-4.293-1.518-.144-2.425 3.413-3.063 5.946l-.386 4.123.018 1.706-3.206-.296zm24.772 3.449.539-1.626 2.892-15.341c-2.335-.503-4.841-.566-5.398 2.407-.332 1.778.665 3.898 3.126 4.365l-.054.279c-.242 1.302-1.15 2.066-2.479 1.814-2.91-.548-4.302-3.88-3.79-6.566.736-3.898 4.374-5.964 8.155-5.245l4.743.898c3.251.61 4.895.395 5.362-2.057l.279.054c1.302.242 2.066 1.15 1.814 2.479-.548 2.91-3.665 3.17-7.994 2.353l-.961-.18-2.883 15.28-.09 1.706-3.279-.62z"/>
  <path fill="#C12202" d="M140.75 29.55c.44 1.113 1.312 2.03 2.704 2.37 1.23.297 2.317-.026 3.26-1.13l1.716 2.307c-1.644 1.554-3.674 2.093-5.82 1.572-4.581-1.113-5.947-5.47-5.048-9.18.862-3.547 3.88-6.484 8.236-5.425 2.821.683 5.093 3.162 4.312 6.369-.288 1.177-1.186 2.075-3.746 2.398l-5.614.71zm4.195-3.126c2.156-.216 2.102-.737 2.174-1.042.305-1.258-.557-2.21-1.788-2.506-2.434-.593-4.186 1.266-4.715 3.467-.045.17-.081.332-.099.512zm1.94-7.276-.242-2.281-1.294 1.904-2.991-.727 3.997-3.198 1.428.35 2.093 4.68zm8.111-4.778-3.889 3.224-1.428-.341 2.128-3.656 3.18.773zm-2.803 7.599c1.572.476 1.716.278 2.021-.746l.234-.772c.234-.773.476-1.572.422-2.183l3.386-.476-1.661 5.506 4.132 1.24-.746 2.479-4.132-1.24-1.868 6.189c-.467 1.545-.476 2.883.458 3.17.934.279 1.68-.691 2.273-1.266l1.589 2.398c-1.625 1.401-3.099 1.913-4.697 1.437-1.842-.556-3.584-2.55-2.551-5.99l1.67-5.534c.306-1.015.288-1.266-1.275-1.733zM3.97 31.876.674 19.993 0 18.42l3.216-.89.233 1.698 3.288 11.857c.565 2.047 2.335 3.053 4.392 2.479 2.129-.593 3.108-2.354 2.533-4.402l-3.288-11.856-.673-1.572 2.99-.826c.064-.198.1-.386.046-.584-.1-.476-.431-1.015-1.545-1.06l1.167-1.931c1.707.242 2.3 1.186 2.515 2.075.279 1.203-.727 2.74-1.661 3.359l3.233 11.659c1.033 3.71-.862 6.89-4.572 7.922s-6.862-.754-7.895-4.464zm22.967.368-.152-1.706-.126-.53c-.467 1.554-1.401 2.91-3.135 3.314-2.38.548-4.59-.988-5.497-4.967l-1.213-5.326c-.143-.647-.251-1.096-.602-1.6l2.704-2.092 1.94 8.488c.494 2.156 1.626 3.135 2.695 2.892 1.626-.368 1.886-3.107 2.03-5.443l-.925-4.033c-.144-.647-.252-1.096-.602-1.599l2.704-2.093 2.82 12.351.602 1.599-3.252.745zm20.471-3.7-.144-.908c-1.006.997-2.174 1.554-3.341 1.734-4.033.62-6.638-2.73-7.213-6.422-.575-3.719.907-7.734 5.084-8.372a5.35 5.35 0 0 1 3.566.674l-.332-2.192-2.839.44-.35-2.272 2.838-.44-.072-.458c-.098-.656-.17-1.105-.485-1.644l2.848-1.895.547 3.548.854-.135.35 2.273-.853.134 2.12 13.806.485 1.644-3.072.467zm-1.518-9.917c-.961-1.131-2.156-1.527-3.207-1.374-2.39.368-3.206 2.82-2.847 5.12.377 2.443 2.102 4.77 4.715 4.365.908-.143 1.734-.646 2.345-1.58l-1.006-6.54zm13.482 7.491a6.1 6.1 0 0 1-3.557 1.671c-3.063.323-4.752-1.787-5.003-4.159-.26-2.515 1.24-5.335 4.608-5.685a5.7 5.7 0 0 1 3.161.62c-.287-2.165-1.706-3.028-3.071-2.884-.997.108-1.968.782-2.417 2.075l-2.443-1.509c1.159-2.2 2.955-3.26 4.788-3.45 2.802-.296 5.596 1.528 5.901 4.501l.817 7.832.405 1.662-3.09.323-.108-.997zm-3.279-16.77c.54-.053.872-.52.764-1.58l1.886-.198c.225 2.12-.62 3.503-1.931 3.638-1.716.18-1.877-1.365-2.874-1.257-.458.044-.746.565-.647 1.544l-1.886.198c-.144-1.374.161-3.431 1.904-3.61 1.77-.19 2.021 1.347 2.793 1.266zm2.848 12.567c-.584-.925-1.922-1.536-2.955-1.428-1.455.152-2.165 1.437-2.03 2.667.143 1.401 1.185 2.192 2.587 2.04.997-.108 2.057-.791 2.532-2.004l-.134-1.284zm5.003-15.638c1.033-.072 1.77.566 1.841 1.599.081 1.06-.557 1.796-1.59 1.877-1.032.072-1.77-.566-1.85-1.626-.072-1.033.566-1.77 1.599-1.841zm-.189 20.48.108-1.708c-.476-6.511-.278-3.87-.754-10.383-.045-.655-.081-1.114-.35-1.67l2.99-1.662.98 13.509.35 1.67zM75.09 16.3c-.044-3.25 2.686-4.957 5.624-4.993 2.066-.027 4.24.862 5.56 2.676l-2.13 2.102c-.799-1.338-2.245-1.922-3.448-1.904-1.24.018-2.605.638-2.596 1.617.045 2.901 8.344.395 8.416 5.425.045 3.135-2.749 4.985-5.82 5.03-2.21.036-4.608-.88-6.018-2.82l2.389-1.958c.826 1.338 2.524 1.922 3.736 1.904 1.24-.018 2.632-.674 2.614-1.904-.036-2.497-8.254-.108-8.326-5.174m20.156 8.856a6.05 6.05 0 0 1-3.746 1.168c-3.072-.099-4.464-2.425-4.383-4.805.08-2.524 1.949-5.111 5.344-4.994a5.6 5.6 0 0 1 3.045 1.05c.018-2.182-1.275-3.233-2.65-3.278-1.006-.036-2.056.503-2.676 1.725l-2.21-1.833c1.446-2.02 3.368-2.82 5.21-2.757 2.811.09 5.326 2.281 5.227 5.263l-.26 7.868.17 1.707-3.107-.108zM91.672 6.573c-.036.98.494 1.689 1.58 1.725 1.123.036 1.69-.638 1.725-1.608l2.012.063c-.072 2.21-1.617 3.602-3.8 3.52-2.155-.07-3.601-1.553-3.53-3.772zm3.718 14.363c-.458-.997-1.697-1.779-2.73-1.815-1.464-.045-2.335 1.132-2.38 2.363-.045 1.41.87 2.326 2.281 2.38 1.006.036 2.147-.503 2.784-1.635zm1.653-18.521L93.89 6.367l-1.464-.045 1.339-4.006 3.278.108zm9.351 24.475.332-1.67.575-6.153c.287-3.035-.297-4.212-1.132-4.293-1.518-.144-2.425 3.413-3.072 5.973l-.386 4.096.072 1.707-3.324-.315.387-1.67.943-10.07c.063-.655.108-1.113-.072-1.706l3.224-1.14-.278 2.972c1.096-1.832 2.425-2.488 3.629-2.371 1.778.162 2.721 1.787 3 3.431 1.123-2.147 2.578-2.91 3.871-2.784 2.318.215 3.252 2.9 3.063 4.877l-.781 8.353.018 1.707-3.207-.296.332-1.671.575-6.153c.288-3.036-.296-4.212-1.132-4.293-1.518-.144-2.425 3.413-3.063 5.946l-.386 4.123.018 1.706-3.206-.296z"/>
  <path fill="#C12202" d="m131.166 30.331.539-1.626 2.892-15.341c-2.335-.503-4.841-.566-5.398 2.407-.332 1.778.665 3.898 3.126 4.365l-.054.279c-.242 1.302-1.15 2.066-2.479 1.814-2.91-.548-4.302-3.88-3.79-6.566.736-3.898 4.374-5.964 8.155-5.245l4.743.898c3.251.61 4.895.395 5.362-2.057l.279.054c1.302.242 2.066 1.15 1.814 2.479-.548 2.91-3.665 3.17-7.994 2.353l-.961-.18-2.883 15.28-.09 1.706-3.279-.62z"/>
  <path fill="#C12202" d="M140.75 28.014c.44 1.113 1.312 2.03 2.704 2.37 1.23.297 2.317-.026 3.26-1.13l1.716 2.308c-1.644 1.553-3.674 2.092-5.82 1.571-4.581-1.113-5.947-5.47-5.048-9.18.862-3.547 3.88-6.484 8.236-5.424 2.821.682 5.093 3.161 4.312 6.368-.288 1.177-1.186 2.075-3.746 2.398l-5.614.71zm4.195-3.126c2.156-.216 2.102-.737 2.174-1.042.305-1.258-.557-2.21-1.788-2.506-2.434-.593-4.186 1.266-4.715 3.467a3 3 0 0 0-.099.512zm1.94-7.276-.242-2.281-1.294 1.904-2.991-.727 3.997-3.198 1.428.35 2.093 4.68zm8.111-4.778-3.889 3.224-1.428-.34 2.128-3.657 3.18.773zm-2.803 7.599c1.572.476 1.716.278 2.021-.746l.234-.772c.234-.773.476-1.572.422-2.183l3.386-.476-1.661 5.506 4.132 1.24-.746 2.479-4.132-1.24-1.868 6.189c-.467 1.545-.476 2.883.458 3.17.934.279 1.68-.691 2.273-1.266l1.589 2.398c-1.625 1.401-3.099 1.913-4.697 1.437-1.842-.556-3.584-2.55-2.551-5.99l1.67-5.534c.306-1.015.288-1.266-1.275-1.733z"/>
  <path fill="#EF4B23" d="M3.97 31.876.674 19.993 0 18.42l3.216-.89.233 1.698 3.288 11.857c.565 2.047 2.335 3.053 4.392 2.479 2.129-.593 3.108-2.354 2.533-4.402l-3.288-11.856-.673-1.572 2.99-.826c.064-.198.1-.386.046-.584-.1-.476-.431-1.015-1.545-1.06l1.167-1.931c1.707.242 2.3 1.186 2.515 2.075.279 1.203-.727 2.74-1.661 3.359l3.233 11.659c1.033 3.71-.862 6.89-4.572 7.922s-6.862-.754-7.895-4.464zm22.967.368-.152-1.706-.126-.53c-.467 1.554-1.401 2.91-3.135 3.314-2.38.548-4.59-.988-5.497-4.967l-1.213-5.326c-.143-.647-.251-1.096-.602-1.6l2.704-2.092 1.94 8.488c.494 2.156 1.626 3.135 2.695 2.892 1.626-.368 1.886-3.107 2.03-5.443l-.925-4.033c-.144-.647-.252-1.096-.602-1.599l2.704-2.093 2.82 12.351.602 1.599-3.252.745zm20.471-3.7-.144-.908c-1.006.997-2.174 1.554-3.341 1.734-4.033.62-6.638-2.73-7.213-6.422-.575-3.719.907-7.734 5.084-8.372a5.35 5.35 0 0 1 3.566.674l-.332-2.192-2.839.44-.35-2.272 2.838-.44-.072-.458c-.098-.656-.17-1.105-.485-1.644l2.848-1.895.547 3.548.854-.135.35 2.273-.853.134 2.12 13.806.485 1.644-3.072.467zm-1.518-9.917c-.961-1.131-2.156-1.527-3.207-1.374-2.39.368-3.206 2.82-2.847 5.12.377 2.443 2.102 4.77 4.715 4.365.908-.143 1.734-.646 2.345-1.58l-1.006-6.54zm13.482 7.491a6.1 6.1 0 0 1-3.557 1.671c-3.063.323-4.752-1.787-5.003-4.159-.26-2.515 1.24-5.335 4.608-5.685a5.7 5.7 0 0 1 3.161.62c-.287-2.165-1.706-3.028-3.071-2.884-.997.108-1.968.782-2.417 2.075l-2.443-1.509c1.159-2.2 2.955-3.26 4.788-3.45 2.802-.296 5.596 1.528 5.901 4.501l.817 7.832.405 1.662-3.09.323-.108-.997zm-3.279-16.77c.54-.053.872-.52.764-1.58l1.886-.198c.225 2.12-.62 3.503-1.931 3.638-1.716.18-1.877-1.365-2.874-1.257-.458.044-.746.565-.647 1.544l-1.886.198c-.144-1.374.161-3.431 1.904-3.61 1.77-.19 2.021 1.347 2.793 1.266zm2.848 12.567c-.584-.925-1.922-1.536-2.955-1.428-1.455.152-2.165 1.437-2.03 2.667.143 1.401 1.185 2.192 2.587 2.04.997-.108 2.057-.791 2.532-2.004l-.134-1.284zm5.003-15.638c1.033-.072 1.77.566 1.841 1.599.081 1.06-.557 1.796-1.59 1.877-1.032.072-1.77-.566-1.85-1.626-.072-1.033.566-1.77 1.599-1.841zm-.189 20.48.108-1.708c-.476-6.511-.278-3.87-.754-10.383-.045-.655-.081-1.114-.35-1.67l2.99-1.662.98 13.509.35 1.67zM75.09 16.3c-.044-3.25 2.686-4.957 5.624-4.993 2.066-.027 4.24.862 5.56 2.676l-2.13 2.102c-.799-1.338-2.245-1.922-3.448-1.904-1.24.018-2.605.638-2.596 1.617.045 2.901 8.344.395 8.416 5.425.045 3.135-2.749 4.985-5.82 5.03-2.21.036-4.608-.88-6.018-2.82l2.389-1.958c.826 1.338 2.524 1.922 3.736 1.904 1.24-.018 2.632-.674 2.614-1.904-.036-2.497-8.254-.108-8.326-5.174m20.156 8.856a6.05 6.05 0 0 1-3.746 1.168c-3.072-.099-4.464-2.425-4.383-4.805.08-2.524 1.949-5.111 5.344-4.994a5.6 5.6 0 0 1 3.045 1.05c.018-2.182-1.275-3.233-2.65-3.278-1.006-.036-2.056.503-2.676 1.725l-2.21-1.833c1.446-2.02 3.368-2.82 5.21-2.757 2.811.09 5.326 2.281 5.227 5.263l-.26 7.868.17 1.707-3.107-.108zM91.672 6.573c-.036.98.494 1.689 1.58 1.725 1.123.036 1.69-.638 1.725-1.608l2.012.063c-.072 2.21-1.617 3.602-3.8 3.52-2.155-.07-3.601-1.553-3.53-3.772zm3.718 14.363c-.458-.997-1.697-1.779-2.73-1.815-1.464-.045-2.335 1.132-2.38 2.363-.045 1.41.87 2.326 2.281 2.38 1.006.036 2.147-.503 2.784-1.635zm1.653-18.521L93.89 6.367l-1.464-.045 1.339-4.006 3.278.108zm9.351 24.475.332-1.67.575-6.153c.287-3.035-.297-4.212-1.132-4.293-1.518-.144-2.425 3.413-3.072 5.973l-.386 4.096.072 1.707-3.324-.315.387-1.67.943-10.07c.063-.655.108-1.113-.072-1.706l3.224-1.14-.278 2.972c1.096-1.832 2.425-2.488 3.629-2.371 1.778.162 2.721 1.787 3 3.431 1.123-2.147 2.578-2.91 3.871-2.784 2.318.215 3.252 2.9 3.063 4.877l-.781 8.353.018 1.707-3.207-.296.332-1.671.575-6.153c.288-3.036-.296-4.212-1.132-4.293-1.518-.144-2.425 3.413-3.063 5.946l-.386 4.123.018 1.706-3.206-.296zm24.772 3.441.539-1.626 2.892-15.341c-2.335-.503-4.841-.566-5.398 2.407-.332 1.778.665 3.898 3.126 4.365l-.054.279c-.242 1.302-1.15 2.066-2.479 1.814-2.91-.548-4.302-3.88-3.79-6.566.736-3.898 4.374-5.964 8.155-5.245l4.743.898c3.251.61 4.895.395 5.362-2.057l.279.054c1.302.242 2.066 1.15 1.814 2.479-.548 2.91-3.665 3.17-7.994 2.353l-.961-.18-2.883 15.28-.09 1.706-3.279-.62z"/>
  <path fill="#EF4B23" d="M140.75 28.014c.44 1.113 1.312 2.03 2.704 2.37 1.23.297 2.317-.026 3.26-1.13l1.716 2.308c-1.644 1.553-3.674 2.092-5.82 1.571-4.581-1.113-5.947-5.47-5.048-9.18.862-3.547 3.88-6.484 8.236-5.424 2.821.682 5.093 3.161 4.312 6.368-.288 1.177-1.186 2.075-3.746 2.398l-5.614.71zm4.195-3.126c2.156-.216 2.102-.737 2.174-1.042.305-1.258-.557-2.21-1.788-2.506-2.434-.593-4.186 1.266-4.715 3.467a3 3 0 0 0-.099.512zm1.94-7.276-.242-2.281-1.294 1.904-2.991-.727 3.997-3.198 1.428.35 2.093 4.68zm8.111-4.778-3.889 3.224-1.428-.34 2.128-3.657 3.18.773zm-2.803 7.599c1.572.476 1.716.278 2.021-.746l.234-.772c.234-.773.476-1.572.422-2.183l3.386-.476-1.661 5.506 4.132 1.24-.746 2.479-4.132-1.24-1.868 6.189c-.467 1.545-.476 2.883.458 3.17.934.279 1.68-.691 2.273-1.266l1.589 2.398c-1.625 1.401-3.099 1.913-4.697 1.437-1.842-.556-3.584-2.55-2.551-5.99l1.67-5.534c.306-1.015.288-1.266-1.275-1.733z"/>
  <path fill="#FFF400" d="M3.97 30.34.674 18.457 0 16.885l3.216-.89.233 1.698L6.737 29.55c.565 2.047 2.335 3.053 4.392 2.479 2.129-.593 3.108-2.354 2.533-4.402l-3.288-11.856-.673-1.572 2.99-.826c.064-.198.1-.386.046-.584-.1-.476-.431-1.015-1.545-1.06l1.167-1.931c1.707.242 2.3 1.185 2.515 2.075.279 1.203-.727 2.74-1.661 3.36l3.233 11.658c1.033 3.71-.862 6.89-4.572 7.922S5.012 34.06 3.98 30.35zm22.967.377-.152-1.706-.126-.53c-.467 1.554-1.401 2.91-3.135 3.314-2.38.548-4.59-.988-5.497-4.967l-1.213-5.326c-.143-.647-.251-1.096-.602-1.6l2.704-2.092 1.94 8.488c.494 2.156 1.626 3.135 2.695 2.892 1.626-.368 1.886-3.108 2.03-5.443l-.925-4.033c-.144-.646-.252-1.096-.602-1.599l2.704-2.092 2.82 12.35.602 1.599-3.252.745zm20.471-3.709-.144-.907c-1.006.997-2.174 1.553-3.341 1.733-4.033.62-6.638-2.73-7.213-6.422-.575-3.719.907-7.734 5.084-8.372a5.35 5.35 0 0 1 3.566.674l-.332-2.192-2.839.44-.35-2.272 2.838-.44-.072-.458c-.098-.656-.17-1.105-.485-1.644l2.848-1.895.547 3.548.854-.135.35 2.273-.853.134 2.12 13.806.485 1.644-3.072.467zM45.89 17.09c-.961-1.131-2.156-1.527-3.207-1.374-2.39.368-3.206 2.82-2.847 5.12.377 2.443 2.102 4.77 4.715 4.365.908-.144 1.734-.647 2.345-1.58l-1.006-6.54zm13.482 7.493a6.1 6.1 0 0 1-3.557 1.67c-3.063.323-4.752-1.787-5.003-4.159-.26-2.515 1.24-5.335 4.608-5.685a5.7 5.7 0 0 1 3.161.62c-.287-2.165-1.706-3.027-3.071-2.884-.997.108-1.968.782-2.417 2.075l-2.443-1.509c1.159-2.2 2.955-3.26 4.788-3.45 2.802-.295 5.596 1.528 5.901 4.501l.817 7.832.405 1.662-3.09.323-.108-.997zM56.093 7.822c.54-.054.872-.521.764-1.581l1.886-.198c.225 2.12-.62 3.503-1.931 3.638-1.716.18-1.877-1.365-2.874-1.257-.458.045-.746.565-.647 1.545l-1.886.197c-.144-1.374.161-3.431 1.904-3.61 1.77-.19 2.021 1.347 2.793 1.266zm2.848 12.557c-.584-.925-1.922-1.536-2.955-1.428-1.455.152-2.165 1.437-2.03 2.667.143 1.402 1.185 2.192 2.587 2.04.997-.109 2.057-.791 2.532-2.004l-.134-1.284zM63.944 4.74c1.033-.07 1.77.567 1.841 1.6.081 1.06-.557 1.796-1.59 1.877-1.032.072-1.77-.566-1.85-1.626-.072-1.033.566-1.77 1.599-1.841zm-.189 20.48.108-1.706c-.476-6.512-.278-3.872-.754-10.384-.045-.655-.081-1.114-.35-1.67l2.99-1.662.98 13.509.35 1.67zM75.09 14.765c-.044-3.251 2.686-4.958 5.624-4.994 2.066-.027 4.24.862 5.56 2.677l-2.13 2.101c-.799-1.338-2.245-1.922-3.448-1.904-1.24.018-2.605.638-2.596 1.617.045 2.901 8.344.395 8.416 5.425.045 3.135-2.749 4.985-5.82 5.03-2.21.036-4.608-.88-6.018-2.82l2.389-1.958c.826 1.338 2.524 1.922 3.736 1.904 1.24-.018 2.632-.674 2.614-1.904-.036-2.497-8.254-.108-8.326-5.174m20.156 8.856A6.05 6.05 0 0 1 91.5 24.79c-3.072-.099-4.464-2.425-4.383-4.805.08-2.524 1.949-5.111 5.344-4.995a5.6 5.6 0 0 1 3.045 1.052c.018-2.183-1.275-3.234-2.65-3.279-1.006-.036-2.056.503-2.676 1.724l-2.21-1.832c1.446-2.02 3.368-2.82 5.21-2.757 2.811.09 5.326 2.281 5.227 5.263l-.26 7.869.17 1.706-3.107-.108zM91.672 5.037c-.036.98.494 1.689 1.58 1.725 1.123.036 1.69-.638 1.725-1.608l2.012.063c-.072 2.21-1.617 3.602-3.8 3.521-2.155-.072-3.601-1.554-3.53-3.773zM95.39 19.4c-.458-.997-1.697-1.779-2.73-1.815-1.464-.044-2.335 1.132-2.38 2.363-.045 1.41.87 2.326 2.281 2.38 1.006.036 2.147-.503 2.784-1.635zM97.043.879 93.89 4.83l-1.464-.045L93.765.78l3.278.108zm9.351 24.476.332-1.67.575-6.153c.287-3.036-.297-4.213-1.132-4.294-1.518-.144-2.425 3.413-3.072 5.973l-.386 4.096.072 1.707-3.324-.315.387-1.67.943-10.07c.063-.655.108-1.113-.072-1.706l3.224-1.14-.278 2.972c1.096-1.832 2.425-2.488 3.629-2.371 1.778.162 2.721 1.787 3 3.431 1.123-2.146 2.578-2.91 3.871-2.784 2.318.215 3.252 2.901 3.063 4.877l-.781 8.353.018 1.707-3.207-.296.332-1.671.575-6.153c.288-3.036-.296-4.212-1.132-4.293-1.518-.144-2.425 3.413-3.063 5.946l-.386 4.123.018 1.706-3.206-.296zm24.772 3.44.539-1.626 2.892-15.341c-2.335-.503-4.841-.566-5.398 2.407-.332 1.779.665 3.898 3.126 4.365l-.054.279c-.242 1.302-1.15 2.066-2.479 1.814-2.91-.548-4.302-3.88-3.79-6.566.736-3.898 4.374-5.964 8.155-5.245l4.743.898c3.251.61 4.895.395 5.362-2.057l.279.054c1.302.242 2.066 1.15 1.814 2.479-.548 2.91-3.665 3.17-7.994 2.353l-.961-.18-2.883 15.28-.09 1.706-3.279-.62z"/>
  <path fill="#FFF400" d="M140.75 26.478c.44 1.113 1.312 2.03 2.704 2.371 1.23.296 2.317-.027 3.26-1.132l1.716 2.309c-1.644 1.554-3.674 2.092-5.82 1.572-4.581-1.114-5.947-5.47-5.048-9.18.862-3.548 3.88-6.485 8.236-5.425 2.821.682 5.093 3.161 4.312 6.368-.288 1.177-1.186 2.075-3.746 2.398l-5.614.71zm4.195-3.126c2.156-.216 2.102-.737 2.174-1.042.305-1.258-.557-2.21-1.788-2.506-2.434-.593-4.186 1.267-4.715 3.467-.045.17-.081.332-.099.512zm1.94-7.276-.242-2.281-1.294 1.904-2.991-.727 3.997-3.198 1.428.35 2.093 4.68zm8.111-4.778-3.889 3.225-1.428-.342 2.128-3.656 3.18.773zm-2.803 7.599c1.572.476 1.716.278 2.021-.746l.234-.772c.234-.773.476-1.572.422-2.183l3.386-.476-1.661 5.506 4.132 1.24-.746 2.479-4.132-1.24-1.868 6.189c-.467 1.545-.476 2.883.458 3.17.934.279 1.68-.691 2.273-1.266l1.589 2.398c-1.625 1.402-3.099 1.913-4.697 1.438-1.842-.557-3.584-2.551-2.551-5.992l1.67-5.533c.306-1.015.288-1.266-1.275-1.733z"/>
</svg>
