<svg xmlns="http://www.w3.org/2000/svg" width="245" height="98" fill="none" viewBox="0 0 245 98" xmlns:xlink="http://www.w3.org/1999/xlink">
  <g clip-path="url(#a)">
    <path fill="#D61313" d="M125.976-.482C59.301-.482 9.847 23.7 9.847 23.7L36.14 90.6c33.252-12.05 63.462-16.055 88.951-16.055 50.763 0 82.805 15.907 82.805 15.907l26.239-67.103C196.46 5.492 159.092-.482 125.967-.473z"/>
    <g style="mix-blend-mode:multiply">
      <mask id="b" width="226" height="92" x="9" y="-1" maskUnits="userSpaceOnUse" style="mask-type:luminance">
        <path fill="#fff" d="M125.976-.482C59.301-.482 9.847 23.7 9.847 23.7L36.14 90.6c33.252-12.05 63.462-16.055 88.951-16.055 50.763 0 82.805 15.907 82.805 15.907l26.239-67.103C196.46 5.492 159.092-.482 125.967-.473z"/>
      </mask>
      <g fill="#F56D27" mask="url(#b)">
        <path d="M9.847 84.488c4.983 0 9.026 4.143 9.026 9.248-4.982 0-9.026-4.143-9.026-9.248m18.053 0c0 5.105-4.044 9.248-9.027 9.248 0-5.105 4.044-9.248 9.026-9.248m.001 0c-4.983 0-9.027-4.143-9.027-9.248 4.983 0 9.026 4.143 9.026 9.248"/>
        <path d="M18.873 75.24c0 5.105-4.043 9.248-9.026 9.248 0-5.105 4.044-9.248 9.026-9.248m27.078 9.248c0 5.105-4.043 9.248-9.026 9.248 0-5.105 4.044-9.248 9.026-9.248m0 0c-4.982 0-9.026-4.143-9.026-9.248 4.983 0 9.026 4.143 9.026 9.248m-9.026-9.248c0 5.105-4.043 9.248-9.026 9.248 0-5.105 4.044-9.248 9.026-9.248M27.9 84.488c4.982 0 9.025 4.143 9.025 9.248-4.982 0-9.026-4.143-9.026-9.248m36.104 0c0 5.105-4.043 9.248-9.026 9.248 0-5.105 4.044-9.248 9.026-9.248"/>
        <path d="M54.977 75.24c0 5.105-4.043 9.248-9.026 9.248 0-5.105 4.044-9.248 9.026-9.248m-9.026 9.248c4.983 0 9.026 4.143 9.026 9.248-4.982 0-9.026-4.143-9.026-9.248m18.052 0c-4.982 0-9.026-4.143-9.026-9.248 4.983 0 9.026 4.143 9.026 9.248m0 0c4.983 0 9.026 4.143 9.026 9.248-4.982 0-9.026-4.143-9.026-9.248m9.027-9.248c0 5.105-4.044 9.248-9.027 9.248 0-5.105 4.044-9.248 9.026-9.248m9.026 9.248c0 5.105-4.043 9.239-9.026 9.248 0-5.105 4.044-9.248 9.026-9.248"/>
        <path d="M82.055 84.488c-4.982 0-9.026-4.143-9.026-9.248 4.983 0 9.026 4.143 9.026 9.248m9.026-9.248c0 5.105-4.043 9.248-9.026 9.248 0-5.105 4.044-9.248 9.026-9.248m-9.026 9.248c4.983 0 9.026 4.143 9.026 9.248-4.982 0-9.017-4.143-9.026-9.248m18.052 0c0 5.105-4.043 9.248-9.026 9.248 0-5.105 4.044-9.248 9.026-9.248m0 0c-4.982 0-9.026-4.143-9.026-9.248 4.983 0 9.026 4.143 9.026 9.248m18.052 0c-4.982 0-9.026-4.143-9.026-9.248 4.983 0 9.026 4.143 9.026 9.248m-9.026-9.248c0 5.105-4.043 9.248-9.026 9.248 0-5.105 4.044-9.248 9.026-9.248m-9.026 9.248c4.983 0 9.026 4.143 9.026 9.248-4.982 0-9.026-4.143-9.026-9.248m18.052 0c0 5.105-4.043 9.248-9.026 9.248 0-5.105 4.044-9.248 9.026-9.248m9.026-9.248c0 5.105-4.043 9.248-9.026 9.248 0-5.105 4.044-9.248 9.026-9.248m9.026 9.248c-4.982 0-9.026-4.143-9.026-9.248 4.983 0 9.026 4.143 9.026 9.248m0 0c0 5.105-4.043 9.239-9.026 9.248 0-5.105 4.044-9.248 9.026-9.248m-18.052 0c4.983 0 9.026 4.143 9.026 9.248-4.982 0-9.026-4.143-9.026-9.248m36.104 0c-4.982 0-9.026-4.143-9.026-9.248 4.983 0 9.026 4.143 9.026 9.248m0 0c0 5.105-4.043 9.248-9.026 9.248 0-5.105 4.044-9.248 9.026-9.248"/>
        <path d="M145.237 75.24c0 5.105-4.043 9.248-9.026 9.248 0-5.105 4.044-9.248 9.026-9.248m-9.026 9.248c4.983 0 9.026 4.143 9.026 9.248-4.982 0-9.017-4.143-9.026-9.248m18.052 0c4.983 0 9.026 4.143 9.026 9.248-4.982 0-9.026-4.143-9.026-9.248m9.026-9.248c0 5.105-4.043 9.248-9.026 9.248 0-5.105 4.044-9.248 9.026-9.248m9.026 9.248c-4.982 0-9.026-4.143-9.026-9.248 4.983 0 9.026 4.143 9.026 9.248m0 0c0 5.105-4.043 9.248-9.026 9.248 0-5.105 4.044-9.248 9.026-9.248m18.052 0c-4.982 0-9.026-4.143-9.026-9.248 4.983 0 9.026 4.143 9.026 9.248"/>
        <path d="M181.341 75.24c0 5.105-4.043 9.248-9.026 9.248 0-5.105 4.044-9.248 9.026-9.248m-9.026 9.248c4.983 0 9.026 4.143 9.026 9.248-4.982 0-9.026-4.143-9.026-9.248"/>
        <path d="M190.367 84.488c0 5.105-4.043 9.248-9.026 9.248 0-5.105 4.044-9.248 9.026-9.248m9.026-9.248c0 5.105-4.043 9.248-9.026 9.248 0-5.105 4.044-9.248 9.026-9.248m9.026 9.248c0 5.105-4.043 9.248-9.026 9.248 0-5.105 4.044-9.248 9.026-9.248m0 0c-4.982 0-9.026-4.143-9.026-9.248 4.983 0 9.026 4.143 9.026 9.248m-18.052 0c4.983 0 9.026 4.143 9.026 9.248-4.982 0-9.026-4.143-9.026-9.248m36.105 0c0 5.105-4.044 9.248-9.026 9.248 0-5.105 4.043-9.248 9.026-9.248m-18.053 0c4.983 0 9.026 4.143 9.026 9.248-4.982 0-9.026-4.143-9.026-9.248"/>
        <path d="M217.436 75.24c0 5.105-4.043 9.248-9.026 9.248 0-5.105 4.044-9.248 9.026-9.248m9.036 9.248c-4.983 0-9.026-4.143-9.026-9.248 4.982 0 9.026 4.143 9.026 9.248m-.001 0c4.983 0 9.026 4.143 9.026 9.248-4.982 0-9.026-4.143-9.026-9.248"/>
        <path d="M235.488 75.24c0 5.105-4.043 9.248-9.026 9.248 0-5.105 4.044-9.248 9.026-9.248M27.9 65.992c-4.983 0-9.027-4.143-9.027-9.248 4.983 0 9.026 4.143 9.026 9.248"/>
        <path d="M18.873 56.744c0 5.105-4.043 9.248-9.026 9.248 0-5.105 4.044-9.248 9.026-9.248m9.027 9.248c0 5.105-4.044 9.248-9.027 9.248 0-5.105 4.044-9.248 9.026-9.248m-18.052 0c4.983 0 9.026 4.143 9.026 9.248-4.982 0-9.026-4.143-9.026-9.248"/>
        <path d="M27.9 65.992c4.982 0 9.025 4.143 9.025 9.248-4.982 0-9.026-4.143-9.026-9.248m9.026-9.248c0 5.105-4.043 9.248-9.026 9.248 0-5.105 4.044-9.248 9.026-9.248m9.026 9.248c0 5.105-4.043 9.248-9.026 9.248 0-5.105 4.044-9.248 9.026-9.248m0 0c-4.982 0-9.026-4.143-9.026-9.248 4.983 0 9.026 4.143 9.026 9.248m0 0c4.983 0 9.026 4.143 9.026 9.248-4.982 0-9.026-4.143-9.026-9.248m18.052 0c0 5.105-4.043 9.248-9.026 9.248 0-5.105 4.044-9.248 9.026-9.248m0 0c-4.982 0-9.026-4.143-9.026-9.248 4.983 0 9.026 4.143 9.026 9.248"/>
        <path d="M54.977 56.744c0 5.105-4.043 9.248-9.026 9.248 0-5.105 4.044-9.248 9.026-9.248m18.053 0c0 5.105-4.044 9.248-9.027 9.248 0-5.105 4.044-9.248 9.026-9.248m9.026 9.248c0 5.105-4.043 9.248-9.026 9.248 0-5.105 4.044-9.248 9.026-9.248m-18.052 0c4.983 0 9.026 4.143 9.026 9.248-4.982 0-9.026-4.143-9.026-9.248"/>
        <path d="M82.055 65.992c-4.982 0-9.026-4.143-9.026-9.248 4.983 0 9.026 4.143 9.026 9.248m9.026-9.248c0 5.105-4.043 9.248-9.026 9.248 0-5.105 4.044-9.248 9.026-9.248m9.026 9.248c0 5.105-4.043 9.248-9.026 9.248 0-5.105 4.044-9.248 9.026-9.248m-18.052 0c4.983 0 9.026 4.143 9.026 9.248-4.982 0-9.026-4.143-9.026-9.248m18.052 0c-4.982 0-9.026-4.143-9.026-9.248 4.983 0 9.026 4.143 9.026 9.248m9.026-9.248c0 5.105-4.043 9.248-9.026 9.248 0-5.105 4.044-9.248 9.026-9.248m9.026 9.248c0 5.105-4.043 9.248-9.026 9.248 0-5.105 4.044-9.248 9.026-9.248m-18.052 0c4.983 0 9.026 4.143 9.026 9.248-4.982 0-9.026-4.143-9.026-9.248m18.052 0c-4.982 0-9.026-4.143-9.026-9.248 4.983 0 9.026 4.143 9.026 9.248m18.052 0c-4.982 0-9.026-4.143-9.026-9.248 4.983 0 9.026 4.143 9.026 9.248m0 0c0 5.105-4.043 9.248-9.026 9.248 0-5.105 4.044-9.248 9.026-9.248m-18.052 0c4.983 0 9.026 4.143 9.026 9.248-4.982 0-9.026-4.143-9.026-9.248m9.026-9.248c0 5.105-4.043 9.248-9.026 9.248 0-5.105 4.044-9.248 9.026-9.248m18.052 0c0 5.105-4.043 9.248-9.026 9.248 0-5.105 4.044-9.248 9.026-9.248m-9.026 9.248c4.983 0 9.026 4.143 9.026 9.248-4.982 0-9.026-4.143-9.026-9.248m18.052 0c-4.982 0-9.026-4.143-9.026-9.248 4.983 0 9.026 4.143 9.026 9.248m0 0c0 5.105-4.043 9.248-9.026 9.248 0-5.105 4.044-9.248 9.026-9.248m18.052 0c-4.982 0-9.026-4.143-9.026-9.248 4.983 0 9.026 4.143 9.026 9.248m-9.026-9.248c0 5.105-4.043 9.248-9.026 9.248 0-5.105 4.044-9.248 9.026-9.248m9.026 9.248c0 5.105-4.043 9.248-9.026 9.248 0-5.105 4.044-9.248 9.026-9.248"/>
        <path d="M154.263 65.992c4.983 0 9.026 4.143 9.026 9.248-4.982 0-9.026-4.143-9.026-9.248m36.104 0c0 5.105-4.043 9.248-9.026 9.248 0-5.105 4.044-9.248 9.026-9.248m0 0c-4.982 0-9.026-4.143-9.026-9.248 4.983 0 9.026 4.143 9.026 9.248"/>
        <path d="M172.315 65.992c4.983 0 9.026 4.143 9.026 9.248-4.982 0-9.026-4.143-9.026-9.248m9.026-9.248c0 5.105-4.043 9.248-9.026 9.248 0-5.105 4.044-9.248 9.026-9.248m18.043 0c0 5.105-4.043 9.248-9.026 9.248 0-5.105 4.044-9.248 9.026-9.248m-9.017 9.248c4.983 0 9.026 4.143 9.026 9.248-4.982 0-9.026-4.143-9.026-9.248m18.052 0c-4.982 0-9.026-4.143-9.026-9.248 4.983 0 9.026 4.143 9.026 9.248m0 0c0 5.105-4.043 9.248-9.026 9.248 0-5.105 4.044-9.248 9.026-9.248"/>
        <path d="M217.436 56.744c0 5.105-4.043 9.248-9.026 9.248 0-5.105 4.044-9.248 9.026-9.248m9.036 9.248c-4.983 0-9.026-4.143-9.026-9.248 4.982 0 9.026 4.143 9.026 9.248m0 0c0 5.105-4.044 9.248-9.026 9.248 0-5.105 4.043-9.248 9.026-9.248m-18.053 0c4.983 0 9.026 4.143 9.026 9.248-4.982 0-9.026-4.143-9.026-9.248"/>
        <path d="M226.471 65.992c4.983 0 9.026 4.143 9.026 9.248-4.982 0-9.026-4.143-9.026-9.248m9.017-9.248c0 5.105-4.043 9.248-9.026 9.248 0-5.105 4.044-9.248 9.026-9.248M27.9 47.496c-4.983 0-9.027-4.143-9.027-9.248 4.983 0 9.026 4.143 9.026 9.248m-9.026 9.248c-4.982 0-9.026-4.143-9.026-9.248 4.983 0 9.026 4.143 9.026 9.248"/>
        <path d="M18.873 38.248c0 5.105-4.043 9.248-9.026 9.248 0-5.105 4.044-9.248 9.026-9.248m9.027 9.248c0 5.105-4.044 9.248-9.027 9.248 0-5.105 4.044-9.248 9.026-9.248"/>
        <path d="M27.9 47.496c4.982 0 9.025 4.143 9.025 9.248-4.982 0-9.026-4.143-9.026-9.248m18.052 0c0 5.105-4.043 9.248-9.026 9.248 0-5.105 4.044-9.248 9.026-9.248m0 0c-4.982 0-9.026-4.143-9.026-9.248 4.983 0 9.026 4.143 9.026 9.248m-9.026-9.248c0 5.105-4.043 9.248-9.026 9.248 0-5.105 4.044-9.248 9.026-9.248m27.078 9.248c0 5.105-4.043 9.248-9.026 9.248 0-5.105 4.044-9.248 9.026-9.248"/>
        <path d="M54.977 38.248c0 5.105-4.043 9.248-9.026 9.248 0-5.105 4.044-9.248 9.026-9.248m9.026 9.248c-4.982 0-9.026-4.143-9.026-9.248 4.983 0 9.026 4.143 9.026 9.248m-18.052 0c4.983 0 9.026 4.143 9.026 9.248-4.982 0-9.026-4.143-9.026-9.248m36.104 0c-4.982 0-9.026-4.143-9.026-9.248 4.983 0 9.026 4.143 9.026 9.248"/>
        <path d="M73.03 38.248c0 5.105-4.044 9.248-9.027 9.248 0-5.105 4.044-9.248 9.026-9.248m-9.026 9.248c4.983 0 9.026 4.143 9.026 9.248-4.982 0-9.026-4.143-9.026-9.248m18.052 0c0 5.105-4.043 9.248-9.026 9.248 0-5.105 4.044-9.248 9.026-9.248m18.052 0c-4.982 0-9.026-4.143-9.026-9.248 4.983 0 9.026 4.143 9.026 9.248m-9.026-9.248c0 5.105-4.043 9.248-9.026 9.248 0-5.105 4.044-9.248 9.026-9.248m9.026 9.248c0 5.105-4.043 9.248-9.026 9.248 0-5.105 4.044-9.248 9.026-9.248m-18.052 0c4.983 0 9.026 4.143 9.026 9.248-4.982 0-9.026-4.143-9.026-9.248m36.104 0c0 5.105-4.043 9.248-9.026 9.248 0-5.105 4.044-9.248 9.026-9.248m-18.052 0c4.983 0 9.026 4.143 9.026 9.248-4.982 0-9.026-4.143-9.026-9.248m18.052 0c-4.982 0-9.026-4.143-9.026-9.248 4.983 0 9.026 4.143 9.026 9.248m-9.026-9.248c0 5.105-4.043 9.248-9.026 9.248 0-5.105 4.044-9.248 9.026-9.248m18.052 0c0 5.105-4.043 9.248-9.026 9.248 0-5.105 4.044-9.248 9.026-9.248m9.026 9.248c-4.982 0-9.026-4.143-9.026-9.248 4.983 0 9.026 4.143 9.026 9.248m0 0c0 5.105-4.043 9.248-9.026 9.248 0-5.105 4.044-9.248 9.026-9.248m-18.052 0c4.983 0 9.026 4.143 9.026 9.248-4.982 0-9.026-4.143-9.026-9.248m36.104 0c0 5.105-4.043 9.248-9.026 9.248 0-5.105 4.044-9.248 9.026-9.248"/>
        <path d="M136.211 47.496c4.983 0 9.026 4.143 9.026 9.248-4.982 0-9.026-4.143-9.026-9.248m9.026-9.248c0 5.105-4.043 9.248-9.026 9.248 0-5.105 4.044-9.248 9.026-9.248m9.026 9.248c-4.982 0-9.026-4.143-9.026-9.248 4.983 0 9.026 4.143 9.026 9.248m18.052 0c-4.982 0-9.026-4.143-9.026-9.248 4.983 0 9.026 4.143 9.026 9.248"/>
        <path d="M163.28 38.248c0 5.105-4.043 9.248-9.026 9.248 0-5.105 4.044-9.248 9.026-9.248m-9.017 9.248c4.983 0 9.026 4.143 9.026 9.248-4.982 0-9.026-4.143-9.026-9.248"/>
        <path d="M172.315 47.496c0 5.105-4.043 9.248-9.026 9.248 0-5.105 4.044-9.248 9.026-9.248m18.052 0c-4.982 0-9.026-4.143-9.026-9.248 4.983 0 9.026 4.143 9.026 9.248m-9.035-9.248c0 5.105-4.043 9.248-9.026 9.248 0-5.105 4.044-9.248 9.026-9.248m9.035 9.248c0 5.105-4.043 9.248-9.026 9.248 0-5.105 4.044-9.248 9.026-9.248"/>
        <path d="M172.315 47.496c4.983 0 9.026 4.143 9.026 9.248-4.982 0-9.026-4.143-9.026-9.248m18.052 0c4.983 0 9.026 4.143 9.026 9.248-4.982 0-9.026-4.143-9.026-9.248m18.052 0c-4.982 0-9.026-4.143-9.026-9.248 4.983 0 9.026 4.143 9.026 9.248m-9.035-9.248c0 5.105-4.043 9.248-9.026 9.248 0-5.105 4.044-9.248 9.026-9.248m9.035 9.248c0 5.105-4.043 9.248-9.026 9.248 0-5.105 4.044-9.248 9.026-9.248m0 0c4.983 0 9.026 4.143 9.026 9.248-4.982 0-9.026-4.143-9.026-9.248m18.053 0c0 5.105-4.044 9.248-9.026 9.248 0-5.105 4.043-9.248 9.026-9.248m0 0c-4.983 0-9.026-4.143-9.026-9.248 4.982 0 9.026 4.143 9.026 9.248"/>
        <path d="M217.436 38.248c0 5.105-4.043 9.248-9.026 9.248 0-5.105 4.044-9.248 9.026-9.248m18.052 0c0 5.105-4.043 9.248-9.026 9.248 0-5.105 4.044-9.248 9.026-9.248m-9.017 9.248c4.983 0 9.026 4.143 9.026 9.248-4.982 0-9.026-4.143-9.026-9.248M18.882 38.248c0-5.105 4.044-9.248 9.026-9.248 0 5.105-4.043 9.248-9.026 9.248m-.009 0c-4.982 0-9.026-4.143-9.026-9.248 4.983 0 9.026 4.143 9.026 9.248m0-18.496c0 5.105-4.043 9.248-9.026 9.248 0-5.105 4.044-9.248 9.026-9.248"/>
        <path d="M27.9 29c-4.983 0-9.027-4.143-9.027-9.248 4.983 0 9.026 4.143 9.026 9.248m18.052 0c-4.982 0-9.026-4.143-9.026-9.248 4.983 0 9.026 4.143 9.026 9.248m0 0c0 5.105-4.043 9.248-9.026 9.248 0-5.105 4.044-9.248 9.026-9.248m-9.026 9.248c-4.982 0-9.026-4.143-9.026-9.248 4.983 0 9.026 4.143 9.026 9.248"/>
        <path d="M36.925 19.752c0 5.105-4.043 9.248-9.026 9.248 0-5.105 4.044-9.248 9.026-9.248m18.052 0c0 5.105-4.043 9.248-9.026 9.248 0-5.105 4.044-9.248 9.026-9.248M45.951 29c4.983 0 9.026 4.143 9.026 9.248-4.982 0-9.026-4.143-9.026-9.248m18.052 0c0 5.105-4.043 9.248-9.026 9.248 0-5.105 4.044-9.248 9.026-9.248m0 0c-4.982 0-9.026-4.143-9.026-9.248 4.983 0 9.026 4.143 9.026 9.248m18.052 0c-4.982 0-9.026-4.143-9.026-9.248 4.983 0 9.026 4.143 9.026 9.248m-18.052 0c4.983 0 9.026 4.143 9.026 9.248-4.982 0-9.026-4.143-9.026-9.248m18.052 0c0 5.105-4.043 9.248-9.026 9.248 0-5.105 4.044-9.248 9.026-9.248"/>
        <path d="M73.03 19.752c0 5.105-4.044 9.248-9.027 9.248 0-5.105 4.044-9.248 9.026-9.248M82.055 29c4.983 0 9.026 4.143 9.026 9.248-4.982 0-9.026-4.143-9.026-9.248m9.026-9.248c0 5.105-4.043 9.248-9.026 9.248 0-5.105 4.044-9.248 9.026-9.248M100.107 29c-4.982 0-9.026-4.143-9.026-9.248 4.983 0 9.026 4.143 9.026 9.248m0 0c0 5.105-4.043 9.248-9.026 9.248 0-5.105 4.044-9.248 9.026-9.248m18.052 0c0 5.105-4.043 9.248-9.026 9.248 0-5.105 4.044-9.248 9.026-9.248m-18.052 0c4.983 0 9.026 4.143 9.026 9.248-4.982 0-9.026-4.143-9.026-9.248m18.052 0c-4.982 0-9.026-4.143-9.026-9.248 4.983 0 9.026 4.143 9.026 9.248m-9.026-9.248c0 5.105-4.043 9.248-9.026 9.248 0-5.105 4.044-9.248 9.026-9.248M136.211 29c0 5.105-4.043 9.248-9.026 9.248 0-5.105 4.044-9.248 9.026-9.248m-18.052 0c4.983 0 9.026 4.143 9.026 9.248-4.982 0-9.026-4.143-9.026-9.248m18.052 0c-4.982 0-9.026-4.143-9.026-9.248 4.983 0 9.026 4.143 9.026 9.248m-9.026-9.248c0 5.105-4.043 9.248-9.026 9.248 0-5.105 4.044-9.248 9.026-9.248"/>
        <path d="M145.237 19.752c0 5.105-4.043 9.248-9.026 9.248 0-5.105 4.044-9.248 9.026-9.248M154.263 29c0 5.105-4.043 9.248-9.026 9.248 0-5.105 4.044-9.248 9.026-9.248m0 0c-4.982 0-9.026-4.143-9.026-9.248 4.983 0 9.026 4.143 9.026 9.248"/>
        <path d="M136.211 29c4.983 0 9.026 4.143 9.026 9.248-4.982 0-9.026-4.143-9.026-9.248m27.078-9.248c0 5.105-4.043 9.248-9.026 9.248 0-5.105 4.044-9.248 9.026-9.248M172.315 29c0 5.105-4.043 9.248-9.026 9.248 0-5.105 4.044-9.248 9.026-9.248m0 0c-4.982 0-9.026-4.143-9.026-9.248 4.983 0 9.026 4.143 9.026 9.248"/>
        <path d="M154.263 29c4.983 0 9.026 4.143 9.026 9.248-4.982 0-9.026-4.143-9.026-9.248m36.104 0c0 5.105-4.043 9.248-9.026 9.248 0-5.105 4.044-9.248 9.026-9.248m-18.052 0c4.983 0 9.026 4.143 9.026 9.248-4.982 0-9.026-4.143-9.026-9.248m18.052 0c-4.982 0-9.026-4.143-9.026-9.248 4.983 0 9.026 4.143 9.026 9.248"/>
        <path d="M181.341 19.752c0 5.105-4.043 9.248-9.026 9.248 0-5.105 4.044-9.248 9.026-9.248M208.419 29c-4.982 0-9.026-4.143-9.026-9.248 4.983 0 9.026 4.143 9.026 9.248m0 0c0 5.105-4.043 9.248-9.026 9.248 0-5.105 4.044-9.248 9.026-9.248m-9.035-9.248c0 5.105-4.043 9.248-9.026 9.248 0-5.105 4.044-9.248 9.026-9.248M190.367 29c4.983 0 9.026 4.143 9.026 9.248-4.982 0-9.026-4.143-9.026-9.248m36.095 0c0 5.105-4.043 9.248-9.026 9.248 0-5.105 4.044-9.248 9.026-9.248"/>
        <path d="M217.436 19.752c0 5.105-4.043 9.248-9.026 9.248 0-5.105 4.044-9.248 9.026-9.248M226.472 29c-4.983 0-9.026-4.143-9.026-9.248 4.982 0 9.026 4.143 9.026 9.248m-18.053 0c4.983 0 9.026 4.143 9.026 9.248-4.982 0-9.026-4.143-9.026-9.248"/>
        <path d="M235.488 19.752c0 5.105-4.043 9.248-9.026 9.248 0-5.105 4.044-9.248 9.026-9.248M226.471 29c4.983 0 9.026 4.143 9.026 9.248-4.982 0-9.026-4.143-9.026-9.248M27.9 10.504c-4.983 0-9.027-4.143-9.027-9.248 4.983 0 9.026 4.143 9.026 9.248m-9.026 9.248c-4.982 0-9.026-4.143-9.026-9.248 4.983 0 9.026 4.143 9.026 9.248m0 0c0-5.105 4.044-9.248 9.026-9.248 0 5.105-4.043 9.248-9.026 9.248"/>
        <path d="M18.873 1.256c0 5.105-4.043 9.248-9.026 9.248 0-5.105 4.044-9.248 9.026-9.248m18.052 18.496c0-5.105 4.044-9.248 9.026-9.248 0 5.105-4.043 9.248-9.026 9.248m9.026-9.248c-4.982 0-9.026-4.143-9.026-9.248 4.983 0 9.026 4.143 9.026 9.248m-9.026 9.248c-4.982 0-9.026-4.143-9.026-9.248 4.983 0 9.026 4.143 9.026 9.248m0-18.496c0 5.105-4.043 9.248-9.026 9.248 0-5.105 4.044-9.248 9.026-9.248m18.052 18.496c-4.982 0-9.026-4.143-9.026-9.248 4.983 0 9.026 4.143 9.026 9.248m9.026-9.248c-4.982 0-9.026-4.143-9.026-9.248 4.983 0 9.026 4.143 9.026 9.248m0 0c0 5.105-4.043 9.248-9.026 9.248 0-5.105 4.044-9.248 9.026-9.248"/>
        <path d="M54.977 1.256c0 5.105-4.043 9.248-9.026 9.248 0-5.105 4.044-9.248 9.026-9.248m9.026 9.248c4.983 0 9.026 4.143 9.026 9.248-4.982 0-9.026-4.143-9.026-9.248m18.052 0c-4.982 0-9.026-4.143-9.026-9.248 4.983 0 9.026 4.143 9.026 9.248"/>
        <path d="M73.03 1.256c0 5.105-4.044 9.248-9.027 9.248 0-5.105 4.044-9.248 9.026-9.248m9.026 9.248c0 5.105-4.043 9.248-9.026 9.248 0-5.105 4.044-9.248 9.026-9.248m0 0c4.983 0 9.026 4.143 9.026 9.248-4.982 0-9.026-4.143-9.026-9.248m18.052 0c-4.982 0-9.026-4.143-9.026-9.248 4.983 0 9.026 4.143 9.026 9.248m0 0c0 5.105-4.043 9.248-9.026 9.248 0-5.105 4.044-9.248 9.026-9.248m-9.026-9.248c0 5.105-4.043 9.248-9.026 9.248 0-5.105 4.044-9.248 9.026-9.248m9.026 9.248c4.983 0 9.026 4.143 9.026 9.248-4.982 0-9.026-4.143-9.026-9.248m18.052 0c0 5.105-4.043 9.248-9.026 9.248 0-5.105 4.044-9.248 9.026-9.248m-9.026-9.248c0 5.105-4.043 9.248-9.026 9.248 0-5.105 4.044-9.248 9.026-9.248m9.026 9.248c-4.982 0-9.026-4.143-9.026-9.248 4.983 0 9.026 4.143 9.026 9.248m0 0c4.983 0 9.026 4.143 9.026 9.248-4.982 0-9.026-4.143-9.026-9.248m18.052 0c0 5.105-4.043 9.248-9.026 9.248 0-5.105 4.044-9.248 9.026-9.248m-9.026-9.248c0 5.105-4.043 9.248-9.026 9.248 0-5.105 4.044-9.248 9.026-9.248m9.026 9.248c-4.982 0-9.026-4.143-9.026-9.248 4.983 0 9.026 4.143 9.026 9.248m0 0c4.983 0 9.026 4.143 9.026 9.248-4.982 0-9.026-4.143-9.026-9.248m18.052 0c0 5.105-4.043 9.248-9.026 9.248 0-5.105 4.044-9.248 9.026-9.248m-9.026-9.248c0 5.105-4.043 9.248-9.026 9.248 0-5.105 4.044-9.248 9.026-9.248m9.026 9.248c-4.982 0-9.026-4.143-9.026-9.248 4.983 0 9.026 4.143 9.026 9.248m18.052 0c0 5.105-4.043 9.248-9.026 9.248 0-5.105 4.044-9.248 9.026-9.248m0 0c-4.982 0-9.026-4.143-9.026-9.248 4.983 0 9.026 4.143 9.026 9.248"/>
        <path d="M163.289 1.256c0 5.105-4.043 9.248-9.026 9.248 0-5.105 4.044-9.248 9.026-9.248m-9.026 9.248c4.983 0 9.026 4.143 9.026 9.248-4.982 0-9.026-4.143-9.026-9.248m27.069-9.248c0 5.105-4.043 9.248-9.026 9.248 0-5.105 4.044-9.248 9.026-9.248m9.035 9.248c0 5.105-4.043 9.248-9.026 9.248 0-5.105 4.044-9.248 9.026-9.248m0 0c-4.982 0-9.026-4.143-9.026-9.248 4.983 0 9.026 4.143 9.026 9.248"/>
        <path d="M172.315 10.504c4.983 0 9.026 4.143 9.026 9.248-4.982 0-9.026-4.143-9.026-9.248m36.104 0c-4.982 0-9.026-4.143-9.026-9.248 4.983 0 9.026 4.143 9.026 9.248m0 0c0 5.105-4.043 9.248-9.026 9.248 0-5.105 4.044-9.248 9.026-9.248m-9.035-9.248c0 5.105-4.043 9.248-9.026 9.248 0-5.105 4.044-9.248 9.026-9.248m-9.017 9.248c4.983 0 9.026 4.143 9.026 9.248-4.982 0-9.026-4.143-9.026-9.248m18.052 0c4.983 0 9.026 4.143 9.026 9.248-4.982 0-9.026-4.143-9.026-9.248"/>
        <path d="M217.436 1.256c0 5.105-4.043 9.248-9.026 9.248 0-5.105 4.044-9.248 9.026-9.248m.01 18.496c0-5.105 4.043-9.248 9.026-9.248 0 5.105-4.044 9.248-9.026 9.248m0-18.496c4.982 0 9.026 4.143 9.026 9.248-4.983 0-9.026-4.143-9.026-9.248"/>
        <path d="M226.471 10.504c4.983 0 9.026 4.143 9.026 9.248-4.982 0-9.026-4.143-9.026-9.248m9.017-9.248c0 5.105-4.043 9.248-9.026 9.248 0-5.105 4.044-9.248 9.026-9.248m-216.606 0c0-5.104 4.044-9.248 9.026-9.248 0 5.105-4.043 9.248-9.026 9.248m-.009 0c-4.982 0-9.026-4.143-9.026-9.248 4.983 0 9.026 4.144 9.026 9.248"/>
        <path d="M36.925 1.256c-4.982 0-9.026-4.143-9.026-9.248 4.983 0 9.026 4.144 9.026 9.248m0 0c0-5.104 4.044-9.248 9.026-9.248 0 5.105-4.043 9.248-9.026 9.248m18.052 0c0-5.104 4.044-9.248 9.026-9.248 0 5.105-4.043 9.248-9.026 9.248m0 0c-4.982 0-9.026-4.143-9.026-9.248 4.983 0 9.026 4.144 9.026 9.248m18.053 0c-4.983 0-9.027-4.143-9.027-9.248 4.983 0 9.026 4.144 9.026 9.248"/>
        <path d="M82.055-7.992c0 5.105-4.043 9.248-9.026 9.248 0-5.104 4.044-9.248 9.026-9.248m18.052 0c0 5.105-4.043 9.248-9.026 9.248 0-5.104 4.044-9.248 9.026-9.248m-18.052.01c4.983 0 9.026 4.143 9.026 9.248-4.982 0-9.026-4.144-9.026-9.248m36.104-.01c0 5.105-4.043 9.248-9.026 9.248 0-5.104 4.044-9.248 9.026-9.248m-18.052 0c4.983 0 9.026 4.144 9.026 9.248-4.982 0-9.026-4.143-9.026-9.248m18.052 0c4.983 0 9.026 4.144 9.026 9.248-4.982 0-9.026-4.143-9.026-9.248m18.052 0c0 5.105-4.043 9.248-9.026 9.248 0-5.104 4.044-9.248 9.026-9.248m0 .01c4.983 0 9.026 4.143 9.026 9.248-4.982 0-9.026-4.144-9.026-9.248m18.052-.01c0 5.105-4.043 9.248-9.026 9.248 0-5.104 4.044-9.248 9.026-9.248m18.052 0c0 5.105-4.043 9.248-9.026 9.248 0-5.104 4.044-9.248 9.026-9.248"/>
        <path d="M154.263-7.992c4.983 0 9.026 4.144 9.026 9.248-4.982 0-9.026-4.143-9.026-9.248m36.104 0c0 5.105-4.043 9.248-9.026 9.248 0-5.104 4.044-9.248 9.026-9.248"/>
        <path d="M172.315-7.992c4.983 0 9.026 4.144 9.026 9.248-4.982 0-9.026-4.143-9.026-9.248m27.078 9.248c0-5.104 4.044-9.248 9.026-9.248 0 5.105-4.043 9.248-9.026 9.248m-9.026-9.248c4.983 0 9.026 4.144 9.026 9.248-4.982 0-9.026-4.143-9.026-9.248m18.052 0c4.983 0 9.026 4.144 9.026 9.248-4.982 0-9.026-4.143-9.026-9.248m9.027 9.248c0-5.104 4.043-9.248 9.026-9.248 0 5.105-4.044 9.248-9.026 9.248"/>
        <path d="M226.471-7.992c4.983 0 9.026 4.144 9.026 9.248-4.982 0-9.026-4.143-9.026-9.248"/>
      </g>
    </g>
    <path stroke="#000" stroke-linecap="round" stroke-linejoin="round" stroke-width=".925" d="M125.813 8.34c32.819 0 64.013 6.603 92.86 19.624L199.61 78.921c-12.555-4.939-38.911-13.206-74.645-13.206-26.753 0-53.75 4.66-80.358 13.853L25.39 28.455C40.617 22.064 78.788 8.34 125.813 8.34"/>
    <path fill="#EF4B23" d="M125.813 8.34c32.819 0 64.013 6.603 92.86 19.624L199.61 78.921c-12.555-4.939-38.911-13.206-74.645-13.206-26.753 0-53.75 4.66-80.358 13.853L25.39 28.455C40.617 22.064 78.788 8.34 125.813 8.34"/>
    <path fill="#C71E11" d="m1.426 20.085-.478-1.489s2.256-3.625 8.024-2.543l.875 1.59z"/>
    <path fill="#EF4B23" d="m10.687 16.904 28.928 74.464-15.876 4.523L.009 20.51s2.383-3.81 10.678-3.607"/>
    <mask id="c" width="40" height="80" x="0" y="16" maskUnits="userSpaceOnUse" style="mask-type:luminance">
      <path fill="#fff" d="m10.687 16.904 28.928 74.464-15.876 4.523L.009 20.51s2.383-3.81 10.678-3.607"/>
    </mask>
    <g fill="#F56D27" mask="url(#c)">
      <path d="M30.995 19.179c3.818 0 6.914-3.172 6.914-7.084-3.818 0-6.905 3.172-6.905 7.075zm6.915-7.084c0 3.912 3.095 7.084 6.913 7.084 0-3.912-3.096-7.075-6.905-7.075zm0 14.159c3.817 0 6.904-3.173 6.904-7.075-3.818 0-6.914 3.172-6.914 7.084z"/>
      <path d="M37.91 26.254c0-3.912-3.097-7.084-6.915-7.084 0 3.911 3.096 7.074 6.905 7.074zm0 14.158c0-3.912-3.097-7.084-6.915-7.084 0 3.912 3.096 7.075 6.905 7.075z"/>
      <path d="M30.995 33.338c3.818 0 6.914-3.172 6.914-7.084-3.818 0-6.905 3.172-6.905 7.074zm6.915-7.084c0 3.912 3.095 7.083 6.913 7.083 0-3.911-3.096-7.074-6.905-7.074z"/>
      <path d="M37.91 40.412c3.817 0 6.904-3.172 6.904-7.075-3.818 0-6.914 3.172-6.914 7.084z"/>
      <path d="M30.995 47.496c3.818 0 6.914-3.172 6.914-7.084-3.818 0-6.905 3.172-6.905 7.075z"/>
      <path d="M37.91 54.57c0-3.911-3.097-7.083-6.915-7.083 0 3.912 3.096 7.075 6.905 7.075z"/>
      <path d="M37.91 54.57c3.817 0 6.904-3.171 6.904-7.074-3.818 0-6.914 3.172-6.914 7.084zm0-14.158c0 3.912 3.095 7.084 6.913 7.084 0-3.912-3.096-7.075-6.905-7.075zm0 28.318c0-3.913-3.097-7.085-6.915-7.085 0 3.912 3.096 7.075 6.905 7.075z"/>
      <path d="M37.91 68.73c3.817 0 6.904-3.173 6.904-7.075-3.818 0-6.914 3.172-6.914 7.084zm-6.915-7.075c3.818 0 6.914-3.172 6.914-7.084-3.818 0-6.905 3.172-6.905 7.075zm6.915-7.085c0 3.913 3.095 7.085 6.913 7.085 0-3.912-3.096-7.075-6.905-7.075z"/>
      <path d="M37.91 68.73c0 3.911 3.095 7.083 6.913 7.083 0-3.912-3.096-7.074-6.905-7.074zm-6.915 7.083c3.818 0 6.914-3.172 6.914-7.084-3.818 0-6.905 3.172-6.905 7.075zm6.915 7.084c0-3.912-3.097-7.084-6.915-7.084 0 3.912 3.096 7.075 6.905 7.075z"/>
      <path d="M37.91 82.897c3.817 0 6.904-3.172 6.904-7.074-3.818 0-6.914 3.172-6.914 7.084zm0 14.159c0-3.912-3.097-7.084-6.915-7.084 0 3.912 3.096 7.075 6.905 7.075z"/>
      <path d="M30.995 89.972c3.818 0 6.914-3.172 6.914-7.084-3.818 0-6.905 3.172-6.905 7.075zm6.915-7.075c0 3.912 3.095 7.084 6.913 7.084 0-3.912-3.096-7.074-6.905-7.074zm0 14.159c3.817 0 6.904-3.172 6.904-7.075-3.818 0-6.914 3.172-6.914 7.084zM17.177 19.179c3.817 0 6.913-3.172 6.913-7.084-3.818 0-6.904 3.172-6.904 7.075zm6.913 7.075c3.818 0 6.905-3.173 6.905-7.075-3.818 0-6.914 3.172-6.914 7.084zm0-14.159c0 3.912 3.096 7.084 6.914 7.084 0-3.912-3.096-7.075-6.905-7.075z"/>
      <path d="M24.09 26.254c0-3.912-3.096-7.084-6.913-7.084 0 3.911 3.095 7.074 6.904 7.074zm-6.913 7.084c3.817 0 6.913-3.172 6.913-7.084-3.818 0-6.904 3.172-6.904 7.074zm6.913 7.074c3.818 0 6.905-3.172 6.905-7.075-3.818 0-6.914 3.172-6.914 7.084z"/>
      <path d="M24.09 26.254c0 3.912 3.096 7.083 6.914 7.083 0-3.911-3.096-7.074-6.905-7.074zm0 14.158c0-3.912-3.096-7.084-6.913-7.084 0 3.912 3.095 7.075 6.904 7.075zm0 14.158c0-3.911-3.096-7.083-6.913-7.083 0 3.912 3.095 7.075 6.904 7.075z"/>
      <path d="M24.09 54.57c3.818 0 6.905-3.171 6.905-7.074-3.818 0-6.914 3.172-6.914 7.084zm0-14.158c0 3.912 3.096 7.084 6.914 7.084 0-3.912-3.096-7.075-6.905-7.075zm-6.913 7.084c3.817 0 6.913-3.172 6.913-7.084-3.818 0-6.904 3.172-6.904 7.075z"/>
      <path d="M17.177 61.655c3.817 0 6.913-3.172 6.913-7.084-3.818 0-6.904 3.172-6.904 7.075zm6.913-7.085c0 3.913 3.096 7.085 6.914 7.085 0-3.912-3.096-7.075-6.905-7.075z"/>
      <path d="M24.09 68.73c0-3.913-3.096-7.085-6.913-7.085 0 3.912 3.095 7.075 6.904 7.075z"/>
      <path d="M24.09 68.73c3.818 0 6.905-3.173 6.905-7.075-3.818 0-6.914 3.172-6.914 7.084zm0 14.167c0-3.912-3.096-7.084-6.913-7.084 0 3.912 3.095 7.075 6.904 7.075z"/>
      <path d="M17.177 75.813c3.817 0 6.913-3.172 6.913-7.084-3.818 0-6.904 3.172-6.904 7.075zm6.913 7.084c3.818 0 6.905-3.172 6.905-7.074-3.818 0-6.914 3.172-6.914 7.084zm0-14.167c0 3.911 3.096 7.083 6.914 7.083 0-3.912-3.096-7.074-6.905-7.074zm0 28.326c3.818 0 6.905-3.172 6.905-7.075-3.818 0-6.914 3.172-6.914 7.084z"/>
      <path d="M24.09 97.056c0-3.912-3.096-7.084-6.913-7.084 0 3.912 3.095 7.075 6.904 7.075zm0-14.159c0 3.912 3.096 7.084 6.914 7.084 0-3.912-3.096-7.074-6.905-7.074zm-6.913 7.075c3.817 0 6.913-3.172 6.913-7.084-3.818 0-6.904 3.172-6.904 7.075zm-6.905-63.718c0-3.912-3.096-7.084-6.914-7.084 0 3.911 3.096 7.074 6.905 7.074z"/>
      <path d="M3.358 19.179c3.818 0 6.914-3.172 6.914-7.084-3.818 0-6.905 3.172-6.905 7.075zm6.914 7.075c3.818 0 6.905-3.173 6.905-7.075-3.818 0-6.914 3.172-6.914 7.084zm0-14.159c0 3.912 3.095 7.084 6.914 7.084 0-3.912-3.096-7.075-6.905-7.075zm0 28.317c3.818 0 6.905-3.172 6.905-7.075-3.818 0-6.914 3.172-6.914 7.084z"/>
      <path d="M10.272 26.254c0 3.912 3.095 7.083 6.914 7.083 0-3.911-3.096-7.074-6.905-7.074zm0 14.158c0-3.912-3.096-7.084-6.914-7.084 0 3.912 3.096 7.075 6.905 7.075z"/>
      <path d="M3.358 33.338c3.818 0 6.914-3.172 6.914-7.084-3.818 0-6.905 3.172-6.905 7.074zm0 14.158c3.818 0 6.914-3.172 6.914-7.084-3.818 0-6.905 3.172-6.905 7.075z"/>
      <path d="M10.263 54.57c0-3.911-3.096-7.083-6.914-7.083 0 3.912 3.096 7.075 6.905 7.075zm.009 0c3.818 0 6.905-3.171 6.905-7.074-3.818 0-6.914 3.172-6.914 7.084zm0-14.158c0 3.912 3.095 7.084 6.914 7.084 0-3.912-3.096-7.075-6.905-7.075zm0 28.318c3.818 0 6.905-3.173 6.905-7.075-3.818 0-6.914 3.172-6.914 7.084z"/>
      <path d="M10.272 54.57c0 3.913 3.095 7.085 6.914 7.085 0-3.912-3.096-7.075-6.905-7.075zm-6.914 7.085c3.818 0 6.914-3.172 6.914-7.084-3.818 0-6.905 3.172-6.905 7.075z"/>
      <path d="M10.272 68.73c0-3.913-3.096-7.085-6.914-7.085 0 3.912 3.096 7.075 6.905 7.075zm0 14.167c0-3.912-3.096-7.084-6.914-7.084 0 3.912 3.096 7.075 6.905 7.075z"/>
      <path d="M3.358 75.813c3.818 0 6.914-3.172 6.914-7.084-3.818 0-6.905 3.172-6.905 7.075zm6.914-7.083c0 3.911 3.095 7.083 6.914 7.083 0-3.912-3.096-7.074-6.905-7.074zm0 14.167c3.818 0 6.905-3.172 6.905-7.074-3.818 0-6.914 3.172-6.914 7.084zm0 14.159c0-3.912-3.096-7.084-6.914-7.084 0 3.912 3.096 7.075 6.905 7.075z"/>
      <path d="M3.358 89.972c3.818 0 6.914-3.172 6.914-7.084-3.818 0-6.905 3.172-6.905 7.075zm6.914 7.084c3.818 0 6.905-3.172 6.905-7.075-3.818 0-6.914 3.172-6.914 7.084z"/>
      <path d="M10.272 82.897c0 3.912 3.095 7.084 6.914 7.084 0-3.912-3.096-7.074-6.905-7.074zM-3.547 12.095c0 3.912 3.096 7.084 6.914 7.084 0-3.912-3.096-7.075-6.905-7.075zm0 14.159c3.818 0 6.905-3.173 6.905-7.075-3.818 0-6.914 3.172-6.914 7.084zm0 14.158c3.818 0 6.905-3.172 6.905-7.075-3.818 0-6.914 3.172-6.914 7.084z"/>
      <path d="M-3.547 26.254c0 3.912 3.096 7.083 6.914 7.083 0-3.911-3.096-7.074-6.905-7.074zm0 28.316c3.818 0 6.905-3.171 6.905-7.074-3.818 0-6.914 3.172-6.914 7.084zm0-14.158c0 3.912 3.096 7.084 6.914 7.084 0-3.912-3.096-7.075-6.905-7.075zm0 28.318c3.818 0 6.905-3.173 6.905-7.075-3.818 0-6.914 3.172-6.914 7.084z"/>
      <path d="M-3.547 54.57c0 3.913 3.096 7.085 6.914 7.085 0-3.912-3.096-7.075-6.905-7.075zm0 28.327c3.818 0 6.905-3.172 6.905-7.074-3.818 0-6.914 3.172-6.914 7.084zm0-14.167c0 3.911 3.096 7.083 6.914 7.083 0-3.912-3.096-7.074-6.905-7.074zm0 28.326c3.818 0 6.905-3.172 6.905-7.075-3.818 0-6.914 3.172-6.914 7.084z"/>
      <path d="M-3.547 82.897c0 3.912 3.096 7.084 6.914 7.084 0-3.912-3.096-7.074-6.905-7.074z"/>
    </g>
    <path fill="#C71E11" d="M32.724 97.51c4.387-1.241 7.475-3.988 6.896-6.134s-4.604-2.88-8.991-1.639c-4.387 1.242-7.474 3.988-6.896 6.135s4.604 2.88 8.991 1.638"/>
    <path fill="#FFF400" d="M30.923 91.942s-6.038 1.997-4.702 5.188c1.146 1.766 4.91 2.534 7.4 1.563 2.492-.971 4.631-2.932 4.514-5.567-.117-1.628-3.078-2.738-7.212-1.184"/>
    <path fill="#C71E11" d="m242.565 20.085.478-1.489s-2.256-3.625-8.024-2.543l-.875 1.59z"/>
    <path fill="#EF4B23" d="m233.304 16.904-28.928 74.464 15.877 4.523 23.729-75.38s-2.383-3.81-10.678-3.607"/>
    <mask id="d" width="40" height="80" x="204" y="16" maskUnits="userSpaceOnUse" style="mask-type:luminance">
      <path fill="#fff" d="m233.304 16.904-28.928 74.464 15.877 4.523 23.729-75.38s-2.383-3.81-10.678-3.607"/>
    </mask>
    <g fill="#F56D27" mask="url(#d)">
      <path d="M212.996 19.179c-3.818 0-6.914-3.172-6.914-7.084 3.818 0 6.905 3.172 6.905 7.075zm-6.914-7.084c0 3.912-3.096 7.084-6.914 7.084 0-3.912 3.096-7.075 6.905-7.075zm.009 14.159c-3.818 0-6.905-3.173-6.905-7.075 3.818 0 6.914 3.172 6.914 7.084z"/>
      <path d="M206.091 26.254c0-3.912 3.096-7.084 6.914-7.084 0 3.911-3.096 7.074-6.905 7.074zm0 14.158c0-3.912 3.096-7.084 6.914-7.084 0 3.912-3.096 7.075-6.905 7.075z"/>
      <path d="M212.996 33.338c-3.818 0-6.914-3.172-6.914-7.084 3.818 0 6.905 3.172 6.905 7.074zm-6.914-7.084c0 3.912-3.096 7.083-6.914 7.083 0-3.911 3.096-7.074 6.905-7.074z"/>
      <path d="M206.091 40.412c-3.818 0-6.905-3.172-6.905-7.075 3.818 0 6.914 3.172 6.914 7.084z"/>
      <path d="M212.996 47.496c-3.818 0-6.914-3.172-6.914-7.084 3.818 0 6.905 3.172 6.905 7.075z"/>
      <path d="M206.091 54.57c0-3.911 3.096-7.083 6.914-7.083 0 3.912-3.096 7.075-6.905 7.075z"/>
      <path d="M206.091 54.57c-3.818 0-6.905-3.171-6.905-7.074 3.818 0 6.914 3.172 6.914 7.084zm-.009-14.158c0 3.912-3.096 7.084-6.914 7.084 0-3.912 3.096-7.075 6.905-7.075zm.009 28.318c0-3.913 3.096-7.085 6.914-7.085 0 3.912-3.096 7.075-6.905 7.075z"/>
      <path d="M206.091 68.73c-3.818 0-6.905-3.173-6.905-7.075 3.818 0 6.914 3.172 6.914 7.084zm6.905-7.075c-3.818 0-6.914-3.172-6.914-7.084 3.818 0 6.905 3.172 6.905 7.075zm-6.914-7.085c0 3.913-3.096 7.085-6.914 7.085 0-3.912 3.096-7.075 6.905-7.075z"/>
      <path d="M206.082 68.73c0 3.911-3.096 7.083-6.914 7.083 0-3.912 3.096-7.074 6.905-7.074zm6.914 7.083c-3.818 0-6.914-3.172-6.914-7.084 3.818 0 6.905 3.172 6.905 7.075zm-6.905 7.084c0-3.912 3.096-7.084 6.914-7.084 0 3.912-3.096 7.075-6.905 7.075z"/>
      <path d="M206.091 82.897c-3.818 0-6.905-3.172-6.905-7.074 3.818 0 6.914 3.172 6.914 7.084zm0 14.159c0-3.912 3.096-7.084 6.914-7.084 0 3.912-3.096 7.075-6.905 7.075z"/>
      <path d="M212.996 89.972c-3.818 0-6.914-3.172-6.914-7.084 3.818 0 6.905 3.172 6.905 7.075zm-6.914-7.075c0 3.912-3.096 7.084-6.914 7.084 0-3.912 3.096-7.074 6.905-7.074zm.009 14.159c-3.818 0-6.905-3.172-6.905-7.075 3.818 0 6.914 3.172 6.914 7.084zm20.724-77.877c-3.818 0-6.914-3.172-6.914-7.084 3.818 0 6.905 3.172 6.905 7.075zm-6.905 7.075c-3.818 0-6.905-3.173-6.905-7.075 3.818 0 6.914 3.172 6.914 7.084zm-.01-14.159c0 3.912-3.095 7.084-6.913 7.084 0-3.912 3.095-7.075 6.904-7.075z"/>
      <path d="M219.91 26.254c0-3.912 3.095-7.084 6.913-7.084 0 3.911-3.095 7.074-6.904 7.074zm6.905 7.084c-3.818 0-6.914-3.172-6.914-7.084 3.818 0 6.905 3.172 6.905 7.074zm-6.905 7.074c-3.818 0-6.905-3.172-6.905-7.075 3.818 0 6.914 3.172 6.914 7.084z"/>
      <path d="M219.91 26.254c0 3.912-3.096 7.083-6.914 7.083 0-3.911 3.096-7.074 6.905-7.074zm0 14.158c0-3.912 3.095-7.084 6.913-7.084 0 3.912-3.095 7.075-6.904 7.075zm0 14.158c0-3.911 3.095-7.083 6.913-7.083 0 3.912-3.095 7.075-6.904 7.075z"/>
      <path d="M219.91 54.57c-3.818 0-6.905-3.171-6.905-7.074 3.818 0 6.914 3.172 6.914 7.084zm-.01-14.158c0 3.912-3.095 7.084-6.913 7.084 0-3.912 3.095-7.075 6.904-7.075zm6.915 7.084c-3.818 0-6.914-3.172-6.914-7.084 3.818 0 6.905 3.172 6.905 7.075z"/>
      <path d="M226.815 61.655c-3.818 0-6.914-3.172-6.914-7.084 3.818 0 6.905 3.172 6.905 7.075zM219.9 54.57c0 3.913-3.095 7.085-6.913 7.085 0-3.912 3.095-7.075 6.904-7.075z"/>
      <path d="M219.91 68.73c0-3.913 3.095-7.085 6.913-7.085 0 3.912-3.095 7.075-6.904 7.075z"/>
      <path d="M219.91 68.73c-3.818 0-6.905-3.173-6.905-7.075 3.818 0 6.914 3.172 6.914 7.084zm0 14.167c0-3.912 3.095-7.084 6.913-7.084 0 3.912-3.095 7.075-6.904 7.075z"/>
      <path d="M226.815 75.813c-3.818 0-6.914-3.172-6.914-7.084 3.818 0 6.905 3.172 6.905 7.075zm-6.905 7.084c-3.818 0-6.905-3.172-6.905-7.074 3.818 0 6.914 3.172 6.914 7.084z"/>
      <path d="M219.91 68.73c0 3.911-3.096 7.083-6.914 7.083 0-3.912 3.096-7.074 6.905-7.074zm0 28.326c-3.818 0-6.905-3.172-6.905-7.075 3.818 0 6.914 3.172 6.914 7.084z"/>
      <path d="M219.91 97.056c0-3.912 3.095-7.084 6.913-7.084 0 3.912-3.095 7.075-6.904 7.075zm0-14.159c0 3.912-3.096 7.084-6.914 7.084 0-3.912 3.096-7.074 6.905-7.074z"/>
      <path d="M226.815 89.972c-3.818 0-6.914-3.172-6.914-7.084 3.818 0 6.905 3.172 6.905 7.075zm6.913-63.718c0-3.912 3.096-7.084 6.914-7.084 0 3.911-3.096 7.074-6.905 7.074z"/>
      <path d="M240.633 19.179c-3.818 0-6.914-3.172-6.914-7.084 3.818 0 6.905 3.172 6.905 7.075zm-6.905 7.075c-3.818 0-6.905-3.173-6.905-7.075 3.818 0 6.914 3.172 6.914 7.084zm-.009-14.159c0 3.912-3.096 7.084-6.914 7.084 0-3.912 3.096-7.075 6.905-7.075zm.009 28.317c-3.818 0-6.905-3.172-6.905-7.075 3.818 0 6.914 3.172 6.914 7.084z"/>
      <path d="M233.728 26.254c0 3.912-3.096 7.083-6.914 7.083 0-3.911 3.096-7.074 6.905-7.074zm0 14.158c0-3.912 3.096-7.084 6.914-7.084 0 3.912-3.096 7.075-6.905 7.075z"/>
      <path d="M240.633 33.338c-3.818 0-6.914-3.172-6.914-7.084 3.818 0 6.905 3.172 6.905 7.074zm0 14.158c-3.818 0-6.914-3.172-6.914-7.084 3.818 0 6.905 3.172 6.905 7.075z"/>
      <path d="M233.728 54.57c0-3.911 3.096-7.083 6.914-7.083 0 3.912-3.096 7.075-6.905 7.075z"/>
      <path d="M233.728 54.57c-3.818 0-6.905-3.171-6.905-7.074 3.818 0 6.914 3.172 6.914 7.084zm0-14.158c0 3.912-3.096 7.084-6.914 7.084 0-3.912 3.096-7.075 6.905-7.075zm0 28.318c-3.818 0-6.905-3.173-6.905-7.075 3.818 0 6.914 3.172 6.914 7.084z"/>
      <path d="M233.719 54.57c0 3.913-3.096 7.085-6.914 7.085 0-3.912 3.096-7.075 6.905-7.075zm6.914 7.085c-3.818 0-6.914-3.172-6.914-7.084 3.818 0 6.905 3.172 6.905 7.075z"/>
      <path d="M233.728 68.73c0-3.913 3.096-7.085 6.914-7.085 0 3.912-3.096 7.075-6.905 7.075zm0 14.167c0-3.912 3.096-7.084 6.914-7.084 0 3.912-3.096 7.075-6.905 7.075z"/>
      <path d="M240.633 75.813c-3.818 0-6.914-3.172-6.914-7.084 3.818 0 6.905 3.172 6.905 7.075z"/>
      <path d="M233.728 68.73c0 3.911-3.096 7.083-6.914 7.083 0-3.912 3.096-7.074 6.905-7.074zm0 14.167c-3.818 0-6.905-3.172-6.905-7.074 3.818 0 6.914 3.172 6.914 7.084zm0 14.159c0-3.912 3.096-7.084 6.914-7.084 0 3.912-3.096 7.075-6.905 7.075z"/>
      <path d="M240.633 89.972c-3.818 0-6.914-3.172-6.914-7.084 3.818 0 6.905 3.172 6.905 7.075zm-6.905 7.084c-3.818 0-6.905-3.172-6.905-7.075 3.818 0 6.914 3.172 6.914 7.084z"/>
      <path d="M233.728 82.897c0 3.912-3.096 7.084-6.914 7.084 0-3.912 3.096-7.074 6.905-7.074zm13.819-70.802c0 3.912-3.096 7.084-6.914 7.084 0-3.912 3.096-7.075 6.905-7.075zm0 14.159c-3.818 0-6.905-3.173-6.905-7.075 3.818 0 6.914 3.172 6.914 7.084zm0 14.158c-3.818 0-6.905-3.172-6.905-7.075 3.818 0 6.914 3.172 6.914 7.084z"/>
      <path d="M247.547 26.254c0 3.912-3.096 7.083-6.914 7.083 0-3.911 3.096-7.074 6.905-7.074zm0 28.316c-3.818 0-6.905-3.171-6.905-7.074 3.818 0 6.914 3.172 6.914 7.084zm0-14.158c0 3.912-3.096 7.084-6.914 7.084 0-3.912 3.096-7.075 6.905-7.075zm0 28.318c-3.818 0-6.905-3.173-6.905-7.075 3.818 0 6.914 3.172 6.914 7.084z"/>
      <path d="M247.547 54.57c0 3.913-3.096 7.085-6.914 7.085 0-3.912 3.096-7.075 6.905-7.075zm0 28.327c-3.818 0-6.905-3.172-6.905-7.074 3.818 0 6.914 3.172 6.914 7.084zm0-14.167c0 3.911-3.096 7.083-6.914 7.083 0-3.912 3.096-7.074 6.905-7.074zm0 28.326c-3.818 0-6.905-3.172-6.905-7.075 3.818 0 6.914 3.172 6.914 7.084z"/>
      <path d="M247.547 82.897c0 3.912-3.096 7.084-6.914 7.084 0-3.912 3.096-7.074 6.905-7.074z"/>
    </g>
    <path fill="#C71E11" d="M220.263 95.87c.578-2.146-2.509-4.892-6.896-6.134s-8.412-.508-8.991 1.639c-.579 2.146 2.509 4.893 6.896 6.134s8.412.508 8.991-1.638"/>
    <path fill="#FFF400" d="M213.068 91.942s6.038 1.997 4.703 5.188c-1.147 1.766-4.911 2.534-7.402 1.563s-4.63-2.932-4.513-5.567c.118-1.628 3.078-2.738 7.212-1.184"/>
    <path stroke="#000" stroke-linecap="round" stroke-linejoin="round" stroke-width=".925" d="M125.976-.482C68.86-.482 24.379 17.265 12.799 22.342l26.112 67.25c32.169-11.282 61.395-15.064 86.171-15.064 42.17 0 71.423 10.977 80.124 14.686l25.968-66.872.126-.315C194.583 5.187 158.28-.483 125.976-.483"/>
    <path stroke="#000" stroke-linecap="round" stroke-linejoin="round" stroke-width=".925" d="M125.814 8.34c32.818 0 64.012 6.603 92.859 19.624L199.61 78.921c-12.555-4.939-38.911-13.206-74.645-13.206-26.753 0-53.75 4.66-80.358 13.853L25.39 28.455C40.617 22.065 78.788 8.34 125.814 8.34M9.45 16.904c-4.432.11-6.959 1.424-8.268 2.432l-.234-.74s2.265-3.616 8.033-2.534c.198.352.36.63.47.842"/>
    <path stroke="#000" stroke-linecap="round" stroke-linejoin="round" stroke-width=".925" d="M39.453 90.98c-.235-.453-.641-.832-1.192-1.138-.686-.37-1.615-.591-2.68-.665-1.454-.111-3.178.064-4.947.564-4.35 1.22-7.428 3.949-6.914 6.076L0 20.52s.334-.527 1.182-1.184c1.3-1.008 3.836-2.321 8.268-2.432q.596-.015 1.246 0l2.112 5.447L38.92 89.602z"/>
    <path stroke="#000" stroke-linecap="round" stroke-linejoin="round" stroke-width=".925" d="M37.837 94.947a4.5 4.5 0 0 0 .298-1.812c-.027-.426-.262-.823-.668-1.147-1.092-.879-3.502-1.184-6.544-.037 0 0-3.62 1.193-4.621 3.218h-.01a2.26 2.26 0 0 0-.062 1.98c.207.314.505.6.857.86-1.77-.25-3.042-.98-3.349-2.11l-.009-.027s-.009-.037-.009-.046c-.514-2.127 2.555-4.855 6.914-6.076 1.77-.509 3.493-.684 4.947-.564 1.074.074 1.994.305 2.68.666.55.305.957.684 1.192 1.137l.162.407c.307 1.12-.406 2.405-1.769 3.57z"/>
    <path stroke="#000" stroke-linecap="round" stroke-linejoin="round" stroke-width=".925" d="M38.135 93.135a4.3 4.3 0 0 1-.298 1.812h-.009c-.65 1.73-2.329 3.025-4.197 3.755-2.04.795-4.92.425-6.535-.703h-.009a3.2 3.2 0 0 1-.857-.86c-.307-.73-.235-1.387.063-1.979h.009c1.01-2.016 4.621-3.218 4.621-3.218 3.042-1.147 5.452-.842 6.544.037.406.323.64.721.668 1.147zm204.908-74.539-.234.74c-1.3-1.008-3.836-2.321-8.268-2.432.108-.213.271-.49.469-.842 5.768-1.082 8.033 2.534 8.033 2.534"/>
    <path stroke="#000" stroke-linecap="round" stroke-linejoin="round" stroke-width=".925" d="M220.271 95.817c.514-2.127-2.555-4.855-6.914-6.076-1.769-.509-3.493-.684-4.947-.564-.857.064-1.615.212-2.238.48h-.009a2 2 0 0 0-.433.186c-.551.305-.957.684-1.192 1.137l.533-1.378.144-.379 25.968-66.872.126-.314 1.995-5.133q.65-.015 1.246 0c4.432.11 6.959 1.424 8.268 2.432.848.657 1.182 1.184 1.182 1.184l-23.72 75.297z"/>
    <path stroke="#000" stroke-linecap="round" stroke-linejoin="round" stroke-width=".925" d="M220.271 95.817s-.009.037-.009.046 0 .01-.009.028c-.307 1.119-1.571 1.85-3.349 2.108a3.2 3.2 0 0 0 .857-.86c.307-.73.235-1.387-.063-1.979h-.009c-1.011-2.016-4.621-3.218-4.621-3.218-3.042-1.147-5.452-.842-6.544.037-.406.323-.641.721-.668 1.147a4.3 4.3 0 0 0 .298 1.812c-1.363-1.156-2.076-2.441-1.769-3.57l.162-.406c.235-.454.641-.833 1.192-1.138.135-.074.271-.139.433-.185h.009c.632-.268 1.381-.416 2.239-.48 1.453-.112 3.177.064 4.946.563 4.35 1.221 7.428 3.95 6.914 6.076z"/>
    <path stroke="#000" stroke-linecap="round" stroke-linejoin="round" stroke-width=".925" d="M217.761 97.14c-.207.314-.505.6-.857.86h-.009c-1.616 1.137-4.486 1.498-6.535.702-1.868-.73-3.547-2.025-4.197-3.754h-.009a4.5 4.5 0 0 1-.298-1.813c.027-.426.262-.823.668-1.147 1.092-.878 3.502-1.184 6.544-.037 0 0 3.619 1.193 4.621 3.218h.009c.298.592.37 1.249.063 1.98z"/>
    <path fill="#C12202" d="M45.97 55.403 42.674 43.52 42 41.948l3.216-.89.233 1.698 3.288 11.856c.566 2.048 2.335 3.054 4.392 2.48 2.129-.593 3.108-2.354 2.533-4.402l-3.288-11.856-.673-1.572 2.99-.826c.064-.198.1-.387.046-.584-.1-.476-.431-1.015-1.545-1.06l1.167-1.931c1.707.242 2.3 1.185 2.515 2.075.279 1.203-.727 2.74-1.661 3.359l3.233 11.659c1.033 3.71-.862 6.89-4.572 7.922s-6.862-.754-7.895-4.464zm22.967.377-.153-1.706-.125-.53c-.467 1.554-1.402 2.91-3.135 3.314-2.38.548-4.59-.988-5.497-4.967l-1.213-5.326c-.143-.647-.251-1.096-.602-1.6l2.704-2.092 1.94 8.488c.494 2.156 1.626 3.135 2.695 2.892 1.626-.368 1.886-3.108 2.03-5.443l-.925-4.033c-.144-.647-.252-1.096-.602-1.599l2.704-2.093 2.82 12.35.602 1.6-3.252.745zm20.471-3.71-.144-.907c-1.006.997-2.174 1.554-3.341 1.734-4.033.62-6.638-2.73-7.213-6.422-.575-3.719.907-7.734 5.084-8.372a5.35 5.35 0 0 1 3.566.674l-.332-2.192-2.839.44-.35-2.272 2.838-.44-.072-.458c-.099-.656-.17-1.105-.485-1.644l2.848-1.895.547 3.548.854-.135.35 2.273-.853.134 2.12 13.806.485 1.644-3.072.467zm-1.518-9.907c-.961-1.131-2.156-1.527-3.207-1.374-2.39.368-3.207 2.82-2.847 5.12.377 2.443 2.102 4.77 4.715 4.365.908-.144 1.734-.647 2.345-1.58l-1.006-6.54zm13.482 7.491a6.1 6.1 0 0 1-3.557 1.671c-3.063.323-4.752-1.787-5.003-4.159-.26-2.515 1.24-5.335 4.608-5.685a5.7 5.7 0 0 1 3.162.62c-.288-2.165-1.707-3.028-3.072-2.884-.997.108-1.968.782-2.417 2.075l-2.443-1.509c1.159-2.2 2.955-3.26 4.788-3.45 2.802-.296 5.596 1.528 5.901 4.5l.817 7.833.405 1.662-3.09.323-.108-.997zm-3.279-16.77c.54-.053.872-.52.764-1.58l1.886-.198c.225 2.12-.62 3.503-1.931 3.638-1.716.18-1.877-1.365-2.874-1.258-.458.045-.746.566-.647 1.545l-1.886.198c-.144-1.374.161-3.431 1.904-3.61 1.77-.19 2.021 1.346 2.793 1.266zm2.848 12.567c-.584-.925-1.922-1.536-2.955-1.428-1.455.152-2.165 1.437-2.03 2.667.143 1.402 1.185 2.192 2.587 2.04.997-.109 2.056-.791 2.533-2.004l-.135-1.284zm5.003-15.647c1.033-.072 1.769.566 1.841 1.599.081 1.06-.557 1.796-1.59 1.877-1.033.072-1.769-.566-1.85-1.626-.072-1.033.566-1.77 1.599-1.841zm-.189 20.48.108-1.707c-.476-6.512-.278-3.872-.754-10.384-.045-.655-.081-1.114-.351-1.67l2.991-1.662.979 13.509.351 1.67zm11.336-10.447c-.045-3.252 2.685-4.958 5.623-4.994 2.066-.027 4.239.862 5.56 2.676l-2.129 2.102c-.8-1.338-2.246-1.922-3.449-1.904-1.24.018-2.605.638-2.596 1.617.045 2.901 8.344.395 8.416 5.425.045 3.135-2.748 4.985-5.82 5.03-2.21.036-4.608-.88-6.018-2.82l2.389-1.958c.826 1.338 2.524 1.922 3.736 1.904 1.24-.018 2.632-.674 2.614-1.904-.036-2.497-8.254-.108-8.326-5.174m20.156 8.856a6.05 6.05 0 0 1-3.746 1.168c-3.072-.099-4.464-2.425-4.383-4.805.081-2.524 1.949-5.111 5.344-4.995a5.6 5.6 0 0 1 3.045 1.051c.018-2.182-1.275-3.233-2.65-3.278-1.006-.036-2.056.503-2.676 1.724l-2.21-1.832c1.446-2.02 3.368-2.82 5.21-2.757 2.811.09 5.326 2.281 5.227 5.263l-.26 7.868.171 1.707-3.108-.108zm-3.575-18.584c-.036.98.494 1.689 1.581 1.725 1.122.036 1.688-.638 1.724-1.608l2.012.063c-.072 2.21-1.617 3.602-3.799 3.52-2.156-.071-3.602-1.553-3.53-3.772zm3.718 14.363c-.458-.997-1.697-1.779-2.73-1.815-1.464-.045-2.336 1.132-2.38 2.363-.045 1.41.871 2.326 2.281 2.38 1.006.036 2.147-.503 2.784-1.635zm1.653-18.53-3.153 3.952-1.464-.045 1.339-4.006 3.278.108zm9.351 24.476.332-1.67.575-6.154c.287-3.036-.297-4.212-1.132-4.293-1.518-.144-2.425 3.413-3.072 5.973l-.386 4.096.072 1.707-3.324-.315.387-1.67.943-10.07c.063-.655.108-1.113-.072-1.706l3.224-1.14-.278 2.972c1.096-1.832 2.425-2.488 3.629-2.371 1.778.162 2.721 1.787 3 3.431 1.123-2.147 2.578-2.91 3.871-2.784 2.318.215 3.252 2.9 3.063 4.877l-.781 8.353.018 1.707-3.207-.296.332-1.671.575-6.153c.288-3.036-.296-4.212-1.132-4.293-1.518-.144-2.425 3.413-3.063 5.946l-.386 4.123.018 1.706-3.206-.296zm24.772 3.449.539-1.626 2.892-15.341c-2.335-.503-4.841-.566-5.398 2.407-.332 1.778.665 3.898 3.126 4.365l-.054.279c-.242 1.302-1.15 2.066-2.479 1.814-2.91-.548-4.302-3.88-3.79-6.566.736-3.898 4.374-5.964 8.155-5.245l4.743.898c3.251.61 4.895.395 5.362-2.057l.279.054c1.302.242 2.066 1.15 1.814 2.479-.548 2.91-3.665 3.17-7.994 2.353l-.961-.18-2.883 15.28-.09 1.706-3.279-.62z"/>
    <path fill="#C12202" d="M182.75 51.55c.44 1.113 1.312 2.03 2.704 2.37 1.23.297 2.317-.026 3.26-1.13l1.716 2.308c-1.644 1.553-3.674 2.092-5.82 1.571-4.581-1.113-5.947-5.47-5.048-9.18.862-3.547 3.88-6.484 8.236-5.424 2.821.682 5.093 3.161 4.312 6.368-.288 1.176-1.186 2.075-3.746 2.398l-5.614.71zm4.195-3.126c2.156-.216 2.102-.737 2.174-1.042.305-1.258-.557-2.21-1.788-2.506-2.434-.593-4.186 1.266-4.715 3.467-.045.17-.081.332-.099.512zm1.94-7.276-.242-2.281-1.294 1.904-2.991-.727 3.997-3.198 1.428.35 2.093 4.68zm8.111-4.778-3.889 3.224-1.428-.341 2.128-3.656 3.18.773zm-2.802 7.599c1.571.476 1.715.278 2.021-.746l.233-.772c.234-.773.476-1.572.422-2.183l3.386-.476-1.661 5.506 4.132 1.24-.746 2.479-4.132-1.24-1.868 6.189c-.467 1.545-.476 2.883.458 3.17.934.279 1.68-.691 2.273-1.266l1.589 2.398c-1.625 1.401-3.098 1.913-4.697 1.437-1.842-.556-3.584-2.55-2.551-5.99l1.67-5.534c.306-1.015.288-1.266-1.275-1.733zM45.97 53.876l-3.296-11.883L42 40.42l3.216-.89.233 1.698 3.288 11.857c.566 2.047 2.335 3.053 4.392 2.479 2.129-.593 3.108-2.354 2.533-4.402l-3.288-11.856-.673-1.572 2.99-.826c.064-.198.1-.386.046-.584-.1-.476-.431-1.015-1.545-1.06l1.167-1.931c1.707.242 2.3 1.185 2.515 2.075.279 1.203-.727 2.74-1.661 3.359l3.233 11.659c1.033 3.71-.862 6.89-4.572 7.922s-6.862-.754-7.895-4.464zm22.967.368-.153-1.706-.125-.53c-.467 1.554-1.402 2.91-3.135 3.314-2.38.548-4.59-.988-5.497-4.967l-1.213-5.326c-.143-.647-.251-1.096-.602-1.6l2.704-2.092 1.94 8.488c.494 2.156 1.626 3.135 2.695 2.892 1.626-.368 1.886-3.108 2.03-5.443l-.925-4.033c-.144-.647-.252-1.096-.602-1.599l2.704-2.093 2.82 12.351.602 1.599-3.252.745zm20.471-3.7-.144-.908c-1.006.997-2.174 1.554-3.341 1.734-4.033.62-6.638-2.73-7.213-6.422-.575-3.719.907-7.734 5.084-8.372a5.35 5.35 0 0 1 3.566.674l-.332-2.192-2.839.44-.35-2.272 2.838-.44-.072-.458c-.099-.656-.17-1.105-.485-1.644l2.848-1.895.547 3.548.854-.135.35 2.273-.853.134 2.12 13.806.485 1.644-3.072.467zm-1.518-9.917c-.961-1.131-2.156-1.527-3.207-1.374-2.39.368-3.207 2.82-2.847 5.12.377 2.443 2.102 4.77 4.715 4.365.908-.144 1.734-.646 2.345-1.58l-1.006-6.54zm13.482 7.491a6.1 6.1 0 0 1-3.557 1.671c-3.063.323-4.752-1.787-5.003-4.159-.26-2.515 1.24-5.335 4.608-5.685a5.7 5.7 0 0 1 3.162.62c-.288-2.165-1.707-3.027-3.072-2.884-.997.108-1.968.782-2.417 2.075l-2.443-1.509c1.159-2.2 2.955-3.26 4.788-3.45 2.802-.295 5.596 1.528 5.901 4.501l.817 7.832.405 1.662-3.09.323-.108-.997zm-3.279-16.77c.54-.053.872-.52.764-1.58l1.886-.198c.225 2.12-.62 3.503-1.931 3.638-1.716.18-1.877-1.365-2.874-1.257-.458.044-.746.565-.647 1.544l-1.886.198c-.144-1.374.161-3.431 1.904-3.61 1.77-.19 2.021 1.347 2.793 1.266zm2.848 12.567c-.584-.925-1.922-1.536-2.955-1.428-1.455.152-2.165 1.437-2.03 2.667.143 1.401 1.185 2.192 2.587 2.04.997-.108 2.056-.791 2.533-2.004l-.135-1.284zm5.003-15.638c1.033-.072 1.769.566 1.841 1.599.081 1.06-.557 1.796-1.59 1.877-1.033.072-1.769-.566-1.85-1.626-.072-1.033.566-1.77 1.599-1.841zm-.189 20.48.108-1.707c-.476-6.512-.278-3.872-.754-10.384-.045-.655-.081-1.114-.351-1.67l2.991-1.662.979 13.509.351 1.67zM117.091 38.3c-.045-3.25 2.685-4.957 5.623-4.993 2.066-.027 4.239.862 5.56 2.676l-2.129 2.102c-.8-1.338-2.246-1.922-3.449-1.904-1.24.018-2.605.638-2.596 1.617.045 2.901 8.344.395 8.416 5.425.045 3.135-2.748 4.985-5.82 5.03-2.21.036-4.608-.88-6.018-2.82l2.389-1.958c.826 1.338 2.524 1.922 3.736 1.904 1.24-.018 2.632-.674 2.614-1.904-.036-2.497-8.254-.108-8.326-5.174m20.156 8.856a6.05 6.05 0 0 1-3.746 1.168c-3.072-.099-4.464-2.425-4.383-4.805.081-2.524 1.949-5.111 5.344-4.995a5.6 5.6 0 0 1 3.045 1.051c.018-2.182-1.275-3.233-2.65-3.278-1.006-.036-2.056.503-2.676 1.724l-2.21-1.832c1.446-2.02 3.368-2.82 5.21-2.757 2.811.09 5.326 2.281 5.227 5.263l-.26 7.869.171 1.706-3.108-.108zm-3.575-18.584c-.036.98.494 1.689 1.581 1.725 1.122.036 1.688-.638 1.724-1.608l2.012.063c-.072 2.21-1.617 3.602-3.799 3.52-2.156-.07-3.602-1.553-3.53-3.772zm3.718 14.363c-.458-.997-1.697-1.779-2.73-1.815-1.464-.045-2.336 1.132-2.38 2.363-.045 1.41.871 2.326 2.281 2.38 1.006.036 2.147-.503 2.784-1.635zm1.653-18.521-3.153 3.952-1.464-.045 1.339-4.006 3.278.108zm9.351 24.475.332-1.67.575-6.153c.287-3.035-.297-4.212-1.132-4.293-1.518-.144-2.425 3.413-3.072 5.973l-.386 4.096.072 1.707-3.324-.315.387-1.67.943-10.07c.063-.655.108-1.113-.072-1.706l3.224-1.14-.278 2.972c1.096-1.832 2.425-2.488 3.629-2.371 1.778.162 2.721 1.787 3 3.431 1.123-2.147 2.578-2.91 3.871-2.784 2.318.215 3.252 2.9 3.063 4.877l-.781 8.353.018 1.707-3.207-.296.332-1.671.575-6.153c.288-3.036-.296-4.212-1.132-4.293-1.518-.144-2.425 3.413-3.063 5.946l-.386 4.123.018 1.706-3.206-.296z"/>
    <path fill="#C12202" d="m173.166 52.331.539-1.626 2.892-15.341c-2.335-.503-4.841-.566-5.398 2.407-.332 1.779.665 3.898 3.126 4.365l-.054.279c-.242 1.302-1.15 2.066-2.479 1.814-2.91-.548-4.302-3.88-3.79-6.566.736-3.898 4.374-5.964 8.155-5.245l4.743.898c3.251.61 4.895.395 5.362-2.057l.279.054c1.302.242 2.066 1.15 1.814 2.479-.548 2.91-3.665 3.17-7.994 2.353l-.961-.18-2.883 15.28-.09 1.706-3.279-.62z"/>
    <path fill="#C12202" d="M182.75 50.014c.44 1.113 1.312 2.03 2.704 2.37 1.23.297 2.317-.026 3.26-1.13l1.716 2.308c-1.644 1.553-3.674 2.092-5.82 1.572-4.581-1.114-5.947-5.47-5.048-9.18.862-3.548 3.88-6.485 8.236-5.425 2.821.682 5.093 3.161 4.312 6.368-.288 1.177-1.186 2.075-3.746 2.398l-5.614.71zm4.195-3.126c2.156-.216 2.102-.737 2.174-1.042.305-1.258-.557-2.21-1.788-2.506-2.434-.593-4.186 1.266-4.715 3.467a3 3 0 0 0-.099.512zm1.94-7.276-.242-2.281-1.294 1.904-2.991-.727 3.997-3.198 1.428.35 2.093 4.68zm8.111-4.778-3.889 3.224-1.428-.34 2.128-3.657 3.18.773zm-2.802 7.599c1.571.476 1.715.278 2.021-.746l.233-.772c.234-.773.476-1.572.422-2.183l3.386-.476-1.661 5.506 4.132 1.24-.746 2.479-4.132-1.24-1.868 6.189c-.467 1.545-.476 2.883.458 3.17.934.279 1.68-.691 2.273-1.266l1.589 2.398c-1.625 1.401-3.098 1.913-4.697 1.437-1.842-.556-3.584-2.55-2.551-5.99l1.67-5.534c.306-1.015.288-1.266-1.275-1.733z"/>
    <path fill="#EF4B23" d="m45.97 53.876-3.296-11.883L42 40.42l3.216-.89.233 1.698 3.288 11.857c.566 2.047 2.335 3.053 4.392 2.479 2.129-.593 3.108-2.354 2.533-4.402l-3.288-11.856-.673-1.572 2.99-.826c.064-.198.1-.386.046-.584-.1-.476-.431-1.015-1.545-1.06l1.167-1.931c1.707.242 2.3 1.185 2.515 2.075.279 1.203-.727 2.74-1.661 3.359l3.233 11.659c1.033 3.71-.862 6.89-4.572 7.922s-6.862-.754-7.895-4.464zm22.967.368-.153-1.706-.125-.53c-.467 1.554-1.402 2.91-3.135 3.314-2.38.548-4.59-.988-5.497-4.967l-1.213-5.326c-.143-.647-.251-1.096-.602-1.6l2.704-2.092 1.94 8.488c.494 2.156 1.626 3.135 2.695 2.892 1.626-.368 1.886-3.108 2.03-5.443l-.925-4.033c-.144-.647-.252-1.096-.602-1.599l2.704-2.093 2.82 12.351.602 1.599-3.252.745zm20.471-3.7-.144-.908c-1.006.997-2.174 1.554-3.341 1.734-4.033.62-6.638-2.73-7.213-6.422-.575-3.719.907-7.734 5.084-8.372a5.35 5.35 0 0 1 3.566.674l-.332-2.192-2.839.44-.35-2.272 2.838-.44-.072-.458c-.099-.656-.17-1.105-.485-1.644l2.848-1.895.547 3.548.854-.135.35 2.273-.853.134 2.12 13.806.485 1.644-3.072.467zm-1.518-9.917c-.961-1.131-2.156-1.527-3.207-1.374-2.39.368-3.207 2.82-2.847 5.12.377 2.443 2.102 4.77 4.715 4.365.908-.144 1.734-.646 2.345-1.58l-1.006-6.54zm13.482 7.491a6.1 6.1 0 0 1-3.557 1.671c-3.063.323-4.752-1.787-5.003-4.159-.26-2.515 1.24-5.335 4.608-5.685a5.7 5.7 0 0 1 3.162.62c-.288-2.165-1.707-3.027-3.072-2.884-.997.108-1.968.782-2.417 2.075l-2.443-1.509c1.159-2.2 2.955-3.26 4.788-3.45 2.802-.295 5.596 1.528 5.901 4.501l.817 7.832.405 1.662-3.09.323-.108-.997zm-3.279-16.77c.54-.053.872-.52.764-1.58l1.886-.198c.225 2.12-.62 3.503-1.931 3.638-1.716.18-1.877-1.365-2.874-1.257-.458.044-.746.565-.647 1.544l-1.886.198c-.144-1.374.161-3.431 1.904-3.61 1.77-.19 2.021 1.347 2.793 1.266zm2.848 12.567c-.584-.925-1.922-1.536-2.955-1.428-1.455.152-2.165 1.437-2.03 2.667.143 1.401 1.185 2.192 2.587 2.04.997-.108 2.056-.791 2.533-2.004l-.135-1.284zm5.003-15.638c1.033-.072 1.769.566 1.841 1.599.081 1.06-.557 1.796-1.59 1.877-1.033.072-1.769-.566-1.85-1.626-.072-1.033.566-1.77 1.599-1.841zm-.189 20.48.108-1.707c-.476-6.512-.278-3.872-.754-10.384-.045-.655-.081-1.114-.351-1.67l2.991-1.662.979 13.509.351 1.67zM117.091 38.3c-.045-3.25 2.685-4.957 5.623-4.993 2.066-.027 4.239.862 5.56 2.676l-2.129 2.102c-.8-1.338-2.246-1.922-3.449-1.904-1.24.018-2.605.638-2.596 1.617.045 2.901 8.344.395 8.416 5.425.045 3.135-2.748 4.985-5.82 5.03-2.21.036-4.608-.88-6.018-2.82l2.389-1.958c.826 1.338 2.524 1.922 3.736 1.904 1.24-.018 2.632-.674 2.614-1.904-.036-2.497-8.254-.108-8.326-5.174m20.156 8.856a6.05 6.05 0 0 1-3.746 1.168c-3.072-.099-4.464-2.425-4.383-4.805.081-2.524 1.949-5.111 5.344-4.995a5.6 5.6 0 0 1 3.045 1.051c.018-2.182-1.275-3.233-2.65-3.278-1.006-.036-2.056.503-2.676 1.724l-2.21-1.832c1.446-2.02 3.368-2.82 5.21-2.757 2.811.09 5.326 2.281 5.227 5.263l-.26 7.869.171 1.706-3.108-.108zm-3.575-18.584c-.036.98.494 1.689 1.581 1.725 1.122.036 1.688-.638 1.724-1.608l2.012.063c-.072 2.21-1.617 3.602-3.799 3.52-2.156-.07-3.602-1.553-3.53-3.772zm3.718 14.363c-.458-.997-1.697-1.779-2.73-1.815-1.464-.045-2.336 1.132-2.38 2.363-.045 1.41.871 2.326 2.281 2.38 1.006.036 2.147-.503 2.784-1.635zm1.653-18.521-3.153 3.952-1.464-.045 1.339-4.006 3.278.108zm9.351 24.475.332-1.67.575-6.153c.287-3.035-.297-4.212-1.132-4.293-1.518-.144-2.425 3.413-3.072 5.973l-.386 4.096.072 1.707-3.324-.315.387-1.67.943-10.07c.063-.655.108-1.113-.072-1.706l3.224-1.14-.278 2.972c1.096-1.832 2.425-2.488 3.629-2.371 1.778.162 2.721 1.787 3 3.431 1.123-2.147 2.578-2.91 3.871-2.784 2.318.215 3.252 2.9 3.063 4.877l-.781 8.353.018 1.707-3.207-.296.332-1.671.575-6.153c.288-3.036-.296-4.212-1.132-4.293-1.518-.144-2.425 3.413-3.063 5.946l-.386 4.123.018 1.706-3.206-.296zm24.772 3.441.539-1.626 2.892-15.341c-2.335-.503-4.841-.566-5.398 2.407-.332 1.779.665 3.898 3.126 4.365l-.054.279c-.242 1.302-1.15 2.066-2.479 1.814-2.91-.548-4.302-3.88-3.79-6.566.736-3.898 4.374-5.964 8.155-5.245l4.743.898c3.251.61 4.895.395 5.362-2.057l.279.054c1.302.242 2.066 1.15 1.814 2.479-.548 2.91-3.665 3.17-7.994 2.353l-.961-.18-2.883 15.28-.09 1.706-3.279-.62z"/>
    <path fill="#EF4B23" d="M182.75 50.014c.44 1.113 1.312 2.03 2.704 2.37 1.23.297 2.317-.026 3.26-1.13l1.716 2.308c-1.644 1.553-3.674 2.092-5.82 1.572-4.581-1.114-5.947-5.47-5.048-9.18.862-3.548 3.88-6.485 8.236-5.425 2.821.682 5.093 3.161 4.312 6.368-.288 1.177-1.186 2.075-3.746 2.398l-5.614.71zm4.195-3.126c2.156-.216 2.102-.737 2.174-1.042.305-1.258-.557-2.21-1.788-2.506-2.434-.593-4.186 1.266-4.715 3.467a3 3 0 0 0-.099.512zm1.94-7.276-.242-2.281-1.294 1.904-2.991-.727 3.997-3.198 1.428.35 2.093 4.68zm8.111-4.778-3.889 3.224-1.428-.34 2.128-3.657 3.18.773zm-2.802 7.599c1.571.476 1.715.278 2.021-.746l.233-.772c.234-.773.476-1.572.422-2.183l3.386-.476-1.661 5.506 4.132 1.24-.746 2.479-4.132-1.24-1.868 6.189c-.467 1.545-.476 2.883.458 3.17.934.279 1.68-.691 2.273-1.266l1.589 2.398c-1.625 1.401-3.098 1.913-4.697 1.437-1.842-.556-3.584-2.55-2.551-5.99l1.67-5.534c.306-1.015.288-1.266-1.275-1.733z"/>
    <path fill="#FFF400" d="m45.97 52.34-3.296-11.883L42 38.885l3.216-.89.233 1.698 3.288 11.857c.566 2.047 2.335 3.053 4.392 2.479 2.129-.593 3.108-2.354 2.533-4.402l-3.288-11.856-.673-1.572 2.99-.826c.064-.198.1-.386.046-.584-.1-.476-.431-1.015-1.545-1.06l1.167-1.931c1.707.242 2.3 1.186 2.515 2.075.279 1.203-.727 2.74-1.661 3.36l3.233 11.658c1.033 3.71-.862 6.89-4.572 7.922s-6.862-.754-7.895-4.464zm22.967.377-.153-1.706-.125-.53c-.467 1.554-1.402 2.91-3.135 3.314-2.38.548-4.59-.988-5.497-4.967l-1.213-5.326c-.143-.647-.251-1.096-.602-1.6l2.704-2.092 1.94 8.488c.494 2.156 1.626 3.135 2.695 2.892 1.626-.368 1.886-3.107 2.03-5.443l-.925-4.033c-.144-.646-.252-1.096-.602-1.599l2.704-2.093 2.82 12.351.602 1.599-3.252.745zm20.471-3.709-.144-.908c-1.006.997-2.174 1.554-3.341 1.734-4.033.62-6.638-2.73-7.213-6.422-.575-3.719.907-7.734 5.084-8.372a5.35 5.35 0 0 1 3.566.674l-.332-2.192-2.839.44-.35-2.272 2.838-.44-.072-.458c-.099-.656-.17-1.105-.485-1.644l2.848-1.895.547 3.548.854-.135.35 2.273-.853.134 2.12 13.806.485 1.644-3.072.467zM87.89 39.09c-.961-1.131-2.156-1.527-3.207-1.374-2.39.368-3.207 2.82-2.847 5.12.377 2.443 2.102 4.77 4.715 4.365.908-.143 1.734-.646 2.345-1.58l-1.006-6.54zm13.482 7.493a6.1 6.1 0 0 1-3.557 1.67c-3.063.324-4.752-1.787-5.003-4.159-.26-2.515 1.24-5.335 4.608-5.685a5.7 5.7 0 0 1 3.162.62c-.288-2.165-1.707-3.028-3.072-2.884-.997.108-1.968.782-2.417 2.075l-2.443-1.509c1.159-2.2 2.955-3.26 4.788-3.449 2.802-.297 5.596 1.527 5.901 4.5l.817 7.832.405 1.662-3.09.324-.108-.997zm-3.279-16.761c.54-.054.872-.521.764-1.581l1.886-.198c.225 2.12-.62 3.503-1.931 3.638-1.716.18-1.877-1.365-2.874-1.257-.458.044-.746.566-.647 1.544l-1.886.198c-.144-1.374.161-3.431 1.904-3.61 1.77-.19 2.021 1.347 2.793 1.266zm2.848 12.557c-.584-.925-1.922-1.536-2.955-1.428-1.455.152-2.165 1.437-2.03 2.667.143 1.402 1.185 2.192 2.587 2.04.997-.108 2.056-.791 2.533-2.004l-.135-1.284zm5.003-15.639c1.033-.07 1.769.567 1.841 1.6.081 1.06-.557 1.796-1.59 1.877-1.033.072-1.769-.566-1.85-1.626-.072-1.033.566-1.77 1.599-1.841zm-.189 20.48.108-1.706c-.476-6.513-.278-3.872-.754-10.384-.045-.656-.081-1.114-.351-1.67l2.991-1.662.979 13.509.351 1.67zm11.336-10.455c-.045-3.251 2.685-4.958 5.623-4.994 2.066-.027 4.239.862 5.56 2.677l-2.129 2.101c-.8-1.338-2.246-1.922-3.449-1.904-1.24.018-2.605.638-2.596 1.617.045 2.901 8.344.395 8.416 5.425.045 3.135-2.748 4.985-5.82 5.03-2.21.036-4.608-.88-6.018-2.82l2.389-1.958c.826 1.338 2.524 1.922 3.736 1.904 1.24-.018 2.632-.674 2.614-1.904-.036-2.497-8.254-.108-8.326-5.174m20.156 8.856a6.05 6.05 0 0 1-3.746 1.168c-3.072-.099-4.464-2.425-4.383-4.805.081-2.524 1.949-5.111 5.344-4.995a5.6 5.6 0 0 1 3.045 1.052c.018-2.183-1.275-3.234-2.65-3.279-1.006-.036-2.056.503-2.676 1.724l-2.21-1.832c1.446-2.02 3.368-2.82 5.21-2.757 2.811.09 5.326 2.281 5.227 5.263l-.26 7.869.171 1.706-3.108-.108zm-3.575-18.584c-.036.98.494 1.689 1.581 1.725 1.122.036 1.688-.638 1.724-1.608l2.012.063c-.072 2.21-1.617 3.602-3.799 3.521-2.156-.072-3.602-1.554-3.53-3.773zM137.39 41.4c-.458-.997-1.697-1.779-2.73-1.815-1.464-.044-2.336 1.132-2.38 2.363-.045 1.41.871 2.326 2.281 2.38 1.006.036 2.147-.503 2.784-1.635zm1.653-18.521-3.153 3.952-1.464-.045 1.339-4.006 3.278.108zm9.351 24.476.332-1.67.575-6.154c.287-3.035-.297-4.212-1.132-4.293-1.518-.144-2.425 3.413-3.072 5.973l-.386 4.096.072 1.707-3.324-.315.387-1.67.943-10.07c.063-.655.108-1.113-.072-1.706l3.224-1.14-.278 2.972c1.096-1.832 2.425-2.488 3.629-2.371 1.778.162 2.721 1.788 3 3.431 1.123-2.147 2.578-2.91 3.871-2.784 2.318.215 3.252 2.901 3.063 4.877l-.781 8.354.018 1.706-3.207-.296.332-1.671.575-6.153c.288-3.036-.296-4.212-1.132-4.293-1.518-.144-2.425 3.413-3.063 5.946l-.386 4.123.018 1.706-3.206-.296zm24.772 3.44.539-1.626 2.892-15.341c-2.335-.503-4.841-.566-5.398 2.407-.332 1.779.665 3.898 3.126 4.365l-.054.279c-.242 1.302-1.15 2.066-2.479 1.814-2.91-.548-4.302-3.88-3.79-6.566.736-3.898 4.374-5.964 8.155-5.245l4.743.898c3.251.61 4.895.395 5.362-2.057l.279.054c1.302.242 2.066 1.15 1.814 2.479-.548 2.91-3.665 3.17-7.994 2.353l-.961-.18-2.883 15.28-.09 1.706-3.279-.62z"/>
    <path fill="#FFF400" d="M182.75 48.478c.44 1.114 1.312 2.03 2.704 2.371 1.23.296 2.317-.027 3.26-1.132l1.716 2.309c-1.644 1.554-3.674 2.092-5.82 1.571-4.581-1.113-5.947-5.47-5.048-9.18.862-3.547 3.88-6.484 8.236-5.424 2.821.682 5.093 3.161 4.312 6.368-.288 1.177-1.186 2.075-3.746 2.398l-5.614.71zm4.195-3.126c2.156-.216 2.102-.737 2.174-1.042.305-1.258-.557-2.21-1.788-2.506-2.434-.593-4.186 1.267-4.715 3.467-.045.17-.081.332-.099.512zm1.94-7.276-.242-2.281-1.294 1.904-2.991-.727 3.997-3.198 1.428.35 2.093 4.68zm8.111-4.778-3.889 3.224-1.428-.34 2.128-3.657 3.18.773zm-2.802 7.599c1.571.476 1.715.278 2.021-.746l.233-.772c.234-.773.476-1.572.422-2.183l3.386-.476-1.661 5.506 4.132 1.24-.746 2.479-4.132-1.24-1.868 6.189c-.467 1.545-.476 2.883.458 3.17.934.279 1.68-.691 2.273-1.266l1.589 2.398c-1.625 1.402-3.098 1.913-4.697 1.438-1.842-.557-3.584-2.551-2.551-5.992l1.67-5.533c.306-1.015.288-1.266-1.275-1.733z"/>
  </g>
  <defs>
    <clipPath id="a">
      <path fill="#fff" d="M.258 0h244.485v98.001H.258z"/>
    </clipPath>
  </defs>
</svg>
