<svg xmlns="http://www.w3.org/2000/svg" width="99" height="37" fill="none" viewBox="0 0 99 37">
  <path fill="#fff" d="M.645 2.55H2.46l1.788 4.736L5.98 2.55h1.78V9H6.44V4.678L4.764 9H3.64L1.963 4.678V9H.645zm12.966 5.353V9h-.663c-.673 0-.885-.323-.876-.774-.331.525-.81.83-1.548.83-1.023 0-1.76-.49-1.76-1.392 0-1.005.756-1.576 2.175-1.576h.94v-.23c0-.424-.304-.7-.848-.7-.507 0-.848.23-.903.58H8.875c.092-.921.94-1.53 2.193-1.53 1.327 0 2.092.59 2.092 1.723V7.61c0 .248.101.294.304.294h.147Zm-2.681-.949c-.544 0-.857.221-.857.618 0 .331.267.543.7.543.682 0 1.097-.423 1.106-1.069v-.092zm6.091-2.746c1.023 0 1.898.544 1.898 2.166V9H17.62V6.503c0-.802-.304-1.226-.958-1.226-.673 0-1.06.48-1.06 1.3V9h-1.3V4.264h1.134l.12.59c.304-.37.737-.646 1.465-.646m6.5.056h1.142v4.598c0 1.17-.718 2.036-2.534 2.036-1.317 0-2.22-.599-2.285-1.695h1.309c.12.451.479.71 1.078.71.728 0 1.16-.36 1.16-1.097v-.498c-.313.396-.782.654-1.446.654-1.272.01-2.202-.921-2.202-2.386 0-1.447.93-2.387 2.193-2.387.682 0 1.16.304 1.474.719zM22.23 7.93c.71 0 1.152-.544 1.152-1.327 0-.792-.443-1.354-1.152-1.354-.71 0-1.161.552-1.161 1.345s.451 1.336 1.16 1.336ZM33.383 3v.95h-.433V9h-1.133l-.13-.654c-.312.405-.773.71-1.455.71-1.272 0-2.202-.931-2.202-2.433 0-1.466.93-2.415 2.193-2.415.654 0 1.124.258 1.428.645V3.95h-1.52v-.949h1.52V2.55h1.3V3zM30.52 7.996c.71 0 1.151-.553 1.151-1.355 0-.81-.442-1.373-1.151-1.373s-1.161.553-1.161 1.364c0 .81.451 1.364 1.16 1.364Zm6.76-5.446.673-1.3h1.483l-1.207 1.3zm-1.032.764-.571.544h-1.189l1.18-1.308h1.16l1.18 1.308H36.81zm.11 5.741c-1.575 0-2.524-.949-2.524-2.414 0-1.474.967-2.433 2.432-2.433 1.42 0 2.378.885 2.396 2.276 0 .139-.009.295-.036.443h-3.438v.064c.028.673.461 1.078 1.115 1.078.526 0 .894-.23 1.005-.672h1.28c-.147.921-.967 1.658-2.23 1.658m.996-2.976c-.092-.58-.488-.903-1.078-.903-.562 0-.986.34-1.06.903zm4.917-1.87c1.023 0 1.898.543 1.898 2.165V9h-1.3V6.503c0-.802-.303-1.226-.958-1.226-.672 0-1.06.48-1.06 1.3V9h-1.299V4.264h1.134l.12.59c.304-.37.737-.646 1.465-.646Zm8.099 0c1.271 0 2.193.912 2.193 2.414 0 1.465-.922 2.432-2.202 2.432-.682 0-1.152-.295-1.456-.7l-.13.645h-1.133V2.55h1.3v2.313c.313-.378.774-.655 1.428-.655Zm-.295 3.787c.71 0 1.17-.553 1.17-1.364s-.46-1.364-1.17-1.364-1.152.553-1.152 1.355c0 .81.442 1.373 1.152 1.373m5.38-4.184c0-.442.092-.571.322-.682.093-.055.194-.138.194-.249 0-.055-.037-.11-.138-.11-.148 0-.277.037-.36.258l-.682-.258c.203-.452.544-.682 1.05-.682.526 0 .922.276.922.765 0 .36-.166.59-.368.69-.11.056-.175.12-.157.268zm.322 5.243c-1.51 0-2.497-.967-2.497-2.423s.986-2.424 2.497-2.424c.977 0 1.742.406 2.157 1.088l.276.046.028-1.078h1.225l-.276.94c-.13.46-.498.81-.95.94.028.156.038.322.038.488 0 1.465-.986 2.423-2.498 2.423m0-1.06c.728 0 1.18-.562 1.18-1.363 0-.802-.452-1.364-1.18-1.364s-1.17.562-1.17 1.364c0 .801.442 1.364 1.17 1.364Zm4.992-4.238c-.424 0-.756-.313-.756-.728 0-.424.332-.737.756-.737s.755.313.755.737c0 .415-.331.728-.755.728m-.654.507h1.308V9h-1.308zM13.284 17.588a1.75 1.75 0 0 0 .165-1.84c-.3-.6-.901-.973-1.573-.973H0v3.426h8.539L.393 29.066a1.75 1.75 0 0 0-.165 1.84c.3.6.901.972 1.574.972h11.875v-3.426H5.138l8.146-10.86zm30.992.605c-3.772 0-6.838 3.07-6.838 6.843 0 3.772 3.07 6.838 6.838 6.838s6.843-3.07 6.843-6.838-3.07-6.843-6.843-6.843m0 10.256a3.417 3.417 0 0 1-3.413-3.413 3.417 3.417 0 0 1 3.413-3.413 3.417 3.417 0 0 1 3.413 3.413 3.417 3.417 0 0 1-3.413 3.413M60.5 18.193a6.85 6.85 0 0 0-6.843 6.843V37h3.425v-6.047a6.8 6.8 0 0 0 3.413.922 6.847 6.847 0 0 0 6.839-6.839c0-3.768-3.07-6.843-6.839-6.843zm0 10.256a3.417 3.417 0 0 1-3.413-3.413 3.417 3.417 0 0 1 3.413-3.413 3.417 3.417 0 0 1 3.413 3.413 3.417 3.417 0 0 1-3.413 3.413m33.889-10.253-3.642 8.501-3.463-8.5h-3.7l5.264 12.928-2.516 5.874h3.726l8.057-18.803zM82.286 28.449V18.193h-3.43v1.252a6.3 6.3 0 0 0-3.726-1.235c-3.599 0-6.513 3.058-6.513 6.83s2.914 6.83 6.513 6.83c1.684 0 3.215-.676 4.369-1.776a3.92 3.92 0 0 0 3.282 1.776h1.214v-3.425H82.29zm-6.838 0a3.41 3.41 0 1 1 0-6.82 3.41 3.41 0 0 1 0 6.82m-46.824 0V18.193h-3.43v1.252a6.3 6.3 0 0 0-3.726-1.235c-3.599 0-6.513 3.058-6.513 6.83s2.914 6.83 6.513 6.83c1.684 0 3.215-.677 4.37-1.776a3.92 3.92 0 0 0 3.281 1.776h1.214v-3.425h-1.705zm-6.838 0a3.41 3.41 0 1 1 .001-6.82 3.41 3.41 0 0 1-.001 6.82m13.28-.004V14.772H31.63v13.17a3.93 3.93 0 0 0 3.925 3.928h1.227v-3.43h-1.717v.005Z"/>
</svg>
