<svg xmlns="http://www.w3.org/2000/svg" width="74" height="28" fill="none" viewBox="0 0 74 28">
  <path fill="#fff" d="M9.982 13.086c.302-.404.35-.934.124-1.383a1.31 1.31 0 0 0-1.182-.73H0v2.574h6.416L.296 21.71c-.302.404-.35.931-.124 1.383.225.45.677.73 1.182.73h8.924V21.25H3.86l6.121-8.16zm23.29.455a5.146 5.146 0 0 0-5.14 5.142 5.145 5.145 0 0 0 5.14 5.139 5.15 5.15 0 0 0 5.142-5.139 5.15 5.15 0 0 0-5.142-5.142m0 7.707a2.57 2.57 0 0 1-2.565-2.565 2.57 2.57 0 0 1 2.565-2.565 2.57 2.57 0 0 1 2.564 2.565 2.57 2.57 0 0 1-2.564 2.565m12.19-7.707a5.15 5.15 0 0 0-5.142 5.142v8.99h2.575V23.13c.756.439 1.63.693 2.564.693a5.145 5.145 0 0 0 5.14-5.139 5.15 5.15 0 0 0-5.14-5.142h.003Zm0 7.707a2.57 2.57 0 0 1-2.564-2.565 2.57 2.57 0 0 1 2.564-2.565 2.57 2.57 0 0 1 2.565 2.565 2.57 2.57 0 0 1-2.565 2.565m25.466-7.705-2.736 6.388-2.603-6.388h-2.78l3.956 9.716-1.89 4.414h2.8l6.053-14.13zm-9.094 7.705V13.54h-2.577v.94a4.72 4.72 0 0 0-2.8-.927c-2.705 0-4.895 2.297-4.895 5.132s2.19 5.133 4.895 5.133c1.265 0 2.415-.509 3.283-1.335a2.94 2.94 0 0 0 2.466 1.335h.912v-2.574h-1.28l-.004.003Zm-5.139 0a2.562 2.562 0 1 1 .001-5.124 2.562 2.562 0 0 1-.001 5.124m-35.185 0V13.54h-2.578v.94a4.72 4.72 0 0 0-2.8-.927c-2.704 0-4.894 2.297-4.894 5.132s2.19 5.133 4.895 5.133c1.264 0 2.415-.509 3.282-1.335a2.94 2.94 0 0 0 2.467 1.335h.912v-2.574h-1.281l-.003.003Zm-5.14 0a2.562 2.562 0 1 1 .002-5.124 2.562 2.562 0 0 1-.001 5.124Zm9.98-.003V10.97h-2.58v9.896a2.95 2.95 0 0 0 2.949 2.953h.921V21.24h-1.29v.004ZM15.329 2.153h1.364l1.343 3.559 1.302-3.56h1.336V7h-.99V3.752L18.424 7h-.845l-1.26-3.248V7h-.99zm9.743 4.023V7h-.499c-.505 0-.664-.242-.657-.582-.25.395-.61.624-1.164.624-.768 0-1.322-.367-1.322-1.046 0-.755.567-1.184 1.634-1.184h.706v-.173c0-.319-.228-.526-.637-.526-.38 0-.637.173-.678.436h-.942c.069-.693.706-1.15 1.648-1.15.997 0 1.572.443 1.572 1.295v1.26c0 .187.076.222.228.222zm-2.015-.713c-.409 0-.644.166-.644.464 0 .249.2.408.526.408.513 0 .824-.318.831-.803v-.07h-.713Zm4.577-2.064c.769 0 1.427.409 1.427 1.628V7h-.977V5.123c0-.602-.228-.92-.72-.92-.505 0-.796.36-.796.976V7h-.976V3.44h.851l.09.444c.229-.277.554-.485 1.101-.485m4.885.042h.858v3.455c0 .88-.54 1.53-1.904 1.53-.99 0-1.669-.45-1.717-1.274h.983c.09.34.36.534.81.534.547 0 .873-.27.873-.824v-.374c-.236.297-.589.491-1.088.491-.955.007-1.654-.692-1.654-1.793 0-1.087.699-1.794 1.648-1.794.512 0 .872.229 1.107.54zm-.97 2.756c.533 0 .866-.409.866-.997 0-.596-.333-1.018-.866-1.018s-.872.415-.872 1.01c0 .596.339 1.005.872 1.005m8.382-3.705v.713h-.326V7h-.852l-.097-.492a1.32 1.32 0 0 1-1.094.534c-.955 0-1.655-.7-1.655-1.829 0-1.1.7-1.814 1.648-1.814.492 0 .845.194 1.074.485v-.679h-1.143v-.713h1.143v-.34h.976v.34zm-2.154 3.753c.533 0 .866-.415.866-1.018 0-.609-.333-1.031-.866-1.031s-.873.415-.873 1.024c0 .61.34 1.025.873 1.025m5.082-4.092.505-.976h1.115l-.907.976zm-.776.575-.43.408h-.892l.886-.983h.872l.887.983h-.9zm.083 4.314c-1.184 0-1.897-.714-1.897-1.815 0-1.108.727-1.828 1.828-1.828 1.066 0 1.787.665 1.8 1.71 0 .104-.006.222-.027.333h-2.583v.048c.02.506.346.81.838.81.394 0 .671-.172.755-.505h.962c-.11.693-.727 1.247-1.676 1.247m.748-2.237c-.07-.436-.367-.679-.81-.679-.422 0-.74.257-.796.679zm3.695-1.406c.768 0 1.426.409 1.426 1.628V7h-.976V5.123c0-.602-.228-.92-.72-.92-.506 0-.796.36-.796.976V7h-.977V3.44h.852l.09.444c.228-.277.554-.485 1.1-.485Zm6.086 0c.956 0 1.648.686 1.648 1.814 0 1.101-.692 1.829-1.655 1.829-.512 0-.866-.222-1.094-.527L51.497 7h-.852V2.153h.977V3.89a1.34 1.34 0 0 1 1.073-.492Zm-.222 2.846c.534 0 .88-.415.88-1.025s-.346-1.024-.88-1.024c-.533 0-.865.415-.865 1.017 0 .61.332 1.032.865 1.032m4.043-3.143c0-.333.07-.43.242-.513.07-.041.146-.104.146-.187 0-.041-.028-.083-.104-.083-.11 0-.208.028-.27.194l-.512-.194c.152-.34.408-.512.789-.512.395 0 .692.207.692.574 0 .27-.124.444-.277.52-.083.041-.131.09-.117.2zm.242 3.94c-1.135 0-1.876-.728-1.876-1.822s.74-1.82 1.877-1.82c.733 0 1.308.304 1.62.816l.208.035.02-.81h.921l-.207.706a1.03 1.03 0 0 1-.714.706c.021.118.028.243.028.367 0 1.101-.74 1.822-1.877 1.822m0-.797c.548 0 .887-.422.887-1.025 0-.602-.34-1.024-.887-1.024s-.879.422-.879 1.024.333 1.025.88 1.025ZM60.51 3.06a.55.55 0 1 1 0-1.101.55.55 0 1 1 0 1.101m-.491.38H61V7h-.983V3.44Z"/>
</svg>
