<svg xmlns="http://www.w3.org/2000/svg" width="399" height="1200" fill="none" viewBox="0 0 399 1200" xmlns:xlink="http://www.w3.org/1999/xlink">
  <mask id="a" width="391" height="1192" x="4" y="0" maskUnits="userSpaceOnUse" style="mask-type:alpha">
    <path fill="#D9D9D9" d="M4 0h391v1192H4z"/>
  </mask>
  <g mask="url(#a)">
    <path fill="#2520C6" d="M4 544h391v611H4z"/>
    <path fill="#00B250" d="M4.095 0h392v549h-392z"/>
    <g clip-path="url(#b)">
      <path fill="#00B250" stroke="#81DFA1" stroke-miterlimit="10" d="M125.87 321.753c-2.37 3.72-6.67 5.85-11.01 6.59-4.39.76-8.69-.21-13.06-.05 2.61 4.84-8.86 5.63-11.23 5.72-6.45.24-13.84-1.41-18.08-6.67.6 1.48-1.57 2.38-3.04 3.01-6.3 2.69-14.03 1.72-19.47-2.44-.29 2.73-2.54 4.93-5.08 5.97-2.55 1.04-5.36 1.13-8.11 1.21-12.88 13.14-28.1 8.14-36.5.7-5.04-4.47-6.59-11.41-6.59-11.41-10.8 10.9-34.38 3.86-39.34-2.05-1.92-.84-2.03-2.87-3.15-4.65-1.3 2.26-3.85 3.58-6.42 4.01-2.57.44-5.2.12-7.78-.21-1.06 4.66-4.03 8.86-8.07 11.4-2.99 1.88-6.54 2.84-10.07 2.78a.26.26 0 0 0 .1-.24.285.285 0 0 0-.32-.26c-2.37.27-4.86-.86-6.21-2.81-1.36-1.96-1.53-4.69-.45-6.8.08-.14.02-.32-.12-.39a.283.283 0 0 0-.39.11c-.91 1.58-2.86 2.51-5.81 2.76-4.85.4-9.89-.63-14.2-2.9-1.93-1.03-3.76-2.31-5.53-3.55-1.42-1.01-2.89-2.04-4.42-2.94-4.15-2.45-8.12-3.31-11.47-2.51.04-.89-.03-1.83-.23-2.81-.23-1.13-.92-2.7-2.11-3.42-.59-.36-1.23-.45-1.85-.27a.31.31 0 0 0-.2.37c.05.15.21.24.37.2.46-.14.93-.07 1.37.2.97.58 1.63 1.95 1.85 3.04.49 2.44.18 4.62-.87 6.14-1.4 2.04-4.07 2.87-5.95 3.31-6.31 1.49-13.15 1.13-19.27-1.01-2.97-1.03-5.44-2.39-7.38-4.04q.36.135.72.3c-5.25-2.82-4.76-10.69-1.84-15.89 2.92-5.19 8.95-8.04 14.88-8.63 5.93-.6 11.87.73 17.67 2.09-.95-4.18 1.51-8.63 5.12-10.93 3.62-2.3 8.14-2.77 12.41-2.34-1.14-6.05 3.64-13.02 9.14-15.78 5.5-2.75 12.23-2.31 17.89.11-1.99-3.37-.66-8.26 2.77-10.15-3.57-5.12-1.64-12.12 2.95-16.36 2.42-2.23 5.59-3.46 8.74-4.44 3.45-1.05 7.03-1.87 10.63-1.63 3.6.23 7.24 1.62 9.58 4.36 9.34-3.44 20.41-4 28.73 1.46.9.59 1.77 1.25 2.76 1.64.85.33 1.77.46 2.66.62 12.82 2.21 24.56 11.34 30.68 22.8 9.2-3.51 20.37-1.11 27.31 5.88 2.23 2.25 4.07 5 4.64 8.11.65 3.51-.41 7.2-2.39 10.17s-4.82 5.28-7.88 7.13c3.09.2 5.25.63 8.03 2.02.05-2.86 1.97-5.51 4.53-6.77 2.56-1.27 5.66-1.23 8.34-.24.76.28 1.51.64 2.32.67 1.06.06 2.07-.42 3.04-.86 7.42-3.31 15.97-4.04 23.85-2.04s14.4 7.31 19.34 13.76c4.1-.54 8.26-1.04 12.35-.44 4.08.59 8.15 2.41 10.63 5.72 2.88 3.86 3.09 9.52.49 13.57Z"/>
      <path fill="#81DFA1" d="M72.97 327.593c.13 0 .26-.07.3-.21a.296.296 0 0 0-.19-.37c-3.28-1.01-5.98-3.03-7.38-5.55-1.6-2.86-1.46-6.49.34-8.82.91-1.18 2.34-2.02 3.91-2.29 1.59-.28 3.16.06 4.29.94.08.06.19.08.28.04.1-.04.17-.12.18-.22.45-2.42 3.07-3.81 5.38-4.31 1.92-.42 3.61-.37 5 .13 2.61.94 4.39 3.73 4.15 6.5-.06.71-.32 2.04-1.35 2.88-.86.7-2.1.79-2.88.21a.29.29 0 0 0-.41.06c-.1.13-.07.31.06.41.99.74 2.54.65 3.6-.22.88-.72 1.44-1.89 1.56-3.28.27-3.02-1.68-6.07-4.54-7.1-1.5-.54-3.29-.59-5.32-.15-2.35.51-5.02 1.91-5.73 4.34-1.22-.79-2.8-1.08-4.39-.8-1.71.3-3.27 1.22-4.27 2.51-1.94 2.51-2.1 6.4-.39 9.46 1.5 2.69 4.25 4.76 7.72 5.83.02 0 .04.01.07.01zm-14.35-18.11c.14 0 .27-.08.3-.21.78-2.8-.62-6.07-3.19-7.44-1.44-.77-3.11-.95-4.57-1.07-1.2-.09-2.47-.15-3.64.28-1.12.41-2.27 1.45-2.33 2.84 0 .16.12.3.28.31.16 0 .3-.12.31-.28.05-1.12 1.01-1.97 1.95-2.31 1.06-.39 2.26-.34 3.39-.25 1.4.11 3 .29 4.34 1 2.33 1.24 3.61 4.21 2.9 6.76-.04.16.05.32.2.36h.06z"/>
      <path fill="#81DFA1" d="M51.35 329.133c.13 0 .25-.06.3-.19a.296.296 0 0 0-.17-.38c-3.45-1.33-6.35-4.17-7.77-7.58a.29.29 0 0 0-.38-.16c-4.56 1.81-10.09.83-13.75-2.45-1.21-1.08-1.98-2.22-2.3-3.37-.5-1.85.13-3.82.73-5.33 1.01-2.53 2.18-4.16 3.67-5.14 2.11-1.39 4.8-1.42 7.4-1.26 2.57.16 5.21.54 7.1 2.16 1.05.9 1.73 2.38 1.74 3.78 0 .74-.17 1.8-1.06 2.58-.12.11-.13.29-.03.41.11.12.29.13.41.03.82-.73 1.27-1.8 1.26-3.03-.01-1.58-.76-3.2-1.95-4.22-2.02-1.74-4.77-2.13-7.45-2.3-2.7-.17-5.51-.12-7.76 1.36-2.09 1.38-3.22 3.75-3.89 5.41-.64 1.59-1.3 3.68-.75 5.7.34 1.27 1.17 2.5 2.47 3.66 3.75 3.36 9.38 4.41 14.09 2.66 1.52 3.44 4.49 6.28 7.99 7.64.03.01.06.02.09.02zm-29.55-29.56h.05c.16-.02.28-.16.26-.32-.41-4.16-2.89-8.09-6.48-10.24-1.55-.93-3.36-1.61-5.7-2.13-1.65-.37-4.13-.8-6.5-.22-2.36.57-4.28 2.14-4.99 4.08-.06.15.02.32.17.38s.32-.02.38-.17c.65-1.77 2.4-3.19 4.58-3.72 2.25-.55 4.64-.13 6.24.23 2.27.51 4.03 1.17 5.52 2.06 3.43 2.06 5.8 5.81 6.2 9.79.01.14.13.25.27.26"/>
      <path fill="#81DFA1" d="M37.41 329.333c4.43.32 7.29-.69 8.51-2.99.08-.14.02-.32-.12-.4s-.32-.02-.4.12c-1.1 2.08-3.77 2.98-7.94 2.68h-.13c-6.45-.5-10.43-2.38-12.16-5.75a.296.296 0 0 0-.33-.15c-2.17.54-4.39.7-6.61.46-4.8-.52-10.05-3.66-10.78-8.64-.39-2.69.7-5.56 2.78-7.31 2.09-1.75 5.1-2.32 7.68-1.46.15.05.32-.03.37-.19a.29.29 0 0 0-.19-.37c-2.77-.92-6.01-.31-8.25 1.57s-3.41 4.95-2.99 7.84c.77 5.28 6.27 8.59 11.29 9.14 2.21.24 4.43.1 6.59-.42 1.88 3.44 5.98 5.35 12.52 5.86h.13z"/>
    </g>
    <g clip-path="url(#c)">
      <path fill="#00B250" d="M45.095 458h354l5.5 80.5-359.5-20.5z"/>
      <path fill="#A1FF00" d="M212.72 530.415h167.863c25.144 0 40.558-28.475 25.925-48.925-4.475-6.256-11.39-11.247-21.868-13.424-41.911-8.74-54.17 39.437-82.689 29.278-19.009-7.388-35.413-6.179-49.134 2.265-21.857 13.435-46.265 22.242-71.849 24.155-14.139 1.055-25.804 5.464-32.873 2.847v2.397l64.636 1.418z"/>
      <mask id="d" width="265" height="64" x="148" y="467" maskUnits="userSpaceOnUse" style="mask-type:luminance">
        <path fill="#fff" d="M212.72 530.415h167.863c25.144 0 40.558-28.475 25.925-48.925-4.475-6.256-11.39-11.247-21.868-13.424-41.911-8.74-54.17 39.437-82.689 29.278-19.009-7.388-35.413-6.179-49.134 2.265-21.857 13.435-46.265 22.242-71.849 24.155-14.139 1.055-25.804 5.464-32.873 2.847v2.397l64.636 1.418z"/>
      </mask>
      <g fill="#FFFFFB" mask="url(#d)">
        <path d="M183.354 468.88c-5.684 0-10.291 4.606-10.291 10.29 5.684 0 10.291-4.606 10.291-10.29m-10.302 10.302c0-5.685-4.606-10.291-10.29-10.291 0 5.684 4.606 10.291 10.29 10.291m10.302-10.302c0-5.684-4.607-10.291-10.291-10.291 0 5.684 4.607 10.291 10.291 10.291m-20.592 0c5.684 0 10.29-4.607 10.29-10.291-5.684 0-10.29 4.607-10.29 10.291m20.592 0c5.684 0 10.291-4.607 10.291-10.291-5.684 0-10.291 4.607-10.291 10.291m10.291 10.302c0-5.685-4.607-10.291-10.291-10.291 0 5.684 4.607 10.291 10.291 10.291m10.302-10.302c0-5.684-4.607-10.291-10.291-10.291 0 5.684 4.607 10.291 10.291 10.291m0 0c-5.684 0-10.291 4.606-10.291 10.29 5.684 0 10.291-4.606 10.291-10.29m0 0c5.684 0 10.29-4.607 10.29-10.291-5.684 0-10.29 4.607-10.29 10.291m20.592 0c0-5.684-4.606-10.291-10.291-10.291 0 5.684 4.607 10.291 10.291 10.291m0 0c-5.684 0-10.291 4.606-10.291 10.29 5.685 0 10.291-4.606 10.291-10.29m-10.302 10.302c0-5.685-4.606-10.291-10.29-10.291 0 5.684 4.606 10.291 10.29 10.291m20.593 0c0-5.685-4.607-10.291-10.291-10.291 0 5.684 4.607 10.291 10.291 10.291m10.302-10.302c0-5.684-4.607-10.291-10.291-10.291 0 5.684 4.607 10.291 10.291 10.291m-20.593 0c5.684 0 10.291-4.607 10.291-10.291-5.684 0-10.291 4.607-10.291 10.291m20.593 0c-5.684 0-10.291 4.606-10.291 10.29 5.684 0 10.291-4.606 10.291-10.29m10.291 10.302c0-5.685-4.607-10.291-10.291-10.291 0 5.684 4.606 10.291 10.291 10.291m10.29-10.302c0-5.684-4.606-10.291-10.29-10.291 0 5.684 4.606 10.291 10.29 10.291m-20.581 0c5.684 0 10.291-4.607 10.291-10.291-5.685 0-10.291 4.607-10.291 10.291m20.581 0c-5.684 0-10.29 4.606-10.29 10.29 5.684 0 10.29-4.606 10.29-10.29m10.302 10.302c0-5.685-4.607-10.291-10.291-10.291 0 5.684 4.607 10.291 10.291 10.291m10.291-10.302c0-5.684-4.607-10.291-10.291-10.291 0 5.684 4.607 10.291 10.291 10.291m-20.593 0c5.684 0 10.291-4.607 10.291-10.291-5.684 0-10.291 4.607-10.291 10.291m20.593 0c-5.684 0-10.291 4.606-10.291 10.29 5.684 0 10.291-4.606 10.291-10.29m20.592 0c-5.684 0-10.29 4.606-10.29 10.29 5.684 0 10.29-4.606 10.29-10.29m0 0c0-5.684-4.606-10.291-10.29-10.291 0 5.684 4.606 10.291 10.29 10.291m-20.592 0c5.684 0 10.291-4.607 10.291-10.291-5.685 0-10.291 4.607-10.291 10.291m10.302 10.302c0-5.685-4.607-10.291-10.291-10.291 0 5.684 4.607 10.291 10.291 10.291m20.581 0c0-5.685-4.606-10.291-10.291-10.291 0 5.684 4.607 10.291 10.291 10.291m-10.291-10.302c5.685 0 10.291-4.607 10.291-10.291-5.684 0-10.291 4.607-10.291 10.291m20.593 0c-5.684 0-10.291 4.606-10.291 10.29 5.684 0 10.291-4.606 10.291-10.29m0 0c0-5.684-4.607-10.291-10.291-10.291 0 5.684 4.607 10.291 10.291 10.291m20.593 0c-5.685 0-10.291 4.606-10.291 10.29 5.684 0 10.291-4.606 10.291-10.29m-10.302 10.302c0-5.685-4.607-10.291-10.291-10.291 0 5.684 4.607 10.291 10.291 10.291m10.302-10.302c0-5.684-4.607-10.291-10.291-10.291 0 5.684 4.606 10.291 10.291 10.291m-20.593 0c5.684 0 10.291-4.607 10.291-10.291-5.684 0-10.291 4.607-10.291 10.291m41.185 0c0-5.684-4.607-10.291-10.291-10.291 0 5.684 4.607 10.291 10.291 10.291m0 0c-5.684 0-10.291 4.606-10.291 10.29 5.684 0 10.291-4.606 10.291-10.29"/>
        <path d="M348.083 468.88c5.685 0 10.291-4.607 10.291-10.291-5.684 0-10.291 4.607-10.291 10.291m10.291 10.302c0-5.685-4.606-10.291-10.291-10.291 0 5.684 4.607 10.291 10.291 10.291m20.593 0c0-5.685-4.607-10.291-10.291-10.291 0 5.684 4.607 10.291 10.291 10.291m-10.291-10.302c5.684 0 10.291-4.607 10.291-10.291-5.684 0-10.291 4.607-10.291 10.291m20.582 0c-5.685 0-10.291 4.606-10.291 10.29 5.684 0 10.291-4.606 10.291-10.29m0 0c0-5.684-4.607-10.291-10.291-10.291 0 5.684 4.606 10.291 10.291 10.291m10.301 10.302c0-5.685-4.606-10.291-10.29-10.291 0 5.684 4.606 10.291 10.29 10.291m-10.301-10.302c5.684 0 10.29-4.607 10.29-10.291-5.684 0-10.29 4.607-10.29 10.291m-205.904 20.592c-5.684 0-10.291 4.607-10.291 10.291 5.684 0 10.291-4.607 10.291-10.291m-10.291-10.291c-5.684 0-10.29 4.607-10.29 10.291 5.684 0 10.29-4.606 10.29-10.291m-.011 20.582c0-5.684-4.606-10.291-10.29-10.291 0 5.684 4.606 10.291 10.29 10.291m10.302-10.291c0-5.684-4.607-10.291-10.291-10.291 0 5.685 4.607 10.291 10.291 10.291m0 0c5.684 0 10.291-4.606 10.291-10.291-5.684 0-10.291 4.607-10.291 10.291m20.593 0c0-5.684-4.607-10.291-10.291-10.291 0 5.685 4.607 10.291 10.291 10.291m0 0c-5.684 0-10.291 4.607-10.291 10.291 5.684 0 10.291-4.607 10.291-10.291m-10.302 10.291c0-5.684-4.607-10.291-10.291-10.291 0 5.684 4.607 10.291 10.291 10.291m30.894-10.291c0-5.684-4.606-10.291-10.291-10.291 0 5.685 4.607 10.291 10.291 10.291m-10.302 10.291c0-5.684-4.606-10.291-10.29-10.291 0 5.684 4.606 10.291 10.29 10.291m10.302-10.291c-5.684 0-10.291 4.607-10.291 10.291 5.685 0 10.291-4.607 10.291-10.291m-20.592 0c5.684 0 10.29-4.606 10.29-10.291-5.684 0-10.29 4.607-10.29 10.291m41.185 0c-5.684 0-10.291 4.607-10.291 10.291 5.684 0 10.291-4.607 10.291-10.291m-10.302 10.291c0-5.684-4.607-10.291-10.291-10.291 0 5.684 4.607 10.291 10.291 10.291m-10.291-10.291c5.684 0 10.291-4.606 10.291-10.291-5.684 0-10.291 4.607-10.291 10.291m20.593 0c0-5.684-4.607-10.291-10.291-10.291 0 5.685 4.607 10.291 10.291 10.291m20.581 0c-5.684 0-10.29 4.607-10.29 10.291 5.684 0 10.29-4.607 10.29-10.291m-10.29 10.291c0-5.684-4.607-10.291-10.291-10.291 0 5.684 4.606 10.291 10.291 10.291m10.29-10.291c0-5.684-4.606-10.291-10.29-10.291 0 5.685 4.606 10.291 10.29 10.291m-20.581 0c5.684 0 10.291-4.606 10.291-10.291-5.685 0-10.291 4.607-10.291 10.291m41.174 0c0-5.684-4.607-10.291-10.291-10.291 0 5.685 4.607 10.291 10.291 10.291m-20.593 0c5.684 0 10.291-4.606 10.291-10.291-5.684 0-10.291 4.607-10.291 10.291m20.593 0c-5.684 0-10.291 4.607-10.291 10.291 5.684 0 10.291-4.607 10.291-10.291m-10.291 10.291c0-5.684-4.607-10.291-10.291-10.291 0 5.684 4.607 10.291 10.291 10.291m20.582 0c0-5.684-4.607-10.291-10.291-10.291 0 5.684 4.606 10.291 10.291 10.291m10.301-10.291c-5.684 0-10.29 4.607-10.29 10.291 5.684 0 10.29-4.607 10.29-10.291m0 0c0-5.684-4.606-10.291-10.29-10.291 0 5.685 4.606 10.291 10.29 10.291m-20.592 0c5.684 0 10.291-4.606 10.291-10.291-5.685 0-10.291 4.607-10.291 10.291m41.185 0c0-5.684-4.607-10.291-10.291-10.291 0 5.685 4.607 10.291 10.291 10.291m-20.593 0c5.685 0 10.291-4.606 10.291-10.291-5.684 0-10.291 4.607-10.291 10.291m10.291 10.291c0-5.684-4.606-10.291-10.291-10.291 0 5.684 4.607 10.291 10.291 10.291m10.302-10.291c-5.684 0-10.291 4.607-10.291 10.291 5.684 0 10.291-4.607 10.291-10.291m20.593 0c-5.685 0-10.291 4.607-10.291 10.291 5.684 0 10.291-4.607 10.291-10.291m-10.302 10.291c0-5.684-4.607-10.291-10.291-10.291 0 5.684 4.607 10.291 10.291 10.291m-10.291-10.291c5.684 0 10.291-4.606 10.291-10.291-5.684 0-10.291 4.607-10.291 10.291"/>
        <path d="M348.084 489.472c0-5.684-4.607-10.291-10.291-10.291 0 5.685 4.606 10.291 10.291 10.291m20.592 0c-5.684 0-10.291 4.607-10.291 10.291 5.684 0 10.291-4.607 10.291-10.291m-10.302 10.291c0-5.684-4.606-10.291-10.291-10.291 0 5.684 4.607 10.291 10.291 10.291m10.302-10.291c0-5.684-4.607-10.291-10.291-10.291 0 5.685 4.607 10.291 10.291 10.291"/>
        <path d="M348.083 489.472c5.685 0 10.291-4.606 10.291-10.291-5.684 0-10.291 4.607-10.291 10.291m20.593 0c5.684 0 10.291-4.606 10.291-10.291-5.684 0-10.291 4.607-10.291 10.291m20.582 0c-5.685 0-10.291 4.607-10.291 10.291 5.684 0 10.291-4.607 10.291-10.291m-10.291 10.291c0-5.684-4.607-10.291-10.291-10.291 0 5.684 4.607 10.291 10.291 10.291m10.291-10.291c0-5.684-4.607-10.291-10.291-10.291 0 5.685 4.606 10.291 10.291 10.291m0 0c5.684 0 10.29-4.606 10.29-10.291-5.684 0-10.29 4.607-10.29 10.291m10.301 10.291c0-5.684-4.606-10.291-10.29-10.291 0 5.684 4.606 10.291 10.29 10.291m-226.496 0c0 5.684 4.607 10.291 10.291 10.291 0-5.684-4.607-10.291-10.291-10.291m0 0c-5.684 0-10.29 4.607-10.29 10.291 5.684 0 10.29-4.607 10.29-10.291m-.011 20.593c0-5.685-4.606-10.291-10.29-10.291 0 5.684 4.606 10.291 10.29 10.291m10.302-10.291c-5.684 0-10.291 4.606-10.291 10.291 5.684 0 10.291-4.607 10.291-10.291m20.593 0c-5.684 0-10.291 4.606-10.291 10.291 5.684 0 10.291-4.607 10.291-10.291m0 0c0-5.684-4.607-10.291-10.291-10.291 0 5.684 4.607 10.291 10.291 10.291m-10.302-10.302c-5.684 0-10.291 4.607-10.291 10.291 5.684 0 10.291-4.607 10.291-10.291m0 20.593c0-5.685-4.607-10.291-10.291-10.291 0 5.684 4.607 10.291 10.291 10.291m20.592 0c0-5.685-4.606-10.291-10.29-10.291 0 5.684 4.606 10.291 10.29 10.291m-10.29-10.291c5.684 0 10.29-4.607 10.29-10.291-5.684 0-10.29 4.607-10.29 10.291m20.592 0c0-5.684-4.606-10.291-10.291-10.291 0 5.684 4.607 10.291 10.291 10.291m0 0c-5.684 0-10.291 4.606-10.291 10.291 5.685 0 10.291-4.607 10.291-10.291m20.593 0c-5.684 0-10.291 4.606-10.291 10.291 5.684 0 10.291-4.607 10.291-10.291m-20.593 0c5.684 0 10.291-4.607 10.291-10.291-5.684 0-10.291 4.607-10.291 10.291m20.593 0c0-5.684-4.607-10.291-10.291-10.291 0 5.684 4.607 10.291 10.291 10.291m-10.302 10.291c0-5.685-4.607-10.291-10.291-10.291 0 5.684 4.607 10.291 10.291 10.291m10.302-10.302c5.684 0 10.291-4.607 10.291-10.291-5.685 0-10.291 4.607-10.291 10.291m10.291 10.302c0-5.685-4.607-10.291-10.291-10.291 0 5.684 4.606 10.291 10.291 10.291m10.29-10.291c-5.684 0-10.29 4.606-10.29 10.291 5.684 0 10.29-4.607 10.29-10.291m0 0c0-5.684-4.606-10.291-10.29-10.291 0 5.684 4.606 10.291 10.29 10.291m20.593 0c0-5.684-4.607-10.291-10.291-10.291 0 5.684 4.607 10.291 10.291 10.291m-20.593 0c5.684 0 10.291-4.607 10.291-10.291-5.684 0-10.291 4.607-10.291 10.291m20.593 0c-5.684 0-10.291 4.606-10.291 10.291 5.684 0 10.291-4.607 10.291-10.291m-10.291 10.291c0-5.685-4.607-10.291-10.291-10.291 0 5.684 4.607 10.291 10.291 10.291m30.883-10.291c0-5.684-4.606-10.291-10.29-10.291 0 5.684 4.606 10.291 10.29 10.291m-20.592 0c5.684 0 10.291-4.607 10.291-10.291-5.685 0-10.291 4.607-10.291 10.291m20.592 0c-5.684 0-10.29 4.606-10.29 10.291 5.684 0 10.29-4.607 10.29-10.291m-10.301 10.291c0-5.685-4.607-10.291-10.291-10.291 0 5.684 4.606 10.291 10.291 10.291m20.592 0c0-5.685-4.606-10.291-10.291-10.291 0 5.684 4.607 10.291 10.291 10.291m10.302-10.291c0-5.684-4.607-10.291-10.291-10.291 0 5.684 4.607 10.291 10.291 10.291m0 0c-5.684 0-10.291 4.606-10.291 10.291 5.684 0 10.291-4.607 10.291-10.291m-20.593-.011c5.685 0 10.291-4.607 10.291-10.291-5.684 0-10.291 4.607-10.291 10.291m30.884 10.302c0-5.685-4.607-10.291-10.291-10.291 0 5.684 4.607 10.291 10.291 10.291m10.302-10.291c0-5.684-4.607-10.291-10.291-10.291 0 5.684 4.606 10.291 10.291 10.291m0 0c-5.685 0-10.291 4.606-10.291 10.291 5.684 0 10.291-4.607 10.291-10.291m-20.593 0c5.684 0 10.291-4.607 10.291-10.291-5.684 0-10.291 4.607-10.291 10.291m41.185 0c0-5.684-4.607-10.291-10.291-10.291 0 5.684 4.607 10.291 10.291 10.291"/>
        <path d="M348.083 510.065c5.685 0 10.291-4.607 10.291-10.291-5.684 0-10.291 4.607-10.291 10.291m20.593 0c-5.684 0-10.291 4.606-10.291 10.291 5.684 0 10.291-4.607 10.291-10.291m-10.302 10.291c0-5.685-4.606-10.291-10.291-10.291 0 5.684 4.607 10.291 10.291 10.291m30.884-10.291c-5.685 0-10.291 4.606-10.291 10.291 5.684 0 10.291-4.607 10.291-10.291m0 0c0-5.684-4.607-10.291-10.291-10.291 0 5.684 4.606 10.291 10.291 10.291m-10.291 10.291c0-5.685-4.607-10.291-10.291-10.291 0 5.684 4.607 10.291 10.291 10.291m-10.291-10.291c5.684 0 10.291-4.607 10.291-10.291-5.684 0-10.291 4.607-10.291 10.291m30.883 10.291c0-5.685-4.606-10.291-10.29-10.291 0 5.684 4.606 10.291 10.29 10.291m-10.301-10.291c5.684 0 10.29-4.607 10.29-10.291-5.684 0-10.29 4.607-10.29 10.291m-216.195 10.291c-5.684 0-10.29 4.606-10.29 10.29 5.684 0 10.29-4.606 10.29-10.29m0 0c0 5.684 4.607 10.29 10.291 10.29 0-5.684-4.607-10.29-10.291-10.29m20.593 0c0 5.684 4.607 10.29 10.291 10.29 0-5.684-4.607-10.29-10.291-10.29m-.011 0c-5.684 0-10.291 4.606-10.291 10.29 5.684 0 10.291-4.606 10.291-10.29m20.592 0c-5.684 0-10.29 4.606-10.29 10.29 5.684 0 10.29-4.606 10.29-10.29m10.302 10.301c0-5.684-4.606-10.29-10.291-10.29 0 5.684 4.607 10.29 10.291 10.29m0 0c5.684 0 10.291-4.606 10.291-10.29-5.684 0-10.291 4.606-10.291 10.29m20.593 0c0-5.684-4.607-10.29-10.291-10.29 0 5.684 4.607 10.29 10.291 10.29m0-.011c5.684 0 10.291-4.606 10.291-10.29-5.685 0-10.291 4.606-10.291 10.29m20.581.011c0-5.684-4.606-10.29-10.29-10.29 0 5.684 4.606 10.29 10.29 10.29m0 0c5.684 0 10.291-4.606 10.291-10.29-5.684 0-10.291 4.606-10.291 10.29m20.593 0c0-5.684-4.607-10.29-10.291-10.29 0 5.684 4.607 10.29 10.291 10.29m0-.011c5.684 0 10.291-4.606 10.291-10.29-5.685 0-10.291 4.606-10.291 10.29m20.592.011c0-5.684-4.606-10.29-10.29-10.29 0 5.684 4.606 10.29 10.29 10.29m0-.011c5.685 0 10.291-4.606 10.291-10.29-5.684 0-10.291 4.606-10.291 10.29m20.593.011c0-5.684-4.607-10.29-10.291-10.29 0 5.684 4.607 10.29 10.291 10.29m20.593 0c0-5.684-4.607-10.29-10.291-10.29 0 5.684 4.606 10.29 10.291 10.29m-20.593 0c5.684 0 10.291-4.606 10.291-10.29-5.684 0-10.291 4.606-10.291 10.29m41.185 0c0-5.684-4.607-10.29-10.291-10.29 0 5.684 4.607 10.29 10.291 10.29"/>
        <path d="M348.083 530.657c5.685 0 10.291-4.606 10.291-10.29-5.684 0-10.291 4.606-10.291 10.29m41.175 0c0-5.684-4.607-10.29-10.291-10.29 0 5.684 4.606 10.29 10.291 10.29m-20.582-.011c5.684 0 10.291-4.606 10.291-10.29-5.684 0-10.291 4.606-10.291 10.29m20.582 0c5.684 0 10.29-4.606 10.29-10.29-5.684 0-10.29 4.606-10.29 10.29"/>
      </g>
      <path fill="#00B250" d="M-57.675 821.27s24.533-3.03 24.833-12.72-17.565-16.06-58.455-19.39-31.141-24.54 17.566-36.17 157.248-10.98 222.371-11.73 147.881-1.8 179.533-3.38c31.652-1.57 22.214-28.32 4.719-28.71-17.496-.39-14.747-5.31.589-9.83s62.964.55 106.902-3.04c43.949-3.59 59.365-22.4 51.547-27.26s-21.125-1.27-21.125-1.27c27.883-10.78 37.18-24.09 12.887-31.49-24.294-7.4-62.384-7.54-98.804-10.09-36.431-2.56-63.483-11.51-61.134-19.39 2.339-7.88 41.749-13 41.969-21.52.21-8.52-20.235-7.67-44.098-4.69-23.854 2.98-29.823-4.05-19.815-13s38.34-12.15 63.263-13c24.924-.85 54.106-14 30.772-25.46-23.334-11.47-124.457-7.37-214.523-12.29-90.067-4.91-117.19-13.48-95.305-31.27 21.884-17.8 109.171-18.52 129.126-19.24s12.506-9.62 12.506-9.62c22.844-5.05 43.279-24.53 10.578-28.14s-89.687 2.65-89.687 2.65 50.477 2.38 61.914 8.31c11.437 5.92-6.328 15.32-44.318 18.18s-152.78 2.12-177.324 36.19c0 0-26.003.73-41.389 9.89S-35.73 522.11 2 517.71c0 0 53.846 10.63 127.836 10.63s122.708-1.47 143.952 8.43c21.245 9.89 11.717 20.88-20.514 27.85-32.232 6.96-27.023 20.9-7.558 20.11 19.454-.79 24.713 1.32 14.986 6.05s-4.209 10.52 20.244 10.78c24.454.26 17.616 6.05 11.047 8.94-6.578 2.89-19.454 14.2 21.825 18.15 41.289 3.95 124.127 10.51 139.113 23.07s-8.508 28.37-79.009 25.13-147.071-12.56-172.195-2.03c-25.123 10.54-21.474 38.09 38.89 32.83 60.364-5.27 64.823 21.07-5.669 17.83-70.501-3.24-240.056-5.24-302.97-.14-62.923 5.1-144.971 31.89-153.049 62.51s87.177 12.46 119.558 12.46 32.092 11.97 17.505 14.3-27.712 10.21-20.424 17.8c7.298 7.59 53.686 6.71 97.444 4.96s74.01-3.99 88.997-2.63 9.447 13.05 47.897 11.88 92.096-4.52 131.755-3.9c39.66.62 54.116 1.23 40.59 8.61-13.527 7.38-13.217 18.45 6.148 17.84 19.375-.62 35.671 3.69 35.671 3.69s-17.836-9.23-29.822-9.84c-11.987-.62 4.918-4.92 15.066-12.92s-6.459-18.15-47.348-21.22c-40.889-3.08-140.413-4-153.699-4s-9.098-16.79-46.858-11.19c-37.77 5.6-120.108 8.87-139.083 7.58Z"/>
      <path stroke="#EBFEEB" stroke-miterlimit="10" stroke-width=".71" d="M87.505 350.94s-.02-.01-.05-.01m10.31-6.94c-1.34-.32-2.7-.6-4.07-.85"/>
      <path fill="#00B250" stroke="#89EF95" stroke-miterlimit="10" stroke-width=".71" d="M540.165 161.78s-26.51 5.23-62.94 5.23-60.4-.72-70.86 4.15-5.77 10.28 10.1 13.7c15.86 3.43 13.3 10.29 3.72 9.9s-12.17.65-7.38 2.98 2.07 5.18-9.97 5.31-8.67 2.97-5.44 4.4c3.24 1.42 9.58 6.99-10.74 8.93s-61.11 5.17-68.49 11.35c-2.8 2.35-2.86 4.93.03 7.14 16.73 11.6 49.1 49.66-2.51 54.03-51.62 4.37-204.76-3.84-224.83 24.5-14.89 21.03-3.87 27.69 2.8 29.73.01.01.03.01.04.01 2.3.7 4.07.85 4.07.85 11.18 2.65 20.97 7.97 25.67 17.86 14.84 31.22 5.11 39.15 6.65 53.22 1.53 14.08 43.76 19.45 59.88 18.43 24.62-1.4 52.28-3.67 60.12 4.17 7.85 7.85.42 18.38-22.91 24.57 0 0 8.05 10.11-23.95 9.91-32.27-.21-66.33 1.19-97.77 8.92-9.78 2.4-18.71 5.61-24.67 14.33-2.05 3.01-3.62 6.8-2.41 10.24 3.06 8.7 18.89 8.58 26.22 9.28 11.01 1.06 22.08 1.21 33.13 1.67 30.78 1.27 61.62 1.27 92.42 1.16 108.2-.41 153 3.05 163.39 9.47 10.39 6.41 8.29 23.76-41.17 27.48-49.47 3.72-78.93 15.47-127.09 12.94 0 0 32.47-7.62 10.48-19.46s-74.15-12.97-115.59-13.81c-41.45-.85-91.35 6.48-90.79-10.43.57-16.92-6.48-14.1-19.17-17.48-12.68-3.39-24.81-15.23 3.67-25.66 28.47-10.43 89.65-17.62 115.59-16.84 25.94.77 63.08-4.97 63.08-4.97 8.69-1.02 19.69-4.6 19.69-10.74s-13.04-8.18-29.67-8.95c-16.62-.77-60.36 7.42-71.87-14.84-11.51-22.25 12.45-40.49 0-59.78-4.17-6.46-13.12-10.81-23.19-13.73h-.05c-.03-.01-.07-.02-.14-.04-1.24-.36-2.5-.7-3.77-1.02-.04 0-.08-.02-.12-.03-4.87-1.4-13.15-4.09-19.67-7.74-4.39-2.45-7.99-5.35-9.2-8.58-3.94-10.5-8.75-36.75 24.93-47.24 33.68-10.5 122.04-7.44 167.52-9.19 9.13-.35 18.26-.79 27.38-1.37 5.58-.36 11.16-.77 16.74-1.29 5.15-.48 11.04-.39 15.47-3.37 2.07-1.39 3.72-3.57 3.99-6.05.3-2.77-1.09-6.19-2.4-8.58-1.5-2.73-3.04-5.43-4.58-8.13-1.73-3.03-3.48-6.05-5.26-9.06-.59-1.29-.36-2.38.63-3 3.71-2.3 9.91-.75 10.37-.63-13.72-5.3-30.23-15.1-17.63-25.55 9.62-7.99 24.69-9.91 48.64-4.97 24.2 4.98 26.16 2.47 22.78-1.19-2.75-2.97-21.13-.95-20.66-10.59.2-4.19 28.6-2.06 40.35-.59 11.74 1.46 14.68-2 9.75-6.4-4.93-4.41-18.88-5.98-31.15-6.4s-26.63-6.89-15.14-12.53c11.48-5.64 61.26-3.63 105.6-6.05 44.34-2.41 57.69-6.63 46.92-15.39s-53.74-9.11-63.56-9.47c-9.83-.35-6.16-4.73-6.16-4.73-11.25-2.49-21.31-12.08-5.21-13.85 16.1-1.78 44.16 1.3 44.16 1.3s-24.85 1.17-30.48 4.09c-5.64 2.91 3.11 7.54 21.81 8.95 18.7 1.4 75.22 1.04 87.3 17.81 0 0 12.8.36 20.37 4.87 7.58 4.51-8.29 9.01-26.86 6.85z"/>
      <path fill="#00B250" stroke="#89EF95" stroke-miterlimit="10" stroke-width=".71" d="M87.315 350.89c-.47-.11-1.84-.46-3.77-1.02 1.27.32 2.53.66 3.77 1.02Z"/>
      <path stroke="#89EF95" stroke-miterlimit="10" stroke-width=".71" d="M163.415 473c-33.41.02-84.77 1.49-99.82 18s-9.17 26.42 15.41 28.62 165.28 6.02 165.28 6.02c30.4 1.09 98.49-2.94 116.23 2.71s36.05 21.23-21.71 27.59"/>
      <path stroke="#89EF95" stroke-miterlimit="10" stroke-width=".71" d="M398.315 533.14c2.02 10.01 1.83 19.95-20.32 24.42s-73.96 6.21-95.29 12.68m78.87-367.19c-7.96-3.07-10.85-4.45-6.86-7.06s24.08 1.1 34.26.96 16.23-4.4 13.48-8.39-16.86-7.86-33.19-8.2"/>
      <path fill="#FFF400" d="M76.117 535.119c.998-1.57-20.625-44.308-57.27-41.38-66.412 5.316-46.835 88.984-148.15 47.317C-189.836 516.163-69.973 569-69.973 569l136.988-20.387 9.102-13.502z"/>
      <mask id="e" width="224" height="76" x="-147" y="493" maskUnits="userSpaceOnUse" style="mask-type:luminance">
        <path fill="#fff" d="M76.117 535.119c.998-1.57-20.625-44.308-57.27-41.38-66.412 5.316-46.835 88.984-148.15 47.317C-189.836 516.163-69.973 569-69.973 569l136.988-20.387 9.102-13.502z"/>
      </mask>
      <g mask="url(#e)">
        <path fill="#FFF400" d="M92.064 478.585H-155.17V582.6H92.064z"/>
        <path fill="#5FCE70" d="M12.861 503.683c0-6.452-5.234-11.686-11.686-11.686 0 6.452 5.234 11.686 11.686 11.686m0 0c-6.452 0-11.686 5.234-11.686 11.687 6.452 0 11.686-5.234 11.686-11.687m11.686 11.687c0-6.453-5.234-11.687-11.686-11.687 0 6.453 5.234 11.687 11.686 11.687m11.695-11.687c0-6.452-5.234-11.686-11.687-11.686 0 6.452 5.234 11.686 11.687 11.686m0 0c-6.453 0-11.687 5.234-11.687 11.687 6.453 0 11.687-5.234 11.687-11.687m-23.381-.008c6.452 0 11.686-5.234 11.686-11.686-6.452 0-11.686 5.234-11.686 11.686m35.067 11.695c0-6.453-5.234-11.687-11.686-11.687 0 6.453 5.233 11.687 11.686 11.687m11.694-11.687c0-6.452-5.234-11.686-11.686-11.686 0 6.452 5.234 11.686 11.686 11.686m0 0c-6.452 0-11.686 5.234-11.686 11.687 6.452 0 11.686-5.234 11.686-11.687m-23.38 0c6.452 0 11.686-5.234 11.686-11.686-6.453 0-11.686 5.234-11.686 11.686m46.761 0c0-6.452-5.234-11.686-11.686-11.686 0 6.452 5.233 11.686 11.686 11.686"/>
        <path fill="#5FCE70" d="M59.622 503.683c6.453 0 11.686-5.234 11.686-11.686-6.452 0-11.686 5.234-11.686 11.686m23.381 0c-6.453 0-11.686 5.234-11.686 11.687 6.452 0 11.686-5.234 11.686-11.687M71.308 515.37c0-6.453-5.234-11.687-11.686-11.687 0 6.453 5.234 11.687 11.686 11.687m-58.447 11.694c0-6.452-5.234-11.686-11.686-11.686 0 6.452 5.234 11.686 11.686 11.686m0 0c-6.452 0-11.686 5.234-11.686 11.686 6.452 0 11.686-5.234 11.686-11.686m0-.008c6.452 0 11.686-5.234 11.686-11.686-6.452 0-11.686 5.233-11.686 11.686m23.381.008c0-6.452-5.234-11.686-11.687-11.686 0 6.452 5.234 11.686 11.687 11.686M24.547 538.75c0-6.452-5.234-11.686-11.686-11.686 0 6.452 5.234 11.686 11.686 11.686m11.695-11.686c-6.453 0-11.687 5.234-11.687 11.686 6.453 0 11.687-5.234 11.687-11.686m23.38 0c0-6.452-5.234-11.686-11.686-11.686 0 6.452 5.234 11.686 11.686 11.686m0 0c-6.452 0-11.686 5.234-11.686 11.686 6.452 0 11.686-5.234 11.686-11.686M47.928 538.75c0-6.452-5.234-11.686-11.686-11.686 0 6.452 5.233 11.686 11.686 11.686m-11.686-11.686c6.452 0 11.686-5.234 11.686-11.686-6.453 0-11.686 5.234-11.686 11.686m35.066 11.686c0-6.452-5.234-11.686-11.686-11.686 0 6.452 5.234 11.686 11.686 11.686m11.695-11.686c0-6.452-5.234-11.686-11.686-11.686 0 6.452 5.233 11.686 11.686 11.686m0 0c-6.453 0-11.686 5.234-11.686 11.686 6.452 0 11.686-5.234 11.686-11.686"/>
        <path fill="#5FCE70" d="M59.622 527.064c6.453 0 11.686-5.234 11.686-11.686-6.452 0-11.686 5.234-11.686 11.686m-46.761 23.38c-6.452 0-11.686 5.234-11.686 11.687 6.452 0 11.686-5.234 11.686-11.687"/>
        <path fill="#5FCE70" d="M12.861 550.445c0-6.453-5.234-11.687-11.686-11.687 0 6.453 5.234 11.687 11.686 11.687m0-.009c6.452 0 11.686-5.234 11.686-11.686-6.452 0-11.686 5.234-11.686 11.686m23.381.008c-6.453 0-11.687 5.234-11.687 11.687 6.453 0 11.687-5.234 11.687-11.687m-11.695 11.687c0-6.453-5.234-11.687-11.686-11.687 0 6.453 5.234 11.687 11.686 11.687"/>
        <path fill="#5FCE70" d="M36.242 550.445c0-6.453-5.234-11.687-11.687-11.687 0 6.453 5.234 11.687 11.687 11.687m23.38 0c0-6.453-5.234-11.687-11.686-11.687 0 6.453 5.234 11.687 11.686 11.687m-23.38 0c6.452 0 11.686-5.234 11.686-11.687-6.453 0-11.686 5.234-11.686 11.687"/>
        <path fill="#5FCE70" d="M59.622 550.444c-6.452 0-11.686 5.234-11.686 11.687 6.452 0 11.686-5.234 11.686-11.687m-11.694 11.687c0-6.453-5.234-11.687-11.686-11.687 0 6.453 5.233 11.687 11.686 11.687m35.075-11.686c0-6.453-5.234-11.687-11.686-11.687 0 6.453 5.233 11.687 11.686 11.687m-11.695 11.686c0-6.453-5.234-11.687-11.686-11.687 0 6.453 5.234 11.687 11.686 11.687"/>
        <path fill="#5FCE70" d="M83.003 550.444c-6.453 0-11.686 5.234-11.686 11.687 6.452 0 11.686-5.234 11.686-11.687m-23.381-.008c6.453 0 11.686-5.234 11.686-11.686-6.452 0-11.686 5.234-11.686 11.686"/>
      </g>
    </g>
    <g stroke="#254FEC" stroke-miterlimit="10" clip-path="url(#f)">
      <path fill="#1232C0" d="M11.312 576.409c-6.563.358-13.134-3.652-15.776-9.67-2.71-6.175-1.06-13.954 3.927-18.504 4.675-4.254 11.98-5.062 18.008-2.06.14-5.472 3.158-9.935 8.979-13.274 2.05-1.169 3.931-1.79 5.74-1.889l.18-.01.136.122 16.005 14.236 1.242 11.809-.191.15-16.055 12.813-.285-.283c-2.078-2.091-4.435-2.521-6.05-2.503-2.192.03-4.439.891-5.782 2.221a8.36 8.36 0 0 1-1.93 3.386c-1.8 1.923-4.526 3.139-7.662 3.419l-.497.028.01.009Z"/>
      <path fill="#1232C0" d="m122.71 553.658-8.979 2.484c2.958 6.511 7.239 18.992-.532 23.884-10.732 6.748-27.266-2.033-27.266-2.033s-11.044 10.166-33.83 6.911c-16.04-2.286-23.43-16.921-16.006-27.808 1.32-1.936 2.762-3.471 4.251-4.699-12.542-11.094-10.992-33.128 6.153-40.774 16.053-7.179 38.42-1.358 43.897 15.147.919 2.762 2.208 5.733 2.728 9.424 0 0 23.413-14.5 38.741 14.94z"/>
      <path stroke-width=".76" d="M124.974 558.421s-9.211-27.55-38.364-14.99c3.785-28.06-28.298-33.929-39.557-21.497-3.762 4.154-2.994 11.293.728 15.158 4.978 5.154 21.326 5.578 23.442-2.984.881-3.578-1.679-6.64-4.86-7.932-4.375-1.766-9.143-.13-12.187 3.298"/>
      <path d="M85.933 577.993c5.785-5.462-.516-16.756-10.007-16.896-9.492-.141-15.057 6.785-11.59 13.865"/>
      <path stroke-width=".9" d="M12.416 568.68c-1.95-1.938-.922-5.744 1.634-6.781s5.696.577 6.753 3.122c1.056 2.545.216 5.623-1.659 7.63s-4.63 3.035-7.37 3.274c-6.52.575-13.199-3.379-15.829-9.368s-1.02-13.587 3.816-17.989c4.835-4.413 12.421-4.827 18.149-1.659-.145-6.683 4.07-10.932 8.76-13.621 1.722-.982 3.567-1.721 5.545-1.829"/>
      <path stroke-width=".9" d="M20.989 569.349c2.453-2.567 8.429-3.98 12.565.182"/>
      <path stroke-width=".83" d="M32.186 536.228c-3.706.431-6.973 3.242-8.187 6.769s-.462 7.614 1.727 10.636 5.707 4.984 9.407 5.53"/>
    </g>
    <g stroke="#254FEC" stroke-miterlimit="10" clip-path="url(#g)">
      <path fill="#1232C0" d="M7.312 576.409c-6.563.358-13.134-3.652-15.776-9.67-2.71-6.175-1.06-13.954 3.927-18.504 4.675-4.254 11.98-5.062 18.008-2.06.14-5.472 3.158-9.935 8.979-13.274 2.05-1.169 3.931-1.79 5.74-1.889l.18-.01.136.122 16.005 14.236 1.242 11.809-.191.15-16.055 12.813-.285-.283c-2.078-2.091-4.435-2.521-6.05-2.503-2.192.03-4.439.891-5.782 2.221a8.36 8.36 0 0 1-1.93 3.386c-1.8 1.923-4.526 3.139-7.662 3.419l-.497.028.01.009Z"/>
      <path fill="#1232C0" d="m118.71 553.658-8.979 2.484c2.958 6.511 7.239 18.992-.532 23.884-10.732 6.748-27.266-2.033-27.266-2.033s-11.044 10.166-33.83 6.911c-16.04-2.286-23.43-16.921-16.006-27.808 1.32-1.936 2.762-3.471 4.251-4.699-12.542-11.094-10.992-33.128 6.153-40.774 16.053-7.179 38.42-1.358 43.897 15.147.919 2.762 2.208 5.733 2.728 9.424 0 0 23.413-14.5 38.741 14.94z"/>
      <path stroke-width=".76" d="M120.974 558.421s-9.211-27.55-38.364-14.99c3.785-28.06-28.298-33.929-39.557-21.497-3.762 4.154-2.994 11.293.728 15.158 4.978 5.154 21.326 5.578 23.442-2.984.881-3.578-1.679-6.64-4.86-7.932-4.375-1.766-9.143-.13-12.187 3.298"/>
      <path d="M81.933 577.993c5.785-5.462-.516-16.756-10.007-16.896-9.492-.141-15.057 6.785-11.59 13.865"/>
      <path stroke-width=".9" d="M8.416 568.68c-1.95-1.938-.922-5.744 1.634-6.781s5.696.577 6.753 3.122c1.056 2.545.216 5.623-1.659 7.63s-4.63 3.035-7.37 3.274c-6.52.575-13.199-3.379-15.829-9.368s-1.02-13.587 3.816-17.989c4.835-4.413 12.421-4.827 18.149-1.659-.145-6.683 4.07-10.932 8.76-13.621 1.722-.982 3.567-1.721 5.545-1.829"/>
      <path stroke-width=".9" d="M16.989 569.349c2.453-2.567 8.429-3.98 12.565.182"/>
      <path stroke-width=".83" d="M28.186 536.228c-3.706.431-6.973 3.242-8.187 6.769s-.462 7.614 1.727 10.636 5.707 4.984 9.407 5.53"/>
    </g>
    <g clip-path="url(#h)">
      <g stroke-miterlimit="10" clip-path="url(#i)">
        <path stroke="#EBFEEB" stroke-width=".61" d="M301.405 636.3h-.04m8.82-5.95c-1.15-.27-2.31-.51-3.48-.73"/>
        <path fill="#2520C6" stroke="#304EE2" stroke-width=".74" d="M688.855 474.39s-22.69 4.48-53.87 4.48-51.7-.62-60.65 3.55-4.94 8.8 8.65 11.73c13.58 2.94 11.38 8.81 3.18 8.47-8.2-.33-10.42.56-6.32 2.55s1.77 4.43-8.53 4.54c-10.31.11-7.42 2.54-4.66 3.77 2.77 1.22 8.2 5.98-9.19 7.64s-52.31 4.43-58.62 9.72c-2.4 2.01-2.45 4.22.03 6.11 14.32 9.93 42.03 42.51-2.15 46.25s-175.26-3.29-192.44 20.97c-12.75 18-3.31 23.7 2.4 25.45h.03c1.97.6 3.48.73 3.48.73 9.57 2.27 17.95 6.82 21.97 15.29 12.7 26.72 4.37 33.51 5.69 45.55 1.31 12.05 37.46 16.65 51.25 15.77 21.07-1.2 44.75-3.14 51.46 3.57 6.72 6.72.36 15.73-19.61 21.03 0 0 6.89 8.65-20.5 8.48-27.62-.18-56.77 1.02-83.68 7.63-8.37 2.06-16.02 4.8-21.11 12.27-1.76 2.57-3.1 5.82-2.06 8.76 2.62 7.45 16.17 7.34 22.44 7.94 9.43.91 18.9 1.03 28.36 1.43 26.35 1.09 52.74 1.09 79.11.99 92.61-.35 130.96 2.61 139.85 8.11 8.89 5.49 7.1 20.34-35.24 23.52s-67.56 13.24-108.78 11.08c0 0 27.79-6.52 8.97-16.66-18.82-10.13-63.47-11.1-98.94-11.82-35.48-.73-78.19 5.55-77.71-8.93.49-14.48-5.55-12.07-16.41-14.96-10.85-2.9-21.24-13.04 3.14-21.96 24.37-8.93 76.74-15.08 98.94-14.41 22.2.66 53.99-4.25 53.99-4.25 7.44-.87 16.85-3.94 16.85-9.19s-11.16-7-25.4-7.66c-14.23-.66-51.67 6.35-61.52-12.7-9.85-19.04 10.66-34.66 0-51.17-3.57-5.53-11.23-9.25-19.85-11.75h-.04c-.03 0-.06-.02-.12-.03-1.06-.31-2.14-.6-3.23-.87-.03 0-.07-.02-.1-.03-4.17-1.2-11.26-3.5-16.84-6.62-3.76-2.1-6.84-4.58-7.87-7.34-3.37-8.99-7.49-31.46 21.34-40.43 28.83-8.99 104.46-6.37 143.39-7.87 7.81-.3 15.63-.67 23.43-1.17 4.78-.31 9.56-.66 14.33-1.1 4.41-.41 9.45-.33 13.24-2.89 1.77-1.19 3.19-3.05 3.42-5.17.26-2.37-.93-5.3-2.06-7.34-1.28-2.33-2.6-4.65-3.92-6.96a600 600 0 0 0-4.5-7.75c-.5-1.1-.31-2.04.54-2.57 3.18-1.97 8.48-.64 8.88-.54-11.74-4.54-25.88-12.92-15.09-21.87 8.23-6.84 21.13-8.48 41.63-4.25 20.71 4.26 22.39 2.11 19.5-1.02-2.35-2.54-18.09-.81-17.68-9.06.17-3.59 24.48-1.76 34.54-.51 10.05 1.25 12.57-1.71 8.35-5.48s-16.16-5.12-26.66-5.48-22.79-5.9-12.96-10.73 52.44-3.11 90.39-5.18c37.95-2.06 49.38-5.67 40.16-13.17s-46-7.8-54.4-8.11c-8.41-.3-5.27-4.05-5.27-4.05-9.63-2.13-18.24-10.34-4.46-11.85 13.78-1.52 37.8 1.11 37.8 1.11s-21.27 1-26.09 3.5c-4.83 2.49 2.66 6.45 18.67 7.66 16.01 1.2 64.38.89 74.72 15.24 0 0 10.96.31 17.44 4.17 6.49 3.86-7.1 7.71-22.99 5.86z"/>
        <path fill="#2520C6" stroke="#304EE2" stroke-width=".74" d="M301.245 636.26c-.4-.09-1.57-.39-3.23-.87 1.09.27 2.17.57 3.23.87Z"/>
        <path stroke="#304EE2" stroke-width=".61" d="M366.375 740.78c-28.6.02-72.56 1.28-85.44 15.41s-7.85 22.61 13.19 24.5c21.04 1.88 141.47 5.15 141.47 5.15 26.02.93 84.3-2.52 99.49 2.32s30.86 18.17-18.58 23.62"/>
      </g>
      <mask id="j" width="392" height="524" x="4" y="669" maskUnits="userSpaceOnUse" style="mask-type:luminance">
        <path fill="#fff" d="M395.38 669H4.275v523.26H395.38z"/>
      </mask>
      <g mask="url(#j)">
        <path fill="#424D6E" d="M93.612 764.145a1.405 1.405 0 0 1-.886 1.772 1.39 1.39 0 0 1-1.772-.876 1.405 1.405 0 0 1 .886-1.772 1.387 1.387 0 0 1 1.772.876"/>
        <path fill="#1A31B8" stroke="#304EE2" stroke-miterlimit="10" stroke-width=".86" d="M-22.67 900.921c-5.676.312-11.352-3.161-13.637-8.366-2.345-5.347-.916-12.072 3.392-16.009 4.046-3.675 10.357-4.38 15.57-1.782.121-4.732 2.728-8.598 7.76-11.488 1.772-1.007 3.402-1.55 4.962-1.631h.151l.121.101 13.84 12.313 1.076 10.219-.16.131-13.88 11.085-.242-.241c-1.801-1.812-3.834-2.185-5.233-2.165-1.893.03-3.835.775-5.003 1.923a7.16 7.16 0 0 1-1.67 2.93c-1.56 1.661-3.916 2.718-6.623 2.96-.151 0-.282.02-.433.02h.01Z"/>
        <path fill="#1A31B8" stroke="#304EE2" stroke-miterlimit="10" stroke-width=".86" d="m73.663 881.248-7.76 2.144c2.556 5.629 6.26 16.432-.463 20.66-9.28 5.84-23.582-1.761-23.582-1.761s-9.552 8.789-29.25 5.98c-13.869-1.973-20.26-14.639-13.839-24.053a19.5 19.5 0 0 1 3.674-4.067c-10.85-9.596-9.501-28.655 5.324-35.269 13.88-6.213 33.225-1.178 37.966 13.098.795 2.386 1.912 4.964 2.355 8.156 0 0 20.25-12.545 33.506 12.927l-7.921 2.185z"/>
        <path stroke="#304EE2" stroke-miterlimit="10" stroke-width=".65" d="M75.615 885.366s-7.96-23.832-33.174-12.968c3.271-24.274-24.468-29.349-34.21-18.596-3.252 3.594-2.587 9.766.623 13.109 4.308 4.46 18.44 4.822 20.271-2.578.765-3.091-1.449-5.739-4.207-6.866-3.784-1.531-7.9-.111-10.538 2.849"/>
        <path stroke="#304EE2" stroke-miterlimit="10" stroke-width=".86" d="M41.858 902.301c5.002-4.722-.443-14.499-8.656-14.62s-13.024 5.87-10.025 11.992"/>
      </g>
      <path fill="#00B250" d="M4 1149h391v43H4z"/>
    </g>
  </g>
  <defs>
    <clipPath id="b">
      <path fill="#fff" d="M-168 233.653h296.19v110.09H-168z"/>
    </clipPath>
    <clipPath id="c">
      <path fill="#fff" d="M-221.905 152h720v424h-720z"/>
    </clipPath>
    <clipPath id="f">
      <path fill="#fff" d="m-8.934 511.79 138.953-7.579 4.245 77.834-138.953 7.579z"/>
    </clipPath>
    <clipPath id="g">
      <path fill="#fff" d="m-12.933 511.79 138.952-7.579 4.245 77.834-138.952 7.579z"/>
    </clipPath>
    <clipPath id="h">
      <path fill="#fff" d="M-523.905 546h1329v737h-1329z"/>
    </clipPath>
    <clipPath id="i">
      <path fill="#fff" d="M223.095 436h490.78v388.3h-490.78z"/>
    </clipPath>
  </defs>
</svg>
