<svg xmlns="http://www.w3.org/2000/svg" width="390" height="547" fill="none" viewBox="0 0 390 547" xmlns:xlink="http://www.w3.org/1999/xlink">
  <mask id="a" width="390" height="547" x="0" y="0" maskUnits="userSpaceOnUse" style="mask-type:alpha">
    <path fill="#D9D9D9" d="M0 0h390v547H0z"/>
  </mask>
  <g mask="url(#a)">
    <path fill="#B6FC4F" d="m401.766 3 7.835 35.874-2.019 83.228a91 91 0 0 1-3.287 9.684c-12.984 31.933-58.45 31.972-70.774-.223-9.729-25.412 1.15-59.475 27.111-66.552 4.346-1.183 9.044-2.927 14.788-3.41 0 0-14.382-49.257 26.346-58.594z"/>
    <path stroke="#5FCE70" stroke-miterlimit="10" stroke-width="1.8" d="M412.443 14.253S369.1 26.165 386.051 72.26c-36.305-3.503-54.804 40.866-36.541 59.305 6.104 6.162 17.199 5.587 23.485.144 8.384-7.253 10.416-32.475-2.627-36.468-5.456-1.673-10.396 2.026-12.657 6.848-3.097 6.606-.967 14.108 4.058 19.1"/>
    <path fill="#FCF351" d="M-6.432 536.243c2.501 1.65 71.922-31.994 68.217-91.088-6.732-107.099-142.011-77.874-72.12-239.887 41.755-96.797-46.636 94.777-46.636 94.777l29.06 221.168 21.493 15.03z"/>
    <mask id="b" width="119" height="360" x="-57" y="177" maskUnits="userSpaceOnUse" style="mask-type:luminance">
      <path fill="#fff" d="M-6.435 536.243c2.5 1.65 71.921-31.994 68.216-91.089-6.732-107.098-142.01-77.874-72.12-239.886 41.755-96.798-46.636 94.777-46.636 94.777l29.06 221.168 21.493 15.03z"/>
    </mask>
    <g mask="url(#b)">
      <path fill="#FCF351" d="m84.168 563.466 6.809-398.149-167.507-2.864-6.808 398.149z"/>
      <path fill="#5FCE70" d="M68.938 190.826c-10.391-.177-18.964 8.107-19.142 18.498 10.391.178 18.964-8.107 19.142-18.498"/>
      <path fill="#5FCE70" d="M68.936 190.826c.178-10.391-8.107-18.964-18.498-19.141-.178 10.391 8.107 18.963 18.498 19.141m-37.648-.657c10.391.178 18.964-8.107 19.142-18.498-10.391-.177-18.964 8.107-19.142 18.498M49.8 209.324c.177-10.391-8.107-18.964-18.498-19.141-.178 10.39 8.106 18.963 18.497 19.141Zm-.641 37.653c.177-10.391-8.107-18.963-18.498-19.141-.178 10.391 8.107 18.964 18.498 19.141"/>
      <path fill="#5FCE70" d="M49.156 246.975c10.39.178 18.963-8.107 19.14-18.498-10.39-.177-18.963 8.107-19.14 18.498"/>
      <path fill="#5FCE70" d="M68.3 228.479c.177-10.391-8.107-18.964-18.498-19.141-.178 10.39 8.106 18.963 18.497 19.141Zm-37.664-.658c10.391.178 18.964-8.107 19.141-18.498-10.39-.177-18.963 8.107-19.141 18.498m-.633 37.653c10.391.177 18.964-8.107 19.142-18.498-10.391-.178-18.964 8.107-19.142 18.498m19.154-18.499c-.178 10.391 8.107 18.963 18.498 19.141.177-10.391-8.107-18.964-18.498-19.141m-.65 37.656c10.391.177 18.964-8.107 19.142-18.498-10.392-.178-18.964 8.107-19.142 18.498"/>
      <path fill="#5FCE70" d="M48.51 284.627c.178-10.391-8.106-18.964-18.497-19.142-.178 10.391 8.106 18.964 18.497 19.142m-.66 37.654c.178-10.391-8.107-18.964-18.498-19.142-.177 10.391 8.107 18.964 18.498 19.142m.663-37.651c-.178 10.391 8.106 18.963 18.497 19.141.178-10.391-8.107-18.964-18.498-19.141Zm-.65 37.651c10.39.178 18.963-8.107 19.141-18.498-10.39-.177-18.964 8.107-19.141 18.498m-18.504-19.152c10.39.177 18.963-8.107 19.141-18.498-10.39-.178-18.964 8.107-19.141 18.498"/>
      <path fill="#5FCE70" d="M47.876 322.281c-.178 10.391 8.107 18.964 18.497 19.142.178-10.391-8.106-18.964-18.497-19.142m-19.158 18.498c10.391.178 18.964-8.106 19.141-18.497-10.39-.178-18.963 8.107-19.141 18.497m18.511 19.155c.178-10.391-8.107-18.964-18.498-19.141-.177 10.391 8.107 18.963 18.498 19.141"/>
      <path fill="#5FCE70" d="M47.226 359.933c10.39.178 18.964-8.107 19.141-18.498-10.39-.178-18.964 8.107-19.141 18.498m-.645 37.641c10.391.178 18.964-8.107 19.142-18.498-10.391-.177-18.964 8.107-19.142 18.498"/>
      <path fill="#5FCE70" d="M47.216 359.935c-.178 10.391 8.106 18.964 18.497 19.142.178-10.391-8.106-18.964-18.497-19.142m-.647 37.637c.177-10.39-8.107-18.963-18.498-19.141-.178 10.391 8.107 18.964 18.498 19.141"/>
      <path fill="#5FCE70" d="M28.073 378.433c10.391.178 18.964-8.107 19.142-18.498-10.391-.177-18.964 8.107-19.142 18.498m17.86 56.793c10.39.177 18.964-8.107 19.141-18.498-10.39-.178-18.963 8.107-19.141 18.498m.642-37.651c-.178 10.391 8.107 18.963 18.498 19.141.178-10.391-8.107-18.964-18.498-19.141m-.659 37.649c.178-10.391-8.106-18.963-18.497-19.141-.178 10.391 8.107 18.964 18.497 19.141"/>
      <path fill="#5FCE70" d="M27.417 416.083c10.391.178 18.964-8.107 19.142-18.498-10.391-.177-18.964 8.107-19.142 18.498m-.644 37.654c10.39.178 18.963-8.107 19.141-18.498-10.39-.177-18.964 8.107-19.141 18.498m18.515 19.143c10.391.177 18.964-8.107 19.142-18.498-10.391-.178-18.964 8.107-19.142 18.498"/>
      <path fill="#5FCE70" d="M45.295 472.878c.178-10.391-8.106-18.964-18.497-19.141-.178 10.391 8.107 18.963 18.497 19.141m.631-37.653c-.177 10.391 8.107 18.964 18.498 19.141.178-10.391-8.107-18.963-18.498-19.141"/>
      <path fill="#5FCE70" d="M26.128 491.375c10.391.178 18.964-8.107 19.142-18.498-10.391-.178-18.964 8.107-19.142 18.498m18.512 19.156c10.39.177 18.964-8.107 19.141-18.498-10.39-.178-18.963 8.107-19.141 18.498m-.005-.001c.178-10.391-8.106-18.964-18.497-19.142-.178 10.391 8.106 18.964 18.497 19.142m.651-37.652c-.178 10.391 8.107 18.963 18.498 19.141.177-10.391-8.107-18.964-18.498-19.141m-1.283 75.304c10.391.178 18.964-8.107 19.142-18.497-10.391-.178-18.964 8.106-19.142 18.497"/>
      <path fill="#5FCE70" d="M44.638 510.53c-.178 10.391 8.106 18.964 18.497 19.142.178-10.391-8.107-18.964-18.497-19.142m-.648 37.653c.178-10.391-8.106-18.964-18.497-19.142-.178 10.391 8.107 18.964 18.498 19.142ZM25.488 529.03c10.39.177 18.963-8.107 19.141-18.498-10.391-.178-18.964 8.107-19.141 18.498M12.155 208.681c.178-10.391-8.107-18.964-18.498-19.142-.178 10.391 8.107 18.964 18.498 19.142m19.133-18.499c.177-10.391-8.107-18.963-18.498-19.141-.178 10.391 8.107 18.964 18.498 19.141"/>
      <path fill="#5FCE70" d="M31.293 190.182c-10.39-.177-18.964 8.107-19.141 18.498 10.39.178 18.963-8.107 19.141-18.498m-37.641-.655c10.39.177 18.963-8.107 19.141-18.498-10.39-.178-18.964 8.107-19.141 18.498m36.996 38.309c-10.39-.178-18.963 8.107-19.141 18.498 10.391.177 18.964-8.107 19.142-18.498Zm-19.142 18.498c.178-10.391-8.106-18.964-18.497-19.141-.178 10.391 8.106 18.964 18.497 19.141m19.141-18.5c.178-10.391-8.107-18.964-18.498-19.142-.177 10.391 8.107 18.964 18.498 19.142m-37.659-.658c10.39.177 18.963-8.107 19.141-18.498-10.391-.178-18.964 8.107-19.141 18.498"/>
      <path fill="#5FCE70" d="M29.99 265.473c.179-10.391-8.106-18.964-18.497-19.142-.178 10.391 8.107 18.964 18.498 19.142Zm-19.132 18.511c.178-10.391-8.107-18.964-18.498-19.141-.178 10.391 8.107 18.963 18.498 19.141m.016.002c10.391.177 18.964-8.107 19.142-18.498-10.391-.178-18.964 8.107-19.142 18.498m-18.527-19.154c10.39.177 18.964-8.107 19.141-18.498-10.39-.178-18.963 8.107-19.141 18.498m18.513 19.154c-.178 10.391 8.107 18.964 18.498 19.141.178-10.391-8.107-18.963-18.498-19.141m-.65 37.65c.177-10.391-8.107-18.963-18.498-19.141-.178 10.391 8.107 18.964 18.498 19.141m-18.504-19.153c10.391.178 18.964-8.107 19.142-18.498-10.391-.178-18.964 8.107-19.142 18.498m18.504 19.155c10.39.178 18.964-8.106 19.141-18.497-10.39-.178-18.963 8.106-19.141 18.497m.013.002c-.177 10.391 8.107 18.964 18.498 19.142.178-10.391-8.107-18.964-18.498-19.142m-.658 37.65c.178-10.391-8.107-18.964-18.498-19.142-.178 10.391 8.107 18.964 18.498 19.142m.001 0c10.39.178 18.963-8.107 19.141-18.498-10.39-.178-18.964 8.107-19.141 18.498"/>
      <path fill="#5FCE70" d="M-8.927 340.135c10.391.178 18.964-8.107 19.142-18.498-10.391-.178-18.964 8.107-19.142 18.498M9.571 359.29c-.178 10.391 8.107 18.964 18.498 19.142.178-10.391-8.107-18.964-18.498-19.142"/>
      <path fill="#5FCE70" d="M8.929 396.93c10.39.178 18.964-8.107 19.141-18.498-10.39-.178-18.963 8.107-19.141 18.498m-18.496-19.143c10.39.177 18.964-8.107 19.141-18.498-10.39-.178-18.963 8.107-19.141 18.498M8.92 396.929c.178-10.391-8.106-18.964-18.497-19.142-.178 10.391 8.106 18.964 18.497 19.142m.003.002c-.178 10.391 8.106 18.963 18.497 19.141.178-10.391-8.106-18.964-18.497-19.141m-.627 37.651c10.39.178 18.964-8.107 19.141-18.498-10.39-.178-18.963 8.107-19.141 18.498"/>
      <path fill="#5FCE70" d="M-10.216 415.44c10.391.178 18.964-8.106 19.142-18.497-10.391-.178-18.964 8.106-19.142 18.497m18.488 19.141C8.45 424.19.165 415.618-10.226 415.44c-.177 10.391 8.107 18.964 18.498 19.141m-.01 0c-.177 10.391 8.107 18.964 18.498 19.142.178-10.391-8.107-18.964-18.498-19.142m-.634 37.652c10.391.178 18.964-8.107 19.142-18.498-10.391-.178-18.964 8.107-19.142 18.498"/>
      <path fill="#5FCE70" d="M-10.864 453.078c10.39.178 18.964-8.107 19.141-18.497-10.39-.178-18.963 8.106-19.141 18.497M7.64 472.234c.177-10.391-8.108-18.964-18.499-19.141-.177 10.391 8.107 18.963 18.498 19.141Zm-.645 37.654c10.391.177 18.964-8.107 19.142-18.498-10.391-.178-18.964 8.107-19.142 18.498"/>
      <path fill="#5FCE70" d="M7.002 509.887c.178-10.391-8.106-18.964-18.497-19.141-.178 10.39 8.106 18.963 18.497 19.141m-18.499-19.156c10.391.178 18.964-8.106 19.142-18.497-10.391-.178-18.964 8.106-19.142 18.497"/>
      <path fill="#5FCE70" d="M7.63 472.234c-.178 10.391 8.106 18.964 18.498 19.141.177-10.39-8.107-18.963-18.498-19.141m-19.767 56.151c10.39.178 18.963-8.107 19.141-18.498-10.391-.177-18.964 8.107-19.142 18.498ZM6.35 547.541c10.392.178 18.965-8.107 19.142-18.498-10.39-.178-18.964 8.107-19.141 18.498Z"/>
      <path fill="#5FCE70" d="M6.354 547.541c.178-10.391-8.107-18.964-18.498-19.141-.178 10.391 8.107 18.964 18.498 19.141m.639-37.655c-.178 10.391 8.107 18.963 18.498 19.141.177-10.391-8.107-18.964-18.498-19.141"/>
    </g>
    <g clip-path="url(#c)">
      <path fill="#5ECB75" d="M-211.769 496.26s31.7-3.91 32.09-16.44c.39-12.52-22.7-20.74-75.52-25.04s-40.23-31.7 22.7-46.72c62.92-15.03 203.16-14.19 287.3-15.15 84.14-.97 191.06-2.33 231.95-4.36s28.7-36.57 6.1-37.08-19.05-6.86.76-12.7 81.34.71 138.12-3.93c56.77-4.64 76.7-28.93 66.6-35.21s-27.3-1.64-27.3-1.64c36.03-13.92 48.04-31.12 16.65-40.67s-80.59-9.73-127.65-13.04c-47.06-3.3-82.01-14.86-78.99-25.04 3.03-10.18 53.94-16.79 54.22-27.8s-26.15-9.91-56.97-6.05c-30.82 3.85-38.53-5.23-25.59-16.79s49.54-15.69 81.74-16.79 69.9-18.08 39.75-32.89-160.79-9.52-277.16-15.87c-116.36-6.35-151.4-17.4-123.13-40.39s141.04-23.92 166.82-24.85 16.15-12.43 16.15-12.43c29.51-6.52 55.92-31.69 13.67-36.35S54.661-7.55 54.661-7.55s65.21 3.08 79.99 10.73-8.18 19.79-57.26 23.48-197.39 2.74-229.1 46.75c0 0-33.6.95-53.48 12.78s21.77 23.66 70.51 17.98c0 0 69.57 13.72 165.16 13.72s158.54-1.89 185.98 10.88c27.45 12.78 15.14 26.97-26.5 35.97-41.65 8.99-34.91 27-9.77 25.98s31.94 1.7 19.36 7.81c-12.57 6.12-5.44 13.59 26.16 13.93s22.76 7.81 14.27 11.55-25.14 18.35 28.2 23.44c53.34 5.1 160.37 13.57 179.74 29.8s-10.99 36.64-102.07 32.45-190.01-16.23-222.46-2.62-27.74 49.2 50.25 42.4 83.75 27.22-7.33 23.03-310.14-6.77-391.43-.18-187.3 41.2-197.74 80.74c-10.44 39.55 112.63 16.09 154.47 16.09s41.46 15.45 22.62 18.47c-18.85 3.02-35.81 13.19-26.39 22.99s69.36 8.67 125.9 6.41 95.62-5.16 114.99-3.39c19.36 1.76 12.21 16.85 61.88 15.35 49.67-1.51 118.98-5.83 170.22-5.04s69.91 1.59 52.43 11.12-17.08 23.83 7.94 23.04c25.03-.79 46.08 4.77 46.08 4.77s-23.04-11.92-38.53-12.71 6.36-6.36 19.46-16.68c13.11-10.33-8.34-23.44-61.17-27.41s-181.41-5.16-198.57-5.16-11.75-21.69-60.54-14.46c-48.8 7.23-155.17 11.45-179.7 9.79z"/>
      <path stroke="#67DB70" stroke-linecap="round" stroke-linejoin="round" stroke-width="1.14" d="M140.708 37.8s-100.65-3.24-154.85 8.58-55.83 40.35-35.46 49.31c20.38 8.97 137.06 7.43 174.47 8.66"/>
      <path fill="#67DB70" d="M-134.421 103.35c74.9 13.74 152.89 14.83 228.94 13.88 30.65.2 61.39-.16 91.89 3.5 12.31 1.67 25.01 3.96 35.82 10.45 13.5 7.93 11.97 17.05-1.27 23.98-8.58 4.52-17.91 7.07-27.25 9.32-9.17 2.08-18.83 4.15-26.84 9.23-2.88 1.9-6.29 4.62-6.25 8.36.85 7.16 12.96 8.27 18.73 8.09 4.56.04 26.52-1.66 26.92 3.42-.71 4.58-10.24 5.5-11.87 9.98-.99 4.14 7.38 5.83 10.37 6.53 11.3 2.41 22.81 1.17 34.3 2.61 2.89.49 6.01.81 8.42 2.71 2.11 1.84.51 4.27-1.24 5.61-3.71 3.05-8.73 4.05-12.12 7.51-12.13 12.18 18.33 16.36 25.81 17.4 53.12 5.82 107.27 8.63 159.59 20.03 7.48 1.8 14.95 3.73 22.01 6.88 3.1 1.38 6.12 3.17 8.52 5.61 11.82 12.44-5.22 21.55-16.12 24.83-25.83 7.78-53.22 7.82-79.96 7.3-65.04-2.09-129.94-10.64-195.05-8.85-14.94.98-31.13 1.72-43.8 10.51-16.59 12.04-11.54 26.46 6.45 32.79 14.46 5.01 30.09 5.1 45.23 4.37 6.65-.5 16.35-1.31 22.96-1.36 12-.04 32.63.18 42.1 7.85 5.19 4.72-.49 9.44-5.19 11.32-10.74 4.44-22.53 5.3-34 5.98-13.23.87-32.55-.49-45.99-.91-38.06-1.36-76.85-2.19-114.87-2.72-68.93-.86-137.9-1.22-206.81.82-10.83.3-23.59.88-34.43 1.46-42.01 2.17-83.78 10.04-123.79 22.99-21.73 7.21-43.26 15.76-62.49 28.31-9.4 6.33-18.63 13.68-24.11 23.76-12.9 23.97 17.19 27.43 34.22 28.32 22.95 1.02 45.89-1.12 68.75-3.11 18.42-1.41 39.15-4.36 57.4-3.24 7.66.62 15.63 1.31 22.46 5.25 4.29 2.43 5.54 6.94 1.43 10.14-3.18 2.54-7.15 3.45-10.92 4.07-7.43 1.32-14.89 3.55-21.26 7.65-3.01 2.03-6.06 4.62-6.54 8.38-.21 2.7 1.49 5.23 3.6 6.79 3.98 2.53 8.74 3.35 13.36 4.21 7.52 1.23 15.17 1.77 22.8 2.14 61.28 2.18 122.48-3.64 183.72-4.94 5.76-.05 11.53-.05 17.28.35 2.73.16 5.95.59 8.62 1.44 2.76.97 5.36 2.43 7.74 4.07 6.21 4.52 13.25 7.46 20.81 8.62 7.39 1.25 15.32 1.54 22.8 1.42 72.72-1.93 145.52-7.92 218.27-3.71 4.61.58 21.88 1.08 12.91 8.24-3.9 2.77-8.41 4.58-11.75 8.06-9.86 9.99-.79 16.01 10.07 16.41.94.08 1.89.08 2.84.11l2.85-.04c11.531-.29 23.07.59 34.44 2.49 3.79.64 7.56 1.37 11.31 2.3l-.41 1.06h-.02c-11.08-5.4-22.7-10.37-34.94-12.28-2.3-.33-4.67-.29-7.01-.72-.69-.2-1.36-.26-1.93-.85-.24-.23-.4-.73-.29-1.08.2-.68.58-.94.89-1.24 2.2-1.72 4.76-2.85 7.2-4.15 5.54-2.84 11.07-5.7 16.01-9.39 6.63-4.66 5.17-9.57-1.13-13.58-14.32-8.64-37.14-11.22-53.8-12.91-61.65-4.33-124.86-4.55-186.73-5.46-5.29-.12-13.47.03-18.75-.22-6.6-.45-11.11-6-16.15-9.48-10.27-7.19-23.63-6.9-35.65-5.75-11.98 1.56-25.04 3.25-37.13 4.33-46.56 3.91-93.3 6.82-140.04 6.36-3.11-.08-6.3-.36-9.32-.71 8.39-1.55 16.92-3.51 24.43-7.62 7.21-3.85 9.81-10.4 3.58-16.48-5.25-4.8-12.28-6.98-19.03-9.02-11.04-3.05-22.42-4.8-33.78-6.2-11.38-1.57-22.96-1.55-34.19-4.17-7.67-1.84-19.83-5.91-17.47-15.73 4.06-11.71 24.11-19.44 35.1-23.39 18.83-6.55 39.18-9.95 58.95-12.29 71.36-7.89 143.31-7.63 215.01-8.53 80.35-.83 160.7-1.61 241.02-3.78 5.74-.17 11.47-.38 17.2-.6 8.52-.37 17.32-.41 25.04-4.37 5.01-2.49 9.05-7.31 9.11-13.07.04-10.08-9.31-18.36-19.04-19.03-4.3-.26-8.65-.23-12.9-1.28-1.47-.42-2.98-.78-4.03-2.05-2.3-3.7 6.9-7 9.42-8.04a61.3 61.3 0 0 1 16.81-3.99c34.4-2.3 68.89.63 103.31-.91 28.19-1.14 58.34-2.55 82.77-18.15 5.3-3.51 14.18-11.51 9.26-16.88-5.51-3.91-12.73-4.06-19.25-3.55-2.82.26-5.66.72-8.39 1.41a.567.567 0 0 1-.69-.41c-.07-.29.09-.58.37-.68 27.38-10.31 56.56-30.69 8.99-41.63-6.05-1.49-12.94-2.65-19.08-3.57-32.15-4.4-64.66-4.89-97.01-7.14-22.63-1.57-45.56-4.26-67.04-11.91-5.05-2.01-16.48-6.39-16.41-12.98.18-2.97 3.02-4.82 5.28-6.17 2.87-1.65 5.91-2.86 8.96-4.02 9.12-3.41 18.56-5.98 27.6-9.51 2.99-1.2 5.97-2.48 8.64-4.2 1.85-1.28 3.91-2.77 3.9-5.13-.28-7.08-12.39-7.47-17.68-7.85-12.93-.44-25.88 1.09-38.71 2.62-6.46.76-13.01 1.26-19.55.54-15.43-1.64-16.14-10.77-4.91-19.55 8.03-5.78 17.89-8.17 27.38-10.26 6.38-1.31 12.82-2.26 19.28-3.02 9.69-1.12 19.41-1.81 29.15-2.24 9.72-.21 19.37-1.2 28.77-3.71 13.19-3.13 40.43-14.91 17.19-27.43-8.62-4.48-18.42-5.75-27.94-7.18-45.12-5.23-90.67-4.72-136.03-5.89-71.25-1.9-143.13-1.82-213.64-13.39-9.88-2.2-39.52-7.25-32.94-21.92 5.59-10.3 17.11-15.64 27.75-19.12 31.16-9.46 63.98-11.51 96.3-13.63 12.97-.72 25.94-1.19 38.92-1.55 7.51-.38 16.82.17 24.03-1.97 5-1.37 8.1-5.04 4.41-9.89a.57.57 0 0 1 .09-.82c11.8-2.89 28.26-9.29 34.47-20.25 5.05-10.82-11.25-13.86-18.79-14.85-39.06-3.84-78.52-.41-117.48 3.19l-.04-1.13c16.38.87 32.73 2.1 49.02 4.07 6.57 1.12 38.54 3.63 35.76 13.47-4.65 11.46-42.96 16.01-54.88 17.18-48.76 3.66-98.56 3.69-146.91 11.46-24.08 3.95-48.61 8.77-70.31 20.31-7.09 3.92-13.82 8.83-18.6 15.37a.6.6 0 0 1-.45.24c-10.48.49-20.99 1.86-31.2 4.33-7.63 1.85-15.14 4.44-21.97 8.34-16.68 10.18 14.73 16.23 21.96 16.97 15.6 1.91 31.6 2.06 47.19-.07 6.51-1.04 25.21-6.55 24.52-15.15-.65-2.29-3.37-3.69-5.47-4.64-2.36-1.04-4.9-1.73-7.45-2.28-10.52-2.04-25.109-2.79-34.34 2.8-12.4 8.51 7.18 11.19 13.49 9 .31-.08.621.1.7.4.08.3-.1.62-.4.7-2.63.7-5.35.88-8.03.73-7.01-.13-16.87-4.69-6.39-11.77 5.73-3.64 12.79-4.27 19.36-4.46 6.24-.27 30.5 1.59 29.72 10.96-1.97 8.78-17.61 13.4-25.51 14.84-15.739 2.15-31.78 2.01-47.54.08-5.25-.72-10.48-1.69-15.57-3.27-3.79-1.27-7.79-2.66-10.66-5.63-.93-1.02-1.71-2.47-1.52-4.02.45-2.98 3.06-4.71 5.36-6.15 6.94-3.94 14.56-6.6 22.28-8.47 10.31-2.49 20.84-3.87 31.44-4.37l-.45.24c4.94-6.74 11.8-11.72 18.98-15.7 7.23-3.96 14.9-7.02 22.71-9.57 47.15-14.54 96.98-16.79 145.91-19.55 28-1.38 58.12-1.56 85.19-9.13 4.56-1.43 20.63-6.27 17.39-12.51-2.29-3.1-6.69-4.29-10.33-5.32-3.93-1.05-7.94-1.81-11.97-2.49-20.21-3.2-40.66-4.66-61.08-5.8a.577.577 0 0 1-.54-.6c.01-.28.24-.51.51-.54 15.65-1.63 31.32-2.86 47.02-3.73 23.54-1.2 47.24-2.05 70.73.54 8.38.9 25.18 4.8 19.66 16.48-6.3 11.19-22.97 17.95-35.03 20.76l.31-.92c4.2 5.51.901 10.08-4.94 11.71-7.349 2.23-16.7 1.62-24.34 2.03-25.93.72-51.87 1.88-77.68 4.57-22.08 2.62-56.38 6.33-74.62 18.71-7.59 5.54-16.47 14.86-4.99 21.81 8.3 4.98 18.05 6.89 27.44 8.87 70.45 11.55 142.23 11.47 213.45 13.37 45.39 1.18 90.99.66 136.16 5.9 9.61 1.42 19.611 2.76 28.33 7.3 24.18 13.48-2.599 26-17.44 29.53-9.45 2.53-19.26 3.54-29.01 3.75-9.71.42-19.42 1.11-29.07 2.23-6.43.76-12.84 1.7-19.18 3.01-9.35 2.06-19.06 4.41-26.92 10.05-6.97 5.35-11.74 13.61-.33 16.63 7.81 1.97 16.01 1.22 23.97.34 6.44-.8 12.9-1.52 19.39-2.04 9.72-.65 19.64-1.42 29.27.59 3.21.8 6.81 1.99 8.43 5.21.76 1.61.85 3.68-.13 5.2-2.97 4.16-8.09 5.84-12.54 7.79-12 4.84-24.93 7.42-36.4 13.46-15.86 8.93 13.04 18.16 20.17 20.09 18.73 5.22 38.13 7.59 57.5 8.84 32.37 2.25 64.91 2.74 97.1 7.15 6.15.92 13.13 2.12 19.18 3.59 26.65 5.85 38.51 18.64 8.89 35.62-5.7 3.18-11.68 5.82-17.74 8.18h-.03l-.35-1.07c9.1-2.01 19.32-3.06 27.73 1.71l.94.7c.27.29.55.57.8.89 4.15 6.65-5.34 14.36-10.19 17.72-22.09 14.16-49.15 16.67-74.74 17.9-37.26 2.19-74.66-1.21-111.86 1.15-5.71.52-11.25 1.84-16.58 3.93-2.07.85-13.57 5.16-7.45 7.78 6.03 2.42 12.84.98 19.04 2.7 8.39 2.34 15.59 10.14 15.52 19.13-.28 10.51-10.78 15.64-19.91 17.12-4.969.86-10.04.9-15.07 1.15-17.21.67-34.43 1.09-51.64 1.46-68.87 1.38-137.74 2.21-206.61 2.83-70.26.77-140.71.75-210.67 7.91-12.41 1.5-26.01 3.25-38.23 5.97-13.97 2.92-27.87 7.09-40.72 13.35-18.63 8.94-30.79 24.3-1.82 31.36 11.18 2.61 22.77 2.62 34.13 4.11 11.42 1.33 22.84 2.91 33.97 5.89 5.54 1.55 11.09 3.36 16.06 6.47 5.06 2.9 9.5 9.28 6.18 15.03-3.17 5.08-9.21 7.31-14.6 9.14-5.51 1.73-11.18 2.84-16.89 3.45-.09 0 18.68-.21 18.66-.21 43.58-.52 87.17-2.81 130.57-6.7 4.68-.4 13.91-1.44 18.57-1.97 15.34-1.76 31.42-5.52 46.61-.7 3.01 1.01 5.91 2.42 8.5 4.24 5.03 3.41 9.14 8.74 15.52 9.22 5.11.19 13.38.12 18.62.19 49.27.47 100.41 1.33 149.5 3.29 24.87 1.21 50.09 1.87 74.3 8.31 9.63 2.42 33.88 11.27 18.61 22.77-5.07 3.77-10.66 6.64-16.21 9.47-2.35 1.27-4.86 2.34-6.96 3.98-.26.21-.49.51-.5.59-.02-.06 0 .03 0 0 .02.04.16.12.28.18.28.13.63.22.99.29 2.26.42 4.61.38 6.92.72 3.13.43 6.18 1.18 9.21 2 9.02 2.63 17.7 6.26 26.1 10.46.29.14.41.49.26.77-.12.24-.39.36-.64.29-7.4-1.82-14.99-3.02-22.57-3.82-7.59-.82-15.24-1.12-22.87-.94-3.87.13-7.8-.01-11.57-.89-10.54-2.32-12.54-10.23-5.02-17.54 1.4-1.37 2.93-2.59 4.55-3.67 1.52-1.31 12.04-5.84 8.71-8.06-4.12-2.15-9.11-2.09-13.71-2.63-7.62-.57-15.28-.78-22.93-.98-67.06-2.2-134 3.51-201.01 4.71-9.51-.3-19.53-.88-28.41-4.55-5.46-2.05-9.83-5.99-14.95-8.58-5.15-2.5-11.01-2.45-16.65-2.72-49.78-.05-99.47 4.52-149.26 5.17-15.32.28-30.66.39-46-.3-11.46-.76-23.27-.99-34.16-5.12-3.7-1.49-7-5.05-6.7-9.25.46-4.12 3.82-7.07 7.04-9.23 3.26-2.14 6.84-3.71 10.48-4.98 3.66-1.24 7.41-2.2 11.22-2.84 3.62-.59 7.5-1.5 10.39-3.82 7.5-6.78-6.75-11.15-11.91-11.99-15.06-2.82-30.49-1.43-45.66-.2-21.88 1.8-46.83 4.61-68.77 5.25-17.68.24-68.97 2.8-60.46-24.68 4.36-13.05 15.78-22.11 26.75-29.57 19.33-12.61 40.96-21.2 62.77-28.44 36.48-11.73 74.36-19.51 112.6-22.27 14.92-1.09 31-1.77 45.93-2.23 68.93-2.04 137.91-1.69 206.86-.83 38.01.52 76.84 1.36 114.9 2.72 13.42.36 32.63 1.76 45.89.91 11.34-.67 23.01-1.52 33.58-5.88 2.89-1.29 7.45-3.71 6.38-7.35-5.849-10.92-42.73-10.08-54.26-9.13-18.92 1.5-38.95 2.69-57.16-3.58-11.6-4.05-22.3-13.63-14.82-26.43 11.33-16.83 34.14-17.84 52.51-19.07 65.18-1.8 130.07 6.76 195.14 8.84 26.6.52 53.9.48 79.57-7.24 7.67-2.63 20.671-7.63 19.14-17.13-1.52-5.48-6.7-8.98-11.66-11.19-14.07-5.98-29.33-8.53-44.31-11.24-37.47-6.23-76.22-9.69-114.08-13.26-15.17-1.68-31-1.84-45.32-7.73-10.99-4.79-8.26-12.47.77-17.35 3.2-1.71 7.14-2.9 9.09-6.11 1.9-6.28-26.86-4.79-31.2-5.53-3.84-.26-7.67-.69-11.47-1.45-3.65-.87-12.62-2.66-11.22-8 1.17-2.94 4.31-4.28 6.84-5.61 2.25-1.23 6.31-3.33 4.47-4.69-2.38-1.3-5.37-1.39-8.08-1.63-7.65-.63-15.34.42-22.99-.19-5.35-.71-13.4-2.48-14.08-8.96.27-11.49 24.96-16.79 33.97-18.75 9.23-2.23 18.57-4.78 26.97-9.22 12.22-6.45 14.16-14.39 1.22-22.01-20.97-12.35-56.83-12.2-81.17-13.3-91.47-1.13-184.75 2.8-275.1-14.39a.56.56 0 0 1-.46-.66c.05-.31.35-.52.67-.46z"/>
      <path fill="#67DB70" d="M246.908 179.99c-6.66-14.82 18.45-24.73 29.34-27.58 12.47-3.5 30.82-7.14 43.62-10.04 9-2.18 18.27-3.81 26.73-7.58 5.17-2.3 7.05-8.75 2.72-12.87-9.45-8.89-29.17-11.31-41.83-12.61 11.99.17 33.68 2.96 42.68 11.81 3.99 3.83 3.51 9.64-.56 13.2-2.32 1.74-5.09 2.65-7.78 3.55-7.15 2.26-14.49 3.68-21.81 5.19-16.28 3.66-81.12 12.8-73.11 36.95zM233.27 358.74c-2.32-8.82-13.32-12.98-21.23-15.36-17.74-4.87-36.32-4.59-54.56-4.11-6.38-.14-16.06-1.16-17.91-8.5-1.07-11.3 18.14-16.82 26.87-18.15 9.1-1.51 18.35-1.6 27.5-1.05l54.95 2.93c36.62 1.83 73.27 3.68 109.93 4.1 18.32.06 36.71.12 54.66-3.86 8.94-1.8 17.95-3.91 26.15-7.96 8.55-4.12 15.05-11.27 13.68-21.38-.01-.07.11-.09.11-.01 2.34 15.94-13.63 23.18-26.4 26.88-8.82 2.59-17.87 4.29-26.95 5.72-13.67 1.91-27.51 1.78-41.28 1.78-55.06-.51-109.92-5.19-164.89-7.77-9.14-.48-18.35-.24-27.35 1.36-8.3 1.4-26.86 6.78-26.01 17.22 1.77 6.68 11.08 7.58 16.92 7.74 20.94-.43 48.89-.96 67.34 10.01 3.76 2.46 7.65 5.77 8.56 10.39.02.07-.12.09-.11 0zm-458.779 99.58c-9.02-2.24-27.01-8.18-26.14-19.29 4-15.97 62.89-21.39 78.22-23.04 39.13-3.6 78.49-3.49 117.74-3.94 39.15-.29 117.93-.93 157.07-1.28 58.76-1.17 118.03.41 176.26-8.6 14.76-2.92 35.93-7.75 36.23-26.25.11-3.26-.3-6.52-.94-9.73-.02-.07.1-.1.11-.02 2.32 10.03 1.33 20.29-7.67 26.69-8.1 5.76-18.03 8-27.6 9.99-12.88 2.45-25.94 3.77-38.99 4.87-13.05 1.08-26.13 1.9-39.22 2.33-111 3.77-222.76.05-333.74 4.26-20.8 1.04-110.7 5.41-116.67 24.85-.27 1.48.15 3.09.82 4.5 3.08 5.74 9.53 8.75 15.34 11.16 3.03 1.19 6.15 2.2 9.31 2.96.34.08.21.6-.12.52z"/>
    </g>
  </g>
  <defs>
    <clipPath id="c">
      <path fill="#fff" d="M-424 77h930v350h-930z"/>
    </clipPath>
  </defs>
</svg>
