<svg xmlns="http://www.w3.org/2000/svg" width="390" height="666" fill="none" viewBox="0 0 390 666" xmlns:xlink="http://www.w3.org/1999/xlink">
  <g clip-path="url(#a)">
    <path fill="#00B250" d="M-1 79h391v587H-1z"/>
    <mask id="b" width="739" height="385" x="-175" y="79" maskUnits="userSpaceOnUse" style="mask-type:luminance">
      <path fill="#fff" d="M-175 79h739v385h-739z"/>
    </mask>
    <g mask="url(#b)">
      <path stroke="#89EF95" stroke-linecap="round" stroke-linejoin="round" d="M297.229 26.07s-79.88-2.57-122.9 6.81-44.31 32.02-28.14 39.14 108.78 5.9 138.47 6.87"/>
      <mask id="c" width="739" height="459" x="-151" y="-15" maskUnits="userSpaceOnUse" style="mask-type:luminance">
        <path fill="#fff" d="M78.88 78.04c71.97 13.66 145.33 10.47 218.19 11.41 12.92.34 25.87.97 38.71 2.69 5.13.8 10.71 1.79 15.66 3.39 6.81 2.14 22.62 8.68 16.73 17.91-1.85 2.64-4.54 4.34-7.22 5.82-10.86 5.91-23.26 7.07-34.8 10.9-4.9 1.62-18.14 7.65-11.03 13.85 6.37 4.4 14.63 2.5 21.91 2.77 3.8.2 7.93-.17 11.48 1.62 3.58 3.08-5.96 5.86-7.43 7.65-2.06 1.71-1.44 3.47.7 4.61 4.67 2.41 10.11 2.77 15.28 3.24 7.51.64 15.39-.27 22.79 1.94 5.07 1.76 2.85 5.03-.77 7.03-2.65 1.51-5.52 2.44-7.68 4.62-4.46 4.11-1.58 7.56 2.93 9.51 11.24 4.61 23.71 4.73 35.66 6.06 30.07 2.84 60.84 5.58 90.62 10.53 9 1.55 18 3.27 26.77 5.87 5.44 1.71 11.25 3.49 15.41 7.59 4.2 4.22 4.35 9.48-.52 13.53-14.28 11.52-48.39 12.23-66.64 12.22-42.56-.86-84.98-5.38-127.5-7.01-18.15-.53-36.53-1.32-54.49 1.72-28.52 5.07-35.81 28.74-2.85 34.69 8.95 1.57 18.09 1.65 27.16 1.16 11.98-.99 24.57-1.83 36.5-.11 19.08 2.42 24.67 12.26 2.23 17-12 2.39-24.29 2.48-36.46 2.1-60.66-2.57-121.67-3.31-182.35-3.44-36.47.08-72.96.25-109.4 1.9-36.4 1.22-72.7 7.4-107.34 18.7-21.23 6.93-69.19 25.22-71.17 49.74.09 16.09 36.57 14.15 47.78 14.02 17.35-.51 37.09-2.69 54.53-4.17 13.09-.94 33.38-3.21 45.24 3.24 3.39 1.91 4.45 5.55 1.14 8.13-2.54 2.02-5.69 2.75-8.69 3.24-2.97.5-5.9 1.25-8.75 2.22-2.84.99-5.61 2.21-8.1 3.85-2.38 1.61-4.79 3.65-5.16 6.62-.15 2.86 2.12 5.39 4.75 6.39 8.47 3.19 17.8 3.4 26.77 3.99 51.68 2.01 103.28-3.84 154.95-3.87 3.05.13 6.09.21 9.17.77 3.05.56 5.9 2.13 8.41 3.84 8.58 6.55 19.57 7.81 30.04 7.97 53.17-.95 106.32-5.48 159.54-3.73 6.08.16 12.17.32 18.25.78 3.2.46 14.16.57 12 4.87-.93 1.44-2.32 2.16-3.67 3.04-2.65 1.5-5.24 2.95-7.37 5.11-2.43 2.34-4.8 6.38-2.16 9.36 3.71 3.74 9.65 3.66 14.63 3.63 6.1-.15 12.21.09 18.28.75 6.07.64 12.09 1.6 18.05 3.06l-.36.93c-8.78-4.27-18.05-8.23-27.74-9.74-2.16-.36-4.45-.11-6.57-.88-3.3-1.78 4.36-4.78 5.66-5.61 4.39-2.25 8.78-4.52 12.7-7.45 1.84-1.27 3.69-3.19 3.41-5.51-3-10.83-36.73-14.46-46.99-15.41-51.41-3.57-104.03-3.7-155.61-4.4-2.11-.1-5.32.09-7.47-.12-5.29-.37-8.83-4.77-12.84-7.54-3.97-2.8-8.73-4.24-13.58-4.74-12.22-1.23-24.59 1.86-36.76 2.9-31.99 3.16-64.15 4.85-96.27 5.68-9.88.15-19.84.64-29.67-.54 4.49-.79 8.93-1.86 13.22-3.35 3.99-1.49 8.71-3.33 11-7.09 2.4-4.16-1.09-8.58-4.62-10.69-7.74-4.65-16.96-6.38-25.76-8.06-8.96-1.59-18.02-2.57-27.09-3.35-4.54-.36-9.1-.88-13.55-1.94-4.42-1.12-9.05-2.51-12.29-5.92-6.95-8.52 7.18-16.68 13.62-19.95 14.28-6.97 30.25-10.69 45.9-13.13 42.85-6.29 86.32-6.98 129.53-7.98 86.53-1.27 173.11-1.27 259.61-4.13 8.68-.4 19.05-.32 24.96-7.66 5.74-7.85-1.24-18.5-9.69-20.61-4.95-1.34-10.35-.2-15.2-2.17-6.7-3.39 6.52-7.83 9.19-8.66 12.09-3.62 25.01-2.51 37.46-2.72 18.22.17 36.44.59 54.64-.05 22.36-.91 46.28-2.03 65.67-14.4 4.23-2.81 11.19-9.06 7.35-13.32-2.48-1.81-5.49-2.53-8.51-2.84-4.46-.4-9.03.1-13.38 1.15a.5.5 0 0 1-.61-.37c-.06-.25.08-.5.32-.59 4.78-1.86 9.49-3.94 13.96-6.43 49-29.08-51.9-32.22-68.08-33.25-20.56-1.25-41.27-1.64-61.59-5.38-6.1-1.04-41.79-8.14-34.52-18.67 2.78-2.93 6.68-4.19 10.29-5.66 2.42-.91 4.87-1.73 7.32-2.54 4.89-1.62 9.81-3.14 14.58-5.01 3.39-1.48 7.27-2.76 9.49-5.78 2.71-6.71-9.26-7.57-13.54-7.76-10.26-.35-20.53.86-30.72 2.08-5.13.61-10.33 1-15.53.43-18.34-2.21-7.98-15.25 2.91-19.39 14.5-5.68 30.23-6.96 45.62-8.12 5.13-.38 10.31-.42 15.42-.8 10.11-.94 20.45-3.11 29.33-8.14 11.48-6.77 6.39-13.49-4.02-17.69-10.9-3.81-22.62-4.6-34.06-5.67-82.21-5.25-164.98-1.13-246.9-11.28-10.22-1.72-53.85-6.01-39.27-23.25 8.73-10.04 22.48-12.94 34.87-15.75 20.24-4.1 40.86-5.74 61.44-6.94 10.29-.57 20.59-.95 30.89-1.23l7.72-.22c4.89-.28 10.5-.08 14.61-2.96 2.09-1.49 1.7-4.38.2-6.16a.5.5 0 0 1-.096-.177.52.52 0 0 1 .176-.543c6.06-1.48 12.03-3.61 17.4-6.83 7.68-4.32 17.44-14.11 4.07-18.92-8.82-2.91-18.38-2.83-27.6-3.24-12.45-.3-24.92.1-37.36.79a774 774 0 0 0-37.27 2.96l-.03-1c13 .69 25.98 1.66 38.91 3.23 5.17.89 35.69 3.28 27 13-3.69 3.41-8.65 4.88-13.31 6.36-3.14.91-6.32 1.66-9.52 2.3-18.5 3.63-39.44 4.08-58.32 4.98-37.51 2.36-124.79 4.72-148.16 35.18-.09.13-.24.2-.39.21-4.15.18-8.32.57-12.46 1.14-4.13.57-8.25 1.3-12.3 2.3-6.05 1.47-12.01 3.52-17.42 6.62-8.56 5-.68 9.01 5.21 10.82 12.01 3.52 24.74 3.95 37.2 3.57 8.28-.27 16.75-1.07 24.25-4.82 3.46-1.61 11.09-6.51 5.93-10.38-7.94-5.18-24.54-5.68-33.06-2.46-8.51 3.78-7.58 8.29 1.91 8.99 2.04.11 4.12-.03 6.07-.55.27-.07.54.08.61.35s-.08.54-.35.61c-2.1.56-4.26.7-6.4.58-5.67-.11-13.43-3.79-5.1-9.43 4.56-2.89 10.17-3.4 15.39-3.55 5.18-.17 23.3 1.17 23.67 8.29-.45 4.28-4.83 6.69-8.24 8.45-7.64 3.82-16.24 4.65-24.65 4.92-8.39.32-16.82.08-25.17-1.02-6.42-.97-22.24-3.44-22.07-10.31.36-2.39 2.44-3.76 4.28-4.92 1.66-.99 3.93-2.06 5.68-2.83 11.71-4.81 24.39-6.7 36.98-7.37 6.13-9.28 21-16.14 32.72-19.87 43.62-13.31 90.1-13.99 135.3-16.43 16.17-.78 32.49-1.91 48.12-6.33 3.65-1.17 16.27-4.92 13.77-9.86-1.81-2.44-5.29-3.39-8.17-4.2-6.24-1.63-12.7-2.52-19.13-3.35-12.89-1.57-25.86-2.54-38.83-3.23a.51.51 0 0 1-.452-.335.495.495 0 0 1 .422-.665c12.42-1.29 24.86-2.27 37.32-2.96s24.95-1.09 37.44-.79c6.25.11 12.49.51 18.71 1.22 4.65.65 9.53 1.52 13.48 4.29 8.24 6.46-2.22 15.13-8.17 18.51-5.43 3.2-11.36 5.47-17.5 6.85l.28-.81c.85 1.12 1.46 2.39 1.51 3.85.07 1.45-.74 2.86-1.84 3.73-4.39 3.09-10.1 2.93-15.21 3.19-23.13.62-46.36 1.43-69.37 3.84-17.66 2.11-44.55 4.97-59.2 14.84-6 4.38-13.04 11.74-3.97 17.23 6.58 3.95 14.31 5.47 21.76 7.04 5.04.98 10.13 1.76 15.23 2.44 81.88 10.14 164.65 6.02 246.85 11.27 5.14.41 10.28.92 15.4 1.58 7.62 1.13 15.58 2.17 22.5 5.81 4.47 2.28 10.24 7.19 6.53 12.6-1.48 2.31-3.7 3.86-5.91 5.22-4.51 2.66-9.47 4.35-14.46 5.69-7.51 1.99-15.3 2.81-23.04 2.98-12.82.59-25.69 1.62-38.29 4.16-9.45 2.22-20.95 4.61-26.33 13.51-4.88 10.61 18.07 8.63 23.72 7.84 9.47-.91 40.84-5.89 45.36 3.02 2.56 5.78-6.17 8.6-10.1 10.37-7.23 2.82-14.68 4.85-21.92 7.55-3.02 1.35-11.99 3.98-10.49 8.48 3.86 7.93 26.06 12.27 34.54 13.92 40.62 7.13 82.54 3.14 122.91 12.12 37.82 8.79 17.22 25.84-7.02 34.85-.02.05-.32-.95-.33-.94 4.51-1.08 9.11-1.58 13.73-1.16 3.18.31 6.47 1.13 9.07 3.09 3.2 3.13.42 7.82-2.14 10.41-4.84 4.98-11.21 8.13-17.57 10.66-8.57 3.28-17.57 5.21-26.62 6.39-27.21 3.05-54.67 2.09-81.98 1.85-13.5.23-27.6-1.18-40.42 3.76-15.67 6.15-2.33 7.42 5.77 7.62 5.82.44 11.28 3.96 14.07 9.1 3.74 6.79 1.02 14.37-5.92 17.73-6.22 3.2-13.4 3.25-20.18 3.54-50.06 1.74-100.23 2.15-150.31 2.83-75.08 1.41-150.48-.71-225.25 7.26-6.26.69-14.04 1.9-20.27 2.93l-6.68 1.38-3.34.69c-1.11.26-2.21.53-3.31.82-8.79 2.27-17.51 5.05-25.66 9.08-9.21 4.31-24.34 15.57-7.91 22.76 6.3 2.63 13.16 3.45 19.92 4.01 13.62 1.2 27.29 2.52 40.58 5.98 5.42 1.58 11.25 3.33 15.54 7.29 5.49 5.25 3.06 11.41-3.09 14.47-6.12 3.21-13.03 4.57-19.81 5.34 19.78-.25 39.53-.52 59.28-1.54 24.63-1.18 49.4-2.73 73.9-5.57 14.36-1.56 30.8-5.88 43.78 2.81 2.09 1.42 3.92 3.14 5.84 4.6 1.91 1.47 4.07 2.51 6.44 2.71 1.96.12 5.3.09 7.36.1 41.59.33 84.6 1.02 126.07 2.67 19.75.96 39.74 1.49 58.98 6.6 6.3 1.79 23.04 6.9 17.59 15.49-.77 1.08-1.79 1.95-2.79 2.68-4.02 3-8.47 5.28-12.87 7.52-1.88 1.09-4.48 1.98-5.9 3.59 0 .01-.02-.08 0-.05 0 .02.11.08.2.13.21.1.49.17.77.23 1.79.33 3.65.31 5.49.57 9.88 1.57 19.11 5.53 28.03 9.89.26.12.37.43.24.68-.11.21-.35.32-.58.26-11.75-2.81-23.95-4.05-36.04-3.77-4.56.1-9.5-.03-13.58-2.42-5.23-3.17-3.32-8.85.37-12.29 2.67-2.81 6.32-4.31 9.42-6.48.58-.44 1.14-.93 1.47-1.46 1.58-2.56-9.53-3.19-11.21-3.37-59.24-3.52-118.5 1.88-177.73 2.96-7.56-.24-15.5-.7-22.57-3.61-5.05-1.87-8.88-5.88-13.92-7.65-6.44-1.77-13.57-1.28-20.24-1.37-48.61 1.03-97.21 5.66-145.87 3.92-6.08-.3-12.17-.72-18.21-1.71-5.68-.98-14.32-2.52-14.26-9.75.36-3.28 3.04-5.64 5.61-7.37 2.6-1.7 5.43-2.95 8.33-3.96 2.91-.99 5.89-1.75 8.91-2.26 2.87-.46 5.94-1.18 8.22-3.02 2.87-2.2 1.66-4.96-1.03-6.51-2.5-1.53-5.46-2.33-8.39-2.92-11.93-2.23-24.2-1.14-36.23-.16-17.37 1.43-37.16 3.66-54.58 4.17-13.05.17-48.57 1.95-48.81-15.02 1.48-21.37 37.04-37.46 54.67-44.51 34.05-13.16 70.18-21.1 106.57-23.87 12.09-.89 24.41-1.39 36.46-1.77 54.71-1.62 109.46-1.34 164.18-.66 30.17.41 60.99 1.08 91.19 2.16 17.53.62 37.21 2.22 54.45-1.34 8.67-1.54 22.31-7.51 6.63-13.07-11.59-3.51-24.01-3.21-36-2.53-8.87.71-18.55 1.37-27.4.63-10.66-.87-28.68-3.69-31.58-16-1.07-6.25 3.41-11.82 8.25-15.17 10.27-7.12 23.23-7.72 35.27-8.51 36.51-1.25 72.96 2.41 109.36 4.54 30.25 1.72 60.77 4.7 90.94.6 6-.86 11.97-2 17.71-3.87 4.25-1.42 8.52-3.12 11.94-6.06 7.45-6.27 1.04-13.43-6.01-16.33-11.16-4.74-23.27-6.77-35.15-8.92-23.98-3.99-48.19-6.47-72.38-8.82l-18.16-1.7c-12.05-1.34-24.61-1.46-35.98-6.14-5.38-2.27-8.06-6.63-3.2-11.14 3.08-3.35 8.46-3.75 11-7.55 1.49-4.88-21.32-3.75-24.72-4.32-3.05-.21-6.09-.55-9.11-1.15-8.44-1.51-13.69-6.13-3.5-10.89 1.26-.68 2.66-1.38 3.59-2.43.23-.24.33-.51.33-.68 0-.16-.13-.35-.38-.53-3.29-1.56-7.27-1.26-10.91-1.44-3.03-.03-6.05.07-9.1.17-5.23.01-13.23-.51-15.62-6.07-1.14-3.75 2.33-6.92 5.18-8.73 7.84-4.99 17.2-6.25 26.01-8.56 7.04-1.99 25.36-6.93 24.98-15.66-1.18-6.51-11.69-10.59-17.34-12.44-4.91-1.57-10.42-2.56-15.5-3.35-36.97-4.42-74.37-2.72-111.54-3.01-48.65.54-97.42-2.7-145.39-11.09a.514.514 0 0 1-.41-.58.51.51 0 0 1 .59-.41z"/>
      </mask>
      <g mask="url(#c)">
        <path fill="#B6FC4F" stroke="#89EF95" stroke-width="2" d="M78.88 78.04c71.97 13.66 145.33 10.47 218.19 11.41 12.92.34 25.87.97 38.71 2.69 5.13.8 10.71 1.79 15.66 3.39 6.81 2.14 22.62 8.68 16.73 17.91-1.85 2.64-4.54 4.34-7.22 5.82-10.86 5.91-23.26 7.07-34.8 10.9-4.9 1.62-18.14 7.65-11.03 13.85 6.37 4.4 14.63 2.5 21.91 2.77 3.8.2 7.93-.17 11.48 1.62 3.58 3.08-5.96 5.86-7.43 7.65-2.06 1.71-1.44 3.47.7 4.61 4.67 2.41 10.11 2.77 15.28 3.24 7.51.64 15.39-.27 22.79 1.94 5.07 1.76 2.85 5.03-.77 7.03-2.65 1.51-5.52 2.44-7.68 4.62-4.46 4.11-1.58 7.56 2.93 9.51 11.24 4.61 23.71 4.73 35.66 6.06 30.07 2.84 60.84 5.58 90.62 10.53 9 1.55 18 3.27 26.77 5.87 5.44 1.71 11.25 3.49 15.41 7.59 4.2 4.22 4.35 9.48-.52 13.53-14.28 11.52-48.39 12.23-66.64 12.22-42.56-.86-84.98-5.38-127.5-7.01-18.15-.53-36.53-1.32-54.49 1.72-28.52 5.07-35.81 28.74-2.85 34.69 8.95 1.57 18.09 1.65 27.16 1.16 11.98-.99 24.57-1.83 36.5-.11 19.08 2.42 24.67 12.26 2.23 17-12 2.39-24.29 2.48-36.46 2.1-60.66-2.57-121.67-3.31-182.35-3.44-36.47.08-72.96.25-109.4 1.9-36.4 1.22-72.7 7.4-107.34 18.7-21.23 6.93-69.19 25.22-71.17 49.74.09 16.09 36.57 14.15 47.78 14.02 17.35-.51 37.09-2.69 54.53-4.17 13.09-.94 33.38-3.21 45.24 3.24 3.39 1.91 4.45 5.55 1.14 8.13-2.54 2.02-5.69 2.75-8.69 3.24-2.97.5-5.9 1.25-8.75 2.22-2.84.99-5.61 2.21-8.1 3.85-2.38 1.61-4.79 3.65-5.16 6.62-.15 2.86 2.12 5.39 4.75 6.39 8.47 3.19 17.8 3.4 26.77 3.99 51.68 2.01 103.28-3.84 154.95-3.87 3.05.13 6.09.21 9.17.77 3.05.56 5.9 2.13 8.41 3.84 8.58 6.55 19.57 7.81 30.04 7.97 53.17-.95 106.32-5.48 159.54-3.73 6.08.16 12.17.32 18.25.78 3.2.46 14.16.57 12 4.87-.93 1.44-2.32 2.16-3.67 3.04-2.65 1.5-5.24 2.95-7.37 5.11-2.43 2.34-4.8 6.38-2.16 9.36 3.71 3.74 9.65 3.66 14.63 3.63 6.1-.15 12.21.09 18.28.75 6.07.64 12.09 1.6 18.05 3.06l-.36.93c-8.78-4.27-18.05-8.23-27.74-9.74-2.16-.36-4.45-.11-6.57-.88-3.3-1.78 4.36-4.78 5.66-5.61 4.39-2.25 8.78-4.52 12.7-7.45 1.84-1.27 3.69-3.19 3.41-5.51-3-10.83-36.73-14.46-46.99-15.41-51.41-3.57-104.03-3.7-155.61-4.4-2.11-.1-5.32.09-7.47-.12-5.29-.37-8.83-4.77-12.84-7.54-3.97-2.8-8.73-4.24-13.58-4.74-12.22-1.23-24.59 1.86-36.76 2.9-31.99 3.16-64.15 4.85-96.27 5.68-9.88.15-19.84.64-29.67-.54 4.49-.79 8.93-1.86 13.22-3.35 3.99-1.49 8.71-3.33 11-7.09 2.4-4.16-1.09-8.58-4.62-10.69-7.74-4.65-16.96-6.38-25.76-8.06-8.96-1.59-18.02-2.57-27.09-3.35-4.54-.36-9.1-.88-13.55-1.94-4.42-1.12-9.05-2.51-12.29-5.92-6.95-8.52 7.18-16.68 13.62-19.95 14.28-6.97 30.25-10.69 45.9-13.13 42.85-6.29 86.32-6.98 129.53-7.98 86.53-1.27 173.11-1.27 259.61-4.13 8.68-.4 19.05-.32 24.96-7.66 5.74-7.85-1.24-18.5-9.69-20.61-4.95-1.34-10.35-.2-15.2-2.17-6.7-3.39 6.52-7.83 9.19-8.66 12.09-3.62 25.01-2.51 37.46-2.72 18.22.17 36.44.59 54.64-.05 22.36-.91 46.28-2.03 65.67-14.4 4.23-2.81 11.19-9.06 7.35-13.32-2.48-1.81-5.49-2.53-8.51-2.84-4.46-.4-9.03.1-13.38 1.15a.5.5 0 0 1-.61-.37c-.06-.25.08-.5.32-.59 4.78-1.86 9.49-3.94 13.96-6.43 49-29.08-51.9-32.22-68.08-33.25-20.56-1.25-41.27-1.64-61.59-5.38-6.1-1.04-41.79-8.14-34.52-18.67 2.78-2.93 6.68-4.19 10.29-5.66 2.42-.91 4.87-1.73 7.32-2.54 4.89-1.62 9.81-3.14 14.58-5.01 3.39-1.48 7.27-2.76 9.49-5.78 2.71-6.71-9.26-7.57-13.54-7.76-10.26-.35-20.53.86-30.72 2.08-5.13.61-10.33 1-15.53.43-18.34-2.21-7.98-15.25 2.91-19.39 14.5-5.68 30.23-6.96 45.62-8.12 5.13-.38 10.31-.42 15.42-.8 10.11-.94 20.45-3.11 29.33-8.14 11.48-6.77 6.39-13.49-4.02-17.69-10.9-3.81-22.62-4.6-34.06-5.67-82.21-5.25-164.98-1.13-246.9-11.28-10.22-1.72-53.85-6.01-39.27-23.25 8.73-10.04 22.48-12.94 34.87-15.75 20.24-4.1 40.86-5.74 61.44-6.94 10.29-.57 20.59-.95 30.89-1.23l7.72-.22c4.89-.28 10.5-.08 14.61-2.96 2.09-1.49 1.7-4.38.2-6.16a.5.5 0 0 1-.096-.177.52.52 0 0 1 .176-.543c6.06-1.48 12.03-3.61 17.4-6.83 7.68-4.32 17.44-14.11 4.07-18.92-8.82-2.91-18.38-2.83-27.6-3.24-12.45-.3-24.92.1-37.36.79a774 774 0 0 0-37.27 2.96l-.03-1c13 .69 25.98 1.66 38.91 3.23 5.17.89 35.69 3.28 27 13-3.69 3.41-8.65 4.88-13.31 6.36-3.14.91-6.32 1.66-9.52 2.3-18.5 3.63-39.44 4.08-58.32 4.98-37.51 2.36-124.79 4.72-148.16 35.18-.09.13-.24.2-.39.21-4.15.18-8.32.57-12.46 1.14-4.13.57-8.25 1.3-12.3 2.3-6.05 1.47-12.01 3.52-17.42 6.62-8.56 5-.68 9.01 5.21 10.82 12.01 3.52 24.74 3.95 37.2 3.57 8.28-.27 16.75-1.07 24.25-4.82 3.46-1.61 11.09-6.51 5.93-10.38-7.94-5.18-24.54-5.68-33.06-2.46-8.51 3.78-7.58 8.29 1.91 8.99 2.04.11 4.12-.03 6.07-.55.27-.07.54.08.61.35s-.08.54-.35.61c-2.1.56-4.26.7-6.4.58-5.67-.11-13.43-3.79-5.1-9.43 4.56-2.89 10.17-3.4 15.39-3.55 5.18-.17 23.3 1.17 23.67 8.29-.45 4.28-4.83 6.69-8.24 8.45-7.64 3.82-16.24 4.65-24.65 4.92-8.39.32-16.82.08-25.17-1.02-6.42-.97-22.24-3.44-22.07-10.31.36-2.39 2.44-3.76 4.28-4.92 1.66-.99 3.93-2.06 5.68-2.83 11.71-4.81 24.39-6.7 36.98-7.37 6.13-9.28 21-16.14 32.72-19.87 43.62-13.31 90.1-13.99 135.3-16.43 16.17-.78 32.49-1.91 48.12-6.33 3.65-1.17 16.27-4.92 13.77-9.86-1.81-2.44-5.29-3.39-8.17-4.2-6.24-1.63-12.7-2.52-19.13-3.35-12.89-1.57-25.86-2.54-38.83-3.23a.51.51 0 0 1-.452-.335.495.495 0 0 1 .422-.665c12.42-1.29 24.86-2.27 37.32-2.96s24.95-1.09 37.44-.79c6.25.11 12.49.51 18.71 1.22 4.65.65 9.53 1.52 13.48 4.29 8.24 6.46-2.22 15.13-8.17 18.51-5.43 3.2-11.36 5.47-17.5 6.85l.28-.81c.85 1.12 1.46 2.39 1.51 3.85.07 1.45-.74 2.86-1.84 3.73-4.39 3.09-10.1 2.93-15.21 3.19-23.13.62-46.36 1.43-69.37 3.84-17.66 2.11-44.55 4.97-59.2 14.84-6 4.38-13.04 11.74-3.97 17.23 6.58 3.95 14.31 5.47 21.76 7.04 5.04.98 10.13 1.76 15.23 2.44 81.88 10.14 164.65 6.02 246.85 11.27 5.14.41 10.28.92 15.4 1.58 7.62 1.13 15.58 2.17 22.5 5.81 4.47 2.28 10.24 7.19 6.53 12.6-1.48 2.31-3.7 3.86-5.91 5.22-4.51 2.66-9.47 4.35-14.46 5.69-7.51 1.99-15.3 2.81-23.04 2.98-12.82.59-25.69 1.62-38.29 4.16-9.45 2.22-20.95 4.61-26.33 13.51-4.88 10.61 18.07 8.63 23.72 7.84 9.47-.91 40.84-5.89 45.36 3.02 2.56 5.78-6.17 8.6-10.1 10.37-7.23 2.82-14.68 4.85-21.92 7.55-3.02 1.35-11.99 3.98-10.49 8.48 3.86 7.93 26.06 12.27 34.54 13.92 40.62 7.13 82.54 3.14 122.91 12.12 37.82 8.79 17.22 25.84-7.02 34.85-.02.05-.32-.95-.33-.94 4.51-1.08 9.11-1.58 13.73-1.16 3.18.31 6.47 1.13 9.07 3.09 3.2 3.13.42 7.82-2.14 10.41-4.84 4.98-11.21 8.13-17.57 10.66-8.57 3.28-17.57 5.21-26.62 6.39-27.21 3.05-54.67 2.09-81.98 1.85-13.5.23-27.6-1.18-40.42 3.76-15.67 6.15-2.33 7.42 5.77 7.62 5.82.44 11.28 3.96 14.07 9.1 3.74 6.79 1.02 14.37-5.92 17.73-6.22 3.2-13.4 3.25-20.18 3.54-50.06 1.74-100.23 2.15-150.31 2.83-75.08 1.41-150.48-.71-225.25 7.26-6.26.69-14.04 1.9-20.27 2.93l-6.68 1.38-3.34.69c-1.11.26-2.21.53-3.31.82-8.79 2.27-17.51 5.05-25.66 9.08-9.21 4.31-24.34 15.57-7.91 22.76 6.3 2.63 13.16 3.45 19.92 4.01 13.62 1.2 27.29 2.52 40.58 5.98 5.42 1.58 11.25 3.33 15.54 7.29 5.49 5.25 3.06 11.41-3.09 14.47-6.12 3.21-13.03 4.57-19.81 5.34 19.78-.25 39.53-.52 59.28-1.54 24.63-1.18 49.4-2.73 73.9-5.57 14.36-1.56 30.8-5.88 43.78 2.81 2.09 1.42 3.92 3.14 5.84 4.6 1.91 1.47 4.07 2.51 6.44 2.71 1.96.12 5.3.09 7.36.1 41.59.33 84.6 1.02 126.07 2.67 19.75.96 39.74 1.49 58.98 6.6 6.3 1.79 23.04 6.9 17.59 15.49-.77 1.08-1.79 1.95-2.79 2.68-4.02 3-8.47 5.28-12.87 7.52-1.88 1.09-4.48 1.98-5.9 3.59 0 .01-.02-.08 0-.05 0 .02.11.08.2.13.21.1.49.17.77.23 1.79.33 3.65.31 5.49.57 9.88 1.57 19.11 5.53 28.03 9.89.26.12.37.43.24.68-.11.21-.35.32-.58.26-11.75-2.81-23.95-4.05-36.04-3.77-4.56.1-9.5-.03-13.58-2.42-5.23-3.17-3.32-8.85.37-12.29 2.67-2.81 6.32-4.31 9.42-6.48.58-.44 1.14-.93 1.47-1.46 1.58-2.56-9.53-3.19-11.21-3.37-59.24-3.52-118.5 1.88-177.73 2.96-7.56-.24-15.5-.7-22.57-3.61-5.05-1.87-8.88-5.88-13.92-7.65-6.44-1.77-13.57-1.28-20.24-1.37-48.61 1.03-97.21 5.66-145.87 3.92-6.08-.3-12.17-.72-18.21-1.71-5.68-.98-14.32-2.52-14.26-9.75.36-3.28 3.04-5.64 5.61-7.37 2.6-1.7 5.43-2.95 8.33-3.96 2.91-.99 5.89-1.75 8.91-2.26 2.87-.46 5.94-1.18 8.22-3.02 2.87-2.2 1.66-4.96-1.03-6.51-2.5-1.53-5.46-2.33-8.39-2.92-11.93-2.23-24.2-1.14-36.23-.16-17.37 1.43-37.16 3.66-54.58 4.17-13.05.17-48.57 1.95-48.81-15.02 1.48-21.37 37.04-37.46 54.67-44.51 34.05-13.16 70.18-21.1 106.57-23.87 12.09-.89 24.41-1.39 36.46-1.77 54.71-1.62 109.46-1.34 164.18-.66 30.17.41 60.99 1.08 91.19 2.16 17.53.62 37.21 2.22 54.45-1.34 8.67-1.54 22.31-7.51 6.63-13.07-11.59-3.51-24.01-3.21-36-2.53-8.87.71-18.55 1.37-27.4.63-10.66-.87-28.68-3.69-31.58-16-1.07-6.25 3.41-11.82 8.25-15.17 10.27-7.12 23.23-7.72 35.27-8.51 36.51-1.25 72.96 2.41 109.36 4.54 30.25 1.72 60.77 4.7 90.94.6 6-.86 11.97-2 17.71-3.87 4.25-1.42 8.52-3.12 11.94-6.06 7.45-6.27 1.04-13.43-6.01-16.33-11.16-4.74-23.27-6.77-35.15-8.92-23.98-3.99-48.19-6.47-72.38-8.82l-18.16-1.7c-12.05-1.34-24.61-1.46-35.98-6.14-5.38-2.27-8.06-6.63-3.2-11.14 3.08-3.35 8.46-3.75 11-7.55 1.49-4.88-21.32-3.75-24.72-4.32-3.05-.21-6.09-.55-9.11-1.15-8.44-1.51-13.69-6.13-3.5-10.89 1.26-.68 2.66-1.38 3.59-2.43.23-.24.33-.51.33-.68 0-.16-.13-.35-.38-.53-3.29-1.56-7.27-1.26-10.91-1.44-3.03-.03-6.05.07-9.1.17-5.23.01-13.23-.51-15.62-6.07-1.14-3.75 2.33-6.92 5.18-8.73 7.84-4.99 17.2-6.25 26.01-8.56 7.04-1.99 25.36-6.93 24.98-15.66-1.18-6.51-11.69-10.59-17.34-12.44-4.91-1.57-10.42-2.56-15.5-3.35-36.97-4.42-74.37-2.72-111.54-3.01-48.65.54-97.42-2.7-145.39-11.09a.514.514 0 0 1-.41-.58.51.51 0 0 1 .59-.41z"/>
      </g>
      <path fill="#B6FC4F" stroke="#89EF95" d="M462.756 102.292c-.811.607-1.695 1.082-2.622 1.488.91-.411 1.791-.894 2.59-1.501l.017-.013.016-.015c1.572-1.424 2.674-3.726 2.411-5.89l-.003-.024-.005-.022c-.477-2.213-1.981-4.054-4.066-5.59 2.19 1.585 3.663 3.45 4.123 5.637.267 2.223-.795 4.472-2.461 5.93Zm7.571 147.088c8.899.07 17.96.014 26.948-.703-8.307.763-16.682.758-25.056.754l-1.896-.001c-10.408-.095-20.804-.381-31.193-.788 10.396.354 20.794.617 31.195.738zm-165.796 72.667c-11.784.216-23.569.35-35.356.433 8.554-.153 17.125-.241 25.703-.33q4.825-.048 9.653-.103Zm-60.55 77.351-5.564.251c18.767-.968 37.542-1.82 56.323-2.252-16.931.467-33.855 1.234-50.759 2.001Z"/>
    </g>
  </g>
  <defs>
    <clipPath id="a">
      <path fill="#fff" d="M0 75h390v591H0z"/>
    </clipPath>
  </defs>
</svg>
