<svg width="277" height="429" viewBox="0 0 277 429" fill="none" xmlns="http://www.w3.org/2000/svg">
<path d="M2.93188 164.3C2.93188 164.3 73.6069 138.725 138.157 138.7C203.207 138.7 275.357 164.3 275.357 164.3V386.925C275.357 387.959 275.153 388.983 274.758 389.939C274.362 390.894 273.782 391.762 273.051 392.494C272.319 393.225 271.451 393.805 270.496 394.201C269.54 394.597 268.516 394.8 267.482 394.8H10.8069C9.77269 394.8 8.7486 394.597 7.7931 394.201C6.8376 393.805 5.96941 393.225 5.23812 392.494C4.50684 391.762 3.92678 390.894 3.53107 389.939C3.13536 388.983 2.93175 387.959 2.93188 386.925V164.3Z" fill="#0A2660"/>
<path d="M138.257 138.7C203.282 138.7 275.382 164.3 275.382 164.3V386.925C275.382 387.959 275.178 388.983 274.783 389.939C274.387 390.894 273.807 391.762 273.076 392.494C272.344 393.225 271.476 393.805 270.521 394.201C269.565 394.597 268.541 394.8 267.507 394.8H10.8069C9.77269 394.8 8.7486 394.597 7.7931 394.201C6.8376 393.805 5.96941 393.225 5.23812 392.494C4.50684 391.762 3.92678 390.894 3.53107 389.939C3.13536 388.983 2.93175 387.959 2.93188 386.925V164.3C2.93188 164.3 73.6069 138.725 138.157 138.7H138.257ZM138.257 137.45C74.1319 137.45 3.20689 162.875 2.50689 163.125L1.68188 163.425V386.925C1.68188 391.95 5.78188 396.05 10.8069 396.05H267.482C272.507 396.05 276.607 391.95 276.607 386.925V163.425L275.782 163.125C275.057 162.875 202.757 137.45 138.257 137.45Z" fill="#0A2660"/>
<path d="M255.282 107.1C255.282 112.3 259.482 116.5 264.682 116.5V324.75H13.6069V116.5C18.7819 116.5 23.0069 112.3 23.0069 107.1C23.0069 101.9 18.8069 97.7 13.6069 97.7V13.125C13.6069 8.775 21.1319 1.25 25.4819 1.25H252.807C257.157 1.25 264.682 10.775 264.682 15.125V97.7C259.482 97.7 255.282 101.925 255.282 107.1Z" fill="#EF4B23"/>
<path d="M254.282 107.1C254.279 109.686 255.241 112.18 256.98 114.095C258.718 116.009 261.108 117.207 263.682 117.453V323.75H14.6069V117.452C19.8669 116.949 24.0069 112.515 24.0069 107.1C24.0069 101.685 19.8889 97.249 14.6069 96.747V13.125C14.6069 12.295 14.9779 11.193 15.7129 9.941C16.4359 8.71 17.4569 7.427 18.6209 6.263C19.7849 5.099 21.0669 4.079 22.2979 3.356C23.5499 2.621 24.6529 2.25 25.4819 2.25H252.807C253.571 2.25 254.643 2.69 255.909 3.614C257.142 4.514 258.432 5.778 259.606 7.194C260.78 8.61 261.814 10.148 262.549 11.579C263.3 13.039 263.682 14.278 263.682 15.125V96.748C258.4 97.252 254.282 101.71 254.282 107.1Z" fill="#EF4B23" stroke="#FFEB63" stroke-width="2"/>
<path d="M43.4439 270.998H0.691895V418.445C0.691895 423.966 5.16689 428.442 10.6879 428.442H265.597C271.118 428.442 275.593 423.966 275.593 418.445V270.998H235.34C213.173 281.64 178.439 288.492 139.392 288.492C100.345 288.492 65.6119 281.64 43.4439 270.998" fill="#3C6BFF"/>
<mask id="mask0_3_9868" style="mask-type:luminance" maskUnits="userSpaceOnUse" x="0" y="270" width="276" height="159">
<path d="M43.4439 270.998H0.691895V418.445C0.691895 423.966 5.16689 428.442 10.6879 428.442H265.597C271.118 428.442 275.593 423.966 275.593 418.445V270.998H235.34C213.173 281.64 178.439 288.492 139.392 288.492C100.345 288.492 65.6119 281.64 43.4439 270.998" fill="white"/>
</mask>
<g mask="url(#mask0_3_9868)">
<path d="M0.691895 270.998V269.749H-0.558105V270.998H0.691895ZM43.4439 270.998L43.9849 269.872L43.7289 269.749H43.4439V270.998ZM275.593 270.998H276.843V269.749H275.593V270.998ZM235.34 270.998V269.749H235.056L234.799 269.872L235.34 270.998ZM0.691895 272.248H43.4439V269.749H0.691895V272.248ZM1.94189 418.445V270.998H-0.558105V418.445H1.94189ZM10.6879 427.192C9.53922 427.192 8.4018 426.966 7.34056 426.526C6.27933 426.087 5.31506 425.442 4.50283 424.63C3.6906 423.818 3.0463 422.854 2.60672 421.792C2.16714 420.731 1.9409 419.594 1.9409 418.445H-0.558105C-0.558105 424.656 4.47689 429.691 10.6879 429.691V427.192ZM265.597 427.192H10.6879V429.691H265.597V427.192ZM274.344 418.445C274.344 419.594 274.118 420.731 273.678 421.792C273.238 422.854 272.594 423.818 271.782 424.63C270.97 425.442 270.005 426.087 268.944 426.526C267.883 426.966 266.746 427.192 265.597 427.192V429.691C271.808 429.691 276.843 424.656 276.843 418.445H274.344ZM274.344 270.998V418.445H276.843V270.998H274.344ZM235.34 272.248H275.593V269.749H235.34V272.248ZM234.799 269.872C212.856 280.405 178.325 287.242 139.392 287.242V289.742C178.552 289.742 213.489 282.874 235.881 272.125L234.799 269.872ZM139.392 287.242C100.459 287.242 65.9279 280.405 43.9849 269.872L42.9039 272.125C65.2949 282.874 100.232 289.742 139.392 289.742V287.242Z" fill="#0A2660"/>
</g>
<mask id="mask1_3_9868" style="mask-type:alpha" maskUnits="userSpaceOnUse" x="0" y="270" width="276" height="159">
<path d="M43.4439 270.998H0.691895V418.445C0.691895 423.966 5.16689 428.442 10.6879 428.442H265.597C271.118 428.442 275.593 423.966 275.593 418.445V270.998H235.34C213.173 281.64 178.439 288.492 139.392 288.492C100.345 288.492 65.6119 281.64 43.4439 270.998" fill="#3C6BFF"/>
<mask id="mask2_3_9868" style="mask-type:alpha" maskUnits="userSpaceOnUse" x="0" y="270" width="276" height="159">
<path d="M43.4439 270.998H0.691895V418.445C0.691895 423.966 5.16689 428.442 10.6879 428.442H265.597C271.118 428.442 275.593 423.966 275.593 418.445V270.998H235.34C213.173 281.64 178.439 288.492 139.392 288.492C100.345 288.492 65.6119 281.64 43.4439 270.998" fill="white"/>
</mask>
<g mask="url(#mask2_3_9868)">
<path d="M0.691895 270.998V269.749H-0.558105V270.998H0.691895ZM43.4439 270.998L43.9849 269.872L43.7289 269.749H43.4439V270.998ZM275.593 270.998H276.843V269.749H275.593V270.998ZM235.34 270.998V269.749H235.056L234.799 269.872L235.34 270.998ZM0.691895 272.248H43.4439V269.749H0.691895V272.248ZM1.94189 418.445V270.998H-0.558105V418.445H1.94189ZM10.6879 427.192C9.53922 427.192 8.4018 426.966 7.34056 426.526C6.27933 426.087 5.31506 425.442 4.50283 424.63C3.6906 423.818 3.0463 422.854 2.60672 421.792C2.16714 420.731 1.9409 419.594 1.9409 418.445H-0.558105C-0.558105 424.656 4.47689 429.691 10.6879 429.691V427.192ZM265.597 427.192H10.6879V429.691H265.597V427.192ZM274.344 418.445C274.344 419.594 274.118 420.731 273.678 421.792C273.238 422.854 272.594 423.818 271.782 424.63C270.97 425.442 270.005 426.087 268.944 426.526C267.883 426.966 266.746 427.192 265.597 427.192V429.691C271.808 429.691 276.843 424.656 276.843 418.445H274.344ZM274.344 270.998V418.445H276.843V270.998H274.344ZM235.34 272.248H275.593V269.749H235.34V272.248ZM234.799 269.872C212.856 280.405 178.325 287.242 139.392 287.242V289.742C178.552 289.742 213.489 282.874 235.881 272.125L234.799 269.872ZM139.392 287.242C100.459 287.242 65.9279 280.405 43.9849 269.872L42.9039 272.125C65.2949 282.874 100.232 289.742 139.392 289.742V287.242Z" fill="#0A2660"/>
</g>
</mask>
<g mask="url(#mask1_3_9868)">
<path d="M43.4439 270.998H0.691895V418.445C0.691895 423.966 5.16689 428.442 10.6879 428.442H265.597C271.118 428.442 275.593 423.966 275.593 418.445V270.998H235.34C213.173 281.64 178.439 288.492 139.392 288.492C100.345 288.492 65.6119 281.64 43.4439 270.998" fill="#3C6BFF"/>
<mask id="mask3_3_9868" style="mask-type:luminance" maskUnits="userSpaceOnUse" x="0" y="270" width="276" height="159">
<path d="M43.4439 270.998H0.691895V418.445C0.691895 423.966 5.16689 428.442 10.6879 428.442H265.597C271.118 428.442 275.593 423.966 275.593 418.445V270.998H235.34C213.173 281.64 178.439 288.492 139.392 288.492C100.345 288.492 65.6119 281.64 43.4439 270.998" fill="white"/>
</mask>
<g mask="url(#mask3_3_9868)">
<path d="M0.691895 270.998V269.749H-0.558105V270.998H0.691895ZM43.4439 270.998L43.9849 269.872L43.7289 269.749H43.4439V270.998ZM275.593 270.998H276.843V269.749H275.593V270.998ZM235.34 270.998V269.749H235.056L234.799 269.872L235.34 270.998ZM0.691895 272.248H43.4439V269.749H0.691895V272.248ZM1.94189 418.445V270.998H-0.558105V418.445H1.94189ZM10.6879 427.192C9.53922 427.192 8.4018 426.966 7.34056 426.526C6.27933 426.087 5.31506 425.442 4.50283 424.63C3.6906 423.818 3.0463 422.854 2.60672 421.792C2.16714 420.731 1.9409 419.594 1.9409 418.445H-0.558105C-0.558105 424.656 4.47689 429.691 10.6879 429.691V427.192ZM265.597 427.192H10.6879V429.691H265.597V427.192ZM274.344 418.445C274.344 419.594 274.118 420.731 273.678 421.792C273.238 422.854 272.594 423.818 271.782 424.63C270.97 425.442 270.005 426.087 268.944 426.526C267.883 426.966 266.746 427.192 265.597 427.192V429.691C271.808 429.691 276.843 424.656 276.843 418.445H274.344ZM274.344 270.998V418.445H276.843V270.998H274.344ZM235.34 272.248H275.593V269.749H235.34V272.248ZM234.799 269.872C212.856 280.405 178.325 287.242 139.392 287.242V289.742C178.552 289.742 213.489 282.874 235.881 272.125L234.799 269.872ZM139.392 287.242C100.459 287.242 65.9279 280.405 43.9849 269.872L42.9039 272.125C65.2949 282.874 100.232 289.742 139.392 289.742V287.242Z" fill="#0A2660"/>
</g>
<g opacity="0.32">
<path d="M3.89983 276.646C3.89983 269.699 -1.72217 264.076 -8.67017 264.076C-8.67017 271.023 -3.04717 276.646 3.89983 276.646ZM3.89983 276.646C-3.04717 276.646 -8.67017 282.269 -8.67017 289.217C-1.74817 289.217 3.87583 283.594 3.87583 276.646H3.89983Z" fill="#0033C9"/>
<path d="M16.4448 289.217C16.4448 282.269 10.8218 276.646 3.87476 276.646C3.87476 283.569 9.49675 289.192 16.4198 289.217H16.4448ZM29.0178 276.646C22.0708 276.646 16.4478 282.269 16.4478 289.217C23.3708 289.217 28.9928 283.594 28.9928 276.671L29.0178 276.646Z" fill="#0033C9"/>
<path d="M16.4738 264.076C9.52681 264.076 3.90381 269.699 3.90381 276.646C10.8508 276.646 16.4738 271.023 16.4738 264.076Z" fill="#0033C9"/>
<path d="M29.0178 276.646C29.0178 269.699 23.3948 264.101 16.4478 264.101C16.4478 271.048 22.0708 276.671 29.0178 276.671V276.646Z" fill="#0033C9"/>
<path d="M41.5817 264.076C34.6347 264.076 29.0117 269.699 29.0117 276.621C35.9587 276.621 41.5817 270.998 41.5817 264.051V264.076Z" fill="#0033C9"/>
<path d="M54.1269 276.646C54.1269 269.699 48.5039 264.076 41.5569 264.076C41.5569 271.023 47.1789 276.646 54.1269 276.646ZM54.1269 276.646C47.1789 276.646 41.5569 282.269 41.5569 289.217C48.4789 289.217 54.1019 283.594 54.1019 276.646H54.1269Z" fill="#0033C9"/>
<path d="M41.5817 289.217C41.5817 282.269 35.9587 276.646 29.0117 276.646C29.0117 283.569 34.6347 289.192 41.5567 289.192L41.5817 289.217ZM66.6997 289.217C66.6997 282.269 61.0767 276.646 54.1297 276.646C54.1297 283.569 59.7527 289.192 66.6747 289.217H66.6997Z" fill="#0033C9"/>
<path d="M66.6999 264.076C59.7529 264.076 54.1299 269.699 54.1299 276.646C61.0769 276.646 66.6999 271.023 66.6999 264.076ZM79.2739 276.646C79.2739 269.699 73.6509 264.101 66.7029 264.101C66.7029 271.048 72.3259 276.671 79.2739 276.671V276.646Z" fill="#0033C9"/>
<path d="M79.2739 276.646C72.3259 276.646 66.7029 282.269 66.7029 289.217C73.6259 289.217 79.2489 283.594 79.2489 276.671L79.2739 276.646Z" fill="#0033C9"/>
<path d="M91.8178 289.217C91.8178 282.269 86.1948 276.646 79.2478 276.646C79.2478 283.569 84.8708 289.192 91.7928 289.192L91.8178 289.217ZM91.8178 264.076C84.8708 264.076 79.2478 269.699 79.2478 276.621C86.1948 276.621 91.8178 270.998 91.8178 264.051V264.076ZM104.392 276.646C97.4438 276.646 91.8208 282.269 91.8208 289.217C98.7438 289.217 104.367 283.594 104.367 276.646H104.392ZM104.392 276.646C104.392 269.699 98.7688 264.076 91.8208 264.076C91.8208 271.023 97.4438 276.646 104.392 276.646ZM129.5 276.646C129.5 269.699 123.877 264.076 116.93 264.076C116.93 271.023 122.552 276.646 129.5 276.646ZM129.5 276.646C122.552 276.646 116.93 282.269 116.93 289.217C123.852 289.217 129.475 283.594 129.475 276.646H129.5Z" fill="#0033C9"/>
<path d="M116.936 289.217C116.936 282.269 111.313 276.646 104.366 276.646C104.366 283.594 109.989 289.192 116.911 289.217H116.936Z" fill="#0033C9"/>
<path d="M116.936 264.076C109.989 264.076 104.366 269.699 104.366 276.646C111.313 276.646 116.936 271.023 116.936 264.076ZM142.054 289.217C142.054 282.269 136.431 276.646 129.484 276.646C129.484 283.569 135.107 289.192 142.029 289.217H142.054ZM154.618 276.646C154.618 269.699 148.995 264.101 142.047 264.101C142.047 271.048 147.67 276.671 154.618 276.671V276.646Z" fill="#0033C9"/>
<path d="M142.074 264.076C135.126 264.076 129.503 269.699 129.503 276.646C136.451 276.646 142.074 271.023 142.074 264.076ZM154.618 276.646C147.67 276.646 142.047 282.269 142.047 289.217C148.97 289.217 154.593 283.594 154.593 276.671L154.618 276.646ZM179.736 276.646C179.736 269.699 174.113 264.076 167.165 264.076C167.165 271.023 172.788 276.646 179.736 276.646ZM167.192 289.217C167.192 282.269 161.569 276.646 154.621 276.646C154.621 283.569 160.244 289.192 167.167 289.192L167.192 289.217Z" fill="#0033C9"/>
<path d="M179.736 276.646C172.788 276.646 167.165 282.269 167.165 289.217C174.088 289.217 179.711 283.594 179.711 276.646H179.736ZM167.192 264.076C160.244 264.076 154.621 269.699 154.621 276.621C161.569 276.621 167.192 270.998 167.192 264.051V264.076ZM204.873 276.646C197.926 276.646 192.303 282.269 192.303 289.217C199.225 289.217 204.848 283.594 204.848 276.646H204.873Z" fill="#0033C9"/>
<path d="M192.31 289.217C192.31 282.269 186.687 276.646 179.739 276.646C179.739 283.594 185.362 289.192 192.285 289.217H192.31ZM204.873 276.646C204.873 269.699 199.25 264.076 192.303 264.076C192.303 271.023 197.926 276.646 204.873 276.646Z" fill="#0033C9"/>
<path d="M192.31 264.076C185.362 264.076 179.739 269.699 179.739 276.646C186.687 276.646 192.31 271.023 192.31 264.076ZM229.991 276.646C229.991 269.699 224.368 264.101 217.421 264.101C217.421 271.048 223.044 276.671 229.991 276.671V276.646Z" fill="#0033C9"/>
<path d="M217.427 264.076C210.48 264.076 204.857 269.699 204.857 276.646C211.805 276.646 217.427 271.023 217.427 264.076Z" fill="#0033C9"/>
<path d="M217.427 289.217C217.427 282.269 211.805 276.646 204.857 276.646C204.857 283.569 210.48 289.192 217.403 289.217H217.427Z" fill="#0033C9"/>
<path d="M229.991 276.646C223.044 276.646 217.421 282.269 217.421 289.217C224.343 289.217 229.966 283.594 229.966 276.671L229.991 276.646ZM242.565 264.076C235.617 264.076 229.994 269.699 229.994 276.621C236.942 276.621 242.565 270.998 242.565 264.051V264.076Z" fill="#0033C9"/>
<path d="M255.109 276.646C255.109 269.699 249.486 264.076 242.539 264.076C242.539 271.023 248.162 276.646 255.109 276.646ZM255.109 276.646C248.162 276.646 242.539 282.269 242.539 289.217C249.461 289.217 255.084 283.594 255.084 276.646H255.109ZM242.536 289.217C242.536 282.269 236.913 276.646 229.965 276.646C229.965 283.569 235.588 289.192 242.511 289.192L242.536 289.217ZM267.683 289.217C267.683 282.269 262.06 276.646 255.112 276.646C255.112 283.569 260.735 289.192 267.658 289.217H267.683ZM280.227 276.646C280.227 269.699 274.604 264.076 267.657 264.076C267.657 271.023 273.28 276.646 280.227 276.646Z" fill="#0033C9"/>
<path d="M267.683 264.076C260.735 264.076 255.112 269.699 255.112 276.646C262.06 276.646 267.683 271.023 267.683 264.076ZM280.227 276.646C273.28 276.646 267.657 282.269 267.657 289.217C274.579 289.217 280.202 283.594 280.202 276.646H280.227ZM3.89483 301.762C3.89483 294.84 -1.72817 289.217 -8.65117 289.192C-8.65117 296.139 -3.02817 301.762 3.91983 301.762H3.89483ZM3.89983 301.762C-3.04717 301.762 -8.67017 307.385 -8.67017 314.333C-1.72217 314.333 3.89983 308.71 3.89983 301.762ZM29.0128 301.762C29.0128 294.84 23.3898 289.217 16.4668 289.217C16.4668 296.164 22.0898 301.787 29.0378 301.787L29.0128 301.762Z" fill="#0033C9"/>
<path d="M29.0178 301.762C22.0708 301.762 16.4478 307.385 16.4478 314.333C23.3948 314.333 29.0178 308.71 29.0178 301.787V301.762Z" fill="#0033C9"/>
<path d="M16.4738 314.333C16.4738 307.385 10.8508 301.762 3.90381 301.762C3.90381 308.71 9.52681 314.308 16.4738 314.333ZM3.90381 301.762C10.8508 301.762 16.4738 296.139 16.4738 289.192C9.55181 289.192 3.92881 294.815 3.92881 301.762H3.90381ZM54.1308 301.762C54.1308 294.84 48.5078 289.217 41.5848 289.192C41.5848 296.139 47.2078 301.762 54.1558 301.762H54.1308ZM41.5818 314.333C41.5818 307.385 35.9588 301.762 29.0118 301.762C29.0118 308.71 34.6348 314.308 41.5818 314.308V314.333ZM29.0118 301.762C35.9588 301.762 41.5818 296.139 41.5818 289.192C34.6598 289.192 29.0368 294.815 29.0368 301.737L29.0118 301.762Z" fill="#0033C9"/>
<path d="M54.1269 301.762C47.1789 301.762 41.5569 307.385 41.5569 314.333C48.5039 314.333 54.1269 308.71 54.1269 301.762ZM54.1299 301.762C61.0769 301.762 66.6999 296.139 66.6999 289.192C59.7779 289.192 54.1549 294.815 54.1549 301.762H54.1299ZM66.6999 314.333C66.6999 307.385 61.0769 301.762 54.1299 301.762C54.1299 308.71 59.7529 314.333 66.6999 314.333ZM79.2679 301.762C79.2679 294.84 73.6449 289.217 66.7229 289.217C66.7229 296.164 72.3459 301.787 79.2929 301.787L79.2679 301.762Z" fill="#0033C9"/>
<path d="M79.2739 301.762C72.3259 301.762 66.7029 307.385 66.7029 314.333C73.6509 314.333 79.2489 308.71 79.2739 301.787V301.762Z" fill="#0033C9"/>
<path d="M91.8178 314.333C91.8178 307.385 86.1948 301.762 79.2478 301.762C79.2478 308.685 84.8708 314.308 91.8178 314.308V314.333ZM79.2768 301.762C86.2238 301.762 91.8468 296.139 91.8468 289.192C84.9248 289.192 79.3018 294.815 79.3018 301.737L79.2768 301.762Z" fill="#0033C9"/>
<path d="M104.386 301.762C104.386 294.815 98.7628 289.217 91.8408 289.192C91.8408 296.139 97.4638 301.762 104.411 301.762H104.386ZM104.392 301.762C97.4438 301.762 91.8208 307.385 91.8208 314.333C98.7688 314.333 104.392 308.71 104.392 301.762ZM129.5 301.762C122.552 301.762 116.93 307.385 116.93 314.333C123.877 314.333 129.5 308.71 129.5 301.762Z" fill="#0033C9"/>
<path d="M116.936 314.333C116.936 307.385 111.313 301.762 104.366 301.762C104.366 308.71 109.989 314.333 116.936 314.333ZM104.385 301.762C111.333 301.762 116.956 296.139 116.956 289.192C110.033 289.192 104.41 294.815 104.41 301.762H104.385ZM129.504 301.762C129.504 294.84 123.881 289.217 116.959 289.192C116.959 296.139 122.582 301.762 129.529 301.762H129.504ZM142.074 314.333C142.074 307.385 136.452 301.762 129.504 301.762C129.504 308.71 135.126 314.308 142.074 314.333Z" fill="#0033C9"/>
<path d="M154.618 301.762C147.67 301.762 142.047 307.385 142.047 314.333C148.995 314.333 154.593 308.71 154.618 301.787V301.762Z" fill="#0033C9"/>
<path d="M154.622 301.762C154.622 294.84 148.999 289.217 142.077 289.217C142.077 296.164 147.7 301.787 154.647 301.787L154.622 301.762ZM129.503 301.762C136.451 301.762 142.074 296.139 142.074 289.192C135.151 289.192 129.528 294.815 129.528 301.762H129.503ZM179.736 301.762C172.788 301.762 167.165 307.385 167.165 314.333C174.113 314.333 179.736 308.71 179.736 301.762ZM179.74 301.762C179.74 294.815 174.117 289.217 167.195 289.192C167.195 296.139 172.818 301.762 179.765 301.762H179.74Z" fill="#0033C9"/>
<path d="M167.192 314.333C167.192 307.385 161.569 301.762 154.621 301.762C154.621 308.685 160.244 314.308 167.192 314.308V314.333ZM154.621 301.762C161.569 301.762 167.192 296.139 167.192 289.192C160.269 289.192 154.646 294.815 154.646 301.737L154.621 301.762ZM179.739 301.762C186.687 301.762 192.31 296.139 192.31 289.192C185.387 289.192 179.764 294.815 179.764 301.762H179.739ZM192.31 314.333C192.31 307.385 186.687 301.762 179.739 301.762C179.739 308.71 185.362 314.333 192.31 314.333Z" fill="#0033C9"/>
<path d="M204.873 301.762C197.926 301.762 192.303 307.385 192.303 314.333C199.25 314.333 204.873 308.71 204.873 301.762ZM204.878 301.762C204.878 294.84 199.255 289.217 192.332 289.192C192.332 296.139 197.955 301.762 204.903 301.762H204.878ZM229.991 301.762C223.044 301.762 217.421 307.385 217.421 314.333C224.368 314.333 229.966 308.71 229.991 301.787V301.762Z" fill="#0033C9"/>
<path d="M217.427 314.333C217.427 307.385 211.805 301.762 204.857 301.762C204.857 308.71 210.48 314.333 217.427 314.333ZM204.876 301.762C211.824 301.762 217.447 296.139 217.447 289.192C210.524 289.192 204.901 294.815 204.901 301.762H204.876ZM229.996 301.762C229.996 294.84 224.373 289.217 217.45 289.217C217.45 296.164 223.073 301.787 230.021 301.787L229.996 301.762Z" fill="#0033C9"/>
<path d="M242.536 314.333C242.536 307.385 236.913 301.762 229.965 301.762C229.965 308.71 235.588 314.308 242.536 314.308V314.333ZM255.114 301.762C255.114 294.84 249.491 289.217 242.568 289.192C242.568 296.139 248.191 301.762 255.139 301.762H255.114ZM255.109 301.762C248.162 301.762 242.539 307.385 242.539 314.333C249.486 314.333 255.109 308.71 255.109 301.762ZM229.994 301.762C236.942 301.762 242.565 296.139 242.565 289.192C235.642 289.192 230.019 294.815 230.019 301.737L229.994 301.762ZM280.222 301.762C280.222 294.84 274.599 289.217 267.676 289.192C267.676 296.139 273.299 301.762 280.247 301.762H280.222Z" fill="#0033C9"/>
<path d="M255.112 301.762C262.06 301.762 267.683 296.139 267.683 289.192C260.76 289.192 255.137 294.815 255.137 301.762H255.112ZM267.683 314.333C267.683 307.385 262.06 301.762 255.112 301.762C255.112 308.71 260.735 314.308 267.683 314.333Z" fill="#0033C9"/>
<path d="M280.227 301.762C273.28 301.762 267.657 307.385 267.657 314.333C274.604 314.333 280.227 308.71 280.227 301.762ZM3.89983 326.903C-3.04717 326.903 -8.67017 332.526 -8.67017 339.474C-1.72217 339.474 3.87583 333.851 3.89983 326.903ZM3.89983 326.878C3.89983 319.931 -1.72217 314.333 -8.67017 314.308C-8.67017 321.255 -3.04717 326.878 3.89983 326.878ZM3.90383 326.878C10.8508 326.878 16.4738 321.255 16.4738 314.308C9.52683 314.308 3.90383 319.931 3.90383 326.878Z" fill="#0033C9"/>
<path d="M16.4448 339.449C16.4448 332.501 10.8218 326.878 3.87476 326.878C3.87476 333.826 9.49676 339.424 16.4448 339.449ZM29.0178 326.878C29.0178 319.931 23.3948 314.333 16.4478 314.333C16.4478 321.28 22.0708 326.903 29.0178 326.903V326.878ZM29.0178 326.903C22.0708 326.903 16.4478 332.526 16.4478 339.474C23.3948 339.474 28.9928 333.851 29.0178 326.928V326.903Z" fill="#0033C9"/>
<path d="M29.0117 326.878C35.9587 326.878 41.5817 321.255 41.5817 314.308C34.6347 314.308 29.0117 319.931 29.0117 326.853V326.878Z" fill="#0033C9"/>
<path d="M54.1269 326.878C54.1269 319.931 48.5039 314.308 41.5569 314.308C41.5569 321.255 47.1789 326.878 54.1269 326.878ZM54.1269 326.903C47.1789 326.903 41.5569 332.526 41.5569 339.474C48.5039 339.474 54.1269 333.851 54.1269 326.903Z" fill="#0033C9"/>
<path d="M41.5817 339.449C41.5817 332.501 35.9587 326.878 29.0117 326.878C29.0117 333.826 34.6347 339.424 41.5817 339.424V339.449ZM66.6997 339.449C66.6997 332.501 61.0767 326.878 54.1297 326.878C54.1297 333.826 59.7527 339.449 66.6997 339.449ZM79.2737 326.878C79.2737 319.956 73.6507 314.333 66.7027 314.333C66.7027 321.28 72.3257 326.903 79.2737 326.903V326.878ZM54.1297 326.878C61.0767 326.878 66.6997 321.255 66.6997 314.308C59.7527 314.308 54.1297 319.931 54.1297 326.878ZM79.2737 326.903C72.3257 326.903 66.7027 332.526 66.7027 339.474C73.6257 339.474 79.2487 333.851 79.2737 326.928V326.903Z" fill="#0033C9"/>
<path d="M91.8178 339.449C91.8178 332.501 86.1948 326.878 79.2478 326.878C79.2478 333.801 84.8708 339.424 91.8178 339.424V339.449ZM104.392 326.878C104.392 319.931 98.7688 314.308 91.8208 314.308C91.8208 321.255 97.4438 326.878 104.392 326.878Z" fill="#0033C9"/>
<path d="M79.2769 326.878C86.2239 326.878 91.8469 321.255 91.8469 314.308C84.8999 314.308 79.3019 319.931 79.2769 326.853V326.878ZM104.392 326.903C97.4439 326.903 91.8209 332.526 91.8209 339.474C98.7689 339.474 104.392 333.851 104.392 326.903Z" fill="#0033C9"/>
<path d="M116.936 339.449C116.936 332.501 111.313 326.878 104.366 326.878C104.366 333.826 109.989 339.449 116.936 339.449ZM129.5 326.878C129.5 319.931 123.877 314.333 116.93 314.308C116.93 321.255 122.552 326.878 129.5 326.878Z" fill="#0033C9"/>
<path d="M104.385 326.878C111.333 326.878 116.956 321.255 116.956 314.308C110.008 314.308 104.385 319.931 104.385 326.878ZM129.5 326.903C122.552 326.903 116.93 332.526 116.93 339.474C123.877 339.474 129.475 333.851 129.5 326.903ZM154.618 326.903C147.67 326.903 142.047 332.526 142.047 339.474C148.97 339.474 154.593 333.851 154.618 326.928V326.903ZM154.618 326.878C154.618 319.956 148.995 314.333 142.047 314.333C142.047 321.28 147.67 326.903 154.618 326.903V326.878Z" fill="#0033C9"/>
<path d="M129.503 326.878C136.451 326.878 142.074 321.255 142.074 314.308C135.126 314.308 129.503 319.931 129.503 326.878ZM142.074 339.449C142.074 332.501 136.451 326.878 129.503 326.878C129.503 333.826 135.126 339.424 142.074 339.449ZM167.192 339.449C167.192 332.501 161.569 326.878 154.621 326.878C154.621 333.801 160.244 339.424 167.192 339.424V339.449ZM154.621 326.878C161.569 326.878 167.192 321.255 167.192 314.308C160.244 314.308 154.646 319.931 154.621 326.853V326.878Z" fill="#0033C9"/>
<path d="M179.736 326.903C172.788 326.903 167.165 332.526 167.165 339.474C174.113 339.474 179.736 333.851 179.736 326.903ZM179.736 326.878C179.736 319.931 174.113 314.308 167.165 314.308C167.165 321.255 172.788 326.878 179.736 326.878ZM204.873 326.903C197.926 326.903 192.303 332.526 192.303 339.474C199.25 339.474 204.873 333.851 204.873 326.903Z" fill="#0033C9"/>
<path d="M192.31 339.449C192.31 332.501 186.687 326.878 179.739 326.878C179.739 333.826 185.362 339.449 192.31 339.449ZM204.873 326.878C204.873 319.931 199.25 314.308 192.303 314.308C192.303 321.255 197.926 326.878 204.873 326.878Z" fill="#0033C9"/>
<path d="M179.739 326.878C186.687 326.878 192.31 321.255 192.31 314.308C185.362 314.308 179.739 319.931 179.739 326.878ZM229.991 326.878C229.991 319.931 224.368 314.333 217.421 314.333C217.421 321.28 223.044 326.903 229.991 326.903V326.878ZM229.991 326.903C223.044 326.903 217.421 332.526 217.421 339.474C224.368 339.474 229.966 333.851 229.991 326.928V326.903Z" fill="#0033C9"/>
<path d="M204.876 326.878C211.824 326.878 217.447 321.255 217.447 314.308C210.499 314.308 204.876 319.931 204.876 326.878ZM217.427 339.449C217.427 332.501 211.805 326.878 204.857 326.878C204.857 333.826 210.48 339.449 217.427 339.449ZM242.536 339.449C242.536 332.501 236.913 326.878 229.965 326.878C229.965 333.801 235.588 339.424 242.536 339.424V339.449ZM229.994 326.878C236.942 326.878 242.565 321.255 242.565 314.308C235.617 314.308 230.019 319.931 229.994 326.853V326.878ZM255.109 326.903C248.162 326.903 242.539 332.526 242.539 339.474C249.486 339.474 255.084 333.851 255.109 326.903Z" fill="#0033C9"/>
<path d="M255.109 326.878C255.109 319.931 249.486 314.333 242.539 314.308C242.539 321.255 248.162 326.878 255.109 326.878ZM267.683 339.449C267.683 332.501 262.06 326.878 255.112 326.878C255.112 333.826 260.735 339.424 267.683 339.449Z" fill="#0033C9"/>
<path d="M280.227 326.903C273.28 326.903 267.657 332.526 267.657 339.474C274.604 339.474 280.202 333.851 280.227 326.903ZM280.227 326.878C280.227 319.931 274.604 314.333 267.657 314.308C267.657 321.255 273.28 326.878 280.227 326.878Z" fill="#0033C9"/>
<path d="M255.112 326.878C262.06 326.878 267.683 321.255 267.683 314.308C260.735 314.308 255.112 319.931 255.112 326.878ZM3.89983 352.019C-3.04717 352.019 -8.67017 357.642 -8.67017 364.589C-1.74817 364.589 3.87583 358.966 3.87583 352.019H3.89983ZM3.89983 352.019C3.89983 345.071 -1.72217 339.473 -8.67017 339.448C-8.67017 346.396 -3.04717 352.019 3.89983 352.019ZM3.90383 352.019C10.8508 352.019 16.4738 346.396 16.4738 339.448C9.52683 339.448 3.92883 345.071 3.90383 352.019Z" fill="#0033C9"/>
<path d="M29.0178 352.019C29.0178 345.071 23.3948 339.473 16.4478 339.473C16.4478 346.421 22.0708 352.044 29.0178 352.044V352.019Z" fill="#0033C9"/>
<path d="M29.0178 352.019C22.0708 352.019 16.4478 357.642 16.4478 364.589C23.3708 364.589 28.9928 358.966 28.9928 352.044L29.0178 352.019ZM16.4448 364.564C16.4448 357.617 10.8218 351.994 3.87476 351.994C3.87476 358.916 9.49675 364.539 16.4198 364.564H16.4448ZM54.1268 352.019C54.1268 345.071 48.5038 339.448 41.5568 339.448C41.5568 346.396 47.1788 352.019 54.1268 352.019Z" fill="#0033C9"/>
<path d="M41.5817 364.564C41.5817 357.617 35.9587 351.994 29.0117 351.994C29.0117 358.916 34.6347 364.539 41.5567 364.539L41.5817 364.564Z" fill="#0033C9"/>
<path d="M54.1267 352.019C47.1787 352.019 41.5567 357.642 41.5567 364.589C48.4787 364.589 54.1017 358.966 54.1017 352.019H54.1267ZM29.0117 352.019C35.9587 352.019 41.5817 346.396 41.5817 339.448C34.6347 339.448 29.0367 345.071 29.0117 351.994V352.019ZM79.2737 352.019C72.3257 352.019 66.7027 357.642 66.7027 364.589C73.6257 364.589 79.2487 358.966 79.2487 352.044L79.2737 352.019ZM66.6997 364.564C66.6997 357.617 61.0767 351.994 54.1297 351.994C54.1297 358.941 59.7527 364.539 66.6747 364.564H66.6997Z" fill="#0033C9"/>
<path d="M54.1299 352.019C61.0769 352.019 66.6999 346.396 66.6999 339.448C59.7529 339.448 54.1299 345.071 54.1299 352.019ZM79.2739 352.019C79.2739 345.096 73.6509 339.473 66.7029 339.473C66.7029 346.421 72.3259 352.044 79.2739 352.044V352.019ZM104.392 352.019C97.4439 352.019 91.8209 357.642 91.8209 364.589C98.7689 364.589 104.367 358.966 104.367 352.019H104.392Z" fill="#0033C9"/>
<path d="M91.8178 364.564C91.8178 357.617 86.1948 351.994 79.2478 351.994C79.2478 358.916 84.8708 364.539 91.7928 364.539L91.8178 364.564ZM104.392 352.019C104.392 345.071 98.7688 339.448 91.8208 339.448C91.8208 346.396 97.4438 352.019 104.392 352.019Z" fill="#0033C9"/>
<path d="M79.2769 352.019C86.2239 352.019 91.8469 346.396 91.8469 339.448C84.9249 339.448 79.3019 345.071 79.2769 351.994V352.019ZM129.5 352.019C129.5 345.071 123.877 339.473 116.93 339.448C116.93 346.396 122.552 352.019 129.5 352.019Z" fill="#0033C9"/>
<path d="M104.385 352.019C111.333 352.019 116.956 346.396 116.956 339.448C110.008 339.448 104.385 345.071 104.385 352.019ZM129.5 352.019C122.552 352.019 116.93 357.642 116.93 364.589C123.852 364.589 129.475 358.966 129.475 352.019H129.5Z" fill="#0033C9"/>
<path d="M116.936 364.564C116.936 357.617 111.313 351.994 104.366 351.994C104.366 358.941 109.989 364.539 116.911 364.564H116.936ZM142.074 364.564C142.074 357.617 136.451 351.994 129.503 351.994C129.503 358.916 135.126 364.539 142.049 364.564H142.074Z" fill="#0033C9"/>
<path d="M154.618 352.019C147.67 352.019 142.047 357.642 142.047 364.589C148.97 364.589 154.593 358.966 154.593 352.044L154.618 352.019Z" fill="#0033C9"/>
<path d="M154.618 352.019C154.618 345.096 148.995 339.473 142.047 339.473C142.047 346.421 147.67 352.044 154.618 352.044V352.019Z" fill="#0033C9"/>
<path d="M129.503 352.019C136.451 352.019 142.074 346.396 142.074 339.448C135.126 339.448 129.528 345.071 129.503 352.019ZM179.736 352.019C179.736 345.071 174.113 339.448 167.165 339.448C167.165 346.396 172.788 352.019 179.736 352.019Z" fill="#0033C9"/>
<path d="M154.621 352.019C161.569 352.019 167.192 346.396 167.192 339.448C160.269 339.448 154.646 345.071 154.621 351.994V352.019Z" fill="#0033C9"/>
<path d="M167.192 364.564C167.192 357.617 161.569 351.994 154.621 351.994C154.621 358.916 160.244 364.539 167.167 364.539L167.192 364.564Z" fill="#0033C9"/>
<path d="M179.736 352.019C172.788 352.019 167.165 357.642 167.165 364.589C174.113 364.589 179.711 358.966 179.711 352.019H179.736ZM204.873 352.019C197.926 352.019 192.303 357.642 192.303 364.589C199.225 364.589 204.848 358.966 204.848 352.019H204.873Z" fill="#0033C9"/>
<path d="M192.31 364.564C192.31 357.617 186.687 351.994 179.739 351.994C179.739 358.941 185.362 364.539 192.285 364.564H192.31Z" fill="#0033C9"/>
<path d="M179.739 352.019C186.687 352.019 192.31 346.396 192.31 339.448C185.362 339.448 179.739 345.071 179.739 352.019Z" fill="#0033C9"/>
<path d="M204.873 352.019C204.873 345.071 199.25 339.448 192.303 339.448C192.303 346.396 197.926 352.019 204.873 352.019ZM229.991 352.019C223.044 352.019 217.421 357.642 217.421 364.589C224.343 364.589 229.966 358.966 229.966 352.044L229.991 352.019Z" fill="#0033C9"/>
<path d="M217.427 364.564C217.427 357.617 211.805 351.994 204.857 351.994C204.857 358.941 210.48 364.539 217.403 364.564H217.427ZM229.991 352.019C229.991 345.096 224.368 339.473 217.421 339.473C217.421 346.421 223.044 352.044 229.991 352.044V352.019Z" fill="#0033C9"/>
<path d="M204.876 352.019C211.824 352.019 217.447 346.396 217.447 339.448C210.499 339.448 204.876 345.071 204.876 352.019ZM229.994 352.019C236.942 352.019 242.565 346.396 242.565 339.448C235.617 339.448 230.019 345.071 229.994 351.994V352.019ZM255.109 352.019C248.162 352.019 242.539 357.642 242.539 364.589C249.461 364.589 255.084 358.966 255.084 352.019H255.109Z" fill="#0033C9"/>
<path d="M242.536 364.564C242.536 357.617 236.913 351.994 229.965 351.994C229.965 358.916 235.588 364.539 242.511 364.539L242.536 364.564ZM255.109 352.019C255.109 345.071 249.486 339.473 242.539 339.448C242.539 346.396 248.162 352.019 255.109 352.019ZM255.112 352.019C262.06 352.019 267.683 346.396 267.683 339.448C260.735 339.448 255.137 345.071 255.112 352.019Z" fill="#0033C9"/>
<path d="M280.227 352.019C280.227 345.071 274.604 339.473 267.657 339.448C267.657 346.396 273.28 352.019 280.227 352.019ZM280.227 352.019C273.28 352.019 267.657 357.642 267.657 364.589C274.579 364.589 280.202 358.966 280.202 352.019H280.227Z" fill="#0033C9"/>
<path d="M267.683 364.564C267.683 357.617 262.06 351.994 255.112 351.994C255.112 358.916 260.735 364.539 267.658 364.564H267.683ZM-8.67017 364.564C-8.67017 371.512 -3.04717 377.135 3.89983 377.135C3.89983 370.212 -1.72217 364.589 -8.64517 364.564H-8.67017Z" fill="#0033C9"/>
<path d="M3.89983 377.135C-3.04717 377.135 -8.67017 382.758 -8.67017 389.706C-1.72217 389.706 3.87583 384.083 3.89983 377.135ZM29.0178 377.135C22.0708 377.135 16.4478 382.758 16.4478 389.706C23.3948 389.706 28.9928 384.083 29.0178 377.16V377.135Z" fill="#0033C9"/>
<path d="M29.0128 377.135C29.0128 370.212 23.3898 364.589 16.4668 364.589C16.4668 371.537 22.0898 377.16 29.0378 377.16L29.0128 377.135Z" fill="#0033C9"/>
<path d="M16.4689 364.564C9.54585 364.564 3.92285 370.187 3.92285 377.135C10.8709 377.135 16.4928 371.512 16.4928 364.564H16.4689Z" fill="#0033C9"/>
<path d="M16.4448 389.706C16.4448 382.758 10.8218 377.135 3.87476 377.135C3.87476 384.083 9.49676 389.681 16.4448 389.706ZM41.5818 389.706C41.5818 382.758 35.9588 377.135 29.0118 377.135C29.0118 384.083 34.6348 389.681 41.5818 389.681V389.706ZM29.0118 377.135C35.9588 377.135 41.5818 371.512 41.5818 364.564C34.6598 364.564 29.0368 370.187 29.0368 377.11L29.0118 377.135ZM54.1308 377.135C54.1308 370.187 48.5078 364.589 41.5848 364.564C41.5848 371.512 47.2078 377.135 54.1558 377.135H54.1308Z" fill="#0033C9"/>
<path d="M54.1269 377.135C47.1789 377.135 41.5569 382.758 41.5569 389.706C48.5039 389.706 54.1019 384.083 54.1269 377.135ZM79.2739 377.135C72.3259 377.135 66.7029 382.758 66.7029 389.706C73.6259 389.706 79.2489 384.083 79.2739 377.16V377.135ZM54.1299 377.135C61.0769 377.135 66.6999 371.512 66.6999 364.564C59.7779 364.564 54.1549 370.187 54.1549 377.135H54.1299Z" fill="#0033C9"/>
<path d="M79.2679 377.135C79.2679 370.212 73.6449 364.589 66.7229 364.589C66.7229 371.537 72.3459 377.16 79.2929 377.16L79.2679 377.135ZM66.6999 389.706C66.6999 382.758 61.0769 377.135 54.1299 377.135C54.1299 384.083 59.7529 389.681 66.6999 389.706Z" fill="#0033C9"/>
<path d="M79.2768 377.135C86.2238 377.135 91.8468 371.512 91.8468 364.564C84.9248 364.564 79.3018 370.187 79.3018 377.11L79.2768 377.135ZM91.8178 389.706C91.8178 382.758 86.1948 377.135 79.2478 377.135C79.2478 384.058 84.8708 389.681 91.8178 389.681V389.706ZM104.392 377.135C97.4438 377.135 91.8208 382.758 91.8208 389.706C98.7688 389.706 104.367 384.083 104.392 377.135Z" fill="#0033C9"/>
<path d="M104.386 377.135C104.386 370.187 98.7628 364.589 91.8408 364.564C91.8408 371.512 97.4638 377.135 104.411 377.135H104.386ZM129.504 377.135C129.504 370.212 123.881 364.589 116.959 364.564C116.959 371.512 122.582 377.135 129.529 377.135H129.504Z" fill="#0033C9"/>
<path d="M104.385 377.135C111.333 377.135 116.956 371.512 116.956 364.564C110.008 364.564 104.41 370.187 104.41 377.135H104.385ZM129.5 377.135C122.552 377.135 116.93 382.758 116.93 389.706C123.877 389.706 129.475 384.083 129.5 377.135Z" fill="#0033C9"/>
<path d="M116.936 389.706C116.936 382.758 111.313 377.135 104.366 377.135C104.366 384.083 109.989 389.706 116.936 389.706ZM154.622 377.135C154.622 370.212 148.999 364.589 142.077 364.589C142.077 371.537 147.7 377.16 154.647 377.16L154.622 377.135ZM129.503 377.135C136.451 377.135 142.074 371.512 142.074 364.564C135.151 364.564 129.528 370.187 129.528 377.135H129.503Z" fill="#0033C9"/>
<path d="M154.618 377.135C147.67 377.135 142.047 382.758 142.047 389.706C148.97 389.706 154.593 384.083 154.618 377.16V377.135Z" fill="#0033C9"/>
<path d="M142.074 389.706C142.074 382.758 136.451 377.135 129.503 377.135C129.503 384.083 135.126 389.681 142.074 389.706ZM167.192 389.706C167.192 382.758 161.569 377.135 154.621 377.135C154.621 384.058 160.244 389.681 167.192 389.681V389.706ZM179.74 377.135C179.74 370.187 174.117 364.589 167.195 364.564C167.195 371.512 172.818 377.135 179.765 377.135H179.74Z" fill="#0033C9"/>
<path d="M179.736 377.135C172.788 377.135 167.165 382.758 167.165 389.706C174.113 389.706 179.711 384.083 179.736 377.135ZM154.621 377.135C161.569 377.135 167.192 371.512 167.192 364.564C160.269 364.564 154.646 370.187 154.646 377.11L154.621 377.135ZM192.31 389.706C192.31 382.758 186.687 377.135 179.739 377.135C179.739 384.083 185.362 389.706 192.31 389.706ZM204.878 377.135C204.878 370.187 199.255 364.589 192.332 364.564C192.332 371.512 197.955 377.135 204.903 377.135H204.878Z" fill="#0033C9"/>
<path d="M204.873 377.135C197.926 377.135 192.303 382.758 192.303 389.706C199.25 389.706 204.848 384.083 204.873 377.135ZM179.739 377.135C186.687 377.135 192.31 371.512 192.31 364.564C185.362 364.564 179.764 370.187 179.764 377.135H179.739ZM229.996 377.135C229.996 370.212 224.373 364.589 217.45 364.589C217.45 371.537 223.073 377.16 230.021 377.16L229.996 377.135ZM204.876 377.135C211.824 377.135 217.447 371.512 217.447 364.564C210.524 364.564 204.901 370.187 204.901 377.135H204.876Z" fill="#0033C9"/>
<path d="M229.991 377.135C223.044 377.135 217.421 382.758 217.421 389.706C224.343 389.706 229.966 384.083 229.991 377.16V377.135Z" fill="#0033C9"/>
<path d="M217.427 389.706C217.427 382.758 211.805 377.135 204.857 377.135C204.857 384.083 210.48 389.681 217.427 389.706ZM255.109 377.135C248.162 377.135 242.539 382.758 242.539 389.706C249.486 389.706 255.084 384.083 255.109 377.135ZM255.114 377.135C255.114 370.212 249.491 364.589 242.568 364.564C242.568 371.512 248.191 377.135 255.139 377.135H255.114ZM242.536 389.706C242.536 382.758 236.913 377.135 229.965 377.135C229.965 384.058 235.588 389.681 242.536 389.681V389.706ZM229.994 377.135C236.942 377.135 242.565 371.512 242.565 364.564C235.642 364.564 230.019 370.187 230.019 377.11L229.994 377.135ZM280.222 377.135C280.222 370.212 274.599 364.589 267.676 364.564C267.676 371.512 273.299 377.135 280.247 377.135H280.222ZM267.683 389.706C267.683 382.758 262.06 377.135 255.112 377.135C255.112 384.083 260.735 389.681 267.683 389.706Z" fill="#0033C9"/>
<path d="M280.227 377.135C273.28 377.135 267.657 382.758 267.657 389.706C274.604 389.706 280.202 384.083 280.227 377.135ZM255.112 377.135C262.06 377.135 267.683 371.512 267.683 364.564C260.76 364.564 255.137 370.187 255.137 377.135H255.112ZM3.89983 402.251C-3.04717 402.251 -8.67017 407.874 -8.67017 414.822C-1.72217 414.822 3.87583 409.199 3.87583 402.251H3.89983Z" fill="#0033C9"/>
<path d="M-8.67017 389.706C-8.67017 396.653 -3.04717 402.276 3.89983 402.276C3.89983 395.329 -1.72217 389.731 -8.67017 389.706ZM16.4678 389.706C16.4678 396.653 22.0898 402.276 29.0378 402.276C29.0378 395.329 23.4148 389.731 16.4678 389.731V389.706Z" fill="#0033C9"/>
<path d="M29.0178 402.251C22.0708 402.251 16.4478 407.874 16.4478 414.822C23.3708 414.822 28.9928 409.199 28.9928 402.276L29.0178 402.251ZM16.4738 389.706C9.52681 389.706 3.92881 395.329 3.90381 402.276C10.8508 402.276 16.4738 396.653 16.4738 389.706Z" fill="#0033C9"/>
<path d="M16.4448 414.822C16.4448 407.874 10.8218 402.251 3.87476 402.251C3.87476 409.199 9.49675 414.797 16.4198 414.822H16.4448ZM41.5818 389.706C34.6348 389.706 29.0368 395.329 29.0118 402.251C35.9588 402.251 41.5818 396.628 41.5818 389.681V389.706ZM54.1268 402.251C47.1788 402.251 41.5568 407.874 41.5568 414.822C48.5038 414.822 54.1018 409.199 54.1018 402.251H54.1268Z" fill="#0033C9"/>
<path d="M54.1267 402.251C54.1267 395.304 48.5037 389.706 41.5567 389.681C41.5567 396.628 47.1787 402.251 54.1267 402.251ZM41.5817 414.822C41.5817 407.874 35.9587 402.251 29.0117 402.251C29.0117 409.174 34.6347 414.797 41.5567 414.797L41.5817 414.822ZM54.1297 402.251C61.0767 402.251 66.6997 396.628 66.6997 389.681C59.7527 389.681 54.1547 395.304 54.1297 402.251ZM79.2737 402.251C72.3257 402.251 66.7027 407.874 66.7027 414.822C73.6257 414.822 79.2487 409.199 79.2487 402.276L79.2737 402.251ZM66.6997 414.822C66.6997 407.874 61.0767 402.251 54.1297 402.251C54.1297 409.199 59.7527 414.797 66.6747 414.822H66.6997Z" fill="#0033C9"/>
<path d="M79.2739 402.251C79.2739 395.329 73.6509 389.706 66.7029 389.706C66.7029 396.653 72.3259 402.276 79.2739 402.276V402.251ZM79.2769 402.251C86.2239 402.251 91.8469 396.628 91.8469 389.681C84.9249 389.681 79.3019 395.304 79.2769 402.226V402.251ZM104.392 402.251C97.4439 402.251 91.8209 407.874 91.8209 414.822C98.7689 414.822 104.367 409.199 104.367 402.251H104.392Z" fill="#0033C9"/>
<path d="M104.392 402.251C104.392 395.304 98.7688 389.681 91.8208 389.681C91.8208 396.628 97.4438 402.251 104.392 402.251ZM91.8178 414.822C91.8178 407.874 86.1948 402.251 79.2478 402.251C79.2478 409.174 84.8708 414.797 91.7928 414.797L91.8178 414.822Z" fill="#0033C9"/>
<path d="M104.385 402.251C111.333 402.251 116.956 396.628 116.956 389.681C110.008 389.681 104.41 395.304 104.385 402.251Z" fill="#0033C9"/>
<path d="M129.5 402.251C129.5 395.304 123.877 389.706 116.93 389.681C116.93 396.628 122.552 402.251 129.5 402.251ZM116.936 414.822C116.936 407.874 111.313 402.251 104.366 402.251C104.366 409.199 109.989 414.822 116.911 414.822H116.936Z" fill="#0033C9"/>
<path d="M129.5 402.251C122.552 402.251 116.93 407.874 116.93 414.822C123.877 414.822 129.475 409.199 129.475 402.251H129.5ZM129.503 402.251C136.451 402.251 142.074 396.628 142.074 389.681C135.126 389.681 129.528 395.304 129.503 402.251Z" fill="#0033C9"/>
<path d="M154.618 402.251C154.618 395.329 148.995 389.706 142.047 389.706C142.047 396.653 147.67 402.276 154.618 402.276V402.251ZM142.074 414.822C142.074 407.874 136.451 402.251 129.503 402.251C129.503 409.199 135.126 414.797 142.049 414.822H142.074Z" fill="#0033C9"/>
<path d="M154.618 402.251C147.67 402.251 142.047 407.874 142.047 414.822C148.97 414.822 154.593 409.199 154.593 402.276L154.618 402.251ZM154.621 402.251C161.569 402.251 167.192 396.628 167.192 389.681C160.269 389.681 154.646 395.304 154.621 402.226V402.251Z" fill="#0033C9"/>
<path d="M179.736 402.251C179.736 395.304 174.113 389.681 167.165 389.681C167.165 396.628 172.788 402.251 179.736 402.251ZM167.192 414.822C167.192 407.874 161.569 402.251 154.621 402.251C154.621 409.174 160.244 414.797 167.167 414.797L167.192 414.822Z" fill="#0033C9"/>
<path d="M179.736 402.251C172.788 402.251 167.165 407.874 167.165 414.822C174.113 414.822 179.711 409.199 179.711 402.251H179.736ZM204.873 402.251C204.873 395.304 199.25 389.706 192.303 389.681C192.303 396.628 197.926 402.251 204.873 402.251ZM204.873 402.251C197.926 402.251 192.303 407.874 192.303 414.822C199.25 414.822 204.848 409.199 204.848 402.251H204.873Z" fill="#0033C9"/>
<path d="M192.31 414.822C192.31 407.874 186.687 402.251 179.739 402.251C179.739 409.199 185.362 414.822 192.285 414.822H192.31ZM179.739 402.251C186.687 402.251 192.31 396.628 192.31 389.681C185.362 389.681 179.764 395.304 179.739 402.251ZM217.427 414.822C217.427 407.874 211.805 402.251 204.857 402.251C204.857 409.199 210.48 414.797 217.403 414.822H217.427ZM229.991 402.251C229.991 395.329 224.368 389.706 217.421 389.706C217.421 396.653 223.044 402.276 229.991 402.276V402.251Z" fill="#0033C9"/>
<path d="M229.991 402.251C223.044 402.251 217.421 407.874 217.421 414.822C224.343 414.822 229.966 409.199 229.966 402.276L229.991 402.251ZM204.876 402.251C211.824 402.251 217.447 396.628 217.447 389.681C210.499 389.681 204.901 395.304 204.876 402.251ZM255.109 402.251C248.162 402.251 242.539 407.874 242.539 414.822C249.486 414.822 255.084 409.199 255.084 402.251H255.109ZM255.109 402.251C255.109 395.304 249.486 389.706 242.539 389.681C242.539 396.628 248.162 402.251 255.109 402.251Z" fill="#0033C9"/>
<path d="M242.536 414.822C242.536 407.874 236.913 402.251 229.965 402.251C229.965 409.174 235.588 414.797 242.511 414.797L242.536 414.822ZM229.994 402.251C236.942 402.251 242.565 396.628 242.565 389.681C235.642 389.681 230.019 395.304 229.994 402.226V402.251ZM255.112 402.251C262.06 402.251 267.683 396.628 267.683 389.681C260.735 389.681 255.137 395.304 255.112 402.251ZM267.683 414.822C267.683 407.874 262.06 402.251 255.112 402.251C255.112 409.199 260.735 414.797 267.658 414.822H267.683Z" fill="#0033C9"/>
<path d="M267.676 389.706C267.676 396.653 273.299 402.276 280.247 402.276C280.247 395.329 274.624 389.731 267.676 389.706Z" fill="#0033C9"/>
<path d="M267.682 414.822C274.629 414.822 280.227 409.199 280.227 402.251C273.28 402.251 267.657 407.874 267.657 414.822H267.682ZM-8.67017 414.822C-8.67017 421.769 -3.04717 427.392 3.89983 427.392C3.89983 420.445 -1.72217 414.847 -8.64517 414.822H-8.67017Z" fill="#0033C9"/>
<path d="M3.89983 427.367C-3.04717 427.367 -8.67017 432.99 -8.67017 439.938C-1.72217 439.938 3.87583 434.315 3.89983 427.367Z" fill="#0033C9"/>
<path d="M16.4448 439.938C16.4448 432.99 10.8218 427.367 3.87476 427.367C3.87476 434.315 9.49676 439.913 16.4448 439.938ZM29.0178 427.367C22.0708 427.367 16.4478 432.99 16.4478 439.938C23.3948 439.938 28.9928 434.315 29.0178 427.392V427.367Z" fill="#0033C9"/>
<path d="M16.4689 414.822C9.52085 414.822 3.92285 420.445 3.92285 427.392C10.8709 427.392 16.4928 421.769 16.4928 414.822H16.4689Z" fill="#0033C9"/>
<path d="M16.4678 414.822C16.4678 421.769 22.0898 427.392 29.0378 427.392C29.0378 420.47 23.4148 414.847 16.4928 414.847L16.4678 414.822ZM41.5848 414.822C41.5848 421.769 47.2078 427.392 54.1558 427.392C54.1558 420.445 48.5328 414.847 41.6098 414.822H41.5848Z" fill="#0033C9"/>
<path d="M41.5817 439.938C41.5817 432.99 35.9587 427.367 29.0117 427.367C29.0117 434.315 34.6347 439.913 41.5817 439.913V439.938Z" fill="#0033C9"/>
<path d="M41.5868 414.822C34.6638 414.822 29.0408 420.445 29.0408 427.367C35.9888 427.367 41.6108 421.744 41.6108 414.797L41.5868 414.822ZM54.1268 427.367C47.1788 427.367 41.5568 432.99 41.5568 439.938C48.5038 439.938 54.1268 434.315 54.1268 427.367ZM79.2738 427.392C72.3258 427.392 66.7028 433.015 66.7028 439.963C73.6258 439.963 79.2488 434.34 79.2738 427.417V427.392ZM66.7048 414.822C59.7568 414.822 54.1588 420.445 54.1588 427.392C61.1068 427.392 66.7298 421.769 66.7298 414.822H66.7048Z" fill="#0033C9"/>
<path d="M79.2679 427.367C79.2679 420.445 73.6449 414.822 66.7229 414.822C66.7229 421.769 72.3459 427.392 79.2929 427.392L79.2679 427.367ZM66.6999 439.938C66.6999 432.99 61.0769 427.367 54.1299 427.367C54.1299 434.315 59.7529 439.938 66.6999 439.938ZM104.392 427.367C97.4439 427.367 91.8209 432.99 91.8209 439.938C98.7689 439.938 104.392 434.315 104.392 427.367ZM104.386 427.367C104.386 420.42 98.7629 414.797 91.8409 414.797C91.8409 421.744 97.4639 427.367 104.411 427.367H104.386Z" fill="#0033C9"/>
<path d="M79.2769 427.367C86.2239 427.367 91.8469 421.744 91.8469 414.797C84.9249 414.797 79.3019 420.42 79.3019 427.342L79.2769 427.367Z" fill="#0033C9"/>
<path d="M91.8178 439.938C91.8178 432.99 86.1948 427.367 79.2478 427.367C79.2478 434.29 84.8708 439.913 91.8178 439.913V439.938ZM129.5 427.367C122.552 427.367 116.93 432.99 116.93 439.938C123.877 439.938 129.475 434.315 129.5 427.367ZM129.504 427.367C129.504 420.42 123.881 414.822 116.959 414.797C116.959 421.744 122.582 427.367 129.529 427.367H129.504Z" fill="#0033C9"/>
<path d="M116.936 439.938C116.936 432.99 111.313 427.367 104.366 427.367C104.366 434.315 109.989 439.938 116.936 439.938Z" fill="#0033C9"/>
<path d="M104.385 427.367C111.333 427.367 116.956 421.744 116.956 414.797C110.008 414.797 104.41 420.42 104.41 427.367H104.385ZM154.618 427.392C147.67 427.392 142.047 433.015 142.047 439.963C148.97 439.963 154.593 434.34 154.618 427.417V427.392ZM129.503 427.367C136.451 427.367 142.074 421.744 142.074 414.797C135.126 414.797 129.528 420.42 129.528 427.367H129.503Z" fill="#0033C9"/>
<path d="M142.074 439.938C142.074 432.99 136.451 427.367 129.503 427.367C129.503 434.315 135.126 439.913 142.074 439.938ZM154.622 427.367C154.622 420.445 148.999 414.822 142.077 414.822C142.077 421.769 147.7 427.392 154.647 427.392L154.622 427.367Z" fill="#0033C9"/>
<path d="M154.621 427.367C161.569 427.367 167.192 421.744 167.192 414.797C160.269 414.797 154.646 420.42 154.646 427.342L154.621 427.367ZM179.736 427.367C172.788 427.367 167.165 432.99 167.165 439.938C174.113 439.938 179.736 434.315 179.736 427.367Z" fill="#0033C9"/>
<path d="M167.192 439.938C167.192 432.99 161.569 427.367 154.621 427.367C154.621 434.29 160.244 439.913 167.192 439.913V439.938ZM179.74 427.367C179.74 420.42 174.117 414.797 167.195 414.797C167.195 421.744 172.818 427.367 179.765 427.367H179.74ZM204.878 427.367C204.878 420.42 199.255 414.822 192.332 414.797C192.332 421.744 197.955 427.367 204.903 427.367H204.878Z" fill="#0033C9"/>
<path d="M179.739 427.367C186.687 427.367 192.31 421.744 192.31 414.797C185.362 414.797 179.764 420.42 179.764 427.367H179.739ZM204.873 427.367C197.926 427.367 192.303 432.99 192.303 439.938C199.25 439.938 204.873 434.315 204.873 427.367Z" fill="#0033C9"/>
<path d="M192.31 439.938C192.31 432.99 186.687 427.367 179.739 427.367C179.739 434.315 185.362 439.938 192.31 439.938ZM229.996 427.367C229.996 420.445 224.373 414.822 217.45 414.822C217.45 421.769 223.073 427.392 230.021 427.392L229.996 427.367ZM217.427 439.938C217.427 432.99 211.805 427.367 204.857 427.367C204.857 434.315 210.48 439.938 217.427 439.938Z" fill="#0033C9"/>
<path d="M229.991 427.367C223.044 427.367 217.421 432.99 217.421 439.938C224.368 439.938 229.966 434.315 229.991 427.392V427.367ZM204.876 427.367C211.824 427.367 217.447 421.744 217.447 414.797C210.499 414.797 204.901 420.42 204.901 427.367H204.876ZM242.568 414.822C242.568 421.769 248.191 427.392 255.139 427.392C255.139 420.445 249.516 414.847 242.593 414.822H242.568Z" fill="#0033C9"/>
<path d="M242.536 439.938C242.536 432.99 236.913 427.367 229.965 427.367C229.965 434.29 235.588 439.913 242.536 439.913V439.938Z" fill="#0033C9"/>
<path d="M229.994 427.367C236.942 427.367 242.565 421.744 242.565 414.797C235.642 414.797 230.019 420.42 230.019 427.342L229.994 427.367ZM242.568 439.938C249.516 439.938 255.114 434.315 255.139 427.367C248.191 427.367 242.568 432.99 242.568 439.938ZM267.676 439.938C274.624 439.938 280.222 434.315 280.247 427.367C273.299 427.367 267.676 432.99 267.676 439.938ZM255.112 427.367C262.06 427.367 267.683 421.744 267.683 414.797C260.735 414.797 255.137 420.42 255.137 427.367H255.112Z" fill="#0033C9"/>
<path d="M267.683 439.938C267.683 432.99 262.06 427.367 255.112 427.367C255.112 434.315 260.735 439.913 267.683 439.938ZM267.676 414.822C267.676 421.769 273.299 427.392 280.247 427.392C280.247 420.445 274.624 414.847 267.701 414.822H267.676Z" fill="#0033C9"/>
</g>
</g>
<path d="M138.274 310.284C102.512 310.284 67.5489 303.986 34.3359 291.541H2.0979V279.045H36.6099L37.6849 279.445C69.7979 291.616 103.636 297.789 138.274 297.789C172.911 297.789 206.749 291.616 238.863 279.445L239.937 279.045H274.45V291.541H242.212C208.998 303.986 174.036 310.284 138.274 310.284Z" fill="#00D264"/>
<path d="M138.282 324.227C150.557 324.227 160.508 314.275 160.508 302C160.508 289.725 150.557 279.773 138.282 279.773C126.006 279.773 116.055 289.725 116.055 302C116.055 314.275 126.006 324.227 138.282 324.227Z" fill="#00D264"/>
<path d="M138.28 279.757C150.553 279.757 160.507 289.71 160.507 301.983C160.507 314.256 150.553 324.21 138.28 324.21C126.007 324.21 116.053 314.257 116.053 301.983C116.053 289.71 126.007 279.757 138.28 279.757ZM138.28 279C125.603 279 115.28 289.306 115.28 302C115.28 314.694 125.586 325 138.28 325C150.974 325 161.28 314.694 161.28 302C161.28 289.306 150.974 279 138.28 279Z" fill="#0A2660"/>
<path d="M140.984 322.696C152.416 321.217 160.486 310.743 158.99 299.293C157.511 287.86 147.036 279.79 135.587 281.286C124.154 282.766 116.084 293.24 117.58 304.69C119.06 316.123 129.534 324.193 140.984 322.696Z" fill="#00D264"/>
<path d="M138.644 284.128H137.938V319.889H138.644V284.128Z" fill="white"/>
<path d="M129.655 286.347L129.033 286.7L146.905 317.669L147.527 317.316L129.655 286.347Z" fill="white"/>
<path d="M122.976 292.77L122.623 293.392L153.592 311.264L153.945 310.642L122.976 292.77Z" fill="white"/>
<path d="M156.164 301.664H120.403V302.37H156.164V301.664Z" fill="white"/>
<path d="M153.592 292.786L122.623 310.659L122.976 311.281L153.945 293.409L153.592 292.786Z" fill="white"/>
<path d="M146.918 286.347L129.046 317.316L129.668 317.669L147.54 286.7L146.918 286.347Z" fill="white"/>
<path d="M138.276 315.753C145.859 315.753 152.013 309.599 152.013 302.017C152.013 294.435 145.859 288.281 138.276 288.281C130.694 288.281 124.54 294.434 124.54 302.017C124.54 309.599 130.694 315.753 138.276 315.753Z" fill="#00D264"/>
<path d="M144.785 311.516C142.838 310.594 140.71 310.116 138.556 310.116C136.401 310.116 134.273 310.594 132.326 311.516L130.208 308.692L139.657 297.427C139.102 297.477 138.547 297.494 137.992 297.494C135.306 297.488 132.654 296.892 130.225 295.746L131.772 292.484C133.719 293.406 135.847 293.884 138.001 293.884C140.155 293.884 142.283 293.406 144.23 292.484L146.348 295.309L136.9 306.573C137.454 306.523 138.009 306.506 138.564 306.506C141.237 306.506 143.911 307.111 146.332 308.254L144.785 311.516Z" fill="white"/>
<g filter="url(#filter0_i_3_9868)">
<path d="M256.386 9.56C255.648 10.794 254.438 10.383 253.925 9.87C252.694 9.87 253.412 10.692 253.925 11.103C254.438 11.411 255.771 11.843 257.001 11.103C258.539 10.178 258.539 7.093 257.001 5.86C255.463 4.627 253.002 4.318 250.848 6.477C250.848 4.935 249.925 2.467 246.849 2.467H104V0H250.233C258.389 0 265 6.628 265 14.804V97.5H263.154V21.28C263.154 15.729 261.001 14.804 257.924 14.495C254.848 14.187 251.464 12.336 251.464 9.869C251.464 7.402 252.694 6.169 254.54 6.169C256.386 6.169 257.309 8.018 256.386 9.56Z" fill="#FFEB5F"/>
</g>
<g filter="url(#filter1_i_3_9868)">
<path d="M21.614 9.56C22.352 10.794 23.562 10.383 24.075 9.87C25.305 9.87 24.588 10.692 24.075 11.103C23.562 11.411 22.229 11.843 20.999 11.103C19.461 10.178 19.461 7.093 20.999 5.86C22.537 4.627 24.999 4.318 27.152 6.477C27.152 4.935 28.074 2.467 31.151 2.467H174V0H27.767C19.61 0 13 6.628 13 14.804V97.5H14.846V21.28C14.846 15.729 16.999 14.804 20.076 14.495C23.152 14.187 26.536 12.336 26.536 9.869C26.536 7.402 25.306 6.169 23.46 6.169C21.614 6.169 20.691 8.018 21.614 9.56Z" fill="#FFEB5F"/>
</g>
<defs>
<filter id="filter0_i_3_9868" x="104" y="0" width="161" height="98.406" filterUnits="userSpaceOnUse" color-interpolation-filters="sRGB">
<feFlood flood-opacity="0" result="BackgroundImageFix"/>
<feBlend mode="normal" in="SourceGraphic" in2="BackgroundImageFix" result="shape"/>
<feColorMatrix in="SourceAlpha" type="matrix" values="0 0 0 0 0 0 0 0 0 0 0 0 0 0 0 0 0 0 127 0" result="hardAlpha"/>
<feOffset dy="0.907"/>
<feGaussianBlur stdDeviation="0.453"/>
<feComposite in2="hardAlpha" operator="arithmetic" k2="-1" k3="1"/>
<feColorMatrix type="matrix" values="0 0 0 0 0.992157 0 0 0 0 0.929412 0 0 0 0 0.835294 0 0 0 1 0"/>
<feBlend mode="normal" in2="shape" result="effect1_innerShadow_3_9868"/>
</filter>
<filter id="filter1_i_3_9868" x="13" y="0" width="161" height="98.406" filterUnits="userSpaceOnUse" color-interpolation-filters="sRGB">
<feFlood flood-opacity="0" result="BackgroundImageFix"/>
<feBlend mode="normal" in="SourceGraphic" in2="BackgroundImageFix" result="shape"/>
<feColorMatrix in="SourceAlpha" type="matrix" values="0 0 0 0 0 0 0 0 0 0 0 0 0 0 0 0 0 0 127 0" result="hardAlpha"/>
<feOffset dy="0.907"/>
<feGaussianBlur stdDeviation="0.453"/>
<feComposite in2="hardAlpha" operator="arithmetic" k2="-1" k3="1"/>
<feColorMatrix type="matrix" values="0 0 0 0 0.992157 0 0 0 0 0.929412 0 0 0 0 0.835294 0 0 0 1 0"/>
<feBlend mode="normal" in2="shape" result="effect1_innerShadow_3_9868"/>
</filter>
</defs>
</svg>
