<svg xmlns="http://www.w3.org/2000/svg" xmlns:xlink="http://www.w3.org/1999/xlink" width="375" height="429" fill="none" viewBox="0 0 375 429">
  <path fill="#0A2660" d="M51.932 164.3s70.675-25.575 135.225-25.6c65.05 0 137.2 25.6 137.2 25.6v222.625a7.874 7.874 0 0 1-7.875 7.875H59.807a7.874 7.874 0 0 1-7.875-7.875z"/>
  <path fill="#0A2660" d="M187.257 138.7c65.025 0 137.125 25.6 137.125 25.6v222.625a7.874 7.874 0 0 1-7.875 7.875h-256.7a7.874 7.874 0 0 1-7.875-7.875V164.3s70.675-25.575 135.225-25.6zm0-1.25c-64.125 0-135.05 25.425-135.75 25.675l-.825.3v223.5c0 5.025 4.1 9.125 9.125 9.125h256.675c5.025 0 9.125-4.1 9.125-9.125v-223.5l-.825-.3c-.725-.25-73.025-25.675-137.525-25.675"/>
  <path fill="#EF4B23" d="M304.282 107.1c0 5.2 4.2 9.4 9.4 9.4v208.25H62.607V116.5c5.175 0 9.4-4.2 9.4-9.4s-4.2-9.4-9.4-9.4V13.125c0-4.35 7.525-11.875 11.875-11.875h227.325c4.35 0 11.875 9.525 11.875 13.875V97.7c-5.2 0-9.4 4.225-9.4 9.4"/>
  <path fill="#EF4B23" stroke="#FFEB63" stroke-width="2" d="M303.282 107.1a10.39 10.39 0 0 0 9.4 10.353V323.75H63.607V117.452c5.26-.503 9.4-4.937 9.4-10.352s-4.118-9.851-9.4-10.353V13.125c0-.83.371-1.932 1.106-3.184.723-1.231 1.744-2.514 2.908-3.678s2.446-2.184 3.677-2.907c1.252-.735 2.355-1.106 3.184-1.106h227.325c.764 0 1.836.44 3.102 1.364 1.233.9 2.523 2.164 3.697 3.58s2.208 2.954 2.943 4.385c.751 1.46 1.133 2.699 1.133 3.546v81.623c-5.282.504-9.4 4.962-9.4 10.352Z"/>
  <g fill="#F2E870" clip-path="url(#a)">
    <path d="m332.432 298.812 1.357 3.19-3.19 1.356-1.357-3.19zm33.82-71.61 1.357 3.19-3.19 1.356-1.357-3.19z"/>
    <path fill-opacity=".5" d="m295.307 380.368.985 10.813-10.813.986-.985-10.814zm-72.51-74.595 3.625 7.936-7.936 3.625-3.625-7.936z"/>
    <path d="m114.522 349.536 6.83 9.47-9.47 6.831-6.83-9.47z"/>
    <path fill-opacity=".5" d="m340.205 146.642 3.394 10.968-11.535 3.57-3.393-10.969z"/>
    <path d="m229.02 130.726 9.819 9.056-9.523 10.325-9.819-9.056zm-76.735.994 3.492 2.921-3.072 3.673-3.492-2.921zM53.83 302.79l2.98 2.493-2.62 3.134-2.982-2.493z"/>
  </g>
  <mask id="f" fill="#fff">
    <use xlink:href="#b" fill-rule="evenodd" clip-rule="evenodd"/>
  </mask>
  <use xlink:href="#c" fill-rule="evenodd" clip-rule="evenodd"/>
  <use xlink:href="#d" mask="url(#f)"/>
  <mask id="h" width="276" height="159" x="49" y="270" maskUnits="userSpaceOnUse" style="mask-type:alpha">
    <mask id="g" fill="#fff">
      <use xlink:href="#b" fill-rule="evenodd" clip-rule="evenodd"/>
    </mask>
    <use xlink:href="#c" fill-rule="evenodd" clip-rule="evenodd"/>
    <use xlink:href="#d" mask="url(#g)"/>
  </mask>
  <g mask="url(#h)">
    <mask id="i" fill="#fff">
      <use xlink:href="#b" fill-rule="evenodd" clip-rule="evenodd"/>
    </mask>
    <use xlink:href="#c" fill-rule="evenodd" clip-rule="evenodd"/>
    <use xlink:href="#d" mask="url(#i)"/>
    <g fill="#0033C9" opacity=".32">
      <path d="M52.9 276.646c0-6.947-5.622-12.57-12.57-12.57 0 6.947 5.623 12.57 12.57 12.57m0 0c-6.947 0-12.57 5.623-12.57 12.571 6.922 0 12.546-5.623 12.546-12.571z"/>
      <path d="M65.445 289.217c0-6.948-5.623-12.571-12.57-12.571 0 6.923 5.622 12.546 12.545 12.571zm12.573-12.571c-6.947 0-12.57 5.623-12.57 12.571 6.923 0 12.545-5.623 12.545-12.546z"/>
      <path d="M65.474 264.076c-6.947 0-12.57 5.623-12.57 12.57 6.947 0 12.57-5.623 12.57-12.57"/>
      <path d="M78.018 276.646c0-6.947-5.623-12.545-12.57-12.545 0 6.947 5.623 12.57 12.57 12.57z"/>
      <path d="M90.582 264.076c-6.947 0-12.57 5.623-12.57 12.545 6.947 0 12.57-5.623 12.57-12.57z"/>
      <path d="M103.127 276.646c0-6.947-5.623-12.57-12.57-12.57 0 6.947 5.622 12.57 12.57 12.57m0 0c-6.948 0-12.57 5.623-12.57 12.571 6.922 0 12.545-5.623 12.545-12.571z"/>
      <path d="M90.582 289.217c0-6.948-5.623-12.571-12.57-12.571 0 6.923 5.623 12.546 12.545 12.546zm25.118 0c0-6.948-5.623-12.571-12.57-12.571 0 6.923 5.623 12.546 12.545 12.571z"/>
      <path d="M115.7 264.076c-6.947 0-12.57 5.623-12.57 12.57 6.947 0 12.57-5.623 12.57-12.57m12.574 12.57c0-6.947-5.623-12.545-12.571-12.545 0 6.947 5.623 12.57 12.571 12.57z"/>
      <path d="M128.274 276.646c-6.948 0-12.571 5.623-12.571 12.571 6.923 0 12.546-5.623 12.546-12.546z"/>
      <path d="M140.818 289.217c0-6.948-5.623-12.571-12.57-12.571 0 6.923 5.623 12.546 12.545 12.546zm0-25.141c-6.947 0-12.57 5.623-12.57 12.545 6.947 0 12.57-5.623 12.57-12.57zm12.574 12.57c-6.948 0-12.571 5.623-12.571 12.571 6.923 0 12.546-5.623 12.546-12.571zm0 0c0-6.947-5.623-12.57-12.571-12.57 0 6.947 5.623 12.57 12.571 12.57m25.108 0c0-6.947-5.623-12.57-12.57-12.57 0 6.947 5.622 12.57 12.57 12.57m0 0c-6.948 0-12.57 5.623-12.57 12.571 6.922 0 12.545-5.623 12.545-12.571z"/>
      <path d="M165.936 289.217c0-6.948-5.623-12.571-12.57-12.571 0 6.948 5.623 12.546 12.545 12.571z"/>
      <path d="M165.936 264.076c-6.947 0-12.57 5.623-12.57 12.57 6.947 0 12.57-5.623 12.57-12.57m25.118 25.141c0-6.948-5.623-12.571-12.57-12.571 0 6.923 5.623 12.546 12.545 12.571zm12.564-12.571c0-6.947-5.623-12.545-12.571-12.545 0 6.947 5.623 12.57 12.571 12.57z"/>
      <path d="M191.074 264.076c-6.948 0-12.571 5.623-12.571 12.57 6.948 0 12.571-5.623 12.571-12.57m12.544 12.57c-6.948 0-12.571 5.623-12.571 12.571 6.923 0 12.546-5.623 12.546-12.546zm25.118 0c0-6.947-5.623-12.57-12.571-12.57 0 6.947 5.623 12.57 12.571 12.57m-12.544 12.571c0-6.948-5.623-12.571-12.571-12.571 0 6.923 5.623 12.546 12.546 12.546z"/>
      <path d="M228.736 276.646c-6.948 0-12.571 5.623-12.571 12.571 6.923 0 12.546-5.623 12.546-12.571zm-12.544-12.57c-6.948 0-12.571 5.623-12.571 12.545 6.948 0 12.571-5.623 12.571-12.57zm37.681 12.57c-6.947 0-12.57 5.623-12.57 12.571 6.922 0 12.545-5.623 12.545-12.571z"/>
      <path d="M241.31 289.217c0-6.948-5.623-12.571-12.571-12.571 0 6.948 5.623 12.546 12.546 12.571zm12.563-12.571c0-6.947-5.623-12.57-12.57-12.57 0 6.947 5.623 12.57 12.57 12.57"/>
      <path d="M241.31 264.076c-6.948 0-12.571 5.623-12.571 12.57 6.948 0 12.571-5.623 12.571-12.57m37.681 12.57c0-6.947-5.623-12.545-12.57-12.545 0 6.947 5.623 12.57 12.57 12.57z"/>
      <path d="M266.427 264.076c-6.947 0-12.57 5.623-12.57 12.57 6.948 0 12.57-5.623 12.57-12.57"/>
      <path d="M266.427 289.217c0-6.948-5.622-12.571-12.57-12.571 0 6.923 5.623 12.546 12.546 12.571z"/>
      <path d="M278.991 276.646c-6.947 0-12.57 5.623-12.57 12.571 6.922 0 12.545-5.623 12.545-12.546zm12.574-12.57c-6.948 0-12.571 5.623-12.571 12.545 6.948 0 12.571-5.623 12.571-12.57z"/>
      <path d="M304.109 276.646c0-6.947-5.623-12.57-12.57-12.57 0 6.947 5.623 12.57 12.57 12.57m0 0c-6.947 0-12.57 5.623-12.57 12.571 6.922 0 12.545-5.623 12.545-12.571zm-12.573 12.571c0-6.948-5.623-12.571-12.571-12.571 0 6.923 5.623 12.546 12.546 12.546zm25.147 0c0-6.948-5.623-12.571-12.571-12.571 0 6.923 5.623 12.546 12.546 12.571zm12.544-12.571c0-6.947-5.623-12.57-12.57-12.57 0 6.947 5.623 12.57 12.57 12.57"/>
      <path d="M316.683 264.076c-6.948 0-12.571 5.623-12.571 12.57 6.948 0 12.571-5.623 12.571-12.57m12.544 12.57c-6.947 0-12.57 5.623-12.57 12.571 6.922 0 12.545-5.623 12.545-12.571zM52.895 301.762c0-6.922-5.623-12.545-12.546-12.57 0 6.947 5.623 12.57 12.571 12.57zm.005 0c-6.947 0-12.57 5.623-12.57 12.571 6.948 0 12.57-5.623 12.57-12.571m25.113 0c0-6.922-5.623-12.545-12.546-12.545 0 6.947 5.623 12.57 12.571 12.57z"/>
      <path d="M78.018 301.762c-6.947 0-12.57 5.623-12.57 12.571 6.947 0 12.57-5.623 12.57-12.546z"/>
      <path d="M65.474 314.333c0-6.948-5.623-12.571-12.57-12.571 0 6.948 5.623 12.546 12.57 12.571m-12.57-12.571c6.947 0 12.57-5.623 12.57-12.57-6.922 0-12.545 5.623-12.545 12.57zm50.227 0c0-6.922-5.623-12.545-12.546-12.57 0 6.947 5.623 12.57 12.571 12.57zm-12.549 12.571c0-6.948-5.623-12.571-12.57-12.571 0 6.948 5.623 12.546 12.57 12.546zm-12.57-12.571c6.947 0 12.57-5.623 12.57-12.57-6.922 0-12.545 5.623-12.545 12.545z"/>
      <path d="M103.127 301.762c-6.948 0-12.57 5.623-12.57 12.571 6.947 0 12.57-5.623 12.57-12.571m.003 0c6.947 0 12.57-5.623 12.57-12.57-6.922 0-12.545 5.623-12.545 12.57zm12.57 12.571c0-6.948-5.623-12.571-12.57-12.571 0 6.948 5.623 12.571 12.57 12.571m12.568-12.571c0-6.922-5.623-12.545-12.545-12.545 0 6.947 5.623 12.57 12.57 12.57z"/>
      <path d="M128.274 301.762c-6.948 0-12.571 5.623-12.571 12.571 6.948 0 12.546-5.623 12.571-12.546z"/>
      <path d="M140.818 314.333c0-6.948-5.623-12.571-12.57-12.571 0 6.923 5.623 12.546 12.57 12.546zm-12.541-12.571c6.947 0 12.57-5.623 12.57-12.57-6.922 0-12.545 5.623-12.545 12.545z"/>
      <path d="M153.386 301.762c0-6.947-5.623-12.545-12.545-12.57 0 6.947 5.623 12.57 12.57 12.57zm.006 0c-6.948 0-12.571 5.623-12.571 12.571 6.948 0 12.571-5.623 12.571-12.571m25.108 0c-6.948 0-12.57 5.623-12.57 12.571 6.947 0 12.57-5.623 12.57-12.571"/>
      <path d="M165.936 314.333c0-6.948-5.623-12.571-12.57-12.571 0 6.948 5.623 12.571 12.57 12.571m-12.551-12.571c6.948 0 12.571-5.623 12.571-12.57-6.923 0-12.546 5.623-12.546 12.57zm25.119 0c0-6.922-5.623-12.545-12.545-12.57 0 6.947 5.623 12.57 12.57 12.57zm12.57 12.571c0-6.948-5.623-12.571-12.571-12.571 0 6.948 5.623 12.546 12.571 12.571"/>
      <path d="M203.618 301.762c-6.948 0-12.571 5.623-12.571 12.571 6.948 0 12.546-5.623 12.571-12.546z"/>
      <path d="M203.622 301.762c0-6.922-5.623-12.545-12.545-12.545 0 6.947 5.623 12.57 12.57 12.57zm-25.119 0c6.948 0 12.571-5.623 12.571-12.57-6.923 0-12.546 5.623-12.546 12.57zm50.233 0c-6.948 0-12.571 5.623-12.571 12.571 6.948 0 12.571-5.623 12.571-12.571m.004 0c0-6.947-5.623-12.545-12.545-12.57 0 6.947 5.623 12.57 12.57 12.57z"/>
      <path d="M216.192 314.333c0-6.948-5.623-12.571-12.571-12.571 0 6.923 5.623 12.546 12.571 12.546zm-12.571-12.571c6.948 0 12.571-5.623 12.571-12.57-6.923 0-12.546 5.623-12.546 12.545zm25.118 0c6.948 0 12.571-5.623 12.571-12.57-6.923 0-12.546 5.623-12.546 12.57zm12.571 12.571c0-6.948-5.623-12.571-12.571-12.571 0 6.948 5.623 12.571 12.571 12.571"/>
      <path d="M253.873 301.762c-6.947 0-12.57 5.623-12.57 12.571 6.947 0 12.57-5.623 12.57-12.571m.005 0c0-6.922-5.623-12.545-12.546-12.57 0 6.947 5.623 12.57 12.571 12.57zm25.113 0c-6.947 0-12.57 5.623-12.57 12.571 6.947 0 12.545-5.623 12.57-12.546z"/>
      <path d="M266.427 314.333c0-6.948-5.622-12.571-12.57-12.571 0 6.948 5.623 12.571 12.57 12.571m-12.551-12.571c6.948 0 12.571-5.623 12.571-12.57-6.923 0-12.546 5.623-12.546 12.57zm25.12 0c0-6.922-5.623-12.545-12.546-12.545 0 6.947 5.623 12.57 12.571 12.57z"/>
      <path d="M291.536 314.333c0-6.948-5.623-12.571-12.571-12.571 0 6.948 5.623 12.546 12.571 12.546zm12.578-12.571c0-6.922-5.623-12.545-12.546-12.57 0 6.947 5.623 12.57 12.571 12.57zm-.005 0c-6.947 0-12.57 5.623-12.57 12.571 6.947 0 12.57-5.623 12.57-12.571m-25.115 0c6.948 0 12.571-5.623 12.571-12.57-6.923 0-12.546 5.623-12.546 12.545zm50.228 0c0-6.922-5.623-12.545-12.546-12.57 0 6.947 5.623 12.57 12.571 12.57z"/>
      <path d="M304.112 301.762c6.948 0 12.571-5.623 12.571-12.57-6.923 0-12.546 5.623-12.546 12.57zm12.571 12.571c0-6.948-5.623-12.571-12.571-12.571 0 6.948 5.623 12.546 12.571 12.571"/>
      <path d="M329.227 301.762c-6.947 0-12.57 5.623-12.57 12.571 6.947 0 12.57-5.623 12.57-12.571M52.9 326.903c-6.947 0-12.57 5.623-12.57 12.571 6.948 0 12.546-5.623 12.57-12.571m0-.025c0-6.947-5.622-12.545-12.57-12.57 0 6.947 5.623 12.57 12.57 12.57m.004 0c6.947 0 12.57-5.623 12.57-12.57-6.947 0-12.57 5.623-12.57 12.57"/>
      <path d="M65.445 339.449c0-6.948-5.623-12.571-12.57-12.571 0 6.948 5.622 12.546 12.57 12.571m12.573-12.571c0-6.947-5.623-12.545-12.57-12.545 0 6.947 5.623 12.57 12.57 12.57zm0 .025c-6.947 0-12.57 5.623-12.57 12.571 6.947 0 12.545-5.623 12.57-12.546z"/>
      <path d="M78.012 326.878c6.947 0 12.57-5.623 12.57-12.57-6.947 0-12.57 5.623-12.57 12.545z"/>
      <path d="M103.127 326.878c0-6.947-5.623-12.57-12.57-12.57 0 6.947 5.622 12.57 12.57 12.57m0 .025c-6.948 0-12.57 5.623-12.57 12.571 6.947 0 12.57-5.623 12.57-12.571"/>
      <path d="M90.582 339.449c0-6.948-5.623-12.571-12.57-12.571 0 6.948 5.623 12.546 12.57 12.546zm25.118 0c0-6.948-5.623-12.571-12.57-12.571 0 6.948 5.623 12.571 12.57 12.571m12.574-12.571c0-6.922-5.623-12.545-12.571-12.545 0 6.947 5.623 12.57 12.571 12.57zm-25.144 0c6.947 0 12.57-5.623 12.57-12.57-6.947 0-12.57 5.623-12.57 12.57m25.144.025c-6.948 0-12.571 5.623-12.571 12.571 6.923 0 12.546-5.623 12.571-12.546z"/>
      <path d="M140.818 339.449c0-6.948-5.623-12.571-12.57-12.571 0 6.923 5.623 12.546 12.57 12.546zm12.574-12.571c0-6.947-5.623-12.57-12.571-12.57 0 6.947 5.623 12.57 12.571 12.57"/>
      <path d="M128.277 326.878c6.947 0 12.57-5.623 12.57-12.57-6.947 0-12.545 5.623-12.57 12.545zm25.115.025c-6.948 0-12.571 5.623-12.571 12.571 6.948 0 12.571-5.623 12.571-12.571"/>
      <path d="M165.936 339.449c0-6.948-5.623-12.571-12.57-12.571 0 6.948 5.623 12.571 12.57 12.571m12.564-12.571c0-6.947-5.623-12.545-12.57-12.57 0 6.947 5.622 12.57 12.57 12.57"/>
      <path d="M153.385 326.878c6.948 0 12.571-5.623 12.571-12.57-6.948 0-12.571 5.623-12.571 12.57m25.115.025c-6.948 0-12.57 5.623-12.57 12.571 6.947 0 12.545-5.623 12.57-12.571m25.118 0c-6.948 0-12.571 5.623-12.571 12.571 6.923 0 12.546-5.623 12.571-12.546zm0-.025c0-6.922-5.623-12.545-12.571-12.545 0 6.947 5.623 12.57 12.571 12.57z"/>
      <path d="M178.503 326.878c6.948 0 12.571-5.623 12.571-12.57-6.948 0-12.571 5.623-12.571 12.57m12.571 12.571c0-6.948-5.623-12.571-12.571-12.571 0 6.948 5.623 12.546 12.571 12.571m25.118 0c0-6.948-5.623-12.571-12.571-12.571 0 6.923 5.623 12.546 12.571 12.546zm-12.571-12.571c6.948 0 12.571-5.623 12.571-12.57-6.948 0-12.546 5.623-12.571 12.545z"/>
      <path d="M228.736 326.903c-6.948 0-12.571 5.623-12.571 12.571 6.948 0 12.571-5.623 12.571-12.571m0-.025c0-6.947-5.623-12.57-12.571-12.57 0 6.947 5.623 12.57 12.571 12.57m25.137.025c-6.947 0-12.57 5.623-12.57 12.571 6.947 0 12.57-5.623 12.57-12.571"/>
      <path d="M241.31 339.449c0-6.948-5.623-12.571-12.571-12.571 0 6.948 5.623 12.571 12.571 12.571m12.563-12.571c0-6.947-5.623-12.57-12.57-12.57 0 6.947 5.623 12.57 12.57 12.57"/>
      <path d="M228.739 326.878c6.948 0 12.571-5.623 12.571-12.57-6.948 0-12.571 5.623-12.571 12.57m50.252 0c0-6.947-5.623-12.545-12.57-12.545 0 6.947 5.623 12.57 12.57 12.57zm0 .025c-6.947 0-12.57 5.623-12.57 12.571 6.947 0 12.545-5.623 12.57-12.546z"/>
      <path d="M253.876 326.878c6.948 0 12.571-5.623 12.571-12.57-6.948 0-12.571 5.623-12.571 12.57m12.551 12.571c0-6.948-5.622-12.571-12.57-12.571 0 6.948 5.623 12.571 12.57 12.571m25.109 0c0-6.948-5.623-12.571-12.571-12.571 0 6.923 5.623 12.546 12.571 12.546zm-12.542-12.571c6.948 0 12.571-5.623 12.571-12.57-6.948 0-12.546 5.623-12.571 12.545zm25.115.025c-6.947 0-12.57 5.623-12.57 12.571 6.947 0 12.545-5.623 12.57-12.571"/>
      <path d="M304.109 326.878c0-6.947-5.623-12.545-12.57-12.57 0 6.947 5.623 12.57 12.57 12.57m12.574 12.571c0-6.948-5.623-12.571-12.571-12.571 0 6.948 5.623 12.546 12.571 12.571"/>
      <path d="M329.227 326.903c-6.947 0-12.57 5.623-12.57 12.571 6.947 0 12.545-5.623 12.57-12.571m0-.025c0-6.947-5.623-12.545-12.57-12.57 0 6.947 5.623 12.57 12.57 12.57"/>
      <path d="M304.112 326.878c6.948 0 12.571-5.623 12.571-12.57-6.948 0-12.571 5.623-12.571 12.57M52.9 352.019c-6.947 0-12.57 5.623-12.57 12.57 6.922 0 12.546-5.623 12.546-12.57h.025Zm0 0c0-6.948-5.622-12.546-12.57-12.571 0 6.948 5.623 12.571 12.57 12.571m.004 0c6.947 0 12.57-5.623 12.57-12.571-6.947 0-12.545 5.623-12.57 12.571"/>
      <path d="M78.018 352.019c0-6.948-5.623-12.546-12.57-12.546 0 6.948 5.623 12.571 12.57 12.571z"/>
      <path d="M78.018 352.019c-6.947 0-12.57 5.623-12.57 12.57 6.923 0 12.545-5.623 12.545-12.545zm-12.573 12.545c0-6.947-5.623-12.57-12.57-12.57 0 6.922 5.622 12.545 12.545 12.57zm37.682-12.545c0-6.948-5.623-12.571-12.57-12.571 0 6.948 5.622 12.571 12.57 12.571"/>
      <path d="M90.582 364.564c0-6.947-5.623-12.57-12.57-12.57 0 6.922 5.623 12.545 12.545 12.545z"/>
      <path d="M103.127 352.019c-6.948 0-12.57 5.623-12.57 12.57 6.922 0 12.545-5.623 12.545-12.57zm-25.115 0c6.947 0 12.57-5.623 12.57-12.571-6.947 0-12.545 5.623-12.57 12.546zm50.262 0c-6.948 0-12.571 5.623-12.571 12.57 6.923 0 12.546-5.623 12.546-12.545zM115.7 364.564c0-6.947-5.623-12.57-12.57-12.57 0 6.947 5.623 12.545 12.545 12.57z"/>
      <path d="M103.13 352.019c6.947 0 12.57-5.623 12.57-12.571-6.947 0-12.57 5.623-12.57 12.571m25.144 0c0-6.923-5.623-12.546-12.571-12.546 0 6.948 5.623 12.571 12.571 12.571zm25.118 0c-6.948 0-12.571 5.623-12.571 12.57 6.948 0 12.546-5.623 12.546-12.57z"/>
      <path d="M140.818 364.564c0-6.947-5.623-12.57-12.57-12.57 0 6.922 5.623 12.545 12.545 12.545zm12.574-12.545c0-6.948-5.623-12.571-12.571-12.571 0 6.948 5.623 12.571 12.571 12.571"/>
      <path d="M128.277 352.019c6.947 0 12.57-5.623 12.57-12.571-6.922 0-12.545 5.623-12.57 12.546zm50.223 0c0-6.948-5.623-12.546-12.57-12.571 0 6.948 5.622 12.571 12.57 12.571"/>
      <path d="M153.385 352.019c6.948 0 12.571-5.623 12.571-12.571-6.948 0-12.571 5.623-12.571 12.571m25.115 0c-6.948 0-12.57 5.623-12.57 12.57 6.922 0 12.545-5.623 12.545-12.57z"/>
      <path d="M165.936 364.564c0-6.947-5.623-12.57-12.57-12.57 0 6.947 5.623 12.545 12.545 12.57zm25.138 0c0-6.947-5.623-12.57-12.571-12.57 0 6.922 5.623 12.545 12.546 12.57z"/>
      <path d="M203.618 352.019c-6.948 0-12.571 5.623-12.571 12.57 6.923 0 12.546-5.623 12.546-12.545z"/>
      <path d="M203.618 352.019c0-6.923-5.623-12.546-12.571-12.546 0 6.948 5.623 12.571 12.571 12.571z"/>
      <path d="M178.503 352.019c6.948 0 12.571-5.623 12.571-12.571-6.948 0-12.546 5.623-12.571 12.571m50.233 0c0-6.948-5.623-12.571-12.571-12.571 0 6.948 5.623 12.571 12.571 12.571"/>
      <path d="M203.621 352.019c6.948 0 12.571-5.623 12.571-12.571-6.923 0-12.546 5.623-12.571 12.546z"/>
      <path d="M216.192 364.564c0-6.947-5.623-12.57-12.571-12.57 0 6.922 5.623 12.545 12.546 12.545z"/>
      <path d="M228.736 352.019c-6.948 0-12.571 5.623-12.571 12.57 6.948 0 12.546-5.623 12.546-12.57zm25.137 0c-6.947 0-12.57 5.623-12.57 12.57 6.922 0 12.545-5.623 12.545-12.57z"/>
      <path d="M241.31 364.564c0-6.947-5.623-12.57-12.571-12.57 0 6.947 5.623 12.545 12.546 12.57z"/>
      <path d="M228.739 352.019c6.948 0 12.571-5.623 12.571-12.571-6.948 0-12.571 5.623-12.571 12.571"/>
      <path d="M253.873 352.019c0-6.948-5.623-12.571-12.57-12.571 0 6.948 5.623 12.571 12.57 12.571m25.118 0c-6.947 0-12.57 5.623-12.57 12.57 6.922 0 12.545-5.623 12.545-12.545z"/>
      <path d="M266.427 364.564c0-6.947-5.622-12.57-12.57-12.57 0 6.947 5.623 12.545 12.546 12.57zm12.564-12.545c0-6.923-5.623-12.546-12.57-12.546 0 6.948 5.623 12.571 12.57 12.571z"/>
      <path d="M253.876 352.019c6.948 0 12.571-5.623 12.571-12.571-6.948 0-12.571 5.623-12.571 12.571m25.118 0c6.948 0 12.571-5.623 12.571-12.571-6.948 0-12.546 5.623-12.571 12.546zm25.115 0c-6.947 0-12.57 5.623-12.57 12.57 6.922 0 12.545-5.623 12.545-12.57z"/>
      <path d="M291.536 364.564c0-6.947-5.623-12.57-12.571-12.57 0 6.922 5.623 12.545 12.546 12.545zm12.573-12.545c0-6.948-5.623-12.546-12.57-12.571 0 6.948 5.623 12.571 12.57 12.571m.003 0c6.948 0 12.571-5.623 12.571-12.571-6.948 0-12.546 5.623-12.571 12.571"/>
      <path d="M329.227 352.019c0-6.948-5.623-12.546-12.57-12.571 0 6.948 5.623 12.571 12.57 12.571m0 0c-6.947 0-12.57 5.623-12.57 12.57 6.922 0 12.545-5.623 12.545-12.57z"/>
      <path d="M316.683 364.564c0-6.947-5.623-12.57-12.571-12.57 0 6.922 5.623 12.545 12.546 12.57zm-276.353 0c0 6.948 5.623 12.571 12.57 12.571 0-6.923-5.622-12.546-12.545-12.571z"/>
      <path d="M52.9 377.135c-6.947 0-12.57 5.623-12.57 12.571 6.948 0 12.546-5.623 12.57-12.571m25.118 0c-6.947 0-12.57 5.623-12.57 12.571 6.947 0 12.545-5.623 12.57-12.546z"/>
      <path d="M78.013 377.135c0-6.923-5.623-12.546-12.546-12.546 0 6.948 5.623 12.571 12.571 12.571z"/>
      <path d="M65.469 364.564c-6.923 0-12.546 5.623-12.546 12.571 6.948 0 12.57-5.623 12.57-12.571z"/>
      <path d="M65.445 389.706c0-6.948-5.623-12.571-12.57-12.571 0 6.948 5.622 12.546 12.57 12.571m25.137 0c0-6.948-5.623-12.571-12.57-12.571 0 6.948 5.623 12.546 12.57 12.546zm-12.57-12.571c6.947 0 12.57-5.623 12.57-12.571-6.922 0-12.545 5.623-12.545 12.546zm25.119 0c0-6.948-5.623-12.546-12.546-12.571 0 6.948 5.623 12.571 12.571 12.571z"/>
      <path d="M103.127 377.135c-6.948 0-12.57 5.623-12.57 12.571 6.947 0 12.545-5.623 12.57-12.571m25.147 0c-6.948 0-12.571 5.623-12.571 12.571 6.923 0 12.546-5.623 12.571-12.546zm-25.144 0c6.947 0 12.57-5.623 12.57-12.571-6.922 0-12.545 5.623-12.545 12.571z"/>
      <path d="M128.268 377.135c0-6.923-5.623-12.546-12.545-12.546 0 6.948 5.623 12.571 12.57 12.571zM115.7 389.706c0-6.948-5.623-12.571-12.57-12.571 0 6.948 5.623 12.546 12.57 12.571"/>
      <path d="M128.277 377.135c6.947 0 12.57-5.623 12.57-12.571-6.922 0-12.545 5.623-12.545 12.546zm12.541 12.571c0-6.948-5.623-12.571-12.57-12.571 0 6.923 5.623 12.546 12.57 12.546zm12.574-12.571c-6.948 0-12.571 5.623-12.571 12.571 6.948 0 12.546-5.623 12.571-12.571"/>
      <path d="M153.386 377.135c0-6.948-5.623-12.546-12.545-12.571 0 6.948 5.623 12.571 12.57 12.571zm25.118 0c0-6.923-5.623-12.546-12.545-12.571 0 6.948 5.623 12.571 12.57 12.571z"/>
      <path d="M153.385 377.135c6.948 0 12.571-5.623 12.571-12.571-6.948 0-12.546 5.623-12.546 12.571zm25.115 0c-6.948 0-12.57 5.623-12.57 12.571 6.947 0 12.545-5.623 12.57-12.571"/>
      <path d="M165.936 389.706c0-6.948-5.623-12.571-12.57-12.571 0 6.948 5.623 12.571 12.57 12.571m37.686-12.571c0-6.923-5.623-12.546-12.545-12.546 0 6.948 5.623 12.571 12.57 12.571zm-25.119 0c6.948 0 12.571-5.623 12.571-12.571-6.923 0-12.546 5.623-12.546 12.571z"/>
      <path d="M203.618 377.135c-6.948 0-12.571 5.623-12.571 12.571 6.923 0 12.546-5.623 12.571-12.546z"/>
      <path d="M191.074 389.706c0-6.948-5.623-12.571-12.571-12.571 0 6.948 5.623 12.546 12.571 12.571m25.118 0c0-6.948-5.623-12.571-12.571-12.571 0 6.923 5.623 12.546 12.571 12.546zm12.548-12.571c0-6.948-5.623-12.546-12.545-12.571 0 6.948 5.623 12.571 12.57 12.571z"/>
      <path d="M228.736 377.135c-6.948 0-12.571 5.623-12.571 12.571 6.948 0 12.546-5.623 12.571-12.571m-25.115 0c6.948 0 12.571-5.623 12.571-12.571-6.923 0-12.546 5.623-12.546 12.546zm37.689 12.571c0-6.948-5.623-12.571-12.571-12.571 0 6.948 5.623 12.571 12.571 12.571m12.568-12.571c0-6.948-5.623-12.546-12.546-12.571 0 6.948 5.623 12.571 12.571 12.571z"/>
      <path d="M253.873 377.135c-6.947 0-12.57 5.623-12.57 12.571 6.947 0 12.545-5.623 12.57-12.571m-25.134 0c6.948 0 12.571-5.623 12.571-12.571-6.948 0-12.546 5.623-12.546 12.571zm50.257 0c0-6.923-5.623-12.546-12.546-12.546 0 6.948 5.623 12.571 12.571 12.571zm-25.12 0c6.948 0 12.571-5.623 12.571-12.571-6.923 0-12.546 5.623-12.546 12.571z"/>
      <path d="M278.991 377.135c-6.947 0-12.57 5.623-12.57 12.571 6.922 0 12.545-5.623 12.57-12.546z"/>
      <path d="M266.427 389.706c0-6.948-5.622-12.571-12.57-12.571 0 6.948 5.623 12.546 12.57 12.571m37.682-12.571c-6.947 0-12.57 5.623-12.57 12.571 6.947 0 12.545-5.623 12.57-12.571m.005 0c0-6.923-5.623-12.546-12.546-12.571 0 6.948 5.623 12.571 12.571 12.571zm-12.578 12.571c0-6.948-5.623-12.571-12.571-12.571 0 6.923 5.623 12.546 12.571 12.546zm-12.542-12.571c6.948 0 12.571-5.623 12.571-12.571-6.923 0-12.546 5.623-12.546 12.546zm50.228 0c0-6.923-5.623-12.546-12.546-12.571 0 6.948 5.623 12.571 12.571 12.571zm-12.539 12.571c0-6.948-5.623-12.571-12.571-12.571 0 6.948 5.623 12.546 12.571 12.571"/>
      <path d="M329.227 377.135c-6.947 0-12.57 5.623-12.57 12.571 6.947 0 12.545-5.623 12.57-12.571m-25.115 0c6.948 0 12.571-5.623 12.571-12.571-6.923 0-12.546 5.623-12.546 12.571zM52.9 402.251c-6.947 0-12.57 5.623-12.57 12.571 6.948 0 12.546-5.623 12.546-12.571h.025Z"/>
      <path d="M40.33 389.706c0 6.947 5.623 12.57 12.57 12.57 0-6.947-5.622-12.545-12.57-12.57m25.138 0c0 6.947 5.622 12.57 12.57 12.57 0-6.947-5.623-12.545-12.57-12.545z"/>
      <path d="M78.018 402.251c-6.947 0-12.57 5.623-12.57 12.571 6.923 0 12.545-5.623 12.545-12.546zm-12.544-12.545c-6.947 0-12.545 5.623-12.57 12.57 6.947 0 12.57-5.623 12.57-12.57"/>
      <path d="M65.445 414.822c0-6.948-5.623-12.571-12.57-12.571 0 6.948 5.622 12.546 12.545 12.571zm25.137-25.116c-6.947 0-12.545 5.623-12.57 12.545 6.947 0 12.57-5.623 12.57-12.57zm12.545 12.545c-6.948 0-12.57 5.623-12.57 12.571 6.947 0 12.545-5.623 12.545-12.571z"/>
      <path d="M103.127 402.251c0-6.947-5.623-12.545-12.57-12.57 0 6.947 5.622 12.57 12.57 12.57m-12.545 12.571c0-6.948-5.623-12.571-12.57-12.571 0 6.923 5.623 12.546 12.545 12.546zm12.548-12.571c6.947 0 12.57-5.623 12.57-12.57-6.947 0-12.545 5.623-12.57 12.57m25.144 0c-6.948 0-12.571 5.623-12.571 12.571 6.923 0 12.546-5.623 12.546-12.546zM115.7 414.822c0-6.948-5.623-12.571-12.57-12.571 0 6.948 5.623 12.546 12.545 12.571z"/>
      <path d="M128.274 402.251c0-6.922-5.623-12.545-12.571-12.545 0 6.947 5.623 12.57 12.571 12.57zm.003 0c6.947 0 12.57-5.623 12.57-12.57-6.922 0-12.545 5.623-12.57 12.545zm25.115 0c-6.948 0-12.571 5.623-12.571 12.571 6.948 0 12.546-5.623 12.546-12.571z"/>
      <path d="M153.392 402.251c0-6.947-5.623-12.57-12.571-12.57 0 6.947 5.623 12.57 12.571 12.57m-12.574 12.571c0-6.948-5.623-12.571-12.57-12.571 0 6.923 5.623 12.546 12.545 12.546z"/>
      <path d="M153.385 402.251c6.948 0 12.571-5.623 12.571-12.57-6.948 0-12.546 5.623-12.571 12.57"/>
      <path d="M178.5 402.251c0-6.947-5.623-12.545-12.57-12.57 0 6.947 5.622 12.57 12.57 12.57m-12.564 12.571c0-6.948-5.623-12.571-12.57-12.571 0 6.948 5.623 12.571 12.545 12.571z"/>
      <path d="M178.5 402.251c-6.948 0-12.57 5.623-12.57 12.571 6.947 0 12.545-5.623 12.545-12.571zm.003 0c6.948 0 12.571-5.623 12.571-12.57-6.948 0-12.546 5.623-12.571 12.57"/>
      <path d="M203.618 402.251c0-6.922-5.623-12.545-12.571-12.545 0 6.947 5.623 12.57 12.571 12.57zm-12.544 12.571c0-6.948-5.623-12.571-12.571-12.571 0 6.948 5.623 12.546 12.546 12.571z"/>
      <path d="M203.618 402.251c-6.948 0-12.571 5.623-12.571 12.571 6.923 0 12.546-5.623 12.546-12.546zm.003 0c6.948 0 12.571-5.623 12.571-12.57-6.923 0-12.546 5.623-12.571 12.545z"/>
      <path d="M228.736 402.251c0-6.947-5.623-12.57-12.571-12.57 0 6.947 5.623 12.57 12.571 12.57m-12.544 12.571c0-6.948-5.623-12.571-12.571-12.571 0 6.923 5.623 12.546 12.546 12.546z"/>
      <path d="M228.736 402.251c-6.948 0-12.571 5.623-12.571 12.571 6.948 0 12.546-5.623 12.546-12.571zm25.137 0c0-6.947-5.623-12.545-12.57-12.57 0 6.947 5.623 12.57 12.57 12.57m0 0c-6.947 0-12.57 5.623-12.57 12.571 6.947 0 12.545-5.623 12.545-12.571z"/>
      <path d="M241.31 414.822c0-6.948-5.623-12.571-12.571-12.571 0 6.948 5.623 12.571 12.546 12.571zm-12.571-12.571c6.948 0 12.571-5.623 12.571-12.57-6.948 0-12.546 5.623-12.571 12.57m37.688 12.571c0-6.948-5.622-12.571-12.57-12.571 0 6.948 5.623 12.546 12.546 12.571zm12.564-12.571c0-6.922-5.623-12.545-12.57-12.545 0 6.947 5.623 12.57 12.57 12.57z"/>
      <path d="M278.991 402.251c-6.947 0-12.57 5.623-12.57 12.571 6.922 0 12.545-5.623 12.545-12.546zm-25.115 0c6.948 0 12.571-5.623 12.571-12.57-6.948 0-12.546 5.623-12.571 12.57m50.233 0c-6.947 0-12.57 5.623-12.57 12.571 6.947 0 12.545-5.623 12.545-12.571zm0 0c0-6.947-5.623-12.545-12.57-12.57 0 6.947 5.623 12.57 12.57 12.57"/>
      <path d="M291.536 414.822c0-6.948-5.623-12.571-12.571-12.571 0 6.923 5.623 12.546 12.546 12.546zm-12.542-12.571c6.948 0 12.571-5.623 12.571-12.57-6.923 0-12.546 5.623-12.571 12.545zm25.118 0c6.948 0 12.571-5.623 12.571-12.57-6.948 0-12.546 5.623-12.571 12.57m12.571 12.571c0-6.948-5.623-12.571-12.571-12.571 0 6.948 5.623 12.546 12.546 12.571z"/>
      <path d="M316.676 389.706c0 6.947 5.623 12.57 12.571 12.57 0-6.947-5.623-12.545-12.571-12.57"/>
      <path d="M316.682 414.822c6.947 0 12.545-5.623 12.545-12.571-6.947 0-12.57 5.623-12.57 12.571zm-276.352 0c0 6.947 5.623 12.57 12.57 12.57 0-6.947-5.622-12.545-12.545-12.57z"/>
      <path d="M52.9 427.367c-6.947 0-12.57 5.623-12.57 12.571 6.948 0 12.546-5.623 12.57-12.571"/>
      <path d="M65.445 439.938c0-6.948-5.623-12.571-12.57-12.571 0 6.948 5.622 12.546 12.57 12.571m12.573-12.571c-6.947 0-12.57 5.623-12.57 12.571 6.947 0 12.545-5.623 12.57-12.546z"/>
      <path d="M65.469 414.822c-6.948 0-12.546 5.623-12.546 12.57 6.948 0 12.57-5.623 12.57-12.57z"/>
      <path d="M65.468 414.822c0 6.947 5.622 12.57 12.57 12.57 0-6.922-5.623-12.545-12.545-12.545zm25.117 0c0 6.947 5.623 12.57 12.571 12.57 0-6.947-5.623-12.545-12.546-12.57z"/>
      <path d="M90.582 439.938c0-6.948-5.623-12.571-12.57-12.571 0 6.948 5.623 12.546 12.57 12.546z"/>
      <path d="M90.587 414.822c-6.923 0-12.546 5.623-12.546 12.545 6.948 0 12.57-5.623 12.57-12.57zm12.54 12.545c-6.948 0-12.57 5.623-12.57 12.571 6.947 0 12.57-5.623 12.57-12.571m25.147.025c-6.948 0-12.571 5.623-12.571 12.571 6.923 0 12.546-5.623 12.571-12.546zm-12.569-12.57c-6.948 0-12.546 5.623-12.546 12.57 6.948 0 12.571-5.623 12.571-12.57z"/>
      <path d="M128.268 427.367c0-6.922-5.623-12.545-12.545-12.545 0 6.947 5.623 12.57 12.57 12.57zM115.7 439.938c0-6.948-5.623-12.571-12.57-12.571 0 6.948 5.623 12.571 12.57 12.571m37.692-12.571c-6.948 0-12.571 5.623-12.571 12.571 6.948 0 12.571-5.623 12.571-12.571m-.006 0c0-6.947-5.623-12.57-12.545-12.57 0 6.947 5.623 12.57 12.57 12.57z"/>
      <path d="M128.277 427.367c6.947 0 12.57-5.623 12.57-12.57-6.922 0-12.545 5.623-12.545 12.545z"/>
      <path d="M140.818 439.938c0-6.948-5.623-12.571-12.57-12.571 0 6.923 5.623 12.546 12.57 12.546zm37.682-12.571c-6.948 0-12.57 5.623-12.57 12.571 6.947 0 12.545-5.623 12.57-12.571m.004 0c0-6.947-5.623-12.545-12.545-12.57 0 6.947 5.623 12.57 12.57 12.57z"/>
      <path d="M165.936 439.938c0-6.948-5.623-12.571-12.57-12.571 0 6.948 5.623 12.571 12.57 12.571"/>
      <path d="M153.385 427.367c6.948 0 12.571-5.623 12.571-12.57-6.948 0-12.546 5.623-12.546 12.57zm50.233.025c-6.948 0-12.571 5.623-12.571 12.571 6.923 0 12.546-5.623 12.571-12.546zm-25.115-.025c6.948 0 12.571-5.623 12.571-12.57-6.948 0-12.546 5.623-12.546 12.57z"/>
      <path d="M191.074 439.938c0-6.948-5.623-12.571-12.571-12.571 0 6.948 5.623 12.546 12.571 12.571m12.548-12.571c0-6.922-5.623-12.545-12.545-12.545 0 6.947 5.623 12.57 12.57 12.57z"/>
      <path d="M203.621 427.367c6.948 0 12.571-5.623 12.571-12.57-6.923 0-12.546 5.623-12.546 12.545zm25.115 0c-6.948 0-12.571 5.623-12.571 12.571 6.948 0 12.571-5.623 12.571-12.571"/>
      <path d="M216.192 439.938c0-6.948-5.623-12.571-12.571-12.571 0 6.923 5.623 12.546 12.571 12.546zm12.548-12.571c0-6.947-5.623-12.57-12.545-12.57 0 6.947 5.623 12.57 12.57 12.57zm25.138 0c0-6.947-5.623-12.545-12.546-12.57 0 6.947 5.623 12.57 12.571 12.57z"/>
      <path d="M228.739 427.367c6.948 0 12.571-5.623 12.571-12.57-6.948 0-12.546 5.623-12.546 12.57zm25.134 0c-6.947 0-12.57 5.623-12.57 12.571 6.947 0 12.57-5.623 12.57-12.571"/>
      <path d="M241.31 439.938c0-6.948-5.623-12.571-12.571-12.571 0 6.948 5.623 12.571 12.571 12.571m37.686-12.571c0-6.922-5.623-12.545-12.546-12.545 0 6.947 5.623 12.57 12.571 12.57zm-12.569 12.571c0-6.948-5.622-12.571-12.57-12.571 0 6.948 5.623 12.571 12.57 12.571"/>
      <path d="M278.991 427.367c-6.947 0-12.57 5.623-12.57 12.571 6.947 0 12.545-5.623 12.57-12.546zm-25.115 0c6.948 0 12.571-5.623 12.571-12.57-6.948 0-12.546 5.623-12.546 12.57zm37.692-12.545c0 6.947 5.623 12.57 12.571 12.57 0-6.947-5.623-12.545-12.546-12.57z"/>
      <path d="M291.536 439.938c0-6.948-5.623-12.571-12.571-12.571 0 6.923 5.623 12.546 12.571 12.546z"/>
      <path d="M278.994 427.367c6.948 0 12.571-5.623 12.571-12.57-6.923 0-12.546 5.623-12.546 12.545zm12.574 12.571c6.948 0 12.546-5.623 12.571-12.571-6.948 0-12.571 5.623-12.571 12.571m25.108 0c6.948 0 12.546-5.623 12.571-12.571-6.948 0-12.571 5.623-12.571 12.571m-12.564-12.571c6.948 0 12.571-5.623 12.571-12.57-6.948 0-12.546 5.623-12.546 12.57z"/>
      <path d="M316.683 439.938c0-6.948-5.623-12.571-12.571-12.571 0 6.948 5.623 12.546 12.571 12.571m-.007-25.116c0 6.947 5.623 12.57 12.571 12.57 0-6.947-5.623-12.545-12.546-12.57z"/>
    </g>
  </g>
  <path fill="#00D264" d="M187.274 310.284c-35.762 0-70.725-6.298-103.938-18.743H51.098v-12.496H85.61l1.075.4c32.113 12.171 65.951 18.344 100.589 18.344 34.637 0 68.475-6.173 100.589-18.344l1.074-.4h34.513v12.496h-32.238c-33.214 12.445-68.176 18.743-103.938 18.743"/>
  <path fill="#00D264" d="M187.282 324.227c12.275 0 22.226-9.952 22.226-22.227s-9.951-22.227-22.226-22.227c-12.276 0-22.227 9.952-22.227 22.227s9.951 22.227 22.227 22.227"/>
  <path fill="#0A2660" d="M187.28 279.757c12.273 0 22.227 9.953 22.227 22.226s-9.954 22.227-22.227 22.227-22.227-9.953-22.227-22.227c0-12.273 9.954-22.226 22.227-22.226m0-.757c-12.677 0-23 10.306-23 23s10.306 23 23 23 23-10.306 23-23-10.306-23-23-23"/>
  <path fill="#00D264" d="M189.984 322.696c11.432-1.479 19.502-11.953 18.006-23.403-1.479-11.433-11.954-19.503-23.403-18.007-11.433 1.48-19.503 11.954-18.007 23.404 1.48 11.433 11.954 19.503 23.404 18.006"/>
  <path fill="#fff" d="M187.644 284.128h-.706v35.761h.706z"/>
  <path fill="#fff" d="m178.655 286.347-.622.353 17.872 30.969.622-.353z"/>
  <path fill="#fff" d="m171.976 292.77-.353.622 30.969 17.872.353-.622z"/>
  <path fill="#fff" d="M205.164 301.664h-35.761v.706h35.761z"/>
  <path fill="#fff" d="m202.592 292.786-30.969 17.873.353.622 30.969-17.872z"/>
  <path fill="#fff" d="m195.918 286.347-17.872 30.969.622.353L196.54 286.7z"/>
  <path fill="#00D264" d="M187.276 315.753c7.583 0 13.737-6.154 13.737-13.736s-6.154-13.736-13.737-13.736c-7.582 0-13.736 6.153-13.736 13.736 0 7.582 6.154 13.736 13.736 13.736"/>
  <path fill="#fff" d="M193.785 311.516a14.56 14.56 0 0 0-12.459 0l-2.118-2.824 9.449-11.265c-.555.05-1.11.067-1.665.067a18.3 18.3 0 0 1-7.767-1.748l1.547-3.262a14.56 14.56 0 0 0 12.458 0l2.118 2.825-9.448 11.264c.554-.05 1.109-.067 1.664-.067 2.673 0 5.347.605 7.768 1.748z"/>
  <g filter="url(#j)">
    <path fill="#FFEB5F" d="M305.386 9.56c-.738 1.234-1.948.823-2.461.31-1.231 0-.513.822 0 1.233.513.308 1.846.74 3.076 0 1.538-.925 1.538-4.01 0-5.243s-3.999-1.542-6.153.617c0-1.542-.923-4.01-3.999-4.01H153V0h146.233C307.389 0 314 6.628 314 14.804V97.5h-1.846V21.28c0-5.551-2.153-6.476-5.23-6.785-3.076-.308-6.46-2.159-6.46-4.626s1.23-3.7 3.076-3.7 2.769 1.85 1.846 3.392Z"/>
  </g>
  <g filter="url(#k)">
    <path fill="#FFEB5F" d="M70.614 9.56c.738 1.234 1.948.823 2.461.31 1.23 0 .513.822 0 1.233-.513.308-1.846.74-3.076 0-1.538-.925-1.538-4.01 0-5.243s4-1.542 6.153.617c0-1.542.922-4.01 3.999-4.01H223V0H76.767C68.61 0 62 6.628 62 14.804V97.5h1.846V21.28c0-5.551 2.153-6.476 5.23-6.785 3.076-.308 6.46-2.159 6.46-4.626s-1.23-3.7-3.076-3.7-2.769 1.85-1.846 3.392Z"/>
  </g>
  <defs>
    <path id="b" d="M92.444 270.998H49.692v147.447c0 5.521 4.475 9.997 9.996 9.997h254.909c5.521 0 9.996-4.476 9.996-9.997V270.998H284.34c-22.167 10.642-56.901 17.494-95.948 17.494s-73.78-6.852-95.948-17.494"/>
    <path id="c" fill="#3C6BFF" d="M92.444 270.998H49.692v147.447c0 5.521 4.475 9.997 9.996 9.997h254.909c5.521 0 9.996-4.476 9.996-9.997V270.998H284.34c-22.167 10.642-56.901 17.494-95.948 17.494s-73.78-6.852-95.948-17.494"/>
    <path id="d" fill="#0A2660" d="M49.692 270.998v-1.249h-1.25v1.249zm42.752 0 .541-1.126-.256-.123h-.285zm232.149 0h1.25v-1.249h-1.25zm-40.253 0v-1.249h-.284l-.257.123zm-234.648 1.25h42.752v-2.499H49.692zm1.25 146.197V270.998h-2.5v147.447zm8.746 8.747a8.747 8.747 0 0 1-8.747-8.747h-2.499c0 6.211 5.035 11.246 11.246 11.246zm254.909 0H59.688v2.499h254.909zm8.747-8.747a8.747 8.747 0 0 1-8.747 8.747v2.499c6.211 0 11.246-5.035 11.246-11.246zm0-147.447v147.447h2.499V270.998zm-39.004 1.25h40.253v-2.499H284.34zm-.541-2.376c-21.943 10.533-56.474 17.37-95.407 17.37v2.5c39.16 0 74.097-6.868 96.489-17.617zm-95.407 17.37c-38.933 0-73.464-6.837-95.407-17.37l-1.081 2.253c22.391 10.749 57.328 17.617 96.488 17.617z"/>
    <filter id="j" width="161" height="98.407" x="153" y="0" color-interpolation-filters="sRGB" filterUnits="userSpaceOnUse">
      <feFlood flood-opacity="0" result="BackgroundImageFix"/>
      <feBlend in="SourceGraphic" in2="BackgroundImageFix" result="shape"/>
      <feColorMatrix in="SourceAlpha" result="hardAlpha" values="0 0 0 0 0 0 0 0 0 0 0 0 0 0 0 0 0 0 127 0"/>
      <feOffset dy=".907"/>
      <feGaussianBlur stdDeviation=".453"/>
      <feComposite in2="hardAlpha" k2="-1" k3="1" operator="arithmetic"/>
      <feColorMatrix values="0 0 0 0 0.992157 0 0 0 0 0.929412 0 0 0 0 0.835294 0 0 0 1 0"/>
      <feBlend in2="shape" result="effect1_innerShadow_4182_34246"/>
    </filter>
    <filter id="k" width="161" height="98.407" x="62" y="0" color-interpolation-filters="sRGB" filterUnits="userSpaceOnUse">
      <feFlood flood-opacity="0" result="BackgroundImageFix"/>
      <feBlend in="SourceGraphic" in2="BackgroundImageFix" result="shape"/>
      <feColorMatrix in="SourceAlpha" result="hardAlpha" values="0 0 0 0 0 0 0 0 0 0 0 0 0 0 0 0 0 0 127 0"/>
      <feOffset dy=".907"/>
      <feGaussianBlur stdDeviation=".453"/>
      <feComposite in2="hardAlpha" k2="-1" k3="1" operator="arithmetic"/>
      <feColorMatrix values="0 0 0 0 0.992157 0 0 0 0 0.929412 0 0 0 0 0.835294 0 0 0 1 0"/>
      <feBlend in2="shape" result="effect1_innerShadow_4182_34246"/>
    </filter>
    <clipPath id="a">
      <path fill="#fff" d="M0 10h375v375H0z"/>
    </clipPath>
  </defs>
</svg>
