<svg xmlns="http://www.w3.org/2000/svg" width="99" height="54" fill="none" viewBox="0 0 99 54">
  <path fill="#B6FC4F" d="M98.52 46.296 75.378 51.35l-53.69-1.303a59 59 0 0 1-6.247-2.12c-20.6-8.376-20.625-37.705.148-45.655 16.393-6.277 38.367.742 42.932 17.489.763 2.803 1.889 5.834 2.2 9.539 0 0 31.775-9.278 37.799 16.996"/>
  <path stroke="#5FCE70" stroke-miterlimit="10" stroke-width="1.8" d="M91.261 53.184s-7.684-27.96-37.419-17.026C56.102 12.738 27.48.801 15.584 12.586c-3.975 3.937-3.604 11.095-.092 15.15 4.679 5.408 20.95 6.72 23.525-1.695 1.08-3.52-1.307-6.706-4.418-8.164-4.261-1.998-9.1-.624-12.32 2.617"/>
</svg>
