<svg xmlns="http://www.w3.org/2000/svg" width="390" height="220" fill="none" viewBox="0 0 390 220" xmlns:xlink="http://www.w3.org/1999/xlink">
  <mask id="a" width="390" height="220" x="0" y="0" maskUnits="userSpaceOnUse" style="mask-type:alpha">
    <path fill="#D9D9D9" d="M0 0h390v220H0z"/>
  </mask>
  <g mask="url(#a)">
    <path fill="#00B250" d="M-2-3h412v96H-2z"/>
    <path fill="#A1FF00" d="M260.774 90.799h147.457c22.083 0 35.627-24.894 22.775-42.766-3.936-5.469-10-9.829-19.207-11.737-36.82-7.643-47.589 34.479-72.637 25.593-16.699-6.456-31.112-5.403-43.163 1.975-19.195 11.748-40.643 19.447-63.116 21.11-12.418.921-22.674 4.782-28.872 2.486v2.096l56.774 1.243z"/>
    <mask id="b" width="232" height="56" x="204" y="35" maskUnits="userSpaceOnUse" style="mask-type:luminance">
      <path fill="#fff" d="M260.774 90.799h147.457c22.083 0 35.627-24.894 22.775-42.766-3.936-5.469-10-9.829-19.207-11.737-36.82-7.643-47.589 34.479-72.637 25.593-16.699-6.456-31.112-5.403-43.163 1.975-19.195 11.748-40.643 19.447-63.116 21.11-12.418.921-22.674 4.782-28.872 2.486v2.096l56.774 1.243z"/>
    </mask>
    <g fill="#FFFFFB" mask="url(#b)">
      <path d="M234.979 37.006c-4.995 0-9.041 4.027-9.041 8.997 4.994 0 9.041-4.027 9.041-8.997m-9.041 8.997c0-4.97-4.047-8.997-9.041-8.997 0 4.97 4.047 8.997 9.041 8.997m9.041-8.997c0-4.97-4.047-8.997-9.041-8.997 0 4.97 4.046 8.997 9.041 8.997m-18.082-.011c4.994 0 9.041-4.027 9.041-8.997-4.994 0-9.041 4.027-9.041 8.997m18.082 0c4.994 0 9.04-4.027 9.04-8.997-4.994 0-9.04 4.027-9.04 8.997m9.051 9.008c0-4.97-4.046-8.997-9.04-8.997 0 4.97 4.046 8.997 9.04 8.997m9.041-8.997c0-4.97-4.047-8.997-9.041-8.997 0 4.97 4.047 8.997 9.041 8.997m0 0c-4.994 0-9.041 4.027-9.041 8.997 4.994 0 9.041-4.027 9.041-8.997m0-.011c4.994 0 9.04-4.027 9.04-8.997-4.994 0-9.04 4.027-9.04 8.997m18.092.011c0-4.97-4.046-8.997-9.04-8.997 0 4.97 4.046 8.997 9.04 8.997m0 0c-4.994 0-9.04 4.027-9.04 8.997 4.994 0 9.04-4.027 9.04-8.997m-9.052 8.997c0-4.97-4.046-8.997-9.04-8.997 0 4.97 4.046 8.997 9.04 8.997m18.093 0c0-4.97-4.047-8.997-9.041-8.997 0 4.97 4.047 8.997 9.041 8.997m9.04-8.997c0-4.97-4.046-8.997-9.04-8.997 0 4.97 4.046 8.997 9.04 8.997m-18.081-.011c4.994 0 9.041-4.027 9.041-8.997-4.994 0-9.041 4.027-9.041 8.997m18.081.011c-4.994 0-9.04 4.027-9.04 8.997 4.994 0 9.04-4.027 9.04-8.997m9.041 8.997c0-4.97-4.047-8.997-9.041-8.997 0 4.97 4.047 8.997 9.041 8.997m9.051-8.997c0-4.97-4.046-8.997-9.04-8.997 0 4.97 4.046 8.997 9.04 8.997m-18.092-.011c4.994 0 9.041-4.027 9.041-8.997-4.994 0-9.041 4.027-9.041 8.997m18.092.011c-4.994 0-9.04 4.027-9.04 8.997 4.994 0 9.04-4.027 9.04-8.997m9.041 8.997c0-4.97-4.047-8.997-9.041-8.997 0 4.97 4.047 8.997 9.041 8.997m9.04-8.997c0-4.97-4.046-8.997-9.04-8.997 0 4.97 4.046 8.997 9.04 8.997m-18.081-.011c4.994 0 9.041-4.027 9.041-8.997-4.994 0-9.041 4.027-9.041 8.997m18.081.011c-4.994 0-9.04 4.027-9.04 8.997 4.994 0 9.04-4.027 9.04-8.997m18.093 0c-4.995 0-9.041 4.027-9.041 8.997 4.994 0 9.041-4.027 9.041-8.997m0 0c0-4.97-4.047-8.997-9.041-8.997 0 4.97 4.046 8.997 9.041 8.997m-18.093-.011c4.994 0 9.041-4.027 9.041-8.997-4.994 0-9.041 4.027-9.041 8.997m9.052 9.008c0-4.97-4.047-8.997-9.041-8.997 0 4.97 4.047 8.997 9.041 8.997m18.081 0c0-4.97-4.046-8.997-9.04-8.997 0 4.97 4.046 8.997 9.04 8.997m-9.04-9.008c4.994 0 9.04-4.027 9.04-8.997-4.994 0-9.04 4.027-9.04 8.997m18.092.011c-4.994 0-9.041 4.027-9.041 8.997 4.994 0 9.041-4.027 9.041-8.997m0 0c0-4.97-4.047-8.997-9.041-8.997 0 4.97 4.047 8.997 9.041 8.997m18.081 0c-4.994 0-9.041 4.027-9.041 8.997 4.994 0 9.041-4.027 9.041-8.997m-9.041 8.997c0-4.97-4.046-8.997-9.04-8.997 0 4.97 4.046 8.997 9.04 8.997m9.041-8.997c0-4.97-4.047-8.997-9.041-8.997 0 4.97 4.047 8.997 9.041 8.997m-18.081-.011c4.994 0 9.04-4.027 9.04-8.997-4.994 0-9.04 4.027-9.04 8.997m36.173.011c0-4.97-4.046-8.997-9.04-8.997 0 4.97 4.046 8.997 9.04 8.997m0 0c-4.994 0-9.04 4.027-9.04 8.997 4.994 0 9.04-4.027 9.04-8.997m-18.092-.011c4.994 0 9.04-4.027 9.04-8.997-4.994 0-9.04 4.027-9.04 8.997m9.04 9.008c0-4.97-4.046-8.997-9.04-8.997 0 4.97 4.046 8.997 9.04 8.997M234.979 55c-4.995 0-9.041 4.027-9.041 8.997 4.994 0 9.041-4.027 9.041-8.997m-9.041-8.997c-4.994 0-9.041 4.027-9.041 8.997 4.994 0 9.041-4.027 9.041-8.997m0 17.994c0-4.97-4.047-8.997-9.041-8.997 0 4.97 4.047 8.997 9.041 8.997M234.979 55c0-4.97-4.047-8.997-9.041-8.997 0 4.97 4.046 8.997 9.041 8.997m0 0c4.994 0 9.04-4.027 9.04-8.997-4.994 0-9.04 4.027-9.04 8.997m18.092 0c0-4.97-4.047-8.997-9.041-8.997 0 4.97 4.047 8.997 9.041 8.997m0 0c-4.994 0-9.041 4.027-9.041 8.997 4.994 0 9.041-4.027 9.041-8.997m-9.052 8.997c0-4.97-4.046-8.997-9.04-8.997 0 4.97 4.046 8.997 9.04 8.997M271.163 55c0-4.97-4.046-8.997-9.04-8.997 0 4.97 4.046 8.997 9.04 8.997m-9.052 8.997c0-4.97-4.046-8.997-9.04-8.997 0 4.97 4.046 8.997 9.04 8.997M271.163 55c-4.994 0-9.04 4.027-9.04 8.997 4.994 0 9.04-4.027 9.04-8.997m-18.092 0c4.994 0 9.04-4.027 9.04-8.997-4.994 0-9.04 4.027-9.04 8.997m36.173 0c-4.994 0-9.04 4.027-9.04 8.997 4.994 0 9.04-4.027 9.04-8.997m-9.04 8.997c0-4.97-4.047-8.997-9.041-8.997 0 4.97 4.047 8.997 9.041 8.997M271.163 55c4.994 0 9.041-4.027 9.041-8.997-4.994 0-9.041 4.027-9.041 8.997m18.081 0c0-4.97-4.046-8.997-9.04-8.997 0 4.97 4.046 8.997 9.04 8.997m18.092 0c-4.994 0-9.04 4.027-9.04 8.997 4.994 0 9.04-4.027 9.04-8.997m-9.051 8.997c0-4.97-4.047-8.997-9.041-8.997 0 4.97 4.047 8.997 9.041 8.997M307.336 55c0-4.97-4.046-8.997-9.04-8.997 0 4.97 4.046 8.997 9.04 8.997m-18.092 0c4.994 0 9.041-4.027 9.041-8.997-4.994 0-9.041 4.027-9.041 8.997m36.173 0c0-4.97-4.046-8.997-9.04-8.997 0 4.97 4.046 8.997 9.04 8.997m-18.081 0c4.994 0 9.041-4.027 9.041-8.997-4.994 0-9.041 4.027-9.041 8.997m18.081 0c-4.994 0-9.04 4.027-9.04 8.997 4.994 0 9.04-4.027 9.04-8.997"/>
      <path d="M316.377 63.997c0-4.97-4.047-8.997-9.041-8.997 0 4.97 4.047 8.997 9.041 8.997m18.092 0c0-4.97-4.047-8.997-9.041-8.997 0 4.97 4.047 8.997 9.041 8.997M343.51 55c-4.995 0-9.041 4.027-9.041 8.997 4.994 0 9.041-4.027 9.041-8.997m0 0c0-4.97-4.047-8.997-9.041-8.997 0 4.97 4.046 8.997 9.041 8.997m-18.093 0c4.994 0 9.041-4.027 9.041-8.997-4.994 0-9.041 4.027-9.041 8.997m36.185 0c0-4.97-4.047-8.997-9.041-8.997 0 4.97 4.047 8.997 9.041 8.997m-18.092 0c4.994 0 9.04-4.027 9.04-8.997-4.994 0-9.04 4.027-9.04 8.997m9.04 8.997c0-4.97-4.046-8.997-9.04-8.997 0 4.97 4.046 8.997 9.04 8.997M361.602 55c-4.994 0-9.041 4.027-9.041 8.997 4.994 0 9.041-4.027 9.041-8.997m18.081 0c-4.994 0-9.041 4.027-9.041 8.997 4.994 0 9.041-4.027 9.041-8.997m-9.041 8.997c0-4.97-4.046-8.997-9.04-8.997 0 4.97 4.046 8.997 9.04 8.997M361.602 55c4.994 0 9.04-4.027 9.04-8.997-4.994 0-9.04 4.027-9.04 8.997m18.081 0c0-4.97-4.047-8.997-9.041-8.997 0 4.97 4.047 8.997 9.041 8.997m18.092 0c-4.994 0-9.04 4.027-9.04 8.997 4.994 0 9.04-4.027 9.04-8.997m-9.052 8.997c0-4.97-4.046-8.997-9.04-8.997 0 4.97 4.046 8.997 9.04 8.997M397.775 55c0-4.97-4.046-8.997-9.04-8.997 0 4.97 4.046 8.997 9.04 8.997m-18.092 0c4.994 0 9.04-4.027 9.04-8.997-4.994 0-9.04 4.027-9.04 8.997m-153.745 8.997c0 4.97 4.046 8.997 9.041 8.997 0-4.97-4.047-8.997-9.041-8.997m0 0c-4.994 0-9.041 4.027-9.041 8.997 4.994 0 9.041-4.027 9.041-8.997m0 18.005c0-4.97-4.047-8.997-9.041-8.997 0 4.97 4.047 8.997 9.041 8.997m9.041-8.997c-4.995 0-9.041 4.027-9.041 8.997 4.994 0 9.041-4.027 9.041-8.997m18.092 0c-4.994 0-9.041 4.027-9.041 8.997 4.994 0 9.041-4.027 9.041-8.997m0 0c0-4.97-4.047-8.997-9.041-8.997 0 4.97 4.047 8.997 9.041 8.997m-9.041-9.008c-4.994 0-9.04 4.027-9.04 8.997 4.994 0 9.04-4.027 9.04-8.997m0 18.005c0-4.97-4.046-8.997-9.04-8.997 0 4.97 4.046 8.997 9.04 8.997m18.081 0c0-4.97-4.046-8.997-9.04-8.997 0 4.97 4.046 8.997 9.04 8.997m-9.04-8.997c4.994 0 9.04-4.027 9.04-8.997-4.994 0-9.04 4.027-9.04 8.997m18.092 0c0-4.97-4.046-8.997-9.04-8.997 0 4.97 4.046 8.997 9.04 8.997m0 0c-4.994 0-9.04 4.027-9.04 8.997 4.994 0 9.04-4.027 9.04-8.997m18.081 0c-4.994 0-9.04 4.027-9.04 8.997 4.994 0 9.04-4.027 9.04-8.997m-18.081 0c4.994 0 9.041-4.027 9.041-8.997-4.994 0-9.041 4.027-9.041 8.997m18.081 0c0-4.97-4.046-8.997-9.04-8.997 0 4.97 4.046 8.997 9.04 8.997m-9.04 8.997c0-4.97-4.047-8.997-9.041-8.997 0 4.97 4.047 8.997 9.041 8.997m9.04-8.997c4.994 0 9.041-4.027 9.041-8.997-4.994 0-9.041 4.027-9.041 8.997m9.041 8.997c0-4.97-4.047-8.997-9.041-8.997 0 4.97 4.047 8.997 9.041 8.997m9.051-8.997c-4.994 0-9.04 4.027-9.04 8.997 4.994 0 9.04-4.027 9.04-8.997m0 0c0-4.97-4.046-8.997-9.04-8.997 0 4.97 4.046 8.997 9.04 8.997m18.081 0c0-4.97-4.046-8.997-9.04-8.997 0 4.97 4.046 8.997 9.04 8.997m-18.081 0c4.994 0 9.041-4.027 9.041-8.997-4.994 0-9.041 4.027-9.041 8.997m18.081 0c-4.994 0-9.04 4.027-9.04 8.997 4.994 0 9.04-4.027 9.04-8.997"/>
      <path d="M316.377 82.002c0-4.97-4.047-8.997-9.041-8.997 0 4.97 4.047 8.997 9.041 8.997m27.133-8.997c0-4.97-4.047-8.997-9.041-8.997 0 4.97 4.046 8.997 9.041 8.997m-18.093 0c4.994 0 9.041-4.027 9.041-8.997-4.994 0-9.041 4.027-9.041 8.997m18.093 0c-4.995 0-9.041 4.027-9.041 8.997 4.994 0 9.041-4.027 9.041-8.997m-9.041 8.997c0-4.97-4.047-8.997-9.041-8.997 0 4.97 4.047 8.997 9.041 8.997m18.081 0c0-4.97-4.046-8.997-9.04-8.997 0 4.97 4.046 8.997 9.04 8.997m9.052-8.997c0-4.97-4.047-8.997-9.041-8.997 0 4.97 4.047 8.997 9.041 8.997m0 0c-4.994 0-9.041 4.027-9.041 8.997 4.994 0 9.041-4.027 9.041-8.997m-18.092 0c4.994 0 9.04-4.027 9.04-8.997-4.994 0-9.04 4.027-9.04 8.997m27.132 8.997c0-4.97-4.046-8.997-9.04-8.997 0 4.97 4.046 8.997 9.04 8.997m9.041-8.997c0-4.97-4.047-8.997-9.041-8.997 0 4.97 4.047 8.997 9.041 8.997m0 0c-4.994 0-9.041 4.027-9.041 8.997 4.994 0 9.041-4.027 9.041-8.997m-18.081 0c4.994 0 9.04-4.027 9.04-8.997-4.994 0-9.04 4.027-9.04 8.997m36.173 0c0-4.97-4.046-8.997-9.04-8.997 0 4.97 4.046 8.997 9.04 8.997m-18.092 0c4.994 0 9.04-4.027 9.04-8.997-4.994 0-9.04 4.027-9.04 8.997m18.092 0c-4.994 0-9.04 4.027-9.04 8.997 4.994 0 9.04-4.027 9.04-8.997m-9.052 8.997c0-4.97-4.046-8.997-9.04-8.997 0 4.97 4.046 8.997 9.04 8.997m-162.785 0c-4.994 0-9.041 4.026-9.041 8.996 4.994 0 9.041-4.026 9.041-8.996m0 0c0 4.97 4.046 8.996 9.041 8.996 0-4.97-4.047-8.996-9.041-8.996m18.092 0c0 4.97 4.047 8.996 9.041 8.996 0-4.97-4.047-8.996-9.041-8.996m0 0c-4.994 0-9.04 4.026-9.04 8.996 4.994 0 9.04-4.026 9.04-8.996m18.081 0c-4.994 0-9.04 4.026-9.04 8.996 4.994 0 9.04-4.026 9.04-8.996m9.052 8.996c0-4.97-4.046-8.996-9.04-8.996 0 4.97 4.046 8.996 9.04 8.996m0 0c4.994 0 9.041-4.026 9.041-8.996-4.994 0-9.041 4.026-9.041 8.996m18.081 0c0-4.97-4.046-8.996-9.04-8.996 0 4.97 4.046 8.996 9.04 8.996m0 0c4.994 0 9.041-4.026 9.041-8.996-4.994 0-9.041 4.026-9.041 8.996m18.092 0c0-4.97-4.046-8.996-9.04-8.996 0 4.97 4.046 8.996 9.04 8.996m0 0c4.994 0 9.041-4.026 9.041-8.996-4.994 0-9.041 4.026-9.041 8.996"/>
      <path d="M325.417 90.998c0-4.97-4.046-8.996-9.04-8.996 0 4.97 4.046 8.996 9.04 8.996m0 0c4.994 0 9.041-4.026 9.041-8.996-4.994 0-9.041 4.026-9.041 8.996m18.093 0c0-4.97-4.047-8.996-9.041-8.996 0 4.97 4.046 8.996 9.041 8.996m0 0c4.994 0 9.04-4.026 9.04-8.996-4.994 0-9.04 4.026-9.04 8.996m18.092 0c0-4.97-4.047-8.996-9.041-8.996 0 4.97 4.047 8.996 9.041 8.996m18.081 0c0-4.97-4.047-8.996-9.041-8.996 0 4.97 4.047 8.996 9.041 8.996m-18.081 0c4.994 0 9.04-4.026 9.04-8.996-4.994 0-9.04 4.026-9.04 8.996m36.173 0c0-4.97-4.046-8.996-9.04-8.996 0 4.97 4.046 8.996 9.04 8.996m-18.092 0c4.994 0 9.04-4.026 9.04-8.996-4.994 0-9.04 4.026-9.04 8.996"/>
    </g>
    <g clip-path="url(#c)">
      <path fill="#E6FFEA" d="M297.143 374.383s-27.46-2.8-27.799-11.76 19.663-14.84 65.43-17.92c45.767-3.079 34.858-22.68-19.663-33.44-54.521-10.75-176.022-10.15-248.922-10.84s-165.537-1.67-200.964-3.12c-35.428-1.45-24.87-26.17-5.279-26.53 19.59-.36 16.502-4.91-.666-9.09-17.169-4.18-70.479.51-119.661-2.81-49.194-3.32-66.459-20.7-57.705-25.2 8.754-4.49 23.646-1.17 23.646-1.17-31.214-9.96-41.626-22.27-14.42-29.1 27.194-6.84 69.825-6.96 110.604-9.33 40.779-2.36 71.06-10.63 68.433-17.92-2.628-7.29-46.736-12.01-46.978-19.89s22.653-7.09 49.363-4.33c26.709 2.76 33.38-3.74 22.181-12.01-11.212-8.27-42.922-11.23-70.818-12.01-27.896-.79-60.563-12.94-34.434-23.53 26.116-10.6 139.311-6.81 240.132-11.35s131.175-12.45 106.681-28.91C111.81 47.674 14.101 47.004-8.238 46.344c-22.338-.67-13.996-8.89-13.996-8.89-25.572-4.67-48.443-22.68-11.841-26.01s100.397 2.45 100.397 2.45-56.507 2.2-69.305 7.68 7.083 14.16 49.605 16.81c42.523 2.64 171.022 1.96 198.494 33.45 0 0 29.107.68 46.337 9.14 17.217 8.47-18.864 16.93-61.096 12.87 0 0-60.272 9.82-143.101 9.82s-137.362-1.35-161.142 7.79-13.124 19.3 22.956 25.74c36.082 6.43 30.246 19.32 8.464 18.59s-27.666 1.22-16.782 5.59c10.898 4.38 4.71 9.72-22.665 9.97-27.376.24-19.724 5.59-12.362 8.27 7.361 2.67 21.782 13.13-24.433 16.77-46.216 3.65-138.949 9.71-155.73 21.32s9.529 26.22 88.435 23.22c78.918-3 164.628-11.61 192.743-1.87 28.114 9.74 24.033 35.21-43.54 30.34s-72.561 19.48 6.345 16.48c78.918-3 268.706-4.85 339.137-.13s162.28 29.48 171.324 57.78-97.576 11.51-133.826 11.51-35.924 11.06-19.591 13.22c16.334 2.16 31.02 9.44 22.86 16.45-8.161 7.011-60.091 6.2-109.079 4.59-48.988-1.62-82.853-3.69-99.622-2.43-16.781 1.26-10.582 12.06-53.613 10.98-43.043-1.08-103.085-4.17-147.484-3.61-44.399.57-60.575 1.14-45.428 7.96 15.146 6.82 14.795 17.06-6.89 16.49s-39.919 3.41-39.919 3.41 19.966-8.53 33.381-9.1c13.428-.57-5.509-4.55-16.866-11.94s7.228-16.77 53.008-19.61 157.17-3.7 172.05-3.7 10.183-15.52 52.451-10.35c42.28 5.171 134.444 8.2 155.693 7.01z"/>
      <path stroke="#89EF95" stroke-linecap="round" stroke-linejoin="round" stroke-width=".81" d="M-8.25 46.323s87.2-2.32 134.166 6.14 48.37 28.87 30.717 35.29-118.752 5.32-151.164 6.19"/>
      <path fill="#89EF95" d="M230.297 94.023c-78.652 12.33-158.769 9.46-238.34 10.3-14.082.31-28.175.87-42.136 2.42-8.051 1.03-16.394 2.37-23.84 5.19-27.811 10.88-.908 19.93 15.256 23.26 9.613 2.08 19.832 3.21 28.38 7.71 4.638 2.29 8.718 6.92 3.245 10.43-4.189 2.51-9.625 2.88-14.614 2.83-4.225 0-20.522-.95-22.314 1.66 0 .17.12.42.375.65 2.288 2.01 5.776 2.52 8.27 4.4 7.894 6.67-13.391 8.39-18.065 8.58-4.31.53-28.538-.52-27.037 3.96 1.635 2.24 5.086 3.16 7.87 4.37 8.016 3.57 10.014 9.07.666 12.42-12.41 4.22-26.116 4.33-39.265 5.54-32.788 2.56-66.374 5.03-98.835 9.49-12.98 1.94-26.201 3.77-38.394 8.05-4.322 1.58-8.79 4.09-10.11 8.01-1.38 6.92 10.255 10.43 16.576 12.26 19.021 4.8 39.229 5.32 59.001 5.34 46.457-.78 92.721-4.85 139.154-6.32 13.27-.4 26.564-.66 39.858-.16 13.125.71 27.267 1.25 38.466 7.66 5.267 3.02 10.159 8.02 8.996 13.64-3.293 11.15-22.69 13.56-34.422 14.4-19.88 1.31-39.798-2.63-59.606-.06-7.41.58-27.206 5.29-11.793 11.29 9.154 3.12 19.276 3.73 29.095 4.21 6.61.24 13.246.22 19.869.02 66.229-2.32 132.845-2.98 199.099-3.1 46.433.15 93.012.14 139.372 2.67 46.239 3.1 92.503 11.75 134.577 28.16 11.866 4.93 23.61 10.56 32.715 18.69 10.159 9.36 14.469 21.39-4.818 25.82-12.931 2.93-26.456 2.68-39.726 2.44-18.985-.46-40.512-2.42-59.582-3.76-13.137-.88-26.528-1.87-39.556.15-14.699 2.15-17.132 9.08-1.332 11.32 8.645 1.32 23.368 4.8 24.906 12.2.242 3.03-2.591 5.55-5.8 6.62-9.42 2.96-19.675 3.12-29.591 3.67-53.117 1.57-106.161-2.61-159.241-3.53-6.562 0-13.306-.14-19.76.72-3.22.49-6.09 1.79-8.814 3.33-8.112 5.08-18.355 6.81-28.356 7.2-6.6.2-13.391.17-19.954-.07-53.056-1.53-106.1-4.46-159.192-3.15-4.153.3-34.495 0-32.158 3.8.811.98 2.264 1.75 3.644 2.44 2.858 1.31 5.848 2.74 8.245 4.73 6.563 5.17 4.674 10.97-4.346 12.55-3.306.64-6.696.71-10.025.64-6.611-.13-13.234.08-19.821.67-6.574.57-13.137 1.44-19.542 2.73-.266.06-.544-.07-.605-.3-.06-.19.061-.38.254-.46q7.265-3.03 14.893-5.37c6.308-1.92 12.967-3.59 19.76-3.85.98-.13 2.324-.11 3.063-.54-1.526-1.46-4.395-2.29-6.454-3.26-5.872-2.65-12.543-4.92-17.084-9.18-4.782-6.03 5.957-10.04 11.382-11.83 12.737-3.9 26.346-5.37 39.774-6.45 53.467-3.09 108.243-3.24 161.892-3.88l8.1-.05c2.18-.09 5.884.08 8.04-.09 5.533-.35 9.105-4.16 13.463-6.61 4.516-2.63 9.965-3.98 15.377-4.43 13.488-1.12 27.012 1.69 40.379 2.64 34.883 2.88 69.971 4.42 104.998 5.21 10.789.23 21.564.24 32.364.37-4.927-.44-9.867-1.22-14.626-2.46-6.623-1.63-16.938-5.78-12.676-12.81 3.983-5.56 12.313-7.35 19.263-9.12 9.65-2.14 19.554-3.25 29.434-4.22 10.764-1.37 47.547-1 44.326-13.63-4.843-10.65-31.77-17.18-44.35-19.92-3.839-.85-10.57-1.92-14.554-2.61-6.913-.96-15.171-1.99-22.133-2.64-41.989-3.96-84.318-4.77-126.55-5.47-79.56-.86-159.132-1.16-238.68-2.57-14.432-.2-30.256-.63-44.749-1.04-4.952-.2-9.977-.21-14.905-1.13-10.776-1.71-19.421-8.75-13.585-18.06 3.051-4.64 9.008-7.81 15.365-8.21 16.152-.3 20.413-2.99 2.785-7.86-13.101-3.22-27.073-2.21-40.622-2.39-24.845.22-49.763.75-74.608-.59-14.904-.7-29.906-2.43-43.938-6.86-8.343-2.82-20.596-7.57-22.993-15.07-.339-1.73.387-3.42 2.3-4.37l1.696-.75c7.058-2.49 15.049-1.83 22.326-.47l-.303.77c-5.254-1.69-10.436-3.58-15.376-5.85-24.446-11.43-16.927-21.08 7.676-25.49 44.072-8.1 89.839-4.5 134.178-10.93 10.897-1.75 22.133-3.71 31.964-8.09 5.606-2.57 9.093-6.23 1.937-9.37-4.867-2.23-10.291-3.63-15.558-5.1-6.405-2.06-27.545-6.07-27.473-11.97.436-8.7 25.899-6.26 33.164-6.01 8.644.07 40.233 6.03 43.478-2.58-.932-15.27-48.564-17.82-62.911-18.67-11.236-.53-22.618-.52-33.551-3.06-7.785-1.82-23.222-5.78-23.477-13.34.775-5.78 10.473-8.91 16.297-10.38 10.958-2.44 22.218-3.26 33.43-4.06 33.659-2.05 67.44-2.2 101.16-2.8 61.7-1.36 123.898-1.3 184.933-9.57 7.882-1.49 33.066-4.95 27.824-14.55-7.701-11.04-25.741-14.06-39.726-16.72-35.85-5.82-72.61-6.64-109.042-7.55-6.708-.02-23.9-.93-16.927-9.63l.267.66c-9.94-1.96-19.893-5.34-27.267-11.36-6.32-5.25-5.194-10.83 3.911-13.42 9.795-2.75 20.305-2.66 30.487-3.04 27.267-.44 54.485 1.15 81.606 3.38.267.02.472.22.436.45-.024.2-.23.35-.472.36-14.154.62-28.32 1.51-42.39 2.91-6.804.79-44.277 3.91-24.614 12.68 6.284 2.59 13.246 3.98 20.147 5.16 13.912 2.29 28.09 3.11 42.244 3.65 44.823 2.19 157.073 3.07 183.42 32.73 15.934.78 32.388 2.72 46.53 9.19l1.477.79c.448.32.944.6 1.356.96 8.609 7.84-16.467 11.32-22.242 11.9-9.105.99-18.307 1.21-27.46.92-9.166-.23-18.549-.99-26.879-4.43-4.589-1.62-13.089-6.9-6.635-10.82 9.371-5.28 35.439-6.33 42.934.91.823.78 1.513 1.86 1.15 2.94-.388 1.13-1.526 1.78-2.555 2.24-4.322 1.65-9.226 1.71-13.791.82-.266-.06-.423-.28-.351-.5s.339-.35.606-.29c2.143.47 4.419.6 6.647.49 8.972-.45 12.616-4.26 2.094-8.19-8.487-2.5-18.052-2.13-26.806-.75-3.753.75-13.9 2.66-10.57 7.36 1.683 2.39 4.77 3.82 7.713 5.05 4.08 1.62 8.439 2.74 12.906 3.38 13.513 1.52 27.364 1.41 40.888.05 7.337-.71 33.091-4.89 19.033-12.14-14.081-6.59-30.717-8.05-46.445-9.24-8.596-9.36-22.496-14.1-35.621-17.79-40.742-10.37-83.834-11.98-126.15-13.95-20.656-.74-43.418-1.22-63.65-4.49-5.679-1-30.306-5.2-26.02-12.23 1.61-1.98 4.407-2.76 6.962-3.54a112 112 0 0 1 7.797-1.64c4.662-.75 11.103-1.56 15.813-2.03 14.118-1.41 28.284-2.29 42.462-2.92l-.036.81c-27.049-2.23-54.28-3.82-81.473-3.38-8.778.43-34.362-.09-37.292 7.92-.775 2.7 1.465 5.19 3.596 7.1 7.204 5.87 17.036 9.21 26.77 11.12.351.06.509.43.267.66-1.647 1.67-2.095 4.2.218 5.61 4.516 2.6 10.63 2.45 15.982 2.68l8.427.2c11.248.26 22.484.6 33.72 1.11 28.005 1.51 56.434 2.99 83.434 9.75 9.226 2.48 19.191 6.32 24.046 13.68 5.715 10.56-20.208 14.15-28.538 15.69-94.598 12.43-190.939 7.06-286.202 12.38-12.205 1.09-45.973 2.18-48.819 13.67.606 9.69 29.616 14.35 39.278 14.82 16.503.79 80.165 1.69 80.65 20.36-3.451 9.56-34.931 3.35-44.533 3.24-5.594-.35-11.2-.61-16.793-.42-4.117.19-8.391.43-12.12 1.94-4.383 1.93-4.165 5.29.206 7.34 7.18 3.57 15.51 5.25 23.404 7.53 9.129 2.62 31.286 7.51 13.803 15.95-10.013 4.46-21.225 6.41-32.279 8.19-11.091 1.67-22.315 2.67-33.539 3.25-33.538 2.1-67.609 1.66-100.579 7.67-40.318 7.63-17.229 21.99 7.822 29.79.254.08.387.32.29.53-.096.19-.351.29-.581.24-7.058-1.31-14.868-1.97-21.673.42l-1.598.7-.678.42c-.181.17-.387.33-.557.51-1.332 1.6-.532 3.77.715 5.32 4.915 5.91 13.209 9.12 21.043 11.78 13.912 4.4 28.84 6.13 43.648 6.83 24.809 1.35 49.678.83 74.535.63 14.784.22 30.342-1.04 44.436 3.46 2.675.84 12.882 4.21 6.502 6.81-5.279 1.78-11.249.75-16.6 1.96-4.686 1.08-8.79 3.78-11.115 7.3-5.521 8.76 2.676 15.44 13.028 17.06 4.807.91 9.795.92 14.759 1.12 14.554.39 30.27.86 44.726 1.06 79.548 1.45 159.108 1.78 238.667 2.68 42.244.72 84.585 1.55 126.611 5.53 6.853.62 15.353 1.72 22.157 2.65l7.313 1.25 3.657.63 3.62.75c12.156 2.52 47.293 11.36 44.798 23.42-2.942 7.92-21.515 9.15-30.027 9.85-9.892.7-19.796 1.59-29.579 3.02-9.456 1.57-28.005 4.05-33.163 11.44-3.923 6.44 6.054 10.25 12.035 11.92 4.674 1.34 9.529 2.29 14.42 2.99-5.375.52-10.788.64-16.2.64-40.476-.37-80.988-2.12-121.283-5.35-13.318-.95-26.794-3.73-40.149-2.62-5.303.45-10.522 1.75-14.88 4.28-4.383 2.49-8.222 6.45-13.973 6.77-2.336.11-5.775.09-8.148.1l-8.1.05c-42.668.35-86.97.98-129.492 2.39-23.465 1.13-58.614 1.25-78.906 10.81-4.674 2.39-7.301 6.16-.957 9.72 5.352 3.32 11.551 5.65 17.472 8.28.908.42 1.816.85 2.639 1.41.266.22.593.4.763.9.085.26-.061.61-.266.77-.497.42-1.078.47-1.671.59-2.022.31-4.081.28-6.078.52-5.291.63-10.449 1.94-15.486 3.48a166 166 0 0 0-14.784 5.31s-.351-.76-.351-.75c12.98-2.56 26.31-3.68 39.641-3.43 20.353.78 23.356-8.71 5.594-16.41-1.804-.79-6.296-3.26-3.294-5.03 3.79-1.67 8.258-1.63 12.374-2.03 6.635-.41 13.283-.56 19.918-.7 58.093-1.58 116.113 2.51 174.157 3.37 8.124-.22 16.672-.61 24.264-3.19 5.461-1.67 9.71-5.34 15.268-6.92 3.983-1.08 8.366-1.05 12.459-1.23 16.611-.27 33.211.57 49.787 1.15 39.761 1.4 79.572 3.52 119.358 2.33 9.807-.53 19.989-.72 29.24-3.6 4.576-1.61 7.276-5.68 3.232-9.23-5.726-4.88-14.238-6.79-22.108-8.05-3.269-.44-6.708-1.1-9.456-2.91-3.73-2.43-2.24-5.6 1.247-7.26 8.935-3.98 19.578-3.84 29.446-3.93 26.092.82 53.346 4.17 79.438 4.78 13.149.24 26.65.48 39.411-2.41 17.762-4.11 14.844-14.69 4.371-24.49-8.996-8.03-20.68-13.63-32.425-18.51-41.929-16.36-88.107-24.98-134.214-28.07-46.336-2.52-92.878-2.52-139.287-2.67-66.241.12-132.858.78-199.063 3.1-6.647.2-13.294.22-19.953-.02-9.929-.49-20.148-1.1-29.458-4.28-10.195-3.71-6.817-8.72 2.264-11.03 9.589-2.49 19.771-2.75 29.736-2.68 16.54.43 33.127 2.51 49.557-.07 8.936-1.46 22.097-4.62 23.767-13.22.751-5.15-3.838-9.53-8.656-12.34-10.982-6.28-25.003-6.81-37.946-7.52-39.798-1.13-79.548 2.17-119.261 4.09-26.504 1.28-53.068 3.17-79.621 2.06-13.27-.63-26.637-1.71-39.374-5.04-7.155-2.06-18.634-5.66-17.241-13.21 1.368-4.21 6.09-6.88 10.655-8.57 12.289-4.32 25.571-6.15 38.635-8.11 32.497-4.46 66.084-6.94 98.92-9.49 6.672-.71 55.914-2.36 42.147-14.11-3.462-3.05-9.504-3.35-12.241-7.08-2.542-6.07 23.586-4.43 27.872-5.1 6.6-.14 29.192-2.96 13.355-9.24-1.525-.67-3.05-1.3-4.25-2.4-.29-.28-.605-.68-.593-1.19.376-2.85 10.728-2.43 13.355-2.6 7.955-.25 16.987 1.47 23.95-2.51 2.869-1.69 2.857-4.5.52-6.55-5.74-4.88-14.324-6.61-22.085-8.26-9.722-1.81-19.554-3.72-28.465-7.58-13.234-5.75-11.732-12.76 1.09-18.18 8.1-3.53 17.398-5.03 26.37-6.18 40.44-3.99 81.291-2.46 121.913-2.72 53.068.49 106.245-2.44 158.526-9.99.267-.04.533.11.581.33.049.22-.133.43-.399.47z"/>
    </g>
    <path fill="#1232C0" d="M80.264 114.402s24.509-9.167 29.738 13.121c0 0 19.75-9.555 30.863 10.603 0 0 17.224 5.142 13.906 5.848s-98.567 21.027-107.12 22.723c-8.553 1.697-74.53-3.794-74.53-3.794-9.532-13.363 3.897-22.678 10.074-22.144-.181-13.041 22.652-5.221 31.565-1.897-.905-13.835 14.364-8.108 14.364-8.108.172-2.071 2.581-2.995 2.581-2.995 5.727-3.65 19.422.732 23.907-8.769 3.358-9.889-9.365-7.328-18.225-2.472-8.866 4.856-16.015 3.625-20.04-2.749-6.903 5.76-20.361.666-21.44-8.354-.79-6.58 5.184-9.35 8.1-14.278C6.77 86.463.395 86.21-2.62 86.639a17.68 17.68 0 0 0-10.268 5.282c-3.687 3.884-5.455 9.494-11.34 10.593l-11.057-74.581s9.93-5.418 16.1 9.782c3.955-6.841 23.935-5.83 25.462 8.316 24.216-2.497 37.764 18.599 24.666 30.127-10.383 6.332-7.758 18.025-1.459 22.316 9.784 4.098 14.464 1.167 21.27-.006 26.683-4.599 29.513 15.934 29.513 15.934z"/>
    <path stroke="#305DF5" stroke-miterlimit="10" stroke-width="1.8" d="M-25.83 91.684s5.077-.1 13.742-9.225c3.988-4.2 12.19-6.348 17.7-4.654 8.565 2.632 6.976 14.555 1.074 19.12-3.37 2.608-6.808 7.58-2.602 11.21 3.372 2.913 9.216 1.142 11.81-1.984 1.925 7.12 13.204 7.19 24.02 2.101 10.817-5.089 20.653-.449 15.35 10.792-5.305 11.239-23.504 3.05-26.139 11.716-9.773-4.214-17.111 2.102-13.78 9.883-7.056 2.354-8.198 15.588 8.483 19.213"/>
    <path stroke="#305DF5" stroke-miterlimit="10" stroke-width="1.8" d="M-24.573 102.568c5.885-1.096 7.656-6.706 11.34-10.59a17.68 17.68 0 0 1 10.265-5.284c3.019-.425 9.39-.176 6.626 4.5-2.912 4.926-8.891 7.7-8.1 14.276 1.086 9.021 14.54 14.114 21.445 8.354 4.024 6.374 11.173 7.604 20.036 2.748s21.585-7.419 18.224 2.466"/>
    <path fill="#DC5835" d="m106.33 156.553 1.019-1.87c.146-.265 3.62-6.574 10.607-12.956 6.474-5.91 17.285-12.955 32.047-12.955 5.597 0 11.431 1.01 17.357 3.005 1.153-2.081 4.274-6.948 10.449-11.833 7.31-5.779 20.493-12.672 41.78-12.672 8.953 0 18.76 1.213 29.154 3.604l.986.228-.013 45.924z"/>
    <path fill="#1232C0" d="M219.589 108.543c8.329 0 17.893 1.046 28.868 3.574l-.012 43.639-139.982-.462s13.749-25.245 41.54-25.248c5.454 0 11.443.971 17.98 3.298 0 0 11.1-24.795 51.606-24.795m0-2.549c-9.521 0-18.263 1.351-25.981 4.012-6.232 2.151-11.811 5.156-16.587 8.931-5.555 4.393-8.724 8.81-10.239 11.304-5.719-1.825-11.352-2.75-16.773-2.75a46.1 46.1 0 0 0-19.274 4.177c-4.839 2.205-9.426 5.271-13.636 9.116-7.143 6.525-10.717 13.01-10.866 13.284l-2.038 3.742 4.262.015 139.982.462 2.549.009v-2.549l.012-43.639v-2.023l-1.971-.453c-10.486-2.415-20.39-3.638-29.437-3.638z"/>
    <mask id="d" width="141" height="48" x="108" y="108" maskUnits="userSpaceOnUse" style="mask-type:luminance">
      <path fill="#fff" d="M108.463 155.288s19.672-36.126 59.521-21.95c0 0 16.125-36.035 80.473-21.224l-.012 43.639-139.982-.462z"/>
    </mask>
    <g fill="#2520C6" mask="url(#d)">
      <path d="M123.487 151.607a5.253 5.253 0 0 1-5.254-5.253 5.25 5.25 0 0 1 5.25 5.25zm-5.254 5.257a5.254 5.254 0 0 1 5.254-5.254 5.253 5.253 0 0 1-5.254 5.251zm-5.253-5.254a5.25 5.25 0 0 1 5.25-5.253 5.25 5.25 0 0 1-5.253 5.253z"/>
      <path d="M118.233 156.864a5.253 5.253 0 0 1-5.253-5.254 5.253 5.253 0 0 1 5.253 5.254m15.757-5.257a5.25 5.25 0 0 1-5.253-5.253 5.25 5.25 0 0 1 5.25 5.25zm-5.25 5.257a5.253 5.253 0 0 1 5.253-5.254 5.25 5.25 0 0 1-5.253 5.251z"/>
      <path d="M128.737 146.357a5.253 5.253 0 0 1-5.254 5.253 5.25 5.25 0 0 1 5.251-5.25zm.003 10.507a5.256 5.256 0 0 1-5.253-5.251 5.253 5.253 0 0 1 5.253 5.254zm10.504 0a5.253 5.253 0 0 1 5.253-5.254 5.25 5.25 0 0 1-5.253 5.251zm0-10.507a5.253 5.253 0 0 1-5.254 5.253 5.25 5.25 0 0 1 5.251-5.25z"/>
      <path d="M144.497 151.607a5.25 5.25 0 0 1-5.253-5.253 5.25 5.25 0 0 1 5.25 5.25zm-5.253 5.257a5.257 5.257 0 0 1-5.254-5.251 5.254 5.254 0 0 1 5.254 5.254zm10.506 0a5.256 5.256 0 0 1-5.253-5.251 5.253 5.253 0 0 1 5.253 5.254zm5.251-5.257a5.253 5.253 0 0 1-5.254-5.253 5.25 5.25 0 0 1 5.251 5.25z"/>
      <path d="M149.747 146.357a5.25 5.25 0 0 1-5.253 5.253 5.25 5.25 0 0 1 5.25-5.25zm.003 10.507a5.254 5.254 0 0 1 5.254-5.254 5.253 5.253 0 0 1-5.254 5.251zm15.757-5.257a5.25 5.25 0 0 1-5.253-5.253 5.25 5.25 0 0 1 5.25 5.25z"/>
      <path d="M155.001 151.61a5.25 5.25 0 0 1 5.25-5.25 5.25 5.25 0 0 1-5.253 5.253zm5.253 5.254a5.253 5.253 0 0 1 5.253-5.254 5.25 5.25 0 0 1-5.253 5.251z"/>
      <path d="M160.254 156.864a5.256 5.256 0 0 1-5.253-5.251 5.253 5.253 0 0 1 5.253 5.254zm5.253-5.254a5.25 5.25 0 0 1 5.251-5.25 5.253 5.253 0 0 1-5.254 5.253zm5.254 5.254a5.253 5.253 0 0 1 5.253-5.254 5.257 5.257 0 0 1-5.253 5.254"/>
      <path d="M176.011 151.61a5.25 5.25 0 0 1-5.253-5.253 5.25 5.25 0 0 1 5.25 5.253zm-10.504 0a5.254 5.254 0 0 1 5.254 5.254 5.257 5.257 0 0 1-5.254-5.251zm10.504 0a5.253 5.253 0 0 1 5.253 5.254 5.257 5.257 0 0 1-5.253-5.254"/>
      <path d="M181.264 156.864a5.254 5.254 0 0 1 5.254-5.254 5.253 5.253 0 0 1-5.254 5.251zm5.254-5.257a5.253 5.253 0 0 1-5.254-5.253 5.25 5.25 0 0 1 5.251 5.25zm-10.507.003a5.255 5.255 0 0 1 5.25-5.253 5.25 5.25 0 0 1-5.253 5.253zm15.76 5.254a5.254 5.254 0 0 1 5.254-5.254 5.256 5.256 0 0 1-5.254 5.254"/>
      <path d="M186.518 151.61a5.253 5.253 0 0 1 5.253 5.254 5.256 5.256 0 0 1-5.253-5.251z"/>
      <path d="M186.518 151.61a5.25 5.25 0 0 1 5.25-5.25 5.25 5.25 0 0 1-5.253 5.253z"/>
      <path d="M197.021 151.61a5.25 5.25 0 0 1-5.253-5.253 5.25 5.25 0 0 1 5.25 5.253zm10.507-.003a5.25 5.25 0 0 1-5.253-5.253 5.25 5.25 0 0 1 5.25 5.25zm-10.507.003a5.254 5.254 0 0 1 5.254 5.254 5.26 5.26 0 0 1-5.254-5.254"/>
      <path d="M202.275 156.864a5.253 5.253 0 0 1 5.253-5.254 5.25 5.25 0 0 1-5.253 5.251zm-5.254-5.254a5.256 5.256 0 0 1 5.251-5.253 5.253 5.253 0 0 1-5.254 5.253z"/>
      <path d="M207.528 151.61a5.254 5.254 0 0 1 5.254 5.254 5.257 5.257 0 0 1-5.254-5.251zm10.504-.003a5.25 5.25 0 0 1-5.253-5.253 5.25 5.25 0 0 1 5.25 5.25z"/>
      <path d="M212.781 156.864a5.254 5.254 0 0 1 5.254-5.254 5.253 5.253 0 0 1-5.254 5.251zm-5.253-5.254a5.25 5.25 0 0 1 5.251-5.25 5.253 5.253 0 0 1-5.254 5.253zm21.011 0a5.253 5.253 0 0 1-5.254-5.253 5.25 5.25 0 0 1 5.25 5.253z"/>
      <path d="M218.032 151.61a5.253 5.253 0 0 1 5.253 5.254 5.256 5.256 0 0 1-5.253-5.251z"/>
      <path d="M223.285 156.864a5.254 5.254 0 0 1 5.254-5.254 5.256 5.256 0 0 1-5.254 5.254m-5.253-5.254a5.25 5.25 0 0 1 5.25-5.25 5.25 5.25 0 0 1-5.253 5.253zm15.76 5.254a5.253 5.253 0 0 1 5.253-5.254 5.257 5.257 0 0 1-5.253 5.254"/>
      <path d="M228.539 151.61a5.255 5.255 0 0 1 5.25-5.253 5.25 5.25 0 0 1-5.253 5.253z"/>
      <path d="M228.539 151.61a5.253 5.253 0 0 1 5.253 5.254 5.257 5.257 0 0 1-5.253-5.254m10.506 0a5.25 5.25 0 0 1-5.253-5.253 5.25 5.25 0 0 1 5.25 5.253zm0 0a5.254 5.254 0 0 1 5.254 5.254 5.257 5.257 0 0 1-5.254-5.254"/>
      <path d="M239.045 151.61a5.256 5.256 0 0 1 5.251-5.253 5.253 5.253 0 0 1-5.254 5.253z"/>
      <path d="M249.549 151.607a5.25 5.25 0 0 1-5.253-5.253 5.25 5.25 0 0 1 5.25 5.25zm-5.253 5.257a5.253 5.253 0 0 1 5.253-5.254 5.25 5.25 0 0 1-5.253 5.251zm-126.063-10.507a5.253 5.253 0 0 1 5.254-5.253 5.25 5.25 0 0 1-5.251 5.25z"/>
      <path d="M118.233 146.357a5.25 5.25 0 0 1-5.25-5.253 5.25 5.25 0 0 1 5.253 5.253z"/>
      <path d="M112.98 141.104a5.253 5.253 0 0 1 5.253-5.254 5.253 5.253 0 0 1-5.253 5.254"/>
      <path d="M123.487 141.104a5.254 5.254 0 0 1-5.254-5.254 5.257 5.257 0 0 1 5.254 5.251zm5.253 5.253a5.25 5.25 0 0 1 5.253-5.253 5.25 5.25 0 0 1-5.25 5.25z"/>
      <path d="M133.99 141.104a5.253 5.253 0 0 1-5.253-5.254 5.256 5.256 0 0 1 5.253 5.251zm-5.25 5.253a5.25 5.25 0 0 1-5.25-5.25 5.253 5.253 0 0 1 5.253 5.253z"/>
      <path d="M128.737 135.853a5.254 5.254 0 0 1-5.254 5.254 5.253 5.253 0 0 1 5.254-5.251zm10.507 10.504a5.25 5.25 0 0 1 5.253-5.253 5.25 5.25 0 0 1-5.25 5.25z"/>
      <path d="M144.497 141.104a5.253 5.253 0 0 1-5.253-5.254 5.256 5.256 0 0 1 5.253 5.251zm-5.254 5.253a5.25 5.25 0 0 1-5.25-5.25 5.253 5.253 0 0 1 5.254 5.253z"/>
      <path d="M139.244 135.853a5.254 5.254 0 0 1-5.254 5.254 5.253 5.253 0 0 1 5.254-5.251zm15.757 5.251a5.254 5.254 0 0 1-5.254-5.254 5.257 5.257 0 0 1 5.254 5.251z"/>
      <path d="M144.497 141.103a5.25 5.25 0 0 1 5.253-5.25 5.253 5.253 0 0 1-5.253 5.254z"/>
      <path d="M149.75 146.357a5.25 5.25 0 0 1-5.25-5.25 5.25 5.25 0 0 1 5.253 5.253z"/>
      <path d="M149.75 146.357a5.253 5.253 0 0 1 5.254-5.253 5.25 5.25 0 0 1-5.251 5.25z"/>
      <path d="M155.001 141.103a5.25 5.25 0 0 1 5.253-5.25 5.253 5.253 0 0 1-5.253 5.254z"/>
      <path d="M155.001 141.107a5.25 5.25 0 0 1 5.253 5.253 5.25 5.25 0 0 1-5.25-5.25z"/>
      <path d="M160.254 146.357a5.25 5.25 0 0 1 5.253-5.253 5.25 5.25 0 0 1-5.25 5.25z"/>
      <path d="M165.507 141.104a5.253 5.253 0 0 1-5.253-5.254 5.256 5.256 0 0 1 5.253 5.251zm10.504 0a5.253 5.253 0 0 1-5.253-5.254 5.257 5.257 0 0 1 5.253 5.254"/>
      <path d="M165.507 141.103a5.253 5.253 0 0 1 5.254-5.25 5.254 5.254 0 0 1-5.254 5.254z"/>
      <path d="M165.507 141.107a5.253 5.253 0 0 1 5.254 5.253 5.25 5.25 0 0 1-5.251-5.25z"/>
      <path d="M170.761 146.357a5.25 5.25 0 0 1 5.253-5.253 5.255 5.255 0 0 1-5.25 5.253zm15.757-5.253a5.254 5.254 0 0 1-5.254-5.254 5.257 5.257 0 0 1 5.254 5.251z"/>
      <path d="M176.011 141.107a5.25 5.25 0 0 1 5.253 5.253 5.25 5.25 0 0 1-5.25-5.253zm5.257 5.25a5.25 5.25 0 0 1 5.253-5.253 5.25 5.25 0 0 1-5.25 5.25zm-5.257-5.253a5.257 5.257 0 0 1 5.253-5.254 5.253 5.253 0 0 1-5.253 5.254m21.01 0a5.253 5.253 0 0 1-5.253-5.254 5.257 5.257 0 0 1 5.253 5.254"/>
      <path d="M191.771 146.357a5.253 5.253 0 0 1 5.254-5.253 5.256 5.256 0 0 1-5.251 5.253zm-5.253-5.254a5.25 5.25 0 0 1 5.253-5.25 5.253 5.253 0 0 1-5.253 5.254z"/>
      <path d="M186.518 141.107a5.25 5.25 0 0 1 5.253 5.253 5.25 5.25 0 0 1-5.25-5.25zm15.76 5.25a5.25 5.25 0 0 1 5.253-5.253 5.25 5.25 0 0 1-5.25 5.25zm-5.257-5.253a5.256 5.256 0 0 1 5.254-5.254 5.254 5.254 0 0 1-5.254 5.254"/>
      <path d="M197.021 141.104a5.253 5.253 0 0 1 5.254 5.253 5.25 5.25 0 0 1-5.25-5.253zm10.507 0a5.253 5.253 0 0 1-5.253-5.254 5.256 5.256 0 0 1 5.253 5.251zm0 .003a5.253 5.253 0 0 1 5.254 5.253 5.25 5.25 0 0 1-5.251-5.25z"/>
      <path d="M212.781 146.357a5.253 5.253 0 0 1 5.254-5.253 5.25 5.25 0 0 1-5.25 5.25zm-5.253-5.254a5.253 5.253 0 0 1 5.254-5.25 5.254 5.254 0 0 1-5.254 5.254z"/>
      <path d="M218.032 141.104a5.253 5.253 0 0 1-5.253-5.254 5.257 5.257 0 0 1 5.253 5.251zm0 .003a5.25 5.25 0 0 1 5.253 5.253 5.25 5.25 0 0 1-5.25-5.25z"/>
      <path d="M218.032 141.103a5.25 5.25 0 0 1 5.253-5.25 5.253 5.253 0 0 1-5.253 5.254z"/>
      <path d="M228.539 141.104a5.254 5.254 0 0 1-5.254-5.254 5.26 5.26 0 0 1 5.254 5.254"/>
      <path d="M223.288 146.357a5.253 5.253 0 0 1 5.254-5.253 5.256 5.256 0 0 1-5.251 5.253z"/>
      <path d="M228.539 141.104a5.25 5.25 0 0 1 5.253 5.253 5.25 5.25 0 0 1-5.25-5.253z"/>
      <path d="M233.792 146.357a5.25 5.25 0 0 1 5.253-5.253 5.255 5.255 0 0 1-5.25 5.253z"/>
      <path d="M239.045 141.104a5.253 5.253 0 0 1-5.253-5.254 5.257 5.257 0 0 1 5.253 5.254"/>
      <path d="M228.539 141.104a5.255 5.255 0 0 1 5.253-5.254 5.253 5.253 0 0 1-5.253 5.254m10.506 0a5.257 5.257 0 0 1 5.254-5.254 5.254 5.254 0 0 1-5.254 5.254"/>
      <path d="M249.549 141.104a5.253 5.253 0 0 1-5.253-5.254 5.256 5.256 0 0 1 5.253 5.251z"/>
      <path d="M244.299 146.357a5.25 5.25 0 0 1 5.253-5.253 5.25 5.25 0 0 1-5.25 5.25z"/>
      <path d="M239.045 141.107a5.253 5.253 0 0 1 5.254 5.253 5.25 5.25 0 0 1-5.251-5.253z"/>
      <path d="M239.042 141.104h.004v.003zM112.98 130.6a5.25 5.25 0 0 1 5.25-5.254 5.253 5.253 0 0 1-5.253 5.254zm10.507-.003a5.253 5.253 0 0 1-5.254-5.253 5.25 5.25 0 0 1 5.25 5.25z"/>
      <path d="M118.233 135.853a5.25 5.25 0 0 1-5.253-5.253 5.25 5.25 0 0 1 5.253 5.253"/>
      <path d="M118.233 135.853a5.253 5.253 0 0 1 5.254-5.253 5.25 5.25 0 0 1-5.254 5.25zm15.757-5.256a5.253 5.253 0 0 1-5.253-5.253 5.25 5.25 0 0 1 5.25 5.25zm-5.25 5.256a5.25 5.25 0 0 1 5.253-5.253 5.25 5.25 0 0 1-5.253 5.25z"/>
      <path d="M128.737 125.346a5.254 5.254 0 0 1-5.254 5.254 5.25 5.25 0 0 1 5.251-5.251zm.003 10.507a5.255 5.255 0 0 1-5.253-5.25 5.25 5.25 0 0 1 5.253 5.253zm10.504 0a5.25 5.25 0 0 1 5.253-5.253 5.25 5.25 0 0 1-5.253 5.25zm-5.254-5.253a5.25 5.25 0 0 1 5.251-5.25 5.253 5.253 0 0 1-5.254 5.253zm10.507-.003a5.253 5.253 0 0 1-5.253-5.253 5.25 5.25 0 0 1 5.25 5.25z"/>
      <path d="M139.244 135.853a5.256 5.256 0 0 1-5.254-5.25 5.253 5.253 0 0 1 5.254 5.253zm5.253-5.253a5.25 5.25 0 0 1 5.25-5.25 5.25 5.25 0 0 1-5.253 5.253z"/>
      <path d="M155.001 130.597a5.253 5.253 0 0 1-5.254-5.253 5.25 5.25 0 0 1 5.251 5.25zm-10.504.003a5.25 5.25 0 0 1 5.253 5.253 5.255 5.255 0 0 1-5.253-5.25z"/>
      <path d="M149.75 135.853a5.253 5.253 0 0 1 5.254-5.253 5.25 5.25 0 0 1-5.254 5.25z"/>
      <path d="M155.001 130.6a5.25 5.25 0 0 1 5.25-5.25 5.25 5.25 0 0 1-5.253 5.253zm5.253 5.253a5.25 5.25 0 0 1 5.253-5.253 5.25 5.25 0 0 1-5.253 5.25z"/>
      <path d="M155.001 130.6a5.25 5.25 0 0 1 5.253 5.253 5.255 5.255 0 0 1-5.253-5.25zm10.506-.003a5.253 5.253 0 0 1-5.253-5.253 5.25 5.25 0 0 1 5.25 5.25z"/>
      <path d="M165.507 130.6a5.25 5.25 0 0 1 5.251-5.25 5.253 5.253 0 0 1-5.254 5.253z"/>
      <path d="M165.507 130.6a5.253 5.253 0 0 1 5.254 5.253 5.256 5.256 0 0 1-5.254-5.25zm10.504 0a5.253 5.253 0 0 1-5.253-5.254 5.25 5.25 0 0 1 5.25 5.254z"/>
      <path d="M170.761 135.853a5.25 5.25 0 0 1 5.253-5.253 5.256 5.256 0 0 1-5.253 5.253"/>
      <path d="M176.011 130.6a5.25 5.25 0 0 1 5.253 5.253 5.256 5.256 0 0 1-5.253-5.253"/>
      <path d="M176.011 130.6a5.256 5.256 0 0 1 5.25-5.254 5.253 5.253 0 0 1-5.253 5.254zm5.253 5.253a5.253 5.253 0 0 1 5.254-5.253 5.25 5.25 0 0 1-5.254 5.25zm5.254-5.256a5.253 5.253 0 0 1-5.254-5.253 5.25 5.25 0 0 1 5.251 5.25zm0 .003a5.25 5.25 0 0 1 5.253 5.253 5.255 5.255 0 0 1-5.253-5.25z"/>
      <path d="M186.518 130.6a5.25 5.25 0 0 1 5.25-5.25 5.25 5.25 0 0 1-5.253 5.253z"/>
      <path d="M197.021 130.6a5.253 5.253 0 0 1-5.253-5.254 5.25 5.25 0 0 1 5.25 5.254z"/>
      <path d="M191.771 135.853a5.253 5.253 0 0 1 5.254-5.253 5.255 5.255 0 0 1-5.254 5.253m10.504 0a5.25 5.25 0 0 1 5.253-5.253 5.25 5.25 0 0 1-5.253 5.25z"/>
      <path d="M197.021 130.6a5.257 5.257 0 0 1 5.251-5.254 5.254 5.254 0 0 1-5.254 5.254z"/>
      <path d="M197.021 130.6a5.253 5.253 0 0 1 5.254 5.253 5.257 5.257 0 0 1-5.254-5.253m10.507-.003a5.253 5.253 0 0 1-5.253-5.253 5.25 5.25 0 0 1 5.25 5.25z"/>
      <path d="M207.528 130.6a5.25 5.25 0 0 1 5.251-5.25 5.253 5.253 0 0 1-5.254 5.253z"/>
      <path d="M207.528 130.6a5.253 5.253 0 0 1 5.254 5.253 5.256 5.256 0 0 1-5.254-5.25z"/>
      <path d="M212.781 135.853a5.253 5.253 0 0 1 5.254-5.253 5.25 5.25 0 0 1-5.254 5.25zm5.251-5.256a5.253 5.253 0 0 1-5.253-5.253 5.25 5.25 0 0 1 5.25 5.25zm5.253 5.256a5.253 5.253 0 0 1 5.254-5.253 5.255 5.255 0 0 1-5.254 5.253"/>
      <path d="M218.032 130.6a5.25 5.25 0 0 1 5.25-5.25 5.25 5.25 0 0 1-5.253 5.253z"/>
      <path d="M218.032 130.6a5.25 5.25 0 0 1 5.253 5.253 5.255 5.255 0 0 1-5.253-5.25zm10.507 0a5.254 5.254 0 0 1-5.254-5.254 5.25 5.25 0 0 1 5.25 5.254zm0 0a5.25 5.25 0 0 1 5.253 5.253 5.256 5.256 0 0 1-5.253-5.253m10.506 0a5.253 5.253 0 0 1-5.253-5.254 5.25 5.25 0 0 1 5.25 5.254z"/>
      <path d="M228.539 130.6a5.256 5.256 0 0 1 5.25-5.254 5.253 5.253 0 0 1-5.253 5.254zm5.253 5.253a5.25 5.25 0 0 1 5.253-5.253 5.256 5.256 0 0 1-5.253 5.253m10.504 0a5.25 5.25 0 0 1 5.253-5.253 5.25 5.25 0 0 1-5.253 5.25z"/>
      <path d="M239.045 130.6a5.253 5.253 0 0 1 5.254 5.253 5.257 5.257 0 0 1-5.254-5.253m10.504-.003a5.253 5.253 0 0 1-5.253-5.253 5.25 5.25 0 0 1 5.25 5.25z"/>
      <path d="M239.045 130.6a5.257 5.257 0 0 1 5.251-5.254 5.254 5.254 0 0 1-5.254 5.254zm-115.558-10.507a5.253 5.253 0 0 1-5.254-5.253 5.25 5.25 0 0 1 5.25 5.25zm-10.507 0a5.25 5.25 0 0 1 5.25-5.253 5.25 5.25 0 0 1-5.253 5.253z"/>
      <path d="M118.233 125.347a5.254 5.254 0 0 1 5.254-5.254 5.25 5.25 0 0 1-5.251 5.25z"/>
      <path d="M118.233 125.347a5.25 5.25 0 0 1-5.25-5.254 5.253 5.253 0 0 1 5.253 5.254zm10.507 0a5.253 5.253 0 0 1 5.253-5.254 5.25 5.25 0 0 1-5.25 5.25z"/>
      <path d="M133.99 120.093a5.25 5.25 0 0 1-5.253-5.253 5.25 5.25 0 0 1 5.25 5.25zm-5.25 5.254a5.25 5.25 0 0 1-5.25-5.251 5.253 5.253 0 0 1 5.253 5.254z"/>
      <path d="M123.486 120.093a5.25 5.25 0 0 1 5.251-5.25 5.253 5.253 0 0 1-5.254 5.253zm15.758 5.254a5.253 5.253 0 0 1 5.253-5.254 5.25 5.25 0 0 1-5.25 5.25z"/>
      <path d="M144.497 120.093a5.25 5.25 0 0 1-5.253-5.253 5.25 5.25 0 0 1 5.25 5.25zm-10.507.003a5.254 5.254 0 0 1 5.254 5.254 5.25 5.25 0 0 1-5.251-5.251z"/>
      <path d="M133.99 120.093a5.25 5.25 0 0 1 5.251-5.25 5.253 5.253 0 0 1-5.254 5.253zm10.507.003a5.253 5.253 0 0 1 5.253 5.254 5.25 5.25 0 0 1-5.25-5.251z"/>
      <path d="M149.75 125.347a5.254 5.254 0 0 1 5.254-5.254 5.25 5.25 0 0 1-5.251 5.25zm-5.253-5.254a5.25 5.25 0 0 1 5.25-5.25 5.25 5.25 0 0 1-5.253 5.253z"/>
      <path d="M155.001 120.093a5.253 5.253 0 0 1-5.254-5.253 5.25 5.25 0 0 1 5.251 5.25z"/>
      <path d="M155.001 120.093a5.25 5.25 0 0 1 5.25-5.25 5.25 5.25 0 0 1-5.253 5.253zm10.506 0a5.25 5.25 0 0 1-5.253-5.253 5.25 5.25 0 0 1 5.25 5.25z"/>
      <path d="M160.254 125.347a5.253 5.253 0 0 1 5.253-5.254 5.25 5.25 0 0 1-5.25 5.25z"/>
      <path d="M155.001 120.096a5.253 5.253 0 0 1 5.253 5.254 5.25 5.25 0 0 1-5.25-5.251zm10.506-.003a5.25 5.25 0 0 1 5.251-5.25 5.253 5.253 0 0 1-5.254 5.253z"/>
      <path d="M165.507 120.096a5.254 5.254 0 0 1 5.254 5.254 5.25 5.25 0 0 1-5.251-5.251z"/>
      <path d="M170.761 125.347a5.253 5.253 0 0 1 5.253-5.254 5.257 5.257 0 0 1-5.25 5.254z"/>
      <path d="M176.011 120.093a5.25 5.25 0 0 1-5.253-5.253 5.25 5.25 0 0 1 5.25 5.253zm5.257 5.254a5.253 5.253 0 0 1 5.253-5.254 5.25 5.25 0 0 1-5.25 5.25z"/>
      <path d="M186.518 120.093a5.253 5.253 0 0 1-5.254-5.253 5.25 5.25 0 0 1 5.251 5.25zm-10.507 0a5.253 5.253 0 0 1 5.253 5.254 5.25 5.25 0 0 1-5.25-5.254z"/>
      <path d="M176.011 120.093a5.255 5.255 0 0 1 5.25-5.253 5.25 5.25 0 0 1-5.253 5.253zm10.507.003a5.253 5.253 0 0 1 5.253 5.254 5.25 5.25 0 0 1-5.25-5.251zm10.503-.003a5.25 5.25 0 0 1-5.253-5.253 5.25 5.25 0 0 1 5.25 5.253z"/>
      <path d="M186.518 120.093a5.25 5.25 0 0 1 5.25-5.25 5.25 5.25 0 0 1-5.253 5.253zm5.253 5.254a5.254 5.254 0 0 1 5.254-5.254 5.257 5.257 0 0 1-5.251 5.254z"/>
      <path d="M197.021 120.093a5.254 5.254 0 0 1 5.254 5.254 5.25 5.25 0 0 1-5.25-5.254zm5.257 5.254a5.253 5.253 0 0 1 5.253-5.254 5.25 5.25 0 0 1-5.25 5.25z"/>
      <path d="M207.528 120.093a5.25 5.25 0 0 1-5.253-5.253 5.25 5.25 0 0 1 5.25 5.25zm-10.507 0a5.256 5.256 0 0 1 5.251-5.253 5.253 5.253 0 0 1-5.254 5.253z"/>
      <path d="M207.528 120.093a5.25 5.25 0 0 1 5.251-5.25 5.253 5.253 0 0 1-5.254 5.253z"/>
      <path d="M218.032 120.093a5.25 5.25 0 0 1-5.253-5.253 5.25 5.25 0 0 1 5.25 5.25zm-10.504.003a5.254 5.254 0 0 1 5.254 5.254 5.25 5.25 0 0 1-5.251-5.251z"/>
      <path d="M212.781 125.347a5.254 5.254 0 0 1 5.254-5.254 5.25 5.25 0 0 1-5.25 5.25zm10.507 0a5.254 5.254 0 0 1 5.254-5.254 5.257 5.257 0 0 1-5.251 5.254z"/>
      <path d="M218.032 120.096a5.253 5.253 0 0 1 5.253 5.254 5.25 5.25 0 0 1-5.25-5.251zm10.507-.003a5.253 5.253 0 0 1-5.254-5.253 5.25 5.25 0 0 1 5.25 5.253z"/>
      <path d="M218.032 120.093a5.25 5.25 0 0 1 5.25-5.25 5.25 5.25 0 0 1-5.253 5.253zm21.013 0a5.25 5.25 0 0 1-5.253-5.253 5.25 5.25 0 0 1 5.25 5.253zm-10.506 0a5.253 5.253 0 0 1 5.253 5.254 5.25 5.25 0 0 1-5.25-5.254z"/>
      <path d="M228.539 120.093a5.255 5.255 0 0 1 5.25-5.253 5.25 5.25 0 0 1-5.253 5.253zm5.253 5.254a5.253 5.253 0 0 1 5.253-5.254 5.257 5.257 0 0 1-5.25 5.254zm5.253-5.254a5.254 5.254 0 0 1 5.254 5.254 5.253 5.253 0 0 1-5.251-5.254z"/>
      <path d="M244.299 125.347a5.253 5.253 0 0 1 5.253-5.254 5.25 5.25 0 0 1-5.25 5.25z"/>
      <path d="M249.549 120.093a5.25 5.25 0 0 1-5.253-5.253 5.25 5.25 0 0 1 5.25 5.25z"/>
      <path d="M239.045 120.093a5.256 5.256 0 0 1 5.251-5.253 5.253 5.253 0 0 1-5.254 5.253zm-120.812-15.757a5.253 5.253 0 0 1 5.254 5.25 5.253 5.253 0 0 1-5.254-5.253zm0 10.507a5.254 5.254 0 0 1 5.254-5.254 5.25 5.25 0 0 1-5.251 5.251z"/>
      <path d="M118.233 114.843a5.25 5.25 0 0 1-5.25-5.254 5.253 5.253 0 0 1 5.253 5.254z"/>
      <path d="M112.98 109.59a5.255 5.255 0 0 1 5.253-5.254 5.253 5.253 0 0 1-5.253 5.254m10.507 0a5.253 5.253 0 0 1 5.253-5.254 5.253 5.253 0 0 1-5.253 5.254"/>
      <path d="M128.74 104.336a5.25 5.25 0 0 1 5.253 5.251 5.25 5.25 0 0 1-5.253-5.251m0 10.507a5.253 5.253 0 0 1 5.253-5.254 5.25 5.25 0 0 1-5.25 5.251z"/>
      <path d="M123.487 109.589a5.253 5.253 0 0 1 5.253 5.254 5.25 5.25 0 0 1-5.25-5.25zm15.757 5.254a5.253 5.253 0 0 1 5.253-5.254 5.25 5.25 0 0 1-5.25 5.251z"/>
      <path d="M133.99 109.589a5.254 5.254 0 0 1 5.254 5.254 5.25 5.25 0 0 1-5.251-5.25z"/>
      <path d="M133.99 109.59a5.257 5.257 0 0 1 5.254-5.254 5.254 5.254 0 0 1-5.254 5.254"/>
      <path d="M139.244 104.336a5.25 5.25 0 0 1 5.253 5.251 5.25 5.25 0 0 1-5.253-5.251m10.506 10.507a5.254 5.254 0 0 1 5.254-5.254 5.25 5.25 0 0 1-5.251 5.251z"/>
      <path d="M144.497 109.59a5.253 5.253 0 0 1 5.253-5.254 5.253 5.253 0 0 1-5.253 5.254"/>
      <path d="M149.75 104.336a5.253 5.253 0 0 1 5.254 5.251 5.25 5.25 0 0 1-5.254-5.251m-5.253 5.253a5.253 5.253 0 0 1 5.253 5.254 5.25 5.25 0 0 1-5.25-5.25zm10.504 0a5.253 5.253 0 0 1 5.253 5.254 5.25 5.25 0 0 1-5.25-5.25z"/>
      <path d="M155.001 109.59a5.257 5.257 0 0 1 5.253-5.254 5.253 5.253 0 0 1-5.253 5.254m5.253 5.253a5.253 5.253 0 0 1 5.253-5.254 5.25 5.25 0 0 1-5.25 5.251z"/>
      <path d="M160.254 104.336a5.25 5.25 0 0 1 5.253 5.251 5.25 5.25 0 0 1-5.253-5.251m10.507 10.507a5.253 5.253 0 0 1 5.253-5.254 5.256 5.256 0 0 1-5.25 5.254z"/>
      <path d="M165.507 109.59a5.254 5.254 0 0 1 5.254-5.254 5.254 5.254 0 0 1-5.254 5.254"/>
      <path d="M170.761 104.336a5.253 5.253 0 0 1 5.253 5.254 5.253 5.253 0 0 1-5.253-5.254m-5.254 5.253a5.254 5.254 0 0 1 5.254 5.254 5.25 5.25 0 0 1-5.251-5.25zm15.761 5.254a5.253 5.253 0 0 1 5.253-5.254 5.25 5.25 0 0 1-5.25 5.251z"/>
      <path d="M176.011 109.589a5.253 5.253 0 0 1 5.253 5.254 5.25 5.25 0 0 1-5.25-5.254zm5.253-5.253a5.257 5.257 0 0 1 5.254 5.251 5.25 5.25 0 0 1-5.254-5.251"/>
      <path d="M176.011 109.59a5.257 5.257 0 0 1 5.253-5.254 5.253 5.253 0 0 1-5.253 5.254m10.507-.001a5.253 5.253 0 0 1 5.253 5.254 5.25 5.25 0 0 1-5.25-5.25zm5.253-5.253a5.254 5.254 0 0 1 5.254 5.254 5.254 5.254 0 0 1-5.254-5.254"/>
      <path d="M191.771 114.843a5.254 5.254 0 0 1 5.254-5.254 5.257 5.257 0 0 1-5.251 5.254zm-5.253-5.253a5.253 5.253 0 0 1 5.253-5.254 5.253 5.253 0 0 1-5.253 5.254m15.76 5.253a5.253 5.253 0 0 1 5.253-5.254 5.25 5.25 0 0 1-5.25 5.251z"/>
      <path d="M197.021 109.589a5.254 5.254 0 0 1 5.254 5.254 5.25 5.25 0 0 1-5.25-5.254zm5.254-5.253a5.25 5.25 0 0 1 5.253 5.25 5.25 5.25 0 0 1-5.253-5.253z"/>
      <path d="M197.021 109.59a5.26 5.26 0 0 1 5.254-5.254 5.254 5.254 0 0 1-5.254 5.254m10.507 0a5.254 5.254 0 0 1 5.254-5.254 5.254 5.254 0 0 1-5.254 5.254m5.253 5.253a5.254 5.254 0 0 1 5.254-5.254 5.25 5.25 0 0 1-5.25 5.251z"/>
      <path d="M207.528 109.589a5.254 5.254 0 0 1 5.254 5.254 5.25 5.25 0 0 1-5.251-5.25zm5.253-5.253a5.257 5.257 0 0 1 5.254 5.25 5.253 5.253 0 0 1-5.254-5.253z"/>
      <path d="M218.032 109.59a5.257 5.257 0 0 1 5.253-5.254 5.253 5.253 0 0 1-5.253 5.254"/>
      <path d="M218.032 109.589a5.253 5.253 0 0 1 5.253 5.254 5.25 5.25 0 0 1-5.25-5.25zm5.256 5.254a5.254 5.254 0 0 1 5.254-5.254 5.257 5.257 0 0 1-5.251 5.254z"/>
      <path d="M223.285 104.336a5.254 5.254 0 0 1 5.254 5.254 5.254 5.254 0 0 1-5.254-5.254m5.254 5.253a5.253 5.253 0 0 1 5.253 5.254 5.25 5.25 0 0 1-5.25-5.254z"/>
      <path d="M228.539 109.59a5.253 5.253 0 0 1 5.253-5.254 5.253 5.253 0 0 1-5.253 5.254m5.253 5.253a5.253 5.253 0 0 1 5.253-5.254 5.256 5.256 0 0 1-5.25 5.254z"/>
      <path d="M233.792 104.336a5.253 5.253 0 0 1 5.253 5.254 5.253 5.253 0 0 1-5.253-5.254"/>
      <path d="M239.045 109.589a5.254 5.254 0 0 1 5.254 5.254 5.253 5.253 0 0 1-5.251-5.254z"/>
      <path d="M239.045 109.59a5.253 5.253 0 0 1 5.251-5.254 5.254 5.254 0 0 1-5.254 5.254z"/>
      <path d="M244.296 104.336a5.25 5.25 0 0 1 5.253 5.25 5.25 5.25 0 0 1-5.253-5.253zm.003 10.507a5.253 5.253 0 0 1 5.253-5.254 5.25 5.25 0 0 1-5.25 5.251z"/>
    </g>
    <path fill="#FCF351" d="M95.895 152.9c.717-1.128-14.822-31.841-41.156-29.737C7.01 126.983 21.08 187.11-51.73 157.167c-43.502-17.89 42.638 20.082 42.638 20.082l98.445-14.652 6.541-9.703v.006Z"/>
    <mask id="e" width="160" height="55" x="-64" y="123" maskUnits="userSpaceOnUse" style="mask-type:luminance">
      <path fill="#fff" d="M95.895 152.9c.717-1.128-14.822-31.841-41.156-29.737C7.01 126.983 21.08 187.11-51.73 157.167c-43.502-17.89 42.638 20.082 42.638 20.082l98.445-14.652 6.541-9.703v.006Z"/>
    </mask>
    <g mask="url(#e)">
      <path fill="#FCF351" d="M107.355 112.272H-70.318v74.75h177.673z"/>
      <path fill="#5FCE70" d="M.035 130.309a8.4 8.4 0 0 0-8.398 8.398 8.4 8.4 0 0 0 8.398-8.398m0 0a8.4 8.4 0 0 0-8.398-8.398 8.4 8.4 0 0 0 8.398 8.398m0-.006a8.4 8.4 0 0 0 8.399-8.398 8.4 8.4 0 0 0-8.399 8.398m8.399 8.404a8.4 8.4 0 0 0-8.399-8.398 8.4 8.4 0 0 0 8.399 8.398m8.398-8.398a8.4 8.4 0 0 0-8.398 8.398 8.4 8.4 0 0 0 8.398-8.398m0 0a8.4 8.4 0 0 0-8.398-8.398 8.4 8.4 0 0 0 8.398 8.398m16.802 0a8.4 8.4 0 0 0-8.398-8.398 8.4 8.4 0 0 0 8.398 8.398m-16.802 0a8.4 8.4 0 0 0 8.398-8.398 8.4 8.4 0 0 0-8.398 8.398m16.802 0a8.4 8.4 0 0 0-8.398 8.398 8.4 8.4 0 0 0 8.398-8.398m-8.398 8.398a8.4 8.4 0 0 0-8.398-8.398 8.4 8.4 0 0 0 8.398 8.398m25.201-8.398a8.4 8.4 0 0 0-8.399-8.398 8.4 8.4 0 0 0 8.399 8.398m-16.803 0a8.4 8.4 0 0 0 8.398-8.398 8.4 8.4 0 0 0-8.398 8.398m16.803 0a8.4 8.4 0 0 0-8.399 8.398 8.4 8.4 0 0 0 8.399-8.398m-8.405 8.398a8.4 8.4 0 0 0-8.398-8.398 8.4 8.4 0 0 0 8.398 8.398m16.803 0a8.4 8.4 0 0 0-8.398-8.398 8.4 8.4 0 0 0 8.398 8.398m8.404-8.398a8.4 8.4 0 0 0-8.398-8.398 8.4 8.4 0 0 0 8.398 8.398m0 0a8.4 8.4 0 0 0-8.398 8.398 8.4 8.4 0 0 0 8.398-8.398m-16.802-.006a8.4 8.4 0 0 0 8.398-8.398 8.4 8.4 0 0 0-8.398 8.398m25.2 8.404a8.4 8.4 0 0 0-8.398-8.398 8.4 8.4 0 0 0 8.398 8.398m8.404-8.398a8.4 8.4 0 0 0-8.398-8.398 8.4 8.4 0 0 0 8.398 8.398m0 0a8.4 8.4 0 0 0-8.398 8.398 8.4 8.4 0 0 0 8.398-8.398m-16.802 0a8.4 8.4 0 0 0 8.398-8.398 8.4 8.4 0 0 0-8.398 8.398m33.605 0a8.4 8.4 0 0 0-8.399-8.398 8.4 8.4 0 0 0 8.399 8.398m-16.803 0a8.4 8.4 0 0 0 8.398-8.398 8.4 8.4 0 0 0-8.398 8.398m16.803 0a8.4 8.4 0 0 0-8.399 8.398 8.4 8.4 0 0 0 8.399-8.398m-8.404 8.398a8.4 8.4 0 0 0-8.399-8.398 8.4 8.4 0 0 0 8.398 8.398ZM.035 147.111a8.4 8.4 0 0 0-8.398 8.399 8.4 8.4 0 0 0 8.398-8.399m0 0a8.4 8.4 0 0 0-8.398-8.398 8.4 8.4 0 0 0 8.398 8.398m0-.006a8.4 8.4 0 0 0 8.399-8.398 8.4 8.4 0 0 0-8.399 8.398m16.797.006a8.4 8.4 0 0 0-8.398 8.399 8.4 8.4 0 0 0 8.398-8.399m0 0a8.4 8.4 0 0 0-8.398-8.398 8.4 8.4 0 0 0 8.398 8.398m-8.398 8.399a8.4 8.4 0 0 0-8.399-8.399 8.4 8.4 0 0 0 8.399 8.399m8.398-8.399a8.4 8.4 0 0 0 8.398-8.398 8.4 8.4 0 0 0-8.398 8.398m16.802 0a8.4 8.4 0 0 0-8.398-8.398 8.4 8.4 0 0 0 8.398 8.398m-8.398 8.399a8.4 8.4 0 0 0-8.398-8.399 8.4 8.4 0 0 0 8.398 8.399m8.398-8.399a8.4 8.4 0 0 0-8.398 8.399 8.4 8.4 0 0 0 8.398-8.399m0 0a8.4 8.4 0 0 0 8.398-8.398 8.4 8.4 0 0 0-8.398 8.398m16.803 0a8.4 8.4 0 0 0-8.399-8.398 8.4 8.4 0 0 0 8.399 8.398m-8.405 8.399a8.4 8.4 0 0 0-8.398-8.399 8.4 8.4 0 0 0 8.398 8.399m8.405-8.399a8.4 8.4 0 0 0-8.399 8.399 8.4 8.4 0 0 0 8.399-8.399m0-.006a8.4 8.4 0 0 0 8.398-8.398 8.4 8.4 0 0 0-8.398 8.398m16.802.006a8.4 8.4 0 0 0-8.398-8.398 8.4 8.4 0 0 0 8.398 8.398m-8.404 8.399a8.4 8.4 0 0 0-8.398-8.399 8.4 8.4 0 0 0 8.398 8.399m8.404-8.399a8.4 8.4 0 0 0-8.398 8.399 8.4 8.4 0 0 0 8.398-8.399m16.802 0a8.4 8.4 0 0 0-8.398-8.398 8.4 8.4 0 0 0 8.398 8.398m0 0a8.4 8.4 0 0 0-8.398 8.399 8.4 8.4 0 0 0 8.398-8.399m-8.404 8.399a8.4 8.4 0 0 0-8.398-8.399 8.4 8.4 0 0 0 8.398 8.399m-8.398-8.399a8.4 8.4 0 0 0 8.398-8.398 8.4 8.4 0 0 0-8.398 8.398m25.201 8.399a8.4 8.4 0 0 0-8.399-8.399 8.4 8.4 0 0 0 8.398 8.399Zm8.404-8.399a8.4 8.4 0 0 0-8.399-8.398 8.4 8.4 0 0 0 8.399 8.398m0 0a8.4 8.4 0 0 0-8.399 8.399 8.4 8.4 0 0 0 8.399-8.399m-16.803 0a8.4 8.4 0 0 0 8.398-8.398 8.4 8.4 0 0 0-8.398 8.398M.035 163.914a8.4 8.4 0 0 0-8.398 8.398 8.4 8.4 0 0 0 8.398-8.398m0 0a8.4 8.4 0 0 0-8.398-8.399 8.4 8.4 0 0 0 8.398 8.399m16.797 0a8.4 8.4 0 0 0-8.398 8.398 8.4 8.4 0 0 0 8.398-8.398m0 0a8.4 8.4 0 0 0-8.398-8.399 8.4 8.4 0 0 0 8.398 8.399m-16.797-.006a8.4 8.4 0 0 0 8.399-8.398 8.4 8.4 0 0 0-8.399 8.398m8.399 8.404a8.4 8.4 0 0 0-8.399-8.398 8.4 8.4 0 0 0 8.399 8.398m25.2-8.398a8.4 8.4 0 0 0-8.398 8.398 8.4 8.4 0 0 0 8.398-8.398m0 0a8.4 8.4 0 0 0-8.398-8.399 8.4 8.4 0 0 0 8.398 8.399m-8.398 8.398a8.4 8.4 0 0 0-8.398-8.398 8.4 8.4 0 0 0 8.398 8.398m-8.404-8.398a8.4 8.4 0 0 0 8.398-8.399 8.4 8.4 0 0 0-8.398 8.399m33.605 0a8.4 8.4 0 0 0-8.399 8.398 8.4 8.4 0 0 0 8.399-8.398m-16.803-.006a8.4 8.4 0 0 0 8.398-8.398 8.4 8.4 0 0 0-8.398 8.398m8.404 8.404a8.4 8.4 0 0 0-8.398-8.398 8.4 8.4 0 0 0 8.398 8.398m8.399-8.398a8.4 8.4 0 0 0-8.399-8.399 8.4 8.4 0 0 0 8.399 8.399m0-.006a8.4 8.4 0 0 0 8.398-8.398 8.4 8.4 0 0 0-8.398 8.398m16.802.006a8.4 8.4 0 0 0-8.398 8.398 8.4 8.4 0 0 0 8.398-8.398m-8.404 8.398a8.4 8.4 0 0 0-8.398-8.398 8.4 8.4 0 0 0 8.398 8.398m8.404-8.398a8.4 8.4 0 0 0-8.398-8.399 8.4 8.4 0 0 0 8.398 8.399m16.802 0a8.4 8.4 0 0 0-8.398-8.399 8.4 8.4 0 0 0 8.398 8.399m-16.802 0a8.4 8.4 0 0 0 8.398-8.399 8.4 8.4 0 0 0-8.398 8.399m16.802 0a8.4 8.4 0 0 0-8.398 8.398 8.4 8.4 0 0 0 8.398-8.398m-8.404 8.398a8.4 8.4 0 0 0-8.398-8.398 8.4 8.4 0 0 0 8.398 8.398m25.207-8.398a8.4 8.4 0 0 0-8.399-8.399 8.4 8.4 0 0 0 8.399 8.399m-8.404 8.398a8.4 8.4 0 0 0-8.399-8.398 8.4 8.4 0 0 0 8.398 8.398Zm8.404-8.398a8.4 8.4 0 0 0-8.399 8.398 8.4 8.4 0 0 0 8.399-8.398m-16.803-.006a8.4 8.4 0 0 0 8.398-8.398 8.4 8.4 0 0 0-8.398 8.398"/>
    </g>
    <g clip-path="url(#f)">
      <path fill="#E6FFEA" d="M680.895 444.08s-30.186-3.558-30.559-14.945c-.372-11.387 21.615-18.859 71.924-22.774s38.319-28.823-21.614-42.497c-59.933-13.662-193.493-12.899-273.63-13.776-80.136-.877-181.967-2.123-220.91-3.966-38.944-1.842-27.338-33.258-5.803-33.715 21.534-.458 18.141-6.24-.732-11.553-18.873-5.312-77.475.649-131.538-3.571-54.076-4.219-73.056-26.306-63.433-32.025 9.623-5.706 25.993-1.487 25.993-1.487-34.311-12.658-45.757-28.302-15.851-36.982 29.893-8.693 76.756-8.845 121.582-11.857 44.826-3 78.113-13.51 75.225-22.774s-51.374-15.263-51.641-25.278 24.902-9.01 54.263-5.502 36.694-4.753 24.383-15.263c-12.324-10.51-47.182-14.272-77.847-15.263-30.665-1.004-66.574-16.445-37.852-29.904 28.708-13.47 153.139-8.654 263.967-14.424s144.195-15.822 117.27-36.74c-26.925-20.906-134.333-21.758-158.889-22.596-24.556-.852-15.386-11.298-15.386-11.298-28.109-5.935-53.251-28.824-13.016-33.056s110.362 3.114 110.362 3.114-62.116 2.796-76.184 9.76 7.786 17.996 54.529 21.363c46.743 3.355 187.997 2.491 218.196 42.51 0 0 31.996.865 50.935 11.616 18.926 10.764-20.736 21.516-67.159 16.356 0 0-66.255 12.48-157.305 12.48s-150.996-1.716-177.136 9.9-14.427 24.528 25.235 32.712c39.662 8.172 33.247 24.553 9.303 23.625-23.944-.927-30.412 1.551-18.447 7.104 11.979 5.567 5.178 12.353-24.915 12.671-30.093.305-21.681 7.104-13.589 10.51 8.092 3.393 23.944 16.686-26.859 21.312-50.802 4.639-152.74 12.34-171.186 27.095-18.447 14.755 10.474 33.322 97.212 29.509 86.751-3.812 180.969-14.754 211.874-2.376 30.904 12.378 26.419 44.747-47.861 38.558s-79.764 24.756 6.974 20.944c86.751-3.813 295.377-6.164 372.799-.166 77.421 5.999 178.387 37.465 188.329 73.431s-107.261 14.627-147.11 14.627c-39.848 0-39.489 14.056-21.535 16.801 17.955 2.745 34.099 11.997 25.129 20.906-8.971 8.908-66.055 7.879-119.905 5.833-53.851-2.059-91.077-4.69-109.511-3.088-18.447 1.601-11.632 15.326-58.934 13.954-47.315-1.373-113.317-5.3-162.123-4.588-48.806.724-66.587 1.449-49.937 10.116s16.264 21.681-7.573 20.957c-23.838-.725-43.882 4.333-43.882 4.333s21.948-10.84 36.695-11.565c14.76-.724-6.056-5.782-18.54-15.174-12.485-9.391 7.945-21.312 58.268-24.921 50.324-3.61 172.771-4.703 189.128-4.703 16.358 0 11.193-19.723 57.657-13.153 46.477 6.57 147.788 10.421 171.146 8.909z"/>
      <path stroke="#89EF95" stroke-linecap="round" stroke-linejoin="round" stroke-width=".81" d="M345.19 27.162s95.855-2.948 147.482 7.803c51.628 10.751 53.171 36.69 33.766 44.849s-130.539 6.76-166.169 7.866"/>
      <path fill="#89EF95" d="M607.413 87.782c-86.458 15.67-174.527 12.022-261.997 13.09-15.479.394-30.971 1.105-46.317 3.075-8.851 1.309-18.021 3.012-26.206 6.596-30.572 13.827-.999 25.328 16.769 29.56 10.568 2.644 21.801 4.08 31.198 9.799 5.097 2.91 9.583 8.794 3.567 13.255-4.605 3.19-10.581 3.66-16.065 3.596-4.645 0-22.559-1.207-24.529 2.11 0 .216.133.534.413.826 2.515 2.554 6.348 3.202 9.09 5.592 8.678 8.476-14.72 10.662-19.858 10.904-4.738.673-31.37-.661-29.72 5.032 1.797 2.847 5.59 4.016 8.651 5.554 8.811 4.537 11.007 11.527.732 15.784-13.642 5.363-28.708 5.503-43.162 7.041-36.042 3.253-72.963 6.392-108.646 12.06-14.267 2.465-28.801 4.791-42.204 10.23-4.752 2.008-9.663 5.198-11.113 10.18-1.518 8.794 11.273 13.255 18.22 15.581 20.91 6.1 43.123 6.761 64.857 6.786 51.069-.991 101.924-6.163 152.966-8.032 14.587-.508 29.201-.838 43.815-.203 14.427.902 29.973 1.589 42.284 9.735 5.79 3.838 11.167 10.192 9.889 17.334-3.62 14.17-24.942 17.233-37.839 18.301-21.854 1.665-43.748-3.343-65.522-.077-8.146.738-29.907 6.723-12.964 14.348 10.062 3.966 21.189 4.741 31.983 5.351 7.267.305 14.561.279 21.841.025 72.803-2.948 146.031-3.787 218.861-3.939 51.042.19 102.243.177 153.205 3.393 50.829 3.939 101.685 14.932 147.935 35.787 13.044 6.265 25.954 13.42 35.962 23.753 11.167 11.895 15.905 27.183-5.297 32.813-14.214 3.724-29.081 3.406-43.668 3.101-20.869-.585-44.534-3.075-65.496-4.778-14.441-1.119-29.161-2.377-43.482.19-16.158 2.733-18.833 11.54-1.464 14.386 9.503 1.678 25.687 6.101 27.377 15.505.267 3.851-2.848 7.053-6.375 8.413-10.355 3.762-21.628 3.965-32.528 4.664-58.389 1.995-116.698-3.317-175.047-4.486-7.213 0-14.627-.178-21.721.915-3.54.623-6.694 2.275-9.689 4.232-8.917 6.456-20.177 8.654-31.171 9.15-7.253.254-14.72.216-21.934-.089-58.322-1.944-116.631-5.668-174.993-4.003-4.565.381-37.918 0-35.35 4.829.892 1.246 2.489 2.224 4.006 3.101 3.141 1.665 6.429 3.482 9.064 6.011 7.214 6.571 5.138 13.942-4.778 15.949-3.633.814-7.36.903-11.02.814a174 174 0 0 0-21.788.851c-7.227.725-14.441 1.83-21.481 3.47-.293.076-.599-.089-.666-.381a.51.51 0 0 1 .28-.585 164 164 0 0 1 16.37-6.825c6.935-2.44 14.255-4.562 21.721-4.892 1.079-.166 2.556-.14 3.368-.687-1.677-1.855-4.832-2.91-7.094-4.143-6.455-3.367-13.789-6.252-18.78-11.666-5.257-7.663 6.548-12.76 12.511-15.034 14.002-4.957 28.961-6.825 43.722-8.197 58.774-3.927 118.986-4.118 177.961-4.931l8.904-.064c2.395-.114 6.468.102 8.837-.114 6.083-.445 10.009-5.287 14.8-8.401 4.965-3.342 10.954-5.058 16.903-5.63 14.827-1.423 29.694 2.148 44.388 3.355 38.344 3.661 76.915 5.618 115.419 6.622 11.859.292 23.705.305 35.577.47-5.417-.559-10.848-1.551-16.078-3.126-7.281-2.072-18.62-7.346-13.935-16.28 4.379-7.066 13.535-9.341 21.175-11.59 10.608-2.72 21.495-4.131 32.356-5.363 11.832-1.742 52.266-1.271 48.725-17.322-5.323-13.535-34.924-21.834-48.752-25.316-4.219-1.08-11.619-2.44-15.998-3.317-7.6-1.22-16.677-2.529-24.33-3.355-46.157-5.032-92.687-6.062-139.111-6.951-87.456-1.093-174.926-1.475-262.369-3.267-15.865-.254-33.261-.8-49.192-1.321-5.444-.254-10.967-.267-16.384-1.436-11.846-2.173-21.349-11.12-14.933-22.952 3.354-5.897 9.902-9.925 16.889-10.434 17.755-.381 22.44-3.8 3.062-9.989-14.401-4.092-29.76-2.808-44.654-3.037-27.311.279-54.702.953-82.013-.75-16.384-.89-32.874-3.088-48.3-8.718-9.17-3.584-22.64-9.62-25.275-19.152-.372-2.198.426-4.346 2.53-5.554l1.863-.953c7.759-3.164 16.543-2.325 24.542-.597l-.332.979c-5.777-2.148-11.473-4.55-16.904-7.435-26.871-14.526-18.606-26.79 8.439-32.394 48.446-10.294 98.756-5.719 147.495-13.891 11.979-2.224 24.33-4.715 35.137-10.281 6.163-3.266 9.996-7.917 2.13-11.908-5.351-2.834-11.313-4.613-17.103-6.481-7.041-2.618-30.279-7.714-30.199-15.213.479-11.056 28.469-7.955 36.455-7.637 9.503.089 44.227 7.663 47.794-3.279-1.025-19.406-53.384-22.647-69.156-23.727-12.351-.674-24.862-.661-36.881-3.889-8.558-2.313-25.527-7.346-25.807-16.953.852-7.346 11.513-11.324 17.915-13.192 12.045-3.1 24.423-4.143 36.747-5.16 37.001-2.605 74.134-2.795 111.201-3.558 67.825-1.728 136.196-1.652 203.289-12.162 8.664-1.894 36.348-6.29 30.585-18.491-8.465-14.03-28.296-17.868-43.668-21.249-39.41-7.396-79.817-8.438-119.865-9.595-7.374-.025-26.273-1.182-18.607-12.238l.293.839c-10.927-2.491-21.868-6.787-29.973-14.437-6.948-6.672-5.71-13.764 4.299-17.055 10.767-3.495 22.32-3.38 33.513-3.864 29.973-.559 59.893 1.462 89.706 4.296.293.025.519.28.479.572-.027.254-.253.444-.519.457-15.559.788-31.131 1.92-46.597 3.698-7.479 1.004-48.672 4.97-27.058 16.115 6.908 3.291 14.561 5.058 22.147 6.558 15.293 2.91 30.878 3.952 46.437 4.638 49.272 2.783 172.664 3.902 201.625 41.595 17.516.992 35.603 3.457 51.149 11.68l1.624 1.004c.492.406 1.038.762 1.49 1.22 9.463 9.963-18.101 14.386-24.449 15.123-10.009 1.258-20.124 1.538-30.186 1.169-10.076-.292-20.39-1.258-29.547-5.63-5.045-2.059-14.388-8.769-7.294-13.75 10.302-6.71 38.957-8.045 47.196 1.156.905.991 1.663 2.364 1.264 3.736-.426 1.436-1.677 2.262-2.808 2.847-4.752 2.097-10.142 2.173-15.16 1.042-.293-.076-.466-.356-.386-.635a.544.544 0 0 1 .666-.369c2.355.597 4.858.763 7.307.623 9.862-.572 13.868-5.414 2.302-10.409-9.33-3.177-19.844-2.706-29.467-.953-4.126.953-15.279 3.38-11.619 9.354 1.85 3.037 5.244 4.855 8.478 6.418 4.485 2.059 9.277 3.482 14.188 4.295 14.853 1.932 30.079 1.792 44.946.064 8.065-.903 36.375-6.215 20.922-15.428-15.479-8.375-33.766-10.23-51.055-11.743-9.45-11.895-24.729-17.92-39.156-22.609C539.348 24.048 491.98 22.002 445.463 19.5c-22.706-.94-47.728-1.55-69.968-5.706-6.242-1.271-33.313-6.609-28.602-15.543 1.77-2.516 4.845-3.508 7.653-4.499a109 109 0 0 1 8.571-2.084c5.125-.953 12.205-1.983 17.383-2.58 15.519-1.792 31.091-2.91 46.676-3.71l-.04 1.028c-29.733-2.833-59.666-4.854-89.559-4.295-9.65.546-37.773-.114-40.994 10.065-.851 3.432 1.611 6.596 3.953 9.023 7.919 7.46 18.727 11.705 29.428 14.132.386.076.559.547.292.839-1.81 2.122-2.302 5.338.24 7.13 4.964 3.304 11.686 3.113 17.568 3.405l9.264.255c12.364.33 24.716.762 37.067 1.41 30.785 1.92 62.035 3.8 91.715 12.391 10.142 3.152 21.096 8.032 26.433 17.386 6.282 13.42-22.214 17.982-31.37 19.94-103.987 15.796-209.891 8.972-314.61 15.733-13.416 1.385-50.536 2.77-53.664 17.372.666 12.315 32.555 18.237 43.176 18.834 18.141 1.004 88.122 2.148 88.655 25.875-3.794 12.149-38.398 4.257-48.953 4.118-6.149-.445-12.311-.776-18.46-.534-4.525.241-9.223.546-13.323 2.465-4.818 2.453-4.578 6.723.227 9.328 7.892 4.537 17.049 6.672 25.727 9.57 10.035 3.33 34.392 9.544 15.173 20.27-11.007 5.668-23.332 8.146-35.483 10.409-12.192 2.122-24.53 3.393-36.868 4.13-36.867 2.669-74.32 2.11-110.562 9.747-44.32 9.697-18.939 27.947 8.598 37.859a.52.52 0 0 1 .32.674.56.56 0 0 1-.639.305c-7.76-1.665-16.344-2.504-23.824.534l-1.757.889-.745.534c-.2.216-.426.419-.612.648-1.464 2.034-.586 4.791.785 6.761 5.403 7.511 14.52 11.59 23.132 14.971 15.292 5.592 31.703 7.79 47.98 8.68 27.272 1.715 54.609 1.055 81.934.8 16.25.28 33.353-1.321 48.845 4.398 2.942 1.067 14.162 5.35 7.148 8.654-5.803 2.262-12.365.953-18.248 2.491-5.151 1.373-9.662 4.804-12.218 9.277-6.069 11.133 2.942 19.622 14.321 21.681 5.284 1.157 10.767 1.169 16.224 1.424 15.998.495 33.274 1.093 49.166 1.347 87.443 1.842 174.899 2.262 262.356 3.406 46.437.915 92.98 1.969 139.177 7.027 7.533.788 16.877 2.186 24.357 3.368l8.039 1.589 4.019.8 3.98.954c13.362 3.202 51.986 14.437 49.245 29.763-3.235 10.065-23.651 11.629-33.008 12.518-10.874.89-21.761 2.021-32.515 3.838-10.395 1.995-30.785 5.147-36.455 14.539-4.312 8.184 6.655 13.026 13.23 15.148 5.137 1.703 10.475 2.911 15.852 3.8-5.91.661-11.859.814-17.808.814-44.494-.471-89.028-2.695-133.322-6.799-14.64-1.208-29.453-4.741-44.134-3.33-5.829.572-11.566 2.224-16.357 5.439-4.818 3.165-9.037 8.197-15.359 8.604-2.569.14-6.349.114-8.958.127l-8.904.064c-46.902.444-95.602 1.245-142.344 3.037-25.794 1.436-64.432 1.588-86.738 13.738-5.138 3.037-8.026 7.828-1.052 12.353 5.883 4.219 12.697 7.18 19.206 10.522.998.534 1.996 1.081 2.901 1.792.293.28.652.509.839 1.144.093.33-.067.775-.293.979-.546.533-1.185.597-1.837.749-2.222.394-4.485.356-6.681.661-5.816.801-11.486 2.466-17.023 4.423a167 167 0 0 0-16.251 6.748s-.386-.966-.386-.953c14.268-3.253 28.922-4.677 43.575-4.359 22.374.991 25.674-11.069 6.149-20.855-1.983-1.004-6.921-4.143-3.62-6.392 4.166-2.123 9.077-2.072 13.603-2.58 7.293-.521 14.6-.712 21.894-.89 63.859-2.008 127.638 3.19 191.443 4.283 8.931-.28 18.327-.775 26.672-4.054 6.003-2.122 10.675-6.786 16.784-8.794 4.378-1.373 9.197-1.335 13.695-1.564 18.261-.343 36.508.725 54.729 1.462 43.708 1.779 87.47 4.473 131.205 2.961 10.78-.673 21.973-.915 32.142-4.575 5.031-2.046 7.999-7.218 3.554-11.73-6.296-6.202-15.652-8.629-24.304-10.23-3.593-.56-7.373-1.398-10.394-3.699-4.1-3.088-2.463-7.116 1.371-9.226 9.822-5.058 21.521-4.88 32.368-4.995 28.682 1.042 58.642 5.3 87.324 6.075 14.454.305 29.294.61 43.322-3.063 19.525-5.223 16.318-18.669 4.805-31.123-9.889-10.205-22.733-17.322-35.643-23.524-46.091-20.791-96.853-31.746-147.535-35.673-50.936-3.202-102.098-3.202-153.113-3.393-72.816.153-146.045.991-218.821 3.94-7.307.254-14.614.279-21.934-.026-10.914-.622-22.147-1.398-32.382-5.439-11.207-4.715-7.493-11.082 2.489-14.017 10.541-3.165 21.734-3.495 32.688-3.406 18.181.546 36.415 3.189 54.476-.089 9.822-1.856 24.289-5.872 26.126-16.801.825-6.545-4.219-12.111-9.516-15.683-12.072-7.981-27.484-8.654-41.712-9.556-43.748-1.437-87.443 2.757-131.098 5.197-29.135 1.627-58.336 4.029-87.523 2.618-14.588-.8-29.281-2.173-43.283-6.405-7.866-2.618-20.483-7.193-18.953-16.788 1.504-5.35 6.695-8.743 11.713-10.891 13.509-5.49 28.11-7.816 42.47-10.307 35.723-5.668 72.643-8.82 108.739-12.06 7.333-.903 61.463-2.999 46.33-17.932-3.806-3.876-10.448-4.257-13.456-8.998-2.795-7.714 25.927-5.63 30.639-6.481 7.253-.178 32.089-3.762 14.68-11.743-1.677-.851-3.354-1.652-4.672-3.05-.319-.356-.665-.864-.652-1.512.413-3.622 11.792-3.088 14.681-3.305 8.744-.317 18.673 1.869 26.326-3.189 3.154-2.148 3.141-5.719.572-8.324-6.309-6.202-15.745-8.401-24.277-10.498-10.687-2.3-21.494-4.727-31.29-9.633-14.547-7.307-12.897-16.216 1.198-23.104 8.904-4.486 19.125-6.393 28.988-7.854 44.453-5.07 89.36-3.126 134.013-3.457 58.335.623 116.791-3.1 174.261-12.696.293-.05.586.14.639.42s-.147.546-.439.597h-.027Z"/>
      <path fill="#89EF95" d="M243.944 156.408c7.973-21.858-54.369-30.297-69.528-33.55-6.961-1.373-13.949-2.656-20.777-4.715-3.34-1.131-7.346-2.135-9.236-5.312-9.091-16.026 32.009-20.944 41.938-20.652-10.541.953-21.202 2.453-31.051 6.253-6.948 2.605-15.732 8.54-8.358 15.657 2.049 1.487 4.591 2.313 7.04 3.126 6.722 2.059 13.669 3.546 20.577 5.045 12.244 2.657 29.613 5.935 41.552 9.138 9.969 2.897 21.202 6.532 27.271 15.225 1.89 2.758 2.529 7.358.572 9.811z"/>
    </g>
  </g>
  <defs>
    <clipPath id="c">
      <path fill="#fff" d="M-325 10h806v167h-806z"/>
    </clipPath>
    <clipPath id="f">
      <path fill="#fff" d="M8 55h886v450H8z"/>
    </clipPath>
  </defs>
</svg>
