<svg xmlns="http://www.w3.org/2000/svg" width="161" height="39" fill="none" viewBox="0 0 161 39" xmlns:xlink="http://www.w3.org/1999/xlink">
  <path fill="#FD883D" d="M159.707 24.25c-.647-1.29-1.794-10.154-2.603-13.379-2.588 9.03-52.314 9.497-76.537 9.856V34.06c13.483-.761 42.307-2.338 49.749-2.553 9.303-.269 6.202 4.032 8.224 5.51s18.606-5.375 20.628-7.122 1.348-4.032.539-5.644"/>
  <path fill="#C30" d="m157.104 10.871-.421-.12a.437.437 0 0 1 .846.014zm2.603 13.38-.392.196zm-.539 5.644.287.331zm-20.628 7.122.259-.354zm-8.224-5.51.013.438zM80.567 34.06l.025.438-.463.026v-.464zm0-13.333h-.438v-.433l.432-.006zm76.962-9.962c.41 1.634.903 4.682 1.37 7.449.234 1.39.463 2.714.672 3.77.105.528.205.984.297 1.345.095.373.174.61.231.725l-.784.393c-.104-.208-.202-.53-.297-.901-.098-.383-.2-.856-.307-1.391-.212-1.07-.443-2.406-.677-3.796-.471-2.793-.956-5.79-1.355-7.381zm2.57 13.29c.416.828.82 1.872.839 2.96.019 1.111-.367 2.247-1.483 3.211l-.574-.663c.906-.782 1.195-1.663 1.18-2.533-.015-.894-.352-1.799-.746-2.583zm-.644 6.171c-.293.253-.812.57-1.463.923-.661.357-1.491.766-2.432 1.201a100 100 0 0 1-6.552 2.726c-2.333.876-4.676 1.655-6.571 2.123-.945.233-1.794.393-2.479.445a4.6 4.6 0 0 1-.932-.01c-.267-.035-.533-.109-.744-.263l.517-.708c.042.03.142.076.341.102q.29.038.751.005c.616-.047 1.411-.194 2.336-.422 1.847-.456 4.155-1.222 6.473-2.093a99 99 0 0 0 6.492-2.7c.93-.43 1.743-.832 2.384-1.178.651-.351 1.093-.63 1.305-.814zm-21.173 7.145c-.644-.47-.857-1.158-.999-1.779-.15-.656-.227-1.235-.513-1.782-.515-.986-1.82-1.998-6.441-1.865l-.025-.876c4.681-.135 6.477.868 7.243 2.335.355.679.463 1.435.591 1.993.136.593.293.997.661 1.266zm-7.953-5.426c-7.434.215-36.25 1.791-49.737 2.553l-.05-.875c13.479-.761 42.312-2.339 49.762-2.554zm-50.2 2.115V20.728h.877V34.06zm.432-13.772c12.116-.18 30.587-.385 46.352-1.674 7.885-.645 15.073-1.559 20.443-2.87 2.686-.655 4.896-1.405 6.504-2.258 1.624-.862 2.549-1.783 2.823-2.735l.843.241c-.374 1.305-1.569 2.374-3.255 3.268-1.701.902-3.99 1.673-6.708 2.336-5.438 1.328-12.681 2.246-20.579 2.892-15.8 1.291-34.303 1.498-46.41 1.677z"/>
  <path stroke="#9A3E1E" stroke-width=".877" d="M1.158 25.192c-.09 2.195 4.26 7.256 22.38 9.944"/>
  <path stroke="#C30" stroke-width=".877" d="M158.699 19.137c-3.163 3.39-20.35 10.809-61.238 10.809"/>
  <path fill="#FD883D" d="M1.293 24.25c.647-1.29 1.907-9.836 2.715-13.06 2.589 9.03 52.202 9.178 76.425 9.537V34.06c-13.483-.761-42.307-2.338-49.75-2.553-9.302-.269-6.201 4.032-8.223 5.51S3.854 31.642 1.832 29.895s-1.348-4.032-.54-5.644"/>
  <path fill="#C30" d="m4.008 11.19.422-.122a.438.438 0 0 0-.847.014zM1.293 24.25.9 24.055zm.539 5.645.287-.332zm20.628 7.122-.26-.354zm8.224-5.51-.013.438zm49.749 2.553-.025.438.463.026v-.464zm0-13.333h.438v-.433l-.432-.006zm-76.85-9.644c-.409 1.63-.93 4.594-1.424 7.283-.249 1.35-.491 2.635-.711 3.661-.11.513-.214.957-.31 1.31q-.147.543-.237.717l.784.393c.102-.205.202-.518.3-.882.101-.373.208-.834.32-1.354.223-1.04.468-2.336.716-3.686.5-2.713 1.013-5.634 1.413-7.23zM.901 24.054c-.416.829-.82 1.873-.839 2.96-.019 1.112.367 2.248 1.483 3.212l.574-.663C1.213 28.78.924 27.9.939 27.03c.015-.894.352-1.799.746-2.583zm.644 6.172c.293.253.812.57 1.463.923.661.357 1.491.766 2.432 1.201a100 100 0 0 0 6.552 2.726c2.333.876 4.676 1.655 6.57 2.123.946.233 1.794.393 2.48.445.343.026.659.026.932-.01.267-.035.533-.109.744-.263l-.517-.708c-.042.03-.142.076-.341.102a4 4 0 0 1-.751.005c-.616-.047-1.411-.194-2.336-.422-1.847-.456-4.155-1.222-6.473-2.093a99 99 0 0 1-6.492-2.7c-.93-.43-1.743-.832-2.384-1.178-.65-.351-1.093-.63-1.305-.814zm21.173 7.145c.644-.47.857-1.158.999-1.779.15-.656.227-1.235.513-1.782.515-.986 1.82-1.998 6.441-1.865l.025-.876c-4.681-.135-6.477.868-7.243 2.335-.355.679-.463 1.435-.59 1.993-.137.593-.294.997-.662 1.266zm7.953-5.426c7.434.215 36.25 1.791 49.737 2.553l.05-.875c-13.479-.761-42.312-2.339-49.762-2.554zm50.2 2.115V20.728h-.877V34.06zm-.432-13.772c-12.118-.18-30.56-.306-46.298-1.515-7.87-.605-15.044-1.48-20.404-2.76-2.681-.642-4.886-1.38-6.49-2.224-1.621-.852-2.544-1.768-2.817-2.72l-.843.24c.374 1.306 1.568 2.37 3.25 3.256 1.7.894 3.984 1.652 6.697 2.3 5.428 1.298 12.656 2.176 20.54 2.782 15.772 1.212 34.247 1.339 46.352 1.518z"/>
  <path stroke="#C30" stroke-width=".877" d="M2.414 19.455c3.146 3.449 20.1 10.574 60.762 10.574"/>
  <g filter="url(#a)">
    <ellipse cx="80.57" cy="11.189" fill="#FFEB5F" rx="76.308" ry="9.855"/>
    <path stroke="#C30" stroke-width="1.002" d="M80.57 21.546c21.087 0 40.186-1.104 54.023-2.891 6.914-.893 12.534-1.96 16.435-3.15 1.947-.595 3.496-1.23 4.568-1.906 1.042-.658 1.784-1.452 1.784-2.41 0-.957-.742-1.752-1.784-2.41-1.072-.676-2.621-1.31-4.568-1.905-3.901-1.191-9.521-2.257-16.435-3.15C120.756 1.937 101.657.834 80.57.834c-21.086 0-40.186 1.103-54.022 2.89-6.915.893-12.535 1.959-16.436 3.15-1.947.595-3.495 1.229-4.567 1.906-1.043.657-1.784 1.452-1.784 2.41 0 .957.741 1.752 1.784 2.41 1.072.676 2.62 1.31 4.567 1.905 3.901 1.19 9.521 2.257 16.436 3.15 13.836 1.787 32.936 2.89 54.022 2.89Z"/>
  </g>
  <mask id="b" width="153" height="21" x="4" y="1" maskUnits="userSpaceOnUse" style="mask-type:alpha">
    <ellipse cx="80.57" cy="11.189" fill="#FFEB5F" rx="76.308" ry="9.855"/>
  </mask>
  <g fill="#F3B330" fill-opacity=".46" mask="url(#b)">
    <path d="M101.736 3.605c.001.797-1.127 1.564-3.15 2.14L84.383 9.754c-1.3-.186-2.725-.3-4.189-.334V4.521H77.58v4.898c-1.473.036-2.906.15-4.22.334L59.22 5.805c-2.028-.58-3.156-1.35-3.15-2.15 0-1.875 5.228-2.8 11.684-2.8h1.04c.097-.663 1.136-1.29 2.897-1.75s4.109-.716 6.55-.716h1.45c2.441 0 4.789.256 6.55.716s2.8 1.087 2.897 1.75h1.04c6.298 0 11.684.925 11.684 2.8m34.514 7.563v.394c-.123.71-1.274 1.38-3.203 1.861s-4.48.736-7.096.708v.283c0 1.755-3.842 3.588-11.652 3.588-3.265.02-6.444-.285-8.944-.857l-18.235-4.65c.62-.207 1.062-.45 1.291-.71h22.046v-.711H88.537c-.23-.26-.67-.503-1.29-.711l18.108-4.642c2.512-.571 5.701-.875 8.975-.856 7.811 0 11.653 1.833 11.653 3.588v.283c2.614-.026 5.159.23 7.087.71s3.081 1.149 3.211 1.859m-114.726.257v-.394c.138-.71 1.294-1.376 3.22-1.857 1.925-.48 4.467-.736 7.078-.712v-.274c0-1.713 3.874-3.589 11.684-3.589 3.262-.014 6.434.29 8.944.857l18.203 4.65c-.623.206-1.055.45-1.26.71H47.38v.797h22.046c.202.265.646.513 1.29.72l-18.14 4.633c-2.51.572-5.7.877-8.975.856-7.81 0-11.684-1.833-11.684-3.588v-.283c-2.614.026-5.16-.23-7.087-.71-1.927-.481-3.08-1.149-3.211-1.86m34.55 7.657c.009-.799 1.135-1.567 3.149-2.15l14.203-3.999c1.317.183 2.75.296 4.22.334v4.89h2.614v-4.89a38 38 0 0 0 4.189-.334l14.204 3.974c2.006.583 3.13 1.35 3.149 2.15 0 1.867-5.228 2.791-11.684 2.791h-1.04c-.09.665-1.124 1.295-2.886 1.756s-4.115.72-6.562.72h-1.448c-2.447 0-4.8-.258-6.561-.72-1.763-.461-2.797-1.09-2.887-1.756h-1.04c-6.456 0-11.684-.924-11.684-2.791m29.888-7.785c0 .702-3.15 1.276-7.149 1.276s-7.149-.574-7.149-1.276 3.15-1.285 7.15-1.285 7.148.574 7.148 1.285"/>
  </g>
  <ellipse cx="78.883" cy="11.507" fill="#BD4C00" fill-opacity=".32" rx="60.86" ry="5.087"/>
  <g filter="url(#c)">
    <rect width="36.402" height="15.319" x="61.152" y="22.908" fill="#FFF400" rx="7.66"/>
  </g>
  <rect width="35.274" height="14.192" x="61.716" y="23.472" stroke="#9C2700" stroke-width="1.127" rx="7.096"/>
  <rect width="29.342" height="8.817" x="64.685" y="26.158" fill="#FEAA01" stroke="#BC6100" stroke-width="1.127" rx="4.408"/>
  <g filter="url(#d)">
    <circle cx="62.404" cy="31.09" r="2.154" fill="#0BFF7F"/>
  </g>
  <circle cx="62.404" cy="31.09" r="2.424" stroke="#004C1F" stroke-width=".539"/>
  <ellipse cx="60.968" cy="30.443" fill="#fff" rx=".359" ry=".718" transform="rotate(36.967 60.968 30.443)"/>
  <g filter="url(#e)">
    <circle cx="96.404" cy="31.09" r="2.154" fill="#0BFF7F"/>
  </g>
  <circle cx="96.404" cy="31.09" r="2.424" stroke="#004C1F" stroke-width=".539"/>
  <ellipse cx="94.968" cy="30.443" fill="#fff" rx=".359" ry=".718" transform="rotate(36.967 94.968 30.443)"/>
  <defs>
    <filter id="a" width="154.621" height="23.869" x="3.26" y=".332" color-interpolation-filters="sRGB" filterUnits="userSpaceOnUse">
      <feFlood flood-opacity="0" result="BackgroundImageFix"/>
      <feColorMatrix in="SourceAlpha" result="hardAlpha" values="0 0 0 0 0 0 0 0 0 0 0 0 0 0 0 0 0 0 127 0"/>
      <feOffset dy="2.154"/>
      <feComposite in2="hardAlpha" operator="out"/>
      <feColorMatrix values="0 0 0 0 1 0 0 0 0 0.70565 0 0 0 0 0.43029 0 0 0 1 0"/>
      <feBlend in2="BackgroundImageFix" result="effect1_dropShadow_2504_633"/>
      <feBlend in="SourceGraphic" in2="effect1_dropShadow_2504_633" result="shape"/>
    </filter>
    <filter id="c" width="36.402" height="15.319" x="61.152" y="22.908" color-interpolation-filters="sRGB" filterUnits="userSpaceOnUse">
      <feFlood flood-opacity="0" result="BackgroundImageFix"/>
      <feBlend in="SourceGraphic" in2="BackgroundImageFix" result="shape"/>
      <feColorMatrix in="SourceAlpha" result="hardAlpha" values="0 0 0 0 0 0 0 0 0 0 0 0 0 0 0 0 0 0 127 0"/>
      <feOffset dy="-5.386"/>
      <feComposite in2="hardAlpha" k2="-1" k3="1" operator="arithmetic"/>
      <feColorMatrix values="0 0 0 0 1 0 0 0 0 0.518868 0 0 0 0 0.210449 0 0 0 0.43 0"/>
      <feBlend in2="shape" result="effect1_innerShadow_2504_633"/>
    </filter>
    <filter id="d" width="5.386" height="5.386" x="59.711" y="28.397" color-interpolation-filters="sRGB" filterUnits="userSpaceOnUse">
      <feFlood flood-opacity="0" result="BackgroundImageFix"/>
      <feBlend in="SourceGraphic" in2="BackgroundImageFix" result="shape"/>
      <feColorMatrix in="SourceAlpha" result="hardAlpha" values="0 0 0 0 0 0 0 0 0 0 0 0 0 0 0 0 0 0 127 0"/>
      <feOffset dx="-1.616" dy="-1.077"/>
      <feComposite in2="hardAlpha" k2="-1" k3="1" operator="arithmetic"/>
      <feColorMatrix values="0 0 0 0 0 0 0 0 0 0.7639 0 0 0 0 0.292828 0 0 0 0.77 0"/>
      <feBlend in2="shape" result="effect1_innerShadow_2504_633"/>
    </filter>
    <filter id="e" width="5.386" height="5.386" x="93.711" y="28.397" color-interpolation-filters="sRGB" filterUnits="userSpaceOnUse">
      <feFlood flood-opacity="0" result="BackgroundImageFix"/>
      <feBlend in="SourceGraphic" in2="BackgroundImageFix" result="shape"/>
      <feColorMatrix in="SourceAlpha" result="hardAlpha" values="0 0 0 0 0 0 0 0 0 0 0 0 0 0 0 0 0 0 127 0"/>
      <feOffset dx="-1.616" dy="-1.077"/>
      <feComposite in2="hardAlpha" k2="-1" k3="1" operator="arithmetic"/>
      <feColorMatrix values="0 0 0 0 0 0 0 0 0 0.7639 0 0 0 0 0.292828 0 0 0 0.77 0"/>
      <feBlend in2="shape" result="effect1_innerShadow_2504_633"/>
    </filter>
  </defs>
</svg>
