<svg xmlns="http://www.w3.org/2000/svg" width="111" height="113" fill="none" viewBox="0 0 111 113">
  <path fill="#0A2660" d="M1.074 12.37s28.27-11.019 54.09-11.03c26.02 0 54.88 11.03 54.88 11.03v95.92c0 1.875-1.41 3.393-3.15 3.393H4.224c-1.74 0-3.15-1.518-3.15-3.393z"/>
  <path fill="#0A2660" d="M55.204 1.34c26.01 0 54.85 11.03 54.85 11.03v95.92c0 1.875-1.41 3.393-3.15 3.393H4.224c-1.74 0-3.15-1.518-3.15-3.393V12.37s28.27-11.019 54.09-11.03zm0-.538c-25.65 0-54.02 10.955-54.3 11.062l-.33.13v96.296c0 2.165 1.64 3.932 3.65 3.932h102.67c2.01 0 3.65-1.767 3.65-3.932V11.993l-.33-.129c-.29-.107-29.21-11.062-55.01-11.062"/>
</svg>
