<svg xmlns="http://www.w3.org/2000/svg" xmlns:xlink="http://www.w3.org/1999/xlink" width="137" height="81" fill="none" viewBox="0 0 137 81">
  <defs>
    <path id="a" d="M33.584 2H16.477v59a4 4 0 0 0 4 4h102a4 4 0 0 0 4-4V2h-16.108c-8.87 4.258-22.768 7-38.392 7S42.454 6.258 33.584 2"/>
    <path id="b" fill="#3C6BFF" d="M33.584 2H16.477v59a4 4 0 0 0 4 4h102a4 4 0 0 0 4-4V2h-16.108c-8.87 4.258-22.768 7-38.392 7S42.454 6.258 33.584 2"/>
    <path id="c" fill="#0A2660" d="M16.477 2v-.5h-.5V2zm17.107 0 .216-.45-.102-.05h-.114zm92.893 0h.5v-.5h-.5zm-16.108 0v-.5h-.113l-.103.05zm-93.892.5h17.107v-1H16.477zm.5 58.5V2h-1v59zm3.5 3.5a3.5 3.5 0 0 1-3.5-3.5h-1a4.5 4.5 0 0 0 4.5 4.5zm102 0h-102v1h102zm3.5-3.5a3.5 3.5 0 0 1-3.5 3.5v1a4.5 4.5 0 0 0 4.5-4.5zm0-59v59h1V2zm-15.608.5h16.108v-1h-16.108zm-.216-.95c-8.78 4.214-22.598 6.95-38.176 6.95v1c15.67 0 29.649-2.748 38.609-7.05zM71.977 8.5C56.397 8.5 42.58 5.764 33.8 1.55l-.433.9c8.96 4.302 22.94 7.05 38.61 7.05z"/>
  </defs>
  <mask id="d" fill="#fff">
    <use xlink:href="#a" fill-rule="evenodd" clip-rule="evenodd"/>
  </mask>
  <use xlink:href="#b" fill-rule="evenodd" clip-rule="evenodd"/>
  <use xlink:href="#c" mask="url(#d)"/>
  <mask id="g" width="111" height="63" x="16" y="2" maskUnits="userSpaceOnUse" style="mask-type:alpha">
    <mask id="e" fill="#fff">
      <use xlink:href="#a" fill-rule="evenodd" clip-rule="evenodd"/>
    </mask>
    <use xlink:href="#b" fill-rule="evenodd" clip-rule="evenodd"/>
    <use xlink:href="#c" mask="url(#e)"/>
  </mask>
  <g mask="url(#g)">
    <mask id="h" fill="#fff">
      <use xlink:href="#a" fill-rule="evenodd" clip-rule="evenodd"/>
    </mask>
    <use xlink:href="#b" fill-rule="evenodd" clip-rule="evenodd"/>
    <use xlink:href="#c" mask="url(#h)"/>
    <g fill="#0033C9" opacity=".32">
      <path d="M17.76 4.26c0-2.78-2.25-5.03-5.03-5.03 0 2.78 2.25 5.03 5.03 5.03"/>
      <path d="M17.76 4.26c-2.78 0-5.03 2.25-5.03 5.03 2.77 0 5.02-2.25 5.02-5.03z"/>
      <path d="M22.78 9.29c0-2.78-2.25-5.03-5.03-5.03 0 2.77 2.25 5.02 5.02 5.03zm5.031-5.03c-2.78 0-5.03 2.25-5.03 5.03 2.77 0 5.02-2.25 5.02-5.02z"/>
      <path d="M22.792-.77c-2.78 0-5.03 2.25-5.03 5.03 2.78 0 5.03-2.25 5.03-5.03"/>
      <path d="M27.811 4.26c0-2.78-2.25-5.02-5.03-5.02 0 2.78 2.25 5.03 5.03 5.03z"/>
      <path d="M32.839-.77c-2.78 0-5.03 2.25-5.03 5.02 2.78 0 5.03-2.25 5.03-5.03z"/>
      <path d="M37.858 4.26c0-2.78-2.25-5.03-5.03-5.03 0 2.78 2.25 5.03 5.03 5.03"/>
      <path d="M37.858 4.26c-2.78 0-5.03 2.25-5.03 5.03 2.77 0 5.02-2.25 5.02-5.03z"/>
      <path d="M32.839 9.29c0-2.78-2.25-5.03-5.03-5.03 0 2.77 2.25 5.02 5.02 5.02zm10.051 0c0-2.78-2.25-5.03-5.03-5.03 0 2.77 2.25 5.02 5.02 5.03z"/>
      <path d="M42.89-.77c-2.78 0-5.03 2.25-5.03 5.03 2.78 0 5.03-2.25 5.03-5.03m5.03 5.03c0-2.78-2.25-5.02-5.03-5.02 0 2.78 2.25 5.03 5.03 5.03z"/>
      <path d="M47.92 4.26c-2.78 0-5.03 2.25-5.03 5.03 2.77 0 5.02-2.25 5.02-5.02z"/>
      <path d="M52.94 9.29c0-2.78-2.25-5.03-5.03-5.03 0 2.77 2.25 5.02 5.02 5.02zm0-10.06c-2.78 0-5.03 2.25-5.03 5.02 2.78 0 5.03-2.25 5.03-5.03zm5.031 5.03c-2.78 0-5.03 2.25-5.03 5.03 2.77 0 5.02-2.25 5.02-5.03z"/>
      <path d="M57.971 4.26c0-2.78-2.25-5.03-5.03-5.03 0 2.78 2.25 5.03 5.03 5.03m10.047 0c0-2.78-2.25-5.03-5.03-5.03 0 2.78 2.25 5.03 5.03 5.03"/>
      <path d="M68.018 4.26c-2.78 0-5.03 2.25-5.03 5.03 2.77 0 5.02-2.25 5.02-5.03z"/>
      <path d="M62.99 9.29c0-2.78-2.25-5.03-5.03-5.03 0 2.78 2.25 5.02 5.02 5.03z"/>
      <path d="M62.99-.77c-2.78 0-5.03 2.25-5.03 5.03 2.78 0 5.03-2.25 5.03-5.03M73.042 9.29c0-2.78-2.25-5.03-5.03-5.03 0 2.77 2.25 5.02 5.02 5.03zm5.028-5.03c0-2.78-2.25-5.02-5.03-5.02 0 2.78 2.25 5.03 5.03 5.03z"/>
      <path d="M73.05-.77c-2.78 0-5.03 2.25-5.03 5.03 2.78 0 5.03-2.25 5.03-5.03m5.02 5.03c-2.78 0-5.03 2.25-5.03 5.03 2.77 0 5.02-2.25 5.02-5.02zm10.05 0c0-2.78-2.25-5.03-5.03-5.03 0 2.78 2.25 5.03 5.03 5.03"/>
      <path d="M83.1 9.29c0-2.78-2.25-5.03-5.03-5.03 0 2.77 2.25 5.02 5.02 5.02z"/>
      <path d="M88.12 4.26c-2.78 0-5.03 2.25-5.03 5.03 2.77 0 5.02-2.25 5.02-5.03zM83.1-.77c-2.78 0-5.03 2.25-5.03 5.02 2.78 0 5.03-2.25 5.03-5.03zm15.078 5.03c-2.78 0-5.03 2.25-5.03 5.03 2.77 0 5.02-2.25 5.02-5.03z"/>
      <path d="M93.151 9.29c0-2.78-2.25-5.03-5.03-5.03 0 2.78 2.25 5.02 5.02 5.03zm5.027-5.03c0-2.78-2.25-5.03-5.03-5.03 0 2.78 2.25 5.03 5.03 5.03"/>
      <path d="M93.151-.77c-2.78 0-5.03 2.25-5.03 5.03 2.78 0 5.03-2.25 5.03-5.03m15.078 5.03c0-2.78-2.25-5.02-5.03-5.02 0 2.78 2.25 5.03 5.03 5.03z"/>
      <path d="M103.202-.77c-2.78 0-5.03 2.25-5.03 5.03 2.78 0 5.03-2.25 5.03-5.03"/>
      <path d="M103.202 9.29c0-2.78-2.25-5.03-5.03-5.03 0 2.77 2.25 5.02 5.02 5.03z"/>
      <path d="M108.229 4.26c-2.78 0-5.03 2.25-5.03 5.03 2.77 0 5.02-2.25 5.02-5.02zm5.031-5.03c-2.78 0-5.03 2.25-5.03 5.02 2.78 0 5.03-2.25 5.03-5.03z"/>
      <path d="M118.28 4.26c0-2.78-2.25-5.03-5.03-5.03 0 2.78 2.25 5.03 5.03 5.03"/>
      <path d="M118.28 4.26c-2.78 0-5.03 2.25-5.03 5.03 2.77 0 5.02-2.25 5.02-5.03zm-5.031 5.03c0-2.78-2.25-5.03-5.03-5.03 0 2.77 2.25 5.02 5.02 5.02zm10.062 0c0-2.78-2.25-5.03-5.03-5.03 0 2.77 2.25 5.02 5.02 5.03zm5.02-5.03c0-2.78-2.25-5.03-5.03-5.03 0 2.78 2.25 5.03 5.03 5.03"/>
      <path d="M123.311-.77c-2.78 0-5.03 2.25-5.03 5.03 2.78 0 5.03-2.25 5.03-5.03m5.02 5.03c-2.78 0-5.03 2.25-5.03 5.03 2.77 0 5.02-2.25 5.02-5.03zM17.758 14.31c0-2.77-2.25-5.02-5.02-5.03 0 2.78 2.25 5.03 5.03 5.03z"/>
      <path d="M17.76 14.31c-2.78 0-5.03 2.25-5.03 5.03 2.78 0 5.03-2.25 5.03-5.03m10.05 0c0-2.77-2.25-5.02-5.02-5.02 0 2.78 2.25 5.03 5.03 5.03z"/>
      <path d="M27.811 14.31c-2.78 0-5.03 2.25-5.03 5.03 2.78 0 5.03-2.25 5.03-5.02z"/>
      <path d="M22.792 19.34c0-2.78-2.25-5.03-5.03-5.03 0 2.78 2.25 5.02 5.03 5.03"/>
      <path d="M17.762 14.31c2.78 0 5.03-2.25 5.03-5.03-2.77 0-5.02 2.25-5.02 5.03zm20.098 0c0-2.77-2.25-5.02-5.02-5.03 0 2.78 2.25 5.03 5.03 5.03zm-5.021 5.03c0-2.78-2.25-5.03-5.03-5.03 0 2.78 2.25 5.02 5.03 5.02z"/>
      <path d="M27.809 14.31c2.78 0 5.03-2.25 5.03-5.03-2.77 0-5.02 2.25-5.02 5.02zm10.049 0c-2.78 0-5.03 2.25-5.03 5.03 2.78 0 5.03-2.25 5.03-5.03m.002 0c2.78 0 5.03-2.25 5.03-5.03-2.77 0-5.02 2.25-5.02 5.03zm5.03 5.03c0-2.78-2.25-5.03-5.03-5.03 0 2.78 2.25 5.03 5.03 5.03m5.028-5.03c0-2.77-2.25-5.02-5.02-5.02 0 2.78 2.25 5.03 5.03 5.03z"/>
      <path d="M47.92 14.31c-2.78 0-5.03 2.25-5.03 5.03 2.78 0 5.02-2.25 5.03-5.02z"/>
      <path d="M52.94 19.34c0-2.78-2.25-5.03-5.03-5.03 0 2.77 2.25 5.02 5.03 5.02z"/>
      <path d="M47.922 14.31c2.78 0 5.03-2.25 5.03-5.03-2.77 0-5.02 2.25-5.02 5.02z"/>
      <path d="M57.97 14.31c0-2.78-2.25-5.02-5.02-5.03 0 2.78 2.25 5.03 5.03 5.03z"/>
      <path d="M57.971 14.31c-2.78 0-5.03 2.25-5.03 5.03 2.78 0 5.03-2.25 5.03-5.03m10.047 0c-2.78 0-5.03 2.25-5.03 5.03 2.78 0 5.03-2.25 5.03-5.03"/>
      <path d="M62.99 19.34c0-2.78-2.25-5.03-5.03-5.03 0 2.78 2.25 5.03 5.03 5.03"/>
      <path d="M57.969 14.31c2.78 0 5.03-2.25 5.03-5.03-2.77 0-5.02 2.25-5.02 5.03zm10.051 0c0-2.77-2.25-5.02-5.02-5.03 0 2.78 2.25 5.03 5.03 5.03z"/>
      <path d="M73.05 19.34c0-2.78-2.25-5.03-5.03-5.03 0 2.78 2.25 5.02 5.03 5.03"/>
      <path d="M78.07 14.31c-2.78 0-5.03 2.25-5.03 5.03 2.78 0 5.02-2.25 5.03-5.02z"/>
      <path d="M78.07 14.31c0-2.77-2.25-5.02-5.02-5.02 0 2.78 2.25 5.03 5.03 5.03zm-10.05 0c2.78 0 5.03-2.25 5.03-5.03-2.77 0-5.02 2.25-5.02 5.03zm20.1 0c-2.78 0-5.03 2.25-5.03 5.03 2.78 0 5.03-2.25 5.03-5.03"/>
      <path d="M88.122 14.31c0-2.78-2.25-5.02-5.02-5.03 0 2.78 2.25 5.03 5.03 5.03zM83.1 19.34c0-2.78-2.25-5.03-5.03-5.03 0 2.77 2.25 5.02 5.03 5.02z"/>
      <path d="M78.07 14.31c2.78 0 5.03-2.25 5.03-5.03-2.77 0-5.02 2.25-5.02 5.02zm10.051 0c2.78 0 5.03-2.25 5.03-5.03-2.77 0-5.02 2.25-5.02 5.03z"/>
      <path d="M93.151 19.34c0-2.78-2.25-5.03-5.03-5.03 0 2.78 2.25 5.03 5.03 5.03"/>
      <path d="M98.178 14.31c-2.78 0-5.03 2.25-5.03 5.03 2.78 0 5.03-2.25 5.03-5.03"/>
      <path d="M98.18 14.31c0-2.77-2.25-5.02-5.02-5.03 0 2.78 2.25 5.03 5.03 5.03zm10.049 0c-2.78 0-5.03 2.25-5.03 5.03 2.78 0 5.02-2.25 5.03-5.02z"/>
      <path d="M103.202 19.34c0-2.78-2.25-5.03-5.03-5.03 0 2.78 2.25 5.03 5.03 5.03"/>
      <path d="M98.18 14.31c2.78 0 5.03-2.25 5.03-5.03-2.77 0-5.02 2.25-5.02 5.03zm10.051 0c0-2.77-2.25-5.02-5.02-5.02 0 2.78 2.25 5.03 5.03 5.03z"/>
      <path d="M113.249 19.34c0-2.78-2.25-5.03-5.03-5.03 0 2.78 2.25 5.02 5.03 5.02zm5.033-5.03c0-2.77-2.25-5.02-5.02-5.03 0 2.78 2.25 5.03 5.03 5.03zm-.002 0c-2.78 0-5.03 2.25-5.03 5.03 2.78 0 5.03-2.25 5.03-5.03m-10.05 0c2.78 0 5.03-2.25 5.03-5.03-2.77 0-5.02 2.25-5.02 5.02zm20.099 0c0-2.77-2.25-5.02-5.02-5.03 0 2.78 2.25 5.03 5.03 5.03z"/>
      <path d="M118.281 14.31c2.78 0 5.03-2.25 5.03-5.03-2.77 0-5.02 2.25-5.02 5.03z"/>
      <path d="M123.311 19.34c0-2.78-2.25-5.03-5.03-5.03 0 2.78 2.25 5.02 5.03 5.03"/>
      <path d="M128.331 14.31c-2.78 0-5.03 2.25-5.03 5.03 2.78 0 5.03-2.25 5.03-5.03M17.76 24.37c-2.78 0-5.03 2.25-5.03 5.03 2.78 0 5.02-2.25 5.03-5.03m0-.01c0-2.78-2.25-5.02-5.03-5.03 0 2.78 2.25 5.03 5.03 5.03m.002 0c2.78 0 5.03-2.25 5.03-5.03-2.78 0-5.03 2.25-5.03 5.03"/>
      <path d="M22.78 29.39c0-2.78-2.25-5.03-5.03-5.03 0 2.78 2.25 5.02 5.03 5.03m5.031-5.03c0-2.78-2.25-5.02-5.03-5.02 0 2.78 2.25 5.03 5.03 5.03zm0 .01c-2.78 0-5.03 2.25-5.03 5.03 2.78 0 5.02-2.25 5.03-5.02z"/>
      <path d="M27.809 24.36c2.78 0 5.03-2.25 5.03-5.03-2.78 0-5.03 2.25-5.03 5.02z"/>
      <path d="M37.858 24.36c0-2.78-2.25-5.03-5.03-5.03 0 2.78 2.25 5.03 5.03 5.03m0 .01c-2.78 0-5.03 2.25-5.03 5.03 2.78 0 5.03-2.25 5.03-5.03"/>
      <path d="M32.839 29.39c0-2.78-2.25-5.03-5.03-5.03 0 2.78 2.25 5.02 5.03 5.02zm10.051 0c0-2.78-2.25-5.03-5.03-5.03 0 2.78 2.25 5.03 5.03 5.03m5.03-5.03c0-2.77-2.25-5.02-5.03-5.02 0 2.78 2.25 5.03 5.03 5.03zm-10.06 0c2.78 0 5.03-2.25 5.03-5.03-2.78 0-5.03 2.25-5.03 5.03m10.06.01c-2.78 0-5.03 2.25-5.03 5.03 2.77 0 5.02-2.25 5.03-5.02z"/>
      <path d="M52.94 29.39c0-2.78-2.25-5.03-5.03-5.03 0 2.77 2.25 5.02 5.03 5.02zm5.031-5.03c0-2.78-2.25-5.03-5.03-5.03 0 2.78 2.25 5.03 5.03 5.03"/>
      <path d="M47.922 24.36c2.78 0 5.03-2.25 5.03-5.03-2.78 0-5.02 2.25-5.03 5.02zm10.049.01c-2.78 0-5.03 2.25-5.03 5.03 2.78 0 5.03-2.25 5.03-5.03"/>
      <path d="M62.99 29.39c0-2.78-2.25-5.03-5.03-5.03 0 2.78 2.25 5.03 5.03 5.03m5.028-5.03c0-2.78-2.25-5.02-5.03-5.03 0 2.78 2.25 5.03 5.03 5.03"/>
      <path d="M57.969 24.36c2.78 0 5.03-2.25 5.03-5.03-2.78 0-5.03 2.25-5.03 5.03m10.049.01c-2.78 0-5.03 2.25-5.03 5.03 2.78 0 5.02-2.25 5.03-5.03m10.052 0c-2.78 0-5.03 2.25-5.03 5.03 2.77 0 5.02-2.25 5.03-5.02zm0-.01c0-2.77-2.25-5.02-5.03-5.02 0 2.78 2.25 5.03 5.03 5.03z"/>
      <path d="M68.02 24.36c2.78 0 5.03-2.25 5.03-5.03-2.78 0-5.03 2.25-5.03 5.03m5.03 5.03c0-2.78-2.25-5.03-5.03-5.03 0 2.78 2.25 5.02 5.03 5.03m10.05 0c0-2.78-2.25-5.03-5.03-5.03 0 2.77 2.25 5.02 5.03 5.02zm-5.03-5.03c2.78 0 5.03-2.25 5.03-5.03-2.78 0-5.02 2.25-5.03 5.02z"/>
      <path d="M88.12 24.37c-2.78 0-5.03 2.25-5.03 5.03 2.78 0 5.03-2.25 5.03-5.03m0-.01c0-2.78-2.25-5.03-5.03-5.03 0 2.78 2.25 5.03 5.03 5.03m10.058.01c-2.78 0-5.03 2.25-5.03 5.03 2.78 0 5.03-2.25 5.03-5.03"/>
      <path d="M93.151 29.39c0-2.78-2.25-5.03-5.03-5.03 0 2.78 2.25 5.03 5.03 5.03m5.027-5.03c0-2.78-2.25-5.03-5.03-5.03 0 2.78 2.25 5.03 5.03 5.03"/>
      <path d="M88.121 24.36c2.78 0 5.03-2.25 5.03-5.03-2.78 0-5.03 2.25-5.03 5.03m20.108 0c0-2.78-2.25-5.02-5.03-5.02 0 2.78 2.25 5.03 5.03 5.03zm0 .01c-2.78 0-5.03 2.25-5.03 5.03 2.78 0 5.02-2.25 5.03-5.02z"/>
      <path d="M98.18 24.36c2.78 0 5.03-2.25 5.03-5.03-2.78 0-5.03 2.25-5.03 5.03m5.022 5.03c0-2.78-2.25-5.03-5.03-5.03 0 2.78 2.25 5.03 5.03 5.03m10.047 0c0-2.78-2.25-5.03-5.03-5.03 0 2.77 2.25 5.02 5.03 5.02zm-5.019-5.03c2.78 0 5.03-2.25 5.03-5.03-2.78 0-5.02 2.25-5.03 5.02zm10.05.01c-2.78 0-5.03 2.25-5.03 5.03 2.78 0 5.02-2.25 5.03-5.03"/>
      <path d="M118.28 24.36c0-2.78-2.25-5.02-5.03-5.03 0 2.78 2.25 5.03 5.03 5.03m5.031 5.03c0-2.78-2.25-5.03-5.03-5.03 0 2.78 2.25 5.02 5.03 5.03"/>
      <path d="M128.331 24.37c-2.78 0-5.03 2.25-5.03 5.03 2.78 0 5.02-2.25 5.03-5.03m0-.01c0-2.78-2.25-5.02-5.03-5.03 0 2.78 2.25 5.03 5.03 5.03"/>
      <path d="M118.281 24.36c2.78 0 5.03-2.25 5.03-5.03-2.78 0-5.03 2.25-5.03 5.03M17.76 34.42c-2.78 0-5.03 2.25-5.03 5.03 2.77 0 5.02-2.25 5.02-5.03zm0 0c0-2.78-2.25-5.02-5.03-5.03 0 2.78 2.25 5.03 5.03 5.03m.002 0c2.78 0 5.03-2.25 5.03-5.03-2.78 0-5.02 2.25-5.03 5.03"/>
      <path d="M27.811 34.42c0-2.78-2.25-5.02-5.03-5.02 0 2.78 2.25 5.03 5.03 5.03z"/>
      <path d="M27.811 34.42c-2.78 0-5.03 2.25-5.03 5.03 2.77 0 5.02-2.25 5.02-5.02zm-5.031 5.02c0-2.78-2.25-5.03-5.03-5.03 0 2.77 2.25 5.02 5.02 5.03zm15.078-5.02c0-2.78-2.25-5.03-5.03-5.03 0 2.78 2.25 5.03 5.03 5.03"/>
      <path d="M32.839 39.44c0-2.78-2.25-5.03-5.03-5.03 0 2.77 2.25 5.02 5.02 5.02z"/>
      <path d="M37.858 34.42c-2.78 0-5.03 2.25-5.03 5.03 2.77 0 5.02-2.25 5.02-5.03zm-10.049 0c2.78 0 5.03-2.25 5.03-5.03-2.78 0-5.02 2.25-5.03 5.02zm20.111 0c-2.78 0-5.03 2.25-5.03 5.03 2.77 0 5.02-2.25 5.02-5.02zm-5.03 5.02c0-2.78-2.25-5.03-5.03-5.03 0 2.78 2.25 5.02 5.02 5.03z"/>
      <path d="M37.86 34.42c2.78 0 5.03-2.25 5.03-5.03-2.78 0-5.03 2.25-5.03 5.03m10.06 0c0-2.77-2.25-5.02-5.03-5.02 0 2.78 2.25 5.03 5.03 5.03zm10.051 0c-2.78 0-5.03 2.25-5.03 5.03 2.78 0 5.02-2.25 5.02-5.03z"/>
      <path d="M52.94 39.44c0-2.78-2.25-5.03-5.03-5.03 0 2.77 2.25 5.02 5.02 5.02zm5.031-5.02c0-2.78-2.25-5.03-5.03-5.03 0 2.78 2.25 5.03 5.03 5.03"/>
      <path d="M47.922 34.42c2.78 0 5.03-2.25 5.03-5.03-2.77 0-5.02 2.25-5.03 5.02zm20.096 0c0-2.78-2.25-5.02-5.03-5.03 0 2.78 2.25 5.03 5.03 5.03"/>
      <path d="M57.969 34.42c2.78 0 5.03-2.25 5.03-5.03-2.78 0-5.03 2.25-5.03 5.03m10.049 0c-2.78 0-5.03 2.25-5.03 5.03 2.77 0 5.02-2.25 5.02-5.03z"/>
      <path d="M62.99 39.44c0-2.78-2.25-5.03-5.03-5.03 0 2.78 2.25 5.02 5.02 5.03zm10.06 0c0-2.78-2.25-5.03-5.03-5.03 0 2.77 2.25 5.02 5.02 5.03z"/>
      <path d="M78.07 34.42c-2.78 0-5.03 2.25-5.03 5.03 2.77 0 5.02-2.25 5.02-5.02z"/>
      <path d="M78.07 34.42c0-2.77-2.25-5.02-5.03-5.02 0 2.78 2.25 5.03 5.03 5.03z"/>
      <path d="M68.02 34.42c2.78 0 5.03-2.25 5.03-5.03-2.78 0-5.02 2.25-5.03 5.03m20.1 0c0-2.78-2.25-5.03-5.03-5.03 0 2.78 2.25 5.03 5.03 5.03"/>
      <path d="M78.07 34.42c2.78 0 5.03-2.25 5.03-5.03-2.77 0-5.02 2.25-5.03 5.02z"/>
      <path d="M83.1 39.44c0-2.78-2.25-5.03-5.03-5.03 0 2.77 2.25 5.02 5.02 5.02z"/>
      <path d="M88.12 34.42c-2.78 0-5.03 2.25-5.03 5.03 2.78 0 5.02-2.25 5.02-5.03zm10.058 0c-2.78 0-5.03 2.25-5.03 5.03 2.77 0 5.02-2.25 5.02-5.03z"/>
      <path d="M93.151 39.44c0-2.78-2.25-5.03-5.03-5.03 0 2.78 2.25 5.02 5.02 5.03z"/>
      <path d="M88.121 34.42c2.78 0 5.03-2.25 5.03-5.03-2.78 0-5.03 2.25-5.03 5.03"/>
      <path d="M98.178 34.42c0-2.78-2.25-5.03-5.03-5.03 0 2.78 2.25 5.03 5.03 5.03m10.051 0c-2.78 0-5.03 2.25-5.03 5.03 2.77 0 5.02-2.25 5.02-5.02z"/>
      <path d="M103.202 39.44c0-2.78-2.25-5.03-5.03-5.03 0 2.78 2.25 5.02 5.02 5.03zm5.027-5.02c0-2.77-2.25-5.02-5.03-5.02 0 2.78 2.25 5.03 5.03 5.03z"/>
      <path d="M98.18 34.42c2.78 0 5.03-2.25 5.03-5.03-2.78 0-5.03 2.25-5.03 5.03m10.05 0c2.78 0 5.03-2.25 5.03-5.03-2.78 0-5.02 2.25-5.03 5.02zm10.05 0c-2.78 0-5.03 2.25-5.03 5.03 2.77 0 5.02-2.25 5.02-5.03z"/>
      <path d="M113.249 39.44c0-2.78-2.25-5.03-5.03-5.03 0 2.77 2.25 5.02 5.02 5.02zm5.031-5.02c0-2.78-2.25-5.02-5.03-5.03 0 2.78 2.25 5.03 5.03 5.03m.001 0c2.78 0 5.03-2.25 5.03-5.03-2.78 0-5.02 2.25-5.03 5.03"/>
      <path d="M128.331 34.42c0-2.78-2.25-5.02-5.03-5.03 0 2.78 2.25 5.03 5.03 5.03m0 0c-2.78 0-5.03 2.25-5.03 5.03 2.77 0 5.02-2.25 5.02-5.03z"/>
      <path d="M123.311 39.44c0-2.78-2.25-5.03-5.03-5.03 0 2.77 2.25 5.02 5.02 5.03zm-110.581 0c0 2.78 2.25 5.03 5.03 5.03 0-2.77-2.25-5.02-5.02-5.03zm5.03 5.03c-2.78 0-5.03 2.25-5.03 5.03 2.78 0 5.02-2.25 5.03-5.03m10.051 0c-2.78 0-5.03 2.25-5.03 5.03 2.78 0 5.02-2.25 5.03-5.02z"/>
      <path d="M27.81 44.47c0-2.77-2.25-5.02-5.02-5.02 0 2.78 2.25 5.03 5.03 5.03z"/>
      <path d="M22.79 39.44c-2.77 0-5.02 2.25-5.02 5.03 2.78 0 5.03-2.25 5.03-5.03zm-.01 10.06c0-2.78-2.25-5.03-5.03-5.03 0 2.78 2.25 5.02 5.03 5.03m10.059 0c0-2.78-2.25-5.03-5.03-5.03 0 2.78 2.25 5.02 5.03 5.02zm-5.03-5.03c2.78 0 5.03-2.25 5.03-5.03-2.77 0-5.02 2.25-5.02 5.02zm10.051 0c0-2.78-2.25-5.02-5.02-5.03 0 2.78 2.25 5.03 5.03 5.03z"/>
      <path d="M37.858 44.47c-2.78 0-5.03 2.25-5.03 5.03 2.78 0 5.02-2.25 5.03-5.03m10.062 0c-2.78 0-5.03 2.25-5.03 5.03 2.77 0 5.02-2.25 5.03-5.02zm-10.06 0c2.78 0 5.03-2.25 5.03-5.03-2.77 0-5.02 2.25-5.02 5.03z"/>
      <path d="M47.918 44.47c0-2.77-2.25-5.02-5.02-5.02 0 2.78 2.25 5.03 5.03 5.03zM42.89 49.5c0-2.78-2.25-5.03-5.03-5.03 0 2.78 2.25 5.02 5.03 5.03"/>
      <path d="M47.922 44.47c2.78 0 5.03-2.25 5.03-5.03-2.77 0-5.02 2.25-5.02 5.02zm5.018 5.03c0-2.78-2.25-5.03-5.03-5.03 0 2.77 2.25 5.02 5.03 5.02zm5.031-5.03c-2.78 0-5.03 2.25-5.03 5.03 2.78 0 5.02-2.25 5.03-5.03"/>
      <path d="M57.97 44.47c0-2.78-2.25-5.02-5.02-5.03 0 2.78 2.25 5.03 5.03 5.03zm10.05 0c0-2.77-2.25-5.02-5.02-5.03 0 2.78 2.25 5.03 5.03 5.03z"/>
      <path d="M57.969 44.47c2.78 0 5.03-2.25 5.03-5.03-2.78 0-5.02 2.25-5.02 5.03zm10.049 0c-2.78 0-5.03 2.25-5.03 5.03 2.78 0 5.02-2.25 5.03-5.03"/>
      <path d="M62.99 49.5c0-2.78-2.25-5.03-5.03-5.03 0 2.78 2.25 5.03 5.03 5.03m15.08-5.03c0-2.77-2.25-5.02-5.02-5.02 0 2.78 2.25 5.03 5.03 5.03zm-10.05 0c2.78 0 5.03-2.25 5.03-5.03-2.77 0-5.02 2.25-5.02 5.03z"/>
      <path d="M78.07 44.47c-2.78 0-5.03 2.25-5.03 5.03 2.77 0 5.02-2.25 5.03-5.02z"/>
      <path d="M73.05 49.5c0-2.78-2.25-5.03-5.03-5.03 0 2.78 2.25 5.02 5.03 5.03m10.05 0c0-2.78-2.25-5.03-5.03-5.03 0 2.77 2.25 5.02 5.03 5.02zm5.022-5.03c0-2.78-2.25-5.02-5.02-5.03 0 2.78 2.25 5.03 5.03 5.03z"/>
      <path d="M88.12 44.47c-2.78 0-5.03 2.25-5.03 5.03 2.78 0 5.02-2.25 5.03-5.03m-10.05 0c2.78 0 5.03-2.25 5.03-5.03-2.77 0-5.02 2.25-5.02 5.02zm15.081 5.03c0-2.78-2.25-5.03-5.03-5.03 0 2.78 2.25 5.03 5.03 5.03m5.029-5.03c0-2.78-2.25-5.02-5.02-5.03 0 2.78 2.25 5.03 5.03 5.03z"/>
      <path d="M98.178 44.47c-2.78 0-5.03 2.25-5.03 5.03 2.78 0 5.02-2.25 5.03-5.03m-10.057 0c2.78 0 5.03-2.25 5.03-5.03-2.78 0-5.02 2.25-5.02 5.03zm20.11 0c0-2.77-2.25-5.02-5.02-5.02 0 2.78 2.25 5.03 5.03 5.03zm-10.051 0c2.78 0 5.03-2.25 5.03-5.03-2.77 0-5.02 2.25-5.02 5.03z"/>
      <path d="M108.229 44.47c-2.78 0-5.03 2.25-5.03 5.03 2.77 0 5.02-2.25 5.03-5.02z"/>
      <path d="M103.202 49.5c0-2.78-2.25-5.03-5.03-5.03 0 2.78 2.25 5.02 5.03 5.03m15.078-5.03c-2.78 0-5.03 2.25-5.03 5.03 2.78 0 5.02-2.25 5.03-5.03m.002 0c0-2.77-2.25-5.02-5.02-5.03 0 2.78 2.25 5.03 5.03 5.03zm-5.033 5.03c0-2.78-2.25-5.03-5.03-5.03 0 2.77 2.25 5.02 5.03 5.02zm-5.019-5.03c2.78 0 5.03-2.25 5.03-5.03-2.77 0-5.02 2.25-5.02 5.02zm20.099 0c0-2.77-2.25-5.02-5.02-5.03 0 2.78 2.25 5.03 5.03 5.03zm-5.018 5.03c0-2.78-2.25-5.03-5.03-5.03 0 2.78 2.25 5.02 5.03 5.03"/>
      <path d="M128.331 44.47c-2.78 0-5.03 2.25-5.03 5.03 2.78 0 5.02-2.25 5.03-5.03m-10.05 0c2.78 0 5.03-2.25 5.03-5.03-2.77 0-5.02 2.25-5.02 5.03zM17.76 54.52c-2.78 0-5.03 2.25-5.03 5.03 2.78 0 5.02-2.25 5.02-5.03z"/>
      <path d="M12.73 49.5c0 2.78 2.25 5.03 5.03 5.03 0-2.78-2.25-5.02-5.03-5.03m10.06 0c0 2.78 2.25 5.03 5.03 5.03 0-2.78-2.25-5.02-5.03-5.02z"/>
      <path d="M27.811 54.52c-2.78 0-5.03 2.25-5.03 5.03 2.77 0 5.02-2.25 5.02-5.02zm-5.019-5.02c-2.78 0-5.02 2.25-5.03 5.03 2.78 0 5.03-2.25 5.03-5.03"/>
      <path d="M22.78 59.55c0-2.78-2.25-5.03-5.03-5.03 0 2.78 2.25 5.02 5.02 5.03zM32.839 49.5c-2.78 0-5.02 2.25-5.03 5.02 2.78 0 5.03-2.25 5.03-5.03zm5.019 5.02c-2.78 0-5.03 2.25-5.03 5.03 2.78 0 5.02-2.25 5.02-5.03z"/>
      <path d="M37.858 54.52c0-2.78-2.25-5.02-5.03-5.03 0 2.78 2.25 5.03 5.03 5.03m-5.019 5.03c0-2.78-2.25-5.03-5.03-5.03 0 2.77 2.25 5.02 5.02 5.02zm5.021-5.03c2.78 0 5.03-2.25 5.03-5.03-2.78 0-5.02 2.25-5.03 5.03m10.06 0c-2.78 0-5.03 2.25-5.03 5.03 2.77 0 5.02-2.25 5.02-5.02z"/>
      <path d="M42.89 59.55c0-2.78-2.25-5.03-5.03-5.03 0 2.78 2.25 5.02 5.02 5.03zm5.03-5.03c0-2.77-2.25-5.02-5.03-5.02 0 2.78 2.25 5.03 5.03 5.03zm.002 0c2.78 0 5.03-2.25 5.03-5.03-2.77 0-5.02 2.25-5.03 5.02zm10.049 0c-2.78 0-5.03 2.25-5.03 5.03 2.78 0 5.02-2.25 5.02-5.03z"/>
      <path d="M57.971 54.52c0-2.78-2.25-5.03-5.03-5.03 0 2.78 2.25 5.03 5.03 5.03m-5.031 5.03c0-2.78-2.25-5.03-5.03-5.03 0 2.77 2.25 5.02 5.02 5.02z"/>
      <path d="M57.969 54.52c2.78 0 5.03-2.25 5.03-5.03-2.78 0-5.02 2.25-5.03 5.03"/>
      <path d="M68.018 54.52c0-2.78-2.25-5.02-5.03-5.03 0 2.78 2.25 5.03 5.03 5.03m-5.028 5.03c0-2.78-2.25-5.03-5.03-5.03 0 2.78 2.25 5.03 5.02 5.03z"/>
      <path d="M68.018 54.52c-2.78 0-5.03 2.25-5.03 5.03 2.78 0 5.02-2.25 5.02-5.03zm.002 0c2.78 0 5.03-2.25 5.03-5.03-2.78 0-5.02 2.25-5.03 5.03"/>
      <path d="M78.07 54.52c0-2.77-2.25-5.02-5.03-5.02 0 2.78 2.25 5.03 5.03 5.03zm-5.02 5.03c0-2.78-2.25-5.03-5.03-5.03 0 2.78 2.25 5.02 5.02 5.03z"/>
      <path d="M78.07 54.52c-2.78 0-5.03 2.25-5.03 5.03 2.77 0 5.02-2.25 5.02-5.02zm0 0c2.78 0 5.03-2.25 5.03-5.03-2.77 0-5.02 2.25-5.03 5.02z"/>
      <path d="M88.12 54.52c0-2.78-2.25-5.03-5.03-5.03 0 2.78 2.25 5.03 5.03 5.03m-5.02 5.03c0-2.78-2.25-5.03-5.03-5.03 0 2.77 2.25 5.02 5.02 5.02z"/>
      <path d="M88.12 54.52c-2.78 0-5.03 2.25-5.03 5.03 2.78 0 5.02-2.25 5.02-5.03zm10.058 0c0-2.78-2.25-5.02-5.03-5.03 0 2.78 2.25 5.03 5.03 5.03m0 0c-2.78 0-5.03 2.25-5.03 5.03 2.78 0 5.02-2.25 5.02-5.03z"/>
      <path d="M93.151 59.55c0-2.78-2.25-5.03-5.03-5.03 0 2.78 2.25 5.03 5.02 5.03z"/>
      <path d="M88.121 54.52c2.78 0 5.03-2.25 5.03-5.03-2.78 0-5.02 2.25-5.03 5.03m15.081 5.03c0-2.78-2.25-5.03-5.03-5.03 0 2.78 2.25 5.02 5.02 5.03zm5.027-5.03c0-2.77-2.25-5.02-5.03-5.02 0 2.78 2.25 5.03 5.03 5.03z"/>
      <path d="M108.229 54.52c-2.78 0-5.03 2.25-5.03 5.03 2.77 0 5.02-2.25 5.02-5.02zm-10.049 0c2.78 0 5.03-2.25 5.03-5.03-2.78 0-5.02 2.25-5.03 5.03m20.1 0c-2.78 0-5.03 2.25-5.03 5.03 2.78 0 5.02-2.25 5.02-5.03zm0 0c0-2.78-2.25-5.02-5.03-5.03 0 2.78 2.25 5.03 5.03 5.03"/>
      <path d="M113.249 59.55c0-2.78-2.25-5.03-5.03-5.03 0 2.77 2.25 5.02 5.02 5.02z"/>
      <path d="M108.23 54.52c2.78 0 5.03-2.25 5.03-5.03-2.77 0-5.02 2.25-5.03 5.02zm10.051 0c2.78 0 5.03-2.25 5.03-5.03-2.78 0-5.02 2.25-5.03 5.03"/>
      <path d="M123.311 59.55c0-2.78-2.25-5.03-5.03-5.03 0 2.78 2.25 5.02 5.02 5.03zm-.002-10.05c0 2.78 2.25 5.03 5.03 5.03 0-2.78-2.25-5.02-5.03-5.03"/>
      <path d="M123.311 59.55c2.78 0 5.02-2.25 5.02-5.03-2.78 0-5.03 2.25-5.03 5.03zm-110.581 0c0 2.78 2.25 5.03 5.03 5.03 0-2.78-2.25-5.02-5.02-5.03z"/>
      <path d="M17.76 64.57c-2.78 0-5.03 2.25-5.03 5.03 2.78 0 5.02-2.25 5.03-5.03"/>
      <path d="M22.78 69.6c0-2.78-2.25-5.03-5.03-5.03 0 2.78 2.25 5.02 5.03 5.03m5.031-5.03c-2.78 0-5.03 2.25-5.03 5.03 2.78 0 5.02-2.25 5.03-5.02z"/>
      <path d="M22.79 59.55c-2.78 0-5.02 2.25-5.02 5.03 2.78 0 5.03-2.25 5.03-5.03z"/>
      <path d="M22.79 59.55c0 2.78 2.25 5.03 5.03 5.03 0-2.77-2.25-5.02-5.02-5.02zm10.05 0c0 2.78 2.25 5.03 5.03 5.03 0-2.78-2.25-5.02-5.02-5.03z"/>
      <path d="M32.839 69.6c0-2.78-2.25-5.03-5.03-5.03 0 2.78 2.25 5.02 5.03 5.02zm.001-10.05c-2.77 0-5.02 2.25-5.02 5.02 2.78 0 5.03-2.25 5.03-5.03z"/>
      <path d="M37.858 64.57c-2.78 0-5.03 2.25-5.03 5.03 2.78 0 5.03-2.25 5.03-5.03m10.062.01c-2.78 0-5.03 2.25-5.03 5.03 2.77 0 5.02-2.25 5.03-5.02zm-5.029-5.03c-2.78 0-5.02 2.25-5.02 5.03 2.78 0 5.03-2.25 5.03-5.03z"/>
      <path d="M47.918 64.57c0-2.77-2.25-5.02-5.02-5.02 0 2.78 2.25 5.03 5.03 5.03zM42.89 69.6c0-2.78-2.25-5.03-5.03-5.03 0 2.78 2.25 5.03 5.03 5.03m15.081-5.03c-2.78 0-5.03 2.25-5.03 5.03 2.78 0 5.03-2.25 5.03-5.03m-.001 0c0-2.78-2.25-5.03-5.02-5.03 0 2.78 2.25 5.03 5.03 5.03z"/>
      <path d="M47.922 64.57c2.78 0 5.03-2.25 5.03-5.03-2.77 0-5.02 2.25-5.02 5.02zm5.018 5.03c0-2.78-2.25-5.03-5.03-5.03 0 2.77 2.25 5.02 5.03 5.02zm15.078-5.03c-2.78 0-5.03 2.25-5.03 5.03 2.78 0 5.02-2.25 5.03-5.03m.002 0c0-2.78-2.25-5.02-5.02-5.03 0 2.78 2.25 5.03 5.03 5.03z"/>
      <path d="M62.99 69.6c0-2.78-2.25-5.03-5.03-5.03 0 2.78 2.25 5.03 5.03 5.03m-5.021-5.03c2.78 0 5.03-2.25 5.03-5.03-2.78 0-5.02 2.25-5.02 5.03zm20.101.01c-2.78 0-5.03 2.25-5.03 5.03 2.77 0 5.02-2.25 5.03-5.02zm-10.05-.01c2.78 0 5.03-2.25 5.03-5.03-2.78 0-5.02 2.25-5.02 5.03z"/>
      <path d="M73.05 69.6c0-2.78-2.25-5.03-5.03-5.03 0 2.78 2.25 5.02 5.03 5.03m5.02-5.03c0-2.77-2.25-5.02-5.02-5.02 0 2.78 2.25 5.03 5.03 5.03z"/>
      <path d="M78.07 64.57c2.78 0 5.03-2.25 5.03-5.03-2.77 0-5.02 2.25-5.02 5.02zm10.05 0c-2.78 0-5.03 2.25-5.03 5.03 2.78 0 5.03-2.25 5.03-5.03"/>
      <path d="M83.1 69.6c0-2.78-2.25-5.03-5.03-5.03 0 2.77 2.25 5.02 5.03 5.02zm5.022-5.03c0-2.78-2.25-5.03-5.02-5.03 0 2.78 2.25 5.03 5.03 5.03zm10.058 0c0-2.78-2.25-5.02-5.02-5.03 0 2.78 2.25 5.03 5.03 5.03z"/>
      <path d="M88.121 64.57c2.78 0 5.03-2.25 5.03-5.03-2.78 0-5.02 2.25-5.02 5.03zm10.057 0c-2.78 0-5.03 2.25-5.03 5.03 2.78 0 5.03-2.25 5.03-5.03"/>
      <path d="M93.151 69.6c0-2.78-2.25-5.03-5.03-5.03 0 2.78 2.25 5.03 5.03 5.03m15.08-5.03c0-2.77-2.25-5.02-5.02-5.02 0 2.78 2.25 5.03 5.03 5.03zm-5.029 5.03c0-2.78-2.25-5.03-5.03-5.03 0 2.78 2.25 5.03 5.03 5.03"/>
      <path d="M108.229 64.57c-2.78 0-5.03 2.25-5.03 5.03 2.78 0 5.02-2.25 5.03-5.02zm-10.049 0c2.78 0 5.03-2.25 5.03-5.03a5.02 5.02 0 0 0-5.02 5.03zm15.082-5.02c0 2.78 2.25 5.03 5.03 5.03 0-2.78-2.25-5.02-5.02-5.03z"/>
      <path d="M113.249 69.6c0-2.78-2.25-5.03-5.03-5.03 0 2.77 2.25 5.02 5.03 5.02zm-5.019-5.03c2.78 0 5.03-2.25 5.03-5.03-2.77 0-5.02 2.25-5.02 5.02zm5.032 5.03c2.78 0 5.02-2.25 5.03-5.03-2.78 0-5.03 2.25-5.03 5.03m10.047 0c2.78 0 5.02-2.25 5.03-5.03-2.78 0-5.03 2.25-5.03 5.03m-5.028-5.03c2.78 0 5.03-2.25 5.03-5.03-2.78 0-5.02 2.25-5.02 5.03z"/>
      <path d="M123.311 69.6c0-2.78-2.25-5.03-5.03-5.03 0 2.78 2.25 5.02 5.03 5.03m-.002-10.05c0 2.78 2.25 5.03 5.03 5.03 0-2.78-2.25-5.02-5.02-5.03z"/>
    </g>
  </g>
  <path fill="#0A2660" d="M54.112 54.05c-.13 0-.25-.08-.31-.19a.33.33 0 0 1-.04-.17c0-.19.16-.35.35-.35.13 0 .25.07.3.18.03.05.05.11.05.17 0 .19-.16.35-.35.35z"/>
  <path fill="#00D264" d="M36.623 55.07c-12.28-13.18-33.73-8.79-33.73-8.79l-1.92-7.01s6.06-1.05 13.52-.49c9.85.74 22.13 4.28 26.03 16.75.76 2.44 1.11 4.88 1.13 7.23-1.36-3.06-3.08-5.59-5.03-7.69"/>
  <path fill="#0A2660" d="m41.891 63.84-.44-.99c-1.29-2.89-2.97-5.46-4.99-7.62l-.06-.07c-12.06-12.84-33.24-8.7-33.45-8.66l-.21.04-2.05-7.46.25-.04c.06 0 6.18-1.05 13.57-.5 9.78.73 22.28 4.26 26.23 16.91.74 2.36 1.12 4.82 1.14 7.3v1.09zm-5.04-8.86c1.8 1.94 3.32 4.18 4.55 6.68-.11-2.06-.47-4.1-1.09-6.08-3.88-12.41-16.19-15.87-25.83-16.59-6.5-.48-12 .27-13.22.45l1.8 6.57c2.26-.4 22.15-3.52 33.73 8.89l.06.07z"/>
  <path fill="#00D264" d="M41.657 62.76c.09 8.2-3.75 15.27-7.51 17.02 0 0-2.84-1.58-5.62-4.36 0 0 11.39-4.84 8.1-20.34 1.95 2.09 3.67 4.62 5.03 7.69z"/>
  <path fill="#0A2660" d="m34.139 80.03-.1-.06s-2.9-1.63-5.67-4.4l-.24-.24.31-.13c.11-.05 11.18-4.95 7.97-20.09l-.17-.8.56.59c2.06 2.2 3.77 4.81 5.08 7.75l.02.09c.09 8.41-3.9 15.49-7.64 17.23l-.11.05zm-5.23-4.55c2.36 2.3 4.74 3.74 5.25 4.04 3.58-1.76 7.35-8.59 7.28-16.71-1.17-2.61-2.65-4.95-4.43-6.97 2.48 13.48-6.34 18.75-8.1 19.65z"/>
  <path fill="#00D264" d="M16.739 25.55v11.72l-2.25 1.5c-7.45-.55-13.52.49-13.52.49s10.53-7.29 15.76-13.71z"/>
  <path fill="#0A2660" d="m0 39.66.84-.58c.1-.07 10.57-7.35 15.72-13.67l.4-.49V37.4l-2.41 1.61h-.08c-7.34-.54-13.4.48-13.46.49L0 39.67zm16.51-13.48C12.06 31.42 4.33 37.14 1.87 38.91c1.99-.26 6.89-.78 12.56-.37l2.08-1.38zm17.73 10.33a.31.31 0 0 1-.24-.1.357.357 0 0 1 0-.49c.13-.14.35-.14.49 0 .13.13.14.35 0 .49-.07.07-.16.11-.24.11z"/>
  <path fill="#00D264" d="M131.801 19.46s-2.97-5.31-9.66-5.31c-11.57 0-24.87 13.89-24.87 13.89l-9.13-3.09C107.69 11 116.51 9.35 124.15 12.1c4.33 1.56 6.84 4.5 7.65 7.36Z"/>
  <path fill="#0A2660" d="m97.33 28.31-9.69-3.28.36-.26c20.111-14.35 28.771-15.56 36.221-12.87 3.95 1.42 6.86 4.23 7.79 7.51l.52 1.84-.94-1.67c-.03-.05-2.99-5.19-9.46-5.19-11.34 0-24.58 13.68-24.71 13.82l-.1.1h.01Zm-8.7-3.43 8.58 2.9c1.26-1.28 13.941-13.86 24.931-13.86 4.54 0 7.42 2.43 8.83 4.04-1.26-2.46-3.73-4.51-6.89-5.65-7.27-2.62-15.75-1.43-35.44 12.56l-.01.01Z"/>
  <path fill="#00D264" d="M136.63 26.41c0 8.01-10.39 11.57-10.39 11.57v-9.75s5.86-.75 5.86-6.75c0-.65-.09-1.33-.29-2.02-.81-2.86-3.32-5.8-7.65-7.36 4.41 1.57 12.48 6.38 12.48 14.3z"/>
  <path fill="#0A2660" d="M126.012 38.29V28.03l.2-.03c.23-.03 5.66-.8 5.66-6.53 0-.65-.1-1.3-.28-1.95-.89-3.14-3.7-5.83-7.51-7.21l.15-.43c4.69 1.67 12.63 6.6 12.63 14.52s-10.44 11.75-10.54 11.78l-.3.1zm.45-9.87v9.23c1.69-.66 9.94-4.25 9.94-11.24 0-5.12-3.45-8.96-7.11-11.43 1.32 1.28 2.27 2.79 2.73 4.42.2.69.3 1.39.3 2.08 0 5.49-4.81 6.74-5.86 6.94"/>
  <path fill="#00D264" d="M71.53 17.72c-14.31 0-28.3-2.52-41.59-7.5h-12.9v-5h13.81l.43.16c12.85 4.87 26.39 7.34 40.25 7.34s27.4-2.47 40.249-7.34l.43-.16h13.81v5h-12.9c-13.29 4.98-27.28 7.5-41.59 7.5Z"/>
  <path fill="#00D264" d="M71.532 26.9c7.302 0 13.22-5.919 13.22-13.22S78.834.46 71.532.46c-7.3 0-13.22 5.919-13.22 13.22s5.92 13.22 13.22 13.22"/>
  <path fill="#0A2660" d="M71.532.45c7.3 0 13.22 5.92 13.22 13.22s-5.92 13.22-13.22 13.22-13.22-5.92-13.22-13.22S64.232.45 71.532.45m0-.45c-7.54 0-13.68 6.13-13.68 13.68s6.13 13.68 13.68 13.68 13.68-6.13 13.68-13.68S79.082 0 71.532 0"/>
  <path fill="#00D264" d="M73.14 25.99c6.8-.88 11.6-7.11 10.71-13.92-.88-6.8-7.11-11.6-13.92-10.71-6.8.88-11.6 7.11-10.71 13.92.88 6.8 7.11 11.6 13.92 10.71"/>
  <path fill="#fff" d="M71.748 3.05h-.42v21.27h.42z"/>
  <path fill="#fff" d="m66.401 4.37-.37.21L76.661 23l.37-.21z"/>
  <path fill="#fff" d="m62.429 8.19-.21.37 18.42 10.63.21-.37z"/>
  <path fill="#fff" d="M82.168 13.48h-21.27v.42h21.27z"/>
  <path fill="#fff" d="m80.639 8.2-18.42 10.63.21.37 18.42-10.63z"/>
  <path fill="#fff" d="M76.67 4.37 66.04 22.79l.37.21L77.04 4.58z"/>
  <path fill="#00D264" d="M71.53 21.86c4.51 0 8.17-3.66 8.17-8.17s-3.66-8.17-8.17-8.17-8.17 3.66-8.17 8.17 3.66 8.17 8.17 8.17"/>
  <path fill="#fff" d="M75.4 19.34a8.66 8.66 0 0 0-7.41 0l-1.26-1.68 5.62-6.7c-.33.03-.66.04-.99.04-1.59 0-3.18-.36-4.62-1.04l.92-1.94a8.66 8.66 0 0 0 7.41 0l1.26 1.68-5.62 6.7c.33-.03.66-.04.99-.04 1.59 0 3.18.36 4.62 1.04z"/>
</svg>
