<svg xmlns="http://www.w3.org/2000/svg" width="161" height="40" fill="none" viewBox="0 0 161 40" xmlns:xlink="http://www.w3.org/1999/xlink">
  <path fill="#0033C9" d="M159.707 25.186c-.647-1.293-1.794-10.18-2.603-13.413-2.588 9.053-52.314 9.52-76.537 9.88v13.368c13.483-.764 42.307-2.344 49.749-2.56 9.303-.27 6.202 4.042 8.224 5.523 2.023 1.482 18.606-5.388 20.628-7.14s1.348-4.041.539-5.658"/>
  <path fill="#0A2660" d="m157.104 11.773-.34-.097a.354.354 0 0 1 .683.011zm2.603 13.413-.316.159zm-.539 5.658.232.268zm-20.628 7.14.21-.285zm-8.224-5.523.011.354zm-49.749 2.56.02.353-.373.021v-.374zm0-13.368h-.353v-.348l.348-.006zm76.88-9.966c.409 1.635.901 4.685 1.368 7.461.235 1.395.463 2.723.673 3.783.106.53.205.989.298 1.353q.144.559.238.744l-.633.317c-.1-.2-.196-.514-.291-.887-.097-.381-.2-.854-.306-1.39a146 146 0 0 1-.677-3.802c-.47-2.798-.956-5.808-1.356-7.407zm2.577 13.34c.413.827.811 1.86.829 2.932.019 1.09-.357 2.204-1.453 3.153l-.464-.535c.927-.802 1.225-1.71 1.21-2.606-.016-.916-.36-1.836-.755-2.626zm-.624 6.085c-.285.247-.797.561-1.447.914-.66.357-1.489.767-2.428 1.202a100 100 0 0 1-6.546 2.73c-2.332.878-4.672 1.658-6.562 2.126-.943.233-1.787.392-2.466.444a4.5 4.5 0 0 1-.914-.01c-.261-.034-.511-.105-.706-.248l.419-.571c.058.043.174.09.379.118q.301.04.769.005c.622-.047 1.422-.196 2.349-.425 1.852-.459 4.163-1.228 6.483-2.101a99 99 0 0 0 6.497-2.71 44 44 0 0 0 2.388-1.182c.651-.353 1.101-.636 1.321-.827zm-21.069 7.158c-.616-.452-.824-1.114-.966-1.733-.148-.648-.228-1.246-.52-1.807-.277-.532-.754-1.035-1.727-1.396-.988-.367-2.486-.586-4.791-.52l-.021-.707c2.346-.068 3.949.151 5.059.563 1.125.418 1.744 1.035 2.107 1.733.348.667.454 1.408.583 1.977.137.597.3 1.03.695 1.319zm-8.004-5.455c-7.436.215-36.254 1.795-49.74 2.559l-.04-.707c13.48-.763 42.311-2.344 49.759-2.56zM80.214 35.02V21.653h.707v13.368zm.348-13.722c12.115-.18 30.589-.386 46.358-1.678 7.886-.647 15.079-1.563 20.455-2.879 2.69-.658 4.907-1.412 6.525-2.272 1.629-.867 2.581-1.804 2.864-2.794l.68.194c-.364 1.274-1.532 2.332-3.212 3.225-1.692.9-3.974 1.67-6.688 2.335-5.432 1.329-12.67 2.249-20.566 2.896-15.798 1.295-34.298 1.502-46.405 1.681z"/>
  <path stroke="#000" stroke-width=".708" d="M1.158 26.13c-.09 2.2 4.26 7.275 22.38 9.969"/>
  <path stroke="#0A2660" stroke-width=".708" d="M158.699 20.06c-3.163 3.4-20.35 10.836-61.238 10.836"/>
  <path fill="#0033C9" d="M1.293 25.186c.647-1.293 1.907-9.86 2.715-13.094 2.589 9.053 52.202 9.202 76.425 9.561v13.368c-13.483-.764-42.307-2.345-49.75-2.56-9.302-.27-6.201 4.042-8.223 5.523-2.023 1.482-18.606-5.388-20.628-7.14s-1.348-4.041-.54-5.658"/>
  <path fill="#0A2660" d="m4.008 12.092.34-.097a.354.354 0 0 0-.683.011zM1.293 25.186l.316.159zm.539 5.658.232-.267zm20.628 7.14-.21-.285zm8.224-5.523.01-.354zm49.749 2.56-.02.353.373.021v-.374zm0-13.368h.353v-.348l-.348-.006zM3.665 12.006c-.408 1.631-.928 4.599-1.423 7.297a136 136 0 0 1-.712 3.672 27 27 0 0 1-.31 1.318q-.147.545-.244.735l.633.317c.099-.197.197-.503.295-.868.1-.373.207-.833.318-1.354.223-1.04.468-2.339.716-3.693.499-2.717 1.013-5.65 1.414-7.252zM.976 25.028c-.413.826-.811 1.86-.83 2.93-.018 1.091.358 2.205 1.454 3.154l.464-.535c-.927-.802-1.225-1.71-1.21-2.606.016-.916.36-1.836.755-2.626zm.624 6.084c.285.247.797.561 1.447.914.66.357 1.489.767 2.428 1.202a100 100 0 0 0 6.546 2.73c2.332.878 4.672 1.658 6.562 2.126.943.233 1.787.392 2.466.444.34.026.648.026.914-.01.26-.034.511-.105.706-.248l-.419-.571c-.058.043-.174.09-.38.118a4 4 0 0 1-.768.005c-.622-.047-1.422-.196-2.35-.425-1.85-.459-4.162-1.228-6.481-2.101a99 99 0 0 1-6.498-2.71 44 44 0 0 1-2.388-1.182c-.651-.353-1.1-.636-1.321-.827zm21.07 7.158c.616-.452.824-1.114.966-1.733.148-.648.228-1.246.52-1.807.277-.532.754-1.035 1.727-1.396.988-.367 2.486-.586 4.791-.52l.02-.707c-2.345-.068-3.948.151-5.058.563-1.125.418-1.744 1.035-2.107 1.733-.348.667-.453 1.408-.583 1.977-.137.597-.3 1.03-.695 1.319zm8.004-5.455c7.436.215 36.254 1.795 49.74 2.559l.04-.707c-13.48-.763-42.31-2.344-49.76-2.56zm50.113 2.206V21.653h-.707v13.368zm-.348-13.722c-12.117-.18-30.562-.306-46.303-1.52-7.872-.606-15.051-1.482-20.417-2.768-2.684-.644-4.897-1.385-6.51-2.237-1.627-.857-2.576-1.79-2.86-2.78l-.68.195c.364 1.274 1.532 2.327 3.209 3.211 1.69.891 3.967 1.65 6.676 2.299 5.421 1.3 12.645 2.18 20.527 2.787 15.769 1.214 34.241 1.342 46.347 1.521z"/>
  <path stroke="#0A2660" stroke-width=".708" d="M2.414 20.378c3.146 3.458 20.1 10.601 60.762 10.601"/>
  <g filter="url(#a)">
    <ellipse cx="80.567" cy="12.092" fill="#3C6BFF" rx="76.308" ry="9.88"/>
    <path stroke="#0A2660" stroke-width=".809" d="M80.568 22.376c21.083 0 40.179-1.106 54.01-2.897 6.912-.895 12.526-1.963 16.42-3.155 1.944-.595 3.483-1.228 4.544-1.9 1.037-.655 1.738-1.427 1.738-2.332s-.701-1.677-1.738-2.333c-1.061-.672-2.6-1.304-4.544-1.9-3.894-1.191-9.508-2.26-16.42-3.154-13.831-1.791-32.927-2.897-54.01-2.897-21.084 0-40.18 1.106-54.01 2.897-6.913.895-12.527 1.963-16.42 3.155-1.945.595-3.484 1.227-4.545 1.899-1.038.656-1.739 1.428-1.739 2.333s.701 1.676 1.739 2.333c1.061.672 2.6 1.304 4.544 1.9 3.894 1.191 9.508 2.26 16.42 3.154 13.831 1.791 32.927 2.897 54.01 2.897Z"/>
  </g>
  <mask id="b" width="153" height="20" x="4" y="2" maskUnits="userSpaceOnUse" style="mask-type:alpha">
    <ellipse cx="80.567" cy="12.092" fill="#FFEB5F" rx="76.308" ry="9.88"/>
  </mask>
  <g fill="#0033C9" fill-opacity=".46" mask="url(#b)">
    <path d="M101.733 4.488c.002.8-1.126 1.568-3.15 2.146L84.38 10.653a36 36 0 0 0-4.188-.334V5.407h-2.614v4.91a37 37 0 0 0-4.22.335L59.217 6.696c-2.028-.581-3.156-1.353-3.15-2.155 0-1.88 5.229-2.808 11.685-2.808h1.039c.098-.665 1.136-1.294 2.897-1.755 1.762-.46 4.11-.718 6.551-.717h1.449c2.441 0 4.789.256 6.55.717s2.8 1.09 2.898 1.755h1.039c6.299 0 11.684.927 11.684 2.808m34.514 7.579v.395c-.123.713-1.274 1.384-3.203 1.866s-4.48.738-7.096.71v.283c0 1.76-3.842 3.597-11.652 3.597-3.265.02-6.444-.285-8.944-.858l-18.235-4.662c.62-.208 1.062-.452 1.291-.712h22.046v-.713H88.534c-.23-.26-.67-.504-1.291-.713l18.109-4.653c2.512-.573 5.701-.878 8.975-.858 7.811 0 11.653 1.837 11.653 3.597v.283c2.613-.026 5.159.23 7.086.712s3.081 1.152 3.212 1.864m-114.728.257v-.395c.14-.71 1.296-1.379 3.22-1.86 1.926-.482 4.468-.739 7.079-.715V9.27c0-1.717 3.874-3.597 11.684-3.597 3.262-.014 6.434.29 8.944.858l18.203 4.662c-.623.207-1.056.451-1.26.713H47.376v.798h22.046c.202.266.646.514 1.29.721l-18.14 4.645c-2.51.574-5.7.88-8.975.859-7.81 0-11.684-1.838-11.684-3.598v-.283c-2.614.026-5.16-.23-7.087-.712s-3.08-1.151-3.211-1.864m34.549 7.676c.01-.801 1.135-1.571 3.149-2.155l14.203-4.01a38 38 0 0 0 4.22.336v4.902h2.614v-4.902a38 38 0 0 0 4.19-.335l14.203 3.983c2.006.585 3.13 1.355 3.149 2.155 0 1.872-5.228 2.8-11.684 2.8h-1.04c-.09.666-1.124 1.297-2.886 1.76s-4.114.72-6.561.72h-1.45c-2.446 0-4.798-.258-6.56-.72-1.763-.463-2.797-1.094-2.887-1.76h-1.04c-6.456 0-11.683-.928-11.683-2.8m29.884-7.804c0 .704-3.149 1.28-7.149 1.28s-7.149-.576-7.149-1.28 3.15-1.288 7.15-1.288 7.148.575 7.148 1.288"/>
  </g>
  <ellipse cx="79.196" cy="12.411" fill="#0A2660" fill-opacity=".32" rx="49.13" ry="5.099"/>
  <g filter="url(#c)">
    <rect width="36.402" height="15.358" x="61.153" y="23.84" fill="#3C6BFF" rx="7.679"/>
  </g>
  <rect width="35.492" height="14.448" x="61.608" y="24.295" stroke="#0A2660" stroke-width=".91" rx="7.224"/>
  <rect width="29.559" height="9.059" x="64.574" y="26.989" fill="#3C6BFF" stroke="#0A2660" stroke-width=".91" rx="4.53"/>
  <g filter="url(#d)">
    <circle cx="62.239" cy="31.372" r="1.739" fill="#0BFF7F"/>
  </g>
  <circle cx="62.239" cy="31.372" r="1.957" stroke="#004C1F" stroke-width=".435"/>
  <ellipse cx="61.08" cy="30.85" fill="#fff" rx=".29" ry=".58" transform="rotate(36.967 61.08 30.85)"/>
  <g filter="url(#e)">
    <circle cx="96.152" cy="31.372" r="1.739" fill="#0BFF7F"/>
  </g>
  <circle cx="96.152" cy="31.372" r="1.957" stroke="#004C1F" stroke-width=".435"/>
  <ellipse cx="94.993" cy="30.85" fill="#fff" rx=".29" ry=".58" transform="rotate(36.967 94.993 30.85)"/>
  <defs>
    <filter id="a" width="154.235" height="23.117" x="3.45" y="1.403" color-interpolation-filters="sRGB" filterUnits="userSpaceOnUse">
      <feFlood flood-opacity="0" result="BackgroundImageFix"/>
      <feColorMatrix in="SourceAlpha" result="hardAlpha" values="0 0 0 0 0 0 0 0 0 0 0 0 0 0 0 0 0 0 127 0"/>
      <feOffset dy="1.739"/>
      <feComposite in2="hardAlpha" operator="out"/>
      <feColorMatrix values="0 0 0 0 0.235294 0 0 0 0 0.419608 0 0 0 0 1 0 0 0 1 0"/>
      <feBlend in2="BackgroundImageFix" result="effect1_dropShadow_2504_10377"/>
      <feBlend in="SourceGraphic" in2="effect1_dropShadow_2504_10377" result="shape"/>
    </filter>
    <filter id="c" width="36.402" height="15.358" x="61.153" y="23.84" color-interpolation-filters="sRGB" filterUnits="userSpaceOnUse">
      <feFlood flood-opacity="0" result="BackgroundImageFix"/>
      <feBlend in="SourceGraphic" in2="BackgroundImageFix" result="shape"/>
      <feColorMatrix in="SourceAlpha" result="hardAlpha" values="0 0 0 0 0 0 0 0 0 0 0 0 0 0 0 0 0 0 127 0"/>
      <feOffset dy="-4.348"/>
      <feComposite in2="hardAlpha" k2="-1" k3="1" operator="arithmetic"/>
      <feColorMatrix values="0 0 0 0 0 0 0 0 0 0.2 0 0 0 0 0.788235 0 0 0 0.43 0"/>
      <feBlend in2="shape" result="effect1_innerShadow_2504_10377"/>
    </filter>
    <filter id="d" width="4.348" height="4.348" x="60.065" y="29.198" color-interpolation-filters="sRGB" filterUnits="userSpaceOnUse">
      <feFlood flood-opacity="0" result="BackgroundImageFix"/>
      <feBlend in="SourceGraphic" in2="BackgroundImageFix" result="shape"/>
      <feColorMatrix in="SourceAlpha" result="hardAlpha" values="0 0 0 0 0 0 0 0 0 0 0 0 0 0 0 0 0 0 127 0"/>
      <feOffset dx="-1.304" dy="-.87"/>
      <feComposite in2="hardAlpha" k2="-1" k3="1" operator="arithmetic"/>
      <feColorMatrix values="0 0 0 0 0 0 0 0 0 0.7639 0 0 0 0 0.292828 0 0 0 0.77 0"/>
      <feBlend in2="shape" result="effect1_innerShadow_2504_10377"/>
    </filter>
    <filter id="e" width="4.348" height="4.348" x="93.978" y="29.198" color-interpolation-filters="sRGB" filterUnits="userSpaceOnUse">
      <feFlood flood-opacity="0" result="BackgroundImageFix"/>
      <feBlend in="SourceGraphic" in2="BackgroundImageFix" result="shape"/>
      <feColorMatrix in="SourceAlpha" result="hardAlpha" values="0 0 0 0 0 0 0 0 0 0 0 0 0 0 0 0 0 0 127 0"/>
      <feOffset dx="-1.304" dy="-.87"/>
      <feComposite in2="hardAlpha" k2="-1" k3="1" operator="arithmetic"/>
      <feColorMatrix values="0 0 0 0 0 0 0 0 0 0.7639 0 0 0 0 0.292828 0 0 0 0.77 0"/>
      <feBlend in2="shape" result="effect1_innerShadow_2504_10377"/>
    </filter>
  </defs>
</svg>
