<svg xmlns="http://www.w3.org/2000/svg" xmlns:xlink="http://www.w3.org/1999/xlink" width="137" height="81" fill="none" viewBox="0 0 137 81">
  <defs>
    <path id="a" d="M33.607 2.802H16.5v59a4 4 0 0 0 4 4h102a4 4 0 0 0 4-4v-59h-16.107c-8.87 4.258-22.769 7-38.393 7s-29.523-2.742-38.393-7"/>
    <path id="b" fill="#0A2660" d="M16.5 2.802v-.5H16v.5zm17.107 0 .217-.45-.103-.05h-.114zm92.893 0h.5v-.5h-.5zm-16.107 0v-.5h-.114l-.103.05zm-93.893.5h17.107v-1H16.5zm.5 58.5v-59h-1v59zm3.5 3.5a3.5 3.5 0 0 1-3.5-3.5h-1a4.5 4.5 0 0 0 4.5 4.5zm102 0h-102v1h102zm3.5-3.5a3.5 3.5 0 0 1-3.5 3.5v1a4.5 4.5 0 0 0 4.5-4.5zm0-59v59h1v-59zm-15.607.5H126.5v-1h-16.107zm-.217-.95c-8.78 4.214-22.597 6.95-38.176 6.95v1c15.67 0 29.649-2.748 38.609-7.05zM72 9.301c-15.579 0-29.396-2.736-38.176-6.95l-.433.9c8.96 4.302 22.94 7.05 38.609 7.05z"/>
  </defs>
  <mask id="c" fill="#fff">
    <use xlink:href="#a" fill-rule="evenodd" clip-rule="evenodd"/>
  </mask>
  <path fill="#3C6BFF" fill-rule="evenodd" d="M33.607 2.802H16.5v59a4 4 0 0 0 4 4h102a4 4 0 0 0 4-4v-59h-16.107c-8.87 4.258-22.769 7-38.393 7s-29.523-2.742-38.393-7" clip-rule="evenodd"/>
  <use xlink:href="#b" mask="url(#c)"/>
  <mask id="f" width="111" height="64" x="16" y="2" maskUnits="userSpaceOnUse" style="mask-type:alpha">
    <mask id="d" fill="#fff">
      <use xlink:href="#a" fill-rule="evenodd" clip-rule="evenodd"/>
    </mask>
    <path fill="#9A3E1E" fill-rule="evenodd" d="M33.607 2.802H16.5v59a4 4 0 0 0 4 4h102a4 4 0 0 0 4-4v-59h-16.107c-8.87 4.258-22.769 7-38.393 7s-29.523-2.742-38.393-7" clip-rule="evenodd"/>
    <use xlink:href="#b" mask="url(#d)"/>
  </mask>
  <g mask="url(#f)">
    <mask id="g" fill="#fff">
      <use xlink:href="#a" fill-rule="evenodd" clip-rule="evenodd"/>
    </mask>
    <path fill="#EF4B23" fill-rule="evenodd" d="M33.607 2.802H16.5v59a4 4 0 0 0 4 4h102a4 4 0 0 0 4-4v-59h-16.107c-8.87 4.258-22.769 7-38.393 7s-29.523-2.742-38.393-7" clip-rule="evenodd"/>
    <path fill="#9A3E1E" d="M16.5 2.802v-.5H16v.5zm17.107 0 .217-.45-.103-.05h-.114zm92.893 0h.5v-.5h-.5zm-16.107 0v-.5h-.114l-.103.05zm-93.893.5h17.107v-1H16.5zm.5 58.5v-59h-1v59zm3.5 3.5a3.5 3.5 0 0 1-3.5-3.5h-1a4.5 4.5 0 0 0 4.5 4.5zm102 0h-102v1h102zm3.5-3.5a3.5 3.5 0 0 1-3.5 3.5v1a4.5 4.5 0 0 0 4.5-4.5zm0-59v59h1v-59zm-15.607.5H126.5v-1h-16.107zm-.217-.95c-8.78 4.214-22.597 6.95-38.176 6.95v1c15.67 0 29.649-2.748 38.609-7.05zM72 9.301c-15.579 0-29.396-2.736-38.176-6.95l-.433.9c8.96 4.302 22.94 7.05 38.609 7.05z" mask="url(#g)"/>
    <path fill="#E6391E" d="M17.784 5.062c0-2.78-2.25-5.03-5.03-5.03 0 2.78 2.25 5.03 5.03 5.03m0 0c-2.78 0-5.03 2.25-5.03 5.03 2.77 0 5.02-2.25 5.02-5.03z"/>
    <path fill="#E6391E" d="M22.803 10.092c0-2.78-2.25-5.03-5.03-5.03 0 2.77 2.25 5.02 5.02 5.03zm5.032-5.03c-2.78 0-5.03 2.25-5.03 5.03 2.77 0 5.02-2.25 5.02-5.02zm-5.02-5.03c-2.78 0-5.03 2.25-5.03 5.03 2.78 0 5.03-2.25 5.03-5.03"/>
    <path fill="#E6391E" d="M27.835 5.062c0-2.78-2.25-5.02-5.03-5.02 0 2.78 2.25 5.03 5.03 5.03z"/>
    <path fill="#E6391E" d="M32.862.032c-2.78 0-5.03 2.25-5.03 5.02 2.78 0 5.03-2.25 5.03-5.03z"/>
    <path fill="#E6391E" d="M37.882 5.062c0-2.78-2.25-5.03-5.03-5.03 0 2.78 2.25 5.03 5.03 5.03m0 0c-2.78 0-5.03 2.25-5.03 5.03 2.77 0 5.02-2.25 5.02-5.03z"/>
    <path fill="#E6391E" d="M32.862 10.092c0-2.78-2.25-5.03-5.03-5.03 0 2.77 2.25 5.02 5.02 5.02zm10.051 0c0-2.78-2.25-5.03-5.03-5.03 0 2.77 2.25 5.02 5.02 5.03zm0-10.06c-2.78 0-5.03 2.25-5.03 5.03 2.78 0 5.03-2.25 5.03-5.03m5.031 5.03c0-2.78-2.25-5.02-5.03-5.02 0 2.78 2.25 5.03 5.03 5.03z"/>
    <path fill="#E6391E" d="M47.944 5.062c-2.78 0-5.03 2.25-5.03 5.03 2.77 0 5.02-2.25 5.02-5.02z"/>
    <path fill="#E6391E" d="M52.964 10.092c0-2.78-2.25-5.03-5.03-5.03 0 2.77 2.25 5.02 5.02 5.02zm0-10.06c-2.78 0-5.03 2.25-5.03 5.02 2.78 0 5.03-2.25 5.03-5.03zm5.031 5.03c-2.78 0-5.03 2.25-5.03 5.03 2.77 0 5.02-2.25 5.02-5.03zm0 0c0-2.78-2.25-5.03-5.03-5.03 0 2.78 2.25 5.03 5.03 5.03m10.047 0c0-2.78-2.25-5.03-5.03-5.03 0 2.78 2.25 5.03 5.03 5.03m0 0c-2.78 0-5.03 2.25-5.03 5.03 2.77 0 5.02-2.25 5.02-5.03z"/>
    <path fill="#E6391E" d="M63.014 10.092c0-2.78-2.25-5.03-5.03-5.03 0 2.78 2.25 5.02 5.02 5.03zm0-10.06c-2.78 0-5.03 2.25-5.03 5.03 2.78 0 5.03-2.25 5.03-5.03m10.051 10.06c0-2.78-2.25-5.03-5.03-5.03 0 2.77 2.25 5.02 5.02 5.03zm5.028-5.03c0-2.78-2.25-5.02-5.03-5.02 0 2.78 2.25 5.03 5.03 5.03z"/>
    <path fill="#E6391E" d="M73.073.032c-2.78 0-5.03 2.25-5.03 5.03 2.78 0 5.03-2.25 5.03-5.03m5.02 5.03c-2.78 0-5.03 2.25-5.03 5.03 2.77 0 5.02-2.25 5.02-5.02zm10.05 0c0-2.78-2.25-5.03-5.03-5.03 0 2.78 2.25 5.03 5.03 5.03m-5.019 5.03c0-2.78-2.25-5.03-5.03-5.03 0 2.77 2.25 5.02 5.02 5.02z"/>
    <path fill="#E6391E" d="M88.143 5.062c-2.78 0-5.03 2.25-5.03 5.03 2.77 0 5.02-2.25 5.02-5.03zM83.124.032c-2.78 0-5.03 2.25-5.03 5.02 2.78 0 5.03-2.25 5.03-5.03zm15.078 5.03c-2.78 0-5.03 2.25-5.03 5.03 2.77 0 5.02-2.25 5.02-5.03z"/>
    <path fill="#E6391E" d="M93.174 10.092c0-2.78-2.25-5.03-5.03-5.03 0 2.78 2.25 5.02 5.02 5.03zm5.028-5.03c0-2.78-2.25-5.03-5.03-5.03 0 2.78 2.25 5.03 5.03 5.03"/>
    <path fill="#E6391E" d="M93.174.032c-2.78 0-5.03 2.25-5.03 5.03 2.78 0 5.03-2.25 5.03-5.03m15.079 5.03c0-2.78-2.25-5.02-5.03-5.02 0 2.78 2.25 5.03 5.03 5.03z"/>
    <path fill="#E6391E" d="M103.225.032c-2.78 0-5.03 2.25-5.03 5.03 2.78 0 5.03-2.25 5.03-5.03m0 10.06c0-2.78-2.25-5.03-5.03-5.03 0 2.77 2.25 5.02 5.02 5.03z"/>
    <path fill="#E6391E" d="M108.253 5.062c-2.78 0-5.03 2.25-5.03 5.03 2.77 0 5.02-2.25 5.02-5.02zm5.031-5.03c-2.78 0-5.03 2.25-5.03 5.02 2.78 0 5.03-2.25 5.03-5.03z"/>
    <path fill="#E6391E" d="M118.303 5.062c0-2.78-2.25-5.03-5.03-5.03 0 2.78 2.25 5.03 5.03 5.03m0 0c-2.78 0-5.03 2.25-5.03 5.03 2.77 0 5.02-2.25 5.02-5.03zm-5.031 5.03c0-2.78-2.25-5.03-5.03-5.03 0 2.77 2.25 5.02 5.02 5.02zm10.063 0c0-2.78-2.25-5.03-5.03-5.03 0 2.77 2.25 5.02 5.02 5.03zm5.019-5.03c0-2.78-2.25-5.03-5.03-5.03 0 2.78 2.25 5.03 5.03 5.03"/>
    <path fill="#E6391E" d="M123.335.032c-2.78 0-5.03 2.25-5.03 5.03 2.78 0 5.03-2.25 5.03-5.03m5.019 5.03c-2.78 0-5.03 2.25-5.03 5.03 2.77 0 5.02-2.25 5.02-5.03zM17.782 15.112c0-2.77-2.25-5.02-5.02-5.03 0 2.78 2.25 5.03 5.03 5.03z"/>
    <path fill="#E6391E" d="M17.784 15.112c-2.78 0-5.03 2.25-5.03 5.03 2.78 0 5.03-2.25 5.03-5.03m10.048 0c0-2.77-2.25-5.02-5.02-5.02 0 2.78 2.25 5.03 5.03 5.03z"/>
    <path fill="#E6391E" d="M27.835 15.112c-2.78 0-5.03 2.25-5.03 5.03 2.78 0 5.03-2.25 5.03-5.02z"/>
    <path fill="#E6391E" d="M22.815 20.142c0-2.78-2.25-5.03-5.03-5.03 0 2.78 2.25 5.02 5.03 5.03"/>
    <path fill="#E6391E" d="M17.785 15.112c2.78 0 5.03-2.25 5.03-5.03-2.77 0-5.02 2.25-5.02 5.03zm20.098 0c0-2.77-2.25-5.02-5.02-5.03 0 2.78 2.25 5.03 5.03 5.03zm-5.021 5.03c0-2.78-2.25-5.03-5.03-5.03 0 2.78 2.25 5.02 5.03 5.02z"/>
    <path fill="#E6391E" d="M27.832 15.112c2.78 0 5.03-2.25 5.03-5.03-2.77 0-5.02 2.25-5.02 5.02zm10.05 0c-2.78 0-5.03 2.25-5.03 5.03 2.78 0 5.03-2.25 5.03-5.03m.001 0c2.78 0 5.03-2.25 5.03-5.03-2.77 0-5.02 2.25-5.02 5.03zm5.03 5.03c0-2.78-2.25-5.03-5.03-5.03 0 2.78 2.25 5.03 5.03 5.03m5.029-5.03c0-2.77-2.25-5.02-5.02-5.02 0 2.78 2.25 5.03 5.03 5.03z"/>
    <path fill="#E6391E" d="M47.944 15.112c-2.78 0-5.03 2.25-5.03 5.03 2.78 0 5.02-2.25 5.03-5.02z"/>
    <path fill="#E6391E" d="M52.964 20.142c0-2.78-2.25-5.03-5.03-5.03 0 2.77 2.25 5.02 5.03 5.02z"/>
    <path fill="#E6391E" d="M47.945 15.112c2.78 0 5.03-2.25 5.03-5.03-2.77 0-5.02 2.25-5.02 5.02z"/>
    <path fill="#E6391E" d="M57.993 15.112c0-2.78-2.25-5.02-5.02-5.03 0 2.78 2.25 5.03 5.03 5.03z"/>
    <path fill="#E6391E" d="M57.995 15.112c-2.78 0-5.03 2.25-5.03 5.03 2.78 0 5.03-2.25 5.03-5.03m10.047 0c-2.78 0-5.03 2.25-5.03 5.03 2.78 0 5.03-2.25 5.03-5.03"/>
    <path fill="#E6391E" d="M63.014 20.142c0-2.78-2.25-5.03-5.03-5.03 0 2.78 2.25 5.03 5.03 5.03"/>
    <path fill="#E6391E" d="M57.992 15.112c2.78 0 5.03-2.25 5.03-5.03-2.77 0-5.02 2.25-5.02 5.03zm10.051 0c0-2.77-2.25-5.02-5.02-5.03 0 2.78 2.25 5.03 5.03 5.03z"/>
    <path fill="#E6391E" d="M73.073 20.142c0-2.78-2.25-5.03-5.03-5.03 0 2.78 2.25 5.02 5.03 5.03"/>
    <path fill="#E6391E" d="M78.093 15.112c-2.78 0-5.03 2.25-5.03 5.03 2.78 0 5.02-2.25 5.03-5.02z"/>
    <path fill="#E6391E" d="M78.094 15.112c0-2.77-2.25-5.02-5.02-5.02 0 2.78 2.25 5.03 5.03 5.03zm-10.051 0c2.78 0 5.03-2.25 5.03-5.03-2.77 0-5.02 2.25-5.02 5.03zm20.1 0c-2.78 0-5.03 2.25-5.03 5.03 2.78 0 5.03-2.25 5.03-5.03"/>
    <path fill="#E6391E" d="M88.145 15.112c0-2.78-2.25-5.02-5.02-5.03 0 2.78 2.25 5.03 5.03 5.03zm-5.021 5.03c0-2.78-2.25-5.03-5.03-5.03 0 2.77 2.25 5.02 5.03 5.02z"/>
    <path fill="#E6391E" d="M78.094 15.112c2.78 0 5.03-2.25 5.03-5.03-2.77 0-5.02 2.25-5.02 5.02zm10.05 0c2.78 0 5.03-2.25 5.03-5.03-2.77 0-5.02 2.25-5.02 5.03z"/>
    <path fill="#E6391E" d="M93.174 20.142c0-2.78-2.25-5.03-5.03-5.03 0 2.78 2.25 5.03 5.03 5.03"/>
    <path fill="#E6391E" d="M98.202 15.112c-2.78 0-5.03 2.25-5.03 5.03 2.78 0 5.03-2.25 5.03-5.03"/>
    <path fill="#E6391E" d="M98.204 15.112c0-2.77-2.25-5.02-5.02-5.03 0 2.78 2.25 5.03 5.03 5.03zm10.049 0c-2.78 0-5.03 2.25-5.03 5.03 2.78 0 5.02-2.25 5.03-5.02z"/>
    <path fill="#E6391E" d="M103.225 20.142c0-2.78-2.25-5.03-5.03-5.03 0 2.78 2.25 5.03 5.03 5.03"/>
    <path fill="#E6391E" d="M98.203 15.112c2.78 0 5.03-2.25 5.03-5.03-2.77 0-5.02 2.25-5.02 5.03zm10.051 0c0-2.77-2.25-5.02-5.02-5.02 0 2.78 2.25 5.03 5.03 5.03z"/>
    <path fill="#E6391E" d="M113.272 20.142c0-2.78-2.25-5.03-5.03-5.03 0 2.78 2.25 5.02 5.03 5.02zm5.033-5.03c0-2.77-2.25-5.02-5.02-5.03 0 2.78 2.25 5.03 5.03 5.03zm-.002 0c-2.78 0-5.03 2.25-5.03 5.03 2.78 0 5.03-2.25 5.03-5.03m-10.049 0c2.78 0 5.03-2.25 5.03-5.03-2.77 0-5.02 2.25-5.02 5.02zm20.098 0c0-2.77-2.25-5.02-5.02-5.03 0 2.78 2.25 5.03 5.03 5.03z"/>
    <path fill="#E6391E" d="M118.305 15.112c2.78 0 5.03-2.25 5.03-5.03-2.77 0-5.02 2.25-5.02 5.03z"/>
    <path fill="#E6391E" d="M123.335 20.142c0-2.78-2.25-5.03-5.03-5.03 0 2.78 2.25 5.02 5.03 5.03"/>
    <path fill="#E6391E" d="M128.354 15.112c-2.78 0-5.03 2.25-5.03 5.03 2.78 0 5.03-2.25 5.03-5.03m-110.57 10.06c-2.78 0-5.03 2.25-5.03 5.03 2.78 0 5.02-2.25 5.03-5.03m0-.01c0-2.78-2.25-5.02-5.03-5.03 0 2.78 2.25 5.03 5.03 5.03m.001 0c2.78 0 5.03-2.25 5.03-5.03-2.78 0-5.03 2.25-5.03 5.03"/>
    <path fill="#E6391E" d="M22.803 30.192c0-2.78-2.25-5.03-5.03-5.03 0 2.78 2.25 5.02 5.03 5.03m5.032-5.03c0-2.78-2.25-5.02-5.03-5.02 0 2.78 2.25 5.03 5.03 5.03zm0 .01c-2.78 0-5.03 2.25-5.03 5.03 2.78 0 5.02-2.25 5.03-5.02z"/>
    <path fill="#E6391E" d="M27.832 25.162c2.78 0 5.03-2.25 5.03-5.03-2.78 0-5.03 2.25-5.03 5.02z"/>
    <path fill="#E6391E" d="M37.882 25.162c0-2.78-2.25-5.03-5.03-5.03 0 2.78 2.25 5.03 5.03 5.03m0 .01c-2.78 0-5.03 2.25-5.03 5.03 2.78 0 5.03-2.25 5.03-5.03"/>
    <path fill="#E6391E" d="M32.862 30.192c0-2.78-2.25-5.03-5.03-5.03 0 2.78 2.25 5.02 5.03 5.02zm10.051 0c0-2.78-2.25-5.03-5.03-5.03 0 2.78 2.25 5.03 5.03 5.03m5.031-5.03c0-2.77-2.25-5.02-5.03-5.02 0 2.78 2.25 5.03 5.03 5.03zm-10.061 0c2.78 0 5.03-2.25 5.03-5.03-2.78 0-5.03 2.25-5.03 5.03m10.061.01c-2.78 0-5.03 2.25-5.03 5.03 2.77 0 5.02-2.25 5.03-5.02z"/>
    <path fill="#E6391E" d="M52.964 30.192c0-2.78-2.25-5.03-5.03-5.03 0 2.77 2.25 5.02 5.03 5.02zm5.031-5.03c0-2.78-2.25-5.03-5.03-5.03 0 2.78 2.25 5.03 5.03 5.03"/>
    <path fill="#E6391E" d="M47.945 25.162c2.78 0 5.03-2.25 5.03-5.03-2.78 0-5.02 2.25-5.03 5.02zm10.05.01c-2.78 0-5.03 2.25-5.03 5.03 2.78 0 5.03-2.25 5.03-5.03"/>
    <path fill="#E6391E" d="M63.014 30.192c0-2.78-2.25-5.03-5.03-5.03 0 2.78 2.25 5.03 5.03 5.03m5.028-5.03c0-2.78-2.25-5.02-5.03-5.03 0 2.78 2.25 5.03 5.03 5.03"/>
    <path fill="#E6391E" d="M57.992 25.162c2.78 0 5.03-2.25 5.03-5.03-2.78 0-5.03 2.25-5.03 5.03m10.05.01c-2.78 0-5.03 2.25-5.03 5.03 2.78 0 5.02-2.25 5.03-5.03m10.051 0c-2.78 0-5.03 2.25-5.03 5.03 2.77 0 5.02-2.25 5.03-5.02zm0-.01c0-2.77-2.25-5.02-5.03-5.02 0 2.78 2.25 5.03 5.03 5.03z"/>
    <path fill="#E6391E" d="M68.043 25.162c2.78 0 5.03-2.25 5.03-5.03-2.78 0-5.03 2.25-5.03 5.03m5.03 5.03c0-2.78-2.25-5.03-5.03-5.03 0 2.78 2.25 5.02 5.03 5.03m10.051 0c0-2.78-2.25-5.03-5.03-5.03 0 2.77 2.25 5.02 5.03 5.02zm-5.03-5.03c2.78 0 5.03-2.25 5.03-5.03-2.78 0-5.02 2.25-5.03 5.02z"/>
    <path fill="#E6391E" d="M88.143 25.172c-2.78 0-5.03 2.25-5.03 5.03 2.78 0 5.03-2.25 5.03-5.03m0-.01c0-2.78-2.25-5.03-5.03-5.03 0 2.78 2.25 5.03 5.03 5.03m10.059.01c-2.78 0-5.03 2.25-5.03 5.03 2.78 0 5.03-2.25 5.03-5.03"/>
    <path fill="#E6391E" d="M93.174 30.192c0-2.78-2.25-5.03-5.03-5.03 0 2.78 2.25 5.03 5.03 5.03m5.028-5.03c0-2.78-2.25-5.03-5.03-5.03 0 2.78 2.25 5.03 5.03 5.03"/>
    <path fill="#E6391E" d="M88.144 25.162c2.78 0 5.03-2.25 5.03-5.03-2.78 0-5.03 2.25-5.03 5.03m20.109 0c0-2.78-2.25-5.02-5.03-5.02 0 2.78 2.25 5.03 5.03 5.03zm0 .01c-2.78 0-5.03 2.25-5.03 5.03 2.78 0 5.02-2.25 5.03-5.02z"/>
    <path fill="#E6391E" d="M98.203 25.162c2.78 0 5.03-2.25 5.03-5.03-2.78 0-5.03 2.25-5.03 5.03m5.022 5.03c0-2.78-2.25-5.03-5.03-5.03 0 2.78 2.25 5.03 5.03 5.03m10.047 0c0-2.78-2.25-5.03-5.03-5.03 0 2.77 2.25 5.02 5.03 5.02zm-5.018-5.03c2.78 0 5.03-2.25 5.03-5.03-2.78 0-5.02 2.25-5.03 5.02zm10.049.01c-2.78 0-5.03 2.25-5.03 5.03 2.78 0 5.02-2.25 5.03-5.03"/>
    <path fill="#E6391E" d="M118.303 25.162c0-2.78-2.25-5.02-5.03-5.03 0 2.78 2.25 5.03 5.03 5.03m5.032 5.03c0-2.78-2.25-5.03-5.03-5.03 0 2.78 2.25 5.02 5.03 5.03"/>
    <path fill="#E6391E" d="M128.354 25.172c-2.78 0-5.03 2.25-5.03 5.03 2.78 0 5.02-2.25 5.03-5.03m0-.01c0-2.78-2.25-5.02-5.03-5.03 0 2.78 2.25 5.03 5.03 5.03"/>
    <path fill="#E6391E" d="M118.305 25.162c2.78 0 5.03-2.25 5.03-5.03-2.78 0-5.03 2.25-5.03 5.03M17.784 35.222c-2.78 0-5.03 2.25-5.03 5.03 2.77 0 5.02-2.25 5.02-5.03zm0 0c0-2.78-2.25-5.02-5.03-5.03 0 2.78 2.25 5.03 5.03 5.03m.001 0c2.78 0 5.03-2.25 5.03-5.03-2.78 0-5.02 2.25-5.03 5.03"/>
    <path fill="#E6391E" d="M27.835 35.222c0-2.78-2.25-5.02-5.03-5.02 0 2.78 2.25 5.03 5.03 5.03z"/>
    <path fill="#E6391E" d="M27.835 35.222c-2.78 0-5.03 2.25-5.03 5.03 2.77 0 5.02-2.25 5.02-5.02zm-5.032 5.02c0-2.78-2.25-5.03-5.03-5.03 0 2.77 2.25 5.02 5.02 5.03zm15.079-5.02c0-2.78-2.25-5.03-5.03-5.03 0 2.78 2.25 5.03 5.03 5.03"/>
    <path fill="#E6391E" d="M32.862 40.242c0-2.78-2.25-5.03-5.03-5.03 0 2.77 2.25 5.02 5.02 5.02z"/>
    <path fill="#E6391E" d="M37.882 35.222c-2.78 0-5.03 2.25-5.03 5.03 2.77 0 5.02-2.25 5.02-5.03zm-10.05 0c2.78 0 5.03-2.25 5.03-5.03-2.78 0-5.02 2.25-5.03 5.02zm20.112 0c-2.78 0-5.03 2.25-5.03 5.03 2.77 0 5.02-2.25 5.02-5.02zm-5.031 5.02c0-2.78-2.25-5.03-5.03-5.03 0 2.78 2.25 5.02 5.02 5.03z"/>
    <path fill="#E6391E" d="M37.883 35.222c2.78 0 5.03-2.25 5.03-5.03-2.78 0-5.03 2.25-5.03 5.03m10.061 0c0-2.77-2.25-5.02-5.03-5.02 0 2.78 2.25 5.03 5.03 5.03zm10.051 0c-2.78 0-5.03 2.25-5.03 5.03 2.78 0 5.02-2.25 5.02-5.03z"/>
    <path fill="#E6391E" d="M52.964 40.242c0-2.78-2.25-5.03-5.03-5.03 0 2.77 2.25 5.02 5.02 5.02zm5.031-5.02c0-2.78-2.25-5.03-5.03-5.03 0 2.78 2.25 5.03 5.03 5.03"/>
    <path fill="#E6391E" d="M47.945 35.222c2.78 0 5.03-2.25 5.03-5.03-2.77 0-5.02 2.25-5.03 5.02zm20.097 0c0-2.78-2.25-5.02-5.03-5.03 0 2.78 2.25 5.03 5.03 5.03"/>
    <path fill="#E6391E" d="M57.992 35.222c2.78 0 5.03-2.25 5.03-5.03-2.78 0-5.03 2.25-5.03 5.03m10.05 0c-2.78 0-5.03 2.25-5.03 5.03 2.77 0 5.02-2.25 5.02-5.03z"/>
    <path fill="#E6391E" d="M63.014 40.242c0-2.78-2.25-5.03-5.03-5.03 0 2.78 2.25 5.02 5.02 5.03zm10.059 0c0-2.78-2.25-5.03-5.03-5.03 0 2.77 2.25 5.02 5.02 5.03z"/>
    <path fill="#E6391E" d="M78.093 35.222c-2.78 0-5.03 2.25-5.03 5.03 2.77 0 5.02-2.25 5.02-5.02z"/>
    <path fill="#E6391E" d="M78.093 35.222c0-2.77-2.25-5.02-5.03-5.02 0 2.78 2.25 5.03 5.03 5.03z"/>
    <path fill="#E6391E" d="M68.043 35.222c2.78 0 5.03-2.25 5.03-5.03-2.78 0-5.02 2.25-5.03 5.03m20.1 0c0-2.78-2.25-5.03-5.03-5.03 0 2.78 2.25 5.03 5.03 5.03"/>
    <path fill="#E6391E" d="M78.094 35.222c2.78 0 5.03-2.25 5.03-5.03-2.77 0-5.02 2.25-5.03 5.02z"/>
    <path fill="#E6391E" d="M83.124 40.242c0-2.78-2.25-5.03-5.03-5.03 0 2.77 2.25 5.02 5.02 5.02z"/>
    <path fill="#E6391E" d="M88.143 35.222c-2.78 0-5.03 2.25-5.03 5.03 2.78 0 5.02-2.25 5.02-5.03zm10.059 0c-2.78 0-5.03 2.25-5.03 5.03 2.77 0 5.02-2.25 5.02-5.03z"/>
    <path fill="#E6391E" d="M93.174 40.242c0-2.78-2.25-5.03-5.03-5.03 0 2.78 2.25 5.02 5.02 5.03z"/>
    <path fill="#E6391E" d="M88.144 35.222c2.78 0 5.03-2.25 5.03-5.03-2.78 0-5.03 2.25-5.03 5.03"/>
    <path fill="#E6391E" d="M98.202 35.222c0-2.78-2.25-5.03-5.03-5.03 0 2.78 2.25 5.03 5.03 5.03m10.051 0c-2.78 0-5.03 2.25-5.03 5.03 2.77 0 5.02-2.25 5.02-5.02z"/>
    <path fill="#E6391E" d="M103.225 40.242c0-2.78-2.25-5.03-5.03-5.03 0 2.78 2.25 5.02 5.02 5.03zm5.028-5.02c0-2.77-2.25-5.02-5.03-5.02 0 2.78 2.25 5.03 5.03 5.03z"/>
    <path fill="#E6391E" d="M98.203 35.222c2.78 0 5.03-2.25 5.03-5.03-2.78 0-5.03 2.25-5.03 5.03m10.051 0c2.78 0 5.03-2.25 5.03-5.03-2.78 0-5.02 2.25-5.03 5.02zm10.049 0c-2.78 0-5.03 2.25-5.03 5.03 2.77 0 5.02-2.25 5.02-5.03z"/>
    <path fill="#E6391E" d="M113.272 40.242c0-2.78-2.25-5.03-5.03-5.03 0 2.77 2.25 5.02 5.02 5.02zm5.031-5.02c0-2.78-2.25-5.02-5.03-5.03 0 2.78 2.25 5.03 5.03 5.03m.002 0c2.78 0 5.03-2.25 5.03-5.03-2.78 0-5.02 2.25-5.03 5.03"/>
    <path fill="#E6391E" d="M128.354 35.222c0-2.78-2.25-5.02-5.03-5.03 0 2.78 2.25 5.03 5.03 5.03m0 0c-2.78 0-5.03 2.25-5.03 5.03 2.77 0 5.02-2.25 5.02-5.03z"/>
    <path fill="#E6391E" d="M123.335 40.242c0-2.78-2.25-5.03-5.03-5.03 0 2.77 2.25 5.02 5.02 5.03zm-110.581 0c0 2.78 2.25 5.03 5.03 5.03 0-2.77-2.25-5.02-5.02-5.03zm5.03 5.03c-2.78 0-5.03 2.25-5.03 5.03 2.78 0 5.02-2.25 5.03-5.03m10.051 0c-2.78 0-5.03 2.25-5.03 5.03 2.78 0 5.02-2.25 5.03-5.02z"/>
    <path fill="#E6391E" d="M27.832 45.272c0-2.77-2.25-5.02-5.02-5.02 0 2.78 2.25 5.03 5.03 5.03z"/>
    <path fill="#E6391E" d="M22.813 40.242c-2.77 0-5.02 2.25-5.02 5.03 2.78 0 5.03-2.25 5.03-5.03zm-.01 10.06c0-2.78-2.25-5.03-5.03-5.03 0 2.78 2.25 5.02 5.03 5.03m10.059 0c0-2.78-2.25-5.03-5.03-5.03 0 2.78 2.25 5.02 5.03 5.02zm-5.03-5.03c2.78 0 5.03-2.25 5.03-5.03-2.77 0-5.02 2.25-5.02 5.02zm10.051 0c0-2.78-2.25-5.02-5.02-5.03 0 2.78 2.25 5.03 5.03 5.03z"/>
    <path fill="#E6391E" d="M37.882 45.272c-2.78 0-5.03 2.25-5.03 5.03 2.78 0 5.02-2.25 5.03-5.03m10.062 0c-2.78 0-5.03 2.25-5.03 5.03 2.77 0 5.02-2.25 5.03-5.02zm-10.061 0c2.78 0 5.03-2.25 5.03-5.03-2.77 0-5.02 2.25-5.02 5.03z"/>
    <path fill="#E6391E" d="M47.942 45.272c0-2.77-2.25-5.02-5.02-5.02 0 2.78 2.25 5.03 5.03 5.03zm-5.029 5.03c0-2.78-2.25-5.03-5.03-5.03 0 2.78 2.25 5.02 5.03 5.03"/>
    <path fill="#E6391E" d="M47.945 45.272c2.78 0 5.03-2.25 5.03-5.03-2.77 0-5.02 2.25-5.02 5.02zm5.019 5.03c0-2.78-2.25-5.03-5.03-5.03 0 2.77 2.25 5.02 5.03 5.02zm5.031-5.03c-2.78 0-5.03 2.25-5.03 5.03 2.78 0 5.02-2.25 5.03-5.03"/>
    <path fill="#E6391E" d="M57.993 45.272c0-2.78-2.25-5.02-5.02-5.03 0 2.78 2.25 5.03 5.03 5.03zm10.05 0c0-2.77-2.25-5.02-5.02-5.03 0 2.78 2.25 5.03 5.03 5.03z"/>
    <path fill="#E6391E" d="M57.992 45.272c2.78 0 5.03-2.25 5.03-5.03-2.78 0-5.02 2.25-5.02 5.03zm10.05 0c-2.78 0-5.03 2.25-5.03 5.03 2.78 0 5.02-2.25 5.03-5.03"/>
    <path fill="#E6391E" d="M63.014 50.302c0-2.78-2.25-5.03-5.03-5.03 0 2.78 2.25 5.03 5.03 5.03m15.08-5.03c0-2.77-2.25-5.02-5.02-5.02 0 2.78 2.25 5.03 5.03 5.03zm-10.051 0c2.78 0 5.03-2.25 5.03-5.03-2.77 0-5.02 2.25-5.02 5.03z"/>
    <path fill="#E6391E" d="M78.093 45.272c-2.78 0-5.03 2.25-5.03 5.03 2.77 0 5.02-2.25 5.03-5.02z"/>
    <path fill="#E6391E" d="M73.073 50.302c0-2.78-2.25-5.03-5.03-5.03 0 2.78 2.25 5.02 5.03 5.03m10.051 0c0-2.78-2.25-5.03-5.03-5.03 0 2.77 2.25 5.02 5.03 5.02zm5.021-5.03c0-2.78-2.25-5.02-5.02-5.03 0 2.78 2.25 5.03 5.03 5.03z"/>
    <path fill="#E6391E" d="M88.143 45.272c-2.78 0-5.03 2.25-5.03 5.03 2.78 0 5.02-2.25 5.03-5.03m-10.049 0c2.78 0 5.03-2.25 5.03-5.03-2.77 0-5.02 2.25-5.02 5.02zm15.08 5.03c0-2.78-2.25-5.03-5.03-5.03 0 2.78 2.25 5.03 5.03 5.03m5.03-5.03c0-2.78-2.25-5.02-5.02-5.03 0 2.78 2.25 5.03 5.03 5.03z"/>
    <path fill="#E6391E" d="M98.202 45.272c-2.78 0-5.03 2.25-5.03 5.03 2.78 0 5.02-2.25 5.03-5.03m-10.058 0c2.78 0 5.03-2.25 5.03-5.03-2.78 0-5.02 2.25-5.02 5.03zm20.11 0c0-2.77-2.25-5.02-5.02-5.02 0 2.78 2.25 5.03 5.03 5.03zm-10.051 0c2.78 0 5.03-2.25 5.03-5.03-2.77 0-5.02 2.25-5.02 5.03z"/>
    <path fill="#E6391E" d="M108.253 45.272c-2.78 0-5.03 2.25-5.03 5.03 2.77 0 5.02-2.25 5.03-5.02z"/>
    <path fill="#E6391E" d="M103.225 50.302c0-2.78-2.25-5.03-5.03-5.03 0 2.78 2.25 5.02 5.03 5.03m15.078-5.03c-2.78 0-5.03 2.25-5.03 5.03 2.78 0 5.02-2.25 5.03-5.03m.002 0c0-2.77-2.25-5.02-5.02-5.03 0 2.78 2.25 5.03 5.03 5.03zm-5.033 5.03c0-2.78-2.25-5.03-5.03-5.03 0 2.77 2.25 5.02 5.03 5.02zm-5.018-5.03c2.78 0 5.03-2.25 5.03-5.03-2.77 0-5.02 2.25-5.02 5.02zm20.098 0c0-2.77-2.25-5.02-5.02-5.03 0 2.78 2.25 5.03 5.03 5.03zm-5.017 5.03c0-2.78-2.25-5.03-5.03-5.03 0 2.78 2.25 5.02 5.03 5.03"/>
    <path fill="#E6391E" d="M128.354 45.272c-2.78 0-5.03 2.25-5.03 5.03 2.78 0 5.02-2.25 5.03-5.03m-10.049 0c2.78 0 5.03-2.25 5.03-5.03-2.77 0-5.02 2.25-5.02 5.03zM17.784 55.322c-2.78 0-5.03 2.25-5.03 5.03 2.78 0 5.02-2.25 5.02-5.03z"/>
    <path fill="#E6391E" d="M12.754 50.302c0 2.78 2.25 5.03 5.03 5.03 0-2.78-2.25-5.02-5.03-5.03m10.059 0c0 2.78 2.25 5.03 5.03 5.03 0-2.78-2.25-5.02-5.03-5.02z"/>
    <path fill="#E6391E" d="M27.835 55.322c-2.78 0-5.03 2.25-5.03 5.03 2.77 0 5.02-2.25 5.02-5.02zm-5.02-5.02c-2.78 0-5.02 2.25-5.03 5.03 2.78 0 5.03-2.25 5.03-5.03"/>
    <path fill="#E6391E" d="M22.803 60.352c0-2.78-2.25-5.03-5.03-5.03 0 2.78 2.25 5.02 5.02 5.03zm10.059-10.05c-2.78 0-5.02 2.25-5.03 5.02 2.78 0 5.03-2.25 5.03-5.03zm5.02 5.02c-2.78 0-5.03 2.25-5.03 5.03 2.78 0 5.02-2.25 5.02-5.03z"/>
    <path fill="#E6391E" d="M37.882 55.322c0-2.78-2.25-5.02-5.03-5.03 0 2.78 2.25 5.03 5.03 5.03m-5.02 5.03c0-2.78-2.25-5.03-5.03-5.03 0 2.77 2.25 5.02 5.02 5.02zm5.021-5.03c2.78 0 5.03-2.25 5.03-5.03-2.78 0-5.02 2.25-5.03 5.03m10.061 0c-2.78 0-5.03 2.25-5.03 5.03 2.77 0 5.02-2.25 5.02-5.02z"/>
    <path fill="#E6391E" d="M42.913 60.352c0-2.78-2.25-5.03-5.03-5.03 0 2.78 2.25 5.02 5.02 5.03zm5.031-5.03c0-2.77-2.25-5.02-5.03-5.02 0 2.78 2.25 5.03 5.03 5.03zm.001 0c2.78 0 5.03-2.25 5.03-5.03-2.77 0-5.02 2.25-5.03 5.02zm10.05 0c-2.78 0-5.03 2.25-5.03 5.03 2.78 0 5.02-2.25 5.02-5.03z"/>
    <path fill="#E6391E" d="M57.995 55.322c0-2.78-2.25-5.03-5.03-5.03 0 2.78 2.25 5.03 5.03 5.03m-5.031 5.03c0-2.78-2.25-5.03-5.03-5.03 0 2.77 2.25 5.02 5.02 5.02z"/>
    <path fill="#E6391E" d="M57.992 55.322c2.78 0 5.03-2.25 5.03-5.03-2.78 0-5.02 2.25-5.03 5.03"/>
    <path fill="#E6391E" d="M68.042 55.322c0-2.78-2.25-5.02-5.03-5.03 0 2.78 2.25 5.03 5.03 5.03m-5.028 5.03c0-2.78-2.25-5.03-5.03-5.03 0 2.78 2.25 5.03 5.02 5.03z"/>
    <path fill="#E6391E" d="M68.042 55.322c-2.78 0-5.03 2.25-5.03 5.03 2.78 0 5.02-2.25 5.02-5.03zm.001 0c2.78 0 5.03-2.25 5.03-5.03-2.78 0-5.02 2.25-5.03 5.03"/>
    <path fill="#E6391E" d="M78.093 55.322c0-2.77-2.25-5.02-5.03-5.02 0 2.78 2.25 5.03 5.03 5.03zm-5.02 5.03c0-2.78-2.25-5.03-5.03-5.03 0 2.78 2.25 5.02 5.02 5.03z"/>
    <path fill="#E6391E" d="M78.093 55.322c-2.78 0-5.03 2.25-5.03 5.03 2.77 0 5.02-2.25 5.02-5.02zm.001 0c2.78 0 5.03-2.25 5.03-5.03-2.77 0-5.02 2.25-5.03 5.02z"/>
    <path fill="#E6391E" d="M88.143 55.322c0-2.78-2.25-5.03-5.03-5.03 0 2.78 2.25 5.03 5.03 5.03m-5.019 5.03c0-2.78-2.25-5.03-5.03-5.03 0 2.77 2.25 5.02 5.02 5.02z"/>
    <path fill="#E6391E" d="M88.143 55.322c-2.78 0-5.03 2.25-5.03 5.03 2.78 0 5.02-2.25 5.02-5.03zm10.059 0c0-2.78-2.25-5.02-5.03-5.03 0 2.78 2.25 5.03 5.03 5.03m0 0c-2.78 0-5.03 2.25-5.03 5.03 2.78 0 5.02-2.25 5.02-5.03z"/>
    <path fill="#E6391E" d="M93.174 60.352c0-2.78-2.25-5.03-5.03-5.03 0 2.78 2.25 5.03 5.02 5.03z"/>
    <path fill="#E6391E" d="M88.144 55.322c2.78 0 5.03-2.25 5.03-5.03-2.78 0-5.02 2.25-5.03 5.03m15.081 5.03c0-2.78-2.25-5.03-5.03-5.03 0 2.78 2.25 5.02 5.02 5.03zm5.028-5.03c0-2.77-2.25-5.02-5.03-5.02 0 2.78 2.25 5.03 5.03 5.03z"/>
    <path fill="#E6391E" d="M108.253 55.322c-2.78 0-5.03 2.25-5.03 5.03 2.77 0 5.02-2.25 5.02-5.02zm-10.05 0c2.78 0 5.03-2.25 5.03-5.03-2.78 0-5.02 2.25-5.03 5.03m20.1 0c-2.78 0-5.03 2.25-5.03 5.03 2.78 0 5.02-2.25 5.02-5.03zm0 0c0-2.78-2.25-5.02-5.03-5.03 0 2.78 2.25 5.03 5.03 5.03"/>
    <path fill="#E6391E" d="M113.272 60.352c0-2.78-2.25-5.03-5.03-5.03 0 2.77 2.25 5.02 5.02 5.02z"/>
    <path fill="#E6391E" d="M108.254 55.322c2.78 0 5.03-2.25 5.03-5.03-2.77 0-5.02 2.25-5.03 5.02zm10.051 0c2.78 0 5.03-2.25 5.03-5.03-2.78 0-5.02 2.25-5.03 5.03"/>
    <path fill="#E6391E" d="M123.335 60.352c0-2.78-2.25-5.03-5.03-5.03 0 2.78 2.25 5.02 5.02 5.03zm-.003-10.05c0 2.78 2.25 5.03 5.03 5.03 0-2.78-2.25-5.02-5.03-5.03"/>
    <path fill="#E6391E" d="M123.334 60.352c2.78 0 5.02-2.25 5.02-5.03-2.78 0-5.03 2.25-5.03 5.03zm-110.58 0c0 2.78 2.25 5.03 5.03 5.03 0-2.78-2.25-5.02-5.02-5.03z"/>
    <path fill="#E6391E" d="M17.784 65.372c-2.78 0-5.03 2.25-5.03 5.03 2.78 0 5.02-2.25 5.03-5.03"/>
    <path fill="#E6391E" d="M22.803 70.402c0-2.78-2.25-5.03-5.03-5.03 0 2.78 2.25 5.02 5.03 5.03m5.032-5.03c-2.78 0-5.03 2.25-5.03 5.03 2.78 0 5.02-2.25 5.03-5.02z"/>
    <path fill="#E6391E" d="M22.813 60.352c-2.78 0-5.02 2.25-5.02 5.03 2.78 0 5.03-2.25 5.03-5.03z"/>
    <path fill="#E6391E" d="M22.813 60.352c0 2.78 2.25 5.03 5.03 5.03 0-2.77-2.25-5.02-5.02-5.02zm10.05 0c0 2.78 2.25 5.03 5.03 5.03 0-2.78-2.25-5.02-5.02-5.03z"/>
    <path fill="#E6391E" d="M32.862 70.402c0-2.78-2.25-5.03-5.03-5.03 0 2.78 2.25 5.02 5.03 5.02zm.002-10.05c-2.77 0-5.02 2.25-5.02 5.02 2.78 0 5.03-2.25 5.03-5.03z"/>
    <path fill="#E6391E" d="M37.882 65.372c-2.78 0-5.03 2.25-5.03 5.03 2.78 0 5.03-2.25 5.03-5.03m10.062.01c-2.78 0-5.03 2.25-5.03 5.03 2.77 0 5.02-2.25 5.03-5.02zm-5.03-5.03c-2.78 0-5.02 2.25-5.02 5.03 2.78 0 5.03-2.25 5.03-5.03z"/>
    <path fill="#E6391E" d="M47.942 65.372c0-2.77-2.25-5.02-5.02-5.02 0 2.78 2.25 5.03 5.03 5.03zm-5.029 5.03c0-2.78-2.25-5.03-5.03-5.03 0 2.78 2.25 5.03 5.03 5.03m15.082-5.03c-2.78 0-5.03 2.25-5.03 5.03 2.78 0 5.03-2.25 5.03-5.03m-.002 0c0-2.78-2.25-5.03-5.02-5.03 0 2.78 2.25 5.03 5.03 5.03z"/>
    <path fill="#E6391E" d="M47.945 65.372c2.78 0 5.03-2.25 5.03-5.03-2.77 0-5.02 2.25-5.02 5.02zm5.019 5.03c0-2.78-2.25-5.03-5.03-5.03 0 2.77 2.25 5.02 5.03 5.02zm15.078-5.03c-2.78 0-5.03 2.25-5.03 5.03 2.78 0 5.02-2.25 5.03-5.03m.001 0c0-2.78-2.25-5.02-5.02-5.03 0 2.78 2.25 5.03 5.03 5.03z"/>
    <path fill="#E6391E" d="M63.014 70.402c0-2.78-2.25-5.03-5.03-5.03 0 2.78 2.25 5.03 5.03 5.03m-5.022-5.03c2.78 0 5.03-2.25 5.03-5.03-2.78 0-5.02 2.25-5.02 5.03zm20.101.01c-2.78 0-5.03 2.25-5.03 5.03 2.77 0 5.02-2.25 5.03-5.02zm-10.05-.01c2.78 0 5.03-2.25 5.03-5.03-2.78 0-5.02 2.25-5.02 5.03z"/>
    <path fill="#E6391E" d="M73.073 70.402c0-2.78-2.25-5.03-5.03-5.03 0 2.78 2.25 5.02 5.03 5.03m5.021-5.03c0-2.77-2.25-5.02-5.02-5.02 0 2.78 2.25 5.03 5.03 5.03z"/>
    <path fill="#E6391E" d="M78.094 65.372c2.78 0 5.03-2.25 5.03-5.03-2.77 0-5.02 2.25-5.02 5.02zm10.049 0c-2.78 0-5.03 2.25-5.03 5.03 2.78 0 5.03-2.25 5.03-5.03"/>
    <path fill="#E6391E" d="M83.124 70.402c0-2.78-2.25-5.03-5.03-5.03 0 2.77 2.25 5.02 5.03 5.02zm5.021-5.03c0-2.78-2.25-5.03-5.02-5.03 0 2.78 2.25 5.03 5.03 5.03zm10.059 0c0-2.78-2.25-5.02-5.02-5.03 0 2.78 2.25 5.03 5.03 5.03z"/>
    <path fill="#E6391E" d="M88.144 65.372c2.78 0 5.03-2.25 5.03-5.03-2.78 0-5.02 2.25-5.02 5.03zm10.058 0c-2.78 0-5.03 2.25-5.03 5.03 2.78 0 5.03-2.25 5.03-5.03"/>
    <path fill="#E6391E" d="M93.174 70.402c0-2.78-2.25-5.03-5.03-5.03 0 2.78 2.25 5.03 5.03 5.03m15.08-5.03c0-2.77-2.25-5.02-5.02-5.02 0 2.78 2.25 5.03 5.03 5.03zm-5.029 5.03c0-2.78-2.25-5.03-5.03-5.03 0 2.78 2.25 5.03 5.03 5.03"/>
    <path fill="#E6391E" d="M108.253 65.372c-2.78 0-5.03 2.25-5.03 5.03 2.78 0 5.02-2.25 5.03-5.02zm-10.05 0c2.78 0 5.03-2.25 5.03-5.03-2.78 0-5.02 2.25-5.02 5.03zm15.082-5.02c0 2.78 2.25 5.03 5.03 5.03 0-2.78-2.25-5.02-5.02-5.03z"/>
    <path fill="#E6391E" d="M113.272 70.402c0-2.78-2.25-5.03-5.03-5.03 0 2.77 2.25 5.02 5.03 5.02zm-5.018-5.03c2.78 0 5.03-2.25 5.03-5.03-2.77 0-5.02 2.25-5.02 5.02zm5.031 5.03c2.78 0 5.02-2.25 5.03-5.03-2.78 0-5.03 2.25-5.03 5.03m10.047 0c2.78 0 5.02-2.25 5.03-5.03-2.78 0-5.03 2.25-5.03 5.03m-5.027-5.03c2.78 0 5.03-2.25 5.03-5.03-2.78 0-5.02 2.25-5.02 5.03z"/>
    <path fill="#E6391E" d="M123.335 70.402c0-2.78-2.25-5.03-5.03-5.03 0 2.78 2.25 5.02 5.03 5.03m-.003-10.05c0 2.78 2.25 5.03 5.03 5.03 0-2.78-2.25-5.02-5.02-5.03z"/>
  </g>
  <path fill="#9A3E1E" d="M54.135 54.852c-.13 0-.25-.08-.31-.19a.33.33 0 0 1-.04-.17c0-.19.16-.35.35-.35.13 0 .25.07.3.18.03.05.05.11.05.17 0 .19-.16.35-.35.35z"/>
  <path fill="#FFB611" d="M36.646 55.872c-12.28-13.18-33.73-8.79-33.73-8.79l-1.92-7.01s6.06-1.05 13.52-.49c9.85.74 22.13 4.28 26.03 16.75a25 25 0 0 1 1.13 7.23c-1.36-3.06-3.08-5.59-5.03-7.69"/>
  <path fill="#9A3E1E" d="m41.915 64.642-.44-.99c-1.29-2.89-2.97-5.46-4.99-7.62l-.06-.07c-12.06-12.84-33.24-8.7-33.45-8.66l-.21.04-2.05-7.46.25-.04c.06 0 6.18-1.05 13.57-.5 9.78.73 22.28 4.26 26.23 16.91.74 2.36 1.12 4.82 1.14 7.3v1.09zm-5.04-8.86c1.8 1.94 3.32 4.18 4.55 6.68-.11-2.06-.47-4.1-1.09-6.08-3.88-12.41-16.19-15.87-25.83-16.59-6.5-.48-12 .27-13.22.45l1.8 6.57c2.26-.4 22.15-3.52 33.73 8.89l.06.07z"/>
  <path fill="#FFB611" d="M41.68 63.562c.09 8.2-3.75 15.27-7.51 17.02 0 0-2.84-1.58-5.62-4.36 0 0 11.39-4.84 8.1-20.34 1.95 2.09 3.67 4.62 5.03 7.69z"/>
  <path fill="#9A3E1E" d="m34.162 80.832-.1-.06s-2.9-1.63-5.67-4.4l-.24-.24.31-.13c.11-.05 11.18-4.95 7.97-20.09l-.17-.8.56.59c2.06 2.2 3.77 4.81 5.08 7.75l.02.09c.09 8.41-3.9 15.49-7.64 17.23l-.11.05zm-5.23-4.55c2.36 2.3 4.74 3.74 5.25 4.04 3.58-1.76 7.35-8.59 7.28-16.71-1.17-2.61-2.65-4.95-4.43-6.97 2.48 13.48-6.34 18.75-8.1 19.65z"/>
  <path fill="#FFB611" d="M16.762 26.352v11.72l-2.25 1.5c-7.45-.55-13.52.49-13.52.49s10.53-7.29 15.76-13.71z"/>
  <path fill="#9A3E1E" d="m.023 40.462.84-.58c.1-.07 10.57-7.35 15.72-13.67l.4-.49v12.48l-2.41 1.61h-.08c-7.34-.54-13.4.48-13.46.49l-1.01.17zm16.51-13.48c-4.45 5.24-12.18 10.96-14.64 12.73 1.99-.26 6.89-.78 12.56-.37l2.08-1.38zm17.73 10.33a.31.31 0 0 1-.24-.1.357.357 0 0 1 0-.49c.13-.14.35-.14.49 0 .13.13.14.35 0 .49-.07.07-.16.11-.24.11z"/>
  <path fill="#FFB611" d="M131.824 20.262s-2.97-5.31-9.66-5.31c-11.57 0-24.87 13.89-24.87 13.89l-9.13-3.09c19.55-13.95 28.37-15.6 36.01-12.85 4.33 1.56 6.84 4.5 7.65 7.36"/>
  <path fill="#9A3E1E" d="m97.354 29.112-9.69-3.28.36-.26c20.11-14.35 28.77-15.56 36.22-12.87 3.95 1.42 6.86 4.23 7.79 7.51l.52 1.84-.94-1.67c-.03-.05-2.99-5.19-9.46-5.19-11.34 0-24.58 13.68-24.71 13.82l-.1.1zm-8.7-3.43 8.58 2.9c1.26-1.28 13.94-13.86 24.93-13.86 4.54 0 7.42 2.43 8.83 4.04-1.26-2.46-3.73-4.51-6.89-5.65-7.27-2.62-15.75-1.43-35.44 12.56z"/>
  <path fill="#FFB611" d="M136.654 27.212c0 8.01-10.39 11.57-10.39 11.57v-9.75s5.86-.75 5.86-6.75c0-.65-.09-1.33-.29-2.02-.81-2.86-3.32-5.8-7.65-7.36 4.41 1.57 12.48 6.38 12.48 14.3z"/>
  <path fill="#9A3E1E" d="M126.035 39.092v-10.26l.2-.03c.23-.03 5.66-.8 5.66-6.53 0-.65-.1-1.3-.28-1.95-.89-3.14-3.7-5.83-7.51-7.21l.15-.43c4.69 1.67 12.63 6.6 12.63 14.52s-10.44 11.75-10.54 11.78l-.3.1zm.45-9.87v9.23c1.69-.66 9.94-4.25 9.94-11.24 0-5.12-3.45-8.96-7.11-11.43 1.32 1.28 2.27 2.79 2.73 4.42.2.69.3 1.39.3 2.08 0 5.49-4.81 6.74-5.86 6.94"/>
  <path fill="#FFB611" d="M71.552 18.522c-14.31 0-28.3-2.52-41.59-7.5h-12.9v-5h13.81l.43.16c12.85 4.87 26.39 7.34 40.25 7.34s27.4-2.47 40.25-7.34l.43-.16h13.81v5h-12.899c-13.29 4.98-27.28 7.5-41.59 7.5Z"/>
  <path fill="#FFB611" d="M71.556 27.702c7.301 0 13.22-5.919 13.22-13.22s-5.919-13.22-13.22-13.22-13.22 5.919-13.22 13.22 5.919 13.22 13.22 13.22"/>
  <path fill="#9A3E1E" d="M71.555 1.252c7.3 0 13.22 5.92 13.22 13.22s-5.92 13.22-13.22 13.22-13.22-5.92-13.22-13.22 5.92-13.22 13.22-13.22m0-.45c-7.54 0-13.68 6.13-13.68 13.68s6.13 13.68 13.68 13.68 13.68-6.13 13.68-13.68S79.105.802 71.555.802"/>
  <path fill="#FFB611" d="M73.163 26.792c6.8-.88 11.6-7.11 10.71-13.92-.88-6.8-7.11-11.6-13.92-10.71-6.8.88-11.6 7.11-10.71 13.92.88 6.8 7.11 11.6 13.92 10.71"/>
  <path fill="#fff" d="M71.772 3.852h-.42v21.27h.42z"/>
  <path fill="#fff" d="m66.425 5.172-.37.21 10.63 18.42.37-.21z"/>
  <path fill="#fff" d="m62.452 8.992-.21.37 18.42 10.63.21-.37z"/>
  <path fill="#fff" d="M82.192 14.282h-21.27v.42h21.27z"/>
  <path fill="#fff" d="m80.662 9.002-18.42 10.63.21.37 18.42-10.63z"/>
  <path fill="#fff" d="m76.692 5.172-10.63 18.42.37.21 10.63-18.42z"/>
  <path fill="#FFB611" d="M71.553 22.662c4.51 0 8.17-3.66 8.17-8.17s-3.66-8.17-8.17-8.17-8.17 3.66-8.17 8.17 3.66 8.17 8.17 8.17"/>
  <path fill="#fff" d="M75.424 20.142a8.66 8.66 0 0 0-7.41 0l-1.26-1.68 5.62-6.7c-.33.03-.66.04-.99.04-1.59 0-3.18-.36-4.62-1.04l.92-1.94a8.66 8.66 0 0 0 7.41 0l1.26 1.68-5.62 6.7c.33-.03.66-.04.99-.04 1.59 0 3.18.36 4.62 1.04z"/>
</svg>
