<svg xmlns="http://www.w3.org/2000/svg" width="102" height="105" fill="none" viewBox="0 0 102 105" xmlns:xlink="http://www.w3.org/1999/xlink">
  <g clip-path="url(#a)">
    <mask id="b" fill="#fff">
      <path fill-rule="evenodd" d="M.977 4.802a4 4 0 0 1 4-4h92a4 4 0 0 1 4 4v41a4 4 0 1 0 0 8v50a4 4 0 0 1-4 4h-92a4 4 0 0 1-4-4v-50a4 4 0 1 0 0-8z" clip-rule="evenodd"/>
    </mask>
    <path fill="#FFF6D9" fill-rule="evenodd" d="M.977 4.802a4 4 0 0 1 4-4h92a4 4 0 0 1 4 4v41a4 4 0 1 0 0 8v50a4 4 0 0 1-4 4h-92a4 4 0 0 1-4-4v-50a4 4 0 1 0 0-8z" clip-rule="evenodd"/>
    <path fill="#0A2660" d="M100.977 45.802v.5h.5v-.5zm0 8h.5v-.5h-.5zm-100 0v-.5h-.5v.5zm0-8h-.5v.5h.5zm4-45.5a4.5 4.5 0 0 0-4.5 4.5h1a3.5 3.5 0 0 1 3.5-3.5zm92 0h-92v1h92zm4.5 4.5a4.5 4.5 0 0 0-4.5-4.5v1a3.5 3.5 0 0 1 3.5 3.5zm0 41v-41h-1v41zm-4 4a3.5 3.5 0 0 1 3.5-3.5v-1a4.5 4.5 0 0 0-4.5 4.5zm3.5 3.5a3.5 3.5 0 0 1-3.5-3.5h-1a4.5 4.5 0 0 0 4.5 4.5zm.5 50.5v-50h-1v50zm-4.5 4.5a4.5 4.5 0 0 0 4.5-4.5h-1a3.5 3.5 0 0 1-3.5 3.5zm-92 0h92v-1h-92zm-4.5-4.5a4.5 4.5 0 0 0 4.5 4.5v-1a3.5 3.5 0 0 1-3.5-3.5zm0-50v50h1v-50zm4-4a3.5 3.5 0 0 1-3.5 3.5v1a4.5 4.5 0 0 0 4.5-4.5zm-3.5-3.5a3.5 3.5 0 0 1 3.5 3.5h1a4.5 4.5 0 0 0-4.5-4.5zm-.5-41.5v41h1v-41z" mask="url(#b)"/>
    <path fill="#F9D265" d="M7.914 49.81H5.977v.484h1.937zm84.118.484h-4.01v-.484h4.01zm-6.005 0h-4.01v-.484h4.01zm-6.016 0h-4.01v-.484h4.01zm-6.006 0h-4.01v-.484h4.01zm-6.005 0h-4.01v-.484H68zm-6.016 0h-4.01v-.484h4.01zm-6.006 0h-4.01v-.484h4.01zm-6.006 0h-4.01v-.484h4.01zm-6.015 0h-4.01v-.484h4.01zm-6.006 0h-4.01v-.484h4.01zm-6.006 0h-4.01v-.484h4.01zm-6.015 0h-4.01v-.484h4.01zm-6.006 0h-4.01v-.484h4.01zm-6.006 0h-4.01v-.484h4.01zm82.059-.484h-1.938v.484h1.938zm1.745 59.642H4.352v-54.65h.5v54.15h92.37v-54.15h.5zM4.48 43.802h-.503v-39h94v39h-.504V5.159H4.48z"/>
  </g>
  <defs>
    <clipPath id="a">
      <path fill="#fff" d="M.5.802h101v104H.5z"/>
    </clipPath>
  </defs>
</svg>
