<svg xmlns="http://www.w3.org/2000/svg" width="101" height="104" fill="none" viewBox="0 0 101 104">
  <mask id="a" fill="#fff">
    <path fill-rule="evenodd" d="M.477 4a4 4 0 0 1 4-4h92a4 4 0 0 1 4 4v41a4 4 0 1 0 0 8v50a4 4 0 0 1-4 4h-92a4 4 0 0 1-4-4V53a4 4 0 0 0 0-8z" clip-rule="evenodd"/>
  </mask>
  <path fill="#FFF6D9" fill-rule="evenodd" d="M.477 4a4 4 0 0 1 4-4h92a4 4 0 0 1 4 4v41a4 4 0 1 0 0 8v50a4 4 0 0 1-4 4h-92a4 4 0 0 1-4-4V53a4 4 0 0 0 0-8z" clip-rule="evenodd"/>
  <path fill="#9A3E1E" d="M100.477 45v.5h.5V45zm0 8h.5v-.5h-.5zm-100 0v-.5h-.5v.5zm0-8h-.5v.5h.5zm4-45.5A4.5 4.5 0 0 0-.023 4h1a3.5 3.5 0 0 1 3.5-3.5zm92 0h-92v1h92zm4.5 4.5a4.5 4.5 0 0 0-4.5-4.5v1a3.5 3.5 0 0 1 3.5 3.5zm0 41V4h-1v41zm-4 4a3.5 3.5 0 0 1 3.5-3.5v-1a4.5 4.5 0 0 0-4.5 4.5zm3.5 3.5a3.5 3.5 0 0 1-3.5-3.5h-1a4.5 4.5 0 0 0 4.5 4.5zm.5 50.5V53h-1v50zm-4.5 4.5a4.5 4.5 0 0 0 4.5-4.5h-1a3.5 3.5 0 0 1-3.5 3.5zm-92 0h92v-1h-92zm-4.5-4.5a4.5 4.5 0 0 0 4.5 4.5v-1a3.5 3.5 0 0 1-3.5-3.5zm0-50v50h1V53zm4-4a3.5 3.5 0 0 1-3.5 3.5v1a4.5 4.5 0 0 0 4.5-4.5zm-3.5-3.5a3.5 3.5 0 0 1 3.5 3.5h1a4.5 4.5 0 0 0-4.5-4.5zM-.023 4v41h1V4z" mask="url(#a)"/>
  <path fill="#F9D265" d="M7.414 49.008H5.477v.484h1.937zm84.118.484h-4.01v-.484h4.01zm-6.005 0h-4.01v-.484h4.01zm-6.016 0h-4.01v-.484h4.01zm-6.006 0h-4.01v-.484h4.01zm-6.005 0h-4.01v-.484h4.01zm-6.016 0h-4.01v-.484h4.01zm-6.006 0h-4.01v-.484h4.01zm-6.006 0h-4.01v-.484h4.01zm-6.015 0h-4.01v-.484h4.01zm-6.006 0h-4.01v-.484h4.01zm-6.006 0h-4.01v-.484h4.01zm-6.015 0h-4.01v-.484h4.01zm-6.006 0h-4.01v-.484h4.01zm-6.006 0h-4.01v-.484h4.01zm82.059-.484h-1.938v.484h1.938zm1.745 59.642H3.852V54h.5v54.15h92.37V54h.5zM3.98 43h-.503V4h94v39h-.504V4.357H3.98z"/>
</svg>
