<svg xmlns="http://www.w3.org/2000/svg" width="24" height="316" fill="none" viewBox="0 0 24 316" xmlns:xlink="http://www.w3.org/1999/xlink">
  <g opacity=".9">
    <g filter="url(#a)">
      <path fill="#FBFBFB" d="M19.574 297.361a.49.49 0 0 0 .012-.715l-6.501-6.284a.49.49 0 0 0-.83.352v2.623c-2.43-.038-4.256.598-5.612 1.572-1.378.989-2.256 2.316-2.798 3.602-.54 1.284-.748 2.537-.782 3.397-.016.423.01.773.07.987a.7.7 0 0 0 .067.162.34.34 0 0 0 .184.155.3.3 0 0 0 .288-.063.5.5 0 0 0 .116-.158l.003-.006.003-.006v-.002l.006-.011.023-.048q.034-.067.108-.192c.1-.164.26-.397.494-.66.467-.526 1.232-1.175 2.416-1.648.674-.27 1.797-.393 2.899-.412 1.051-.019 2.032.056 2.515.162v2.7a.49.49 0 0 0 .818.364z"/>
      <path fill="#fff" d="M17.571 296.662c.47-.546 0-1.324 0-1.324l-.81-1.421-3.676-3.555a.49.49 0 0 0-.83.352v2.623c-2.43-.038-4.256.598-5.612 1.572-1.378.989-2.256 2.316-2.798 3.602-.54 1.284-.748 2.537-.782 3.397-.016.423.01.773.07.987a.7.7 0 0 0 .067.162.34.34 0 0 0 .184.155.3.3 0 0 0 .288-.063.5.5 0 0 0 .116-.158l.003-.006.003-.006v-.002l.006-.011.023-.048q.034-.067.108-.192c.1-.164.26-.397.494-.66.467-.526 3.059-2.365 4.527-3.099 1.223-.734 3.303-1.223 3.303-1.223v2.936a.49.49 0 0 0 .818.363z"/>
    </g>
    <g filter="url(#b)">
      <path fill="#fff" d="M5.127 313.673q-1.094 0-1.724-.675l.414-.572q.547.585 1.342.585.426 0 .636-.172a.5.5 0 0 0 .216-.407q0-.241-.254-.382a2.2 2.2 0 0 0-.617-.229 10 10 0 0 1-.732-.197 1.4 1.4 0 0 1-.617-.388q-.254-.274-.254-.706 0-.534.426-.884.432-.357 1.12-.357.98 0 1.59.592l-.426.553q-.484-.483-1.228-.483-.33 0-.528.146a.45.45 0 0 0-.191.382.33.33 0 0 0 .134.267q.14.109.356.178.216.064.477.128.267.063.528.159.268.089.483.222.217.134.35.369.14.236.14.56 0 .573-.413.942-.414.369-1.228.369m5.056-.077h-.668v-1.934q0-.338-.165-.477-.16-.146-.458-.146a.9.9 0 0 0-.446.121q-.21.12-.343.292v2.144h-.668v-4.243h.668v1.59q.171-.203.458-.35.293-.146.63-.146.992 0 .992.973zm3.412 0h-.668v-.331q-.356.408-.992.408-.42 0-.745-.268-.324-.273-.324-.75 0-.49.318-.745.325-.254.75-.254.656 0 .993.394v-.458a.5.5 0 0 0-.197-.42q-.197-.152-.522-.152-.514 0-.91.388l-.273-.465q.522-.495 1.291-.496.566 0 .923.267.356.268.356.846zm-1.4-.382q.504 0 .732-.318v-.464q-.228-.318-.731-.318a.7.7 0 0 0-.471.153.5.5 0 0 0-.185.4q0 .248.185.401.185.147.47.146m2.934.382h-.668v-3.073h.668v.452q.178-.23.446-.375.267-.146.553-.146v.661a1 1 0 0 0-.21-.019q-.21 0-.452.127a.85.85 0 0 0-.337.28zm2.956.077q-.699 0-1.158-.446-.45-.452-.451-1.17 0-.674.439-1.139.445-.471 1.12-.471.68 0 1.094.471.42.471.42 1.202v.159h-2.373a.93.93 0 0 0 .299.605q.26.241.68.241.235 0 .471-.089.242-.089.4-.248l.306.439q-.465.446-1.247.446m.815-1.864a.88.88 0 0 0-.236-.567q-.216-.248-.63-.248-.393 0-.617.248a.92.92 0 0 0-.248.567z"/>
    </g>
  </g>
  <g opacity=".9">
    <g filter="url(#c)">
      <path fill="#fff" d="M8.926 276.015c-1.012 0-1.68-.544-1.742-1.345l-.004-.041h.898l.003.034c.04.348.36.597.845.597.479 0 .792-.267.792-.646v-.006c0-.429-.32-.665-.863-.665h-.513v-.668h.5c.472 0 .777-.249.777-.612v-.006c0-.373-.258-.603-.699-.603s-.736.239-.773.612l-.004.028H7.28l.003-.037c.065-.802.696-1.324 1.637-1.324.963 0 1.584.485 1.584 1.2v.006c0 .559-.41.922-.935 1.031v.019c.668.062 1.103.447 1.103 1.056v.006c0 .814-.699 1.364-1.746 1.364m4.337.015c-1.041 0-1.852-.736-1.852-2.314v-.006c0-1.501.709-2.392 1.855-2.392.866 0 1.512.512 1.65 1.215l.005.031h-.916l-.012-.028c-.106-.28-.36-.469-.724-.469-.65 0-.932.636-.966 1.45q-.004.051-.003.103h.062c.161-.348.537-.656 1.155-.656.873 0 1.463.622 1.463 1.47v.006c0 .916-.708 1.59-1.717 1.59m-.824-1.578c0 .472.36.836.817.836a.81.81 0 0 0 .817-.817v-.006a.785.785 0 0 0-.81-.811c-.463 0-.824.332-.824.795z"/>
    </g>
    <g fill-rule="evenodd" clip-rule="evenodd" filter="url(#d)">
      <path fill="#FBFBFB" d="m11.659 265.265-.16.001c-4.729 0-8.563-3.177-8.563-7.096s3.834-7.095 8.564-7.095 8.564 3.177 8.564 7.095c0 .992-.245 1.935-.689 2.792-.594 1.211-1.51 2.292-2.506 3.225-1.516 1.421-3.27 2.493-4.519 3.098a.483.483 0 0 1-.691-.439zm-3.095-6.728a1.224 1.224 0 1 1-2.448 0 1.224 1.224 0 0 1 2.448 0m2.936 1.224a1.224 1.224 0 1 0 0-2.447 1.224 1.224 0 0 0 0 2.447m5.383-1.224a1.224 1.224 0 1 1-2.448 0 1.224 1.224 0 0 1 2.448 0"/>
      <path fill="#fff" d="M11.5 265.266c4.73 0 8.564-3.177 8.564-7.096s-3.834-7.095-8.564-7.095-8.564 3.177-8.564 7.095c0 3.919 3.834 7.096 8.564 7.096m-4.16-5.505a1.224 1.224 0 1 0 0-2.447 1.224 1.224 0 0 0 0 2.447m5.383-1.224a1.224 1.224 0 1 1-2.447 0 1.224 1.224 0 0 1 2.447 0m2.936 1.224a1.224 1.224 0 1 0 0-2.447 1.224 1.224 0 0 0 0 2.447"/>
    </g>
  </g>
  <g opacity=".9">
    <g filter="url(#e)">
      <path fill="#fff" d="M5.177 238.235v-3.597H5.12l-1.1.764v-.845l1.159-.805h.935v4.483zm3.255 0v-3.597h-.056l-1.1.764v-.845l1.16-.805h.934v4.483zm3.818-4.601c1.037 0 1.851.739 1.851 2.314v.007c0 1.5-.708 2.391-1.857 2.391-.867 0-1.51-.512-1.65-1.214l-.006-.028h.92l.009.028c.109.279.363.469.724.469.649 0 .934-.637.969-1.454v-.099h-.062c-.162.345-.535.655-1.156.655-.873 0-1.46-.621-1.46-1.469v-.006c0-.917.708-1.594 1.718-1.594m0 2.377c.463 0 .82-.33.82-.793v-.006a.813.813 0 0 0-.814-.832.81.81 0 0 0-.817.814v.006c0 .472.342.811.81.811m4.314 2.323c-1.012 0-1.68-.544-1.742-1.345l-.003-.04h.897l.004.034c.04.348.36.596.844.596.479 0 .793-.267.793-.646v-.006c0-.429-.32-.665-.864-.665h-.512v-.668h.5c.472 0 .776-.248.776-.612v-.006c0-.373-.258-.603-.699-.603s-.736.24-.773.612l-.003.028h-.864l.003-.037c.066-.801.696-1.323 1.637-1.323.963 0 1.584.484 1.584 1.199v.006c0 .559-.41.923-.934 1.031v.019c.667.062 1.102.447 1.102 1.056v.006c0 .814-.699 1.364-1.745 1.364"/>
    </g>
    <g filter="url(#f)">
      <path fill="#FBFBFB" d="M10.796 229.209a1.42 1.42 0 0 0 1.653 0c2.472-1.765 4.84-3.795 6.477-6.393.82-1.302 1.164-2.354 1.3-3.215q.081-.456.082-.935c0-2.777-2.154-5.027-4.812-5.027-1.589 0-2.997.803-3.874 2.043-.876-1.24-2.285-2.043-3.873-2.043-2.658 0-4.813 2.25-4.813 5.027q.001.48.083.935c.135.861.48 1.913 1.3 3.215 1.637 2.598 4.005 4.628 6.477 6.393"/>
      <path fill="#fff" d="M10.796 227.096a1.42 1.42 0 0 0 1.653 0c2.721-1.468 3.7-1.957 6.477-4.28.82-1.302 1.164-2.354 1.3-3.215q.081-.456.082-.935c0-2.777-2.154-5.027-4.812-5.027-1.589 0-2.997.803-3.874 2.043-.876-1.24-2.285-2.043-3.873-2.043-2.658 0-4.813 2.25-4.813 5.027q.001.48.083.935c.135.861.48 1.913 1.3 3.215 3.021 2.323 4 2.812 6.477 4.28"/>
    </g>
  </g>
  <path fill="#65D2E9" d="M10.87 8.987v-.891a6.5 6.5 0 0 0-.935-.08 6.918 6.918 0 0 0-3.967 12.597A6.911 6.911 0 0 1 10.87 8.987"/>
  <path fill="#65D2E9" d="M11.038 19.062a3.163 3.163 0 0 0 3.157-3.025V.955h2.756A5 5 0 0 1 16.87 0H13.1v15.067a3.165 3.165 0 0 1-3.157 3.046 3.2 3.2 0 0 1-1.458-.363 3.17 3.17 0 0 0 2.552 1.312m11.06-12.99v-.839a5.15 5.15 0 0 1-2.85-.86 5.23 5.23 0 0 0 2.85 1.7z"/>
  <path fill="#E6436D" d="M19.247 4.373a5.2 5.2 0 0 1-1.29-3.427H16.95a5.22 5.22 0 0 0 2.295 3.427m-9.308 7.414A3.165 3.165 0 0 0 8.48 17.75a3.157 3.157 0 0 1 2.56-5.009c.316.004.631.052.934.146V9.053a7 7 0 0 0-.935-.073h-.17v2.916a3.3 3.3 0 0 0-.93-.11"/>
  <path fill="#E6436D" d="M22.097 6.072v2.915a8.95 8.95 0 0 1-5.227-1.7v7.662a6.93 6.93 0 0 1-6.933 6.919 6.86 6.86 0 0 1-3.966-1.254 6.919 6.919 0 0 0 11.986-4.71V8.266a8.96 8.96 0 0 0 5.235 1.677V6.188q-.553-.001-1.095-.116"/>
  <path fill="#fff" d="M16.87 14.95V7.29a8.95 8.95 0 0 0 5.238 1.676V6.05a5.23 5.23 0 0 1-2.858-1.676A5.22 5.22 0 0 1 16.955.946h-2.76v15.091a3.164 3.164 0 0 1-5.723 1.729 3.165 3.165 0 0 1 1.458-5.964c.317.003.632.052.935.145V9.031a6.911 6.911 0 0 0-4.9 11.664 6.86 6.86 0 0 0 3.972 1.172 6.933 6.933 0 0 0 6.933-6.916"/>
  <defs>
    <filter id="a" width="20.592" height="17.05" x="1.101" y="288.428" color-interpolation-filters="sRGB" filterUnits="userSpaceOnUse">
      <feFlood flood-opacity="0" result="BackgroundImageFix"/>
      <feColorMatrix in="SourceAlpha" result="hardAlpha" values="0 0 0 0 0 0 0 0 0 0 0 0 0 0 0 0 0 0 127 0"/>
      <feOffset dy=".161"/>
      <feGaussianBlur stdDeviation=".979"/>
      <feColorMatrix values="0 0 0 0 0 0 0 0 0 0 0 0 0 0 0 0 0 0 0.1 0"/>
      <feBlend in2="BackgroundImageFix" result="effect1_dropShadow_65_41417"/>
      <feBlend in="SourceGraphic" in2="effect1_dropShadow_65_41417" result="shape"/>
    </filter>
    <filter id="b" width="16.635" height="4.873" x="3.403" y="309.289" color-interpolation-filters="sRGB" filterUnits="userSpaceOnUse">
      <feFlood flood-opacity="0" result="BackgroundImageFix"/>
      <feColorMatrix in="SourceAlpha" result="hardAlpha" values="0 0 0 0 0 0 0 0 0 0 0 0 0 0 0 0 0 0 127 0"/>
      <feOffset dx=".489" dy=".489"/>
      <feColorMatrix values="0 0 0 0 0 0 0 0 0 0 0 0 0 0 0 0 0 0 0.3 0"/>
      <feBlend in2="BackgroundImageFix" result="effect1_dropShadow_65_41417"/>
      <feBlend in="SourceGraphic" in2="effect1_dropShadow_65_41417" result="shape"/>
    </filter>
    <filter id="c" width="8.289" height="5.202" x="7.18" y="271.318" color-interpolation-filters="sRGB" filterUnits="userSpaceOnUse">
      <feFlood flood-opacity="0" result="BackgroundImageFix"/>
      <feColorMatrix in="SourceAlpha" result="hardAlpha" values="0 0 0 0 0 0 0 0 0 0 0 0 0 0 0 0 0 0 127 0"/>
      <feOffset dx=".489" dy=".489"/>
      <feColorMatrix values="0 0 0 0 0 0 0 0 0 0 0 0 0 0 0 0 0 0 0.3 0"/>
      <feBlend in2="BackgroundImageFix" result="effect1_dropShadow_65_41417"/>
      <feBlend in="SourceGraphic" in2="effect1_dropShadow_65_41417" result="shape"/>
    </filter>
    <filter id="d" width="21.043" height="20.174" x=".979" y="249.279" color-interpolation-filters="sRGB" filterUnits="userSpaceOnUse">
      <feFlood flood-opacity="0" result="BackgroundImageFix"/>
      <feColorMatrix in="SourceAlpha" result="hardAlpha" values="0 0 0 0 0 0 0 0 0 0 0 0 0 0 0 0 0 0 127 0"/>
      <feOffset dy=".161"/>
      <feGaussianBlur stdDeviation=".979"/>
      <feColorMatrix values="0 0 0 0 0 0 0 0 0 0 0 0 0 0 0 0 0 0 0.1 0"/>
      <feBlend in2="BackgroundImageFix" result="effect1_dropShadow_65_41417"/>
      <feBlend in="SourceGraphic" in2="effect1_dropShadow_65_41417" result="shape"/>
    </filter>
    <filter id="e" width="14.778" height="5.202" x="4.021" y="233.634" color-interpolation-filters="sRGB" filterUnits="userSpaceOnUse">
      <feFlood flood-opacity="0" result="BackgroundImageFix"/>
      <feColorMatrix in="SourceAlpha" result="hardAlpha" values="0 0 0 0 0 0 0 0 0 0 0 0 0 0 0 0 0 0 127 0"/>
      <feOffset dx=".489" dy=".489"/>
      <feColorMatrix values="0 0 0 0 0 0 0 0 0 0 0 0 0 0 0 0 0 0 0.3 0"/>
      <feBlend in2="BackgroundImageFix" result="effect1_dropShadow_65_41417"/>
      <feBlend in="SourceGraphic" in2="effect1_dropShadow_65_41417" result="shape"/>
    </filter>
    <filter id="f" width="21.287" height="19.75" x=".979" y="211.843" color-interpolation-filters="sRGB" filterUnits="userSpaceOnUse">
      <feFlood flood-opacity="0" result="BackgroundImageFix"/>
      <feColorMatrix in="SourceAlpha" result="hardAlpha" values="0 0 0 0 0 0 0 0 0 0 0 0 0 0 0 0 0 0 127 0"/>
      <feOffset dy=".161"/>
      <feGaussianBlur stdDeviation=".979"/>
      <feColorMatrix values="0 0 0 0 0 0 0 0 0 0 0 0 0 0 0 0 0 0 0.1 0"/>
      <feBlend in2="BackgroundImageFix" result="effect1_dropShadow_65_41417"/>
      <feBlend in="SourceGraphic" in2="effect1_dropShadow_65_41417" result="shape"/>
    </filter>
  </defs>
</svg>
