<svg xmlns="http://www.w3.org/2000/svg" width="381" height="354" fill="none" viewBox="0 0 381 354" xmlns:xlink="http://www.w3.org/1999/xlink">
  <g style="mix-blend-mode:overlay">
    <g filter="url(#a)">
      <ellipse cx="190.743" cy="176.722" fill="#fff" fill-opacity=".1" rx="167.648" ry="155.193" shape-rendering="crispEdges"/>
    </g>
    <g filter="url(#b)">
      <ellipse cx="190.733" cy="176.719" fill="#fff" fill-opacity=".4" rx="141.277" ry="130.78"/>
    </g>
    <g filter="url(#c)">
      <ellipse cx="190.741" cy="176.717" fill="#fff" fill-opacity=".2" rx="87.278" ry="80.793"/>
    </g>
    <path fill="url(#d)" d="M140.206 6.096c-18.836 4.746-36.515 12.096-52.56 21.606l103.267 149.781L54.221 52.826a184 184 0 0 0-9.66 9.808l146.352 114.849L6.485 129.002a165 165 0 0 0-5.99 28.838l190.418 19.643L3.987 215.712c4.853 20.132 13.406 38.972 24.964 55.872l161.962-94.101L59.67 306.013a189 189 0 0 0 17.216 13.321l114.027-141.851-43.263 172.052c13.769 2.922 28.105 4.465 42.83 4.465 9.275 0 18.396-.612 27.318-1.796l-26.885-174.721L323.36 304.184a183.5 183.5 0 0 0 18.625-19.325L190.913 177.483l182.18 51.764A165 165 0 0 0 381 190.673l-190.087-13.19 178.548-62.68c-8.221-20.316-20.356-38.859-35.554-54.841L190.913 177.483l93.67-154.657a197 197 0 0 0-22.211-9.964l-71.459 164.621L219.165 1.886A206 206 0 0 0 207.569.603l-16.656 176.88z"/>
  </g>
  <defs>
    <filter id="a" width="361.297" height="336.385" x="10.095" y="8.529" color-interpolation-filters="sRGB" filterUnits="userSpaceOnUse">
      <feFlood flood-opacity="0" result="BackgroundImageFix"/>
      <feColorMatrix in="SourceAlpha" result="hardAlpha" values="0 0 0 0 0 0 0 0 0 0 0 0 0 0 0 0 0 0 127 0"/>
      <feOffset/>
      <feGaussianBlur stdDeviation="6.5"/>
      <feComposite in2="hardAlpha" operator="out"/>
      <feColorMatrix values="0 0 0 0 1 0 0 0 0 1 0 0 0 0 1 0 0 0 0.8 0"/>
      <feBlend in2="BackgroundImageFix" result="effect1_dropShadow_4107_46329"/>
      <feBlend in="SourceGraphic" in2="effect1_dropShadow_4107_46329" result="shape"/>
      <feColorMatrix in="SourceAlpha" result="hardAlpha" values="0 0 0 0 0 0 0 0 0 0 0 0 0 0 0 0 0 0 127 0"/>
      <feOffset/>
      <feGaussianBlur stdDeviation="6.86"/>
      <feComposite in2="hardAlpha" k2="-1" k3="1" operator="arithmetic"/>
      <feColorMatrix values="0 0 0 0 1 0 0 0 0 1 0 0 0 0 1 0 0 0 0.4 0"/>
      <feBlend in2="shape" result="effect2_innerShadow_4107_46329"/>
    </filter>
    <filter id="b" width="290.553" height="269.561" x="45.456" y="41.938" color-interpolation-filters="sRGB" filterUnits="userSpaceOnUse">
      <feFlood flood-opacity="0" result="BackgroundImageFix"/>
      <feBlend in="SourceGraphic" in2="BackgroundImageFix" result="shape"/>
      <feColorMatrix in="SourceAlpha" result="hardAlpha" values="0 0 0 0 0 0 0 0 0 0 0 0 0 0 0 0 0 0 127 0"/>
      <feOffset/>
      <feGaussianBlur stdDeviation="6.458"/>
      <feComposite in2="hardAlpha" k2="-1" k3="1" operator="arithmetic"/>
      <feColorMatrix values="0 0 0 0 1 0 0 0 0 1 0 0 0 0 1 0 0 0 0.4 0"/>
      <feBlend in2="shape" result="effect1_innerShadow_4107_46329"/>
      <feGaussianBlur result="effect2_foregroundBlur_4107_46329" stdDeviation="2"/>
    </filter>
    <filter id="c" width="174.555" height="161.586" x="103.464" y="95.924" color-interpolation-filters="sRGB" filterUnits="userSpaceOnUse">
      <feFlood flood-opacity="0" result="BackgroundImageFix"/>
      <feBlend in="SourceGraphic" in2="BackgroundImageFix" result="shape"/>
      <feColorMatrix in="SourceAlpha" result="hardAlpha" values="0 0 0 0 0 0 0 0 0 0 0 0 0 0 0 0 0 0 127 0"/>
      <feOffset/>
      <feGaussianBlur stdDeviation="14.651"/>
      <feComposite in2="hardAlpha" k2="-1" k3="1" operator="arithmetic"/>
      <feColorMatrix values="0 0 0 0 1 0 0 0 0 1 0 0 0 0 1 0 0 0 0.83 0"/>
      <feBlend in2="shape" result="effect1_innerShadow_4107_46329"/>
    </filter>
    <radialGradient id="d" cx="0" cy="0" r="1" gradientTransform="matrix(0 176.699 -190.253 0 190.824 177.23)" gradientUnits="userSpaceOnUse">
      <stop stop-color="#fff" stop-opacity=".44"/>
      <stop offset="1" stop-color="#fff" stop-opacity="0"/>
    </radialGradient>
  </defs>
</svg>
