<svg xmlns="http://www.w3.org/2000/svg" xmlns:xlink="http://www.w3.org/1999/xlink" width="118" height="76" fill="none" viewBox="0 0 118 76">
  <defs>
    <path id="a" fill="#000" d="M73.7 66.478c.068 1.509.62 4.891 2.376 5.188 2.845-.772 2.232-7.805.792-9.707-2.184-2.817-3.355 2.99-3.169 4.52Zm-.035 0c0-1.68-.02-5.173 2.08-5.593.634 0 1.082.461 1.378.895.861 1.35 1.068 2.997 1.11 4.56 0 1.557-.173 3.176-.896 4.582-.255.447-.641.937-1.254.985-2.115-.276-2.315-3.762-2.411-5.429z"/>
    <path id="b" fill="#000" d="M104.65 66.594c.062 1.295.351 2.624 1.067 3.713.241.33.558.654.937.654 2.494-.468 2.067-8.377-.268-8.81-1.461.371-1.743 3.154-1.743 4.443zm-.028 0c0-1.454-.055-4.368 1.764-4.754 2.659.441 2.411 6.703 1.357 8.515-.214.379-.545.799-1.075.847-1.826-.255-1.949-3.169-2.046-4.608"/>
  </defs>
  <path fill="#092E8C" d="M.417 31.117a.7.7 0 0 0 .737.758l2.597-.131a.704.704 0 0 0 .669-.641l.771-9.024a.704.704 0 0 0-.765-.758l-1.219.11-.55 6.482a.195.195 0 0 1-.194.18h-.027a.2.2 0 0 1-.18-.214l.545-6.406-.985.096a.706.706 0 0 0-.634.64l-.758 8.915z"/>
  <path fill="#0033C9" d="M2.1 66.166a3.345 3.345 0 0 0 3.264 3.624l14.825.262-14.26-.255a.52.52 0 0 1-.516-.51.534.534 0 0 1 .53-.544l37.778.544c.282.007.51.227.524.51v.13a.53.53 0 0 1-.503.545l9.479.172-.255-8.356-3.018.613a44.5 44.5 0 0 1-9.251.882l-35.222-.338a4.67 4.67 0 0 1-3.045-1.164l-.33 3.9z"/>
  <path fill="#97FFEB" d="m3.105 54.27-.682 8.005h5.89c-.104-3.52-.558-6.117-1.144-8.019l-4.057.014z"/>
  <path fill="#3C6BFF" d="M8.313 62.275h-5.89a4.7 4.7 0 0 0 3.045 1.157l35.222.337a44.4 44.4 0 0 0 9.251-.881l3.018-.613z"/>
  <path fill="#092E8C" d="M2.255 27.879a.2.2 0 0 0 .18.213h.027a.2.2 0 0 0 .193-.179l.55-6.482.297-3.451a.875.875 0 0 1 .985-.785l1.75.234h.014l.034-.393-1.743-.234a1.23 1.23 0 0 0-.957.269c-.276.22-.441.53-.469.881l-.303 3.52-.544 6.407z"/>
  <path fill="#97FFEB" d="m3.551 49.028-.44 5.242 4.057-.014c-1.413-4.608-3.617-5.228-3.617-5.228"/>
  <path fill="#00FFCE" d="M9.075 15.397v-.035l.021-.282a4.73 4.73 0 0 1 3.83-4.237l12.696-2.128 1.075-.18 1.068-.179 19.233-3.224a3.73 3.73 0 0 1 4.34 3.562l.069 2.204a1.09 1.09 0 0 1 1.144-.365l2.651.758c.11.027.193.13.193.241l1.474-.041v-.269l-.11-3.307c-.027-.868.813-1.515 1.64-1.26l7.419 2.225 1.054.317 1.364.413.985.296 1.26.38.786.233 3.127.937 3.162.944h.035l.668.213 1.364.407.882.269 7.447 2.232 7.928 2.376.972.29.888.268-.461-2.156.448-1.391L56.573 1.729a14.1 14.1 0 0 0-6.84-.434l-37.289 6.93a7.375 7.375 0 0 0-6 6.62l-.186 2.177-.035.393-.4 4.705-2.28 26.894s2.205.62 3.617 5.228c.593 1.908 1.04 4.506 1.144 8.026h32.294c-.11-3.541.682-6.2 1.902-8.184 2.535-4.14 6.923-5.394 8.948-5.76.668-.123 1.082-.144 1.082-.144l-.338-11.153c.02.64-.482 1.171-1.116 1.192l-2.583.076-1.55.048-10.023.303-1.364.041c.392.6.634.958.634.958a.35.35 0 0 1-.11.482.35.35 0 0 1-.483-.11l-.827-1.309-.42.014.606.971a.34.34 0 0 1-.11.469.34.34 0 0 1-.454-.117l-.772-1.296-1.309.042-1.295.041-4.367.131-1.061.035-1.068.034-3.093.096-1.26.042-.648 1.563a.34.34 0 0 1-.448.18.336.336 0 0 1-.165-.441l.565-1.275-.434.014-.73 1.578a.333.333 0 0 1-.47.165.353.353 0 0 1-.164-.469l.613-1.253-4.347.13-5.332.159a1.42 1.42 0 0 1-1.454-1.536L9.075 15.41zm5.828 39.08a.257.257 0 0 1 .248-.31h18.8c.179 0 .303.172.248.337-.055.18-.11.351-.159.53a1.08 1.08 0 0 1-1.04.786h-2.99l-.02.11a2.24 2.24 0 0 1-2.198 1.819h-6.648c-.557 0-1.067-.2-1.46-.545a2.25 2.25 0 0 1-.75-1.377h-2.867c-.523 0-.964-.372-1.06-.882-.035-.159-.062-.317-.097-.469z"/>
  <path fill="#3C6BFF" d="M5.41 69.287a.52.52 0 0 0 .518.51l14.26.255 7.86.137 8.452.152 7.212.13h.028a.525.525 0 0 0 .51-.544v-.13a.535.535 0 0 0-.524-.51l-37.778-.544a.534.534 0 0 0-.53.544z"/>
  <path fill="#437FF5" d="M7.162 37.97a1.42 1.42 0 0 0 1.453 1.537l5.332-.159-.654-21.7-.131-4.442-.682-.152c-1.598-.358-3.141.723-3.396 2.308v.034z"/>
  <path fill="#3C6BFF" d="m9.104 15.08-.021.282c.255-1.584 1.798-2.666 3.396-2.308l.682.152 4.395.971 3.899.868 1.26.283-.075-2.535a.76.76 0 0 1 .634-.772l2.266-.379.11-2.92-12.696 2.128a4.71 4.71 0 0 0-3.83 4.237z"/>
  <path fill="#437FF5" d="m13.293 17.64.655 21.707 4.347-.138.013-.02-.62-20.57z"/>
  <path fill="#437FF5" d="m13.153 13.207.138 4.436 4.395.978-.138-4.436v-.007z"/>
  <path fill="#3C6BFF" d="M15.155 54.166a.25.25 0 0 0-.248.31c.035.152.062.31.097.469.103.51.544.875 1.06.875h2.866c.083.558.358 1.04.751 1.384.393.345.903.544 1.46.544h6.648a2.24 2.24 0 0 0 2.218-1.928h2.99a1.09 1.09 0 0 0 1.04-.793c.049-.179.104-.35.159-.53a.258.258 0 0 0-.248-.338h-18.8z"/>
  <path fill="#092E8C" d="M17.679 40.472a.353.353 0 0 0 .165.468c.172.09.386.014.469-.165l.73-1.578 2.941-6.413 1.86-4.044.648-1.419c.09-.186-.2-.337-.29-.138l-.323.662-1.922 3.92-3.644 7.432v.021h-.007l-.613 1.254z"/>
  <path fill="#437FF5" d="m17.688 18.62.62 20.57 3.644-7.433-.372-12.269zm-.136-4.436.137 4.436 3.892.868-.13-4.436v-.007z"/>
  <path fill="#092E8C" d="M18.905 40.458a.336.336 0 0 0 .166.44c.172.076.372 0 .447-.179l.648-1.563 1.646-3.954 1.165-2.804.785-1.902.771-1.846c.083-.193-.22-.33-.31-.13l-.42.943-1.805 4.044-2.528 5.67-.565 1.274z"/>
  <path fill="#437FF5" d="m21.977 32.778-2.941 6.413.434-.014 2.535-5.67-.027-.73Z"/>
  <path fill="#0A2660" d="m28.048 70.19-7.86-.138c.758 2.893 2.26 4.863 3.927 4.815l8.356.027v-.034c-1.874.048-3.555-1.846-4.423-4.664v-.007Z"/>
  <path fill="#437FF5" d="m21.811 35.209-1.646 3.954 1.26-.041c.152-1.392.283-2.722.38-3.913z"/>
  <path fill="#3F66B1" d="m21.43 39.121 3.093-.096.152-4.23a.496.496 0 0 1-.482.427.565.565 0 0 1-.579-.578l.097-2.666a3.7 3.7 0 0 0-.73.42l-1.165 2.797a228 228 0 0 1-.379 3.92z"/>
  <path fill="#437FF5" d="m21.981 32.778.028.73 1.805-4.044.034-.73zm-.402-13.29.372 12.27 1.922-3.92.206-5.553a.56.56 0 0 1 .503-.537h.014a.5.5 0 0 1 .551.482l.07-1.942-3.631-.806z"/>
  <path fill="#437FF5" d="m21.444 15.053.131 4.443 3.63.806.145-4.106-1.86.255a.69.69 0 0 1-.785-.668l-.014-.455-1.26-.282zm2.33 15.45-.785 1.901a3.7 3.7 0 0 1 .73-.42l.055-1.48Z"/>
  <path fill="#092E8C" d="m22.702 15.328.013.455a.69.69 0 0 0 .786.668l1.86-.255.165-4.546-2.266.378a.76.76 0 0 0-.634.772l.076 2.535zm1.013 16.65-.096 2.666a.56.56 0 0 0 .578.579.5.5 0 0 0 .482-.427l.283-7.688.179-4.836v-.035a.5.5 0 0 0-.551-.482h-.014a.56.56 0 0 0-.503.538l-.207 5.552.324-.662c.09-.192.38-.04.29.138l-.648 1.42-.034.73.42-.944c.082-.2.392-.062.31.13l-.772 1.84-.055 1.488zm1.813-20.335-.165 4.546-.145 4.106-.069 1.942v.035l-.18 4.836-.275 7.626s0 .041-.006.062l-.152 4.23 1.068-.035L26.72 8.536l-1.075.179-.11 2.92z"/>
  <path fill="#092E8C" d="M24.673 34.796s.007-.035.007-.062l.275-7.626zm2.041-26.253-1.116 30.455 1.061-.034.393-10.643.048-1.42.186-5.028.041-1.11.159-4.38.02-.49.166-4.608.11-2.928z"/>
  <path fill="#3F66B1" d="m27.05 28.32-.393 10.642 4.367-.13c.145-1.392.262-2.7.359-3.851l-2.032-3.424h-.014l-1.35.069-.117 3.052a.47.47 0 0 1-.462.454h-.131a.445.445 0 0 1-.468-.468l.227-6.338.014-.007Z"/>
  <path fill="#092E8C" d="M26.814 34.658a.46.46 0 0 0 .468.476h.13a.486.486 0 0 0 .462-.462l.117-3.052.083-2.21-.64-1.069c-.11-.186.178-.358.289-.172l.372.593.02-.62-.716-1.137s-.028-.055-.028-.083h-.275l-.055 1.412-.227 6.338z"/>
  <path fill="#0A2660" d="m36.496 70.341-8.452-.152c.868 2.811 2.542 4.712 4.422 4.664 1.785-.055 3.286-1.867 4.023-4.512z"/>
  <path fill="#092E8C" d="m27.28 21.872-.186 5.021h.276c0-.13.207-.227.303-.089l.462.703.206-5.608a.47.47 0 0 0-.523-.482h-.124a.485.485 0 0 0-.413.455Zm.796 7.529 1.274 2.15 2.032 3.423.861 1.454 1.385 2.328.771 1.295a.336.336 0 0 0 .455.117.33.33 0 0 0 .11-.468l-.606-.971-2.15-3.424-.757-1.212-1.57-2.494-1.785-2.852-.372-.593c-.103-.186-.4-.013-.29.173l.642 1.067z"/>
  <path fill="#092E8C" d="M27.368 26.908s.014.055.027.082l.717 1.137 2.315 3.685 1.047 1.654.71 1.13 2.59 4.119.826 1.309a.353.353 0 0 0 .482.11.354.354 0 0 0 .11-.482s-.24-.358-.633-.958c-.744-1.123-2.06-3.107-3.403-5.125a1890 1890 0 0 0-4.023-6.055l-.462-.703c-.096-.138-.303-.041-.303.097"/>
  <path fill="#437FF5" d="m27.323 20.764-.041 1.11a.465.465 0 0 1 .413-.442h.124a.46.46 0 0 1 .524.476l-.207 5.607 4.023 6.048-.358-11.814-4.478-.992z"/>
  <path fill="#437FF5" d="m31.803 21.754 11.524 2.563 5.429 1.198-.131-4.436-21.142-4.698-.158 4.381z"/>
  <path fill="#3C6BFF" d="m27.51 15.893-.013.49 21.142 4.69-.076-2.548a1.216 1.216 0 0 1 1.04-1.24l1.75-.262-.166-5.408a1.1 1.1 0 0 1 .242-.716l-.07-2.204a3.722 3.722 0 0 0-4.34-3.562L27.787 8.357l-.11 2.928 2.15-.365a.7.7 0 0 1 .812.668l.097 3.176a.755.755 0 0 1-.655.771z"/>
  <path fill="#092E8C" d="m27.67 11.284-.173 4.608 2.57-.358a.77.77 0 0 0 .654-.772l-.096-3.175a.703.703 0 0 0-.813-.669l-2.15.366z"/>
  <path fill="#437FF5" d="m28.072 29.402-.083 2.218 1.343-.062.014-.007-1.274-2.15Zm.023-.655 1.784 2.852c.2.042.386.117.55.214l-2.314-3.686z"/>
  <path fill="#3F66B1" d="m29.88 31.606 1.57 2.494c.007-.117.02-.228.028-.345.007-.096 0-.193 0-.289l-1.047-1.653a1.9 1.9 0 0 0-.552-.214v.007Zm1.136 7.226 1.296-.042-.07-2.37-.86-1.446c-.097 1.15-.214 2.46-.359 3.85z"/>
  <path fill="#3F66B1" d="M31.478 33.755c-.007.11-.021.22-.028.345l.758 1.212-.02-.71-.71-1.13v.29z"/>
  <path fill="#437FF5" d="m32.247 36.422.076 2.37 1.309-.041zm-.059-1.827.02.71 2.15 3.423.42-.014zm-.378-12.84.357 11.814c1.344 2.025 2.66 4.002 3.403 5.125l1.364-.04c.173-1.634.317-3.177.42-4.492a3.44 3.44 0 0 1 3.266-3.142l2.914-.137-.2-6.558-11.525-2.563v-.007Z"/>
  <path fill="#3F66B1" d="m36.93 38.653 10.024-.304c.165-1.66.31-3.203.413-4.505a2.79 2.79 0 0 0-2.873-3.017h-.055l-.91.048-2.913.138a3.44 3.44 0 0 0-3.265 3.141c-.11 1.323-.248 2.859-.42 4.492v.007Z"/>
  <path fill="#97FFEB" d="M40.611 62.281h11.27v-.02l-.248-8.212-9.12.041c-1.213 1.991-2.005 4.643-1.902 8.191"/>
  <path fill="#97FFEB" d="m42.513 54.091 9.12-.041-.172-5.718c-2.025.372-6.413 1.626-8.948 5.76Z"/>
  <path fill="#437FF5" d="m43.329 24.318.2 6.558.909-.041h.055c3.114-.145 4.63.95 4.333 3.975-.103 1.06-.2 2.252-.324 3.5l2.584-.077a1.15 1.15 0 0 0 1.116-1.191l-.228-7.502-1.79.179a1.216 1.216 0 0 1-1.337-1.178l-.09-3.024-5.428-1.206z"/>
  <path fill="#3F66B1" d="M48.822 34.809c.296-3.031-1.22-4.12-4.333-3.982a2.8 2.8 0 0 1 2.873 3.017 190 190 0 0 1-.414 4.505l1.55-.048c.124-1.247.228-2.439.324-3.5z"/>
  <path fill="#092E8C" d="m48.755 25.516.09 3.024c.02.71.633 1.247 1.336 1.178l1.79-.179 2.102-.22a1.215 1.215 0 0 0 1.095-1.247l-.034-1.137-6.38-1.419Z"/>
  <path fill="#092E8C" d="m48.627 21.08.131 4.443 6.379 1.419-.138-4.643-2.99-.662.07 2.398c0 .151-.11.268-.255.275a.27.27 0 0 1-.276-.255l-.076-2.514-.138-4.498-1.75.261c-.612.09-1.06.62-1.04 1.24l.076 2.55.007-.015Z"/>
  <path fill="#FBDB5C" d="M51.878 62.26v.021h1.088l-.248-8.239-1.088.007z"/>
  <path fill="#FBDB5C" d="m51.457 48.331.172 5.718h1.082l-.18-5.862s-.413.02-1.081.144z"/>
  <path fill="#092E8C" d="m51.473 21.528.076 2.514a.26.26 0 0 0 .276.255.264.264 0 0 0 .255-.275l-.07-2.398-.468-.103h-.069z"/>
  <path fill="#092E8C" d="m51.33 17.029.138 4.498h.07l.468.103-.138-4.67-.159-5.346c0-.172.076-.344.214-.455a.63.63 0 0 1 .324-.123 1 1 0 0 1 .172.02l2.659.758s.055.014.083.014a.25.25 0 0 0 .24-.193.4.4 0 0 0 .014-.083.26.26 0 0 0-.192-.241l-2.653-.758a1 1 0 0 0-.337-.041c-.227 0-.448.09-.634.234a1 1 0 0 0-.172.172 1.04 1.04 0 0 0-.241.717l.165 5.407z"/>
  <path fill="#00FFCE" d="m52.959 62.28.254 8.357 3.7.062 5.139-.09 5.62-.096-.027-1.543h-.661l-8.37.055-.138-4.609-1.115-36.992-2.226-.49.035 1.137a1.216 1.216 0 0 1-1.096 1.247l-2.1.22.227 7.503.337 11.152.18 5.856.247 8.239z"/>
  <path fill="#092E8C" d="m51.867 16.953.138 4.67 2.99.662-.131-4.402a1.222 1.222 0 0 0-1.399-1.171l-1.605.234z"/>
  <path fill="#00FFCE" d="m51.703 11.608.159 5.345 1.605-.234a1.23 1.23 0 0 1 1.398 1.171l.131 4.402 2.225.496-.33-10.905-.014-.385-1.474.04s0 .063-.014.083a.25.25 0 0 1-.241.193c-.028 0-.055 0-.083-.013l-2.659-.758a.7.7 0 0 0-.172-.02.5.5 0 0 0-.324.123.56.56 0 0 0-.213.455z"/>
  <path fill="#00FFCE" d="m55 22.291.139 4.643 2.225.49-.138-4.637z"/>
  <path fill="#3C6BFF" d="m58.481 64.417.138 4.609 8.37-.048v-.035l-.131-4.409zM57.36 27.423l1.116 36.993 8.377.117-1.061-35.236z"/>
  <path fill="#3C6BFF" d="m57.22 22.79.137 4.635L65.79 29.3l-.145-4.643zm-.329-10.9.331 10.897 8.425 1.867-.31-10.395-8.446-2.37Z"/>
  <path fill="#3F66B1" d="m56.886 11.498.007.393 8.445 2.37.648-.47-9.114-2.555z"/>
  <path fill="#3C6BFF" d="m56.779 7.922.096 3.307 9.107 2.555-.144-4.905-7.42-2.225a1.276 1.276 0 0 0-1.64 1.261v.007Z"/>
  <path fill="#0A2660" d="m69.35 70.487-1.681.027-5.621.097c.792 2.631 2.218 4.381 3.788 4.333v.013l9.466.021c-2.095-.44-3.81-4.03-3.94-8.445-.145-4.76 1.611-8.673 3.919-8.742h.22l.11-1.33-1.804-.144c-2.522 1.15-4.189 5.104-4.037 10.043l.124 4.106-.53.014z"/>
  <path fill="#3F66B1" d="M66.99 68.943v.034l.66-.007v-.048l-.881-29.105-.31-10.374-.661-.145 1.06 35.236.131 4.409Z"/>
  <path fill="#3F66B1" d="m65.653 24.655.145 4.643.661.144-.138-4.636z"/>
  <path fill="#3F66B1" d="m65.337 14.26.31 10.394.668.152-.33-11.015z"/>
  <path fill="#00FFCE" d="m78.05 42.035-.772-.151-1.323-.255-.875-.172-1.343-.27-6.978-1.37.874 29.112v.048l.028 1.543 1.68-.027-.123-4.1c-.152-5.131 1.557-9.272 4.347-10.546l.124-.055 3.892.317.11.069c2.411 1.53 3.995 5.297 4.126 9.83l.131 4.271v.014l13.13-.2 2.342-.034-.013-1.275h-.593l-7.26.048-.118-3.988-.62-20.68-1.805-.358-.826-.159-1.33-.262-.654-.13-3.61-.71-2.142-.427-.42-.083h.02Z"/>
  <path fill="#437FF5" d="m66.454 29.442.31 10.375 6.978 1.37-2.273-10.629z"/>
  <path fill="#3C6BFF" d="m66.317 24.807.138 4.636 5.015 1.116-1.04-4.836zm-.333-11.017.331 11.016 4.113.916-3.534-16.52-1.061-.31z"/>
  <path fill="#3C6BFF" d="m66.891 9.204 3.534 16.52 1.344.295-3.52-16.402z"/>
  <path fill="#314892" d="m69.227 66.388.123 4.099.53-.014-.123-4.106c-.152-4.939 1.515-8.893 4.037-10.043l1.805.144 1.818.152c2.19 1.391 3.748 4.96 3.885 9.396l.131 4.271h.53v-.014l-.13-4.27c-.138-4.534-1.715-8.302-4.126-9.83l-.11-.07-3.893-.317-.124.055c-2.797 1.275-4.505 5.415-4.347 10.547z"/>
  <path fill="#3C6BFF" d="m68.25 9.617 3.52 16.402.965.214-3.492-16.326zm.997.289 3.493 16.327 1.246.275-3.479-16.223z"/>
  <path fill="#3C6BFF" d="m70.43 25.723 1.04 4.835 1.344.297-1.04-4.836zm.075-15.437 3.479 16.223.771.172-3.465-16.16zm4.8 64.698q.247.051.496.041c1.605-.048 2.941-1.95 3.561-4.698.27-1.212.407-2.583.366-4.037-.138-4.608-2.005-8.314-4.223-8.487h-.22c-2.308.07-4.065 3.982-3.92 8.742.13 4.416 1.853 8.005 3.94 8.446zm-2.156-8.494c-.09-2.866.785-5.938 2.583-5.986s2.859 2.962 2.948 5.82c.09 2.86-.785 5.939-2.59 5.994s-2.852-2.962-2.941-5.828"/>
  <path fill="#437FF5" d="m71.47 30.559 2.273 10.63 1.343.268-2.273-10.602z"/>
  <path fill="#3C6BFF" d="m71.29 10.518 3.465 16.162 2.576.571-3.19-14.873.276-.916zm.476 15.502 1.04 4.836.965.22-1.04-4.843z"/>
  <path fill="#B2CEF3" d="m73.686 66.47.779-.034c-.048-1.612.682-2.666 1.212-2.687.427-.013 1.02.627 1.261 1.716l.165.179.049 1.508.998.042a9 9 0 0 0 0-.861c-.09-2.97-1.157-5.346-2.397-5.305s-2.156 2.473-2.067 5.442"/>
  <path fill="#B2CEF3" d="m74.455 66.442-.778.034c.09 2.97 1.157 5.353 2.39 5.311 1.116-.034 1.977-2.018 2.067-4.588l-1-.04-.171.199c-.2 1.04-.73 1.667-1.137 1.68-.524.014-1.323-.991-1.371-2.603z"/>
  <path fill="#437FF5" d="M75.73 60.497c-1.797.055-2.672 3.127-2.582 5.986s1.143 5.883 2.941 5.828 2.673-3.134 2.59-5.993c-.082-2.86-1.143-5.876-2.948-5.821Zm.345 11.29c-1.233.035-2.3-2.342-2.39-5.31-.09-2.97.834-5.408 2.067-5.443s2.307 2.335 2.397 5.304c.007.29.007.586 0 .862-.09 2.562-.95 4.553-2.067 4.587zM72.81 30.856l2.273 10.602.874.172.035-.2-2.218-10.354-.965-.22Z"/>
  <path fill="#3C6BFF" d="m72.731 26.233 1.04 4.842 1.24.276-1.033-4.843z"/>
  <path fill="#437FF5" d="M75.672 63.755c-.523.014-1.26 1.068-1.212 2.686.048 1.62.847 2.625 1.37 2.604.407-.013.938-.647 1.138-1.68l-.476.537-.854.027-.696-.771-.041-1.502.648-.737.86-.028.531.586c-.248-1.088-.84-1.73-1.26-1.715zm-1.898-32.68 2.218 10.353-.034.2 1.323.255-2.267-10.533z"/>
  <path fill="#092E8C" d="m75.717 65.663-.86.023.039 1.5.86-.022-.04-1.501Z"/>
  <path fill="#092E8C" d="m74.938 67.152.696.771.854-.027-.695-.772zm.612-2.24-.647.737.854-.027.655-.737z"/>
  <path fill="#3C6BFF" d="m73.985 26.509 1.034 4.843.778.165-1.04-4.836z"/>
  <path fill="#0A2660" d="m75.607 56.474-.11 1.33c2.218.165 4.085 3.871 4.223 8.487.041 1.454-.09 2.831-.365 4.037l2.08-.028-.13-4.278c-.132-4.443-1.696-8.004-3.886-9.396l-1.819-.151z"/>
  <path fill="#3C6BFF" d="m74.417 11.463-.276.917 3.19 14.872.696.152-.028-.999-.034-1.185-.386-12.806v-.007z"/>
  <path fill="#092E8C" d="m76.965 67.366.172-.2-.048-1.509-.165-.179-.53-.585-.655.737.048 1.501.696.772.475-.537zm-.84-.958c-.014-.365.103-.661.255-.668.151-.007.282.282.29.647.006.365-.104.662-.249.669s-.282-.283-.296-.648"/>
  <path fill="#3C6BFF" d="m74.755 26.68 1.04 4.836 2.376.53-.034-1.033-.806-3.761zm.262 4.672 2.266 10.533.765.151-2.253-10.519z"/>
  <path fill="#092E8C" d="M76.378 65.74c-.152 0-.269.303-.255.668s.145.654.296.647c.152-.007.262-.303.248-.668s-.145-.654-.29-.647Z"/>
  <path fill="#437FF5" d="m75.794 31.517 2.252 10.52.427.082-.303-10.071-2.376-.53Z"/>
  <path fill="#3C6BFF" d="m77.333 27.251.806 3.761-.11-3.61-.696-.15Z"/>
  <path fill="#437FF5" d="m78.169 32.047.303 10.07 2.135.428-2.245-10.457z"/>
  <path fill="#437FF5" d="m78.13 31.013.034 1.034.193.041z"/>
  <path fill="#3C6BFF" d="m78.024 27.403.11 3.61.228 1.075 3.637.813-1.04-4.843zm-.019-.999.027.999 2.935.654-.165-.792z"/>
  <path fill="#3C6BFF" d="M77.966 25.219 78 26.404l2.797.86-.317-1.446-2.514-.6Z"/>
  <path fill="#3C6BFF" d="m77.575 12.415.386 12.806 2.514.6-2.872-13.407-.028-.006zm.031-.001L80.48 25.82l.661.158-2.865-13.357-.669-.207Z"/>
  <path fill="#437FF5" d="m78.36 32.088 2.246 10.457 3.61.71-2.219-10.354z"/>
  <path fill="#3C6BFF" d="m78.27 12.62 2.866 13.358 1.343.317-2.845-13.268-1.364-.406Zm1.367.407 2.845 13.268.834.2-2.818-13.138.021-.068z"/>
  <path fill="#3C6BFF" d="m80.481 25.82.317 1.446.668.213-.323-1.501zm.985 1.66-.668-.214.165.792.661.145zm-.949-14.192-.02.07 2.817 13.136 5.015 1.192-.206-7.02-.021-.648-.138-4.498z"/>
  <path fill="#3C6BFF" d="m80.958 28.058 1.04 4.842.655.145-1.034-4.843-.66-.145Zm.18-2.08.323 1.502 1.364.42-.344-1.605z"/>
  <path fill="#3C6BFF" d="m81.466 27.48.158.723 1.337.296-.131-.599zm.156.723 1.033 4.843 1.344.29-1.04-4.837z"/>
  <path fill="#437FF5" d="m82.005 32.9 2.218 10.354.654.131-2.218-10.34z"/>
  <path fill="#3C6BFF" d="m82.653 33.046 2.218 10.34 1.33.262-2.204-10.313zm-.172-6.751.345 1.605.847.262-.358-1.667z"/>
  <path fill="#3C6BFF" d="m82.829 27.9.13.6.827.185-.11-.523z"/>
  <path fill="#3C6BFF" d="m82.958 28.5 1.04 4.835.827.193-1.04-4.843-.827-.186Zm.359-2.006.358 1.667 4.72 1.46-.063-1.935z"/>
  <path fill="#3C6BFF" d="m83.669 28.161.11.524 4.609 1.02v-.083l-4.72-1.46Z"/>
  <path fill="#3C6BFF" d="m88.394 29.703-4.608-1.019 1.04 4.843 3.706.82z"/>
  <path fill="#437FF5" d="M83.997 33.335 86.2 43.648l.827.158-2.205-10.278zm.832.193 2.204 10.278 1.798.358-.296-9.817-3.706-.82Z"/>
  <path fill="#3C6BFF" d="m89.454 64.844.117 3.989 7.26-.049v-.069l-.116-3.775zm-.626-20.681.627 20.68 7.26.096-.867-28.973-7.316-1.62z"/>
  <path fill="#3C6BFF" d="m88.391 29.704.138 4.643 7.316 1.62-.145-4.637zm.008-.082v.083l7.309 1.625-.055-1.9-7.316-1.744z"/>
  <path fill="#3C6BFF" d="m88.122 20.667.207 7.02 7.315 1.742-.2-6.703z"/>
  <path fill="#3F66B1" d="m88.106 20.02.02.647 7.324 2.06.578-.483-7.901-2.225h-.02Z"/>
  <path fill="#3C6BFF" d="m87.966 15.52.137 4.498h.021l7.901 2.225-.13-4.34v-.007z"/>
  <path fill="#0A2660" d="M95.098 70.094c.669 2.245 1.881 3.733 3.21 3.692l8.116.041c-1.95.062-3.631-3.155-3.755-7.17-.124-4.017 1.364-7.33 3.314-7.385 1.949-.056 3.63 3.154 3.754 7.178.034 1.24-.076 2.404-.31 3.43l1.764-.027v-.028l-.111-3.603c-.11-3.754-1.433-6.764-3.279-7.942l-3.065-.255c-2.129.97-3.541 4.319-3.41 8.493l.103 3.465v.014l-.448.007-3.533.055-2.343.035z"/>
  <path fill="#3F66B1" d="M96.83 68.716v.069h.592v-.09l-.689-22.974-.289-9.616-.6-.138.869 28.974zM95.704 31.33l.145 4.636.599.138-.145-4.643-.6-.13Z"/>
  <path fill="#3F66B1" d="m95.645 29.43.055 1.9.6.132-.055-1.888zm-.199-6.704.2 6.703.6.145-.221-7.33z"/>
  <path fill="#00FFCE" d="M112.466 39.658c-1.908 1.185-3.995 3.582-3.851 8.404l-3.444-.675-1.268-.248-.868-.172-6.296-1.24.696 22.974v.083l.014 1.274 3.534-.055v-.014l-.104-3.465c-.131-4.34 1.316-7.832 3.679-8.914l.11-.048 3.286.276.089.055c2.04 1.295 3.376 4.477 3.486 8.308l.11 3.602v.035l2.79-.041a3.115 3.115 0 0 0 3.059-3.204l-.923-30.73-.345.013-.792-.179.083 2.825s-1.461.151-3.038 1.13z"/>
  <path fill="#3C6BFF" d="m96.446 36.104.29 9.617 6.296 1.24-2.115-9.865-4.47-.992Z"/>
  <path fill="#437FF5" d="m96.305 31.462.145 4.643 4.471.992-1.04-4.836-3.576-.8Z"/>
  <path fill="#437FF5" d="m96.247 29.574.055 1.887 3.575.8-.406-1.923z"/>
  <path fill="#437FF5" d="m96.022 22.245.22 7.33 3.225.764-2.604-12.152-.972-.289v.007z"/>
  <path fill="#3C6BFF" d="m97.753 18.455-.889-.269 2.604 12.152.875.206z"/>
  <path fill="#00FFCE" d="m97.745 14.914-.447 1.391.461 2.157 6.6 1.984 9.224 2.762a2.14 2.14 0 0 1 1.515 1.984l.269 8.942.792.186.344-.014-.31-10.257a4.61 4.61 0 0 0-3.203-4.25l-15.251-4.885z"/>
  <path fill="#437FF5" d="m97.763 18.456 2.59 12.09 4.346 1.032-.337-11.139z"/>
  <path fill="#3C6BFF" d="m99.47 30.337.406 1.923.882.186-.413-1.902z"/>
  <path fill="#314892" d="M100.969 69.99v.014l.454-.007v-.014l-.103-3.465c-.124-4.175 1.281-7.516 3.41-8.494l3.065.255c1.847 1.178 3.169 4.188 3.279 7.943l.111 3.603v.027l.447-.007v-.034l-.11-3.603c-.117-3.837-1.446-7.013-3.485-8.308l-.09-.055-3.286-.276-.11.049c-2.363 1.081-3.81 4.574-3.679 8.914l.104 3.465z"/>
  <path fill="#3C6BFF" d="m99.872 32.26 1.04 4.835.875.193-1.033-4.842z"/>
  <path fill="#437FF5" d="m100.341 30.545.413 1.901 3.982.889-.049-1.757z"/>
  <path fill="#437FF5" d="m100.759 32.446 1.033 4.843 3.093.689-.145-4.643zm.16 4.651 2.115 9.864.868.173-2.108-9.844z"/>
  <path fill="#3C6BFF" d="m101.794 37.289 2.108 9.844 1.267.248-.282-9.403zm4.183 21.981c-1.949.063-3.431 3.37-3.313 7.386s1.804 7.226 3.754 7.17c1.35-.04 2.473-1.639 3.003-3.947a13.5 13.5 0 0 0 .31-3.43c-.124-4.023-1.804-7.233-3.754-7.178Zm-1.798 7.344c-.076-2.425.668-5.015 2.184-5.063 1.515-.048 2.411 2.5 2.487 4.919.075 2.418-.675 5.015-2.184 5.056s-2.411-2.5-2.487-4.919z"/>
  <path fill="#B2CEF3" d="M104.633 66.6v.035l.682-.035c-.035-1.17.565-1.963.971-1.977.269-.007.634.317.861.868l.365.414.042 1.267.847.021a6 6 0 0 0 0-.71c-.076-2.514-.978-4.519-2.025-4.491s-1.833 2.094-1.757 4.602l.014.007Z"/>
  <path fill="#B2CEF3" d="M104.633 66.635c.082 2.494.985 4.478 2.025 4.443.937-.027 1.674-1.715 1.743-3.885l-.847-.02-.324.364c-.193.6-.558.965-.834.972-.406.013-1.054-.744-1.088-1.915l-.682.034z"/>
  <path fill="#437FF5" d="M106.362 61.551c-1.516.049-2.26 2.639-2.184 5.064.076 2.424.971 4.96 2.487 4.918 1.515-.041 2.259-2.638 2.183-5.056-.075-2.418-.971-4.967-2.486-4.919zm-1.736 5.084v-.034c-.076-2.515.709-4.574 1.749-4.602s1.95 1.977 2.026 4.492q.01.359 0 .71c-.076 2.17-.806 3.857-1.743 3.884-1.04.035-1.943-1.956-2.025-4.443z"/>
  <path fill="#437FF5" d="M106.282 64.624c-.406.014-1.006.806-.971 1.978.034 1.17.682 1.921 1.088 1.915.276-.007.641-.372.834-.972l-.228.255-.73.02-.585-.647-.042-1.274.551-.62.731-.02.206.24c-.227-.55-.592-.874-.861-.868z"/>
  <path fill="#092E8C" d="m106.415 65.836-.723.022.039 1.274.723-.022z"/>
  <path fill="#092E8C" d="m106.208 65.272-.551.626.723-.02.551-.627zm-.516 1.901.586.647.73-.02-.592-.648z"/>
  <path fill="#3C6BFF" d="m104.884 37.977.282 9.404 3.444.675c-.144-4.822 1.943-7.22 3.851-8.404l-7.577-1.681v.007Z"/>
  <path fill="#437FF5" d="m104.739 33.335.138 4.643 7.577 1.681c1.585-.978 3.038-1.13 3.038-1.13l-.082-2.824zm-.043-1.757.048 1.757 10.671 2.37-.048-1.578z"/>
  <path fill="#437FF5" d="m104.352 20.44.338 11.138 10.677 2.543-.268-8.942a2.13 2.13 0 0 0-1.516-1.984l-9.224-2.762-.007.006Z"/>
  <path fill="#092E8C" d="m106.384 65.876.034 1.275.586.647.227-.255.324-.365-.042-1.267-.365-.407-.206-.24-.552.62zm.316.662c-.006-.31.09-.558.214-.565s.234.24.248.55-.083.559-.214.566c-.13.007-.241-.241-.248-.551"/>
  <path fill="#092E8C" d="M106.911 65.974c-.131 0-.227.255-.214.565s.124.551.248.551.221-.255.214-.565-.117-.558-.248-.55Z"/>
  <path fill="#00FFCE" d="m115.36 34.127.048 1.578.793.172.344-.007-.041-1.564-.352.007z"/>
  <path stroke="#000" stroke-linecap="round" stroke-linejoin="round" stroke-width=".22" d="m43.747 70.472 9.472.165 3.7.069 5.138-.09 5.621-.096 1.681-.034.53-.007m39.539-.599 1.763-.028h.448l2.79-.048a3.114 3.114 0 0 0 3.058-3.204l-.923-30.73-.048-1.564-.31-10.257a4.61 4.61 0 0 0-3.203-4.25l-15.252-4.885L56.598 1.736a14.1 14.1 0 0 0-6.84-.434l-37.29 6.93a7.375 7.375 0 0 0-6 6.62l-.185 2.177-.035.393-.4 4.705-2.28 26.893-.44 5.243-.683 8.005-.33 3.899A3.345 3.345 0 0 0 5.38 69.79l14.825.262m59.151.281h.007l2.074-.034.53-.014 13.13-.193 2.342-.034 3.534-.055.455-.007"/>
  <path stroke="#000" stroke-linecap="round" stroke-linejoin="round" stroke-width=".22" d="m89.571 68.833 7.26-.049h.593m-38.814.242 8.37-.048.661-.007m-1.655-55.179-9.114-2.556m39.151 11.007-7.901-2.225m-22.137-6.226-.648.468-8.446-2.37m38.554 10.835-7.323-2.06m.701 23.499-1.798-.358-.826-.159-1.33-.261-.654-.131-3.61-.71-2.136-.427-.427-.083-.764-.151-1.323-.255-.875-.172-1.343-.269-6.978-1.37m41.856 8.237-3.444-.675-1.268-.248-.868-.172-6.296-1.24M65.337 14.26l.31 10.395.144 4.643 1.061 35.236.131 4.408"/>
  <path stroke="#000" stroke-linecap="round" stroke-linejoin="round" stroke-width=".22" d="m65.833 8.893.151 4.898.331 11.015.138 4.636.31 10.374.882 29.105m9.93-56.506.386 12.806.034 1.184.028 1 .11 3.61.034 1.032.303 10.072v.007m6.402 1.258.048.214m19.432-23.158.338 11.138.048 1.757.145 4.643.282 9.403"/>
  <path stroke="#000" stroke-linecap="round" stroke-linejoin="round" stroke-width=".22" d="M108.614 48.057c-.145-4.822 1.942-7.22 3.85-8.404 1.585-.978 3.038-1.13 3.038-1.13l-.082-2.825-.049-1.577-.268-8.942a2.13 2.13 0 0 0-1.516-1.983l-9.224-2.763-6.6-1.984-.888-.269-.971-.289-7.93-2.376-7.446-2.232-.882-.27-1.364-.405-.668-.2h-.034l-3.162-.958-3.128-.937-.785-.234-1.26-.379-.986-.296-1.364-.413-1.054-.317-7.419-2.225a1.276 1.276 0 0 0-1.64 1.26l.097 3.307v.269l.02.385.331 10.905.138 4.636 1.116 36.993.138 4.609"/>
  <path stroke="#000" stroke-linecap="round" stroke-linejoin="round" stroke-width=".22" d="m87.966 15.52.137 4.498.021.648.207 7.02.062 1.935v.083l.138 4.643.296 9.816.627 20.68.117 3.989m6.454-46.589-.579.482.2 6.702.055 1.902.145 4.636.868 28.974.117 3.775"/>
  <path stroke="#000" stroke-linecap="round" stroke-linejoin="round" stroke-width=".22" d="m95.891 17.905.131 4.34.22 7.33.056 1.887.144 4.643.29 9.617.689 22.974M75.5 57.803h-.22c-2.307.069-4.064 3.981-3.92 8.742.132 4.415 1.854 8.004 3.941 8.445q.247.052.496.041c1.605-.048 2.942-1.95 3.562-4.698.268-1.212.406-2.583.365-4.037-.138-4.608-2.005-8.314-4.223-8.487z"/>
  <path stroke="#000" stroke-linecap="round" stroke-linejoin="round" stroke-width=".22" d="m81.964 70.28-.131-4.27c-.138-4.534-1.715-8.302-4.126-9.831l-.11-.069-3.893-.317-.124.055c-2.797 1.275-4.505 5.415-4.347 10.547l.124 4.099"/>
  <path stroke="#000" stroke-linecap="round" stroke-linejoin="round" stroke-width=".22" d="m81.433 70.293-.131-4.272c-.13-4.443-1.695-8.004-3.885-9.396l-1.819-.151-1.805-.145c-2.521 1.15-4.188 5.105-4.037 10.044l.124 4.105m6.612-2.582-.855.027"/>
  <path stroke="#000" stroke-linecap="round" stroke-linejoin="round" stroke-width=".22" d="m75.792 67.124.696.771.475-.53.18-.207-.049-1.508-.165-.18-.524-.585-.654.737zm-.242-2.211-.647.737.041 1.502.696.771m.117-2.301-.854.028m1.506-.765-.861.027m.245 2.212-.855.028"/>
  <path stroke="#000" stroke-linecap="round" stroke-linejoin="round" stroke-width=".22" d="M76.09 72.318c1.797-.055 2.672-3.135 2.59-5.993-.083-2.86-1.144-5.877-2.949-5.821-1.805.055-2.673 3.127-2.583 5.986s1.143 5.883 2.941 5.828Z"/>
  <path stroke="#000" stroke-linecap="round" stroke-linejoin="round" stroke-width=".22" d="M73.686 66.469c.09 2.969 1.157 5.353 2.39 5.311 1.116-.034 1.977-2.018 2.067-4.588a9 9 0 0 0 0-.86c-.09-2.97-1.158-5.346-2.398-5.305s-2.156 2.473-2.066 5.442z"/>
  <path stroke="#000" stroke-linecap="round" stroke-linejoin="round" stroke-width=".22" d="M76.933 65.47c-.248-1.088-.84-1.729-1.26-1.715-.524.014-1.261 1.068-1.213 2.687s.847 2.624 1.37 2.604c.407-.014.938-.648 1.138-1.681v-.014"/>
  <path stroke="#000" stroke-linecap="round" stroke-linejoin="round" stroke-width=".22" d="M76.123 66.408c.014.365.145.654.296.647.152-.006.262-.303.248-.668s-.145-.654-.29-.647c-.144.007-.268.303-.254.668m33.298 3.471c.235-1.027.352-2.198.31-3.43-.124-4.024-1.804-7.234-3.754-7.179s-3.431 3.369-3.313 7.385 1.804 7.226 3.754 7.171c1.35-.041 2.473-1.64 3.003-3.947m-14.323.213c.669 2.24 1.881 3.727 3.21 3.686"/>
  <path stroke="#000" stroke-linecap="round" stroke-linejoin="round" stroke-width=".22" d="m111.629 69.81-.11-3.602c-.118-3.837-1.447-7.013-3.486-8.308l-.09-.055-3.286-.275-.11.048c-2.363 1.081-3.809 4.574-3.678 8.914l.103 3.465"/>
  <path stroke="#000" stroke-linecap="round" stroke-linejoin="round" stroke-width=".22" d="m111.19 69.824-.11-3.603c-.11-3.755-1.433-6.765-3.279-7.943l-3.066-.255c-2.128.971-3.54 4.32-3.41 8.494l.104 3.465m4.988 3.844-8.115-.041m8.702-5.986-.73.02"/>
  <path stroke="#000" stroke-linecap="round" stroke-linejoin="round" stroke-width=".22" d="m107.148 65.492-.213-.241-.551.627.034 1.274.592.648.221-.262.324-.365-.035-1.268-.372-.406m-.94-.229-.551.627.035 1.274.585.648m.103-1.942-.723.02m1.27-.647-.723.022m.212 1.881-.724.02"/>
  <path stroke="#000" stroke-linecap="round" stroke-linejoin="round" stroke-width=".22" d="M106.665 71.526c1.515-.048 2.259-2.638 2.183-5.056-.075-2.418-.971-4.967-2.486-4.919s-2.26 2.638-2.184 5.063.971 4.96 2.487 4.919z"/>
  <path stroke="#000" stroke-linecap="round" stroke-linejoin="round" stroke-width=".22" d="M108.401 67.193a6 6 0 0 0 0-.71c-.076-2.514-.978-4.519-2.025-4.491-1.047.027-1.833 2.094-1.757 4.602v.034c.09 2.494.985 4.478 2.025 4.443.937-.027 1.674-1.715 1.743-3.885z"/>
  <path stroke="#000" stroke-linecap="round" stroke-linejoin="round" stroke-width=".22" d="M107.143 65.498c-.227-.558-.592-.881-.861-.874-.406.013-1.006.806-.971 1.977.034 1.17.682 1.922 1.088 1.915.276-.007.641-.372.834-.972"/>
  <path stroke="#000" stroke-linecap="round" stroke-linejoin="round" stroke-width=".22" d="M106.697 66.54c.007.309.124.55.248.55s.221-.255.214-.565-.117-.558-.248-.55c-.131.006-.227.254-.214.564ZM27.782 8.355l19.233-3.224a3.73 3.73 0 0 1 4.34 3.562l.07 2.204M9.083 15.361l.02-.282a4.73 4.73 0 0 1 3.83-4.237L25.63 8.714m-7.322 30.498h-.014l-4.347.13-5.332.159a1.42 1.42 0 0 1-1.453-1.536L9.084 15.39M19.47 39.177l-.434.014m2.397-.071-1.268.035m13.462-.407-1.309.041-1.302.042m3.76-.117-.42.014m2.575-.076-1.364.042m16.636-1.66c.02.64-.482 1.17-1.116 1.191l-2.583.076-1.55.048M26.714 8.543l-1.116 30.455m1.452-10.679-.393 10.643m-1.445-18.668.144-4.106.166-4.547.11-2.92 1.075-.18 1.067-.186-.11 2.928-.165 4.609-.02.489-.16 4.381-.04 1.11m-2.142.366.07-1.943m-.679 18.731.152-4.23.282-7.681m-4.774 42.937c.758 2.893 2.26 4.863 3.927 4.815m3.929-4.677c.868 2.81 2.542 4.712 4.422 4.663 1.785-.055 3.286-1.867 4.023-4.512m14.845-53.312-1.75.262c-.612.09-1.06.62-1.04 1.24l.076 2.549.131 4.443.09 3.024c.02.71.633 1.247 1.336 1.178l1.791-.18 2.101-.22a1.215 1.215 0 0 0 1.095-1.247l-.034-1.136-.138-4.643-.13-4.402a1.222 1.222 0 0 0-1.399-1.171l-1.605.234"/>
  <path stroke="#000" stroke-linecap="round" stroke-linejoin="round" stroke-width=".22" d="m51.468 21.527.076 2.515c0 .151.13.262.276.255a.263.263 0 0 0 .254-.276l-.069-2.397-.137-4.67-.159-5.346c0-.173.076-.345.214-.455a.63.63 0 0 1 .324-.124 1 1 0 0 1 .172.02l2.659.758s.055.014.083.014a.25.25 0 0 0 .24-.193.4.4 0 0 0 .014-.082.26.26 0 0 0-.192-.241l-2.653-.758a1 1 0 0 0-.337-.042c-.227 0-.448.09-.634.235a1 1 0 0 0-.172.172 1.04 1.04 0 0 0-.241.716l.165 5.408.138 4.498zm-45.193-4.49-1.743-.234a1.23 1.23 0 0 0-.957.269c-.276.22-.441.53-.469.881l-.303 3.52-.544 6.407a.2.2 0 0 0 .18.214h.027a.2.2 0 0 0 .193-.18l.55-6.482.297-3.45a.875.875 0 0 1 .985-.785l1.75.233"/>
  <path stroke="#000" stroke-linecap="round" stroke-linejoin="round" stroke-width=".22" d="m2.794 21.473-.985.096a.706.706 0 0 0-.634.64l-.758 8.915a.7.7 0 0 0 .737.757l2.597-.13a.704.704 0 0 0 .669-.641l.771-9.024a.704.704 0 0 0-.765-.758l-1.219.11m48.766 8.094.22 7.502.338 11.153.18 5.855.248 8.24.247 8.355m22.303 4.347h-.207l-9.465-.02m-3.789-4.347c.792 2.632 2.218 4.382 3.788 4.333m-33.366-.056-8.356-.021"/>
  <path stroke="#000" stroke-linecap="round" stroke-linejoin="round" stroke-width=".22" d="M2.423 62.275a4.7 4.7 0 0 0 3.045 1.164l35.222.337a44.4 44.4 0 0 0 9.251-.881l3.018-.614H8.313zm4.744-8.02-4.058.014h-.007m49.62-.227-1.089.007-9.12.042"/>
  <path stroke="#000" stroke-linecap="round" stroke-linejoin="round" stroke-width=".22" d="M3.552 49.028s2.204.62 3.616 5.229c.593 1.908 1.04 4.505 1.144 8.025m32.301-.001c-.11-3.548.682-6.2 1.9-8.19 2.536-4.14 6.924-5.395 8.95-5.76.667-.124 1.08-.144 1.08-.144M43.74 70.472a.525.525 0 0 0 .51-.544v-.131a.535.535 0 0 0-.523-.51L5.95 68.743a.534.534 0 0 0-.53.544.52.52 0 0 0 .517.51l14.26.255 7.86.137 8.452.152 7.212.13h.028-.007Z"/>
  <path stroke="#000" stroke-linecap="round" stroke-linejoin="round" stroke-width=".22" d="m51.458 48.332.172 5.718.248 8.211M13.153 13.206l.138 4.436.654 21.707M27.481 16.38l21.142 4.699m-31.071-6.895 3.899.861 1.253.283"/>
  <path stroke="#000" stroke-linecap="round" stroke-linejoin="round" stroke-width=".22" d="M9.051 15.645c0-.082.014-.165.028-.248v-.034c.255-1.585 1.798-2.666 3.396-2.308l.682.152 4.395.971m4.429 18.598.028.73m-.555-18.454.13 4.437.373 12.269m10.29 4.662.076 2.37m-.135-4.194.02.71M31.81 21.72v.035l.357 11.814m11.162-9.251.2 6.558m-25.977-16.7v.007l.137 4.436.62 20.57v.02"/>
  <path stroke="#000" stroke-linecap="round" stroke-linejoin="round" stroke-width=".22" d="m27.325 20.764 4.478.992 11.524 2.563 5.429 1.198m-35.463-7.875 4.396.978 3.892.868 3.63.806h.007m.316-8.651-2.266.378a.76.76 0 0 0-.634.772l.076 2.535.013.455a.69.69 0 0 0 .786.668l1.86-.255m2.136-.303 2.57-.358a.77.77 0 0 0 .654-.772l-.097-3.175a.704.704 0 0 0-.813-.669l-2.149.365M14.91 54.477c.035.152.062.31.097.469.103.51.544.875 1.06.875h2.866c.083.558.358 1.04.751 1.384.393.345.902.545 1.46.545h6.648a2.24 2.24 0 0 0 2.218-1.929H33a1.09 1.09 0 0 0 1.04-.792c.049-.18.104-.352.159-.53a.258.258 0 0 0-.248-.338h-18.8a.25.25 0 0 0-.248.31zm13.226-26.964.207-5.607a.47.47 0 0 0-.524-.482h-.124a.485.485 0 0 0-.413.454l-.186 5.022-.055 1.42-.227 6.337a.46.46 0 0 0 .468.475h.13a.485.485 0 0 0 .462-.461l.117-3.052.083-2.211m.021-.661.02-.62m-4.337 2.377-.055 1.48-.097 2.667a.56.56 0 0 0 .579.578.5.5 0 0 0 .482-.427c0-.013.007-.034.007-.062l.276-7.625.179-4.836v-.035a.5.5 0 0 0-.551-.482h-.014a.56.56 0 0 0-.503.537l-.207 5.553m-.026.882-.035.73"/>
  <path stroke="#000" stroke-linecap="round" stroke-linejoin="round" stroke-width=".22" d="M27.368 26.906s.014.056.027.083l.717 1.137 2.315 3.685 1.047 1.654.71 1.13 2.59 4.119.826 1.309a.354.354 0 0 0 .482.11.354.354 0 0 0 .11-.482s-.24-.359-.633-.958c-.744-1.123-2.06-3.107-3.403-5.125a1900 1900 0 0 0-4.023-6.055l-.462-.703c-.096-.138-.303-.041-.303.096m.728 1.841-.372-.592c-.103-.186-.4-.014-.29.172l.642 1.068 1.274 2.149 2.032 3.424.861 1.453 1.385 2.328.771 1.296a.335.335 0 0 0 .455.117.33.33 0 0 0 .11-.469l-.606-.971-2.15-3.424-.757-1.212-1.57-2.494-1.785-2.852zm-4.255-.014.648-1.419c.09-.186-.2-.337-.29-.138l-.323.662-1.922 3.92-3.644 7.432v.021l-.627 1.254a.353.353 0 0 0 .165.468c.172.09.386.014.469-.165l.73-1.578 2.941-6.413 1.86-4.044zm-.857 3.672.786-1.902.771-1.846c.083-.193-.22-.33-.31-.13l-.42.943-1.805 4.044-2.528 5.67-.565 1.274a.336.336 0 0 0 .165.44c.173.076.372 0 .448-.179l.648-1.563L21.82 35.2m-.007.002 1.165-2.797m21.462-1.577-.91.041-2.914.138a3.44 3.44 0 0 0-3.265 3.141 206 206 0 0 1-.42 4.492l10.023-.303c.165-1.66.31-3.204.413-4.506a2.79 2.79 0 0 0-2.873-3.017"/>
  <path stroke="#000" stroke-linecap="round" stroke-linejoin="round" stroke-width=".22" d="M48.503 38.301c.124-1.246.227-2.438.323-3.5.297-3.03-1.219-4.119-4.333-3.98h-.055M31.45 34.1c.007-.118.02-.228.028-.345.006-.096 0-.193 0-.29m-9.668 1.738a230 230 0 0 1-.38 3.92l3.093-.097 1.068-.035 1.061-.034 4.368-.13a203 203 0 0 0 .358-3.852m-7.658-2.997a3.7 3.7 0 0 0-.73.42m6.342-.84-1.343.061m2.449.193a1.9 1.9 0 0 0-.55-.213m59.566 33.245 7.26.097m-38.233-.525 8.377.117"/>
  <path fill="#000" d="m109.415 69.86 4.581-.089c1.984.186 3.706-1.577 3.41-3.561 0-.669-.103-2.728-.117-3.438-.289-8.328-.737-23.794-1.013-32.067l-.144-4.581c-.069-1.488.103-3.086-.786-4.374-.826-1.35-2.294-1.846-3.747-2.26l-4.361-1.405-8.728-2.81c-2.852-.89-37.344-12.035-39.266-12.642-2.831-.985-5.917-1.922-8.934-1.37-8.22 1.515-23.367 4.367-31.537 5.896l-4.505.848c-1.488.275-3.024.468-4.306 1.322-2.88 1.77-3.479 4.678-3.575 7.853l-.772 9.135-3.093 36.538-.192 2.28c-.049.765-.2 1.522.034 2.218.42 1.454 1.86 2.39 3.369 2.287 5.704.09 21.561.42 27.493.537 3.471.083 19.84.386 22.912.462 3.072.02 10.574-.151 13.75-.179.02 0 .02.028 0 .028-3.218.04-10.63.248-13.75.24-3.018-.048-19.55-.302-22.912-.35-5.938-.104-21.728-.325-27.5-.442-2.019.173-3.961-1.612-3.775-3.678.082-.69.2-2.694.289-3.43.565-6.793 3.39-39.625 3.892-45.666l.2-2.28c.186-2.329 1.522-4.526 3.513-5.746 1.309-.86 2.887-1.067 4.388-1.343l4.505-.833c8.164-1.51 23.34-4.313 31.558-5.8 2.28-.338 4.63-.063 6.799.688l2.184.696C61.022 3.116 95.92 14.2 98.586 15.06l8.735 2.783 4.367 1.391c1.468.407 3.059.978 3.886 2.377.909 1.323.75 2.983.812 4.505l.131 4.581c.262 8.267.669 23.752.917 32.074l.062 2.294c-.042.613.137 1.68-.035 2.3-.317 1.572-1.881 2.626-3.451 2.48 0-.027-4.678.111-4.581.022z"/>
  <path fill="#000" d="M79.36 70.316c3.672-.317 7.357-.069 11.036-.234 3.678-.159 7.357-.227 11.036-.103.02 0 .02.027 0 .027-3.679.234-7.358.276-11.036.234-3.651-.082-7.474.359-11.036.07zm10.214-1.495c.985-.172 1.963-.13 2.942-.055 1.632-.041 3.306-.282 4.918.02-1.619.31-3.279.097-4.918.076-.951.07-2.074.193-2.949-.041zm-30.957.191c1.13-.172 2.253-.138 3.382-.055 1.881-.041 3.796-.282 5.656.014-1.867.31-3.775.103-5.656.082-1.095.07-2.37.193-3.389-.04zm7.361-55.198c-1.185-.165-2.308-.524-3.424-.93-1.901-.503-3.899-.827-5.69-1.653 1.963.24 3.83.998 5.718 1.556 1.123.255 2.431.496 3.396 1.02zm30.044 8.446c-1.033-.118-2.004-.442-2.969-.8-1.653-.434-3.396-.689-4.939-1.44 1.715.173 3.32.855 4.96 1.35.978.214 2.129.414 2.948.896v-.007Z"/>
  <path fill="#000" d="M65.991 13.807c-.22.18-.42.441-.668.544-.716-.158-1.433-.33-2.122-.606-2.08-.689-4.285-.944-6.31-1.846-.014 0-.007-.034.007-.027 2.197.282 4.209 1.219 6.344 1.715.724.124 1.42.344 2.115.585l-.075.014c.234-.13.468-.317.716-.4v.021zm29.453 8.935c-.965-.097-1.867-.4-2.756-.737-1.53-.4-3.155-.62-4.574-1.337 1.598.138 3.086.785 4.602 1.247.902.193 1.984.372 2.728.834zM88.826 44.18c-3.727-.468-7.344-1.495-11.043-2.108-3.7-.627-7.378-1.336-11.015-2.238-.02 0-.014-.035 0-.028 3.713.544 7.385 1.281 11.042 2.108 3.624.854 7.516 1.226 11.009 2.266zm19.78 3.898c-2.033-.137-3.948-.82-5.952-1.102-1.991-.303-4.023-.647-5.938-1.254 2.004.173 4.009.614 5.965 1.096 1.922.516 4.12.558 5.925 1.267z"/>
  <path fill="#000" d="M65.348 14.262c.345 6.565.53 13.888.662 20.508.372 11.394.902 22.781.992 34.182 0 .02-.028.02-.028 0-.6-11.387-.758-22.781-1.075-34.175-.24-6.586-.585-14.04-.544-20.508zm.504-5.373c.365 7.212.572 15.251.724 22.512.406 12.51.957 25.013 1.088 37.523 0 .02-.028.02-.028 0-.626-12.503-.82-25.013-1.17-37.523-.262-7.233-.627-15.403-.607-22.52zM77.59 12.41c.276 3.705.338 7.425.373 11.138.227 6.186.585 12.372.523 18.572 0 .021-.028.021-.028 0-.433-6.179-.454-12.379-.599-18.572-.158-3.685-.413-7.543-.268-11.146zm26.779 8.03c.269 3.361.317 6.73.345 10.105.213 5.615.551 11.222.468 16.843 0 .021-.027.021-.027 0-.421-5.607-.421-11.221-.545-16.836-.151-3.334-.392-6.847-.241-10.105z"/>
  <path fill="#000" d="M108.605 48.064c-.283-4.532 2.142-8.9 6.895-9.616l-.075.09-.283-8.57-.144-4.285c.013-.71-.104-1.385-.634-1.874-.104-.544-17.415-5.366-18.304-5.766-12.62-3.816-25.302-7.667-37.963-11.304-.662-.028-1.247.571-1.185 1.247l.034 1.067.785 25.702c.31 11.422.669 22.878.89 34.292-.47-11.4-.807-22.856-1.179-34.278-.165-5.656-.6-20.225-.764-25.702L56.65 8c-.069-.792.64-1.55 1.453-1.495.407.035.717.186 1.068.276 12.29 3.734 24.614 7.488 36.938 11.112l16.436 4.877c.572.193 1.571.372 1.998.868.565.516.73 1.336.703 2.053l.117 4.284.234 8.57c-5.015 1.144-6.958 4.657-6.992 9.534z"/>
  <path fill="#000" d="M87.982 15.521c.344 6.4.523 13.543.64 19.991.366 11.105.882 22.21.965 33.321 0 .02-.028.02-.028 0-.592-11.098-.743-22.21-1.047-33.314-.234-6.42-.578-13.688-.53-19.99zm8.048 6.732-.565.496.014-.028c.158 2.756.24 5.842.358 8.618.165 12.42.964 24.951 1.006 37.372 0 .02-.028.02-.028 0-.668-11.436-.634-23.036-1.13-34.486a204 204 0 0 1-.172-5.745c-.02-1.922-.117-3.857-.09-5.78l.586-.468c.014-.014.035.014.02.02Z"/>
  <path fill="#000" d="M95.91 17.906c.33 6.104.502 12.903.612 19.048.352 10.58.854 21.155.916 31.75 0 .02-.027.02-.027 0-.572-10.574-.71-21.162-.999-31.743-.227-6.118-.558-13.048-.503-19.048v-.007ZM71.378 66.547c-.02 2.666 1.77 9.975 5.573 7.991 3.83-3.072 3.293-11.855.414-15.437-1.165-1.516-3.01-1.46-4.1.117-1.522 2.08-1.907 4.808-1.887 7.336zm-.027 0c-.22-2.858.936-10.512 5.242-8.535 4.154 2.825 4.298 13.571.475 16.699-1.164.881-2.762.31-3.568-.779-1.64-2.073-2.04-4.829-2.156-7.385z"/>
  <use xlink:href="#a"/>
  <path fill="#000" d="M81.952 70.281c-.33-4.815.027-11.105-4.36-14.115.061-.02-4.113-.262-3.845-.282-2.48 1.178-3.589 3.981-4.078 6.53-.565 2.632-.2 5.504-.33 8.08-.317-5.042-.979-12.082 4.326-14.803q.022-.009.055-.007l3.885.372c4.533 3.086 4.498 9.403 4.347 14.225"/>
  <path fill="#000" d="M81.424 70.302c-.351-4.616.083-10.609-4.002-13.612l-3.63-.255c-2.088 1.095-3.252 3.94-3.645 6.344-.482 2.535-.172 5.167-.261 7.716-.152-2.563-.455-5.201-.035-7.77.448-2.502 1.468-5.395 3.961-6.504l3.617.345c4.23 3.079 4.126 9.1 3.988 13.729z"/>
  <path fill="#000" d="M76.487 67.91c-.117.173-.207.125-.324.042-.034-.007-.069.007-.103.034-.124.117-.352.124-.434-.082.227-.29.323-.076.537-.048.035-.014.069-.056.103-.076.056-.028.207.02.22.13Z"/>
  <path fill="#000" d="M75.812 67.127c.29.234.538.454.772.695h-.18c.207-.255.414-.502.669-.723l-.028.069c.076-.42-.007-1.24 0-1.454a18 18 0 0 1-.744-.723h.214c-.207.255-.42.503-.648.737l.035-.103c-.007.489-.028.971-.097 1.502zm-.027.007c-.07-.496-.214-1.075-.152-1.599.207-.261.434-.503.661-.744a.144.144 0 0 1 .207-.013q.35.4.668.833c-.034.586.049 1.088.049 1.612a6 6 0 0 1-.641.758.113.113 0 0 1-.165 0 8 8 0 0 1-.627-.847m-.223-2.212c-.138.31-.317.593-.586.8l.028-.076c-.138.503.082.999.096 1.501l-.041-.103c.2.248.53.593.565.882a3.4 3.4 0 0 1-.806-.682c-.083-.262 0-.572.027-.847.055-.262 0-.524-.048-.779.076-.193.593-.73.765-.703z"/>
  <path fill="#000" d="M75.752 65.64c-.117.171-.206.123-.323.04q-.053-.008-.104.035c-.124.117-.35.124-.434-.083.228-.289.324-.076.538-.048.034-.014.069-.055.103-.076.055-.027.207.021.22.131Zm.661-.738c-.117.172-.207.124-.324.041-.035-.007-.07.007-.103.034-.124.117-.352.124-.434-.082.227-.29.323-.076.537-.048.034-.014.069-.056.103-.076.055-.028.207.02.22.13Zm-.618 2.246c-.117.172-.206.124-.323.041-.035-.007-.07.007-.104.034-.124.118-.351.124-.434-.082.228-.29.324-.076.538-.049.034-.013.069-.055.103-.075.055-.028.207.02.22.13Z"/>
  <path fill="#000" d="M76.088 72.3c3.479-.276 3.272-11.705-.351-11.719-3.451.352-3.176 11.629.351 11.718Zm.007.027c-3.265-.331-3.52-6.979-2.673-9.376.937-3.3 3.596-3.39 4.691-.117.786 2.225.965 4.733.248 7.006-.358 1.06-.999 2.404-2.273 2.48z"/>
  <use xlink:href="#a"/>
  <path fill="#000" d="M76.92 65.473c-.227-.586-.503-1.247-1.068-1.543-.165-.083-.323-.035-.489.096-.661.523-.91 1.509-.826 2.37.069.86.337 1.763.923 2.335.771.654 1.295-.847 1.508-1.385 0 .441-.158.917-.4 1.316-1.232 1.709-2.355-1.109-2.197-2.26.042-.833.352-3.086 1.585-2.707.606.324.992 1.206.957 1.785z"/>
  <path fill="#000" d="M76.138 66.403c-.007.241.283.516.276.53.144.028.248-.324.179-.544-.035-.117-.069-.234-.11-.337-.028-.104-.145-.187-.097-.159-.041.014-.275.351-.24.51zm-.027.007c-.269-1.123.799-1.068.647-.02l-.075.392c-.042.117.013.31-.262.4-.427-.028-.31-.504-.31-.772m26.584.246c0 2.252 1.487 8.37 4.698 6.737 3.348-2.556 2.907-11.284-.441-13.702-3.238-1.509-4.416 4.76-4.257 6.965m-.035 0c-.165-2.473.723-8.88 4.45-7.234 3.114 2.336 3.128 7.936 2.122 11.353-.593 2.28-2.735 4.56-4.76 2.129-1.385-1.757-1.709-4.092-1.805-6.248zm-7.546 3.437c.351.572.53 1.178.771 1.784.558.903 1.42 1.64 2.44 1.908-1.213.31-2.054-.916-2.522-1.867-.365-.51-.758-1.24-.689-1.832z"/>
  <use xlink:href="#b"/>
  <path fill="#000" d="M111.618 69.81c-.31-4.057 0-9.389-3.679-11.917l-3.292-.227c-4.092 2.273-3.651 8.163-3.672 12.338-.338-4.237-.861-10.34 3.685-12.545l3.286.317c3.83 2.604 3.844 7.963 3.672 12.035Z"/>
  <path fill="#000" d="M111.173 69.825c-.324-3.886.055-8.976-3.382-11.49l-3.066-.207c-3.726 2.321-3.286 7.853-3.286 11.855-.351-3.954-.888-9.734 3.252-12.048q.022-.009.055-.007l3.059.296c3.575 2.597 3.527 7.709 3.368 11.608zm-4.747 4.015c-1.012.158-2.025.11-3.044.02-1.688.02-3.417.241-5.084-.076 1.68-.289 3.389-.062 5.084-.02.985-.055 2.142-.172 3.044.076"/>
  <path fill="#000" d="M107.013 67.813c-.096.172-.172.124-.269.041-.027-.007-.062.007-.089.035-.103.117-.303.117-.365-.083.2-.296.275-.069.454-.048.028-.014.062-.055.09-.076.048-.027.179.028.186.131z"/>
  <path fill="#000" d="M106.439 67.144c.248.193.468.372.661.572h-.179a4 4 0 0 1 .565-.606l-.028.068a4.4 4.4 0 0 0-.02-1.274l.02.055c-.22-.193-.434-.4-.634-.606h.214a9 9 0 0 1-.544.627l.034-.104c-.014.407-.034.82-.103 1.268zm-.028.007c-.069-.413-.207-.916-.145-1.364a8 8 0 0 1 .565-.634.144.144 0 0 1 .207-.014q.3.343.558.717c-.007.434-.028.875.062 1.309 0 .027-.014.048-.028.069-.151.24-.344.44-.544.64a.11.11 0 0 1-.165 0 5 5 0 0 1-.517-.73z"/>
  <path fill="#000" d="M106.223 65.283c-.103.269-.248.51-.482.682l.028-.075c-.138.427.082.847.089 1.267l-.041-.103c.144.165.482.572.461.764a2.4 2.4 0 0 1-.702-.564c-.083-.22 0-.49.027-.73.055-.221.007-.435-.048-.655.007-.145.599-.696.668-.6z"/>
  <path fill="#000" d="M106.392 65.891c-.096.172-.172.124-.269.041-.027-.007-.062.007-.089.035-.103.117-.303.117-.365-.083.2-.296.275-.069.454-.048.028-.014.062-.055.09-.076.048-.028.179.028.186.131zm.547-.621c-.096.172-.172.124-.269.041-.027-.006-.062.007-.089.035-.104.117-.303.117-.365-.083.199-.296.275-.069.454-.048.028-.014.062-.055.09-.076.048-.027.179.028.186.131zm-.519 1.893c-.097.173-.173.124-.269.042-.028-.007-.062.007-.09.034-.103.117-.303.117-.365-.083.2-.296.276-.068.455-.048.027-.014.062-.055.089-.076.049-.027.18.028.186.131z"/>
  <path fill="#000" d="M106.677 71.512c2.907-.213 2.749-9.92-.296-9.885-2.886.33-2.666 9.782.296 9.885m0 .035c-3.306-.193-3.651-9.734-.303-10.079 3.196.242 3.624 9.714.303 10.079"/>
  <use xlink:href="#b"/>
  <path fill="#000" d="M107.146 65.499c-.316-.496-.833-1.068-1.219-.524-.42.393-.62 1.047-.523 1.64.082.585.282 1.178.675 1.564.379.502.888-.131 1.143-.648 0-.014.035 0 .028.007-.551 2.26-2.17.579-2.012-.923.09-.744.124-1.778.93-2.115.503-.124 1.02.647.978.992z"/>
  <path fill="#000" d="M106.71 66.539c-.014.207.275.427.227.427-.021.048.117-.041.138-.13.068-.194-.035-.414-.104-.586-.02-.083-.131-.145-.062-.118.062-.04-.041.028-.089.11a.46.46 0 0 0-.11.297m-.028 0c-.276-.985.723-.93.558-.014l-.069.338c-.034.096.021.268-.227.358-.434-.076-.248-.427-.269-.675zM18.308 39.233c-2.735.104-7.185.317-9.886.365-.716-.055-1.33-.668-1.37-1.384 0-.476.055-.889.082-1.33l.207-2.624c.282-3.314 1.102-12.317 1.412-15.741l.234-2.625c-.055-2.893 1.998-5.084 4.884-5.277 11.257-1.9 22.506-3.995 33.797-5.607 1.818 0 3.478 1.46 3.692 3.265.069.889.048 1.757.076 2.639 0 .02-.028.02-.028 0-.048-.875-.048-1.764-.138-2.625-.255-1.73-1.846-3.127-3.602-3.1-11.25 1.798-22.499 3.837-33.769 5.587-2.804.151-4.863 2.294-4.815 5.125l-.214 2.625c-.275 3.465-.985 12.4-1.267 15.754l-.235 2.625c-.227 1.467-.124 2.659 1.723 2.5 2.328-.034 6.937-.213 9.217-.165zm1.172-.036c-.062.179-.103.117-.165.041-.02-.006-.035.007-.055.035-.062.13-.193.09-.22-.09.124-.302.179-.048.275-.04.02-.015.034-.056.055-.077.027-.034.117.049.11.138zm14.147-.426c-2.238.324-4.484.09-6.73.27-2.239.15-4.519.275-6.744.123 2.225-.282 4.498-.303 6.744-.282 2.218.069 4.595-.386 6.73-.11Zm1.153-.033c-.055.179-.097.117-.159.041-.089.014-.13.275-.26-.027.02-.18.137-.227.205-.104.049.076.076 0 .104-.048.027-.034.11.048.11.138m17.208-9.205c.172 2.597.358 5.174.269 7.778a1.26 1.26 0 0 1-1.178.971c-1.034.014-2.067.083-3.107.124-4.106.2-8.397.413-12.42.276 5.166-.407 10.346-.393 15.527-.503 1.322-.11.999-1.488.957-2.432-.055-2.039-.172-4.257-.048-6.214"/>
  <path fill="#000" d="M26.72 8.544c-.31 9.982-.654 20.466-1.116 30.455 0 .007-.013.007-.013 0 .282-9.982.668-20.535 1.13-30.455Z"/>
  <path fill="#000" d="M24.52 39.035c.296-8.956.716-21.562 1.108-30.352l2.136-.365c.152-.035-.53 15.306-.482 15.348-.186 5.097-.38 10.236-.634 15.32l-2.136.049zm.013-.007 2.122-.076c.117-4.988.303-10.216.489-15.286.041.041.503-15.52.64-15.259l-2.142.352c-.24 8.555-.758 21.437-1.116 30.269zm-4.33 31.025c.372.758.6 1.536.895 2.308.662 1.143 1.674 2.245 3.01 2.493.014 0 .021.028 0 .028-1.542.262-2.534-1.275-3.1-2.48-.426-.682-.86-1.591-.812-2.35h.007Zm7.86.139c1.199 3.162 3.81 6.716 6.889 3.045.682-.848 1.123-1.895 1.55-2.907a7.2 7.2 0 0 1-1.309 3.093c-2.686 3.589-6.73.082-7.13-3.231m23.277-53.14-1.082.193c-.688.082-1.494.261-1.598 1.06.11 3.273.193 6.58.228 9.865-.09.73.337 1.488 1.123 1.502 1.033-.083 2.218-.241 3.265-.358 1.405-.076 1.901-.434 1.736-1.901l-.145-4.389c-.048-1.46-.069-2.927-.09-4.395.021-.702.014-1.508-.764-1.77-.324-.13-.689-.034-1.054 0l-1.089.124s-.02-.027 0-.027l1.082-.193c.351-.049.73-.186 1.116-.042.372.117.682.414.813.786.33 2.976.282 6.86.413 9.899l.014.55c.069.593-.31 1.234-.889 1.42-.661.165-1.536.144-2.211.234-1.137.02-3.052.73-3.382-.875-.159-3.485-.393-6.964-.352-10.45.159-.895 1.027-1.095 1.778-1.123l1.088-.124c.02 0 .02.028 0 .028z"/>
  <path fill="#000" d="M51.822 24.285c.207-.014.262-.207.234-.393l-.02-.551c-.159-3.224-.359-6.648-.359-9.872l-.014-1.095c.021-.31-.103-.834.083-1.11.234-.385.71-.268 1.047-.15l2.122.578c.083.02.186.055.241.055.241-.027.234-.379-.041-.393l-2.122-.571c-.682-.255-1.412-.22-1.646.544-.083.544.04 1.557.034 2.15.062 2.128.138 4.463.145 6.585 0 .71.007 2.604.027 3.293l.014.55c-.02.18.048.38.255.373zm0 .034c-.413 0-.276-.544-.317-.95-.02-.683-.13-2.584-.172-3.293-.152-2.68-.227-5.54-.296-8.232-.138-.841.62-1.66 1.488-1.426.365.082 2.238.668 2.638.778.406.048.448.648.007.696-.214-.014-1.123-.324-1.343-.38l-1.054-.31c-.324-.11-.73-.233-.937.118-.152.241-.028.765-.048 1.054l.158 3.293c.117 2.493.09 5.187.13 7.688l.015.55c.034.18-.049.42-.276.42zM6.267 17.052l-1.716-.166c-.544-.09-1.088.262-1.267.751-.131.42-.117 1.213-.172 1.674l-.152 1.715c-.262 2.28-.482 4.568-.627 6.855-.014.096.097.158.165.11.083-.028.056-.248.07-.317l.054-.861c.193-2.845.428-5.745.738-8.576-.035-.627.482-1.261 1.164-1.11l1.701.283c.021 0 .014.034 0 .027l-1.715-.172c-.592-.096-.978.407-.93.985-.172 2.845-.434 5.739-.723 8.577-.014.117-.104.957-.11 1.067-.021.386-.614.352-.572-.04.103-1.144.24-2.281.323-3.431.124-1.654.207-3.493.359-5.153.075-.524.048-1.22.22-1.736.227-.593.903-.95 1.502-.82l1.695.29s.013.034 0 .027l-.007.02Z"/>
  <path fill="#000" d="m2.802 21.489-.848.11c-.702.02-.716.634-.73 1.192l-.055.847C1.03 26.18.652 28.722.466 31.25c.207.958 1.481.4 2.184.462l.847-.063c.427.014.772-.165.8-.585.185-2.687.406-5.373.702-8.053l.09-.847c.055-.269-.035-.524-.255-.675-.207-.166-.496-.11-.779-.097l-.847.048s-.02-.027 0-.027c.303-.02.978-.145 1.274-.166.49-.04.89.476.793.93-.097 1.406-.173 2.839-.297 4.244-.11 1.405-.248 2.831-.385 4.236-.021.462-.097 1-.627 1.144-.317.069-.978.041-1.302.069-.73-.069-2.094.44-2.28-.613C.466 29.83.57 28.426.652 27c.104-1.406.241-2.832.386-4.237.048-.255.02-.62.152-.861.137-.29.489-.427.764-.413l.848-.049s.02.028 0 .028v.02Zm49.191 8.044c.323 5.133.427 10.271.502 15.41.303 8.563.73 17.12.738 25.695 0 .021-.028.021-.028 0-.51-8.555-.593-17.125-.813-25.688-.207-5.104-.496-10.388-.4-15.417ZM75.51 75c-1.213.16-2.418.118-3.63.028-2.012.021-4.065.248-6.063-.062 2.005-.296 4.044-.069 6.062-.034 1.178-.055 2.528-.18 3.63.069Z"/>
  <path fill="#000" d="M62.061 70.612c.386.682.613 1.392.91 2.101.654 1.04 1.632 1.984 2.865 2.225.014 0 .014.028 0 .028-1.433.268-2.39-1.096-2.955-2.205-.42-.606-.868-1.446-.827-2.149zM32.472 74.91c-1.047.166-2.087.117-3.134.028-1.743.027-3.52.248-5.236-.062 1.73-.297 3.493-.07 5.236-.035 1.012-.062 2.204-.172 3.134.07ZM2.43 62.29c.82.64 1.847 1.074 2.908 1.088H8.52l6.365.041c7.364.014 18 .193 25.468.29 4.257.144 8.46-.6 12.6-1.516l.013.165c-16.126.09-34.43.09-50.536-.069Zm0-.028c16.106-.159 34.423-.159 50.536-.062.09 0 .117.145.014.165-2.08.4-4.154.875-6.269 1.123-4.222.62-14.7.22-19.095.276-6.138-.014-12.93-.145-19.103-.22l-3.182-.063c-1.068-.062-2.129-.454-2.9-1.219Zm4.736-7.999c-.51.166-1.013.124-1.523.042-.847.034-1.729.268-2.548-.042.84-.289 1.694-.09 2.548-.055.476-.069 1.116-.179 1.523.055m45.55-.204c-1.275.172-2.549.13-3.83.048-2.122.034-4.285.276-6.393-.02 2.115-.31 4.264-.097 6.393-.077 1.247-.068 2.666-.192 3.83.049"/>
  <path fill="#000" d="M3.56 49.008c3.747 1.323 5.021 9.776 4.76 13.282-.007 0-.014 0-.014-.014-.572-4.54-.586-10.47-4.74-13.268zm37.038 13.274c-.014-.854-.062-1.722 0-2.583.083-.462.193-1.481.296-1.922.979-3.52 3.266-6.792 6.662-8.335 1.564-.724 3.3-1.227 5.001-1.254-1.674.296-3.341.792-4.87 1.53-3.038 1.453-5.684 4.119-6.359 7.508l-.179.613-.103.627-.214 1.26c-.124.813-.062 1.82-.227 2.556zm3.632 7.648c.013-.207-.049-.414-.22-.53-.166-.132-.387-.09-.586-.097l-1.233-.014c-1.537-.02-5.815-.034-7.406-.041-8.59 0-18.558-.358-27.155-.407l-1.233-.013c-.372-.014-.855-.062-.903.4-.007.474.407.502.806.481l1.233.014 2.466.028c3.114.034 11.587.179 14.811.234 5.608.076 11.656.29 17.277.42l1.233.034c.393.042.903.014.903-.51zm.034 0c-.007.55-.517.592-.937.558l-1.233-.014c-1.536-.014-5.814-.055-7.405-.076-8.529-.055-18.607-.282-27.156-.475L6.3 69.895c-.2-.02-.413.035-.647-.082-.462-.234-.4-.978.11-1.116 10.987.158 22.974.179 33.968.496l2.466.048 1.233.02c.2.014.428-.027.607.11.186.125.24.359.227.559"/>
  <path fill="#000" d="M51.48 48.334c.33 2.314.096 4.643.276 6.964.158 2.315.282 4.678.13 6.978-.289-2.3-.31-4.65-.289-6.978.069-2.294-.392-4.753-.117-6.971zM13.178 13.208c.261 3.265.31 6.53.33 9.802.207 5.442.545 10.885.455 16.34 0 .021-.027.021-.027 0-.414-5.435-.407-10.89-.53-16.34-.146-3.237-.387-6.647-.228-9.802m14.303 3.169c7.054 1.515 14.136 3.017 21.142 4.698-7.047-1.447-14.177-3.059-21.142-4.698"/>
  <path fill="#000" d="M9.056 15.64c-.014-1.303 1.074-2.515 2.383-2.674.655-.11 1.288.118 1.908.255 3.128.675 6.262 1.288 9.362 2.101.007 0 0 .014 0 .014a138 138 0 0 1-7.495-1.633c-1.226-.22-2.494-.75-3.747-.626-1.275.193-2.274 1.28-2.404 2.562zm12.938 17.138c.131.117-.014.24.041.365.056.11.062.29-.034.365a.35.35 0 0 1-.041-.365c.048-.131-.104-.241.02-.365z"/>
  <path fill="#000" d="M21.458 15.054c.213 5.566.461 11.152.496 16.719-.283-5.539-.42-11.208-.496-16.72Zm10.805 21.375c.172.296.138.585.062.889.055.503.262.978.014 1.48 0 .014-.02.014-.028 0-.282-.488-.103-.977-.075-1.48-.097-.297-.152-.586 0-.889 0-.014.02-.014.027 0m-.064-1.83c.172.096.124.165.041.268-.007.028.007.062.035.09.117.103.11.296-.083.358-.303-.2-.062-.276-.048-.44-.014-.029-.055-.056-.076-.09-.028-.049.028-.173.13-.18V34.6Zm-.394-12.877c.166 3.948.365 7.915.352 11.856-.234-3.92-.324-7.964-.351-11.856Zm11.539 2.591c.187.82.173 1.632.11 2.459.07 1.364.345 2.762.077 4.113-.338-1.344-.159-2.742-.173-4.113-.09-.785-.227-1.743-.014-2.46ZM17.573 14.178c.262 3.128.303 6.255.317 9.39.2 5.214.53 10.43.434 15.651 0 .02-.027.02-.027 0-.407-5.208-.393-10.43-.51-15.644-.145-3.1-.38-6.372-.214-9.39z"/>
  <path fill="#000" d="M27.329 20.757c7.15 1.536 14.328 3.059 21.438 4.767-7.144-1.474-14.37-3.1-21.438-4.767M13.29 17.645c3.982.834 7.99 1.646 11.931 2.652-3.975-.765-8.032-1.695-11.931-2.652m12.244-5.994c-.765.18-1.543.324-2.308.448-.888.207-.482 1.357-.516 2.018l.062 1.178c.02.365-.042.792.317 1 .268.192.799.02 1.102.013.379-.028.833-.124 1.178-.104-.558.118-1.178.207-1.743.31a.8.8 0 0 1-.62-.089c-.413-.22-.372-.73-.372-1.123v-1.178c.082-.716-.372-1.846.565-2.142.764-.131 1.605-.29 2.335-.324zm1.971 4.236c.84-.165 1.68-.303 2.528-.406.413-.014.737-.427.668-.854a69 69 0 0 0-.165-3.176c-.124-.427-.551-.517-.95-.413-.6.069-1.344.22-1.91.24.6-.137 1.275-.261 1.882-.378.413-.152 1.012 0 1.122.51.083 1.012.014 2.204.07 3.217.075.44-.228.93-.697.978-.833.11-1.742.269-2.541.29zM14.914 54.478c.104.971.6 1.432 1.591 1.315l2.418-.048q.033 0 .056.02c.192 1.055 1.136 1.923 2.225 1.86l3.265.015 3.265.055c1.075.062 2.101-.8 2.232-1.88 0-.028.028-.042.048-.042l3.08-.035c.681-.048.909-.737 1.02-1.309 0-.075-.063-.151-.139-.158-5.662.076-12.096.048-17.731-.083h-.772c-.227-.013-.6-.041-.551.29zm-.027.007c-.056-.359.33-.345.578-.338h.772l1.543-.02c2.996-.063 6.282-.118 9.258-.104.365 0 6.862.041 6.958.055.42.069.324.496.207.772-.097.516-.524 1.04-1.096 1.067l-3.093-.02.049-.041c-.173 1.115-1.192 2.018-2.336 1.977l-3.265.048-3.265.014c-1.15.09-2.356-1.068-2.336-1.998l.055.02-2.418-.048c-1.005.09-1.529-.372-1.618-1.377zm13.249-26.97c.021-1.619.083-3.41.131-5.036-.014-.2.076-.62-.034-.792-.186-.33-.82-.255-.889.131-.027.248-.041.985-.062 1.247a206 206 0 0 0-.186 5.036c-.041 2.225-.151 4.498-.193 6.688.076.262.365.317.6.255.282-.075.31-.337.31-.606l.075-1.674c.014 0 .145-3.403.186-3.355-.027 1.103-.09 3.968-.124 5.036-.013.138.014.282-.055.441-.13.31-.523.386-.82.29a.51.51 0 0 1-.316-.345c.027-2.28.151-4.485.248-6.73.075-1.62.144-3.41.179-5.036.014-.29.014-.978.041-1.268.083-.489.861-.592 1.095-.172.145.241.042.6.055.861-.09 1.612-.117 3.472-.254 5.029z"/>
  <path fill="#000" d="M28.094 28.75c-.124-.111.027-.2-.02-.318-.05-.096-.042-.255.061-.31q.114.164.02.317c-.054.11.09.207-.04.31h-.021Zm-4.311 1.748c-.014 1.323-.062 2.666-.097 3.989-.04.268.042.51.27.62.364.179.73-.131.674-.53.2-3.755.29-7.792.414-11.56l.027-.792a.437.437 0 0 0-.462-.407c-.62.049-.434.827-.489 1.24-.062.986-.158 3.803-.255 4.781l.07-3.19.04-1.597.028-.8a.63.63 0 0 1 .593-.571.57.57 0 0 1 .613.537l-.028.806-.062 1.591a372 372 0 0 0-.372 9.961c.076.462-.406.89-.854.641-.517-.262-.276-.937-.29-1.536.063-1.047.07-2.184.173-3.19z"/>
  <path fill="#000" d="M23.85 28.743c.125.124-.027.234.021.365.049.11.049.29-.062.358a.35.35 0 0 1-.02-.365c.055-.124-.083-.24.048-.358zm3.561-1.758c2.156 3.335 4.526 7.055 6.606 10.465l1.103 1.742c.275.297.468 1.185.97.889.125-.097.16-.282.07-.406l.062-.055c-2.7-4.21-5.897-8.577-8.563-12.8-.09-.151-.372 0-.255.165zm-.014.014c-.124-.172.18-.372.29-.186 2.149 3.073 4.333 6.565 6.351 9.7l2.136 3.182.062-.055c.103.166.062.4-.097.517-.579.344-.785-.593-1.075-.923l-1.095-1.75a500 500 0 0 1-6.572-10.485m.043 1.336c2.321 3.74 4.67 7.812 6.93 11.6.261.538.875.07.461-.364-1.77-2.77-3.81-5.973-5.51-8.777l-.945-1.536c-.151-.227-.55-.93-.716-1.136-.124-.09-.324.075-.227.213zm-.014.007c-.11-.145.103-.338.255-.241.186.22.571.882.744 1.13a492 492 0 0 1 4.829 7.605c.31.496 1.123 1.812 1.419 2.3.096.214.454.586.379.827a.38.38 0 0 1-.372.283c-.173.007-.31-.152-.365-.276l-.455-.778c-2.115-3.52-4.395-7.302-6.427-10.857z"/>
  <path fill="#000" d="M24.204 27.178c-2.025 4.32-4.326 8.866-6.42 13.158-.372.544.385.902.565.248.358-.8 1.04-2.301 1.405-3.114a599 599 0 0 1 4.526-9.734l.206-.44c.076-.16-.213-.29-.282-.118m-.014-.007c.076-.192.393-.062.317.131l-.2.448a586 586 0 0 1-4.436 9.775c-.269.579-.971 2.094-1.24 2.652-.131.207-.262.772-.537.82a.39.39 0 0 1-.455-.207c-.096-.172 0-.358.076-.489l.434-.875c1.942-4.002 4.023-8.307 6.034-12.262zm.048 1.358c-1.653 3.899-3.548 7.998-5.27 11.869-.248.496.462.71.572.152 1.192-2.928 2.57-6.304 3.823-9.197l.682-1.591c.09-.241.441-.944.49-1.192-.015-.145-.249-.193-.304-.048zm-.014-.007c.055-.165.317-.117.338.048-.049.269-.372.937-.469 1.212a393 393 0 0 1-3.293 8.012c-.22.517-.799 1.888-1.012 2.39-.117.2-.193.669-.448.751a.38.38 0 0 1-.434-.124c-.103-.124-.09-.323-.007-.447l.358-.786c1.592-3.61 3.293-7.495 4.96-11.063zm12.711 10.126c3.431-.186 6.69-.365 10.01-.379l-.083.076q.164-1.397.296-2.804l.117-1.405c.235-1.385-.681-2.831-2.06-3.107-.757-.165-1.976.042-2.775.049l-1.406.075c-1.384-.048-2.714.696-3.279 1.977-.358.717-.351 1.915-.475 2.7l-.338 2.818zm-.02.014.193-2.797c.103-.847.041-2.053.4-2.845.537-1.391 2.059-2.232 3.506-2.184l1.412-.055c.854.007 2.005-.193 2.845.021 1.46.351 2.39 1.901 2.122 3.348l-.138 1.405c-.083.937-.159 1.874-.22 2.81 0 .042-.042.077-.083.077-3.362.193-6.786.206-10.037.227z"/>
  <path fill="#000" d="M48.483 38.304c-.048-1.337.152-2.653.324-3.968.18-2.749-2.046-3.445-4.367-3.493-.014 0-.021-.027 0-.027 1.701-.324 4.105.144 4.38 2.19.194 1.743.077 3.679-.337 5.298m-17.038-4.21c-.117-.117.034-.2-.007-.317-.048-.103-.048-.234.048-.317a.26.26 0 0 1 .028.317c-.062.104.076.214-.055.31h-.014zm-9.609 1.109a54 54 0 0 1-.269 3.934l-.13-.145c1.598-.014 3.196.034 4.794-.096 1.598-.097 3.19-.187 4.788-.214l-.145.138c.152-1.282.262-2.597.51-3.851 0 1.281-.124 2.597-.214 3.885 0 .076-.069.131-.138.138a101 101 0 0 1-4.801.076c-1.598-.035-3.196.103-4.795.193-.069 0-.13-.056-.13-.124.137-1.282.24-2.742.53-3.92zm1.887-3.209c-.076.166-.248.09-.345.2-.082.11-.213.2-.358.186.076-.276.352-.193.496-.372.049-.034.166-.069.214-.02zm5.611-.428c-.22.138-.447 0-.675.062-.22.062-.468.082-.682-.014.214-.103.448-.117.675-.069.214.048.496-.138.675.014zm1.1.254c-.152.063-.158-.102-.282-.096-.103.021-.227-.02-.268-.13.116-.062.226-.035.295.055.076.082.227 0 .255.158 0 0 0 .014-.007.014h.007Zm59.024 33.012c.91-.152 1.818-.097 2.728 0 1.515-.007 3.065-.214 4.553.11-1.508.275-3.038.034-4.553-.014-.882.048-1.93.152-2.721-.103zm-30.982-.427c1.047-.152 2.095-.09 3.142.007 1.743 0 3.527-.207 5.242.124-1.736.275-3.5.027-5.25-.028-1.019.049-2.204.152-3.14-.103z"/>
</svg>
