<svg xmlns="http://www.w3.org/2000/svg" xmlns:xlink="http://www.w3.org/1999/xlink" width="150" height="96" fill="none" viewBox="0 0 150 96">
  <defs>
    <path id="a" fill="#000" d="M93.91 84.096c.056 1.853.903 6.227 3.032 6.572.565-.007 1.06-.49 1.405-1.02 1.819-3.135 1.371-8.239-.447-11.29-2.66-3.535-4.223 3.87-3.99 5.738m-.047 0c-.014-2.17-.083-6.703 2.666-7.22 4.154.544 3.885 11.45 1.433 13.75-.924.944-2.253.248-2.784-.689-1.095-1.736-1.212-3.864-1.315-5.841"/>
    <path id="b" fill="#000" d="M133.461 84.245c.048 1.57.785 5.194 2.556 5.525 3.093-.889 2.314-8.266.778-10.347-2.204-2.9-3.52 3.28-3.334 4.83zm-.055 0c0-1.867-.138-5.67 2.253-6.151 3.485.523 3.093 8.631 1.763 10.973-.703 1.413-2.087 1.468-2.935.131-.929-1.474-.992-3.286-1.088-4.96z"/>
  </defs>
  <path fill="#092E8C" d="M.29 38.911a.892.892 0 0 0 .937.971l3.314-.158a.9.9 0 0 0 .847-.82l.985-11.539a.9.9 0 0 0-.978-.97l-1.55.15-.71 8.274a.253.253 0 0 1-.24.234h-.028a.26.26 0 0 1-.234-.275l.695-8.177-1.26.11a.9.9 0 0 0-.813.82L.29 38.918z"/>
  <path fill="#00D264" d="M2.43 83.702a4.274 4.274 0 0 0 4.181 4.629l18.93.33-18.22-.323a.677.677 0 0 1-.661-.648.67.67 0 0 1 .682-.695l48.276.688c.358 0 .654.29.661.655v.172a.66.66 0 0 1-.64.682l12.11.22-.324-10.677-3.864.785a56.3 56.3 0 0 1-11.828 1.123l-45.004-.427a6.02 6.02 0 0 1-3.886-1.481l-.42 4.974z"/>
  <path fill="#97FFEB" d="m3.72 68.498-.876 10.236h7.516c-.138-4.498-.71-7.818-1.46-10.25l-5.188.02.007-.006Z"/>
  <path fill="#3C6BFF" d="M10.372 78.727H2.856a6 6 0 0 0 3.885 1.481l45.005.427a56.8 56.8 0 0 0 11.828-1.123l3.864-.785z"/>
  <path fill="#092E8C" d="M2.634 34.77a.255.255 0 0 0 .234.275h.028c.13 0 .234-.103.24-.234l.71-8.273.38-4.416a1.106 1.106 0 0 1 1.246-1.006l2.246.297.048-.503-2.232-.297a1.6 1.6 0 0 0-1.226.345 1.64 1.64 0 0 0-.6 1.123l-.378 4.505-.696 8.177z"/>
  <path fill="#97FFEB" d="m4.28 61.795-.565 6.702 5.188-.02c-1.805-5.89-4.616-6.682-4.616-6.682z"/>
  <path fill="#00D264" d="m59.734 48.156 1.984-.062 3.306-.096a1.47 1.47 0 0 0 1.433-1.516l.428 14.246s-.53.027-1.378.193c-2.59.468-8.198 2.066-11.436 7.357-1.556 2.542-2.562 5.931-2.431 10.464H10.37c-.138-4.505-.71-7.826-1.461-10.257-1.805-5.89-4.616-6.682-4.616-6.682l2.914-34.361.51-6.014.048-.503L8 18.149a9.44 9.44 0 0 1 7.667-8.467l22.14-4.112.792 3.706-4.718.792-1.364.234-16.223 2.715a6.05 6.05 0 0 0-4.905 5.414l-.062.716-2.425 28.534a1.814 1.814 0 0 0 1.86 1.963l6.813-.207 5.573-.165-.792 1.612a.447.447 0 1 0 .806.386l.93-2.026.558-.013-.724 1.632a.425.425 0 1 0 .778.337l.827-1.997 1.612-.048 3.954-.117 1.358-.042 1.364-.041 5.572-.165 1.66-.048 1.675-.049.978 1.654a.42.42 0 0 0 .585.151.427.427 0 0 0 .138-.592l-.778-1.24.537-.014 1.047 1.674a.45.45 0 0 0 .62.145.447.447 0 0 0 .138-.614l-.82-1.233 1.736-.055h.09l2.81-.09.834-.027 3.789-.117 4.457-.138.826-.027zm-40.823 21.21a1.4 1.4 0 0 0 1.364 1.123h3.651c.11.717.462 1.33.965 1.77a2.8 2.8 0 0 0 1.867.696h8.5c1.371.007 2.535-.978 2.81-2.321 0-.048.022-.09.022-.138h3.816a1.38 1.38 0 0 0 1.33-1.012l.206-.682a.33.33 0 0 0-.31-.434H19.111a.336.336 0 0 0-.33.392c.034.2.082.4.117.6z"/>
  <path fill="#3C6BFF" d="M6.665 87.69a.677.677 0 0 0 .661.648l18.22.324 10.051.179 10.795.193 9.224.165h.035a.674.674 0 0 0 .647-.689v-.172a.674.674 0 0 0-.661-.654l-48.277-.69a.674.674 0 0 0-.682.696z"/>
  <path fill="#437FF5" d="M8.902 47.674a1.814 1.814 0 0 0 1.86 1.963l6.812-.207-.833-27.727-.172-5.676-.861-.193a3.604 3.604 0 0 0-4.375 3.306L8.908 47.674z"/>
  <path fill="#3C6BFF" d="m22.185 17.28 4.98 1.11 1.6.35-.097-3.237a.97.97 0 0 1 .806-.985l2.907-.482.138-3.74-16.223 2.713a6.05 6.05 0 0 0-4.905 5.415l-.062.716a3.607 3.607 0 0 1 4.374-3.306l.861.193 5.621 1.247z"/>
  <path fill="#437FF5" d="m16.731 21.703.834 27.728 5.573-.172.006-.021-.792-26.288zm-.176-5.677.172 5.676 5.622 1.247-.172-5.67z"/>
  <path fill="#3C6BFF" d="M19.117 68.366a.338.338 0 0 0-.33.4c.034.206.082.399.117.599a1.4 1.4 0 0 0 1.364 1.122h3.65a2.93 2.93 0 0 0 .965 1.77 2.8 2.8 0 0 0 1.867.697h8.5c1.372.006 2.536-.979 2.812-2.322 0-.048.02-.09.02-.138h3.816c.62 0 1.165-.413 1.33-1.012l.207-.682a.33.33 0 0 0-.31-.434H19.104z"/>
  <path fill="#092E8C" d="M22.349 50.876a.447.447 0 1 0 .805.386l.93-2.026 3.762-8.19 2.37-5.167.833-1.819c.117-.234-.255-.427-.372-.179l-.42.855-2.453 5-4.656 9.507v.02l-.793 1.613z"/>
  <path fill="#437FF5" d="m22.356 22.95.792 26.287 4.657-9.507-.475-15.671-4.974-1.11Z"/>
  <path fill="#437FF5" d="m22.18 17.28.172 5.67 4.974 1.108-.172-5.676z"/>
  <path fill="#092E8C" d="M23.916 50.848a.425.425 0 1 0 .778.337l.827-1.997 2.108-5.056 1.488-3.575 1.006-2.418v-.014l.978-2.35c.103-.247-.29-.433-.4-.171l-.537 1.198-2.308 5.18-3.23 7.234-.724 1.632z"/>
  <path fill="#437FF5" d="m27.84 41.04-3.761 8.19.55-.013 3.238-7.24z"/>
  <path fill="#0A2660" d="m35.594 88.84-10.05-.178c.964 3.699 2.886 6.213 5.015 6.151l10.457.035v-.049c-2.308-.082-4.354-2.473-5.422-5.958Z"/>
  <path fill="#437FF5" d="m25.524 49.188 1.612-.048c.2-1.777.358-3.479.496-5.008z"/>
  <path fill="#3F66B1" d="m27.137 49.14 3.954-.116.2-5.47a.65.65 0 0 1-.627.613.71.71 0 0 1-.73-.737l.124-3.403c-.324.13-.661.33-.937.537l-1.488 3.576c-.137 1.522-.296 3.23-.496 5.008v-.007Z"/>
  <path fill="#437FF5" d="m27.844 41.04.028.936 2.308-5.173.034-.923zm-.511-16.981.475 15.678 2.452-5 .262-7.096a.72.72 0 0 1 .64-.682h.015a.636.636 0 0 1 .71.62l.089-2.48-4.636-1.026z"/>
  <path fill="#437FF5" d="m27.156 18.383.172 5.676 4.636 1.026.193-5.242-2.376.33a.89.89 0 0 1-1.013-.847l-.02-.592-1.599-.352h.007Zm2.975 19.749-1.005 2.418a4.4 4.4 0 0 1 .936-.537l.07-1.88Z"/>
  <path fill="#092E8C" d="m28.759 18.74.02.593a.886.886 0 0 0 1.013.847l2.376-.33.214-5.808-2.907.482a.97.97 0 0 0-.806.986l.096 3.237zm1.183 24.683a.71.71 0 0 0 .73.737.64.64 0 0 0 .627-.613l.586-15.94v-.049a.65.65 0 0 0-.71-.62h-.013a.73.73 0 0 0-.64.683l-.263 7.095.42-.854c.118-.248.49-.055.373.179l-.834 1.818-.034.923.537-1.198c.11-.262.503-.076.4.172l-.986 2.35v.013l-.069 1.88-.124 3.404z"/>
  <path fill="#092E8C" d="m31.294 43.553-.2 5.47 1.358-.042 1.425-38.907-1.364.227-.137 3.74-.214 5.808-.193 5.242-.09 2.48v.048z"/>
  <path fill="#092E8C" d="m33.88 10.073-1.426 38.908 1.364-.041.2-5.47v-.034l.144-3.934.448-12.4v-.048l.048-1.37.207-5.588.02-.633.214-5.89.138-3.734-1.371.234z"/>
  <path fill="#3C6BFF" d="m32.508 10.294 1.371-.22v-.007l-1.37.227Z"/>
  <path fill="#3F66B1" d="m34.02 43.47-.2 5.47 5.574-.166c.186-1.777.337-3.451.462-4.925l-2.605-4.374h-.013l-1.722.09-.138 3.905a.6.6 0 0 1-.586.579h-.165a.58.58 0 0 1-.606-.565v-.014Z"/>
  <path fill="#092E8C" d="M34.011 43.436v.035a.59.59 0 0 0 .607.572h.165a.61.61 0 0 0 .585-.586l.138-3.906.104-2.831-.806-1.371c-.152-.234.227-.455.365-.22l.468.75.028-.792-.916-1.453s-.028-.07-.028-.104h-.351l-.22 5.966-.145 3.933z"/>
  <path fill="#0A2660" d="m46.385 89.033-10.794-.192c1.067 3.485 3.12 5.876 5.42 5.958h.228c2.28-.069 4.202-2.39 5.146-5.766"/>
  <path fill="#092E8C" d="m34.612 27.104-.447 12.4.22-5.98.234-6.476v.049z"/>
  <path fill="#092E8C" d="m34.614 27.055-.235 6.476h.352c0-.172.261-.297.385-.11l.593.895.262-7.157a.606.606 0 0 0-.662-.627l-.172.02a.58.58 0 0 0-.517.503z"/>
  <path fill="#3C6BFF" d="m33.876 10.067 1.37-.227-.137 3.734 2.741-.455a.88.88 0 0 1 1.006.661l.675-.144-.937-4.368-4.718.792z"/>
  <path fill="#092E8C" d="M35.175 35.135c-.145-.234-.517-.014-.365.22l.806 1.372 1.632 2.741 2.604 4.375 1.102 1.853 1.77 2.969.98 1.653a.42.42 0 0 0 .585.152.427.427 0 0 0 .137-.593l-.778-1.24-2.742-4.374-.978-1.543-1.998-3.19-2.287-3.644zm-.438-1.597s.007.07.028.104l.916 1.453 2.969 4.712 1.33 2.115.916 1.446 3.3 5.256 1.046 1.674a.45.45 0 0 0 .62.145.447.447 0 0 0 .138-.613l-.82-1.233-4.34-6.544-5.139-7.736-.592-.896c-.124-.186-.386-.062-.386.117z"/>
  <path fill="#437FF5" d="m34.666 25.685-.048 1.364a.566.566 0 0 1 .517-.503l.172-.02a.596.596 0 0 1 .661.626l-.262 7.157 5.14 7.736-.455-15.1-5.725-1.267z"/>
  <path fill="#437FF5" d="m40.393 26.951 2.101.469-1.274-5.911-6.345-1.412-.206 5.587z"/>
  <path fill="#3C6BFF" d="m34.892 19.463-.02.634 6.344 1.412-1.68-7.867-.676.145c.014.062.02.124.028.186l.124 4.057a.964.964 0 0 1-.834.985l-3.279.462z"/>
  <path fill="#092E8C" d="m35.117 13.574-.214 5.89 3.279-.462a.964.964 0 0 0 .834-.985l-.124-4.058a1 1 0 0 0-.028-.185.877.877 0 0 0-1.006-.662l-2.741.455z"/>
  <path fill="#437FF5" d="m35.62 36.727-.104 2.832 1.722-.083.014-.007zm.06-1.633-.027.792 2.287 3.645c.255.055.49.151.71.268l-2.97-4.712z"/>
  <path fill="#3F66B1" d="m37.941 39.538 1.998 3.19q.023-.228.034-.435c.007-.124.014-.248 0-.365l-1.33-2.115a2.3 2.3 0 0 0-.709-.268z"/>
  <path fill="#00D264" d="m37.805 5.57.786 3.698 2.734-.454-.75-3.507-.049-.248-2.72.51Z"/>
  <path fill="#3F66B1" d="m39.383 48.767 1.66-.048-.089-3.017-1.102-1.853a243 243 0 0 1-.462 4.925z"/>
  <path fill="#3C6BFF" d="m38.594 9.269.944 4.367 1.681 7.874 2.969.654-2.859-13.35z"/>
  <path fill="#3F66B1" d="M39.968 42.286c-.006.145-.02.283-.034.434l.978 1.544-.027-.896-.917-1.454c.014.124.007.242 0 .366z"/>
  <path fill="#437FF5" d="m40.911 44.271 2.742 4.374.53-.02-3.3-5.25zm.039 1.432.09 3.017 1.68-.048zm-.56-18.753.455 15.1 4.34 6.545 1.736-.055c.014-.097.02-.193.027-.29l-4.464-20.838-2.1-.468z"/>
  <path fill="#00D264" d="m50.146 7.34 9.671-1.626a4.766 4.766 0 0 1 5.553 4.553l.082 2.818q.104-.116.228-.22c.234-.187.516-.29.806-.297q.218.001.427.055l3.389.965c.152.034.241.179.248.317l1.888-.056-.014-.344-.124-4.23a1.63 1.63 0 0 1 2.1-1.612l9.48 2.845 1.343.4 1.75.523 1.254.38 1.618.488 1.006.297 3.996 1.205 4.036 1.213h.035l.854.261 1.743.524 1.123.33 9.513 2.86 10.133 3.037 1.24.372 1.137.338-.592-2.756.571-1.777-52.575-16.83a17.95 17.95 0 0 0-8.748-.557l-22.781 4.23.048.248.75 3.506.82-.131 3.672-.62 4.333-.723-.013.013Z"/>
  <path fill="#437FF5" d="m41.22 21.51 1.274 5.91 2.969.655-1.275-5.91z"/>
  <path fill="#437FF5" d="m41.325 8.814 2.858 13.35.89.194-2.935-13.675zm1.164 18.606 4.464 20.839c.213-1.984.386-3.844.523-5.45a4.4 4.4 0 0 1 .703-2.038l-2.721-12.696z"/>
  <path fill="#3C6BFF" d="m42.141 8.683 2.935 13.674 3.995.889-3.258-15.183z"/>
  <path fill="#3C6BFF" d="m44.188 22.164 1.275 5.91.881.2-1.267-5.917z"/>
  <path fill="#437FF5" d="m49.07 23.245-3.995-.888 1.267 5.917 3.996.889z"/>
  <path fill="#3C6BFF" d="m46.347 28.274-.882-.2 2.721 12.697c.187-.29.42-.565.669-.8z"/>
  <path fill="#3F66B1" d="M46.954 48.26c0 .096-.014.192-.028.288h.09l-.062-.289Z"/>
  <path fill="#437FF5" d="m46.34 28.275 2.508 11.697a4.42 4.42 0 0 1 2.797-1.185l.75-.034-2.052-9.582-4.003-.889z"/>
  <path fill="#3C6BFF" d="m46.957 48.26.062.282 2.81-.083-1.653-7.688a4.4 4.4 0 0 0-.703 2.04c-.137 1.604-.31 3.464-.523 5.448h.007Z"/>
  <path fill="#437FF5" d="m45.81 8.063 3.258 15.183 4.718 1.047L50.142 7.34z"/>
  <path fill="#3C6BFF" d="m48.176 40.77 1.654 7.687.833-.027-1.818-8.46c-.248.242-.483.51-.669.8m.668-.805 1.819 8.46 3.789-.118-2.053-9.568-.75.034a4.42 4.42 0 0 0-2.798 1.185zm.226-16.72 1.268 5.918 4.712 1.04-1.26-5.91z"/>
  <path fill="#97FFEB" d="M51.652 78.735h14.397v-.02l-.317-10.499-11.655.055c-1.557 2.542-2.563 5.931-2.432 10.464z"/>
  <path fill="#3C6BFF" d="m50.337 29.164 2.06 9.582 2.975-.144-.24-8.033-.084-.365-4.712-1.04ZM50.141 7.34l3.644 16.953 8.088 1.79-.097-3.25a1.56 1.56 0 0 1 1.33-1.592l2.239-.324-.207-6.91a1.38 1.38 0 0 1 .31-.922l-.083-2.818a4.766 4.766 0 0 0-5.552-4.553l-9.672 1.625Z"/>
  <path fill="#3C6BFF" d="m52.403 38.745 2.053 9.569 4.457-.138-2.06-9.63c-.083-.014-.165-.007-.255 0h-.069l-1.15.055z"/>
  <path fill="#97FFEB" d="m54.067 68.27 11.656-.055-.22-7.302c-2.59.468-8.198 2.067-11.436 7.357"/>
  <path fill="#437FF5" d="m53.79 24.292 1.26 5.91.07.021 6.93 1.537-.173-5.677-8.087-1.79Zm1.326 5.932-.069-.02.083.364z"/>
  <path fill="#3C6BFF" d="m55.125 30.567.24 8.033 1.151-.055h.07c.082 0 .165-.007.24-.007l-1.708-7.97h.007Z"/>
  <path fill="#437FF5" d="m55.118 30.223.014.344 1.708 7.97c3.816-.117 5.662 1.31 5.304 5.091-.13 1.364-.255 2.873-.42 4.471l3.307-.096a1.47 1.47 0 0 0 1.433-1.516l-.29-9.589-2.287.234a1.554 1.554 0 0 1-1.715-1.502l-.117-3.864-6.93-1.536z"/>
  <path fill="#3F66B1" d="M56.59 38.545h.255v-.013c-.09 0-.172 0-.255.007z"/>
  <path fill="#3F66B1" d="M56.844 38.538v.014a3.56 3.56 0 0 1 3.424 3.858c-.13 1.653-.303 3.63-.523 5.745l1.983-.062c.173-1.591.297-3.107.42-4.47.359-3.782-1.487-5.208-5.304-5.091z"/>
  <path fill="#3F66B1" d="m56.851 38.552 2.06 9.63.827-.027c.22-2.121.392-4.092.523-5.745a3.56 3.56 0 0 0-3.417-3.858z"/>
  <path fill="#092E8C" d="m62.055 31.76.117 3.865a1.554 1.554 0 0 0 1.716 1.502l2.287-.234 2.673-.269a1.56 1.56 0 0 0 1.398-1.598l-.041-1.454-8.15-1.811Z"/>
  <path fill="#092E8C" d="m61.874 26.084.173 5.676 8.149 1.812-.18-5.932-3.815-.847.09 3.066a.344.344 0 0 1-.331.35.34.34 0 0 1-.352-.33l-.096-3.217-.172-5.738-2.24.324a1.545 1.545 0 0 0-1.329 1.59l.097 3.252z"/>
  <path fill="#97FFEB" d="M66.044 78.713v.02h1.385l-.317-10.525-1.385.007z"/>
  <path fill="#97FFEB" d="m65.504 60.913.221 7.302h1.385l-.228-7.495s-.53.028-1.378.193"/>
  <path fill="#092E8C" d="m65.524 26.661.097 3.217c0 .186.158.338.35.33a.34.34 0 0 0 .331-.35l-.09-3.066-.591-.131z"/>
  <path fill="#092E8C" d="m65.349 20.924.172 5.738h.09l.592.13-.179-5.972-.207-6.826a.715.715 0 0 1 .69-.737c.068 0 .144 0 .213.02l3.396.965s.076.02.11.013a.33.33 0 0 0 .31-.248c.014-.034.014-.069.014-.103a.32.32 0 0 0-.248-.317l-3.39-.964a1.35 1.35 0 0 0-1.233.241 1.38 1.38 0 0 0-.537 1.143l.207 6.91z"/>
  <path fill="#00D264" d="m67.43 78.735.323 10.677 4.719.083 6.565-.117 7.192-.124-.035-1.977h-.847L80 87.311l-5.345.035-.18-5.89-1.425-47.264-2.852-.627.04 1.454a1.564 1.564 0 0 1-1.398 1.598l-2.672.269.289 9.589.427 14.246.227 7.488.317 10.526Z"/>
  <path fill="#092E8C" d="m66.024 20.82.18 5.973 3.816.847-.173-5.628a1.554 1.554 0 0 0-1.784-1.495l-2.039.297v.007Z"/>
  <path fill="#00D264" d="m65.813 13.994.207 6.827 2.04-.297a1.557 1.557 0 0 1 1.783 1.495l.172 5.629 2.853.633-.42-13.929-.014-.489-1.888.055s0 .07-.014.104a.34.34 0 0 1-.31.248c-.034 0-.076 0-.11-.014l-3.396-.965c-.069-.02-.145-.02-.214-.02a.65.65 0 0 0-.413.151.72.72 0 0 0-.276.586z"/>
  <path fill="#00D264" d="m70.02 27.641.179 5.931 2.852.627-.18-5.924z"/>
  <path fill="#3C6BFF" d="m74.477 81.462.172 5.89 5.346-.035v-.124l-.172-5.655zm-1.426-47.264 1.426 47.264 5.346.076-1.391-46.141-5.38-1.199Z"/>
  <path fill="#3C6BFF" d="m72.868 28.275.179 5.924 5.38 1.199-.18-5.931-5.38-1.192Zm-.418-13.93.42 13.93 5.38 1.19-.413-13.604z"/>
  <path fill="#3F66B1" d="m72.436 13.856.014.489 5.387 1.515 5.394 1.516.833-.593-11.641-3.272z"/>
  <path fill="#3C6BFF" d="m72.301 9.283.124 4.23 11.635 3.279-.186-6.269-9.479-2.845a1.634 1.634 0 0 0-2.1 1.612z"/>
  <path fill="#0A2660" d="m88.37 89.219-2.15.034-7.192.124c1.013 3.369 2.831 5.608 4.85 5.546v.013l12.103.028c-2.68-.558-4.877-5.146-5.042-10.788-.186-6.076 2.06-11.077 5.008-11.166h.268l.138-1.702-2.3-.186c-3.225 1.467-5.353 6.524-5.16 12.834l.158 5.242-.682.014v.007Z"/>
  <path fill="#3C6BFF" d="M79.997 87.193v.124l5.346-.027v-.035l-.172-5.649-5.346-.069z"/>
  <path fill="#3C6BFF" d="m78.43 35.398 1.392 46.14 5.345.07L83.81 36.59zm-.176-5.932.18 5.93 5.38 1.193-.18-5.931zm-.417-13.606.413 13.605 5.38 1.192-.4-13.281-5.394-1.516Z"/>
  <path fill="#3F66B1" d="M85.338 87.255v.035l.848-.007v-.055l-1.123-37.193-.4-13.254-.854-.192 1.357 45.017.172 5.65Z"/>
  <path fill="#3F66B1" d="m83.63 30.658.179 5.931.854.193-.18-5.931-.854-.193Zm-.399-13.281.4 13.281.854.193-.42-14.067z"/>
  <path fill="#00D264" d="m118.84 87.07-4.636.034-.152-5.098-.799-26.425-2.294-.455-1.061-.206-1.688-.338-.84-.165-4.615-.91-2.728-.537-.545-.103-.985-.193-1.688-.338-1.115-.22-1.709-.338-8.914-1.756 1.123 37.192v.055l.034 1.977 2.15-.034-.159-5.236c-.2-6.558 1.977-11.841 5.56-13.474l.158-.076 4.974.413.144.083c3.073 1.957 5.105 6.772 5.277 12.565l.165 5.456v.014l16.774-.255 2.997-.041-.021-1.633h-.751l-4.643.034z"/>
  <path fill="#437FF5" d="m84.665 36.781.4 13.254 8.92 1.757-2.92-13.592z"/>
  <path fill="#3C6BFF" d="m84.481 30.85.18 5.931 6.399 1.42-1.323-6.187z"/>
  <path fill="#3C6BFF" d="m84.06 16.784.42 14.067 5.257 1.164-4.526-21.1-1.343-.4.193 6.269Z"/>
  <path fill="#437FF5" d="m85.216 10.915 4.525 21.1 1.722.386-4.498-20.962-1.75-.524Z"/>
  <path fill="#314892" d="m88.216 83.984.158 5.235.682-.014-.158-5.242c-.193-6.31 1.942-11.366 5.16-12.834l2.3.186 2.328.193c2.797 1.777 4.788 6.338 4.96 12.007l.166 5.456h.682v-.014l-.166-5.456c-.172-5.786-2.204-10.601-5.276-12.565l-.145-.082-4.974-.414-.158.076c-3.576 1.633-5.752 6.916-5.56 13.474v-.006Z"/>
  <path fill="#3C6BFF" d="M86.97 11.438 91.467 32.4l1.226.269-4.47-20.852-1.255-.38Z"/>
  <path fill="#437FF5" d="m88.22 11.816 4.47 20.853 1.591.35-4.443-20.714-1.619-.489Zm1.523 20.199 1.323 6.186 1.715.38-1.316-6.18z"/>
  <path fill="#3C6BFF" d="M89.837 12.305 94.28 33.02l.992.22-4.43-20.639zm1.1 71.871c-.186-6.076 2.06-11.078 5.008-11.167h.269c2.831.213 5.215 4.96 5.394 10.843.055 1.86-.117 3.616-.462 5.16-.792 3.513-2.494 5.945-4.54 6.007a3 3 0 0 1-.626-.056c-2.68-.558-4.878-5.145-5.043-10.787m6.041 7.377c2.294-.068 3.417-3.995 3.307-7.653s-1.467-7.516-3.761-7.447c-2.294.07-3.417 3.996-3.307 7.66s1.468 7.51 3.761 7.44"/>
  <path fill="#437FF5" d="m91.067 38.2 2.92 13.592 1.71.33-2.915-13.542z"/>
  <path fill="#3C6BFF" d="m90.84 12.603 4.43 20.638 3.286.73-4.071-18.985.35-1.185-3.994-1.198Zm.626 19.797 1.315 6.18 1.24.275-1.33-6.186z"/>
  <path fill="#B2CEF3" d="m93.894 84.088.992-.035c-.062-2.06.875-3.41 1.557-3.43.538-.014 1.288.799 1.605 2.17l.22.248.049 1.928 1.288.049c.014-.352.02-.73.007-1.103-.117-3.795-1.488-6.826-3.065-6.778-1.578.048-2.763 3.162-2.653 6.95Z"/>
  <path fill="#B2CEF3" d="m94.883 84.052-.992.035c.117 3.802 1.488 6.833 3.066 6.785 1.419-.041 2.521-2.576 2.645-5.862l-1.288-.049-.214.249c-.255 1.322-.937 2.149-1.453 2.163-.682.02-1.695-1.268-1.757-3.328z"/>
  <path fill="#437FF5" d="M100.287 83.902c.11 3.658-1.013 7.584-3.307 7.653s-3.65-3.782-3.761-7.44c-.11-3.658 1.013-7.591 3.307-7.66s3.651 3.782 3.761 7.447m-.69 1.116c.015-.352.022-.73.008-1.103-.117-3.795-1.488-6.826-3.066-6.778s-2.762 3.162-2.652 6.95c.117 3.803 1.488 6.834 3.066 6.786 1.419-.041 2.52-2.576 2.645-5.862v.007ZM92.778 38.58l2.914 13.543 1.109.22.055-.254-2.838-13.233z"/>
  <path fill="#437FF5" d="m92.688 32.67 1.33 6.186 1.584.358-1.323-6.193-1.59-.351Zm3.752 47.952c-.683.02-1.62 1.364-1.558 3.43.062 2.06 1.082 3.349 1.757 3.328.524-.014 1.206-.84 1.454-2.163l-.614.689-1.102.034-.888-.985-.056-1.922.834-.944 1.095-.034.675.73c-.316-1.377-1.067-2.19-1.605-2.17l.007.007Z"/>
  <path fill="#437FF5" d="m94.016 38.855 2.838 13.234-.055.255 1.688.337-2.886-13.467z"/>
  <path fill="#092E8C" d="m95.446 83.04.062 1.915 1.088-.028-.048-1.922z"/>
  <path fill="#092E8C" d="m96.28 82.096-.834.944 1.102-.035.827-.943-1.096.034Zm-.772 2.859.882.985 1.102-.028-.895-.985z"/>
  <path fill="#3C6BFF" d="m94.278 33.021 1.323 6.193.985.214-1.316-6.186z"/>
  <path fill="#0A2660" d="m96.35 71.316-.138 1.701c2.83.214 5.214 4.96 5.393 10.843.056 1.86-.117 3.617-.461 5.16l2.659-.041-.165-5.463c-.173-5.677-2.163-10.23-4.96-12.007z"/>
  <path fill="#3C6BFF" d="m94.836 13.8-.351 1.186 4.071 18.985.896.2-.041-1.268-.042-1.515-.496-16.375-4.037-1.212Z"/>
  <path fill="#092E8C" d="m98.266 83.04.048 1.928-.214.248-.613.69-.895-.986-.048-1.922.826-.944.675.73.22.248v.007Zm-.868 1.79c.2 0 .344-.385.33-.854s-.179-.833-.378-.833c-.2 0-.345.392-.331.854s.186.834.379.834Z"/>
  <path fill="#3C6BFF" d="m95.274 33.24 1.316 6.187 3.045.675-.042-1.295-1.033-4.836z"/>
  <path fill="#3C6BFF" d="m95.606 39.213 2.887 13.468.985.193-2.887-13.447z"/>
  <path fill="#092E8C" d="M97.426 84.794c.194-.006.34-.386.326-.85s-.183-.836-.377-.83-.34.387-.326.85c.014.465.183.836.377.83"/>
  <path fill="#437FF5" d="m96.587 39.427 2.886 13.447.544.103-.386-12.875z"/>
  <path fill="#3C6BFF" d="m98.56 33.972 1.032 4.836-.137-4.636-.896-.2Z"/>
  <path fill="#437FF5" d="m99.63 40.102.385 12.875 2.728.537-2.859-13.35z"/>
  <path fill="#437FF5" d="m99.59 38.808.042 1.295.255.062z"/>
  <path fill="#3C6BFF" d="m99.45 34.171.138 4.636.296 1.357 4.636 1.027-1.33-6.186zm-.035-1.267.04 1.268 3.742.833-.214-.999z"/>
  <path fill="#3C6BFF" d="m99.364 31.388.041 1.515 3.569 1.103-.393-1.853zm-.488-16.375.496 16.375 3.217.764L98.91 15.02z"/>
  <path fill="#437FF5" d="m99.772 15.283-.861-.262 3.678 17.132.848.2zm.115 24.881 2.859 13.35 4.622.91-2.845-13.233z"/>
  <path fill="#3C6BFF" d="m99.774 15.281 3.665 17.07 1.708.414-3.637-16.96z"/>
  <path fill="#437FF5" d="m101.508 15.806 3.638 16.96 1.067.248-3.602-16.787.02-.09zm1.079 16.347.392 1.853.861.261-.406-1.915z"/>
  <path fill="#437FF5" d="m102.981 34.006.214.999.847.186-.2-.924z"/>
  <path fill="#3C6BFF" d="m102.627 16.137-.021.09 3.603 16.787 6.4 1.53-.269-8.984-.021-.826-.179-5.739z"/>
  <path fill="#437FF5" d="m103.196 35.005 1.329 6.186.848.186-1.33-6.186z"/>
  <path fill="#3C6BFF" d="m103.434 32.352.407 1.915 1.742.538-.44-2.04z"/>
  <path fill="#3C6BFF" d="m103.84 34.267.2.923 1.702.379-.159-.765zm.2.925 1.329 6.186 1.702.372-1.33-6.18z"/>
  <path fill="#437FF5" d="m104.524 41.19 2.845 13.234.841.165-2.839-13.213z"/>
  <path fill="#3C6BFF" d="m105.372 41.378 2.838 13.212 1.688.338-2.825-13.178z"/>
  <path fill="#437FF5" d="m105.141 32.766.441 2.039 1.075.337-.448-2.128z"/>
  <path fill="#437FF5" d="m105.586 34.804.159.765 1.061.234-.145-.661zm.157.766 1.329 6.18 1.061.24-1.329-6.186z"/>
  <path fill="#3C6BFF" d="m106.212 33.013.447 2.129 6.028 1.86-.076-2.46z"/>
  <path fill="#3C6BFF" d="m106.661 35.142.144.662 5.89 1.309-.007-.11zm.14.662 1.33 6.186 4.739 1.054-.179-5.931z"/>
  <path fill="#437FF5" d="m107.071 41.75 2.824 13.178 1.054.2-2.817-13.138z"/>
  <path fill="#437FF5" d="m108.129 41.99 2.818 13.137 2.301.455-.379-12.538z"/>
  <path fill="#3C6BFF" d="m114.047 82.006.152 5.098 4.643-.035-.152-5.001z"/>
  <path fill="#3C6BFF" d="m113.247 55.58.792 26.426 4.643.062-1.144-37.991-4.67-1.034.379 12.538Zm-.551-18.467.179 5.93 4.671 1.034-.179-5.931z"/>
  <path fill="#3C6BFF" d="m112.686 37.002.007.11 4.67 1.034-.075-2.494-4.678-1.109zm-.342-11.442.269 8.982 4.677 1.11-.268-8.777z"/>
  <path fill="#3F66B1" d="m112.325 24.734.02.826 4.678 1.316 4.691 1.316.73-.62-10.099-2.838z"/>
  <path fill="#3C6BFF" d="m112.141 18.994.179 5.739h.021l10.099 2.838-.166-5.539zm6.547 63.076.152 5 4.643-.027v-.09l-.145-4.815-4.65-.069Z"/>
  <path fill="#3C6BFF" d="m117.54 44.077 1.143 37.991 4.65.07-1.116-37.028zm-.172-5.932.179 5.932 4.677 1.033-.179-5.924zm-.074-2.494.075 2.494 4.678 1.04-.076-2.418z"/>
  <path fill="#3C6BFF" d="m117.02 26.876.269 8.776 4.677 1.116-.255-8.576z"/>
  <path fill="#0A2660" d="M121.258 88.709c.854 2.866 2.397 4.767 4.098 4.719l10.368.055c-2.501.075-4.636-4.023-4.795-9.162-.151-5.14 1.736-9.362 4.23-9.438s4.636 4.03 4.795 9.17c.048 1.584-.097 3.078-.407 4.387l2.253-.034v-.035l-.138-4.608c-.145-4.788-1.825-8.646-4.188-10.147l-3.906-.324c-2.728 1.247-4.526 5.518-4.368 10.85l.131 4.43v.02l-.572.014-4.512.068-2.996.042z"/>
  <path fill="#3F66B1" d="M123.484 86.952v.09h.751v-.111l-.882-29.36-.372-12.29-.758-.172 1.116 37.027z"/>
  <path fill="#3F66B1" d="m122.044 39.186.179 5.925.757.172-.179-5.924z"/>
  <path fill="#3F66B1" d="m121.965 36.768.076 2.418.758.172-.076-2.411-.758-.18Zm-.253-8.577.254 8.576.758.18-.282-9.376z"/>
  <path fill="#00D264" d="M143.447 49.822c-2.439 1.516-5.105 4.581-4.919 10.74l-4.395-.868-1.619-.317-1.109-.22-8.053-1.585.882 29.353v.11l.027 1.633 4.513-.07v-.013l-.131-4.43c-.166-5.538 1.674-10.009 4.698-11.387l.131-.055 4.202.352.124.069c2.597 1.653 4.312 5.724 4.457 10.615l.138 4.609v.041l3.561-.055a3.98 3.98 0 0 0 3.913-4.092l-1.185-39.266-.441.014-1.012-.227.11 3.61s-1.867.192-3.892 1.439"/>
  <path fill="#3C6BFF" d="m122.973 45.283.372 12.29 8.053 1.584-2.7-12.607z"/>
  <path fill="#437FF5" d="m122.801 39.359.18 5.924 5.724 1.268-1.329-6.18z"/>
  <path fill="#437FF5" d="m122.723 36.948.076 2.411 4.574 1.013-.53-2.446zm-.28-9.376.283 9.375 4.119.979-3.327-15.528-1.24-.365z"/>
  <path fill="#3C6BFF" d="m123.512 22.398 3.328 15.528 1.122.268-3.313-15.451z"/>
  <path fill="#00D264" d="m124.639 18.21-.572 1.778.592 2.755 8.439 2.528 11.78 3.534a2.72 2.72 0 0 1 1.943 2.529l.344 11.421 1.013.241.441-.014-.393-13.102a5.89 5.89 0 0 0-4.092-5.435l-19.495-6.242z"/>
  <path fill="#437FF5" d="m124.653 22.742 3.313 15.451 5.553 1.323-.427-14.246z"/>
  <path fill="#3C6BFF" d="m126.844 37.926.531 2.445 1.116.248-.524-2.424-1.123-.27Z"/>
  <path fill="#314892" d="M128.775 88.585v.014l.571-.014v-.02l-.131-4.43c-.158-5.332 1.64-9.603 4.368-10.85l3.906.324c2.37 1.501 4.044 5.36 4.188 10.147l.138 4.608v.035l.579-.014v-.041l-.138-4.609c-.145-4.89-1.86-8.962-4.457-10.615l-.124-.07-4.202-.35-.131.054c-3.024 1.385-4.864 5.849-4.698 11.388l.131 4.429z"/>
  <path fill="#3C6BFF" d="m127.376 40.371 1.329 6.18 1.109.248-1.322-6.18z"/>
  <path fill="#437FF5" d="m127.965 38.194.524 2.425 5.098 1.13-.069-2.233zm.524 2.426 1.323 6.178 3.954.882-.179-5.93z"/>
  <path fill="#437FF5" d="m128.708 46.55 2.7 12.607 1.109.22-2.7-12.579z"/>
  <path fill="#3C6BFF" d="m129.813 46.799 2.701 12.579 1.618.317-.365-12.014zm10.161 37.254c.048 1.585-.097 3.08-.407 4.389-.668 2.955-2.101 4.994-3.83 5.049-2.5.076-4.636-4.023-4.794-9.162-.152-5.14 1.736-9.362 4.229-9.438s4.637 4.03 4.795 9.17zm-3.92 6.503c1.943-.055 2.887-3.382 2.797-6.468s-1.24-6.345-3.176-6.29c-1.935.055-2.886 3.376-2.796 6.469.096 3.086 1.239 6.344 3.175 6.29Z"/>
  <path fill="#B2CEF3" d="M133.444 84.245v.049l.868-.049c-.049-1.495.709-2.507 1.233-2.521.344-.014.819.406 1.116 1.116l.468.523.041 1.62 1.089.027c.021-.296.014-.6 0-.91-.097-3.21-1.261-5.772-2.59-5.738-1.33.035-2.329 2.673-2.232 5.883z"/>
  <path fill="#B2CEF3" d="M133.442 84.294c.11 3.182 1.261 5.724 2.583 5.683 1.199-.035 2.143-2.19 2.232-4.967l-1.088-.027-.414.475c-.247.765-.709 1.226-1.06 1.233-.524.014-1.337-.95-1.385-2.445z"/>
  <path fill="#437FF5" d="M138.839 84.088c.097 3.086-.854 6.413-2.797 6.468-1.942.056-3.086-3.203-3.175-6.29-.097-3.092.854-6.412 2.796-6.468 1.943-.055 3.087 3.197 3.176 6.29m-2.81 5.89c1.198-.035 2.142-2.19 2.232-4.967.02-.296.013-.6 0-.91-.097-3.21-1.261-5.772-2.591-5.738-1.329.035-2.328 2.673-2.232 5.883v.049c.111 3.182 1.261 5.724 2.584 5.683z"/>
  <path fill="#437FF5" d="M135.544 81.724c-.523.014-1.281 1.033-1.233 2.521.049 1.488.861 2.46 1.385 2.446.351-.014.813-.476 1.061-1.234l-.289.324-.924.028-.75-.827-.042-1.626.703-.792.923-.027.282.31c-.296-.71-.764-1.123-1.116-1.116z"/>
  <path fill="#092E8C" d="m134.747 83.358.041 1.626.93-.028-.048-1.633z"/>
  <path fill="#092E8C" d="m134.794 84.983.757.826.923-.027-.75-.827zm.655-2.424-.702.799.923-.035.702-.792z"/>
  <path fill="#3C6BFF" d="m133.762 47.68.365 12.02 4.395.869c-.186-6.152 2.48-9.224 4.919-10.74z"/>
  <path fill="#437FF5" d="m133.586 41.75.179 5.93 9.679 2.15c2.019-1.247 3.892-1.44 3.892-1.44l-.11-3.61-13.633-3.024zm-.07-2.233.069 2.232 13.633 3.024-.055-2.019z"/>
  <path fill="#437FF5" d="m133.087 25.27.427 14.246 13.639 3.244-.344-11.421a2.72 2.72 0 0 0-1.943-2.528l-11.779-3.534z"/>
  <path fill="#092E8C" d="m136.379 82.531.283.31.468.524.041 1.619-.413.475-.289.324-.744-.827-.048-1.626.702-.792zm.021 2.342c.165 0 .289-.33.275-.723s-.158-.71-.316-.703c-.159.007-.283.331-.269.724s.151.71.31.702"/>
  <path fill="#092E8C" d="M136.345 83.447c-.166 0-.283.331-.269.724s.151.71.31.702c.158-.007.289-.33.275-.723s-.158-.71-.316-.703"/>
  <path fill="#00FFCE" d="m147.161 42.754.055 2.018 1.013.228.44-.014-.055-2.005-.448.014z"/>
  <path fill="#000" d="M139.559 88.415s.985-.02 2.142-.041c2.962-.124 3.555.069 5.146-.214 1.929-.468 3.155-2.452 2.893-4.395l-.048-1.46c-.517-14.55-1.123-35.25-1.612-49.75 0-2.977-.083-5.863-3.045-7.448-.634-.406-1.977-.702-2.707-.978C131.03 20.492 92.936 8.202 81.011 4.365c-1.798-.564-6.606-2.142-8.363-2.693C69.893.714 66.917.384 64.031.818c-1.916.323-3.838.71-5.753 1.06-7.543 1.427-27.224 5.098-34.533 6.483-1.763.4-6.861 1.22-8.618 1.646-2.79.696-5.18 2.77-6.255 5.436-.771 1.756-.695 3.747-.902 5.69l-1.02 11.67c-1.336 13.5-2.68 32.981-3.933 46.683-.02.868-.338 3.493-.358 4.368-.172 2.41 2.018 4.457 4.415 4.243 7.296.11 27.542.53 35.133.682 4.43.11 25.35.496 29.277.593 3.934.034 13.502-.159 17.566-.187.035 0 .035.056 0 .049-21.534.764-48.634-.262-70.272-.448l-11.71-.207c-2.053.131-4.154-1.198-4.699-3.237-.316-.972-.137-2.005-.062-2.997l.248-2.914 2.026-23.339C5.545 44.85 6.62 32.389 7.522 21.077l.255-2.913c.241-2.99 1.956-5.815 4.52-7.378 1.68-1.102 3.705-1.371 5.627-1.716l5.76-1.054c7.232-1.322 27.058-4.973 34.56-6.351 1.922-.344 3.83-.723 5.766-1.047 2.914-.434 5.917-.083 8.694.882 1.729.558 6.571 2.08 8.37 2.659 12.137 3.864 49.839 15.837 61.392 19.516l1.391.447a7 7 0 0 1 1.392.565c1.791.958 3.024 2.873 3.155 4.898.048.992.062 1.956.096 2.935.427 14.494.992 35.222 1.392 49.757l.034 1.46c.303 2.639-1.839 4.892-4.512 4.65l-5.855.062a.024.024 0 0 1 0-.048z"/>
  <path fill="#000" d="M101.137 88.994c3.52-.338 7.048-.303 10.575-.22 5.876-.145 11.745-.572 17.628-.207.027 0 .034.048 0 .048-5.869.544-11.745.296-17.622.33-3.471.138-7.247.428-10.574.049zm13.067-1.914c1.253-.297 2.507-.221 3.761-.083 2.087-.062 4.25-.469 6.289.048-2.059.517-4.195.158-6.289.117-1.206.117-2.694.324-3.761-.083Zm-39.563.254c1.44-.296 2.88-.228 4.326-.083 2.398-.062 4.87-.475 7.234.041-2.384.524-4.823.166-7.234.124-1.391.118-3.072.331-4.326-.082m9.399-70.527c-1.536-.137-2.962-.62-4.381-1.17-2.439-.635-5.029-.952-7.268-2.136 2.542.186 4.905 1.24 7.316 1.977 1.433.289 3.176.571 4.333 1.33Zm38.387 10.795c-1.344-.083-2.577-.51-3.803-1.013-2.115-.544-4.388-.771-6.303-1.86 2.225.097 4.257 1.054 6.351 1.702 1.24.234 2.783.468 3.755 1.171"/>
  <path fill="#000" d="M84.073 16.807c-.276.24-.524.606-.861.73-.93-.172-1.847-.4-2.722-.778-2.645-.917-5.51-1.103-8.052-2.384-.028-.014-.014-.055.013-.048 2.839.227 5.38 1.564 8.122 2.163.93.13 1.826.406 2.7.744l-.13.02c.289-.178.592-.337.902-.489.02-.013.048.021.028.042m37.62 11.415c-1.254-.055-2.398-.462-3.527-.93-1.964-.503-4.092-.69-5.849-1.736 2.06.055 3.954.971 5.89 1.577 1.15.214 2.604.414 3.479 1.089zm-8.455 27.389c-3.582-.413-7.081-1.192-10.581-2.018-5.883-1.103-11.821-1.93-17.608-3.534-.027 0-.02-.055.007-.048 5.96.71 11.766 2.197 17.629 3.41 3.485.599 7.302 1.115 10.546 2.19zm25.276 4.981c-1.957-.097-3.831-.544-5.704-1.068-3.169-.579-6.469-.82-9.493-1.956 3.238.117 6.372 1.116 9.52 1.797 1.867.262 4.044.476 5.67 1.227z"/>
  <path fill="#000" d="M83.254 17.378c.55 8.728.723 17.462.854 26.197.503 14.556 1.254 29.105 1.254 43.675a.024.024 0 0 1-.049 0c-.875-14.542-1.005-29.112-1.377-43.668-.345-8.68-.855-17.662-.676-26.204h-.007Zm.637-6.86c.572 9.582.779 19.17.93 28.767.544 15.982 1.337 31.95 1.385 47.946a.024.024 0 0 1-.048 0c-.916-15.969-1.089-31.957-1.509-47.946-.372-9.534-.902-19.371-.75-28.767zm15.007 4.497c.427 4.74.482 9.486.49 14.232.289 7.909.867 15.81.654 23.732 0 .028-.049.035-.049 0-.688-7.894-.592-15.816-.778-23.725-.227-4.69-.606-9.685-.317-14.239m34.215 10.259c.413 4.298.455 8.597.455 12.91.275 7.17.82 14.335.585 21.52 0 .027-.048.034-.048 0-.668-7.158-.551-14.336-.709-21.514-.214-4.25-.579-8.797-.276-12.916z"/>
  <path fill="#000" d="M138.498 60.565c-.179-4.154 1.144-8.625 4.905-10.857a10.4 10.4 0 0 1 3.913-1.468l-.131.152-.372-10.946-.186-5.47c.021-.902-.131-1.736-.799-2.356-.489-.585-1.722-.758-2.404-.999l-20.956-6.372c-15.685-4.822-31.481-9.458-47.222-14.101-.427-.11-.902-.303-1.274-.324-.813-.034-1.537.703-1.454 1.536l.048 1.371c.538 16.954 1.192 37.854 1.599 54.738.165 7.295.42 14.653.489 21.927-.372-7.267-.558-14.618-.834-21.913-.654-16.85-1.185-37.805-1.708-54.738.027-.799-.262-2.15.482-2.776.523-.572 1.426-.696 2.115-.407l.654.2c15.7 4.788 31.44 9.61 47.195 14.212l21.004 6.213c.751.255 2.011.483 2.576 1.123.737.675.944 1.702.909 2.66l.145 5.476.289 10.946c0 .076-.055.145-.131.152-1.329.2-2.645.689-3.802 1.398-2.37 1.412-3.982 3.871-4.574 6.537a25 25 0 0 0-.345 2.033c-.041.688-.048 1.377-.075 2.066a.025.025 0 0 1-.049 0l-.007-.014Z"/>
  <path fill="#000" d="M112.163 18.99c.544 8.508.709 17.022.833 25.543.489 14.191 1.233 28.368 1.22 42.573 0 .034-.049.034-.049 0-.868-14.177-.978-28.375-1.343-42.573-.338-8.459-.84-17.222-.654-25.543zm10.293 8.605-.716.64.02-.04c.235 3.526.372 7.46.503 11.014.104 15.92 1.337 31.826 1.233 47.746a.024.024 0 0 1-.048 0c-1.033-14.673-.723-29.387-1.502-44.067a327 327 0 0 1-.22-7.343 291 291 0 0 1-.076-7.35c0-.015.007-.035.021-.042l.758-.6s.055.021.034.042z"/>
  <path fill="#000" d="M122.299 22.028c.53 8.101.688 16.216.799 24.338.461 13.523 1.205 27.031 1.157 40.568a.024.024 0 0 1-.048 0c-.861-13.509-.93-27.038-1.288-40.561-.331-8.06-.813-16.423-.62-24.345M90.95 84.185c-.062 3.307 2.383 12.703 7.095 10.168 4.919-3.81 4.168-15.155.503-19.647-1.502-1.915-3.727-1.846-5.132.138-1.929 2.652-2.494 6.11-2.46 9.334zm-.049 0c-.055-3.279.207-6.833 2.122-9.63 1.495-2.273 4.271-2.363 5.924-.193 2.763 3.603 3.073 8.466 2.604 12.813-.496 2.955-1.405 7.543-4.946 8.067-4.595-.33-5.566-7.433-5.704-11.057"/>
  <use xlink:href="#a"/>
  <path fill="#000" d="M104.453 88.96c-.551-6.11.083-14.122-5.6-18.035-1.295-.096-3.74-.193-4.85-.324-1.543.724-2.707 2.026-3.52 3.507-2.576 4.608-1.97 10.092-2.122 15.148-.51-5.87-1.15-12.868 3.28-17.511a7.5 7.5 0 0 1 2.218-1.474c1.68.103 3.368.358 5.049.489 5.807 3.913 5.869 12.062 5.545 18.193z"/>
  <path fill="#000" d="M103.774 88.98c-.572-5.856.159-13.495-5.146-17.395-1.178-.082-3.513-.172-4.505-.296-1.44.724-2.48 2.053-3.203 3.472-2.315 4.457-1.716 9.651-1.874 14.474-.413-4.878-.978-10.189 1.426-14.708.772-1.481 1.922-2.859 3.5-3.561 1.577.096 3.175.323 4.753.468 5.373 3.954 5.359 11.663 5.049 17.539z"/>
  <path fill="#000" d="M97.478 85.935c-.158.31-.247.214-.406.069-.13-.02-.22.22-.406.2-.07-.014-.276-.124-.283-.29.09-.165.18-.227.269-.255.186-.027.29.207.413.18.048-.021.09-.097.131-.131.076-.055.276.055.282.227"/>
  <path fill="#000" d="M96.612 84.923c.393.282.724.558 1.02.847h-.317c.262-.323.53-.647.861-.916l-.041.117c.027-.324.075-.64.069-.964 0-.324-.042-.64-.09-.958l.034.09a11 11 0 0 1-.964-.91h.372c-.262.324-.53.648-.827.944l.062-.179a13 13 0 0 1-.179 1.922zm-.048.014c-.09-.524-.4-1.585-.227-2.101.261-.338.558-.648.854-.951a.233.233 0 0 1 .337 0c.304.351.58.716.84 1.102-.02.662-.047 1.323.104 1.984-.165.434-.558.765-.86 1.102a.19.19 0 0 1-.283 0 7.5 7.5 0 0 1-.772-1.13z"/>
  <path fill="#000" d="M96.288 82.112c-.131.42-.352.792-.717 1.047l.049-.124c-.186.49-.014.958.09 1.44l.054.482-.069-.172c.304.324.545.696.703 1.144.007.02-.014.048-.034.034-.393-.2-1.027-.592-1.137-.992.014-.29.034-.682.11-.965.097-.337.007-.66-.076-.984.186-.441.558-.738.992-.937.021-.007.049.013.042.034z"/>
  <path fill="#000" d="M96.533 83.036c-.158.31-.248.213-.406.069-.131-.02-.22.22-.407.2-.069-.014-.275-.125-.282-.29.09-.165.179-.227.269-.255.186-.027.289.207.413.18.048-.021.09-.097.13-.132.076-.055.276.056.283.228m.828-.943c-.158.31-.248.213-.406.069-.131-.021-.22.22-.406.2-.07-.014-.276-.125-.283-.29.09-.165.18-.227.269-.255.186-.027.289.207.413.18.048-.021.09-.097.13-.132.077-.055.276.056.283.228m-.773 2.864c-.158.31-.248.214-.407.07-.13-.021-.22.22-.406.2-.069-.015-.276-.125-.282-.29.09-.165.179-.227.268-.255.186-.028.29.207.414.179.048-.02.09-.096.13-.13.076-.056.276.054.283.226"/>
  <path fill="#000" d="M96.972 91.529c3.748-.413 3.445-9.396 2.439-12.028-1.302-3.94-4.436-3.816-5.45.214-.874 2.741-.846 11.518 3.011 11.814m0 .055c-1.632.007-2.57-1.653-3.134-2.983-1.11-2.852-1.178-6.083-.338-9.024 1.213-4.257 4.65-4.333 6.076-.138 1.02 2.845 1.295 6.062.338 8.97-.476 1.363-1.316 3.058-2.942 3.168z"/>
  <use xlink:href="#a"/>
  <path fill="#000" d="M98.01 82.815c-.297-.669-1.061-2.439-1.943-1.812-1.364 1.04-1.226 3.134-.689 4.595 1.04 2.5 1.929 1.522 2.714-.4.035.565-.165 1.192-.475 1.715-1.633 2.28-3.162-1.425-2.88-2.92a9 9 0 0 1 .27-1.716c.192-.668.447-1.598 1.246-1.86 1.205-.117 1.722 1.44 1.805 2.384 0 .027-.042.034-.049.014Z"/>
  <path fill="#000" d="M97.036 84.007c0 .165.103.317.206.434.097.117.228.2.138.186-.055.09.172-.035.2-.18.11-.33-.103-.75-.269-1.012-.034-.034-.048-.014.035-.007.075-.02.055-.041.013 0-.151.138-.337.358-.323.586zm-.049 0c-.04-.4-.296-.999.345-1.123.393.034.455.29.53.551.097.365-.075.71-.117 1.061-.041.227-.014.475-.351.558a.41.41 0 0 1-.386-.214c-.158-.261 0-.578-.02-.826v-.007Zm33.966.316c-.027 2.797 1.998 10.643 5.973 8.57 4.305-3.155 3.651-14.411-.572-17.408-3.995-1.929-5.614 6.124-5.401 8.838m-.048 0c-.048-2.769.152-5.786 1.771-8.156.813-1.288 2.583-2.025 3.954-1.144 4.539 3.018 4.581 14.79.503 18.166-1.268.985-3.073.372-3.948-.84-1.777-2.26-2.149-5.257-2.273-8.026zm-9.628 4.396c.516.71.723 1.474.999 2.273.737 1.116 1.791 1.998 3.079 2.425.027 0 .027.041 0 .048-1.605.455-2.645-1.157-3.224-2.39-.544-.662-.93-1.447-.902-2.336 0-.027.034-.034.048-.014z"/>
  <use xlink:href="#b"/>
  <path fill="#000" d="M142.355 88.36c-.524-5.181.076-11.884-4.739-15.225-1.034-.076-3.231-.151-4.079-.262-2.638 1.288-3.802 4.278-4.34 7.013-.599 2.859-.261 5.862-.434 8.728-.406-4.326-.881-9.08 1.385-13.034.737-1.308 1.839-2.466 3.252-3.037 1.432.096 2.886.303 4.319.44 4.87 3.341 5.001 10.21 4.643 15.376h-.007Z"/>
  <path fill="#000" d="M141.787 88.372c-.544-4.966.138-11.352-4.354-14.686-.93-.07-3.052-.131-3.789-.228-1.198.606-2.08 1.716-2.686 2.921-1.95 3.761-1.44 8.156-1.619 12.214-.393-4.127-.868-8.625 1.171-12.448.661-1.254 1.64-2.432 2.983-3.024 1.336.09 2.693.29 4.03.42 4.539 3.334 4.601 9.885 4.257 14.831zm-6.065 5.141c-1.302.275-2.59.193-3.885.034-2.157.041-4.389.42-6.497-.117 2.143-.496 4.333-.11 6.497-.041 1.246-.104 2.776-.29 3.885.13z"/>
  <path fill="#000" d="M136.47 85.81c-.138.31-.214.206-.345.069-.11-.028-.179.213-.344.2-.062-.007-.234-.138-.241-.29.075-.165.144-.227.227-.255.165-.027.248.207.351.18.042-.021.076-.097.111-.132.062-.062.234.07.241.228"/>
  <path fill="#000" d="M135.738 84.943c.352.234.634.454.882.695h-.317c.221-.275.441-.55.73-.764l-.041.117c.034-.269.083-.544.069-.813 0-.269-.041-.544-.083-.813l.035.09a8 8 0 0 1-.827-.758h.372a9 9 0 0 1-.696.799l.062-.18a9.5 9.5 0 0 1-.186 1.627m-.048.02c-.117-.523-.344-1.205-.234-1.777.22-.29.475-.558.73-.813a.24.24 0 0 1 .372 0c.241.317.537.627.703.992a4.5 4.5 0 0 0 .082 1.626c.014.041-.027.082-.041.117-.186.317-.434.585-.689.84a.203.203 0 0 1-.282 0 5 5 0 0 1-.634-.978z"/>
  <path fill="#000" d="M135.462 82.578c-.089.372-.262.696-.585.896l.048-.124c-.035.138-.09.275-.09.406.007.386.214.765.228 1.213l-.069-.173c.227.269.53.648.551 1.027-.407-.138-.717-.4-.971-.69a.2.2 0 0 1-.049-.15c.014-.249.035-.58.117-.814.09-.282.028-.55-.068-.82.13-.406.468-.66.861-.812.02-.007.041.014.041.034z"/>
  <path fill="#000" d="M135.673 83.359c-.138.31-.214.206-.345.068-.11-.027-.179.214-.344.2-.062-.007-.234-.138-.241-.29.076-.165.144-.227.227-.254.165-.028.241.207.351.18.042-.022.076-.097.111-.132.062-.062.234.07.241.228m.695-.8c-.138.31-.213.206-.344.069-.111-.028-.179.213-.345.2-.062-.008-.234-.138-.241-.29.076-.165.145-.227.227-.255.166-.027.242.207.352.18.041-.021.076-.097.11-.132.062-.062.234.07.241.228m-.66 2.417c-.138.31-.214.207-.345.069-.11-.028-.179.213-.344.2-.062-.007-.234-.138-.241-.29.076-.165.145-.227.227-.255.166-.027.241.207.352.18.041-.021.075-.097.11-.131.062-.062.234.069.241.227"/>
  <path fill="#000" d="M136.042 90.53c3.61-.158 3.479-12.75-.379-12.593-3.582.407-3.327 12.531.379 12.593m0 .048c-3.561-.337-3.947-7.536-2.969-10.154 1.04-3.616 3.968-3.671 5.18-.11.868 2.404 1.137 5.132.297 7.592-.414 1.15-1.13 2.576-2.508 2.672"/>
  <use xlink:href="#b"/>
  <path fill="#000" d="M136.635 82.856c-.303-.38-.668-.93-1.136-.889-.441.207-.806.689-.978 1.178-.303 1.033.124 2.363.806 3.086.599.661 1.088-.379 1.446-.785 0 .4-.186.826-.468 1.164-.792.923-1.819-.282-2.005-1.088-.262-.793-.117-1.626.055-2.418.138-.593.324-1.358 1.02-1.571.771-.124 1.192.716 1.302 1.309 0 .027-.035.041-.048.02z"/>
  <path fill="#000" d="M136.105 84.172c0 .138.096.269.192.358.09.096.207.145.097.138-.083.09.138 0 .158-.117.049-.117.028-.262-.02-.386-.042-.083-.159-.4-.235-.448-.027-.027-.034 0 .062.014.09-.02.076-.055.042-.028-.138.097-.31.29-.303.476zm-.056 0c-.048-.352-.303-.882.29-.992.365.034.42.262.489.496.083.317-.09.606-.124.91.021.44-.379.716-.661.31-.138-.228.027-.504 0-.717zM23.144 49.288a608 608 0 0 1-10.092.434l-1.681.062c-.565.035-1.22.069-1.73-.276-1.17-.66-.936-2.121-.826-3.23l.262-3.355c.344-4.478 1.405-15.486 1.832-20.115.338-2.205.042-4.588 1.02-6.648 1.013-2.129 3.258-3.279 5.532-3.479 14.376-2.48 28.746-5.16 43.192-7.17 2.342 0 4.47 1.887 4.733 4.208.082 1.137.048 2.246.082 3.376a.024.024 0 0 1-.048 0c-.069-1.116-.076-2.253-.186-3.355-.337-2.19-2.356-3.961-4.581-3.927C46.29 8.17 31.92 10.76 17.516 12.95c-2.218.18-4.388 1.233-5.401 3.293-.992 2.018-.723 4.388-1.006 6.572-.303 4.698-1.205 15.589-1.584 20.135l-.31 3.355c-.042.544-.131 1.144-.124 1.647.041.764.689 1.44 1.46 1.501 4.058-.013 8.7-.296 12.6-.172zm1.486-.042c-.138.51-.165-.124-.275.124-.117.234-.2.138-.283-.103-.014-.138.097-.297.131-.303.103-.021.152.213.213.186.021-.021.042-.097.07-.131.04-.07.151.096.144.234zm18.092-.545c-2.142.352-4.291.338-6.447.248-3.582.159-7.213.662-10.774.242 3.547-.62 7.185-.352 10.767-.407 2.094-.165 4.484-.448 6.454-.09zm1.466-.049c-.075.31-.123.2-.2.062-.061-.028-.095.206-.199.192-.034 0-.144-.158-.144-.296.041-.165.083-.227.13-.247.104-.02.145.213.207.185.02-.02.041-.096.062-.13.034-.069.144.096.144.234m22.001-11.758c.248 2.639.386 5.284.427 7.93-.034.62.055 1.39-.048 2.018-.159.716-.834 1.246-1.536 1.253-6.558.207-13.413.889-19.84.482 6.6-.647 13.22-.516 19.833-.66a1.33 1.33 0 0 0 1.26-1.13c.049-.517-.082-1.406-.096-1.95-.069-2.59-.241-5.49 0-7.943"/>
  <path fill="#000" d="M33.894 10.069c.014 4.87-.228 9.734-.496 14.597-.248 8.108-.352 16.223-.937 24.317 0 .021-.035.021-.035 0 .014-8.114.503-16.216.848-24.324.117-4.829.151-9.871.613-14.59z"/>
  <path fill="#000" d="M31.07 49.039c.331-12.552.814-26.357 1.42-38.818l2.735-.476a.1.1 0 0 1 .11.097c-.338 12.62-.875 26.439-1.474 39.1 0 .028-.028.055-.055.055l-2.735.042Zm.028-.028 2.708-.124-.055.055c.434-12.49.62-27.031 1.501-39.01l-2.735.447c.062 2.762-.275 6.503-.289 9.59-.241 9.016-.703 20.025-1.13 29.042M25.56 88.664c.55.944.813 1.936 1.157 2.941.861 1.454 2.15 2.763 3.83 3.19.028 0 .028.048 0 .048-2.018.44-3.272-1.598-3.982-3.162-.62-.882-1.06-1.901-1.06-3.004 0-.027.034-.034.048-.013zm10.05.171c.91 1.894 1.77 3.871 3.417 5.2 1.79 1.344 4.14.31 5.318-1.356.889-1.061 1.44-2.411 2.046-3.672-.172 1.398-.751 2.825-1.612 4.002-3.424 4.575-8.825.083-9.162-4.181zm29.728-67.888-1.378.262c-.889.124-1.867.317-2.005 1.336.173 4.182.248 8.397.27 12.593-.145 2.714 2.48 1.715 4.188 1.584.461-.055 1.646-.2 2.087-.255.895 0 1.605-.695 1.488-1.605l-.028-.703c-.234-4.167-.172-8.424-.372-12.564-.303-.958-1.281-1.089-2.183-.903l-1.399.152c-.034 0-.041-.049-.007-.049l1.378-.255.696-.123c.764-.125 1.557.344 1.825 1.081.172.42.117 1.006.159 1.44.2 3.968.323 7.95.392 11.924.131 1.096-.847 2.032-1.915 1.977-.44.035-1.64.131-2.1.172-1.282-.055-3.163.772-4.065-.475-.303-.392-.324-.916-.33-1.385-.063-1.866-.208-3.74-.29-5.607-.083-1.867-.117-3.74-.152-5.614.014-.434-.062-.992.021-1.44.096-.51.44-.957.895-1.192.393-.227.992-.193 1.413-.261l1.398-.145c.035 0 .041.048.007.048zm.732-7.557a.68.68 0 0 1 .545-.221c1.26.062 2.432.902 3.658.937a.18.18 0 0 0 .069-.235c-.069-.09-.193-.069-.324-.11-1.068-.255-2.204-.558-3.12-1.143 1.219.027 2.397.372 3.54.785.448.186.386.895-.075.978-.29.041-.42-.103-.6-.145-.868-.31-1.798-.358-2.659-.702-.358-.117-.661-.303-.992-.11-.02.013-.055-.021-.034-.042z"/>
  <path fill="#000" d="M66.267 29.86c-.344-1.977-.323-3.96-.234-5.945-.275-3.32-.303-6.64-.213-9.94.282 3.279.461 6.627.379 9.94.165 1.93.44 4.147.069 5.952v-.007Z"/>
  <path fill="#000" d="M66.481 12.605c-1.866.4-.888 2.556-1.06 3.865-.207 3.1.275 6.186.261 9.293.021 1.122 0 2.355 0 3.485.042.352-.165.896.283.937.014 0 .027.014.02.028-.186.11-.454-.166-.433-.38-.345-3.664-.338-7.356-.359-11.028-.124-1.543-.289-3.086-.255-4.643-.096-.834.682-1.709 1.537-1.605.027 0 .027.048 0 .048h.007ZM3.114 34.814c.165-4.195.703-8.363.95-12.558.131-2.005 2.405-1.006 3.652-.861.027 0 .027.055 0 .048a107 107 0 0 1-2.095-.186 1.022 1.022 0 0 0-1.267 1.02c-.234 2.79-.6 5.566-.73 8.362-.159 1.344-.18 2.997-.503 4.168z"/>
  <path fill="#000" d="M7.765 20.947c-3.472-.082-3.699-.868-4.126 3.038-.234 2.948-.365 6.035-.75 8.983l-.125 1.123-.069.558c-.048.18-.007.365.2.379a.024.024 0 0 1 0 .048c-.248.014-.344-.241-.303-.44.014-.345.069-1.33.09-1.689.117-2.969.51-6.034.778-8.983.09-1.122-.234-2.555.91-3.237.337-.234.77-.372 1.184-.303.737.137 1.481.268 2.211.468.028 0 .021.055 0 .048z"/>
  <path fill="#000" d="m3.323 26.616-1.082.131c-.365 0-.688.18-.833.49-.13.247-.096.757-.138 1.04-.138 1.797-.255 3.63-.44 5.414l-.414 4.326c-.468 2.418 1.06 1.695 2.714 1.688.352-.035 1.275-.041 1.598-.124.565-.165.565-.785.586-1.268l.083-1.081c.227-2.997.55-6.792.86-9.748.132-.868-.585-1.13-1.336-.992l-1.088.07c-.014 0-.028-.008-.028-.021s.007-.028.021-.028l1.081-.13c.834-.221 1.66.158 1.537 1.115-.186 2.955-.524 6.772-.8 9.748l-.103 1.081c-.027.579-.096 1.24-.758 1.433-.385.09-1.246.062-1.653.096-1.729 0-3.279.662-2.845-1.853.22-2.996.496-6.792.806-9.747.055-.324.014-.792.172-1.095.173-.366.6-.545.958-.524l1.081-.076s.035.048 0 .048zm62.866 10.277c.482 6.558.592 13.123.654 19.695.386 10.94 1.047 21.872.93 32.825a.024.024 0 0 1-.048 0c-.785-10.925-.779-21.879-1.054-32.825-.283-6.51-.717-13.323-.482-19.702zm30.038 58.101c-1.55.282-3.086.2-4.636.048-2.57.041-5.215.434-7.743-.103 2.556-.503 5.167-.124 7.75-.062 1.495-.104 3.28-.303 4.636.117z"/>
  <path fill="#000" d="M79.053 89.38c.565.848.826 1.757 1.178 2.68.854 1.323 2.1 2.425 3.644 2.845.027 0 .027.049 0 .049-1.867.454-3.086-1.371-3.789-2.811-.613-.792-1.06-1.715-1.082-2.749 0-.027.035-.04.049-.013Zm-37.812 5.498c-1.336.282-2.673.2-4.01.048-2.224.041-4.518.434-6.695-.103 2.211-.503 4.47-.124 6.696-.063 1.288-.103 2.859-.303 4.002.118zM2.848 78.757c.035-.083.021-.02.028-.035h.014l.027.028.048.041.097.083a6 6 0 0 0 3.5 1.254h4.064l8.135.034c9.431-.014 22.981.227 32.543.393 5.442.193 10.801-.772 16.092-1.95l.027.283c-20.941.158-43.709.179-64.575-.124zm0-.055c15.541-.22 32.798-.262 48.435-.214l16.147.103c.159-.006.193.255.028.283-2.66.51-5.311 1.116-8.019 1.426-5.38.764-18.8.31-24.407.4-7.839-.028-16.526-.207-24.406-.318-2.618-.144-5.808.428-7.778-1.674zM8.911 68.5c-.654.29-1.295.214-1.942.07-.648-.007-1.295.24-1.943.2a4.3 4.3 0 0 1-1.295-.242c-.02-.007-.02-.041 0-.048 1.068-.455 2.15-.138 3.245-.069.647-.151 1.288-.234 1.942.049.02.006.02.04 0 .048zm58.198-.262c-1.633.29-3.259.22-4.891.076-2.715.062-5.49.468-8.17-.049 2.693-.523 5.448-.158 8.17-.117 1.577-.117 3.45-.323 4.89.083v.007Z"/>
  <path fill="#000" d="M4.296 61.777c2.349.744 3.561 3.224 4.25 5.422C10 70.857 10.675 74.804 10.4 78.737c-.358-1.35-.385-3.141-.64-4.636-.31-2.204-.551-4.746-1.364-6.84-.937-2.005-2.163-4.258-4.106-5.429-.027-.007-.014-.055.014-.048zm47.323 16.96c-1.102-9.155 5.903-17.856 15.265-18.035a.024.024 0 0 1 0 .049c-4.264.771-8.397 2.597-11.38 5.793-3.107 3.217-3.465 8.101-3.885 12.193m4.635 9.775c.014-.262-.062-.523-.276-.675-.206-.158-.482-.11-.744-.124l-1.577-.014c-7.192-.048-14.914.028-22.086-.144-7.956-.186-16.436-.469-24.4-.4-.434.124-.502.785-.082.978.165.097.448.049.71.062 2.81.02 8.17.076 11.042.11 11.022.124 23.745.448 34.692.813l1.577.035c.51.048 1.144.02 1.15-.648zm.048 0c-.02.717-.654.758-1.199.716l-1.577-.02c-10.933-.028-23.704-.152-34.699-.42-2.88-.07-8.204-.2-11.036-.283l-.392-.014c-.124 0-.317-.02-.448-.103-.82-.475-.351-1.68.579-1.522 7.86.206 16.202.248 24.055.261 7.164.028 14.894.324 22.079.483l1.577.027c.255.014.551-.041.779.138.234.158.316.462.296.723z"/>
  <path fill="#000" d="M65.528 60.915c.351 2.218.338 4.443.255 6.675.158 3.706.668 7.46.248 11.153-.627-3.671-.358-7.433-.413-11.146-.173-2.17-.455-4.636-.097-6.675zM16.584 16.027c.413 4.168.447 8.342.44 12.524.27 6.957.806 13.908.565 20.88 0 .027-.048.034-.048 0-.661-6.944-.537-13.916-.689-20.873-.213-4.12-.572-8.542-.262-12.531zm18.288 4.044c3.437.469 6.792 1.302 10.14 2.184 5.628 1.22 11.408 2.073 16.884 3.837-5.717-.73-11.297-2.383-16.919-3.665-3.34-.654-7.012-1.233-10.098-2.356z"/>
  <path fill="#000" d="M11.32 19.142c-.179-1.688 1.288-3.369 3.024-3.555.854-.11 1.654.22 2.466.413 4.01.813 8.06 1.385 11.952 2.715.028.006.021.055-.013.048-3.259-.4-6.448-1.13-9.596-2.012-1.523-.358-3.204-.992-4.747-.744-1.591.262-2.769 1.578-3.086 3.135M27.836 41.04c.234.297.248.62.027.938-.24-.297-.248-.627-.027-.937Z"/>
  <path fill="#000" d="M27.17 18.39c.407 3.548.166 7.116.4 10.671.22 3.555.344 7.11.248 10.678 0 .02-.035.02-.035 0-.31-3.555-.406-7.11-.4-10.671.056-3.527-.502-7.24-.213-10.678m13.778 27.309a6.6 6.6 0 0 1 .09 3.024 6.7 6.7 0 0 1-.09-3.024m-.065-2.337c.234.29.248.606.027.91-.24-.29-.248-.607-.027-.91m-.485-16.457c.372 2.515.104 5.05.303 7.571.18 2.514.317 5.084.138 7.592-.323-2.501-.344-5.057-.317-7.585.083-2.494-.434-5.173-.117-7.578zm14.74 3.322c.317 1.04.268 2.087.151 3.14.103 1.744.551 3.555.07 5.264-.552-1.709-.242-3.5-.235-5.256-.138-.992-.372-2.267.014-3.148M22.197 17.274c.406 3.989.44 7.991.427 11.994.261 6.661.792 13.316.537 19.998 0 .027-.048.034-.048 0-.655-6.648-.524-13.323-.668-19.991-.207-3.94-.565-8.191-.248-12Z"/>
  <path fill="#000" d="M34.657 25.673c4.63.724 9.114 2.074 13.709 2.962 4.587.903 9.155 1.902 13.674 3.114.02 0 .013.035-.007.035-4.609-.813-9.17-1.84-13.709-2.963-4.498-1.157-9.32-1.777-13.667-3.148M16.739 21.69c2.604.276 5.063 1.178 7.633 1.619 2.555.468 5.152.978 7.612 1.784-2.577-.317-5.14-.944-7.654-1.605-2.473-.71-5.27-.882-7.591-1.798m15.634-7.631c-.957.337-1.956.558-2.92.682-1.075.165-.634 1.666-.6 2.445.104.71.138 1.515.2 2.218a.65.65 0 0 0 .29.42c.261.207.97.035 1.301.035a19 19 0 0 1 1.516-.035c.027 0 .034.042.007.049-.703.22-1.488.385-2.205.53-.234.069-.633.055-.902-.117-.579-.303-.565-1.047-.537-1.578-.007-1.005.13-2.011.069-3.01-.11-.537.179-1.206.771-1.364.965-.172 2.163-.427 3.024-.269zm2.51 5.379c4.664-1.316 4.223.53 3.775-4.857-.034-.406.035-.978-.434-1.157-.165-.103-.482-.02-.66-.007-.793.09-1.661.18-2.453.186-.028 0-.035-.041-.007-.048.758-.255 1.605-.448 2.383-.62.634-.241 1.468.041 1.626.758.131 1.377-.117 2.769-.027 4.147.13.585-.276 1.302-.923 1.384-1.027.145-2.343.393-3.273.22zM18.805 68.762c.152 1.246.744 1.811 2.026 1.667l3.093-.083a.14.14 0 0 1 .137.124c.221 1.323 1.46 2.335 2.77 2.26 2.41-.021 5.89.062 8.342.117 1.378.076 2.652-1.006 2.831-2.377 0-.041.042-.069.083-.069 1.309-.007 2.638-.02 3.933-.055.297-.034.572-.172.772-.393.269-.261.324-.682.44-1.06.063-.166.084-.317-.089-.345-7.508.159-15.141.09-22.657-.138l-.985-.013c-.29-.014-.75-.062-.696.358zm-.048.013c-.069-.468.42-.447.744-.44l.985-.007c4.499-.097 9.307-.255 13.798-.22 2.962.013 5.932.027 8.894.089a.51.51 0 0 1 .448.523c-.028.214-.097.338-.145.517-.124.668-.689 1.357-1.44 1.378l-3.954-.042.083-.069c-.22 1.433-1.53 2.598-2.997 2.55l-4.168.089c-1.391.028-2.783.034-4.167.028a3.12 3.12 0 0 1-2.053-.751 3.04 3.04 0 0 1-1.006-1.916s.048.09.048.083l.097.035-3.087-.09c-1.308.103-1.949-.468-2.073-1.777zm16.924-34.463c-.014-2.067.041-4.361.103-6.435-.014-.22.083-.799-.034-.978-.145-.268-.51-.268-.765-.165-.317.151-.255.51-.282.826l-.062 1.068c-.283 4.83-.283 10.12-.441 14.949.11.406.799.4.957.034.09-.255.138-2.294.173-2.61.096-1.427.124-2.894.282-4.3.055 2.054-.055 4.375-.076 6.456-.007.172.014.42-.069.592-.123.31-.502.49-.812.462-.682.027-.896-.586-.813-1.13.027-.958.11-2.776.151-3.755.22-3.968.455-8.39.49-12.344.068-.462.557-.662.985-.6.468.049.709.572.633.965-.124 2.225-.151 4.85-.427 6.965z"/>
  <path fill="#000" d="M35.646 35.895c-.214-.268-.214-.544.027-.799.22.269.207.551-.027.8Zm-5.506 2.232a155 155 0 0 1-.061 5.097c-.145.641.606 1.11.999.545.303-2.983.379-6.07.44-9.087.028-1.336.097-4.815.138-6.117l.035-.999c-.048-.627-.978-.544-1.013.055-.138 2.315-.213 4.843-.434 7.13-.055-1.343.02-2.735.028-4.092.014-.661.041-2.424.069-3.065.075-1.02 1.618-1.11 1.708-.042-.048 1.854-.248 5.257-.344 7.144-.193 2.88-.214 5.773-.27 8.66 0 .15 0 .378-.102.564-.545.868-1.736.227-1.537-.696.104-1.653.117-3.54.345-5.083z"/>
  <path fill="#000" d="M30.228 35.874c.193.137.13.227.028.351-.014.041 0 .076.034.117.124.138.11.393-.124.462-.324-.276-.055-.358-.014-.579-.096-.124-.151-.22.049-.344h.034zm15.681 13.819c-3.713-5.352-7.192-10.85-10.83-16.257-.082-.159-.433.027-.254.213.647 1.02 1.894 2.97 2.555 4.01 2.508 4.03 5.463 8.638 7.916 12.668.317.42.985-.034.702-.49 0-.006.007-.02.014-.006.31.475-.392.992-.758.537-2.576-3.94-5.449-8.624-7.997-12.62-.655-1.047-1.867-3.003-2.508-4.037-.22-.248.214-.606.407-.296 3.54 5.428 7.343 10.83 10.753 16.285zM34.805 35.366A468 468 0 0 1 43.7 50.335a468 468 0 0 1-8.894-14.97Zm9.475 15.105c.4-.282.055-.668-.138-.964-2.949-4.712-5.993-9.376-8.859-14.136l-.145-.248c-.055-.082-.172-.075-.255-.055.214-.158.338.131.441.276 2.852 4.319 5.49 8.783 8.288 13.137l.599.985c.096.165.206.317.282.51a.45.45 0 0 1-.206.516c-.007 0-.021-.007-.007-.014z"/>
  <path fill="#000" d="M30.681 33.884c-2.597 5.511-5.525 11.325-8.204 16.809-.476.703.502 1.157.73.324.454-1.02 1.33-2.942 1.798-3.975a857 857 0 0 1 5.78-12.441l.261-.565c.096-.207-.275-.372-.358-.152zm-.02-.007c.089-.24.502-.075.399.166l-.255.572c-1.171 2.59-2.39 5.386-3.582 7.956-.689 1.502-2.46 5.346-3.141 6.792-.248.517-.675 1.474-.937 1.977-.29.448-1.034.117-.882-.4 2.721-5.586 5.587-11.538 8.397-17.07v.007Zm.063 1.728c-2.122 4.974-4.54 10.216-6.737 15.17-.324.64.6.916.744.192 1.522-3.733 3.286-8.053 4.89-11.745l.876-2.032c.11-.31.558-1.213.62-1.523-.014-.179-.324-.248-.386-.055zm-.02-.006c.068-.207.406-.152.433.062-.062.344-.475 1.198-.599 1.55a640 640 0 0 1-4.209 10.23c-.282.66-1.02 2.41-1.295 3.058-.138.248-.262.875-.565.957a.47.47 0 0 1-.544-.158c-.131-.159-.11-.407-.014-.565l.455-1.006c2.039-4.608 4.216-9.575 6.337-14.135v.007Zm29.008 12.559c-.117-2.287.234-4.07.475-6.248-.09-2.176-2.335-3.41-4.347-3.058-1.343-.007-2.982.144-4.195-.097 1.385-.227 2.776-.351 4.168-.447.696-.049 1.488-.07 2.163.213 2.3.827 2.556 3.39 2.356 5.483-.124 1.337-.207 2.983-.62 4.148zm-8.475-9.308c-1.364.483-2.563 1.289-3.3 2.515-.578 1.343-.213 2.88-.461 4.299-.152.881-.22 2.176-.572 2.88-.083-3.149-.027-9.962 4.333-9.693Z"/>
  <path fill="#000" d="M61.687 48.096c-.138-1.715.137-3.39.4-5.063.178-3.493-2.632-4.278-5.567-4.457-.028 0-.034-.048 0-.048 3.424-.641 6.041.702 5.731 4.512 0 1.591-.027 3.671-.564 5.063zm-21.758-5.374c-.2-.283-.193-.53.034-.8.234.256.214.566-.034.8m-12.279 1.42c0 1.68-.125 3.355-.29 5.029l-.234-.248c2.046.02 4.085.103 6.124-.104a96 96 0 0 1 6.117-.303l-.255.235c.214-1.633.352-3.335.724-4.92.062 1.634-.11 3.328-.2 4.975a.25.25 0 0 1-.241.234 66 66 0 0 1-3.08.076c-3.065-.014-6.13-.062-9.19.255a.23.23 0 0 1-.233-.242c.2-1.618.303-3.547.744-4.987h.013Zm2.406-4.12c-.234.337-.482.489-.895.51a.74.74 0 0 1 .895-.51m7.178-.545a2.23 2.23 0 0 1-1.722.083 2.23 2.23 0 0 1 1.722-.083m1.41.332c-.331.075-.517.013-.71-.269.29-.18.606-.048.71.269m75.403 42.178c1.172-.268 2.322-.172 3.486-.007 1.929-.02 3.947-.386 5.821.166-1.915.475-3.885.082-5.828 0-1.109.096-2.507.268-3.479-.159m-39.587-.551c1.344-.269 2.674-.173 4.01 0 2.225-.02 4.526-.38 6.703.179-2.219.475-4.478.076-6.71-.014-1.288.09-2.866.269-4.01-.165h.008Z"/>
</svg>
