<svg xmlns="http://www.w3.org/2000/svg" xmlns:xlink="http://www.w3.org/1999/xlink" width="98" height="63" fill="none" viewBox="0 0 98 63">
  <defs>
    <path id="a" fill="#000" d="M37.202 55.058c-.056 1.246-.511 4.04-1.962 4.284-2.35-.637-1.843-6.445-.654-8.016 1.803-2.326 2.77 2.47 2.616 3.732m.029 0c0-1.388.017-4.272-1.718-4.619-.523 0-.893.381-1.138.74-.711 1.114-.882 2.474-.916 3.765 0 1.286.142 2.623.74 3.783.21.37.529.774 1.035.814 1.747-.228 1.912-3.106 1.991-4.483z"/>
    <path id="b" fill="#000" d="M11.642 55.154c-.051 1.069-.29 2.167-.882 3.066-.199.273-.46.54-.774.54-2.059-.387-1.706-6.917.222-7.276 1.206.307 1.44 2.606 1.44 3.67zm.023 0c0-1.2.045-3.607-1.457-3.926-2.196.364-1.99 5.535-1.12 7.032.176.312.449.66.887.7 1.508-.211 1.61-2.617 1.69-3.806"/>
  </defs>
  <path fill="#092E8C" d="M97.721 25.857a.578.578 0 0 1-.609.625l-2.144-.108a.58.58 0 0 1-.552-.529l-.637-7.452a.58.58 0 0 1 .631-.626l1.007.091.455 5.353a.16.16 0 0 0 .16.148h.022a.165.165 0 0 0 .148-.176l-.45-5.29.814.08c.279.027.5.25.524.528l.625 7.361z"/>
  <path fill="#0033C9" d="M96.333 54.8a2.763 2.763 0 0 1-2.697 2.993l-12.242.216 11.776-.21c.233 0 .42-.188.426-.421a.44.44 0 0 0-.438-.45l-31.197.45a.44.44 0 0 0-.432.42v.109a.436.436 0 0 0 .415.45l-7.828.141.211-6.9 2.492.506c2.52.507 5.08.757 7.64.728l29.086-.278a3.86 3.86 0 0 0 2.515-.962l.273 3.22z"/>
  <path fill="#97FFEB" d="m95.501 44.977.563 6.61h-4.863c.085-2.907.46-5.052.944-6.622l3.35.011z"/>
  <path fill="#3C6BFF" d="M91.2 51.587h4.864a3.88 3.88 0 0 1-2.514.955l-29.087.28a36.7 36.7 0 0 1-7.64-.729l-2.491-.506z"/>
  <path fill="#092E8C" d="M96.204 23.183a.165.165 0 0 1-.148.176h-.023a.165.165 0 0 1-.16-.148l-.454-5.353-.245-2.85a.72.72 0 0 0-.814-.649l-1.444.194h-.012l-.028-.324 1.44-.194c.284-.04.568.04.79.222.228.182.364.438.387.728l.25 2.907.45 5.29z"/>
  <path fill="#97FFEB" d="m95.134 40.648.364 4.329-3.35-.012c1.165-3.805 2.986-4.317 2.986-4.317"/>
  <path fill="#00FFCE" d="M90.573 12.875v-.029l-.017-.233a3.904 3.904 0 0 0-3.163-3.498L76.908 7.357l-.887-.148-.882-.148-15.883-2.662a3.08 3.08 0 0 0-3.584 2.94l-.057 1.821a.9.9 0 0 0-.944-.301l-2.19.625a.21.21 0 0 0-.16.2l-1.217-.035v-.222l.091-2.73a1.053 1.053 0 0 0-1.354-1.041l-6.126 1.837-.87.262-1.127.341-.814.245-1.04.313-.65.193-2.582.774-2.611.78h-.029l-.551.176-1.127.335-.728.222-6.15 1.843-6.547 1.963-.802.239-.734.222.381-1.78-.37-1.15L51.35 1.588a11.7 11.7 0 0 1 5.649-.358L87.79 6.953a6.09 6.09 0 0 1 4.955 5.467l.153 1.797.029.325.33 3.885 1.883 22.209s-1.82.512-2.987 4.318c-.49 1.575-.859 3.72-.944 6.627H64.54c.091-2.924-.563-5.12-1.57-6.758-2.094-3.42-5.717-4.455-7.39-4.756a8 8 0 0 0-.893-.12l.279-9.21a.954.954 0 0 0 .921.985l2.134.062 1.28.04 8.277.25 1.126.035c-.324.494-.523.79-.523.79a.287.287 0 0 0 .09.398.29.29 0 0 0 .399-.09l.683-1.081.347.01-.5.803a.28.28 0 0 0 .09.387c.13.074.296.028.376-.097l.637-1.07 1.08.035 1.07.034 3.607.108.876.029.882.028 2.554.08 1.04.034.535 1.291c.063.142.228.21.37.148a.277.277 0 0 0 .137-.364l-.467-1.053.359.012.603 1.303a.275.275 0 0 0 .387.136.29.29 0 0 0 .136-.387l-.506-1.035 3.59.108 4.403.13a1.17 1.17 0 0 0 1.2-1.268l-1.587-18.642zM85.76 45.147a.213.213 0 0 0-.205-.256H70.031a.213.213 0 0 0-.205.279c.045.148.09.29.13.438a.894.894 0 0 0 .86.648h2.469q.007.05.017.091c.17.87.927 1.502 1.814 1.502h5.49a1.85 1.85 0 0 0 1.826-1.587h2.367a.89.89 0 0 0 .876-.728c.028-.131.05-.262.08-.387z"/>
  <path fill="#3C6BFF" d="M93.598 57.377a.43.43 0 0 1-.427.421l-11.776.21-6.49.115-6.98.125-5.957.108h-.023a.434.434 0 0 1-.42-.45v-.108a.44.44 0 0 1 .432-.42l31.197-.45a.44.44 0 0 1 .438.45z"/>
  <path fill="#437FF5" d="M92.15 31.517a1.17 1.17 0 0 1-1.2 1.268l-4.404-.13.54-17.92.109-3.67.563-.125a2.33 2.33 0 0 1 2.805 1.906v.028z"/>
  <path fill="#3C6BFF" d="m90.547 12.613.017.234a2.33 2.33 0 0 0-2.804-1.906l-.563.125-3.63.802-3.22.717-1.04.233.062-2.093a.626.626 0 0 0-.523-.638l-1.872-.312-.091-2.412L87.367 9.12a3.89 3.89 0 0 1 3.163 3.499z"/>
  <path fill="#437FF5" d="m87.088 14.728-.54 17.926-3.59-.114-.011-.017.512-16.987z"/>
  <path fill="#437FF5" d="m87.204 11.066-.114 3.664-3.63.807.114-3.663v-.006z"/>
  <path fill="#3C6BFF" d="M85.55 44.89c.138 0 .24.126.206.257-.029.125-.052.256-.08.387a.895.895 0 0 1-.876.722h-2.367c-.068.461-.295.86-.62 1.144-.324.284-.745.45-1.206.45h-5.49a1.85 1.85 0 0 1-1.814-1.503l-.017-.09h-2.469a.9.9 0 0 1-.859-.655c-.04-.148-.085-.29-.13-.438a.213.213 0 0 1 .204-.279h15.525z"/>
  <path fill="#092E8C" d="M83.465 33.582a.29.29 0 0 1-.137.387.284.284 0 0 1-.386-.137l-.603-1.302-2.43-5.297-1.536-3.339-.534-1.172c-.074-.153.165-.279.239-.114l.267.547 1.587 3.236 3.01 6.139v.017h.005l.507 1.035z"/>
  <path fill="#437FF5" d="m83.458 15.537-.512 16.986-3.009-6.138.307-10.131zm.113-3.663-.113 3.663-3.215.717.109-3.664v-.005z"/>
  <path fill="#092E8C" d="M82.452 33.57a.277.277 0 0 1-.136.364.277.277 0 0 1-.37-.148l-.535-1.29-1.36-3.266-.961-2.316-.648-1.57-.638-1.524c-.068-.16.182-.273.256-.108l.347.779 1.49 3.34 2.089 4.681.466 1.053z"/>
  <path fill="#437FF5" d="m79.916 27.228 2.429 5.296-.359-.011-2.093-4.682z"/>
  <path fill="#0A2660" d="m74.902 58.123 6.49-.114c-.625 2.39-1.865 4.016-3.242 3.977l-6.9.022v-.028c1.547.04 2.935-1.525 3.652-3.851z"/>
  <path fill="#437FF5" d="m80.053 29.236 1.36 3.265-1.041-.034a119 119 0 0 1-.313-3.231z"/>
  <path fill="#3F66B1" d="m80.367 32.467-2.554-.08-.126-3.493a.41.41 0 0 0 .399.353.467.467 0 0 0 .478-.478l-.08-2.202c.205.086.427.216.603.347l.961 2.31c.086.99.194 2.088.313 3.237z"/>
  <path fill="#437FF5" d="m79.914 27.228-.022.603-1.49-3.34-.03-.602zm.331-10.974-.308 10.132-1.587-3.237-.17-4.585a.464.464 0 0 0-.416-.444h-.011a.413.413 0 0 0-.455.398l-.057-1.604 2.998-.666z"/>
  <path fill="#437FF5" d="m80.356 12.59-.109 3.67-2.998.665-.119-3.39 1.536.21a.57.57 0 0 0 .648-.551l.012-.376 1.04-.233zm-1.923 12.76.649 1.57a3 3 0 0 0-.603-.347z"/>
  <path fill="#092E8C" d="m79.32 12.818-.012.376a.57.57 0 0 1-.649.552l-1.536-.21-.136-3.755 1.872.312a.63.63 0 0 1 .523.637l-.063 2.094zm-.837 13.75.08 2.202a.463.463 0 0 1-.478.477.414.414 0 0 1-.399-.352l-.233-6.349-.148-3.993v-.029a.413.413 0 0 1 .455-.398h.012a.465.465 0 0 1 .415.444l.17 4.585-.267-.546c-.074-.16-.313-.035-.239.113l.535 1.172.029.603-.348-.779c-.068-.165-.324-.051-.255.108l.637 1.519.045 1.229zM76.986 9.775l.136 3.754.12 3.39.057 1.605v.029l.148 3.993.227 6.297s0 .035.006.052l.125 3.493-.882-.029-.921-25.15.887.148.091 2.412z"/>
  <path fill="#092E8C" d="M77.69 28.895s-.006-.029-.006-.051l-.228-6.298zm-1.687-21.68.922 25.15-.876-.029-.325-8.789-.04-1.172-.153-4.152-.034-.916-.131-3.618-.017-.404-.137-3.806-.09-2.418z"/>
  <path fill="#3F66B1" d="m75.727 23.546.324 8.79-3.606-.109c-.12-1.149-.217-2.23-.296-3.18l1.678-2.827h.011l1.115.057.097 2.52c.006.205.17.37.381.375h.108a.367.367 0 0 0 .387-.386l-.188-5.234z"/>
  <path fill="#092E8C" d="M75.922 28.781a.38.38 0 0 1-.387.393h-.108a.4.4 0 0 1-.38-.381l-.098-2.52-.068-1.827.53-.881c.09-.154-.149-.296-.24-.143l-.307.49-.017-.512.592-.939s.022-.045.022-.068h.228l.045 1.166.188 5.234z"/>
  <path fill="#0A2660" d="m67.926 58.248 6.98-.125c-.717 2.32-2.099 3.89-3.652 3.851-1.473-.045-2.714-1.542-3.322-3.726z"/>
  <path fill="#092E8C" d="m75.538 18.222.153 4.147h-.227c0-.108-.17-.188-.25-.074l-.382.58-.17-4.63a.388.388 0 0 1 .432-.399h.102a.4.4 0 0 1 .342.376m-.658 6.218-1.052 1.775-1.678 2.827-.712 1.2-1.143 1.923-.637 1.07a.277.277 0 0 1-.376.096.274.274 0 0 1-.09-.386l.5-.803 1.775-2.827.626-1.001 1.297-2.06 1.473-2.354.307-.49c.085-.153.33-.011.24.142l-.53.882z"/>
  <path fill="#092E8C" d="M75.463 22.38s-.011.046-.023.069l-.591.939-1.912 3.043-.864 1.365-.586.933-2.14 3.402-.682 1.081a.29.29 0 0 1-.398.091.29.29 0 0 1-.091-.398s.199-.296.523-.79c.615-.928 1.701-2.567 2.81-4.233 1.32-1.991 2.674-4.034 3.323-5l.38-.58c.08-.115.251-.035.251.079"/>
  <path fill="#437FF5" d="m75.5 17.308.035.915a.384.384 0 0 0-.341-.364h-.103a.38.38 0 0 0-.432.393l.17 4.63-3.322 4.995.296-9.756 3.698-.82z"/>
  <path fill="#437FF5" d="m71.803 18.125-9.517 2.116-4.483.99.108-3.664 17.46-3.88.13 3.618z"/>
  <path fill="#3C6BFF" d="m75.347 13.285.012.404-17.46 3.874.063-2.105a1.004 1.004 0 0 0-.859-1.024l-1.445-.216.137-4.466a.9.9 0 0 0-.2-.591l.058-1.82a3.074 3.074 0 0 1 3.584-2.942L75.12 7.061l.09 2.418-1.774-.301a.578.578 0 0 0-.672.551l-.08 2.623a.624.624 0 0 0 .541.637z"/>
  <path fill="#092E8C" d="m75.216 9.478.143 3.806-2.122-.296a.63.63 0 0 1-.54-.637l.079-2.623a.58.58 0 0 1 .671-.551l1.775.301z"/>
  <path fill="#437FF5" d="m74.883 24.44.068 1.832-1.11-.051-.01-.006zm-.018-.54-1.473 2.355a1.5 1.5 0 0 0-.455.176l1.911-3.043z"/>
  <path fill="#3F66B1" d="m73.392 26.26-1.298 2.06c-.005-.097-.017-.188-.022-.285-.006-.08 0-.159 0-.238l.864-1.366a1.6 1.6 0 0 1 .455-.176zm-.939 5.968-1.07-.035.057-1.956.711-1.195c.08.95.177 2.03.296 3.18z"/>
  <path fill="#3F66B1" d="M72.07 28.036c.006.09.017.181.023.284l-.626 1.001.017-.586.586-.933v.24z"/>
  <path fill="#437FF5" d="m71.437 30.238-.063 1.956-1.08-.034zm.048-1.509-.018.585-1.774 2.828-.347-.012zm.312-10.603-.296 9.756c-1.11 1.672-2.196 3.305-2.81 4.232l-1.127-.034a143 143 0 0 1-.347-3.71 2.84 2.84 0 0 0-2.696-2.593l-2.407-.114.166-5.416 9.517-2.116z"/>
  <path fill="#3F66B1" d="m67.567 32.08-8.277-.25a197 197 0 0 1-.342-3.721 2.304 2.304 0 0 1 2.373-2.492h.045l.751.04 2.406.114a2.84 2.84 0 0 1 2.697 2.594c.09 1.092.205 2.36.347 3.709z"/>
  <path fill="#97FFEB" d="M64.528 51.592h-9.306v-.017l.205-6.781 7.532.034c1 1.644 1.655 3.834 1.57 6.764"/>
  <path fill="#97FFEB" d="m62.96 44.829-7.533-.034.142-4.722c1.673.307 5.297 1.343 7.39 4.756"/>
  <path fill="#437FF5" d="m62.284 20.242-.165 5.416-.75-.034h-.046c-2.572-.12-3.823.785-3.578 3.282.085.876.164 1.86.267 2.89l-2.133-.062a.95.95 0 0 1-.922-.985l.188-6.195 1.479.148a1.004 1.004 0 0 0 1.103-.973l.074-2.497 4.483-.995z"/>
  <path fill="#3F66B1" d="M57.747 28.905c-.245-2.503 1.007-3.402 3.578-3.288a2.31 2.31 0 0 0-2.372 2.492c.085 1.075.199 2.35.34 3.72l-1.279-.04c-.102-1.03-.188-2.013-.267-2.89z"/>
  <path fill="#092E8C" d="m57.805 21.232-.074 2.497a1.004 1.004 0 0 1-1.103.973l-1.48-.148-1.734-.182a1.003 1.003 0 0 1-.905-1.03l.029-.938z"/>
  <path fill="#092E8C" d="m57.91 17.568-.109 3.669-5.268 1.172.114-3.834 2.469-.546-.057 1.98c0 .124.091.221.21.227a.22.22 0 0 0 .228-.21l.063-2.077.113-3.715 1.445.216a1 1 0 0 1 .86 1.024l-.063 2.105z"/>
  <path fill="#FBDB5C" d="M55.225 51.575v.017h-.9l.206-6.803.899.005z"/>
  <path fill="#FBDB5C" d="m55.573 40.072-.142 4.722h-.893l.148-4.841s.341.017.893.12z"/>
  <path fill="#092E8C" d="m55.559 17.938-.063 2.077a.214.214 0 0 1-.228.21.22.22 0 0 1-.21-.228l.057-1.98.387-.085h.056z"/>
  <path fill="#092E8C" d="m55.676 14.223-.114 3.714h-.057l-.387.086.114-3.857.13-4.415a.48.48 0 0 0-.176-.375.5.5 0 0 0-.267-.103.7.7 0 0 0-.142.017l-2.196.626s-.046.012-.068.012a.21.21 0 0 1-.2-.16.3.3 0 0 1-.01-.068c0-.091.068-.176.159-.2l2.19-.625a.8.8 0 0 1 .278-.034.86.86 0 0 1 .524.193 1 1 0 0 1 .142.143.86.86 0 0 1 .2.591l-.137 4.466z"/>
  <path fill="#00FFCE" d="m54.33 51.592-.21 6.9-3.055.052-4.243-.074-4.643-.08.023-1.274h.546l6.912.045.114-3.806.922-30.548 1.837-.404-.028.939c-.018.529.38.978.904 1.03l1.735.181-.188 6.195-.278 9.21-.148 4.836-.205 6.804z"/>
  <path fill="#092E8C" d="m55.234 14.16-.114 3.857-2.469.546.108-3.635a1.01 1.01 0 0 1 1.155-.967l1.325.193z"/>
  <path fill="#00FFCE" d="m55.37 9.746-.132 4.414-1.325-.193a1.014 1.014 0 0 0-1.155.967l-.108 3.635-1.838.41.274-9.006.01-.318 1.218.034s0 .051.012.068a.207.207 0 0 0 .267.148l2.196-.626a.6.6 0 0 1 .142-.017c.097 0 .194.04.267.103a.46.46 0 0 1 .177.375z"/>
  <path fill="#00FFCE" d="m52.648 18.569-.114 3.834-1.838.404.114-3.829z"/>
  <path fill="#3C6BFF" d="m49.773 53.356-.114 3.806-6.911-.04v-.029l.108-3.64zm.924-30.549-.922 30.548-6.917.097.876-29.098z"/>
  <path fill="#3C6BFF" d="m50.812 18.98-.113 3.828-6.963 1.548.119-3.835zm.272-9.001-.273 9-6.957 1.54.256-8.584z"/>
  <path fill="#3F66B1" d="m51.09 9.655-.005.324-6.975 1.957-.535-.386 7.527-2.111z"/>
  <path fill="#3C6BFF" d="m51.179 6.702-.08 2.73-7.52 2.111.119-4.05 6.127-1.838a1.053 1.053 0 0 1 1.353 1.041z"/>
  <path fill="#0A2660" d="m40.797 58.368 1.388.023 4.642.08c-.654 2.173-1.832 3.618-3.129 3.578v.011l-7.816.017c1.729-.364 3.146-3.328 3.254-6.974.12-3.931-1.332-7.162-3.237-7.22h-.182l-.091-1.097 1.49-.12c2.082.95 3.459 4.216 3.334 8.295l-.103 3.39.438.012z"/>
  <path fill="#3F66B1" d="M42.747 57.093v.029l-.546-.006v-.04l.728-24.034.256-8.568.546-.12-.876 29.099z"/>
  <path fill="#3F66B1" d="m43.85 20.52-.119 3.835-.546.119.114-3.829z"/>
  <path fill="#3F66B1" d="m44.112 11.935-.257 8.585-.551.125.273-9.096z"/>
  <path fill="#00FFCE" d="m33.613 34.873.637-.125 1.092-.21.722-.143 1.11-.222 5.762-1.132-.722 24.04v.04l-.023 1.275-1.388-.023.103-3.385c.125-4.238-1.286-7.657-3.59-8.71l-.102-.045-3.215.262-.09.057c-1.992 1.263-3.3 4.375-3.408 8.118l-.108 3.527v.011l-10.843-.165-1.934-.028.011-1.053h.49l5.995.04.097-3.294.512-17.077 1.49-.296.683-.13 1.098-.217.54-.108 2.981-.586 1.77-.353.347-.068z"/>
  <path fill="#437FF5" d="m43.188 24.474-.256 8.567-5.763 1.132 1.877-8.778z"/>
  <path fill="#3C6BFF" d="m43.3 20.646-.115 3.828-4.141.922.859-3.994zm.276-9.097-.273 9.096-3.396.756L42.825 7.76l.876-.256z"/>
  <path fill="#3C6BFF" d="m42.828 7.76-2.919 13.642-1.109.245 2.907-13.545z"/>
  <path fill="#314892" d="m40.898 54.984-.103 3.384-.438-.01.102-3.391c.126-4.08-1.251-7.344-3.333-8.294l-1.49.119-1.502.125c-1.81 1.15-3.095 4.096-3.209 7.76l-.108 3.526h-.438v-.01l.108-3.528c.114-3.743 1.417-6.855 3.408-8.118l.09-.057 3.215-.261.102.045c2.31 1.053 3.72 4.472 3.59 8.71z"/>
  <path fill="#3C6BFF" d="m41.703 8.102-2.907 13.545-.796.177L40.884 8.34zm-.823.239-2.884 13.482-1.03.228 2.873-13.397zm-.974 13.061-.86 3.993-1.108.245.859-3.994z"/>
  <path fill="#3C6BFF" d="m39.845 8.655-2.873 13.397-.637.142 2.861-13.346zM35.88 62.082a1.7 1.7 0 0 1-.41.034c-1.325-.04-2.428-1.61-2.94-3.88a13.7 13.7 0 0 1-.302-3.333c.114-3.806 1.655-6.866 3.487-7.008h.182c1.906.056 3.357 3.288 3.237 7.218-.108 3.647-1.53 6.61-3.254 6.975zm1.78-7.014c.075-2.366-.648-4.904-2.132-4.943-1.485-.04-2.361 2.446-2.435 4.807-.074 2.36.648 4.903 2.139 4.949 1.49.045 2.355-2.447 2.429-4.813"/>
  <path fill="#437FF5" d="m39.046 25.396-1.877 8.777-1.11.222 1.878-8.755z"/>
  <path fill="#3C6BFF" d="m39.195 8.846-2.861 13.346-2.128.472 2.634-12.282-.227-.756zm-.394 12.802-.859 3.993-.796.182.859-4z"/>
  <path fill="#B2CEF3" d="m37.215 55.052-.643-.029c.04-1.331-.563-2.201-1-2.218-.353-.012-.843.517-1.042 1.416l-.136.148-.04 1.246-.825.034a7 7 0 0 1 0-.711c.074-2.452.956-4.415 1.98-4.38 1.024.034 1.78 2.042 1.706 4.494"/>
  <path fill="#B2CEF3" d="m36.582 55.028.642.029c-.073 2.451-.955 4.42-1.973 4.386-.922-.029-1.633-1.667-1.707-3.79l.825-.033.142.165c.165.859.603 1.376.939 1.388.432.011 1.092-.82 1.132-2.15z"/>
  <path fill="#437FF5" d="M35.528 50.119c1.484.045 2.207 2.582 2.133 4.943s-.945 4.858-2.43 4.813c-1.484-.046-2.207-2.589-2.138-4.95.068-2.36.944-4.852 2.435-4.806m-.285 9.323c1.018.029 1.9-1.934 1.974-4.386s-.688-4.465-1.707-4.494c-1.018-.028-1.905 1.929-1.98 4.38-.005.24-.005.484 0 .712.075 2.116.786 3.76 1.707 3.788zm2.695-33.801-1.878 8.755-.722.142-.029-.165 1.832-8.55z"/>
  <path fill="#3C6BFF" d="m38.003 21.823-.86 4-1.023.227.853-4z"/>
  <path fill="#437FF5" d="M35.576 52.81c.432.01 1.041.88 1.001 2.218-.04 1.337-.7 2.167-1.132 2.15-.335-.011-.773-.535-.938-1.388l.392.444.706.023.574-.638.034-1.24-.535-.609-.71-.022-.439.483c.205-.899.694-1.428 1.041-1.416zm1.567-26.988-1.832 8.55.029.165-1.093.21 1.872-8.698z"/>
  <path fill="#092E8C" d="m35.538 54.385.711.019-.033 1.24-.71-.02z"/>
  <path fill="#092E8C" d="m36.181 55.614-.575.638-.705-.023.575-.637zm-.503-1.849.535.609-.706-.023-.54-.609z"/>
  <path fill="#3C6BFF" d="m36.969 22.051-.853 4-.643.136.859-3.994z"/>
  <path fill="#0A2660" d="m35.628 46.797.091 1.098c-1.831.136-3.373 3.197-3.487 7.008-.034 1.2.074 2.338.302 3.334l-1.718-.023.108-3.532c.108-3.67 1.4-6.61 3.208-7.76l1.502-.125z"/>
  <path fill="#3C6BFF" d="m36.612 9.627.228.756-2.634 12.282-.575.126.023-.825.029-.979L34 10.412v-.006z"/>
  <path fill="#092E8C" d="m34.506 55.79-.142-.164.04-1.246.136-.148.438-.483.54.608-.04 1.24-.574.637-.393-.443zM35.2 55c.011-.301-.086-.546-.21-.552-.126-.005-.234.233-.24.535s.086.546.205.552c.12.006.233-.233.245-.535"/>
  <path fill="#3C6BFF" d="m36.335 22.193-.86 3.993-1.962.438.028-.853.666-3.106zm-.218 3.857-1.871 8.699-.632.125 1.86-8.687z"/>
  <path fill="#092E8C" d="M34.992 54.448c.125 0 .222.25.21.552-.011.301-.12.54-.244.535-.126-.006-.217-.25-.205-.552.011-.302.12-.54.239-.535"/>
  <path fill="#437FF5" d="m35.475 26.188-1.86 8.686-.353.069.25-8.317z"/>
  <path fill="#3C6BFF" d="m34.203 22.664-.665 3.106.09-2.98z"/>
  <path fill="#437FF5" d="m33.513 26.625-.25 8.316-1.763.353 1.854-8.635zm.032-.854-.029.853-.16.034z"/>
  <path fill="#3C6BFF" d="m33.633 22.79-.091 2.98-.188.888-3.003.672.858-4zm.017-.825-.022.825-2.424.54.137-.654z"/>
  <path fill="#3C6BFF" d="m33.68 20.986-.028.979-2.31.71.262-1.194z"/>
  <path fill="#3C6BFF" d="m34.004 10.412-.319 10.576-2.076.495 2.372-11.07.023-.007zm-.024 0-2.373 11.07-.546.131 2.366-11.03z"/>
  <path fill="#437FF5" d="M33.354 26.659 31.5 35.294l-2.981.586 1.832-8.55z"/>
  <path fill="#3C6BFF" d="m33.43 10.582-2.367 11.03-1.11.262 2.35-10.956zm-1.13.336-2.349 10.957-.688.164 2.326-10.848-.017-.057z"/>
  <path fill="#3C6BFF" d="m31.605 21.482-.262 1.194-.552.177.267-1.24z"/>
  <path fill="#3C6BFF" d="m30.79 22.853.553-.177-.137.655-.546.12zm.784-11.719.017.057-2.326 10.848-4.142.984.17-5.797.018-.534.114-3.715z"/>
  <path fill="#3C6BFF" d="m31.21 23.33-.858 4-.54.119.853-4zm-.15-1.717-.267 1.24-1.127.347.285-1.325zm-.267 1.24-.131.598-1.104.244.108-.495z"/>
  <path fill="#3C6BFF" d="m30.664 23.45-.854 4-1.11.239.86-3.994z"/>
  <path fill="#437FF5" d="m30.347 27.33-1.832 8.55-.54.108 1.831-8.539z"/>
  <path fill="#3C6BFF" d="m29.81 27.45-1.831 8.539-1.098.216 1.82-8.516zm.143-5.575-.284 1.325-.7.216.296-1.376z"/>
  <path fill="#3C6BFF" d="m29.664 23.2-.109.495-.682.154.09-.433zm-.105.495L28.7 27.69l-.683.159.86-4z"/>
  <path fill="#3C6BFF" d="m29.263 22.04-.296 1.376-3.897 1.206.051-1.599zm-.293 1.376-.09.432-3.806.842v-.068z"/>
  <path fill="#3C6BFF" d="m25.07 24.69 3.806-.842-.86 3.999-3.06.677z"/>
  <path fill="#437FF5" d="m28.7 27.689-1.821 8.516-.683.13 1.82-8.487zm-.687.159-1.82 8.487-1.485.296.245-8.106z"/>
  <path fill="#3C6BFF" d="m24.194 53.709-.097 3.293-5.996-.04v-.056l.097-3.118zm.516-17.079-.518 17.078-5.996.08.717-23.927 6.041-1.337z"/>
  <path fill="#3C6BFF" d="m25.07 24.69-.113 3.834-6.041 1.337.12-3.828zm-.003-.068v.068l-6.035 1.343.045-1.57 6.041-1.44z"/>
  <path fill="#3C6BFF" d="m25.295 17.227-.17 5.797-6.042 1.439.165-5.535z"/>
  <path fill="#3F66B1" d="m25.309 16.692-.017.535-6.048 1.7-.477-.397 6.525-1.838z"/>
  <path fill="#3C6BFF" d="m25.424 12.977-.114 3.714h-.017l-6.525 1.838.108-3.584v-.006z"/>
  <path fill="#0A2660" d="M19.531 58.044c-.551 1.854-1.553 3.083-2.65 3.049l-6.702.034c1.61.051 2.998-2.605 3.1-5.922.103-3.316-1.126-6.053-2.736-6.098-1.61-.046-2.998 2.605-3.1 5.928a11.4 11.4 0 0 0 .256 2.832l-1.457-.022v-.023l.092-2.975c.09-3.1 1.183-5.587 2.707-6.56l2.532-.21c1.758.802 2.924 3.567 2.816 7.014l-.086 2.862v.011l.37.006 2.919.045 1.934.029z"/>
  <path fill="#3F66B1" d="M18.104 56.906v.057h-.49v-.074l.57-18.972.238-7.941.495-.114-.716 23.927zm.929-30.873-.12 3.828-.494.114.119-3.834z"/>
  <path fill="#3F66B1" d="m19.08 24.463-.045 1.57-.495.109.046-1.56z"/>
  <path fill="#3F66B1" d="m19.246 18.928-.165 5.535-.495.12.182-6.053z"/>
  <path fill="#00FFCE" d="M5.192 32.91c1.576.979 3.3 2.958 3.18 6.94l2.845-.557 1.047-.205.716-.142 5.2-1.024-.575 18.972v.068l-.011 1.053-2.918-.046v-.011l.085-2.862c.108-3.584-1.087-6.468-3.038-7.361l-.09-.04-2.714.228-.074.045c-1.684 1.07-2.788 3.698-2.879 6.86l-.09 2.976v.029l-2.305-.035a2.57 2.57 0 0 1-2.526-2.645l.763-25.377.284.011.654-.148-.068 2.333s1.206.125 2.509.932z"/>
  <path fill="#3C6BFF" d="m18.42 29.975-.239 7.942-5.2 1.024 1.747-8.147z"/>
  <path fill="#437FF5" d="m18.536 26.142-.12 3.834-3.692.819.86-3.994z"/>
  <path fill="#437FF5" d="m18.583 24.582-.045 1.559-2.953.66.336-1.587z"/>
  <path fill="#437FF5" d="m18.771 18.53-.182 6.053-2.662.631 2.15-10.035.802-.239v.006z"/>
  <path fill="#3C6BFF" d="m17.34 15.4.734-.222-2.15 10.035-.723.17z"/>
  <path fill="#00FFCE" d="m17.348 12.476.37 1.15-.381 1.78-5.45 1.638-7.617 2.281a1.77 1.77 0 0 0-1.252 1.639l-.222 7.384-.654.153-.284-.011.256-8.47a3.81 3.81 0 0 1 2.645-3.51l12.595-4.034z"/>
  <path fill="#437FF5" d="m17.333 15.4-2.139 9.985-3.59.853.28-9.199z"/>
  <path fill="#3C6BFF" d="m15.924 25.213-.336 1.587-.728.154.341-1.57z"/>
  <path fill="#314892" d="M14.685 57.958v.011l-.375-.005v-.012l.085-2.861c.103-3.447-1.058-6.207-2.816-7.014l-2.531.21c-1.525.973-2.617 3.459-2.708 6.56l-.091 2.974v.023l-.37-.005v-.029l.091-2.975c.097-3.169 1.195-5.791 2.879-6.86l.073-.046 2.714-.228.091.04c1.951.893 3.146 3.777 3.038 7.361l-.085 2.862z"/>
  <path fill="#3C6BFF" d="m15.59 26.8-.858 3.994-.723.16.854-4z"/>
  <path fill="#437FF5" d="m15.204 25.384-.342 1.57-3.288.734.04-1.45z"/>
  <path fill="#437FF5" d="m14.86 26.954-.853 4-2.555.568.12-3.834z"/>
  <path fill="#437FF5" d="M14.727 30.795 12.98 38.94l-.716.142 1.74-8.129z"/>
  <path fill="#3C6BFF" d="m14.004 30.954-1.74 8.129-1.047.205.233-7.765zm-3.456 18.153c1.61.05 2.833 2.781 2.736 6.098s-1.49 5.967-3.1 5.922c-1.115-.034-2.042-1.354-2.48-3.26a11.2 11.2 0 0 1-.256-2.833c.102-3.322 1.49-5.973 3.1-5.928m1.485 6.064c.062-2.003-.552-4.142-1.803-4.181-1.252-.04-1.992 2.064-2.054 4.061-.063 1.997.557 4.142 1.803 4.176s1.991-2.065 2.054-4.062z"/>
  <path fill="#B2CEF3" d="M11.66 55.159v.029l-.563-.029c.029-.967-.466-1.621-.802-1.633-.222-.005-.523.262-.711.717l-.302.341-.034 1.047-.7.017a5 5 0 0 1 0-.586c.063-2.076.808-3.731 1.673-3.709.865.023 1.513 1.73 1.45 3.8z"/>
  <path fill="#B2CEF3" d="M11.66 55.188c-.068 2.059-.813 3.697-1.672 3.669-.773-.023-1.382-1.417-1.44-3.209l.7-.017.268.302c.16.495.46.796.688.802.336.011.87-.614.9-1.581l.562.028z"/>
  <path fill="#437FF5" d="M10.232 50.99c1.252.04 1.866 2.178 1.804 4.18-.063 2.003-.803 4.097-2.054 4.063-1.252-.035-1.866-2.18-1.803-4.176.062-1.997.802-4.102 2.053-4.062zm1.434 4.198v-.029c.062-2.076-.586-3.777-1.445-3.8s-1.61 1.633-1.673 3.71q-.008.296 0 .585c.063 1.792.666 3.186 1.44 3.209.859.028 1.604-1.616 1.672-3.67z"/>
  <path fill="#437FF5" d="M10.298 53.527c.336.012.83.666.802 1.633s-.563 1.587-.899 1.582c-.227-.006-.529-.308-.688-.803l.188.21.603.018.483-.535.034-1.052-.455-.512-.603-.017-.17.199c.187-.455.489-.723.71-.717z"/>
  <path fill="#092E8C" d="m10.189 54.528.597.018-.032 1.052-.597-.018z"/>
  <path fill="#092E8C" d="m10.358 54.062.455.517-.597-.017-.455-.517zm.428 1.57-.483.535-.604-.017.49-.535z"/>
  <path fill="#3C6BFF" d="m11.452 31.522-.233 7.765-2.845.558c.12-3.982-1.604-5.962-3.18-6.94l6.258-1.388z"/>
  <path fill="#437FF5" d="m11.571 27.689-.114 3.834L5.2 32.91c-1.309-.808-2.509-.933-2.509-.933l.068-2.332zm.037-1.451-.04 1.45-8.812 1.957.04-1.303z"/>
  <path fill="#437FF5" d="m11.89 17.04-.278 9.198-8.818 2.1.222-7.385a1.76 1.76 0 0 1 1.252-1.638l7.617-2.281z"/>
  <path fill="#092E8C" d="m10.216 54.561-.029 1.052-.484.535-.187-.21-.268-.302.035-1.047.301-.335.17-.2.456.513zm-.262.546c.005-.256-.074-.46-.177-.466-.102-.006-.193.199-.204.455-.012.256.068.46.176.466s.2-.199.205-.455"/>
  <path fill="#092E8C" d="M9.779 54.642c.108 0 .187.21.176.466s-.102.456-.205.456c-.102 0-.182-.211-.176-.467s.097-.46.205-.455"/>
  <path fill="#00FFCE" d="m2.801 28.342-.04 1.303-.654.142-.284-.005.034-1.292.29.006z"/>
  <path stroke="#000" stroke-linecap="round" stroke-linejoin="round" stroke-width=".22" d="m61.94 58.356-7.822.136-3.055.057-4.243-.074-4.642-.08-1.389-.028-.437-.005M7.7 57.867l-1.457-.023h-.37l-2.303-.04a2.57 2.57 0 0 1-2.526-2.645l.762-25.377.04-1.292.256-8.47a3.81 3.81 0 0 1 2.645-3.51l12.595-4.034L51.327 1.595a11.7 11.7 0 0 1 5.649-.358l30.793 5.722a6.09 6.09 0 0 1 4.955 5.467l.153 1.798.029.324.33 3.886 1.883 22.209.364 4.329.563 6.61.273 3.22a2.763 2.763 0 0 1-2.697 2.992l-12.242.216m-48.847.232h-.006l-1.712-.029-.439-.011-10.842-.16-1.934-.028-2.919-.045-.375-.006"/>
  <path stroke="#000" stroke-linecap="round" stroke-linejoin="round" stroke-width=".22" d="m24.098 57.002-5.996-.04h-.489m32.051.2-6.911-.04-.547-.006m1.37-45.566 7.526-2.111m-32.332 9.09 6.525-1.838m18.28-5.141.535.386 6.974-1.957m-31.836 8.948 6.047-1.7m-.58 19.403 1.485-.295.683-.13 1.098-.217.54-.108 2.981-.586 1.764-.353.352-.068.632-.125 1.092-.21.722-.143 1.11-.222 5.762-1.132M8.372 39.845l2.845-.558 1.047-.205.716-.142 5.2-1.024m25.932-25.98-.257 8.584-.119 3.834-.876 29.098-.108 3.64"/>
  <path stroke="#000" stroke-linecap="round" stroke-linejoin="round" stroke-width=".22" d="m43.701 7.504-.125 4.045-.273 9.096-.114 3.828-.256 8.568-.728 24.035m-8.201-46.664-.319 10.576-.028.978-.023.825-.091 2.98-.028.854-.25 8.317v.006m-5.285 1.039-.04.177M11.89 17.04l-.278 9.198-.04 1.45-.12 3.835-.233 7.765"/>
  <path stroke="#000" stroke-linecap="round" stroke-linejoin="round" stroke-width=".22" d="M8.374 39.846c.12-3.982-1.604-5.962-3.18-6.94-1.309-.808-2.509-.933-2.509-.933l.068-2.333.04-1.303.222-7.384a1.76 1.76 0 0 1 1.252-1.638l7.617-2.281 5.45-1.638.733-.222.802-.24 6.548-1.962 6.15-1.843.728-.222 1.126-.336.552-.165h.029l2.61-.79 2.583-.774.649-.193 1.04-.313.814-.245 1.127-.341.87-.262 6.127-1.837a1.053 1.053 0 0 1 1.354 1.04l-.08 2.731v.222l-.017.319-.273 9.005-.114 3.829-.921 30.548-.114 3.806"/>
  <path stroke="#000" stroke-linecap="round" stroke-linejoin="round" stroke-width=".22" d="m25.424 12.977-.114 3.714-.017.535-.17 5.797-.052 1.598v.069l-.113 3.834-.245 8.106-.518 17.078-.096 3.294m-5.331-38.474.478.399-.165 5.535-.045 1.57-.12 3.828-.716 23.927-.097 3.117"/>
  <path stroke="#000" stroke-linecap="round" stroke-linejoin="round" stroke-width=".22" d="m18.88 14.946-.109 3.584-.182 6.053-.045 1.559-.12 3.834-.239 7.941-.569 18.972m18.102-8.995h.182c1.906.056 3.357 3.288 3.237 7.219-.108 3.646-1.53 6.61-3.254 6.974q-.204.042-.41.034c-1.325-.04-2.429-1.61-2.94-3.88a13.7 13.7 0 0 1-.302-3.333c.114-3.806 1.655-6.867 3.487-7.009z"/>
  <path stroke="#000" stroke-linecap="round" stroke-linejoin="round" stroke-width=".22" d="m30.38 58.198.107-3.528c.114-3.743 1.417-6.854 3.408-8.117l.09-.057 3.215-.262.102.046c2.31 1.052 3.72 4.471 3.59 8.71l-.103 3.384"/>
  <path stroke="#000" stroke-linecap="round" stroke-linejoin="round" stroke-width=".22" d="m30.82 58.208.107-3.527c.108-3.67 1.4-6.61 3.209-7.76l1.502-.125 1.49-.12c2.082.95 3.459 4.216 3.334 8.295l-.103 3.39m-5.46-2.132.705.022"/>
  <path stroke="#000" stroke-linecap="round" stroke-linejoin="round" stroke-width=".22" d="m35.478 55.591-.575.637-.393-.438-.148-.17.04-1.246.137-.148.432-.484.54.609zm.2-1.825.535.608-.035 1.24-.574.638m-.097-1.901.706.023m-1.245-.632.71.023m-.202 1.827.705.022"/>
  <path stroke="#000" stroke-linecap="round" stroke-linejoin="round" stroke-width=".22" d="M35.232 59.88c-1.485-.045-2.208-2.588-2.14-4.949s.945-4.852 2.435-4.807c1.49.046 2.208 2.583 2.134 4.944s-.945 4.858-2.43 4.812"/>
  <path stroke="#000" stroke-linecap="round" stroke-linejoin="round" stroke-width=".22" d="M37.217 55.05c-.075 2.452-.956 4.42-1.974 4.387-.922-.029-1.633-1.667-1.707-3.79a7 7 0 0 1 0-.71c.074-2.452.956-4.415 1.98-4.38 1.023.033 1.78 2.042 1.706 4.493z"/>
  <path stroke="#000" stroke-linecap="round" stroke-linejoin="round" stroke-width=".22" d="M34.535 54.226c.205-.9.694-1.428 1.041-1.417.432.012 1.041.882 1.001 2.219s-.7 2.167-1.132 2.15c-.335-.011-.773-.534-.938-1.388v-.011"/>
  <path stroke="#000" stroke-linecap="round" stroke-linejoin="round" stroke-width=".22" d="M35.202 55c-.011.302-.12.54-.244.535-.126-.006-.217-.25-.205-.552.011-.301.12-.54.239-.535.12.006.222.25.21.552M7.704 57.866a11.2 11.2 0 0 1-.256-2.833c.102-3.322 1.49-5.973 3.1-5.927 1.61.045 2.833 2.781 2.736 6.098s-1.49 5.967-3.1 5.922c-1.115-.034-2.042-1.354-2.48-3.26m11.827.177c-.551 1.848-1.553 3.077-2.65 3.043"/>
  <path stroke="#000" stroke-linecap="round" stroke-linejoin="round" stroke-width=".22" d="m5.882 57.81.091-2.975c.097-3.169 1.195-5.791 2.879-6.86l.073-.046 2.714-.228.091.04c1.951.893 3.146 3.777 3.038 7.361l-.086 2.862"/>
  <path stroke="#000" stroke-linecap="round" stroke-linejoin="round" stroke-width=".22" d="m6.245 57.82.09-2.974c.092-3.1 1.184-5.587 2.709-6.56l2.531-.21c1.758.802 2.924 3.567 2.816 7.014l-.085 2.862m-4.119 3.174 6.701-.034M9.7 56.149l.604.017"/>
  <path stroke="#000" stroke-linecap="round" stroke-linejoin="round" stroke-width=".22" d="m9.584 54.244.176-.2.456.518-.029 1.053-.49.535-.181-.217-.268-.301.029-1.047.307-.336m.774-.189.455.518-.028 1.052-.484.535m-.085-1.603.597.017m-1.049-.534.597.017m-.172 1.553.597.017"/>
  <path stroke="#000" stroke-linecap="round" stroke-linejoin="round" stroke-width=".22" d="M9.982 59.227c-1.252-.04-1.866-2.18-1.803-4.176.062-1.997.802-4.102 2.053-4.062 1.252.04 1.866 2.18 1.804 4.182s-.803 4.095-2.054 4.061z"/>
  <path stroke="#000" stroke-linecap="round" stroke-linejoin="round" stroke-width=".22" d="M8.549 55.648a5 5 0 0 1 0-.586c.062-2.076.807-3.731 1.672-3.709.865.023 1.513 1.73 1.45 3.8v.029c-.073 2.06-.813 3.697-1.672 3.669-.773-.023-1.382-1.416-1.439-3.208z"/>
  <path stroke="#000" stroke-linecap="round" stroke-linejoin="round" stroke-width=".22" d="M9.587 54.249c.188-.46.49-.728.711-.723.336.012.83.666.802 1.633s-.563 1.587-.899 1.582c-.227-.006-.529-.308-.688-.803"/>
  <path stroke="#000" stroke-linecap="round" stroke-linejoin="round" stroke-width=".22" d="M9.955 55.108c-.006.256-.102.456-.205.456-.102 0-.182-.211-.176-.467s.097-.46.205-.455.187.21.176.466M75.123 7.06 59.24 4.398a3.08 3.08 0 0 0-3.584 2.94L55.6 9.16m34.964 3.686-.017-.233a3.9 3.9 0 0 0-3.163-3.499L76.9 7.356m6.045 25.185h.012l3.59.108 4.402.131a1.17 1.17 0 0 0 1.2-1.268L90.563 12.87m-8.577 19.643.359.011m-1.979-.058 1.047.029m-11.116-.337 1.08.034 1.076.035m-3.106-.097.347.012m-2.124-.062 1.126.034m-13.741-1.371a.954.954 0 0 0 .922.984l2.133.062 1.28.04M76.003 7.215l.922 25.15m-1.198-8.819.324 8.789m1.193-15.416-.12-3.39-.136-3.755-.091-2.412-.887-.148-.882-.154.09 2.418.137 3.806.017.403.131 3.618.034.916m1.768.303-.057-1.604m.564 15.468-.125-3.493-.233-6.343m3.939 35.457c-.626 2.39-1.867 4.016-3.243 3.977m-3.244-3.863c-.717 2.32-2.099 3.89-3.652 3.851-1.473-.045-2.714-1.542-3.322-3.726M55.673 14.223l1.445.216a1 1 0 0 1 .86 1.024l-.063 2.105-.108 3.669-.074 2.497a1.004 1.004 0 0 1-1.104.973l-1.479-.148-1.735-.182a1.003 1.003 0 0 1-.904-1.03l.028-.938.114-3.834.108-3.636a1.01 1.01 0 0 1 1.155-.967l1.325.194"/>
  <path stroke="#000" stroke-linecap="round" stroke-linejoin="round" stroke-width=".22" d="m55.562 17.938-.063 2.076a.214.214 0 0 1-.227.21.22.22 0 0 1-.21-.227l.056-1.98.114-3.857.13-4.414a.48.48 0 0 0-.176-.376.5.5 0 0 0-.267-.102.7.7 0 0 0-.142.017l-2.196.626s-.046.011-.068.011a.21.21 0 0 1-.2-.16.3.3 0 0 1-.01-.067c0-.091.068-.177.159-.2l2.19-.625a.8.8 0 0 1 .278-.034.86.86 0 0 1 .524.193 1 1 0 0 1 .142.142.86.86 0 0 1 .2.592l-.137 4.466-.114 3.714zm37.321-3.708 1.44-.194c.284-.04.569.04.79.222.228.182.365.438.387.728l.25 2.907.45 5.29a.165.165 0 0 1-.148.177h-.023a.165.165 0 0 1-.159-.148l-.455-5.353-.245-2.85a.723.723 0 0 0-.813-.649l-1.445.194"/>
  <path stroke="#000" stroke-linecap="round" stroke-linejoin="round" stroke-width=".22" d="m95.759 17.892.813.08c.279.028.5.25.523.529l.626 7.361a.578.578 0 0 1-.609.626l-2.144-.108a.58.58 0 0 1-.552-.53l-.637-7.452a.58.58 0 0 1 .631-.625l1.007.09m-40.273 6.685-.182 6.195-.279 9.21-.148 4.835-.204 6.804-.205 6.9m-18.416 3.59h.17l7.817-.017m3.13-3.589c-.654 2.173-1.832 3.618-3.129 3.579m27.553-.047 6.9-.018"/>
  <path stroke="#000" stroke-linecap="round" stroke-linejoin="round" stroke-width=".22" d="M96.064 51.587a3.9 3.9 0 0 1-2.514.961l-29.087.279a36.7 36.7 0 0 1-7.64-.728l-2.491-.507H91.2zm-3.916-6.623 3.351.012h.006m-40.977-.187.9.005 7.531.034"/>
  <path stroke="#000" stroke-linecap="round" stroke-linejoin="round" stroke-width=".22" d="M95.134 40.648s-1.82.512-2.987 4.318c-.489 1.575-.859 3.72-.944 6.627m-26.675-.001c.09-2.93-.564-5.12-1.57-6.764-2.094-3.419-5.718-4.454-7.39-4.756a8 8 0 0 0-.893-.12m7.269 18.404a.434.434 0 0 1-.42-.45V57.8a.44.44 0 0 1 .431-.421l31.198-.45a.44.44 0 0 1 .438.45.43.43 0 0 1-.427.42l-11.776.211-6.49.114-6.98.125-5.957.108h-.023z"/>
  <path stroke="#000" stroke-linecap="round" stroke-linejoin="round" stroke-width=".22" d="m55.572 40.073-.142 4.722-.205 6.78m31.979-40.509-.114 3.663-.54 17.925M75.372 13.687l-17.459 3.88m25.658-5.693-3.22.71-1.035.234"/>
  <path stroke="#000" stroke-linecap="round" stroke-linejoin="round" stroke-width=".22" d="M90.591 13.08q-.002-.102-.022-.205v-.028a2.33 2.33 0 0 0-2.805-1.906l-.563.125-3.63.802m-3.657 15.359-.022.603m.457-15.24-.108 3.664-.307 10.132m-8.497 3.85-.063 1.957m.111-3.463-.018.585m.33-11.218v.028l-.296 9.756m-9.217-7.639-.165 5.416"/>
  <path stroke="#000" stroke-linecap="round" stroke-linejoin="round" stroke-width=".22" d="M83.571 11.867v.005l-.113 3.664-.512 16.987v.017m-7.445-15.233-3.698.82-9.517 2.116-4.483.99"/>
  <path stroke="#000" stroke-linecap="round" stroke-linejoin="round" stroke-width=".22" d="m87.088 14.729-3.63.808-3.213.717-2.998.665h-.006m-.261-7.145 1.872.313a.63.63 0 0 1 .523.637l-.063 2.094-.01.375a.57.57 0 0 1-.65.552l-1.535-.21m-1.765-.25-2.122-.296a.63.63 0 0 1-.54-.637l.079-2.623a.58.58 0 0 1 .671-.552l1.775.302m10.539 35.669c-.028.125-.051.256-.08.387a.895.895 0 0 1-.876.722h-2.366c-.068.461-.296.86-.62 1.144s-.745.45-1.206.45h-5.49a1.85 1.85 0 0 1-1.832-1.594h-2.469a.9.9 0 0 1-.858-.654c-.04-.148-.086-.29-.131-.438a.213.213 0 0 1 .205-.279h15.524c.137 0 .239.125.205.256zM74.83 22.88l-.17-4.63a.388.388 0 0 1 .432-.398h.102a.4.4 0 0 1 .341.375l.154 4.148.045 1.171.188 5.234a.38.38 0 0 1-.387.392h-.108a.4.4 0 0 1-.38-.38l-.098-2.52-.068-1.827m-.016-.545-.017-.513m3.582 1.963.046 1.223.08 2.202a.463.463 0 0 1-.478.478.414.414 0 0 1-.398-.353c0-.011-.006-.028-.006-.051l-.228-6.297-.148-3.994v-.029a.414.414 0 0 1 .456-.398h.01a.465.465 0 0 1 .416.444l.17 4.585m.021.728.029.603"/>
  <path stroke="#000" stroke-linecap="round" stroke-linejoin="round" stroke-width=".22" d="M75.463 22.38s-.011.045-.023.068l-.591.938-1.912 3.044-.864 1.365-.586.933-2.14 3.402-.682 1.08a.29.29 0 0 1-.398.092.29.29 0 0 1-.091-.398s.199-.296.523-.791c.615-.927 1.701-2.566 2.81-4.232 1.32-1.991 2.674-4.034 3.323-5l.38-.581c.08-.114.251-.034.251.08m-.6 1.52.307-.49c.085-.153.33-.011.24.142l-.53.882-1.052 1.775-1.678 2.828-.712 1.2-1.143 1.923-.637 1.07a.277.277 0 0 1-.376.096.274.274 0 0 1-.09-.387l.5-.802 1.775-2.828.626-1 1.297-2.06 1.473-2.355zm3.513-.012-.534-1.172c-.074-.153.165-.279.239-.114l.267.546 1.587 3.237 3.01 6.138v.018l.517 1.035a.29.29 0 0 1-.136.387.284.284 0 0 1-.387-.137l-.603-1.303-2.43-5.296-1.535-3.339zm.707 3.032-.648-1.57-.637-1.525c-.069-.159.182-.273.255-.108l.348.78 1.49 3.339 2.088 4.682.466 1.052a.277.277 0 0 1-.136.364.277.277 0 0 1-.37-.148l-.535-1.291-1.36-3.265m.006 0-.961-2.31m-17.723-1.302.751.034 2.406.114a2.84 2.84 0 0 1 2.697 2.594c.09 1.092.205 2.36.347 3.709l-8.277-.25a193 193 0 0 1-.342-3.72 2.304 2.304 0 0 1 2.373-2.492"/>
  <path stroke="#000" stroke-linecap="round" stroke-linejoin="round" stroke-width=".22" d="M58.013 31.79c-.102-1.03-.187-2.014-.267-2.89-.245-2.503 1.007-3.402 3.578-3.288h.046m10.723 2.708c-.006-.097-.017-.188-.023-.285-.005-.08 0-.159 0-.239m7.984 1.434c.085.99.193 2.089.313 3.238l-2.554-.08-.882-.029-.876-.028-3.607-.108c-.12-1.15-.216-2.23-.296-3.18m6.327-2.476c.205.086.427.216.603.347m-5.24-.694 1.109.052m-2.021.159c.136-.08.296-.142.455-.176M24.194 53.709l-5.996.08m31.575-.434-6.918.097"/>
  <path fill="#000" d="m7.707 57.851-3.783-.073c-1.638.153-3.06-1.303-2.815-2.942 0-.551.085-2.252.096-2.838.24-6.878.609-19.65.836-26.481l.12-3.783c.057-1.23-.085-2.549.648-3.613.683-1.115 1.895-1.524 3.095-1.866l3.601-1.16 7.208-2.321c2.355-.734 30.838-9.938 32.426-10.439 2.338-.813 4.886-1.587 7.378-1.132 6.786 1.251 19.296 3.607 26.043 4.87l3.72.7c1.23.227 2.498.386 3.556 1.091 2.378 1.462 2.873 3.863 2.952 6.486l.637 7.543 2.555 30.173.159 1.883c.04.631.165 1.257-.028 1.832-.348 1.2-1.537 1.974-2.782 1.888-4.71.074-17.806.347-22.704.444-2.867.068-16.384.319-18.92.381-2.538.017-8.733-.125-11.356-.148a.012.012 0 0 0 0 .023c2.657.034 8.778.205 11.355.2 2.492-.04 16.145-.251 18.92-.29 4.905-.086 17.943-.268 22.71-.365 1.667.142 3.271-1.331 3.118-3.038-.069-.569-.165-2.224-.24-2.833-.466-5.609-2.798-32.721-3.213-37.71l-.165-1.883c-.154-1.923-1.258-3.738-2.901-4.745-1.081-.71-2.384-.882-3.624-1.11l-3.72-.687a9353 9353 0 0 0-26.06-4.79c-1.884-.28-3.824-.052-5.616.568l-1.803.575c-1.44.472-30.258 9.625-32.46 10.337l-7.213 2.298-3.607 1.149c-1.212.335-2.526.808-3.208 1.962-.751 1.093-.62 2.464-.672 3.72l-.108 3.784c-.216 6.826-.551 19.615-.756 26.487l-.051 1.894c.034.506-.114 1.388.028 1.9.262 1.297 1.553 2.167 2.85 2.048 0-.023 3.863.091 3.783.017z"/>
  <path fill="#000" d="M32.53 58.227c-3.033-.261-6.076-.056-9.114-.193-3.038-.13-6.076-.188-9.113-.085-.017 0-.017.022 0 .022 3.037.194 6.075.228 9.113.194 3.015-.068 6.172.296 9.113.057zm-8.437-1.234c-.813-.142-1.62-.108-2.429-.046-1.348-.034-2.73-.233-4.062.017 1.337.257 2.708.08 4.062.063.785.057 1.713.16 2.435-.034zm25.565.157c-.933-.141-1.86-.113-2.793-.045-1.553-.034-3.134-.233-4.67.012 1.541.256 3.117.085 4.67.068.905.057 1.957.16 2.799-.034zM43.58 11.568c.978-.137 1.905-.432 2.827-.768 1.57-.415 3.22-.683 4.698-1.365-1.62.199-3.162.824-4.721 1.285-.928.21-2.008.41-2.805.842zm-24.812 6.974c.853-.097 1.656-.364 2.452-.66 1.365-.358 2.805-.569 4.079-1.189-1.417.143-2.742.706-4.096 1.115-.808.177-1.758.342-2.435.74z"/>
  <path fill="#000" d="M43.567 11.562c.182.148.347.365.551.45.592-.131 1.184-.273 1.752-.5 1.719-.57 3.539-.78 5.211-1.525.012 0 .006-.029-.005-.023-1.815.233-3.476 1.007-5.24 1.416-.597.103-1.172.285-1.746.484l.063.011c-.194-.108-.387-.261-.592-.33v.017zM19.246 18.94c.796-.08 1.542-.33 2.275-.608 1.263-.33 2.606-.512 3.778-1.104-1.32.114-2.549.648-3.8 1.03-.745.159-1.639.307-2.253.688zm5.464 17.705c3.078-.387 6.064-1.235 9.119-1.741 3.055-.518 6.093-1.104 9.096-1.849.017 0 .012-.028 0-.023-3.066.45-6.098 1.058-9.119 1.741-2.992.705-6.206 1.013-9.09 1.872zM8.378 39.864c1.678-.114 3.26-.677 4.915-.91 1.644-.251 3.323-.535 4.904-1.036-1.655.142-3.31.506-4.926.904-1.588.427-3.402.461-4.893 1.047z"/>
  <path fill="#000" d="M44.099 11.938c-.285 5.421-.438 11.469-.546 16.935-.307 9.41-.745 18.813-.82 28.228 0 .017.023.017.023 0 .495-9.404.626-18.813.888-28.222.199-5.438.483-11.594.45-16.935zM43.685 7.5c-.302 5.957-.473 12.596-.598 18.592-.335 10.33-.79 20.655-.899 30.986 0 .017.023.017.023 0 .518-10.325.677-20.656.967-30.986.216-5.974.518-12.72.5-18.597zm-9.697 2.908c-.227 3.06-.279 6.133-.307 9.199-.188 5.108-.483 10.217-.432 15.337 0 .017.022.017.022 0 .359-5.103.376-10.223.495-15.337.131-3.044.342-6.23.222-9.205zM11.875 17.04c-.222 2.776-.262 5.557-.285 8.345-.176 4.636-.455 9.267-.386 13.909 0 .017.022.017.022 0 .347-4.63.347-9.267.45-13.903.125-2.754.324-5.655.199-8.346z"/>
  <path fill="#000" d="M8.376 39.852c.234-3.743-1.769-7.35-5.694-7.942l.062.074.234-7.077.12-3.538c-.012-.586.085-1.143.523-1.547.085-.45 14.38-4.432 15.115-4.762 10.42-3.15 20.894-6.33 31.349-9.335a.964.964 0 0 1 .979 1.03l-.029.881-.648 21.225c-.256 9.432-.552 18.893-.734 28.319.387-9.415.665-18.876.973-28.307.136-4.67.494-16.703.631-21.225l.023-.882c.057-.654-.53-1.28-1.2-1.234-.336.028-.592.153-.882.227-10.149 3.083-20.326 6.184-30.503 9.176L5.122 18.963c-.472.16-1.297.307-1.65.716-.466.427-.602 1.104-.58 1.696l-.096 3.538-.194 7.077c4.142.944 5.746 3.846 5.774 7.873z"/>
  <path fill="#000" d="M25.406 12.978c-.284 5.285-.432 11.184-.529 16.508-.301 9.17-.728 18.341-.796 27.517 0 .017.023.017.023 0 .489-9.165.614-18.34.864-27.51.194-5.303.478-11.304.438-16.51zm-6.643 5.559.466.41-.011-.023c-.13 2.275-.2 4.824-.296 7.116-.136 10.257-.796 20.605-.83 30.862 0 .017.022.017.022 0 .552-9.444.524-19.023.933-28.478.057-1.178.131-3.567.142-4.745.018-1.587.097-3.185.075-4.772l-.484-.387c-.011-.012-.029.011-.017.017"/>
  <path fill="#000" d="M18.862 14.947c-.273 5.04-.415 10.655-.506 15.73-.29 8.737-.706 17.47-.757 26.22 0 .016.023.016.023 0 .472-8.733.586-17.477.825-26.215.187-5.051.46-10.774.415-15.729zm20.255 40.168c.018 2.202-1.462 8.237-4.602 6.6-3.163-2.538-2.719-9.791-.341-12.75.961-1.25 2.486-1.205 3.385.097 1.257 1.718 1.576 3.971 1.558 6.059zm.023 0c.182-2.36-.773-8.68-4.329-7.048-3.43 2.332-3.55 11.207-.392 13.79.96.727 2.28.255 2.946-.643 1.354-1.713 1.684-3.988 1.78-6.099z"/>
  <use xlink:href="#a"/>
  <path fill="#000" d="M30.387 58.199c.273-3.977-.023-9.17 3.601-11.657-.051-.017 3.396-.216 3.175-.233 2.048.973 2.963 3.288 3.367 5.393.467 2.173.165 4.545.273 6.673.262-4.164.808-9.978-3.572-12.225q-.02-.007-.046-.006l-3.208.307C30.234 49 30.262 54.216 30.387 58.2"/>
  <path fill="#000" d="M30.824 58.216c.29-3.812-.068-8.761 3.305-11.241l2.998-.21c1.724.904 2.685 3.253 3.01 5.239.398 2.093.142 4.266.216 6.37.125-2.115.375-4.294.028-6.416-.37-2.065-1.212-4.454-3.271-5.37l-2.987.284c-3.492 2.543-3.407 7.515-3.293 11.338z"/>
  <path fill="#000" d="M34.9 56.241c.096.142.17.102.267.034q.042-.007.085.029c.102.096.29.102.358-.069-.187-.239-.267-.062-.443-.04-.029-.01-.057-.045-.086-.062-.045-.023-.17.017-.182.108"/>
  <path fill="#000" d="M35.457 55.593a7 7 0 0 0-.638.575h.148a4.6 4.6 0 0 0-.551-.597l.022.056c-.062-.347.006-1.024 0-1.2q.315-.29.615-.597h-.177q.254.317.535.608l-.028-.085c.005.404.022.802.08 1.24zm.022.006c.057-.41.177-.887.125-1.32a9 9 0 0 0-.546-.614.12.12 0 0 0-.17-.012q-.29.332-.552.689c.028.483-.04.899-.04 1.33.154.229.341.428.53.627.039.04.096.04.136 0a6 6 0 0 0 .517-.7m.184-1.826c.114.256.262.49.484.66l-.023-.062c.114.415-.068.824-.08 1.24l.034-.086c-.165.205-.438.49-.466.728.256-.153.478-.347.665-.563.069-.216 0-.472-.022-.7-.046-.216 0-.432.04-.642-.063-.16-.49-.603-.632-.58z"/>
  <path fill="#000" d="M35.504 54.365c.096.142.17.102.267.034.028-.006.057.006.085.028.103.097.29.103.359-.068-.188-.239-.268-.062-.444-.04-.029-.011-.057-.045-.085-.062-.046-.023-.171.017-.182.108m-.544-.609c.097.142.17.102.267.034q.043-.007.086.029c.102.096.29.102.358-.069-.187-.239-.267-.062-.444-.04-.028-.01-.056-.045-.085-.062-.045-.023-.17.017-.182.108m.51 1.854c.096.143.17.103.267.035q.042-.008.085.028c.103.097.29.103.359-.068-.188-.239-.268-.063-.444-.04-.029-.011-.057-.045-.085-.062-.046-.023-.171.017-.183.108"/>
  <path fill="#000" d="M35.229 59.865c-2.873-.228-2.703-9.665.29-9.677 2.85.29 2.622 9.603-.29 9.677m-.006.023c2.696-.273 2.907-5.763 2.207-7.743-.773-2.725-2.97-2.799-3.874-.096-.648 1.837-.796 3.908-.205 5.785.296.876.825 1.985 1.878 2.048z"/>
  <use xlink:href="#a"/>
  <path fill="#000" d="M34.543 54.228c.188-.484.415-1.03.882-1.275.136-.068.267-.028.404.08.546.432.75 1.246.682 1.957-.056.711-.278 1.456-.762 1.928-.637.54-1.07-.7-1.246-1.143 0 .364.131.757.33 1.087 1.019 1.41 1.946-.916 1.815-1.866-.034-.689-.29-2.549-1.308-2.236-.501.267-.82.995-.791 1.473z"/>
  <path fill="#000" d="M35.189 54.996c.006.199-.233.426-.227.438-.12.023-.205-.268-.148-.45.028-.096.056-.193.09-.279.023-.085.12-.153.08-.13.034.011.228.29.2.42zm.023.005c.222-.927-.66-.881-.535-.017l.063.325c.034.096-.012.256.216.33.352-.023.256-.416.256-.638m-21.952.204c0 1.86-1.23 6.912-3.88 5.563-2.765-2.11-2.401-9.318.364-11.315 2.673-1.245 3.646 3.931 3.515 5.752m.028 0c.136-2.043-.598-7.333-3.675-5.974-2.571 1.929-2.583 6.554-1.752 9.375.489 1.883 2.258 3.767 3.93 1.758 1.144-1.45 1.411-3.379 1.491-5.16zm6.231 2.838c-.29.472-.438.973-.637 1.473-.461.746-1.172 1.354-2.014 1.576 1.001.256 1.695-.756 2.082-1.541.301-.421.626-1.024.569-1.514z"/>
  <use xlink:href="#b"/>
  <path fill="#000" d="M5.888 57.81c.256-3.35 0-7.754 3.038-9.841l2.72-.188c3.379 1.877 3.015 6.741 3.032 10.188.278-3.498.71-8.538-3.044-10.359l-2.713.262c-3.163 2.15-3.175 6.576-3.033 9.938"/>
  <path fill="#000" d="M6.256 57.822c.268-3.209-.045-7.413 2.793-9.49l2.532-.17c3.078 1.917 2.714 6.486 2.714 9.79.29-3.265.733-8.038-2.686-9.949q-.018-.008-.045-.006l-2.526.245c-2.952 2.145-2.913 6.366-2.782 9.585zm3.919 3.315c.836.131 1.673.091 2.515.017 1.393.017 2.821.2 4.198-.062-1.388-.24-2.799-.051-4.198-.017-.814-.046-1.77-.143-2.515.062"/>
  <path fill="#000" d="M9.691 56.16c.08.143.143.103.222.035.023-.006.052.005.074.028.086.097.25.097.302-.068-.165-.245-.228-.057-.376-.04-.022-.011-.05-.045-.074-.062-.04-.023-.148.022-.153.108z"/>
  <path fill="#000" d="M10.166 55.608c-.205.16-.387.307-.547.472h.148a3.3 3.3 0 0 0-.466-.5l.023.057a3.6 3.6 0 0 1 .017-1.053l-.017.046a9 9 0 0 0 .523-.5h-.176c.142.175.29.352.449.517l-.028-.086c.011.336.028.677.085 1.047zm.022.006c.057-.341.171-.757.12-1.126a7 7 0 0 0-.467-.524.12.12 0 0 0-.17-.011 7 7 0 0 0-.461.591c.005.359.023.723-.051 1.081 0 .023.011.04.022.057.126.2.285.364.45.53.04.039.097.039.136 0 .165-.194.313-.405.427-.604z"/>
  <path fill="#000" d="M10.345 54.072c.085.222.204.42.398.563l-.023-.063c.114.353-.068.7-.074 1.047l.034-.085c-.12.136-.398.472-.38.631.227-.12.414-.279.58-.466.068-.182 0-.404-.023-.603-.046-.182-.006-.359.04-.54-.006-.12-.495-.575-.552-.496z"/>
  <path fill="#000" d="M10.207 54.573c.08.142.142.103.222.034.023-.005.051.006.074.029.085.096.25.096.301-.068-.165-.245-.227-.057-.375-.04-.023-.012-.051-.046-.074-.063-.04-.023-.148.023-.154.108zm-.452-.513c.08.143.142.103.222.035.022-.006.05.006.073.028.086.097.25.097.302-.068-.165-.245-.228-.057-.375-.04-.023-.011-.052-.045-.074-.062-.04-.023-.148.022-.154.108zm.428 1.564c.08.142.142.102.222.034.022-.005.05.006.074.029.085.096.25.096.301-.069-.165-.244-.228-.056-.375-.04-.023-.01-.052-.045-.074-.062-.04-.023-.148.023-.154.108z"/>
  <path fill="#000" d="M9.971 59.215c-2.4-.176-2.27-8.192.245-8.163 2.384.273 2.201 8.078-.245 8.163m0 .029c2.73-.16 3.015-8.038.25-8.323-2.639.2-2.992 8.021-.25 8.323"/>
  <use xlink:href="#b"/>
  <path fill="#000" d="M9.581 54.25c.262-.41.689-.882 1.007-.433.347.324.512.865.433 1.354-.069.484-.234.973-.558 1.291-.313.416-.734-.108-.944-.534 0-.012-.029 0-.023.005.455 1.866 1.792.478 1.661-.762-.074-.614-.102-1.468-.768-1.746-.415-.103-.842.534-.808.819z"/>
  <path fill="#000" d="M9.94 55.109c.012.17-.227.352-.187.352.017.04-.097-.034-.114-.108-.056-.16.029-.341.086-.483.017-.069.108-.12.051-.097-.051-.034.034.023.074.09a.38.38 0 0 1 .09.245m.024 0c.227-.814-.598-.769-.461-.012l.057.279c.028.08-.017.222.188.296.358-.063.204-.353.221-.558zM82.943 32.56c2.259.085 5.934.261 8.164.3.591-.045 1.098-.551 1.132-1.143 0-.392-.046-.733-.069-1.098L92 28.452c-.233-2.736-.91-10.172-1.166-12.999l-.194-2.167c.046-2.39-1.65-4.198-4.033-4.358-9.296-1.57-18.585-3.3-27.91-4.63-1.5 0-2.872 1.206-3.048 2.696-.057.734-.04 1.45-.063 2.179 0 .017.023.017.023 0 .04-.723.04-1.456.114-2.168.21-1.427 1.524-2.582 2.975-2.56 9.29 1.485 18.58 3.17 27.886 4.614 2.315.125 4.016 1.894 3.977 4.233l.176 2.167c.228 2.861.813 10.24 1.047 13.01l.193 2.168c.188 1.211.102 2.195-1.422 2.065-1.923-.029-5.729-.177-7.612-.137zm-.966-.03c.052.148.086.096.137.034.017-.006.028.005.045.028.052.108.16.074.182-.074-.102-.25-.147-.04-.227-.034-.017-.011-.029-.045-.046-.062-.022-.029-.096.04-.09.113zm-11.684-.352c1.849.267 3.703.074 5.558.222 1.849.125 3.732.227 5.57.102-1.838-.233-3.715-.25-5.57-.233-1.832.057-3.794-.319-5.558-.091m-.952-.028c.046.148.08.097.131.034.074.012.108.228.216-.022-.017-.148-.114-.188-.17-.086-.04.063-.063 0-.086-.04-.023-.028-.09.04-.09.114m-14.209-7.6c-.143 2.144-.296 4.272-.222 6.422.096.455.523.79.973.802.853.011 1.706.068 2.565.102 3.39.165 6.935.342 10.257.228-4.267-.336-8.545-.324-12.822-.415-1.093-.091-.825-1.23-.791-2.008.045-1.684.142-3.516.04-5.132"/>
  <path fill="#000" d="M76 7.216c.255 8.243.54 16.901.92 25.15 0 .005.012.005.012 0-.233-8.243-.552-16.958-.933-25.15"/>
  <path fill="#000" d="M77.817 32.395C77.572 25 77.225 14.59 76.9 7.331l-1.764-.302c-.125-.028.438 12.64.398 12.675.154 4.21.313 8.453.524 12.651l1.763.04zm-.012-.006-1.752-.062c-.097-4.119-.25-8.436-.404-12.623-.034.034-.415-12.817-.529-12.6l1.77.29c.198 7.065.625 17.702.92 24.995zM81.38 58.01c-.307.626-.494 1.269-.739 1.906-.546.944-1.382 1.855-2.486 2.06-.011 0-.017.022 0 .022 1.274.216 2.094-1.052 2.56-2.048.353-.563.711-1.314.671-1.94zm-6.49.115c-.99 2.611-3.147 5.547-5.69 2.514-.563-.7-.927-1.564-1.28-2.4a5.94 5.94 0 0 0 1.081 2.554c2.22 2.964 5.558.068 5.888-2.668M55.665 14.242l.894.159c.568.068 1.234.216 1.32.876-.092 2.702-.16 5.433-.188 8.146.073.603-.28 1.23-.928 1.24-.853-.068-1.831-.199-2.696-.295-1.16-.063-1.57-.359-1.434-1.57l.12-3.624c.04-1.206.057-2.418.074-3.63-.017-.58-.012-1.245.631-1.462.267-.108.569-.028.87 0l.9.103s.016-.023 0-.023l-.894-.16c-.29-.039-.603-.153-.921-.033a1.06 1.06 0 0 0-.672.648c-.273 2.458-.233 5.666-.341 8.175l-.011.455c-.057.49.256 1.018.733 1.172.547.136 1.27.12 1.827.193.938.017 2.52.603 2.793-.722.13-2.879.324-5.751.29-8.63-.131-.74-.848-.905-1.468-.927l-.899-.103a.012.012 0 0 0 0 .023z"/>
  <path fill="#000" d="M55.268 20.214c-.17-.01-.216-.17-.193-.324l.017-.455c.13-2.662.296-5.49.296-8.152l.011-.904c-.017-.256.086-.689-.068-.916-.194-.319-.586-.222-.865-.125l-1.752.477c-.068.018-.153.046-.199.046-.199-.023-.193-.313.034-.324l1.752-.472c.563-.211 1.166-.183 1.36.449.068.45-.034 1.286-.029 1.775-.05 1.758-.113 3.686-.119 5.438 0 .586-.006 2.15-.023 2.72l-.011.455c.017.147-.04.312-.21.307zm0 .029c.342 0 .228-.45.262-.785.017-.563.108-2.133.142-2.72.126-2.212.188-4.573.245-6.797.114-.694-.512-1.371-1.229-1.178-.301.068-1.849.552-2.179.643-.335.04-.37.535-.005.574.176-.011.927-.267 1.109-.312l.87-.256c.268-.091.603-.194.774.096.125.2.023.632.04.87-.029.57-.103 2.128-.131 2.72-.097 2.06-.074 4.283-.108 6.349l-.011.455c-.029.147.04.347.227.347zm37.62-6.001 1.417-.137c.45-.074.898.216 1.046.62.109.347.097 1.001.143 1.383l.125 1.416c.216 1.883.398 3.772.517 5.66.012.08-.08.131-.136.091-.068-.022-.046-.204-.057-.261l-.046-.711c-.159-2.35-.352-4.745-.608-7.083.028-.518-.398-1.04-.962-.916l-1.405.233c-.017 0-.011.029 0 .023l1.417-.142c.489-.08.808.336.768.814.142 2.349.358 4.738.597 7.082.012.097.085.79.091.882.017.318.506.29.472-.034-.085-.945-.199-1.883-.267-2.833-.103-1.366-.17-2.885-.296-4.256-.062-.432-.04-1.007-.182-1.433-.188-.49-.745-.785-1.24-.677l-1.4.239s-.01.028 0 .023z"/>
  <path fill="#000" d="m95.75 17.906.7.09c.58.018.592.524.603.985l.046.7c.113 2.099.426 4.198.58 6.286-.17.79-1.223.33-1.804.38l-.7-.05c-.352.01-.636-.137-.66-.484a163 163 0 0 0-.58-6.65l-.073-.7a.525.525 0 0 1 .21-.557c.17-.137.41-.091.643-.08l.7.04s.017-.023 0-.023c-.25-.017-.808-.12-1.053-.137-.404-.034-.734.393-.654.768.08 1.161.142 2.344.245 3.505.09 1.16.204 2.338.318 3.498.017.381.08.825.518.945.261.057.808.034 1.075.056.603-.056 1.73.365 1.883-.506-.068-1.177-.154-2.338-.222-3.515-.085-1.16-.199-2.338-.318-3.499-.04-.21-.017-.512-.126-.711-.113-.239-.404-.353-.631-.341l-.7-.04s-.017.023 0 .023zM55.13 24.55c-.268 4.237-.353 8.481-.416 12.725-.25 7.071-.603 14.137-.609 21.22 0 .016.023.016.023 0 .421-7.066.49-14.143.672-21.214.17-4.216.41-8.579.33-12.732M35.708 62.096c1 .131 1.996.097 2.998.023 1.66.017 3.356.205 5.006-.051-1.656-.245-3.34-.057-5.007-.029-.972-.045-2.087-.148-2.997.057"/>
  <path fill="#000" d="M46.812 58.472c-.319.563-.506 1.15-.751 1.735-.54.859-1.348 1.638-2.367 1.837-.01 0-.01.023 0 .023 1.184.222 1.974-.904 2.44-1.82.348-.5.718-1.195.684-1.775zm24.435 3.549c.865.137 1.724.097 2.588.023 1.44.023 2.907.205 4.324-.051-1.428-.245-2.884-.057-4.324-.029-.836-.05-1.82-.142-2.588.057M96.059 51.6c-.677.528-1.525.887-2.401.898H91.03l-5.257.034c-6.081.012-14.864.16-21.031.24-3.516.119-6.986-.496-10.405-1.252l-.011.136c13.317.074 28.432.074 41.732-.057m0-.024c-13.3-.13-28.427-.13-41.733-.05-.074 0-.097.119-.011.136 1.718.33 3.43.722 5.176.927 3.487.512 12.14.182 15.77.227 5.068-.01 10.677-.119 15.774-.181l2.629-.052c.881-.05 1.757-.375 2.394-1.007m-3.911-6.604c.421.137.836.103 1.257.034.7.029 1.428.222 2.105-.034-.694-.239-1.4-.074-2.105-.045-.392-.057-.921-.148-1.257.045m-37.614-.169c1.052.142 2.104.108 3.162.04 1.752.028 3.539.227 5.28-.017-1.747-.256-3.522-.08-5.28-.063-1.03-.057-2.201-.159-3.163.04"/>
  <path fill="#000" d="M95.124 40.632c-3.095 1.092-4.147 8.072-3.93 10.968.005 0 .01 0 .01-.012.473-3.749.484-8.647 3.914-10.956zM64.539 51.593c.011-.705.051-1.422 0-2.133-.068-.381-.16-1.223-.245-1.587-.808-2.907-2.696-5.61-5.5-6.883-1.292-.598-2.726-1.013-4.13-1.036 1.382.245 2.758.654 4.021 1.263 2.509 1.2 4.693 3.402 5.25 6.2l.149.507.085.518.177 1.04c.102.672.05 1.503.187 2.111zm-3.001 6.315c-.011-.17.04-.34.182-.438.137-.108.319-.074.484-.08l1.018-.01c1.269-.018 4.801-.03 6.116-.035 7.093 0 15.325-.296 22.425-.335l1.018-.012c.307-.011.705-.051.745.33.006.393-.336.415-.666.398l-1.018.012-2.037.023c-2.57.028-9.568.147-12.23.193-4.63.063-9.626.239-14.268.347l-1.018.028c-.324.035-.745.012-.745-.42zm-.028 0c.006.456.426.49.773.461l1.019-.011c1.268-.011 4.801-.046 6.115-.063 7.043-.045 15.365-.233 22.425-.392l1.018-.023c.165-.017.342.028.535-.068.381-.194.33-.808-.09-.922-9.074.131-18.973.148-28.052.41l-2.037.04-1.018.017c-.165.011-.353-.023-.5.09-.154.103-.2.296-.188.461"/>
  <path fill="#000" d="M55.55 40.075c-.273 1.911-.08 3.834-.227 5.75-.131 1.912-.234 3.863-.108 5.764.238-1.9.255-3.84.238-5.763-.056-1.895.325-3.925.097-5.757zm31.63-29.008c-.216 2.697-.255 5.393-.272 8.095-.171 4.495-.45 8.989-.376 13.494 0 .017.023.017.023 0 .341-4.488.335-8.994.438-13.494.12-2.673.319-5.49.188-8.095m-11.812 2.617c-5.825 1.252-11.673 2.492-17.459 3.88 5.82-1.195 11.708-2.526 17.459-3.88"/>
  <path fill="#000" d="M90.584 13.075c.011-1.075-.887-2.076-1.968-2.207-.54-.09-1.064.097-1.576.21-2.583.558-5.171 1.064-7.731 1.736-.006 0 0 .011 0 .011q3.115-.59 6.19-1.348c1.012-.182 2.059-.62 3.094-.518 1.052.16 1.877 1.058 1.985 2.116zM79.9 27.229c-.108.096.012.199-.034.301-.045.091-.05.239.029.301a.29.29 0 0 0 .034-.301c-.04-.108.085-.2-.017-.302z"/>
  <path fill="#000" d="M80.343 12.592c-.176 4.596-.38 9.21-.41 13.806.234-4.573.348-9.255.41-13.806m-8.922 17.651c-.142.245-.113.484-.05.734-.046.415-.217.808-.012 1.223 0 .012.017.012.023 0 .233-.404.085-.808.062-1.223.08-.244.125-.483 0-.734 0-.011-.017-.011-.023 0m.051-1.511c-.142.08-.102.137-.034.222.006.023-.006.051-.028.074-.097.085-.091.244.068.296.25-.165.051-.228.04-.365.011-.022.045-.045.062-.073.023-.04-.022-.143-.108-.148zm.326-10.633c-.137 3.26-.302 6.536-.29 9.79.193-3.237.267-6.576.29-9.79m-9.529 2.139c-.154.677-.142 1.348-.091 2.03-.057 1.127-.284 2.282-.063 3.397.28-1.11.131-2.264.143-3.396.074-.649.187-1.44.011-2.031m21.282-8.369c-.216 2.583-.25 5.165-.261 7.754-.166 4.306-.439 8.612-.359 12.924 0 .018.023.018.023 0 .336-4.3.324-8.612.42-12.919.12-2.56.314-5.262.177-7.753z"/>
  <path fill="#000" d="M75.494 17.302c-5.905 1.268-11.833 2.526-17.703 3.936a650 650 0 0 0 17.703-3.936m11.594-2.571c-3.288.689-6.6 1.36-9.853 2.19 3.282-.63 6.633-1.399 9.853-2.19M76.979 9.782c.631.148 1.274.267 1.905.37.734.17.398 1.12.427 1.666l-.051.973c-.017.302.034.654-.262.825-.222.16-.66.017-.91.011-.313-.022-.688-.102-.973-.085.46.097.973.17 1.44.256a.66.66 0 0 0 .511-.074c.342-.182.308-.603.308-.927v-.973c-.069-.592.307-1.525-.467-1.77-.631-.107-1.325-.238-1.928-.267zm-1.628 3.498a29 29 0 0 0-2.088-.335c-.34-.012-.608-.353-.551-.706.028-.808.068-1.82.136-2.622.103-.353.455-.427.785-.342.495.057 1.11.182 1.576.2-.495-.114-1.052-.217-1.553-.314-.341-.125-.836 0-.927.421-.069.837-.012 1.82-.057 2.657-.063.364.188.768.575.808.688.09 1.439.222 2.099.239zm10.397 31.868c-.085.802-.495 1.183-1.314 1.087l-1.996-.04a.06.06 0 0 0-.046.017c-.16.87-.939 1.587-1.837 1.536l-2.697.011-2.696.046c-.888.051-1.735-.66-1.844-1.553 0-.023-.022-.034-.04-.034l-2.542-.029c-.563-.04-.751-.608-.842-1.08 0-.063.051-.126.114-.132 4.676.063 9.989.04 14.642-.068h.638c.187-.011.495-.034.455.24zm.023.006c.046-.296-.273-.285-.478-.279h-.637l-1.274-.017a312 312 0 0 0-7.646-.085c-.301 0-5.666.034-5.746.045-.346.057-.267.41-.17.637.08.427.432.86.904.882l2.555-.017-.04-.034c.142.922.984 1.667 1.928 1.633l2.697.04 2.696.01c.95.075 1.946-.88 1.929-1.649l-.046.017 1.997-.04c.83.074 1.263-.307 1.337-1.137zM74.829 22.882c-.017-1.337-.069-2.816-.108-4.158.011-.165-.063-.512.028-.654.154-.273.677-.21.734.108.023.204.034.813.051 1.03.068 1.342.12 2.821.154 4.158.034 1.837.125 3.715.159 5.524-.063.216-.301.261-.495.21-.233-.062-.256-.279-.256-.5l-.062-1.383c-.012 0-.12-2.81-.154-2.77.023.91.074 3.276.102 4.158.012.114-.011.233.046.364.108.256.432.319.677.24a.42.42 0 0 0 .261-.285c-.022-1.883-.125-3.704-.204-5.558-.063-1.337-.12-2.816-.148-4.159-.012-.239-.012-.807-.034-1.046-.069-.404-.711-.49-.905-.143-.12.2-.034.495-.045.712.074 1.33.096 2.867.21 4.152z"/>
  <path fill="#000" d="M74.866 23.902c.102-.091-.023-.166.017-.262.04-.08.034-.21-.051-.256q-.095.134-.018.261c.046.091-.073.171.035.256h.017m3.557 1.445c.011 1.092.051 2.201.08 3.294.034.221-.035.42-.222.512-.302.147-.603-.108-.558-.438-.165-3.1-.239-6.434-.341-9.546l-.023-.654a.36.36 0 0 1 .381-.336c.512.04.359.683.404 1.024.051.813.13 3.14.21 3.948l-.056-2.634-.035-1.32-.022-.66a.52.52 0 0 0-.49-.472.47.47 0 0 0-.506.444l.023.666.051 1.314c.131 2.668.25 5.569.307 8.226-.062.38.336.733.706.529.427-.216.227-.774.239-1.269-.052-.865-.057-1.803-.142-2.634z"/>
  <path fill="#000" d="M78.368 23.897c-.102.102.023.193-.017.301-.04.091-.04.239.051.296a.29.29 0 0 0 .017-.302c-.045-.102.069-.199-.04-.296zm-2.94-1.452a404 404 0 0 0-5.455 8.641l-.91 1.44c-.228.244-.387.978-.803.733-.102-.08-.13-.233-.056-.335l-.052-.046c2.23-3.476 4.87-7.082 7.072-10.57.073-.125.307 0 .21.137zm.012.011c.102-.142-.148-.307-.24-.153-1.774 2.537-3.578 5.421-5.244 8.01l-1.764 2.628-.051-.046a.33.33 0 0 0 .08.427c.477.284.648-.49.887-.762l.905-1.445a413 413 0 0 0 5.427-8.659m-.037 1.104c-1.917 3.089-3.857 6.45-5.723 9.58-.216.443-.722.056-.38-.302 1.461-2.287 3.145-4.932 4.55-7.248l.78-1.268c.125-.188.455-.768.591-.939.102-.074.267.063.188.177zm.011.005c.091-.12-.085-.279-.21-.199-.154.182-.472.728-.614.933a407 407 0 0 0-3.988 6.28c-.256.41-.927 1.497-1.172 1.9-.08.177-.376.484-.313.683a.31.31 0 0 0 .307.233c.142.006.256-.125.302-.227l.375-.643c1.747-2.907 3.63-6.03 5.308-8.965z"/>
  <path fill="#000" d="M78.075 22.604c1.673 3.567 3.573 7.322 5.302 10.866.307.45-.319.745-.466.205-.296-.66-.86-1.9-1.16-2.572a496 496 0 0 0-3.738-8.038l-.171-.364c-.063-.13.176-.239.233-.097m.011-.005c-.062-.16-.324-.052-.261.108l.165.37a484 484 0 0 0 3.663 8.072c.222.478.802 1.73 1.024 2.19.108.17.216.637.444.677a.32.32 0 0 0 .376-.17c.08-.143 0-.297-.063-.405l-.358-.722c-1.605-3.305-3.323-6.86-4.984-10.126zm-.038 1.121c1.365 3.22 2.93 6.604 4.352 9.801.204.41-.382.586-.473.125-.984-2.417-2.122-5.205-3.157-7.594l-.563-1.314c-.074-.2-.364-.78-.404-.984.011-.12.205-.16.25-.04zm.011-.006c-.046-.137-.262-.097-.279.04.04.221.307.773.387 1a324 324 0 0 0 2.72 6.617l.835 1.974c.097.165.16.552.37.62a.31.31 0 0 0 .359-.103c.085-.102.074-.267.005-.37l-.295-.648c-1.314-2.98-2.72-6.19-4.096-9.136zm-10.495 8.362c-2.833-.153-5.524-.301-8.266-.313l.069.063a103 103 0 0 1-.245-2.315l-.097-1.16c-.193-1.144.564-2.339 1.701-2.566.626-.137 1.633.034 2.293.04l1.16.062c1.144-.04 2.242.575 2.708 1.633.296.591.29 1.581.393 2.23l.278 2.326zm.017.012-.16-2.31c-.084-.7-.033-1.695-.329-2.35-.444-1.149-1.7-1.843-2.896-1.803l-1.166-.045c-.705.005-1.655-.16-2.35.017-1.205.29-1.973 1.57-1.751 2.764l.113 1.161q.105 1.16.182 2.321c0 .034.035.063.069.063 2.776.159 5.603.17 8.288.187z"/>
  <path fill="#000" d="M58.026 31.792c.04-1.104-.125-2.19-.267-3.277-.148-2.27 1.69-2.845 3.606-2.884.012 0 .017-.023 0-.023-1.405-.268-3.39.12-3.618 1.809-.159 1.44-.062 3.038.28 4.374m14.07-3.476c.097-.096-.028-.165.006-.261.04-.086.04-.194-.04-.262a.216.216 0 0 0-.023.262c.052.085-.062.176.046.256h.011zm7.933.916q.051 1.629.222 3.248l.108-.12c-1.32-.01-2.64.03-3.96-.079a92 92 0 0 0-3.953-.176l.12.114c-.126-1.059-.217-2.145-.421-3.18 0 1.058.102 2.144.176 3.208 0 .063.057.108.114.114 1.32.057 2.64.068 3.965.062 1.32-.028 2.64.086 3.96.16.056 0 .107-.046.107-.103-.114-1.058-.199-2.264-.438-3.237zm-1.559-2.649c.063.136.205.073.285.165.068.09.176.164.296.153-.063-.227-.29-.16-.41-.307-.04-.029-.137-.057-.176-.017zm-4.631-.355c.183.114.37 0 .558.052.182.05.387.068.563-.012a.86.86 0 0 0-.557-.057c-.176.04-.41-.113-.558.012zm-.91.212c.124.05.13-.086.232-.08.086.017.188-.017.222-.108-.097-.051-.187-.029-.244.045-.063.069-.188 0-.21.131 0 0 0 .012.005.012zM24.19 53.698c-.75-.125-1.502-.08-2.253 0-1.251-.005-2.531-.176-3.76.091 1.246.228 2.509.029 3.76-.011.729.04 1.593.125 2.247-.085zm25.584-.352c-.865-.125-1.73-.074-2.595.006-1.439 0-2.912-.17-4.329.102 1.434.228 2.89.023 4.335-.023.842.04 1.82.126 2.594-.085z"/>
</svg>
