<svg xmlns="http://www.w3.org/2000/svg" width="27" height="31" fill="none" viewBox="0 0 27 31">
  <path fill="#FFCF02" d="M13.727 2.065c-.21.37-.347.833-.292 1.316.097.88.953 1.739 1.646 1.945 0 0-.548-.273-.338-1.754a3 3 0 0 1 .098-.445h-.005s-.393-1.118-1.109-1.064z"/>
  <path fill="#FFCF02" d="M13.728 2.065c.713-.053 1.108 1.062 1.108 1.062h.005c.32-1.052 1.091-1.12 1.091-1.12-.408-.484-1.003-.718-1.26-.749-.24-.028-.656.303-.941.807z"/>
  <path fill="#FFCF02" d="m16.05 4.852.005-.005c.043-.071.236-.455.296-1.621a1.7 1.7 0 0 0-.42-1.22s-.771.07-1.092 1.123a3 3 0 0 0-.097.446c-.21 1.481.338 1.753.338 1.753.205.061.397.066.55-.002.08-.059.183-.107.235-.153.075-.066.123-.224.183-.318z"/>
  <path fill="#7F6C6F" d="M16.739 5.964c-.04.201-.083.408-.118.616-.513 2.815-.633 5.99.96 7.29 0 0-1.188 3.83-1.788 5.701l-.178.55c-.498 1.51-.875 1.886-.875 1.886s-.496-.514-.65-1.11l-.516-.107c.22 1.214.803 1.728.803 1.728-1.667 3.938-3.606 5.485-4.706 6.078l.055 1.382c.833-.468 1.956-1.275 2.832-2.55 0 0 1.711 1.245 3.48.255.438-.245.84-.525 1.201-.812q.163-.126.31-.257c.924-.794 1.534-1.576 1.76-1.787.33-.313 1.015-.532 1.363-.423l.047-.488a1.83 1.83 0 0 0-.963.12s.728-1.021 1.116-1.716c.39-.695.445-.942.265-1.036-.183-.097-.353-.025-.59.458-.113.23-1.064 1.79-2.37 3.166-.065.066-.13.138-.197.204-1.422 1.438-3.218 2.58-4.81 1.598 0 0 1.73-2.524 2.89-5.546.243-.63.461-1.283.634-1.937 0 0 .207-.557.888-.616 0 0 .24-.295.1-.519s-.653-.096-.653-.096.425-1.225.683-2.215c.04-.163.218-.25.363-.173.207.11.523.209.918.138a1.5 1.5 0 0 0 .328-.1 2 2 0 0 1-.03-.244s-.67.229-1.239-.38c0 0 .683-2.509.983-3.318s.52-1.092.951-1.176c.433-.087.21-.346.138-.491-.075-.143-.576-.046-.576-.046s.488-2.036.588-2.871c.1-.832.015-.664-.207-.728-.223-.069-.34 1.278-1.234 3.894-.76 2.225-.953 2.729-.953 2.729s-1.211-1.517-.55-5.786C17.855 2.96 18.62 1.37 18.91.693c.105-.247.088-.468-.135-.519-.223-.053-.533.652-.78 1.278-.108.275-.784 2.214-1.251 4.512z"/>
  <path fill="#7F6C6F" d="M9.675 28.596s-4.458 2.777-8.256-1.519l-.523 1.558s4.02 3.942 9.144.926l-.365-.967z"/>
  <path fill="#82B485" d="M13.494 19.612c.002-.186.02-.38.042-.585.035-.29.065-.593.093-.896l.005-.084a45 45 0 0 0 .18-4.251c-.008-.455-.03-.768-.073-.857-.14-.321-.618.224-.548.778 0 0-1.176.723-1.628 2.47-.45 1.743.067 4.026 1.979 4.453a5.6 5.6 0 0 1-.053-1.03zM15.63 5.324c-.127.091-.192.206.088.371.46.273.898.884.898.884h.006c.035-.207.077-.41.117-.614-.02-.076-.188-.797-.43-1.092-.123-.15-.198-.114-.255-.025-.003 0-.005.005-.005.005-.06.094-.108.252-.183.318-.05.046-.155.097-.235.153Z"/>
  <path fill="#82B485" d="M13.816 13.796c.013.68-.01 1.68-.07 2.749a44 44 0 0 1-.11 1.502l-.005.084q-.04.459-.092.895a7 7 0 0 0-.043.586 5.5 5.5 0 0 0 .078 1.178l.515.107-.027-.12s.765-.417 1.066-1.42c.014-.056.032-.12.044-.18.25-1.136.038-2.1.038-2.726s-.298-2.115-1.391-2.655z"/>
  <path fill="#FFCF02" d="M16.61 21.381q-.022.065-.044.137c-.423 1.382.305 2.13.713 2.322 0 0-.263-.22-.128-.51a.32.32 0 0 1 .153-.144c.17-.558.495-.97.848-1.27.305-.874-.235-1.627-.235-1.627-.48.061-1.026.33-1.306 1.09z"/>
  <path fill="#82B485" d="m22.273 13.158-.038.033-.825.766a68 68 0 0 1-.733.672 12 12 0 0 1-.951.791 2.3 2.3 0 0 1-.41.224 1.5 1.5 0 0 1-.328.1l1.226.511c1.226.512 3.127-.75 3.9-1.96.776-1.209 1.381-2.967 1.381-2.967.353-.067.666-.675-.075-.672q-.105.002-.285.099c-.596.32-1.746 1.367-2.865 2.403z"/>
  <path fill="#82B485" d="M20.847 12.234s-1.749 1.219-1.556 3.168q.009.119.03.245a2.3 2.3 0 0 0 .41-.224c.225-.158.558-.44.95-.792.229-.203.476-.432.734-.672.265-.244.545-.506.826-.766q.018-.02.037-.033c1.116-1.036 2.27-2.082 2.865-2.402 0 0-.65-.517-2.377-.156-1.726.357-1.92 1.634-1.92 1.634z"/>
  <path fill="#FFCF02" d="M17.919 20.291s.543.753.235 1.627c.605-.522 1.276-.706 1.276-.706-.198-.49-.586-.778-.763-.847a1.6 1.6 0 0 0-.748-.074"/>
  <path fill="#82B485" d="M17.154 23.333c-.135.29.128.509.128.509s-.023 1.008.705 1.272q.101-.1.198-.203s-.398-.405-.155-.998c0 0 .375-.1.182-.494-.152-.31-.638-.361-.903-.232a.33.33 0 0 0-.152.148z"/>
  <path fill="#FFCF02" d="M18.15 21.916c-.35.3-.677.712-.847 1.267.265-.13.75-.079.903.232.192.395-.183.494-.183.494.743-.02 1.286-.56 1.494-1.683.075-.402.02-.74-.093-1.015 0 0-.67.18-1.276.705zm-2.035 6.793c-.3.75-.158 1.097-.098 1.244s.34.303.496-.03c0 0 .52.178.93-.402-.417-.252-.347-.899-.172-1.27l.305-.146c-.098-.038-.125-.124-.125-.124s-.225-.026-.36-.158c0 0-.676.137-.976.886"/>
  <path fill="#82B485" d="M17.363 27.283s-.44.216-.345.435c.015.04.043.074.072.102.136.132.36.158.36.158s.03.089.126.124a.33.33 0 0 0 .2 0c.26-.076.385-.386.385-.386.16-.01.29-.15.34-.308.038-.117.033-.247-.04-.341a.34.34 0 0 0-.117-.092c-.183-.087-.42-.008-.42-.008-.095-.226-.34-.338-.37-.354q-.148.129-.31.258c.242.12.122.412.122.412z"/>
  <path fill="#FFCF02" d="M17.268 28.25c-.175.372-.245 1.02.173 1.27.415.252.728.133.728.133s.2.361.465.241c.27-.117.215-.437.215-.437s.58-.153.698-.94a.8.8 0 0 0-.07-.488c-.198-.4-.698-.53-.698-.53l-.283-.091c-.05.157-.18.297-.34.308 0 0-.125.31-.385.387a.3.3 0 0 1-.2 0l-.306.145z"/>
  <path fill="#FFCF02" d="M18.342 26.975a.4.4 0 0 1 .118.094c.072.094.078.222.04.341l.283.092s.5.127.698.53l.015-.01c.575-.14.695-.693.695-.693s.28.076.368-.143c.088-.216-.02-.509-.763-.71s-1.456.502-1.456.502z"/>
  <path fill="#82B485" d="m20.723 23.918-.048.49s.88.852 2.364 1.104l.136-.73c-.37-.683-1.061-1.126-1.061-1.126a6.6 6.6 0 0 0-1.186.306s-.075-.026-.203-.044z"/>
  <path fill="#82B485" d="M22.11 23.656s.69.443 1.06 1.125l-.134.73q.329.06.695.07c1.9.048 1.947-1.293 2.402-1.538.455-.242.42-.496-.313-.733 0 0-.948-1.051-2.472-.95-1.526.1-2.426 1.604-2.426 1.604.39-.142.79-.241 1.185-.305z"/>
  <path fill="#C95B12" d="M16.043 4.86c.225-.596.24-1.283.21-1.91-.08-.625-.548-1.117-1.093-1.386-.155-.074-.383-.176-.54-.173-.14.017-.318.155-.454.297-.55.583-.828 1.515-.457 2.266.32.656 1.12 1.55 1.919 1.369-.413.188-.879-.054-1.226-.283-.723-.506-1.279-1.417-1.059-2.339.165-.651.556-1.405 1.254-1.573.68.064 1.31.543 1.636 1.146.215.404.215.888.15 1.326-.067.427-.117.886-.345 1.26z"/>
  <path fill="#C95B12" d="M15.928 2.004c-1.073.408-1.21 1.904-1.065 2.9a.8.8 0 0 0 .215.422c-.158-.066-.26-.224-.338-.377-.403-1.005-.103-2.858 1.188-2.945"/>
  <path fill="#C95B12" d="M14.836 3.13c-.377-.402-.577-.873-1.108-1.064.598-.227 1.114.511 1.108 1.064"/>
  <path fill="#000" d="M13.547 20.655c-3.063-.764-2.665-5.503-.393-7.007l-.04.082c-.028-.37.093-.828.478-.96.088-.02.188.053.213.12.13.519.055 1.056.067 1.58-.04 1.38-.067 2.764-.23 4.136-.213 1.3-.148 2.853.786 3.854a.08.08 0 0 1 .02.089c-1.121 2.652-2.785 5.566-5.652 6.49-.56.313-1.549.537-2.302.626-.813.11-1.601-.232-2.357-.491-.75-.298-1.428-.761-2.049-1.28C1.483 27.367.84 26.799.549 26.02c-.005-.012.01-.023.023-.015.175.12.32.26.453.407.895 1.057 1.869 2.1 3.165 2.64.718.361 1.523.346 2.301.397.796.053 1.6-.194 2.28-.59 2.6-.777 4.473-3.989 5.544-6.371l.02.089c-1.319-1.469-.783-3.571-.683-5.355.093-1.367.19-2.757.065-4.121-.025-.306-.188-.16-.293.005a.94.94 0 0 0-.137.603.08.08 0 0 1-.035.08c-.553.386-1.001.954-1.301 1.577-.914 1.845-.536 4.694 1.603 5.29z"/>
  <path fill="#000" d="M.23 28.008c2.565 2.518 6.39 3.53 9.56 1.568 1.001-.593 1.882-1.37 2.733-2.181a.044.044 0 0 1 .065-.005c2.422 1.608 4.4-.153 6.077-1.927.145-.155.455-.52.603-.667.388-.323.938-.575 1.446-.435.953.792 2.232 1.234 3.465 1.13a1.83 1.83 0 0 0 1.481-.96c.105-.168.193-.374.348-.521.103-.094.313-.168.298-.296-.12-.167-.396-.208-.576-.318-.958-1.005-2.642-1.3-3.79-.435a4 4 0 0 0-1.003 1.006c-.01.015-.03 0-.023-.013 1.113-1.917 3.405-2.28 5.006-.733l-.055-.036c.273.092.781.242.679.642-.09.231-.336.254-.486.41-.295.366-.508.844-.938 1.094-.853.506-1.92.34-2.82.073-.57-.178-1.288-.572-1.641-.936-.55-.107-1.166.18-1.519.618l-.403.443c-.813.878-1.726 1.675-2.78 2.245-1.083.575-2.421.356-3.422-.303l.063-.007c-1.484 1.845-3.688 3.232-6.073 3.339-2.339.1-4.8-1.102-6.292-2.795H.231Z"/>
  <path fill="#000" d="M25.448 23.75c-1.512-.099-3.043-.234-4.506.26-.378-.071-.79-.046-1.144.122-.09.041-.18-.074-.12-.155.476-.71.973-1.42 1.341-2.191.055-.123.11-.268.1-.35.013-.04-.115-.096-.17-.053-.08.046-.162.163-.228.28-1.265 2.212-4.72 6.776-7.573 5.086-.022-.013-.027-.043-.012-.066a29 29 0 0 0 2.039-3.602 22.3 22.3 0 0 0 1.44-3.879c.159-.397.551-.657.962-.692l-.065.035c.082-.109.18-.328.06-.427-.123-.09-.363-.053-.513-.02a.106.106 0 0 1-.128-.082c.178-.674.43-1.354.606-2.033.027-.085.052-.237.097-.324a.38.38 0 0 1 .51-.155c.368.19.804.178 1.179.005.708-.364 1.27-1 1.876-1.522.806-.743 1.602-1.499 2.427-2.227.543-.438 1.039-.975 1.712-1.227.262-.035.603.026.658.334.017.285-.218.504-.476.55l.068-.06c-.538 1.45-1.099 3.03-2.315 4.038-.873.705-2.131 1.397-3.244.855l-1.054-.463a.045.045 0 0 1-.022-.059c.01-.023.035-.033.057-.023l1.071.42c.343.153.713.204 1.083.137 1.099-.21 2.07-.97 2.75-1.855.648-.947 1.088-2.039 1.509-3.108.01-.03.04-.05.067-.058.133-.046.283-.191.268-.336-.035-.12-.273-.12-.365-.107-.596.244-1.089.748-1.597 1.163-.823.718-1.618 1.474-2.427 2.214-.935.79-2.031 2.23-3.387 1.53-.173-.013-.165.211-.215.346l-.115.4a35 35 0 0 1-.518 1.58l-.125-.142c.112-.023.22-.036.335-.036.515-.015.61.463.315.82a.1.1 0 0 1-.065.035c-.34.01-.693.26-.813.543-.375 1.34-.903 2.634-1.519 3.876a34 34 0 0 1-2.051 3.609l-.013-.066c2.81 1.624 6.087-2.98 7.323-5.126.078-.13.153-.27.32-.372.188-.11.483 0 .511.232.012.211-.065.338-.12.48-.378.795-.886 1.503-1.389 2.213l-.12-.156c.343-.132.963-.157 1.186-.03 1.081-.43 2.267-.52 3.415-.428.383.03.77.074 1.131.24.013.005.008.027-.005.025z"/>
  <path fill="#000" d="M22.116 23.644c.255-.013.38.148.478.344.142.14.367.195.475.376a.68.68 0 0 1 .113.41c0 .01-.013.018-.023.013-.258-.14-.395-.316-.508-.578a.3.3 0 0 0-.117-.155c-.198-.08-.35-.143-.433-.385a.016.016 0 0 1 .015-.023zm1.249-.109c.245-.059.368.086.46.272.078.097.228.117.31.209a.56.56 0 0 1 .2.522c0 .01-.01.015-.017.012a.9.9 0 0 1-.288-.231c-.11-.122-.127-.341-.26-.448-.195-.069-.3-.084-.413-.313-.005-.01 0-.023.01-.026zm1.769-12.77c-.78-.326-1.642-.155-2.452-.05-.808.083-1.611.702-1.729 1.534-.706.695-1.339 1.397-1.549 2.428a2.6 2.6 0 0 0-.065.476c-.032.127.025.443-.02.504-.105-.305-.137-.672-.105-1.01.095-1.031.746-1.93 1.571-2.505l-.045.074c.48-1.504 2.43-2.102 3.823-1.759.21.056.418.14.586.285.012.01-.003.03-.015.02z"/>
  <path fill="#000" d="M19.294 15.412c-.44.135-1.01-.023-1.279-.402.268-1.026.533-2.049.854-3.062.212-.61.43-1.428 1.178-1.537.203-.048.045-.219-.012-.329-.11-.045-.33-.017-.47.008a.1.1 0 0 1-.118-.081c.18-.896.41-1.792.545-2.69.04-.247.073-.594.065-.784a.2.2 0 0 0-.047-.008.5.5 0 0 1-.096-.018c-.007 0-.02-.005-.02-.005.013.005.046 0 .048-.008-.198.418-.263.934-.405 1.398a34 34 0 0 1-.8 2.6c0 .006-.917 2.556-.92 2.561-.02.066-.114.077-.15.018-.63-1.028-.72-2.24-.73-3.41-.005-1.169.173-2.327.383-3.467.305-1.713.673-3.433 1.331-5.05l.17-.4c.073-.172.17-.399-.02-.496-.515-.068-1.323 3.095-1.481 3.635-.64 2.65-1.954 7.86.313 9.914a.1.1 0 0 1 .035.101c-.408 1.382-.84 2.754-1.261 4.131-.48 1.372-.718 2.861-1.587 4.057-.167.199-.482-.499-.565-.605a2.2 2.2 0 0 1-.238-.695.05.05 0 0 1 .025-.054c1.101-.768 1.261-2.222 1.159-3.48-.105-1.228-.278-2.697-1.406-3.405-.058-.035-.015-.127.047-.101.941.402 1.441 1.514 1.461 2.51a6.5 6.5 0 0 0 .018.987c.145 1.28.045 2.914-1.233 3.578l.025-.053c.052.224.155.435.277.628.123.191.27.375.428.527h-.158c.781-1.173 1.029-2.657 1.504-3.975.443-1.37.876-2.741 1.334-4.106l.03.097-.005-.005c-2.327-2.077-1.074-7.42-.36-10.1.187-.572 1.045-3.98 1.686-3.703.267.11.175.474.077.657l-.172.397c-.663 1.604-1.046 3.311-1.357 5.02-.3 1.702-.515 3.458-.182 5.171.117.555.285 1.13.59 1.578l-.152.023c.508-1.51 1.276-3.624 1.654-5.151.12-.438.21-.871.367-1.321.033-.092.125-.273.276-.232.112.025.277.025.312.176.055.31-.022.598-.055.895-.152.901-.358 1.78-.568 2.663l-.115-.125c.215-.02.485-.104.663.076.045.074.07.115.105.189.028.066.068.163.018.272-.053.104-.14.138-.21.16-.683.074-.886.843-1.096 1.408-.293.87-.66 2.138-.928 3.031l-.008-.033c.153.166.338.298.553.367.21.07.445.081.663.023.015-.006.023.022.008.025z"/>
  <path fill="#000" d="M16.608 6.586c-.312-.273-.582-.55-.885-.815-.138-.102-.353-.28-.158-.45.065-.064.133-.115.195-.163.11-.076.093-.23.218-.415.098-.148.303-.11.398 0 .303.33.373.804.378 1.227 0 .015-.02.018-.025.005-.203-.37-.333-.771-.576-1.07.018 0 .035-.02.015 0-.032.037-.072.11-.12.184-.077.176-.29.214-.425.303-.225.186.28.293.383.4.27.203.48.476.62.781.008.013-.01.025-.023.015z"/>
  <path fill="#C95B12" d="M18.025 23.898c.876-.102 1.244-.947 1.391-1.728.32-1.43-1.008-2.35-2.174-1.474-.57.512-.778 1.42-.618 2.161.095.38.318.746.66.972.015.008.003.03-.012.026-1.288-.54-1.208-2.584-.183-3.36 1.279-.888 2.71.252 2.545 1.713-.085.626-.373 1.339-.983 1.616a1.2 1.2 0 0 1-.626.102c-.015 0-.015-.025 0-.028"/>
  <path fill="#C95B12" d="M19.427 21.212c-.88.486-1.644 1.075-2.124 1.976.112-1.06 1.118-1.871 2.124-1.976"/>
  <path fill="#C95B12" d="M17.916 20.292c.475.356.618 1.15.238 1.626 0-.58-.093-1.053-.238-1.626m.416 6.676c.3-.491.936-.753 1.474-.534.358.101 1.113.272.856.847-.095.191-.323.237-.508.183l.175-.106c-.103.376-.45.677-.83.674-.016 0-.018-.02-.006-.026.288-.15.49-.402.563-.71.048-.208.278-.028.375-.15.148-.305-.37-.57-.643-.629-.53-.043-.96.253-1.433.471-.013.008-.028-.007-.018-.02z"/>
  <path fill="#C95B12" d="M18.783 27.49c.844.079 1.159.952.618 1.603-.147.18-.317.329-.54.415l.035-.056c.09.361-.278.733-.613.504a.75.75 0 0 1-.228-.237l.155.059c-.412.125-.89-.033-1.095-.412-.173-.377-.073-.8.14-1.12.01-.013.027-.003.025.012-.078.319-.108.705.06.98.163.237.545.352.803.293a.124.124 0 0 1 .138.061c.06.107.17.244.3.222.152-.023.235-.194.225-.344a.05.05 0 0 1 .035-.056c.575-.158.78-1.062.428-1.512a1.6 1.6 0 0 0-.49-.387c-.013-.005-.006-.028.007-.025z"/>
  <path fill="#C95B12" d="M17.095 27.835c-.66.392-1.37 1.212-.993 2.01.03.093.125.174.208.113.027-.015.06-.066.082-.112.088-.145.235-.013.375-.033.253 0 .473-.135.663-.3.01-.01.028.002.023.015-.143.379-.575.644-.986.53l.173-.075a.5.5 0 0 1-.178.217c-.182.124-.433.03-.535-.153-.215-.51.06-1.016.157-1.507.138-.42.573-.733 1.004-.733.015 0 .017.02.005.026zm2.72.4a.404.404 0 0 1 .566.402c-.288-.081-.395-.147-.566-.402m-.245.682c.21-.11.434.084.332.308-.203-.03-.293-.069-.333-.308Zm-.335.54c.24 0 .37.29.19.44-.17-.117-.258-.2-.19-.44m-1.595.421c.2.217.2.454.09.703-.233-.155-.263-.473-.09-.703"/>
  <path fill="#C95B12" d="M17.133 30.022c.125.229.09.346-.077.535-.198-.14-.153-.436.077-.535"/>
  <path fill="#000" d="M12.913 15.152c.613.07 1.01.818.833 1.393-.21-.522-.433-.99-.833-1.393m-.373 1.222c.646.26 1.33 1.006 1.094 1.754-.163-.718-.675-1.169-1.093-1.754Zm-.35 1.4c.716.265 1.43 1.013 1.304 1.838-.255-.743-.81-1.255-1.303-1.838Zm9.956-2.674c-.488-.214-.91-.522-1.466-.471.458-.448 1.239-.049 1.466.47Zm.557-1.044c-.468-.176-.818-.204-1.289-.1.28-.48 1.076-.41 1.289.1m.827-.939c-.48-.018-.838-.08-1.288.073.225-.496.976-.465 1.288-.073m-5.98 13.487a.64.64 0 0 1 .46.328l-.122-.056c.253-.114.678-.056.715.29a.557.557 0 0 1-.442.599l.037-.028c-.062.155-.14.313-.3.422-.158.122-.5.115-.53-.142v-.008l.07.058c-.38.006-.784-.384-.39-.71a.9.9 0 0 1 .272-.155l-.045.048a.4.4 0 0 0 .04-.086.234.234 0 0 0-.082-.277q-.01-.01-.003-.018c.08-.008.17.084.205.173.03.096.05.216 0 .308-.075.06-.162.122-.228.185-.13.128-.095.171.03.268.096.069.21.069.293.152.22.14.473-.027.59-.249.008-.015.023-.028.038-.028.21.003.345-.29.263-.463-.085-.173-.295-.17-.465-.143-.05.016-.108-.002-.123-.056-.04-.135-.15-.27-.288-.381-.012-.008-.002-.028.01-.026zm.62-1.686c-.323-.226-.41-.697-.256-1.053a.13.13 0 0 1 .08-.072c.158-.045.223-.17.16-.34-.05-.176-.252-.278-.437-.28-.26-.003-.543.119-.473.384.018.114.163.165.173.277.02.474.142 1.003.573 1.265.012.008.005.028-.01.026-.576-.095-.854-.744-.844-1.286l.05.112c-.195-.18-.277-.494-.105-.72.368-.397 1.366-.092 1.254.527a.41.41 0 0 1-.283.272l.08-.071c-.127.308-.105.639.058.942.007.012-.008.028-.018.017z"/>
</svg>
