<svg xmlns="http://www.w3.org/2000/svg" width="38" height="97" fill="none" viewBox="0 0 38 97">
  <path fill="#FFCF02" d="M21.65 16.29c-.207.434-.321.97-.218 1.513.184.985 1.223 1.88 2.025 2.053 0 0-.64-.259-.53-1.952a3.4 3.4 0 0 1 .07-.51h-.007s-.542-1.225-1.34-1.101v-.004Z"/>
  <path fill="#FFCF02" d="M21.657 16.289c.803-.124 1.34 1.101 1.34 1.101h.008c.272-1.217 1.134-1.363 1.134-1.363-.5-.51-1.193-.724-1.488-.735-.272-.011-.714.401-.994.993z"/>
  <path fill="#FFCF02" d="m24.512 19.23.004-.004c.044-.086.228-.535.195-1.858a1.94 1.94 0 0 0-.578-1.341s-.866.146-1.135 1.363a3.4 3.4 0 0 0-.07.51c-.11 1.69.53 1.952.53 1.952.236.053.457.041.623-.052.085-.072.199-.139.25-.195.082-.083.118-.262.181-.375"/>
  <path fill="#7F6C6F" d="M25.389 20.43c-.03.232-.06.468-.081.704-.34 3.226-.203 6.819 1.708 8.149 0 0-1.012 4.432-1.532 6.598l-.154.637c-.431 1.746-.83 2.206-.83 2.206s-.603-.535-.828-1.195l-.593-.075c.354 1.353 1.057 1.881 1.057 1.881-1.546 4.594-3.602 6.512-4.795 7.28l.18 1.555c.903-.603 2.1-1.615 2.98-3.129 0 0 2.04 1.256 3.952-.018a10 10 0 0 0 1.613-1.342c.976-.978 1.599-1.914 1.834-2.173.346-.382 1.101-.69 1.503-.596l.015-.558a2.1 2.1 0 0 0-1.08.218s.737-1.218 1.113-2.039c.38-.816.423-1.105.21-1.191-.214-.094-.398 0-.626.57-.107.27-1.05 2.116-2.405 3.784q-.101.123-.207.247c-1.48 1.75-3.414 3.2-5.296 2.233 0 0 1.735-3.005 2.788-6.52.221-.734.413-1.49.549-2.244 0 0 .184-.648.95-.771 0 0 .247-.356.066-.596-.176-.24-.744-.053-.744-.053s.376-1.42.582-2.562c.034-.188.225-.3.394-.229.244.105.608.191 1.047.071q.172-.044.36-.138c-.022-.094-.044-.184-.055-.274 0 0-.736.319-1.433-.318 0 0 .56-2.897.83-3.837.268-.94.493-1.277.975-1.412.483-.135.206-.413.11-.566-.095-.154-.655 0-.655 0s.376-2.346.416-3.294c.04-.947-.04-.749-.294-.805-.258-.056-.277 1.472-1.061 4.507-.667 2.582-.844 3.166-.844 3.166s-1.498-1.607-1.115-6.485c.383-4.882 1.112-6.744 1.38-7.531.1-.289.06-.536-.195-.573-.257-.042-.545.783-.773 1.513-.1.319-.696 2.57-1.027 5.208l.01-.004Z"/>
  <path fill="#7F6C6F" d="M19.341 46.61s-4.799 3.53-9.454-.985l-.457 1.806s4.877 4.1 10.409.24z"/>
  <path fill="#82B485" d="M22.895 36.127a7 7 0 0 1 0-.666q.02-.501.03-1.023v-.094c.006-.566.006-1.146-.005-1.705a44 44 0 0 0-.154-3.11c-.048-.513-.1-.865-.155-.962-.188-.349-.681.307-.552.929 0 0-1.267.922-1.628 2.934-.361 2.008.42 4.54 2.615 4.855a6 6 0 0 1-.148-1.157zM24.082 19.8c-.136.116-.198.25.133.412.545.266 1.09.918 1.09.918h.008q.035-.355.08-.705c-.029-.086-.28-.884-.578-1.195-.15-.157-.232-.112-.29-.008-.004 0-.004.004-.004.004-.06.113-.1.293-.18.375-.056.056-.166.124-.251.195z"/>
  <path fill="#82B485" d="M22.76 29.53c.073.768.132 1.9.154 3.11.01.562.01 1.143 0 1.705v.093a45 45 0 0 1-.026 1.023 8 8 0 0 0 0 .667c.015.435.07.82.147 1.158.011.056.026.108.04.165l.594.075a1 1 0 0 1-.04-.132s.828-.54 1.082-1.697c.011-.067.026-.138.033-.21.188-1.303-.14-2.375-.191-3.083-.056-.708-.516-2.36-1.798-2.874z"/>
  <path fill="#FFCF02" d="M26.564 37.848c-.014.048-.025.105-.04.16-.357 1.6.526 2.38 1.005 2.56 0 0-.317-.225-.188-.562a.36.36 0 0 1 .159-.176 3.06 3.06 0 0 1 .85-1.51c.273-1.012-.405-1.814-.405-1.814-.537.109-1.13.465-1.38 1.345v-.003Z"/>
  <path fill="#82B485" d="m32.264 28.061-.04.041c-.295.319-.586.637-.866.937-.273.292-.53.573-.77.824-.412.431-.766.78-1.005.978a2.5 2.5 0 0 1-.446.289 1.6 1.6 0 0 1-.36.138l1.428.469c1.43.468 3.466-1.124 4.24-2.56.773-1.434 1.307-3.472 1.307-3.472.39-.105.692-.82-.144-.753-.08.003-.184.056-.313.138-.644.412-1.856 1.697-3.031 2.968z"/>
  <path fill="#82B485" d="M30.567 27.143s-1.87 1.532-1.488 3.717c.011.09.033.18.055.273a2.7 2.7 0 0 0 .446-.288c.24-.199.593-.547 1.006-.978.239-.248.5-.529.77-.825.28-.3.574-.618.865-.936q.02-.023.04-.041c1.172-1.267 2.387-2.552 3.031-2.968 0 0-.777-.524-2.695.034-1.92.555-2.03 2.016-2.03 2.016z"/>
  <path fill="#FFCF02" d="M27.946 36.503s.678.801.405 1.813c.641-.644 1.381-.907 1.381-.907-.265-.54-.729-.828-.935-.887a1.9 1.9 0 0 0-.851-.02Z"/>
  <path fill="#82B485" d="M27.336 40.005c-.128.337.188.562.188.562s.06 1.139.906 1.375l.207-.248s-.483-.423-.262-1.112c0 0 .416-.146.166-.577-.2-.338-.752-.352-1.043-.184a.37.37 0 0 0-.158.18z"/>
  <path fill="#FFCF02" d="M28.346 38.32c-.372.37-.707.865-.85 1.506.287-.172.843-.157 1.042.184.25.43-.166.576-.166.576.836-.086 1.403-.745 1.543-2.03.052-.461-.04-.84-.191-1.14 0 0-.744.267-1.382.907zm-1.719 7.848c-.276.877-.085 1.252-.004 1.417.081.16.409.31.56-.079 0 0 .604.157 1.016-.536-.493-.247-.467-.985-.302-1.42l.332-.19c-.11-.035-.151-.132-.151-.132s-.254-.008-.42-.146c0 0-.751.213-1.028 1.086z"/>
  <path fill="#82B485" d="M27.916 44.45s-.478.28-.353.524a.4.4 0 0 0 .088.109c.162.138.42.146.42.146s.04.097.151.13a.32.32 0 0 0 .225-.018c.287-.109.401-.468.401-.468.18-.026.313-.195.358-.379.033-.135.014-.28-.074-.378a.4.4 0 0 0-.14-.094c-.214-.082-.475.026-.475.026-.125-.247-.413-.352-.45-.367q-.155.156-.327.319c.283.112.176.453.176.453z"/>
  <path fill="#FFCF02" d="M27.893 45.55c-.165.435-.191 1.173.302 1.42.49.248.837.087.837.087s.254.39.548.232c.295-.157.207-.513.207-.513s.644-.225.707-1.124a.9.9 0 0 0-.122-.547c-.258-.435-.832-.536-.832-.536l-.328-.079c-.044.184-.18.352-.357.379 0 0-.118.363-.402.468a.4.4 0 0 1-.224.019l-.332.19-.004.005Z"/>
  <path fill="#FFCF02" d="M28.998 44.014c.051.023.1.053.14.098a.42.42 0 0 1 .074.378l.327.079s.575.101.833.536l.015-.015c.64-.21.725-.843.725-.843s.32.06.405-.195c.081-.251-.066-.573-.924-.734s-1.602.693-1.602.693z"/>
  <path fill="#82B485" d="m31.422 40.35-.015.558s1.068.888 2.763 1.038l.092-.84c-.48-.738-1.297-1.176-1.297-1.176a7.5 7.5 0 0 0-1.31.45s-.09-.023-.237-.03z"/>
  <path fill="#82B485" d="M32.968 39.93s.818.439 1.297 1.177l-.092.84c.25.022.515.033.792.014 2.15-.112 2.088-1.633 2.581-1.948.494-.311.431-.596-.416-.802 0 0-1.16-1.105-2.872-.854-1.717.247-2.604 2.027-2.604 2.027.43-.195.873-.345 1.31-.45l.005-.003Z"/>
  <path fill="#C95B12" d="M24.51 19.241c.202-.693.161-1.468.076-2.173-.143-.7-.714-1.214-1.351-1.476-.184-.071-.45-.165-.63-.146-.158.034-.346.206-.486.379-.582.704-.81 1.783-.324 2.6.434.723 1.377 1.64 2.283 1.375-1.09.468-2.567-.915-2.777-1.979-.162-.974.258-2.311 1.256-2.667.306-.023.516.079.777.176.696.292 1.326.907 1.433 1.697.052.742.037 1.525-.261 2.21z"/>
  <path fill="#C95B12" d="M24.134 16.027c-1.186.58-1.201 2.233-.954 3.368a.9.9 0 0 0 .28.457c-.185-.06-.314-.232-.417-.397-.545-1.113-.364-3.203 1.09-3.432v.004Z"/>
  <path fill="#C95B12" d="M23 17.39c-.472-.426-.711-.92-1.34-1.1.658-.308 1.3.483 1.34 1.1"/>
  <path fill="#000" d="M23.042 37.3c-2.61-.344-3.266-3.753-2.416-5.893.291-.757.733-1.465 1.378-1.985l-.037.097c-.063-.42.03-.937.457-1.128.095-.03.217.041.25.116.335 1.548.247 3.312.324 4.905.055 1.54-.29 3.154.357 4.612.196.468.472.922.844 1.236.03.023.044.064.03.098l-.42 1.184c-1.065 2.671-2.641 5.541-5.407 6.646-.608.405-1.702.742-2.549.91-.453.076-.924.113-1.374-.03a8.5 8.5 0 0 1-3.756-1.577c-.73-.543-1.503-1.127-1.897-1.978-.007-.015.011-.026.022-.019.413.244.704.577 1.028.892 1.248 1.255 2.82 2.375 4.626 2.503 1.38 0 2.692-.019 3.852-.896 2.574-.989 4.224-4.076 5.278-6.519l.438-1.165.03.097c-1.209-1.124-1.282-2.88-1.242-4.428.011-1.51.04-3.185-.088-4.68-.044-.517-.081-1.041-.177-1.54-.022-.13-.074-.22-.125-.194-.276.153-.372.614-.313.918a.1.1 0 0 1-.037.097c-2.409 1.907-2.38 7.006.932 7.725l-.008-.003Z"/>
  <path fill="#000" d="M8.63 46.783c2.755 2.346 6.857 3.327 10.095 1.447 1.44-.813 2.626-1.986 3.738-3.226.018-.023.048-.03.074-.012 3.042 1.735 5.38-.97 7.108-3.252.39-.558 1.12-1.011 1.812-.884 1.381.937 3.455 1.51 4.961.573.446-.314.633-.839.891-1.315.085-.16.288-.247.383-.382.044-.064.033-.082.026-.101-.147-.184-.464-.199-.678-.307-1.767-1.551-4.242-.967-5.366 1.067.346-.917 1.367-1.88 2.42-2.101 1.01-.296 2.563.228 3.079.783.313.078.899.206.821.663-.08.27-.357.318-.512.506-.302.438-.5 1-.968 1.318-1.51.967-3.775.439-5.142-.595-.49-.049-1.3.307-1.631.85l-.416.536c-1.139 1.326-2.439 2.904-4.217 3.252-.903.135-1.827-.071-2.627-.51l.074-.015c-3.506 5.07-9.447 5.8-13.918 1.709z"/>
  <path fill="#000" d="M36.75 39.743c-1.713.023-3.455 0-5.068.69-.435-.046-.899.018-1.282.24-.1.052-.21-.068-.147-.166.475-.843.976-1.69 1.33-2.592.05-.143.099-.311.084-.405-.269-.307-.482.487-.633.742-1.271 2.435-4.822 7.782-7.941 5.893a31.7 31.7 0 0 0 2.751-6.474c.225-.75.398-1.514.545-2.282.037-.127.096-.228.162-.33a1.33 1.33 0 0 1 .866-.539l-.07.045c.085-.131.177-.386.033-.487-.144-.09-.416-.03-.582.022a.12.12 0 0 1-.15-.082c.106-.63.297-1.259.415-1.892l.092-.457c.045-.165.03-.378.18-.513.288-.285.649.056.984.026 1.22-.019 1.978-1.323 2.807-2.095.847-.91 1.68-1.835 2.552-2.727.438-.446.877-.888 1.381-1.282.184-.146.468-.318.726-.277.71.019.604.84.018 1h-.011l.074-.07c-.483 1.682-.98 3.518-2.27 4.761-.927.873-2.286 1.765-3.59 1.252l-1.23-.431c-.059-.019-.03-.116.03-.097.714.183 1.741.681 2.482.438 2.637-.738 3.69-3.552 4.382-5.98a.11.11 0 0 1 .074-.071c.147-.06.302-.24.273-.405-.056-.13-.306-.112-.424-.086-.652.33-1.167.944-1.705 1.458-.87.884-1.702 1.806-2.552 2.716-.991.97-2.085 2.694-3.698 2.027-.195 0-.173.27-.214.408l-.096.465a40 40 0 0 1-.449 1.832l-.155-.15c.126-.037.244-.06.376-.067.578-.06.73.472.427.895a.1.1 0 0 1-.07.045c-.383.041-.758.356-.869.686-.313 1.551-.792 3.057-1.374 4.515a40 40 0 0 1-2.014 4.256l-.022-.079c3.292 1.499 6.305-3.526 7.627-5.99.166-.27.2-.615.534-.892.203-.143.545-.042.597.217.033.236-.044.39-.096.55-.357.93-.873 1.777-1.381 2.623l-.147-.165c.375-.18 1.075-.262 1.337-.138 1.185-.581 2.515-.79 3.823-.783.434 0 .876.018 1.296.168.015.004.011.03-.004.03z"/>
  <path fill="#000" d="M32.974 39.92c.284-.038.446.135.568.344.173.147.43.192.57.386a.75.75 0 0 1 .163.45c0 .011-.015.023-.026.015-.306-.135-.472-.322-.623-.607a.4.4 0 0 0-.143-.165c-.225-.067-.413-.138-.523-.397a.017.017 0 0 1 .014-.026m1.4-.232c.258-.09.434.067.545.266.162.13.405.168.52.356.062.093.169.33.099.442a1 1 0 0 1-.346-.236c-.133-.128-.173-.375-.332-.484-.21-.048-.364-.086-.493-.314-.008-.012 0-.027.007-.03m.91-14.583c-.91-.3-1.867-.03-2.773.157-.906.169-1.757.933-1.823 1.889-.715.805-1.415 1.753-1.54 2.877-.077.36 0 .753-.007 1.117-.151-.33-.214-.75-.206-1.132.018-1.173.677-2.244 1.561-2.967l-.044.086c.339-1.847 3.455-3.027 4.836-2.027z"/>
  <path fill="#000" d="M29.082 30.871c-.486.191-1.142.064-1.477-.34.214-1.18.427-2.361.703-3.534.181-.704.376-1.663 1.201-1.84.225-.078.03-.25-.04-.37-.13-.045-.376.007-.53.048a.117.117 0 0 1-.14-.082c.128-1.027.309-2.06.386-3.087a5.6 5.6 0 0 0 .008-.892c-.023-.011-.118 0-.163-.015-.268 1.259-.574 3.162-.99 4.605 0 .007-.818 2.967-.818 2.974-.018.075-.125.098-.17.034-.799-1.105-1.008-2.465-1.126-3.788-.107-1.319 0-2.641.143-3.949.214-2.124.516-4.267 1.23-6.287.085-.213.155-.565-.14-.57-.154.087-.224.282-.305.45-.494 1.207-.726 2.514-.98 3.792-.493 3.102-1.558 8.992 1.208 11.177a.11.11 0 0 1 .04.108c-.342 1.596-.714 3.185-1.071 4.777l-.556 2.383c-.218.817-.405 1.622-.892 2.342a.12.12 0 0 1-.18.01c-.383-.396-.707-.857-.836-1.4-.007-.026-.004-.053.015-.068a3.03 3.03 0 0 0 1.035-1.84c.239-1.768-.151-5.031-1.897-5.92-.066-.033-.026-.141.044-.119 1.101.375 1.757 1.585 1.864 2.705.014.386.033.738.103 1.117.272 1.435.302 3.29-1.087 4.15l.026-.063c.158.495.516.914.895 1.244 0 0-.192.019-.177.008.7-1.17 1.002-3.29 1.356-4.62.383-1.585.755-3.174 1.152-4.755l.04.11-.006-.008c-2.822-2.204-1.838-8.236-1.267-11.375.272-1.293.519-2.597 1.035-3.818.103-.199.213-.528.486-.528.582.134.143.869.051 1.217-.611 1.87-.898 3.833-1.101 5.789-.188 1.952-.276 3.949.24 5.856.176.618.416 1.251.799 1.73l-.17.042c.442-1.75 1.13-4.204 1.43-5.965.143-.573.124-1.199.415-1.746a.21.21 0 0 1 .203-.06c.074.02.114-.003.21.03a.25.25 0 0 1 .136.139c.088.345.026.678.015 1.02-.096 1.03-.254 2.041-.413 3.056l-.14-.13c.243-.042.523-.162.755.03.328.404.236.666-.257.782-.335.116-.509.431-.641.768-.46 1.315-.733 2.986-1.054 4.354l-.01-.037c.183.172.408.307.655.367.243.06.508.052.748-.034.018-.011.03.023.01.026z"/>
  <path fill="#000" d="M25.293 21.14c-.464-.359-.847-.666-1.304-1.022-.184-.191.096-.397.221-.517.155-.109.096-.633.457-.618.213.037.31.19.412.34.192.35.332.754.31 1.125-.273-.371-.431-.806-.722-1.128-.022-.026-.045-.034-.033-.034.022 0 .04-.026.014 0-.08.124-.173.397-.342.461-.32.15-.427.3-.022.43.449.166.795.54 1.027.949.008.015-.01.03-.022.019l.004-.004Z"/>
  <path fill="#C95B12" d="M28.375 40.567c.98-.191 1.322-1.18 1.422-2.076.243-1.64-1.34-2.562-2.582-1.472-.597.614-.759 1.678-.516 2.495.14.42.42.813.829 1.038.019.008.007.034-.011.03-1.499-.495-1.587-2.81-.494-3.78 1.352-1.12 3.094.052 3.02 1.712-.014.944-.614 2.132-1.671 2.083-.019 0-.019-.026 0-.03z"/>
  <path fill="#C95B12" d="M29.727 37.41c-.954.625-1.768 1.356-2.232 2.416.037-1.206 1.109-2.21 2.232-2.417Z"/>
  <path fill="#C95B12" d="M27.946 36.502c.567.36.796 1.244.405 1.814-.055-.682-.191-1.17-.405-1.814m1.04 7.505c.298-.581.994-.933 1.62-.735.291.087.611.075.906.304.38.337.088.952-.423.828l.187-.139c-.051.233-.154.42-.32.581-.155.139-.394.281-.578.24.15-.124.313-.236.401-.397a1.2 1.2 0 0 0 .18-.469c.012-.093.1-.15.189-.138.073.004.184.004.224-.064.137-.363-.464-.607-.78-.652-.6 0-1.065.371-1.58.656-.012.011-.03-.008-.023-.019z"/>
  <path fill="#C95B12" d="M29.539 44.554c.957.015 1.388.974.836 1.757a1.5 1.5 0 0 1-.575.517l.037-.063c.136.397-.258.85-.648.622a.8.8 0 0 1-.276-.248l.18.053c-1.109.37-1.768-.697-1.212-1.649.008-.015.03-.003.03.012-.06.367-.063.809.15 1.101.207.251.645.349.933.259a.134.134 0 0 1 .158.06c.077.112.21.266.357.224.17-.037.25-.24.225-.408a.05.05 0 0 1 .037-.064c.64-.236.791-1.259.353-1.746a1.8 1.8 0 0 0-.585-.393c-.019-.004-.012-.03.003-.03z"/>
  <path fill="#C95B12" d="M27.66 45.098c-.706.498-1.443 1.484-.95 2.36.041.08.081.124.159.139.07.011.121-.056.173-.165a.15.15 0 0 1 .18-.082c.243.056.53-.026.737-.184.085-.045.162-.172.25-.198-.036.21-.195.408-.375.547a.9.9 0 0 1-.685.153l.188-.097c-.18.528-.818.4-.899-.12-.077-.349.018-.667.066-.982.048-.303.081-.667.313-.929.214-.258.52-.446.844-.468.014 0 .022.022.007.03zm3.104.21a.458.458 0 0 1 .674.404c-.331-.067-.46-.13-.674-.404m-.214.789c.232-.138.497.053.401.319-.268-.026-.324-.049-.401-.319m-.329.641c.273-.018.442.293.25.484-.202-.117-.309-.206-.25-.484m-1.771.619c.242.229.264.495.161.787-.287-.173-.331-.51-.162-.787Zm-.563.206c.158.247.132.382-.04.61-.248-.165-.207-.472.04-.61"/>
  <path fill="#000" d="M21.856 31.145c.696.027 1.208.828 1.061 1.499-.269-.555-.586-1.094-1.06-1.499Zm-.32 1.412c.748.24 1.584 1.016 1.385 1.885-.25-.81-.858-1.255-1.385-1.885m-.276 1.611c.829.236 1.702 1.015 1.632 1.96-.358-.825-1.01-1.334-1.632-1.96m11.02-3.904c-.597-.206-1.065-.505-1.698-.4.482-.548 1.396-.162 1.698.4m.543-1.225c-.56-.154-.903-.165-1.463 0 .277-.57 1.186-.555 1.463 0m.847-1.135c-.556.026-.924-.023-1.447.198.213-.58 1.064-.61 1.447-.198m-5.595 15.763a.74.74 0 0 1 .55.33l-.145-.053c.873-.412 1.183.685.383.978l.041-.034c-.055.184-.133.364-.302.502-.17.154-.556.172-.611-.116-.019-.03.084.056.084.049-.261 0-.534-.06-.648-.356-.048-.345.214-.487.442-.611l-.048.06c.074-.131.074-.319-.08-.408-.008-.004-.012-.015-.005-.023.093-.015.2.083.247.176.04.105.074.236.026.349-.081.075-.173.153-.243.232-.136.154-.092.199.059.3.1.063.25.06.342.146.262.142.538-.075.649-.341.007-.015.022-.026.036-.026.24-.015.365-.36.258-.547-.11-.188-.346-.169-.537-.12-.056.022-.122.007-.144-.053-.055-.15-.195-.292-.357-.404-.015-.008-.008-.03.007-.03zm.555-1.96c-.38-.221-.523-.753-.38-1.165a.14.14 0 0 1 .085-.087c.442-.194.048-.734-.364-.678-.42.011-.733.371-.35.663a.17.17 0 0 1 .066.11c.063.535.247 1.12.755 1.378.015.007.008.03-.007.03-.656-.056-1.028-.764-1.06-1.379l.066.12a.73.73 0 0 1-.244-.36c-.191-.824 1.054-.861 1.415-.356.07.098.14.236.107.398a.47.47 0 0 1-.295.333l.085-.086c-.118.36-.063.734.143 1.06.011.011-.004.03-.018.023z"/>
  <path fill="#82B485" d="m1.71 36.424-.026-.555c-.409.015-.534-.045-.81-.15-.328-.123-.593.263-.42.6s.63.614.63.614c-.35 1.353.847 2.739.847 2.739l.777-.352c1.024-.023 1.75.225 1.75.225l.684-.51c-1.454-1.712-2.957-2.42-3.436-2.615z"/>
  <path fill="#82B485" d="M8.082 43.902c-.5-.559-1.016-1.694-1.016-1.694a12 12 0 0 0-1.923-3.173l-.685.51s-.725-.248-1.75-.226l-.776.353s.335 1.555 1.955 2.817 2.884.24 2.884.24 1.01 1.221 1.635 3.492l.847-.247c-.073-.21-.058-.405-.058-.405s-.744-1.765-.041-2.69c-.637-.27-.943-.798-1.083-1.218.04 1.293.015 2.245.015 2.245z"/>
  <path fill="#82B485" d="m1.683 35.87.026.554c.478.195 1.981.9 3.436 2.615.692.813 1.37 1.85 1.922 3.173.137-.4.317-.873.221-1.558-.059-.427-.224-.93-.574-1.551-.608-1.075-1.71-1.72-1.71-1.72-.986-1.072-2.062-1.607-3.07-1.529a3 3 0 0 1-.248.015z"/>
  <path fill="#FFCF02" d="M1.196 28.244c-.037.484.04 1.027.32 1.499.516.858 1.802 1.319 2.608 1.191 0 0-.692-.015-1.175-1.637a4 4 0 0 1-.11-.502H2.83s-.928-.952-1.638-.55z"/>
  <path fill="#7F6C6F" d="M8.409 77.386c-.73-.277-2.917-1.315-3.138-1.405-.221-.094-.936.67-.273 1.353.667.678 2.306 1.91 3.963 3.3 1.319 1.11 4.213 4.365 5.591 6.209.346.468.6.843.707 1.071.777 1.671 2.188 1.581 2.435 2.38a5.35 5.35 0 0 0 1.222 2.049c.49.506 2.008 2.784 2.008 2.784.39-.454.806-.91 1.215-1.244 0 0-2.342-3.211-3.094-4.155-.755-.937-.887-1.578-1.178-2.334-.184-.473-.582-.578-.855-.585a.62.62 0 0 1-.479-.243l-.077-.105c-.655-.88-2.335-3.114-3.396-4.182-1.34-1.349-2.88-2.225-3.001-4.147-.125-1.922-1.15-9.513-1.78-12.859-.625-3.346-1.373-9.498-1.373-9.498s2.158-.112 2.38-2.907c.22-2.795.276-3.245 1.005-3.653-.13-.33-.022-.663.383-.772a3 3 0 0 0-.836.244s.121-1.035-.162-2.162l.03-.072a.75.75 0 0 1-.461-.48l-.847.248q.037.128.07.263c.615 2.442-.148 4.027-.313 5.822-.166 1.794-1.437 2.162-1.437 2.162-.353-2.091-.46-6.392-.475-7.411-.015-1.02.074-1.308-.107-1.402-.18-.097-.677-.296-.902.439-.221.734-.092 2.72-.092 2.72-.302-.281-.674-.468-.762.06-.089.524.184.46.548.802.369.34.413 2.915.619 5.372.206 2.454.715 6.032.715 6.032s-1.367-1.15-1.72-1.618c-.358-.472-.719.079-.84.457-.118.379.048.367.585.952.535.588 2.137 2.304 2.343 3.09.21.788 1.73 10.488 1.797 11.934.052 1.143.06 1.15-.026 1.499z"/>
  <path fill="#FFCF02" d="M1.197 28.245c.711-.4 1.64.55 1.64.55h.007c-.173-1.24.585-1.685.585-1.685-.644-.296-1.366-.244-1.646-.154-.262.086-.53.63-.586 1.289M.601 4.858c-.04.483.037 1.026.32 1.494.516.858 1.798 1.32 2.608 1.192 0 0-.692-.011-1.174-1.634a4 4 0 0 1-.11-.502h-.008S1.309 4.457.6 4.861z"/>
  <path fill="#FFCF02" d="M.599 4.858c.707-.405 1.635.55 1.635.55h.007c-.169-1.236.59-1.686.59-1.686-.645-.295-1.367-.247-1.647-.153-.261.086-.53.63-.585 1.289M3.427 27.11s-.758.445-.585 1.685a4 4 0 0 0 .11.502c.479 1.622 1.175 1.637 1.175 1.637.236-.037.438-.127.56-.273.055-.097.136-.199.17-.274.044-.104.021-.277.036-.404v-.045c.011-.142-.004-.645-.46-1.78a1.87 1.87 0 0 0-1.006-1.049Z"/>
  <path fill="#FFCF02" d="M4.295 6.585v-.007c.01-.094.03-.581-.46-1.81a1.9 1.9 0 0 0-1.006-1.045s-.759.445-.59 1.686q.035.236.111.502c.482 1.622 1.175 1.633 1.175 1.633.24-.037.442-.127.563-.273.056-.098.137-.199.17-.274.048-.105.018-.288.037-.416z"/>
  <path fill="#82B485" d="M4.683 30.661c-.088.157-.1.307.265.341.6.053 1.337.465 1.337.465a37 37 0 0 0-.162-.682s-.549-.72-.957-.914c-.18-.087-.247-.038-.273.067v.045c-.022.131 0 .303-.044.405-.03.07-.114.172-.17.273z"/>
  <path fill="#7F6C6F" d="M5.528 7.39q.075.343.169.69c.803 3.14 2.173 6.456 4.423 7.01 0 0 .586 4.511.855 6.725l.077.649c.203 1.79-.011 2.36-.011 2.36s-.751-.285-1.19-.82l-.578.142c.8 1.139 1.64 1.382 1.64 1.382.216 7.265-2.712 9.33-2.712 9.33-.379-1.54-1.19-4.148-1.19-4.148 1.01-.637.988-2.117.962-3.147-.03-1.03-.055-2.514-.206-2.732-.155-.213-.431-.09-.442.064-.011.15-.04 1.237-.008 2.859.037 1.622-.567 1.873-.567 1.873-.261-1.026-1.17-3.889-1.3-4.256-.125-.367-.17-.465-.39-.423-.217.045-.35.27-.092 1.086.129.412.618 2.47 1.156 4.751q.083.338.162.682c.479 2.03.965 4.129 1.26 5.343.228.948.36 2.09.442 3.177h.037a.45.45 0 0 0 .232-.075c.261-.169.434-.573.946-.81 0 0-.24-1.67-.49-2.517 0 0 2.107-1.97 2.648-5.126 0 0 2.343.442 3.69-1.435a10.5 10.5 0 0 0 1.047-1.832c.574-1.266.832-2.364.961-2.694.191-.483.792-1.041 1.2-1.097l-.18-.525a2.1 2.1 0 0 0-.932.592s.266-1.401.336-2.304c.073-.903.01-1.184-.218-1.192-.232-.007-.372.146-.39.757-.008.293-.247 2.357-.94 4.406q-.05.152-.106.304c-.78 2.17-2.085 4.219-4.18 3.986 0 0 .582-3.435.35-7.1a21 21 0 0 0-.266-2.296s-.051-.675.623-1.064c0 0 .107-.42-.144-.581-.25-.161-.714.217-.714.217s-.14-1.461-.343-2.604c-.037-.187.103-.363.291-.356.265.012.637-.041 1.006-.307.095-.067.195-.157.29-.262a3 3 0 0 1-.147-.236s-.578.565-1.45.217c0 0-.483-2.907-.557-3.885s.018-1.375.424-1.671c.401-.3.051-.457-.093-.57-.143-.112-.61.232-.61.232s-.461-2.326-.752-3.233c-.291-.903-.299-.686-.556-.644-.262.037.254 1.476.57 4.597.27 2.652.306 3.263.306 3.263s-1.96-.966-3.292-5.669C5.25 3.768 5.288 1.763 5.266.928 5.26.624 5.137.403 4.883.459c-.254.053-.24.93-.199 1.694.019.333.24 2.652.844 5.241v-.003Z"/>
  <path fill="#82B485" d="M8.637 22.977a7 7 0 0 1-.232-.622 59 59 0 0 0-.328-.967l-.033-.09a55 55 0 0 0-.593-1.596 45 45 0 0 0-1.223-2.855c-.225-.465-.394-.776-.479-.843-.295-.262-.53.532-.195 1.068 0 0-.866 1.315-.508 3.327.357 2.008 1.966 4.099 4.132 3.604a6 6 0 0 1-.541-1.03zM4.087 7.274c-.088.158-.1.308.265.341.6.053 1.337.469 1.337.469h.007c-.062-.233-.114-.461-.169-.69-.055-.067-.567-.727-.958-.91-.195-.094-.257-.023-.276.097v.008c-.018.127.008.31-.037.416-.029.07-.114.172-.169.273z"/>
  <path fill="#82B485" d="M6.226 16.851c.335.69.78 1.731 1.222 2.855a43 43 0 0 1 .593 1.596l.033.09c.115.326.225.652.328.967q.11.336.232.622a6 6 0 0 0 .637 1.169l.579-.142q-.043-.052-.085-.11s.59-.801.423-1.974a2 2 0 0 0-.04-.206c-.276-1.289-.954-2.173-1.249-2.817-.298-.64-1.3-2.023-2.68-2.046zm4.457 31.592c-.405.108-.512.442-.383.772 0 0 .114.288.475.468 0 0 .66 2.274 2.272 2.746 1.466.427 2.026.094 2.582.592l.343-.49s-.685-1.84-2.457-3.309a3.5 3.5 0 0 0-1.598-.768 3.5 3.5 0 0 0-1.227-.011z"/>
  <path fill="#82B485" d="M13.163 48.103c-.71.018-1.2.318-1.244.352a3.5 3.5 0 0 1 1.598.768c1.772 1.469 2.457 3.308 2.457 3.308l-.343.491c.059.049.114.109.173.184.623.753.995.026.777-.72 0 0 .332-1.9-1.127-3.353-.836-.836-1.653-1.045-2.29-1.03Z"/>
  <path fill="#FFCF02" d="M12.666 23.273c.003.053.01.105.018.165.217 1.622 1.319 2.038 1.827 2.034 0 0-.372-.097-.372-.46 0-.075.033-.154.088-.225a3.1 3.1 0 0 1 .273-1.716c-.096-1.046-1.01-1.555-1.01-1.555-.463.296-.894.84-.828 1.753zM8.585 40.377l-.328-.468a.5.5 0 0 1-.232.075c-.01 0-.025 0-.036.007-.317.034-.428.319-.372.588a.66.66 0 0 0 .324.461s.01.274.132.622c.14.42.442.948 1.083 1.214.04-.056.092-.109.144-.157.943-.87 1.992-.158 1.992-.158l.398-.03a.21.21 0 0 1 .258.056v-.3a.213.213 0 0 1-.21-.194.21.21 0 0 1 .18-.225l-.055-.378a.22.22 0 0 1-.162.105.2.2 0 0 1-.177-.08l-.383.03c-1.215-1.1-2.128-1.198-2.56-1.164z"/>
  <path fill="#FFCF02" d="m8.258 39.909.328.468c.431-.034 1.34.067 2.56 1.165l.383-.03a.24.24 0 0 1-.04-.116.206.206 0 0 1 .187-.225h.04v-.333s-.11-.944-.673-1.506a1.33 1.33 0 0 0-1.002-.409c-.357.011-.623.075-.836.173-.508.236-.685.64-.947.809zm.902 2.967c-.704.93.04 2.69.04 2.69s-.015.195.059.405a.75.75 0 0 0 .46.48c.03.01.067.026.1.033l.195-.715c1.042-.555 1.834-2.32 1.834-2.32l.556-.067a.2.2 0 0 1-.022-.082.21.21 0 0 1 .11-.203v-.27a.21.21 0 0 1-.202-.153l-.291.03a.21.21 0 0 1-.192.224.204.204 0 0 1-.217-.194.21.21 0 0 1 .107-.203l-.398.03s-1.05-.715-1.992.158a1 1 0 0 0-.144.16l-.004-.003Z"/>
  <path fill="#FFCF02" d="M11.805 46.192c.008.367.13.817.759 1.05.199.07.398.1.593.115.39.03.755 0 1.013.12l.383-.663s.055-1.63-1.175-3.192l-.14-.562-.04.007a.205.205 0 0 1-.222-.19.21.21 0 0 1 .192-.226l-.144-.25a.3.3 0 0 1-.08.022.25.25 0 0 1-.119-.023l-.272.023a.22.22 0 0 1 .136.184.206.206 0 0 1-.188.224h-.014v.274a.208.208 0 0 1 .302.172.21.21 0 0 1-.192.225.2.2 0 0 1-.199-.112l-.556.067s-.792 1.765-1.834 2.32l-.195.715c.033.011.07.015.107.022.56.086 1.296.008 1.882-.314zm-.758-6.864-.007.007c.56.559.677 1.507.677 1.507v.333a.214.214 0 0 1 .173.195.2.2 0 0 1-.025.12l.055.378h.007a.2.2 0 0 1 .2.112l.338-.19a.205.205 0 0 1-.221-.192.21.21 0 0 1 .191-.224.21.21 0 0 1 .177.078l.431-.386c.855-1.217.836-3.098.836-3.098l-.607-.54s-2.184-.49-2.229 1.9z"/>
  <path fill="#FFCF02" d="M11.949 42.288v.3q.043.046.048.116l.29-.03s-.003-.026-.007-.041a.206.206 0 0 1 .192-.225c.026 0 .059 0 .08.007l.273-.022a.209.209 0 0 1 .088-.39.2.2 0 0 1 .2.112l.276-.03a.2.2 0 0 1-.044-.116.21.21 0 0 1 .191-.224.21.21 0 0 1 .221.194.2.2 0 0 1-.026.12l.486.263h.015c.07-.008.144-.012.214-.015l-.022-.667s.902-.401 1.17-1.435q.08-.297.075-.667c-.037-1.536-1.389-1.877-1.389-1.877s.254-.502-.114-.675c-.472-.22-.88.446-.88.446l.607.54s.019 1.88-.836 3.098l-.43.386a.2.2 0 0 1 .044.116.205.205 0 0 1-.192.221l-.339.191a.2.2 0 0 1 .022.083.21.21 0 0 1-.191.225h-.015z"/>
  <path fill="#FFCF02" d="m14.268 42.955-.041-.637h-.015l-.486-.259a.22.22 0 0 1-.162.105.2.2 0 0 1-.177-.078l-.276.03a.3.3 0 0 1 .022.082.205.205 0 0 1-.11.202l.143.251a.21.21 0 0 1 .221.195.215.215 0 0 1-.147.217l.14.562c1.226 1.56 1.175 3.193 1.175 3.193l-.383.663c.026.015.051.026.073.045.376.247 1.01.314 1.054-.33.044-.64.38-.948.457-2.038a1.2 1.2 0 0 0-.063-.476c-.269-.85-1.282-1.619-1.422-1.72z"/>
  <path fill="#FFCF02" d="m14.232 42.314.04.637c.14.101 1.154.87 1.422 1.72l.026-.008c1.503.03 1.893-1 1.893-1s.634.277.851-.247a.56.56 0 0 0-.015-.51l-.707.075s-1.016-.806-3.296-.686c-.07 0-.14.008-.214.015z"/>
  <path fill="#FFCF02" d="m14.42 41.636.022.667c2.28-.12 3.296.685 3.296.685l.707-.075a.7.7 0 0 0-.287-.273c-.442-2.848-2.567-2.435-2.567-2.435-.27 1.034-1.171 1.434-1.171 1.434z"/>
  <path fill="#82B485" d="m14.611 12.07-.022.053c-.165.404-.327.805-.486 1.187-.15.371-.298.727-.438 1.046-.236.55-.446 1.004-.604 1.277a2.5 2.5 0 0 1-.317.431 2 2 0 0 1-.29.262l1.498-.074c1.5-.075 2.855-2.293 3.08-3.916.224-1.618.018-3.72.018-3.72.331-.24.364-1.016-.395-.652-.073.034-.154.12-.246.243-.46.619-1.15 2.256-1.809 3.863z"/>
  <path fill="#82B485" d="M12.7 11.82s-1.22 2.105-.104 4.008c.04.079.092.158.147.236q.161-.179.317-.43c.155-.27.365-.724.604-1.278.136-.319.284-.675.438-1.045.159-.383.321-.784.487-1.188q.01-.03.022-.053c.659-1.607 1.348-3.244 1.808-3.862 0 0-.91-.214-2.512 1-1.602 1.21-1.2 2.615-1.2 2.615l-.008-.004Z"/>
  <path fill="#FFCF02" d="M13.49 21.52s.91.509 1.01 1.554c.375-.831.976-1.345.976-1.345-.435-.408-.97-.513-1.183-.494a1.9 1.9 0 0 0-.803.288z"/>
  <path fill="#82B485" d="M14.143 25.011c0 .364.372.461.372.461s.45 1.045 1.322.963l.107-.303s-.6-.222-.63-.948c0 0 .34-.285-.044-.596-.302-.244-.825-.06-1.038.202a.4.4 0 0 0-.089.225z"/>
  <path fill="#FFCF02" d="M14.499 23.07a3.1 3.1 0 0 0-.273 1.716c.21-.262.733-.45 1.039-.202.383.311.044.596.044.596.755-.382 1.053-1.203.74-2.454a1.95 1.95 0 0 0-.574-.997s-.604.513-.976 1.345zm1.111 7.966c.044.918.354 1.203.486 1.326.133.12.49.146.494-.273 0 0 .618-.071.766-.866-.545-.056-.781-.753-.778-1.221l.244-.296a.25.25 0 0 1-.188-.067s-.243.082-.442.015c0 0-.63.472-.586 1.386z"/>
  <path fill="#82B485" d="M16.223 28.964s-.35.435-.148.614a.3.3 0 0 0 .122.072c.199.07.442-.015.442-.015s.07.075.188.067a.35.35 0 0 0 .206-.097c.232-.203.213-.585.213-.585.159-.09.229-.296.203-.483-.015-.139-.085-.27-.203-.33a.4.4 0 0 0-.165-.037c-.229 0-.435.194-.435.194-.203-.183-.508-.183-.549-.183a8 8 0 0 1-.195.416c.306 0 .32.363.32.363z"/>
  <path fill="#FFCF02" d="M16.577 30.002c0 .468.228 1.165.777 1.221.545.056.81-.217.81-.217s.376.273.593.022c.221-.25.015-.554.015-.554s.523-.442.273-1.304a.92.92 0 0 0-.302-.469c-.394-.314-.965-.202-.965-.202l-.332.045c.022.187-.044.393-.202.483 0 0 .018.379-.214.585a.35.35 0 0 1-.206.097l-.243.296z"/>
  <path fill="#FFCF02" d="M17.08 28.173q.084-.001.167.038c.117.06.184.19.202.33l.332-.046s.574-.112.965.203l.01-.02c.527-.426.387-1.048.387-1.048s.324-.06.31-.326c-.011-.266-.262-.513-1.12-.356s-1.256 1.225-1.256 1.225h.004Z"/>
  <path fill="#7F6C6F" d="M23.04 95.1c-.28.319-.66.768-.836 1.068.316-.105.78-.255 1.263-.394a33 33 0 0 0-.427-.674"/>
  <path fill="#82B485" d="m18.077 23.872.18.525s1.305.446 2.947-.019l-.206-.817c-.703-.517-1.62-.637-1.62-.637a7.7 7.7 0 0 0-1.072.892s-.089.011-.229.056"/>
  <path fill="#82B485" d="M19.377 22.925s.917.116 1.62.636l.207.817a5 5 0 0 0 .747-.27c1.974-.876 1.389-2.277 1.742-2.75.354-.468.2-.715-.666-.599 0 0-1.47-.618-2.983.232-1.521.847-1.735 2.829-1.735 2.829.335-.337.7-.633 1.072-.892z"/>
  <path fill="#C95B12" d="M4.295 6.597c-.048-.72-.361-1.431-.681-2.06-.38-.604-1.09-.881-1.776-.896-.195 0-.478.007-.637.09-.136.09-.254.318-.324.528-.298.865-.14 1.96.6 2.548.66.52 1.857 1.045 2.615.468-.729.704-2.033.236-2.758-.285-.855-.63-1.06-1.854-.74-2.832.095-.244.191-.499.464-.682.736-.259 1.59-.09 2.217.374.412.311.64.81.78 1.29.133.471.299.966.24 1.46z"/>
  <path fill="#C95B12" d="M2.831 3.723c-.91.97-.35 2.521.273 3.495.11.143.243.27.42.33-.196.008-.373-.105-.527-.221-.895-.847-1.451-2.866-.17-3.604z"/>
  <path fill="#C95B12" d="M2.232 5.409c-.589-.232-.983-.607-1.639-.55.509-.525 1.385-.016 1.64.55Z"/>
  <path fill="#000" d="m22.134 93.894-3.252-4.233c-.424-.525-.73-1.15-.95-1.791-.144-.394-.258-.828-.708-.915-.206-.037-.497-.026-.674-.202-.154-.146-.294-.386-.427-.543-1.219-1.57-2.401-3.203-3.882-4.53-.972-.862-2.099-1.88-2.243-3.29l-.114-1.34c-.35-3.56-.862-7.108-1.47-10.634-.677-3.514-1.189-7.066-1.646-10.618a.14.14 0 0 1 .126-.161c2.828-.427 2.014-3.694 2.622-5.732.107-.349.39-.667.71-.825a.155.155 0 0 1 .21.06.8.8 0 0 0 .17.24c.085.109.261.135.317.262.21.645.527 1.285.961 1.802.656.851 1.72 1.05 2.722 1.124.357.027.762.075 1.053.326.332.315.751.926.873.11.022-.177-.026-.357-.055-.533a4.1 4.1 0 0 0-.18-1.832c-.568-1.769-2.656-3.147-4.395-2.173.494-.36 1.216-.461 1.83-.352 1.923.378 3.205 2.458 2.947 4.395v-.05c.151.402.096 1.32-.534 1.155-.272-.086-.438-.382-.63-.528-.537-.39-1.344-.203-1.977-.386-1.518-.188-2.464-1.589-2.902-2.968l.08.098a1.18 1.18 0 0 1-.548-.551l.217.079c-.615.296-.667.992-.751 1.61-.081.664-.118 1.334-.184 2.009-.081 1.405-1.043 2.829-2.516 2.952l.133-.16C7.634 61.11 8.62 66.39 9.35 71.71c.25 1.773.49 3.548.707 5.328.081.73.122 1.922.571 2.548.973 1.461 2.604 2.413 3.646 3.844.708.858 1.389 1.75 2.052 2.638l.199.27c.07.09.129.19.191.24.162.145.354.104.575.156.766.162.799 1.106 1.086 1.69.166.405.39.783.656 1.135 1.016 1.428 2.21 2.945 3.112 4.343zm-1.216 1.243-1.09-1.476c-.696-1.023-1.698-1.81-2.14-3-.114-.297-.154-.533-.42-.713-.762-.468-1.639-.97-2.007-1.858-.246-.555-.622-1.042-.987-1.529a40 40 0 0 0-2.372-2.787 51 51 0 0 0-2.556-2.604c-1.303-1.173-2.913-2.316-4.206-3.507-.585-.446-.791-1.27-.103-1.746.07-.038.151-.079.247-.056.022 0 .25.112.28.123.928.465 1.963.952 2.873 1.405-.976-.303-2.008-.809-2.965-1.202l-.206-.09c-.015-.004-.045-.019-.037-.011h-.011c-.247.1-.402.442-.361.704.037.258.243.446.471.652 1.374 1.206 2.862 2.255 4.206 3.514.888.85 1.687 1.776 2.486 2.702.984 1.169 1.974 2.334 2.888 3.567.184.243.357.517.497.782.416.862 1.248 1.24 2.018 1.724.276.161.424.543.508.828a5.2 5.2 0 0 0 .918 1.532c.423.443.762.975 1.104 1.473q.513.764.987 1.551c.011.015-.014.034-.025.019z"/>
  <path fill="#000" d="M8.791 79.016a1.26 1.26 0 0 1-.482-1.356c.052-.247.129-.487.118-.734a18 18 0 0 0-.195-2.248c-.34-2.48-.752-4.983-1.15-7.452-.161-.993-.324-1.986-.511-2.968a1.9 1.9 0 0 0-.236-.663c-.722-1.15-1.68-2.158-2.615-3.132-.107-.098-.21-.292-.166-.442.096-.382.358-.993.855-.84.162.072.243.214.313.293.493.547 1.064 1.038 1.617 1.525l-.177.1c-.291-2.255-.564-4.514-.722-6.784-.081-1.136-.129-2.27-.247-3.399-.062-.393-.066-.869-.29-1.199-.189-.202-.572-.284-.586-.614-.026-.705.42-.776.869-.33l-.1.049c-.044-.802-.08-1.611.015-2.413.04-.266.1-.554.313-.772.232-.22.593-.183.833.011.11.17.073.308.084.443.011 2.787.118 5.605.512 8.362l-.155-.101c.999-.367 1.33-1.502 1.393-2.499.158-1.068.453-2.09.497-3.144.077-2.094-.696-4.226-1.867-5.93l.092.01a2.25 2.25 0 0 1-1.606.39c-1.643-.333-2.92-1.892-3.422-3.465l.034.067c-.465-.607-.814-1.307-.892-2.08a2.4 2.4 0 0 1 .07-.782l.04.097C.7 36.78.248 36.47.322 35.993c.036-.24.305-.446.548-.348l.192.067c.383.146.755.045 1.171.049 1.12-.011 2.147.686 2.766 1.596.8.446 1.58 1.162 1.978 2.046.46.869.567 1.933.118 2.832.162.161.401.63.578.9.166.288.394.648.567.925.011.011-.007.03-.018.022-.652-.404-.991-1.169-1.201-1.877.136-.46.243-.929.18-1.393-.261-1.99-1.955-3.357-3.532-4.34-.449-.25-.924-.479-1.443-.52-.464-.019-.947.075-1.404-.154-.158-.06-.313.06-.346.225-.051.386.361.645.641.84.04.026.048.07.037.112-.214.989.35 1.922.917 2.671.494 1.859 2.64 4.339 4.652 3.035.033-.026.08-.015.103.019 1.252 1.72 2.051 3.855 1.989 6.017-.037 1.087-.328 2.128-.476 3.17-.051 1.09-.456 2.315-1.58 2.705a.117.117 0 0 1-.15-.075c-.373-2.664-.42-5.35-.442-8.033-.012-.172.051-.603-.034-.734-.526-.353-.84.16-.89.674-.104.787-.075 1.592-.038 2.383.004.052-.062.082-.1.049-.375-.371-.695-.375-.684.232.018.285.383.356.549.554.254.368.243.832.316 1.26.262 3.401.549 6.796 1.087 10.164.018.094-.103.169-.177.101a32 32 0 0 1-1.13-.989 8 8 0 0 1-.538-.54c-.174-.228-.27-.303-.428-.157a1.17 1.17 0 0 0-.302.581c-.051.135.2.303.365.483.696.735 1.366 1.465 1.97 2.282.299.412.615.866.685 1.386.527 2.975.962 5.961 1.367 8.955.162 1.247.339 2.499.328 3.762 0 .505-.325.974-.133 1.472.081.232.232.438.427.588.019.011 0 .038-.018.026z"/>
  <path fill="#000" d="M1.554 36.353c1.031.21 1.9.862 2.615 1.619 1.035.895 2.03 1.96 2.56 3.248.14.322.247.656.35.985.003.015-.019.027-.026.012-.902-1.443-1.698-3.005-2.946-4.174-.785-.626-1.79-1.143-2.55-1.69z"/>
  <path fill="#000" d="M6.436 40.913c-1.001-.431-2.066-.487-3.123-.278.928-.636 2.335-.543 3.123.278M5.35 39.29c-.891-.25-1.738-.236-2.64.03.696-.674 1.933-.69 2.64-.03m-1.097-1.18c-.736-.169-1.355-.161-2.11-.188.63-.4 1.576-.374 2.11.188m11.7 14.429c-.688-1.154-1.417-2.282-2.39-3.208-.998-.876-2.475-.977-3.653-.505a.15.15 0 0 1-.207-.083c.063-.73.045-1.506-.022-2.233.288.67.35 1.458.317 2.196l-.217-.158c1.289-.618 2.84-.24 3.845.716.508.438 1.053.87 1.447 1.435.398.558.73 1.169.91 1.832.004.019-.019.026-.03.011z"/>
  <path fill="#000" d="M10.286 49.219c-.218-.075-.192-.251-.074-.382.022-.042.014-.09.014-.146-.01-.117.06-.221.144-.281.06-.05.299-.057.317.045-.1.206-.125.236-.313.31-.107.05-.06.14 0 .203.033.034-.022.247-.088.25Zm-2.317-9.232c-.188-2.911-1.51-7.156-2.133-10.067a312 312 0 0 0-.928-3.747c-.084-.378-.401-1.071.078-1.3.125-.049.313-.03.386.094.133.206.25.704.328.933a292 292 0 0 1 1.101 3.709l-.07-.038c.372-.254.457-.816.501-1.251.037-.828.004-2.068.015-2.915v-.367c-.015-.146.015-.311.173-.367.722-.274.486 1.547.571 1.967.004 1.39.357 3.214-.943 4.136l.033-.09 1.22 4.144-.163-.064c1.82-1.682 2.332-4.353 2.593-6.744.044-.622.089-1.87.085-2.491v-.004l.07.09c-2.11-.813-2.442-3.3-3.249-5.155l-.61-1.432c-.428-.936-.693-1.963-1.224-2.847-.059-.109-.147-.206-.21-.158-.235.244-.147.731.023 1a.09.09 0 0 1 0 .087c-.384.67-.56 1.476-.564 2.26.007 2.435 1.657 4.724 4.129 4.645-1.186.51-2.52-.21-3.227-1.199-1.211-1.622-1.491-4.005-.464-5.792v.086c-.188-.363-.28-.88.044-1.195.166-.098.306.071.376.198.28.45.479.93.726 1.387.515.906.843 1.903 1.182 2.888.49 1.405.877 3.084 1.926 4.174.339.371.755.697 1.204.873a.09.09 0 0 1 .06.086l.025 1.263c-.062 2.503-.45 5.137-1.911 7.22-.247.345-.516.667-.862.94-.059.049-.151.011-.162-.064l-1.16-4.15a.074.074 0 0 1 .033-.09c.39-.248.655-.664.78-1.121.317-1.401.155-2.911.049-4.331-.019-.113-.041-.247-.085-.322-.07-.12-.269-.113-.317.01-.004.09 0 .428-.004.53l-.007 1.453c-.026.723.07 1.487-.173 2.192-.088.232-.199.472-.442.61-.03.015-.063 0-.07-.037a238 238 0 0 1-1.156-3.683l-.192-.615c-.063-.16-.1-.386-.306-.3-.14.038-.143.27-.114.465.136.619.343 1.244.472 1.866l.589 2.51 1.156 5.025c.376 1.637.855 3.473.822 5.084zm.095 3.916a.92.92 0 0 1-.115-.562c.06-.184.115-.367.041-.559-.103-.37-.136-.805.085-1.131.107.18.14.378.154.566.026.28-.114.562-.106.843.088.28.14.562-.03.843-.007.01-.026.01-.03 0Z"/>
  <path fill="#000" d="M9.183 39.103c-.118-.862-.405-1.746-.534-2.578a10.1 10.1 0 0 0 2.21-3.694c.17-.457.287-.926.446-1.39a.06.06 0 0 1 .062-.038c.866.124 1.79-.003 2.563-.438.796-.42 1.286-1.225 1.728-2 .537-.986.917-2.073 1.23-3.152.17-.663.696-1.348 1.388-1.48 1.352.345 2.873.18 4.085-.532.862-.46 1.079-1.333 1.134-2.259.011-.187.299-.457.214-.6-.18-.093-.446-.052-.667-.033-.504-.154-1.053-.277-1.602-.221-1.66.075-2.876 1.525-3.123 3.136 0 .022-.03.015-.03 0a4.8 4.8 0 0 1 .472-1.585c.751-1.645 2.954-2.173 4.246-1.619.32-.037.914-.127.995.326.018.278-.221.427-.302.656-.13.52-.13 1.113-.45 1.581-.408.637-1.116.974-1.8 1.21-1.035.345-2.166.401-3.216.079-.475.131-1.112.757-1.234 1.383-.327 1.082-.718 2.173-1.27 3.158-.438.79-.943 1.607-1.757 2.046-.796.45-1.731.588-2.63.464l.067-.045c-.056.997-.435 1.941-.895 2.81a9.4 9.4 0 0 1-1.753 2.364l.022-.086c.18.817.397 1.799.397 2.544z"/>
  <path fill="#000" d="M22.848 21.392c-1.595.634-3.234 1.24-4.5 2.466-.42.112-.833.337-1.117.682-.073.086-.22.01-.195-.102.151-.959.328-1.933.343-2.903 0-.15-.015-.33-.063-.409-.357-.19-.284.63-.339.922-.342 2.731-1.816 9.015-5.388 8.363a32 32 0 0 0 .331-7.048 22 22 0 0 0-.283-2.334 1.2 1.2 0 0 1 .04-.363c.085-.345.324-.637.623-.814l-.052.068c.033-.154.03-.424-.14-.468-.165-.03-.398.123-.538.228a.12.12 0 0 1-.169-.022c-.136-.78-.195-1.6-.339-2.383l-.04-.229c-.085-.34.199-.61.541-.562.759-.026 1.27-.64 1.573-1.334.784-1.697 1.421-3.465 2.184-5.181.35-.712.604-1.506 1.178-2.095.255-.165.63-.27.833.019.154.281.018.614-.218.79l-.01.008.04-.094c.132 1.75.302 3.646-.472 5.272-.563 1.15-1.528 2.473-2.928 2.462l-1.3.037c-.062.004-.07-.097-.003-.101.733-.086 1.867.015 2.475-.48 2.206-1.63 2.224-4.657 2.029-7.167q.001-.058.04-.094c.115-.108.2-.333.118-.476-.095-.105-.324.008-.427.072-.493.543-.766 1.3-1.09 1.974-.505 1.14-.969 2.3-1.448 3.458-.592 1.263-1.016 3.271-2.754 3.222-.184.068-.067.315-.056.461l.07.469c.089.622.155 1.247.214 1.873l-.195-.082c.103-.08.206-.143.328-.2.519-.265.843.18.71.687a.1.1 0 0 1-.051.067c-.343.176-.59.603-.578.952.246 1.562.32 3.143.28 4.72a41 41 0 0 1-.41 4.706l-.047-.067c3.602.221 4.677-5.56 5.06-8.344.048-.352-.022-1.364.67-1.165.262.116.247.483.258.682-.014 1-.198 1.974-.383 2.948l-.195-.1c.291-.304.913-.634 1.204-.611.91-.967 2.081-1.642 3.304-2.106.405-.157.825-.296 1.27-.307.016 0 .023.022.008.03z"/>
  <path fill="#000" d="M19.383 22.91c.25-.139.464-.034.652.12.214.071.468.022.667.153a.77.77 0 0 1 .31.364c.003.011-.005.026-.02.026-.33-.019-.552-.131-.795-.345a.4.4 0 0 0-.191-.105c-.236.02-.435.02-.626-.183-.011-.008-.008-.026 0-.03zm1.225-.72c.21-.18.427-.09.6.052.195.064.435.015.612.147.092.063.272.25.243.378a.94.94 0 0 1-.405-.097c-.17-.072-.291-.285-.48-.334-.213.03-.375.049-.57-.12a.018.018 0 0 1 0-.03zm-4.2-13.968c-.954.045-1.757.641-2.541 1.143-.789.48-1.323 1.506-1.05 2.42-.39 1.012-.718 2.147-.446 3.245.052.367.262.704.38 1.045-.254-.254-.46-.622-.586-.985-.387-1.105-.143-2.345.431-3.335l-.011.098c-.332-1.836 2.195-4.08 3.823-3.63Z"/>
  <path fill="#000" d="M12.601 15.84c-.39.352-1.046.468-1.499.213-.21-1.184-.42-2.36-.567-3.56-.074-.722-.225-1.693.486-2.15.188-.153-.059-.247-.17-.33-.135.004-.345.143-.478.237a.11.11 0 0 1-.158-.027c-.236-1.008-.424-2.038-.707-3.027a6 6 0 0 0-.302-.84c-.034 0-.13.046-.18.05.014 0 .043-.027.043-.03a.4.4 0 0 0-.003.13c.434 2.342.751 5.223.917 7.629.014.079-.078.142-.144.097-2.873-2.027-3.79-7.418-4.423-10.749a19 19 0 0 1-.192-1.97l-.014-.495C5.202.804 5.199.523 4.955.516c-.058 0-.099.026-.125.093-.265 1.428.13 2.934.317 4.358.608 3.065 1.668 8.977 4.994 10.022.044.011.081.045.085.09.232 1.615.438 3.237.652 4.856l.305 2.431c.081.843.184 1.668-.025 2.514-.096.274-.719-.277-.866-.348a2.4 2.4 0 0 1-.57-.6.06.06 0 0 1 0-.067c.765-1.326.246-2.896-.454-4.136-.688-1.21-1.558-2.634-3.046-2.81-.073-.008-.073-.124 0-.128 1.16-.045 2.192.85 2.682 1.862.147.356.287.679.482 1.005.751 1.243 1.422 2.967.42 4.274v-.067c.32.405.8.67 1.27.843 0-.004-.173.086-.162.071.247-1.345-.202-3.44-.33-4.81-.192-1.623-.395-3.241-.568-4.864l.077.086h-.01C6.678 14.14 5.507 8.142 4.954 4.997c-.077-.705-.81-4.56-.01-4.62.522.019.357.79.397 1.128.074 1.97.486 3.908.976 5.81.501 1.893 1.112 3.796 2.254 5.392.38.514.821 1.023 1.348 1.334l-.144.098c-.19-1.799-.395-4.339-.731-6.092-.067-.589-.299-1.17-.218-1.784a.25.25 0 0 1 .078-.097 1.1 1.1 0 0 1 .298-.079.24.24 0 0 1 .173.082c.203.293.258.622.368.948.27 1 .472 2.001.674 3.009l-.176-.071c.213-.124.43-.341.718-.244.08.053.125.083.195.143.059.056.147.134.147.27-.003.13-.08.21-.14.265-.666.412-.508 1.297-.46 1.979.11 1.034.328 2.517.479 3.563l-.026-.03c.232.093.49.138.74.108s.494-.135.689-.3c.015-.014.037.008.022.023zM6.28 31.479c-.578-.135-1.024-.293-1.577-.487a.2.2 0 0 1-.11-.135c-.026-.161.088-.3.144-.431.077-.135-.015-.281.025-.532.07-.356.505-.202.69-.041.297.254.574.584.68.94-.313-.206-.581-.487-.869-.678-.073-.06-.184-.112-.243-.142.019-.008.03-.038.015-.008-.03.097-.022.285-.07.408-.059.15-.195.229-.258.356-.136.311.431.143.59.199.379.071.721.255 1.001.52.011.012 0 .03-.015.027z"/>
  <path fill="#C95B12" d="M4.889 29.983c-.048-.719-.361-1.43-.682-2.06-.379-.603-1.09-.88-1.775-.896-.195 0-.479.008-.637.09-.136.09-.254.319-.324.528-.298.866-.14 1.96.6 2.548.66.521 1.856 1.045 2.615.468-.73.705-2.033.236-2.758-.284-.855-.63-1.061-1.855-.74-2.833.095-.243.19-.498.463-.682.737-.258 1.591-.09 2.217.375.413.311.641.81.781 1.289.133.472.299.966.24 1.461z"/>
  <path fill="#C95B12" d="M3.425 27.11c-.91.97-.35 2.521.272 3.495.11.143.243.27.42.33-.195.008-.372-.105-.526-.22-.895-.848-1.452-2.867-.17-3.605z"/>
  <path fill="#C95B12" d="M2.831 28.796c-.59-.232-.983-.607-1.639-.55.508-.525 1.385-.016 1.639.55"/>
  <path fill="#000" d="M5.682 8.096c-.56-.169-1.024-.319-1.573-.491-.239-.113-.047-.409.03-.562.107-.158-.129-.626.214-.742.213-.041.357.067.504.169.298.254.575.584.681.94-.394-.259-.714-.637-1.108-.82.018-.008.03-.038.015-.008-.019.052-.022.15-.034.247 0 .218-.198.36-.294.517-.14.304.423.161.582.221a2.26 2.26 0 0 1 1.005.499c.011.01 0 .033-.015.026z"/>
  <path fill="#C95B12" d="M15.304 25.169c.851-.532.829-1.577.612-2.454-.335-1.619-2.155-1.915-2.925-.45-.346.79-.125 1.844.383 2.518.277.345.678.61 1.138.674.019 0 .019.03 0 .03-1.576.075-2.46-2.06-1.771-3.356.888-1.537 2.902-1.065 3.421.517.314.887.166 2.214-.84 2.547-.018.008-.029-.018-.014-.026z"/>
  <path fill="#C95B12" d="M15.475 21.726c-.674.93-1.182 1.903-1.248 3.065-.383-1.143.269-2.466 1.248-3.065"/>
  <path fill="#C95B12" d="M13.492 21.519c.656.135 1.175.877 1.01 1.551-.288-.618-.586-1.026-1.01-1.551m3.578 6.647c.077-.652.607-1.233 1.259-1.266.302-.027.597-.15.954-.042a.48.48 0 0 1-.11.93l.128-.195a1 1 0 0 1 0 .34.99.99 0 0 1-.534.754c-.014.007-.03-.011-.018-.023.224-.292.313-.652.243-1-.04-.187.158-.18.261-.259.114-.09.052-.243-.073-.318-.21-.131-.545-.161-.829-.094-.563.214-.866.727-1.248 1.18-.008.016-.03.004-.03-.01l-.004.003Z"/>
  <path fill="#C95B12" d="M17.777 28.48c1.345-.453 1.864 1.128 1.031 2.035l.012-.075c.265.322.055.888-.39.813a.8.8 0 0 1-.347-.13l.188-.016c-.91.746-1.893-.019-1.706-1.105 0-.019.026-.015.03 0 .07.363.221.78.523.978.28.16.726.093.961-.094a.13.13 0 0 1 .17 0c.11.079.29.172.412.082.144-.097.151-.314.07-.46a.06.06 0 0 1 .011-.075c.516-.45.306-1.462-.272-1.761a1.8 1.8 0 0 0-.685-.158c-.019 0-.023-.026-.008-.03v-.003Z"/>
  <path fill="#C95B12" d="M16.204 29.665c-.49.72-.84 1.907-.074 2.548.129.123.294.108.298-.127.008-.207.232-.143.372-.233.258-.123.424-.367.538-.633a.015.015 0 0 1 .03.008c.033.46-.288.944-.763 1.022l.144-.16c.014.213-.148.49-.383.498-.608.014-.697-.795-.777-1.23-.06-.303-.155-.651-.03-.977.11-.319.332-.604.626-.742.015-.008.03.011.019.026m2.979-.922a.454.454 0 0 1 .77.135c-.335.056-.475.041-.77-.135m.067.821c.169-.214.482-.131.486.153-.262.071-.32.071-.486-.153m-.08.716c.247-.117.516.116.402.36-.228-.038-.36-.08-.401-.36Zm-1.444 1.214c.31.123.42.367.423.678-.327-.056-.486-.36-.423-.678"/>
  <path fill="#C95B12" d="M17.273 31.886c.236.176.258.311.173.589-.287-.068-.353-.368-.173-.589"/>
  <path fill="#000" d="M5.94 18.687c.662-.225 1.417.341 1.51 1.023-.446-.424-.925-.813-1.51-1.023m.191 1.439c.785-.045 1.834.382 1.949 1.266-.516-.667-1.238-.865-1.949-1.266m.301 1.604c.858-.076 1.945.34 2.206 1.247-.619-.645-1.407-.884-2.206-1.248Zm8.955-7.606c-.63.018-1.171-.09-1.727.232.261-.686 1.248-.652 1.727-.232m.078-1.342c-.578.056-.903.169-1.367.525.063-.633.917-.944 1.367-.525m.405-1.364c-.513.225-.874.311-1.286.705 0-.618.784-.952 1.285-.705Z"/>
  <path fill="#C95B12" d="M14.407 41.62c1.024-.655 1.484-2.146.836-3.218a1.68 1.68 0 0 0-.995-.67.077.077 0 0 1-.055-.094c.284-.78-.504-.682-.792-.127a.16.16 0 0 1-.162.07c-1.278-.187-2.036.458-2.18 1.75 0 .02-.03.02-.03 0-.014-.292-.018-.595.07-.88.218-.97 1.32-1.39 2.207-1.169l-.162.071c.206-.285.482-.573.869-.532.468.056.527.536.324.88l-.052-.112c.416.158.77.416 1.039.76.563.69.619 1.77.103 2.511a2.04 2.04 0 0 1-1.013.798c-.018.008-.025-.019-.01-.03l.003-.007Z"/>
  <path fill="#C95B12" d="M11.7 40.842c-.17-.521-.383-1.03-.737-1.394-.534-.555-1.535-.603-2.099-.056-.199.18-.306.427-.567.625-.103.086-.287.086-.394.135-.284.154-.133.622.11.738a.16.16 0 0 1 .089.135c.01.169.044.36.092.536.14.547.482 1.015.965 1.3.014.008.007.034-.011.03-.8-.213-1.304-1.03-1.37-1.847l.088.139a.82.82 0 0 1-.402-.873.59.59 0 0 1 .328-.413c.144-.06.258-.018.383-.086.195-.105.38-.352.604-.517a2.37 2.37 0 0 1 1.595-.442c.88.075 1.436 1.285 1.322 1.99z"/>
  <path fill="#C95B12" d="M11.285 42.572c-.74-.364-1.69-.191-2.117.536-.428.734-.218 1.72.106 2.469.008 1.075 1.345.858 2.034.648.858-.232 1.528-1.015 1.277-1.963-.007-.02.023-.027.03-.012.736 1.623-1.263 2.69-2.633 2.406-.538-.026-.936-.555-.855-1.094-.1-.233-.25-.862-.302-1.244-.066-.427-.092-.903.114-1.338.439-.869 1.661-1.034 2.361-.434.015.01 0 .033-.018.026zm4.299-2.387c.645-.206 1.422.02 1.89.555.434.54.574 1.24.759 1.888l-.041-.056c.357.135.56.592.372.944-.158.397-.674.457-1.02.3l.213-.09c-.338.768-1.296 1.132-2.051.94.515-.1 1.094-.232 1.466-.648.121-.12.224-.277.287-.412a.17.17 0 0 1 .214-.09c.217.086.523.128.648-.123.154-.252.037-.544-.203-.69-.129-1-.63-1.896-1.59-2.293a2.6 2.6 0 0 0-.933-.19c-.018 0-.022-.027-.007-.03z"/>
  <path fill="#C95B12" d="M14.256 42.932c.682.393 1.341.956 1.57 1.761.088.438-.052.828-.14 1.21-.093.386-.262.753-.295 1.132.037.528-.273.903-.836.775-.188-.026-.387-.172-.542-.22a2.6 2.6 0 0 0-.534-.057c-.762.026-1.845-.37-1.698-1.341 0-.019.03-.019.03 0 .088.88.95 1.041 1.68 1.015.194.008.397.008.614.075.104.03.229.112.284.15.258.157.689.217.78-.143.067-.486.321-.951.42-1.408.067-.364.107-.772-.007-1.117-.243-.753-.898-1.27-1.326-1.832m-1.326-.513a.21.21 0 0 0 .206-.21.21.21 0 0 0-.206-.21.21.21 0 0 0-.206.21c0 .116.092.21.206.21m.256.644a.21.21 0 0 0 .207-.21.21.21 0 0 0-.207-.21.21.21 0 0 0-.206.21c0 .115.092.21.206.21m-.704-.24a.21.21 0 0 0 .206-.21.21.21 0 0 0-.206-.21.21.21 0 0 0-.207.21c0 .116.093.21.207.21m.098.671a.21.21 0 0 0 .206-.21.21.21 0 0 0-.206-.21.21.21 0 0 0-.206.21c0 .116.092.21.206.21m-.126-1.705a.21.21 0 0 0 .207-.21.21.21 0 0 0-.207-.21.21.21 0 0 0-.206.21c0 .116.093.21.207.21Zm-.507.495a.21.21 0 0 0 .206-.21.21.21 0 0 0-.206-.21.21.21 0 0 0-.206.21c0 .116.092.21.206.21m-.261-.69a.21.21 0 0 0 .206-.21.21.21 0 0 0-.206-.21.21.21 0 0 0-.206.21c0 .116.092.21.206.21m.098 1.331a.21.21 0 0 0 .207-.21.21.21 0 0 0-.207-.21.21.21 0 0 0-.206.21c0 .116.093.21.207.21Zm1.764-.765a.21.21 0 0 0 .207-.209.21.21 0 0 0-.207-.21.21.21 0 0 0-.206.21c0 .116.092.21.206.21Zm4.183.829c-1.123-.472-2.327-.529-3.524-.671 1.171-.292 2.6-.187 3.524.67Zm-3.851-5.021c.188 1.072-.052 2.32-.836 3.098.423-1.022.597-2.023.836-3.098m-5.566 2.458c1.028-.468 2.21.285 2.821 1.116-.895-.49-1.764-1.135-2.82-1.116Zm3.53 3.023c-.243.97-.858 1.993-1.837 2.315.743-.697 1.2-1.521 1.837-2.315"/>
  <path fill="#C95B12" d="M14.553 46.81c-.232-1.14-.645-2.155-1.171-3.189.869.764 1.37 2.027 1.17 3.188Z"/>
  <path fill="#000" d="M16.095 28.174a.71.71 0 0 1 .627.112h-.155c.67-.697 1.344.218.696.78l.026-.049c.01.191 0 .39-.11.58-.104.203-.461.364-.612.113-.026-.019.1.023.096.019-.247.094-.52.135-.73-.101-.162-.304.03-.532.203-.73l-.022.07c.022-.15-.044-.326-.218-.352-.007 0-.014-.011-.01-.019.08-.048.217.004.29.08.074.082.151.194.144.314-.048.101-.11.206-.147.303-.074.195-.019.221.158.259.118.022.258-.034.372.015.295.037.475-.266.49-.551q.002-.03.026-.041c.217-.098.217-.468.051-.603-.17-.139-.383-.034-.545.082-.044.041-.11.049-.155 0-.106-.12-.283-.206-.475-.251-.014 0-.018-.026 0-.03m-.16-2.031c-.435-.072-.752-.518-.759-.956q.002-.067.048-.112c.346-.341-.21-.705-.578-.506-.39.161-.56.61-.096.745a.15.15 0 0 1 .1.08c.242.479.618.958 1.185 1.018.019 0 .019.027 0 .03-.633.184-1.226-.348-1.47-.91l.104.09a.73.73 0 0 1-.354-.251c-.464-.7.685-1.184 1.2-.84.1.068.21.17.24.334a.46.46 0 0 1-.162.416l.048-.109c.015.379.195.708.501.94.015.008.007.03-.011.03z"/>
</svg>
