<svg xmlns="http://www.w3.org/2000/svg" width="42" height="41" fill="none" viewBox="0 0 42 41">
  <path fill="#3D6CFF" d="M31.551 1.18s4.364 7.508 3.732 15.218a5.4 5.4 0 0 0-1.087.08l-.01-.031c-.079-2.91-.932-7.01-1.636-9.93a106 106 0 0 0-.821-3.188c-.49-1.75-.178-2.149-.178-2.149"/>
  <path fill="#00E2F6" d="M32.553 6.517c.703 2.92 1.557 7.02 1.637 9.93l.009.03a5 5 0 0 0-1.083.319s-.799-3.137-1.146-5.664q-.075-.539-.118-1.025c-.233-2.62.7-3.59.7-3.59Z"/>
  <path fill="#FFCF02" d="m37.521 25.823-.925 1.307a9 9 0 0 0-.171-1.41 10 10 0 0 1 1.096.104Zm-3.325-9.344a5.3 5.3 0 0 1 1.087-.08 5.1 5.1 0 0 0-1.359 1.66c-3.262.957-4.544 6.318-4.544 6.318a45 45 0 0 0-1.078-1.323q.245-.843.609-1.642.321-.722.732-1.398.372-.622.83-1.184a7.8 7.8 0 0 1 1.23-1.196c.43-.34.905-.619 1.412-.828q.523-.226 1.081-.327"/>
  <path fill="#3D6CFF" d="M35.84 25.23s1.129-.162 1.681.593c-.27-.038-.65-.088-1.098-.11a4 4 0 0 0-.586-.48z"/>
  <path fill="#2D9CF8" d="M32.833 21.443a9.6 9.6 0 0 1 1.076-3.39c.33-.643.794-1.21 1.359-1.66a14.6 14.6 0 0 1-3.528 8.655 6.2 6.2 0 0 0-1.225.907l-.378-.548s.551-3.204 2.696-3.964"/>
  <path fill="#FFF400" d="M33.592 28.048c.973.719 1.863-.4 1.462-.684a.37.37 0 0 0-.256-.063 1.76 1.76 0 0 0-.86.435 4 4 0 0 0-.346.312m3.003-.925c.219 5.456-4.906 10.146-11.446 5.008a14.4 14.4 0 0 0 5.738-3.142c1.183-3.027 3.847-3.353 5.528-3.269q.147.694.18 1.403"/>
  <path fill="#3D6CFF" d="M35.837 25.234q.317.21.586.48c-1.687-.082-4.33.234-5.528 3.27a4.7 4.7 0 0 0-1.574-1.664 10 10 0 0 1 1.194-1.365c.37-.351.78-.656 1.224-.907a3.77 3.77 0 0 1 4.098.186"/>
  <path fill="#00E2F6" d="M31.97 11.132c.347 2.527 1.14 5.658 1.14 5.658-.506.215-.98.499-1.408.844-.29-.99-.485-2.007-.582-3.034-.114-1.354.016-2.782.85-3.468"/>
  <path fill="#2D9CF8" d="M35.054 27.364c.4.283-.49 1.403-1.462.684q.165-.165.346-.312a.494.494 0 0 0 .86-.435.37.37 0 0 1 .256.063"/>
  <path fill="#1B1464" d="M33.938 27.736c.241-.222.539-.372.86-.435a.494.494 0 0 1-.86.435"/>
  <path fill="#3D6CFF" d="M33.924 18.06a9.6 9.6 0 0 0-1.076 3.389c-2.147.75-2.698 3.954-2.698 3.954a46 46 0 0 0-.758-1.03s1.27-5.354 4.532-6.314Z"/>
  <path fill="#00E2F6" d="M31.115 14.584c.098 1.033.294 2.055.587 3.05a7.8 7.8 0 0 0-1.215 1.209 6.4 6.4 0 0 1-.351-2.61c.15-1.327.942-1.635.98-1.65Z"/>
  <path fill="#00E2F6" d="M29.041 17.49a1.4 1.4 0 0 1 1.09-1.272 6.4 6.4 0 0 0 .35 2.609q-.456.562-.828 1.185s-.794-1.237-.612-2.523Z"/>
  <path fill="#00E2F6" d="M29.65 20.012q-.412.676-.733 1.398a3.7 3.7 0 0 1-1.019-2.381c-.039-1.452 1.14-1.539 1.14-1.539-.18 1.285.611 2.523.611 2.523Z"/>
  <path fill="#FFCF02" d="m30.137 25.407.378.548a10 10 0 0 0-1.194 1.365 22.8 22.8 0 0 0-4.23-5.933c.464-.443 1.271-.373 1.948.267q.502.512 1.008 1.085l.007.022c.082.093.162.187.242.274q.528.621 1.078 1.323.382.511.763 1.05Z"/>
  <path fill="#FFCF02" d="M21.03 27.186a15.3 15.3 0 0 1 2.908-.787 9.3 9.3 0 0 1 2.746-.049 6.15 6.15 0 0 1 2.62.957 4.7 4.7 0 0 1 1.574 1.664l-.05-.03c-1.326-.991-4.072-2.122-9.051-.276-2.611.969-4.297 2.243-5.39 3.505a17 17 0 0 1-1.523-.486 9 9 0 0 1 .91-1.18 10 10 0 0 1 .8-.8q.493-.43 1.028-.802.674-.466 1.398-.848.595-.32 1.279-.603c.256-.078.5-.174.75-.265Z"/>
  <path fill="#2D9CF8" d="M21.572 31.299c1.832-1.32 6.212-4.033 9.266-2.371l.041.036a14.4 14.4 0 0 1-5.738 3.141c-1.15.338-2.332.549-3.527.63a15.8 15.8 0 0 1-5.182-.55s1.916-1.729 5.14-.886"/>
  <path fill="#00E2F6" d="M27.165 19.975a1.19 1.19 0 0 1 .736-.947c.04.89.403 1.737 1.02 2.382a12 12 0 0 0-.61 1.641c-.083-.096-.163-.19-.242-.274l-.007-.022c-.562-.67-1.092-1.985-.897-2.78"/>
  <path fill="#FFCF02" d="M29.321 27.32a6.14 6.14 0 0 0-2.62-.958s-1.543-1.652-1.913-3.444c-.147-.713-.012-1.218.308-1.515a22.8 22.8 0 0 1 4.225 5.917"/>
  <path fill="#2D9CF8" d="M27.04 21.654c-.668-.643-1.485-.71-1.949-.267a26 26 0 0 0-3.248-2.843c.497-.34 1.294-.104 2 .376l.025.013.126.088.062.047a23 23 0 0 1 2.983 2.586Z"/>
  <path fill="#3D6CFF" d="M30.845 28.953c-3.057-1.674-7.438 1.038-9.265 2.371-3.228-.855-5.138.892-5.138.892l-.034-.021c1.093-1.262 2.778-2.54 5.39-3.505 4.962-1.855 7.717-.755 9.047.263"/>
  <path fill="#2D9CF8" d="M25.091 21.387c-.304.292-.455.802-.308 1.515.37 1.792 1.914 3.444 1.914 3.444a9.3 9.3 0 0 0-2.746.05s-3.375-4.086-2.5-7.234c.057-.247.201-.466.406-.616a26 26 0 0 1 3.234 2.84Z"/>
  <path fill="#3D6CFF" d="M23.34 18.567q.255.167.518.355c-.707-.482-1.503-.715-2-.376a25 25 0 0 0-3.026-1.928q.44.066.865.198.847.254 1.645.632a16 16 0 0 1 1.998 1.12Z"/>
  <path fill="#3D6CFF" d="M23.352 18.55a16.5 16.5 0 0 0-1.998-1.12 20.3 20.3 0 0 1-1.747-3.841c-1.6-4.848-.82-8.682-.82-8.682s.606 7.4 4.565 13.643m-4.49.83a22 22 0 0 1-.06-1.573c0-.75.043-1.193.043-1.193a25 25 0 0 1 3.025 1.928c-.205.15-.35.369-.406.616-.875 3.148 2.487 7.238 2.487 7.238a15.3 15.3 0 0 0-2.909.787 17 17 0 0 1-.806-1.703 19.7 19.7 0 0 1-1-3.412 22 22 0 0 1-.374-2.689Z"/>
  <path fill="#00E2F6" d="M19.607 13.589a20.3 20.3 0 0 0 1.732 3.847 12 12 0 0 0-1.645-.633 2.86 2.86 0 0 1-.528-1.801c.03-.5.18-.985.441-1.413"/>
  <path fill="#2D9CF8" d="M19.176 15.013a2.86 2.86 0 0 0 .528 1.801 6 6 0 0 0-.866-.198l-2.185-2.417a.8.8 0 0 1 .162-.085c1.01-.413 2.36.899 2.36.899Z"/>
  <path fill="#2D9CF8" d="m16.654 14.2 2.178 2.418s-.042.443-.044 1.192c-.826-1.137-1.683-1.576-2.348-1.726-.157-.534-.327-1.505.213-1.888z"/>
  <path fill="#00E2F6" d="M18.788 17.81c0 .432.017.965.061 1.573a27 27 0 0 0-3.618-3.304c.395-.104.81-.106 1.205-.008.67.17 1.53.614 2.352 1.74Zm1.448 7.67q.351.881.797 1.72c-.254.074-.494.185-.73.289a5 5 0 0 0-1.39-1.21 3.1 3.1 0 0 1-.758-1.414c-.251-.961 1.062-1.001 2.092.619z"/>
  <path fill="#3D6CFF" d="M18.862 19.38q.103 1.349.37 2.675c-5.36-6.571-13.21-10.332-13.327-10.391.083.014 4.463.714 9.329 4.414 1.306.99 2.52 2.094 3.628 3.301Z"/>
  <path fill="#00E2F6" d="M20.299 27.473q-.683.283-1.28.603a5.3 5.3 0 0 0-1.95-1.409c-.123-.309-.027-.64.645-.693a2.17 2.17 0 0 1 1.181.289c.54.312 1.016.722 1.404 1.21"/>
  <path fill="#00E2F6" d="M17.068 26.667c.75.315 1.417.796 1.952 1.409a14 14 0 0 0-1.398.847c-1.178-1.079-2.126-1.615-2.871-1.852a2.2 2.2 0 0 1 2.317-.404"/>
  <path fill="#00E2F6" d="M17.623 28.927q-.535.373-1.027.801a38 38 0 0 0-4.037-2.343s.66-.797 2.196-.299c.742.225 1.69.761 2.868 1.84Z"/>
  <path fill="#00E2F6" d="M16.596 29.728q-.424.377-.801.8c-2.511-.94-5.116-2.575-7.094-4.016.714-.434 2.296.113 3.859.876a38 38 0 0 1 4.036 2.34"/>
  <path fill="#3D6CFF" d="M15.781 30.529q-.496.553-.896 1.18c-4.901-1.75-9.28-5.353-11.154-8.699 0 0 .71-.26 2.217 1.23A26.5 26.5 0 0 0 8.7 26.513c1.978 1.441 4.583 3.076 7.08 4.017Z"/>
  <path fill="#1B1464" d="M28.066 22.767a17.5 17.5 0 0 1 2.45 3.188c-.772-.995-1.696-2.18-2.45-3.188m-4.033-3.73c.822.449 1.436 1.131 2.136 1.72a12 12 0 0 1 1.885 1.993c-.596-.515-1.363-1.377-1.949-1.94-.62-.66-1.471-1.149-2.088-1.769zm-3.803 6.445c-1.218-2.765-1.532-5.861-1.45-8.856a.05.05 0 0 1 .018-.04.05.05 0 0 1 .042-.012 9.5 9.5 0 0 1 2.676.889c.84.417 1.638.913 2.383 1.482q-1.168-.76-2.43-1.358a10.7 10.7 0 0 0-2.62-.891l.06-.05c-.283 2.975.35 6.032 1.32 8.836Zm.793 1.706c-.243-.229-.27-.57-.445-.835a1.9 1.9 0 0 1-.336-.875c.18.263.315.553.4.86.087.295.382.56.385.863z"/>
  <path fill="#1B1464" d="M29.313 27.305c1.68-2.51 4.638-4.034 7.116-1.62a8.15 8.15 0 0 1-1.311 6.439c-2.657 3.473-7.045 2.53-9.99-.005 3.95 3.083 8.927 3.208 10.972-2 .492-1.41.59-2.928.28-4.389-2.542-2.34-5.282-.777-7.067 1.575"/>
  <path fill="#1B1464" d="M30.892 28.995c-3.895 3.556-9.747 4.73-14.756 3.145-4.658-1.381-10.153-4.835-12.44-9.178.322-.044.65.024.927.194.811.414 1.399 1.125 2.087 1.707a35.5 35.5 0 0 0 9.07 5.673 33 33 0 0 1-9.155-5.597c-.865-.68-1.669-1.88-2.87-1.873l.03-.082c2.681 4.438 7.434 7.647 12.37 9.099a15.89 15.89 0 0 0 14.737-3.088m5.529-3.277c-2.67-.01-4.345.794-5.518 3.267l-.02.005c.66-2.308 3.29-3.607 5.534-3.264zm.169 1.402c.22-.498.65-.845.887-1.332l.027.092a7 7 0 0 1-1.083-.162q.277-.05.558-.026.28.022.557.075a.05.05 0 0 1 .034.021.05.05 0 0 1 .008.04c-.37.387-.589.97-1 1.297z"/>
  <path fill="#1B1464" d="M35.84 25.23c.59-.174 1.383.011 1.683.59a2.43 2.43 0 0 0-1.684-.59Zm-19.404 6.967c.647-.666 1.578-.89 2.448-1.063a4.97 4.97 0 0 1 2.695.2s-.67-.1-.677-.098a8.8 8.8 0 0 0-2.004-.033c-.897.083-1.733.587-2.464 1.012z"/>
  <path fill="#1B1464" d="M20.717 31.96c2.607-2.076 6.845-4.767 10.192-2.988l-.032.03c-1.398-2.484-4.618-3.017-7.208-2.486a16.5 16.5 0 0 0-4.386 1.517 11.3 11.3 0 0 0-4.406 3.706c1.883-2.99 5.395-4.641 8.786-5.335 2.633-.54 5.846.087 7.271 2.582a.02.02 0 0 1-.005.027.02.02 0 0 1-.013.006q-.008 0-.015-.003c-3.296-1.7-7.551 1.061-10.173 2.958z"/>
  <path fill="#1B1464" d="M16.403 32.179c1.701-2.107 4.273-3.233 6.806-3.996s5.54-.934 7.677.803a6.4 6.4 0 0 0-1.77-.885c-4.259-1.215-9.743.979-12.713 4.078m15.331-7.137c4.318-4.915 4.216-12.103 2.267-18.021a33.7 33.7 0 0 0-2.5-5.823l.092.008c-.198.596.005 1.278.134 1.872 1.123 4.36 2.332 8.883 2.459 13.366-.228-3.884-1.137-7.692-2.09-11.463-.155-.645-.606-2.196-.67-2.847a1.87 1.87 0 0 1 .076-1.002.05.05 0 0 1 .05-.026.05.05 0 0 1 .045.033c3.773 7.174 6.108 17.306.134 23.89z"/>
  <path fill="#1B1464" d="M33.93 18.065c-.304.778-.71 1.501-.859 2.321s-.205 1.654-.362 2.463a8 8 0 0 1 .308-2.482c.246-.762.409-1.69.925-2.306l-.013.004Zm-3.453.756a5.94 5.94 0 0 1 4.793-2.48.066.066 0 0 1 .034.117q-.421.329-.758.743c-.234.272-.437.583-.64.877a4.7 4.7 0 0 1 .561-.933 4 4 0 0 1 .763-.786l.035.117c-2.048-.124-3.49.968-4.805 2.357z"/>
  <path fill="#1B1464" d="M28.304 23.05c.11-.802.544-1.498.861-2.23a6.4 6.4 0 0 1 1.319-1.997c-.428.67-.865 1.333-1.258 2.028s-.588 1.525-.922 2.199m1.826 2.359c.062-.85.47-1.604.852-2.344a3.1 3.1 0 0 1 1.85-1.622 4.55 4.55 0 0 0-1.796 1.64c-.489.686-.625 1.564-.91 2.31l.005.016Zm-.758-1.034c.3-1.322.822-2.584 1.542-3.733.664-1.16 1.67-2.248 3.01-2.586-2.611 1.027-3.742 3.857-4.555 6.31l.003.01ZM32.557 6.52c-1.383 2.344-.415 5.2.027 7.685l.533 2.583a35 35 0 0 1-1.097-5.157c-.19-1.67-.614-3.743.55-5.112h-.013Z"/>
  <path fill="#1B1464" d="M31.696 17.636c-.421-1.06-.516-2.205-.632-3.33s-.045-2.44.902-3.163c-.796.816-.83 2.065-.836 3.15-.02.982.427 2.397.56 3.334z"/>
  <path fill="#1B1464" d="M31.117 14.59c-1.448.946-.898 2.82-.629 4.235-.522-1.1-.763-3.782.642-4.239z"/>
  <path fill="#1B1464" d="M30.133 16.224c-1.654.585-1.047 2.595-.478 3.784-.804-.931-1.137-3.631.487-3.79z"/>
  <path fill="#1B1464" d="M29.043 17.496c-1.859.52-1.001 2.846-.12 3.913a3.06 3.06 0 0 1-1.03-2.113 2.65 2.65 0 0 1 .16-1.19 1.11 1.11 0 0 1 1-.61z"/>
  <path fill="#1B1464" d="M28.06 22.773c-.54-.501-.726-1.233-.906-1.918-.18-.686-.003-1.635.755-1.837-.648.342-.79 1.14-.694 1.812s.55 1.336.852 1.927l-.006.016Zm1.012-.739a.83.83 0 0 1 .39.497.82.82 0 0 1-.39-.497m-.287.82a.82.82 0 0 1 .39.496.82.82 0 0 1-.39-.496m.675-1.63a.83.83 0 0 1 .39.5.84.84 0 0 1-.39-.5m.4-.811a.83.83 0 0 1 .39.496.83.83 0 0 1-.39-.496m.371-.805c.19.108.331.288.391.499a.83.83 0 0 1-.391-.5Zm.605-.658a.83.83 0 0 1 .306.553.8.8 0 0 1-.306-.552Zm.604-.632a.8.8 0 0 1 .237.586.85.85 0 0 1-.237-.586m.641-.519c.145.165.22.38.207.598a.84.84 0 0 1-.206-.598Zm.756-.387a.83.83 0 0 1 .14.615.83.83 0 0 1-.14-.615m.826-.304a.84.84 0 0 1 .011.638.82.82 0 0 1-.01-.632zm-17.615 13.86c.257.026.498.136.685.314a1.17 1.17 0 0 1-.685-.314m.786-.744c.256.025.497.136.682.314a1.16 1.16 0 0 1-.682-.314m.776-.742c.257.025.497.136.682.315a1.18 1.18 0 0 1-.682-.315m1.052-.615c.259.028.501.141.688.323a1.15 1.15 0 0 1-.685-.313zm1.043-.596c.252.055.479.19.645.388a1.17 1.17 0 0 1-.645-.387Zm1.055-.495c.247.074.46.229.609.44a1.14 1.14 0 0 1-.608-.44Zm1.002-.349c.251.072.47.227.622.439a1.16 1.16 0 0 1-.609-.443zm1.029-.315c.242.09.446.258.582.478a1.17 1.17 0 0 1-.582-.478m1.095-.207c.24.107.438.292.558.526a1.15 1.15 0 0 1-.558-.526m1.165-.155c.237.1.433.28.556.506a1.15 1.15 0 0 1-.556-.507Zm1.176-.017c.234.111.424.299.539.532a1.16 1.16 0 0 1-.54-.532Zm1.04.137c.234.111.423.3.536.532a1.15 1.15 0 0 1-.536-.533Zm1.026.226c.233.113.422.3.536.533a1.18 1.18 0 0 1-.536-.533m-4.357-.692a12.1 12.1 0 0 1-2.302-4.122c-.722-1.958-.632-5.334 2.255-3.362.034.035.137.105.184.146.046.042-.082-.044-.086-.043l-.115-.077c-2.52-1.535-2.734.69-2.37 2.672.385 1.763 1.482 3.326 2.437 4.785h-.003Zm2.754-.056a7.47 7.47 0 0 1-1.916-3.347 2.2 2.2 0 0 1-.073-.98 1.14 1.14 0 0 1 1.527-.912c.316.105.598.294.816.547a2.3 2.3 0 0 0-.841-.443 1.07 1.07 0 0 0-1.384.833c-.233 1.642 1.036 3.064 1.876 4.305zm-10.096 3.387c-1.874-1.11-3.703-2.333-5.79-3.019-.668-.204-1.419-.495-2.098-.199 1.206-.595 3.044.44 4.146.986 1.117.608 2.812 1.446 3.762 2.24z"/>
  <path fill="#1B1464" d="M12.556 27.386c1.314-1.403 4.077.423 5.075 1.542-1.405-1.062-3.335-2.763-5.075-1.542"/>
  <path fill="#1B1464" d="M19.018 28.08c-1.205-1.179-2.67-2.15-4.26-.994a2.03 2.03 0 0 1 2.311-.44c.736.323 1.552.774 1.96 1.451z"/>
  <path fill="#1B1464" d="M18.89 26.265c-.372-.088-.735-.327-1.136-.258-.4.07-.79.198-.68.658.007.023 0 0-.015.005-.294-.494.27-.77.693-.73.422.038.884.026 1.13.327zm1.407 1.212c-.275-.171-.4-.48-.664-.65a4.5 4.5 0 0 1-.739-.567c.31.084.584.265.783.515.19.235.562.398.62.702"/>
  <path fill="#1B1464" d="M18.893 26.267a2.32 2.32 0 0 1-.797-1.73c.144-.687 1.05-.341 1.407-.015.312.26.56.589.727.96-.473-.552-1.044-1.312-1.832-1.223a.384.384 0 0 0-.26.442c.149.566.407 1.098.762 1.564 0 0 .007.026 0 0zm4.453-7.715c-2.632-4.06-3.988-8.837-4.588-13.63l.077.006a18.6 18.6 0 0 0 .249 6.451 22 22 0 0 0 2.252 6.071 19.5 19.5 0 0 1-2.773-9.282c-.051-1.09.015-2.181.198-3.257a.04.04 0 0 1 .016-.026.04.04 0 0 1 .03-.007c.191 1.172.314 2.426.601 3.618a35.4 35.4 0 0 0 3.938 10.056"/>
  <path fill="#1B1464" d="M19.615 13.604c-.191.525-.458 1.049-.41 1.617.066.553.234 1.089.495 1.58-.629-.65-.613-1.61-.46-2.45.056-.285.188-.549.384-.764zM5.904 11.66c2.532.4 4.87 1.572 7.066 2.84a23.3 23.3 0 0 1 5.89 4.876 32 32 0 0 0-5.899-4.826 24.6 24.6 0 0 0-7.057-2.89"/>
  <path fill="#1B1464" d="M19.217 22.063c-3.68-4.338-8.318-7.722-13.31-10.393q.977.424 1.899.958c3.118 1.705 5.925 3.912 8.556 6.287 1.04.967 1.999 2.02 2.865 3.145zm-2.775-5.983c.525.011.928.363 1.347.64a2.75 2.75 0 0 1 1.013 1.104c-.362-.343-.68-.719-1.046-1.053-.367-.334-.906-.452-1.302-.685zm-1.212-.007c.18-.163.401-.052.605-.098a.72.72 0 0 1 .604.116 1.6 1.6 0 0 1-.604-.047c-.196-.057-.42.123-.606.029Z"/>
  <path fill="#1B1464" d="M19.174 15.017a6 6 0 0 0-1.544-.91c-1.384-.31-1.403.99-1.184 1.975a2.4 2.4 0 0 1-.21-1.201c.197-1.587 2.37-.695 2.938.136m13.659 13.574c.376-.155.596-.52.923-.76.304-.28.676-.475 1.08-.565.654.009.309.772-.07.942a.99.99 0 0 1-1.175-.163c.175.095.366.156.563.18a.96.96 0 0 0 .919-.538.24.24 0 0 0-.238-.352c-.853.009-1.229 1.14-2.002 1.256"/>
  <path fill="#1B1464" d="M33.945 27.734c.188.076.395.23.58.1a.77.77 0 0 0 .267-.53.41.41 0 0 1-.248.593c-.216.063-.533.122-.626-.162h.027ZM16.652 14.196c.728.763 1.519 1.65 2.198 2.378a23.4 23.4 0 0 1 3.184 2.082c3.042 2.28 5.693 5.19 7.289 8.646a26.8 26.8 0 0 0-7.307-8.613 28 28 0 0 0-3.222-2.036c-.702-.83-1.493-1.633-2.135-2.459zm7.212 11.256a2.2 2.2 0 0 1 1.044.114 2.2 2.2 0 0 1-1.044-.114m-.56-1.216a2.44 2.44 0 0 1 1.07.203 2.36 2.36 0 0 1-1.07-.203m-.654-1.278c.468.082.917.247 1.326.487a4 4 0 0 1-1.326-.487m-.418-1.285a5.8 5.8 0 0 1 1.537.701 5.8 5.8 0 0 1-1.539-.708z"/>
  <path fill="#1B1464" d="M22.227 20.1c.5.259.961.589 1.367.98a5.5 5.5 0 0 1-1.367-.98m1.205-.984c.483.221.91.55 1.25.959a8.5 8.5 0 0 1-1.25-.959m-4.021-.639c.495.2.955.477 1.363.822a5.1 5.1 0 0 1-1.363-.822m.155 1.679c.396.06.775.203 1.113.42a2.8 2.8 0 0 1-1.113-.42m.211 1.356a3 3 0 0 1 1.183.343 3 3 0 0 1-1.183-.343m.217 1.258a3 3 0 0 1 1.21.177 3 3 0 0 1-1.21-.177m.445 1.27a2.8 2.8 0 0 1 1.18.04 2.8 2.8 0 0 1-1.18-.04m.424 1.18a3.4 3.4 0 0 1 1.287-.05 3.3 3.3 0 0 1-1.287.05m.532.955a3.2 3.2 0 0 1 1.25-.135 3.2 3.2 0 0 1-1.25.135m8.612 7.499a.97.97 0 0 1 .61-.275.95.95 0 0 1-.61.275m-.352-.646c.21-.156.464-.242.726-.244a1.25 1.25 0 0 1-.738.248zm-.2-.707c.228-.139.494-.2.759-.178-.227.14-.493.203-.759.178m-.132-.721a1.24 1.24 0 0 1 .77-.104 1.23 1.23 0 0 1-.77.105Zm-.063-.733c.249-.093.52-.102.775-.027-.248.093-.52.103-.775.027m-.632 2.707a.68.68 0 0 1 .54-.193.7.7 0 0 1-.54.193m-.418-.65c.222-.148.486-.219.752-.203a1.25 1.25 0 0 1-.752.203m-.169-.741c.235-.127.503-.175.767-.138a1.23 1.23 0 0 1-.767.138m.085-.77a.73.73 0 0 1 .589-.052.71.71 0 0 1-.589.052"/>
</svg>
