<svg xmlns="http://www.w3.org/2000/svg" width="40" height="41" fill="none" viewBox="0 0 40 41">
  <path fill="#6B1100" d="M17.241 18.716c.927-6.801.282-11.519-1.379-16.181 1.748 2.663 3.117 10.04 1.38 16.181Zm3.969 3.026c3.117-6.25 6.645-13.012 12.075-14.917-3.682.717-8.681 5.883-12.075 14.917"/>
  <path fill="#6B1100" d="M21.311 21.126c.1 1.737.168 5.392-.145 6.518-.401 1.443 1.339-2.24.145-6.518"/>
  <path fill="#00E2F6" d="M33.842 36.036c2.24.268 4.285.797 5.256 1.791-4.502.578-7.68.783-11.696.5a15 15 0 0 1-2.04-.28 11.7 11.7 0 0 0-.296-2.115s4.705-.382 8.776.104"/>
  <path fill="#00E2F6" d="M31.703 34.132c2.3.972 2.147 1.866 2.14 1.904-4.072-.486-8.774-.104-8.774-.104a8.5 8.5 0 0 0-.755-2.044s3.415-.614 6.048-.14c.46.078.91.207 1.341.384"/>
  <path fill="#00E2F6" d="M29.235 32.093c1.205.564 1.3 1.189 1.123 1.655-2.633-.474-6.048.14-6.048.14a6.6 6.6 0 0 0-.846-1.248q-.097-.113-.193-.218s2.118-.803 4.136-.726c.63.01 1.252.144 1.828.397"/>
  <path fill="#FFF400" d="M33.285 6.821s-5.09 1.05-9.08 8.809c-2.415 4.684-2.779 5.525-2.837 5.676a6.97 6.97 0 0 0 .104-3.573c6.2-10.83 11.813-10.912 11.813-10.912"/>
  <path fill="#00E2F6" d="M23.366 12.819c5.448-6.246 9.919-5.998 9.919-5.998s-5.61.084-11.813 10.92a2.7 2.7 0 0 0-.782-1.387 34 34 0 0 1 2.676-3.535"/>
  <path fill="#00E2F6" d="M20.597 13.396c-.732-8.255-4.493-10.685-4.493-10.685s4.487 3.369 3.128 15.78c.406-.361.91-.591 1.449-.661.067-1.478.04-2.96-.084-4.434m5.543 16.813c1.3.42 1.268 1.487 1.268 1.487-2.018-.077-4.136.727-4.136.727a9 9 0 0 0-1.227-1.139s1.5-.906 2.881-1.133a2.7 2.7 0 0 1 1.215.058Z"/>
  <path fill="#FFCF02" d="M25.066 35.932q.245 1.044.295 2.116-.598-.124-1.166-.292c-1.063-7.366-7.195-7.212-8.318-7.068a4 4 0 0 0-1.209-.426 6.8 6.8 0 0 1 1.717-.464 7.6 7.6 0 0 1 2.066-.01 7 7 0 0 1 1.74.442 7.6 7.6 0 0 1 1.858 1.056q.665.512 1.226 1.139a6.6 6.6 0 0 1 1.04 1.466c.336.645.589 1.331.751 2.04Z"/>
  <path fill="#00E2F6" d="M24.924 30.151c-1.383.217-2.882 1.123-2.882 1.123a7.6 7.6 0 0 0-1.857-1.056s.93-1.11 2.228-1.346c.27-.05.547-.059.82-.024 1.722.232 1.69 1.303 1.69 1.303Z"/>
  <path fill="#1B1464" d="M20.84 17.59c.025-6.856-1.458-11.714-4.994-15.036 3.215 1.678 5.577 8.68 4.994 15.035Z"/>
  <path fill="#1B1464" d="M20.622 16.393c3.85-5.673 7.816-8.845 12.61-9.592-3.602-.43-9.503 4.017-12.61 9.592"/>
  <path fill="#3D6CFF" d="M24.194 37.756q-.509-.15-.994-.327c-2.1-.815-1.317-1.916-3.202-4.199a4.66 4.66 0 0 0-3.002-1.698l-.002-.032a5.3 5.3 0 0 0-1.12-.806c1.126-.15 7.257-.304 8.32 7.062"/>
  <path fill="#00E2F6" d="M22.413 28.867v.015c-1.301.237-2.227 1.346-2.227 1.346a7 7 0 0 0-1.736-.44s.516-1.177 1.56-1.67c.276-.133.577-.206.882-.214.092-.006.18-.011.262.004 1.22.072 1.259.96 1.259.96Z"/>
  <path fill="#3D6CFF" d="M22.035 13.042a2.4 2.4 0 0 1 1.33-.223c-.968 1.117-1.615 2.52-2.432 3.753-.176-.146-.636-.47-.861-.51q.076-.248.126-.476c.422-1.538 1.173-2.233 1.837-2.544"/>
  <path fill="#00E2F6" d="M16.994 31.53a4.66 4.66 0 0 1 3.002 1.697c1.88 2.284 1.103 3.384 3.202 4.199-2.201-.811-4.071-2.044-5.89-3.334-1.379-.977-2.73-1.986-4.175-2.864a7 7 0 0 0-.994-.5c.41-.24.862-.398 1.333-.463.397-.06.8-.057 1.197.01.423.075.832.22 1.209.426.407.218.783.49 1.12.806l-.004.022Z"/>
  <path fill="#FFF400" d="M21.465 22.07a17.9 17.9 0 0 1-.314 5.83c-.082.006-.17-.007-.262-.004a2.2 2.2 0 0 0-.882.215v-.015a1.24 1.24 0 0 0-.713-.544c.72-2.734.362-6.19-2.128-6.445a2.9 2.9 0 0 0-1.896.471 7.1 7.1 0 0 1 1.544-2.544 6 6 0 0 1 .457-.405c1.974-1.546 3.555-.248 4.071 2.565a14 14 0 0 1 .123.876"/>
  <path fill="#FFF400" d="M19.2 16.166a2 2 0 0 1 .396-.1 1.32 1.32 0 0 1 1.088.281c.396.372.67.855.788 1.386a6.97 6.97 0 0 1-.1 3.572l.002.023c-.516-2.813-2.112-4.253-4.086-2.708 0 0 .031-.14.103-.358.183-.574.699-1.706 1.81-2.096Zm2.147-3.888a1.01 1.01 0 0 1 .689.764c-.665.311-1.416 1.006-1.844 2.534.32-1.384.113-2.31-.154-2.894a1.23 1.23 0 0 1 1.31-.404Z"/>
  <path fill="#00E2F6" d="M19.29 27.555c.296.086.55.28.712.543v.015c-1.04.493-1.552 1.675-1.552 1.675a7.6 7.6 0 0 0-2.07.026s.24-1.55 1.579-2.123q.099-.044.202-.076c.36-.138.755-.159 1.128-.06Z"/>
  <path fill="#3D6CFF" d="M20.043 12.682c.283.584.473 1.51.154 2.894a6 6 0 0 1-.126.476 1.4 1.4 0 0 0-.476.003 2 2 0 0 0-.395.101 33 33 0 0 0 .177-4.322c.292.22.522.512.666.848"/>
  <path fill="#00E2F6" d="M17.172 21.109c2.48.256 2.837 3.712 2.127 6.445a1.84 1.84 0 0 0-1.13.068 2 2 0 0 0-.202.076.95.95 0 0 0-.736-.352c.12-1.253.022-3.241-1.698-3.403q-.301-.03-.602.005a3.15 3.15 0 0 0-2.224 1.379c.044-.135.89-2.648 2.59-3.723a2.9 2.9 0 0 1 1.875-.495"/>
  <path fill="#FFF400" d="M19.378 11.834a33 33 0 0 1-.167 4.332c-1.11.39-1.627 1.522-1.826 2.102C18.939 7.098 15.819 2.53 15.819 2.53s3.303 1.738 3.559 9.304"/>
  <path fill="#00E2F6" d="M15.39 28.246a2.36 2.36 0 0 1 .953-.732c.273-.122.569-.183.867-.177a.95.95 0 0 1 .736.353c-1.339.578-1.578 2.122-1.578 2.122a6.8 6.8 0 0 0-1.717.464 3.9 3.9 0 0 1 .739-2.03"/>
  <path fill="#3D6CFF" d="M15.513 23.931c1.73.174 1.827 2.15 1.698 3.403a2 2 0 0 0-.867.177 2.36 2.36 0 0 0-.954.732c-2.194-.142-1.94 1.86-1.921 2.013-.705-2.969 2.044-6.325 2.044-6.325"/>
  <path fill="#FFF400" d="M8.253 32.228a3.6 3.6 0 0 0-.662-.15 1.08 1.08 0 0 0-.917.211l-.04.045c-.402.485.361 1.008.942.676a1.6 1.6 0 0 0 .677-.782m9.055 1.864a9.2 9.2 0 0 1-2.388 1.211c-4.524 1.533-8.35-.47-10.384-1.947 0 0 .805-.425.86-1.674a1.9 1.9 0 0 0-.09-.742c1.815-.651 4.415-1.187 6.832-.217q.518.21.994.5c1.446.883 2.797 1.892 4.176 2.87Z"/>
  <path fill="#00E2F6" d="M13.468 30.259c-.01-.152-.273-2.155 1.921-2.014a3.9 3.9 0 0 0-.721 2.037 3.8 3.8 0 0 0-1.197-.009s0-.012-.003-.014"/>
  <path fill="#3D6CFF" d="M14.91 23.937q.301-.036.604-.006s-2.75 3.356-2.045 6.327a8.6 8.6 0 0 0-2.072-1.327q.087-.754.298-1.483c.204-.767.54-1.493.992-2.145a3.15 3.15 0 0 1 2.224-1.366Z"/>
  <path fill="#00E2F6" d="M12.684 25.308a6.9 6.9 0 0 0-.99 2.14 9.3 9.3 0 0 0-.731-1.826c.395-.737.628-1.55.683-2.386.023-.03.52-.711.915-.194.541.716.15 2.157.134 2.253z"/>
  <path fill="#FFAE00" d="M8.285 28.468a5.7 5.7 0 0 1 3.11.47 8.6 8.6 0 0 1 2.074 1.328 3.6 3.6 0 0 0-1.334.463c-2.408-.971-5.01-.435-6.833.216a1 1 0 0 0-.706-.69c.92-.788 2.18-1.583 3.689-1.787"/>
  <path fill="#FFCF02" d="M11.695 27.448q-.21.729-.298 1.483a5 5 0 0 0-.234-.756 6 6 0 0 0-.346-.742C8.116 21.986 3.76 20.94 3.55 20.89a22 22 0 0 1-.298-1.415q.905.3 1.758.73a16 16 0 0 1 1.805 1.027 14.5 14.5 0 0 1 1.566 1.193q.747.651 1.378 1.413a10.2 10.2 0 0 1 1.217 1.79q.455.872.72 1.819Z"/>
  <path fill="#00E2F6" d="M11.712 23.231c-.05.834.006 2.41-.385 3.148-.335-.636-1.088-1.986-1.549-2.538.34-1.004.381-2.03.379-3.09.003-.29.033-.593-.043-.874.05.012 1.353.383 1.498 2.452.02.331.132.572.1.902M7.49 25.48s1.518-.487 2.81 1.178q.289.372.513.782c.12.243.233.485.346.742q.15.369.234.757a5.7 5.7 0 0 0-3.11-.471c-2.035-.682-3.828-3.76-4.745-7.579.166.055 2.51.828 3.951 4.59Z"/>
  <path fill="#3D6CFF" d="M10.816 27.44a6 6 0 0 0-.512-.782c-1.295-1.667-2.811-1.178-2.811-1.178-1.445-3.762-3.789-4.535-3.944-4.588.21.05 4.566 1.094 7.267 6.548"/>
  <path fill="#00E2F6" d="M10.276 20.726a9.6 9.6 0 0 1-.51 3.115 12 12 0 0 0-1.378-1.413c.336-1.375.136-4.305-.011-5.713.363.131.689.35.949.635s.598 1.29.841 2.51q.114.425.109.866"/>
  <path fill="#3D6CFF" d="M8.253 32.228a1.6 1.6 0 0 1-.676.788c-.581.33-1.345-.192-.943-.677a.497.497 0 0 0 .978-.078.5.5 0 0 0-.011-.179q.333.042.652.146"/>
  <path fill="#00E2F6" d="M8.674 18.227a12.3 12.3 0 0 1-.286 4.206 15 15 0 0 0-1.566-1.193c.17-1.973.153-3.956-.048-5.926 0 0 1.413.203 1.835 2.448.022.148.046.311.065.465"/>
  <path fill="#1B1464" d="M7.59 32.078a.53.53 0 0 1-.136.487.498.498 0 0 1-.831-.23l.04-.045a1.08 1.08 0 0 1 .926-.212Z"/>
  <path fill="#00E2F6" d="M6.767 15.315c.2 1.969.217 3.953.048 5.926a16 16 0 0 0-1.806-1.027 64 64 0 0 0-1.046-9.887s1.949-.21 2.578 3.368c.094.546.17 1.09.226 1.62"/>
  <path fill="#FFF400" d="M5.396 31.677c-.055 1.25-.86 1.674-.86 1.674a12 12 0 0 1-1.574-1.332 14 14 0 0 1 2.349-1.074c.075.236.104.485.085.732"/>
  <path fill="#FFAE00" d="M4.6 30.254a1 1 0 0 1 .71.69c-.809.285-1.59.644-2.333 1.074a10 10 0 0 1 1.622-1.764Z"/>
  <path fill="#00E2F6" d="M3.963 10.327a64 64 0 0 1 1.046 9.887 13 13 0 0 0-1.759-.738 23 23 0 0 1-.214-1.505c-.415-3.76-1.52-10.838-2.07-14.287.052.024 1.74.839 2.84 5.863z"/>
  <path fill="#6B1100" d="M17.312 34.093c-3.142 2.833-7.7 2.263-11.278.307-1.176-.608-2.192-1.394-3.148-2.31a.1.1 0 0 1-.008-.13c1.857-2.673 5.374-4.674 8.518-3.021-3.232-1.341-6.419.518-8.347 3.135l-.007-.124c3.915 3.981 9.446 5.083 14.265 2.143zm-2.047-12.52a5.2 5.2 0 0 1 2.064-3.02c.653-.495 1.568-.874 2.356-.44 1.139.62 1.58 2.038 1.688 3.235-.366-1.12-.729-2.407-1.782-3.052-2.133-1.012-3.524 1.834-4.326 3.277"/>
  <path fill="#1B1464" d="M22.981 37.325c4.536 1.667 9.974 1.088 14.588.633.64-.056 1.396-.206 1.999-.197-3.292.679-6.876.813-10.23.714-1.983.041-4.582-.136-6.357-1.147z"/>
  <path fill="#1B1464" d="M2.966 32.009c3.137-1.986 7.479-2.727 10.7-.521 1.606.983 3.116 2.108 4.657 3.172a29 29 0 0 0 4.873 2.776c-3.613-1.163-6.495-3.771-9.596-5.845-3.151-2.367-7.453-1.117-10.634.418m9.709-6.708c.499-1.68 1.504-3.459 3.242-4.085 2.112-.687 3.516.758 3.742 2.788a7.7 7.7 0 0 1-.38 3.547c.301-1.715.447-3.58-.364-5.163a2.39 2.39 0 0 0-2.964-1.095 3.7 3.7 0 0 0-1.405 1.021c-.805.835-1.364 1.997-1.86 2.986l-.01.001Z"/>
  <path fill="#1B1464" d="M12.13 30.72a2.53 2.53 0 0 1 1.901-.532 3.5 3.5 0 0 1 2.971 1.301s.002.025-.014.016c-.902-.584-1.852-1.223-2.957-1.247a8.3 8.3 0 0 0-1.888.48s-.023.002-.002-.02z"/>
  <path fill="#1B1464" d="M15.476 31.542c1.786-.512 3.561.414 4.682 1.796a7.7 7.7 0 0 1 1.36 2.25c.143.4.355.771.626 1.098a3.7 3.7 0 0 0 1.063.725v.022a3 3 0 0 1-1.178-.623 3.4 3.4 0 0 1-.72-1.128c-.508-1.181-1.104-2.402-2.132-3.21-1.042-.771-2.47-.978-3.694-.935zm-.636-2.554c-.07.141-.556 1.418-.16 1.26l.024.034.068-.014c.07-1.218.723-2.562 2.01-2.848.397-.104.884-.075 1.154.263.009.024.02-.001.02-.001a1.17 1.17 0 0 0-1.198-.36 2.6 2.6 0 0 0-1.917 1.666Z"/>
  <path fill="#1B1464" d="M15.874 30.688c3.04-.526 6.333 1.311 7.598 4.102.422.94.663 1.95.71 2.979-.2-.99-.508-1.956-.918-2.88-1.552-3.301-3.996-4.13-7.39-4.2Zm9.19 5.232c2.073-.34 5.101-.174 7.222-.09 2.205.118 5.2.336 6.827 1.99 0 0 .002.024-.016.015-.917-.788-2.118-1.085-3.266-1.356a31 31 0 0 0-5.35-.632c-1.783-.011-3.683.137-5.41.072z"/>
  <path fill="#1B1464" d="M30.358 33.739a2.74 2.74 0 0 1 1.59.464c.67.301 1.454.566 1.82 1.27.1.17.132.372.088.565l-.02.001c-.162-.715-.891-1.078-1.432-1.505-.59-.443-1.452-.447-2.041-.793zm-6.048.137a6.7 6.7 0 0 1 2.26-.289c1.262-.117 2.56-.259 3.788.15v.022l-3.021-.115c-1.001-.068-2.072.332-3.022.232zm-7.942-4.066c-.014-.904.653-1.592 1.35-2.074.696-.483 1.933-.546 2.296.362a.01.01 0 0 1-.01.007l-.007-.001-.005-.005c-.702-.788-2.007-.556-2.736.088a6.3 6.3 0 0 0-.88 1.622l-.02.001z"/>
  <path fill="#1B1464" d="M18.45 29.788a2.5 2.5 0 0 1 1.236-1.516 2.33 2.33 0 0 1 1.919-.416 1.06 1.06 0 0 1 .808 1.011c0 .015-.02.017-.023.002-.272-.889-1.332-.948-2.104-.807-.88.184-1.32 1.157-1.862 1.718z"/>
  <path fill="#1B1464" d="M20.18 30.221c.527-.869 1.516-1.246 2.467-1.432a2.65 2.65 0 0 1 1.466.177c.453.195.877.658.818 1.177l-.02.002c-.24-.97-1.392-1.199-2.254-1.235-.982-.004-1.739.851-2.479 1.314z"/>
  <path fill="#1B1464" d="M22.027 31.275a5.2 5.2 0 0 1 2.184-.992c.525-.133 1.053-.311 1.608-.245.831.07 1.669.788 1.578 1.651l-.022.001c-.193-1.1-1.358-1.581-2.364-1.489-1.05.057-2.003.812-2.984 1.074"/>
  <path fill="#1B1464" d="M23.269 32.413c1.262-.646 2.698-.724 4.083-.779 1.089-.045 2.84.35 3.115 1.594a.9.9 0 0 1-.103.527l-.017.002c.205-.738-.457-1.22-1.038-1.489a5.63 5.63 0 0 0-2.995-.492c-1.011.142-2.087.495-3.045.644zM.976 3.684c.623 3.143 1.144 6.678 1.526 9.878.496 3.275.714 6.644 1.903 9.763.781 1.948 1.836 4.258 3.884 5.133 0 0 .012 0 0 .012-.01.014-.014.001-.02.002-2.112-.742-3.29-3.097-4.078-5.064-1.261-3.145-1.241-6.546-1.766-9.837S1.3 6.91.976 3.69z"/>
  <path fill="#6B1100" d="M17.26 18.627a3.35 3.35 0 0 1 1.236-2.182c.69-.477 1.745-.665 2.38 0 1.153 1.283 1.048 3.338.503 4.863.088-.753.232-1.671.142-2.48-.09-.81-.216-1.66-.735-2.3-.54-.715-1.592-.459-2.179.065a4.5 4.5 0 0 0-1.319 2.05c.001.012-.025 0-.022 0zM4.6 30.242a.84.84 0 0 1 .751.573q.097.474.097.957c.038.63-.278 1.364-.903 1.586-.012 0-.02-.014 0-.02a2.84 2.84 0 0 0 .818-2.042 1.62 1.62 0 0 0-.753-1.042l-.001-.023-.01.011Z"/>
  <path fill="#1B1464" d="M3.553 20.881c.889.196 1.609.824 2.159 1.522a7.8 7.8 0 0 1 2.062 3.887l-.02.001c-.132-.266-.246-.538-.362-.808-.508-1.044-.967-2.153-1.743-3.037a12.4 12.4 0 0 0-2.104-1.57zm7.83 8.056c.067-1.437.536-2.908 1.532-3.972.905-1.078 2.888-1.724 3.9-.46.577.82.582 1.911.405 2.839.007-1.27-.137-3.155-1.739-3.311-2.837-.273-3.55 2.807-4.098 4.904"/>
  <path fill="#1B1464" d="M7.476 25.47c.946-.36 2.05.128 2.626.901a6.3 6.3 0 0 1 1.397 2.542l.002.032-.072-.113a6 6 0 0 1 2.035 1.442c-.349-.209-.693-.458-1.037-.666q-.525-.31-1.082-.562a.12.12 0 0 1-.07-.115l.003.037c-.216-.907-.574-1.85-1.232-2.536a3.17 3.17 0 0 0-2.548-.935s-.019-.02-.001-.023l-.02-.004ZM.973 3.676c.63.332 1.086.997 1.447 1.614.733 1.272 1.09 2.706 1.389 4.127.793 3.541 1.29 7.15 1.212 10.796-.166-1.36-.235-2.91-.394-4.328-.318-2.867-.504-5.801-1.519-8.525-.47-1.323-1.08-2.82-2.135-3.684"/>
  <path fill="#1B1464" d="M3.96 10.315c1.724-.063 2.42 1.932 2.61 3.334.23 1.507.492 3.016.475 4.547-.02.998-.025 2.128-.243 3.038.025-2.526.078-5.067-.308-7.57-.298-1.379-1.004-3.153-2.534-3.354z"/>
  <path fill="#1B1464" d="M6.765 15.305c1.299.172 1.755 1.568 1.904 2.69a8.3 8.3 0 0 1-.272 4.44c.012-.591.17-1.33.19-1.97.095-.899.087-1.805-.024-2.702-.231-.998-.797-2.047-1.8-2.436-.014.001 0-.024 0-.022z"/>
  <path fill="#1B1464" d="M8.255 16.697c1.36.181 1.71 1.637 1.866 2.818.328 1.555.12 2.918-.394 4.42.012-.622.177-1.4.197-2.073.1-.945.202-1.648.085-2.592-.242-1.05-.705-2.14-1.755-2.55-.015.001-.001-.026-.001-.023z"/>
  <path fill="#1B1464" d="M10.064 19.844c1.226.18 1.455 1.464 1.6 2.603.303 1.5.068 2.549-.39 3.994.01-.6.207-1.085.222-1.733.086-.91.176-1.587.067-2.497-.222-1.013-.553-1.946-1.5-2.344-.014 0-.002-.026-.002-.023z"/>
  <path fill="#1B1464" d="M11.639 23.24c.11-.281.42-.596.759-.44.278.19.331.507.458.786a2.22 2.22 0 0 1-.147 1.72c.005-.289.025-.582.04-.862.017-.482.175-1.256-.386-1.472-.199-.073-.445.109-.67.29l-.019-.012zm1.821 7.029c-.26-.56.046-1.134.368-1.595a1.36 1.36 0 0 1 1.572-.424c-.508.13-1.055.157-1.482.506a.88.88 0 0 0-.322.705l-.103.793-.022.002-.012.013Zm3.028-8.664c-.24.458-.457.947-.663 1.413-.07.159-.14.32-.221.48a2.5 2.5 0 0 1 .23-1.031c.139-.337.365-.63.655-.85v-.012Zm1.115.565a5 5 0 0 1-.97 1.463c.147-.584.49-1.1.97-1.463m.817.956a2.94 2.94 0 0 1-.927 1.164c.162-.486.49-.898.927-1.164m.318 1.431c-.195.39-.502.715-.882.93a1.62 1.62 0 0 1 .882-.93m.002 1.416a1.8 1.8 0 0 1-.948.823c.205-.38.542-.673.948-.823m-3.723-3.635a1.88 1.88 0 0 1-.35 1.108 1.3 1.3 0 0 1 .35-1.108M9.53 32.529c-.735.205-1.382-.357-2.084-.427-.328-.04-.722.088-.82.417-.097.33.31.48.584.464a.98.98 0 0 0 .578-.249q.271-.23.467-.526a1.38 1.38 0 0 1-.647.894.836.836 0 0 1-1.105-.224.517.517 0 0 1 .224-.724c.457-.231.969-.134 1.447-.058.468.122.858.385 1.352.398l.001.023z"/>
  <path fill="#1B1464" d="M6.638 32.331q.125.124.263.234a.23.23 0 0 0 .236.11.2.2 0 0 0 .085-.034.88.88 0 0 0 .348-.572l.022-.001c.25.234-.008.71-.338.688q-.227 0-.45-.036a.336.336 0 0 1-.189-.392l.02-.002z"/>
  <path fill="#FFA202" d="M18.687 18.696q-.375.971-.886 1.88a2.9 2.9 0 0 1 .886-1.88m-1.454.677c-.082.402-.228.79-.43 1.147a1.13 1.13 0 0 1 .43-1.147m2.357.224a2.9 2.9 0 0 1-.84 1.375 2.9 2.9 0 0 1 .84-1.375m.662 1.112a1.65 1.65 0 0 1-.817 1.085c.18-.422.461-.794.817-1.085m-.298 2.101c.18-.356.455-.656.796-.864a1.26 1.26 0 0 1-.796.864m1.043.459a1.36 1.36 0 0 1-.825.71 1.34 1.34 0 0 1 .825-.71m.095 1.221a1.16 1.16 0 0 1-.825.704c.185-.324.476-.575.825-.71zm-.102 1.463a.99.99 0 0 1-.867.58 1.7 1.7 0 0 1 .867-.58m-1.03-9.478a4 4 0 0 1-.623 1.325 1.75 1.75 0 0 1 .624-1.325Zm-.976.247a2.3 2.3 0 0 1-.37.992.93.93 0 0 1 .37-.992m-.828.682a.46.46 0 0 1-.16.549.374.374 0 0 1 .15-.548h.01Zm2.584-.111a1.3 1.3 0 0 1-.572.897 1.3 1.3 0 0 1 .572-.897m.387 1.087a.5.5 0 0 1-.352.534.5.5 0 0 1 .352-.535Z"/>
  <path fill="#1B1464" d="M19.377 11.834c1.208.746 1.274 2.447.899 3.685-.062.18-.123.361-.195.538.057-.378.122-.755.155-1.121.1-1.085-.03-2.304-.86-3.097z"/>
  <path fill="#1B1464" d="M23.328 12.82c-2.005.228-2.662 1.68-3.09 2.579.13-1.005 1.462-2.876 3.09-2.579"/>
  <path fill="#6B1100" d="M20.043 12.681c.43-.872 1.986-.688 1.993.36-.327-.812-1.357-.903-1.993-.36"/>
  <path fill="#1B1464" d="M21.046 12.84c-.152.87-.402 1.722-.744 2.536a5.8 5.8 0 0 1 .744-2.536"/>
  <path fill="#FFAE00" d="M12.766 32.897a1.68 1.68 0 0 1 1.203-.181 1.7 1.7 0 0 1-1.203.18Zm.111.84a1.68 1.68 0 0 1 1.203-.181 1.7 1.7 0 0 1-1.203.181m-.699-1.583a1.63 1.63 0 0 1 1.178-.234c-.348.225-.77.31-1.178.234m-.735-.599a1.01 1.01 0 0 1 .891-.265 1 1 0 0 1-.891.265m.853 3.715c.402-.13.83-.152 1.243-.061a1.4 1.4 0 0 1-1.243.061m.381-.773a2.6 2.6 0 0 1 1.308-.045 1.55 1.55 0 0 1-1.308.045"/>
  <path fill="#F08800" d="M11.326 27.009a.37.37 0 0 1-.17.509.37.37 0 0 1 .05-.42.4.4 0 0 1 .12-.09Zm-.31-.712a.37.37 0 0 1-.05.42.4.4 0 0 1-.12.09.366.366 0 0 1 .17-.51m-.391-.742a.37.37 0 0 1-.17.51.366.366 0 0 1 .17-.51m-.493-.718a.37.37 0 0 1-.167.509.37.37 0 0 1 .167-.51Zm-.562-.695a.37.37 0 0 1-.17.51.37.37 0 0 1 .17-.51m-.629-.718a.366.366 0 0 1-.167.51.366.366 0 0 1 .167-.51m-.794-.795a.41.41 0 0 1-.102.55.41.41 0 0 1 .102-.558zm-.926-.765a.42.42 0 0 1-.03.576.42.42 0 0 1 .03-.576m-.844-.538a.37.37 0 0 1-.006.535.37.37 0 0 1 .006-.535m-.853-.547a.43.43 0 0 1-.005.587.434.434 0 0 1 .005-.587m-.907-.345a.444.444 0 0 1 .035.592.444.444 0 0 1-.035-.592m16.538 11.307a.5.5 0 0 1 .555-.315.5.5 0 0 1-.555.315m-.878-.553a.5.5 0 0 1 .555-.318.5.5 0 0 1-.555.317Zm-.885-.396a.384.384 0 0 1 .44-.324.386.386 0 0 1-.44.324m-.834-.22a.37.37 0 0 1 .343-.415.375.375 0 0 1-.343.415m-.818-.15a.327.327 0 0 1 .292-.402.328.328 0 0 1-.293.402Zm-.687-.052a.23.23 0 0 1 .153-.364.23.23 0 0 1-.153.364m-.668.017a.211.211 0 0 1 .088-.364.211.211 0 0 1-.088.364m5.518 1.9a.5.5 0 0 1 .555-.317.5.5 0 0 1-.555.317m.632.645a.5.5 0 0 1 .572-.283.5.5 0 0 1-.572.283m.521.658a.5.5 0 0 1 .581-.255.5.5 0 0 1-.581.254Zm.424.759a.55.55 0 0 1 .649-.163.54.54 0 0 1-.648.163Zm.394.821a.48.48 0 0 1 .614-.093.48.48 0 0 1-.614.093m.258.798a.464.464 0 0 1 .61-.036.47.47 0 0 1-.61.036m.21.964a.413.413 0 0 1 .571.033.416.416 0 0 1-.571-.033"/>
</svg>
