<svg xmlns="http://www.w3.org/2000/svg" width="33" height="30" fill="none" viewBox="0 0 33 30" xmlns:xlink="http://www.w3.org/1999/xlink">
  <path fill="url(#a)" d="m31.447 4.52-.089-.094a2.4 2.4 0 0 0-.246-.267l-2.89-3.152s-.293 1.24-.366 2.476c-5.267.623-14.854 5.854-20.681 12.624-2.32 2.696-2.985 5.69-3.686 7.691-1.116-.168-3.048.246-3.048.246l3.053 3.68c.534.77 1.54 1.168 3.037 1.09 5.193-.283 14.324-6.21 20.346-13.21 4.267-4.963 5.848-9.147 4.555-11.068l.015-.01zM15.05 17.62l-4.43.24 5.137-5.968 4.43-.24z"/>
  <mask id="b" width="32" height="28" x="0" y="1" maskUnits="userSpaceOnUse" style="mask-type:luminance">
    <path fill="#fff" d="m31.447 4.521-.089-.094a2.4 2.4 0 0 0-.246-.267l-2.89-3.152s-.293 1.24-.366 2.476c-5.267.623-14.854 5.854-20.681 12.624-2.32 2.696-2.985 5.69-3.686 7.691-1.116-.168-3.048.246-3.048.246l3.053 3.68c.534.77 1.54 1.168 3.037 1.09 5.193-.283 14.324-6.21 20.346-13.21 4.267-4.963 5.848-9.147 4.555-11.068l.015-.01V4.52Zm-16.398 13.1-4.43.24 5.137-5.968 4.43-.24z"/>
  </mask>
  <g mask="url(#b)">
    <path stroke="#E77E25" stroke-miterlimit="10" stroke-width=".51" d="m19.543 15.923 3.817 4.115m-6.337-2.062 3.823 4.115m-6.448-2.094 3.618 4.299m-6.226-2.367 3.612 4.293m-6.625-2.859 3.435 4.44M5.54 24.53l3.434 4.44m-6.341-4.178 3.33 4.518M21.86 13.614l3.91 4.032m-1.754-6.55 4.1 3.838m-2.034-6.346 4.094 3.843m-2.504-6.77 4.256 3.665m-3.752-6.838 4.052 3.89"/>
  </g>
  <path stroke="#E77E25" stroke-linecap="round" stroke-linejoin="round" stroke-width=".44" d="m.813 24.494 2.68 3.225c.534.77 1.54 1.168 3.037 1.089 5.194-.283 14.325-6.21 20.346-13.21 4.267-4.963 5.848-9.147 4.555-11.068l.016-.01-.09-.095a2.4 2.4 0 0 0-.245-.267l-2.618-2.853"/>
  <path fill="#FFF400" d="M23.829 12.11c6-6.958 6.655-12.387 1.456-12.1-5.2.29-14.315 6.19-20.32 13.149-6 6.958-6.655 12.388-1.456 12.1 5.2-.288 14.315-6.189 20.32-13.147ZM9.64 15.588l5.115-5.932 4.435-.246-5.115 5.932zm14.189-3.476c6-6.959 6.655-12.388 1.456-12.1-5.2.288-14.315 6.189-20.32 13.147-6 6.958-6.655 12.388-1.456 12.1 5.2-.288 14.315-6.189 20.32-13.147M9.64 15.587l5.115-5.932 4.435-.246-5.115 5.932z"/>
  <path fill="#FFCF02" d="M22.156 12.194c4.927-5.717 5.456-10.157 1.183-9.927-4.272.236-11.728 5.058-16.655 10.776C1.758 18.76 1.23 23.2 5.501 22.963c4.273-.235 11.728-5.057 16.655-10.775zM9.67 15.566l5.11-5.927 4.43-.24-5.11 5.926z"/>
  <path fill="url(#c)" stroke="#FCCA6D" stroke-linecap="round" stroke-linejoin="round" stroke-width=".32" d="m8.87 15.776 5.435-6.304c.178-.21.45-.382.607-.393l5.241-.288c.158-.01.137.152-.041.362l-5.435 6.304c-.178.209-.45.382-.608.392l-5.24.288c-.158.01-.137-.152.041-.361m5.514-5.22-3.487 4.047c-.178.21-.2.372-.042.361l3.026-.167c.157-.01.424-.183.607-.393l3.487-4.047c.178-.21.2-.372.042-.361l-3.026.167c-.157.01-.424.184-.607.393"/>
  <defs>
    <linearGradient id="a" x1="1.113" x2="31.241" y1="13.847" y2="15.848" gradientUnits="userSpaceOnUse">
      <stop stop-color="#FBB124"/>
      <stop offset=".56" stop-color="#F39A22"/>
      <stop offset="1" stop-color="#EF8D21"/>
    </linearGradient>
    <linearGradient id="c" x1="-148.19" x2="-149.436" y1="-395.901" y2="-399.032" gradientUnits="userSpaceOnUse">
      <stop stop-color="#FCB532"/>
      <stop offset=".41" stop-color="#FFF400"/>
      <stop offset=".62" stop-color="#FFE41C"/>
      <stop offset=".86" stop-color="#FFD734"/>
      <stop offset="1" stop-color="#FFD33E"/>
    </linearGradient>
  </defs>
</svg>
