<svg xmlns="http://www.w3.org/2000/svg" width="54" height="57" fill="none" viewBox="0 0 54 57">
  <path fill="#2D9CF8" d="M5.05.107S-.5 13.83 1.916 26.904a8.4 8.4 0 0 1 1.74-.083v-.055c-.404-4.996.2-12.185.783-17.328.29-2.55.57-4.592.72-5.62C5.607.723 5.05.104 5.05.104z"/>
  <path fill="#00E2F6" d="M4.439 9.438C3.86 14.581 3.252 21.77 3.66 26.766v.055a8.3 8.3 0 0 1 1.779.316s.685-5.5.778-9.914c.013-.619.013-1.215 0-1.775-.115-4.533-1.778-6.01-1.778-6.01"/>
  <path fill="#FFCF02" d="m.09 43.48 1.711 2.045c-.055-.798-.055-1.62.013-2.445-.706.124-1.306.289-1.728.4zm3.567-16.659a8.3 8.3 0 0 0-1.74.083c.05.027 1.212.716 2.463 2.574 5.352.995 8.377 9.914 8.377 9.914a52 52 0 0 1 1.456-2.482s-.426-1.156-1.268-2.689a24 24 0 0 0-1.417-2.252 18 18 0 0 0-1.536-1.867 12.6 12.6 0 0 0-2.153-1.826 9.2 9.2 0 0 0-2.4-1.143 7.8 7.8 0 0 0-1.778-.316z"/>
  <path fill="#3D6CFF" d="M2.653 42.13S.828 42.075.088 43.48a18 18 0 0 1 1.727-.4s.294-.43.843-.94v-.009z"/>
  <path fill="#2D9CF8" d="M6.73 35.074c-.612-2.518-1.501-4.33-2.352-5.597-1.25-1.858-2.412-2.546-2.463-2.573.936 5.083 3.08 10.065 7.215 14.107.668.293 1.37.72 2.11 1.312q.25-.515.503-1.01s-1.464-5.38-5.012-6.239"/>
  <path fill="#FFF400" d="M6.742 46.517c-1.412 1.422-3.033-.317-2.45-.881a.6.6 0 0 1 .396-.16c.4-.024.94.229 1.442.573.213.142.417.302.608.468zm-4.94-.991c.669 9.409 9.65 16.4 19.096 6.308-5.901-1.106-9.458-4.047-9.688-4.244l-.009-.01c-2.463-4.954-6.713-4.981-9.377-4.504q-.102 1.245-.013 2.45z"/>
  <path fill="#3D6CFF" d="M2.663 42.14c-.549.508-.842.935-.842.935 2.663-.477 6.918-.45 9.377 4.505 0 0 .524-1.628 2.191-3.165a17 17 0 0 0-2.144-2.097c-.74-.592-1.442-1.018-2.11-1.312-3.06-1.353-5.327.064-6.472 1.129z"/>
  <path fill="#00E2F6" d="M6.217 17.228c-.093 4.414-.778 9.914-.778 9.914a9 9 0 0 1 2.4 1.143s.45-2.588.365-5.313c-.072-2.317-.532-4.734-1.987-5.744"/>
  <path fill="#2D9CF8" d="M4.29 45.636c-.587.564 1.034 2.303 2.451.881a8 8 0 0 0-.608-.468.77.77 0 0 1-.8.38c-.421-.077-.702-.5-.647-.953a.55.55 0 0 0-.395.16"/>
  <path fill="#1B1464" d="M4.685 45.475c-.055.454.226.877.647.954a.77.77 0 0 0 .8-.38c-.506-.344-1.042-.597-1.442-.574z"/>
  <path fill="#3D6CFF" d="M4.382 29.478c.851 1.266 1.74 3.074 2.353 5.597 3.544.858 5.012 6.24 5.012 6.24q.503-.997 1.012-1.918s-3.025-8.919-8.377-9.914z"/>
  <path fill="#00E2F6" d="M10.069 25.573C9.566 23.302 8.2 22.972 8.2 22.972c.085 2.725-.366 5.312-.366 5.312a12.8 12.8 0 0 1 2.153 1.826c.357-2.032.31-3.491.08-4.537"/>
  <path fill="#00E2F6" d="M12.03 27.537c-.455-1.872-1.901-1.964-1.96-1.964.23 1.046.276 2.505-.082 4.537a18 18 0 0 1 1.536 1.867s1.03-2.275.507-4.44"/>
  <path fill="#00E2F6" d="M14.125 29.94c-.204-2.49-2.089-2.408-2.089-2.408.524 2.165-.506 4.44-.506 4.44a24 24 0 0 1 1.417 2.253s1.387-1.794 1.178-4.285"/>
  <path fill="#FFCF02" d="M11.745 41.314q-.251.494-.502 1.01c.685.55 1.4 1.238 2.144 2.096 0 0 1.456-5.088 5.634-10.992-.817-.665-2.102-.395-3.047.844a45 45 0 0 0-1.404 2.07c-.008.013-.017.022-.021.036-.11.174-.226.353-.336.532a57 57 0 0 0-2.468 4.4zm14.785 1.239c-1.778-.468-3.36-.707-4.765-.766-1.714-.078-3.165.11-4.39.454-1.762.495-3.055 1.326-3.991 2.184-1.673 1.536-2.192 3.165-2.192 3.165l.077-.06c1.919-1.986 6.097-4.436 14.304-2.27 4.323 1.142 7.237 2.99 9.203 4.936l.008.027q1.194-.512 2.349-1.133a15 15 0 0 0-1.66-1.84 16 16 0 0 0-1.442-1.215 19 19 0 0 0-1.778-1.175 21 21 0 0 0-2.374-1.174 24 24 0 0 0-2.14-.78 26 26 0 0 0-1.213-.353z"/>
  <path fill="#2D9CF8" d="M26.42 49.727c-3.15-1.894-10.603-5.68-15.152-2.202l-.063.07c.23.192 3.786 3.137 9.687 4.243a24.6 24.6 0 0 0 5.719.385c2.735-.133 5.484-.849 8.13-1.982 0 0-3.348-2.615-8.322-.514"/>
  <path fill="#00E2F6" d="M15.468 31.418c-.455-1.34-1.344-1.477-1.344-1.477.204 2.49-1.179 4.284-1.179 4.284.843 1.533 1.268 2.684 1.268 2.684q.164-.27.336-.532l.021-.037c.754-1.238 1.35-3.601.898-4.927z"/>
  <path fill="#FFCF02" d="M13.385 44.42c.936-.858 2.23-1.688 3.991-2.184 0 0 2.149-3.133 2.408-6.276.102-1.248-.23-2.092-.765-2.532-4.179 5.904-5.634 10.992-5.634 10.992"/>
  <path fill="#2D9CF8" d="M15.977 34.271c.94-1.234 2.23-1.51 3.046-.844a43.4 43.4 0 0 1 4.612-5.51c-.834-.472-2.025.06-3.05.986q-.044.042-.094.083l-.272.266c-1.345 1.326-2.779 2.968-4.242 5.015z"/>
  <path fill="#3D6CFF" d="M11.271 47.526c4.548-3.478 12.002.307 15.15 2.202 4.974-2.101 8.323.514 8.323.514q.027-.013.047-.019l-.009-.027c-1.965-1.945-4.884-3.794-9.203-4.936-8.211-2.166-12.385.28-14.304 2.27z"/>
  <path fill="#2D9CF8" d="M19.014 33.427c.536.44.867 1.285.765 2.533-.26 3.142-2.408 6.276-2.408 6.276 1.226-.344 2.676-.533 4.391-.455 0 0 4.59-7.67 2.62-12.882-.182-.49-.446-.807-.756-.982a43 43 0 0 0-4.613 5.51"/>
  <path fill="#3D6CFF" d="M21.286 28.253c-.23.211-.468.427-.706.656 1.025-.927 2.217-1.459 3.05-.986a41 41 0 0 1 4.45-3.895s-.488.119-1.335.509c-.643.294-1.498.743-2.498 1.408a26 26 0 0 0-2.965 2.308z"/>
  <path fill="#3D6CFF" d="m21.26 28.22.021.033a25.5 25.5 0 0 1 2.966-2.308 37 37 0 0 0 2.046-6.932c1.651-8.616-.297-15.025-.297-15.025s.404 12.763-4.731 24.237zm7.306.537a38 38 0 0 0-.192-2.703c-.136-1.284-.29-2.036-.29-2.036a41 41 0 0 0-4.45 3.895c.31.174.575.49.758.981 1.97 5.212-2.621 12.883-2.621 12.883 1.404.064 2.987.302 4.765.77a32 32 0 0 0 .953-3.096c.536-2.11.834-4.162.983-6.038.136-1.725.144-3.303.098-4.656z"/>
  <path fill="#00E2F6" d="M26.292 19.008a36.4 36.4 0 0 1-2.047 6.932 18.5 18.5 0 0 1 2.498-1.408c.578-1.193.638-2.294.493-3.193-.225-1.413-.948-2.33-.948-2.33z"/>
  <path fill="#2D9CF8" d="M27.24 21.344c.144.9.085 2-.494 3.193.847-.39 1.336-.509 1.336-.509l3.016-4.574a1.2 1.2 0 0 0-.272-.124c-1.685-.5-3.59 2.014-3.59 2.014z"/>
  <path fill="#2D9CF8" d="m31.1 19.45-3.016 4.573s.153.748.289 2.037c1.102-2.096 2.383-3.023 3.412-3.422.14-.95.243-2.638-.685-3.189"/>
  <path fill="#00E2F6" d="M31.785 22.637c-1.03.4-2.31 1.326-3.412 3.422.08.74.153 1.652.191 2.703a46.3 46.3 0 0 1 5.14-6.368s-.813-.179-1.915.248zm-4.301 16.819a32 32 0 0 1-.954 3.097q.627.167 1.213.353s.791-1.44 2.004-2.349c.043-.05.732-.95.945-2.569.216-1.675-1.868-1.528-3.209 1.473z"/>
  <path fill="#3D6CFF" d="M28.562 28.757a41 41 0 0 1-.098 4.656C35.752 21.1 47.53 13.109 47.712 12.985c-.132.036-6.96 2.11-14.01 9.404a46.6 46.6 0 0 0-5.14 6.368"/>
  <path fill="#00E2F6" d="M27.74 42.9q1.143.36 2.14.78s1.157-1.894 2.842-2.798c.132-.55-.077-1.105-1.153-1.06-.672.028-1.29.326-1.825.73-1.213.908-2.004 2.349-2.004 2.349"/>
  <path fill="#00E2F6" d="M32.73 40.887c-1.69.909-2.842 2.799-2.842 2.799.864.362 1.655.757 2.374 1.174 1.676-2.078 3.085-3.188 4.22-3.739-1.36-.995-2.667-.82-3.752-.238z"/>
  <path fill="#00E2F6" d="M32.258 44.86q.969.564 1.779 1.175s2.931-2.707 5.982-4.808c0 0-1.196-1.234-3.54-.101-1.136.55-2.549 1.656-4.22 3.734"/>
  <path fill="#00E2F6" d="M34.032 46.03q.792.594 1.443 1.216c3.795-2.138 7.637-5.423 10.504-8.285-1.217-.601-3.625.651-5.965 2.261-3.05 2.102-5.982 4.808-5.982 4.808"/>
  <path fill="#3D6CFF" d="M35.482 47.246c.642.605 1.191 1.23 1.66 1.84 7.445-3.97 13.733-11.002 16.095-17.099 0 0-1.175-.307-3.294 2.542-.804 1.082-2.2 2.679-3.956 4.431-2.872 2.868-6.71 6.152-10.505 8.286"/>
  <path fill="#1B1464" d="M14.546 36.382a30.2 30.2 0 0 0-3.302 5.946c1.06-1.89 2.277-4.033 3.302-5.946m5.718-7.188c-1.2.927-2.068 2.22-3.072 3.367a20.8 20.8 0 0 0-2.63 3.79c.852-1.005 1.91-2.634 2.71-3.716.865-1.253 2.124-2.262 2.992-3.441m7.229 10.262c1.289-4.349 1.28-9.01.931-13.52A23 23 0 0 0 28.17 24a.093.093 0 0 0-.106-.078c-.74.211-1.434.523-2.11.872-2.013 1.055-3.843 2.532-5.468 4.18 1.123-.923 2.34-2.02 3.617-2.818 1.255-.825 2.586-1.596 3.999-2.041l-.11-.078c.986 5.078.51 10.437-.498 15.41zm-.95 3.101c.243-.34.345-.734.413-1.142.213-.62.591-1.317.519-1.964-.336.606-.4 1.285-.579 1.941-.157.353-.387.794-.353 1.165"/>
  <path fill="#1B1464" d="M26.53 42.58c.115.047.072.019.025 0h.021c.069.019.081 0-.038-.027-.093-.014-.166-.041-.064-.01q.027.009.022.01c-.085-.032-.047-.018.038.023zm-13.133 1.83c-3.153-3.973-8.059-5.996-11.62-1.372-.31 3.854.779 7.928 3.268 10.768 4.897 5.422 11.61 2.95 15.861-1.982-2.561 2.583-5.782 4.886-9.42 4.844-3.629.023-6.837-2.67-8.373-6.106-1.068-2.252-1.464-5.065-1.247-7.455 3.732-4.532 8.208-2.404 11.535 1.298z"/>
  <path fill="#1B1464" d="M11.2 47.604c6.842 5.312 16.347 6.17 24.014 2.468 7.603-3.61 14.593-9.78 18.112-18.043.025-.055 0-.133-.064-.138-.536-.055-.974.225-1.404.505-1.221.867-2.017 2.206-3.004 3.335-3.893 4.491-8.441 8.538-13.364 11.529 5.076-2.89 9.577-6.895 13.509-11.387.97-1.115 1.761-2.454 2.96-3.303.367-.252.826-.518 1.256-.482l-.064-.137c-3.404 8.056-10.47 14.625-17.976 18.03-7.67 3.619-17.103 2.665-23.975-2.377M1.82 43.09c4.31-.528 6.982.454 9.364 4.5l.009.01s.021-.01.013-.019l-.009-.009c-.77-1.812-2.153-3.39-3.923-4.07-1.71-.687-3.74-.976-5.463-.417z"/>
  <path fill="#1B1464" d="M1.807 45.52C1.373 44.71.62 44.2.152 43.416l-.042.156a12 12 0 0 0 1.706-.486c.008 0 .008-.023 0-.023-.6 0-1.187.133-1.753.321-.047.014-.072.064-.06.115.668.596 1.124 1.56 1.809 2.018z"/>
  <path fill="#1B1464" d="M2.653 42.136C1.68 41.989.48 42.438.088 43.48c.625-.854 1.604-1.184 2.565-1.344m32.092 8.092c-1.148-1.014-2.671-1.216-4.097-1.367-1.434-.156-2.99.202-4.229.858-.013 0-.017.018 0 .023.009 0 .021-.018.009 0 1.361-.422 2.8-.748 4.22-.757 1.438-.032 2.86.665 4.102 1.252z"/>
  <path fill="#1B1464" d="M27.9 50.669c-4.467-3.028-11.82-6.804-16.733-3.12l.06.046c.535-1.45 1.548-2.666 2.71-3.583 5.25-4.115 14.584-1.643 19.694 1.803 1.285.936 2.502 2.014 3.51 3.275-.927-1.34-2.182-2.417-3.442-3.39-5.097-3.606-14.55-6.024-19.814-1.77-1.14.944-2.263 2.224-2.706 3.688a7.4 7.4 0 0 1 4.204-1.427c4.48-.078 8.765 2.18 12.521 4.473z"/>
  <path fill="#1B1464" d="M34.787 50.187c-3.08-3.276-7.386-4.68-11.543-5.496-4.11-.822-8.965-.5-12.045 2.895h.008c-.004 0 .013-.01-.012.009 0 .013.017.018.02 0 1.503-1.496 3.609-2.478 5.68-2.831 6.196-.986 13.105 1.188 17.892 5.418zm-25.65-9.185C1.381 33.437.224 21.105 2.227 10.59 2.905 7.021 3.85 3.502 5.13.144l-.15.028c.234.426.247 1.05.256 1.56.017 1.082-.422 3.858-.55 4.977-.829 6.63-1.544 13.392-1.033 20.067-.383-7.767.664-15.667 1.646-23.36.09-1.12.324-2.331-.191-3.377a.08.08 0 0 0-.115-.023c-1.327 3.38-2.183 6.968-2.86 10.556-.603 3.588-.956 7.24-.85 10.891.12 7.249 2.672 14.814 7.85 19.54z"/>
  <path fill="#1B1464" d="M4.373 29.486c.63 1.257 1.4 2.436 1.791 3.808.409 1.367.626 2.762 1.013 4.138 0 .014.021.01.021 0-.149-1.422-.387-2.858-.931-4.175-.528-1.284-.958-2.807-1.894-3.766zm5.624.616c-1.982-2.395-5.126-3.721-8.092-3.308-.098.009-.123.16-.038.21.485.299.927.712 1.34 1.125.421.417.8.913 1.179 1.362-.281-.532-.673-1.032-1.064-1.486-.404-.454-.838-.867-1.357-1.193l-.034.211c3.322-.596 5.645.931 8.062 3.083zm4.223 6.808c-.335-1.349-1.14-2.46-1.774-3.647-.65-1.18-1.45-2.331-2.463-3.157.804 1.06 1.621 2.115 2.374 3.22.77 1.079 1.2 2.496 1.868 3.584z"/>
  <path fill="#1B1464" d="M11.751 41.31c-.255-1.437-1.038-2.652-1.783-3.84-.744-1.189-1.889-2.198-3.237-2.405-.013 0-.018.019-.005.023 1.272.468 2.293 1.367 3.157 2.455.872 1.073 1.272 2.578 1.868 3.77zm1.017-1.918c-.634-2.244-1.86-4.212-3.132-6.088-1.268-1.849-3.063-3.55-5.258-3.835-.013 0-.017.018 0 .023 2.118.55 3.795 2.133 5.173 3.885 1.4 1.758 2.25 4.038 3.217 6.015M4.437 9.447c2.617 3.74 1.613 8.823 1.366 13.167l-.37 4.523c0 .014.017.014.021 0a65 65 0 0 0 .8-9.047c-.008-2.858.285-6.569-1.812-8.647z"/>
  <path fill="#1B1464" d="M7.848 28.285c.472-1.904.413-3.877.387-5.826-.064-1.877-.374-4.194-2.017-5.244-.008-.005-.017.009-.008.014l.004.004c1.438 1.243 1.702 3.367 1.91 5.23.209 1.675-.238 4.189-.28 5.817z"/>
  <path fill="#1B1464" d="M8.204 22.982c2.472 1.33 1.974 4.657 1.779 7.125 0 .014.017.018.02 0 .635-1.955.52-6.662-1.795-7.13z"/>
  <path fill="#1B1464" d="M10.065 25.583c2.748.688 2.127 4.22 1.45 6.386-.004.01.013.023.017.01.592-1.11.86-2.46.668-3.73-.115-.629-.225-1.271-.57-1.826-.336-.519-1.038-.94-1.57-.844z"/>
  <path fill="#1B1464" d="M12.03 27.546c2.29.344 2.336 2.95 1.702 4.836-.178.633-.527 1.303-.783 1.853.873-1.018 1.324-2.454 1.247-3.835-.06-.693-.123-1.4-.472-2.005-.34-.587-1.136-.995-1.698-.849z"/>
  <path fill="#1B1464" d="M14.551 36.387c.77-.963.932-2.252 1.11-3.46.21-1.174-.301-2.798-1.54-2.995-.012 0-.012.019 0 .023 1.094.459 1.464 1.794 1.434 2.964-.008 1.22-.63 2.4-1 3.468zm-1.738-1.064c-.29.229-.468.545-.528.926.29-.23.468-.546.528-.927m.609 1.345q-.437.352-.527.931c.289-.23.468-.546.527-.931m-1.37-2.652q-.436.352-.528.932c.29-.23.468-.546.528-.932m-.762-1.307c-.29.23-.468.546-.528.927.29-.23.468-.546.528-.927m-.762-1.308a1.44 1.44 0 0 0-.527.931c.29-.23.468-.546.527-.931m-1.082-1.01a1.47 1.47 0 0 0-.383 1.01c.25-.28.379-.62.383-1.01m-1.075-.962a1.5 1.5 0 0 0-.268 1.05 1.52 1.52 0 0 0 .268-1.05m-1.116-.762a1.5 1.5 0 0 0-.212 1.064 1.5 1.5 0 0 0 .212-1.064m-1.265-.514c-.17.344-.208.711-.11 1.083.17-.344.204-.711.11-1.083m-1.367-.358c-.097.371-.068.738.102 1.082a1.5 1.5 0 0 0-.102-1.082m30.497 20.25a1.86 1.86 0 0 0-1.03.67 1.84 1.84 0 0 0 1.03-.67m-1.362-1.119a1.84 1.84 0 0 0-1.03.675 1.8 1.8 0 0 0 1.03-.675m-1.375-1.115a1.84 1.84 0 0 0-1.026.67 1.8 1.8 0 0 0 1.026-.67m-1.783-.844c-.408.1-.757.325-1.03.674a1.83 1.83 0 0 0 1.03-.674m-1.766-.813a1.88 1.88 0 0 0-.953.79 1.87 1.87 0 0 0 .953-.79m-1.766-.637a1.93 1.93 0 0 0-.889.872c.383-.184.685-.477.89-.872m-1.651-.399a1.93 1.93 0 0 0-.89.872c.388-.184.685-.478.89-.872m-1.705-.339a1.93 1.93 0 0 0-.834.931 1.9 1.9 0 0 0 .834-.931m-1.766-.138c-.361.23-.63.56-.787.982.362-.23.63-.56.787-.982m-1.885-.037c-.361.23-.63.56-.791.977.361-.23.63-.56.791-.977m-1.865.202a1.96 1.96 0 0 0-.753 1.009 1.96 1.96 0 0 0 .753-1.01m-1.637.424a1.98 1.98 0 0 0-.754 1.01 1.98 1.98 0 0 0 .753-1.01m-1.581.614a1.98 1.98 0 0 0-.753 1.01 1.98 1.98 0 0 0 .753-1.01m6.797-2.052c1.633-2.578 2.65-5.582 3.084-8.66.434-3.598-.668-7.64-4.382-4.162l-.013.018-.149.156c0 .01-.127.12-.106.129.008.023.119-.106.128-.101.008-.014.17-.147.174-.156.966-.853 2.783-1.904 3.638-.39.6 1.367.749 2.964.612 4.496-.285 3.097-1.744 5.987-2.986 8.675zm-4.389.456c1.319-1.744 2.102-3.9 2.434-6.111.08-.555.09-1.138-.064-1.693-.277-1.23-1.557-1.821-2.591-1.257-.48.239-.92.633-1.196 1.096.366-.38.775-.756 1.255-.94.953-.454 2.077.064 2.353 1.165.677 2.767-1.08 5.45-2.187 7.74zm16.656 3.793c2.774-2.27 5.455-4.73 8.642-6.313 1.02-.477 2.165-1.124 3.297-.757.013.005.021-.013.008-.018-1.965-.798-4.794 1.376-6.403 2.505-1.66 1.266-4.195 3.037-5.544 4.583"/>
  <path fill="#1B1464" d="M40.027 41.213c-2.302-2.156-6.437 1.537-7.778 3.638-.008.01.009.023.017.014 2.017-2.101 4.762-5.395 7.761-3.656z"/>
  <path fill="#1B1464" d="M29.89 43.69c1.73-2.275 3.79-4.202 6.585-2.56.009.005.022-.009.013-.018-1.017-.963-2.604-1.05-3.748-.298-1.107.697-2.319 1.629-2.847 2.877z"/>
  <path fill="#1B1464" d="M29.764 40.557c.595-.22 1.106-.702 1.753-.67.604.018 1.297.206 1.2.995-.005.042.016.032.025.005.374-.904-.566-1.294-1.234-1.115l-.472.096c-.46.055-1.034.29-1.272.688m-2.012 2.35c.29-.276.481-.61.673-.96.412-.504.965-.857 1.331-1.403-.625.22-1.004.826-1.382 1.358-.26.261-.6.633-.622 1.005"/>
  <path fill="#1B1464" d="M29.761 40.557c.417-.445.736-1.165.877-1.826.072-.5.212-1.064-.03-1.532-.583-.808-1.642-.069-2.136.495-.425.496-.834 1.166-.979 1.767.498-.844 1.039-1.707 1.843-2.225.506-.367 1.349-.386 1.34.468-.106.986-.468 1.972-.919 2.835-.026.023 0 .046.008.023zM21.274 28.23c3.438-7.492 4.718-15.942 4.786-24.246l-.123.023c.468 1.789.706 3.652.842 5.51.375 5.597-.557 11.276-2.531 16.442 2.195-5.088 3.097-10.85 2.714-16.456-.132-1.872-.404-3.735-.902-5.538-.017-.073-.132-.055-.123.023.119 6.753-1.068 13.506-3.055 19.897-.162.459-.608 1.734-.77 2.188l-.855 2.152c-.005.014.012.023.017.01z"/>
  <path fill="#1B1464" d="M26.285 19.018c.4.858.924 1.706.945 2.688.017.982-.183 1.9-.494 2.826 0 .01.009.019.017.01.702-1.024.762-2.382.443-3.57-.107-.702-.404-1.55-.915-1.954zm21.419-6.042c-3.446 1.019-6.573 3.07-9.475 5.3a39.5 39.5 0 0 0-9.68 10.482c.63-.766 1.273-1.743 1.945-2.546 2.502-3.106 5.289-5.96 8.399-8.354 2.723-1.987 5.803-3.652 8.811-4.877z"/>
  <path fill="#1B1464" d="M28.468 33.428c1.953-3 4.021-5.909 6.314-8.62 3.91-4.414 8.305-8.313 12.934-11.814-.936.537-1.923 1.33-2.842 2.019-5.076 3.909-9.539 8.707-13.517 13.873-.566.83-1.485 2.11-1.982 2.982l-.92 1.546s0 .023.01.018zm3.313-10.8c-.604.11-1.132.477-1.557.936-.796.647-1.519 1.463-1.86 2.491 0 .01.01.018.018.01.774-.96 1.306-2.194 2.386-2.78l1.022-.639c.008-.004.004-.023-.009-.018"/>
  <path fill="#1B1464" d="M33.704 22.38c-.23-.16-.49-.132-.732-.05-.413 0-.85-.032-1.187.299-.008.004 0 .018.009.018.434.037.783-.188 1.187-.248.246.046.472.078.723 0 .009 0 .013-.014 0-.023zm-6.454-1.03c.714-.698 1.416-1.423 2.284-1.863 2.149-.799 2.383 1.408 2.242 3.151.2-.582.243-1.417.111-2.1-.596-2.685-3.893-.707-4.637.811M8.042 47.296c-.625-.188-1.064-.757-1.604-1.119-.544-.344-1.77-1.188-2.289-.486-.106.188-.068.413 0 .587.315.679 1.094 1.028 1.762.821a1.7 1.7 0 0 0 .83-.592c-.273.18-.554.377-.864.427-.592.124-1.26-.188-1.558-.748-.34-.844.804-.73 1.226-.445.85.413 1.548 1.532 2.497 1.55z"/>
  <path fill="#1B1464" d="M6.119 46.044c-.23.152-.413.299-.664.358-.25.005-.455-.238-.574-.436-.115-.128-.17-.514-.204-.495-.243.555.276 1.046.778 1a.55.55 0 0 0 .685-.422c0-.014-.013-.01-.021 0zM31.09 19.445a216 216 0 0 0-3.08 4.528c-1.562 1.129-3.225 2.698-4.65 4.18-4.4 4.505-8.08 10.014-9.982 16.267 0 .014.017.019.017.005a46.6 46.6 0 0 1 10.011-16.222c1.472-1.5 3.08-2.835 4.727-4.102.987-1.523 2.076-3.128 2.961-4.656zM21.713 40.12a3.34 3.34 0 0 0-1.634.405 3.3 3.3 0 0 0 1.634-.404m.659-2.151a3.7 3.7 0 0 0-1.66.56 3.6 3.6 0 0 0 1.66-.56m.815-2.336c-.732.234-1.409.6-2.021 1.096a6.2 6.2 0 0 0 2.02-1.096m.424-2.284a9 9 0 0 0-2.314 1.523 9 9 0 0 0 2.314-1.523"/>
  <path fill="#1B1464" d="M23.339 30.662a9.5 9.5 0 0 0-1.996 1.959 9.5 9.5 0 0 0 1.996-1.96m-2.099-1.45c-.732.464-1.34 1.134-1.809 1.89.668-.564 1.247-1.201 1.808-1.89M27.5 27.33a8.3 8.3 0 0 0-2.012 1.675A8.2 8.2 0 0 0 27.5 27.33m.062 2.92a4.4 4.4 0 0 0-1.693.935 4.4 4.4 0 0 0 1.693-.936m-.078 2.344a4.6 4.6 0 0 0-1.817.802 4.7 4.7 0 0 0 1.817-.803m-.115 2.198a4.55 4.55 0 0 0-1.893.542 4.5 4.5 0 0 0 1.893-.541m-.478 2.266a4.2 4.2 0 0 0-1.859.298 4.1 4.1 0 0 0 1.86-.298m-.453 2.101a4.9 4.9 0 0 0-2.051.17 4.9 4.9 0 0 0 2.05-.17m-.666 1.711a4.7 4.7 0 0 0-2.013.014 4.65 4.65 0 0 0 2.013-.014M13.468 55.44a1.47 1.47 0 0 0-1.047-.353c.306.257.66.371 1.047.353m.432-1.175a1.85 1.85 0 0 0-1.217-.28c.374.234.787.326 1.217.28m.193-1.248a1.83 1.83 0 0 0-1.234-.151c.392.197.809.243 1.234.151m.079-1.261a1.86 1.86 0 0 0-1.243-.028c.409.156.83.16 1.242.028m-.037-1.266a1.83 1.83 0 0 0-1.238.105c.422.11.838.074 1.238-.105M15.641 55a1.03 1.03 0 0 0-.893-.225c.263.216.565.294.893.225m.539-1.203a1.85 1.85 0 0 0-1.23-.197q.583.315 1.23.197m.128-1.298a1.83 1.83 0 0 0-1.238-.087c.4.174.821.202 1.238.087m-.272-1.299a1.08 1.08 0 0 0-.944.028c.314.138.638.124.944-.027"/>
</svg>
