<svg xmlns="http://www.w3.org/2000/svg" width="33" height="33" fill="none" viewBox="0 0 33 33">
  <path fill="#6B1100" d="M13.64 14.985c.775-5.685.236-9.629-1.153-13.526 1.46 2.226 2.606 8.393 1.153 13.526m3.318 2.529C19.563 12.29 22.512 6.637 27.05 5.045c-3.077.6-7.256 4.918-10.092 12.47"/>
  <path fill="#6B1100" d="M17.042 16.999c.083 1.453.14 4.507-.121 5.449-.336 1.206 1.119-1.873.121-5.45"/>
  <path fill="#00E2F6" d="M27.517 29.462c1.871.224 3.58.666 4.392 1.497-3.763.483-6.419.654-9.776.419a13 13 0 0 1-1.706-.235 10 10 0 0 0-.246-1.768s3.933-.32 7.336.087"/>
  <path fill="#00E2F6" d="M25.728 27.87c1.923.813 1.795 1.56 1.789 1.592-3.404-.406-7.334-.087-7.334-.087a7 7 0 0 0-.63-1.708s2.854-.514 5.054-.117q.579.098 1.121.32"/>
  <path fill="#00E2F6" d="M23.666 26.166c1.007.472 1.086.994.938 1.384-2.2-.396-5.055.117-5.055.117a5.5 5.5 0 0 0-.708-1.043q-.08-.095-.16-.182s1.77-.672 3.457-.608a4 4 0 0 1 1.528.332"/>
  <path fill="#FFF400" d="M27.05 5.042s-4.253.878-7.589 7.363c-2.019 3.915-2.323 4.619-2.372 4.745.289-.971.319-2 .087-2.986 5.183-9.054 9.875-9.122 9.875-9.122"/>
  <path fill="#00E2F6" d="M18.76 10.055c4.553-5.22 8.29-5.013 8.29-5.013s-4.689.07-9.873 9.128a2.26 2.26 0 0 0-.654-1.16 29 29 0 0 1 2.236-2.955"/>
  <path fill="#00E2F6" d="M16.445 10.538c-.611-6.9-3.755-8.931-3.755-8.931s3.75 2.815 2.614 13.19a2.26 2.26 0 0 1 1.211-.553 29 29 0 0 0-.07-3.706m4.635 14.053c1.085.352 1.058 1.243 1.058 1.243-1.687-.064-3.457.608-3.457.608a7.7 7.7 0 0 0-1.025-.952s1.253-.757 2.408-.947a2.2 2.2 0 0 1 1.015.048"/>
  <path fill="#FFCF02" d="M20.18 29.375q.206.873.247 1.769-.5-.104-.975-.244c-.888-6.157-6.014-6.028-6.952-5.908a3.3 3.3 0 0 0-1.01-.356 5.7 5.7 0 0 1 1.435-.388 6.4 6.4 0 0 1 1.726-.009 6 6 0 0 1 1.455.37c.557.22 1.08.517 1.552.883q.556.429 1.026.951l.16.183q.414.482.708 1.043a7 7 0 0 1 .628 1.706"/>
  <path fill="#00E2F6" d="M20.062 24.543c-1.156.181-2.41.939-2.41.939a6.3 6.3 0 0 0-1.551-.883s.778-.927 1.862-1.125c.226-.043.458-.05.686-.02 1.438.194 1.412 1.09 1.412 1.09"/>
  <path fill="#1B1464" d="M16.648 14.043c.021-5.73-1.219-9.79-4.174-12.568 2.688 1.403 4.662 7.256 4.174 12.568"/>
  <path fill="#1B1464" d="M16.466 13.043C19.683 8.3 23 5.649 27.006 5.025c-3.01-.359-7.943 3.358-10.54 8.018"/>
  <path fill="#3D6CFF" d="M19.452 30.9q-.425-.125-.83-.274c-1.756-.68-1.102-1.6-2.678-3.51a3.9 3.9 0 0 0-2.509-1.419l-.002-.027a4.4 4.4 0 0 0-.935-.673c.94-.125 6.065-.254 6.954 5.903"/>
  <path fill="#00E2F6" d="M17.963 23.47v.013c-1.088.197-1.862 1.125-1.862 1.125a6 6 0 0 0-1.45-.368s.43-.984 1.304-1.396a1.8 1.8 0 0 1 .737-.18 1 1 0 0 1 .219.004c1.02.06 1.052.802 1.052.802"/>
  <path fill="#3D6CFF" d="M17.648 10.242a2 2 0 0 1 1.111-.187c-.81.934-1.35 2.107-2.033 3.138-.148-.123-.532-.393-.72-.427q.064-.206.105-.398c.353-1.285.981-1.866 1.537-2.126"/>
  <path fill="#00E2F6" d="M13.433 25.695a3.9 3.9 0 0 1 2.51 1.42c1.57 1.908.922 2.828 2.676 3.51-1.84-.679-3.403-1.709-4.923-2.787-1.153-.817-2.282-1.66-3.49-2.395a6 6 0 0 0-.831-.417 3 3 0 0 1 1.114-.387c.332-.05.67-.048 1 .007.355.063.696.184 1.011.357.34.182.655.409.936.673z"/>
  <path fill="#FFF400" d="M17.17 17.789a14.9 14.9 0 0 1-.262 4.873c-.068.004-.142-.006-.219-.003a1.8 1.8 0 0 0-.737.179v-.013a1.04 1.04 0 0 0-.596-.454c.601-2.285.303-5.174-1.779-5.388a2.43 2.43 0 0 0-1.585.394 5.95 5.95 0 0 1 1.29-2.126q.183-.18.383-.34c1.65-1.291 2.972-.207 3.403 2.145.037.197.08.521.103.733"/>
  <path fill="#FFF400" d="M15.278 12.853q.161-.057.33-.084.198-.036.398-.003c.188.034.365.116.512.239.33.31.56.715.658 1.158a5.8 5.8 0 0 1-.083 2.986l.001.019c-.431-2.351-1.765-3.555-3.415-2.264 0 0 .026-.116.086-.299.153-.48.584-1.426 1.513-1.752m1.794-3.25a.84.84 0 0 1 .576.639c-.556.26-1.184.841-1.541 2.118.267-1.157.094-1.93-.13-2.419a1.025 1.025 0 0 1 1.095-.338"/>
  <path fill="#00E2F6" d="M15.352 22.373c.248.072.46.234.595.454l.001.013c-.869.412-1.298 1.4-1.298 1.4a6.4 6.4 0 0 0-1.73.021s.2-1.295 1.32-1.774q.082-.037.169-.064c.301-.115.631-.133.943-.05"/>
  <path fill="#3D6CFF" d="M15.982 9.941c.237.488.395 1.262.129 2.42q-.042.19-.106.397a1.1 1.1 0 0 0-.398.003 2 2 0 0 0-.33.084q.193-1.801.148-3.613c.244.184.436.428.556.709"/>
  <path fill="#00E2F6" d="M13.582 16.985c2.073.214 2.372 3.102 1.778 5.388a1.54 1.54 0 0 0-.944.056q-.087.028-.17.064a.8.8 0 0 0-.615-.295c.1-1.047.018-2.709-1.419-2.844a2.3 2.3 0 0 0-.503.005A2.64 2.64 0 0 0 9.85 20.51c.037-.112.744-2.212 2.165-3.111a2.43 2.43 0 0 1 1.567-.414"/>
  <path fill="#FFF400" d="M15.426 9.232a27.5 27.5 0 0 1-.14 3.62c-.928.327-1.36 1.273-1.526 1.758 1.3-9.337-1.309-13.155-1.309-13.155s2.762 1.453 2.975 7.777"/>
  <path fill="#00E2F6" d="M12.093 22.95c.208-.269.482-.48.797-.611.227-.103.475-.153.724-.148a.8.8 0 0 1 .615.295c-1.119.483-1.32 1.774-1.32 1.774a5.7 5.7 0 0 0-1.434.387 3.24 3.24 0 0 1 .618-1.697"/>
  <path fill="#3D6CFF" d="M12.196 19.344c1.446.145 1.527 1.797 1.418 2.845a1.7 1.7 0 0 0-.724.147 2 2 0 0 0-.797.612c-1.834-.118-1.622 1.555-1.606 1.683-.59-2.482 1.709-5.287 1.709-5.287"/>
  <path fill="#FFF400" d="M6.127 26.279a3 3 0 0 0-.554-.126.9.9 0 0 0-.766.177l-.033.038c-.337.405.302.842.787.565.256-.15.455-.38.566-.654m7.569 1.558A7.7 7.7 0 0 1 11.7 28.85c-3.782 1.28-6.98-.394-8.68-1.628 0 0 .673-.355.72-1.4a1.7 1.7 0 0 0-.077-.62c1.517-.544 3.69-.992 5.712-.18q.432.174.83.417c1.209.738 2.338 1.581 3.49 2.398"/>
  <path fill="#00E2F6" d="M10.486 24.633c-.008-.127-.228-1.8 1.606-1.683a3.24 3.24 0 0 0-.603 1.703 3.2 3.2 0 0 0-1-.008s0-.01-.003-.012"/>
  <path fill="#3D6CFF" d="M11.692 19.35q.251-.032.504-.006s-2.298 2.805-1.709 5.289a7.2 7.2 0 0 0-1.732-1.11q.073-.63.249-1.24a5.7 5.7 0 0 1 .829-1.792 2.63 2.63 0 0 1 1.859-1.142"/>
  <path fill="#00E2F6" d="M9.83 20.495a5.7 5.7 0 0 0-.827 1.789 7.8 7.8 0 0 0-.611-1.526 4.9 4.9 0 0 0 .57-1.995c.02-.026.436-.594.766-.162.452.598.126 1.803.112 1.883z"/>
  <path fill="#FFAE00" d="M6.154 23.136a4.76 4.76 0 0 1 2.6.394 7.2 7.2 0 0 1 1.733 1.11 3 3 0 0 0-1.115.386c-2.013-.811-4.188-.363-5.712.181a.83.83 0 0 0-.59-.577c.769-.658 1.823-1.323 3.084-1.494"/>
  <path fill="#FFCF02" d="M9.004 22.283q-.175.61-.249 1.24a4 4 0 0 0-.196-.632 5 5 0 0 0-.289-.62c-2.258-4.553-5.899-5.427-6.074-5.468a19 19 0 0 1-.25-1.183q.758.251 1.47.61.781.38 1.51.859.687.454 1.308.997.623.544 1.152 1.181.587.695 1.018 1.496c.252.484.454.994.6 1.52"/>
  <path fill="#00E2F6" d="M9.019 18.759c-.043.697.005 2.015-.322 2.632-.28-.532-.91-1.66-1.295-2.122.284-.84.319-1.698.316-2.583.003-.243.028-.496-.035-.73.042.01 1.13.319 1.252 2.05.016.276.11.477.084.753m-3.53 1.879s1.27-.406 2.35.986q.24.31.428.653c.1.203.195.405.289.62q.124.309.196.633a4.76 4.76 0 0 0-2.6-.394c-1.7-.57-3.2-3.143-3.966-6.334.138.046 2.097.692 3.303 3.836"/>
  <path fill="#3D6CFF" d="M8.27 22.277a5 5 0 0 0-.429-.653c-1.082-1.394-2.35-.986-2.35-.986-1.207-3.144-3.166-3.79-3.296-3.835.175.042 3.817.915 6.075 5.474"/>
  <path fill="#00E2F6" d="M7.818 16.665a8 8 0 0 1-.427 2.604q-.527-.638-1.151-1.181c.28-1.15.113-3.599-.01-4.776.304.11.576.292.794.53.217.24.5 1.08.703 2.099.063.236.094.48.09.724"/>
  <path fill="#3D6CFF" d="M6.127 26.28a1.35 1.35 0 0 1-.565.658c-.486.277-1.124-.16-.788-.566a.416.416 0 0 0 .817-.065.5.5 0 0 0-.01-.15q.279.036.546.122"/>
  <path fill="#00E2F6" d="M6.479 14.576a10.3 10.3 0 0 1-.239 3.516q-.62-.543-1.31-.997a26.5 26.5 0 0 0-.04-4.954s1.182.17 1.535 2.046c.017.124.038.26.054.389"/>
  <path fill="#1B1464" d="M5.572 26.154a.45.45 0 0 1-.113.407.416.416 0 0 1-.695-.192l.034-.038a.9.9 0 0 1 .774-.177"/>
  <path fill="#00E2F6" d="M4.885 12.142a26.5 26.5 0 0 1 .04 4.953 13.5 13.5 0 0 0-1.51-.858 54 54 0 0 0-.874-8.264s1.63-.176 2.155 2.815q.118.686.189 1.354"/>
  <path fill="#FFF400" d="M3.74 25.819c-.047 1.044-.72 1.399-.72 1.399a10 10 0 0 1-1.316-1.114q.94-.54 1.964-.898c.063.198.087.406.071.613"/>
  <path fill="#FFAE00" d="M3.073 24.63a.83.83 0 0 1 .595.576q-1.018.357-1.951.898a8.3 8.3 0 0 1 1.356-1.475"/>
  <path fill="#00E2F6" d="M2.54 7.973a54 54 0 0 1 .875 8.264 11 11 0 0 0-1.47-.617 19 19 0 0 1-.179-1.258C1.42 11.22.495 5.303.036 2.42c.043.02 1.454.701 2.375 4.9q.063.326.13.653"/>
  <path fill="#6B1100" d="M13.7 27.838c-2.627 2.368-6.437 1.892-9.428.257-.983-.508-1.832-1.165-2.632-1.93a.085.085 0 0 1-.006-.11c1.553-2.234 4.493-3.907 7.12-2.525-2.702-1.12-5.365.433-6.977 2.62l-.006-.103c3.272 3.328 7.895 4.249 11.924 1.791zm-1.712-10.465a4.34 4.34 0 0 1 1.725-2.525c.546-.414 1.31-.73 1.97-.367.951.519 1.32 1.703 1.41 2.704-.305-.936-.609-2.012-1.489-2.551-1.783-.846-2.946 1.533-3.616 2.74"/>
  <path fill="#1B1464" d="M18.438 30.54c3.792 1.393 8.337.91 12.193.528.535-.046 1.167-.171 1.671-.164-2.751.568-5.747.68-8.551.597-1.657.034-3.83-.114-5.313-.959z"/>
  <path fill="#1B1464" d="M1.707 26.096c2.622-1.66 6.252-2.28 8.945-.436 1.342.823 2.604 1.762 3.892 2.652a24.4 24.4 0 0 0 4.073 2.32c-3.02-.972-5.428-3.152-8.02-4.885-2.635-1.979-6.23-.934-8.89.349m8.116-5.606c.417-1.405 1.258-2.892 2.71-3.416 1.766-.573 2.94.634 3.128 2.331a6.4 6.4 0 0 1-.318 2.964c.252-1.433.374-2.992-.304-4.314a2 2 0 0 0-2.477-.916 3.06 3.06 0 0 0-1.175.853c-.673.698-1.14 1.67-1.555 2.497z"/>
  <path fill="#1B1464" d="M9.367 25.018a2.1 2.1 0 0 1 1.59-.444 2.93 2.93 0 0 1 2.483 1.088s.002.02-.011.013c-.754-.489-1.549-1.023-2.473-1.043-.54.072-1.07.207-1.578.402 0 0-.018.001 0-.016z"/>
  <path fill="#1B1464" d="M12.165 25.706c1.493-.428 2.976.346 3.913 1.5a6.5 6.5 0 0 1 1.137 1.881c.12.334.297.645.523.919.259.252.56.457.888.605l.001.019a2.5 2.5 0 0 1-.985-.52 2.8 2.8 0 0 1-.601-.944c-.426-.987-.924-2.007-1.783-2.683-.871-.644-2.065-.817-3.087-.782zm-.531-2.135c-.06.118-.466 1.185-.134 1.053l.02.028.056-.011c.058-1.018.604-2.142 1.68-2.38.332-.087.74-.064.965.219.007.02.016-.001.016-.001a.98.98 0 0 0-1-.301 2.18 2.18 0 0 0-1.604 1.393"/>
  <path fill="#1B1464" d="M12.497 24.992c2.54-.44 5.294 1.096 6.351 3.429.353.785.554 1.63.594 2.49a11.6 11.6 0 0 0-.768-2.407c-1.297-2.76-3.34-3.453-6.177-3.512m7.683 4.373c1.732-.284 4.263-.145 6.036-.075 1.843.099 4.345.281 5.707 1.663 0 0 0 .02-.014.013-.766-.659-1.77-.907-2.73-1.134a26 26 0 0 0-4.472-.528c-1.49-.009-3.079.115-4.522.06z"/>
  <path fill="#1B1464" d="M24.604 27.542c.472-.011.937.124 1.329.388.56.252 1.215.473 1.521 1.061a.64.64 0 0 1 .074.473h-.016c-.136-.597-.746-.9-1.198-1.257-.493-.37-1.214-.374-1.706-.663zm-5.055.115a5.6 5.6 0 0 1 1.89-.241c1.054-.099 2.138-.217 3.165.124v.019l-2.526-.096c-.836-.057-1.73.278-2.525.194zm-6.639-3.399c-.012-.756.546-1.33 1.128-1.734s1.617-.456 1.92.303l-.004.004-.005.002-.005-.001-.005-.004c-.587-.659-1.677-.465-2.287.073a5.2 5.2 0 0 0-.736 1.356l-.016.001z"/>
  <path fill="#1B1464" d="M14.65 24.24a2.08 2.08 0 0 1 1.033-1.268 1.95 1.95 0 0 1 1.605-.347.886.886 0 0 1 .675.845c0 .013-.016.014-.019.001-.227-.742-1.114-.792-1.759-.674-.736.154-1.102.967-1.556 1.436z"/>
  <path fill="#1B1464" d="M16.097 24.602c.44-.726 1.267-1.042 2.062-1.198.414-.068.84-.016 1.225.148.379.163.733.55.684.985h-.017c-.2-.81-1.163-1.001-1.884-1.031-.821-.003-1.454.711-2.072 1.098z"/>
  <path fill="#1B1464" d="M17.64 25.483c.535-.416 1.16-.7 1.826-.83.439-.11.88-.26 1.344-.204.695.058 1.395.659 1.32 1.38h-.02c-.16-.919-1.134-1.321-1.975-1.244-.879.048-1.675.678-2.495.898"/>
  <path fill="#1B1464" d="M18.678 26.434c1.056-.54 2.256-.605 3.413-.651.91-.038 2.374.292 2.604 1.332a.76.76 0 0 1-.086.441h-.014c.171-.616-.382-1.018-.868-1.243a4.7 4.7 0 0 0-2.503-.412c-.845.119-1.744.414-2.545.539zM.044 2.42c.52 2.627.957 5.582 1.276 8.257.415 2.737.596 5.553 1.59 8.16.654 1.628 1.535 3.56 3.247 4.29 0 0 .01 0 0 .011s-.012.001-.016.001c-1.766-.62-2.751-2.588-3.41-4.232-1.053-2.63-1.037-5.472-1.475-8.222C.817 7.934.315 5.115.044 2.424z"/>
  <path fill="#6B1100" d="M13.656 14.91a2.8 2.8 0 0 1 1.033-1.824c.576-.398 1.458-.555 1.99 0 .963 1.073.875 2.79.42 4.065.073-.63.194-1.397.118-2.073-.075-.677-.18-1.387-.614-1.922-.452-.598-1.33-.383-1.821.054a3.76 3.76 0 0 0-1.103 1.713c0 .01-.02.002-.018.001zM3.073 24.62a.7.7 0 0 1 .629.478q.08.396.08.8c.032.527-.232 1.14-.754 1.326-.01 0-.018-.012-.001-.017A2.37 2.37 0 0 0 3.71 25.5a1.35 1.35 0 0 0-.629-.871l-.001-.019z"/>
  <path fill="#1B1464" d="M2.198 16.794c.743.165 1.345.69 1.805 1.272a6.5 6.5 0 0 1 1.724 3.25H5.71c-.11-.222-.206-.45-.302-.675-.425-.873-.81-1.8-1.457-2.538a10.4 10.4 0 0 0-1.76-1.312zm6.546 6.734c.055-1.201.447-2.43 1.28-3.32.756-.9 2.414-1.44 3.26-.385.482.686.486 1.598.339 2.374.005-1.061-.115-2.637-1.454-2.768-2.372-.228-2.967 2.347-3.425 4.099"/>
  <path fill="#1B1464" d="M5.478 20.63c.79-.3 1.712.107 2.194.754a5.3 5.3 0 0 1 1.168 2.124l.002.027-.06-.095c.645.28 1.224.69 1.7 1.206-.29-.175-.578-.383-.866-.557a10 10 0 0 0-.905-.47.1.1 0 0 1-.057-.096l.001.031c-.18-.758-.479-1.546-1.03-2.12a2.65 2.65 0 0 0-2.13-.781s-.015-.016 0-.02zM.042 2.413c.527.277.908.834 1.209 1.35.613 1.063.911 2.262 1.161 3.449.663 2.96 1.078 5.977 1.013 9.024-.138-1.137-.196-2.432-.33-3.617-.265-2.397-.42-4.85-1.268-7.127C1.434 4.387.924 3.136.042 2.413"/>
  <path fill="#1B1464" d="M2.539 7.962c1.44-.052 2.023 1.616 2.182 2.787.191 1.26.41 2.521.396 3.801-.017.835-.021 1.779-.203 2.54.02-2.112.065-4.235-.257-6.329-.25-1.151-.84-2.635-2.118-2.803z"/>
  <path fill="#1B1464" d="M4.883 12.134c1.086.143 1.467 1.31 1.592 2.249a6.96 6.96 0 0 1-.228 3.71c.01-.494.143-1.112.159-1.646.08-.751.073-1.51-.02-2.26-.193-.833-.666-1.71-1.504-2.035-.012.001-.001-.02-.001-.018z"/>
  <path fill="#1B1464" d="M6.129 13.297c1.136.151 1.428 1.368 1.56 2.356.274 1.299.1 2.439-.33 3.694.01-.52.148-1.17.165-1.732.083-.79.169-1.378.071-2.167-.202-.878-.59-1.789-1.467-2.131-.013 0-.001-.022-.001-.02z"/>
  <path fill="#1B1464" d="M7.64 15.928c1.026.15 1.217 1.224 1.338 2.176.253 1.253.057 2.13-.326 3.338.008-.5.173-.907.186-1.449.072-.761.147-1.327.056-2.087-.186-.847-.462-1.626-1.254-1.96-.012.001-.002-.02-.001-.018z"/>
  <path fill="#1B1464" d="M8.957 18.766c.092-.235.352-.498.635-.367.232.16.277.423.382.656a1.85 1.85 0 0 1-.123 1.439c.005-.242.021-.487.035-.72.013-.404.146-1.051-.323-1.232-.167-.06-.372.091-.561.242l-.015-.01zm1.522 5.876c-.218-.469.04-.949.308-1.333a1.14 1.14 0 0 1 1.314-.355c-.425.108-.882.131-1.24.423a.73.73 0 0 0-.268.589l-.086.663-.018.002zM13.01 17.4c-.2.383-.381.791-.554 1.18a9 9 0 0 1-.185.401c.003-.297.068-.59.193-.861a1.7 1.7 0 0 1 .547-.71zm.933.472a4.2 4.2 0 0 1-.81 1.223 2.2 2.2 0 0 1 .81-1.223m.683.798a2.46 2.46 0 0 1-.776.974c.136-.406.41-.75.776-.973m.264 1.196a1.83 1.83 0 0 1-.736.777 1.36 1.36 0 0 1 .737-.777m.001 1.183a1.5 1.5 0 0 1-.792.69c.172-.319.454-.563.792-.69m-3.112-3.038c.004.332-.099.657-.292.926a1.1 1.1 0 0 1 .293-.926M7.195 26.53c-.615.172-1.155-.297-1.742-.356-.275-.034-.604.073-.686.349-.081.275.26.4.488.387a.82.82 0 0 0 .483-.207q.226-.193.39-.44a1.16 1.16 0 0 1-.54.746.7.7 0 0 1-.924-.186.43.43 0 0 1 .187-.605c.382-.194.81-.113 1.21-.05.391.102.717.323 1.13.334v.018z"/>
  <path fill="#1B1464" d="M4.777 26.366q.105.104.22.195a.19.19 0 0 0 .268.063.74.74 0 0 0 .29-.478h.02c.209.195-.007.593-.283.574q-.19 0-.377-.03a.28.28 0 0 1-.157-.328h.017z"/>
  <path fill="#FFA202" d="M14.848 14.968q-.314.812-.74 1.571a2.43 2.43 0 0 1 .74-1.57m-1.215.565c-.069.336-.19.66-.36.958a.95.95 0 0 1 .36-.958m1.971.187c-.12.442-.364.841-.703 1.15.12-.442.364-.84.703-1.15m.553.929a1.37 1.37 0 0 1-.684.908 2.4 2.4 0 0 1 .684-.907m-.25 1.756c.15-.298.381-.548.666-.723a1.05 1.05 0 0 1-.666.723m.873.383a1.13 1.13 0 0 1-.69.594 1.12 1.12 0 0 1 .69-.593m.079 1.019a.97.97 0 0 1-.69.59c.155-.271.398-.48.69-.593zm-.085 1.224a.83.83 0 0 1-.725.485 1.42 1.42 0 0 1 .725-.485m-.861-7.922c-.104.398-.28.774-.521 1.108a1.46 1.46 0 0 1 .521-1.109m-.816.207c-.037.297-.142.58-.309.829a.78.78 0 0 1 .31-.829m-.693.57a.38.38 0 0 1-.133.459.31.31 0 0 1 .125-.458zm2.16-.092a1.1 1.1 0 0 1-.479.749 1.1 1.1 0 0 1 .479-.75m.323.908a.42.42 0 0 1-.294.448.42.42 0 0 1 .294-.448"/>
  <path fill="#1B1464" d="M15.425 9.233c1.01.623 1.065 2.044.752 3.08-.052.15-.103.302-.163.449.048-.315.102-.631.13-.937.083-.907-.025-1.925-.719-2.588z"/>
  <path fill="#1B1464" d="M18.728 10.057c-1.676.19-2.225 1.404-2.583 2.155.109-.84 1.222-2.404 2.582-2.155"/>
  <path fill="#6B1100" d="M15.982 9.94c.36-.729 1.66-.575 1.666.302-.274-.68-1.134-.756-1.666-.301"/>
  <path fill="#1B1464" d="M16.82 10.073a9.8 9.8 0 0 1-.622 2.12c.041-.745.254-1.47.622-2.12"/>
  <path fill="#FFAE00" d="M9.9 26.838a1.4 1.4 0 0 1 1.005-.151 1.4 1.4 0 0 1-1.006.151m.093.702a1.4 1.4 0 0 1 1.006-.15 1.4 1.4 0 0 1-1.006.15m-.584-1.323a1.36 1.36 0 0 1 .984-.196 1.36 1.36 0 0 1-.984.196m-.615-.5a.85.85 0 0 1 .745-.222.83.83 0 0 1-.745.222m.714 3.105c.335-.11.694-.127 1.038-.051a1.17 1.17 0 0 1-1.038.051m.318-.646a2.2 2.2 0 0 1 1.093-.038 1.3 1.3 0 0 1-1.093.038"/>
  <path fill="#F08800" d="M8.695 21.916a.31.31 0 0 1-.141.426.31.31 0 0 1 .141-.426m-.258-.594a.31.31 0 0 1-.142.425.306.306 0 0 1 .142-.425m-.327-.621a.31.31 0 0 1-.142.426.307.307 0 0 1 .142-.426m-.413-.601a.31.31 0 0 1-.14.426.31.31 0 0 1 .14-.425m-.469-.581a.31.31 0 0 1-.142.426.31.31 0 0 1 .142-.426m-.526-.6a.306.306 0 0 1-.14.426.306.306 0 0 1 .14-.425m-.664-.666a.34.34 0 0 1-.085.46.34.34 0 0 1 .085-.466zm-.773-.639a.35.35 0 0 1-.026.482.35.35 0 0 1 .026-.482m-.706-.449a.31.31 0 0 1-.005.446.31.31 0 0 1 .005-.446m-.713-.458a.36.36 0 0 1-.004.49.363.363 0 0 1 .004-.49m-.759-.289a.37.37 0 0 1 .03.496.37.37 0 0 1-.03-.495m13.824 9.451a.42.42 0 0 1 .464-.263.42.42 0 0 1-.464.263m-.733-.462a.416.416 0 0 1 .464-.266.42.42 0 0 1-.464.266m-.74-.331a.32.32 0 0 1 .368-.27.323.323 0 0 1-.368.27m-.698-.184a.314.314 0 0 1 .287-.347.314.314 0 0 1-.286.347m-.685-.125a.275.275 0 0 1 .133-.303.3.3 0 0 1 .112-.034.274.274 0 0 1-.245.336m-.573-.043a.192.192 0 0 1 .127-.304.19.19 0 0 1-.127.304m-.559.014a.176.176 0 0 1-.009-.257.2.2 0 0 1 .083-.047.177.177 0 0 1-.074.305m4.613 1.588a.416.416 0 0 1 .464-.266.416.416 0 0 1-.464.266m.528.539a.42.42 0 0 1 .478-.237.416.416 0 0 1-.478.237m.435.549a.42.42 0 0 1 .486-.212.416.416 0 0 1-.486.212m.355.635a.46.46 0 0 1 .542-.136.45.45 0 0 1-.542.136m.329.687a.4.4 0 0 1 .513-.079.4.4 0 0 1-.513.079m.216.666a.39.39 0 0 1 .51-.03.39.39 0 0 1-.51.03m.175.806a.346.346 0 0 1 .478.028.35.35 0 0 1-.478-.028"/>
</svg>
