<svg xmlns="http://www.w3.org/2000/svg" width="34" height="32" fill="none" viewBox="0 0 34 32">
  <path fill="#F7E54C" stroke="#FEF9CB" d="m33.19 5.118-.678 2.042c-.21 4.003-3.745 7.314-5.487 8.47.56 9.28-7.275 14.89-8.16 15.45-.706.45-.644.035-.524-.228 4.206-4.38 4.147-11.056 3.592-13.848-4.207.814-9.588-4.509-12.775-5.524s-7.47-3.772-7.894-4.084-.933-1.545.159-.626c1.091.92 6.679 2.605 7.404 2.67.58.052.39-.21.22-.346-1.616-1.15-5.056-4.928-5.098-5.39-.042-.46 3.719 2.89 8.526 5.878 3.845 2.39 7.007 2.39 8.107 2.092 1.756-4.414-6.523-9.172-7.19-9.78s-.347-1.036.077-.724 1.837.803 6.135 2.557c3.439 1.402 5.493 4.845 6.09 6.391.745-.116 1.545-1.599 2.588-2.786s1.707-1.402 2.332-1.255c.5.118.88.048 1.007-.001a5.5 5.5 0 0 0 1.205-.99c.418-.475.416-.176.363.032Z"/>
</svg>
