<svg xmlns="http://www.w3.org/2000/svg" width="395" height="115" fill="none" viewBox="0 0 395 115">
  <path fill="#fff" stroke="#00D264" stroke-linejoin="round" stroke-width="1.053" d="M63.15 30.447c-.658-10.138-19.61-10.371-20.971-1.3-6.25-5.888-21.563-7.202-31.986 5.552-8.552 10.465-3.914 33.01 10.197 32.05 24.011-1.635 46.9 3.589 51.64 11.446 5.921 9.811 12.171 13.082 19.079 13.082h32.563c11.184 0 16.775-1.963 6.579-2.617-14.144 0-17.644-7.941-24.67-14.39-8.552-7.848-19.078-3.924-18.749-11.446s-9.21-13.735-16.446-12.427-11.183-2.616-11.183-5.56c0-5.681 5.591-5.232 4.605-3.924-1.645.327-3.618 3.177 0 5.466 4.276 2.706 10.854-.104 10.854-6.774 0-6.214-5.273-10.459-11.512-9.158Z"/>
  <path fill="#fff" stroke="#00D264" stroke-linejoin="round" stroke-width="1.053" d="M153.746 103.8H54.881c11.242-42.976 81.238-48.841 98.865 0Z"/>
  <path fill="#fff" stroke="#00D264" stroke-linejoin="round" stroke-width="1.053" d="M144.676 100.171H70.3c8.458-31.667 61.115-35.988 74.376 0Z"/>
  <path fill="#fff" stroke="#00D264" stroke-linejoin="round" stroke-width="1.053" d="M141.957 100.171H77.559c7.323-27.143 52.916-30.847 64.398 0Z"/>
  <path fill="#fff" stroke="#00D264" stroke-linejoin="round" stroke-width="1.053" d="M18.152 42.298c0-5.308 3.896-6.327 6.201-6.216 1.508 0 1.055-1.618-.306-1.618-3.174-.329-10.05 1.789-9.07 9.195 1.196 9.026 10.654 13.859 26.757 5.895 7.754-3.834 25.85 4.99 21.47 18.337 15.804-4.97 26.67 7.513 26.67 16.899 0 8.28 21.071 6.626 21.071 6.626-2.304 3.314-24.414 23.924-41.485 22.739-22.26-1.544-52.464.668-74.74-2.982-21.73-3.56-28.973-48.584-29.96-58.855l-.005-.043c-.993-10.325-4.312-44.837 25.28-50.792 23.705-4.772 31.248 10.815 29.93 16.78 23.707-6.959 28.119 19.5 18.141 27.21-7.594 5.868-19.954 4.081-19.954-3.175Z"/>
  <path stroke="#00D264" stroke-linecap="round" stroke-width="1.053" d="M5.448 31.414c1.814-6.35 9.524-11.792 14.966-13.152"/>
  <path stroke="#00D264" stroke-width="1.053" d="M63.5 61.346c.907 4.988-.635 8.344-4.988 10.884-5.442 3.175-10.431.907-11.338-2.721"/>
  <path fill="#fff" stroke="#00D264" stroke-linejoin="round" stroke-width="1.053" d="M332.838 30.447c.658-10.138 19.611-10.371 20.971-1.3 6.25-5.888 21.564-7.202 31.986 5.552 8.552 10.465 3.914 33.01-10.196 32.05-24.012-1.635-46.9 3.589-51.642 11.446-5.92 9.811-12.17 13.082-19.077 13.082h-32.564c-11.183 0-16.775-1.963-6.578-2.617 14.144 0 17.643-7.941 24.669-14.39 8.552-7.848 19.078-3.924 18.749-11.446s9.21-13.735 16.446-12.427 11.183-2.616 11.183-5.56c0-5.681-5.591-5.232-4.604-3.924 1.644.327 3.618 3.177 0 5.466-4.276 2.706-10.855-.104-10.855-6.774 0-6.214 5.273-10.459 11.512-9.158Z"/>
  <path fill="#fff" stroke="#00D264" stroke-linejoin="round" stroke-width="1.053" d="M242.242 102.747h98.865c-11.242-42.976-81.238-48.841-98.865 0Z"/>
  <path fill="#fff" stroke="#00D264" stroke-linejoin="round" stroke-width="1.053" d="M251.312 99.118h74.376c-8.458-31.666-61.115-35.988-74.376 0Z"/>
  <path fill="#fff" stroke="#00D264" stroke-linejoin="round" stroke-width="1.053" d="M254.031 99.118h64.398c-7.322-27.143-52.916-30.847-64.398 0Z"/>
  <path fill="#fff" stroke="#00D264" stroke-linejoin="round" stroke-width="1.053" d="M377.836 42.298c0-5.308-3.896-6.327-6.201-6.216-1.508 0-1.055-1.618.306-1.618 3.174-.329 10.051 1.789 9.07 9.195-1.196 9.026-10.654 13.859-26.757 5.895-7.754-3.834-25.85 4.99-21.47 18.337-15.804-4.97-26.669 7.513-26.669 16.899 0 8.28-21.072 6.626-21.072 6.626 2.305 3.314 24.414 23.924 41.485 22.739 22.26-1.544 52.464.668 74.739-2.982 21.731-3.56 28.974-48.584 29.962-58.855l.004-.043c.993-10.325 4.312-44.837-25.279-50.792-23.706-4.772-31.249 10.815-29.932 16.78-23.705-6.959-28.117 19.5-18.14 27.21 7.594 5.868 19.954 4.081 19.954-3.175Z"/>
  <path stroke="#00D264" stroke-linecap="round" stroke-width="1.053" d="M390.54 31.414c-1.814-6.35-9.524-11.792-14.966-13.152"/>
  <path stroke="#00D264" stroke-width="1.053" d="M332.488 61.346c-.907 4.988.635 8.344 4.989 10.884 5.442 3.175 10.43.907 11.337-2.721"/>
  <path stroke="#00813D" stroke-linejoin="round" stroke-width="1.149" d="M344.956 74.601c-7.111-2.932-15.196-.38-21.556 5.081-6.729 5.777-11.662 14.905-11.662 24.651 0 .317.257.574.574.574h107.965a.574.574 0 0 0 .575-.574V17.806c0-.186-.09-.36-.241-.468-2.839-2.028-6.933-3.08-11.405-3.113-4.483-.032-9.401.957-13.929 3.073-8.904 4.162-16.314 12.695-15.9 26.333-4.675-1.213-9.794.418-13.245 3.584-3.27 3-5.099 7.437-3.625 12.218-3.782-1.977-8.669-.828-12.314 1.92-3.902 2.942-6.608 7.871-5.237 13.248Z"/>
  <mask id="a" width="109" height="91" x="312" y="14" maskUnits="userSpaceOnUse" style="mask-type:alpha">
    <path fill="#3A56FF" d="M379.984 44.41c-1.446-27.689 29.445-34.353 40.293-26.604v86.527H312.312c0-19.114 19.372-35.902 33.578-28.67-4.133-11.107 10.59-20.922 17.822-14.723-4.908-10.331 6.974-19.63 16.272-16.53"/>
  </mask>
  <g mask="url(#a)">
    <path fill="#00D264" d="M379.984 44.41c-1.446-27.689 29.445-34.353 40.293-26.604v86.527H312.312c0-19.114 19.372-35.902 33.578-28.67-4.133-11.107 10.59-20.922 17.822-14.723-4.908-10.331 6.974-19.63 16.272-16.53"/>
    <circle cx="382.95" cy="59.868" r="7.948" fill="#00D264" transform="rotate(-180 382.95 59.868)"/>
    <path fill="#01B85D" d="M390.898 59.986h-.118a7.95 7.95 0 0 1-7.949-7.948l.001-.118h.118a7.95 7.95 0 0 1 7.948 7.948v.117Zm0 .001h-.118a7.95 7.95 0 0 0-7.948 7.828l.118.001a7.95 7.95 0 0 0 7.948-7.829m-8.067 7.828a7.95 7.95 0 0 0-7.828-7.828 7.95 7.95 0 0 0 7.828 7.828m-7.828-7.829a7.95 7.95 0 0 0 7.828-7.948v-.118a7.95 7.95 0 0 0-7.828 8.066"/>
    <circle cx="382.95" cy="43.794" r="7.948" fill="#00D264" transform="rotate(-180 382.95 43.794)"/>
    <path fill="#01B85D" d="M390.898 43.912h-.118a7.95 7.95 0 0 1-7.949-7.948l.001-.117.118-.001a7.95 7.95 0 0 1 7.948 7.948zm0 .001h-.118a7.95 7.95 0 0 0-7.948 7.829h.118a7.95 7.95 0 0 0 7.948-7.828Zm-8.067 7.828a7.95 7.95 0 0 0-7.828-7.828 7.95 7.95 0 0 0 7.828 7.828m-7.828-7.829a7.95 7.95 0 0 0 7.828-7.948v-.117a7.95 7.95 0 0 0-7.828 8.065"/>
    <circle cx="382.95" cy="27.717" r="7.948" fill="#00D264" transform="rotate(-180 382.95 27.717)"/>
    <path fill="#01B85D" d="m390.898 27.835-.118.001a7.95 7.95 0 0 1-7.949-7.948l.001-.118.118-.001a7.95 7.95 0 0 1 7.948 7.948z"/>
    <path fill="#01B85D" d="m390.898 27.837-.118-.001a7.95 7.95 0 0 0-7.948 7.829h.118a7.95 7.95 0 0 0 7.948-7.828m-8.067 7.828a7.95 7.95 0 0 0-7.828-7.828 7.95 7.95 0 0 0 7.828 7.828m-7.828-7.83a7.95 7.95 0 0 0 7.828-7.947v-.118a7.95 7.95 0 0 0-7.828 8.065"/>
    <circle cx="382.95" cy="11.644" r="7.948" fill="#00D264" transform="rotate(-180 382.95 11.644)"/>
    <path fill="#01B85D" d="M390.898 11.762h-.118a7.95 7.95 0 0 1-7.949-7.948l.001-.117.118-.001a7.95 7.95 0 0 1 7.948 7.948zm0 .002-.118-.001a7.95 7.95 0 0 0-7.948 7.829h.118a7.95 7.95 0 0 0 7.948-7.828m-8.067 7.827a7.95 7.95 0 0 0-7.828-7.827 7.95 7.95 0 0 0 7.828 7.828Zm-7.828-7.829a7.95 7.95 0 0 0 7.828-7.948v-.117a7.95 7.95 0 0 0-7.828 8.065"/>
    <circle cx="382.95" cy="75.765" r="7.948" fill="#00D264" transform="rotate(-180 382.95 75.765)"/>
    <path fill="#01B85D" d="m390.898 75.882-.118.001a7.95 7.95 0 0 1-7.949-7.948l.001-.118h.118a7.95 7.95 0 0 1 7.948 7.948zm0 .002h-.118a7.95 7.95 0 0 0-7.948 7.828l.118.001a7.95 7.95 0 0 0 7.948-7.829m-8.067 7.828a7.95 7.95 0 0 0-7.828-7.828 7.95 7.95 0 0 0 7.828 7.828m-7.828-7.83a7.95 7.95 0 0 0 7.828-7.947v-.118a7.95 7.95 0 0 0-7.828 8.066Z"/>
    <circle cx="382.95" cy="91.662" r="7.948" fill="#00D264" transform="rotate(-180 382.95 91.662)"/>
    <path fill="#01B85D" d="M390.898 91.78h-.118a7.95 7.95 0 0 1-7.949-7.948l.001-.117.118-.001a7.95 7.95 0 0 1 7.948 7.948zm0 .002-.118-.001a7.95 7.95 0 0 0-7.948 7.829h.118a7.95 7.95 0 0 0 7.948-7.828m-8.067 7.828a7.95 7.95 0 0 0-7.828-7.828 7.95 7.95 0 0 0 7.828 7.828m-7.828-7.83a7.95 7.95 0 0 0 7.828-7.948v-.117a7.95 7.95 0 0 0-7.828 8.065"/>
    <circle cx="382.95" cy="107.559" r="7.948" fill="#00D264" transform="rotate(-180 382.95 107.559)"/>
    <path fill="#01B85D" d="m390.898 107.677-.118.001a7.95 7.95 0 0 1-7.949-7.948l.001-.118.118-.001a7.95 7.95 0 0 1 7.948 7.948z"/>
    <path fill="#01B85D" d="m390.898 107.679-.118-.001a7.95 7.95 0 0 0-7.948 7.829h.118a7.95 7.95 0 0 0 7.948-7.828m-8.067 7.828a7.95 7.95 0 0 0-7.828-7.828 7.95 7.95 0 0 0 7.828 7.828m-7.828-7.83a7.95 7.95 0 0 0 7.828-7.948v-.117a7.95 7.95 0 0 0-7.828 8.065"/>
    <circle cx="367.056" cy="59.868" r="7.948" fill="#00D264" transform="rotate(-180 367.056 59.868)"/>
    <path fill="#01B85D" d="M375.003 59.986h-.118a7.95 7.95 0 0 1-7.948-7.948l.001-.118h.118a7.95 7.95 0 0 1 7.948 7.948l-.001.117Zm0 .001h-.118a7.95 7.95 0 0 0-7.947 7.828l.118.001a7.95 7.95 0 0 0 7.947-7.829m-8.067 7.828a7.95 7.95 0 0 0-7.828-7.828 7.95 7.95 0 0 0 7.828 7.828m-7.828-7.829a7.95 7.95 0 0 0 7.829-7.948l-.001-.118a7.95 7.95 0 0 0-7.829 7.948l.001.117Z"/>
    <circle cx="367.056" cy="43.794" r="7.948" fill="#00D264" transform="rotate(-180 367.056 43.794)"/>
    <path fill="#01B85D" d="M375.003 43.912h-.118a7.95 7.95 0 0 1-7.948-7.948l.001-.117.118-.001a7.95 7.95 0 0 1 7.948 7.948zm0 .001h-.118a7.95 7.95 0 0 0-7.947 7.829h.118a7.95 7.95 0 0 0 7.947-7.828Zm-8.067 7.828a7.95 7.95 0 0 0-7.828-7.828 7.95 7.95 0 0 0 7.828 7.828m-7.828-7.829a7.95 7.95 0 0 0 7.829-7.948l-.001-.117a7.95 7.95 0 0 0-7.829 7.947z"/>
    <circle cx="367.056" cy="27.717" r="7.948" fill="#00D264" transform="rotate(-180 367.056 27.717)"/>
    <path fill="#01B85D" d="m375.003 27.835-.118.001a7.95 7.95 0 0 1-7.947-8.066l.118-.001a7.95 7.95 0 0 1 7.948 7.948z"/>
    <path fill="#01B85D" d="m375.003 27.837-.118-.001a7.95 7.95 0 0 0-7.947 7.829h.118a7.95 7.95 0 0 0 7.947-7.828m-8.067 7.828a7.95 7.95 0 0 0-7.828-7.828 7.95 7.95 0 0 0 7.828 7.828m-7.828-7.83a7.95 7.95 0 0 0 7.829-7.947l-.001-.118a7.95 7.95 0 0 0-7.829 7.947z"/>
    <circle cx="367.056" cy="11.645" r="7.948" fill="#00D264" transform="rotate(-180 367.056 11.645)"/>
    <path fill="#01B85D" d="M375.003 11.763h-.118a7.95 7.95 0 0 1-7.948-7.948l.001-.117.118-.001a7.95 7.95 0 0 1 7.948 7.948zm0 .002-.118-.001a7.95 7.95 0 0 0-7.947 7.829h.118a7.95 7.95 0 0 0 7.947-7.828m-8.067 7.828a7.95 7.95 0 0 0-7.828-7.828 7.95 7.95 0 0 0 7.828 7.828m-7.828-7.83a7.95 7.95 0 0 0 7.829-7.948l-.001-.117a7.95 7.95 0 0 0-7.829 7.947z"/>
    <circle cx="319.364" cy="59.868" r="7.948" fill="#00D264" transform="rotate(-180 319.364 59.868)"/>
    <path fill="#01B85D" d="M327.312 59.986h-.118a7.95 7.95 0 0 1-7.948-7.948v-.118h.118a7.95 7.95 0 0 1 7.949 7.948l-.001.117Zm0 .001h-.118a7.95 7.95 0 0 0-7.948 7.828l.118.001a7.95 7.95 0 0 0 7.948-7.829m-8.067 7.828a7.95 7.95 0 0 0-7.828-7.828 7.95 7.95 0 0 0 7.828 7.828m-7.828-7.829a7.95 7.95 0 0 0 7.829-7.948l-.001-.118a7.95 7.95 0 0 0-7.828 8.066"/>
    <circle cx="367.056" cy="75.765" r="7.948" fill="#00D264" transform="rotate(-180 367.056 75.765)"/>
    <path fill="#01B85D" d="m375.003 75.882-.118.001a7.95 7.95 0 0 1-7.948-7.948l.001-.118h.118a7.95 7.95 0 0 1 7.948 7.948zm0 .002h-.118a7.95 7.95 0 0 0-7.947 7.828l.118.001a7.95 7.95 0 0 0 7.947-7.829m-8.067 7.828a7.95 7.95 0 0 0-7.828-7.828 7.95 7.95 0 0 0 7.828 7.828m-7.828-7.83a7.95 7.95 0 0 0 7.829-7.947l-.001-.118a7.95 7.95 0 0 0-7.829 7.948z"/>
    <circle cx="319.364" cy="75.765" r="7.948" fill="#00D264" transform="rotate(-180 319.364 75.765)"/>
    <path fill="#01B85D" d="m327.312 75.882-.118.001a7.95 7.95 0 0 1-7.948-7.948v-.118h.118a7.95 7.95 0 0 1 7.949 7.948zm0 .002h-.118a7.95 7.95 0 0 0-7.948 7.828l.118.001a7.95 7.95 0 0 0 7.948-7.829m-8.067 7.828a7.95 7.95 0 0 0-7.828-7.828 7.95 7.95 0 0 0 7.828 7.828m-7.828-7.83a7.95 7.95 0 0 0 7.829-7.947l-.001-.118a7.95 7.95 0 0 0-7.828 8.066Z"/>
    <circle cx="367.056" cy="91.662" r="7.948" fill="#00D264" transform="rotate(-180 367.056 91.662)"/>
    <path fill="#01B85D" d="M375.003 91.78h-.118a7.95 7.95 0 0 1-7.948-7.948l.001-.117.118-.001a7.95 7.95 0 0 1 7.948 7.948zm0 .002-.118-.001a7.95 7.95 0 0 0-7.947 7.829h.118a7.95 7.95 0 0 0 7.947-7.828m-8.067 7.828a7.95 7.95 0 0 0-7.828-7.828 7.95 7.95 0 0 0 7.828 7.828m-7.828-7.83a7.95 7.95 0 0 0 7.829-7.948l-.001-.117a7.95 7.95 0 0 0-7.829 7.947z"/>
    <circle cx="319.364" cy="91.662" r="7.948" fill="#00D264" transform="rotate(-180 319.364 91.662)"/>
    <path fill="#01B85D" d="M327.312 91.78h-.118a7.95 7.95 0 0 1-7.948-7.948v-.117l.118-.001a7.95 7.95 0 0 1 7.949 7.948zm0 .002-.118-.001a7.95 7.95 0 0 0-7.948 7.829h.118a7.95 7.95 0 0 0 7.948-7.828m-8.067 7.828a7.95 7.95 0 0 0-7.828-7.828 7.95 7.95 0 0 0 7.828 7.828m-7.828-7.83a7.95 7.95 0 0 0 7.829-7.948l-.001-.117a7.95 7.95 0 0 0-7.828 8.065"/>
    <circle cx="367.056" cy="107.559" r="7.948" fill="#00D264" transform="rotate(-180 367.056 107.559)"/>
    <path fill="#01B85D" d="m375.003 107.677-.118.001a7.95 7.95 0 0 1-7.948-7.948l.001-.118.118-.001a7.95 7.95 0 0 1 7.948 7.948z"/>
    <path fill="#01B85D" d="m375.003 107.679-.118-.001a7.95 7.95 0 0 0-7.947 7.829h.118a7.95 7.95 0 0 0 7.947-7.828m-8.067 7.828a7.95 7.95 0 0 0-7.828-7.828 7.95 7.95 0 0 0 7.828 7.828m-7.828-7.83a7.95 7.95 0 0 0 7.829-7.948l-.001-.117a7.95 7.95 0 0 0-7.829 7.947z"/>
    <circle cx="319.364" cy="107.559" r="7.948" fill="#00D264" transform="rotate(-180 319.364 107.559)"/>
    <path fill="#01B85D" d="m327.312 107.677-.118.001a7.95 7.95 0 0 1-7.948-7.948v-.118l.118-.001a7.95 7.95 0 0 1 7.949 7.948z"/>
    <path fill="#01B85D" d="m327.312 107.679-.118-.001a7.95 7.95 0 0 0-7.948 7.829h.118a7.95 7.95 0 0 0 7.948-7.828m-8.067 7.828a7.95 7.95 0 0 0-7.828-7.828 7.95 7.95 0 0 0 7.828 7.828m-7.828-7.83a7.95 7.95 0 0 0 7.829-7.948l-.001-.117a7.95 7.95 0 0 0-7.828 8.065"/>
    <circle cx="351.157" cy="59.868" r="7.948" fill="#00D264" transform="rotate(-180 351.157 59.868)"/>
    <path fill="#01B85D" d="M359.105 59.986h-.118a7.95 7.95 0 0 1-7.948-7.948v-.118h.118a7.95 7.95 0 0 1 7.948 7.948v.117Zm0 .001h-.118a7.95 7.95 0 0 0-7.948 7.828l.118.001a7.95 7.95 0 0 0 7.948-7.829m-8.067 7.828a7.95 7.95 0 0 0-7.828-7.828 7.95 7.95 0 0 0 7.828 7.828m-7.828-7.829a7.95 7.95 0 0 0 7.829-7.948l-.001-.118a7.95 7.95 0 0 0-7.828 8.066"/>
    <circle cx="351.157" cy="43.794" r="7.948" fill="#00D264" transform="rotate(-180 351.157 43.794)"/>
    <path fill="#01B85D" d="M359.105 43.912h-.118a7.95 7.95 0 0 1-7.948-7.948v-.117l.118-.001a7.95 7.95 0 0 1 7.948 7.948zm0 .001h-.118a7.95 7.95 0 0 0-7.948 7.829h.118a7.95 7.95 0 0 0 7.948-7.828Zm-8.067 7.828a7.95 7.95 0 0 0-7.828-7.828 7.95 7.95 0 0 0 7.828 7.828m-7.828-7.829a7.95 7.95 0 0 0 7.829-7.948l-.001-.117a7.95 7.95 0 0 0-7.828 8.065"/>
    <circle cx="351.157" cy="27.717" r="7.948" fill="#00D264" transform="rotate(-180 351.157 27.717)"/>
    <path fill="#01B85D" d="m359.105 27.835-.118.001a7.95 7.95 0 0 1-7.948-7.948v-.118l.118-.001a7.95 7.95 0 0 1 7.948 7.948z"/>
    <path fill="#01B85D" d="m359.105 27.837-.118-.001a7.95 7.95 0 0 0-7.948 7.829h.118a7.95 7.95 0 0 0 7.948-7.828m-8.067 7.828a7.95 7.95 0 0 0-7.828-7.828 7.95 7.95 0 0 0 7.828 7.828m-7.828-7.83a7.95 7.95 0 0 0 7.829-7.947l-.001-.118a7.95 7.95 0 0 0-7.828 8.065"/>
    <circle cx="351.157" cy="11.644" r="7.948" fill="#00D264" transform="rotate(-180 351.157 11.644)"/>
    <path fill="#01B85D" d="M359.105 11.762h-.118a7.95 7.95 0 0 1-7.948-7.948v-.117l.118-.001a7.95 7.95 0 0 1 7.948 7.948zm0 .002-.118-.001a7.95 7.95 0 0 0-7.948 7.829h.118a7.95 7.95 0 0 0 7.948-7.828m-8.067 7.827a7.95 7.95 0 0 0-7.828-7.827 7.95 7.95 0 0 0 7.828 7.828Zm-7.828-7.829a7.95 7.95 0 0 0 7.829-7.948l-.001-.117a7.95 7.95 0 0 0-7.828 8.065"/>
    <circle cx="351.157" cy="75.765" r="7.948" fill="#00D264" transform="rotate(-180 351.157 75.765)"/>
    <path fill="#01B85D" d="m359.105 75.882-.118.001a7.95 7.95 0 0 1-7.948-7.948v-.118h.118a7.95 7.95 0 0 1 7.948 7.948zm0 .002h-.118a7.95 7.95 0 0 0-7.948 7.828l.118.001a7.95 7.95 0 0 0 7.948-7.829m-8.067 7.828a7.95 7.95 0 0 0-7.828-7.828 7.95 7.95 0 0 0 7.828 7.828m-7.828-7.83a7.95 7.95 0 0 0 7.829-7.947l-.001-.118a7.95 7.95 0 0 0-7.828 8.066Z"/>
    <circle cx="351.157" cy="91.662" r="7.948" fill="#00D264" transform="rotate(-180 351.157 91.662)"/>
    <path fill="#01B85D" d="M359.105 91.78h-.118a7.95 7.95 0 0 1-7.948-7.948v-.117l.118-.001a7.95 7.95 0 0 1 7.948 7.948zm0 .002-.118-.001a7.95 7.95 0 0 0-7.948 7.829h.118a7.95 7.95 0 0 0 7.948-7.828m-8.067 7.828a7.95 7.95 0 0 0-7.828-7.828 7.95 7.95 0 0 0 7.828 7.828m-7.828-7.83a7.95 7.95 0 0 0 7.829-7.948l-.001-.117a7.95 7.95 0 0 0-7.828 8.065"/>
    <circle cx="351.157" cy="107.559" r="7.948" fill="#00D264" transform="rotate(-180 351.157 107.559)"/>
    <path fill="#01B85D" d="m359.105 107.677-.118.001a7.95 7.95 0 0 1-7.948-7.948v-.118l.118-.001a7.95 7.95 0 0 1 7.948 7.948z"/>
    <path fill="#01B85D" d="m359.105 107.679-.118-.001a7.95 7.95 0 0 0-7.948 7.829h.118a7.95 7.95 0 0 0 7.948-7.828m-8.067 7.828a7.95 7.95 0 0 0-7.828-7.828 7.95 7.95 0 0 0 7.828 7.828m-7.828-7.83a7.95 7.95 0 0 0 7.829-7.948l-.001-.117a7.95 7.95 0 0 0-7.828 8.065"/>
    <circle cx="398.849" cy="59.868" r="7.948" fill="#00D264" transform="rotate(-180 398.849 59.868)"/>
    <path fill="#01B85D" d="M406.796 59.986h-.118a7.95 7.95 0 0 1-7.948-7.948l.001-.118h.118a7.95 7.95 0 0 1 7.948 7.948l-.001.117Zm0 .001h-.118a7.95 7.95 0 0 0-7.947 7.828l.118.001a7.95 7.95 0 0 0 7.947-7.829m-8.067 7.828a7.95 7.95 0 0 0-7.828-7.828 7.95 7.95 0 0 0 7.828 7.828m-7.828-7.829a7.95 7.95 0 0 0 7.829-7.948l-.001-.118a7.95 7.95 0 0 0-7.829 7.948l.001.117Z"/>
    <circle cx="398.849" cy="43.794" r="7.948" fill="#00D264" transform="rotate(-180 398.849 43.794)"/>
    <path fill="#01B85D" d="M406.796 43.912h-.118a7.95 7.95 0 0 1-7.948-7.948l.001-.117.118-.001a7.95 7.95 0 0 1 7.948 7.948zm0 .001h-.118a7.95 7.95 0 0 0-7.947 7.829h.118a7.95 7.95 0 0 0 7.947-7.828Zm-8.067 7.828a7.95 7.95 0 0 0-7.828-7.828 7.95 7.95 0 0 0 7.828 7.828m-7.828-7.829a7.95 7.95 0 0 0 7.829-7.948l-.001-.117a7.95 7.95 0 0 0-7.829 7.947z"/>
    <circle cx="398.849" cy="27.718" r="7.948" fill="#00D264" transform="rotate(-180 398.849 27.718)"/>
    <path fill="#01B85D" d="M406.796 27.836h-.118a7.95 7.95 0 0 1-7.948-7.947l.001-.118.118-.001a7.95 7.95 0 0 1 7.948 7.948zm0 .002-.118-.001a7.95 7.95 0 0 0-7.947 7.829h.118a7.95 7.95 0 0 0 7.947-7.828m-8.067 7.828a7.95 7.95 0 0 0-7.828-7.828 7.95 7.95 0 0 0 7.828 7.828m-7.828-7.83a7.95 7.95 0 0 0 7.829-7.947l-.001-.118a7.95 7.95 0 0 0-7.829 7.947z"/>
    <circle cx="398.849" cy="11.645" r="7.948" fill="#00D264" transform="rotate(-180 398.849 11.645)"/>
    <path fill="#01B85D" d="M406.796 11.763h-.118a7.95 7.95 0 0 1-7.948-7.948l.001-.117.118-.001a7.95 7.95 0 0 1 7.948 7.948zm0 .002-.118-.001a7.95 7.95 0 0 0-7.947 7.829h.118a7.95 7.95 0 0 0 7.947-7.828m-8.067 7.828a7.95 7.95 0 0 0-7.828-7.828 7.95 7.95 0 0 0 7.828 7.828m-7.828-7.83a7.95 7.95 0 0 0 7.829-7.948l-.001-.117a7.95 7.95 0 0 0-7.829 7.947z"/>
    <circle cx="398.849" cy="75.765" r="7.948" fill="#00D264" transform="rotate(-180 398.849 75.765)"/>
    <path fill="#01B85D" d="m406.796 75.882-.118.001a7.95 7.95 0 0 1-7.948-7.948l.001-.118h.118a7.95 7.95 0 0 1 7.948 7.948zm0 .002h-.118a7.95 7.95 0 0 0-7.947 7.828l.118.001a7.95 7.95 0 0 0 7.947-7.829m-8.067 7.828a7.95 7.95 0 0 0-7.828-7.828 7.95 7.95 0 0 0 7.828 7.828m-7.828-7.83a7.95 7.95 0 0 0 7.829-7.947l-.001-.118a7.95 7.95 0 0 0-7.829 7.948z"/>
    <circle cx="398.849" cy="91.662" r="7.948" fill="#00D264" transform="rotate(-180 398.849 91.662)"/>
    <path fill="#01B85D" d="M406.796 91.78h-.118a7.95 7.95 0 0 1-7.948-7.948l.001-.117.118-.001a7.95 7.95 0 0 1 7.948 7.948zm0 .002-.118-.001a7.95 7.95 0 0 0-7.947 7.829h.118a7.95 7.95 0 0 0 7.947-7.828m-8.067 7.828a7.95 7.95 0 0 0-7.828-7.828 7.95 7.95 0 0 0 7.828 7.828m-7.828-7.83a7.95 7.95 0 0 0 7.829-7.948l-.001-.117a7.95 7.95 0 0 0-7.829 7.947z"/>
    <circle cx="398.849" cy="107.559" r="7.948" fill="#00D264" transform="rotate(-180 398.849 107.559)"/>
    <path fill="#01B85D" d="m406.796 107.677-.118.001a7.95 7.95 0 0 1-7.948-7.948l.001-.118.118-.001a7.95 7.95 0 0 1 7.948 7.948z"/>
    <path fill="#01B85D" d="m406.796 107.679-.118-.001a7.95 7.95 0 0 0-7.947 7.829h.118a7.95 7.95 0 0 0 7.947-7.828m-8.067 7.828a7.95 7.95 0 0 0-7.828-7.828 7.95 7.95 0 0 0 7.828 7.828m-7.828-7.83a7.95 7.95 0 0 0 7.829-7.948l-.001-.117a7.95 7.95 0 0 0-7.829 7.947z"/>
    <circle cx="335.263" cy="59.868" r="7.948" fill="#00D264" transform="rotate(-180 335.263 59.868)"/>
    <path fill="#01B85D" d="M343.21 59.986h-.118a7.95 7.95 0 0 1-7.948-7.948l.001-.118h.118a7.95 7.95 0 0 1 7.948 7.948l-.001.117Zm0 .001h-.118a7.95 7.95 0 0 0-7.947 7.828l.118.001a7.95 7.95 0 0 0 7.947-7.829m-8.067 7.828a7.95 7.95 0 0 0-7.828-7.828 7.95 7.95 0 0 0 7.828 7.828m-7.828-7.829a7.95 7.95 0 0 0 7.829-7.948l-.001-.118a7.95 7.95 0 0 0-7.829 7.948l.001.117Z"/>
    <circle cx="335.263" cy="75.765" r="7.948" fill="#00D264" transform="rotate(-180 335.263 75.765)"/>
    <path fill="#01B85D" d="m343.21 75.882-.118.001a7.95 7.95 0 0 1-7.948-7.948l.001-.118h.118a7.95 7.95 0 0 1 7.948 7.948zm0 .002h-.118a7.95 7.95 0 0 0-7.947 7.828l.118.001a7.95 7.95 0 0 0 7.947-7.829m-8.067 7.828a7.95 7.95 0 0 0-7.828-7.828 7.95 7.95 0 0 0 7.828 7.828m-7.828-7.83a7.95 7.95 0 0 0 7.829-7.947l-.001-.118a7.95 7.95 0 0 0-7.829 7.948z"/>
    <circle cx="335.263" cy="91.662" r="7.948" fill="#00D264" transform="rotate(-180 335.263 91.662)"/>
    <path fill="#01B85D" d="M343.21 91.78h-.118a7.95 7.95 0 0 1-7.948-7.948l.001-.117.118-.001a7.95 7.95 0 0 1 7.948 7.948zm0 .002-.118-.001a7.95 7.95 0 0 0-7.947 7.829h.118a7.95 7.95 0 0 0 7.947-7.828m-8.067 7.828a7.95 7.95 0 0 0-7.828-7.828 7.95 7.95 0 0 0 7.828 7.828m-7.828-7.83a7.95 7.95 0 0 0 7.829-7.948l-.001-.117a7.95 7.95 0 0 0-7.829 7.947z"/>
    <circle cx="335.263" cy="107.559" r="7.948" fill="#00D264" transform="rotate(-180 335.263 107.559)"/>
    <path fill="#01B85D" d="m343.21 107.677-.118.001a7.95 7.95 0 0 1-7.948-7.948l.001-.118.118-.001a7.95 7.95 0 0 1 7.948 7.948z"/>
    <path fill="#01B85D" d="m343.21 107.679-.118-.001a7.95 7.95 0 0 0-7.947 7.829h.118a7.95 7.95 0 0 0 7.947-7.828m-8.067 7.828a7.95 7.95 0 0 0-7.828-7.828 7.95 7.95 0 0 0 7.828 7.828m-7.828-7.83a7.95 7.95 0 0 0 7.829-7.948l-.001-.117a7.95 7.95 0 0 0-7.829 7.947z"/>
  </g>
  <path stroke="#00813D" stroke-linejoin="round" stroke-width="1.149" d="M48.458 73.55c7.111-2.932 15.196-.38 21.556 5.08 6.73 5.778 11.662 14.906 11.662 24.651a.575.575 0 0 1-.574.575H-26.863a.575.575 0 0 1-.575-.575V16.755c0-.186.09-.36.24-.468 2.84-2.028 6.934-3.08 11.406-3.113 4.483-.033 9.4.957 13.93 3.073 8.903 4.161 16.313 12.694 15.9 26.333 4.674-1.213 9.793.417 13.244 3.584 3.27 3 5.1 7.437 3.625 12.218 3.783-1.977 8.67-.828 12.314 1.92 3.902 2.942 6.609 7.871 5.237 13.248Z"/>
  <mask id="b" width="109" height="91" x="-27" y="13" maskUnits="userSpaceOnUse" style="mask-type:alpha">
    <path fill="#3A56FF" d="M13.43 43.358C14.876 15.67-16.015 9.007-26.863 16.755v86.526H81.102c0-19.113-19.372-35.902-33.578-28.67 4.133-11.106-10.59-20.92-17.822-14.722 4.908-10.332-6.974-19.63-16.272-16.53Z"/>
  </mask>
  <g mask="url(#b)">
    <path fill="#00D264" d="M13.43 43.358C14.876 15.67-16.015 9.007-26.863 16.755v86.526H81.102c0-19.113-19.372-35.902-33.578-28.67 4.133-11.106-10.59-20.92-17.822-14.722 4.908-10.332-6.974-19.63-16.272-16.53Z"/>
    <circle cx="7.948" cy="7.948" r="7.948" fill="#00D264" transform="matrix(1 0 0 -1 2.52 66.763)"/>
    <path fill="#01B85D" d="m2.52 58.932.118.001a7.95 7.95 0 0 0 7.948-8.066h-.118a7.95 7.95 0 0 0-7.948 8.065m0 .002h.118a7.95 7.95 0 0 1 7.948 7.828h-.118a7.95 7.95 0 0 1-7.948-7.828m8.067 7.828a7.95 7.95 0 0 1 7.828-7.828 7.95 7.95 0 0 1-7.828 7.828"/>
    <path fill="#01B85D" d="M18.415 58.932a7.95 7.95 0 0 1-7.828-8.065 7.95 7.95 0 0 1 7.828 8.065"/>
    <circle cx="7.948" cy="7.948" r="7.948" fill="#00D264" transform="matrix(1 0 0 -1 2.52 50.69)"/>
    <path fill="#01B85D" d="M2.52 42.859h.118a7.95 7.95 0 0 0 7.948-8.066h-.118a7.95 7.95 0 0 0-7.948 8.066m0 .001h.118a7.95 7.95 0 0 1 7.948 7.828l-.118.001A7.95 7.95 0 0 1 2.52 42.86m8.067 7.828a7.95 7.95 0 0 1 7.828-7.828 7.95 7.95 0 0 1-7.828 7.828"/>
    <path fill="#01B85D" d="M18.415 42.858a7.95 7.95 0 0 1-7.828-8.065 7.95 7.95 0 0 1 7.828 8.066Z"/>
    <circle cx="7.948" cy="7.948" r="7.948" fill="#00D264" transform="matrix(1 0 0 -1 2.52 34.614)"/>
    <path fill="#01B85D" d="M2.52 26.784h.118a7.95 7.95 0 0 0 7.948-8.065l-.118-.001a7.95 7.95 0 0 0-7.948 8.066m0 .002.118-.001a7.95 7.95 0 0 1 7.948 7.829h-.118a7.95 7.95 0 0 1-7.948-7.828m8.067 7.828a7.95 7.95 0 0 1 7.828-7.828 7.95 7.95 0 0 1-7.828 7.828"/>
    <path fill="#01B85D" d="M18.415 26.784a7.95 7.95 0 0 1-7.828-8.065 7.95 7.95 0 0 1 7.828 8.065"/>
    <circle cx="7.948" cy="7.948" r="7.948" fill="#00D264" transform="matrix(1 0 0 -1 2.52 18.54)"/>
    <path fill="#01B85D" d="M2.52 10.709h.118a7.95 7.95 0 0 0 7.948-8.066h-.118a7.95 7.95 0 0 0-7.948 8.066m0 .001h.118a7.95 7.95 0 0 1 7.948 7.828l-.118.001A7.95 7.95 0 0 1 2.52 10.71m8.067 7.828a7.95 7.95 0 0 1 7.828-7.828 7.95 7.95 0 0 1-7.828 7.828"/>
    <path fill="#01B85D" d="M18.415 10.709a7.95 7.95 0 0 1-7.828-8.066 7.95 7.95 0 0 1 7.828 8.066"/>
    <circle cx="7.948" cy="7.948" r="7.948" fill="#00D264" transform="matrix(1 0 0 -1 2.52 82.66)"/>
    <path fill="#01B85D" d="M2.52 74.83h.118a7.95 7.95 0 0 0 7.948-8.066h-.118a7.95 7.95 0 0 0-7.948 8.065Zm0 .001h.118a7.95 7.95 0 0 1 7.948 7.828h-.118a7.95 7.95 0 0 1-7.948-7.828m8.067 7.828a7.95 7.95 0 0 1 7.828-7.828 7.95 7.95 0 0 1-7.828 7.828"/>
    <path fill="#01B85D" d="M18.415 74.83a7.95 7.95 0 0 1-7.828-8.066 7.95 7.95 0 0 1 7.828 8.065Z"/>
    <circle cx="7.948" cy="7.948" r="7.948" fill="#00D264" transform="matrix(1 0 0 -1 2.52 98.557)"/>
    <path fill="#01B85D" d="M2.52 90.727h.118a7.95 7.95 0 0 0 7.948-8.066h-.118a7.95 7.95 0 0 0-7.948 8.066m0 .001h.118a7.95 7.95 0 0 1 7.948 7.828l-.118.001a7.95 7.95 0 0 1-7.948-7.829m8.067 7.828a7.95 7.95 0 0 1 7.828-7.828 7.95 7.95 0 0 1-7.828 7.828"/>
    <path fill="#01B85D" d="M18.415 90.727a7.95 7.95 0 0 1-7.828-8.066 7.95 7.95 0 0 1 7.828 8.066"/>
    <circle cx="7.948" cy="7.948" r="7.948" fill="#00D264" transform="matrix(1 0 0 -1 2.52 114.454)"/>
    <path fill="#01B85D" d="m2.52 106.624.118.001a7.95 7.95 0 0 0 7.948-8.067h-.118a7.95 7.95 0 0 0-7.948 8.066"/>
    <path fill="#01B85D" d="M2.52 106.625h.118a7.95 7.95 0 0 1 7.948 7.828l-.118.001a7.95 7.95 0 0 1-7.948-7.829m8.067 7.828a7.95 7.95 0 0 1 7.828-7.828 7.95 7.95 0 0 1-7.828 7.828m7.828-7.829a7.95 7.95 0 0 1-7.828-8.066 7.95 7.95 0 0 1 7.828 8.066"/>
    <circle cx="7.948" cy="7.948" r="7.948" fill="#00D264" transform="matrix(1 0 0 -1 18.414 66.763)"/>
    <path fill="#01B85D" d="m18.415 58.932.118.001a7.95 7.95 0 0 0 7.947-8.066h-.118a7.95 7.95 0 0 0-7.947 8.065m0 .002h.118a7.95 7.95 0 0 1 7.947 7.828h-.118a7.95 7.95 0 0 1-7.947-7.828m8.067 7.828a7.95 7.95 0 0 1 7.828-7.828 7.95 7.95 0 0 1-7.828 7.828"/>
    <path fill="#01B85D" d="M34.31 58.932a7.95 7.95 0 0 1-7.828-8.065 7.95 7.95 0 0 1 7.828 8.065"/>
    <circle cx="7.948" cy="7.948" r="7.948" fill="#00D264" transform="matrix(1 0 0 -1 18.414 50.69)"/>
    <path fill="#01B85D" d="M18.415 42.859h.118a7.95 7.95 0 0 0 7.947-8.066h-.118a7.95 7.95 0 0 0-7.947 8.066m0 .001h.118a7.95 7.95 0 0 1 7.947 7.828l-.118.001a7.95 7.95 0 0 1-7.947-7.829m8.067 7.828a7.95 7.95 0 0 1 7.828-7.828 7.95 7.95 0 0 1-7.828 7.828"/>
    <path fill="#01B85D" d="M34.31 42.858a7.95 7.95 0 0 1-7.828-8.065 7.95 7.95 0 0 1 7.828 8.066Z"/>
    <circle cx="7.948" cy="7.948" r="7.948" fill="#00D264" transform="matrix(1 0 0 -1 18.414 34.614)"/>
    <path fill="#01B85D" d="M18.415 26.784h.118a7.95 7.95 0 0 0 7.947-8.065l-.118-.001a7.95 7.95 0 0 0-7.947 8.066m0 .002.118-.001a7.95 7.95 0 0 1 7.947 7.829h-.118a7.95 7.95 0 0 1-7.947-7.828m8.067 7.828a7.95 7.95 0 0 1 7.828-7.828 7.95 7.95 0 0 1-7.828 7.828"/>
    <path fill="#01B85D" d="M34.31 26.784a7.95 7.95 0 0 1-7.828-8.065 7.95 7.95 0 0 1 7.828 8.065"/>
    <circle cx="7.948" cy="7.948" r="7.948" fill="#00D264" transform="matrix(1 0 0 -1 18.414 18.54)"/>
    <path fill="#01B85D" d="M18.415 10.71h.118a7.95 7.95 0 0 0 7.947-8.066h-.118a7.95 7.95 0 0 0-7.947 8.066m0 .001h.118a7.95 7.95 0 0 1 7.947 7.828l-.118.001a7.95 7.95 0 0 1-7.947-7.829m8.067 7.829a7.95 7.95 0 0 1 7.828-7.829 7.95 7.95 0 0 1-7.828 7.828Z"/>
    <path fill="#01B85D" d="M34.31 10.71a7.95 7.95 0 0 1-7.828-8.066 7.95 7.95 0 0 1 7.828 8.066"/>
    <circle cx="7.948" cy="7.948" r="7.948" fill="#00D264" transform="matrix(1 0 0 -1 66.106 66.763)"/>
    <path fill="#01B85D" d="m66.106 58.932.118.001a7.95 7.95 0 0 0 7.948-8.066h-.118a7.95 7.95 0 0 0-7.948 8.065m0 .002h.118a7.95 7.95 0 0 1 7.947 7.828h-.117a7.95 7.95 0 0 1-7.948-7.828m8.067 7.828a7.95 7.95 0 0 1 7.828-7.828 7.95 7.95 0 0 1-7.828 7.828"/>
    <path fill="#01B85D" d="M82.001 58.932a7.95 7.95 0 0 1-7.828-8.065 7.95 7.95 0 0 1 7.828 8.065"/>
    <circle cx="7.948" cy="7.948" r="7.948" fill="#00D264" transform="matrix(1 0 0 -1 18.414 82.66)"/>
    <path fill="#01B85D" d="M18.415 74.83h.118a7.95 7.95 0 0 0 7.947-8.066h-.118a7.95 7.95 0 0 0-7.947 8.065Zm0 .001h.118a7.95 7.95 0 0 1 7.947 7.828h-.118a7.95 7.95 0 0 1-7.947-7.828m8.067 7.828a7.95 7.95 0 0 1 7.828-7.828 7.95 7.95 0 0 1-7.828 7.828"/>
    <path fill="#01B85D" d="M34.31 74.83a7.95 7.95 0 0 1-7.828-8.066 7.95 7.95 0 0 1 7.828 8.065Z"/>
    <circle cx="7.948" cy="7.948" r="7.948" fill="#00D264" transform="matrix(1 0 0 -1 66.106 82.66)"/>
    <path fill="#01B85D" d="M66.106 74.83h.118a7.95 7.95 0 0 0 7.948-8.066h-.118a7.95 7.95 0 0 0-7.948 8.065Zm0 .001h.118a7.95 7.95 0 0 1 7.947 7.828h-.117a7.95 7.95 0 0 1-7.948-7.828m8.067 7.828a7.95 7.95 0 0 1 7.828-7.828 7.95 7.95 0 0 1-7.828 7.828"/>
    <path fill="#01B85D" d="M82.001 74.83a7.95 7.95 0 0 1-7.828-8.066 7.95 7.95 0 0 1 7.828 8.065Z"/>
    <circle cx="7.948" cy="7.948" r="7.948" fill="#00D264" transform="matrix(1 0 0 -1 18.414 98.557)"/>
    <path fill="#01B85D" d="M18.415 90.727h.118a7.95 7.95 0 0 0 7.947-8.066h-.118a7.95 7.95 0 0 0-7.947 8.066m0 .001h.118a7.95 7.95 0 0 1 7.947 7.828l-.118.001a7.95 7.95 0 0 1-7.947-7.829m8.067 7.828a7.95 7.95 0 0 1 7.828-7.828 7.95 7.95 0 0 1-7.828 7.828"/>
    <path fill="#01B85D" d="M34.31 90.727a7.95 7.95 0 0 1-7.828-8.066 7.95 7.95 0 0 1 7.828 8.066"/>
    <circle cx="7.948" cy="7.948" r="7.948" fill="#00D264" transform="matrix(1 0 0 -1 66.106 98.557)"/>
    <path fill="#01B85D" d="M66.106 90.727h.118a7.95 7.95 0 0 0 7.948-8.066h-.118a7.95 7.95 0 0 0-7.948 8.066m0 .001h.118a7.95 7.95 0 0 1 7.947 7.828l-.117.001a7.95 7.95 0 0 1-7.948-7.829m8.067 7.828a7.95 7.95 0 0 1 7.828-7.828 7.95 7.95 0 0 1-7.828 7.828"/>
    <path fill="#01B85D" d="M82.001 90.727a7.95 7.95 0 0 1-7.828-8.066 7.95 7.95 0 0 1 7.828 8.066"/>
    <circle cx="7.948" cy="7.948" r="7.948" fill="#00D264" transform="matrix(1 0 0 -1 18.414 114.454)"/>
    <path fill="#01B85D" d="m18.415 106.624.118.001a7.95 7.95 0 0 0 7.947-8.067h-.118a7.95 7.95 0 0 0-7.947 8.066m0 .001h.118a7.95 7.95 0 0 1 7.947 7.828l-.118.001a7.95 7.95 0 0 1-7.947-7.829m8.067 7.828a7.95 7.95 0 0 1 7.828-7.828 7.95 7.95 0 0 1-7.828 7.828"/>
    <path fill="#01B85D" d="M34.31 106.624a7.95 7.95 0 0 1-7.828-8.066 7.95 7.95 0 0 1 7.828 8.066"/>
    <circle cx="7.948" cy="7.948" r="7.948" fill="#00D264" transform="matrix(1 0 0 -1 66.106 114.454)"/>
    <path fill="#01B85D" d="m66.106 106.624.118.001a7.95 7.95 0 0 0 7.948-8.067h-.118a7.95 7.95 0 0 0-7.948 8.066m0 .001h.118a7.95 7.95 0 0 1 7.947 7.828l-.117.001a7.95 7.95 0 0 1-7.948-7.829m8.067 7.828a7.95 7.95 0 0 1 7.828-7.828 7.95 7.95 0 0 1-7.828 7.828"/>
    <path fill="#01B85D" d="M82.001 106.624a7.95 7.95 0 0 1-7.828-8.066 7.95 7.95 0 0 1 7.828 8.066"/>
    <circle cx="7.948" cy="7.948" r="7.948" fill="#00D264" transform="matrix(1 0 0 -1 34.313 66.763)"/>
    <path fill="#01B85D" d="m34.313 58.932.118.001a7.95 7.95 0 0 0 7.948-8.066h-.118a7.95 7.95 0 0 0-7.948 8.065m0 .002h.118a7.95 7.95 0 0 1 7.948 7.828h-.118a7.95 7.95 0 0 1-7.948-7.828m8.067 7.828a7.95 7.95 0 0 1 7.828-7.828 7.95 7.95 0 0 1-7.828 7.828"/>
    <path fill="#01B85D" d="M50.208 58.932a7.95 7.95 0 0 1-7.828-8.065 7.95 7.95 0 0 1 7.828 8.065"/>
    <circle cx="7.948" cy="7.948" r="7.948" fill="#00D264" transform="matrix(1 0 0 -1 34.313 50.69)"/>
    <path fill="#01B85D" d="M34.313 42.859h.118a7.95 7.95 0 0 0 7.948-8.066h-.118a7.95 7.95 0 0 0-7.948 8.066m0 .001h.118a7.95 7.95 0 0 1 7.948 7.828l-.118.001a7.95 7.95 0 0 1-7.948-7.829m8.067 7.828a7.95 7.95 0 0 1 7.828-7.828 7.95 7.95 0 0 1-7.828 7.828"/>
    <path fill="#01B85D" d="M50.208 42.858a7.95 7.95 0 0 1-7.828-8.065 7.95 7.95 0 0 1 7.828 8.066Z"/>
    <circle cx="7.948" cy="7.948" r="7.948" fill="#00D264" transform="matrix(1 0 0 -1 34.313 34.614)"/>
    <path fill="#01B85D" d="M34.313 26.784h.118a7.95 7.95 0 0 0 7.948-8.065l-.118-.001a7.95 7.95 0 0 0-7.948 8.066m0 .002.118-.001a7.95 7.95 0 0 1 7.948 7.829h-.118a7.95 7.95 0 0 1-7.948-7.828m8.067 7.828a7.95 7.95 0 0 1 7.828-7.828 7.95 7.95 0 0 1-7.828 7.828"/>
    <path fill="#01B85D" d="M50.208 26.784a7.95 7.95 0 0 1-7.828-8.065 7.95 7.95 0 0 1 7.828 8.065"/>
    <circle cx="7.948" cy="7.948" r="7.948" fill="#00D264" transform="matrix(1 0 0 -1 34.313 18.54)"/>
    <path fill="#01B85D" d="M34.313 10.71h.118a7.95 7.95 0 0 0 7.948-8.066h-.118a7.95 7.95 0 0 0-7.948 8.066m0 .001h.118a7.95 7.95 0 0 1 7.948 7.828l-.118.001a7.95 7.95 0 0 1-7.948-7.829m8.067 7.829a7.95 7.95 0 0 1 7.828-7.829 7.95 7.95 0 0 1-7.828 7.828Z"/>
    <path fill="#01B85D" d="M50.208 10.71a7.95 7.95 0 0 1-7.828-8.066 7.95 7.95 0 0 1 7.828 8.066"/>
    <circle cx="7.948" cy="7.948" r="7.948" fill="#00D264" transform="matrix(1 0 0 -1 34.313 82.66)"/>
    <path fill="#01B85D" d="M34.313 74.83h.118a7.95 7.95 0 0 0 7.948-8.066h-.118a7.95 7.95 0 0 0-7.948 8.065Zm0 .001h.118a7.95 7.95 0 0 1 7.948 7.828h-.118a7.95 7.95 0 0 1-7.948-7.828m8.067 7.828a7.95 7.95 0 0 1 7.828-7.828 7.95 7.95 0 0 1-7.828 7.828"/>
    <path fill="#01B85D" d="M50.208 74.83a7.95 7.95 0 0 1-7.828-8.066 7.95 7.95 0 0 1 7.828 8.065Z"/>
    <circle cx="7.948" cy="7.948" r="7.948" fill="#00D264" transform="matrix(1 0 0 -1 34.313 98.557)"/>
    <path fill="#01B85D" d="M34.313 90.727h.118a7.95 7.95 0 0 0 7.948-8.066h-.118a7.95 7.95 0 0 0-7.948 8.066m0 .001h.118a7.95 7.95 0 0 1 7.948 7.828l-.118.001a7.95 7.95 0 0 1-7.948-7.829m8.067 7.828a7.95 7.95 0 0 1 7.828-7.828 7.95 7.95 0 0 1-7.828 7.828"/>
    <path fill="#01B85D" d="M50.208 90.727a7.95 7.95 0 0 1-7.828-8.066 7.95 7.95 0 0 1 7.828 8.066"/>
    <circle cx="7.948" cy="7.948" r="7.948" fill="#00D264" transform="matrix(1 0 0 -1 34.313 114.454)"/>
    <path fill="#01B85D" d="m34.313 106.624.118.001a7.95 7.95 0 0 0 7.948-8.067h-.118a7.95 7.95 0 0 0-7.948 8.066"/>
    <path fill="#01B85D" d="M34.313 106.625h.118a7.95 7.95 0 0 1 7.948 7.828l-.118.001a7.95 7.95 0 0 1-7.948-7.829m8.067 7.828a7.95 7.95 0 0 1 7.828-7.828 7.95 7.95 0 0 1-7.828 7.828m7.828-7.829a7.95 7.95 0 0 1-7.828-8.066 7.95 7.95 0 0 1 7.828 8.066"/>
    <circle cx="7.948" cy="7.948" r="7.948" fill="#00D264" transform="matrix(1 0 0 -1 -13.379 66.763)"/>
    <path fill="#01B85D" d="m-13.378 58.932.118.001a7.95 7.95 0 0 0 7.947-8.066h-.118a7.95 7.95 0 0 0-7.947 8.065m0 .002h.118a7.95 7.95 0 0 1 7.947 7.828h-.118a7.95 7.95 0 0 1-7.947-7.828m8.067 7.828a7.95 7.95 0 0 1 7.828-7.828 7.95 7.95 0 0 1-7.828 7.828"/>
    <path fill="#01B85D" d="M2.517 58.932a7.95 7.95 0 0 1-7.828-8.065 7.95 7.95 0 0 1 7.828 8.065"/>
    <circle cx="7.948" cy="7.948" r="7.948" fill="#00D264" transform="matrix(1 0 0 -1 -13.379 50.69)"/>
    <path fill="#01B85D" d="M-13.378 42.859h.118a7.95 7.95 0 0 0 7.947-8.066h-.118a7.95 7.95 0 0 0-7.947 8.066m0 .001h.118a7.95 7.95 0 0 1 7.947 7.828l-.118.001a7.95 7.95 0 0 1-7.947-7.829m8.067 7.828a7.95 7.95 0 0 1 7.828-7.828 7.95 7.95 0 0 1-7.828 7.828"/>
    <path fill="#01B85D" d="M2.517 42.858a7.95 7.95 0 0 1-7.828-8.065 7.95 7.95 0 0 1 7.828 8.066Z"/>
    <circle cx="7.948" cy="7.948" r="7.948" fill="#00D264" transform="matrix(1 0 0 -1 -13.379 34.616)"/>
    <path fill="#01B85D" d="m-13.378 26.785.118.001a7.95 7.95 0 0 0 7.947-8.066h-.118a7.95 7.95 0 0 0-7.947 8.065m0 .002h.118a7.95 7.95 0 0 1 7.947 7.828h-.118a7.95 7.95 0 0 1-7.947-7.828m8.067 7.828a7.95 7.95 0 0 1 7.828-7.828 7.95 7.95 0 0 1-7.828 7.828"/>
    <path fill="#01B85D" d="M2.517 26.785a7.95 7.95 0 0 1-7.828-8.065 7.95 7.95 0 0 1 7.828 8.065"/>
    <circle cx="7.948" cy="7.948" r="7.948" fill="#00D264" transform="matrix(1 0 0 -1 -13.379 18.54)"/>
    <path fill="#01B85D" d="M-13.378 10.71h.118a7.95 7.95 0 0 0 7.947-8.066h-.118a7.95 7.95 0 0 0-7.947 8.066m0 .001h.118a7.95 7.95 0 0 1 7.947 7.828l-.118.001a7.95 7.95 0 0 1-7.947-7.829m8.067 7.829a7.95 7.95 0 0 1 7.828-7.829 7.95 7.95 0 0 1-7.828 7.828Z"/>
    <path fill="#01B85D" d="M2.517 10.71a7.95 7.95 0 0 1-7.828-8.066 7.95 7.95 0 0 1 7.828 8.066"/>
    <circle cx="7.948" cy="7.948" r="7.948" fill="#00D264" transform="matrix(1 0 0 -1 -13.379 82.66)"/>
    <path fill="#01B85D" d="M-13.378 74.83h.118a7.95 7.95 0 0 0 7.947-8.066h-.118a7.95 7.95 0 0 0-7.947 8.065Zm0 .001h.118a7.95 7.95 0 0 1 7.947 7.828h-.118a7.95 7.95 0 0 1-7.947-7.828m8.067 7.828a7.95 7.95 0 0 1 7.828-7.828 7.95 7.95 0 0 1-7.828 7.828"/>
    <path fill="#01B85D" d="M2.517 74.83a7.95 7.95 0 0 1-7.828-8.066 7.95 7.95 0 0 1 7.828 8.065Z"/>
    <circle cx="7.948" cy="7.948" r="7.948" fill="#00D264" transform="matrix(1 0 0 -1 -13.379 98.557)"/>
    <path fill="#01B85D" d="M-13.378 90.727h.118a7.95 7.95 0 0 0 7.947-8.066h-.118a7.95 7.95 0 0 0-7.947 8.066m0 .001h.118a7.95 7.95 0 0 1 7.947 7.828l-.118.001a7.95 7.95 0 0 1-7.947-7.829m8.067 7.828a7.95 7.95 0 0 1 7.828-7.828 7.95 7.95 0 0 1-7.828 7.828"/>
    <path fill="#01B85D" d="M2.517 90.727a7.95 7.95 0 0 1-7.828-8.066 7.95 7.95 0 0 1 7.828 8.066"/>
    <circle cx="7.948" cy="7.948" r="7.948" fill="#00D264" transform="matrix(1 0 0 -1 -13.379 114.454)"/>
    <path fill="#01B85D" d="m-13.378 106.624.118.001a7.95 7.95 0 0 0 7.947-8.067h-.118a7.95 7.95 0 0 0-7.947 8.066m0 .001h.118a7.95 7.95 0 0 1 7.947 7.828l-.118.001a7.95 7.95 0 0 1-7.947-7.829m8.067 7.828a7.95 7.95 0 0 1 7.828-7.828 7.95 7.95 0 0 1-7.828 7.828"/>
    <path fill="#01B85D" d="M2.517 106.624a7.95 7.95 0 0 1-7.828-8.066 7.95 7.95 0 0 1 7.828 8.066"/>
    <circle cx="7.948" cy="7.948" r="7.948" fill="#00D264" transform="matrix(1 0 0 -1 50.207 66.763)"/>
    <path fill="#01B85D" d="m50.208 58.932.118.001a7.95 7.95 0 0 0 7.947-8.066h-.118a7.95 7.95 0 0 0-7.947 8.065m0 .002h.118a7.95 7.95 0 0 1 7.947 7.828h-.118a7.95 7.95 0 0 1-7.947-7.828m8.067 7.828a7.95 7.95 0 0 1 7.828-7.828 7.95 7.95 0 0 1-7.828 7.828"/>
    <path fill="#01B85D" d="M66.103 58.932a7.95 7.95 0 0 1-7.828-8.065 7.95 7.95 0 0 1 7.828 8.065"/>
    <circle cx="7.948" cy="7.948" r="7.948" fill="#00D264" transform="matrix(1 0 0 -1 50.207 82.66)"/>
    <path fill="#01B85D" d="M50.208 74.83h.118a7.95 7.95 0 0 0 7.947-8.066h-.118a7.95 7.95 0 0 0-7.947 8.065Zm0 .001h.118a7.95 7.95 0 0 1 7.947 7.828h-.118a7.95 7.95 0 0 1-7.947-7.828m8.067 7.828a7.95 7.95 0 0 1 7.828-7.828 7.95 7.95 0 0 1-7.828 7.828"/>
    <path fill="#01B85D" d="M66.103 74.83a7.95 7.95 0 0 1-7.828-8.066 7.95 7.95 0 0 1 7.828 8.065Z"/>
    <circle cx="7.948" cy="7.948" r="7.948" fill="#00D264" transform="matrix(1 0 0 -1 50.207 98.557)"/>
    <path fill="#01B85D" d="M50.208 90.727h.118a7.95 7.95 0 0 0 7.947-8.066h-.118a7.95 7.95 0 0 0-7.947 8.066m0 .001h.118a7.95 7.95 0 0 1 7.947 7.828l-.118.001a7.95 7.95 0 0 1-7.947-7.829m8.067 7.828a7.95 7.95 0 0 1 7.828-7.828 7.95 7.95 0 0 1-7.828 7.828"/>
    <path fill="#01B85D" d="M66.103 90.727a7.95 7.95 0 0 1-7.828-8.066 7.95 7.95 0 0 1 7.828 8.066"/>
    <circle cx="7.948" cy="7.948" r="7.948" fill="#00D264" transform="matrix(1 0 0 -1 50.207 114.454)"/>
    <path fill="#01B85D" d="m50.208 106.624.118.001a7.95 7.95 0 0 0 7.947-8.067h-.118a7.95 7.95 0 0 0-7.947 8.066m0 .001h.118a7.95 7.95 0 0 1 7.947 7.828l-.118.001a7.95 7.95 0 0 1-7.947-7.829m8.067 7.828a7.95 7.95 0 0 1 7.828-7.828 7.95 7.95 0 0 1-7.828 7.828"/>
    <path fill="#01B85D" d="M66.103 106.624a7.95 7.95 0 0 1-7.828-8.066 7.95 7.95 0 0 1 7.828 8.066"/>
  </g>
</svg>
