<svg xmlns="http://www.w3.org/2000/svg" width="42" height="39" fill="none" viewBox="0 0 42 39">
  <path fill="#FFF400" d="M20.539 24.103c.346-.05.672-.126.963-.22.326-.101.612-.227.863-.367.357-.196.627-.422.813-.647.808-.99-.09-1.877-.09-1.877.28-.276.461-.562.602-.783.226-.361.236-.657.085-.928-.165-.296-.517-.557-.963-.818l-.14-.08a9 9 0 0 0-.743-.367q-.378-.166-.838-.346a17 17 0 0 0-.899-.322c-.296-.1-.607-.2-.923-.29q-.458-.136-.938-.256c-.291-.076-.587-.14-.884-.206a15 15 0 0 0-.858-.16 10 10 0 0 0-.883-.106c-.582-.04-1.019.01-1.32.16a.79.79 0 0 0-.451.603c-.04.2-.066.597 0 1.053q-.001.044.005.066.044.301.14.612l-.035.01s-.652-.301-.948.707c-.156.522-.076 1.275.471 2.048q.194.287.487.567.313.31.748.597c.22.15.466.291.737.432.246.125.507.246.793.356.08.035.166.065.246.095q.25.09.492.166.28.083.552.15a9 9 0 0 0 1.255.196q.376.031.732.025c.321 0 .623-.03.913-.075zm6.88 8.506c.12.983-.507 3.126-2.003 3.95-1.55.852-3.357.566-3.357.566.206.798-.386 1.41-1.059 1.16-.672-.252-1.104-1.496-1.104-1.496s-3.242.085-6.232-1.686c-2.991-1.767-2.494-4.928-2.494-4.928-.713-.206-1.24-.622-1.641-1.17-1.4-1.906-1.255-5.404-1.777-7.085a2.5 2.5 0 0 0-.21-.507s.13-1.305-.387-1.872c-.517-.572-1.109.477-1.109.477s-2.62-1.922-3.94.447c0 0-1.615-1.24-1.866-4.16-.256-2.92 1.872-6.062 1.872-6.062.632-2.033 1.806-1.842 1.937-1.21.13.633.447 1.24.602 1.18.16-.065 2.032-1.08 5.083-.246a4.6 4.6 0 0 1 1.406.667c-.03-.08-.838-2.077.14-4.576 1.104-2.82 4.572-3.493 4.572-3.493s-.191-.953.637-1.315c.828-.361.998.432 1.36 1.124.361.693 3.713 1.15 5.143 5.616.583 1.816.502 3.633.201 5.143.095-.085 2.298-1.962 5.003-2.283 2.76-.326 3.894 1.14 3.894 1.14s.828-.864 1.732-.237c.903.628-.628 1.732-.628 1.732s1.18 1.756 1.054 4.125c-.125 2.363-1.325 4.014-1.325 4.014 4.773.402 6.454 4.903 6.454 4.903 1.555-1.385 2.459-.211 2.037.557-.421.768-1.295 1.485-1.295 1.485-1.886 3.804-7.989 5.766-12.695 4.035z"/>
  <path fill="#FFCF02" d="M23.782 19.286c.145.266.14.567-.085.923-.141.22-.322.507-.603.783-.11.105-.236.21-.376.306q-.105.076-.226.145s.552-.521.758-1.199c.075-.25 0-.421-.136-.512 0 0-.04-.175.076-.346a.4.4 0 0 1 .09-.1c.206-.176.462-.026.507 0z"/>
  <path fill="#FFCF02" d="M23.78 19.28c-.04-.025-.296-.175-.507 0a.4.4 0 0 0-.09.1s-.422.126-.507-.185a.8.8 0 0 1 .05-.547c0-.005.005-.01.005-.01.055-.09.08-.17.08-.17.447.26.798.516.964.817zm-.69 1.712s.898.888.09 1.877a2.7 2.7 0 0 1-.813.642c.813-.648.793-1.345.683-1.726-.11-.387-.337-.482-.337-.482q.211-.152.377-.311m.017-1.265c.135.09.21.261.135.512-.205.682-.757 1.2-.757 1.2q-.149.084-.322.16-.323.137-.737.22c.05-.044.717-.662 1.019-1.35a.53.53 0 0 0-.08-.546c.115-.276.511-.351.737-.2z"/>
  <path fill="#FFCF02" d="M23.183 19.38c-.115.172-.075.347-.075.347-.23-.15-.627-.08-.738.196a.46.46 0 0 0-.296-.17v-.026c.166-.356.472-.868.472-.868a.7.7 0 0 0 .19-.21.8.8 0 0 0-.05.546c.086.311.507.186.507.186h-.01Zm-.13 2.405c.11.381.13 1.084-.682 1.726-.251.14-.537.266-.863.366.06-.055.577-.512.888-1.4.2-.582-.226-.873-.226-.873q.173-.076.321-.16c.08-.046.156-.09.226-.146 0 0 .226.1.336.487"/>
  <path fill="#FFCF02" d="M21.924 18.192a.4.4 0 0 0 .01-.171c.291.13.547.256.743.366l.14.08s-.03.08-.08.171l-.005.01a.6.6 0 0 1-.19.206.3.3 0 0 1-.227.055c-.326-.05-.471-.25-.391-.727z"/>
  <path fill="#FFCF02" d="M22.542 18.86s-.306.516-.467.867v.025c-.135-.025-.29.015-.446.136-.015-.226-.166-.352-.352-.387.16-.346.512-1.079.512-1.079a.44.44 0 0 0 .136-.23c-.08.476.065.672.391.727a.32.32 0 0 0 .226-.055v-.005Z"/>
  <path fill="#FFCF02" d="M22.368 19.928c.12.145.166.356.08.547-.3.682-.968 1.305-1.018 1.35a5 5 0 0 1-.793.085c.035-.05.617-.908.923-1.66a.8.8 0 0 0 .07-.362c.156-.12.306-.16.442-.136.12.015.22.08.296.176"/>
  <path fill="#FFCF02" d="M22.161 21.604s.427.29.226.873c-.306.888-.823 1.35-.888 1.4-.291.096-.618.17-.964.22.05-.034.833-.596.974-1.304.145-.732-.086-.968-.086-.968q.421-.082.738-.226zm-.227-3.584a.7.7 0 0 1-.01.172.44.44 0 0 1-.136.23c-.09.08-.22.116-.391.07-.392-.1-.326-.652-.326-.652.025-.09.025-.165.025-.165q.46.18.838.346Z"/>
  <path fill="#FFCF02" d="M21.788 18.422s-.356.733-.512 1.08a.66.66 0 0 0-.572.185c-.045-.18-.146-.311-.286-.366.115-.382.462-1.155.487-1.205a.5.5 0 0 0 .17-.276s-.065.552.326.653c.171.045.302.005.392-.07z"/>
  <path fill="#FFCF02" d="M21.28 19.501a.41.41 0 0 1 .351.387c.01.1-.01.22-.07.361-.306.753-.888 1.606-.923 1.661q-.338.009-.728-.02s.392-.562.713-1.425c.115-.306.135-.577.08-.778.15-.16.381-.22.572-.186z"/>
  <path fill="#FFCF02" d="M21.423 21.825s.23.236.085.968c-.14.708-.923 1.275-.974 1.305-.286.04-.592.07-.913.075.07-.045.798-.537 1.009-1.25.216-.747 0-1.013 0-1.013q.433-.016.793-.085m-.327-4.15s0 .075-.025.165a.5.5 0 0 1-.17.276.38.38 0 0 1-.236.06c-.422-.035-.437-.612-.437-.612 0-.1-.02-.19-.025-.206q.475.157.898.322z"/>
  <path fill="#FFCF02" d="M20.665 18.172c.1.005.175-.015.236-.056-.02.046-.367.823-.487 1.205-.146-.06-.331-.04-.542.09-.04-.17-.14-.26-.25-.29.1-.372.406-1.195.426-1.245.135-.066.175-.196.18-.312 0 0 .01.578.437.613z"/>
  <path fill="#FFCF02" d="M20.702 19.687c.05.206.035.477-.08.778-.321.863-.712 1.425-.712 1.425a8 8 0 0 1-.844-.11c.036-.06.613-1.04.788-1.892.04-.206.04-.362.015-.477.211-.126.397-.15.542-.09.14.055.246.185.286.366zm-.066 2.223s.216.266 0 1.014c-.206.712-.939 1.204-1.009 1.25a6 6 0 0 1-.732-.026c.04-.05.642-.833.903-1.31.27-.492.115-.948.115-.948q.39.029.728.02zm-.431-4.556s.03.105.025.205c0 .116-.04.246-.181.306a.4.4 0 0 1-.155.04c-.452.03-.558-.551-.563-.602 0-.07-.02-.15-.05-.245.321.09.628.19.924.29z"/>
  <path fill="#FFCF02" d="M19.89 17.905a.4.4 0 0 0 .156-.035c-.02.05-.326.874-.427 1.245a.45.45 0 0 0-.421.095c-.05.045-.12.186-.206.377.1-.261.03-.482-.105-.618.05-.36.336-1.25.406-1.465 0 0 .005-.01.005-.02l.01-.03a.5.5 0 0 0 .01-.156c.005.05.11.633.562.603l.01.005Zm.023 3.985s.155.457-.116.948c-.26.477-.863 1.265-.903 1.31a8 8 0 0 1-.597-.07v-.015s.477-.959.662-1.415.11-.869.11-.869c.302.05.578.086.844.106z"/>
  <path fill="#FFCF02" d="M19.872 19.411c.025.12.025.276-.015.477-.176.858-.753 1.831-.788 1.892a9 9 0 0 1-.788-.166c.05-.155.427-1.335.698-1.987 0-.015.01-.025.015-.04.08-.196.155-.331.206-.377a.46.46 0 0 1 .421-.095c.11.035.21.126.251.296m-.544-2.108c0 .06 0 .11-.01.156 0 0 0 .01-.01.03 0 0 0 .01-.005.02-.065.166-.25.206-.476.14-.231-.06-.342-.28-.392-.44-.02-.066-.03-.121-.04-.151v-.026a.8.8 0 0 0-.055-.21v-.015q.49.12.943.256.044.135.05.24z"/>
  <path fill="#FFCF02" d="M19.3 17.504s0-.015.006-.02c0 .005 0 .015-.005.02Zm-.002 0c-.07.216-.361 1.104-.406 1.465-.171-.175-.452-.225-.598-.07a1.2 1.2 0 0 0-.165.216s-.01-.04-.035-.09c.04-.618.336-1.822.336-1.822.05.16.166.381.391.442.226.06.412.02.477-.14Zm-.231 4.281s.08.416-.11.868c-.191.451-.663 1.415-.663 1.415v.015a11 11 0 0 1-.657-.125s.296-.839.406-1.305c.11-.467.231-1.019.231-1.019v-.015c.276.07.537.12.788.166z"/>
  <path fill="#FFCF02" d="M18.893 18.97c.135.135.206.356.105.617l-.015.04c-.276.652-.652 1.837-.697 1.987-.161-.035-.322-.08-.487-.125 0 0-.12-.03-.326-.09 0 0 .18-1.521.657-2.284.05-.08.105-.155.166-.216.145-.155.421-.105.597.07Zm-.507-1.918c.006.03.015.086.04.151 0 0-.29 1.2-.336 1.822-.08-.181-.3-.567-.707-.387.03-.401.14-1.58.14-1.58.035.14.12.316.367.376.29.075.537-.045.502-.382z"/>
  <path fill="#FFCF02" d="M18.39 17.053c.035.33-.21.456-.501.381a.49.49 0 0 1-.367-.376.5.5 0 0 1-.015-.11v-.076c-.01-.146-.05-.276-.05-.276q.445.091.883.206v.015a1 1 0 0 1 .05.21zm-.11 4.561v.015s-.121.557-.232 1.019c-.11.461-.406 1.304-.406 1.304q-.271-.06-.552-.15s0-.291.05-1.039c.08-1.134.331-1.365.331-1.365.206.06.326.09.326.09q.248.07.487.126zm-.185-2.589a1 1 0 0 1 .035.09c-.477.763-.657 2.283-.657 2.283-.206-.065-.497-.16-.828-.296 0-.085.03-2.027.637-2.409a.5.5 0 0 1 .105-.055c.407-.18.633.206.708.387"/>
  <path fill="#FFCF02" d="M17.504 16.947c0 .03.005.07.015.11 0 0-.11 1.185-.14 1.581q-.052.024-.106.055s-.055-.456-.582-.451c.015-.367.046-1.23.05-1.325.05.125.166.281.427.326s.326-.12.331-.296z"/>
  <path fill="#FFCF02" d="M16.748 16.917a1 1 0 0 0-.03-.09c0-.036 0-.066-.01-.09-.03-.146-.1-.277-.11-.297q.399.061.858.16s.04.131.05.277v.075c0 .17-.075.336-.331.296a.52.52 0 0 1-.427-.326zm.716 4.481s-.251.231-.331 1.365c-.05.748-.05 1.039-.05 1.039-.166-.045-.327-.105-.492-.166a4 4 0 0 1-.246-.095s-.055-.407 0-1.33c.055-.918.296-1.114.296-1.114.331.13.622.231.828.291z"/>
  <path fill="#FFCF02" d="M16.695 18.242c.532 0 .582.451.582.451-.612.382-.637 2.324-.637 2.41a8 8 0 0 1-.703-.322c-.2-.938.04-1.781.341-2.218.14-.206.291-.321.412-.321z"/>
  <path fill="#FFCF02" d="M16.746 16.917c0 .09-.04.953-.05 1.325-.12 0-.276.12-.412.32 0 0 .045-.581-.331-.697a.7.7 0 0 0-.146-.025c-.015-.286 0-.742 0-.777a.44.44 0 0 0 .096-.327s.145.497.592.402c.186-.04.236-.17.226-.311a.5.5 0 0 0 .03.09z"/>
  <path fill="#FFCF02" d="M16.723 16.827c.01.135-.04.27-.226.31-.447.096-.592-.4-.592-.4a.6.6 0 0 0-.186-.402c.266.015.557.05.883.105.01.02.08.15.11.296 0 0 0 .035.01.086z"/>
  <path fill="#FFCF02" d="M16.703 16.736c.005.03.01.055.01.086-.01-.05-.01-.086-.01-.086m-.064 4.366s-.241.2-.297 1.114c-.055.918 0 1.33 0 1.33a9 9 0 0 1-.792-.351c-.01-.05-.11-.678-.066-1.466.045-.817.457-.948.457-.948.24.126.482.23.702.321zm-.692-3.237c.376.12.33.698.33.698-.3.442-.541 1.28-.34 2.218a7 7 0 0 1-.688-.402c-.01-.045-.11-.491-.09-1.395.01-.567.155-.898.346-1.043q.136-.104.296-.096a.5.5 0 0 1 .146.025zm-.048-1.129a.43.43 0 0 1-.095.321.24.24 0 0 1-.226.076c-.251-.046-.407-.256-.472-.362l-.03-.06c-.206-.346-.632-.23-.678-.216.296-.15.733-.2 1.32-.16.12.115.18.26.186.401z"/>
  <path fill="#FFCF02" d="M15.8 17.84a.46.46 0 0 0-.296.096s.056-.326-.155-.457a.54.54 0 0 0-.371-.075s-.02-.1-.076-.201c0 0 .347-.11.201-.431.065.105.22.316.472.36a.24.24 0 0 0 .226-.075c0 .04-.015.492 0 .778v.005Zm.135 2.941s-.411.136-.456.948c-.045.783.055 1.41.065 1.46a6 6 0 0 1-.738-.43 6 6 0 0 1-.055-1.496c.08-.793.497-.889.497-.889q.34.228.688.402v.005Z"/>
  <path fill="#FFCF02" d="M15.353 17.48c.211.135.156.456.156.456-.196.15-.336.476-.347 1.044-.014.898.08 1.35.09 1.395-.08-.05-.16-.11-.235-.166a2.4 2.4 0 0 1-.532-.562c-.01-.085-.115-1.235.09-1.807.1-.29.261-.406.407-.436a.5.5 0 0 1 .371.075Z"/>
  <path fill="#FFCF02" d="M15.246 20.375s-.416.09-.497.888a6 6 0 0 0 .056 1.495 5 5 0 0 1-.748-.597s-.125-.457-.055-1.19c.09-.943.657-1.088.657-1.088q.15.171.346.321.118.09.236.166zm-.142-3.604c.146.327-.2.432-.2.432-.086-.16-.267-.326-.608-.155-.411.205-.386.863-.361 1.104a3.8 3.8 0 0 1 0-1.054c.05-.281.2-.477.452-.602.045-.015.471-.13.677.215 0 0 .01.025.03.06z"/>
  <path fill="#FFCF02" d="M14.904 17.203c.055.1.075.2.075.2-.15.03-.306.141-.406.437-.206.572-.1 1.722-.09 1.807a2.7 2.7 0 0 1-.391-.818 3 3 0 0 1-.141-.612q.001-.03-.005-.06c-.025-.246-.05-.899.36-1.105.342-.17.523 0 .608.156z"/>
  <path fill="#FFCF02" d="M14.48 19.647c.056.08.121.166.186.24 0 0-.572.146-.657 1.09-.07.732.055 1.189.055 1.189a3.7 3.7 0 0 1-.487-.562c-.25-.597-.17-1.48.046-1.887.215-.406.677-.361.677-.361q.083.151.18.296z"/>
  <path fill="#FFCF02" d="M14.296 19.35s-.462-.044-.678.362c-.216.407-.296 1.29-.045 1.887-.547-.773-.627-1.526-.472-2.047.296-1.014.949-.708.949-.708l.035-.01c.055.175.12.351.21.522z"/>
  <path fill="#FFF400" d="M13.934 18.157s0 .04.005.06q.001-.023-.005-.06"/>
  <path fill="#FFCF02" d="M7.75 21.925c.522 1.681.377 5.179 1.777 7.086C4.514 30.47.72 23.983 1.854 21c.075-.2.16-.37.246-.531 1.32-2.369 3.94-.447 3.94-.447s.596-1.049 1.108-.477c.517.573.387 1.872.387 1.872q.12.211.21.507z"/>
  <path fill="#FE8E00" d="M21.825 16.902c1.696-3.774 2.223-8.757-.703-12.059-.883-1.003-2.062-1.485-3.201-2.147-.457-.276-.492-1.305-1.08-1.32-.682.075-.893.758-.722 1.365-3.894.838-5.951 3.994-4.958 7.883-.717-1.28-.582-3.201-.075-4.626.737-1.998 2.705-3.232 4.717-3.664l-.186.276c-.075-.512.065-1.064.487-1.385.858-.612 1.435-.12 1.741.728.046.08.14.341.196.391 1.029.778 2.334 1.365 3.192 2.394 1.761 1.942 2.674 4.662 2.323 7.276-.23 1.676-.748 3.583-1.731 4.883z"/>
  <path fill="#FE8E00" d="M14.839 15.367c-1.084-1.822-2.334-3.629-4.14-4.758-1.782-.983-4.15-1.214-6.022-.31-.286.044-.406-.342-.512-.513-.23-.366-.17-1.144-.763-1.003-.627.185-.908.973-1.099 1.56-1.912 2.961-2.855 7.302-.19 10.107l-.03.035c-.748-.577-1.27-1.4-1.616-2.283-.713-1.777-.567-3.82.15-5.57.301-.788.909-1.957 1.28-2.45.12-.35.27-.702.492-1.018.33-.592 1.405-1.14 1.756-.236.095.412.196.898.457 1.19.01.01.02.014.02.014h-.01c.02-.01.13-.055.15-.065 1.947-.727 4.256-.752 6.147.181 1.817 1.134 3.297 3.182 3.935 5.119z"/>
  <path fill="#FE8E00" d="M17.04 24.906c-.23 1.556-.773 3.126-1.887 4.336-1.726 1.917-5.209 1.71-6.182-.879-1.019-2.182-.582-4.747-1.53-6.92.105-1.028-.387-2.955-1.336-1.169-2.328-1.68-4.39-.451-4.165 2.374.402 3.558 3.749 7.271 7.588 6.338-4.15 1.6-8.591-3.378-8.05-7.497.558-2.55 2.665-3.056 4.678-1.611l-.261.055c.346-.607 1.114-1.104 1.535-.24.261.551.266 1.143.216 1.73l-.015-.06c.853 2.218.482 4.737 1.62 6.86.964 2.233 4.07 2.449 5.656.763 1.144-1.054 1.656-2.73 2.138-4.085z"/>
  <path fill="#FE8E00" d="M11.194 30.18c-.175 4.441 4.893 6.594 8.702 6.474h.09c.13.316.291.632.492.908.276.457.873.828 1.255.351.23-.276.115-.727.01-1.054.757.096 1.55.096 2.303-.065 2.128-.306 3.257-2.368 3.382-4.285.231 1.39-.341 2.865-1.345 3.849-1.114.968-2.64 1.189-4.06 1.013l.267-.296c.085.361.05.798-.211 1.12-1.029 1.083-2.058-.392-2.309-1.35l.13.09c-2.087-.146-4.139-.578-6.03-1.486-1.903-.848-3.268-3.312-2.676-5.259z"/>
  <path fill="#FE8E00" d="M19.816 24.796c1.762 3.773 5.019 7.135 9.174 8.049 3.076.657 6.508.04 9.007-1.927.828-.663 1.54-1.486 1.992-2.434.472-.422.929-.898 1.24-1.45a.68.68 0 0 0 .07-.492c-.075-.336-.426-.517-.778-.422-.451.076-.878.462-1.234.778l-.126-.29c-1.174-2.75-3.914-4.838-6.975-4.778-3.05-.09-6.172.898-8.787 2.268 2.89-1.952 6.484-2.966 9.971-2.66 2.806.362 5.154 2.424 6.203 5.009l-.356-.09c.501-.432 1.294-.93 1.992-.543 1.25.878-.256 2.223-1.009 2.866-.311.712-1.29 1.806-2.092 2.373-2.595 1.922-6.012 2.67-9.189 2.153-4.195-.783-7.858-4.531-9.103-8.42z"/>
  <path fill="#FE8E00" d="M23.17 13.123c2.247-2.248 6.402-3.648 8.982-1.174l-.126-.005c.261-.25.567-.447.938-.512.859-.135 1.722.612 1.1 1.45a3.2 3.2 0 0 1-.753.788l.055-.3c1.636 2.438 1.425 6.121-.472 8.244 1.39-2.499 1.546-5.726 0-8.185.387-.3 1.34-.948.914-1.475-.472-.507-1.295-.331-1.732.156-1.069-1.305-3-1.3-4.516-.939-1.58.296-3.071 1.21-4.396 1.947zM3.825 11.226c.894 1.416 1.651 2.866 2.51 4.286 1.67 2.188 3.898 3.854 6.302 5.179l-.015.045c-2.83-.597-4.847-2.845-6.413-5.134-1.044-1.25-2.143-2.8-2.389-4.37zm13.031-7.251c.647 1.43.963 2.936 1.22 4.466.687 2.444 1.54 5.2.356 7.633l-.045-.015c.195-1.014.175-2.022.12-3.031-.1-1.505-.17-3.076-.577-4.546-.472-1.436-1.094-3.036-1.074-4.507m3.686 7.262c.522 1.636.226 3.517-.648 4.983.241-1.641.512-3.327.648-4.983m-5.03 0c1.159.988 1.51 2.74 1.184 4.18-.346-1.435-.577-2.81-1.184-4.18m-6.184 3.407c1.325 1.254 2.314 2.725 3.704 3.899-1.742-.607-2.936-2.293-3.704-3.9Zm2.462-.918c.677.727 1.018 1.47 1.63 2.243-.989-.201-1.59-1.3-1.63-2.243m-4.044 8.199c2.022-.858 3.97.417 5.932.818-1.004.176-2.073-.12-3.006-.441-.944-.291-1.927-.372-2.926-.377m7.232 1.626c-.346 1.857-2.389 2.896-4.155 2.79a9 9 0 0 1-.753-.1c.251-.06.497-.09.738-.13 1.676-.297 3.252-1.03 4.17-2.56m-4.263.517c.978-.156 1.791-.176 2.705-.517-.512.913-1.872 1.039-2.705.517m5.083.828c-.426 1.841-2.278 3.327-4.185 3.201 1.757-.567 3.132-1.676 4.185-3.201m2.612.291c.653 1.32.488 2.8 1.075 4.125.506 1.134 1.144 2.76 1.6 3.924l-.04.025c-.527-.512-.903-1.149-1.204-1.801-.462-.989-.557-2.083-.848-3.117-.407-1.003-.713-2.042-.633-3.146l.046-.005zm-.78 1.053c.156 1.526-.25 3.162-1.259 4.341.417-1.47.768-2.88 1.26-4.34Zm1.796.257c.888 1.25 1.45 2.564 2.208 3.889-1.255-.878-1.937-2.419-2.208-3.89Zm2.527-1.621c1.46.657 2.825 1.41 4.266 2.072 2.499.838 5.163.873 7.768.598l.015.045c-2.534 1.119-5.365.481-7.834-.497-1.495-.422-3.211-1.069-4.215-2.218m1.492 2.238c1.596 1.13 3.102 2.243 4.943 2.905-1.992 0-3.839-1.32-4.943-2.905m1.265-1.927c1.692-.166 3.283-.321 4.939-.668-1.415.964-3.317 1.16-4.938.668Z"/>
  <path fill="#FE8E00" d="M30.668 13.746c-.979 1.334-2.52 2.047-3.412 3.427-.863 1.255-1.621 3.172-3.237 3.568l-.015-.045c.707-.407 1.069-1.134 1.53-1.772.472-.652.939-1.314 1.516-1.912 1.164-1.094 2.092-2.735 3.618-3.266m-16.614 5.098c-.702-.03-.958.763-.898 1.38.055.647.412 1.244.863 1.716 2.143 2.113 6.775 3.101 9.103.838.502-.602.266-1.134-.03-1.781.678.356.652 1.39.2 1.917-2.403 2.765-9.85 1.124-10.362-2.665-.095-.582.367-1.927 1.12-1.395z"/>
  <path fill="#FE8E00" d="M17.759 21.644c-1.456-.441-3.257-1.089-3.779-2.674-.296-.954-.532-2.625.858-2.74 1.591-.136 3.132.356 4.642.767.999.302 1.982.648 2.93 1.104 1.024.507 2.234 1.24 1.225 2.464-1.27 1.937-3.95 1.626-5.876 1.084zm.08-.31c1.847.516 4.336.887 5.57-.934.909-1.05-.246-1.611-1.109-2.073-2.303-1.019-4.878-1.932-7.417-1.837-.511.06-.848.367-.833.904-.19 2.414 1.772 3.397 3.79 3.94Z"/>
  <path fill="#FE8E00" d="M14.672 19.888c-.707.517-.552 1.505-.607 2.278-.3-.718-.326-2.053.607-2.278"/>
  <path fill="#FE8E00" d="M14.303 19.35c-.758.101-.748.98-.783 1.576 0 .221.015.447.055.673-.446-.652-.396-2.449.723-2.248h.005Zm2.046 4.201c-.086-.823-.251-1.791.225-2.53l-.04.086c-.03-.692.251-3.221 1.39-2.409.11.12.176.266.21.417a1.1 1.1 0 0 0-.26-.366c-1.039-.562-1.074 1.786-1.124 2.398-.432.648-.346 1.631-.407 2.404z"/>
  <path fill="#FE8E00" d="M17.087 23.807c.015-.838-.15-1.731.311-2.484l-.035.065c.045-.682.688-3.733 1.671-2.263a.6.6 0 0 1-.06.507.65.65 0 0 0-.01-.477c-.888-1.164-1.29 1.752-1.395 2.288-.427.668-.346 1.596-.487 2.364z"/>
  <path fill="#FE8E00" d="M17.64 23.953c.101-.798.407-1.561.598-2.334.165-.507.497-1.671.692-2.148.066-.12.08-.23.216-.361.246-.216.698-.15.803.18.135.397-.025.804-.15 1.17-.171.441-.462 1.024-.698 1.32.11.411-.015.858-.206 1.214-.17.371-.361.738-.597 1.074.176-.803.773-1.465.743-2.303.205-.467 1.174-2.309.517-2.545-.231-.035-.332.126-.422.342a19 19 0 0 0-.808 2.082c-.11.803-.286 1.596-.682 2.314l-.005-.005Zm2.277-2.063c.401.868-.442 1.701-1.019 2.263.317-.783 1.08-1.37 1.02-2.263Z"/>
  <path fill="#FE8E00" d="M19.625 24.178c.637-.507 1.28-1.475.878-2.268.316-.502.652-1.009.903-1.546.126-.24.241-.537.05-.717-.18-.176-.531-.146-.747.04.176-.22.552-.336.828-.13.28.22.166.627.05.893a9 9 0 0 1-.858 1.53v-.135c.396.928-.316 1.912-1.104 2.338z"/>
  <path fill="#FE8E00" d="M20.544 24.103c.607-.522 1.18-1.42.808-2.198l-.07-.09.075-.076c.407-.431.928-.908 1.059-1.495a.48.48 0 0 0-.12-.311c-.146-.196-.442-.196-.658-.045.17-.19.527-.256.748-.04.597.627-.447 1.605-.878 2.062v-.166c.496.899-.191 1.917-.969 2.359z"/>
  <path fill="#FE8E00" d="M22.167 21.604c.889.517-.04 1.917-.667 2.278a6 6 0 0 0 .652-1.124c.201-.386.326-.793.015-1.159z"/>
  <path fill="#FE8E00" d="M22.722 21.298c.914.452.457 1.902-.35 2.213.536-.607.938-1.536.35-2.213m-2.802.592c.235-.587 1.49-2.916-.041-2.479a.7.7 0 0 1 .411-.176c1.24.221.126 2.138-.37 2.655m2.571-.447c.206-.381 1.044-1.425.462-1.68-.18-.066-.441-.036-.582.165.055-.256.361-.397.632-.341.919.316-.015 1.54-.512 1.856m-5.21-2.75c-.06-.286-.406-.471-.657-.366-.668.547-.708 1.631-.572 2.434l.015.09-.09.035c-.131.056-.261.241-.317.422-.165.602-.125 1.26-.105 1.887-.136-.633-.236-1.305-.085-1.947.075-.216.175-.447.441-.572l-.075.13c-.176-.883-.085-2.057.743-2.6.35-.095.697.171.707.487z"/>
  <path fill="#FE8E00" d="M16.281 18.563c0-.818-.848-.903-.968-.07-.096.627-.04 1.34.065 1.962l-.1.03c-.136.04-.276.216-.337.396-.195.593-.16 1.255-.13 1.882-.146-.632-.23-1.31-.06-1.947.08-.216.195-.441.476-.542l-.08.136c-.105-.798-.27-1.717.196-2.424.477-.507 1.069-.03.943.582z"/>
  <path fill="#FE8E00" d="M14.48 19.652c-.14-.683-.266-1.485.126-2.113.186-.29.642-.306.858-.035a.52.52 0 0 1 .045.437c-.01-.14-.04-.281-.13-.362-.969-.552-.808 1.556-.893 2.078z"/>
  <path fill="#FE8E00" d="M13.948 18.242c-.256-.532-.025-1.496.723-1.345.236.085.316.321.31.507-.16-.367-.496-.432-.747-.156-.22.256-.236.652-.28.994z"/>
  <path fill="#FE8E00" d="M14.396 16.495a.54.54 0 0 1 .727.076c.201.23.14.642-.215.632.396-.346-.146-.718-.517-.708z"/>
  <path fill="#FE8E00" d="M15.078 16.711c.226.241.723.542.738.01a.8.8 0 0 0-.096-.386.52.52 0 0 1 .276.371c.106.773-.818.648-.918.01z"/>
  <path fill="#FE8E00" d="M16.599 16.44c.512.452.05 1.104-.517.703a.55.55 0 0 1-.176-.402c.09.11.18.206.281.256.16.08.437.076.447-.165.01-.116-.015-.251-.035-.392"/>
  <path fill="#FE8E00" d="M16.711 16.736c.1.241.286.397.532.392.24.015.18-.346.21-.532.126.18.222.457.05.662-.33.312-.927-.115-.792-.521Z"/>
  <path fill="#FE8E00" d="M17.51 16.872c.076.27.241.472.527.466.311.03.316-.265.301-.521.09.12.166.27.126.456-.21.623-1.194.166-.954-.406z"/>
  <path fill="#FE8E00" d="M18.395 17.027c.13.241.261.502.552.522.332.07.342-.226.342-.491.085.13.155.285.105.476-.135.392-.753.291-.913-.035a.74.74 0 0 1-.086-.467z"/>
  <path fill="#FE8E00" d="M20.207 17.354c.226.326-.01.707-.406.672-.352-.045-.522-.412-.472-.723.14.246.286.487.492.487.286.04.366-.175.381-.436z"/>
  <path fill="#FE8E00" d="M21.099 17.675c.18.923-1.114.732-.869-.11.181.536.638.737.869.11"/>
  <path fill="#FE8E00" d="M21.072 17.84c.07.276.166.532.381.547.216.07.412-.075.482-.366a.43.43 0 0 1-.06.447c-.447.451-1.059-.096-.803-.628"/>
  <path fill="#FE8E00" d="M22.824 18.468c-.01.226-.14.502-.396.552-.271.045-.557-.13-.587-.402a.76.76 0 0 1 .09-.441c.045.24.04.532.306.602.261.115.417-.126.582-.306zm.962.817c-.397-.035-.532.096-.678.442-.29-.421.412-.903.678-.442"/>
  <path fill="#FE8E00" d="M22.743 18.638c.01.412-.03.703.447.743-.542.401-.868-.407-.447-.743m-6.937-1.58c.16.26.16.516 0 .782a.71.71 0 0 1 0-.782m.944-.146c.14.447.126.898-.05 1.33a1.92 1.92 0 0 1 .05-1.33m.777.146a2.7 2.7 0 0 1-.14 1.58 2.7 2.7 0 0 1 .14-1.58m.905.145c.015.637-.12 1.224-.336 1.822-.105-.628.045-1.26.336-1.822m.887.256c-.01.547-.176 1.029-.427 1.51-.065-.542.116-1.068.427-1.51m.733.411a1.9 1.9 0 0 1-.426 1.25 1.9 1.9 0 0 1 .426-1.25m.857.246a1.83 1.83 0 0 1-.487 1.205c.01-.447.18-.873.487-1.205m.884.306a1.56 1.56 0 0 1-.512 1.08c.025-.422.201-.794.512-1.08"/>
  <path fill="#FE8E00" d="M22.545 18.86a1.06 1.06 0 0 1-.467.867c.005-.351.176-.667.467-.868Zm2.734-3.198c-.472.979-1.095 1.952-1.998 2.58.668-.848 1.265-1.782 1.998-2.58m2.826 3.84c-.497 1.214-1.52 2.368-2.835 2.664 1.003-.893 1.786-1.822 2.835-2.665Z"/>
</svg>
