<svg xmlns="http://www.w3.org/2000/svg" width="22" height="19" fill="none" viewBox="0 0 22 19">
  <path fill="#FFF400" d="M16.75 12.367c.245.31.43.692.516 1.164.406 2.258-2.55 3.483-2.976 3.558s-1.069 0-1.38.547-.492-.246-.778-.136-.29.452-.727.02c-.437-.436-.984.347-2.695.312-1.204-.026-2.118-.447-2.54-1.275-.18-.351-.27-.773-.26-1.27-.793-.722-2.534-.08-2.876.226a1 1 0 0 1-.24.156c-.427.205-1.11.27-1.355-.156-.191-.326.135-.717.135-.717s-.868-2.675 1.762-4.497c2.629-1.826 5.213-.326 5.213-.326l.036.065c-.08.076-.146.211-.12.472.03.296.225.668.667.944q.156.104.366.185c.15.06.316.11.507.15q.21.043.466.066.226.022.482.015h.146c.095 0 .19-.01.286-.02.105-.01.21-.02.31-.04q.19-.031.362-.07a4.2 4.2 0 0 0 1.15-.457 3 3 0 0 0 .812-.678c.14-.17.231-.34.281-.496.206-.673-.436-.939-.436-.939.085-.195.12-.381.145-.522.04-.23-.015-.381-.145-.486a1 1 0 0 0-.312-.151l.367-.08s.376-1.154 1.315-2.098a4.2 4.2 0 0 1 1.023-.768 3.7 3.7 0 0 1 1.104-.381c2.53-.447 3.362 2.047 3.498 2.374.135.326.547.662.758.697s.32.582-.482.688c0 0 .738.26.712 1.47-.02 1.204-2.047 2.735-5.088 2.454h-.01Z"/>
  <path fill="#FFCF02" d="M16.24 5.06a4.4 4.4 0 0 0-1.023.768c-.879-.05-.793-1.119-.793-1.119s-.427-.376-.567-.913c-.095-.352-.085-1.767-.412-2.73.236.12 2.695 1.435 2.79 4z"/>
  <path fill="#FFF400" d="M13.444 1.066c.326.963.316 2.378.411 2.73.14.537.567.913.567.913s-.085 1.074.793 1.12A5.95 5.95 0 0 0 13.9 7.925l-.366.08c-.105-.03-.22-.05-.351-.07l-.09-.015a5 5 0 0 0-.452-.03 8 8 0 0 0-.497 0c-.166 0-.336.01-.522.02-.17.01-.351.025-.532.045-.175.015-.351.04-.532.065a14 14 0 0 0-.938.17c-.321-.125-1.59-.747-2.007-2.79a3.5 3.5 0 0 1-.015-1.344c.306-1.636 1.811-2.78 3.286-3.081 0 0 .522-.949 1.727-.828.416.04.677.421.843.923l-.01-.005Z"/>
  <path fill="#FFCF02" d="M13.845 9.17s.643.266.437.939a1.5 1.5 0 0 1-.281.496c.276-.496.12-.848-.015-1.023-.136-.171-.271-.176-.271-.176q.074-.118.125-.236z"/>
  <path fill="#FFCF02" d="M13.99 9.577c.135.175.29.527.015 1.023-.1.12-.221.246-.367.367 0 0 .191-.352.166-.904-.02-.34-.296-.401-.296-.401q.076-.075.13-.15l.086-.116s.135 0 .27.176z"/>
  <path fill="#FFCF02" d="M13.847 8.157c.13.105.185.255.145.486a2.3 2.3 0 0 1-.145.522 1.6 1.6 0 0 1-.211.352c.02-.04.17-.402.136-.768-.016-.146-.09-.216-.176-.231 0 0-.06-.08-.035-.19 0 0 .01-.046.025-.071.075-.146.26-.105.26-.105v.005Z"/>
  <path fill="#FFCF02" d="M13.85 8.157s-.186-.04-.26.105a.2.2 0 0 0-.026.07s-.196.146-.296.01a.42.42 0 0 1-.085-.296c.01-.06.005-.105.005-.105.13.02.245.04.35.07a.9.9 0 0 1 .312.15zm-.058 1.912c.03.551-.165.903-.165.903-.13.11-.276.21-.447.31 0 0 .306-.466.226-.867-.08-.402-.246-.477-.246-.477a2.3 2.3 0 0 0 .331-.266s.276.06.296.402z"/>
  <path fill="#FFCF02" d="M13.765 8.754c.035.366-.115.727-.135.767q-.062.075-.13.151-.137.136-.332.266c.015-.03.226-.487.24-.898a.3.3 0 0 0-.155-.266c0-.166.191-.281.336-.256.086.015.161.085.176.23zm.522 8.335s-.778 1.19-2.434 1.29-3.146-.553-3.146-.553c1.711.04 2.258-.742 2.695-.31.436.436.436.09.727-.02.292-.111.467.682.778.135s.954-.467 1.38-.547z"/>
  <path fill="#FFCF02" d="M13.592 8.523c-.15-.03-.336.09-.336.25a.26.26 0 0 0-.186-.024v-.01c0-.211.056-.537.056-.537a.4.4 0 0 0 .055-.156c0 .015-.015.16.085.296s.276.005.296-.01c-.025.11.035.19.035.19h-.005Zm-.176 1.887c.08.406-.226.868-.226.868-.136.08-.291.16-.452.226 0 0 .301-.422.256-.848-.045-.427-.21-.517-.21-.517.145-.066.27-.13.38-.206 0 0 .166.07.247.477z"/>
  <path fill="#FFCF02" d="M13.252 8.774c.09.05.155.15.155.266-.01.411-.225.868-.24.898a2.5 2.5 0 0 1-.382.206c.01-.056.126-.597.126-1.034a.4.4 0 0 0-.04-.196c.055-.095.125-.145.195-.16.065-.015.13 0 .186.03zm-.157-.848c.03 0 .06.01.09.015 0 0 0 .045-.005.105a.5.5 0 0 1-.055.156.2.2 0 0 1-.1.075c-.176.045-.296-.03-.351-.296 0-.03-.015-.055-.026-.08.176.005.332.015.452.03z"/>
  <path fill="#FFCF02" d="M13.125 8.197s-.05.326-.055.537v.01c-.07.015-.14.065-.196.16a.23.23 0 0 0-.26-.125c.01-.206.04-.658.04-.658a.24.24 0 0 0 .02-.155c.055.266.17.341.35.296a.16.16 0 0 0 .101-.075zm-.133 2.463c.045.427-.256.849-.256.849a6 6 0 0 1-.377.14s.156-.547.191-.858a.7.7 0 0 0-.14-.507q.202-.066.376-.14s.165.09.21.517z"/>
  <path fill="#FFCF02" d="M12.872 8.91q.039.075.04.195c0 .437-.115.984-.125 1.034a4 4 0 0 1-.376.14s.08-.366.065-.873a.7.7 0 0 0-.12-.411.36.36 0 0 1 .25-.211c.1-.02.206.01.261.125zm-.204-.934c.01.05.005.105-.02.155-.03.06-.09.106-.186.12-.221.03-.301-.265-.301-.265-.005-.045-.02-.085-.02-.09.18-.005.346 0 .496 0q.024.036.025.08z"/>
  <path fill="#FFCF02" d="M12.647 8.126s-.03.447-.04.658a.35.35 0 0 0-.251.21c-.06-.085-.14-.13-.226-.13a8 8 0 0 1 0-.713.28.28 0 0 0 .03-.175s.08.296.301.266c.096-.015.156-.06.186-.12zm-.237 2.158s.175.2.14.507c-.035.306-.19.858-.19.858-.1.03-.211.06-.322.09v-.01s.04-.587.04-.858c0-.27-.125-.466-.125-.466q.248-.053.452-.12z"/>
  <path fill="#FFCF02" d="M12.135 8.87c.085 0 .165.044.226.13.07.095.115.235.12.411.015.507-.065.873-.065.873a5 5 0 0 1-.452.12c.005-.04.1-.657.01-1.128a.6.6 0 0 0-.095-.246c.08-.11.176-.16.26-.16zm.028-.89a.25.25 0 0 1-.03.176q-.029.052-.11.08c-.221.071-.347-.22-.347-.22-.02-.06-.055-.1-.055-.1.186-.01.356-.02.522-.02 0 .005.015.04.02.09z"/>
  <path fill="#FFCF02" d="M12.14 8.156s-.021.487 0 .713c-.086 0-.177.05-.262.16-.055-.08-.12-.105-.185-.095-.03-.216-.04-.722-.04-.722.054-.06.05-.136.03-.196 0 0 .125.29.346.22a.2.2 0 0 0 .11-.08Zm-.184 2.249s.125.195.125.466-.045.858-.045.858v.01q-.173.04-.361.07s-.02-.486-.06-.747a27 27 0 0 0-.096-.567v-.01c.156-.02.301-.05.437-.08"/>
  <path fill="#FFCF02" d="M11.967 9.276c.09.471 0 1.088-.01 1.129a8 8 0 0 1-.437.08c-.005-.085-.06-.768-.055-1.16a1 1 0 0 1 .025-.26.26.26 0 0 1 .196-.136c.065-.005.13.02.186.096.04.055.075.135.095.246zm-.293-1.26c.02.06.03.13-.03.196a.2.2 0 0 1-.075.05c-.211.1-.377-.13-.407-.186 0-.005-.005-.01-.005-.01a.4.4 0 0 0-.075-.11c.18-.02.361-.03.532-.045 0 0 .035.045.055.1zm-.058 3.046c.04.261.06.748.06.748q-.151.024-.31.04s-.06-.15-.191-.542c-.196-.592-.116-.763-.116-.763.116-.01.18-.02.18-.02q.143-.014.277-.035v.01s.055.306.095.567z"/>
  <path fill="#FFCF02" d="M11.649 8.207s.015.511.04.722a.24.24 0 0 0-.196.136 1 1 0 0 0-.025.26c.005-.17-.08-.27-.18-.315-.05-.196-.086-.703-.096-.833V8.15a.2.2 0 0 0-.02-.075c.03.05.196.286.406.186.03-.015.056-.035.076-.05l-.005-.005Z"/>
  <path fill="#FFCF02" d="M11.467 9.326c-.005.391.05 1.069.056 1.159q-.134.021-.276.035s-.066.01-.181.02c-.01-.04-.22-.823-.136-1.3.01-.055.02-.1.04-.145.04-.11.191-.14.317-.085.1.045.19.145.18.316m-.287 1.977c.13.391.19.542.19.542q-.142.014-.286.02h-.145c-.01-.02-.12-.22-.276-.678-.16-.481-.08-.627-.08-.627.195 0 .366-.01.486-.02 0 0-.08.17.116.763z"/>
  <path fill="#FFCF02" d="M11.19 8.177c.01.125.046.637.096.833-.125-.056-.276-.02-.316.085-.015.045-.03.09-.04.145l-.04-.04c-.106-.326-.206-.993-.206-.993.06.07.16.16.29.14.131-.02.212-.075.217-.17Z"/>
  <path fill="#FFCF02" d="M11.188 8.151v.026c0 .095-.085.155-.216.17-.13.015-.23-.075-.29-.14l-.046-.06q-.001-.008-.01-.016.001-.001-.005-.01a.5.5 0 0 0-.07-.095v-.01q.269-.036.532-.065c.035.04.06.08.075.11l.005.01c.01.025.02.05.02.075zm-.121 2.389c-.12.01-.286.025-.486.025 0 0-.412-1.034-.176-1.36l.045-.05c.17-.176.362-.025.442.05l.04.04c-.08.477.125 1.26.135 1.3zm-.134 1.33c-.17 0-.331 0-.482-.015a4 4 0 0 1-.336-.733c-.145-.426.035-.577.035-.577q.225.021.422.02s-.08.15.08.628c.156.456.266.657.276.677z"/>
  <path fill="#FFCF02" d="M10.687 8.207s.1.672.206.993c-.08-.075-.271-.226-.442-.05-.065-.2-.24-.788-.256-.833.046.065.13.13.261.116.16-.02.261-.13.186-.292l.045.06z"/>
  <path fill="#FFCF02" d="M10.64 8.146c.076.156-.02.266-.185.291a.26.26 0 0 1-.26-.115q-.023-.031-.036-.055l-.015-.03a1 1 0 0 0-.085-.13q.248-.044.491-.081v.01q.045.051.076.095l.005.01s.005.01.01.015zm-.062 2.419c-.13 0-.276-.005-.422-.02-.296-.436-.346-.918-.286-1.204.03-.13.08-.226.146-.251a.3.3 0 0 1 .391.11c-.236.331.176 1.36.176 1.36z"/>
  <path fill="#FFCF02" d="M10.448 9.15s-.03.03-.045.05c0 0-.12-.22-.392-.11-.07-.19-.23-.627-.245-.682.055.055.14.11.28.075.141-.03.141-.136.106-.226.005.015.02.035.035.055.015.045.19.632.256.833zm-.322 1.972c.14.407.321.703.336.733a4 4 0 0 1-.467-.065s-.21-.331-.336-.753c-.125-.421.07-.557.07-.557q.22.044.432.065s-.18.15-.035.577"/>
  <path fill="#FFCF02" d="M9.617 8.192q.204-.045.446-.09a.6.6 0 0 0 .1.16c.036.09.036.19-.105.226-.14.03-.23-.02-.28-.076v-.005l-.03-.03q-.01-.023-.026-.045c-.05-.075-.12-.13-.12-.13q.014.001.02-.005zm.037 2.845c.125.421.336.753.336.753a3 3 0 0 1-.507-.15s-.16-.207-.276-.598c-.15-.497.11-.692.11-.692q.114.06.241.09c.05.015.106.025.156.04 0 0-.196.135-.07.557z"/>
  <path fill="#FFCF02" d="M9.772 8.407c.02.056.176.492.246.683-.06.025-.115.115-.145.246-.005-.015-.106-.306-.316-.286-.025 0-.055.01-.08.015-.07-.15-.161-.397-.161-.397a.25.25 0 0 0-.015-.185s.175.226.386.08c.085-.06.085-.13.055-.2.01.01.015.02.03.03z"/>
  <path fill="#FFCF02" d="M9.873 9.34c-.06.287-.015.768.286 1.205-.14-.015-.286-.03-.432-.065 0 0-.15-.2-.336-.693-.115-.29-.11-.491-.04-.607a.25.25 0 0 1 .21-.125c.211-.02.312.27.317.286h-.005Zm-.13-.968c.03.066.03.14-.055.201-.206.14-.386-.08-.386-.08a.37.37 0 0 0-.18-.166c.135-.045.295-.09.47-.13 0 0 .071.055.121.13 0 .005.01.025.025.045z"/>
  <path fill="#FFCF02" d="M9.71 8.322s.02.03.026.045a.1.1 0 0 1-.025-.045Zm-.534 1.948c-.02-.036-.311-.603-.331-.94-.01-.17.05-.26.12-.305a.28.28 0 0 1 .206-.04c.125.025.17.18.176.2-.07.116-.076.316.04.607.19.492.336.693.336.693a2 2 0 0 1-.156-.04 2 2 0 0 1-.24-.09q-.076-.037-.146-.08z"/>
  <path fill="#FFF400" d="M9.616 8.192s-.015 0-.02.005c-.176.04-.337.085-.472.13-.301.1-.517.216-.632.351h-.005a.45.45 0 0 0-.106.402 2 2 0 0 0 .241.582c.055.09.116.186.19.276l-.014.01s-.12-.005-.216.085l-.035-.065s-2.585-1.5-5.214.326c-1.52-.28-1.52-2.584-1.52-2.584s-.934-1.044-.718-2.088C1.31 4.58 2.55 4.298 2.55 4.298s.783-.718 2.414-1.09c1.63-.37 2.63.844 2.63.844-.08.416-.08.868.014 1.345C8.03 7.439 9.3 8.06 9.616 8.187z"/>
  <path fill="#FFCF02" d="M9.217 11.042c.116.391.276.597.276.597a2 2 0 0 1-.366-.186c-.25-.25-.391-.717-.366-.973.025-.246.256-.321.27-.326q.076.061.151.115.07.044.146.08s-.261.191-.11.693Zm.101-2.369s.09.246.16.397a.23.23 0 0 0-.13.11c0-.015-.045-.175-.175-.2a.28.28 0 0 0-.206.04s-.035-.05-.08-.086c0 0 .155-.13.005-.266.05.04.18.12.32.09a.14.14 0 0 0 .101-.085z"/>
  <path fill="#FFCF02" d="M9.298 8.488c.03.065.036.13.015.185a.14.14 0 0 1-.1.086c-.14.03-.27-.05-.321-.09-.015-.01-.025-.02-.025-.02-.17-.131-.356 0-.387.024q.18-.201.633-.35a.35.35 0 0 1 .18.165zM9.18 10.27a1 1 0 0 1-.151-.116q-.119-.1-.216-.221a2 2 0 0 1-.19-.276l-.006-.01c-.04-.07-.246-.457-.06-.673.14-.16.266-.11.341-.045a.4.4 0 0 1 .08.086c-.07.045-.125.135-.12.306.015.336.311.903.331.938z"/>
  <path fill="#FFCF02" d="M9.023 10.154s-.246.08-.27.326c-.026.25.115.723.365.973-.436-.28-.637-.647-.667-.943-.025-.26.04-.401.12-.472.096-.09.216-.085.216-.085l.015-.01q.098.114.216.22zm-.127-1.486c.15.136-.005.266-.005.266-.075-.065-.2-.115-.341.045-.186.216.025.603.06.673a2.2 2.2 0 0 1-.236-.572.44.44 0 0 1 .106-.402h.005c.03-.025.216-.155.386-.025 0 0 .01.01.025.02zM5.91 15.282c-.01.497.08.919.26 1.27 0 0-2.333.502-3.377-.888a1 1 0 0 0 .24-.156c.342-.306 2.088-.948 2.876-.226Z"/>
  <path fill="#FE8E00" d="M9.681 8.227c-1.6-.537-2.449-2.47-2.218-4.07.246-1.61 2.043-3.041 3.332-3.227.442-.803 1.807-1.344 2.47-.516.526.782.546 1.77.631 2.67 0 .621.151 1.173.608 1.6-.066.487.145 1.104.707 1.134v.025c-.602.02-.898-.612-.868-1.139l.025.065c-1.008-.843-.607-2.308-.988-3.422-.15-.542-.407-1.164-1.004-1.094a1.7 1.7 0 0 0-1.435.758c-.02.035-.02.035-.055.04-1.561.266-3.051 1.505-3.222 3.136-.16 1.57.612 3.312 2.017 4.04"/>
  <path fill="#FE8E00" d="M13.422 1.05c1.535.713 2.84 2.254 2.81 4.01-.16-1.726-1.37-3.136-2.81-4.01"/>
  <path fill="#FE8E00" d="M13.883 7.926c1.049-3.598 5.49-4.943 7.015-.899.15.302.442.578.783.663.17.095.196.296.14.441-.13.312-.446.382-.687.427l.025-.226c.703.331.888 1.15.778 1.857-.698 1.987-3.443 2.499-5.214 2.158 1.777.05 4.24-.372 4.948-2.223.11-.567-.06-1.325-.587-1.576l-.377-.18.402-.046c.22-.025.467-.1.537-.266.04-.085.01-.196-.06-.216-.653-.19-.828-.893-1.084-1.44-.919-2.022-3.302-2.102-4.873-.798-.763.587-1.305 1.496-1.736 2.319z"/>
  <path fill="#FE8E00" d="M14.09 11.047c2.142.035 4.245 2.128 2.905 4.24-.602.879-1.53 1.41-2.479 1.777-.467.175-1.049.025-1.425.401-.146.116-.186.402-.422.412-.2-.02-.31-.281-.461-.322-.09-.014-.191.096-.266.161-.1.12-.321.1-.432 0-.115-.08-.195-.186-.286-.216-.19-.065-.436.05-.672.126-1.4.512-3.388.562-4.356-.773-.617-.908-.522-2.178.216-2.96.662-.764 1.565-1.461 2.444-1.827-1.546.963-3.729 2.664-2.44 4.636.92 1.21 2.746 1.16 4.07.733.241-.06.492-.2.803-.095.15.065.226.185.316.246.106.07.161.1.251.02.1-.066.186-.201.387-.176.16.055.226.18.316.261.23.25.316-.166.482-.291.416-.391 1.008-.236 1.46-.421 3.688-1.43 3.573-5.17-.396-5.932z"/>
  <path fill="#FE8E00" d="M8.707 17.826c1.817.618 4.235.949 5.58-.737-1.22 1.837-3.824 1.54-5.58.738Zm-.175-7.848C5.25 8.428.6 10.776 1.688 14.75c.025.08.025.06-.026.12-.286.352-.165.764.302.809.466.065.848-.17 1.219-.417.798-.361 2.077-.667 2.71.03-.818-.552-1.957-.185-2.73.266-.497.437-1.536.663-1.897-.07-.095-.311.04-.577.2-.783l-.024.12c-1.019-3.828 3.974-7.02 7.09-4.852z"/>
  <path fill="#FE8E00" d="M6.158 16.547c-1.149.296-2.664.18-3.377-.888.848.933 2.203.998 3.377.888m2.551-5.068-1.551.316c-1.596.185-2.845 1.35-3.884 2.499l-.02-.015c.522-1.295 1.821-2.028 3.101-2.409.713-.311 1.616-.587 2.354-.396zM7.576 4.062c-1.38-1.355-3.608-.768-5.003.266-1.114.29-1.736 1.324-1.215 2.403.146.332.347.653.578.924 0 1.033.336 2.288 1.385 2.644-1.2-.16-1.616-1.55-1.651-2.6l.035.091a3.3 3.3 0 0 1-.587-.963c-.552-1.24.235-2.324 1.4-2.57 1.385-1.114 3.889-1.957 5.058-.2zm4.041 8.54c.22.467.24.959.21 1.456.09.788.357 1.716-.02 2.449-.155-.823-.03-1.621-.065-2.44-.1-.46-.266-1.013-.125-1.465m1.098.106c.351.512.597 1.114.627 1.736-.206-.587-.437-1.144-.627-1.736m.973-.592c.506.396.822 1.049.822 1.696a5.7 5.7 0 0 0-.822-1.696m-3.019.592c-.206.697-.427 1.375-.437 2.103-.17-.713.066-1.486.437-2.103m-1.019-.311c-.391.512-.762 1.008-.943 1.626 0-.653.432-1.255.943-1.626m4.851-2.359c.532-.451 1.144-.737 1.777-.993.933-.577 2.077-1.37 3.201-.999a9.9 9.9 0 0 0-3.161 1.074c-.552.361-1.185.823-1.822.923zm1.16-2.193c-.341.638-.793 1.23-1.38 1.661.462-.557.888-1.124 1.38-1.66Zm-1.227 2.871c.712-.12 1.475-.156 2.147-.427-.607.437-1.425.482-2.147.427m-2.298-9.289c.326.683.356 1.51.3 2.248.056 1.24.156 2.63-.325 3.764-.016-.883.125-2.128.215-3.011.136-.999-.25-2.037-.19-3.006zm1.309 4.17c.085.637-.12 1.29-.422 1.847.14-.622.337-1.215.422-1.847m-2.523-.487c.482.663.612 1.536.557 2.334-.126-.798-.236-1.59-.557-2.333Zm-1.067.904c.377.406.658.953.643 1.515-.16-.532-.412-1.003-.643-1.515m-.765.346c.3.432.512.908.883 1.28-.487-.236-.753-.783-.883-1.28"/>
  <path fill="#FE8E00" d="M2.094 5.858c.903.02 1.741.402 2.479.898 1.294.678 2.524 1.596 3.648 2.454-1.44-.431-2.419-1.656-3.688-2.378-.783-.372-1.682-.618-2.44-.974Zm4.215 1.074c.652.321 1.264.763 1.706 1.345-.567-.457-1.15-.873-1.706-1.345m.781-.356c.527.366 1.014.808 1.365 1.355-.482-.427-.949-.853-1.365-1.355M4.633 8.608c.823-.17 1.716.05 2.398.527-.767-.321-1.565-.522-2.398-.527m.793 2.278c.813-.506 1.902-.692 2.795-.306-.938-.21-1.907-.035-2.795.306m3.367-.938c-.412.09-.352.612-.196.898 1.064 1.706 4.958 1.024 5.645-.773.13-.376-.1-.692-.401-.908.391.08.612.557.482.928-.718 1.927-4.667 2.61-5.791.783-.161-.286-.211-.963.256-.933z"/>
  <path fill="#FE8E00" d="M11.254 10.58c-1.17.17-2.524-.03-2.9-1.33-.146-.296 0-.652.296-.792 1.314-.593 2.815-.653 4.24-.618.612.046 1.39.176 1.12.994-.252 1.244-1.672 1.626-2.76 1.746zm-.015-.125c1.049-.12 2.409-.462 2.65-1.651.25-.713-.477-.793-1.004-.833a12.2 12.2 0 0 0-3.382.311c-.377.11-.853.2-1.049.557-.095.607.537 1.38 1.109 1.535.537.146 1.12.151 1.676.08Z"/>
  <path fill="#FE8E00" d="M9.324 10.35c-.251.406.03.883.165 1.284-.3-.301-.592-.979-.165-1.285Z"/>
  <path fill="#FE8E00" d="M9.021 10.154c-.451.28-.09.938.096 1.294-.372-.245-.708-1.154-.096-1.294m1.913 1.716c-.216-.411-.497-.848-.407-1.335v.05c-.155-.361-.552-1.67.211-1.51.08.04.146.1.196.17-.11-.12-.306-.2-.422-.095-.306.371.03.999.136 1.415-.086.422.16.904.29 1.305z"/>
  <path fill="#FE8E00" d="M11.362 11.845c-.166-.372-.452-1.024-.361-1.29-.116-.451-.221-.933-.11-1.4.01-.09.11-.21.22-.206.22-.03.386.191.351.377.005-.196-.175-.342-.336-.306-.17.025-.146.26-.16.426 0 .366.08.738.16 1.094-.085.366.16.944.24 1.305z"/>
  <path fill="#FE8E00" d="M11.673 11.81c-.066-.698-.256-1.436-.261-2.138.015-.266-.12-.703.23-.798.181-.045.322.135.357.286.095.361.075.984-.005 1.224.226.377.055.949.04 1.35-.01-.236.03-.783-.005-1.003a.9.9 0 0 0-.12-.311v-.02c.04-.251.145-1.762-.357-1.31-.07.346.015 1.039.015 1.4.066.351.106.943.11 1.32zm.732-1.526c.387.361.126.959-.05 1.365 0-.467.266-.923.05-1.365"/>
  <path fill="#FE8E00" d="M12.73 11.508c.221-.39.347-1.018-.02-1.334.056-.321.126-.648.14-.974.016-.15.011-.321-.12-.376-.13-.055-.306.03-.37.175.05-.145.21-.286.396-.24.2.06.21.3.21.441-.01.321-.045.643-.12.959l-.03-.066c.396.387.236 1.04-.075 1.42l-.01-.005Z"/>
  <path fill="#FE8E00" d="M13.183 11.283c.206-.397.321-1.044-.1-1.32.12-.271.23-.557.266-.848.03-.136-.015-.261-.136-.321-.11-.07-.27-.01-.346.115.05-.13.216-.24.371-.175.442.225.1.888-.02 1.229l-.03-.085c.442.351.301 1.013-.005 1.405"/>
  <path fill="#FE8E00" d="M13.496 9.672c.567.095.376.968.13 1.3.06-.397.291-1.054-.13-1.3"/>
  <path fill="#FE8E00" d="M13.71 9.4c.558.046.628.874.282 1.2.15-.421.16-.978-.281-1.2Zm-1.302.884c0-.361.16-1.781-.537-1.254.075-.156.276-.266.436-.15.387.35.216.968.1 1.404Z"/>
  <path fill="#FE8E00" d="M13.63 9.521c.05-.25.095-.507.07-.762-.005-.116-.07-.196-.186-.191-.105 0-.236.075-.261.206-.025-.14.1-.281.25-.307.533-.015.312.788.126 1.054ZM10.407 9.2c-.095-.145-.311-.145-.411-.05-.231.432-.01 1.014.24 1.4-.306.326.09.944.226 1.3-.226-.386-.652-.908-.341-1.355l-.01.08c-.271-.416-.472-1.028-.16-1.475.16-.12.386-.055.461.1z"/>
  <path fill="#FE8E00" d="M9.868 9.34c-.17-.43-.622-.275-.507.166.08.342.256.693.442.984l-.045.035c-.246.356.09.898.23 1.26a2.8 2.8 0 0 1-.34-.628c-.086-.23-.176-.521.04-.732l-.016.085a2.9 2.9 0 0 1-.421-.994c-.106-.491.472-.737.617-.18v.005Z"/>
  <path fill="#FE8E00" d="M9.174 10.27c-.261-.292-.753-1.491.055-1.3.075.055.1.135.11.21-.055-.16-.216-.206-.326-.13-.11.06-.12.21-.095.351.035.25.18.617.256.868Z"/>
  <path fill="#FE8E00" d="M8.615 9.662c-.23-.2-.326-.758.09-.833.141-.005.226.1.262.196-.15-.156-.347-.116-.412.075-.06.176.015.381.06.567z"/>
  <path fill="#FE8E00" d="M8.48 8.678c.196-.351.778.03.412.256.12-.256-.196-.336-.412-.256"/>
  <path fill="#FE8E00" d="M8.868 8.648c.366.17.547-.03.246-.326.08.005.166.055.216.13.216.377-.291.497-.467.196z"/>
  <path fill="#FE8E00" d="M9.584 8.197c.351.12.256.557-.12.466a.3.3 0 0 1-.171-.17c.3.17.532.025.29-.296Z"/>
  <path fill="#FE8E00" d="M9.707 8.322c.11.11.24.136.351.09.126-.04.025-.215 0-.316.1.07.206.186.16.326-.105.226-.496.131-.511-.1"/>
  <path fill="#FE8E00" d="M10.148 8.227c.201.286.627.14.412-.201.07.045.14.105.16.206.025.361-.577.33-.572-.01z"/>
  <path fill="#FE8E00" d="M10.625 8.121c.23.251.662.226.461-.17.07.05.141.11.156.22-.03.357-.557.287-.612-.05z"/>
  <path fill="#FE8E00" d="M11.617 7.91c.406.372-.342.668-.457.156.12.095.246.186.351.146.15-.036.156-.166.106-.301Z"/>
  <path fill="#FE8E00" d="M12.134 7.89c.281.432-.416.603-.466.126.2.24.482.236.466-.126"/>
  <path fill="#FE8E00" d="M12.165 7.98c.166.302.522.262.477-.084.055.055.09.145.06.24-.13.322-.562.166-.537-.15z"/>
  <path fill="#FE8E00" d="M13.178 7.936c.136.326-.27.572-.471.28a.43.43 0 0 1-.046-.245c.166.356.437.316.517-.035m.666.22c-.206.06-.256.176-.251.367-.236-.15.025-.547.25-.367Z"/>
  <path fill="#FE8E00" d="M13.174 8.041c.09.2.11.366.381.286-.19.316-.532-.03-.381-.286m-3.854.632q.205.149.16.397a.38.38 0 0 1-.16-.397m.445-.271q.25.303.251.688a1.05 1.05 0 0 1-.25-.688Zm.422-.085c.17.25.256.532.256.833a1.46 1.46 0 0 1-.256-.833m.494-.11c.14.32.19.647.206.998a1.6 1.6 0 0 1-.206-.998m.512-.056c.11.282.125.563.095.859-.145-.266-.16-.567-.095-.859m.452.056c.1.24.115.477.04.722-.1-.23-.115-.481-.04-.722m.491-.051c.09.241.09.472 0 .713a1 1 0 0 1 0-.713m.514-.03a.86.86 0 0 1-.04.658.86.86 0 0 1 .04-.658"/>
  <path fill="#FE8E00" d="M13.12 8.197c.07.19.05.366-.055.537a.58.58 0 0 1 .055-.537"/>
</svg>
