<svg xmlns="http://www.w3.org/2000/svg" width="92" height="109" fill="none" viewBox="0 0 92 109" xmlns:xlink="http://www.w3.org/1999/xlink">
  <g clip-path="url(#a)">
    <path fill="#092E8C" d="m9.24 104.29-.655 1.845c34.765-8.413 43.362-30.463 44.163-32.744 4.321 4.58 13.108 4.438 16.382-1.783a10.4 10.4 0 0 0 1.047-2.955s3.37 12.567-.758 23.412c-5.407 14.198-26.263 28.016-84.76 26.328 0 0-3.849-1.205-7.787-9.276l32.367-4.822v-.005Z"/>
    <path fill="#FFF400" d="M5.52 106.827s-13.597 2.328-20.279 2.698c-6.677.37-1.44-5.567-1.44-5.567l25.036-2.675z"/>
    <path fill="#EF4B23" d="M5.519 102.72s-9.203 2.201-18.487 2.571v-6.032L6.97 94.877l-1.45 7.839v.004Z"/>
    <path fill="#FFF400" d="M5.518 97.49s-2.465 4.932-8.748 2.054c-1.005 2.688-4.332 6.335-9.241 2.304v-5.662L6.83 90.704l1.313 3.756-2.625 3.035z"/>
    <path fill="#EF4B23" d="M10.463 91.558s-9.91 4.562-22.928 6.355V81.59l20.61.81 2.318 9.157Z"/>
    <path fill="#FFF400" d="M5.518 85.052s-2.057.304-3.777-1.598c-1.9 2.267-5.265 4.477-8.871.356-2.356 1.726-4.839 1.91-5.336-.356v-4.282l19.823-.479-1.834 6.364z"/>
    <path fill="#3C6BFF" d="M60.851 46.172a14 14 0 0 0-1.82-.024c.617-2.073 0-3.557 0-3.557v-.023c1.934-.138 3.65-.83 4.858-1.864.393 1.185 2.592 2.03 4.36.972a40 40 0 0 1 4.592 2.02c1.948 1.385 4.763 2.504 8.108 1.271 5.289-1.954 3.232-6.35 3.232-6.35.27-.355.517-.73.735-1.11 0 0 2.27-1.213 4.26.589s.749 4.884.749 4.884 2.787 1.058 1.65 4.164c-.977 2.67-4.802 2.214-4.802 2.214s-.8 3.343-5.838 3.343q-.453-.001-.957-.038c-1.137-.085-2.308-.403-3.521-.858-1.251-.47-2.56-1.081-3.905-1.736-1.74-.834-3.573-1.735-5.507-2.46-1.948-.736-4-1.295-6.184-1.438z"/>
    <path fill="#3D6CFF" d="M68.514 17.691s-.208-1.721 1.275-3.253c.455-.465 1.066-.91 1.886-1.29a6.5 6.5 0 0 1 1.578-.507c2.616-.503 4.62.863 5.308 2.02 0 0 1.64-1.94 4.199-1.38 2.563.56 5.667 5.505 3.502 10.783-.673 1.646-1.763 2.613-2.934 3.168l-.028.024c-1.251-1.67-3.753-2.366-6.824-1.64-.701.16-1.436.402-2.19.725-.61.256-1.16.535-1.672.82a13.3 13.3 0 0 0-2.72 2.006c-1.991 1.916-2.436 3.684-2.436 3.684a2.9 2.9 0 0 0-1.75.532h-.004s-1.644-1.205-2.412-4.06c0-.004-.005-.014-.005-.023-.023-.119-.052-.214-.066-.261l-.014-.052c-.251-1.077-.375-2.376-.247-3.917.057-.702.176-1.352.341-1.95.83-2.973 2.906-4.78 5.204-5.424z"/>
    <path fill="#FFF400" d="M84.01 28.711c2.882 2.044 2.726 5.681.901 8.792q-.328.57-.734 1.11c-1.555 2.09-3.863 3.788-6.426 4.348-4.237.915-6.384-.45-7.384-1.55-.019-.024-.038-.053-.066-.077-.09-.113-.17-.218-.232-.294-.048-.066-.085-.113-.11-.151-.255-.38-.35-.65-.35-.65.175-.313.327-.659.45-1.024.195.061.398.109.593.156h.01c6.894 1.603 13.05-4.32 13.486-8.706a5.4 5.4 0 0 0-.142-1.954h.005Z"/>
    <path fill="#FFF400" d="M84.178 38.613s2.057 4.395-3.232 6.35c-3.345 1.232-6.16.113-8.108-1.272a13.3 13.3 0 0 1-2.47-2.285c1 1.105 3.148 2.466 7.384 1.55 2.569-.56 4.872-2.257 6.426-4.348z"/>
    <path fill="#00E2F6" d="M84.007 28.711a5.4 5.4 0 0 1 .142 1.954c-.436 4.386-6.591 10.31-13.487 8.706a8.4 8.4 0 0 0 1.564.148 9 9 0 0 0 1.701-.166c1.91-.385 3.63-1.385 4.848-2.817 1.422-1.66 2.043-3.794 1.706-5.838-.379-2.328-1.89-4.163-4-5.088 3.072-.726 5.574-.024 6.825 1.64q.485.636.706 1.457z"/>
    <path fill="#FF6D96" d="M81.15 10.54s1.929.403 1.611 2.74c-2.559-.559-4.198 1.38-4.198 1.38.521-3.21-2.114-5.647-2.114-5.647.957-.517 1.867-1.29 2.682-2.371 0 0 2.569.54 2.02 3.898Z"/>
    <path fill="#EF4B23" d="M82.595 64.908c.74 3.395-.455 5.923-2.17 7.834 0 0 3.156 4.263 1.99 8.516-1.17 4.25-4.152 6.037-4.152 6.037s2.18 3.457.574 8.944c-1.602 5.486-8.345 5.548-8.345 5.548s-2.962 10.172-15.762 8.076c9.037-4.335 14.368-10.48 17.022-17.64 4.028-10.88.294-25 .294-25 .583-.68.791-1.272.791-1.272 6.74-1.55 5.431-6.81 5.431-6.81s3.592 2.376 4.332 5.767z"/>
    <path fill="#FFF400" d="M80.93 52.707s2.09 4.13-2.663 6.434c0 0 1.308 5.26-5.43 6.81 0 0-.21.588-.792 1.271a5.6 5.6 0 0 1-1.867 1.432c.488-2.632-.228-4.98-1.213-6.81h.004c1.465-.844 2.65-1.764 3.597-2.698a13.8 13.8 0 0 0 2.512-3.296 12.2 12.2 0 0 0 1.37-4.04c1.213.456 2.383.768 3.52.859q.504.036.958.038z"/>
    <path fill="#FF6D96" d="M80.473 30.704c.337 2.043-.289 4.173-1.706 5.837-1.218 1.432-2.938 2.433-4.847 2.817a9 9 0 0 1-1.702.166 8 8 0 0 1-1.564-.147h-.01c-.194-.048-.397-.095-.592-.157a7.6 7.6 0 0 0 .375-1.996h.01c3.625-.887 6.103-3.68 5.606-6.435-.3-1.66-1.617-2.954-3.427-3.628a15 15 0 0 1 1.673-.82 13 13 0 0 1 2.19-.726c2.108.92 3.625 2.76 4 5.089z"/>
    <path fill="#FFF400" d="M76.448 9.013s2.64 2.437 2.114 5.647c-.692-1.157-2.692-2.522-5.308-2.02.336-1.835-.455-2.584-.54-2.66 1.241-.029 2.526-.304 3.734-.967m-.41 21.775c.498 2.755-1.98 5.549-5.606 6.435h-.01c.034-.701-.023-1.399-.199-2.02a3.24 3.24 0 0 0-.327-6.037 13.5 13.5 0 0 1 2.72-2.005c1.81.668 3.133 1.963 3.427 3.627z"/>
    <path fill="#FF6D96" d="M76.446 51.81a12.2 12.2 0 0 1-1.37 4.04c-1.141-1.863-3.904-2.361-3.904-2.361h-.005c1.313-1.916 1.374-3.414 1.374-3.414 1.351.654 2.654 1.27 3.905 1.735"/>
    <path fill="#FF6D96" d="M75.08 55.85a13.8 13.8 0 0 1-2.511 3.296c-.763-2.21-3.597-3.296-3.597-3.296a11.6 11.6 0 0 0 2.199-2.366h.005s2.763.503 3.905 2.366Z"/>
    <path fill="#EF4B23" d="M72.71 9.98c.086.076.878.825.541 2.656a6.6 6.6 0 0 0-1.578.512c-.82.38-1.436.825-1.886 1.29l-1.104-.987c.507 0 .92-.408.92-.92a.917.917 0 0 0-1.683-.512l-1.365-.17a4.63 4.63 0 0 0 1.232-2.76c1.327.478 3.085.948 4.929.896l-.005-.005Z"/>
    <path fill="#FFF400" d="M20.598 116.601c14.875-.398 26.007-2.836 34.134-6.734 9.038-4.334 14.369-10.48 17.018-17.64 4.028-10.883.29-25 .29-25a5.6 5.6 0 0 1-1.863 1.427s3.364 12.567-.759 23.412c-4.606 12.101-21.297 21.927-48.74 22.994z"/>
    <path fill="#FF6D96" d="M72.131 32.249a3.24 3.24 0 0 1-1.91 2.954c-.26-.948-.786-1.721-1.61-2.082a3 3 0 0 0-1.152-.265s.45-1.779 2.436-3.694a3.24 3.24 0 0 1 2.236 3.082z"/>
    <path fill="#092E8C" d="M72.544 50.07s-.062 1.498-1.374 3.41a11.6 11.6 0 0 1-2.2 2.366q-.34.278-.724.564c1.45-4.8-1.08-8.616-1.209-8.806 1.934.725 3.763 1.626 5.507 2.461z"/>
    <path fill="#FF6D96" d="M68.969 55.85s2.834 1.081 3.596 3.296c-.952.939-2.132 1.854-3.596 2.698h-.005c-1.318-2.46-3.128-3.978-3.128-3.978.92-.47 1.72-.958 2.407-1.451q.384-.286.726-.565"/>
    <path fill="#EF4B23" d="M69.956 40.89c.023.032.066.085.109.151a8 8 0 0 0 .298.37 13.4 13.4 0 0 0 2.47 2.286 40 40 0 0 0-4.593-2.02c.27-.162.536-.375.782-.636.218-.232.408-.498.578-.801 0 0 .095.27.35.65z"/>
    <path fill="#FFF400" d="M70.225 35.204a6.3 6.3 0 0 1 .199 2.02 7.4 7.4 0 0 1-.375 1.996c-.118.36-.27.712-.45 1.025-.17.303-.36.569-.578.8a3.5 3.5 0 0 1-.782.636c-1.768 1.058-3.967.214-4.36-.972 1.133-.967 1.82-2.224 1.82-3.613 0-1.005-.36-1.95-.995-2.76 0 0 .355-.536 1-.953.45-.308 1.042-.555 1.748-.522.356.01.74.086 1.152.266.825.355 1.35 1.133 1.611 2.081z"/>
    <path fill="#FF6D96" d="M68.968 61.844c.986 1.831 1.701 4.173 1.213 6.81a10.3 10.3 0 0 1-1.047 2.954c-3.275 6.222-12.061 6.364-16.383 1.783a9 9 0 0 1-1.308-1.783 13 13 0 0 1-.72-1.493c-.716-1.764-.905-3.362-.83-4.728.162-2.94 1.55-4.794 1.55-4.794a22 22 0 0 0 2.156.128c-2.113 10.309 4.63 14.098 9.322 12.609 3.564-1.129 6.777-7.592.754-14.51a24 24 0 0 0 2.17-.959s1.805 1.522 3.128 3.983z"/>
    <path fill="#EF4B23" d="m68.683 13.452 1.104.986c-1.479 1.532-1.275 3.253-1.275 3.253-2.298.645-4.374 2.452-5.203 5.425.133-.536-.54-2.053-1.938-2.243-1.398-.18-2.01.318-2.01.318.029-.759-1.587-2.461-4.208-2.248 5.782-.939 6.848-5.496 6.848-5.496 2.166.076 3.635-.63 4.55-1.607l1.364.17a.917.917 0 0 0 .763 1.432zm-1.114 2.409a1.33 1.33 0 1 0-1.327 1.328c.735 0 1.327-.593 1.327-1.328m-3.905 2.252a.92.92 0 1 0-1.84.001.92.92 0 0 0 1.84 0Z"/>
    <path fill="#FFF400" d="M68.683 11.607a.92.92 0 1 1-.92.92.924.924 0 0 1 .92-.92m-1.651 36.001c.128.185 2.659 4.003 1.209 8.806a18 18 0 0 1-2.408 1.447 23 23 0 0 1-2.17.953 23 23 0 0 1-1.929.65 33 33 0 0 1-2.71.697q-1.544.327-2.972.455c-.848.085-1.678.118-2.464.104a20 20 0 0 1-2.157-.133 20.5 20.5 0 0 1-9.075-3.263c-.46-3.224-.028-5.06 0-5.178 2.905-1.621 5.986-3.11 8.938-4.201.133.1 2.346 1.82 5.298 1.612 4.611-.327 4.27-3.224 4.246-3.38 2.185.141 4.237.701 6.185 1.436l.01-.005Z"/>
    <path fill="#FF6D96" d="M36.08 11.759c-.876-1.821.48-3.628 1.962-3.78 1.574-.16 2.408.522 3.147 1.575h.005c.218.308.422.65.644 1.005.967 1.589 2.83 2.073 3.848 1.271 0 0 2.005 4.88 7.587 4.714 5.583-.166 7.156-4.714 7.156-4.714s2.285.247 3.46-.944c1.601-1.621.63-3.2.63-3.2s.626-1.442 2.308-.901c.678.218 1.052 1.17.962 2.295a4.65 4.65 0 0 1-1.232 2.76c-.915.976-2.384 1.683-4.55 1.607 0 0-1.066 4.557-6.847 5.496a7 7 0 0 0-.64.085c-6.346.698-9.19-3.409-9.559-4.846 0 0-2.952 1.622-6.634-.35-.095-.053-.185-.1-.28-.157-1.019-.588-1.635-1.262-1.962-1.92z"/>
    <path fill="#FFF400" d="M66.244 14.523a1.33 1.33 0 0 1 1.327 1.332 1.33 1.33 0 1 1-1.327-1.333Z"/>
    <path fill="#EF4B23" d="M65.709 33.377h.005c-.645.422-1 .958-1 .958-.9-1.157-2.36-2.048-4.1-2.47.531.118 1.498.241 2.129-.27.758-.627.663-1.712.554-2.267.763 2.854 2.412 4.054 2.412 4.054z"/>
    <path fill="#FFF400" d="M64.711 34.33c.635.812.996 1.755.996 2.76 0 1.385-.692 2.647-1.82 3.614-1.209 1.034-2.924 1.726-4.858 1.864a12 12 0 0 1-.715.024c-2.062 0-3.924-.626-5.265-1.636-1.318-.996-2.128-2.357-2.128-3.865 0-.797.227-1.55.635-2.239.412-.697 1.019-1.313 1.763-1.82l.033-.02c1.313-.882 3.052-1.427 4.962-1.427.744 0 1.464.08 2.142.237.047.01.1.024.156.034 1.735.422 3.194 1.313 4.1 2.47z"/>
    <path fill="#3D6CFF" d="M64.515 7.69s.971 1.58-.63 3.202c-1.171 1.19-3.46.943-3.46.943s-1.573 4.548-7.156 4.714c-5.582.166-7.587-4.714-7.587-4.714-1.024.802-2.886.318-3.848-1.27-.223-.356-.427-.703-.645-1.006 1.147-.512 2.233-1 3.266-1.446 0 0 3.416 4.737 10.155 3.433 6.734-1.304 7.374-4.804 7.374-4.804.806.266 1.645.579 2.526.949z"/>
    <path fill="#FFF400" d="M63.668 58.814c6.019 6.919 2.81 13.382-.753 14.511-4.692 1.484-11.435-2.3-9.322-12.604a22 22 0 0 0 2.465-.11v.01s-.645 3.656 1.445 6.79 6.426 3.899 5.782-3.655c-.138-1.603-.716-3.03-1.545-4.287a29 29 0 0 0 1.928-.655M49.151 30.082c-.08-1.304-.54-2.85-1.777-4.467 0 0-.696-1.039.143-2.47.881-1.523 2.857-1.371 3.407-.911 0 0 .592-2.618 3.592-3.196.223-.024.431-.052.64-.086 2.62-.218 4.236 1.485 4.208 2.248 0 0 .611-.498 2.01-.318 1.397.185 2.07 1.707 1.938 2.243-.166.598-.29 1.247-.342 1.95-.128 1.54-.004 2.84.247 3.916l.014.053q.023.134.066.26c0 .01.005.02.005.024.11.555.209 1.64-.554 2.267-.63.512-1.602.393-2.128.27-.052-.01-.1-.024-.157-.033a9.5 9.5 0 0 0-2.142-.237c-1.914 0-3.649.545-4.961 1.427l-.033.019c-.223.128-1.446.75-2.72.152-1.105-.517-1.384-1.693-1.441-2.48q.014-.291-.01-.617v-.01z"/>
    <path fill="#EF4B23" d="M63.287 63.75c.645 7.555-3.696 6.791-5.782 3.657-2.09-3.135-1.445-6.79-1.445-6.79v-.01a25 25 0 0 0 2.971-.456 31 31 0 0 0 2.711-.697c.83 1.262 1.408 2.69 1.545 4.292z"/>
    <path fill="#FFF400" d="M62.742 19.033a.92.92 0 1 1 0-1.84.92.92 0 0 1 0 1.84"/>
    <path fill="#00E2F6" d="M61.989 6.742s-.64 3.5-7.374 4.803C47.876 12.85 44.46 8.112 44.46 8.112c1.938-.825 3.734-1.517 5.525-1.977a2 2 0 0 1-.047.199 1.504 1.504 0 0 0 1.005 1.76 4.93 4.93 0 0 0 3.79-.29c.65-.323.958-1.076.74-1.769-.057-.17-.11-.355-.175-.555 2.033.048 4.208.432 6.691 1.262"/>
    <path fill="#092E8C" d="M60.852 46.172c.02.157.36 3.054-4.246 3.381-2.952.214-5.17-1.512-5.298-1.612 2.611-.972 5.128-1.626 7.34-1.773a16 16 0 0 1 2.21.004z"/>
    <path fill="#3C6BFF" d="M38.776 54.252a85 85 0 0 0-3.924 2.565c-1.507 1.048-2.81 2.03-3.833 2.884a11 11 0 0 1-.797.611c-5.435 3.841-12.87 2.988-15.5 1.366-3.801-2.343-1.536-6.506-1.536-6.506s-2.995-.294-3.725-2.926c-.735-2.632 2.625-4.974 2.625-4.974s-2.118-1.973-.293-5.63c1.815-3.636 5.445-2.712 6.416-.616.796 4.306 3.99 10.385 13.084 8.422 3.417-.74 6.024-2.248 7.98-3.945l.11-.09c.502-.408 2.758-2.134 6.378-3.595 1.877 2.58 6.28 2.357 7.284-.849 1.341 1.01 3.199 1.636 5.265 1.636q.362-.001.716-.023v.023s.616 1.485 0 3.557q-.19.006-.389.019c-2.208.147-4.725.801-7.34 1.774-2.953 1.085-6.033 2.58-8.938 4.196a87 87 0 0 0-3.588 2.115z"/>
    <path fill="#3D6CFF" d="M55.48 6.04a1.476 1.476 0 0 1-.739 1.769 4.96 4.96 0 0 1-3.791.29 1.5 1.5 0 0 1-1.005-1.76q.021-.1.048-.2c.066-.27.132-.573.208-.89 0 0 1.052.672 2.53.672 1.925 0 2.347-1.161 2.347-1.161q.126.383.232.73c.066.194.118.384.175.555z"/>
    <path fill="#FF6D96" d="M54.434 2.825c.218.626.436 1.304.64 1.93 0 0-.422 1.161-2.346 1.161-1.48 0-2.531-.673-2.531-.673.156-.664.332-1.404.512-2.105 0 0 1.862 1.057 3.724-.313Z"/>
    <path fill="#FFF400" d="M53.96 1.54c.147.374.303.81.47 1.285-1.863 1.37-3.725.313-3.725.313.146-.579.293-1.134.426-1.598.611-2.106 2.104-1.878 2.83 0Z"/>
    <path fill="#EF4B23" d="M44.953 14.186c.37 1.437 3.213 5.539 9.558 4.847-3 .578-3.592 3.196-3.592 3.196-.55-.46-2.526-.612-3.407.91-.834 1.437-.142 2.47-.142 2.47q-.272-.354-.593-.71c-2.81-3.107-6.047-1.414-6.047-1.414s-.199-4.187-4.473-6.07l1.19-.659a.92.92 0 1 0 .185-1.82l.691-1.105c3.677 1.972 6.635.35 6.635.35zm1.843 5.767a.92.92 0 0 0-1.838 0 .92.92 0 0 0 1.838 0m-3.635-1.84a1.33 1.33 0 1 0-1.327 1.333 1.33 1.33 0 0 0 1.327-1.333m10.151 14.918c-.744.508-1.35 1.129-1.763 1.821 0 0-1.312-1.171-3.231-.981 0 0 .79-1.266.834-3.168.056.787.336 1.958 1.44 2.48 1.275.598 2.498-.024 2.72-.152"/>
    <path fill="#FFF400" d="M51.439 71.608a9 9 0 0 0 1.308 1.783c-.825 2.347-9.895 25.621-47.234 33.436v-4.106c37.415-7.464 45.073-32.194 45.206-32.612.194.484.43.987.72 1.494z"/>
    <path fill="#FF6D96" d="M51.441 60.583s-1.388 1.858-1.55 4.798h-.014a24.4 24.4 0 0 1-5.194-1.474c.536-2.371 2.35-4.301 2.35-4.301 1.318.45 2.787.801 4.408.977"/>
    <path fill="#FFF400" d="M51.553 34.857a4.34 4.34 0 0 0-.635 2.238c0 1.508.81 2.864 2.127 3.865-1 3.21-5.407 3.428-7.283.849a4.5 4.5 0 0 1-.479-.85c-.53-1.26-.697-2.432-.573-3.442.208-1.754 1.27-3.03 2.767-3.476a4 4 0 0 1 .839-.161c1.92-.19 3.232.982 3.232.982z"/>
    <path fill="#EF4B23" d="M50.719 70.105c-.133.422-7.786 25.152-45.205 32.616v-5.235c.45 1.233 1.218 2.034 2.521 1.697 2.033-.53 3.232-1.963 3.938-3.57.46 1.071 1.204 1.726 2.412 1.413 2.18-.57 3.403-2.186 4.08-3.927.455.54 1.072.797 1.92.574 2.085-.545 3.293-2.044 3.985-3.699 1.028.835 2.483 1.21 4.332-.374 1.511-1.285 2.246-2.969 2.573-4.558h.024c.597.56 1.464.764 2.682.441 2.966-.777 4.085-3.082 4.412-5.406h.01c.895.541 1.876.636 2.923 0 4.896-2.968 3.389-9.1 3.389-9.1.44.233.938.422 1.483.532 2.502.493 4.516-1.409 4.516-1.409z"/>
    <path fill="#FFF400" d="M33.943 64.903c-.521-.076-1.123-.29-1.782-.726-2.151-1.432-1.943-3.874-1.943-3.874.27-.19.54-.394.796-.612a61 61 0 0 1 3.834-2.883c.156.19 1.654 2.1 4.431 4.102a25.8 25.8 0 0 0 5.402 2.992 24.5 24.5 0 0 0 5.194 1.475h.015c-.076 1.366.113 2.968.829 4.723 0 0-2.014 1.901-4.516 1.408a5.3 5.3 0 0 1-1.484-.53 7.1 7.1 0 0 1-2.45-2.158s-1.748 1.389-4.293 0c-2.55-1.385-2.104-4.25-2.104-4.25s-.75.494-1.93.323z"/>
    <path fill="#3D6CFF" d="M32.249 27.417c-1.711.02-3.275.683-4.81 1.56-2.18 1.252-4.299 2.95-6.654 3.875-4.658 1.816-8.905-2.471-6.881-7.455a9 9 0 0 1 1.199-2.063c.673-.887 1.37-1.57 2.057-2.086 3.781-2.84 7.459-.754 7.459-.754s1.052-1.911 3.43-3.068c1.356-.66 3.138-1.082 5.39-.769 1.099.152 2.023.418 2.819.764 4.274 1.882 4.473 6.07 4.473 6.07s3.237-1.693 6.047 1.413c.218.237.413.474.593.711 1.236 1.617 1.696 3.163 1.777 4.467v.01c-.005.142-.01.355.01.616-.048 1.902-.835 3.163-.835 3.163-.265.024-.55.08-.839.166-1.497.441-2.563 1.721-2.767 3.476h-.033c-.834-.062-1.332-.512-1.787-1.228l-.114-.19c-.237-.398-.469-.873-.744-1.39-.744-1.431-1.786-3.229-4.037-4.964a18 18 0 0 0-1.484-1.025c-1.54-.948-2.943-1.308-4.265-1.294z"/>
    <path fill="#FF6D96" d="M47.03 59.606s-1.815 1.93-2.35 4.3a26 26 0 0 1-5.403-2.991c.905-2.054 3.085-3.59 3.085-3.59a20.5 20.5 0 0 0 4.668 2.28Z"/>
    <path fill="#FFF400" d="M45.876 20.873a.92.92 0 1 1 0-1.84.92.92 0 0 1 0 1.84"/>
    <path fill="#EF4B23" d="M45.288 40.956c.133.313.294.592.479.849-3.62 1.46-5.872 3.186-6.379 3.594 4.033-3.556 5.289-7.895 5.289-7.895h.033c-.118 1.02.047 2.19.573 3.452z"/>
    <path fill="#FFF400" d="M40.717 71.2c1.128-1.489 1.554-2.366 1.554-2.366s.872 1.342 2.45 2.158c0 0 1.512 6.136-3.388 9.1-1.047.635-2.028.54-2.924 0h-.01c.413-2.87-.388-5.762-.388-5.762a36 36 0 0 0 2.701-3.13zM18.208 41.017a13 13 0 0 1-.214-1.949c-.09-3.371 1.351-5.562 2.801-6.178.28-.129.569-.185.839-.185 1.673 0 1.303 2.627 1.118 3.893-.18 1.266-.393 8.142 5.464 8.673 6.137.56 11.398-3.95 13.767-7.435a4 4 0 0 0 .17-.257q.457-.69.735-1.294c.455.716.953 1.166 1.787 1.223 0 0-1.26 4.344-5.289 7.896-.076.061-.109.09-.109.09-1.957 1.698-4.564 3.2-7.98 3.945-9.094 1.964-12.293-4.116-13.085-8.422zM41.84 16.78c.734 0 1.326.594 1.326 1.329a1.33 1.33 0 1 1-1.327-1.328Z"/>
    <path fill="#FF6D96" d="M42.779 36.09c.038.067.075.133.113.19a10 10 0 0 1-.734 1.294q-.079.129-.17.257c-1.351 1.844-3.493 3.224-6.052 3.646-4.853.806-9.393-2.1-10.118-6.482-.36-2.177.28-4.315 1.62-6.013h-.004c1.535-.882 3.1-1.546 4.81-1.565-.995 1.133-1.597 2.584-1.597 4.168 0 3.633 3.137 6.573 7.009 6.573 2.014 0 3.829-.797 5.113-2.072zm-.413 21.23s-2.18 1.541-3.085 3.595c-2.772-2.001-4.275-3.908-4.431-4.102a92 92 0 0 1 3.924-2.566c.08.1 1.294 1.56 3.587 3.069z"/>
    <path fill="#092E8C" d="M42.366 52.142c-.029.114-.46 1.954 0 5.178-2.294-1.508-3.507-2.968-3.587-3.068a78 78 0 0 1 3.587-2.11"/>
    <path fill="#FFF400" d="M42.034 34.7c.275.517.508.992.744 1.39-1.284 1.276-3.099 2.072-5.113 2.072-3.876 0-7.009-2.94-7.009-6.572 0-1.589.597-3.035 1.597-4.168 1.318-.015 2.725.346 4.265 1.294q.824.505 1.483 1.024c-.867.555-1.43 1.452-1.43 2.457 0 1.678 1.568 3.04 3.492 3.04.734 0 1.412-.195 1.971-.536Z"/>
    <path fill="#FF6D96" d="M37.994 29.736c2.251 1.736 3.294 3.538 4.038 4.965a3.8 3.8 0 0 1-1.972.536c-1.924 0-3.492-1.366-3.492-3.04 0-1.005.564-1.901 1.43-2.456z"/>
    <path fill="#EF4B23" d="M42.266 68.834s-.426.877-1.554 2.367a36 36 0 0 1-2.701 3.13 49 49 0 0 1-3.71 3.46 62 62 0 0 1-3 2.377 70 70 0 0 1-3.185 2.233 72 72 0 0 1-2.83 1.793 84 84 0 0 1-3.009 1.74 87 87 0 0 1-3 1.593 80 80 0 0 1-3.369 1.646q-1.427.674-2.947 1.328a148 148 0 0 1-4.218 1.75c-1.043.407-2.118.82-3.227 1.223v-8.422c2.08.095 3.454-1.247 4.345-2.836l.038.024c4.682 1.366 7.042-.683 8.237-3.082l.018.01c.768.9 1.868 1.241 3.413.559 2.73-1.21 4.118-3.348 4.814-5.401 8.497-1.238 7.597-9.148 7.559-9.423 1.18.17 1.929-.322 1.929-.322s-.45 2.864 2.104 4.248c2.545 1.39 4.293 0 4.293 0z"/>
    <path fill="#00E2F6" d="M35.937 41.482c2.56-.422 4.701-1.802 6.052-3.647-2.37 3.486-7.63 7.995-13.767 7.436-5.857-.532-5.649-7.407-5.464-8.674s.555-3.893-1.118-3.893a2.1 2.1 0 0 0-.839.185l-.014-.033c2.355-.92 4.473-2.618 6.653-3.874h.005c-1.341 1.702-1.98 3.84-1.62 6.017.724 4.382 5.264 7.289 10.117 6.483z"/>
    <path fill="#FFF400" d="M34.303 77.787a49 49 0 0 0 3.71-3.462s.802 2.893.39 5.762c-.328 2.323-1.45 4.628-4.413 5.406-1.217.322-2.085.114-2.682-.436h-.023c.54-2.57.023-4.89.023-4.89a61 61 0 0 0 3-2.375z"/>
    <path fill="#EF4B23" d="m38.325 13.835-.692 1.105a.92.92 0 0 0-.185 1.821l-1.19.66a10.5 10.5 0 0 0-2.82-.764c-2.255-.313-4.037.109-5.387.768-.63-2.641.635-4.386.635-4.386 2.184.066 4.672-.266 7.392-1.28.327.659.948 1.327 1.962 1.92.095.057.185.104.28.156z"/>
    <path fill="#FFF400" d="M37.636 14.936a.92.92 0 1 1-.184 1.82.92.92 0 0 1 .185-1.82Zm-7.449 51.371c1.341-1.295 1.976-2.125 1.976-2.125.66.436 1.261.65 1.782.726.033.275.938 8.185-7.558 9.422.938-2.726.649-5.287.649-5.287a43 43 0 0 0 2.17-1.816c.36-.323.692-.631.981-.916zm-2.069 16.089a63 63 0 0 0 3.184-2.233s.512 2.323-.023 4.884c-.328 1.594-1.062 3.272-2.574 4.557-1.853 1.58-3.308 1.21-4.331.375 1.137-2.694.915-5.79.915-5.79.995-.598 1.938-1.2 2.829-1.793m.566-69.362s-1.265 1.755-.635 4.392c-2.38 1.157-3.431 3.068-3.431 3.068s-3.677-2.087-7.46.749c.005-2.68 1.399-3.817 1.399-3.817-.332-3.77 2.867-6.236 2.867-6.236a17.2 17.2 0 0 0 7.26 1.845Z"/>
    <path fill="#EF4B23" d="M19.338 73.993a54 54 0 0 1-4.19 1.983 58 58 0 0 1-3.748 1.446 55 55 0 0 1-2.98.958q-1.41.418-2.906.787v-4.605c2.176.067 3.45-.995 4.194-2.243l.024.015c5.28 1.318 6.568-4.96 6.568-4.96 4.09.82 8.763 1.133 12.9-.157a41 41 0 0 1-2.17 1.816 44 44 0 0 1-3.825 2.708 55 55 0 0 1-3.872 2.248z"/>
    <path fill="#EF4B23" d="M5.52 79.167s-11.644 2.424-17.985 0v-9.119l22.928 3.144z"/>
    <path fill="#FFF400" d="M23.213 71.75a45 45 0 0 0 3.824-2.707s.29 2.565-.649 5.287c-.701 2.049-2.09 4.192-4.815 5.401-1.544.683-2.644.342-3.412-.56l-.019-.009c1.157-2.342 1.204-5.017 1.204-5.164a53 53 0 0 0 3.872-2.247h-.005Zm-.939 14.18a84 84 0 0 0 3.01-1.741s.222 3.096-.915 5.79c-.697 1.65-1.9 3.153-3.986 3.699-.843.222-1.464-.034-1.92-.574 1.034-2.632.82-5.563.82-5.563l-.009-.019a87 87 0 0 0 3-1.593Z"/>
    <path fill="#FFF400" d="M15.913 89.168a93 93 0 0 0 3.37-1.645l.009.019s.213 2.925-.82 5.562c-.678 1.74-1.9 3.358-4.08 3.927-1.209.313-1.953-.342-2.412-1.414.829-1.877.976-3.988.985-5.112 1.02-.44 2-.886 2.948-1.332z"/>
    <path fill="#FF6D96" d="M21.429 11.19s-3.199 2.46-2.867 6.235c0 0-1.393 1.138-1.398 3.818-.692.517-1.384 1.204-2.057 2.09a9.4 9.4 0 0 0-1.199 2.064c-.114-.176-2.516-3.988.83-8.413 0 0-1.166-5.211 3.63-7.82 0 0 1.085 1.03 3.066 2.026z"/>
    <path fill="#FFF400" d="M15.15 75.98c1.506-.64 2.9-1.304 4.188-1.982 0 .147-.047 2.822-1.203 5.164-1.195 2.4-3.555 4.448-8.237 3.083l-.038-.024c1.185-2.106 1.522-4.628 1.54-4.785a60 60 0 0 0 3.75-1.45v-.005Zm-1.537-9.228a48 48 0 0 0 2.687.626s-1.289 6.279-6.568 4.96l-.024-.014a7.3 7.3 0 0 0 .75-1.797l1.478.27c1.331-1.384 1.402-3.812 1.402-3.812.18-.147.27-.233.27-.233z"/>
    <path fill="#EF4B23" d="M13.613 66.752s-.09.086-.27.233c-.412.336-1.303 1-2.587 1.645a15.7 15.7 0 0 1-5.237 1.598V63.85s3.407 1.655 8.099 2.902z"/>
    <path fill="#EF4B23" d="M5.518 63.85s-10.952-4.396-17.985-13.553v15.654s6.663 5.53 20.61 3.741z"/>
    <path fill="#FFF400" d="M13.343 66.984s-.071 2.428-1.403 3.813l-1.478-.27a8.5 8.5 0 0 0 .308-1.873l-.01-.02a14.4 14.4 0 0 0 2.588-1.645zM8.746 92.246a145 145 0 0 0 4.217-1.74c-.01 1.123-.156 3.234-.985 5.111-.706 1.608-1.9 3.04-3.938 3.571-1.304.337-2.076-.465-2.522-1.698v-4.02c1.11-.404 2.185-.817 3.228-1.224"/>
    <path fill="#FFF400" d="m10.755 68.63.01.02s-.02.83-.308 1.872a7.3 7.3 0 0 1-.749 1.798c-.744 1.242-2.019 2.304-4.194 2.243v-1.57H6.52c1.331-1.39 1.62-3.3 1.62-3.3v-.015c.99-.299 1.868-.668 2.612-1.048zm.647 8.802c-.02.156-.356 2.679-1.54 4.784-.891 1.589-2.266 2.931-4.346 2.836v-2.134h1.403c1-1.128 1.36-3.334 1.497-4.533a60 60 0 0 0 2.981-.953z"/>
    <path fill="#FFF400" d="M8.14 69.678v.014s-.28 1.911-1.616 3.3H5.519v-2.764c.948-.114 1.82-.308 2.62-.55Zm.28 8.702c-.143 1.2-.498 3.405-1.498 4.533H5.519v-3.746a59 59 0 0 0 2.905-.787z"/>
    <path fill="#FFF400" d="M5.521 70.228s-11.643.872-17.984-4.277v7.53s3.346 1.826 6.786-.398c1.564 1.702 4.317 1.811 5.597.109 2.28 1.47 5.601 1.37 5.601 1.37"/>
    <path fill="#000" d="M65.573 37.091c-.431 5.34-8.198 6.492-12.004 4.007-3.34-2.044-3.284-5.932.038-7.962 3.748-2.494 11.582-1.37 11.966 3.95zm.265 0c-.37-5.752-8.402-7.156-12.496-4.358-3.436 2.177-3.38 6.497.038 8.66 4.042 2.802 12.131 1.436 12.458-4.302"/>
    <path fill="#000" d="M51.573 34.839c-1.38-1.38-3.815-1.622-5.389-.394-2.213 1.868-2.009 5.842-.241 7.943 1.99 2.323 6.454 1.773 7.127-1.423.005-.028-.038-.043-.047-.014a3.68 3.68 0 0 1-1.82 1.944c-1.597.783-3.654.394-4.905-.849-1.46-1.598-2.156-4.438-.82-6.325 1.37-1.897 4.166-2.134 6.057-.85.024.024.057-.018.033-.037zm13.159-.494c1.157-1.351 3.199-1.74 4.56-.521 1.582 1.602 1.127 4.244.208 6.074-1.076 2.238-4.18 2.784-5.635.816.56 1.693 2.929 2.067 4.37 1.28.772-.394 1.35-1.105 1.705-1.873.9-1.92.958-5.572-.862-6.985-1.464-1.053-3.597-.342-4.388 1.18-.015.03.023.053.042.03Z"/>
    <path fill="#000" d="M65.72 33.359c-2.042-2.139-2.724-5.235-2.681-8.123.142-2.898 1.91-5.733 4.558-6.914 1.744-.83 3.806-.877 5.673-.29-1.697-1.038-4.033-1.024-5.905-.218-2.64 1.139-4.156 3.898-4.412 6.668-.308 2.214-.327 4.614.787 6.634.483.887 1.104 1.721 1.943 2.285.028.02.057-.023.028-.042h.01Z"/>
    <path fill="#000" d="M68.535 17.691c.095-4.628 7.327-6.771 9.952-2.987a.082.082 0 0 0 .133.01c2.075-2.178 5.08-1.727 6.62.805 2.426 3.58 1.882 9.484-1.905 11.737 4.436-1.897 4.933-8.427 2.298-12.017-1.734-2.66-4.956-2.916-7.141-.635l.132.01c-1.27-1.997-3.99-2.78-6.193-2.006-2.18.645-4.275 2.66-3.953 5.083 0 .033.057.029.053-.005z"/>
    <path fill="#000" d="M67.486 32.856c1.137-2.807 3.649-4.78 6.317-6.041a15 15 0 0 1 3.616-1.238c2.421-.498 5.535.256 6.355 2.864.943 3.39-1.545 6.615-4.1 8.579-2.7 2.129-6.298 2.973-9.648 2.195 5.038 1.911 10.975-1.09 13.435-5.71 2.09-3.826.455-7.914-4.118-8.246-4.616-.38-10.796 3.064-11.857 7.602z"/>
    <path fill="#000" d="M69.572 40.249c2.156 4.989 9.136 3.367 12.572.678 3.706-2.547 6.61-9.356 1.839-12.23 3.97 3.334 1.303 9.176-2.014 12.007-1.754 1.627-4.071 2.338-6.436 2.328-2.284.072-4.753-.678-5.91-2.802-.009-.033-.061-.014-.047.019z"/>
    <path fill="#000" d="M69.902 40.85c1.327 2.258 3.635 3.998 6.236 4.477.35.105.93.162 1.29.223 2.937.327 6.947-.986 7.302-4.367.062-.892-.095-1.888-.564-2.59.185.826.337 1.717.161 2.538-.322 1.896-2.052 3.134-3.767 3.703-.986.365-2.067.579-3.114.54-.204-.032-.753-.09-.952-.123-.93-.218-1.82-.654-2.621-1.157a19 19 0 0 1-3.92-3.276c-.018-.024-.06 0-.042.028l-.01.005Z"/>
    <path fill="#000" d="M84.924 37.527c1.464-.702 3.346-.38 4.403.877 1.085 1.219.98 3.073.45 4.52a.15.15 0 0 0 .085.194c.763.337 1.431.991 1.678 1.792.46 1.636-.507 3.557-2.2 3.984-.81.265-1.705.327-2.553.256a.225.225 0 0 0-.233.156c-1.308 3.547-6.042 3.609-9.108 2.608-3.407-1.114-6.544-2.987-9.91-4.253-7.5-3.106-13.86-1.162-20.87 2.115a85.6 85.6 0 0 0-13.951 8.294c-1.446 1.052-2.758 2.29-4.388 3.058-1.583.787-3.313 1.276-5.071 1.499-4.834.654-12.828-.683-9.852-7.341a.255.255 0 0 0-.2-.365c-1.26-.166-2.558-.816-3.212-1.95-1.247-2.067.53-4.329 2.189-5.557a.176.176 0 0 0 .019-.265c-1.625-1.755-1.047-4.572.265-6.355 1.365-2.091 4.625-2.034 5.735.27.014.029.061.01.047-.023-.483-1.105-1.635-1.854-2.839-1.93-2.601-.166-4.198 2.56-4.478 4.85-.128 1.205.166 2.495 1.033 3.434l.019-.265c-1.853 1.308-3.715 3.774-2.379 6.055.725 1.29 2.118 2.025 3.55 2.234l-.195-.37c-.853 1.674-1.052 3.836.071 5.425 1.104 1.588 3.024 2.229 4.83 2.565 3.6.65 7.416.19 10.695-1.45 1.65-.788 2.995-2.059 4.445-3.135 4.313-3.234 8.928-6.084 13.781-8.436 6.952-3.334 13.212-5.345 20.657-2.096 3.36 1.327 6.431 3.276 9.876 4.42 3.303 1.114 8.308.943 9.654-2.922l-.233.161c1.593.114 3.389-.156 4.484-1.427 1.355-1.764.957-4.453-1.252-5.306l.086.194c.545-1.55.602-3.5-.588-4.761-1.132-1.266-3.08-1.56-4.573-.792-.033.014 0 .062.024.047z"/>
    <path fill="#000" d="M42.87 36.27c-2.365 4.335-6.777 7.83-11.673 8.707-3.488.602-6.781-.322-7.838-4.04-.417-1.37-.54-2.85-.389-4.277.347-1.926.46-5.184-2.464-3.889-3.104 1.935-3.094 6.307-2.232 9.456 1.673 6.164 6.772 8.777 12.866 7.36 4.56-.963 8.701-3.68 11.336-7.536.967-1.39 1.773-2.888 2.313-4.51a.12.12 0 0 0-.071-.146 1.92 1.92 0 0 1-1.432-.783c-1-1.418-1.582-3.13-2.7-4.495-1.441-1.86-3.36-3.4-5.526-4.32-4.768-2.096-9.004 2.067-12.91 4.144-3.094 1.902-7.05 1.29-8.255-2.433-.658-2.186.233-4.557 1.635-6.26 1.692-2.242 4.55-3.74 7.379-3.067.545.114 1.1.299 1.573.54a.28.28 0 0 0 .36-.1c.882-1.417 2.29-2.56 3.839-3.205 3.128-1.214 7.118-.668 9.644 1.598 1.265 1.143 2.061 2.803 2.246 4.486.01.114.133.18.232.133 2.232-1.053 4.749-.19 6.199 1.74 2.038 2.262 2.805 5.738 1.293 8.484-.023.028.029.057.043.028.678-1.2.953-2.603.858-3.978-.104-1.38-.63-2.708-1.393-3.855-1.574-2.514-4.251-3.984-7.147-2.703l.233.132c-.318-3.78-3.47-6.482-7.1-6.98-3.549-.702-7.468.706-9.402 3.865l.36-.1c-2.738-1.427-6.222-.792-8.416 1.333-1.095.99-2.038 2.247-2.63 3.604-1.133 2.49-.583 5.809 1.806 7.374 4.544 2.973 8.98-1.926 12.847-3.846 2.01-1.067 4.426-1.527 6.573-.598 2.118.878 4.004 2.362 5.426 4.159.716.91 1.284 1.92 1.815 2.96.526 1.023 1.19 2.304 2.498 2.37l-.105-.152c-1.862 5.544-6.54 10.153-12.25 11.576-3.895 1.19-8.753.891-11.45-2.518-2.72-3.234-4.231-10.67-.137-13.35 2.389-1.161 2.033 1.955 1.81 3.415a11.3 11.3 0 0 0 .427 4.462c1.65 5.928 8.848 4.994 13.037 2.462 1.464-.854 2.791-1.93 3.971-3.135 1.175-1.21 2.218-2.566 2.948-4.092.014-.029-.033-.053-.048-.024v.005Zm25.363 5.43c.493.493 1.09.64 1.73.74.578.232 1.047.72 1.63.944.38.132.844.355 1.26.303-.691-.915-1.824-1.057-2.828-1.404-.522-.384-1.076-.697-1.778-.635-.023 0-.038.033-.019.047z"/>
    <path fill="#000" d="M39.297 45.513c.905-.36 1.616-.934 2.332-1.546 1.374-.75 2.9-1.129 4.15-2.139.025-.014.01-.052-.018-.047a6.7 6.7 0 0 0-1.825.53c-.881.366-1.582 1.035-2.393 1.514-.881.36-1.73.82-2.28 1.65-.013.019.01.052.034.038m37.161-19.874c2.398 1.323 4.038 3.827 4.005 6.563-.142 2.736-2.204 5.06-4.578 6.202-1.597.825-3.464 1.086-5.27.968 1.744.588 3.806.313 5.512-.47 3.511-1.584 5.303-5.828 4.236-9.48-.587-1.815-2.123-3.271-3.886-3.83-.028-.01-.047.033-.019.047"/>
    <path fill="#000" d="M72.606 27.185c3.966 2.162 4.668 5.42.943 8.28-.91.758-2.057 1.247-3.133 1.763 1.209-.075 2.455-.583 3.47-1.318 2.094-1.446 2.961-4.405 1.767-6.7-.654-1.115-1.83-1.821-3.028-2.073-.029-.004-.043.034-.02.048Z"/>
    <path fill="#000" d="M70.232 35.227c1.057-.143 1.801-1.143 1.882-2.167.53-1.708-.27-3.742-2.214-3.917-.028 0-.037.033-.014.047 1.26.83 2.384 2.271 2.062 3.827-.384.872-1.01 1.503-1.74 2.162-.018.014 0 .052.024.048M42.22 37.442c-2.1 2.693-5.478 4.225-8.862 4.035-3.345-.28-6.43-2.816-7.174-6.107-.56-2.148-.01-4.491 1.274-6.374.02-.023-.023-.057-.042-.033-1.56 1.683-2.332 4.202-1.777 6.53 1.07 4.87 6.672 6.966 11.16 6.018 2.203-.494 4.573-2.115 5.412-4.074z"/>
    <path fill="#000" d="M32.231 27.393c-2.952 2.741-1.98 6.962.886 9.38 2.688 2.41 7.393 2.162 9.677-.664.02-.023-.014-.057-.037-.038a7.9 7.9 0 0 1-4.678 1.797c-6.35.143-9.08-5.315-5.848-10.475"/>
    <path fill="#000" d="M42.017 34.677c-1.204.375-2.431.484-3.611.1-1.962-.93-2.005-3.67-.398-5.022.023-.02 0-.057-.029-.043-.805.313-1.492 1.081-1.654 2.015-.26 1.461.792 2.632 2.01 3.201 1.113.721 2.725.735 3.71-.208.02-.02 0-.052-.028-.043m-3.262 19.585c3.436 4.306 9.028 6.487 14.454 6.501 4.587.152 9.298-.834 13.364-2.987 2.858-1.613 5.706-4.254 6-7.706 0-.033-.052-.038-.052 0-.275 1.64-1.2 3.092-2.304 4.282-3.886 3.993-10.312 5.833-15.761 6.264-5.81.209-11.61-2.518-15.7-6.354ZM49.88 65.354c-2.114-.678-4.208-1.228-6.274-2.006-3.275-1.636-6.076-4.06-8.734-6.549-.02-.024-.057.01-.043.033 1.635 2.48 4.061 4.4 6.715 5.7 2.64 1.3 5.303 2.803 8.327 2.874.028 0 .037-.043.01-.052Zm26.542-13.549c-.512 1.47-1.024 3.102-1.701 4.496-1.455 2.276-3.73 3.793-5.768 5.52-.023.014 0 .056.024.042a10.83 10.83 0 0 0 5.009-4.102l.877-1.375c.971-1.318 1.654-2.907 1.606-4.576 0-.028-.042-.038-.052-.01zm-46.227 8.498c-.479 2.954 2.985 6.018 5.762 4.41l-.237-.151c-.104 1.64.569 3.343 1.972 4.239 1.37.944 3.279 1.238 4.734.232l-.375-.061a7 7 0 0 0 1.778 1.802c2.118 1.602 5.18 1.28 6.904-.683-2.014 1.475-4.511 1.802-6.582.227a7.3 7.3 0 0 1-1.673-1.626.264.264 0 0 0-.37-.057c-1.227.877-3.004.72-4.288-.038-1.403-.735-2.067-2.48-1.792-3.988a.15.15 0 0 0-.128-.176c-1.9.863-4.236-.327-5.137-2.129a5.2 5.2 0 0 1-.516-1.991c0-.034-.048-.038-.052 0z"/>
    <path fill="#000" d="M51.419 60.569c-2.47 3.347-2.128 8.127.07 11.537 3.427 5.126 11.673 6.24 16.16 1.911 4.873-4.936 3.219-12.059-1.795-16.175-.024-.024-.057.019-.033.038a15.4 15.4 0 0 1 3.369 4.884c1.65 3.614.886 8.071-1.886 10.902-2.796 2.822-7.383 3.557-11.023 2.001-3.772-1.498-5.938-5.463-6.203-9.37-.08-1.958.346-3.983 1.379-5.7.023-.024-.024-.062-.043-.033z"/>
    <path fill="#000" d="M56.036 60.611c-.427 1.892-.223 3.965.625 5.724 1.18 2.551 5.185 5.496 6.588 1.489.824-2.812.37-6.075-1.484-8.37-.019-.023-.056 0-.042.029.455.844.824 1.726 1.052 2.636.246.906.284 1.845.298 2.793 0 1.361-.033 2.855-.886 3.955-.952 1.19-2.696.583-3.616-.35-1.957-2.082-2.526-5.084-2.478-7.896.004-.029-.043-.038-.052-.01z"/>
    <path fill="#000" d="M63.645 58.833c1.791 2.371 3.232 5.14 3.151 8.17-.047 5.298-4.492 8.02-9.198 5.554-2.649-1.428-3.957-4.434-4.156-7.34-.166-1.485.014-2.988.175-4.492.01-.033-.042-.042-.052-.009-1.18 4.301-.635 10.039 3.796 12.272 2.735 1.461 6.53.987 8.307-1.688.92-1.228 1.46-2.755 1.555-4.282.18-3.044-1.493-6.283-3.583-8.185zm17.259-6.117c.914 2.684-.266 5.04-2.682 6.345a.09.09 0 0 0-.048.104c.17.768.133 1.608-.104 2.362-.697 2.4-3.076 3.594-5.317 4.192a.25.25 0 0 0-.152.147c-.44 1.161-1.384 2.115-2.44 2.76-.029.014-.005.056.023.047 1.256-.47 2.322-1.404 2.882-2.642l-.176.157a35 35 0 0 0 1.204-.313c3.023-.948 4.843-3.575 4.255-6.757l-.047.104c1.204-.55 2.436-1.342 2.943-2.632.545-1.252.374-2.746-.294-3.903-.014-.028-.061-.004-.047.024zm-38.54-.578c-.545 1.674-.488 3.495-.256 5.22l.109-.246a9.8 9.8 0 0 0-1.758 1.693c-.512.631-.934 1.347-1.176 2.115.218-.337.432-.668.688-.972a14.2 14.2 0 0 1 2.544-2.409.27.27 0 0 0 .11-.246c-.223-1.708-.38-3.42-.257-5.15zm24.647-4.52c.36 1.11.835 2.096 1.266 3.158.388 1.864.023 3.732-.062 5.629 0 .028.038.042.052.014 1.005-1.764.72-3.827.176-5.681-.143-1.162-.507-2.319-1.389-3.144-.019-.019-.052 0-.043.029zm-15.729.342c1.028 1.133 2.563 1.654 4.066 1.654 1.492.105 3.113.17 4.412-.711.857-.583 1.412-1.717 1.118-2.736a.027.027 0 0 0-.052.01c-.1 1.521-1.322 2.441-2.626 2.859-.905.26-1.876.55-2.833.407-1.422-.308-2.716-.905-4.047-1.526-.024-.015-.053.018-.034.042h-.004ZM48.4 51.436c.754-.2 1.356-.337 1.925-.266.644.052 1.227.384 1.838.64-.436-1.764-3.004-2.039-3.762-.374Zm16.062-2.41c-1.308-.706-3.294.157-3.422 1.703 1.076-.882 2.071-1.252 3.422-1.703m-11.848 5.705c-.313-.92-1.28-1.622-2.308-1.427-.929.194-1.82.92-1.9 1.896a4.95 4.95 0 0 1 2.076-1.005c.72-.137 1.421.228 2.137.54zm8.954-1.678c1.01-.944 2.341-.3 3.536-.309.203-.01.43-.028.606-.151-.384-.124-.658-.347-1.023-.503-1.02-.574-2.995-.545-3.119.958zm-5.911 3.987c.881 1.727 4.497.764 3.91-1.294a1.02 1.02 0 0 0-.541-.55c.962 1.76-2.208 2.584-3.374 1.845h.005Zm-23.523 7.123c-4.237 4.467-9.412 7.976-14.871 10.764-5.56 2.604-11.578 4.302-17.686 4.904-4.038.427-8.374.218-12.212-.64 1.947.683 4 1.052 6.06 1.223 6.204.493 12.44-.683 18.222-2.926 7.54-2.94 15.639-6.78 20.491-13.325z"/>
    <path fill="#000" d="M29.214 67.198c-15.648 1.508-31.727-4.514-41.589-16.962-.052-.09-.208-.043-.204.061-.265 18.537-.274 40.204-.336 58.773.005 2.798.014 5.596.166 8.399 9.606.91 19.704.384 29.42-.498 16.567-1.636 52.483-8.664 56.184-27.907 1.711-7.184 1.128-14.767-.658-21.88a.156.156 0 0 0-.195-.11.16.16 0 0 0-.113.19 61.3 61.3 0 0 1 1.46 14.492c-.152 4.79-.754 9.892-3.598 13.9-10.72 13.851-36.452 18.991-53.133 20.888-9.473 1.19-20.178 1.029-29.116.929.166-2.797.185-5.595.204-8.393.038-18.58.1-40.227-.067-58.773 0 0-.204.061-.199.061 2.322 3.192 5.208 5.919 8.35 8.285 9.374 7.122 21.947 10.266 33.424 8.55z"/>
    <path fill="#000" d="M42.245 68.82c-3.104 4.77-7.554 8.497-12.018 11.95-6.862 4.846-14.923 8.545-22.68 11.727-.555.227-1.745.72-2.304.948-.104.062-.237.043-.303.204-.01.019 0 .038.019.047.151.076.241-.028.36-.052.19-.066.805-.29 1.005-.36 6.743-2.32 13.288-5.307 19.31-9.138 4.792-3.068 9.611-6.302 13.384-10.627 1.255-1.432 2.426-2.969 3.274-4.68.014-.029-.033-.053-.047-.024z"/>
    <path fill="#000" d="M50.574 70.067c-2.023 5.596-5.677 10.509-9.8 14.743-9.289 9.323-21.762 14.9-34.542 17.489a201 201 0 0 1-18.89 2.921c6.35-.204 12.738-1.185 18.994-2.414 13.222-2.778 26.306-8.464 35.604-18.531 2.73-2.922 5.113-6.184 6.985-9.722.744-1.418 1.422-2.869 1.92-4.405a.15.15 0 0 0-.096-.185.146.146 0 0 0-.184.1l.01.004Z"/>
    <path fill="#000" d="M52.58 73.334c-4.962 12.13-15.72 21.069-27.292 26.679-8.767 4.32-18.472 6.51-28.083 7.99-3.165.578-6.649 1.019-9.677 1.503 4.701-.28 9.905-1.128 14.582-1.84 17.577-2.873 35.405-10.83 46.077-25.597 1.89-2.68 3.578-5.52 4.72-8.617a.18.18 0 0 0-.104-.227.176.176 0 0 0-.228.109z"/>
    <path fill="#000" d="M70.01 68.697c2.559 11.324 1.79 25.042-7.71 33-9.071 7.895-21.255 10.987-32.937 12.424-7.904.92-15.89 1-23.832.564a.113.113 0 0 0-.114.1c0 .057.043.109.1.113 7.952.636 15.975.66 23.908-.256 14.776-1.754 33.832-7.435 40.134-22.34 1.446-3.755 2.071-7.786 2.123-11.788.053-4.007-.365-8.014-1.326-11.912a.177.177 0 1 0-.341.09z"/>
    <path fill="#000" d="M78.247 59.165c4.815 3.519 5.948 8.74 2.076 13.477a.16.16 0 0 0-.01.19c2.384 3.542 3.043 7.687.593 11.38a11.3 11.3 0 0 1-2.687 2.998c-.047.028-.066.085-.038.133 1.526 3.087 1.384 6.985-.076 10.067-1.01 2.006-3.09 3.239-5.218 3.765a11.6 11.6 0 0 1-2.393.361.25.25 0 0 0-.237.18c-1.232 3.537-4.213 6.449-7.8 7.563-.554.114-1.175.332-1.734.413l-1.185.147c-.716.119-1.663.038-2.389.071-.8-.057-1.606-.156-2.407-.232a.186.186 0 0 0-.204.166.19.19 0 0 0 .166.204c.81.09 1.616.208 2.426.279.75 0 1.725.057 2.45-.042l1.223-.143c.578-.08 1.223-.294 1.801-.412 3.772-1.143 6.867-4.121 8.142-7.872l-.237.18c3.132-.156 6.54-1.484 8.023-4.414 1.436-3.206 1.544-7.256-.176-10.38l-.033.132c1.815-1.086 3.1-2.888 3.867-4.828 1.45-3.29.374-7.084-1.63-9.896 0 0-.014.199-.005.185 2.005-1.821 2.796-4.794 2.308-7.417-.417-2.613-2.512-5.05-4.606-6.26zm-44.332 5.738c-.147 1.679-.322 3.32-.886 4.899-.967 2.024-3.047 3.191-5.057 3.964-.507.213-1.137.299-1.611.57.555.013 1.161-.077 1.725-.176.839-.204 1.668-.517 2.398-.982.412-.313.995-.735 1.313-1.143.924-1.09 1.559-2.413 2.09-3.732.312-1.105.37-2.295.08-3.41-.01-.028-.052-.023-.052.005z"/>
    <path fill="#000" d="M27.009 69.042c-.266 2.67-.304 5.634-2.067 7.792-.644.74-1.445 1.465-2.274 1.977-.839.474-1.749 1.048-2.72 1.067-.664.057-1.285-.327-1.815-.725.132.313.454.578.748.787.948.616 2.237.365 3.147-.143 1.995-.886 3.265-2.707 4.123-4.637.948-1.873 1.355-4.05.905-6.118-.005-.028-.052-.023-.052.005z"/>
    <path fill="#000" d="M19.312 73.994c-.37 1.844-.658 3.67-1.398 5.392-1.478 2.954-5.042 3.41-8.008 2.83-.029-.004-.043.039-.015.053 2.285 1.076 5.474.92 7.114-1.219 1.146-1.513 2.16-3.23 2.345-5.15.076-.63.095-1.27.015-1.901 0-.029-.048-.029-.053 0z"/>
    <path fill="#000" d="M11.374 77.422a73 73 0 0 1-.787 2.499c-.526 1.593-1.08 3.447-2.687 4.273-1.582.934-3.753.735-5.321-.171l-.46-.26-.455-.285s-.057.019-.033.038c.241.265.502.521.791.744.801.688 2.265 1.233 3.08 1.067.93.028 1.882-.251 2.607-.825 1.322-1.195 2.36-2.755 2.914-4.439.252-.853.413-1.74.403-2.632 0-.028-.042-.033-.052-.004zm33.324-6.426c0 1.916.208 3.965-.54 5.743-.351.72-.925 1.39-1.474 1.963-.782.655-1.654 1.47-2.683 1.617-.511.076-1.052-.038-1.573-.25-.024-.015-.052.028-.028.042 2.056 1.726 4.706-.574 5.587-2.518.943-2.054 1.663-4.415.763-6.61-.01-.03-.052-.02-.052.013"/>
    <path fill="#000" d="M37.99 74.335c.184 2.006.45 3.974.293 5.97-.336 2.627-2.54 4.747-5.127 5.126-.626.095-1.285 0-1.834-.393-.024-.019-.057.019-.034.038.972 1.133 2.716.806 3.93.27 2.018-.877 2.923-2.983 3.231-5.017.294-1.323.403-2.712.138-4.054a9.4 9.4 0 0 0-.545-1.959c-.01-.028-.057-.014-.053.014z"/>
    <path fill="#000" d="M31.273 80.168c.043 1.873.095 3.732-.256 5.558-.564 2.072-2.7 4.609-4.928 4.76-.578.015-1.166-.199-1.701-.526-.024-.019-.057.02-.034.043 1.882 2.025 4.53.313 5.716-1.593.786-1.37 1.274-2.94 1.592-4.482a8.2 8.2 0 0 0-.341-3.774c-.01-.029-.052-.02-.052.01z"/>
    <path fill="#000" d="M25.262 84.194c-.223 1.702-.318 3.376-.697 5.036-.488 1.574-1.687 2.973-3.109 3.737-.924.498-2.08.986-2.97.118-.02-.024-.058.01-.039.033.303.527.924.863 1.545.835 2.611-.204 4.042-2.39 4.734-4.671.431-1.072.763-2.205.744-3.367a7.6 7.6 0 0 0-.156-1.726c-.005-.028-.052-.024-.052 0z"/>
    <path fill="#000" d="M19.261 87.541a59 59 0 0 1-.46 3.604c-.127 1.195-.44 2.414-1.208 3.367-.735.953-1.668 1.698-2.768 2.086-.554.21-1.09.375-1.601.185-.545-.147-.905-.73-1.266-1.185.1.588.484 1.233 1.1 1.56 1.791.735 3.985-.972 4.772-2.494.82-1.655 1.62-3.4 1.63-5.278a8.4 8.4 0 0 0-.147-1.85c-.004-.028-.052-.028-.052 0z"/>
    <path fill="#000" d="M4.926 93.678c-.27 2.859.427 7.075 4.26 5.183 3.133-1.323 4.166-5.316 3.773-8.39-.489 3.126-1.152 7.01-4.37 8.432-3.09 1.39-3.218-3.215-3.61-5.23 0-.029-.053-.029-.053 0zM16.28 67.374c-.559 1.038-.92 2.096-1.483 3.1-1.185 1.575-3.194 1.888-5.057 1.836-.028 0-.042.043-.014.052 1.464.721 3.379.408 4.455-.867l.753-.916c.834-.853 1.408-1.977 1.398-3.196 0-.028-.038-.038-.052-.01Zm-2.682-.641c-1.393.598-2.388 1.797-3.838 2.205-1.417.403-2.848.769-4.246 1.266-.029.01-.024.053.004.053 1.943.218 3.711-.66 5.346-1.584 1.066-.384 2.104-.93 2.768-1.902.014-.024-.01-.052-.034-.038M40.711 71.2c.36 1.798.1 3.572 0 5.383.82-1.622 1.062-3.817 0-5.382Zm-6.414 6.587c.175 1.86.308 3.628-.313 5.401 1.312-1.432 1.208-3.77.313-5.4Zm-6.177 4.609c-.214 1.835-.403 3.557-.872 5.33 1.146-1.47 1.388-3.566.872-5.33m-5.84 3.538c-.346 1.807-.63 3.623-1.109 5.387 1.157-1.494 1.489-3.561 1.11-5.387Zm-6.366 3.238c-.318 1.812-.507 3.529-1.076 5.269 1.228-1.404 1.493-3.5 1.076-5.269"/>
    <path fill="#000" d="M8.742 92.246c-.185 1.816-.266 3.533-.825 5.269 1.228-1.404 1.375-3.547.825-5.269m21.442-25.939c-.322 1.835-.247 3.67-1.052 5.368 1.445-1.29 1.474-3.604 1.052-5.368M23.21 71.75c-.446 1.869-.484 3.756-1.323 5.501 1.47-1.332 1.616-3.651 1.322-5.5Zm-8.057 4.183c-.597 1.636-.786 3.291-1.535 4.856 1.365-1.138 1.673-3.168 1.535-4.856m-7.876 2.561c-.274.854-.265 1.755-.587 2.58-.28.84-.801 1.513-1.35 2.214 1.829-.806 2.35-2.982 1.938-4.794Zm6.066-11.509c-.46 1.337-.763 2.565-1.407 3.812 1.227-.773 1.687-2.447 1.407-3.812m-6.678 2.878c-.407 1.214-.72 2.3-1.109 3.5 1.01-.802 1.436-2.267 1.11-3.5Zm-3.389.152c-.365.901-.517 1.707-.62 2.651.762-.621.985-1.764.62-2.65ZM47.03 59.606c-1.355.977-2.332 2.608-2.355 4.301.734-1.498 1.54-2.83 2.355-4.3Zm21.941-3.756c1.365.991 2.673 1.873 3.602 3.296-.237-1.74-1.953-3.002-3.602-3.296m2.2-2.366c1.422.697 2.758 1.276 3.91 2.366-.545-1.55-2.341-2.404-3.91-2.366M67.77 9.103c4.02 2.068 8.616 1.096 11.55-2.319l-.237.09c1.583.513 2.052 2.134 1.829 3.652a.233.233 0 0 0 .185.247c1.16.246 1.71 1.384 1.64 2.503-.005.034.047.038.052.005.222-.891.028-1.94-.735-2.527a2.4 2.4 0 0 0-.858-.45l.185.27c.403-1.727-.303-3.766-2.199-4.164a.21.21 0 0 0-.237.09c-2.725 4.263-7.075 3.39-11.174 2.603ZM55.301 5.485c3.175.436 6.142 1.328 9.217 2.205-2.777-1.546-6.018-2.499-9.217-2.205M41.186 9.558c2.63-.806 6.213-2.404 8.8-3.424-3.146.456-6.08 1.826-8.8 3.424m-27.255 15.83c-.933-1.807-1.023-3.974-.336-5.876.322-.844.8-1.65 1.317-2.39-.421-3.366.304-6.145 3.521-7.833l-.156-.02c2.36 2.134 5.407 3.453 8.55 3.884 3.155.422 6.359-.142 9.273-1.37.029-.01.015-.062-.019-.047-1.507.402-3.014.82-4.568.938a18 18 0 0 1-4.616-.075c-3.042-.408-6.028-1.617-8.44-3.529-.043-.042-.109-.052-.156-.019-2.052 1.172-3.493 3.263-3.796 5.62-.1.782-.123 1.565.014 2.366l.038-.18c-.934 1.214-1.597 2.67-1.74 4.201-.141 1.366.242 3.434 1.114 4.33"/>
    <path fill="#000" d="M21.406 11.17a5.06 5.06 0 0 0-2.303 2.736c-.384 1.153-.863 2.295-.797 3.538l.09-.214c-1.009.863-1.393 2.206-1.331 3.486.033.161.01.465.095.55.118-.327.137-.707.241-1.039.252-.934.65-1.906 1.308-2.613a.27.27 0 0 0 .09-.213c-.042-.564-.1-1.162-.028-1.73.08-1.2.943-2.12 1.583-3.069.34-.47.701-.93 1.08-1.394.02-.019-.005-.057-.033-.043zm7.278 1.87c-1.147 1.085-1.35 3.015-.63 4.386.019-1.508.147-2.95.63-4.387Zm47.762-4.022c1.185 1.726 2.062 3.542 2.114 5.643.72-2.053-.38-4.453-2.114-5.643m-3.739.962c.375.915.337 1.726.545 2.66.545-.806.427-2.238-.545-2.66m-3.08 2.551c.024-1.645-1.74-1.37-2.01 0-.132.574.418 1.224 1.062 1.2.659.014.99-.65.948-1.2m-.052 0c-.076.84-1.502.873-1.673 0-.123-.474.346-.834.777-.706.365.076.896.223.896.707Zm-5.889 5.582c.024-1.646-1.74-1.37-2.01 0-.132.574.418 1.223 1.062 1.2.659.014.99-.65.948-1.2m-.052 0c-.076.84-1.502.872-1.673 0-.123-.474.346-.835.777-.707.365.076.896.223.896.707m-16.81 1.845c.023-1.646-1.74-1.37-2.01 0-.133.574.417 1.223 1.062 1.2.658.014.99-.65.948-1.2m-.053 0c-.075.84-1.502.872-1.672 0-.124-.474.346-.835.777-.707.365.076.895.223.895.707m-8.187-4.098c.024-1.645-1.739-1.37-2.009 0-.133.574.417 1.224 1.062 1.2.658.015.99-.65.947-1.2m-.052 0c-.076.84-1.502.873-1.673 0-.123-.474.346-.834.778-.706.364.076.895.223.895.707Zm29.066 0c-.019-2.19-2.53-1.91-2.829 0-.114 2.05 2.895 2.23 2.83 0Zm-.052 0c0 .679-.73 1.067-1.303 1.053-.593 0-1.095-.455-1.19-1.053-.208-1.612 2.446-1.365 2.493 0M43.19 18.113c-.018-2.191-2.53-1.911-2.829 0-.113 2.048 2.891 2.229 2.83 0Zm-.052 0c0 .678-.73 1.067-1.303 1.053-.592 0-1.095-.456-1.19-1.053-.208-1.613 2.446-1.366 2.493 0m2.537-6.25c2.654 6.435 12.302 6.53 14.965.047l-.241.152c1.862.195 4.061-.56 4.511-2.584a2.65 2.65 0 0 0-.27-1.869l.01.147c.317-.725 1.17-1.119 1.938-.9 1.422.35 1.208 2.418.8 3.494-.786 2.177-3.203 3.158-5.392 3.002a.11.11 0 0 0-.105.071c-1.668 5.287-8.748 6.729-13.273 4.382-1.479-.797-2.863-2.077-3.412-3.685a.276.276 0 0 0-.399-.17c-1.743.83-3.914.749-5.686-.02-1.673-.682-3.701-2.228-2.938-4.234.331-.882 1.203-1.541 2.16-1.541 2.484-.19 2.801 2.418 4.431 3.566.816.569 2.076.815 2.891.142zm.014-.052c-.886.62-2.024.346-2.8-.242-1.214-.887-1.54-2.727-2.986-3.452-1.47-.797-3.507-.214-4.109 1.408-.92 2.234 1.265 4.145 3.137 4.88 1.924.834 4.19.939 6.156.019l-.398-.171c.929 2.66 3.625 4.386 6.298 4.889 2.659.46 5.587.076 7.89-1.404 1.526-.99 2.725-2.499 3.228-4.263l-.104.08c2.255.124 4.72-.914 5.563-3.148.483-1.195.65-3.362-.91-3.794a1.934 1.934 0 0 0-2.284 1.01c-.024.048-.014.1.01.147.544 1.02.146 2.296-.707 3.03-.848.75-2.128.887-3.222.807a.24.24 0 0 0-.242.152c-2.64 6.188-11.677 6.055-14.525.047z"/>
    <path fill="#000" d="M44.44 8.131c1.408 2.22 4.005 3.5 6.597 3.647 3.388.308 7.194-.304 9.715-2.77.602-.63 1.123-1.394 1.265-2.261.005-.029-.042-.043-.047-.015-1.417 3.092-5.298 4.164-8.383 4.818-1.669.313-3.408.043-4.938-.673-1.536-.655-2.958-1.565-4.166-2.779-.019-.024-.061 0-.043.028z"/>
    <path fill="#000" d="M50.95 8.064c-1.02-.346-1.12-1.37-.716-2.243.294-.882.526-1.778.72-2.684.185-.758.251-1.991.763-2.608.692-.9 1.65-.109 1.953.702.488 1.432.952 3.182 1.45 4.624.91 2.12-2.763 2.745-4.17 2.205zm-.015.053c1.782.706 5.739.35 4.715-2.424-.137-.422-.55-1.545-.696-1.977C54.418 2.497 54.2.781 52.93.069c-1.654-.597-2.014 1.888-2.388 2.96-.256.896-.47 1.801-.621 2.721-.29.963-.014 2.035 1.019 2.367z"/>
    <path fill="#000" d="M50.691 3.157c.332.503.906.564 1.422.446.512.019 1.057.199 1.555-.048a1.63 1.63 0 0 0 .777-.706c.01-.02-.01-.048-.033-.043-.536.085-.91.209-1.37.394-.29.085-.597.294-.92.232-.468-.19-.848-.37-1.407-.323-.024 0-.038.029-.024.048m-.511 2.11c.459.612 1.212.763 1.919.697.706.08 1.421.294 2.118-.052.44-.223.839-.64.881-1.148 0-.028-.033-.038-.047-.019-.678.626-1.398.806-2.265 1.03a1.5 1.5 0 0 1-.664.018c-.635-.237-1.194-.498-1.91-.574-.023-.004-.042.024-.028.043zM47.39 25.6c-.838-2.076 1.408-4.196 3.413-3.234.1.086.26.034.284-.094.521-2.784 3.995-3.822 6.355-2.713.673.323 1.488.877 1.645 1.627-.015.223.265.365.435.227.63-.393 1.626-.436 2.318-.194.782.284 1.393 1.114 1.464 1.93.18-.417-.07-.948-.28-1.337-.748-1.285-2.568-1.565-3.833-.825l.445.218c-.095-1.081-1.104-1.717-1.986-2.115-2.189-.906-4.895-.071-6.245 1.85a4.4 4.4 0 0 0-.654 1.246l.284-.095c-1.024-.716-2.422-.45-3.265.38-.777.83-1.085 2.2-.417 3.158.019.028.061 0 .042-.028zm1.753 4.32c-.54 1.205.175 2.272.976 3.135.834.9 2.422.853 3.246-.02.02-.018 0-.051-.028-.042-1.232.233-2.81.422-3.625-.706-.28-.778-.294-1.532-.522-2.362 0-.024-.042-.033-.052-.005zm11.31 1.93c.857.67 1.762.223 2.55-.312.805-.584.805-1.826.236-2.566-.014-.019-.047-.01-.047.014-.043.456-.048.863-.105 1.252-.056.816-.355 1.736-1.36 1.499a7 7 0 0 0-1.255.061c-.024 0-.034.038-.015.053h-.005Z"/>
    <path fill="#000" d="M54.746 20.72c.19 1.149.512 2.33.886 3.415a9.5 9.5 0 0 0-.218-3.556.344.344 0 0 0-.427-.233.34.34 0 0 0-.241.375Zm-5.496 4.023c1.33.806 2.866 1.233 4.397 1.436a154 154 0 0 1-2.076-1c-.687-.337-1.37-.673-2.1-.91-.283-.1-.478.317-.222.469v.005Zm12.05-1.855c-.952.683-1.791 1.508-2.668 2.29a6.9 6.9 0 0 0 3.024-1.906.264.264 0 0 0-.355-.384Zm-7.251 5.117c-.858.967-1.687 1.944-2.313 3.073a.264.264 0 0 0 .11.355.265.265 0 0 0 .317-.056c.839-.991 1.43-2.158 1.881-3.372zm4.406-.209c.644 1.152 1.658 2.153 2.924 2.613.289.104.483-.323.218-.47-1.123-.616-2.133-1.327-3.142-2.138zm-2.007 0c-.034 1.005-.072 2.025.104 3.016a.26.26 0 0 0 .308.204.26.26 0 0 0 .208-.275c-.066-1.006-.346-1.978-.62-2.945m-2.798-.791c-.469.019-3.317.436-2.933 1.143a.26.26 0 0 0 .327.09c.839-.399 1.763-.787 2.606-1.233m-1.688-3.728c.734.712 1.64 1.319 2.635 1.598-.82-.607-1.46-1.408-2.294-1.991-.246-.185-.56.18-.341.393m6.568-1.033c-.392.507-.72 1.143-1.046 1.697-.114.19-.228.384-.37.57.63-.314 1.09-.864 1.512-1.404.128-.19.256-.375.35-.588.138-.275-.265-.517-.445-.27zm.504 4.092c.365.223 2.654 1.219 2.706.484a.26.26 0 0 0-.242-.256c-.791-.048-1.644-.2-2.464-.228M-.1 73.217c1.938 1.683 4.677 1.678 7.07 1.237 2.573-.493 4.038-3.348 3.824-5.8 0-.028-.047-.032-.052 0-.474 2.3-1.55 4.662-3.853 5.54-1.118.464-2.393.303-3.54.033-1.165-.233-2.307-.56-3.421-1.053-.024-.014-.057.024-.029.043Zm-12.2 24.728c3.09-.332 6.298-.915 9.321-1.626 3.057-.75 6.142-1.594 8.966-3.02q-.562.182-1.118.378C-.624 95.38-6.704 96.57-12.296 97.945zm17.828-.426c-1.17 1.726-3.08 2.694-5.09 2.637-1.222.019-2.411-.313-3.596-.607.365.199.744.37 1.118.559 2.749 1.219 6.469.479 7.568-2.589"/>
  </g>
  <defs>
    <clipPath id="a">
      <path fill="#fff" d="M92 0H-10v109H92z"/>
    </clipPath>
  </defs>
</svg>
