<svg xmlns="http://www.w3.org/2000/svg" width="72" height="95" fill="none" viewBox="0 0 72 95">
  <path fill="#0033C9" stroke="#231F20" stroke-linecap="round" stroke-linejoin="round" d="M23.657 61.276c1.585.605 2.16 2.352 1.62 4.093a298 298 0 0 0 48.747 7.056l1.27-7.117c-1.241-.293-2.019-1.742-1.75-3.305.271-1.58 1.51-2.692 2.791-2.528l.966-5.41a2 2 0 0 1-.178-.022c-1.312-.225-2.15-1.717-1.873-3.33.278-1.615 1.565-2.74 2.876-2.515q.11.02.213.048l.832-4.655c-1.094-.417-1.752-1.774-1.503-3.231.254-1.473 1.348-2.54 2.533-2.543l.743-4.161c-1.13-.388-1.819-1.768-1.564-3.253.257-1.5 1.388-2.58 2.599-2.542l.65-3.631c-1.032-.462-1.64-1.778-1.397-3.187.245-1.425 1.278-2.47 2.419-2.54l.69-3.87c-.9-.485-1.43-1.538-1.24-2.642.191-1.117 1.06-1.94 2.085-2.084l.991-5.55C76.552 10.74 68.13 14.17 62.103 16.133c-6.55 2.133-11.685 3.17-23.574 6.564l-.002.005s-1.8 3.981-4.748 4.701c-2.38.581-2.945-.934-2.52-2.733a444 444 0 0 0-7.315 2.29L10.708 61.615a293 293 0 0 0 7.363 1.995c.854-1.87 3.653-3.073 5.585-2.335h.001Z"/>
  <path fill="#0033C9" d="M33.783 27.405c-.562.103-10.123 33.871-10.123 33.871l10.123-33.87Z"/>
  <path stroke="#231F20" stroke-dasharray="20 10" stroke-miterlimit="10" d="M33.783 27.405c-.562.103-10.123 33.871-10.123 33.871"/>
</svg>
