<svg xmlns="http://www.w3.org/2000/svg" width="19" height="19" fill="none" viewBox="0 0 19 19">
  <path fill="#FDD55E" d="m4.16 6.39-.116.038c-1.87.64-2.9 2.581-2.3 4.335.544 1.592 2.245 2.483 3.953 2.155-.036 1.83 1.245 3.402 2.985 3.585 1.72.18 3.28-1.057 3.652-2.82 1.541.527 3.248-.01 4.067-1.38.916-1.53.392-3.544-1.16-4.598.992-1.37.939-3.233-.211-4.41-1.295-1.326-3.49-1.281-4.904.098C9.029 1.75 6.89 1.25 5.349 2.277 4.025 3.16 3.571 4.88 4.16 6.39"/>
  <path fill="#960006" fill-rule="evenodd" d="M9.083 10.919a.11.11 0 0 1-.1-.123l.164-1.558-.752 1.373a.112.112 0 0 1-.196-.107l.749-1.368-1.213.982a.112.112 0 1 1-.14-.174l1.218-.987-1.504.44a.112.112 0 0 1-.063-.215l1.495-.437-1.55-.163a.112.112 0 0 1 .023-.223l1.562.164-1.377-.753a.112.112 0 0 1 .108-.196l1.365.747-.98-1.21a.112.112 0 1 1 .174-.14l.989 1.22-.442-1.507a.112.112 0 0 1 .215-.063l.437 1.493.163-1.547a.112.112 0 0 1 .222.023l-.164 1.562.755-1.378a.112.112 0 0 1 .196.107l-.748 1.366 1.21-.98a.112.112 0 0 1 .14.175l-1.219.987 1.507-.44a.112.112 0 1 1 .063.214l-1.496.438 1.55.163a.112.112 0 0 1-.024.222l-1.56-.163 1.376.752a.112.112 0 0 1-.108.197l-1.369-.75.982 1.213a.112.112 0 0 1-.174.14L9.583 9.2l.44 1.503a.112.112 0 1 1-.215.063l-.439-1.498-.163 1.552a.11.11 0 0 1-.123.1Z" clip-rule="evenodd"/>
  <path fill="#960006" d="M9.2 12.05a.23.23 0 1 0-.457-.047.23.23 0 0 0 .457.047m.702-6.677a.23.23 0 1 0-.457-.048.23.23 0 0 0 .457.048m2.531 3.642a.23.23 0 1 1 .457.048.23.23 0 0 1-.457-.048m-6.425-.906a.23.23 0 1 0-.048.457.23.23 0 0 0 .048-.457m5.282 3.009a.23.23 0 1 1 .29.358.23.23 0 0 1-.29-.358M7.388 5.935a.23.23 0 1 0-.357.289.23.23 0 0 0 .357-.29Zm4.399.462a.23.23 0 1 0 .289.357.23.23 0 0 0-.29-.357ZM6.57 10.622a.23.23 0 1 0 .288.357.23.23 0 0 0-.289-.357Zm3.868 1.241a.23.23 0 1 0-.444.122.23.23 0 0 0 .444-.122M8.65 5.39a.23.23 0 1 0-.442.123.23.23 0 0 0 .443-.122Zm3.687 2.466a.23.23 0 1 1 .443-.123.23.23 0 0 1-.443.123M6.026 9.36a.23.23 0 1 0 .122.443.23.23 0 0 0-.122-.443m6.017.871a.23.23 0 1 1 .4.227.23.23 0 0 1-.4-.227M6.516 6.832a.23.23 0 1 0-.227.4.23.23 0 0 0 .227-.4m4.264-1.177a.23.23 0 1 0 .399.226.23.23 0 0 0-.4-.226Zm-3.314 5.84a.23.23 0 1 0 .4.226.23.23 0 0 0-.4-.226"/>
</svg>
