<svg xmlns="http://www.w3.org/2000/svg" width="40" height="39" fill="none" viewBox="0 0 40 39">
  <path fill="#FDD55E" d="M9.02 13.547a8 8 0 0 0-.249.081c-4.029 1.38-6.247 5.559-4.954 9.336 1.173 3.428 4.835 5.346 8.513 4.64-.078 3.94 2.68 7.324 6.427 7.718 3.702.389 7.063-2.275 7.862-6.07 3.32 1.132 6.994-.022 8.758-2.973 1.972-3.295.843-7.63-2.498-9.901 2.137-2.95 2.022-6.961-.455-9.496-2.788-2.853-7.513-2.757-10.56.212-2.361-3.537-6.964-4.613-10.283-2.402-2.85 1.899-3.83 5.603-2.56 8.855Z"/>
  <path fill="#960006" fill-rule="evenodd" d="M19.621 23.299a.24.24 0 0 1-.214-.265l.352-3.349-1.616 2.953a.24.24 0 1 1-.423-.231l1.615-2.95-2.616 2.118a.24.24 0 1 1-.303-.375l2.621-2.123-3.234.946a.24.24 0 1 1-.135-.462l3.22-.942-3.341-.351a.24.24 0 1 1 .05-.48l3.364.354-2.963-1.622a.24.24 0 0 1 .23-.423l2.937 1.607-2.109-2.604a.24.24 0 0 1 .375-.303l2.132 2.633-.95-3.25a.24.24 0 0 1 .462-.135l.939 3.21.35-3.327a.241.241 0 0 1 .479.05l-.354 3.37 1.627-2.973a.241.241 0 0 1 .422.231l-1.607 2.937 2.6-2.105a.241.241 0 0 1 .303.374l-2.628 2.128 3.25-.95a.241.241 0 0 1 .134.462l-3.221.943 3.334.35a.241.241 0 0 1-.05.48l-3.354-.353 2.962 1.62a.24.24 0 0 1-.232.424L21.078 19.3l2.115 2.612a.24.24 0 1 1-.374.303L20.7 19.6l.946 3.233a.24.24 0 0 1-.463.136l-.945-3.232-.352 3.348a.24.24 0 0 1-.265.215Z" clip-rule="evenodd"/>
  <path fill="#960006" d="M19.865 25.736a.494.494 0 1 0-.983-.104.494.494 0 0 0 .983.104m1.511-14.378a.495.495 0 1 0-.984-.103.495.495 0 0 0 .984.103m5.45 7.841a.495.495 0 1 1 .983.103.495.495 0 0 1-.983-.103m-13.834-1.951a.495.495 0 1 0-.104.984.495.495 0 0 0 .104-.984m11.374 6.48a.495.495 0 1 1 .623.769.495.495 0 0 1-.623-.769m-8.402-11.161a.495.495 0 1 0-.769.622.495.495 0 0 0 .769-.622m9.47.995a.495.495 0 1 0 .623.769.495.495 0 0 0-.622-.77ZM14.2 22.66a.495.495 0 1 0 .623.769.495.495 0 0 0-.623-.769m8.329 2.671a.494.494 0 1 0-.953.263.494.494 0 0 0 .953-.263m-3.847-13.935a.495.495 0 1 0-.954.264.495.495 0 0 0 .954-.264m7.938 5.307a.495.495 0 1 1 .953-.263.495.495 0 0 1-.954.263Zm-13.59 3.239a.495.495 0 1 0 .263.954.495.495 0 0 0-.263-.954m12.955 1.876a.495.495 0 1 1 .86.488.495.495 0 0 1-.86-.488m-11.899-7.319a.495.495 0 1 0-.488.86.495.495 0 0 0 .488-.86m9.179-2.535a.495.495 0 1 0 .86.488.495.495 0 0 0-.86-.488m-7.133 12.574a.495.495 0 1 0 .86.488.495.495 0 0 0-.86-.488"/>
</svg>
