<svg xmlns="http://www.w3.org/2000/svg" width="21" height="21" fill="none" viewBox="0 0 21 21">
  <path stroke="#FDD55E" stroke-width=".654" d="m7.303 14.964-.018-.351-.35.044-.107.012.03.318-.03-.318c-1.758.166-3.272-1.034-3.423-2.633-.137-1.451.89-2.788 2.397-3.148l.393-.093-.173-.365c-.7-1.474-.226-3.19 1.083-3.954 1.293-.755 2.994-.346 3.942.95l.217.298.27-.252c1.058-.991 2.618-1.164 3.754-.374 1.268.882 1.594 2.68.72 4.108l-.177.287.293.167c1.307.75 1.923 2.264 1.434 3.604-.55 1.507-2.317 2.284-3.974 1.681l-.37-.134-.065.388c-.29 1.74-1.834 2.896-3.417 2.634-1.36-.225-2.355-1.428-2.43-2.869Z"/>
  <path fill="#FDD55E" d="M9.692 8.28c.458.786.475 1.631.475 1.631s-.728-.43-1.187-1.215-.475-1.631-.475-1.631.728.43 1.187 1.215m2.958.661a3.75 3.75 0 0 1-1.442.899s.217-.817.85-1.471c.632-.655 1.441-.899 1.441-.899s-.216.817-.85 1.471Zm-2.97 1.791s-.611.585-1.492.815c-.88.229-1.698.016-1.698.016s.61-.584 1.49-.814c.881-.23 1.7-.017 1.7-.017m1.09 2.567a3.75 3.75 0 0 0-.112-1.695s-.536.653-.698 1.548c-.162.896.112 1.695.112 1.695s.537-.652.699-1.548Zm.707-2.173s.562.631 1.421.93c.86.3 1.692.153 1.692.153s-.562-.631-1.421-.93c-.86-.3-1.692-.153-1.692-.153"/>
</svg>
