<svg xmlns="http://www.w3.org/2000/svg" width="29" height="28" fill="none" viewBox="0 0 29 28">
  <path fill="#FDD55E" d="m9.93 7.457-.163-.026C7.131 7.057 4.71 8.758 4.36 11.23c-.318 2.243 1.179 4.35 3.428 5-1.16 2.173-.583 4.84 1.394 6.122 1.952 1.266 4.58.735 6.102-1.153 1.529 1.572 3.903 1.97 5.723.826 2.033-1.277 2.633-4.013 1.415-6.226 2.027-1.038 3.1-3.306 2.439-5.42-.745-2.38-3.406-3.667-5.945-2.876-.313-2.64-2.573-4.545-5.05-4.254-2.126.25-3.722 2.037-3.937 4.209Z"/>
  <path fill="#960006" d="M13.242 16.886c.684-1.056.761-2.221.761-2.221s-1.033.546-1.717 1.601c-.685 1.056-.762 2.221-.762 2.221s1.033-.546 1.718-1.601m4.128-.722a5.2 5.2 0 0 0-1.934-1.333s.247 1.142 1.078 2.086a5.2 5.2 0 0 0 1.933 1.333s-.246-1.142-1.078-2.086Zm-3.987-2.665s-.805-.847-2.006-1.22c-1.201-.374-2.344-.134-2.344-.134s.804.847 2.006 1.22c1.2.375 2.344.134 2.344.134m1.673-3.473a5.2 5.2 0 0 1-.264 2.333s-.7-.936-.865-2.183c-.165-1.248.265-2.334.265-2.334s.699.936.864 2.184m.835 3.046s.816-.836 2.023-1.193c1.206-.358 2.345-.102 2.345-.102s-.815.836-2.022 1.194c-1.206.357-2.346.101-2.346.101"/>
</svg>
