<svg xmlns="http://www.w3.org/2000/svg" width="22" height="22" fill="none" viewBox="0 0 22 22">
  <path fill="#FDD55E" d="m3.2 8.276-.144.08C.752 9.69-.1 12.523 1.15 14.683c1.135 1.96 3.614 2.692 5.784 1.813.43 2.427 2.532 4.167 4.878 3.954 2.318-.21 4.057-2.252 4.086-4.676 2.174.292 4.287-.862 5.012-2.885.81-2.26-.409-4.783-2.733-5.77.952-2.07.395-4.515-1.431-5.77C14.69-.062 11.803.57 10.295 2.76 8.417.877 5.464.775 3.695 2.534 2.179 4.044 2.027 6.435 3.2 8.276"/>
  <path fill="#960006" d="M11.636 13.641a5.2 5.2 0 0 0-.774-2.217s-.475 1.067-.36 2.32a5.2 5.2 0 0 0 .772 2.217s.475-1.067.362-2.32m2.8-3.117c-1.237-.23-2.344.145-2.344.145s.9.746 2.136.975c1.238.229 2.344-.145 2.344-.145s-.9-.746-2.136-.975m-4.782.366s-1.155-.168-2.331.28a5.2 5.2 0 0 0-1.926 1.343s1.156.17 2.332-.279a5.2 5.2 0 0 0 1.925-1.344m-.829-3.765c.9.879 1.233 1.999 1.233 1.999S8.93 8.819 8.029 7.94a5.2 5.2 0 0 1-1.233-1.998s1.128.304 2.029 1.182Zm2.538 1.88s.126-1.161.853-2.187A5.2 5.2 0 0 1 14 5.288s-.126 1.162-.854 2.188a5.2 5.2 0 0 1-1.782 1.53Z"/>
</svg>
