<svg xmlns="http://www.w3.org/2000/svg" width="54" height="52" fill="none" viewBox="0 0 54 52">
  <path stroke="#FDD55E" stroke-width="1.713" d="m18.716 37.23-.915.115a9 9 0 0 1-.282.03c-4.605.435-8.572-2.709-8.967-6.896-.359-3.803 2.33-7.305 6.28-8.248l1.029-.245-.454-.955c-1.835-3.863-.59-8.358 2.84-10.361 3.387-1.978 7.843-.905 10.325 2.49l.571.781.706-.66c2.773-2.597 6.86-3.05 9.835-.98 3.322 2.311 4.177 7.023 1.885 10.761l-.461.753.766.438c3.425 1.963 5.038 5.932 3.757 9.442-1.442 3.948-6.07 5.985-10.412 4.405l-.968-.352-.17 1.017c-.758 4.557-4.806 7.586-8.953 6.901-3.563-.588-6.169-3.74-6.364-7.516z"/>
  <path fill="#FDD55E" d="M25.028 20.638c1.203 2.059 1.245 4.272 1.245 4.272s-1.907-1.125-3.109-3.184-1.245-4.273-1.245-4.273 1.907 1.125 3.11 3.185Zm7.751 1.732C31.12 24.084 29 24.723 29 24.723s.568-2.14 2.226-3.854 3.777-2.353 3.777-2.353-.568 2.14-2.225 3.854Zm-7.784 4.692s-1.598 1.532-3.905 2.133c-2.308.601-4.45.044-4.45.044s1.598-1.532 3.905-2.133c2.308-.601 4.45-.044 4.45-.044m2.86 6.724c.424-2.347-.294-4.44-.294-4.44s-1.406 1.71-1.83 4.056.294 4.44.294 4.44 1.406-1.71 1.83-4.056m1.851-5.693s1.471 1.654 3.723 2.438 4.432.4 4.432.4-1.47-1.654-3.722-2.438-4.433-.4-4.433-.4"/>
</svg>
