<svg xmlns="http://www.w3.org/2000/svg" width="55" height="59" fill="none" viewBox="0 0 55 59">
  <path fill="#FFF400" d="M46.185 9.167c1 2.041 1.59 3.552.94 6.343-.597 2.566-3.401 2.984-4.47 3.143l-.239.038c-.795.14-1.584.699-1.665 1.347l-3.218-2.498zM4.929 14.05c-.16.638-.331 2.448.263 4.581.743 2.668 1.833 3.044 2.997 3.31.49.111 1.1.121 1.673.13.786.013 1.502.025 1.745.298l2.455-3.822-9.133-4.498ZM3.876 30.079c-.226.211-.65.888-.538 1.908.045.417.069.805.09 1.157.044.724.079 1.295.277 1.642.294.516 9.411 8.004 10.067 8.506.655.5 2.386.538 2.556-1.296.054-.574.07-1.094.087-1.574.035-1.053.063-1.913.453-2.728.568-1.186 1.762-3.071 3.994-2.731s4.456 1.217 4.905 3.847l1.49-3.285-5.09-5.726z"/>
  <path fill="#FFF400" d="M18.297 45.309c-.073-.84-.165-1.902.204-2.502l6.681 1.616 3.424-12.979C35.85 30 50.424 27.202 50.759 27.58c.42.471.242 3.801-.606 4.832-.678.825-4.896 5.312-6.92 7.452l6.555 3.576c.419 1.908-.26 5.414-1.808 6.777-1.547 1.362-4.914 1.957-6.505.321-1.574-1.62-1.74-4.646-1.78-5.35v-.021c-.037-.663-.715-.509-1.216.147-.116.152-.545.693-1.145 1.449-1.983 2.501-5.83 7.352-6.35 8.206-.68 1.112-1.932 1.074-2.631.448-.23-.206-1.237-1.057-2.514-2.138-2.613-2.21-6.356-5.376-6.89-5.925-.619-.636-.622-.978-.628-1.497-.002-.149-.003-.312-.02-.5l-.004-.047Z"/>
  <path stroke="#FF3600" stroke-width=".5" d="M46.185 9.167c1 2.041 1.59 3.552.94 6.343-.597 2.566-3.401 2.984-4.47 3.143l-.239.038c-.795.14-1.584.699-1.665 1.347l-3.218-2.498zM4.929 14.05c-.16.638-.331 2.448.263 4.581.743 2.668 1.833 3.044 2.997 3.31.49.111 1.1.121 1.673.13.786.013 1.502.025 1.745.298l2.455-3.822-9.133-4.498ZM3.876 30.079c-.226.211-.65.888-.538 1.908.045.417.069.805.09 1.157.044.724.079 1.295.277 1.642.294.516 9.411 8.004 10.067 8.506.655.5 2.386.538 2.556-1.296.054-.574.07-1.094.087-1.574.035-1.053.063-1.913.453-2.728.568-1.186 1.762-3.071 3.994-2.731s4.456 1.217 4.905 3.847l1.49-3.285-5.09-5.726z"/>
  <path stroke="#FF3600" stroke-width=".5" d="M18.297 45.309c-.073-.84-.165-1.902.204-2.502l6.681 1.616 3.424-12.979C35.85 30 50.424 27.202 50.759 27.58c.42.471.242 3.801-.606 4.832-.678.825-4.896 5.312-6.92 7.452l6.555 3.576c.419 1.908-.26 5.414-1.808 6.777-1.547 1.362-4.914 1.957-6.505.321-1.574-1.62-1.74-4.646-1.78-5.35v-.021c-.037-.663-.715-.509-1.216.147-.116.152-.545.693-1.145 1.449-1.983 2.501-5.83 7.352-6.35 8.206-.68 1.112-1.932 1.074-2.631.448-.23-.206-1.237-1.057-2.514-2.138-2.613-2.21-6.356-5.376-6.89-5.925-.619-.636-.622-.978-.628-1.497-.002-.149-.003-.312-.02-.5l-.004-.047Z"/>
  <path fill="#FFF400" stroke="#FF3600" stroke-width="1.5" d="m5.001 9.59-.043.086-.02.094c-.297 1.369-.388 2.772-.099 3.96.296 1.214 1.012 2.256 2.323 2.693a9.8 9.8 0 0 0 2.702.509c.32.015.608.015.847.014h.08c.267 0 .444.003.581.02.327.041.626.132.81.248a.4.4 0 0 1 .124.109l-.001.022v-.002s-.01.041-.053.137q-.068.152-.21.386c-.19.313-.46.696-.785 1.124-.648.855-1.48 1.841-2.247 2.73-1.208 1.398-3.494 3.711-4.5 4.707-.428.403-.933 1.124-1.004 2.018-.077.97.368 1.96 1.532 2.782 1.958 1.382 5.767 4.195 7.464 5.456.194.179.438.368.707.524.277.161.628.316 1.009.352a1.51 1.51 0 0 0 1.227-.414c.343-.334.525-.811.607-1.353l.06-.402c.154-1.037.302-2.027.607-2.9.336-.96.83-1.675 1.647-2.084.83-.414 1.814-.401 2.81-.127a8.1 8.1 0 0 1 2.546 1.249c.476.35.959 1.2 1.224 2.291.26 1.075.256 2.164-.022 2.883-.117.302-.366.627-.748.96a7.4 7.4 0 0 1-1.346.904c-1.003.54-2.036.888-2.465.99-.56.134-1.147.381-1.546.794a1.6 1.6 0 0 0-.444.834c-.063.347.002.69.159 1.005.125.25.34.516.549.75.222.25.489.52.762.782a32 32 0 0 0 1.537 1.377l5.281 4.413c.302.305.788.72 1.317 1.008.273.148.597.283.939.33.352.05.766.01 1.136-.255a4 4 0 0 0 .468-.425c.17-.173.367-.388.584-.632.434-.488.96-1.108 1.508-1.77a206 206 0 0 0 3.056-3.789 143 143 0 0 0 1.804-1.96c.624-.694 1.242-1.4 1.457-1.721l-.002.003s.042-.045.165-.087a.86.86 0 0 1 .4-.035c.122.021.186.066.218.104.026.031.09.127.078.379-.04.79-.08 1.613.006 2.369.09.77.316 1.534.857 2.185.54.652 1.499 1.208 2.537 1.488 1.052.284 2.31.318 3.445-.238 1.013-.496 2.146-1.336 2.88-2.523.75-1.217 1.056-2.765.424-4.557-.704-1.999-2.594-2.554-4.125-2.746a21 21 0 0 0-1.786-.126q-.2-.007-.378-.016a9 9 0 0 1-.768-.061 2 2 0 0 1-.264-.055c.006-.087.041-.238.135-.453.213-.491.611-1.049.924-1.416 1.01-1.131 2.54-2.849 3.856-4.334.658-.744 1.264-1.43 1.723-1.957.442-.506.784-.903.881-1.035.26-.357.497-.921.497-1.521 0-.652-.286-1.355-1.069-1.778a5 5 0 0 1-.488-.36 34 34 0 0 1-.94-.792 205 205 0 0 1-2.496-2.22l-.044-.039a202 202 0 0 0-2.41-2.144 30 30 0 0 0-.912-.765 7 7 0 0 0-.341-.258 1.7 1.7 0 0 0-.349-.198s-.008-.003-.024-.013l-.067-.045a1.6 1.6 0 0 1-.194-.178 2.7 2.7 0 0 1-.407-.57 1.7 1.7 0 0 1-.2-.574c-.02-.153.013-.205.02-.214.352-.5 1.059-.784 2.226-.637.956.12 1.914-.377 2.608-1.022.71-.66 1.29-1.606 1.42-2.641l.007-.056c.204-1.624.56-4.455-2.172-6.389-1.42-1.005-3.018-1.008-4.329-.622-1.285.38-2.41 1.164-2.96 1.928l.609.438-.609-.438c-.844 1.172-.894 2.113-.95 3.167-.012.224-.024.454-.045.692-.062.729-.145 1.378-.26 1.87a4 4 0 0 1-.092.332 12 12 0 0 1-.454-.313 53 53 0 0 1-2.24-1.746c-.551-.448-1.127-.923-1.675-1.376-1.083-.894-2.061-1.702-2.552-2.051a31 31 0 0 1-2.683-2.191 2.44 2.44 0 0 0-1.506-.703c-.735-.054-1.483.268-2.1 1.071-.95 1.238-4.909 5.936-6.833 8.205q-.076.054-.178.104a.7.7 0 0 1-.227.066c-.051.003-.075-.006-.09-.015s-.072-.045-.143-.183c-.254-.492-.417-1.3-.602-2.212v-.005a17 17 0 0 0-.289-1.258c-.102-.356-.25-.78-.509-1.083-.375-.438-1.146-1.02-2.062-1.4-.921-.383-2.12-.616-3.286-.151-.285.113-.529.205-.76.291q-.209.077-.413.156a7 7 0 0 0-.985.45c-.662.385-1.132.91-1.58 1.795Z"/>
  <path fill="#FFF400" stroke="#fff" d="m5.224 9.703-.029.057-.013.062c-.293 1.35-.377 2.712-.1 3.848.281 1.155.95 2.113 2.16 2.516a9.5 9.5 0 0 0 2.634.496c.314.015.595.015.835.014h.08c.264 0 .457.003.612.022.346.043.685.142.911.284.213.134.254.25.239.374-.01.073-.086.273-.297.62-.197.324-.473.714-.8 1.145-.653.861-1.488 1.853-2.257 2.742-1.216 1.407-3.51 3.73-4.516 4.724-.398.374-.863 1.042-.928 1.857-.069.866.321 1.778 1.427 2.559 1.965 1.387 5.788 4.21 7.48 5.467.184.171.417.353.672.501.261.152.577.288.908.32.347.033.723-.05 1.029-.346.289-.28.456-.697.534-1.21l.06-.402c.153-1.033.304-2.048.618-2.945.348-.996.875-1.778 1.772-2.225.904-.452 1.957-.428 2.988-.145a8.4 8.4 0 0 1 2.628 1.288c.545.403 1.047 1.321 1.318 2.434.268 1.102.272 2.249-.032 3.032-.137.353-.418.71-.817 1.06-.395.345-.882.66-1.391.934-1.022.55-2.075.906-2.526 1.013-.538.129-1.072.36-1.424.724a1.37 1.37 0 0 0-.378.706c-.052.286 0 .575.137.849.108.217.304.463.512.695.216.243.477.507.748.768a31 31 0 0 0 1.525 1.365l5.29 4.42c.29.295.76.698 1.267.973.258.14.552.261.853.303.308.043.653.006.956-.211a4 4 0 0 0 .436-.397c.165-.169.36-.38.575-.623a73 73 0 0 0 1.503-1.763c1.09-1.314 2.285-2.81 3.058-3.793.463-.493 1.17-1.257 1.808-1.965.63-.7 1.233-1.39 1.435-1.692.03-.044.12-.124.29-.181.164-.056.354-.074.523-.045.167.028.29.096.367.19.075.088.152.25.136.551-.04.795-.079 1.596.006 2.328.085.74.3 1.454.8 2.055.499.6 1.407 1.135 2.41 1.406 1.013.273 2.205.3 3.27-.221.983-.482 2.075-1.294 2.776-2.43.714-1.156 1.008-2.626.403-4.343-.654-1.854-2.407-2.39-3.921-2.58-.612-.078-1.228-.103-1.76-.125l-.385-.016a9 9 0 0 1-.791-.064c-.225-.032-.349-.072-.407-.104-.044-.024-.07-.047-.073-.148-.005-.132.04-.336.157-.603.227-.523.643-1.104.965-1.48 1.01-1.131 2.541-2.85 3.856-4.336.659-.744 1.264-1.43 1.723-1.955.447-.513.779-.898.867-1.02a2.44 2.44 0 0 0 .45-1.372 1.71 1.71 0 0 0-.939-1.558 5 5 0 0 1-.525-.385c-.26-.209-.583-.482-.948-.798-.73-.633-1.617-1.43-2.499-2.222l-.043-.039a202 202 0 0 0-2.409-2.142 29 29 0 0 0-.902-.758 7 7 0 0 0-.33-.249 1.5 1.5 0 0 0-.295-.17c-.071-.027-.208-.118-.377-.298-.161-.17-.32-.39-.445-.624a2 2 0 0 1-.23-.66c-.022-.194.013-.315.065-.39.43-.607 1.252-.892 2.462-.74.854.107 1.741-.338 2.407-.957.676-.629 1.221-1.524 1.342-2.49l.005-.039c.205-1.63.543-4.323-2.066-6.17-1.34-.949-2.854-.957-4.114-.586-1.243.366-2.316 1.123-2.828 1.834-.798 1.108-.845 1.971-.902 3.018q-.016.34-.047.716c-.062.733-.146 1.396-.266 1.906a3.2 3.2 0 0 1-.213.641 8 8 0 0 1-.722-.476 53 53 0 0 1-2.25-1.755c-.56-.455-1.14-.933-1.692-1.388-1.076-.889-2.04-1.685-2.524-2.03a31 31 0 0 1-2.711-2.214c-.275-.276-.758-.59-1.351-.634-.64-.046-1.31.228-1.884.975-.958 1.247-4.945 5.978-6.859 8.235-.152.117-.37.223-.56.236a.4.4 0 0 1-.23-.046c-.065-.037-.154-.114-.243-.287-.269-.522-.438-1.356-.616-2.24l-.009-.04a17 17 0 0 0-.283-1.24c-.101-.354-.239-.732-.459-.99-.346-.403-1.082-.963-1.968-1.332-.89-.37-2.015-.58-3.097-.149-.287.114-.536.208-.77.295q-.209.077-.406.153c-.342.132-.66.265-.95.433-.61.355-1.05.839-1.48 1.692Z"/>
  <path fill="#FFF400" stroke="#FF3600" stroke-width=".5" d="m16.804 13.773.018-.015.014-.017c1.894-2.233 5.936-7.029 6.914-8.301.443-.577.882-.71 1.234-.684.372.027.697.235.88.42l.008.008a32 32 0 0 0 2.794 2.283c.462.33 1.385 1.092 2.442 1.964.557.46 1.152.951 1.735 1.425a54 54 0 0 0 2.286 1.782c.316.227.594.412.812.532.107.059.21.108.302.136a.6.6 0 0 0 .153.029.35.35 0 0 0 .204-.055c.17-.112.295-.298.39-.502.097-.207.176-.461.242-.743.133-.563.22-1.27.284-2.014.025-.29.04-.552.053-.792.058-1.014.095-1.648.756-2.567.397-.55 1.317-1.224 2.432-1.552 1.106-.327 2.366-.302 3.469.478 2.23 1.58 1.959 3.843 1.75 5.504-.095.755-.532 1.498-1.109 2.034-.582.541-1.257.83-1.803.761-1.34-.168-2.509.12-3.167 1.053-.192.272-.234.598-.197.911s.157.633.312.924c.156.292.354.565.56.785.203.215.431.398.653.484l.003.001.009.004.03.018q.038.021.096.062.116.081.291.22c.233.186.532.438.878.738.68.59 1.534 1.357 2.402 2.137l.04.036c.88.79 1.773 1.592 2.509 2.23.368.32.698.6.97.817.265.213.489.38.638.46.412.223.544.556.544.897 0 .359-.15.72-.304.93-.064.088-.365.44-.827.97-.457.523-1.061 1.208-1.72 1.951a1420 1420 0 0 1-3.857 4.337l-.004.004c-.347.406-.817 1.053-1.086 1.673-.134.308-.23.634-.218.93.011.314.145.602.459.776.18.1.415.155.664.19.253.037.547.056.861.07q.197.01.405.018c.53.022 1.105.046 1.683.118 1.463.184 2.805.665 3.306 2.086.525 1.49.268 2.725-.333 3.7-.607.983-1.573 1.712-2.468 2.15-.855.419-1.85.412-2.744.171-.899-.242-1.655-.71-2.03-1.161s-.556-1.007-.631-1.662c-.076-.659-.043-1.396-.002-2.203.023-.452-.09-.81-.31-1.072a1.34 1.34 0 0 0-.817-.448c-.3-.05-.615-.018-.887.074-.27.09-.524.25-.675.476-.164.246-.72.886-1.368 1.606-.64.711-1.353 1.48-1.812 1.97l-.008.008-.007.008c-.77.98-1.969 2.48-3.06 3.795a70 70 0 0 1-1.485 1.744c-.212.237-.398.44-.552.597q-.236.241-.335.31c-.105.076-.24.104-.416.08a1.8 1.8 0 0 1-.6-.22 5 5 0 0 1-1.105-.855l-.009-.01-.01-.008-5.31-4.437A31 31 0 0 1 20.538 43c-.263-.253-.51-.503-.709-.726-.202-.227-.34-.41-.4-.532a.6.6 0 0 1-.07-.378.63.63 0 0 1 .179-.32c.211-.218.588-.403 1.059-.515.515-.123 1.63-.503 2.707-1.083a8.4 8.4 0 0 0 1.53-1.03c.45-.392.826-.845 1.023-1.353.379-.978.349-2.295.06-3.48-.286-1.18-.847-2.304-1.601-2.86a9.1 9.1 0 0 0-2.874-1.408c-1.133-.312-2.394-.367-3.522.197-1.133.565-1.76 1.544-2.145 2.648-.339.97-.5 2.06-.652 3.084l-.06.398c-.065.43-.19.664-.315.785a.51.51 0 0 1-.434.137 1.55 1.55 0 0 1-.603-.221 3 3 0 0 1-.557-.42l-.01-.01-.012-.008c-1.68-1.248-5.535-4.095-7.517-5.495-.932-.658-1.156-1.332-1.112-1.886.046-.577.389-1.085.698-1.374l.005-.005c1.002-.991 3.321-3.337 4.56-4.771.771-.892 1.62-1.898 2.288-2.78.334-.44.626-.853.842-1.207.209-.343.37-.667.401-.918.064-.512-.222-.874-.583-1.102-.355-.223-.815-.343-1.217-.393a6 6 0 0 0-.707-.028h-.08c-.24 0-.504 0-.799-.013a8.8 8.8 0 0 1-2.432-.458c-.904-.302-1.431-1.008-1.668-1.982-.238-.975-.177-2.2.097-3.48.376-.737.723-1.09 1.174-1.353.237-.138.508-.253.842-.382l.384-.145q.363-.133.8-.306c.83-.331 1.74-.185 2.532.145.795.33 1.429.827 1.687 1.128q.157.185.307.707c.097.34.181.746.27 1.182l.022.112c.166.825.352 1.746.67 2.364q.218.415.54.595c.213.121.438.157.65.142.415-.027.794-.245 1.018-.43Z"/>
  <path fill="#F0E60C" fill-opacity=".3" d="M48.437 25.946c.48-.957-3.424-3.721-5.685-5.262-1.193-1.147-3.923-3.652-5.302-4.496-1.724-1.054.764 3.927-1.078 5.252-1.842 1.326-8.296 3.15-13.335 3.715s-8.717 4.593-7.715 4.72c1.002.125 3.53-1.893 4.995-1.649s5.443 1.94 6.85 3.613c1.406 1.672-.247 7.69-1.116 8.898s-4.259 1.501-4.274 2.098 6.775 5.16 8.146 4.733c1.37-.427 9.007-11.201 10.495-12.571 1.489-1.37 7.54-8.093 8.02-9.05Z"/>
</svg>
