<svg xmlns="http://www.w3.org/2000/svg" width="56" height="59" fill="none" viewBox="0 0 56 59">
  <path fill="#FFF400" d="M46.777 49.083c.967-2.057 1.53-3.577.834-6.358-.64-2.555-3.45-2.926-4.52-3.068l-.24-.033c-.799-.127-1.596-.673-1.689-1.32l-3.176 2.552zM5.445 44.891c-.17-.635-.372-2.442.187-4.586.698-2.679 1.782-3.073 2.941-3.358.489-.12 1.098-.14 1.67-.16.786-.025 1.502-.05 1.74-.326l2.519 3.78zm-1.32-16.01c-.23-.207-.665-.877-.57-1.898.038-.418.055-.806.07-1.159.032-.725.058-1.296.25-1.646.286-.521 9.276-8.16 9.923-8.673s2.377-.578 2.578 1.253c.063.573.089 1.092.113 1.572.052 1.053.095 1.912.499 2.72.587 1.176 1.813 3.041 4.039 2.665 2.226-.378 4.435-1.292 4.84-3.93l1.543 3.26-4.991 5.81z"/>
  <path fill="#FFF400" d="M18.29 13.413c-.06.841-.134 1.904.245 2.497l6.653-1.727 3.64 12.92c7.268 1.324 21.886 3.878 22.215 3.495.412-.479.178-3.805-.686-4.822-.692-.813-4.985-5.23-7.044-7.335l6.494-3.685c.387-1.915-.35-5.41-1.92-6.746s-4.947-1.875-6.51-.212c-1.547 1.645-1.663 4.675-1.69 5.38v.02c-.026.663-.707.52-1.219-.127-.119-.15-.557-.684-1.168-1.43-2.026-2.467-5.953-7.253-6.488-8.098-.697-1.1-1.948-1.042-2.637-.404a266 266 0 0 1-2.478 2.18c-2.575 2.252-6.265 5.48-6.79 6.039-.608.646-.606.988-.603 1.508.001.148.002.31-.011.5z"/>
  <path stroke="#FF3600" stroke-width=".5" d="M46.777 49.083c.967-2.057 1.53-3.577.834-6.358-.64-2.555-3.45-2.926-4.52-3.068l-.24-.033c-.799-.127-1.596-.673-1.689-1.32l-3.176 2.552zM5.445 44.891c-.17-.635-.372-2.442.187-4.586.698-2.679 1.782-3.073 2.941-3.358.489-.12 1.098-.14 1.67-.16.786-.025 1.502-.05 1.74-.326l2.519 3.78zm-1.32-16.01c-.23-.207-.665-.877-.57-1.898.038-.418.055-.806.07-1.159.032-.725.058-1.296.25-1.646.286-.521 9.276-8.16 9.923-8.673s2.377-.578 2.578 1.253c.063.573.089 1.092.113 1.572.052 1.053.095 1.912.499 2.72.587 1.176 1.813 3.041 4.039 2.665 2.226-.378 4.435-1.292 4.84-3.93l1.543 3.26-4.991 5.81z"/>
  <path stroke="#FF3600" stroke-width=".5" d="M18.29 13.413c-.06.841-.134 1.904.245 2.497l6.653-1.727 3.64 12.92c7.268 1.324 21.886 3.878 22.215 3.495.412-.479.178-3.805-.686-4.822-.692-.813-4.985-5.23-7.044-7.335l6.494-3.685c.387-1.915-.35-5.41-1.92-6.746s-4.947-1.875-6.51-.212c-1.547 1.645-1.663 4.675-1.69 5.38v.02c-.026.663-.707.52-1.219-.127-.119-.15-.557-.684-1.168-1.43-2.026-2.467-5.953-7.253-6.488-8.098-.697-1.1-1.948-1.042-2.637-.404a266 266 0 0 1-2.478 2.18c-2.575 2.252-6.265 5.48-6.79 6.039-.608.646-.606.988-.603 1.508.001.148.002.31-.011.5z"/>
  <path fill="#FFF400" stroke="#FF3600" stroke-width="1.5" d="m5.592 49.349-.045-.085-.021-.094c-.32-1.364-.434-2.765-.165-3.957.276-1.22.974-2.273 2.277-2.733a9.8 9.8 0 0 1 2.694-.553c.32-.02.607-.025.846-.029l.08-.001c.267-.005.444-.01.581-.03.326-.046.623-.143.805-.261a.4.4 0 0 0 .122-.111v-.02s-.01-.041-.056-.137a4 4 0 0 0-.216-.382c-.196-.31-.472-.688-.804-1.11-.662-.844-1.51-1.817-2.292-2.693-1.232-1.377-3.556-3.652-4.579-4.631-.434-.395-.95-1.108-1.037-2-.094-.969.335-1.967 1.485-2.808 1.935-1.415 5.696-4.29 7.372-5.58.192-.182.432-.375.698-.536.274-.166.623-.326 1.003-.369.404-.046.86.043 1.234.394.349.328.538.802.63 1.343l.066.4c.172 1.034.336 2.022.655 2.89.352.954.858 1.661 1.683 2.056.835.4 1.82.37 2.812.08a8.1 8.1 0 0 0 2.524-1.29c.47-.36.938-1.218 1.185-2.312.243-1.08.22-2.169-.07-2.882-.122-.3-.376-.622-.764-.949a7.4 7.4 0 0 0-1.36-.88c-1.012-.523-2.051-.854-2.482-.949-.563-.124-1.154-.362-1.56-.768a1.6 1.6 0 0 1-.457-.827 1.6 1.6 0 0 1 .142-1.007c.12-.251.332-.522.537-.76.217-.252.48-.526.748-.794a32 32 0 0 1 1.515-1.402l5.206-4.5a6 6 0 0 1 1.3-1.03c.27-.153.592-.294.933-.347.35-.055.766-.021 1.14.237.146.1.315.257.476.417a19 19 0 0 1 .594.622c.442.48.978 1.092 1.537 1.744a206 206 0 0 1 3.12 3.738c.47.486 1.188 1.235 1.836 1.93.635.683 1.265 1.378 1.485 1.696l-.002-.003s.043.045.166.084a.86.86 0 0 0 .401.028c.122-.023.185-.069.216-.107.026-.032.088-.129.072-.38-.054-.79-.108-1.612-.033-2.37.076-.77.29-1.538.82-2.199.529-.66 1.478-1.232 2.512-1.53 1.046-.301 2.304-.356 3.448.18 1.02.48 2.168 1.3 2.92 2.476.771 1.203 1.104 2.746.502 4.549-.671 2.01-2.55 2.597-4.079 2.814a21 21 0 0 1-1.784.156l-.378.022c-.31.02-.563.042-.766.075a2 2 0 0 0-.263.058 1.5 1.5 0 0 0 .142.451c.222.488.63 1.039.948 1.4 1.03 1.115 2.588 2.807 3.928 4.27.67.733 1.287 1.41 1.755 1.927.451.5.8.89.899 1.021.266.352.512.912.522 1.512a1.96 1.96 0 0 1-1.039 1.795 5 5 0 0 0-.482.369c-.253.21-.568.486-.927.807a209 209 0 0 0-2.458 2.261l-.044.04c-.851.791-1.697 1.577-2.374 2.185-.344.308-.652.577-.898.78a7 7 0 0 1-.337.263c-.083.06-.211.15-.346.204l-.024.013-.066.047q-.084.064-.19.181a2.7 2.7 0 0 0-.398.577c-.112.22-.175.421-.192.577-.015.154.018.205.024.214.362.493 1.073.766 2.237.6.955-.136 1.92.344 2.625.977.72.648 1.317 1.585 1.464 2.617l.008.056c.232 1.62.635 4.446-2.065 6.425-1.402 1.028-3 1.058-4.318.694-1.292-.358-2.429-1.123-2.992-1.878l.601-.448-.6.448c-.864-1.158-.93-2.098-1.004-3.15q-.022-.336-.056-.692c-.074-.728-.168-1.376-.292-1.865a4 4 0 0 0-.097-.33q-.19.128-.449.32a54 54 0 0 0-2.21 1.782c-.544.458-1.111.943-1.652 1.405-1.068.912-2.032 1.736-2.518 2.093-1.085.8-2.211 1.82-2.645 2.236-.3.31-.829.668-1.494.728-.735.066-1.488-.244-2.118-1.037-.971-1.22-5.008-5.852-6.969-8.088a1 1 0 0 0-.18-.101.7.7 0 0 0-.228-.063.16.16 0 0 0-.09.016c-.014.009-.071.047-.14.186-.245.496-.395 1.306-.564 2.221l-.001.005c-.08.43-.164.878-.267 1.263-.096.358-.238.785-.491 1.091-.368.445-1.129 1.04-2.039 1.435-.914.399-2.109.651-3.282.206-.287-.109-.533-.196-.766-.279l-.415-.148a7 7 0 0 1-.992-.434c-.668-.373-1.147-.89-1.609-1.768Z"/>
  <path fill="#FFF400" stroke="#fff" d="m5.813 49.232-.03-.057-.014-.062c-.315-1.344-.422-2.705-.164-3.845.262-1.16.914-2.128 2.117-2.552a9.5 9.5 0 0 1 2.625-.54c.314-.02.596-.024.835-.028l.08-.001c.265-.005.457-.01.612-.032.345-.05.683-.154.907-.3.21-.137.25-.254.232-.377-.01-.074-.09-.273-.308-.616-.202-.32-.484-.705-.818-1.131-.668-.85-1.52-1.828-2.303-2.704-1.24-1.387-3.572-3.67-4.594-4.648-.404-.367-.88-1.027-.959-1.841-.084-.865.291-1.783 1.384-2.582 1.942-1.42 5.717-4.307 7.387-5.592.182-.174.411-.36.664-.512.258-.156.572-.297.902-.334a1.26 1.26 0 0 1 1.035.328c.293.275.468.689.554 1.202l.067.4c.17 1.03.338 2.043.667 2.934.365.99.905 1.763 1.809 2.195.911.437 1.964.396 2.99.095a8.4 8.4 0 0 0 2.606-1.332c.538-.411 1.025-1.338 1.277-2.455.25-1.107.234-2.253-.082-3.031-.143-.352-.43-.704-.835-1.046a7.7 7.7 0 0 0-1.407-.91c-1.03-.534-2.09-.872-2.542-.972-.54-.12-1.078-.342-1.436-.7a1.37 1.37 0 0 1-.39-.7 1.34 1.34 0 0 1 .123-.85c.105-.22.297-.468.5-.704.212-.247.47-.516.736-.78a32 32 0 0 1 1.501-1.39l5.216-4.51c.285-.299.748-.71 1.25-.993.256-.144.548-.27.849-.317.307-.048.652-.016.959.195.126.088.281.23.442.39.168.166.366.374.586.613.439.478.973 1.087 1.532 1.738a205 205 0 0 1 3.121 3.741c.47.486 1.19 1.237 1.84 1.935.642.69 1.256 1.368 1.463 1.667.03.044.122.122.294.177.165.053.354.067.523.036a.6.6 0 0 0 .364-.196c.073-.09.147-.253.127-.554-.054-.794-.106-1.595-.033-2.328.073-.742.276-1.458.765-2.067.49-.61 1.388-1.16 2.387-1.447 1.007-.29 2.2-.336 3.272.167.992.465 2.097 1.259 2.817 2.384.733 1.143 1.051 2.608.475 4.335-.623 1.865-2.366 2.43-3.877 2.646-.61.087-1.226.122-1.758.153l-.385.023c-.31.02-.574.042-.79.077-.224.036-.347.078-.404.111-.043.025-.069.047-.07.149-.004.132.045.335.166.6.236.52.662 1.093.99 1.465 1.029 1.113 2.588 2.806 3.928 4.27a380 380 0 0 1 1.755 1.926c.456.505.794.885.885 1.004.239.316.462.826.471 1.366a1.71 1.71 0 0 1-.911 1.572c-.08.045-.252.172-.52.394-.256.214-.574.492-.934.814-.719.645-1.593 1.457-2.461 2.264l-.043.04c-.852.79-1.696 1.575-2.372 2.182-.343.308-.648.574-.89.773q-.181.151-.325.254c-.083.06-.19.132-.293.174-.07.029-.206.122-.372.305a3 3 0 0 0-.434.631c-.122.239-.198.47-.218.665-.02.194.017.314.07.387.44.601 1.267.872 2.474.7.852-.121 1.747.308 2.423.916.687.618 1.247 1.504 1.384 2.467l.005.04c.232 1.626.615 4.313-1.962 6.203-1.325.971-2.838 1.005-4.104.655-1.25-.346-2.335-1.085-2.858-1.787-.817-1.094-.878-1.956-.953-3.002a23 23 0 0 0-.058-.715c-.075-.732-.17-1.394-.298-1.901a3.2 3.2 0 0 0-.224-.638 8 8 0 0 0-.714.488 53 53 0 0 0-2.221 1.792c-.552.464-1.124.953-1.668 1.417-1.06.906-2.012 1.719-2.49 2.071a31 31 0 0 0-2.674 2.26c-.27.28-.747.602-1.34.656-.638.057-1.314-.206-1.9-.943-.978-1.231-5.043-5.895-6.995-8.12-.154-.114-.373-.217-.564-.226a.4.4 0 0 0-.23.05c-.063.037-.151.116-.237.29-.26.527-.415 1.364-.58 2.25l-.007.042c-.08.431-.162.87-.262 1.243-.096.356-.227.736-.443.997-.338.41-1.066.982-1.945 1.365-.883.385-2.006.614-3.095.201-.288-.11-.54-.198-.775-.282q-.21-.074-.408-.146a6.6 6.6 0 0 1-.956-.417c-.617-.345-1.064-.821-1.51-1.667Z"/>
  <path fill="#FFF400" stroke="#FF3600" stroke-width=".5" d="m17.324 44.97.017.013.015.017c1.931 2.202 6.053 6.929 7.052 8.185.452.57.893.694 1.245.663.371-.034.693-.246.872-.435l.008-.008a32 32 0 0 1 2.756-2.33c.456-.336 1.367-1.114 2.409-2.004.55-.47 1.136-.97 1.711-1.454a53 53 0 0 1 2.256-1.82c.312-.231.587-.421.802-.545.107-.06.21-.111.3-.141a.6.6 0 0 1 .153-.031.35.35 0 0 1 .205.05c.173.11.3.294.398.496.1.206.184.459.255.739.142.56.241 1.266.317 2.009.03.29.049.551.067.791.075 1.013.122 1.646.799 2.554.405.544 1.336 1.202 2.457 1.512 1.111.307 2.37.262 3.46-.537 2.204-1.616 1.895-3.874 1.658-5.533-.107-.753-.557-1.488-1.143-2.014-.59-.532-1.27-.809-1.815-.731-1.337.19-2.51-.078-3.185-1-.196-.269-.244-.593-.211-.907.032-.314.146-.636.296-.93a3.7 3.7 0 0 1 .547-.794c.2-.219.425-.405.645-.494l.003-.002.008-.004a2 2 0 0 0 .124-.082q.116-.082.289-.225c.23-.19.524-.447.865-.753.671-.602 1.511-1.382 2.366-2.176l.04-.037c.866-.805 1.746-1.622 2.47-2.272.363-.325.689-.61.956-.832.262-.218.483-.388.63-.471.41-.23.536-.565.53-.906a1.7 1.7 0 0 0-.32-.926 30 30 0 0 0-.843-.954c-.466-.516-1.08-1.19-1.75-1.923a1905 1905 0 0 0-3.93-4.272l-.004-.004c-.355-.4-.835-1.04-1.115-1.655-.139-.305-.24-.629-.233-.926.006-.313.134-.604.446-.783.179-.103.412-.162.66-.202.253-.04.547-.064.86-.085l.404-.024c.53-.03 1.105-.064 1.681-.146 1.46-.208 2.794-.712 3.271-2.14.5-1.5.223-2.73-.394-3.694-.624-.974-1.602-1.686-2.504-2.11-.862-.403-1.857-.38-2.747-.124-.894.257-1.642.738-2.009 1.195s-.54 1.016-.604 1.672c-.065.66-.02 1.397.035 2.203.03.451-.077.812-.292 1.077a1.34 1.34 0 0 1-.81.461 1.84 1.84 0 0 1-.888-.059c-.27-.086-.528-.24-.683-.464-.168-.243-.734-.874-1.394-1.583-.653-.7-1.377-1.457-1.845-1.94l-.008-.007-.007-.009a205 205 0 0 0-3.123-3.743 70 70 0 0 0-1.514-1.718 18 18 0 0 0-.562-.589 3 3 0 0 0-.34-.304c-.106-.074-.242-.1-.418-.072-.178.028-.382.11-.595.23-.427.24-.842.608-1.091.873l-.009.01-.01.008-5.234 4.525c-.371.32-.946.84-1.464 1.354-.259.258-.501.512-.696.738-.199.231-.333.416-.392.538a.6.6 0 0 0-.063.38q.03.16.184.317c.215.214.595.393 1.068.498.517.114 1.637.474 2.725 1.037a8.4 8.4 0 0 1 1.546 1.004c.456.385.84.831 1.045 1.336.396.972.388 2.289.12 3.479-.267 1.184-.81 2.317-1.554 2.886a9.1 9.1 0 0 1-2.85 1.455c-1.128.331-2.387.408-3.525-.137-1.142-.547-1.785-1.515-2.189-2.613-.355-.963-.535-2.051-.703-3.072l-.067-.397c-.072-.429-.2-.66-.328-.78a.51.51 0 0 0-.436-.13c-.183.022-.39.106-.599.232a3 3 0 0 0-.55.429l-.01.01-.012.008c-1.658 1.276-5.465 4.188-7.424 5.62-.921.674-1.134 1.351-1.08 1.904.055.577.406 1.08.72 1.363l.005.005c1.019.974 3.377 3.28 4.64 4.694.786.879 1.65 1.87 2.334 2.74.341.436.64.844.862 1.195.214.339.38.66.416.91.073.511-.207.878-.565 1.111-.35.23-.809.357-1.21.414a6 6 0 0 1-.786.04c-.24.005-.504.009-.799.028a8.8 8.8 0 0 0-2.424.498c-.898.317-1.414 1.032-1.635 2.01-.22.979-.14 2.202.156 3.478.388.73.74 1.078 1.197 1.333.238.133.511.244.848.367l.386.139q.365.128.806.293c.835.317 1.741.155 2.528-.188.79-.343 1.415-.85 1.668-1.155q.154-.188.295-.713c.091-.34.169-.749.25-1.186l.02-.113c.153-.827.324-1.75.631-2.374.139-.28.319-.48.53-.604.21-.125.436-.164.648-.153.414.02.798.232 1.025.412Z"/>
  <path fill="#F0E60C" fill-opacity=".3" d="M48.749 32.269c.495.949-3.362 3.778-5.597 5.356-1.173 1.167-3.861 3.718-5.226 4.584-1.706 1.083.699-3.94-1.165-5.233-1.864-1.295-8.348-3.01-13.396-3.492-5.048-.48-8.792-4.447-7.793-4.59 1-.141 3.561 1.833 5.023 1.565s5.41-2.03 6.788-3.726-.375-7.686-1.265-8.879-4.283-1.43-4.308-2.026 6.688-5.272 8.066-4.868c1.377.403 9.192 11.049 10.704 12.393 1.511 1.345 7.674 7.966 8.169 8.916"/>
</svg>
