<svg xmlns="http://www.w3.org/2000/svg" width="85" height="83" fill="none" viewBox="0 0 85 83">
  <path fill="#009C6B" d="M60.865 72.323c-2.86.464-4.92.623-8.083-1.203-2.907-1.677-2.378-5.251-2.177-6.613q.028-.181.043-.305c.124-1.022-.266-2.19-1.026-2.53l4.238-2.999zm9.322-52.11c-.719-.432-2.862-1.31-5.684-1.376-3.527-.081-4.39 1.108-5.144 2.43-.318.556-.556 1.295-.78 1.99-.306.954-.586 1.823-1.008 2.018l3.751 4.408zm-19.154-7.219c-.174-.354-.843-1.121-2.127-1.363-.525-.099-1.008-.214-1.445-.318-.9-.215-1.608-.384-2.104-.27-.738.167-13.244 8.51-14.098 9.124s-1.54 2.71.633 3.598c.68.277 1.307.49 1.887.687 1.271.433 2.31.786 3.158 1.563 1.236 1.131 3.093 3.286 1.852 5.881s-3.134 4.983-6.507 4.556l3.454 3.032L44.6 35.4z"/>
  <path fill="#009C6B" d="M27.124 24.939c1.051.222 2.38.503 2.974 1.174l-4.444 7.548 14.557 8.98c-.92 9.368-2.904 28.173-3.489 28.442-.73.337-4.724-1.113-5.667-2.528-.755-1.132-4.664-7.937-6.524-11.197l-6.787 6.668c-2.482-.195-6.505-2.322-7.593-4.713s-.567-6.717 2.016-8.05c2.558-1.32 6.31-.402 7.183-.189l.025.007c.822.2.885-.683.271-1.537-.142-.198-.643-.922-1.342-1.932-2.316-3.345-6.805-9.831-7.654-10.782-1.105-1.24-.596-2.752.427-3.373.336-.204 1.748-1.117 3.537-2.274 3.662-2.367 8.909-5.759 9.776-6.207 1.005-.518 1.423-.396 2.058-.211.182.053.381.111.616.161z"/>
  <path fill="#00B250" d="M64.806 21.869c1.563-2.203 4.705-1.63 7.692.033 1.626 1.555 1.395 2.446 1.606 4.944s-2.273 4.538-3.303 4.99-4.149-.36-5.863-.046c-1.371.25-1.208 1.532-.956 2.142 2.025 3.14 6.37 9.835 7.554 11.49 1.184 1.656.111 2.785-.573 3.143-.672.39-2.369 1.446-3.784 2.538-1.77 1.365-10.114 6.51-9.915 7.18.199.668 1.688 1.415 3.447 2.117s2.78.826 3.931 2.334c1.151 1.507 1.983 5.773-.933 8.036-2.915 2.263-5.749.999-7.684.136-1.935-.864-3.169-3.486-2.49-5.006s.718-2.912-.072-3.927-3.197-.266-3.774.471-10.098 6.103-11.136 7.132c-1.04 1.028-2.329.204-2.797-.42-.374-.498-4.485-7.22-6.494-10.52-.716-1.12-2.381-3.134-3.317-2.225-1.17 1.135-1.57 7.42-5.796 7.607-4.227.186-6.005-3.259-6.424-5.849s1.636-5.154 3.166-5.797c1.53-.644 3.25-.042 5.178.652s2.47-1.633 1.825-2.418c-.516-.628-2.357-3.758-3.213-5.245-1.82-2.607-5.546-8.076-5.889-9.09-.343-1.016 1.294-2.158 2.155-2.603l7.376-4.83c1.054-.69 3.376-2.108 4.237-2.254 1.076-.183 1.497.916 1.419 2.207s.192 5.887 2.157 7.426 6.175 1.76 7.914.464 4.224-4.082 3.72-7.041c-.502-2.96-3.574-4.247-6.239-5.518-2.132-1.017-.66-2.422.342-2.997 2.144-1.585 7.04-5.23 9.477-7.126s4.088-.248 4.61.814c.837 1.589 2.834 5.275 4.116 7.305 1.602 2.538 3.635 5.6 4.533 6s1.668-.582 2.07-1.48c.4-.899.564-2.566 2.127-4.77Z"/>
  <path fill="#611A08" d="M54.005 66.525c.633-2.535 1.58-3.356-.485-5.602-1.312-1.332-4.027.855-6.512 2.895s-8.514 5.153-9.582 5.505-3.008-2.917-3.653-3.701c-.515-.628-.63-.447-.622-.278.981 1.764 2.913 5.36 2.79 5.636.79.27 2.036.08 3.075-.948 1.038-1.028 11.844-7.976 12.682-8.182s2.488 1.11 1.725 3.007-.014 4.303.738 5.218c.752.916 3.938 3.249 7.174 2.123s4.47-3.144 4.626-5.726c.158-2.581-1.776-4.935-1.968-4.69-.193.246.498 1.3.98 2.26.483.962.961 5.65-3.175 7.12s-8.427-2.102-7.793-4.637"/>
  <path fill="#611A08" d="M28.323 55.732c.195 1.347 3.93 7.416 5.773 10.282l-.094.953c-1.901-3.169-6.132-9.846-6.986-10.16-1.068-.394-1.585.95-2.226 3.316-.64 2.366-1.95 4.185-4.685 4.373-5.21.162-7.799-6.296-5.959-9.121-.755 2.066-.052 4.948 1.052 6.187s4.216 2.626 6.245 1.791c2.03-.834 3.326-4.483 3.728-6.127.402-1.643 2.909-3.177 3.152-1.494"/>
  <path fill="#611A08" d="M31.43 69.383c1.763 1.25 4.15 1.658 5.123 1.706l-.322-.393c-.907.176-4.294-1.335-5.797-3.166-1.203-1.465-3.925-7.054-5.136-9.666l-.246.553c1.391 3.134 4.616 9.716 6.378 10.966M55.985 72.3c2.458.435 4.544.094 5.279-.13-5.95 1.82-9.873-1.09-10.524-2.788-.65-1.7-.808-4.505-.66-5.765.118-1.008-1.247-.61-1.944-.287l1.738-1.296c.249 0 .793.155.983.77.237.769-.267 3.878-.007 5.218.35 1.813 2.062 3.737 5.135 4.279ZM23.984 53.382c.73-.337 1.908-2.049.596-3.38-.278-.677-1.22-2.467-2.76-4.215-1.926-2.185-6.429-8.254-6.112-9.521s5.708-4.995 6.87-6.3c.93-1.044.594-.896.309-.69-2.636 1.696-7.99 5.203-8.322 5.651-.416.56-1.262 1.343-.334 2.42s5.253 7.73 6.75 9.392 2.982 4.645 2.105 5.497-4.717-.944-6.17-.1c-1.454.843-3.515 2.492-3.074 5.59-.112-2.537 1.381-4.025 3.034-4.945 1.654-.92 2.805-.158 4.257.49 1.451.647 2.12.448 2.85.111Z"/>
  <path fill="#611A08" d="M28.22 27.347c-.621-.277-4.705 2.376-7.205 4.079-2.153 1.11.024-.984.886-1.428.861-.445 6.492-4.894 7.705-4.27s.89 1.722.96 5.65c.072 3.926 3.181 6.059 5.817 5.908s4.206-1.438 3.866-.678c-2.046 1.987-5.304 1.86-7.63.574-2.327-1.287-3.63-3.94-3.374-5.814s-.402-3.743-1.024-4.02Z"/>
  <path fill="#611A08" d="M44.288 30.532c-.211 2.888-2.328 5.59-4.858 6.617l-.276-.124c.63-.298 3.046-2.37 4.141-5.196s-1.391-5.427-3.219-6.16c-1.828-.732-5.514-2.128-4.96-3.372.556-1.244 4.555-3.52 6.838-4.74 2.284-1.218 7.177-5.5 7.915-5.668s3.077 3.693 4.042 5.615c.966 1.923 5.543 9.682 5.066 9.636-.476-.047-6.24-10.16-7-11.244-.76-1.085-3.393-2.425-4.77-1.382s-7.224 5.976-8.455 7.25-1.394 2.196 1.049 3.037 4.699 2.841 4.487 5.73Z"/>
  <path fill="#611A08" d="M66.921 21.407c2.56-1.096 5.178.468 6.322 1.99.936 1.247.878 2.879.093 5.18-.648 1.899-2.943 3.19-4.009 3.598.938.004 3.133-.558 4.415-2.837 1.602-2.848.546-6.054-.804-7.485s-5.383-2.982-6.898-2-3.186 3.054-3.218 4.614-1.395 2.941-1.988 3.34c-.473.319-3.066-3.467-4.088-5.139l.711 2.306c1.319 2.246 2.46 3.402 3.038 3.593.722.24 1.953-.29 2.74-2.424.786-2.136 1.126-3.641 3.686-4.736"/>
  <path fill="#611A08" d="M59.505 21.495c.556-1.542 2.573-2.609 3.477-2.592 1.81-.453 5.763.72 7.514 1.362-9.407-5.107-11.873.422-12.213 1.928-.273 1.204-.955 1.397-1.263 1.343l.882 1.553c.547-.668.91-1.666 1.603-3.594m5.348 10.673c.347-.591 2.667-.22 4.065-.01.544.081 2.274.103 2.644-.726-.853.613-6.216-.37-7.677.304s-.557 2.735.632 4.343c1.189 1.607 6.511 9.368 6.04 10.981-.47 1.613-7.685 6.268-9.323 7.526-1.31 1.006-1.537 1.524-1.486 1.657 3.115-1.842 9.763-5.871 11.437-7.246 2.083-1.71 1.31-2.725.735-3.477l-.008-.01c-.575-.754-5.798-8.553-6.648-10.176-.851-1.622-.758-2.575-.411-3.166"/>
  <path fill="#611A08" d="M60.805 60.944c1.667.164 3.417 1.442 3.616 2.11l.6-.23c-1.503-2.575-4.93-2.695-6.465-3.712-1.228-.813-.064-1.962.672-2.435.661-.368 1.773-1.115.931-1.159-1.553.882-3.944 1.97-3.523 3.07s2.502 2.193 4.169 2.356M48.99 12.746c.228-.202.471-.685-.383-1-1.068-.393-2.604-.664-3.411-.527s-10.06 6.948-11.483 7.722c-1.423.775-1.97 1.442-2.494 2.617s.444 1.607 1.895 2.255 2.75.895 4.5 2.172c1.75 1.279 2.731 3.539 1.46 6.204-1.272 2.664-3.503 5.067-5.731 4.487l-1.175-.75a2 2 0 0 1-.115-.074l.115.074c.76.453 2.466.896 4.066-.53 2.108-1.876 3.572-5.035 2.43-7.12-1.142-2.083-2.847-3.092-4.221-3.54s-3.55-.588-4.116-2.664 2.733-3.339 4.348-4.359 8.968-5.612 9.676-6.457 1.146-.897 2.39-.342 2.804.588 3.472 1.134c.534.437 1.03 1.095 1.212 1.37zM28.21 25.52c.331.149-.047.477-.278.623l2.098-.059c-.375-.83-4.016-1.957-4.792-1.89-.777.069-3.361 2.148-4.384 2.769s-7.583 4.738-8.675 5.329-1.877 1.234-2.432 2.478c-.55 1.234 1.165 3.233 2.203 4.444l.027.032c1.036 1.208 2.493 3.515 3.512 5.13s4.22 5.031 3.85 5.86-3.035-.442-5.71.354c-2.675.795-3.853 2.507-4.127 6.28s4.226 5.946 5.984 6.647c1.407.562 2.16.549 2.359.472-1.055-.36-3.324-1.167-3.963-1.519-.799-.439-2.664-2.017-3.2-3.416s-.54-3.804.67-6.33 4.959-2.015 6.08-1.93c1.122.087 1.821.564 2.828.35s-.19-1.99-1.172-2.76c-.965-.755-5.734-7.84-6.663-9.22l-.048-.071c-.798-1.185-1.894-3-1.824-3.714.07-.715.164-1.668 1.317-2.396s10.014-6.472 10.906-6.986 2.415-1.326 2.93-1.179c.514.147 2.089.518 2.504.703Z"/>
  <path fill="#08743E" fill-opacity=".29" d="M37.136 68.113c.99.939 5.805-2.797 8.52-4.983 1.841-1.03 5.907-3.431 7.446-4.8 1.923-1.711-5.071-.522-6.005-3.259s-.769-11.281.408-17.635c1.177-6.353-2.373-12.328-2.897-11.154-.524 1.175 1 5.004.16 6.701s-4.38 5.919-6.94 7.014-9.287-3.147-10.437-4.655c-1.151-1.508-.254-5.748-.976-5.987-.722-.24-8.8 6.35-8.786 8.179.012 1.829 10.322 15.129 11.44 17.451 1.12 2.322 7.077 12.19 8.067 13.128"/>
  <path fill="#00D264" d="M68.937 47.165c-.444.995-9.128 6.59-13.414 9.264-1.382.867-6.17-.846-7.475-1.262-1.306-.417 7.547-7.075 9.182-10.738 1.634-3.663 3.32-11.53 4.195-10.89.875.638 8.067 12.382 7.512 13.626"/>
</svg>
