<svg xmlns="http://www.w3.org/2000/svg" width="390" height="148" fill="none" viewBox="0 0 390 148" xmlns:xlink="http://www.w3.org/1999/xlink">
  <mask id="a" width="390" height="148" x="0" y="0" maskUnits="userSpaceOnUse" style="mask-type:alpha">
    <path fill="#D9D9D9" d="M0 0h390v148H0z"/>
  </mask>
  <g mask="url(#a)">
    <path fill="url(#b)" d="M52.216 135.18c-2.62-.365-4.257-2.893-3.405-5.252-3.5 2.598-8.021 4.279-12.194 3.871-4.165-.409-8.47-3.407-8.591-7.128-2.849 1.152-6.003 1.849-8.815 1.295s-5.152-2.589-5.123-5.194c-3.757 2.017-7.613 4.042-11.75 4.963-4.139.92-8.675.565-11.443-1.803-2.769-2.369-4.279-6.788-1.116-9.528-3.082 2.405-7.364 2.513-11.227 2.851-2.504.218-5.016.604-7.491 1.225-4.374 1.088-8.647 2.902-13.062 3.426-4.416.524-9.278-.645-10.79-4.071-1.191-2.704.143-6.254 2.844-8.503 2.703-2.242 6.525-3.211 9.896-2.851 2.213-1.049 4.52-1.064 6.667-2.338 1.995-1.185 5.152-4.777 2.536-6.301-.85-.498-1.994-.505-3.084-.443-6.782.417-13.71 3.434-18.626 8.115-7.099 6.762-13.917 11.508-24.018 13.525-3.768.754-7.55 1.48-11.333 1.861-2.956.295-5.943.381-8.854 1.22-4.679 1.335-8.656 4.455-12.132 7.708s-6.696 6.778-10.743 9.448c-12.047 7.942-28.737 6.69-40.512 14.971 1.842-3.624 6.649-5.36 10.869-6.715 11.148-3.576 22.642-7.875 31.031-15.65 3.702-3.432 6.658-7.43 10.446-10.793 6.611-5.872 15.68-9.539 24.459-9.882 1.148-.047 2.352-.023 3.253.499s1.652 2.213.952 3.097c.034-.195-.406-.028-.336.143.072.178.346.179.574.146 2.595-.33 5.1-1.409 7.544-2.478 2.794-1.216 5.65-2.476 7.901-4.429 2.024-1.749 3.423-3.941 5.036-5.982 2.82-3.561 6.41-6.755 10.646-8.942 4.234-2.187 9.141-3.31 13.608-2.742.573.073 1.085.124 1.03.643 5.845-5.247 14.004-8.433 21.773-8.499 3.338-.028 7.057.835 7.98 3.53.357 1.055.223 2.26-.217 3.394-1.148 2.953-4.188 5.266-7.394 6.74-3.206 1.473-6.652 2.268-9.98 3.412-3.327 1.144-6.694 2.737-8.912 5.29-.769.891-1.408 2.009-1.096 2.972.55 1.703 3.324 1.572 5.417 1.062a79.6 79.6 0 0 0 16.8-6.146c.89-2.535 3.717-4.508 6.62-5.179 2.901-.67 5.84-.213 8.399.713 1.654.596 3.27 1.402 5.151 1.376 2.164-.027 4.305-1.154 6.013-2.533s3.103-3.034 4.703-4.508c4.084-3.754 9.583-6.305 15.123-7.02.913-.118 1.86-.186 2.648.11.795.295 1.274 1.164 1.03 1.956 3.021-1.6 6.61-2.183 9.746-1.576s5.787 2.386 7.204 4.839c1.712-.739 3.463-1.482 5.282-1.78 1.821-.294 3.749-.08 4.975.944.506-1.259.267-2.455 1.459-3.348-1.324-.38-2.01-1.574-2.365-2.763-1.779-5.886 2.286-12.938 8.263-17.218 5.978-4.278 13.466-6.244 20.712-7.305 1.296-.188 2.58-.538 3.43.21 5.044-3.321 11.276-5.057 17.093-4.753 2.195.116 4.414.543 5.973 1.756s2.28 3.357 1.243 5.212c1.882-.542 3.819-1.087 5.711-1.03 1.893.058 3.755.846 4.362 2.354 3.095-3.555 8.22-5.754 12.919-5.544 1.1.047 2.717.098 2.525 1.087 2.103-3.925 6.904-6.447 11.34-7.679 1.636-.451 9.573-2.44 8.512.899 3.007-.833 5.804-2.315 8.91-2.813 3.075-.495 6.326-.18 8.495 1.447 2.377 1.78 3.085 5.079 1.69 7.912-1.196 2.43-3.701 4.338-6.403 5.547-2.702 1.21-5.612 1.81-8.484 2.372-2.407 4.76-6.069 9.2-11.146 12.027-5.076 2.827-11.018 4.221-16.581 3.897-.73-.041-1.489-.107-2.205.152-.543.196-1.008.562-1.484.885-1.683 1.14-3.787 1.813-5.722 1.635-1.937-.184-3.637-1.296-4.109-2.929-1.683 1.386-3.096 2.098-5.177 2.87 2.363.405 4.65 1.13 6.444 2.415 1.795 1.284 3.063 3.184 3.144 5.34.071 1.906-.773 3.885-1.956 5.643-3.69 5.495-10.959 9.258-17.757 9.184-2.465 7.896-9.114 15.641-17.527 19.641-.586.282-1.191.549-1.726.921-.621.438-1.112 1.003-1.642 1.533-4.864 4.906-12.5 6.941-19.382 6.95-1.199 2.074-3.474 3.644-5.894 4.546s-4.983 1.198-7.493 1.318c-2.293.111-4.642.079-6.633-.692-3.76-1.459-6.129-5.069-4.453-8.771z"/>
    <path fill="#2D9CF8" d="M71.744 106.612c3.994-1.637 8.216-2.438 11.891-2.028 3.171.357 6.194 1.772 8.292 3.893 2.248 2.261 3.245 5.092 2.814 7.984-.567 3.769-3.106 7.828-7.162 11.43-3.048 2.707-7.844 5.416-12.234 6.904-3.852 1.302-9.185 2.324-12.689-.221-2.108-1.533-2.212-4.388-1.609-6.553 1.47-5.257 7.511-9.994 13.473-10.552 1.254-.119 2.165-.014 2.857.323.916.447 1.338 1.368 1.038 2.239a.27.27 0 0 1-.265.166c-.108-.013-.174-.099-.14-.205.25-.72-.123-1.482-.895-1.86-.621-.306-1.465-.399-2.632-.288-5.763.541-11.603 5.113-13.019 10.198-.575 2.063-.482 4.786 1.503 6.23 6.113 4.436 19.1-1.942 24.347-6.612 3.973-3.529 6.458-7.496 7.012-11.174.942-6.26-4.881-10.862-10.817-11.531-8.695-.983-20.516 5.007-24.817 12.572a.26.26 0 0 1-.216.13c-3.512.23-6.61 1.068-9.199 2.497-3.048 1.677-5.307 4.212-6.047 6.778-.251.869-.426 2.116.16 3.127.535.919 1.7 1.4 2.829 1.18.116-.024.21.04.214.14.004.099-.09.197-.206.221-1.314.259-2.604-.276-3.223-1.33-.643-1.093-.455-2.433-.184-3.368.773-2.678 3.124-5.316 6.288-7.064 2.625-1.447 5.75-2.307 9.283-2.558 2.593-4.473 7.757-8.39 13.358-10.683zm74.948-42.659c.091-.036.2-.024.248.05.056.079.016.202-.085.269-2.204 1.415-3.841 3.287-4.49 5.142-.739 2.104-.13 4.233 1.477 5.178.817.479 1.952.627 3.111.404 1.174-.229 2.243-.816 2.931-1.624a.27.27 0 0 1 .194-.097c.073-.003.137.031.164.085.653 1.33 2.728 1.511 4.442 1.239 1.427-.229 2.623-.671 3.55-1.315 1.73-1.207 2.614-3.317 2.049-4.902-.147-.407-.515-1.134-1.367-1.381-.714-.21-1.612.047-2.083.592-.081.088-.214.117-.305.07-.085-.054-.092-.17-.02-.261.598-.69 1.719-1.018 2.598-.759.73.211 1.293.772 1.577 1.568.611 1.736-.348 4.042-2.243 5.364-.998.695-2.27 1.168-3.777 1.409-1.753.278-3.852.104-4.698-1.17-.762.77-1.844 1.333-3.017 1.562-1.261.243-2.506.081-3.397-.442-1.735-1.014-2.393-3.3-1.602-5.55.698-1.981 2.368-3.891 4.695-5.388.015-.005.029-.016.044-.021zM140.6 77.826c.098-.038.199-.017.245.05.934 1.446.397 3.702-1.218 5.117-.907.796-2.064 1.316-3.072 1.734-.828.346-1.722.687-2.606.721-.844.028-1.809-.296-2.037-1.1-.027-.092.048-.204.16-.247.113-.043.226-.005.254.094.187.642.986.905 1.693.88.804-.029 1.637-.35 2.429-.678.97-.406 2.076-.895 2.921-1.638 1.477-1.297 1.96-3.34 1.109-4.658-.048-.079-.008-.2.093-.26.015-.004.03-.009.037-.018zm-7.755-11.814c.092-.037.186-.025.241.041.065.077.04.198-.07.276-2.306 1.685-4.016 4.146-4.558 6.585-.021.105-.136.192-.252.195-3.566.05-7.431 2.046-9.622 4.973-.721.966-1.124 1.856-1.184 2.634-.098 1.255.634 2.295 1.286 3.06 1.097 1.28 2.17 1.985 3.394 2.205 1.725.31 3.681-.348 5.542-1.101 1.838-.746 3.702-1.648 4.839-3.114.634-.818.917-1.894.722-2.744-.101-.46-.385-1.048-1.135-1.303-.106-.036-.137-.145-.075-.25a.266.266 0 0 1 .301-.119c.696.237 1.178.776 1.344 1.523.218.962-.095 2.14-.808 3.06-1.215 1.57-3.155 2.51-5.07 3.288-1.93.783-3.971 1.468-5.817 1.135-1.716-.306-2.872-1.469-3.59-2.31-.686-.81-1.464-1.913-1.356-3.283.069-.859.499-1.821 1.274-2.854 2.243-2.993 6.17-5.058 9.835-5.19.608-2.482 2.356-4.962 4.707-6.676.022-.014.036-.026.06-.033z"/>
    <path fill="#2D9CF8" d="M64.615 118.962c1.944-.802 4.031-1.175 5.974-1.005.117.01.176.101.14.209a.26.26 0 0 1-.269.17c-3.712-.334-7.985 1.429-10.62 4.369-2.642 2.942-3.464 6.872-2.06 9.778.043.089-.008.202-.12.259-.11.056-.23.033-.272-.056-1.47-3.023-.606-7.111 2.143-10.177 1.372-1.526 3.157-2.744 5.093-3.543zm53.439-27.516.038-.012c.114-.03.214.025.226.121.287 2.504-.916 5.369-3.143 7.48-.965.915-2.142 1.737-3.705 2.603-1.107.613-2.788 1.456-4.536 1.693-1.741.235-3.298-.209-4.073-1.163-.063-.073-.031-.19.067-.261s.228-.066.292.007c.7.864 2.129 1.269 3.728 1.052 1.661-.229 3.276-1.038 4.348-1.627 1.528-.84 2.669-1.644 3.593-2.52 2.127-2.012 3.274-4.753 3-7.154-.018-.087.06-.179.157-.217z"/>
    <path fill="#2D9CF8" d="M80.494 93.151q.08-.027.157-.064c4.84-1.924 8.976-2.812 12.639-2.72 5.135.127 10.594 2.68 11.092 7.316.27 2.484-1.62 5.337-4.213 6.364-.113.043-.225.005-.26-.085-.027-.092.04-.201.151-.251 2.401-.939 4.143-3.602 3.897-5.925-.476-4.415-5.902-6.924-10.762-7.05-3.597-.088-7.663.785-12.436 2.681-1.889.748-5.418 2.588-6.72 4.747-.478.794-.599 1.555-.363 2.275.027.093-.04.202-.152.251-.112.043-.225.005-.26-.085-.269-.804-.13-1.672.403-2.558 1.332-2.209 4.838-4.082 6.82-4.894z"/>
    <path fill="#2D9CF8" d="M78.369 97.497c1.833-.72 3.947-1.313 6.382-1.808 2.892-.586 6.599-1.13 9.637-.164 1.545.49 3.216 1.688 2.862 3.45-.02.094-.128.178-.238.18s-.19-.074-.17-.168c.32-1.582-1.234-2.676-2.66-3.134-2.947-.938-6.575-.398-9.406.175-5.616 1.132-9.476 2.822-12.16 5.313-.774.717-2.04 2.129-1.82 3.462.018.089-.063.19-.176.218-.112.034-.217-.015-.229-.106-.244-1.484 1.119-3.007 1.952-3.781 1.587-1.472 3.557-2.664 6.033-3.639zm-20.965-4.899c.1-.04.205-.017.254.059.051.09.008.21-.104.274-2.605 1.57-4.43 3.274-5.431 5.079-1.238 2.213-1.076 4.608.382 5.83 1.025.861 2.712 1.14 4.386.729 1.563-.382 3.135-1.346 4.313-2.643.466-.512 1.206-1.496.934-2.312-.036-.095.032-.216.148-.26.117-.046.232-.013.268.082.331.988-.506 2.109-1.032 2.698-1.253 1.384-2.922 2.408-4.597 2.813-1.81.441-3.636.137-4.75-.794-1.576-1.311-1.757-3.883-.434-6.252 1.053-1.885 2.94-3.66 5.626-5.277l.04-.013zm-15.146 22.255c.103-.039.206-.084.31-.123 3.415-1.329 6.48-1.965 9.12-1.884 1.413.044 3.265.358 4.112 1.591.055.074.016.19-.092.25-.098.063-.228.052-.277-.03-.77-1.134-2.512-1.418-3.836-1.458-2.57-.083-5.574.54-8.914 1.846-3.99 1.561-7.294 3.576-9.79 5.986-2.862 2.764-4.578 6.052-4.693 9.02-.003.098-.097.186-.213.203-.116.016-.203-.054-.198-.146.128-3.063 1.887-6.448 4.828-9.289 2.483-2.4 5.732-4.41 9.657-5.977zm-43.076-6.948c2.425-.962 4.955-1.647 7.445-1.992 1.431-.195 3.497-.363 4.86.52 1.012.657 1.572 1.886 1.56 3.461-.001.683-.27 1.72-1.001 2.405-.36.331-.789.529-1.241.573-.117.011-.196-.061-.191-.153.01-.1.111-.189.228-.2.344-.03.655-.178.929-.431.592-.551.862-1.466.868-2.125.009-1.477-.502-2.625-1.432-3.23-1.253-.814-3.218-.659-4.578-.467-4.578.635-9.28 2.423-13.237 5.034-2.335 1.546-4.102 3.178-5.245 4.862-.06.089-.194.137-.289.102-.095-.034-.125-.141-.064-.231 1.18-1.733 2.992-3.418 5.384-4.994a33 33 0 0 1 6.02-3.133z"/>
    <path fill="#2D9CF8" d="M1.286 115.51a4.5 4.5 0 0 1 1.579-.31c.11-.002.181.075.162.167-.02.092-.13.168-.239.17-.983.007-2.038.442-2.898 1.194-1.02.892-1.593 2.063-1.51 3.061.152 1.795 2.028 3.189 4.56 3.393 2.034.157 4.413-.345 7.295-1.54 5.07-2.107 8.514-5.22 9.216-8.339.016-.073.088-.138.177-.164 2.162-.596 4.083-1.175 5.755-2.252 1.548-.996 3.032-2.725 2.856-4.335-.009-.077.052-.163.154-.2.095-.035.193-.015.24.051.879 1.336 2.634 2.169 4.809 2.289s4.387-.497 6.066-1.686a.26.26 0 0 1 .195-.047c.065.012.114.052.117.107.474 2.37 3.341 3.939 6.401 3.491.115-.016.206.043.203.136-.004.094-.095.183-.21.199-3.144.455-6.1-1.088-6.741-3.469-1.743 1.148-3.963 1.73-6.146 1.612-2.007-.11-3.677-.801-4.691-1.925-.165 1.386-1.299 2.911-3.047 4.035-1.7 1.092-3.693 1.705-5.765 2.28-.795 3.202-4.32 6.377-9.468 8.52-2.961 1.231-5.424 1.745-7.53 1.579-2.691-.211-4.693-1.709-4.858-3.636-.095-1.092.54-2.38 1.651-3.355a5.6 5.6 0 0 1 1.669-1.021z"/>
    <path fill="#2D9CF8" d="M24.537 115.702a12 12 0 0 1 2.424-.73c.531-.097 1.22-.182 1.815-.001.534.159 1.043.609.976 1.253-.012.108-.117.197-.229.213-.12.011-.202-.066-.198-.171.044-.471-.344-.808-.755-.931-.507-.154-1.123-.072-1.606.016-2.434.437-5.684 2.085-6.919 4.277-.938 1.667-.68 3.762.586 4.666.536.379 1.378.32 2.262.22.86-.098 1.895-.296 2.336-.965.063-.096.2-.148.298-.11s.13.152.066.248c-.56.852-1.751 1.094-2.723 1.201-.973.108-1.904.175-2.538-.283-1.573-1.122-1.57-3.475-.655-5.093.92-1.633 2.89-2.984 4.87-3.806zm17.079-28.655c.287-.115.586-.21.883-.276.114-.03.214.03.225.124.012.093-.08.193-.193.222-1.68.397-3.26 1.618-3.93 3.028-.67 1.417-.43 2.995.619 3.932.069.062.06.17-.028.248-.088.074-.213.087-.29.026-.844-.682-2.331-.742-4.41-.194-3.432.906-6.791 2.66-9.48 4.948-1.206 1.027-2.3 2.173-3.358 3.29-.85.895-1.734 1.821-2.678 2.688-2.578 2.364-5.241 3.782-7.695 4.103-.116.017-.202-.053-.199-.152.004-.098.105-.188.22-.205 2.967-.384 5.663-2.371 7.397-3.965.93-.855 1.808-1.772 2.652-2.66 1.067-1.119 2.172-2.282 3.399-3.322 2.743-2.338 6.18-4.135 9.696-5.06 1.61-.427 2.894-.5 3.837-.224-.592-1.001-.634-2.318-.056-3.523.617-1.29 1.92-2.425 3.399-3.018zm55.759-22.404c1.695-.702 3.744-1.317 5.675-1.136.736.072 1.724.297 2.266.99.477.619.489 1.698-.323 2.43-.089.084-.227.094-.298.027-.078-.064-.062-.186.029-.264.624-.568.603-1.444.225-1.936-.466-.607-1.36-.808-2.027-.867-2.458-.232-5.163.914-6.979 1.792-3.16 1.528-5.495 3.167-7.143 5.005-2.036 2.267-2.982 4.98-2.478 7.073.723 2.98 4.633 4.563 8.204 3.322.116-.037.232.008.251.105.02.098-.05.203-.171.25-3.793 1.318-7.945-.365-8.713-3.524-.534-2.207.452-5.044 2.582-7.417 1.7-1.897 4.095-3.57 7.315-5.13.47-.228 1.002-.477 1.578-.711zm25.801 4.332c3.086-1.259 5.24-1.37 6.417-.32.07.066.061.183-.028.259-.09.076-.224.092-.296.02-1.058-.947-3.073-.826-5.978.368a.5.5 0 0 0-.09.035c-4.486 1.857-7.029 3.918-7.78 6.309a.26.26 0 0 1-.217.17 17.4 17.4 0 0 0-4.729 1.335c-3.319 1.468-6.579 4.575-6.405 7.659.096 1.667 1.265 3.077 2.981 3.592 1.715.514 3.924.116 5.621-1.008.1-.066.231-.06.287.016s.023.195-.077.26c-1.825 1.212-4.199 1.636-6.036 1.08s-3.091-2.067-3.197-3.86c-.187-3.267 3.234-6.54 6.7-8.076a17.6 17.6 0 0 1 4.71-1.356c.85-2.462 3.479-4.578 8.024-6.46a.5.5 0 0 0 .09-.036z"/>
    <path fill="#2D9CF8" d="M85.537 70.445q.275-.113.552-.215c1.39-.522 2.44-.612 3.2-.28.1.044.122.156.051.256-.07.1-.203.142-.302.098-.654-.29-1.593-.194-2.863.275a16.3 16.3 0 0 0-5.012 2.99c-1.996 1.75-3.207 3.79-3.308 5.588-.118 2.09 1.453 3.783 3.511 3.784.115-.003.19.084.17.189-.02.104-.135.19-.25.193-2.256 0-3.989-1.836-3.859-4.11.112-1.913 1.376-4.061 3.47-5.9a17 17 0 0 1 4.638-2.875z"/>
    <path fill="#2D9CF8" d="M95.277 61.213c1.06-.429 1.994-.646 2.87-.68 1.723-.056 3.117.751 3.383 1.963.019.093-.055.202-.168.238s-.226-.007-.246-.1c-.236-1.07-1.483-1.785-3.038-1.734-1.228.039-2.597.486-4.303 1.404-3.522 1.885-5.839 4.438-6.207 6.823-.046.285-.005.643.182.808a.35.35 0 0 0 .274.085c.118-.01.198.063.187.166-.011.102-.114.188-.232.199a.74.74 0 0 1-.565-.171c-.278-.256-.324-.717-.267-1.066.389-2.517 2.802-5.187 6.461-7.148.594-.314 1.141-.58 1.667-.793z"/>
    <path fill="#2D9CF8" d="M52.211 135.135c-2.622-.377-4.232-2.888-3.388-5.244l.014-.044-.04.032c-3.548 2.625-8.21 4.346-12.485 3.796-4.06-.605-7.967-3.228-8.216-7.058l-.003-.085c-1.449.589-2.949 1.055-4.466 1.306-4.396.923-9.55-1.083-9.434-5.277-5.52 2.976-11.746 6.161-17.936 5.348-4.473-.453-7.956-3.729-8.065-7.738-.03-1.309.552-2.683 1.702-3.69l-.241-.235c-2.226 1.721-5.117 2.236-7.813 2.503-2.329.194-5.992.481-8.32.954-7.958 1.412-16.886 6.634-23.838 2.458-4.51-2.695-2.78-9.235 2.284-11.873 2.444-1.347 5.356-1.868 7.99-1.581 1.502-.737 3.186-.977 4.861-1.533 2.498-.799 4.676-2.765 5.487-4.993.855-2.968-2.645-3.417-5.218-3.02-6.675.645-13.36 3.737-18.14 8.36-11.493 11.049-20.27 13.373-35.806 15.108-3.29.279-6.72.485-9.914 1.803-8.1 3.275-12.877 10.435-19.495 15.415-12.376 9.223-29.483 7.304-42.125 16.081l.611.38c.804-1.603 2.357-2.905 4.096-3.87 1.746-.973 3.669-1.68 5.607-2.318 3.907-1.251 7.831-2.561 11.687-4.07 3.848-1.512 7.641-3.228 11.236-5.304 3.579-2.072 6.978-4.495 9.893-7.322 2.909-2.819 5.377-5.895 8.202-8.67a38.4 38.4 0 0 1 9.752-6.977c4.537-2.274 9.522-3.704 14.465-4.115 1.732-.062 4.035-.474 4.996.898.296.511.755 1.399.315 1.977l.871.219c.007-.075.018-.131-.022-.239-.148-.447-.934-.32-1.195.086a.54.54 0 0 0-.096.405c.032.143.069.166.134.246 1.64 1.191 10.986-3.291 13.15-4.425 4.488-2.141 6.866-6.337 9.743-9.749 5.447-6.445 14.631-11.437 23.16-10.053.083.023.121.052.114.054 0 0 .007-.002.006.064l-.11 1.171c5.945-5.734 14.586-9.284 22.772-9.205 1.894.03 3.777.356 5.246 1.171 3.313 1.728 2.067 5.982-.652 8.428-4.437 4.2-10.755 4.934-16.426 7.178-3.35 1.356-7.062 3.4-8.555 6.559-1.17 3.205 2.624 3.841 5.434 3.144a80.3 80.3 0 0 0 17.624-6.417c.637-2.032 2.643-3.756 4.916-4.61 2.198-.845 4.634-.878 6.832-.438 2.344.391 4.182 1.557 6.547 2.008 5.325.963 9.343-4.083 12.669-7.24 1.759-1.607 3.808-2.966 5.987-4.064 3.182-1.547 6.946-2.77 10.36-2.74.953.03 1.74.803 1.485 1.651l-.277.921c6.224-3.78 14.229-2.669 17.267 2.622l.18.313c3.463-1.587 8.095-3.3 10.673-.631l.258-.658c.49-1.088.238-2.34 1.294-3.141l.652-.473c-1.222-.244-2.019-.79-2.505-1.862-2.484-5.855 1.634-13.156 7.474-17.455 5.193-3.835 11.687-5.832 17.976-6.975 1.067-.195 2.113-.35 3.203-.52 1.226-.22 2.303-.338 2.886.401a29.6 29.6 0 0 1 7.376-3.57c5.245-1.63 14.658-2.706 16.833 2.125a3.51 3.51 0 0 1-.164 3.048l-.371.677c2.096-.598 4.308-1.308 6.367-1.245 1.988.03 3.859.994 4.278 2.708l.448-.513c3.243-3.73 8.756-5.875 13.603-5.325.337.036.658.102.894.213.239.123.315.247.285.461l-.321 2.007 1.028-1.893c.871-1.615 2.263-3.043 3.89-4.194 3.3-2.303 7.34-3.586 11.271-4.142 1.377-.145 2.983-.383 3.914.408.212.244.224.605.1.992l-.153.501c3.041-.784 5.835-2.245 8.875-2.862 2.738-.531 5.682-.432 7.911.734 4.813 2.614 3.947 8.99-1.274 12.184-3.226 2.149-7.1 2.954-10.827 3.683l-.188.035-.082.156c-1.742 3.443-4.144 6.738-7.33 9.372-4.787 3.936-11.23 6.124-17.318 6.388-1.61.153-3.055-.212-4.681.044-.591.124-1.111.453-1.544.756-1.642 1.222-3.717 1.986-5.667 1.879-2.105-.096-3.888-1.364-4.238-3.151-1.575 1.381-3.413 2.394-5.428 3.108l-.86.32c1.917.302 3.856.737 5.508 1.533 9.056 4.266 3.688 13.828-4.521 18.181-3.136 1.679-6.707 2.648-10.151 2.62l-.164.001-.046.146c-1.179 3.784-3.285 7.452-6.046 10.718-2.763 3.26-6.214 6.143-10.163 8.241-.988.55-2.052.936-2.986 1.583-.902.684-1.564 1.53-2.394 2.259-4.979 4.436-12.092 6.154-18.489 6.196-3.119 5.006-10.095 6.016-15.602 5.94-5.653.245-11.186-4.162-8.88-9.477zm0 0c-2.336 5.316 3.206 9.767 8.872 9.539 5.36.151 12.9-1.028 15.594-5.872 6.456-.019 13.626-1.734 18.67-6.195.824-.714 1.507-1.573 2.384-2.23.9-.624 1.986-1.016 2.96-1.555 7.991-4.244 14.012-11.477 16.466-19.106l-.209.146c7.066.077 14.568-3.9 18.249-9.677 1.936-2.863 2.436-6.465.455-8.954-1.808-2.52-5.113-3.8-8.463-4.378l-.012.467c.939-.35 1.886-.735 2.778-1.224.9-.485 1.731-1.069 2.497-1.7l-.457-.08c.537 1.819 2.447 2.99 4.572 3.107 2.143.125 4.394-.723 6.11-1.999.427-.295.84-.547 1.288-.643 1.487-.21 3.043.124 4.553-.02 6.251-.271 12.834-2.5 17.768-6.544 3.286-2.71 5.742-6.08 7.526-9.581l-.269.196c1.898-.368 3.815-.755 5.705-1.332 3.764-1.118 7.641-3.295 9.396-6.65 1.739-3.349.6-7.306-2.635-8.97-2.406-1.255-5.461-1.361-8.381-.805-2.871.57-5.6 1.938-8.37 2.71l.406.34c.159-.476.179-1.078-.189-1.495-1.064-1.065-3.007-.757-4.518-.62-5.981.843-12.872 3.471-15.827 8.754l.707.114c.382-2.395-6.825-1.265-8.453-.637-2.944.935-5.687 2.659-7.661 4.904l.666.033c-1.579-3.48-6.901-2.701-10.513-1.501l.429.446a4.15 4.15 0 0 0 .22-3.595c-1.371-3.393-6.033-3.99-9.898-3.87-5.263.171-10.686 1.886-15.208 4.846l.541.003c-.828-.755-2.219-.566-3.332-.365-11.676 1.49-25.32 6.395-29.404 17.581-1.23 3.044-1.53 9.33 2.188 10.531l-.074-.674c-1.28.886-1.187 2.436-1.623 3.555l.78-.225c-.677-.567-1.561-.908-2.488-1.058-2.746-.474-5.724.728-8.277 1.835l.58.144c-2.928-5.29-11.167-6.883-17.582-3.392l.674.415c.54-2.288-1.97-2.956-4.11-2.552-5.6.72-11.16 3.25-15.326 7.02-4.735 4.544-8.108 9.153-14.825 5.915-3.214-1.26-7.09-1.918-10.86-.507-2.445.923-4.716 2.757-5.544 5.082l.296-.317a80 80 0 0 1-11.268 4.572c-2.803.761-5.777 2.015-8.58 1.777-3.467-.545-.797-3.865 1.131-5.241 6.478-4.941 16.033-4.455 22.069-10.275 5.884-5.902 2.656-11.198-5.2-11.167-8.085-.048-16.58 3.215-22.665 8.678l.886.281c.021-.185-.006-.442-.167-.634-.375-.415-.968-.403-1.461-.473-4.011-.454-8.339.39-12.212 2.101-4.442 1.963-8.264 5.038-11.27 8.501-1.535 1.734-2.753 3.615-4.18 5.305-2.82 3.561-7.381 5.306-11.607 7.12-1.801.725-3.73 1.44-5.582 1.596-.008.002.014-.005.046.033.058.049.056.248-.009.307-.086.104-.096.094-.155.111-.029.008-.094.033-.24-.024-.172-.069-.201-.266-.174-.32l.872.219c.813-1.321.17-2.6-.746-3.468-1.362-1.065-3.527-.773-5.298-.673-9.173.749-18.45 4.985-24.912 11.445-2.882 2.837-5.341 5.917-8.185 8.678-5.727 5.558-13.18 9.442-20.753 12.419-3.817 1.504-7.705 2.803-11.625 4.065-3.895 1.301-8.362 3.019-10.261 6.666l-.625 1.253 1.237-.866c11.286-7.777 25.848-7.038 37.804-13.411 6.108-3.151 10.348-8.394 15.296-12.721 5.815-5.1 10.369-6.711 17.943-7.085 15.748-1.769 24.698-4.196 36.288-15.372 4.654-4.521 11.168-7.537 17.665-8.17 3.921-.6 6.34.915 3.504 4.302-.997 1.201-2.328 2.168-3.908 2.663-1.549.526-3.248.77-4.846 1.529l.188-.034c-2.74-.277-5.742.27-8.304 1.684-5.389 2.831-7.248 9.838-2.39 12.718 7.108 4.277 16.265-1.004 24.247-2.483 3.987-.864 8.485-.643 12.456-1.715 1.39-.394 2.738-1.014 3.878-1.892l-.24-.236c-.606.546-1.088 1.181-1.395 1.866-.894 2.073-.266 4.223.788 5.9 1.399 2.306 4.07 3.829 7.136 4.157 6.217.792 12.45-2.362 17.95-5.358l-.165-.071c-.011 1.334.608 2.547 1.564 3.45 2.963 2.882 8.35 2.257 12.51.496-.208 3.511 4.293 6.579 8.24 7.064 4.303.536 8.975-1.208 12.527-3.855l-.026-.012c-.847 2.384.793 4.885 3.421 5.254z"/>
    <path fill="#F0FDF7" d="M1.073 37.934c-2.635 2.73-2.484 7.637.308 10.197-5.93-.647-12.282.85-16.613 4.956-4.322 4.103-6.777 11.928-4.006 17.21-4.074.812-8.134 2.518-10.835 5.675-2.7 3.156-3.718 7.973-1.651 11.574-5.762.38-11.641.833-16.972 3.062-5.33 2.229-10.108 6.572-11.343 12.216s.536 13.076 6.2 14.206c-5.313-.733-10.17 2.75-14.738 5.556-2.96 1.821-6.062 3.415-9.305 4.651-5.725 2.196-11.903 3.296-17.233 6.313s-9.835 8.768-8.843 14.818c.784 4.773 5.044 8.582 9.811 9.42 4.765.828 9.78-1.066 13.255-4.426 3.286-.419 5.869-2.354 9.257-2.402 3.149-.044 9.473 2.277 7.749 6.618-.558 1.412-1.828 2.394-3.091 3.232-7.883 5.172-17.962 6.852-27.096 4.506-13.194-3.387-24.501-4.208-37.331 1.554-4.789 2.146-9.572 4.345-14.084 7.023-3.525 2.097-6.922 4.512-10.821 5.814-6.257 2.111-13.126 1.143-19.542-.436s-12.756-3.752-19.352-4.034c-19.63-.833-37.252 15.067-56.843 13.531 4.884 3.481 11.597 1.819 17.358.125 15.218-4.48 31.385-8.248 46.808-4.543 6.806 1.635 13.223 4.691 20.073 6.158 11.955 2.564 24.925-.027 34.977-6.996 1.316-.91 2.638-1.964 3.235-3.455s.113-4.482-1.359-5.118c.191.243-.429.385-.485.086-.06-.309.246-.542.524-.69 3.151-1.742 6.785-2.364 10.344-2.95 4.064-.679 8.23-1.348 12.265-.539 3.622.717 6.893 2.58 10.285 4.052 5.924 2.565 12.422 3.963 18.85 3.414s12.773-3.148 17.307-7.727c.581-.588 1.113-1.094.646-1.77 10.612 2.344 22.194-.144 30.904-6.643 3.74-2.792 7.212-7.147 6.136-11.681-.428-1.772-1.519-3.335-2.895-4.539-3.587-3.136-8.781-3.777-13.505-3.108s-9.185 2.487-13.787 3.717c-4.602 1.231-9.599 1.87-14.065.199-1.553-.587-3.14-1.601-3.544-3.206-.717-2.836 2.476-5.008 5.207-6.073 7.612-2.969 15.385-4.864 23.524-5.699 2.972 2.772 7.664 3.121 11.422 1.592s6.676-4.659 8.804-8.117c1.378-2.233 2.549-4.726 4.665-6.286 2.432-1.798 5.699-2.046 8.68-1.575 2.981.472 5.828 1.59 8.764 2.284 7.483 1.759 15.605.645 22.336-3.059 1.11-.611 2.219-1.321 2.865-2.401.656-1.084.51-2.699-.38-3.595 4.616-.337 9.07-2.569 12.092-6.074s4.585-8.23 4.248-12.846c2.485-.424 5.016-.876 7.278-2.003 2.258-1.137 4.24-3.069 4.806-5.534 1.547 1.322 2.215 3.19 4.24 3.421-1.177 1.653-1.009 3.895-.476 5.851 2.616 9.7 12.656 16.067 22.66 16.952 10.004.884 19.884-2.733 28.788-7.403 1.592-.838 3.296-1.44 3.659-3.203 8.214.343 16.516-2.527 22.761-7.885 2.356-2.024 4.495-4.5 5.285-7.512.789-3.01-.083-6.605-2.687-8.308 2.521-.841 5.104-1.726 7.168-3.411s3.524-4.362 3.023-6.975c6.226 2.32 13.655 1.033 18.728-3.244 1.188-.999 2.951-2.441 1.965-3.655 5.409 3.677 12.73 3.115 18.635 1.066 2.177-.76 12.575-4.724 8.785-8.471 4.001-1.391 8.275-1.702 12.125-3.645 3.814-1.92 7.191-5.115 8.338-9.22 1.258-4.492-.531-9.685-4.298-12.444-3.232-2.368-7.513-2.898-11.469-2.288s-7.668 2.243-11.308 3.896c-6.402-4.583-13.951-7.655-21.817-7.283s-15.576 3.472-21.522 8.643c-.781.677-1.576 1.413-2.577 1.66-.758.187-1.563.072-2.344.027-2.768-.16-5.637.69-7.655 2.578-2.014 1.899-3.04 4.89-2.29 7.562-2.959-.5-5.089-.293-8.011.399 2.317-2.569 4.298-5.518 5.294-8.828s.925-7.03-.668-10.099c-1.41-2.714-3.897-4.751-6.59-6.195-8.404-4.516-19.444-3.587-26.962 2.284C84.2 9.539 70.74 4.402 58.24 5.97c-.873.106-1.756.247-2.643.182-1.034-.081-2.022-.452-3.027-.74-9.253-2.7-19.353.946-27.03 6.771-2.955-1.87-6.717-2.123-10.118-1.327s-6.49 2.56-9.38 4.523C3.398 17.17.806 19.206-.81 21.968c-3.05 5.222-2.87 12.254 1.89 15.984l-.007-.02Z"/>
    <path fill="#00D264" d="M46.27 64.485c5.63-1.599 10.977-4.43 14.91-8.259 3.393-3.306 5.927-7.778 6.946-12.283 1.098-4.814.397-9.197-1.976-12.362-3.1-4.123-8.642-6.818-15.62-7.58-5.246-.573-12.489.433-18.473 2.573-5.25 1.882-12.011 5.446-14.36 11.745-1.412 3.79.326 7.394 2.423 9.512 5.1 5.136 15.085 5.498 22.262.793 1.51-.987 2.484-1.94 3.055-2.98.757-1.378.64-2.893-.27-3.692-.105-.089-.285-.08-.41.037-.116.112-.135.279-.026.377.753.659.822 1.933.185 3.097-.51.938-1.414 1.815-2.82 2.733-6.939 4.545-16.587 4.205-21.513-.768-1.999-2.016-3.663-5.45-2.334-9.02 4.101-10.981 23.094-14.882 32.128-13.883 6.836.747 12.256 3.378 15.282 7.4 5.148 6.845 1.485 17.77-4.865 23.96-9.297 9.07-26.704 12.393-36.54 6.98a.31.31 0 0 0-.332.035c-4.164 2.893-8.25 4.663-12.138 5.247-4.575.694-8.805-.381-11.32-2.868-.852-.84-1.863-2.216-1.851-3.988.014-1.614 1.033-3.26 2.466-4.01.149-.075.214-.24.154-.365-.06-.127-.23-.162-.379-.086-1.67.87-2.797 2.695-2.82 4.55-.023 1.925 1.063 3.402 1.98 4.307 2.626 2.594 7.03 3.713 11.782 3.001 3.942-.594 8.074-2.362 12.274-5.248 5.872 3.156 14.323 3.303 22.215 1.06zm120.913-6.131c.127-.038.243-.153.25-.286.014-.147-.111-.26-.27-.25-3.422.27-6.491-.532-8.423-2.208-2.194-1.899-2.867-5.05-1.642-7.662.624-1.326 1.823-2.537 3.288-3.314 1.485-.786 3.081-1.038 4.385-.676a.33.33 0 0 0 .283-.057.31.31 0 0 0 .133-.253c-.11-2.216 2.14-4.32 4.269-5.54 1.775-1.016 3.423-1.561 4.893-1.615 2.748-.095 5.112 1.68 5.486 4.128.093.63.141 1.851-.672 2.926-.679.903-1.868 1.404-2.755 1.166a.37.37 0 0 0-.394.19.244.244 0 0 0 .146.338c1.124.299 2.613-.316 3.45-1.43.697-.92.979-2.115.79-3.344-.417-2.674-2.993-4.62-6.003-4.516-1.584.057-3.339.632-5.212 1.705-2.178 1.25-4.459 3.365-4.605 5.689-1.363-.249-2.959.044-4.444.83-1.594.846-2.909 2.172-3.59 3.62a6.984 6.984 0 0 0 1.74 8.23c2.068 1.785 5.199 2.603 8.814 2.32.02-.008.044-.006.064-.014zM149.57 45.418c.136-.041.238-.16.247-.282.128-2.623-1.952-4.91-4.716-5.188-1.554-.159-3.214.25-4.637.648-1.172.323-2.415.713-3.447 1.47-.983.73-1.875 2-1.614 3.194.03.138.187.208.344.159.157-.05.261-.198.229-.345-.203-.958.539-2.003 1.363-2.613.937-.691 2.098-1.05 3.216-1.363 1.372-.379 2.955-.778 4.403-.629 2.53.258 4.41 2.332 4.293 4.721-.004.141.121.253.275.235.021-.008.041-.016.054-.01z"/>
    <path fill="#00D264" d="M148.397 64.829a.34.34 0 0 0 .248-.269c.025-.152-.081-.276-.255-.271-3.694.045-7.205-1.392-9.374-3.86-.09-.109-.277-.11-.41-.008-4.084 3.17-9.748 4.25-14.101 2.684-1.435-.518-2.46-1.232-3.025-2.122-.909-1.434-.74-3.36-.485-4.879.43-2.547 1.201-4.374 2.453-5.75 1.763-1.939 4.404-2.913 6.999-3.685 2.563-.76 5.257-1.355 7.482-.606 1.241.418 2.248 1.466 2.568 2.675a3.04 3.04 0 0 1-.46 2.609c-.098.14-.063.3.074.37s.318.012.417-.127c.64-.919.845-2.01.559-3.067-.365-1.364-1.47-2.509-2.868-2.98-2.38-.802-5.184-.186-7.855.605-2.692.8-5.448 1.817-7.334 3.894-1.756 1.926-2.329 4.384-2.609 6.055-.264 1.605-.446 3.648.549 5.213.625.979 1.728 1.756 3.265 2.307 4.456 1.599 10.233.547 14.483-2.614 2.272 2.46 5.838 3.885 9.6 3.835.034-.003.058-.001.089-.013zM29.616 55.113c2.73-.784 5.35-2.222 7.456-4.191.126-.119.135-.283.025-.383s-.289-.082-.415.037c-4.019 3.774-10.022 5.497-14.914 4.298-4.903-1.195-8.363-5.247-8.628-10.069-.009-.148-.14-.24-.303-.207-.163.032-.284.168-.276.316.266 5.022 3.876 9.23 8.98 10.48 2.543.618 5.362.486 8.082-.294zm83.034-8.936.051-.02c.151-.066.229-.223.179-.353-1.31-3.346-4.559-5.795-8.487-6.389-1.702-.258-3.587-.21-5.94.134-1.669.242-4.142.72-6.297 2.004-2.145 1.281-3.635 3.234-3.898 5.11-.025.147.09.262.248.261a.34.34 0 0 0 .329-.272c.236-1.697 1.605-3.486 3.576-4.662 2.05-1.215 4.426-1.676 6.037-1.917 2.298-.342 4.129-.38 5.759-.134 3.748.563 6.853 2.908 8.111 6.116.037.125.186.167.321.126z"/>
    <path fill="#00D264" d="M67.909 74.736c.072-.027.146-.045.22-.063 6.781-2.014 12.084-4.663 16.21-8.09 5.786-4.801 10.366-12.876 7.923-19.024-1.304-3.296-5.317-5.092-8.948-4.01-.156.05-.26.199-.242.34.03.139.177.212.337.172 3.352-1.017 7.073.68 8.301 3.757 2.323 5.855-2.247 13.846-7.719 18.398-4.054 3.361-9.267 5.966-15.953 7.954-2.644.79-7.872 1.72-10.762.246-1.062-.544-1.694-1.37-1.893-2.468-.03-.138-.177-.211-.336-.17-.157.048-.261.197-.242.34.215 1.23.938 2.17 2.122 2.778 2.957 1.508 8.18.64 10.971-.156l.01-.004Z"/>
    <path fill="#00D264" d="M62.502 70.505c2.595-.717 5.424-1.845 8.555-3.38 3.715-1.826 8.34-4.425 11.167-8.332 1.438-1.986 2.54-4.972.933-6.874-.087-.102-.269-.11-.397-.016-.128.095-.167.262-.08.363 1.445 1.705.408 4.457-.918 6.297-2.74 3.79-7.27 6.326-10.908 8.113-7.214 3.553-12.793 4.847-17.57 4.094-1.375-.217-3.79-.869-4.447-2.74-.039-.129-.2-.183-.35-.12-.15.056-.238.212-.189.337.731 2.082 3.331 2.79 4.814 3.025 2.823.444 5.896.197 9.4-.77l-.01.004Zm-21.563 20.78a.35.35 0 0 0 .251-.301c.002-.155-.123-.261-.292-.238-3.954.455-7.108.042-9.392-1.236-2.811-1.561-4.15-4.607-3.272-7.407.617-1.97 2.354-3.834 4.515-4.85a10.24 10.24 0 0 1 6.575-.704c.855.2 2.32.72 2.53 1.956.019.147.173.232.334.181.16-.05.27-.195.25-.342-.25-1.497-1.914-2.097-2.885-2.334a10.8 10.8 0 0 0-7.005.754c-2.335 1.104-4.214 3.123-4.888 5.26-.955 3.014.475 6.292 3.483 7.963 2.392 1.33 5.66 1.772 9.738 1.3l.053-.02zM6.766 76.87c.145-.043.292-.079.437-.123 4.8-1.401 8.737-3.352 11.708-5.816 1.59-1.319 3.502-3.368 3.65-5.662.014-.14-.11-.25-.272-.228-.155.01-.296.14-.298.286-.126 2.1-1.932 4.014-3.423 5.248-2.888 2.403-6.747 4.315-11.445 5.679C1.51 77.88-3.62 78.329-8.088 77.562c-5.123-.882-9.282-3.44-11.394-7.032-.07-.12-.235-.145-.38-.063-.144.083-.196.248-.13.359 2.19 3.699 6.464 6.34 11.73 7.246 4.445.766 9.51.361 15.051-1.2zm-47.332 32.118a6 6 0 0 0 2.027-.993c.127-.093.156-.254.07-.353-.086-.1-.265-.101-.392-.007-1.133.853-2.647 1.227-4.158 1.028-1.79-.239-3.261-1.221-3.86-2.559-1.073-2.412.113-5.826 2.878-8.306 2.226-1.983 5.306-3.434 9.446-4.447 7.285-1.774 13.401-.844 16.375 2.497.068.079.197.097.317.053 2.896-1.14 5.505-2.09 8.173-2.191 2.469-.094 5.373.797 6.29 2.995.044.106.173.162.316.119.133-.04.233-.15.24-.275.08-2.467 1.517-5.063 3.93-7.124s5.383-3.218 8.138-3.182c.09.005.188-.04.255-.112.068-.071.095-.165.061-.238-1.103-3.423 1.099-7.929 4.923-10.045.143-.08.207-.234.138-.35s-.235-.149-.378-.069c-3.927 2.182-6.248 6.732-5.33 10.316-2.799.073-5.753 1.281-8.176 3.346-2.23 1.9-3.665 4.242-4.05 6.558-1.151-1.615-3.513-2.554-6.301-2.447-2.71.107-5.424 1.077-8.203 2.165-3.137-3.366-9.39-4.303-16.79-2.505-4.255 1.035-7.44 2.544-9.743 4.602-2.943 2.629-4.2 6.284-3.05 8.875.65 1.469 2.273 2.546 4.227 2.809.896.124 1.79.06 2.624-.169zm66.737-.692a7.6 7.6 0 0 0 1.197-.446c.15-.066.224-.229.175-.356s-.22-.17-.37-.105c-2.189 1.01-4.814.903-6.523-.253-1.713-1.164-2.49-3.345-1.913-5.449.037-.14-.045-.264-.198-.285a.35.35 0 0 0-.35.227c-.511 1.605-2.176 3.011-4.924 4.189-4.536 1.943-9.555 2.766-14.163 2.323-2.066-.199-4.083-.649-6.042-1.091-1.572-.355-3.202-.716-4.862-.95-4.53-.637-8.528-.02-11.553 1.776-.144.083-.197.248-.127.367.07.12.245.141.39.058 3.655-2.175 8.07-2.115 11.119-1.682 1.637.233 3.254.59 4.813.939 1.969.439 4.012.898 6.11 1.095 4.703.456 9.841-.383 14.487-2.375 2.129-.91 3.65-1.97 4.545-3.157-.01 1.777.82 3.454 2.287 4.438 1.567 1.054 3.816 1.301 5.907.715zm82.359-14.338c2.383-.683 5.114-1.79 7.198-3.762.793-.756 1.775-1.926 1.948-3.264.147-1.187-.532-2.514-1.927-2.671a.34.34 0 0 0-.357.236c-.048.15.049.285.202.297 1.076.127 1.614 1.215 1.499 2.157-.142 1.165-1.032 2.22-1.755 2.898-2.653 2.511-6.471 3.567-9.104 4.143-4.584 1.002-8.297 1.12-11.354.372-3.776-.92-6.596-3.373-7.364-6.383-1.088-4.292 2.354-9.769 7.22-11.495.156-.06.26-.22.22-.356s-.187-.202-.356-.148c-5.17 1.832-8.823 7.651-7.67 12.201.806 3.178 3.751 5.745 7.702 6.71 3.155.77 6.957.64 11.629-.377a33 33 0 0 0 2.256-.563zm26.694-25.057c4.346-1.242 6.88-3.054 7.542-5.41.038-.143-.048-.28-.2-.292s-.316.09-.351.242c-.594 2.122-2.975 3.796-7.072 4.955a.6.6 0 0 1-.125.037c-6.334 1.775-10.58 1.54-12.993-.719-.093-.084-.232-.09-.358-.014a23.2 23.2 0 0 1-6.273 2.637c-4.747 1.196-10.493.325-12.299-3.624-.973-2.136-.554-4.927 1.072-7.11s4.41-3.692 7.08-3.846c.157-.01.303-.134.317-.279.014-.144-.1-.26-.257-.25-2.873.16-5.862 1.785-7.6 4.13-1.738 2.346-2.189 5.338-1.145 7.636 1.91 4.187 7.947 5.117 12.908 3.87a23.4 23.4 0 0 0 6.263-2.592c2.573 2.257 6.952 2.482 13.371.685.041-.015.082-.031.126-.038l-.006-.017Z"/>
    <path fill="#00D264" d="M90.513 95.895c.256-.077.512-.154.765-.24 1.917-.627 3.167-1.468 3.82-2.562.086-.144.04-.3-.104-.357s-.322.01-.407.155c-.558.945-1.689 1.68-3.433 2.262-2.496.827-5.143 1.14-7.613.91-3.389-.32-6.07-1.702-7.333-3.796-1.468-2.434-.761-5.918 1.58-7.785.133-.102.164-.276.074-.384s-.276-.109-.409-.008c-2.568 2.045-3.367 5.85-1.766 8.497 1.349 2.225 4.157 3.69 7.715 4.028 2.312.209 4.76-.03 7.114-.71zm18.726 3.515c1.495-.424 2.708-.997 3.733-1.744 2.009-1.48 3.073-3.734 2.58-5.472-.04-.132-.196-.201-.349-.144s-.254.213-.215.346c.433 1.534-.523 3.542-2.336 4.88-1.432 1.057-3.293 1.736-5.85 2.136-5.271.84-9.603-.233-11.594-2.851-.24-.312-.427-.791-.323-1.164a.6.6 0 0 1 .258-.352c.143-.093.185-.256.105-.373s-.254-.13-.397-.038a1.28 1.28 0 0 0-.534.72c-.149.567.101 1.18.395 1.56 2.102 2.763 6.621 3.893 12.099 3.024.887-.146 1.688-.31 2.431-.52z"/>
    <path fill="#00D264" d="M1.075 37.934c-2.628 2.75-2.462 7.609.32 10.171l.05.05-.07-.01c-6.004-.644-12.543.916-16.878 5.308-4.052 4.286-6.356 11.25-3.642 16.791l.063.122c-2.075.408-4.11 1.033-5.997 1.97-5.62 2.445-9.795 9.608-6.39 15.345-8.477.543-17.902 1.392-24.166 7.774-4.63 4.425-5.953 11.937-2.942 17.609.99 1.848 2.71 3.265 4.779 3.691l-.085.532c-3.825-.507-7.449 1.228-10.662 3.144-2.747 1.706-7.053 4.413-10.017 5.731-9.971 4.786-24 5.092-28.485 16.802-2.921 7.576 4.116 15.208 11.82 14.584 3.776-.199 7.43-1.945 10.14-4.579 2.249-.248 4.313-1.342 6.614-1.99 3.407-1.006 7.37-.119 10.015 2.293 3.272 3.406-.279 6.999-3.456 8.63-7.942 4.764-17.807 6.132-26.745 3.754-21.438-5.626-33.035-1.414-51.703 9.352-3.883 2.402-7.867 5.024-12.457 5.899-11.584 2.315-22.5-3.595-33.765-4.912-20.997-2.336-38.562 14.847-59.505 13.358l.383-1.047c2.148 1.548 4.896 2.042 7.588 1.909 2.706-.126 5.401-.774 8.059-1.531 5.331-1.572 10.728-3.078 16.203-4.25 5.469-1.159 11.037-1.989 16.664-2.15 5.608-.154 11.288.336 16.745 1.797 5.444 1.455 10.596 3.642 15.912 5.106a44.3 44.3 0 0 0 16.318 1.436c6.832-.683 13.505-2.923 19.334-6.544 1.979-1.383 4.867-2.764 4.866-5.489-.07-.962-.251-2.587-1.194-3.016l.801-1.045c.065.099.121.168.161.352.184.748-.791 1.238-1.398.893a.88.88 0 0 1-.424-.482c-.076-.226-.053-.289-.043-.456.898-3.048 14.814-4.739 18.11-4.997 6.674-.828 12.602 2.994 18.474 5.302 11.105 4.347 25.238 3.502 33.661-5.659.075-.102.095-.174.085-.171 0 0 .01-.003-.042-.095l-1.039-1.536c11.105 2.936 23.508.546 32.568-6.508 2.087-1.649 3.931-3.699 4.931-6.08 2.342-5.215-2.369-10.078-7.31-11.175-8.226-2.08-15.84 2.258-23.912 3.946-4.793.955-10.525 1.26-14.657-1.869-3.807-3.469-.076-7.571 3.6-8.985 7.904-3.176 16.2-5.18 24.652-6.021 2.297 2.287 5.879 2.984 9.08 2.244 3.108-.688 5.848-2.709 7.955-5.185 2.306-2.533 3.444-5.715 5.727-8.349 5.181-5.857 13.601-2.243 19.774-.671 3.215.744 6.56.896 9.846.576 4.754-.548 9.904-2.038 13.685-4.975 1.04-.851 1.312-2.594.366-3.559l-1.029-1.047c9.89-.018 17.941-8.355 17.194-18.296l-.043-.587c5.098-.729 11.598-2.275 12.386-8.175l.801.695c1.396 1.1 2.093 3.056 3.896 3.275l1.096.104c-1.171 1.376-1.633 2.811-1.337 4.715 1.805 10.256 12.098 16.921 21.964 17.95 8.783.931 17.58-1.799 25.48-5.543 1.343-.634 2.629-1.304 3.975-1.995 1.539-.732 2.832-1.482 2.904-3.005 3.71.195 7.436-.25 11.007-1.29 7.12-2.18 18.45-8.667 17.099-17.235-.3-1.652-1.2-3.2-2.563-4.103l-.943-.626c2.804-.948 5.824-1.836 8.068-3.669 2.192-1.728 3.524-4.657 2.652-7.398l.9.334c6.528 2.44 14.347.748 19.319-4.13.347-.335.653-.7.83-1.055.17-.374.157-.61-.043-.883l-1.926-2.52 2.624 1.761c2.234 1.51 4.9 2.316 7.612 2.537 5.476.404 10.981-1.237 15.796-3.797 1.648-.966 3.623-1.998 4.043-3.89.045-.518-.224-1.03-.664-1.463l-.562-.568c4.001-1.49 8.256-1.826 12.126-3.546 3.466-1.584 6.669-4.219 8.243-7.732 3.321-7.72-2.626-15.86-10.938-15.875-5.273-.253-10.22 1.913-14.943 4.06l-.236.111-.214-.147c-4.63-3.314-9.882-5.862-15.49-6.824-8.408-1.417-17.297 1.004-24.288 5.802-1.913 1.153-3.239 2.887-5.251 3.91-.755.328-1.592.312-2.311.257-2.784-.308-5.692.39-7.783 2.194-2.271 1.918-3.267 5.195-2.261 7.979-2.833-.586-5.673-.437-8.476.28l-1.209.283c1.9-2.046 3.721-4.296 4.941-6.805 6.759-13.619-6.693-22.37-19.241-21.464-4.806.324-9.542 2.004-13.359 4.965l-.184.137-.164-.164c-4.27-4.265-9.482-7.582-15.11-9.785-5.626-2.193-11.723-3.276-17.764-2.846-1.53.073-3.017.438-4.563.33-1.54-.186-2.939-.802-4.433-1.113-9.013-1.949-18.282 1.694-25.443 7.062-7.386-4.32-15.95.193-22.027 4.97-6.491 4.455-9.214 15.28-2.494 20.72zm0 0c-6.756-5.416-4.057-16.311 2.434-20.8 5.855-4.756 15.18-9.512 21.965-5.057 7.21-5.45 16.538-9.146 25.643-7.217 1.478.294 2.91.91 4.4 1.08 1.49.105 3.007-.27 4.514-.347 12.22-.873 24.58 4.084 33.274 12.619l-.348-.026c7.814-6.101 19.281-6.931 27.896-2.015 4.394 2.342 7.765 6.93 7.502 12.075-.047 5.04-2.73 9.624-6.011 13.27l-.378-.64c1.32-.31 2.675-.576 4.051-.652 1.382-.09 2.764.018 4.11.247l-.446.5c-.822-2.988.391-6.239 2.668-8.203 2.291-1.991 5.462-2.722 8.371-2.402.706.05 1.362.049 1.937-.198 1.821-.97 3.294-2.753 5.09-3.834 7.177-4.925 16.253-7.409 24.912-5.966 5.778.982 11.148 3.59 15.871 6.949l-.454-.046c2.403-1.098 4.842-2.186 7.399-2.985 5.068-1.638 11.089-1.897 15.664 1.282 4.555 3.185 6.378 9.658 4.073 14.719-1.702 3.786-5.023 6.526-8.713 8.229-3.643 1.643-7.753 2.052-11.442 3.328l.186-.817c.549.528 1.042 1.348.957 2.241-.353 2.384-2.759 3.603-4.551 4.694-7.323 3.901-17.056 6.09-24.475 1.245l.699-.759c2.296 3.01-6.618 7.551-8.922 8.058-4.012 1.198-8.414 1.124-12.368-.325l.715-.61c.959 6.181-5.579 9.612-10.542 11.007l.131-.985c1.668 1.096 2.7 2.94 3.052 4.814 1.123 5.886-3.605 10.672-8.006 13.784-5.999 4.225-13.382 6.439-20.733 6.157l.601-.463c-.334 1.753-2.031 2.67-3.429 3.334-14.175 7.831-33.212 12.579-46.501.478-3.748-3.192-8.993-11.686-5.788-16.51l.444 1c-2.117-.146-3.225-2.381-4.585-3.569l1.044-.348c-.311 1.362-1.03 2.587-1.945 3.583-2.69 2.989-6.948 3.841-10.658 4.467l.535-.693c.869 9.846-7.068 19.052-16.943 19.636l.426-1.15c2.388 2.727.115 5.785-2.587 7.037-6.803 3.75-14.974 4.946-22.562 3.233-8.826-2.306-16.186-5.858-21.141 4.345-2.598 4.48-6.404 8.684-11.705 9.918-3.447.79-7.41.165-10.15-2.368l.578.19a89 89 0 0 0-16.128 3.197c-3.719 1.319-8.013 2.096-10.95 4.806-3.438 3.698 2.131 6.053 5.355 6.333 11.078 1.38 21.346-7.402 32.619-4.423 11.167 3.221 11.708 13.329 2.93 19.949-8.973 6.926-20.988 9.592-32.037 7.152l.768-1.143c.168.24.339.62.31 1.024-.095.896-.765 1.383-1.26 1.898-4.115 4.034-9.597 6.532-15.25 7.435-6.483 1.038-13.145.001-19.2-2.268-3.064-1.111-5.891-2.695-8.801-3.836-5.924-2.565-12.371-1.123-18.497-.063-2.573.521-5.282 1.162-7.467 2.516-.01.003.019-.007.026-.085.026-.119-.132-.394-.25-.42-.177-.073-.181-.05-.259-.023-.04.013-.132.033-.25.236-.137.243-.016.542.056.594l.801-1.044c1.938 1.148 2.221 3.472 1.878 5.459-.685 2.636-3.327 4.066-5.378 5.43-10.808 6.739-24.455 8.713-36.702 5.207-5.428-1.504-10.574-3.704-15.9-5.133-10.724-2.877-22.063-1.958-32.827.323-5.43 1.146-10.777 2.636-16.131 4.205-5.357 1.493-11.676 2.892-16.642-.572l-1.675-1.214 2.055.157c18.652 1.247 34.302-12.134 52.604-13.408 9.268-.796 18.088 2.903 26.983 4.726 10.464 2.165 16.797.543 25.53-5.362 18.93-10.897 30.8-15.112 52.445-9.391 8.718 2.342 18.333 1.014 26.069-3.616 4.838-2.491 6.349-6.652.543-8.96-2.049-.826-4.288-1.042-6.435-.39-2.137.582-4.22 1.683-6.594 1.983l.236-.112c-2.839 2.71-6.61 4.495-10.569 4.701-8.217.631-15.763-7.543-12.599-15.67 4.58-11.983 18.91-12.401 28.96-17.114 5.118-2.18 9.958-6.303 15.22-8.18 1.858-.631 3.844-.912 5.8-.657l-.085.532a7.5 7.5 0 0 1-3.011-1.413c-2.614-2.126-3.595-5.652-3.731-8.879-.242-4.396 1.545-8.78 4.705-11.838 6.31-6.376 15.718-7.274 24.188-7.77l-.127.239c-1.055-1.848-1.313-4.06-.953-6.13 1.05-6.523 7.543-10.224 13.553-11.3-2.973-4.71-.355-12.798 3.665-16.822 4.377-4.395 10.946-5.931 16.97-5.262l-.02.04c-2.804-2.599-2.932-7.471-.29-10.214z"/>
    <path fill="url(#c)" d="M335.104 123.155c2.6-.464 4.149-3.068 3.221-5.408 3.575 2.482 8.14 4.003 12.286 3.438 4.139-.568 8.332-3.743 8.33-7.489 2.878 1.052 6.047 1.635 8.832.973s5.05-2.796 4.935-5.414c3.813 1.887 7.725 3.78 11.881 4.551s8.667.245 11.349-2.24c2.681-2.485 4.04-6.985.797-9.622 3.152 2.303 7.425 2.252 11.287 2.448 2.504.125 5.022.42 7.51.951 4.397.931 8.717 2.595 13.137 2.957s9.229-.995 10.622-4.496c1.099-2.763-.349-6.283-3.117-8.443-2.769-2.154-6.611-2.986-9.96-2.498-2.242-.971-4.543-.9-6.725-2.102-2.029-1.116-5.295-4.61-2.737-6.241.829-.532 1.971-.582 3.06-.56 6.775.166 13.783 2.94 18.839 7.464 7.302 6.534 14.258 11.052 24.395 12.702 3.782.618 7.578 1.207 11.361 1.449 2.957.186 5.939.161 8.869.896 4.709 1.168 8.777 4.156 12.351 7.298s6.901 6.565 11.025 9.098c12.275 7.536 28.873 5.655 40.888 13.542-1.957-3.575-6.807-5.142-11.059-6.346-11.234-3.181-22.836-7.074-31.458-14.579-3.805-3.312-6.884-7.222-10.773-10.462-6.786-5.658-15.949-9.006-24.714-9.024-1.146-.003-2.346.066-3.227.624-.881.559-1.574 2.287-.847 3.15-.04-.195.404-.044.34.131-.066.182-.339.193-.567.169-2.599-.236-5.132-1.228-7.604-2.21-2.826-1.12-5.715-2.28-8.024-4.16-2.076-1.683-3.544-3.834-5.22-5.826-2.929-3.476-6.616-6.553-10.91-8.594-4.295-2.042-9.224-2.987-13.659-2.25-.569.096-1.078.166-1.007.686-6.001-5.058-14.241-7.957-21.99-7.733-3.328.097-7.008 1.103-7.839 3.847-.321 1.075-.147 2.281.329 3.405 1.243 2.927 4.35 5.139 7.595 6.5 3.246 1.363 6.708 2.033 10.064 3.06 3.355 1.026 6.765 2.501 9.061 4.986.796.867 1.471 1.967 1.192 2.947-.492 1.733-3.262 1.705-5.366 1.27a78.7 78.7 0 0 1-16.954-5.552c-.972-2.516-3.856-4.394-6.771-4.96-2.916-.567-5.831.004-8.352 1.03-1.629.66-3.214 1.532-5.09 1.576-2.158.054-4.33-1-6.079-2.323s-3.195-2.934-4.839-4.357c-4.196-3.622-9.764-5.982-15.31-6.494-.915-.084-1.862-.117-2.637.21-.783.326-1.232 1.217-.963 2.005-3.065-1.495-6.661-1.948-9.768-1.221s-5.691 2.615-7.023 5.135c-1.732-.68-3.501-1.36-5.326-1.594-1.825-.226-3.74.06-4.929 1.136-.546-1.247-.347-2.458-1.565-3.312 1.307-.432 1.951-1.657 2.266-2.867 1.579-5.984-2.708-12.924-8.809-17.003-6.102-4.08-13.633-5.776-20.893-6.573-1.299-.14-2.59-.445-3.413.34-5.138-3.152-11.41-4.665-17.199-4.141-2.186.198-4.384.71-5.898 1.988s-2.161 3.461-1.067 5.288c-1.894-.475-3.843-.95-5.728-.822s-3.715.99-4.271 2.528c-3.204-3.458-8.386-5.478-13.065-5.092-1.094.089-2.704.2-2.481 1.188-2.227-3.868-7.097-6.225-11.56-7.298-1.647-.393-9.626-2.096-8.458 1.222-3.025-.726-5.863-2.111-8.976-2.495-3.083-.384-6.313.054-8.423 1.771-2.31 1.878-2.907 5.222-1.422 8.019 1.273 2.4 3.833 4.224 6.567 5.339 2.735 1.114 5.656 1.61 8.538 2.068 2.558 4.697 6.356 9.024 11.512 11.677 5.155 2.654 11.125 3.834 16.661 3.3.726-.07 1.481-.164 2.204.07.548.177 1.024.528 1.508.834 1.717 1.084 3.836 1.682 5.76 1.43 1.925-.256 3.584-1.439 4-3.098 1.724 1.33 3.156 1.994 5.256 2.692-2.342.496-4.598 1.31-6.345 2.67-1.746 1.358-2.948 3.316-2.957 5.486-.008 1.92.899 3.878 2.137 5.602 3.861 5.387 11.233 8.9 18.009 8.571 2.719 7.848 9.605 15.387 18.126 19.096.594.261 1.206.507 1.751.862.634.416 1.142.966 1.688 1.48 5.013 4.75 12.694 6.511 19.556 6.264 1.263 2.04 3.585 3.534 6.026 4.351 2.442.817 5.009 1.018 7.516 1.045 2.289.026 4.63-.093 6.59-.943 3.701-1.608 5.942-5.326 4.149-8.986z"/>
    <path fill="#2D9CF8" d="M314.497 95.04c-4.025-1.501-8.249-2.156-11.889-1.613-3.14.47-6.098 1.997-8.113 4.2-2.16 2.35-3.056 5.227-2.532 8.113.69 3.763 3.349 7.746 7.501 11.217 3.121 2.609 7.979 5.157 12.392 6.494 3.873 1.17 9.209 2.008 12.607-.672 2.045-1.612 2.053-4.481 1.381-6.633-1.636-5.224-7.8-9.763-13.745-10.112-1.251-.075-2.153.063-2.829.426-.896.481-1.285 1.421-.958 2.284.04.098.155.171.27.157.106-.017.169-.106.131-.211-.273-.713.073-1.491.829-1.898.607-.329 1.443-.453 2.606-.382 5.747.338 11.706 4.719 13.283 9.772.64 2.05.638 4.786-1.287 6.306-5.929 4.668-19.053-1.271-24.424-5.772-4.068-3.401-6.67-7.294-7.343-10.965-1.145-6.249 4.49-11.075 10.37-11.957 8.61-1.295 20.561 4.297 25.089 11.737a.26.26 0 0 0 .219.122c3.499.107 6.607.838 9.228 2.18 3.086 1.575 5.416 4.039 6.237 6.588.279.863.495 2.109-.054 3.144-.501.941-1.644 1.465-2.773 1.284-.117-.02-.208.048-.209.148 0 .1.096.195.212.215 1.315.214 2.58-.37 3.16-1.449.603-1.12.371-2.458.071-3.386-.858-2.661-3.283-5.225-6.486-6.867-2.658-1.359-5.794-2.112-9.314-2.238-2.726-4.396-7.991-8.145-13.635-10.247zm-76.455-39.958c-.091-.033-.199-.016-.244.06-.054.08-.01.202.093.266 2.236 1.342 3.924 3.163 4.631 5.002.803 2.086.268 4.245-1.298 5.252-.796.51-1.919.7-3.077.516-1.174-.187-2.255-.738-2.966-1.524a.27.27 0 0 0-.195-.09c-.073-.001-.135.035-.161.09-.604 1.359-2.66 1.615-4.371 1.403-1.426-.178-2.629-.58-3.571-1.192-1.758-1.15-2.707-3.237-2.198-4.849.133-.413.475-1.157 1.313-1.435.702-.236 1.603-.011 2.089.519.083.085.216.11.306.06.082-.058.085-.173.011-.263-.617-.67-1.742-.96-2.606-.668-.719.238-1.26.82-1.515 1.63-.551 1.764.479 4.046 2.405 5.305 1.014.662 2.293 1.092 3.799 1.279 1.751.217 3.83-.033 4.628-1.343.783.745 1.876 1.272 3.05 1.46 1.261.199 2.491-.008 3.36-.566 1.691-1.08 2.268-3.398 1.408-5.63-.758-1.963-2.48-3.821-4.841-5.24-.016-.005-.03-.016-.045-.02zm6.618 13.662c-.098-.035-.199-.01-.242.058-.88 1.485-.271 3.73 1.381 5.093.928.767 2.096 1.248 3.111 1.631.835.319 1.735.629 2.615.631.84-.001 1.788-.361 1.988-1.175.024-.094-.054-.204-.167-.243s-.225.003-.249.103c-.165.65-.95.943-1.654.944-.8 0-1.639-.293-2.437-.595-.977-.372-2.094-.825-2.958-1.54-1.512-1.249-2.06-3.282-1.258-4.635.046-.081.002-.201-.101-.257-.015-.004-.03-.009-.037-.017zm7.382-12.11c-.093-.034-.186-.019-.238.05-.063.08-.033.2.078.274 2.345 1.61 4.124 4.019 4.742 6.448.024.105.141.188.256.187 3.542-.078 7.445 1.786 9.716 4.646.748.944 1.178 1.823 1.263 2.602.138 1.257-.555 2.328-1.178 3.119-1.046 1.325-2.088 2.072-3.297 2.336-1.703.374-3.665-.216-5.538-.906-1.849-.682-3.73-1.52-4.906-2.952-.657-.798-.973-1.868-.807-2.729.084-.464.347-1.066 1.083-1.35.105-.039.132-.15.066-.252a.26.26 0 0 0-.302-.11c-.683.264-1.144.823-1.285 1.579-.185.973.165 2.144.903 3.043 1.258 1.532 3.215 2.406 5.142 3.118 1.942.717 3.991 1.331 5.813.93 1.694-.37 2.803-1.578 3.488-2.45.655-.837 1.391-1.972 1.239-3.344-.096-.86-.555-1.81-1.358-2.82-2.326-2.924-6.292-4.856-9.936-4.856-.685-2.47-2.502-4.898-4.892-6.534-.022-.013-.037-.024-.06-.031z"/>
    <path fill="#2D9CF8" d="M322.032 107.169c-1.957-.735-4.043-1.035-5.967-.795-.116.015-.172.108-.133.215a.26.26 0 0 0 .273.161c3.677-.468 7.98 1.148 10.694 4.005 2.723 2.86 3.669 6.776 2.369 9.744-.039.091.015.202.128.255.112.053.23.026.269-.066 1.36-3.087.368-7.16-2.464-10.14-1.413-1.483-3.228-2.642-5.177-3.375zm-54.338-25.616-.038-.01c-.115-.027-.213.032-.221.129-.201 2.522 1.09 5.354 3.375 7.394.99.883 2.188 1.667 3.772 2.48 1.121.576 2.821 1.362 4.567 1.539 1.739.174 3.272-.326 4.011-1.31.06-.076.024-.192-.076-.26-.1-.069-.229-.059-.289.017-.668.891-2.075 1.348-3.672 1.188-1.66-.172-3.293-.927-4.378-1.48-1.548-.789-2.709-1.555-3.658-2.401-2.181-1.944-3.414-4.653-3.222-7.072.015-.088-.066-.178-.164-.212z"/>
    <path fill="#2D9CF8" d="M305.207 81.932c-.054-.015-.106-.037-.159-.058-4.875-1.76-9.016-2.504-12.654-2.281-5.101.31-10.442 3.065-10.782 7.736-.186 2.503 1.787 5.299 4.399 6.238.113.04.224-.003.256-.094.023-.094-.047-.202-.159-.247-2.418-.857-4.238-3.469-4.071-5.809.327-4.447 5.637-7.158 10.464-7.458 3.573-.215 7.644.516 12.451 2.25 1.903.683 5.472 2.405 6.838 4.525q.752 1.172.437 2.27c-.024.094.046.201.159.247.113.039.224-.003.256-.095.24-.817.073-1.683-.486-2.553-1.398-2.169-4.946-3.925-6.942-4.669z"/>
    <path fill="#2D9CF8" d="M307.499 86.233c-1.85-.66-3.975-1.18-6.417-1.593-2.898-.488-6.608-.908-9.599.162-1.521.544-3.143 1.798-2.729 3.55.023.093.134.173.244.172s.186-.08.164-.174c-.375-1.572 1.134-2.72 2.539-3.226 2.899-1.038 6.531-.62 9.369-.144 5.63.942 9.531 2.502 12.29 4.903.795.691 2.106 2.06 1.933 3.402-.016.09.069.188.182.213.112.03.216-.023.224-.115.191-1.493-1.218-2.97-2.074-3.716-1.631-1.418-3.634-2.544-6.133-3.436zm20.823-5.668c-.101-.036-.204-.01-.25.068-.048.092-.002.211.112.272 2.637 1.482 4.504 3.128 5.558 4.903 1.301 2.178 1.218 4.588-.189 5.868-.99.902-2.655 1.242-4.33.89-1.564-.327-3.156-1.239-4.368-2.498-.48-.497-1.246-1.458-1.003-2.288.033-.096-.038-.215-.156-.256s-.23-.004-.262.093c-.297 1.004.571 2.1 1.112 2.671 1.29 1.345 2.979 2.313 4.656 2.659 1.811.377 3.613.007 4.69-.969 1.521-1.373 1.616-3.962.225-6.293-1.107-1.854-3.037-3.567-5.757-5.095l-.04-.011zm15.903 21.721c-.105-.035-.208-.077-.312-.112-3.444-1.214-6.516-1.745-9.14-1.573-1.404.093-3.236.473-4.037 1.738-.052.076-.009.191.1.247.1.06.229.044.275-.04.728-1.163 2.451-1.508 3.767-1.593 2.554-.173 5.564.347 8.933 1.54 4.022 1.427 7.379 3.331 9.945 5.66 2.941 2.671 4.76 5.906 4.977 8.877.006.098.102.183.218.196.117.013.2-.061.192-.153-.231-3.065-2.097-6.397-5.12-9.142-2.552-2.319-5.854-4.221-9.812-5.655zm42.79-8.452c-2.446-.88-4.987-1.48-7.477-1.74-1.431-.146-3.493-.242-4.818.689-.985.693-1.5 1.944-1.434 3.521.024.684.327 1.713 1.078 2.374.37.32.803.503 1.255.532.116.007.192-.068.185-.16-.015-.1-.118-.185-.235-.192a1.54 1.54 0 0 1-.938-.4c-.609-.532-.909-1.44-.937-2.099-.06-1.48.409-2.647 1.314-3.285 1.219-.859 3.179-.771 4.54-.625 4.577.478 9.318 2.107 13.345 4.587 2.376 1.467 4.19 3.042 5.386 4.689.064.087.198.131.291.093s.12-.146.056-.234c-1.234-1.696-3.095-3.321-5.529-4.818a32.7 32.7 0 0 0-6.098-2.93z"/>
    <path fill="#2D9CF8" d="M385.111 101.556a4.5 4.5 0 0 0-1.583-.257c-.109.002-.178.081-.155.172s.134.164.243.162c.979-.026 2.045.374 2.929 1.096 1.047.857 1.659 2.007 1.613 3.006-.089 1.798-1.908 3.252-4.422 3.54-2.019.224-4.407-.198-7.32-1.295-5.124-1.936-8.663-4.93-9.474-8.022-.018-.071-.092-.134-.182-.158-2.174-.523-4.108-1.037-5.811-2.057-1.577-.943-3.116-2.62-2.998-4.233.006-.078-.057-.162-.16-.195-.096-.032-.194-.01-.237.059-.829 1.363-2.547 2.253-4.709 2.445-2.162.193-4.387-.35-6.101-1.483a.26.26 0 0 0-.196-.04c-.064.014-.111.056-.113.11-.388 2.383-3.187 4.045-6.25 3.7-.115-.013-.204.049-.197.142s.1.18.215.191c3.148.35 6.037-1.288 6.591-3.687 1.777 1.088 4.008 1.596 6.178 1.405 1.995-.175 3.633-.922 4.604-2.077.213 1.379 1.396 2.863 3.177 3.928 1.732 1.033 3.739 1.579 5.823 2.084.905 3.172 4.527 6.225 9.731 8.194 2.993 1.131 5.464 1.562 7.556 1.327 2.672-.301 4.612-1.862 4.708-3.792.056-1.094-.622-2.359-1.763-3.296a5.5 5.5 0 0 0-1.698-.963z"/>
    <path fill="#2D9CF8" d="M361.966 102.507a11.6 11.6 0 0 0-2.432-.646c-.531-.078-1.218-.139-1.803.064-.524.179-1.016.649-.927 1.294.014.107.122.193.233.205.121.007.199-.074.192-.179-.06-.471.315-.824.719-.962.498-.172 1.113-.112 1.596-.041 2.432.351 5.715 1.889 7.013 4.046.987 1.639.8 3.752-.428 4.705-.52.4-1.359.371-2.24.303-.856-.069-1.892-.23-2.352-.885-.065-.095-.204-.142-.3-.1s-.123.157-.057.251c.584.836 1.775 1.035 2.745 1.109.969.073 1.896.107 2.511-.376 1.526-1.183 1.445-3.545.483-5.137-.967-1.607-2.969-2.893-4.962-3.646zm-18.011-28.054a6 6 0 0 0-.888-.247c-.114-.025-.212.038-.22.132s.085.191.199.217c1.685.339 3.299 1.508 4.015 2.898.715 1.396.529 2.986-.482 3.961-.067.065-.054.172.036.248.09.07.215.08.289.016.816-.713 2.295-.824 4.382-.347 3.445.79 6.847 2.43 9.601 4.63 1.235.987 2.362 2.098 3.454 3.18.876.869 1.787 1.766 2.756 2.601 2.645 2.28 5.344 3.61 7.796 3.846.116.013.199-.06.192-.159-.006-.098-.11-.185-.226-.198-2.964-.282-5.715-2.18-7.494-3.717-.955-.825-1.859-1.714-2.73-2.574-1.099-1.084-2.239-2.212-3.495-3.211-2.809-2.248-6.29-3.93-9.82-4.736-1.616-.372-2.897-.4-3.825-.09.554-1.025.552-2.346-.065-3.534-.657-1.27-1.992-2.363-3.485-2.906zm-56.564-20.427c-1.707-.644-3.763-1.188-5.675-.937-.729.099-1.703.36-2.218 1.076-.454.638-.431 1.721.4 2.427.092.082.229.087.297.017.076-.067.056-.19-.037-.264-.639-.548-.647-1.428-.288-1.935.444-.627 1.325-.86 1.986-.944 2.434-.32 5.159.732 6.992 1.549 3.19 1.42 5.564 2.982 7.26 4.768 2.098 2.203 3.127 4.894 2.696 7.013-.62 3.018-4.453 4.747-8.042 3.63-.116-.033-.229.016-.245.115-.017.098.056.2.178.243 3.812 1.188 7.881-.65 8.54-3.85.458-2.235-.616-5.048-2.809-7.354-1.753-1.843-4.186-3.436-7.436-4.888a26 26 0 0 0-1.592-.658zm-25.603 5.236c-3.11-1.154-5.256-1.19-6.391-.093-.067.068-.055.185.037.258s.226.084.294.01c1.021-.988 3.028-.939 5.956.157a.5.5 0 0 1 .091.032c4.521 1.704 7.117 3.683 7.944 6.055.033.09.118.154.221.163a17.2 17.2 0 0 1 4.746 1.172c3.348 1.356 6.693 4.358 6.622 7.46-.04 1.675-1.156 3.133-2.844 3.71s-3.897.256-5.622-.812c-.101-.062-.231-.052-.284.026-.053.079-.017.196.085.259 1.854 1.151 4.228 1.493 6.036.87s3.004-2.185 3.05-3.987c.077-3.287-3.432-6.45-6.93-7.869a17.3 17.3 0 0 0-4.727-1.193c-.927-2.44-3.61-4.471-8.192-6.199a.4.4 0 0 1-.09-.032z"/>
    <path fill="#2D9CF8" d="M299.426 59.417q-.277-.103-.556-.196c-1.398-.474-2.442-.526-3.187-.166-.098.048-.116.161-.043.259.074.097.207.136.304.088.639-.315 1.576-.252 2.852.172a16.1 16.1 0 0 1 5.076 2.822c2.039 1.686 3.308 3.69 3.469 5.492.185 2.094-1.32 3.851-3.364 3.926-.114.001-.186.092-.162.196s.14.186.255.184c2.24-.08 3.901-1.986 3.697-4.266-.174-1.916-1.499-4.027-3.639-5.798a16.8 16.8 0 0 0-4.701-2.72z"/>
    <path fill="#2D9CF8" d="M289.353 50.548c-1.069-.393-2.006-.578-2.878-.58-1.715.003-3.075.861-3.298 2.086-.016.094.061.201.175.233s.225-.015.241-.11c.198-1.08 1.415-1.841 2.963-1.845 1.223-.004 2.6.397 4.327 1.258 3.566 1.766 5.957 4.246 6.403 6.625.055.285.026.645-.154.817a.34.34 0 0 1-.27.095c-.118-.007-.194.07-.18.173s.12.184.238.191c.22.01.414-.054.556-.191.267-.267.298-.73.23-1.078-.472-2.511-2.962-5.105-6.667-6.943a18 18 0 0 0-1.685-.737z"/>
    <path fill="#2D9CF8" d="M335.109 123.111c2.602-.477 4.124-3.061 3.204-5.399l-.015-.043.04.03c3.625 2.507 8.33 4.064 12.574 3.351 4.029-.76 7.837-3.544 7.958-7.404l.001-.086c1.463.539 2.974.951 4.495 1.147 4.414.763 9.485-1.446 9.231-5.658 5.603 2.786 11.916 5.756 18.061 4.707 4.444-.623 7.808-4.046 7.784-8.082-.013-1.318-.639-2.677-1.819-3.646l.233-.246c2.276 1.648 5.175 2.058 7.872 2.225 2.329.109 5.99.26 8.328.648 7.981 1.123 17.055 6.041 23.849 1.582 4.407-2.878 2.466-9.39-2.672-11.854-2.481-1.263-5.402-1.678-8.019-1.29-1.521-.686-3.208-.865-4.897-1.36-2.516-.71-4.753-2.606-5.636-4.816-.951-2.953 2.524-3.535 5.103-3.232 6.676.4 13.444 3.26 18.363 7.73 11.825 10.68 20.653 12.689 36.201 13.853 3.288.158 6.715.237 9.944 1.443 8.185 2.991 13.185 10.011 19.948 14.772 12.645 8.812 29.638 6.244 42.534 14.597l-.597.405c-.855-1.582-2.446-2.833-4.213-3.738-1.772-.914-3.713-1.552-5.667-2.122-3.936-1.112-7.893-2.283-11.787-3.656-3.886-1.377-7.725-2.961-11.378-4.914-3.638-1.949-7.106-4.259-10.107-6.993-2.994-2.726-5.556-5.727-8.465-8.411a38 38 0 0 0-9.954-6.652c-4.599-2.117-9.617-3.369-14.559-3.597-1.729.002-4.039-.326-4.951 1.09-.278.524-.707 1.434-.248 1.998l-.862.253c-.009-.075-.022-.13.014-.24.133-.456.921-.357 1.194.041a.54.54 0 0 1 .109.404c-.027.145-.063.169-.125.253-1.596 1.258-11.063-2.9-13.257-3.959-4.546-1.985-7.056-6.116-10.037-9.44-5.646-6.277-14.968-10.953-23.425-9.242-.083.025-.119.056-.112.058 0 0-.007-.002-.005.064l.15 1.174c-6.119-5.544-14.851-8.79-23.011-8.406-1.887.102-3.754.499-5.191 1.374-3.246 1.861-1.863 6.092.93 8.45 4.563 4.058 10.886 4.56 16.615 6.604 3.385 1.239 7.153 3.155 8.747 6.276 1.272 3.18-2.489 3.96-5.314 3.364a79.3 79.3 0 0 1-17.785-5.794c-.702-2.02-2.759-3.678-5.054-4.452-2.219-.767-4.649-.71-6.826-.185-2.324.48-4.118 1.722-6.462 2.263-5.276 1.168-9.45-3.756-12.87-6.807-1.807-1.55-3.896-2.84-6.105-3.863-3.223-1.436-7.017-2.526-10.419-2.368-.95.065-1.708.873-1.427 1.716l.307.916c-6.331-3.57-14.275-2.153-17.129 3.281l-.169.321c-3.505-1.467-8.18-3.015-10.662-.236l-.279-.651c-.525-1.076-.315-2.345-1.394-3.11l-.666-.452c1.21-.291 1.987-.87 2.435-1.965 2.284-5.98-2.065-13.168-8.03-17.273-5.305-3.662-11.846-5.428-18.153-6.342-1.072-.157-2.119-.274-3.211-.403-1.23-.176-2.308-.255-2.865.51a29.3 29.3 0 0 0-7.472-3.313c-5.284-1.444-14.704-2.175-16.713 2.765a3.56 3.56 0 0 0 .264 3.058l.393.667c-2.11-.523-4.339-1.154-6.389-1.014-1.981.104-3.815 1.144-4.176 2.883l-.463-.5c-3.358-3.63-8.926-5.58-13.74-4.845-.335.048-.652.127-.884.247-.235.133-.306.26-.269.474l.387 2.006-1.088-1.865c-.923-1.592-2.358-2.975-4.018-4.072-3.367-2.192-7.437-3.332-11.375-3.744-1.377-.095-2.987-.274-3.889.557-.203.253-.202.616-.066 1l.169.499c-3.058-.675-5.892-2.04-8.943-2.547-2.748-.431-5.68-.222-7.864 1.034-4.712 2.808-3.637 9.188 1.674 12.204 3.287 2.04 7.177 2.705 10.917 3.3l.189.027.087.154c1.851 3.397 4.355 6.62 7.619 9.15 4.903 3.78 11.399 5.739 17.478 5.777 1.61.093 3.039-.328 4.669-.13.593.102 1.123.413 1.564.702 1.678 1.167 3.772 1.857 5.713 1.677 2.095-.175 3.831-1.517 4.121-3.327 1.615 1.33 3.481 2.28 5.515 2.923l.867.29c-1.901.375-3.819.885-5.441 1.747-8.887 4.628-3.218 14.042 5.111 18.112 3.182 1.571 6.775 2.413 10.208 2.256l.164-.005.05.145c1.301 3.761 3.523 7.37 6.384 10.551 2.862 3.175 6.398 5.945 10.406 7.907 1.003.516 2.076.865 3.029 1.48.922.654 1.61 1.481 2.462 2.183 5.111 4.274 12.26 5.736 18.639 5.539 3.276 4.917 10.265 5.672 15.753 5.391 5.645.035 11.015-4.604 8.54-9.861zm0 0c2.505 5.259-2.874 9.941-8.53 9.923-5.338.353-12.896-.552-15.742-5.321-6.438.222-13.643-1.235-18.819-5.532-.847-.688-1.556-1.526-2.452-2.154-.918-.593-2.014-.947-3.003-1.453-8.108-3.969-14.351-11.017-17.051-18.597l.214.14c-7.042.341-14.654-3.378-18.515-9.05-2.026-2.806-2.644-6.409-.751-8.986 1.719-2.601 4.972-4.011 8.292-4.718l.028.47c-.948-.318-1.905-.67-2.81-1.128a15.3 15.3 0 0 1-2.546-1.616l.453-.098c-.475 1.85-2.341 3.1-4.456 3.295-2.132.206-4.405-.563-6.158-1.782-.435-.28-.855-.518-1.305-.598-1.49-.155-3.03.238-4.541.15-6.241-.04-12.878-2.034-17.932-5.917-3.366-2.602-5.926-5.899-7.821-9.353l.275.188c-1.905-.3-3.829-.617-5.733-1.127-3.79-.984-7.727-3.028-9.588-6.335-1.845-3.303-.841-7.325 2.329-9.12 2.358-1.35 5.4-1.572 8.331-1.121 2.881.465 5.646 1.74 8.434 2.412l-.394.357c-.174-.473-.214-1.077.14-1.51 1.025-1.11 2.972-.873 4.484-.792 5.99.624 12.949 3.01 16.07 8.211l-.702.142c-.46-2.395 6.764-1.528 8.408-.957 2.966.83 5.757 2.461 7.8 4.644l-.662.059c1.459-3.558 6.79-2.974 10.432-1.902l-.414.464a4.2 4.2 0 0 1-.338-3.606c1.255-3.463 5.883-4.238 9.741-4.262 5.253-.023 10.716 1.498 15.323 4.305l-.54.023c.802-.79 2.194-.652 3.311-.49 11.691 1.062 25.457 5.485 29.9 16.58 1.327 3.015 1.834 9.325-1.833 10.67l.051-.68c1.306.843 1.265 2.405 1.736 3.514l-.784-.197c.656-.595 1.526-.972 2.445-1.157 2.722-.58 5.731.519 8.313 1.536l-.574.167c2.745-5.429 10.907-7.339 17.418-4.068l-.658.443c-.613-2.281 1.866-3.047 4.013-2.72 5.608.515 11.235 2.85 15.513 6.487 4.872 4.392 8.388 8.9 14.977 5.394 3.163-1.387 7.007-2.194 10.811-.916 2.469.837 4.794 2.596 5.697 4.903l-.306-.308a79 79 0 0 0 11.386 4.177c2.821.66 5.827 1.811 8.614 1.466 3.439-.677.666-3.915-1.302-5.228-6.622-4.725-16.132-3.88-22.343-9.507-6.063-5.714-3.02-11.16 4.813-11.422 8.06-.35 16.637 2.612 22.886 7.879l-.874.315c-.027-.185-.009-.444.145-.643.361-.432.952-.442 1.442-.53 3.984-.607 8.327.08 12.245 1.656 4.494 1.808 8.407 4.757 11.519 8.127 1.587 1.686 2.864 3.532 4.343 5.178 2.929 3.476 7.535 5.06 11.808 6.726 1.821.662 3.768 1.308 5.619 1.396.008.002-.014-.004-.045.035-.056.052-.048.252.019.309.089.101.099.091.158.105.03.008.095.031.239-.032.169-.076.192-.276.163-.33l-.862.254c-.854-1.298-.257-2.608.629-3.515 1.322-1.122 3.491-.909 5.26-.875 9.171.411 18.56 4.324 25.218 10.578 2.967 2.746 5.52 5.751 8.448 8.42 5.894 5.376 13.454 9.002 21.102 11.713 3.857 1.37 7.776 2.531 11.726 3.654 3.927 1.163 8.437 2.723 10.452 6.32l.664 1.237-1.262-.826c-11.511-7.398-26.004-6.111-38.137-12.073-6.194-2.94-10.595-8.054-15.672-12.22-5.967-4.912-10.56-6.361-18.125-6.454-15.759-1.191-24.763-3.297-36.689-14.102-4.79-4.372-11.385-7.162-17.884-7.556-3.929-.457-6.29 1.157-3.351 4.457 1.034 1.171 2.393 2.093 3.985 2.532 1.561.47 3.263.653 4.882 1.356l-.189-.027c2.724-.38 5.734.057 8.335 1.383 5.467 2.646 7.553 9.623 2.805 12.699-6.945 4.567-16.25-.402-24.258-1.591-4.003-.72-8.48-.33-12.475-1.259-1.4-.344-2.764-.917-3.93-1.758l.233-.246c.621.526 1.123 1.147 1.452 1.824.959 2.051.405 4.237-.59 5.963-1.319 2.371-3.931 4.001-6.977 4.446-6.173 1.029-12.491-1.91-18.075-4.717l.163-.078c.055 1.341-.522 2.584-1.446 3.528-2.859 3.009-8.251 2.581-12.456.965.323 3.523-4.062 6.776-7.982 7.412-4.273.698-8.989-.88-12.617-3.409l.025-.013c.923 2.365-.628 4.942-3.237 5.411z"/>
    <path fill="#F0FDF7" d="M404.282 37.934c2.635 2.73 2.485 7.637-.307 10.197 5.929-.647 12.281.85 16.613 4.956 4.321 4.103 6.776 11.928 4.006 17.21 4.074.812 8.134 2.518 10.834 5.675s3.719 7.973 1.652 11.574c5.761.38 11.641.833 16.971 3.062 5.331 2.229 10.109 6.572 11.343 12.216 1.235 5.644-.535 13.076-6.199 14.206 5.312-.733 10.169 2.75 14.738 5.556 2.96 1.821 6.062 3.415 9.305 4.651 5.724 2.196 11.902 3.296 17.233 6.313 5.33 3.017 9.834 8.768 8.843 14.818-.784 4.773-5.045 8.582-9.812 9.42-4.764.828-9.78-1.066-13.255-4.426-3.286-.419-5.869-2.354-9.257-2.402-3.148-.044-9.473 2.277-7.748 6.618.557 1.412 1.827 2.394 3.091 3.232 7.883 5.172 17.961 6.852 27.096 4.506 13.193-3.387 24.501-4.208 37.331 1.554 4.789 2.146 9.571 4.345 14.084 7.023 3.525 2.097 6.921 4.512 10.821 5.814 6.256 2.111 13.125 1.143 19.541-.436s12.757-3.752 19.353-4.034c19.63-.833 37.251 15.067 56.842 13.531-4.884 3.481-11.597 1.819-17.358.125-15.218-4.48-31.385-8.248-46.807-4.543-6.807 1.635-13.224 4.691-20.073 6.158-11.955 2.564-24.925-.027-34.977-6.996-1.316-.91-2.639-1.964-3.236-3.455-.596-1.491-.112-4.482 1.359-5.118-.191.243.43.385.486.086.059-.309-.246-.542-.525-.69-3.151-1.742-6.785-2.364-10.343-2.95-4.064-.679-8.23-1.348-12.266-.539-3.621.717-6.892 2.58-10.284 4.052-5.925 2.565-12.423 3.963-18.85 3.414s-12.773-3.148-17.308-7.727c-.581-.588-1.112-1.094-.646-1.77-10.612 2.344-22.193-.144-30.903-6.643-3.741-2.792-7.212-7.147-6.136-11.681.427-1.772 1.518-3.335 2.895-4.539 3.586-3.136 8.781-3.777 13.505-3.108s9.184 2.487 13.786 3.717c4.603 1.231 9.599 1.87 14.065.199 1.553-.587 3.14-1.601 3.544-3.206.717-2.836-2.476-5.008-5.207-6.073-7.612-2.969-15.385-4.864-23.523-5.699-2.973 2.772-7.665 3.121-11.423 1.592s-6.675-4.659-8.804-8.117c-1.378-2.233-2.548-4.726-4.665-6.286-2.432-1.798-5.698-2.046-8.68-1.575-2.981.472-5.828 1.59-8.763 2.284-7.483 1.759-15.605.645-22.337-3.059-1.109-.611-2.218-1.321-2.865-2.401-.656-1.084-.51-2.699.38-3.595-4.616-.337-9.07-2.569-12.092-6.074-3.021-3.504-4.585-8.23-4.248-12.846-2.485-.424-5.016-.876-7.277-2.003-2.258-1.137-4.24-3.069-4.807-5.534-1.547 1.322-2.214 3.19-4.24 3.421 1.178 1.653 1.009 3.895.476 5.851-2.615 9.7-12.655 16.067-22.659 16.952-10.004.884-19.884-2.733-28.789-7.403-1.591-.838-3.295-1.44-3.659-3.203-8.214.343-16.515-2.527-22.76-7.885-2.356-2.024-4.495-4.5-5.285-7.512-.79-3.01.082-6.605 2.687-8.308-2.521-.841-5.104-1.726-7.169-3.411s-3.523-4.362-3.023-6.975c-6.226 2.32-13.655 1.033-18.728-3.244-1.188-.999-2.95-2.441-1.965-3.655-5.409 3.677-12.73 3.115-18.635 1.066-2.176-.76-12.575-4.724-8.784-8.471-4.001-1.391-8.276-1.702-12.126-3.645-3.814-1.92-7.19-5.115-8.337-9.22-1.258-4.492.53-9.685 4.298-12.444 3.232-2.368 7.513-2.898 11.469-2.288s7.668 2.243 11.308 3.896c6.401-4.583 13.95-7.655 21.817-7.283 7.866.372 15.576 3.472 21.522 8.643.781.677 1.575 1.413 2.576 1.66.759.187 1.563.072 2.344.027 2.768-.16 5.637.69 7.655 2.578 2.015 1.899 3.041 4.89 2.291 7.562 2.958-.5 5.089-.293 8.01.399-2.316-2.569-4.297-5.518-5.294-8.828s-.925-7.03.669-10.099c1.41-2.714 3.896-4.751 6.589-6.195 8.404-4.516 19.445-3.587 26.963 2.284 8.915-8.899 22.375-14.036 34.876-12.467.873.106 1.757.247 2.643.182 1.034-.081 2.023-.452 3.027-.74 9.254-2.7 19.354.946 27.03 6.771 2.955-1.87 6.718-2.123 10.119-1.327s6.489 2.56 9.38 4.523c2.642 1.79 5.235 3.827 6.852 6.589 3.05 5.222 2.869 12.254-1.89 15.984l.006-.02Z"/>
    <path fill="#00D264" d="M359.086 64.485c-5.631-1.599-10.977-4.43-14.911-8.259-3.392-3.306-5.926-7.778-6.945-12.283-1.099-4.814-.397-9.197 1.976-12.362 3.1-4.123 8.642-6.818 15.62-7.58 5.245-.573 12.488.433 18.473 2.573 5.25 1.882 12.011 5.446 14.359 11.745 1.413 3.79-.325 7.394-2.423 9.512-5.099 5.136-15.085 5.498-22.262.793-1.51-.987-2.484-1.94-3.055-2.98-.756-1.378-.639-2.893.27-3.692.106-.089.286-.08.411.037.115.112.134.279.026.377-.754.659-.823 1.933-.186 3.097.511.938 1.415 1.815 2.821 2.733 6.938 4.545 16.587 4.205 21.513-.768 1.998-2.016 3.663-5.45 2.334-9.02-4.102-10.981-23.095-14.882-32.128-13.883-6.837.747-12.257 3.378-15.282 7.4-5.148 6.845-1.486 17.77 4.864 23.96 9.298 9.07 26.705 12.393 36.541 6.98a.31.31 0 0 1 .331.035c4.165 2.893 8.25 4.663 12.139 5.247 4.574.694 8.805-.381 11.319-2.868.853-.84 1.864-2.216 1.851-3.988-.013-1.614-1.033-3.26-2.465-4.01-.149-.075-.215-.24-.155-.365.061-.127.231-.162.379-.086 1.671.87 2.798 2.695 2.82 4.55.024 1.925-1.063 3.402-1.98 4.307-2.626 2.594-7.029 3.713-11.781 3.001-3.942-.594-8.074-2.362-12.275-5.248-5.872 3.156-14.323 3.303-22.215 1.06zm-120.913-6.131c-.127-.038-.243-.153-.25-.286-.015-.147.111-.26.269-.25 3.422.27 6.491-.532 8.423-2.208 2.194-1.899 2.867-5.05 1.642-7.662-.624-1.326-1.823-2.537-3.288-3.314-1.485-.786-3.081-1.038-4.385-.676a.33.33 0 0 1-.283-.057.32.32 0 0 1-.133-.253c.11-2.216-2.14-4.32-4.269-5.54-1.774-1.016-3.423-1.561-4.893-1.615-2.747-.095-5.112 1.68-5.486 4.128-.093.63-.141 1.851.672 2.926.679.903 1.868 1.404 2.756 1.166a.37.37 0 0 1 .393.19c.061.144-.005.29-.145.338-1.125.299-2.614-.316-3.45-1.43-.697-.92-.979-2.115-.791-3.344.417-2.674 2.993-4.62 6.004-4.516 1.584.057 3.338.632 5.211 1.705 2.178 1.25 4.459 3.365 4.606 5.689 1.363-.249 2.958.044 4.444.83 1.594.846 2.909 2.172 3.589 3.62a6.98 6.98 0 0 1-1.739 8.23c-2.069 1.785-5.2 2.603-8.814 2.32-.021-.008-.044-.006-.065-.014zm17.613-12.936c-.137-.041-.239-.16-.248-.282-.127-2.623 1.952-4.91 4.717-5.188 1.553-.159 3.214.25 4.637.648 1.171.323 2.415.713 3.447 1.47.983.73 1.874 2 1.613 3.194-.029.138-.187.208-.343.159-.157-.05-.262-.198-.23-.345.203-.958-.538-2.003-1.363-2.613-.937-.691-2.098-1.05-3.215-1.363-1.372-.379-2.955-.778-4.403-.629-2.531.258-4.41 2.332-4.294 4.721.004.141-.12.253-.275.235-.02-.008-.041-.016-.054-.01z"/>
    <path fill="#00D264" d="M256.958 64.829a.34.34 0 0 1-.247-.269c-.026-.152.081-.276.254-.271 3.694.045 7.205-1.392 9.374-3.86.091-.109.277-.11.411-.008 4.084 3.17 9.748 4.25 14.101 2.684 1.434-.518 2.46-1.232 3.024-2.122.91-1.434.74-3.36.486-4.879-.431-2.547-1.201-4.374-2.453-5.75-1.763-1.939-4.404-2.913-6.999-3.685-2.564-.76-5.257-1.355-7.482-.606-1.242.418-2.249 1.466-2.568 2.675-.179.648-.23 1.62.459 2.609.099.14.064.3-.074.37-.137.071-.318.012-.417-.127-.64-.919-.845-2.01-.558-3.067.365-1.364 1.47-2.509 2.867-2.98 2.381-.802 5.184-.186 7.856.605 2.692.8 5.448 1.817 7.334 3.894 1.755 1.926 2.329 4.384 2.608 6.055.264 1.605.446 3.648-.549 5.213-.625.979-1.727 1.756-3.264 2.307-4.456 1.599-10.234.547-14.483-2.614-2.272 2.46-5.838 3.885-9.601 3.835-.034-.003-.058-.001-.089-.013zm118.782-9.716c-2.731-.784-5.35-2.222-7.456-4.191-.127-.119-.136-.283-.026-.383s.289-.082.416.037c4.018 3.774 10.022 5.497 14.914 4.298 4.902-1.195 8.363-5.247 8.627-10.069.009-.148.14-.24.303-.207.164.032.285.168.276.316-.266 5.022-3.876 9.23-8.979 10.48-2.544.618-5.362.486-8.083-.294zm-83.034-8.936s-.031-.011-.051-.02c-.151-.066-.229-.223-.18-.353 1.31-3.346 4.56-5.795 8.488-6.389 1.702-.258 3.586-.21 5.94.134 1.668.242 4.142.72 6.296 2.004 2.145 1.281 3.636 3.234 3.899 5.11.024.147-.09.262-.249.261a.34.34 0 0 1-.328-.272c-.236-1.697-1.605-3.486-3.576-4.662-2.05-1.215-4.427-1.676-6.038-1.917-2.298-.342-4.128-.38-5.759-.134-3.748.563-6.853 2.908-8.11 6.116-.037.125-.186.167-.322.126z"/>
    <path fill="#00D264" d="M337.447 74.736c-.072-.027-.147-.045-.221-.063-6.781-2.014-12.084-4.663-16.209-8.09-5.787-4.801-10.367-12.876-7.924-19.024 1.305-3.296 5.317-5.092 8.948-4.01.157.05.261.199.242.34-.029.139-.177.212-.336.172-3.353-1.017-7.074.68-8.302 3.757-2.322 5.855 2.248 13.846 7.72 18.398 4.053 3.361 9.267 5.966 15.952 7.954 2.644.79 7.872 1.72 10.762.246 1.063-.544 1.695-1.37 1.893-2.468.03-.138.177-.211.336-.17.157.048.262.197.242.34-.215 1.23-.938 2.17-2.122 2.778-2.957 1.508-8.18.64-10.971-.156z"/>
    <path fill="#00D264" d="M342.853 70.505c-2.594-.717-5.423-1.845-8.555-3.38-3.715-1.826-8.339-4.425-11.167-8.332-1.437-1.986-2.539-4.972-.932-6.874.086-.102.268-.11.396-.016.128.095.168.262.081.363-1.446 1.705-.408 4.457.917 6.297 2.74 3.79 7.271 6.326 10.909 8.113 7.214 3.553 12.793 4.847 17.569 4.094 1.376-.217 3.791-.869 4.447-2.74.039-.129.201-.183.35-.12.151.056.238.212.189.337-.731 2.082-3.331 2.79-4.813 3.025-2.823.444-5.896.197-9.401-.77l.01.004Zm21.563 20.78a.35.35 0 0 1-.251-.301c-.001-.155.124-.261.292-.238 3.954.455 7.108.042 9.392-1.236 2.812-1.561 4.15-4.607 3.272-7.407-.616-1.97-2.354-3.834-4.515-4.85a10.24 10.24 0 0 0-6.575-.704c-.854.2-2.319.72-2.529 1.956-.019.147-.173.232-.334.181-.161-.05-.271-.195-.251-.342.251-1.497 1.915-2.097 2.886-2.334a10.8 10.8 0 0 1 7.005.754c2.335 1.104 4.214 3.123 4.887 5.26.955 3.014-.474 6.292-3.482 7.963-2.393 1.33-5.661 1.772-9.738 1.3l-.053-.02zm34.173-14.415c-.144-.043-.291-.079-.436-.123-4.8-1.401-8.737-3.352-11.709-5.816-1.589-1.319-3.501-3.368-3.649-5.662-.014-.14.109-.25.271-.228.155.01.297.14.298.286.127 2.1 1.933 4.014 3.424 5.248 2.888 2.403 6.746 4.315 11.445 5.679 5.612 1.626 10.743 2.075 15.211 1.308 5.123-.882 9.282-3.44 11.394-7.032.069-.12.235-.145.379-.063.144.083.197.248.13.359-2.19 3.699-6.464 6.34-11.729 7.246-4.445.766-9.51.361-15.052-1.2zm47.333 32.118a6 6 0 0 1-2.027-.993c-.128-.093-.157-.254-.07-.353.086-.1.264-.101.392-.007 1.133.853 2.646 1.227 4.157 1.028 1.79-.239 3.262-1.221 3.861-2.559 1.072-2.412-.114-5.826-2.879-8.306-2.226-1.983-5.306-3.434-9.445-4.447-7.285-1.774-13.402-.844-16.375 2.497-.069.079-.197.097-.318.053-2.896-1.14-5.504-2.09-8.172-2.191-2.469-.094-5.374.797-6.291 2.995-.044.106-.172.162-.315.119-.133-.04-.233-.15-.24-.275-.081-2.467-1.517-5.063-3.931-7.124s-5.383-3.218-8.137-3.182a.35.35 0 0 1-.256-.112c-.067-.071-.094-.165-.061-.238 1.103-3.423-1.098-7.929-4.922-10.045-.143-.08-.207-.234-.138-.35s.235-.149.377-.069c3.927 2.182 6.249 6.732 5.331 10.316 2.799.073 5.752 1.281 8.176 3.346 2.229 1.9 3.664 4.242 4.049 6.558 1.152-1.615 3.513-2.554 6.301-2.447 2.711.107 5.425 1.077 8.203 2.165 3.137-3.366 9.39-4.303 16.791-2.505 4.255 1.035 7.44 2.544 9.743 4.602 2.942 2.629 4.199 6.284 3.05 8.875-.65 1.469-2.273 2.546-4.227 2.809a6.5 6.5 0 0 1-2.625-.169zm-66.738-.692a7.6 7.6 0 0 1-1.196-.446c-.15-.066-.225-.229-.176-.356s.22-.17.37-.105c2.189 1.01 4.814.903 6.524-.253 1.712-1.164 2.489-3.345 1.913-5.449-.037-.14.045-.264.198-.285a.345.345 0 0 1 .349.227c.511 1.605 2.176 3.011 4.924 4.189 4.537 1.943 9.555 2.766 14.163 2.323 2.067-.199 4.084-.649 6.043-1.091 1.571-.355 3.201-.716 4.861-.95 4.531-.637 8.529-.02 11.554 1.776.144.083.196.248.127.367-.07.12-.246.141-.39.058-3.655-2.175-8.07-2.115-11.119-1.682-1.637.233-3.255.59-4.813.939-1.969.439-4.012.898-6.111 1.095-4.703.456-9.841-.383-14.486-2.375-2.129-.91-3.65-1.97-4.546-3.157.01 1.777-.819 3.454-2.286 4.438-1.567 1.054-3.817 1.301-5.907.715zm-82.359-14.338c-2.382-.683-5.113-1.79-7.198-3.762-.793-.756-1.775-1.926-1.947-3.264-.147-1.187.531-2.514 1.926-2.671a.34.34 0 0 1 .358.236c.048.15-.049.285-.203.297-1.075.127-1.614 1.215-1.499 2.157.143 1.165 1.032 2.22 1.755 2.898 2.653 2.511 6.472 3.567 9.105 4.143 4.583 1.002 8.297 1.12 11.354.372 3.775-.92 6.595-3.373 7.364-6.383 1.088-4.292-2.354-9.769-7.221-11.495-.156-.06-.259-.22-.219-.356s.186-.202.355-.148c5.17 1.832 8.823 7.651 7.671 12.201-.806 3.178-3.752 5.745-7.702 6.71-3.156.77-6.958.64-11.629-.377a33 33 0 0 1-2.257-.563zm-26.694-25.057c-4.345-1.242-6.88-3.054-7.542-5.41-.037-.143.049-.28.201-.292.151-.012.315.09.35.242.594 2.122 2.976 3.796 7.072 4.955a.6.6 0 0 0 .126.037c6.334 1.775 10.579 1.54 12.992-.719.094-.084.233-.09.358-.014a23.2 23.2 0 0 0 6.273 2.637c4.748 1.196 10.494.325 12.299-3.624.974-2.136.554-4.927-1.071-7.11s-4.41-3.692-7.08-3.846c-.157-.01-.303-.134-.318-.279-.014-.144.1-.26.257-.25 2.874.16 5.863 1.785 7.601 4.13 1.737 2.346 2.189 5.338 1.144 7.636-1.91 4.187-7.947 5.117-12.908 3.87a23.4 23.4 0 0 1-6.263-2.592c-2.572 2.257-6.952 2.482-13.37.685-.041-.015-.082-.031-.126-.038l.005-.017Z"/>
    <path fill="#00D264" d="M314.843 95.895a23 23 0 0 1-.766-.24c-1.916-.627-3.166-1.468-3.82-2.562-.086-.144-.04-.3.104-.357.145-.057.322.01.407.155.559.945 1.689 1.68 3.434 2.262 2.496.827 5.142 1.14 7.612.91 3.389-.32 6.07-1.702 7.334-3.796 1.468-2.434.761-5.918-1.581-7.785-.133-.102-.163-.276-.073-.384s.275-.109.408-.008c2.568 2.045 3.367 5.85 1.767 8.497-1.349 2.225-4.158 3.69-7.715 4.028-2.313.209-4.761-.03-7.114-.71zm-18.727 3.515c-1.495-.424-2.708-.997-3.732-1.744-2.009-1.48-3.074-3.734-2.58-5.472.039-.132.196-.201.349-.144s.254.213.214.346c-.433 1.534.524 3.542 2.337 4.88 1.431 1.057 3.293 1.736 5.849 2.136 5.271.84 9.603-.233 11.594-2.851.24-.312.428-.791.323-1.164a.6.6 0 0 0-.258-.352c-.142-.093-.185-.256-.104-.373.08-.117.254-.13.396-.038.265.178.452.425.534.72.149.567-.101 1.18-.395 1.56-2.102 2.763-6.621 3.893-12.099 3.024a22 22 0 0 1-2.43-.52z"/>
    <path fill="#00D264" d="M404.281 37.934c2.628 2.75 2.461 7.609-.321 10.171l-.049.05.069-.01c6.005-.644 12.544.916 16.878 5.308 4.053 4.286 6.357 11.25 3.642 16.791l-.063.122c2.075.408 4.11 1.033 5.998 1.97 5.619 2.445 9.794 9.608 6.39 15.345 8.477.543 17.902 1.392 24.166 7.774 4.63 4.425 5.952 11.937 2.942 17.609-.99 1.848-2.711 3.265-4.779 3.691l.085.532c3.825-.507 7.448 1.228 10.662 3.144 2.747 1.706 7.052 4.413 10.016 5.731 9.972 4.786 24 5.092 28.485 16.802 2.921 7.576-4.115 15.208-11.82 14.584-3.776-.199-7.429-1.945-10.139-4.579-2.249-.248-4.314-1.342-6.615-1.99-3.407-1.006-7.37-.119-10.014 2.293-3.272 3.406.278 6.999 3.455 8.63 7.943 4.764 17.808 6.132 26.746 3.754 21.438-5.626 33.035-1.414 51.703 9.352 3.883 2.402 7.867 5.024 12.456 5.899 11.585 2.315 22.501-3.595 33.766-4.912 20.996-2.336 38.561 14.847 59.505 13.358l-.384-1.047c-2.148 1.548-4.896 2.042-7.588 1.909-2.705-.126-5.4-.774-8.059-1.531-5.331-1.572-10.727-3.078-16.203-4.25-5.469-1.159-11.037-1.989-16.664-2.15-5.607-.154-11.287.336-16.744 1.797-5.444 1.455-10.597 3.642-15.913 5.106a44.3 44.3 0 0 1-16.318 1.436c-6.831-.683-13.505-2.923-19.333-6.544-1.979-1.383-4.868-2.764-4.866-5.489.069-.962.251-2.587 1.193-3.016l-.8-1.045c-.066.099-.122.168-.161.352-.185.748.79 1.238 1.398.893a.9.9 0 0 0 .424-.482c.075-.226.052-.289.042-.456-.897-3.048-14.813-4.739-18.11-4.997-6.674-.828-12.602 2.994-18.473 5.302-11.106 4.347-25.239 3.502-33.662-5.659-.075-.102-.095-.174-.085-.171 0 0-.01-.003.043-.095l1.038-1.536c-11.105 2.936-23.507.546-32.568-6.508-2.087-1.649-3.931-3.699-4.931-6.08-2.341-5.215 2.369-10.078 7.311-11.175 8.225-2.08 15.84 2.258 23.912 3.946 4.793.955 10.525 1.26 14.656-1.869 3.807-3.469.077-7.571-3.599-8.985-7.904-3.176-16.2-5.18-24.653-6.021-2.296 2.287-5.878 2.984-9.079 2.244-3.109-.688-5.849-2.709-7.955-5.185-2.307-2.533-3.444-5.715-5.728-8.349-5.181-5.857-13.601-2.243-19.774-.671-3.214.744-6.56.896-9.846.576-4.754-.548-9.904-2.038-13.684-4.975-1.041-.851-1.312-2.594-.366-3.559l1.028-1.047c-9.889-.018-17.941-8.355-17.193-18.296l.043-.587c-5.099-.729-11.598-2.275-12.386-8.175l-.802.695c-1.396 1.1-2.093 3.056-3.895 3.275l-1.097.104c1.172 1.376 1.634 2.811 1.337 4.715-1.805 10.256-12.097 16.921-21.964 17.95-8.782.931-17.579-1.799-25.48-5.543-1.342-.634-2.629-1.304-3.975-1.995-1.539-.732-2.832-1.482-2.903-3.005-3.71.195-7.436-.25-11.008-1.29-7.12-2.18-18.449-8.667-17.099-17.235.3-1.652 1.2-3.2 2.563-4.103l.943-.626c-2.803-.948-5.823-1.836-8.068-3.669-2.192-1.728-3.523-4.657-2.652-7.398l-.9.334c-6.528 2.44-14.347.748-19.318-4.13-.348-.335-.653-.7-.83-1.055-.171-.374-.157-.61.043-.883l1.925-2.52-2.624 1.761c-2.233 1.51-4.9 2.316-7.611 2.537-5.477.404-10.982-1.237-15.797-3.797-1.647-.966-3.623-1.998-4.042-3.89-.046-.518.224-1.03.664-1.463l.561-.568c-4.001-1.49-8.255-1.826-12.125-3.546-3.466-1.584-6.669-4.219-8.243-7.732-3.322-7.72 2.625-15.86 10.938-15.875 5.273-.253 10.219 1.913 14.942 4.06l.237.111.213-.147c4.631-3.314 9.882-5.862 15.49-6.824 8.409-1.417 17.298 1.004 24.288 5.802 1.914 1.153 3.239 2.887 5.251 3.91.755.328 1.592.312 2.311.257 2.784-.308 5.693.39 7.783 2.194 2.271 1.918 3.267 5.195 2.261 7.979 2.834-.586 5.674-.437 8.477.28l1.208.283c-1.9-2.046-3.721-4.296-4.941-6.805-6.759-13.619 6.694-22.37 19.241-21.464 4.806.324 9.543 2.004 13.359 4.965l.184.137.165-.164c4.27-4.265 9.482-7.582 15.11-9.785 5.625-2.193 11.723-3.276 17.763-2.846 1.53.073 3.017.438 4.564.33 1.539-.186 2.938-.802 4.432-1.113 9.013-1.949 18.283 1.694 25.444 7.062 7.386-4.32 15.949.193 22.026 4.97 6.492 4.455 9.214 15.28 2.494 20.72zm0 0c6.756-5.416 4.057-16.311-2.435-20.8-5.854-4.756-15.179-9.512-21.964-5.057-7.21-5.45-16.539-9.146-25.644-7.217-1.477.294-2.909.91-4.4 1.08-1.49.105-3.007-.27-4.514-.347-12.219-.873-24.579 4.084-33.274 12.619l.348-.026c-7.814-6.101-19.281-6.931-27.895-2.015-4.394 2.342-7.765 6.93-7.502 12.075.046 5.04 2.73 9.624 6.011 13.27l.378-.64c-1.32-.31-2.676-.576-4.051-.652-1.383-.09-2.765.018-4.111.247l.446.5c.823-2.988-.39-6.239-2.668-8.203-2.29-1.991-5.461-2.722-8.37-2.402-.706.05-1.363.049-1.937-.198-1.822-.97-3.295-2.753-5.09-3.834-7.178-4.925-16.254-7.409-24.912-5.966-5.779.982-11.148 3.59-15.871 6.949l.453-.046c-2.403-1.098-4.841-2.186-7.398-2.985-5.069-1.638-11.09-1.897-15.665 1.282-4.555 3.185-6.377 9.658-4.072 14.719 1.702 3.786 5.023 6.526 8.712 8.229 3.643 1.643 7.753 2.052 11.443 3.328l-.187-.817c-.548.528-1.041 1.348-.956 2.241.353 2.384 2.759 3.603 4.551 4.694 7.322 3.901 17.055 6.09 24.474 1.245l-.698-.759c-2.297 3.01 6.617 7.551 8.922 8.058 4.011 1.198 8.414 1.124 12.367-.325l-.715-.61c-.959 6.181 5.579 9.612 10.543 11.007l-.131-.985c-1.669 1.096-2.701 2.94-3.053 4.814-1.123 5.886 3.606 10.672 8.007 13.784 5.999 4.225 13.381 6.439 20.732 6.157l-.6-.463c.334 1.753 2.03 2.67 3.429 3.334 14.175 7.831 33.211 12.579 46.501.478 3.748-3.192 8.992-11.686 5.787-16.51l-.444 1c2.118-.146 3.226-2.381 4.585-3.569l-1.043-.348c.311 1.362 1.029 2.587 1.945 3.583 2.69 2.989 6.948 3.841 10.657 4.467l-.535-.693c-.868 9.846 7.068 19.052 16.944 19.636l-.427-1.15c-2.388 2.727-.114 5.785 2.587 7.037 6.804 3.75 14.975 4.946 22.563 3.233 8.826-2.306 16.185-5.858 21.14 4.345 2.598 4.48 6.404 8.684 11.706 9.918 3.447.79 7.41.165 10.149-2.368l-.578.19a89 89 0 0 1 16.128 3.197c3.719 1.319 8.013 2.096 10.95 4.806 3.439 3.698-2.131 6.053-5.355 6.333-11.078 1.38-21.346-7.402-32.618-4.423-11.168 3.221-11.708 13.329-2.93 19.949 8.972 6.926 20.987 9.592 32.036 7.152l-.768-1.143c-.167.24-.338.62-.309 1.024.095.896.764 1.383 1.26 1.898 4.115 4.034 9.596 6.532 15.249 7.435 6.483 1.038 13.145.001 19.201-2.268 3.063-1.111 5.891-2.695 8.8-3.836 5.924-2.565 12.372-1.123 18.497-.063 2.574.521 5.282 1.162 7.468 2.516.01.003-.02-.007-.026-.085-.027-.119.131-.394.249-.42.178-.073.181-.05.26-.023.039.013.131.033.249.236.138.243.016.542-.056.594l-.8-1.044c-1.938 1.148-2.222 3.472-1.878 5.459.685 2.636 3.327 4.066 5.378 5.43 10.807 6.739 24.454 8.713 36.702 5.207 5.428-1.504 10.573-3.704 15.899-5.133 10.724-2.877 22.064-1.958 32.828.323 5.429 1.146 10.777 2.636 16.13 4.205 5.358 1.493 11.677 2.892 16.643-.572l1.675-1.214-2.056.157c-18.651 1.247-34.301-12.134-52.604-13.408-9.267-.796-18.088 2.903-26.983 4.726-10.464 2.165-16.796.543-25.529-5.362-18.931-10.897-30.8-15.112-52.445-9.391-8.718 2.342-18.334 1.014-26.069-3.616-4.838-2.491-6.35-6.652-.544-8.96 2.049-.826 4.288-1.042 6.435-.39 2.137.582 4.221 1.683 6.595 1.983l-.236-.112c2.838 2.71 6.609 4.495 10.569 4.701 8.217.631 15.762-7.543 12.599-15.67-4.58-11.983-18.911-12.401-28.961-17.114-5.117-2.18-9.957-6.303-15.219-8.18-1.858-.631-3.844-.912-5.801-.657l.085.532a7.5 7.5 0 0 0 3.011-1.413c2.615-2.126 3.595-5.652 3.732-8.879.242-4.396-1.545-8.78-4.705-11.838-6.31-6.376-15.719-7.274-24.189-7.77l.128.239c1.055-1.848 1.312-4.06.952-6.13-1.05-6.523-7.542-10.224-13.553-11.3 2.974-4.71.355-12.798-3.664-16.822-4.378-4.395-10.946-5.931-16.971-5.262l.02.04c2.805-2.599 2.932-7.471.291-10.214z"/>
  </g>
  <defs>
    <linearGradient id="b" x1="-157.624" x2="195.988" y1="167.398" y2="87.322" gradientUnits="userSpaceOnUse">
      <stop stop-color="#1256FF"/>
      <stop offset="1" stop-color="#2620CF"/>
    </linearGradient>
    <linearGradient id="c" x1="545.392" x2="190.203" y1="147.716" y2="80.237" gradientUnits="userSpaceOnUse">
      <stop stop-color="#1256FF"/>
      <stop offset="1" stop-color="#2620CF"/>
    </linearGradient>
  </defs>
</svg>
