<svg xmlns="http://www.w3.org/2000/svg" width="390" height="126" fill="none" viewBox="0 0 390 126">
  <mask id="a" width="390" height="126" x="0" y="0" maskUnits="userSpaceOnUse" style="mask-type:alpha">
    <path fill="#D9D9D9" d="M0 0h390v126H0z"/>
  </mask>
  <g mask="url(#a)">
    <path fill="#F0FDF7" d="M-8.927 89.162c-2.635-2.73-2.485-7.638.307-10.197-5.93.647-12.281-.85-16.613-4.957-4.321-4.102-6.776-11.927-4.005-17.208-4.074-.813-8.134-2.52-10.835-5.676-2.7-3.157-3.718-7.973-1.651-11.574-5.762-.38-11.642-.833-16.972-3.062s-10.108-6.572-11.343-12.216c-1.235-5.645.536-13.076 6.2-14.206-5.313.732-10.17-2.75-14.739-5.557-2.96-1.82-6.061-3.414-9.304-4.65-5.725-2.196-11.903-3.296-17.233-6.313s-9.835-8.768-8.843-14.818c.784-4.773 5.044-8.583 9.811-9.42 4.765-.828 9.78 1.065 13.255 4.426 3.286.418 5.869 2.354 9.257 2.401 3.148.045 9.473-2.276 7.748-6.617-.557-1.412-1.827-2.395-3.09-3.233-7.884-5.171-17.962-6.851-27.097-4.505-13.193 3.387-24.5 4.208-37.331-1.554-4.788-2.146-9.571-4.346-14.083-7.024-3.525-2.096-6.922-4.511-10.822-5.813-6.256-2.111-13.125-1.143-19.541.436s-12.756 3.752-19.352 4.034c-19.63.833-37.252-15.067-56.843-13.531 4.884-3.48 11.597-1.82 17.358-.125 15.218 4.48 31.385 8.247 46.808 4.543 6.806-1.635 13.223-4.691 20.072-6.158 11.955-2.564 24.925.026 34.978 6.995 1.316.91 2.638 1.965 3.235 3.456s.112 4.481-1.359 5.117c.191-.242-.43-.384-.486-.085-.059.308.246.542.525.69 3.151 1.741 6.785 2.364 10.344 2.95 4.064.679 8.23 1.347 12.265.539 3.622-.717 6.893-2.58 10.285-4.053 5.924-2.564 12.422-3.962 18.85-3.414 6.428.549 12.773 3.15 17.307 7.728.581.588 1.113 1.094.646 1.77 10.612-2.345 22.194.144 30.903 6.642 3.742 2.793 7.213 7.148 6.137 11.681-.428 1.773-1.519 3.335-2.895 4.54-3.587 3.136-8.781 3.777-13.505 3.108-4.724-.67-9.185-2.487-13.787-3.718s-9.599-1.87-14.065-.198c-1.553.587-3.14 1.6-3.544 3.206-.717 2.836 2.476 5.008 5.207 6.073 7.612 2.969 15.385 4.864 23.523 5.7 2.973-2.773 7.665-3.122 11.423-1.593s6.675 4.659 8.804 8.117c1.378 2.233 2.549 4.726 4.665 6.286 2.432 1.797 5.699 2.045 8.68 1.574s5.828-1.589 8.764-2.283c7.483-1.76 15.605-.645 22.336 3.059 1.11.61 2.219 1.32 2.865 2.401.656 1.084.51 2.7-.38 3.595 4.616.337 9.07 2.569 12.092 6.074s4.585 8.23 4.248 12.845c2.485.425 5.016.876 7.277 2.004 2.258 1.137 4.24 3.068 4.807 5.534 1.547-1.322 2.215-3.19 4.24-3.422-1.177-1.652-1.009-3.894-.476-5.85 2.616-9.7 12.655-16.067 22.66-16.952 10.003-.884 19.883 2.733 28.788 7.403 1.592.838 3.295 1.44 3.659 3.203 8.214-.344 16.516 2.527 22.76 7.885 2.357 2.024 4.496 4.5 5.285 7.511.79 3.011-.082 6.606-2.686 8.308 2.521.842 5.104 1.727 7.168 3.412s3.524 4.362 3.023 6.975c6.226-2.321 13.655-1.033 18.728 3.244 1.188.999 2.95 2.44 1.965 3.655 5.409-3.677 12.73-3.115 18.635-1.067 2.176.76 12.575 4.725 8.784 8.472 4.002 1.391 8.276 1.702 12.126 3.645 3.814 1.919 7.191 5.115 8.337 9.22 1.259 4.492-.53 9.684-4.297 12.443-3.232 2.369-7.514 2.899-11.469 2.289-3.956-.609-7.668-2.243-11.308-3.897-6.402 4.583-13.951 7.656-21.817 7.284s-15.576-3.473-21.523-8.643c-.781-.677-1.575-1.413-2.576-1.66-.758-.187-1.563-.073-2.344-.027-2.768.16-5.637-.69-7.655-2.578-2.015-1.899-3.041-4.89-2.291-7.563-2.958.501-5.088.293-8.01-.398 2.316 2.569 4.298 5.518 5.294 8.828s.925 7.03-.669 10.098c-1.41 2.715-3.896 4.752-6.589 6.195-8.404 4.516-19.444 3.588-26.962-2.283-8.916 8.899-22.376 14.036-34.877 12.466-.873-.105-1.756-.247-2.643-.182-1.034.082-2.022.452-3.027.741-9.253 2.7-19.353-.946-27.03-6.771-2.955 1.869-6.718 2.123-10.118 1.327s-6.49-2.561-9.38-4.523c-2.643-1.79-5.235-3.827-6.852-6.589-3.05-5.222-2.87-12.254 1.89-15.984z"/>
    <path fill="#00D264" d="M36.242 62.61c5.631 1.6 10.977 4.431 14.91 8.26 3.393 3.306 5.927 7.777 6.946 12.283 1.099 4.814.397 9.196-1.976 12.362-3.1 4.123-8.642 6.818-15.62 7.58-5.245.572-12.488-.434-18.473-2.573-5.25-1.882-12.01-5.447-14.359-11.745-1.413-3.79.325-7.394 2.423-9.512 5.1-5.136 15.085-5.498 22.262-.793 1.51.987 2.484 1.94 3.055 2.98.756 1.377.64 2.892-.27 3.691-.106.09-.286.081-.411-.036-.115-.113-.134-.279-.026-.377.754-.659.823-1.934.186-3.098-.51-.937-1.415-1.815-2.82-2.732-6.94-4.546-16.588-4.205-21.514.768-1.998 2.016-3.663 5.45-2.334 9.02 4.102 10.98 23.095 14.882 32.128 13.882 6.837-.746 12.257-3.377 15.282-7.4 5.148-6.844 1.486-17.77-4.864-23.96-9.298-9.07-26.705-12.392-36.54-6.978a.31.31 0 0 1-.332-.036c-4.165-2.893-8.25-4.663-12.139-5.247-4.574-.694-8.805.38-11.319 2.868-.853.84-1.864 2.216-1.851 3.988.013 1.614 1.033 3.26 2.465 4.01.149.075.215.239.155.365s-.23.161-.38.085c-1.67-.868-2.796-2.694-2.819-4.55-.024-1.925 1.063-3.401 1.98-4.306 2.626-2.594 7.029-3.713 11.781-3.002 3.942.595 8.074 2.363 12.275 5.249 5.872-3.156 14.323-3.303 22.215-1.06l-.016.015Zm120.913 6.132c.127.038.243.152.25.286.015.147-.111.26-.269.25-3.422-.27-6.491.531-8.424 2.207-2.193 1.9-2.866 5.051-1.641 7.663.624 1.326 1.823 2.537 3.288 3.314 1.485.785 3.081 1.038 4.385.676a.33.33 0 0 1 .283.057.32.32 0 0 1 .133.252c-.11 2.216 2.14 4.32 4.269 5.541 1.774 1.016 3.422 1.56 4.892 1.615 2.748.095 5.113-1.68 5.487-4.128.093-.63.141-1.851-.672-2.926-.679-.903-1.868-1.404-2.756-1.167a.37.37 0 0 1-.393-.19c-.061-.143.005-.29.145-.337 1.125-.3 2.614.316 3.45 1.43.697.92.979 2.115.791 3.344-.417 2.674-2.993 4.62-6.004 4.516-1.584-.057-3.338-.632-5.211-1.705-2.178-1.25-4.459-3.365-4.606-5.689-1.363.249-2.958-.044-4.444-.83-1.594-.846-2.909-2.172-3.589-3.62a6.98 6.98 0 0 1 1.739-8.23c2.069-1.785 5.2-2.603 8.814-2.32.021.007.044.006.065.014zm-17.613 12.935c.136.042.239.16.248.283.127 2.623-1.952 4.91-4.717 5.188-1.553.159-3.214-.25-4.637-.648-1.171-.323-2.415-.713-3.447-1.47-.983-.73-1.874-2-1.613-3.194.029-.138.187-.208.343-.159.157.05.262.198.23.345-.203.957.538 2.003 1.363 2.612.937.692 2.098 1.051 3.215 1.364 1.372.379 2.955.777 4.403.628 2.531-.257 4.41-2.33 4.294-4.72-.004-.142.12-.254.275-.235.02.008.041.015.054.01z"/>
    <path fill="#00D264" d="M138.37 62.267a.34.34 0 0 1 .247.268c.025.153-.081.277-.254.272-3.694-.045-7.205 1.391-9.374 3.86-.091.109-.277.11-.411.007-4.084-3.17-9.748-4.25-14.101-2.684-1.434.519-2.46 1.233-3.024 2.123-.91 1.434-.74 3.36-.486 4.878.431 2.547 1.201 4.374 2.453 5.75 1.763 1.94 4.404 2.913 6.999 3.686 2.564.76 5.257 1.355 7.482.606 1.242-.418 2.249-1.467 2.568-2.675.179-.648.23-1.62-.459-2.609-.099-.14-.064-.3.074-.37.137-.071.318-.013.417.127.64.919.845 2.01.558 3.066-.365 1.365-1.47 2.51-2.867 2.98-2.381.803-5.184.187-7.856-.604-2.692-.8-5.448-1.817-7.334-3.895-1.755-1.925-2.329-4.383-2.608-6.055-.264-1.604-.446-3.647.549-5.212.625-.98 1.727-1.757 3.264-2.307 4.456-1.599 10.234-.547 14.483 2.614 2.272-2.46 5.838-3.886 9.601-3.835.034.002.058.001.089.013zM19.588 71.983c2.73.784 5.35 2.222 7.456 4.19.127.12.136.284.026.384s-.29.082-.416-.037c-4.018-3.774-10.021-5.498-14.914-4.298-4.902 1.195-8.363 5.247-8.627 10.068-.01.148-.14.24-.303.208-.164-.032-.285-.168-.276-.316.266-5.023 3.876-9.23 8.979-10.48 2.543-.618 5.362-.486 8.083.294zm83.034 8.936.051.019c.151.066.229.224.18.354-1.31 3.346-4.56 5.794-8.488 6.389-1.702.257-3.586.21-5.94-.134-1.668-.243-4.142-.72-6.296-2.004-2.145-1.281-3.636-3.234-3.899-5.11-.024-.147.09-.262.249-.261a.34.34 0 0 1 .328.271c.236 1.698 1.605 3.486 3.576 4.663 2.05 1.215 4.427 1.675 6.038 1.917 2.298.341 4.128.379 5.758.134 3.749-.563 6.854-2.908 8.111-6.117.037-.124.186-.166.322-.125z"/>
    <path fill="#00D264" d="M57.881 52.36c.072.027.147.045.221.063 6.78 2.014 12.084 4.663 16.21 8.09 5.786 4.801 10.366 12.875 7.922 19.023-1.304 3.297-5.316 5.093-8.947 4.01-.157-.05-.261-.198-.242-.34.03-.138.177-.212.336-.171 3.353 1.017 7.074-.68 8.302-3.757 2.322-5.855-2.248-13.846-7.72-18.399-4.053-3.36-9.267-5.966-15.952-7.953-2.644-.79-7.872-1.72-10.762-.246-1.063.544-1.695 1.369-1.893 2.467-.03.138-.177.212-.336.172-.157-.05-.262-.198-.242-.34.215-1.232.938-2.172 2.122-2.779 2.957-1.509 8.18-.64 10.97.156l.011.003Z"/>
    <path fill="#00D264" d="M52.475 56.59c2.594.718 5.423 1.846 8.554 3.38 3.716 1.827 8.34 4.425 11.168 8.333 1.437 1.986 2.539 4.972.932 6.874-.086.101-.268.11-.396.016-.129-.095-.168-.262-.08-.363 1.445-1.705.407-4.457-.918-6.297-2.74-3.79-7.271-6.326-10.908-8.114-7.215-3.552-12.794-4.846-17.57-4.093-1.376.216-3.791.869-4.447 2.74-.04.129-.201.183-.35.119-.151-.056-.238-.212-.19-.336.731-2.082 3.332-2.79 4.814-3.025 2.823-.445 5.896-.198 9.401.77zM30.912 35.81c.14.044.244.166.25.302.002.155-.123.261-.291.238-3.954-.456-7.108-.042-9.392 1.236-2.812 1.561-4.15 4.607-3.272 7.407.616 1.97 2.354 3.833 4.515 4.85a10.24 10.24 0 0 0 6.575.703c.854-.198 2.319-.72 2.529-1.955.02-.147.173-.232.334-.181.16.05.27.195.251.342-.251 1.496-1.915 2.097-2.886 2.334a10.8 10.8 0 0 1-7.005-.754c-2.335-1.104-4.214-3.123-4.887-5.26-.955-3.014.474-6.292 3.482-7.963 2.393-1.33 5.66-1.772 9.738-1.3l.053.02.006-.018ZM-3.261 50.225c.144.044.291.08.436.124 4.8 1.4 8.737 3.352 11.709 5.816 1.59 1.319 3.501 3.368 3.649 5.661.014.141-.109.25-.271.229-.155-.01-.297-.14-.298-.286-.127-2.1-1.933-4.014-3.424-5.248-2.888-2.403-6.746-4.316-11.445-5.679-5.612-1.626-10.743-2.075-15.211-1.308-5.123.882-9.282 3.44-11.394 7.032-.07.12-.235.145-.38.062-.143-.083-.196-.247-.129-.358 2.19-3.7 6.464-6.34 11.729-7.246 4.445-.766 9.51-.361 15.052 1.2zm-47.333-32.117c.74.204 1.43.54 2.027.992.128.094.157.254.07.354-.086.1-.264.1-.392.007-1.133-.853-2.646-1.227-4.157-1.028-1.79.238-3.262 1.22-3.86 2.559-1.073 2.412.113 5.826 2.878 8.306 2.226 1.983 5.306 3.434 9.445 4.446 7.285 1.775 13.402.845 16.375-2.497.069-.078.197-.097.318-.053 2.896 1.14 5.504 2.091 8.172 2.192 2.47.094 5.373-.798 6.291-2.995.043-.106.172-.162.315-.12.133.04.233.151.24.276.081 2.467 1.517 5.062 3.931 7.124 2.414 2.06 5.383 3.218 8.137 3.182.09-.005.188.04.256.112.067.071.094.165.06.237-1.102 3.424 1.099 7.93 4.923 10.045.143.08.207.235.138.35-.068.116-.235.15-.377.07-3.927-2.182-6.249-6.732-5.33-10.316-2.8-.073-5.753-1.281-8.177-3.346-2.229-1.9-3.664-4.243-4.049-6.558-1.152 1.615-3.513 2.554-6.302 2.447-2.71-.107-5.424-1.077-8.202-2.165-3.137 3.366-9.39 4.303-16.79 2.505-4.256-1.036-7.44-2.544-9.744-4.602-2.942-2.63-4.2-6.284-3.05-8.875.65-1.47 2.273-2.547 4.227-2.81a6.6 6.6 0 0 1 2.624.17zm66.737.692c.406.113.812.264 1.197.446.15.066.225.23.176.356-.05.127-.22.17-.37.105-2.19-1.01-4.814-.903-6.524.252-1.712 1.165-2.49 3.346-1.913 5.45.037.14-.045.264-.198.285a.345.345 0 0 1-.349-.227c-.511-1.606-2.177-3.01-4.924-4.19-4.537-1.942-9.555-2.765-14.163-2.322-2.067.199-4.084.649-6.043 1.091-1.571.354-3.201.716-4.861.95-4.53.637-8.529.02-11.554-1.776-.144-.083-.196-.248-.127-.367.07-.12.246-.142.39-.059 3.655 2.176 8.07 2.116 11.12 1.683 1.636-.233 3.254-.59 4.812-.94 1.97-.438 4.012-.897 6.111-1.094 4.703-.457 9.84.382 14.486 2.375 2.13.91 3.65 1.97 4.546 3.157-.01-1.777.82-3.454 2.286-4.438 1.567-1.054 3.817-1.3 5.907-.716l-.005-.02Zm82.36 14.338c2.382.682 5.113 1.79 7.198 3.762.793.756 1.775 1.926 1.947 3.264.147 1.186-.531 2.514-1.926 2.671a.34.34 0 0 1-.358-.236c-.048-.15.049-.285.203-.297 1.075-.127 1.614-1.215 1.499-2.157-.143-1.165-1.032-2.22-1.756-2.898-2.652-2.512-6.47-3.567-9.104-4.143-4.583-1.003-8.297-1.12-11.353-.372-3.776.92-6.596 3.373-7.365 6.383-1.088 4.292 2.355 9.769 7.221 11.495.156.059.259.22.219.355-.04.137-.186.202-.355.148-5.17-1.831-8.823-7.65-7.671-12.2.806-3.178 3.752-5.745 7.702-6.71 3.156-.77 6.958-.64 11.63.376.682.149 1.448.328 2.256.564zm26.694 25.056c4.345 1.243 6.88 3.055 7.542 5.41.037.144-.049.28-.201.293s-.315-.09-.35-.242c-.595-2.122-2.976-3.796-7.072-4.955a1 1 0 0 0-.126-.037c-6.334-1.775-10.579-1.54-12.992.718-.094.084-.233.091-.358.014a23.2 23.2 0 0 0-6.274-2.636c-4.747-1.196-10.493-.325-12.298 3.623-.974 2.137-.554 4.928 1.071 7.111 1.626 2.184 4.41 3.692 7.08 3.846.157.01.303.134.317.278s-.099.26-.256.251c-2.874-.16-5.863-1.786-7.6-4.13-1.738-2.346-2.19-5.338-1.146-7.636 1.91-4.188 7.948-5.118 12.908-3.87a23.4 23.4 0 0 1 6.264 2.592c2.572-2.258 6.952-2.482 13.37-.685q.06.025.126.037z"/>
    <path fill="#00D264" d="M80.486 31.2c.255.078.511.155.765.24 1.916.628 3.166 1.47 3.82 2.562.086.145.04.3-.104.357-.145.058-.322-.01-.407-.154-.559-.945-1.69-1.68-3.434-2.262-2.496-.827-5.142-1.141-7.612-.91-3.39.32-6.07 1.702-7.334 3.796-1.468 2.433-.76 5.918 1.581 7.785.133.101.163.276.073.384s-.275.109-.408.007c-2.568-2.044-3.367-5.849-1.767-8.496 1.35-2.225 4.158-3.69 7.715-4.028 2.313-.21 4.76.03 7.114.71zm18.726-3.514c1.495.424 2.708.996 3.732 1.744 2.009 1.48 3.074 3.734 2.58 5.472-.039.132-.196.201-.349.144s-.254-.213-.214-.346c.433-1.535-.524-3.542-2.337-4.88-1.431-1.057-3.293-1.736-5.85-2.136-5.27-.84-9.602.233-11.593 2.851-.24.312-.428.791-.323 1.164a.6.6 0 0 0 .258.352c.142.093.184.256.104.373s-.254.13-.396.038a1.28 1.28 0 0 1-.534-.721c-.15-.566.1-1.179.395-1.559 2.102-2.763 6.62-3.893 12.099-3.024.886.146 1.688.309 2.43.519z"/>
    <path fill="#00D264" d="M-8.925 89.161c-2.628-2.749-2.462-7.608.32-10.17l.05-.05-.07.01c-6.004.644-12.543-.916-16.878-5.308-4.052-4.287-6.356-11.251-3.642-16.791l.063-.122c-2.075-.408-4.11-1.033-5.997-1.97-5.62-2.445-9.795-9.608-6.39-15.345-8.477-.543-17.902-1.392-24.166-7.774-4.63-4.425-5.953-11.938-2.942-17.61.989-1.847 2.71-3.264 4.779-3.69l-.085-.532c-3.825.507-7.45-1.229-10.662-3.144-2.747-1.706-7.053-4.413-10.017-5.731-9.971-4.786-24-5.092-28.485-16.802-2.921-7.576 4.116-15.209 11.821-14.584 3.775.2 7.428 1.944 10.139 4.579 2.249.247 4.313 1.342 6.614 1.99 3.407 1.006 7.37.119 10.015-2.293 3.271-3.406-.279-7-3.456-8.63-7.942-4.765-17.807-6.132-26.745-3.754-21.439 5.626-33.035 1.414-51.704-9.352-3.882-2.402-7.866-5.024-12.456-5.9-11.584-2.314-22.501 3.596-33.766 4.913-20.996 2.336-38.561-14.847-59.505-13.358l.384 1.047c2.148-1.548 4.896-2.042 7.588-1.91 2.705.127 5.4.775 8.059 1.531 5.331 1.572 10.728 3.08 16.203 4.25 5.469 1.16 11.037 1.99 16.664 2.15 5.607.155 11.287-.335 16.745-1.796 5.444-1.455 10.596-3.642 15.912-5.106a44.3 44.3 0 0 1 16.318-1.436c6.832.683 13.505 2.923 19.334 6.544 1.979 1.383 4.867 2.763 4.866 5.488-.07.962-.251 2.587-1.194 3.017l.801 1.044c.065-.098.121-.167.161-.35.184-.75-.791-1.239-1.398-.895a.88.88 0 0 0-.424.483c-.076.226-.053.289-.043.456.898 3.047 14.814 4.74 18.11 4.997 6.674.828 12.602-2.994 18.473-5.302 11.106-4.347 25.24-3.502 33.662 5.659.075.102.095.174.085.17 0 0 .01.004-.042.096l-1.039 1.535c11.105-2.935 23.507-.545 32.568 6.509 2.087 1.65 3.931 3.699 4.931 6.08 2.341 5.214-2.37 10.077-7.31 11.174-8.226 2.08-15.84-2.257-23.912-3.946-4.793-.954-10.525-1.26-14.657 1.87-3.807 3.468-.076 7.571 3.6 8.985 7.904 3.175 16.199 5.18 24.652 6.021 2.297-2.287 5.879-2.984 9.08-2.244 3.108.688 5.848 2.709 7.955 5.185 2.306 2.533 3.444 5.715 5.727 8.349 5.181 5.857 13.601 2.243 19.774.67 3.215-.743 6.56-.895 9.846-.575 4.754.547 9.904 2.037 13.685 4.975 1.04.85 1.312 2.594.366 3.559l-1.029 1.046c9.889.019 17.941 8.356 17.194 18.297l-.043.587c5.098.728 11.598 2.275 12.386 8.175l.801-.695c1.396-1.1 2.093-3.056 3.895-3.275l1.097-.104c-1.171-1.377-1.633-2.812-1.337-4.715 1.805-10.256 12.098-16.921 21.964-17.95 8.783-.931 17.58 1.799 25.48 5.542 1.343.635 2.63 1.305 3.975 1.995 1.54.733 2.832 1.483 2.904 3.006a33.2 33.2 0 0 1 11.007 1.29c7.12 2.18 18.45 8.667 17.099 17.235-.3 1.651-1.2 3.2-2.563 4.103l-.943.626c2.804.947 5.823 1.835 8.068 3.669 2.192 1.728 3.524 4.657 2.652 7.398l.9-.335c6.528-2.439 14.347-.747 19.318 4.131.348.335.653.7.831 1.055.17.374.157.61-.044.883l-1.925 2.52 2.624-1.762c2.234-1.509 4.9-2.315 7.612-2.537 5.476-.404 10.981 1.237 15.796 3.798 1.648.966 3.623 1.998 4.043 3.889.045.519-.224 1.03-.664 1.464l-.562.568c4.001 1.489 8.256 1.826 12.126 3.545 3.466 1.585 6.669 4.22 8.243 7.733 3.321 7.72-2.626 15.859-10.938 15.874-5.273.254-10.22-1.913-14.943-4.059l-.236-.112-.214.148c-4.631 3.313-9.882 5.861-15.49 6.824-8.408 1.417-17.298-1.005-24.288-5.802-1.913-1.153-3.239-2.887-5.251-3.91-.755-.328-1.592-.312-2.311-.257-2.784.307-5.693-.39-7.783-2.194-2.271-1.918-3.267-5.196-2.261-7.979-2.833.586-5.673.437-8.477-.28l-1.208-.283c1.9 2.046 3.721 4.296 4.941 6.805 6.759 13.618-6.693 22.37-19.24 21.464-4.807-.324-9.543-2.005-13.36-4.965l-.184-.138-.164.164c-4.27 4.266-9.483 7.582-15.11 9.786-5.626 2.193-11.723 3.276-17.764 2.846-1.53-.073-3.017-.438-4.563-.331-1.54.187-2.939.803-4.433 1.114-9.013 1.949-18.282-1.694-25.443-7.062-7.386 4.319-15.95-.193-22.027-4.97-6.491-4.455-9.214-15.281-2.494-20.72l-.03-.01Zm0 0c-6.756 5.417-4.057 16.312 2.434 20.8 5.855 4.757 15.18 9.513 21.965 5.058 7.21 5.451 16.538 9.146 25.643 7.217 1.478-.295 2.91-.911 4.4-1.081 1.49-.104 3.007.271 4.514.347 12.22.874 24.58-4.084 33.274-12.618l-.348.026c7.814 6.101 19.281 6.931 27.896 2.014 4.394-2.341 7.765-6.929 7.501-12.074-.046-5.04-2.729-9.624-6.01-13.27l-.378.64c1.319.31 2.675.576 4.051.652 1.382.09 2.764-.018 4.11-.247l-.446-.5c-.822 2.988.391 6.239 2.668 8.203 2.291 1.991 5.462 2.722 8.371 2.401.705-.048 1.362-.048 1.937.198 1.821.97 3.294 2.753 5.09 3.835 7.177 4.925 16.253 7.408 24.911 5.965 5.779-.981 11.148-3.589 15.871-6.948l-.453.046c2.403 1.098 4.842 2.186 7.399 2.985 5.068 1.638 11.089 1.897 15.664-1.282 4.555-3.185 6.378-9.658 4.072-14.719-1.701-3.786-5.022-6.526-8.712-8.229-3.643-1.643-7.753-2.053-11.443-3.328l.187.817c.549-.528 1.042-1.349.957-2.242-.354-2.383-2.759-3.603-4.551-4.694-7.323-3.9-17.056-6.09-24.475-1.244l.699.759c2.296-3.01-6.618-7.552-8.922-8.059-4.012-1.197-8.414-1.124-12.368.325l.715.611c.959-6.181-5.579-9.612-10.542-11.007l.131.985c1.668-1.096 2.7-2.94 3.052-4.815 1.123-5.886-3.605-10.672-8.006-13.783-5.999-4.225-13.382-6.439-20.733-6.157l.601.463c-.334-1.753-2.031-2.67-3.43-3.334-14.175-7.831-33.21-12.58-46.5-.479-3.748 3.193-8.993 11.686-5.788 16.511l.444-1.001c-2.118.147-3.225 2.382-4.585 3.57l1.044.348c-.311-1.363-1.03-2.588-1.945-3.583-2.69-2.989-6.948-3.842-10.658-4.467l.535.693c.869-9.846-7.068-19.053-16.943-19.636l.426 1.15c2.388-2.727.115-5.785-2.587-7.038C5.011 6.195-3.16 5-10.748 6.713c-8.827 2.306-16.186 5.858-21.141-4.346-2.598-4.48-6.404-8.684-11.705-9.918-3.447-.79-7.41-.165-10.15 2.369l.578-.19A89 89 0 0 1-69.294-8.57c-3.719-1.319-8.013-2.096-10.95-4.806-3.438-3.699 2.131-6.053 5.355-6.334 11.078-1.379 21.346 7.402 32.619 4.424 11.167-3.221 11.708-13.33 2.93-19.95-8.973-6.925-20.988-9.591-32.037-7.151l.768 1.143c.168-.24.338-.62.31-1.024-.095-.897-.765-1.383-1.26-1.899-4.115-4.034-9.597-6.532-15.25-7.434-6.483-1.038-13.145 0-19.2 2.268-3.064 1.111-5.892 2.695-8.801 3.836-5.924 2.564-12.371 1.123-18.497.062-2.574-.52-5.282-1.162-7.468-2.515-.009-.004.02.006.027.085.026.118-.132.394-.25.42-.177.072-.181.05-.259.023-.04-.013-.132-.033-.25-.236-.138-.244-.016-.542.056-.595l.801 1.045c1.937-1.148 2.221-3.472 1.877-5.459-.684-2.637-3.326-4.066-5.378-5.43-10.807-6.74-24.454-8.713-36.702-5.207-5.427 1.504-10.573 3.704-15.899 5.133-10.724 2.876-22.063 1.957-32.827-.324-5.43-1.145-10.777-2.635-16.131-4.204-5.357-1.494-11.676-2.892-16.642.572l-1.675 1.214 2.055-.157c18.652-1.247 34.302 12.134 52.604 13.407 9.268.797 18.088-2.902 26.983-4.726 10.464-2.164 16.796-.542 25.529 5.362 18.931 10.897 30.801 15.113 52.446 9.392 8.718-2.342 18.333-1.014 26.069 3.616 4.838 2.491 6.349 6.652.543 8.96-2.049.826-4.288 1.041-6.435.39-2.137-.582-4.221-1.683-6.594-1.983l.236.112c-2.839-2.71-6.61-4.495-10.569-4.7-8.217-.632-15.763 7.542-12.599 15.669 4.58 11.982 18.91 12.4 28.96 17.114 5.117 2.18 9.958 6.302 15.22 8.18 1.857.631 3.843.911 5.8.656l-.085-.532a7.5 7.5 0 0 0-3.011 1.414c-2.615 2.126-3.595 5.651-3.731 8.878-.242 4.396 1.545 8.78 4.704 11.839 6.31 6.376 15.72 7.274 24.19 7.77l-.129-.24c-1.054 1.849-1.312 4.061-.952 6.13 1.05 6.524 7.542 10.224 13.553 11.301-2.974 4.71-.355 12.797 3.665 16.821 4.377 4.395 10.946 5.932 16.97 5.263l-.02-.04c-2.804 2.599-2.932 7.47-.29 10.214z"/>
    <path fill="#F0FDF7" d="M394.282 89.162c2.635-2.73 2.485-7.638-.307-10.197 5.929.647 12.281-.85 16.613-4.957 4.321-4.102 6.776-11.927 4.006-17.208 4.073-.813 8.134-2.52 10.834-5.676s3.719-7.973 1.652-11.574c5.761-.38 11.641-.833 16.971-3.062 5.331-2.23 10.109-6.572 11.343-12.216 1.235-5.645-.535-13.076-6.199-14.206 5.312.732 10.169-2.75 14.738-5.557 2.96-1.82 6.062-3.414 9.305-4.65 5.724-2.196 11.902-3.296 17.232-6.313s9.835-8.768 8.844-14.818c-.784-4.773-5.045-8.583-9.812-9.42-4.764-.828-9.78 1.065-13.255 4.426-3.286.418-5.869 2.354-9.257 2.401-3.148.045-9.473-2.276-7.748-6.617.557-1.412 1.827-2.395 3.091-3.233 7.883-5.171 17.961-6.851 27.096-4.505 13.193 3.387 24.5 4.208 37.331-1.554 4.789-2.146 9.571-4.346 14.084-7.024 3.525-2.096 6.921-4.511 10.821-5.813 6.256-2.111 13.125-1.143 19.541.436s12.757 3.752 19.353 4.034c19.63.833 37.251-15.067 56.842-13.531-4.884-3.48-11.597-1.82-17.358-.125-15.218 4.48-31.385 8.247-46.807 4.543-6.807-1.635-13.224-4.691-20.073-6.158-11.955-2.564-24.925.026-34.978 6.995-1.316.91-2.638 1.965-3.235 3.456-.596 1.49-.112 4.481 1.359 5.117-.191-.242.43-.384.486-.085.059.308-.246.542-.525.69-3.151 1.741-6.785 2.364-10.344 2.95-4.064.679-8.229 1.347-12.265.539-3.621-.717-6.892-2.58-10.285-4.053-5.924-2.564-12.422-3.962-18.85-3.414-6.428.549-12.772 3.15-17.307 7.728-.581.588-1.112 1.094-.646 1.77-10.612-2.345-22.193.144-30.903 6.642-3.741 2.793-7.212 7.148-6.136 11.681.427 1.773 1.518 3.335 2.894 4.54 3.587 3.136 8.781 3.777 13.505 3.108 4.724-.67 9.185-2.487 13.787-3.718s9.599-1.87 14.065-.198c1.553.587 3.139 1.6 3.544 3.206.717 2.836-2.476 5.008-5.207 6.073-7.612 2.969-15.385 4.864-23.523 5.7-2.973-2.773-7.665-3.122-11.423-1.593s-6.675 4.659-8.804 8.117c-1.378 2.233-2.548 4.726-4.665 6.286-2.432 1.797-5.698 2.045-8.68 1.574s-5.828-1.589-8.764-2.283c-7.483-1.76-15.604-.645-22.336 3.059-1.109.61-2.219 1.32-2.865 2.401-.656 1.084-.51 2.7.38 3.595-4.616.337-9.07 2.569-12.092 6.074s-4.585 8.23-4.248 12.845c-2.485.425-5.016.876-7.277 2.004-2.258 1.137-4.24 3.068-4.807 5.534-1.547-1.322-2.214-3.19-4.24-3.422 1.178-1.652 1.009-3.894.476-5.85-2.615-9.7-12.655-16.067-22.659-16.952-10.004-.884-19.884 2.733-28.789 7.403-1.592.838-3.295 1.44-3.659 3.203-8.214-.344-16.515 2.527-22.76 7.885-2.356 2.024-4.496 4.5-5.285 7.511-.79 3.011.082 6.606 2.687 8.308-2.521.842-5.105 1.727-7.169 3.412s-3.523 4.362-3.023 6.975c-6.226-2.321-13.655-1.033-18.728 3.244-1.188.999-2.95 2.44-1.965 3.655-5.409-3.677-12.73-3.115-18.635-1.067-2.176.76-12.575 4.725-8.784 8.472-4.002 1.391-8.276 1.702-12.126 3.645-3.814 1.919-7.19 5.115-8.337 9.22-1.258 4.492.53 9.684 4.298 12.443 3.231 2.369 7.513 2.899 11.469 2.289s7.668-2.243 11.308-3.897c6.401 4.583 13.95 7.656 21.816 7.284s15.577-3.473 21.523-8.643c.781-.677 1.575-1.413 2.576-1.66.758-.187 1.563-.073 2.344-.027 2.768.16 5.637-.69 7.655-2.578 2.015-1.899 3.041-4.89 2.291-7.563 2.958.501 5.089.293 8.01-.398-2.316 2.569-4.298 5.518-5.294 8.828s-.925 7.03.669 10.098c1.41 2.715 3.896 4.752 6.589 6.195 8.404 4.516 19.444 3.588 26.963-2.283 8.915 8.899 22.375 14.036 34.876 12.466.873-.105 1.756-.247 2.643-.182 1.034.082 2.023.452 3.027.741 9.253 2.7 19.353-.946 27.029-6.771 2.956 1.869 6.719 2.123 10.12 1.327s6.489-2.561 9.38-4.523c2.642-1.79 5.235-3.827 6.852-6.589 3.05-5.222 2.869-12.254-1.89-15.984z"/>
    <path fill="#00D264" d="M349.113 62.61c-5.631 1.6-10.977 4.431-14.911 8.26-3.392 3.306-5.926 7.777-6.945 12.283-1.099 4.814-.397 9.196 1.976 12.362 3.1 4.123 8.642 6.818 15.62 7.58 5.246.572 12.489-.434 18.473-2.573 5.25-1.882 12.011-5.447 14.359-11.745 1.413-3.79-.325-7.394-2.422-9.512-5.1-5.136-15.086-5.498-22.262-.793-1.511.987-2.484 1.94-3.055 2.98-.757 1.377-.64 2.892.269 3.691.106.09.286.081.411-.036.115-.113.135-.279.026-.377-.754-.659-.822-1.934-.185-3.098.51-.937 1.414-1.815 2.82-2.732 6.939-4.546 16.587-4.205 21.513.768 1.999 2.016 3.663 5.45 2.334 9.02-4.102 10.98-23.094 14.882-32.128 13.882-6.837-.746-12.257-3.377-15.282-7.4-5.148-6.844-1.486-17.77 4.864-23.96 9.298-9.07 26.705-12.392 36.541-6.978a.31.31 0 0 0 .331-.036c4.165-2.893 8.25-4.663 12.139-5.247 4.575-.694 8.805.38 11.319 2.868.853.84 1.864 2.216 1.852 3.988-.014 1.614-1.033 3.26-2.466 4.01-.149.075-.214.239-.154.365s.23.161.378.085c1.672-.868 2.798-2.694 2.82-4.55.024-1.925-1.062-3.401-1.98-4.306-2.626-2.594-7.029-3.713-11.781-3.002-3.942.595-8.074 2.363-12.275 5.249-5.872-3.156-14.322-3.303-22.215-1.06l.016.015ZM228.2 68.742c-.127.038-.243.152-.25.286-.014.147.111.26.27.25 3.422-.27 6.49.531 8.423 2.207 2.193 1.9 2.866 5.051 1.641 7.663-.624 1.326-1.823 2.537-3.287 3.314-1.486.785-3.082 1.038-4.386.676a.33.33 0 0 0-.282.057.32.32 0 0 0-.134.252c.11 2.216-2.139 4.32-4.268 5.541-1.775 1.016-3.423 1.56-4.893 1.615-2.748.095-5.112-1.68-5.486-4.128-.093-.63-.142-1.851.671-2.926.68-.903 1.868-1.404 2.756-1.167a.37.37 0 0 0 .393-.19.242.242 0 0 0-.145-.337c-1.125-.3-2.614.316-3.45 1.43-.697.92-.979 2.115-.791 3.344.418 2.674 2.994 4.62 6.004 4.516 1.584-.057 3.339-.632 5.211-1.705 2.179-1.25 4.459-3.365 4.606-5.689 1.363.249 2.959-.044 4.444-.83 1.594-.846 2.909-2.172 3.589-3.62a6.98 6.98 0 0 0-1.739-8.23c-2.068-1.785-5.2-2.603-8.814-2.32-.021.007-.044.006-.065.014zm17.613 12.935c-.136.042-.238.16-.248.283-.127 2.623 1.952 4.91 4.717 5.188 1.554.159 3.214-.25 4.637-.648 1.172-.323 2.415-.713 3.447-1.47.983-.73 1.875-2 1.613-3.194-.029-.138-.187-.208-.343-.159-.157.05-.261.198-.229.345.202.957-.539 2.003-1.363 2.612-.938.692-2.099 1.051-3.216 1.364-1.372.379-2.955.777-4.403.628-2.53-.257-4.41-2.33-4.294-4.72.004-.142-.12-.254-.274-.235-.021.008-.041.015-.054.01z"/>
    <path fill="#00D264" d="M246.986 62.267a.34.34 0 0 0-.248.268c-.025.153.081.277.254.272 3.695-.045 7.205 1.391 9.375 3.86.09.109.277.11.41.007 4.084-3.17 9.748-4.25 14.101-2.684 1.435.519 2.46 1.233 3.024 2.123.91 1.434.74 3.36.486 4.878-.431 2.547-1.201 4.374-2.453 5.75-1.763 1.94-4.404 2.913-6.999 3.686-2.563.76-5.257 1.355-7.482.606-1.242-.418-2.249-1.467-2.568-2.675a3.04 3.04 0 0 1 .459-2.609c.099-.14.064-.3-.073-.37-.138-.071-.319-.013-.418.127-.64.919-.845 2.01-.558 3.066.365 1.365 1.47 2.51 2.867 2.98 2.381.803 5.185.187 7.856-.604 2.692-.8 5.448-1.817 7.334-3.895 1.755-1.925 2.329-4.383 2.608-6.055.265-1.604.447-3.647-.548-5.212-.626-.98-1.728-1.757-3.265-2.307-4.456-1.599-10.233-.547-14.483 2.614-2.272-2.46-5.838-3.886-9.6-3.835-.035.002-.058.001-.09.013zm118.781 9.716c-2.731.784-5.35 2.222-7.456 4.19-.127.12-.136.284-.026.384s.289.082.416-.037c4.018-3.774 10.022-5.498 14.914-4.298 4.903 1.195 8.363 5.247 8.628 10.068.009.148.139.24.303.208s.284-.168.275-.316c-.266-5.023-3.876-9.23-8.979-10.48-2.543-.618-5.362-.486-8.083.294zm-83.034 8.936-.051.019c-.151.066-.229.224-.18.354 1.31 3.346 4.56 5.794 8.488 6.389 1.702.257 3.586.21 5.941-.134 1.667-.243 4.141-.72 6.296-2.004 2.144-1.281 3.635-3.234 3.898-5.11.024-.147-.089-.262-.248-.261a.34.34 0 0 0-.329.271c-.236 1.698-1.605 3.486-3.576 4.663-2.05 1.215-4.426 1.675-6.038 1.917-2.297.341-4.128.379-5.758.134-3.749-.563-6.854-2.908-8.111-6.117-.037-.124-.186-.166-.322-.125z"/>
    <path fill="#00D264" d="M327.474 52.36a2 2 0 0 1-.221.063c-6.781 2.014-12.084 4.663-16.209 8.09-5.787 4.801-10.367 12.875-7.923 19.023 1.304 3.297 5.317 5.093 8.947 4.01.157-.05.261-.198.242-.34-.029-.138-.176-.212-.336-.171-3.353 1.017-7.073-.68-8.302-3.757-2.322-5.855 2.248-13.846 7.72-18.399 4.054-3.36 9.267-5.966 15.952-7.953 2.644-.79 7.873-1.72 10.762-.246 1.063.544 1.695 1.369 1.894 2.467.029.138.176.212.336.172.156-.05.261-.198.242-.34-.215-1.232-.938-2.172-2.122-2.779-2.957-1.509-8.181-.64-10.972.156l-.01.003Z"/>
    <path fill="#00D264" d="M332.88 56.59c-2.594.718-5.423 1.846-8.554 3.38-3.716 1.827-8.34 4.425-11.167 8.333-1.438 1.986-2.54 4.972-.933 6.874.086.101.268.11.397.016.128-.095.167-.262.08-.363-1.445-1.705-.408-4.457.917-6.297 2.74-3.79 7.271-6.326 10.909-8.114 7.214-3.552 12.793-4.846 17.569-4.093 1.376.216 3.792.869 4.448 2.74.038.129.201.183.349.119.151-.056.239-.212.19-.336-.731-2.082-3.332-2.79-4.814-3.025-2.823-.445-5.896-.198-9.401.77zm21.564-20.78a.35.35 0 0 0-.252.302c-.001.155.124.261.293.238 3.953-.456 7.108-.042 9.391 1.236 2.812 1.561 4.15 4.607 3.273 7.407-.617 1.97-2.355 3.833-4.516 4.85a10.24 10.24 0 0 1-6.574.703c-.855-.198-2.32-.72-2.53-1.955-.019-.147-.173-.232-.334-.181-.161.05-.27.195-.251.342.252 1.496 1.915 2.097 2.886 2.334a10.8 10.8 0 0 0 7.005-.754c2.335-1.104 4.214-3.123 4.887-5.26.955-3.014-.474-6.292-3.482-7.963-2.392-1.33-5.661-1.772-9.738-1.3l-.053.02-.005-.018Zm34.173 14.415c-.145.044-.292.08-.437.124-4.8 1.4-8.737 3.352-11.708 5.816-1.59 1.319-3.502 3.368-3.65 5.661-.014.141.109.25.272.229.155-.01.296-.14.297-.286.127-2.1 1.933-4.014 3.424-5.248 2.888-2.403 6.746-4.316 11.445-5.679 5.612-1.626 10.743-2.075 15.211-1.308 5.123.882 9.282 3.44 11.394 7.032.07.12.235.145.379.062s.197-.247.13-.358c-2.189-3.7-6.463-6.34-11.729-7.246-4.445-.766-9.51-.361-15.051 1.2zm47.332-32.117c-.74.204-1.429.54-2.027.992-.128.094-.156.254-.07.354s.265.1.392.007c1.133-.853 2.647-1.227 4.157-1.028 1.79.238 3.262 1.22 3.861 2.559 1.072 2.412-.114 5.826-2.879 8.306-2.225 1.983-5.305 3.434-9.445 4.446-7.285 1.775-13.402.845-16.375-2.497-.069-.078-.197-.097-.318-.053-2.896 1.14-5.504 2.091-8.172 2.192-2.469.094-5.373-.798-6.291-2.995-.043-.106-.172-.162-.315-.12-.133.04-.233.151-.239.276-.082 2.467-1.518 5.062-3.932 7.124-2.413 2.06-5.382 3.218-8.137 3.182a.34.34 0 0 0-.255.112c-.068.071-.095.165-.062.237 1.103 3.424-1.098 7.93-4.922 10.045-.143.08-.207.235-.138.35.069.116.235.15.378.07 3.927-2.182 6.248-6.732 5.33-10.316 2.799-.073 5.752-1.281 8.176-3.346 2.229-1.9 3.664-4.243 4.049-6.558 1.152 1.615 3.513 2.554 6.302 2.447 2.71-.107 5.424-1.077 8.202-2.165 3.138 3.366 9.39 4.303 16.791 2.505 4.255-1.036 7.44-2.544 9.743-4.602 2.943-2.63 4.2-6.284 3.05-8.875-.65-1.47-2.273-2.547-4.227-2.81a6.6 6.6 0 0 0-2.624.17zm-66.737.692a7.5 7.5 0 0 0-1.197.446c-.15.066-.225.23-.175.356.049.127.22.17.369.105 2.189-1.01 4.814-.903 6.524.252 1.713 1.165 2.489 3.346 1.913 5.45-.037.14.045.264.198.285a.345.345 0 0 0 .349-.227c.512-1.606 2.177-3.01 4.924-4.19 4.537-1.942 9.555-2.765 14.164-2.322 2.066.199 4.083.649 6.042 1.091 1.571.354 3.202.716 4.861.95 4.531.637 8.529.02 11.554-1.776.144-.083.196-.248.127-.367-.07-.12-.245-.142-.39-.059-3.655 2.176-8.07 2.116-11.119 1.683-1.637-.233-3.254-.59-4.813-.94-1.969-.438-4.012-.897-6.111-1.094-4.703-.457-9.84.382-14.486 2.375-2.129.91-3.649 1.97-4.546 3.157.01-1.777-.819-3.454-2.286-4.438-1.567-1.054-3.816-1.3-5.907-.716l.005-.02Zm-82.359 14.338c-2.383.682-5.114 1.79-7.198 3.762-.793.756-1.776 1.926-1.948 3.264-.147 1.186.531 2.514 1.927 2.671a.34.34 0 0 0 .357-.236c.048-.15-.049-.285-.203-.297-1.075-.127-1.614-1.215-1.498-2.157.142-1.165 1.031-2.22 1.755-2.898 2.652-2.512 6.471-3.567 9.104-4.143 4.584-1.003 8.297-1.12 11.354-.372 3.776.92 6.595 3.373 7.364 6.383 1.088 4.292-2.354 9.769-7.221 11.495-.156.059-.259.22-.219.355.04.137.187.202.355.148 5.171-1.831 8.824-7.65 7.671-12.2-.806-3.178-3.751-5.745-7.702-6.71-3.156-.77-6.957-.64-11.629.376a33 33 0 0 0-2.256.564zm-26.695 25.056c-4.345 1.243-6.88 3.055-7.542 5.41-.037.144.049.28.201.293s.316-.09.351-.242c.594-2.122 2.975-3.796 7.071-4.955a.6.6 0 0 1 .126-.037c6.334-1.775 10.58-1.54 12.993.718.093.084.232.091.358.014a23.2 23.2 0 0 1 6.273-2.636c4.747-1.196 10.493-.325 12.298 3.623.974 2.137.555 4.928-1.071 7.111-1.626 2.184-4.41 3.692-7.08 3.846-.157.01-.303.134-.317.278s.099.26.256.251c2.874-.16 5.863-1.786 7.601-4.13 1.738-2.346 2.189-5.338 1.145-7.636-1.91-4.188-7.948-5.118-12.908-3.87a23.4 23.4 0 0 0-6.263 2.592c-2.573-2.258-6.953-2.482-13.371-.685a1 1 0 0 1-.126.037z"/>
    <path fill="#00D264" d="M304.87 31.2c-.256.078-.512.155-.765.24-1.917.628-3.167 1.47-3.821 2.562-.085.145-.04.3.105.357.144.058.321-.01.407-.154.558-.945 1.689-1.68 3.433-2.262 2.496-.827 5.142-1.141 7.612-.91 3.39.32 6.07 1.702 7.334 3.796 1.468 2.433.761 5.918-1.581 7.785-.133.101-.163.276-.073.384s.276.109.408.007c2.569-2.044 3.368-5.849 1.767-8.496-1.349-2.225-4.158-3.69-7.715-4.028-2.313-.21-4.761.03-7.114.71zm-18.726-3.514c-1.496.424-2.708.996-3.733 1.744-2.009 1.48-3.074 3.734-2.58 5.472.039.132.196.201.349.144s.254-.213.215-.346c-.434-1.535.523-3.542 2.336-4.88 1.431-1.057 3.293-1.736 5.849-2.136 5.272-.84 9.603.233 11.594 2.851.24.312.428.791.324 1.164a.6.6 0 0 1-.259.352c-.142.093-.184.256-.104.373s.254.13.396.038a1.28 1.28 0 0 0 .535-.721c.149-.566-.101-1.179-.396-1.559-2.102-2.763-6.621-3.893-12.099-3.024-.886.146-1.688.309-2.43.519z"/>
    <path fill="#00D264" d="M394.28 89.161c2.629-2.749 2.462-7.608-.32-10.17l-.05-.05.069.01c6.006.644 12.545-.916 16.879-5.308 4.052-4.287 6.357-11.251 3.642-16.791l-.063-.122c2.075-.408 4.11-1.033 5.997-1.97 5.62-2.445 9.795-9.608 6.391-15.345 8.476-.543 17.902-1.392 24.166-7.774 4.63-4.425 5.952-11.938 2.942-17.61-.99-1.847-2.711-3.264-4.779-3.69l.085-.532c3.825.507 7.448-1.229 10.661-3.144 2.747-1.706 7.053-4.413 10.017-5.731 9.972-4.786 24-5.092 28.485-16.802 2.921-7.576-4.115-15.209-11.821-14.584-3.775.2-7.428 1.944-10.138 4.579-2.249.247-4.314 1.342-6.615 1.99-3.407 1.006-7.37.119-10.014-2.293-3.272-3.406.278-7 3.455-8.63 7.943-4.765 17.808-6.132 26.745-3.754 21.439 5.626 33.036 1.414 51.704-9.352 3.882-2.402 7.867-5.024 12.456-5.9 11.585-2.314 22.501 3.596 33.766 4.913 20.996 2.336 38.561-14.847 59.505-13.358l-.384 1.047c-2.148-1.548-4.896-2.042-7.588-1.91-2.705.127-5.4.775-8.059 1.531-5.331 1.572-10.728 3.08-16.203 4.25-5.469 1.16-11.037 1.99-16.664 2.15-5.607.155-11.287-.335-16.744-1.796-5.445-1.455-10.597-3.642-15.913-5.106a44.3 44.3 0 0 0-16.318-1.436c-6.831.683-13.505 2.923-19.333 6.544-1.979 1.383-4.868 2.763-4.866 5.488.069.962.251 2.587 1.193 3.017l-.8 1.044c-.066-.098-.122-.167-.161-.35-.185-.75.79-1.239 1.398-.895a.9.9 0 0 1 .423.483c.076.226.053.289.043.456-.898 3.047-14.814 4.74-18.11 4.997-6.674.828-12.602-2.994-18.473-5.302-11.106-4.347-25.239-3.502-33.662 5.659-.075.102-.095.174-.085.17 0 0-.01.004.043.096l1.038 1.535c-11.105-2.935-23.507-.545-32.568 6.509-2.087 1.65-3.931 3.699-4.931 6.08-2.341 5.214 2.369 10.077 7.311 11.174 8.225 2.08 15.84-2.257 23.912-3.946 4.792-.954 10.525-1.26 14.656 1.87 3.807 3.468.077 7.571-3.6 8.985-7.903 3.175-16.199 5.18-24.652 6.021-2.296-2.287-5.879-2.984-9.079-2.244-3.109.688-5.849 2.709-7.955 5.185-2.307 2.533-3.445 5.715-5.728 8.349-5.181 5.857-13.601 2.243-19.774.67-3.214-.743-6.56-.895-9.846-.575-4.754.547-9.904 2.037-13.684 4.975-1.041.85-1.312 2.594-.366 3.559l1.028 1.046c-9.889.019-17.941 8.356-17.193 18.297l.043.587c-5.099.728-11.598 2.275-12.386 8.175l-.802-.695c-1.396-1.1-2.093-3.056-3.895-3.275l-1.097-.104c1.171-1.377 1.634-2.812 1.337-4.715-1.805-10.256-12.097-16.921-21.964-17.95-8.782-.931-17.58 1.799-25.48 5.542-1.342.635-2.629 1.305-3.975 1.995-1.539.733-2.832 1.483-2.904 3.006a33.2 33.2 0 0 0-11.007 1.29c-7.12 2.18-18.449 8.667-17.099 17.235.3 1.651 1.2 3.2 2.563 4.103l.943.626c-2.803.947-5.823 1.835-8.068 3.669-2.192 1.728-3.523 4.657-2.652 7.398l-.9-.335c-6.528-2.439-14.347-.747-19.318 4.131-.348.335-.653.7-.83 1.055-.171.374-.158.61.043.883l1.925 2.52-2.624-1.762c-2.233-1.509-4.9-2.315-7.612-2.537-5.476-.404-10.981 1.237-15.796 3.798-1.647.966-3.623 1.998-4.042 3.889-.046.519.223 1.03.664 1.464l.561.568c-4.001 1.489-8.256 1.826-12.125 3.545-3.466 1.585-6.669 4.22-8.243 7.733-3.322 7.72 2.625 15.859 10.938 15.874 5.272.254 10.219-1.913 14.942-4.059l.236-.112.214.148c4.631 3.313 9.882 5.861 15.49 6.824 8.409 1.417 17.298-1.005 24.288-5.802 1.914-1.153 3.239-2.887 5.251-3.91.755-.328 1.592-.312 2.311-.257 2.784.307 5.693-.39 7.783-2.194 2.271-1.918 3.267-5.196 2.261-7.979 2.834.586 5.673.437 8.477-.28l1.208-.283c-1.9 2.046-3.721 4.296-4.941 6.805-6.759 13.618 6.694 22.37 19.241 21.464 4.806-.324 9.543-2.005 13.359-4.965l.184-.138.164.164c4.271 4.266 9.483 7.582 15.111 9.786 5.625 2.193 11.723 3.276 17.763 2.846 1.53-.073 3.017-.438 4.563-.331 1.54.187 2.939.803 4.433 1.114 9.013 1.949 18.283-1.694 25.443-7.062 7.386 4.319 15.95-.193 22.027-4.97 6.492-4.455 9.214-15.281 2.494-20.72zm0 0c6.757 5.417 4.057 16.312-2.434 20.8-5.854 4.757-15.179 9.513-21.964 5.058-7.21 5.451-16.539 9.146-25.644 7.217-1.477-.295-2.909-.911-4.4-1.081-1.49-.104-3.007.271-4.514.347-12.219.874-24.579-4.084-33.274-12.618l.348.026c-7.814 6.101-19.281 6.931-27.895 2.014-4.394-2.341-7.765-6.929-7.502-12.074.046-5.04 2.729-9.624 6.011-13.27l.377.64c-1.319.31-2.675.576-4.051.652-1.382.09-2.764-.018-4.11-.247l.446-.5c.823 2.988-.39 6.239-2.668 8.203-2.29 1.991-5.461 2.722-8.37 2.401-.706-.048-1.363-.048-1.937.198-1.822.97-3.295 2.753-5.09 3.835-7.178 4.925-16.254 7.408-24.912 5.965-5.779-.981-11.148-3.589-15.871-6.948l.453.046c-2.403 1.098-4.841 2.186-7.399 2.985-5.068 1.638-11.089 1.897-15.664-1.282-4.555-3.185-6.377-9.658-4.072-14.719 1.702-3.786 5.023-6.526 8.712-8.229 3.643-1.643 7.753-2.053 11.443-3.328l-.187.817c-.548-.528-1.041-1.349-.956-2.242.353-2.383 2.759-3.603 4.551-4.694 7.322-3.9 17.055-6.09 24.474-1.244l-.699.759c-2.296-3.01 6.618-7.552 8.923-8.059 4.011-1.197 8.414-1.124 12.367.325l-.715.611c-.959-6.181 5.579-9.612 10.542-11.007l-.13.985c-1.669-1.096-2.701-2.94-3.053-4.815-1.123-5.886 3.606-10.672 8.007-13.783 5.999-4.225 13.381-6.439 20.732-6.157l-.6.463c.333-1.753 2.03-2.67 3.429-3.334 14.175-7.831 33.211-12.58 46.501-.479 3.748 3.193 8.992 11.686 5.787 16.511l-.444-1.001c2.118.147 3.225 2.382 4.585 3.57l-1.043.348c.311-1.363 1.029-2.588 1.944-3.583 2.691-2.989 6.949-3.842 10.658-4.467l-.535.693c-.868-9.846 7.068-19.053 16.943-19.636l-.426 1.15c-2.388-2.727-.114-5.785 2.587-7.038 6.804-3.75 14.975-4.945 22.563-3.232 8.826 2.306 16.185 5.858 21.14-4.346 2.598-4.48 6.404-8.684 11.706-9.918 3.446-.79 7.409-.165 10.149 2.369l-.578-.19a89 89 0 0 0 16.128-3.197c3.719-1.319 8.013-2.096 10.95-4.806 3.438-3.699-2.131-6.053-5.355-6.334-11.078-1.379-21.346 7.402-32.618 4.424-11.168-3.221-11.708-13.33-2.93-19.95 8.972-6.925 20.987-9.591 32.036-7.151l-.768 1.143c-.167-.24-.338-.62-.309-1.024.095-.897.764-1.383 1.26-1.899 4.114-4.034 9.596-6.532 15.249-7.434 6.483-1.038 13.145 0 19.2 2.268 3.064 1.111 5.892 2.695 8.801 3.836 5.924 2.564 12.371 1.123 18.497.062 2.574-.52 5.282-1.162 7.468-2.515.01-.004-.02.006-.026.085-.027.118.131.394.249.42.178.072.181.05.26.023.039-.013.131-.033.249-.236.138-.244.016-.542-.056-.595l-.801 1.045c-1.937-1.148-2.221-3.472-1.877-5.459.685-2.637 3.327-4.066 5.378-5.43 10.807-6.74 24.454-8.713 36.702-5.207 5.428 1.504 10.573 3.704 15.899 5.133 10.724 2.876 22.064 1.957 32.828-.324 5.429-1.145 10.776-2.635 16.13-4.204 5.357-1.494 11.677-2.892 16.643.572l1.675 1.214-2.056-.157c-18.652-1.247-34.301 12.134-52.604 13.407-9.267.797-18.088-2.902-26.983-4.726-10.464-2.164-16.796-.542-25.529 5.362-18.931 10.897-30.8 15.113-52.446 9.392-8.717-2.342-18.333-1.014-26.069 3.616-4.837 2.491-6.349 6.652-.543 8.96 2.049.826 4.288 1.041 6.435.39 2.137-.582 4.221-1.683 6.595-1.983l-.237.112c2.839-2.71 6.61-4.495 10.569-4.7 8.218-.632 15.763 7.542 12.6 15.669-4.58 11.982-18.911 12.4-28.961 17.114-5.117 2.18-9.957 6.302-15.219 8.18-1.858.631-3.844.911-5.801.656l.085-.532c1.1.246 2.134.722 3.011 1.414 2.615 2.126 3.595 5.651 3.731 8.878.243 4.396-1.544 8.78-4.704 11.839-6.31 6.376-15.719 7.274-24.189 7.77l.128-.24c1.055 1.849 1.312 4.061.952 6.13-1.05 6.524-7.542 10.224-13.553 11.301 2.974 4.71.355 12.797-3.665 16.821-4.377 4.395-10.945 5.932-16.97 5.263l.019-.04c2.806 2.599 2.933 7.47.292 10.214z"/>
  </g>
</svg>
