<svg xmlns="http://www.w3.org/2000/svg" width="390" height="147" fill="none" viewBox="0 0 390 147">
  <mask id="a" width="391" height="147" x="0" y="0" maskUnits="userSpaceOnUse" style="mask-type:luminance">
    <path fill="#fff" d="M390.23 0H.23v146.95h390z"/>
  </mask>
  <g mask="url(#a)">
    <path fill="#F2FDF7" stroke="#81DFA1" stroke-linejoin="round" stroke-width=".46" d="M306.82 80.17c-.93.24-1.85.51-2.77.83-5.88 2.07-13.11 4.28-18.47 7.47s-11.29 5.96-17.52 5.78c-3.87-.11-7.61-1.35-11.37-2.27-4.82-1.18-9.74-1.84-14.66-2.46-13.17-1.66-21.06 3.71-32.04 10.41-7.59 4.63-17.17 5.9-25.71 3.4-1.37-.4-2.79-.95-3.69-2.07-.06-.08-.12-.16-.17-.23l-.15-.24c-.04-.06-.07-.12-.1-.18-1.52-3.04 2.69-6.48 9.78-5.42 1.11.16 2.11.44 3.14.87 4.27 1.79 8.87 2.07 13.23.38.04-.01.08-.03.11-.04 2.89-1.14 5.24-2.83 6.58-5.71 1.22-2.62 1.51-5.63 1.26-8.49 0-.1-.02-.21-.04-.31-.77-5.74-6.43-9.69-12.08-10.95-2.46-.55-4.98-.72-7.51-.78-11.61-13.9-26.43-4.26-29.7-1.24l1.81 8.54 10.43 7.02 5.92-.2c.54.55.89 1.23.93 2.06.07 1.57-1.08 2.92-2.32 3.88-3.57 2.74-8.26 3.54-12.75 3.7-4.5.16-9.03-.25-13.48.44s-8.96 2.71-11.34 6.53c-.91 1.47-1.47 3.18-1.36 4.9.27 4.4 4.61 7.37 8.76 8.86 9.66 3.47 20.8 2.53 29.74-2.52-.24.74.38 1.05 1.07 1.42 5.37 2.88 11.81 3.48 17.76 2.21 5.96-1.27 11.45-4.33 16.09-8.28 2.65-2.26 5.09-4.84 8.17-6.49 3.42-1.84 5.27-3.89 9.12-4.4 2.4-.32 4.83-.63 7.23-.53.13 0 .26 0 .38.02.18 0 .36.02.54.04-3.26 4.06-3.97 9.64-.73 13.49 3.25 3.85 17.44 8.92 28.8.81 2.05-1.47 3.73-2.75 5.1-3.87.11-.09.23-.18.34-.27 1.33-1.1 2.35-2.03 3.14-2.81l.21-.21c.07-.07.14-.14.2-.21.07-.07.13-.14.19-.2.32-.33.58-.64.8-.91.04-.05.08-.09.11-.14l.12-.15q.75-.375 1.47-.78c5.78-3.22 12.84-6.23 18.54-9.59 3.23-1.9 6.63-3.4 10.15-4.57-1.13-2.16-2.19-4.35-3.29-6.52z"/>
    <path fill="#F2FDF7" d="M194.76 88.69c-2.17 3.4-6.1 5.34-10.07 6.03-4.02.69-7.96-.2-11.95-.05 2.39 4.42-8.1 5.14-10.27 5.23-5.9.22-12.66-1.29-16.54-6.1.55 1.36-1.43 2.18-2.78 2.76-5.76 2.46-12.83 1.57-17.81-2.24-.26 2.5-2.33 4.52-4.65 5.47-2.33.95-4.9 1.03-7.42 1.1-11.78 12.02-25.71 7.45-33.39.64-4.61-4.09-6.02-10.43-6.02-10.43-9.88 9.97-31.46 3.53-35.99-1.88-1.76-.77-1.86-2.63-2.88-4.25-1.19 2.06-3.52 3.27-5.87 3.67s-4.76.1-7.12-.19c-.97 4.26-3.69 8.1-7.39 10.42-3.7 2.33-8.33 3.12-12.59 2.15.56 1.05.25 2.56-.64 3.35s-2.09 1.14-3.25 1.38c-7.1 1.49-14.75.26-21.02-3.39-2.46-1.43-4.72-3.23-7.29-4.48-2.56-1.25-5.58-1.93-8.27-.98-2.34.83-4.09 2.76-5.95 4.4-2.88 2.53-6.37 4.56-10.19 4.91s-7.96-1.27-9.88-4.59c-7.57-1.49-15.12-1.92-22.81-1.33-2.76.21-6.24 1.29-6.38 4.05-.07 1.57 1.08 2.92 2.32 3.88 3.57 2.74 8.26 3.54 12.75 3.7 4.5.16 9.03-.25 13.48.44s8.96 2.71 11.34 6.53c.91 1.47 1.47 3.18 1.36 4.9-.27 4.4-4.61 7.37-8.76 8.86-9.66 3.47-20.8 2.53-29.74-2.52.24.74-.38 1.05-1.07 1.42-5.37 2.88-11.81 3.48-17.76 2.21-5.96-1.27-11.45-4.33-16.09-8.28-2.65-2.26-5.09-4.84-8.17-6.49-3.42-1.84-7.38-2.38-11.23-2.89-3.37-.45-6.82-.89-10.15-.18-.29.06-.63.19-.66.48s.57.33.47.06c1.15.98.76 3.82-.18 5s-2.43 1.77-3.88 2.23c-11 3.52-23.42 2.3-33.52-3.32-5.78-3.22-10.74-7.74-16.43-11.1-12.91-7.6-28.55-8.66-43.52-8.8-5.67-.06-12.19-.41-15.64-4.9 17.26 6.79 37.56-2.71 55.06 3.46 5.88 2.07 11.01 5.79 16.37 8.98s11.29 5.96 17.52 5.78c3.88-.11 7.61-1.35 11.37-2.27 4.82-1.18 9.74-1.84 14.66-2.46 13.17-1.66 23.16 2.2 34.15 8.9 7.6 4.63 17.17 5.9 25.71 3.4 1.37-.4 2.79-.95 3.69-2.07 2.75-3.44-2.32-7.28-5.18-8.11-3.07-.89-5.94.14-9.02-.39-4.07 2.07-9.12 2.41-13.19.34-4.07-2.06-6.87-6.68-6.26-11.21.77-5.74 6.43-9.69 12.08-10.95s11.53-.55 17.31-.95c3.27-.23 6.51-.82 9.68-1.64 4.91-1.27 10.25-3.09 14.85-.95-4.81-2.58-4.35-9.78-1.68-14.54 2.67-4.75 8.18-7.36 13.61-7.9 5.42-.54 10.86.67 16.17 1.91-.87-3.82 1.38-7.89 4.69-10s7.44-2.53 11.35-2.14c-1.05-5.54 3.33-11.92 8.36-14.44s11.19-2.11 16.37.1c-1.82-3.08-.6-7.55 2.53-9.29-3.26-4.68-1.49-11.09 2.7-14.96 2.22-2.04 5.12-3.17 8-4.06 3.15-.97 6.43-1.71 9.72-1.5s6.62 1.49 8.77 3.99c8.54-3.14 18.67-3.66 26.28 1.34.82.54 1.62 1.14 2.53 1.5.78.31 1.61.42 2.43.57 11.73 2.03 22.47 10.37 28.07 20.87 8.42-3.22 18.64-1.02 24.98 5.38 2.04 2.05 3.72 4.57 4.24 7.42.59 3.21-.37 6.59-2.19 9.31-1.81 2.72-4.41 4.83-7.21 6.52 2.83.19 4.81.58 7.34 1.85.05-2.62 1.81-5.04 4.15-6.2 2.34-1.15 5.17-1.12 7.62-.22.7.26 1.39.58 2.13.62.97.05 1.89-.39 2.78-.79 6.79-3.03 14.61-3.7 21.82-1.87s13.17 6.68 17.7 12.59c3.75-.49 7.55-.95 11.29-.41s7.46 2.21 9.73 5.24c2.64 3.53 2.83 8.71.45 12.42z"/>
    <path fill="#81DFA1" d="M35.18 68.01c5.26.38 10.55-.56 14.83-2.99 3.7-2.1 6.92-5.66 8.84-9.77 2.05-4.39 2.44-9 1.1-12.97-1.75-5.18-5.96-9.8-11.84-13-4.42-2.41-10.95-3.94-16.63-3.91-4.99.03-11.67 1.2-15.15 6.64-2.09 3.27-1.41 7.46-.07 10.3 3.25 6.89 11.85 10.74 19.16 8.58 1.54-.46 2.6-1.06 3.33-1.89.97-1.1 1.22-2.65.61-3.76a.265.265 0 0 0-.36-.11c-.13.07-.18.23-.11.36.5.92.28 2.21-.54 3.15-.66.75-1.64 1.3-3.08 1.73-7.06 2.09-15.37-1.63-18.52-8.29-1.28-2.71-1.94-6.7.03-9.78 6.07-9.48 23.46-6.7 31.08-2.55 5.77 3.14 9.88 7.65 11.59 12.7 2.91 8.61-2.77 18.17-9.7 22.1-10.14 5.75-26.03 2.96-33.33-5.86a.25.25 0 0 0-.29-.08c-4.28 1.42-8.23 1.74-11.75.96-4.13-.92-7.57-3.46-9.18-6.81-.55-1.14-1.11-2.86-.7-4.61.38-1.6 1.64-2.88 3.05-3.12a.27.27 0 0 0 .22-.31.276.276 0 0 0-.31-.22c-1.65.28-3.05 1.7-3.48 3.53-.46 1.91.15 3.75.73 4.97 1.69 3.5 5.26 6.15 9.55 7.1 3.56.79 7.55.48 11.86-.92 4.38 5.19 11.69 8.3 19.06 8.83m111.17 26.01c.12 0 .24-.07.28-.19a.283.283 0 0 0-.18-.34c-3-.92-5.47-2.77-6.75-5.08-1.46-2.62-1.34-5.94.31-8.07.84-1.08 2.14-1.85 3.57-2.1 1.46-.26 2.89.06 3.93.86.07.06.17.07.26.04s.15-.11.17-.2c.41-2.21 2.81-3.49 4.92-3.94 1.76-.38 3.3-.34 4.58.12 2.39.86 4.02 3.42 3.8 5.94-.06.65-.29 1.86-1.23 2.63-.79.64-1.92.73-2.63.19a.27.27 0 1 0-.33.43c.91.68 2.32.59 3.29-.2.81-.66 1.32-1.73 1.43-3 .24-2.76-1.54-5.56-4.15-6.5-1.37-.49-3.01-.54-4.87-.14-2.15.47-4.59 1.75-5.24 3.97-1.12-.72-2.56-.98-4.01-.73-1.57.28-2.99 1.11-3.91 2.3-1.77 2.3-1.92 5.86-.35 8.66 1.37 2.46 3.88 4.35 7.07 5.33.02 0 .04 0 .06.01zm-13.13-16.57c.13 0 .24-.07.28-.2.71-2.56-.57-5.55-2.92-6.8-1.32-.7-2.85-.87-4.18-.98-1.09-.09-2.26-.14-3.33.26-1.02.38-2.08 1.33-2.13 2.6 0 .15.11.27.26.28.15 0 .27-.11.28-.26.04-1.02.92-1.8 1.78-2.12.97-.36 2.07-.31 3.1-.23 1.28.1 2.74.26 3.97.92 2.13 1.14 3.3 3.86 2.65 6.19-.04.14.04.29.19.33h.05z"/>
    <path fill="#81DFA1" d="M126.57 95.43c.11 0 .23-.06.27-.17a.28.28 0 0 0-.15-.35c-3.15-1.22-5.81-3.81-7.11-6.94a.273.273 0 0 0-.35-.15c-4.18 1.66-9.23.76-12.58-2.24-1.11-.99-1.81-2.03-2.1-3.09-.46-1.7.12-3.5.67-4.87.93-2.31 1.99-3.81 3.36-4.7 1.93-1.27 4.39-1.3 6.77-1.15 2.35.15 4.77.49 6.5 1.98.96.82 1.58 2.18 1.59 3.46 0 .68-.16 1.64-.97 2.36a.269.269 0 1 0 .36.4c.75-.67 1.16-1.65 1.15-2.77-.01-1.45-.69-2.92-1.78-3.86-1.85-1.59-4.36-1.95-6.81-2.11-2.47-.16-5.04-.11-7.1 1.24-1.92 1.26-2.95 3.43-3.56 4.95-.58 1.46-1.19 3.37-.69 5.22.31 1.16 1.07 2.28 2.26 3.35 3.43 3.07 8.58 4.04 12.89 2.44 1.39 3.15 4.1 5.75 7.31 6.99.03 0 .05.02.08.02zM22.54 53.3c2.53.18 5.1-.31 7.35-1.51.13-.07.18-.23.11-.36a.265.265 0 0 0-.36-.11c-4.31 2.3-9.85 1.91-13.8-.96s-6.02-8.03-5.16-12.84a.26.26 0 0 0-.22-.31.263.263 0 0 0-.31.22c-.9 5 1.26 10.37 5.37 13.37 2.05 1.49 4.51 2.34 7.02 2.52zm76.99 15.08h.05a.26.26 0 0 0 .24-.29c-.38-3.81-2.65-7.4-5.93-9.37-1.42-.85-3.08-1.47-5.21-1.95-1.51-.34-3.78-.73-5.95-.2-2.16.52-3.91 1.96-4.57 3.74-.05.14.02.29.16.35.14.05.29-.02.34-.16.59-1.62 2.2-2.92 4.19-3.4 2.06-.5 4.24-.12 5.71.21 2.08.47 3.68 1.07 5.05 1.89 3.14 1.88 5.31 5.32 5.67 8.96.01.13.12.23.25.24z"/>
    <path fill="#81DFA1" d="M52.48 81.64c.07 0 .14 0 .21.01 6.34.37 11.55-.4 15.91-2.35 6.11-2.74 11.93-9.15 11.21-16.1-.39-3.73-3.45-6.91-6.85-7.11-.15 0-.28.11-.28.25 0 .15.1.27.25.28 3.14.16 5.99 3.15 6.35 6.63.69 6.62-5.1 12.95-10.89 15.55-4.28 1.92-9.41 2.67-15.66 2.31-2.48-.14-7.23-1.05-9.4-3.52-.8-.91-1.16-1.95-1.08-3.11a.27.27 0 0 0-.25-.29.27.27 0 0 0-.29.25c-.09 1.3.31 2.48 1.21 3.5 2.22 2.53 6.96 3.5 9.56 3.69z"/>
    <path fill="#81DFA1" d="M48.21 76.02c2.47.18 5.24.02 8.37-.46 3.72-.57 8.43-1.61 11.86-4.65 1.74-1.54 3.43-4.25 2.46-6.79a.274.274 0 0 0-.35-.16c-.14.05-.21.21-.16.35.87 2.29-.7 4.77-2.32 6.19-3.32 2.95-7.94 3.96-11.58 4.52-7.23 1.11-12.47.46-16.52-2.02-1.17-.72-3.15-2.25-3.29-4.42 0-.15-.14-.26-.28-.25-.15 0-.26.14-.25.28.15 2.42 2.28 4.08 3.54 4.85 2.39 1.47 5.17 2.31 8.5 2.55zM22.74 88.98c.13 0 .25-.07.28-.2a.273.273 0 0 0-.19-.33c-3.44-.91-6.03-2.39-7.68-4.39-2.03-2.46-2.5-5.84-1.13-8.22.96-1.68 2.84-2.87 4.89-3.12 1.92-.23 4 .34 5.72 1.57.68.49 1.8 1.49 1.71 2.74-.01.15.1.28.25.29s.28-.1.29-.25c.12-1.52-1.16-2.67-1.93-3.22-1.82-1.3-4.05-1.91-6.1-1.67-2.22.26-4.25 1.56-5.3 3.38-1.47 2.57-.98 6.2 1.19 8.83 1.73 2.09 4.4 3.63 7.96 4.57h.05zM-4.09 66.91c.14 0 .28.02.42.03 4.55.28 8.47-.32 11.65-1.78 1.7-.78 3.87-2.19 4.53-4.48a.267.267 0 0 0-.18-.33.267.267 0 0 0-.33.18c-.6 2.09-2.64 3.4-4.23 4.14-3.1 1.42-6.94 2-11.39 1.73-5.32-.33-9.93-1.69-13.68-4.06-4.3-2.71-7.35-6.79-8.38-11.2a.27.27 0 0 0-.32-.2c-.14.03-.23.18-.2.32 1.06 4.54 4.2 8.75 8.61 11.53 3.73 2.35 8.28 3.73 13.52 4.11z"/>
    <path fill="#81DFA1" d="M-54.95 82.01c.71.05 1.4-.05 2.04-.32.14-.06.2-.21.15-.35a.273.273 0 0 0-.35-.15c-1.21.49-2.65.35-3.94-.41-1.53-.89-2.61-2.45-2.81-4.07-.37-2.93 1.51-6.09 4.57-7.7 2.45-1.29 5.55-1.72 9.47-1.3 6.9.74 12.11 3.91 13.95 8.49.04.11.15.17.26.17 2.85-.16 5.39-.23 7.79.62 2.22.78 4.59 2.76 4.86 5.41.01.13.12.23.25.24.13 0 .25-.07.28-.2.67-2.56 2.57-4.78 5.22-6.09 2.64-1.3 5.56-1.46 8.01-.43.08.04.18.03.26-.03.08-.05.12-.14.12-.23-.15-4 2.9-7.95 6.8-8.81.14-.03.24-.18.2-.32a.26.26 0 0 0-.32-.2c-4.01.89-7.18 4.85-7.23 8.95-2.51-.92-5.42-.71-8.07.59-2.44 1.2-4.28 3.15-5.18 5.45-.64-2.11-2.5-3.95-5.01-4.83-2.43-.86-5.08-.81-7.81-.66-1.97-4.67-7.3-7.9-14.32-8.64-4.03-.43-7.22.01-9.77 1.36-3.25 1.71-5.25 5.1-4.85 8.25.23 1.78 1.4 3.49 3.07 4.47.76.45 1.58.7 2.38.76zm59.02 19.5c.39.03.78.02 1.16-.02.15-.02.25-.15.24-.3a.277.277 0 0 0-.3-.24c-2.16.25-4.44-.78-5.68-2.57s-1.4-4.29-.41-6.22c.07-.13.02-.29-.11-.36a.27.27 0 0 0-.36.1c-.83 1.45-2.62 2.3-5.31 2.52a23.9 23.9 0 0 1-12.99-2.65c-1.77-.93-3.44-2.11-5.06-3.25-1.3-.92-2.65-1.86-4.05-2.69-3.83-2.26-7.49-3.05-10.57-2.28-.14.04-.23.18-.2.33.04.14.18.23.33.2 3.72-.92 7.59.7 10.17 2.22 1.38.81 2.72 1.75 4.01 2.66 1.63 1.15 3.32 2.33 5.12 3.28 4.03 2.13 8.74 3.09 13.29 2.71 2.08-.17 3.67-.71 4.73-1.6-.42 1.81-.08 3.81.97 5.33 1.13 1.63 3.05 2.68 5.02 2.82zm109.75-5.9c4.05.29 6.67-.63 7.78-2.73.07-.13.02-.29-.11-.36a.265.265 0 0 0-.36.11c-1 1.9-3.45 2.72-7.27 2.45h-.12c-5.9-.46-9.54-2.18-11.12-5.26a.27.27 0 0 0-.3-.14c-1.98.5-4.02.64-6.05.42-4.39-.48-9.19-3.35-9.86-7.9-.36-2.46.64-5.09 2.55-6.69s4.67-2.12 7.03-1.34a.269.269 0 1 0 .17-.51c-2.53-.84-5.5-.28-7.54 1.44-2.05 1.72-3.12 4.53-2.73 7.18.71 4.83 5.73 7.86 10.33 8.36 2.02.22 4.05.09 6.03-.38 1.72 3.14 5.47 4.9 11.46 5.36h.12z"/>
    <path stroke="#81DFA1" stroke-linejoin="round" stroke-width=".46" d="M194.76 88.69c-2.17 3.4-6.1 5.34-10.07 6.03-4.02.69-7.96-.2-11.95-.05 2.39 4.42-8.1 5.14-10.27 5.23-5.9.22-12.66-1.29-16.54-6.1.55 1.36-1.43 2.18-2.78 2.76-5.76 2.46-12.83 1.57-17.81-2.24-.26 2.5-2.33 4.52-4.65 5.47-2.33.95-4.9 1.03-7.42 1.1-11.78 12.02-25.71 7.45-33.39.64-4.61-4.09-6.02-10.43-6.02-10.43-9.88 9.97-31.46 3.53-35.99-1.88-1.76-.77-1.86-2.63-2.88-4.25-1.19 2.06-3.52 3.27-5.87 3.67s-4.76.1-7.12-.19c-.97 4.26-3.69 8.1-7.39 10.42-3.7 2.33-8.33 3.12-12.59 2.15.56 1.05.25 2.56-.64 3.35s-2.09 1.14-3.25 1.38c-7.1 1.49-14.75.26-21.02-3.39-2.46-1.43-4.72-3.23-7.29-4.48-2.56-1.25-5.58-1.93-8.27-.98-2.34.83-4.09 2.76-5.95 4.4-2.88 2.53-6.37 4.56-10.19 4.91s-7.96-1.27-9.88-4.59c-7.57-1.49-15.12-1.92-22.81-1.33-2.76.21-6.24 1.29-6.38 4.05-.07 1.57 1.08 2.92 2.32 3.88 3.57 2.74 8.26 3.54 12.75 3.7 4.5.16 9.03-.25 13.48.44s8.96 2.71 11.34 6.53c.91 1.47 1.47 3.18 1.36 4.9-.27 4.4-4.61 7.37-8.76 8.86-9.66 3.47-20.8 2.53-29.74-2.52.24.74-.38 1.05-1.07 1.42-5.37 2.88-11.81 3.48-17.76 2.21-5.96-1.27-11.45-4.33-16.09-8.28-2.65-2.26-5.09-4.84-8.17-6.49-3.42-1.84-7.38-2.38-11.23-2.89-3.37-.45-6.82-.89-10.15-.18-.29.06-.63.19-.66.48s.57.33.47.06c1.15.98.76 3.82-.18 5s-2.43 1.77-3.88 2.23c-11 3.52-23.42 2.3-33.52-3.32-5.78-3.22-10.74-7.74-16.43-11.1-12.91-7.6-28.55-8.66-43.52-8.8-5.67-.06-12.19-.41-15.64-4.9 17.26 6.79 37.56-2.71 55.06 3.46 5.88 2.07 11.01 5.79 16.37 8.98s11.29 5.96 17.52 5.78c3.88-.11 7.61-1.35 11.37-2.27 4.82-1.18 9.74-1.84 14.66-2.46 13.17-1.66 23.16 2.2 34.15 8.9 7.6 4.63 17.17 5.9 25.71 3.4 1.37-.4 2.79-.95 3.69-2.07 2.75-3.44-2.32-7.28-5.18-8.11-3.07-.89-5.94.14-9.02-.39-4.07 2.07-9.12 2.41-13.19.34-4.07-2.06-6.87-6.68-6.26-11.21.77-5.74 6.43-9.69 12.08-10.95s11.53-.55 17.31-.95c3.27-.23 6.51-.82 9.68-1.64 4.91-1.27 10.25-3.09 14.85-.95-4.81-2.58-4.35-9.78-1.68-14.54 2.67-4.75 8.18-7.36 13.61-7.9 5.42-.54 10.86.67 16.17 1.91-.87-3.82 1.38-7.89 4.69-10s7.44-2.53 11.35-2.14c-1.05-5.54 3.33-11.92 8.36-14.44s11.19-2.11 16.37.1c-1.82-3.08-.6-7.55 2.53-9.29-3.26-4.68-1.49-11.09 2.7-14.96 2.22-2.04 5.12-3.17 8-4.06 3.15-.97 6.43-1.71 9.72-1.5s6.62 1.49 8.77 3.99c8.54-3.14 18.67-3.66 26.28 1.34.82.54 1.62 1.14 2.53 1.5.78.31 1.61.42 2.43.57 11.73 2.03 22.47 10.37 28.07 20.87 8.42-3.22 18.64-1.02 24.98 5.38 2.04 2.05 3.72 4.57 4.24 7.42.59 3.21-.37 6.59-2.19 9.31-1.81 2.72-4.41 4.83-7.21 6.52 2.83.19 4.81.58 7.34 1.85.05-2.62 1.81-5.04 4.15-6.2 2.34-1.15 5.17-1.12 7.62-.22.7.26 1.39.58 2.13.62.97.05 1.89-.39 2.78-.79 6.79-3.03 14.61-3.7 21.82-1.87s13.17 6.68 17.7 12.59c3.75-.49 7.55-.95 11.29-.41s7.46 2.21 9.73 5.24c2.64 3.53 2.83 8.71.45 12.42z"/>
    <path fill="#F2FDF7" d="M249.27 109.01c2.39 3.74 6.72 5.88 11.09 6.64 4.42.76 8.76-.22 13.16-.05-2.63 4.87 8.91 5.66 11.31 5.75 6.49.25 13.94-1.42 18.21-6.72-.61 1.5 1.58 2.4 3.07 3.04 6.35 2.71 14.13 1.73 19.61-2.46.29 2.75 2.56 4.97 5.12 6.02s5.4 1.14 8.17 1.22c12.97 13.23 28.31 8.2 36.76.7 5.08-4.5 6.63-11.49 6.63-11.49 10.88 10.98 34.63 3.89 39.63-2.07 1.94-.84 2.05-2.89 3.18-4.68 1.31 2.27 3.87 3.6 6.46 4.04s5.24.12 7.84-.21c1.07 4.69 4.06 8.91 8.13 11.48 4.07 2.56 9.17 3.44 13.86 2.37-.61 1.16-.27 2.81.71 3.69.97.87 2.3 1.25 3.58 1.52 7.82 1.64 16.24.29 23.14-3.73 2.71-1.58 5.2-3.55 8.03-4.93 2.82-1.38 6.15-2.13 9.11-1.08 2.58.91 4.5 3.04 6.55 4.84 3.17 2.79 7.02 5.02 11.22 5.4s8.76-1.4 10.87-5.06c8.34-1.64 16.64-2.11 25.12-1.47 3.04.23 6.87 1.42 7.03 4.46.08 1.72-1.19 3.22-2.56 4.27-3.93 3.02-9.09 3.9-14.04 4.07s-9.94-.28-14.84.49c-4.89.76-9.87 2.98-12.48 7.19-1 1.61-1.62 3.5-1.5 5.39.3 4.84 5.08 8.12 9.64 9.75 10.63 3.82 22.9 2.78 32.74-2.77-.26.82.42 1.16 1.18 1.57 5.91 3.18 13 3.83 19.56 2.44 6.56-1.4 12.6-4.77 17.71-9.12 2.92-2.49 5.61-5.33 8.99-7.15 3.77-2.03 8.12-2.62 12.36-3.19 3.71-.49 7.51-.98 11.18-.2.32.07.69.21.73.53s-.63.37-.51.07c-1.27 1.08-.84 4.2.2 5.5s2.68 1.95 4.27 2.46c12.11 3.88 25.79 2.53 36.9-3.65 6.36-3.54 11.82-8.52 18.09-12.22 14.21-8.37 31.43-9.53 47.91-9.69 6.24-.07 13.42-.45 17.22-5.4-19.01 7.48-41.36-2.98-60.62 3.8-6.47 2.28-12.12 6.37-18.02 9.88s-12.43 6.56-19.29 6.36c-4.27-.12-8.38-1.49-12.52-2.5-5.3-1.3-10.72-2.03-16.14-2.71-14.5-1.82-25.5 2.42-37.59 9.79-8.36 5.1-18.9 6.49-28.3 3.74-1.51-.44-3.08-1.05-4.06-2.28-3.03-3.78 2.56-8.01 5.7-8.93 3.38-.98 6.54.16 9.93-.43 4.48 2.28 10.04 2.65 14.52.37 4.48-2.27 7.56-7.36 6.89-12.34-.85-6.32-7.08-10.67-13.3-12.06-6.22-1.38-12.7-.6-19.06-1.05-3.6-.25-7.17-.9-10.66-1.8-5.4-1.4-11.28-3.4-16.35-1.05 5.29-2.84 4.79-10.77 1.85-16.01-2.94-5.23-9.01-8.1-14.98-8.7s-11.95.74-17.8 2.11c.95-4.21-1.52-8.69-5.16-11.01s-8.2-2.79-12.5-2.36c1.15-6.1-3.66-13.12-9.21-15.89-5.54-2.77-12.32-2.33-18.02.11 2.01-3.39.66-8.32-2.78-10.23 3.59-5.16 1.64-12.21-2.97-16.47-2.44-2.25-5.63-3.49-8.81-4.47-3.47-1.07-7.08-1.88-10.7-1.65-3.62.24-7.29 1.64-9.65 4.39-9.41-3.46-20.56-4.03-28.93 1.47-.9.59-1.78 1.26-2.78 1.65-.85.34-1.77.47-2.68.62-12.91 2.23-24.73 11.42-30.9 22.98-9.27-3.54-20.52-1.13-27.51 5.92-2.24 2.26-4.1 5.04-4.67 8.17-.65 3.54.41 7.25 2.41 10.25 1.99 2.99 4.86 5.32 7.94 7.18-3.12.21-5.29.64-8.09 2.04-.06-2.88-1.99-5.55-4.57-6.82s-5.69-1.24-8.39-.24c-.77.28-1.53.64-2.34.68-1.07.06-2.08-.43-3.06-.87-7.48-3.34-16.09-4.08-24.03-2.06s-14.5 7.36-19.48 13.86c-4.13-.54-8.31-1.05-12.43-.45s-8.22 2.43-10.71 5.76c-2.9 3.88-3.12 9.59-.5 13.67z"/>
    <path fill="#81DFA1" d="M302.56 114.89c-.13 0-.26-.07-.3-.21-.05-.16.04-.32.2-.37 3.31-1.02 6.02-3.05 7.44-5.59 1.61-2.88 1.47-6.54-.34-8.88-.92-1.19-2.35-2.03-3.93-2.31-1.61-.28-3.18.06-4.32.95a.3.3 0 0 1-.29.04.3.3 0 0 1-.19-.22c-.45-2.43-3.09-3.84-5.41-4.34-1.94-.42-3.63-.37-5.04.13-2.63.95-4.43 3.76-4.18 6.54.06.72.32 2.05 1.36 2.9.87.71 2.11.8 2.9.21.13-.1.32-.07.41.06.1.13.07.32-.06.41-1 .75-2.56.65-3.63-.23-.89-.73-1.45-1.9-1.57-3.31-.27-3.04 1.7-6.12 4.57-7.15 1.51-.54 3.32-.6 5.36-.15 2.37.51 5.06 1.92 5.77 4.37 1.23-.79 2.82-1.08 4.42-.8 1.72.3 3.29 1.23 4.3 2.53 1.95 2.53 2.11 6.45.39 9.53-1.51 2.71-4.28 4.79-7.78 5.87-.02 0-.04.01-.07.01zm14.46-18.25c-.14 0-.27-.08-.31-.22-.78-2.82.63-6.11 3.21-7.49 1.45-.77 3.13-.96 4.6-1.08 1.2-.09 2.48-.15 3.67.28 1.13.42 2.29 1.46 2.35 2.86 0 .16-.12.3-.28.31-.16 0-.3-.12-.31-.28-.05-1.13-1.02-1.98-1.96-2.33-1.07-.39-2.27-.34-3.41-.25-1.41.11-3.02.29-4.37 1.01-2.35 1.25-3.63 4.24-2.92 6.81.04.16-.05.32-.21.36h-.06z"/>
    <path fill="#81DFA1" d="M324.34 116.44c-.13 0-.25-.06-.3-.19-.06-.15.02-.32.17-.38 3.47-1.34 6.4-4.2 7.83-7.64a.29.29 0 0 1 .38-.16c4.6 1.82 10.16.83 13.85-2.47 1.22-1.09 2-2.24 2.31-3.4.51-1.87-.13-3.85-.74-5.37-1.02-2.55-2.19-4.19-3.69-5.18-2.12-1.4-4.83-1.44-7.45-1.27-2.59.16-5.25.54-7.15 2.18-1.06.91-1.74 2.4-1.75 3.8 0 .75.18 1.81 1.07 2.6.12.11.13.3.03.42a.31.31 0 0 1-.42.03c-.83-.73-1.28-1.81-1.27-3.05.01-1.59.76-3.22 1.96-4.25 2.04-1.75 4.81-2.15 7.5-2.32 2.72-.17 5.55-.13 7.81 1.37 2.11 1.39 3.25 3.78 3.92 5.45.64 1.6 1.31 3.71.76 5.74-.35 1.27-1.18 2.51-2.49 3.68-3.78 3.38-9.44 4.44-14.19 2.68-1.53 3.47-4.52 6.33-8.05 7.7-.03.01-.06.02-.09.02zm29.77-29.78h-.05a.307.307 0 0 1-.27-.32c.41-4.19 2.91-8.14 6.53-10.31 1.56-.94 3.39-1.62 5.74-2.15 1.67-.37 4.16-.8 6.55-.22 2.38.58 4.31 2.15 5.03 4.11.06.15-.02.32-.18.38a.293.293 0 0 1-.38-.18c-.65-1.78-2.42-3.21-4.61-3.74-2.27-.55-4.67-.13-6.28.23-2.29.51-4.06 1.17-5.56 2.08-3.45 2.07-5.85 5.85-6.24 9.86a.29.29 0 0 1-.27.27z"/>
    <path fill="#81DFA1" d="M405.92 101.25c-.08 0-.15.01-.23.01-6.98.41-12.71-.44-17.52-2.59-6.73-3.02-13.13-10.07-12.34-17.72.42-4.11 3.8-7.61 7.54-7.83.16 0 .3.12.31.28 0 .16-.11.3-.27.31-3.46.18-6.59 3.47-6.99 7.3-.75 7.29 5.62 14.26 11.99 17.12 4.72 2.11 10.36 2.94 17.24 2.54 2.73-.16 7.96-1.15 10.35-3.87.88-1 1.28-2.15 1.19-3.42-.01-.16.11-.3.27-.32.16-.01.3.11.32.27.1 1.43-.35 2.73-1.33 3.85-2.45 2.79-7.66 3.85-10.53 4.06z"/>
    <path fill="#81DFA1" d="M410.62 95.07c-2.72.2-5.77.03-9.22-.5-4.1-.63-9.28-1.78-13.06-5.12-1.92-1.7-3.78-4.67-2.71-7.47.06-.15.23-.23.38-.17s.23.23.17.38c-.96 2.52.77 5.25 2.55 6.82 3.66 3.24 8.74 4.36 12.75 4.98 7.95 1.22 13.73.51 18.18-2.22 1.29-.79 3.47-2.48 3.62-4.87a.3.3 0 0 1 .31-.28.3.3 0 0 1 .28.31c-.16 2.66-2.51 4.49-3.9 5.34-2.63 1.62-5.7 2.54-9.36 2.81zm-72.25 21.57c-4.46.32-7.35-.69-8.57-3.01-.08-.14-.02-.32.12-.4s.32-.02.4.12c1.1 2.09 3.8 3 8 2.7h.13c6.5-.5 10.51-2.39 12.24-5.79.06-.12.2-.19.34-.15 2.18.55 4.42.7 6.66.46 4.84-.53 10.12-3.68 10.85-8.7.4-2.71-.7-5.6-2.81-7.36-2.1-1.76-5.14-2.34-7.74-1.47a.29.29 0 0 1-.37-.19c-.05-.16.03-.32.19-.37 2.79-.93 6.05-.31 8.31 1.58 2.25 1.89 3.44 4.99 3.01 7.9-.78 5.31-6.31 8.65-11.38 9.2-2.23.24-4.46.1-6.64-.42-1.89 3.46-6.02 5.39-12.62 5.9h-.13z"/>
    <path stroke="#81DFA1" stroke-linejoin="round" stroke-width=".5" d="M249.27 109.01c2.39 3.74 6.72 5.88 11.09 6.64 4.42.76 8.76-.22 13.16-.05-2.63 4.87 8.91 5.66 11.31 5.75 6.49.25 13.94-1.42 18.21-6.72-.61 1.5 1.58 2.4 3.07 3.04 6.35 2.71 14.13 1.73 19.61-2.46.29 2.75 2.56 4.97 5.12 6.02s5.4 1.14 8.17 1.22c12.97 13.23 28.31 8.2 36.76.7 5.08-4.5 6.63-11.49 6.63-11.49 10.88 10.98 34.63 3.89 39.63-2.07 1.94-.84 2.05-2.89 3.18-4.68 1.31 2.27 3.87 3.6 6.46 4.04s5.24.12 7.84-.21c1.07 4.69 4.06 8.91 8.13 11.48 4.07 2.56 9.17 3.44 13.86 2.37-.61 1.16-.27 2.81.71 3.69.97.87 2.3 1.25 3.58 1.52 7.82 1.64 16.24.29 23.14-3.73 2.71-1.58 5.2-3.55 8.03-4.93 2.82-1.38 6.15-2.13 9.11-1.08 2.58.91 4.5 3.04 6.55 4.84 3.17 2.79 7.02 5.02 11.22 5.4s8.76-1.4 10.87-5.06c8.34-1.64 16.64-2.11 25.12-1.47 3.04.23 6.87 1.42 7.03 4.46.08 1.72-1.19 3.22-2.56 4.27-3.93 3.02-9.09 3.9-14.04 4.07s-9.94-.28-14.84.49c-4.89.76-9.87 2.98-12.48 7.19-1 1.61-1.62 3.5-1.5 5.39.3 4.84 5.08 8.12 9.64 9.75 10.63 3.82 22.9 2.78 32.74-2.77-.26.82.42 1.16 1.18 1.57 5.91 3.18 13 3.83 19.56 2.44 6.56-1.4 12.6-4.77 17.71-9.12 2.92-2.49 5.61-5.33 8.99-7.15 3.77-2.03 8.12-2.62 12.36-3.19 3.71-.49 7.51-.98 11.18-.2.32.07.69.21.73.53s-.63.37-.51.07c-1.27 1.08-.84 4.2.2 5.5s2.68 1.95 4.27 2.46c12.11 3.88 25.79 2.53 36.9-3.65 6.36-3.54 11.82-8.52 18.09-12.22 14.21-8.37 31.43-9.53 47.91-9.69 6.24-.07 13.42-.45 17.22-5.4-19.01 7.48-41.36-2.98-60.62 3.8-6.47 2.28-12.12 6.37-18.02 9.88s-12.43 6.56-19.29 6.36c-4.27-.12-8.38-1.49-12.52-2.5-5.3-1.3-10.72-2.03-16.14-2.71-14.5-1.82-25.5 2.42-37.59 9.79-8.36 5.1-18.9 6.49-28.3 3.74-1.51-.44-3.08-1.05-4.06-2.28-3.03-3.78 2.56-8.01 5.7-8.93 3.38-.98 6.54.16 9.93-.43 4.48 2.28 10.04 2.65 14.52.37 4.48-2.27 7.56-7.36 6.89-12.34-.85-6.32-7.08-10.67-13.3-12.06-6.22-1.38-12.7-.6-19.06-1.05-3.6-.25-7.17-.9-10.66-1.8-5.4-1.4-11.28-3.4-16.35-1.05 5.29-2.84 4.79-10.77 1.85-16.01-2.94-5.23-9.01-8.1-14.98-8.7s-11.95.74-17.8 2.11c.95-4.21-1.52-8.69-5.16-11.01s-8.2-2.79-12.5-2.36c1.15-6.1-3.66-13.12-9.21-15.89-5.54-2.77-12.32-2.33-18.02.11 2.01-3.39.66-8.32-2.78-10.23 3.59-5.16 1.64-12.21-2.97-16.47-2.44-2.25-5.63-3.49-8.81-4.47-3.47-1.07-7.08-1.88-10.7-1.65-3.62.24-7.29 1.64-9.65 4.39-9.41-3.46-20.56-4.03-28.93 1.47-.9.59-1.78 1.26-2.78 1.65-.85.34-1.77.47-2.68.62-12.91 2.23-24.73 11.42-30.9 22.98-9.27-3.54-20.52-1.13-27.51 5.92-2.24 2.26-4.1 5.04-4.67 8.17-.65 3.54.41 7.25 2.41 10.25 1.99 2.99 4.86 5.32 7.94 7.18-3.12.21-5.29.64-8.09 2.04-.06-2.88-1.99-5.55-4.57-6.82s-5.69-1.24-8.39-.24c-.77.28-1.53.64-2.34.68-1.07.06-2.08-.43-3.06-.87-7.48-3.34-16.09-4.08-24.03-2.06s-14.5 7.36-19.48 13.86c-4.13-.54-8.31-1.05-12.43-.45s-8.22 2.43-10.71 5.76c-2.9 3.88-3.12 9.59-.5 13.67z"/>
  </g>
</svg>
