<svg xmlns="http://www.w3.org/2000/svg" width="390" height="190" fill="none" viewBox="0 0 390 190" xmlns:xlink="http://www.w3.org/1999/xlink">
  <mask id="a" width="390" height="190" x="0" y="0" maskUnits="userSpaceOnUse" style="mask-type:alpha">
    <path fill="#D9D9D9" d="M0 0h390v190H0z"/>
  </mask>
  <g mask="url(#a)">
    <g clip-path="url(#b)">
      <path fill="#00B250" d="M382.461 63.773c11.611 7.057 45.804 6.349 45.804 6.349l8.602-13.407-1.291-22.456s65.804-40.21-35.68-32.94-117.655 38.067-117.655 38.067c-24.301 1.072-39.572 5.774-50.542 11.122s-3.874 11.972 12.903 16.47c23.685 4.428 41.361 3.586 53.515 1.107 0 0 24.773 9.377 44.772 3.604 5.467-1.576 9.092-3.905 11.282-6.544z"/>
      <path stroke="#67DB70" stroke-miterlimit="10" d="M288.474 58.424s-12.475 4.277-17.204-2.993c-4.728-7.27 14.408-12.193 33.33-9.2s18.708 9.413 12.689 14.327c-6.02 4.915-29.251 14.54-72.687 6.42-16.777-4.49-23.873-11.122-12.903-16.47s26.233-10.05 50.542-11.122c0 0 16.161-30.797 117.655-38.067 101.493-7.27 35.68 32.932 35.68 32.932l1.291 22.456-8.602 13.406s-34.193.708-45.804-6.35c-11.612-7.056-18.068-15.61-13.553-24.377s17.631-21.384 42.154-25.023"/>
      <path stroke="#67DB70" stroke-miterlimit="10" d="M298.117 68.076s24.773 9.377 44.772 3.604c20-5.773 15.271-21.597 6.456-25.661m62.215-20.074c-15.876 3.674-24.362 12.025-27.621 20.065s2.831 15.62 23.703 12.804"/>
    </g>
    <g clip-path="url(#c)">
      <path fill="#E6FFEA" stroke="#89EF95" d="M-19.282 289.306s14.446-1.785 14.624-7.497-10.343-9.461-34.42-11.425c-24.075-1.963-18.337-14.459 10.344-21.319 28.681-6.853 92.597-6.471 130.947-6.911s87.082-1.064 105.718-1.989c18.637-.924 13.083-16.684 2.777-16.913-10.305-.23-8.681-3.131.351-5.796 9.031-2.664 37.075.326 62.948-1.791 25.878-2.117 34.961-13.197 30.356-16.066-4.605-2.862-12.44-.746-12.44-.746 16.421-6.35 21.898-14.198 7.586-18.552-14.305-4.361-36.732-4.437-58.183-5.948-21.452-1.505-37.382-6.777-36-11.425 1.382-4.647 24.586-7.657 24.713-12.68.128-5.024-11.917-4.52-25.968-2.761-14.05 1.76-17.56-2.384-11.668-7.657 5.898-5.272 22.579-7.159 37.254-7.656C244.332 131.67 256.745 113.751 243 107c-18.114-12.172-67.963 2.894-121 0s-69.557-5.001-56.671-15.495c12.885-10.487 64.285-10.914 76.036-11.335 11.752-.427 7.363-5.668 7.363-5.668 13.452-2.977 25.484-14.459 6.23-16.582-7.855-.866-42.452-1.42-52.958 0l4.5 6.459c8.5-1.879 30.334-.918 32.101 0 6.733 3.493-3.726 9.027-26.095 10.716-22.37 1.683-89.967 1.25-104.419 21.326 0 0-15.311.433-24.375 5.827-9.057 5.4 9.923 10.793 32.14 8.205 0 0 31.706 6.261 75.279 6.261s72.26-.861 84.769 4.966 6.904 12.304-12.076 16.41c-18.981 4.099-15.911 12.317-4.452 11.852 11.458-.466 14.553.777 8.827 3.564-5.732 2.792-2.477 6.196 11.924 6.356 14.401.153 10.375 3.564 6.503 5.272-3.873 1.702-11.459 8.371 12.853 10.692 24.312 2.327 73.094 6.19 81.922 13.592 8.828 7.401-5.012 16.716-46.521 14.803-41.515-1.912-86.604-7.402-101.393-1.192s-12.644 22.448 22.904 19.343c35.547-3.105 38.171 12.419-3.338 10.506-41.515-1.912-141.354-3.092-178.405-.083s-85.368 18.795-90.125 36.837 51.33 7.338 70.4 7.338 18.897 7.051 10.305 8.428-16.318 6.019-12.025 10.488 31.61 3.952 57.381 2.926c25.77-1.033 43.585-2.353 52.407-1.549 8.828.803 5.567 7.688 28.203 7 22.643-.689 54.229-2.659 77.585-2.302 23.356.364 31.866.727 23.898 5.075s-7.784 10.876 3.624 10.513 20.999 2.174 20.999 2.174-10.503-5.438-17.56-5.802c-7.063-.363 2.898-2.9 8.873-7.612s-3.803-10.691-27.885-12.502-82.68-2.359-90.508-2.359-5.357-9.894-27.592-6.598c-22.242 3.296-70.725 5.228-81.903 4.469z"/>
    </g>
    <g clip-path="url(#d)">
      <path fill="#A1FF00" d="M284.459 89.684h125.867c18.848 0 30.409-21.339 19.438-36.656-3.358-4.688-8.54-8.425-16.398-10.066-31.426-6.548-40.619 29.555-62.008 21.937-14.256-5.532-26.553-4.634-36.843 1.696-16.389 10.066-34.693 16.668-53.877 18.101-10.599.79-24.647 3.936-24.647 3.936l48.459 1.061z"/>
      <mask id="e" width="200" height="48" x="235" y="42" maskUnits="userSpaceOnUse" style="mask-type:luminance">
        <path fill="#fff" d="M284.459 89.684h125.867c18.848 0 30.409-21.339 19.438-36.656-3.358-4.688-8.54-8.425-16.398-10.066-31.426-6.548-40.619 29.555-62.008 21.937-14.256-5.532-26.553-4.634-36.843 1.696-16.389 10.066-34.693 16.668-53.877 18.101-10.599.79-24.647 3.936-24.647 3.936l48.459 1.061z"/>
      </mask>
      <g fill="#FFFFFB" mask="url(#e)">
        <path d="M262.444 43.579a7.72 7.72 0 0 0-7.723 7.717c4.265 0 7.714-3.455 7.723-7.717m-7.723 7.708a7.72 7.72 0 0 0-7.722-7.718c0 4.263 3.457 7.709 7.722 7.718m7.723-7.717c0-4.263-3.458-7.709-7.723-7.718a7.72 7.72 0 0 0 7.723 7.718"/>
        <path d="M247.008 43.57a7.72 7.72 0 0 0 7.722-7.718 7.72 7.72 0 0 0-7.722 7.718m15.436 0a7.72 7.72 0 0 0 7.722-7.718 7.72 7.72 0 0 0-7.722 7.718"/>
        <path d="M270.166 51.287a7.72 7.72 0 0 0-7.722-7.718c0 4.263 3.457 7.709 7.722 7.718m7.723-7.717c0-4.263-3.457-7.709-7.723-7.709a7.72 7.72 0 0 0 7.723 7.718z"/>
        <path d="M277.889 43.579a7.72 7.72 0 0 0-7.723 7.717 7.724 7.724 0 0 0 7.723-7.708zm0-.009a7.72 7.72 0 0 0 7.723-7.718 7.724 7.724 0 0 0-7.723 7.708z"/>
        <path d="M293.325 43.57a7.72 7.72 0 0 0-7.722-7.718 7.72 7.72 0 0 0 7.722 7.718m0 .009a7.72 7.72 0 0 0-7.722 7.717 7.72 7.72 0 0 0 7.722-7.717m-7.723 7.708a7.72 7.72 0 0 0-7.722-7.718c0 4.263 3.457 7.709 7.722 7.709zm15.446 0a7.72 7.72 0 0 0-7.723-7.718 7.72 7.72 0 0 0 7.723 7.718m7.713-7.717c0-4.263-3.457-7.709-7.722-7.709a7.72 7.72 0 0 0 7.722 7.718z"/>
        <path d="M293.325 43.57a7.72 7.72 0 0 0 7.723-7.718 7.72 7.72 0 0 0-7.723 7.718m15.436.009a7.72 7.72 0 0 0-7.722 7.717 7.723 7.723 0 0 0 7.722-7.708zm7.723 7.708a7.72 7.72 0 0 0-7.723-7.718c0 4.263 3.458 7.709 7.723 7.709zm7.722-7.717a7.72 7.72 0 0 0-7.722-7.718 7.72 7.72 0 0 0 7.722 7.718"/>
        <path d="M308.761 43.57a7.72 7.72 0 0 0 7.723-7.718 7.724 7.724 0 0 0-7.723 7.708zm15.445 0a7.72 7.72 0 0 0-7.722 7.717 7.72 7.72 0 0 0 7.722-7.718Z"/>
        <path d="M331.92 51.287a7.72 7.72 0 0 0-7.723-7.718 7.72 7.72 0 0 0 7.723 7.718m7.723-7.717c0-4.263-3.458-7.709-7.723-7.718a7.72 7.72 0 0 0 7.723 7.718"/>
        <path d="M324.206 43.57a7.72 7.72 0 0 0 7.723-7.718 7.72 7.72 0 0 0-7.723 7.718m15.437.009a7.72 7.72 0 0 0-7.723 7.717c4.265 0 7.713-3.455 7.723-7.717m15.436 0a7.72 7.72 0 0 0-7.723 7.717 7.724 7.724 0 0 0 7.723-7.708z"/>
        <path d="M355.079 43.57c0-4.263-3.458-7.709-7.723-7.709a7.72 7.72 0 0 0 7.723 7.718z"/>
        <path d="M339.643 43.57a7.72 7.72 0 0 0 7.722-7.718 7.72 7.72 0 0 0-7.722 7.718"/>
        <path d="M347.365 51.287a7.72 7.72 0 0 0-7.722-7.718c0 4.263 3.457 7.709 7.722 7.718m15.436 0a7.72 7.72 0 0 0-7.722-7.718c0 4.263 3.457 7.709 7.722 7.709z"/>
        <path d="M355.079 43.57a7.72 7.72 0 0 0 7.722-7.718 7.723 7.723 0 0 0-7.722 7.708zm15.445 0a7.72 7.72 0 0 0-7.723 7.717 7.72 7.72 0 0 0 7.723-7.718Z"/>
        <path d="M370.524 43.57a7.72 7.72 0 0 0-7.723-7.718 7.72 7.72 0 0 0 7.723 7.718m15.436.009a7.72 7.72 0 0 0-7.723 7.717 7.72 7.72 0 0 0 7.723-7.717"/>
        <path d="M378.237 51.287a7.72 7.72 0 0 0-7.722-7.718 7.72 7.72 0 0 0 7.722 7.718m7.723-7.717a7.72 7.72 0 0 0-7.723-7.718 7.72 7.72 0 0 0 7.723 7.718"/>
        <path d="M370.524 43.57a7.72 7.72 0 0 0 7.722-7.718 7.72 7.72 0 0 0-7.722 7.718m15.436 0a7.72 7.72 0 0 0 7.723-7.718 7.72 7.72 0 0 0-7.723 7.718"/>
        <path d="M393.683 51.287a7.72 7.72 0 0 0-7.723-7.718 7.72 7.72 0 0 0 7.723 7.718m-131.239 7.718a7.72 7.72 0 0 0-7.723 7.717 7.713 7.713 0 0 0 7.714-7.717zm-7.714-7.718c-4.265 0-7.713 3.455-7.722 7.718a7.72 7.72 0 0 0 7.722-7.718"/>
        <path d="M254.721 66.713a7.72 7.72 0 0 0-7.722-7.717c0 4.262 3.457 7.708 7.713 7.717zm7.723-7.708c0-4.263-3.458-7.709-7.723-7.718a7.72 7.72 0 0 0 7.723 7.718m0 0a7.72 7.72 0 0 0 7.722-7.718c-4.265 0-7.713 3.455-7.722 7.718m15.445 0c0-4.263-3.457-7.709-7.723-7.709a7.72 7.72 0 0 0 7.723 7.718v-.01Z"/>
        <path d="M277.889 59.005a7.72 7.72 0 0 0-7.723 7.717 7.71 7.71 0 0 0 7.714-7.708zm-7.723 7.708a7.72 7.72 0 0 0-7.722-7.717c0 4.262 3.457 7.708 7.713 7.717zm23.159-7.708a7.72 7.72 0 0 0-7.722-7.718 7.72 7.72 0 0 0 7.722 7.718"/>
        <path d="M285.602 66.713a7.72 7.72 0 0 0-7.722-7.717 7.71 7.71 0 0 0 7.713 7.708zm7.723-7.708a7.72 7.72 0 0 0-7.722 7.717 7.71 7.71 0 0 0 7.713-7.717z"/>
        <path d="M277.889 59.005a7.72 7.72 0 0 0 7.723-7.718 7.724 7.724 0 0 0-7.723 7.708zm30.872 0a7.72 7.72 0 0 0-7.722 7.717 7.71 7.71 0 0 0 7.713-7.708zm-7.722 7.708a7.72 7.72 0 0 0-7.723-7.717c0 4.262 3.458 7.708 7.714 7.717z"/>
        <path d="M293.325 59.005a7.72 7.72 0 0 0 7.723-7.718 7.72 7.72 0 0 0-7.723 7.718"/>
        <path d="M308.761 59.005c0-4.263-3.457-7.709-7.722-7.709a7.72 7.72 0 0 0 7.722 7.718zm15.445 0a7.72 7.72 0 0 0-7.722 7.717 7.71 7.71 0 0 0 7.713-7.717z"/>
        <path d="M316.484 66.713a7.72 7.72 0 0 0-7.723-7.717c0 4.262 3.458 7.708 7.714 7.708zm7.722-7.708a7.72 7.72 0 0 0-7.722-7.718 7.72 7.72 0 0 0 7.722 7.718"/>
        <path d="M308.761 58.995a7.72 7.72 0 0 0 7.723-7.717 7.724 7.724 0 0 0-7.723 7.708zm30.882.01c0-4.263-3.458-7.709-7.723-7.718a7.72 7.72 0 0 0 7.723 7.718"/>
        <path d="M324.206 59.005a7.72 7.72 0 0 0 7.723-7.718 7.72 7.72 0 0 0-7.723 7.718m15.437 0a7.72 7.72 0 0 0-7.723 7.717 7.71 7.71 0 0 0 7.713-7.717z"/>
        <path d="M331.92 66.713a7.72 7.72 0 0 0-7.723-7.717c0 4.262 3.458 7.708 7.714 7.717zm15.436 0a7.72 7.72 0 0 0-7.723-7.717c0 4.262 3.458 7.708 7.714 7.717zm7.723-7.708a7.72 7.72 0 0 0-7.723 7.717 7.71 7.71 0 0 0 7.714-7.708l.009-.01Z"/>
        <path d="M355.079 59.005c0-4.263-3.458-7.709-7.723-7.709a7.72 7.72 0 0 0 7.723 7.718z"/>
        <path d="M339.643 59.005a7.72 7.72 0 0 0 7.722-7.718c-4.265 0-7.713 3.455-7.722 7.718m30.881 0a7.72 7.72 0 0 0-7.723-7.718 7.72 7.72 0 0 0 7.723 7.718m-15.445-.01a7.72 7.72 0 0 0 7.722-7.717 7.723 7.723 0 0 0-7.722 7.708v.01Z"/>
        <path d="M362.801 66.713a7.72 7.72 0 0 0-7.722-7.717 7.71 7.71 0 0 0 7.713 7.708zm7.723-7.708a7.72 7.72 0 0 0-7.723 7.717 7.713 7.713 0 0 0 7.714-7.717zm15.436 0a7.72 7.72 0 0 0-7.723 7.717 7.713 7.713 0 0 0 7.714-7.717z"/>
        <path d="M378.237 66.713a7.72 7.72 0 0 0-7.722-7.717c0 4.262 3.457 7.708 7.713 7.717z"/>
        <path d="M370.524 59.005a7.72 7.72 0 0 0 7.722-7.718 7.72 7.72 0 0 0-7.722 7.718"/>
        <path d="M385.96 59.005a7.72 7.72 0 0 0-7.723-7.718 7.72 7.72 0 0 0 7.723 7.718m7.723 7.708a7.72 7.72 0 0 0-7.723-7.717c0 4.262 3.457 7.708 7.713 7.717z"/>
        <path d="M385.96 59.005a7.72 7.72 0 0 0 7.723-7.718 7.72 7.72 0 0 0-7.723 7.718m-131.23 7.708a7.72 7.72 0 0 0 7.723 7.718c0-4.263-3.458-7.709-7.714-7.718z"/>
        <path d="M254.73 66.713a7.71 7.71 0 0 0-7.713 7.718 7.72 7.72 0 0 0 7.722-7.718z"/>
        <path d="M254.721 82.148a7.72 7.72 0 0 0-7.722-7.718c0 4.263 3.457 7.709 7.722 7.718m7.723-7.718a7.72 7.72 0 0 0-7.723 7.718c4.265 0 7.714-3.455 7.723-7.718m15.445 0a7.72 7.72 0 0 0-7.723 7.718 7.724 7.724 0 0 0 7.723-7.708z"/>
        <path d="M277.889 74.43c0-4.262-3.458-7.708-7.714-7.708a7.72 7.72 0 0 0 7.723 7.718zm-7.723-7.717a7.71 7.71 0 0 0-7.713 7.718 7.72 7.72 0 0 0 7.722-7.718z"/>
        <path d="M270.166 82.148a7.72 7.72 0 0 0-7.722-7.718c0 4.263 3.457 7.709 7.722 7.718m15.436 0a7.72 7.72 0 0 0-7.722-7.718c0 4.263 3.457 7.709 7.722 7.709v.01Z"/>
        <path d="M277.889 74.43a7.72 7.72 0 0 0 7.723-7.717 7.71 7.71 0 0 0-7.714 7.709z"/>
        <path d="M293.325 74.43c0-4.262-3.457-7.708-7.713-7.717a7.72 7.72 0 0 0 7.722 7.718h-.009Z"/>
        <path d="M293.325 74.43a7.72 7.72 0 0 0-7.722 7.718c4.265 0 7.713-3.455 7.722-7.718m15.436 0a7.72 7.72 0 0 0-7.722 7.718 7.723 7.723 0 0 0 7.722-7.708zm-15.436 0a7.72 7.72 0 0 0 7.723-7.717 7.713 7.713 0 0 0-7.714 7.718h-.009Z"/>
        <path d="M308.761 74.43a7.71 7.71 0 0 0-7.713-7.708 7.72 7.72 0 0 0 7.722 7.718zm-7.722 7.718a7.72 7.72 0 0 0-7.723-7.718c0 4.263 3.458 7.709 7.723 7.718"/>
        <path d="M308.761 74.43a7.72 7.72 0 0 0 7.723-7.717 7.71 7.71 0 0 0-7.714 7.709z"/>
        <path d="M316.484 82.148a7.72 7.72 0 0 0-7.723-7.718c0 4.263 3.458 7.709 7.723 7.709v.01Zm7.722-7.718a7.72 7.72 0 0 0-7.722 7.718c4.265 0 7.713-3.455 7.722-7.718"/>
        <path d="M324.206 74.43c0-4.262-3.457-7.708-7.713-7.717a7.72 7.72 0 0 0 7.723 7.718h-.01Zm15.436 0c0-4.262-3.457-7.708-7.713-7.717a7.72 7.72 0 0 0 7.723 7.718h-.01Z"/>
        <path d="M324.206 74.43a7.72 7.72 0 0 0 7.723-7.717 7.713 7.713 0 0 0-7.714 7.718h-.009Zm15.437 0a7.72 7.72 0 0 0-7.723 7.718c4.265 0 7.713-3.455 7.723-7.718"/>
        <path d="M331.92 82.148a7.72 7.72 0 0 0-7.723-7.718 7.72 7.72 0 0 0 7.723 7.718m23.159-7.718c0-4.262-3.458-7.708-7.714-7.708a7.72 7.72 0 0 0 7.723 7.718zm-15.436 0a7.72 7.72 0 0 0 7.722-7.717 7.71 7.71 0 0 0-7.713 7.718z"/>
        <path d="M355.079 74.43a7.72 7.72 0 0 0-7.723 7.718 7.724 7.724 0 0 0 7.723-7.708z"/>
        <path d="M347.365 82.148a7.72 7.72 0 0 0-7.722-7.718c0 4.263 3.457 7.709 7.722 7.718m15.436 0a7.72 7.72 0 0 0-7.722-7.718c0 4.263 3.457 7.709 7.722 7.709v.01Zm7.723-7.718c0-4.262-3.458-7.708-7.714-7.717a7.72 7.72 0 0 0 7.723 7.718z"/>
        <path d="M370.524 74.43a7.72 7.72 0 0 0-7.723 7.718c4.265 0 7.714-3.455 7.723-7.718m-15.445 0a7.72 7.72 0 0 0 7.722-7.717 7.71 7.71 0 0 0-7.713 7.709z"/>
        <path d="M378.237 82.148a7.72 7.72 0 0 0-7.722-7.718 7.72 7.72 0 0 0 7.722 7.718m7.723-7.718c0-4.262-3.457-7.708-7.714-7.717a7.72 7.72 0 0 0 7.723 7.718z"/>
        <path d="M385.96 74.43a7.72 7.72 0 0 0-7.723 7.718c4.265 0 7.714-3.455 7.723-7.718m-15.436 0a7.72 7.72 0 0 0 7.722-7.717 7.71 7.71 0 0 0-7.713 7.718h-.009Zm15.436 0a7.72 7.72 0 0 0 7.723-7.717 7.71 7.71 0 0 0-7.714 7.718h-.009Z"/>
        <path d="M393.683 82.148a7.72 7.72 0 0 0-7.723-7.718c0 4.263 3.457 7.709 7.723 7.718m-138.953 0c-4.265 0-7.713 3.455-7.722 7.718a7.72 7.72 0 0 0 7.722-7.718"/>
        <path d="M254.73 82.148a7.72 7.72 0 0 0 7.723 7.718c0-4.263-3.458-7.709-7.723-7.718m15.436 0a7.72 7.72 0 0 0 7.723 7.718c0-4.263-3.457-7.709-7.723-7.709z"/>
        <path d="M270.166 82.148c-4.265 0-7.713 3.455-7.722 7.718a7.72 7.72 0 0 0 7.722-7.718m15.436 0a7.723 7.723 0 0 0-7.722 7.709 7.72 7.72 0 0 0 7.722-7.718zm7.723 7.708c0-4.262-3.457-7.708-7.722-7.717a7.72 7.72 0 0 0 7.722 7.718Zm0 0a7.72 7.72 0 0 0 7.723-7.717c-4.265 0-7.714 3.455-7.723 7.718Z"/>
        <path d="M308.761 89.856c0-4.262-3.457-7.708-7.722-7.708a7.72 7.72 0 0 0 7.722 7.718zm0 0a7.72 7.72 0 0 0 7.723-7.717 7.724 7.724 0 0 0-7.723 7.708v.01Zm15.445 0a7.72 7.72 0 0 0-7.722-7.717 7.72 7.72 0 0 0 7.722 7.718Zm0 0a7.72 7.72 0 0 0 7.723-7.717c-4.265 0-7.714 3.455-7.723 7.718Z"/>
        <path d="M339.643 89.856c0-4.262-3.458-7.708-7.723-7.717a7.72 7.72 0 0 0 7.723 7.718Zm0 0a7.72 7.72 0 0 0 7.722-7.717c-4.265 0-7.713 3.455-7.722 7.718Z"/>
        <path d="M355.079 89.856c0-4.262-3.458-7.708-7.723-7.708a7.72 7.72 0 0 0 7.723 7.718zm0 0a7.72 7.72 0 0 0 7.722-7.717 7.723 7.723 0 0 0-7.722 7.708v.01Zm15.445 0a7.72 7.72 0 0 0-7.723-7.717 7.72 7.72 0 0 0 7.723 7.718Zm15.436 0c0-4.262-3.458-7.708-7.723-7.717a7.72 7.72 0 0 0 7.723 7.718Z"/>
        <path d="M370.524 89.856a7.72 7.72 0 0 0 7.722-7.717c-4.265 0-7.713 3.455-7.722 7.718Zm15.436 0a7.72 7.72 0 0 0 7.723-7.717c-4.266 0-7.714 3.455-7.723 7.718Z"/>
      </g>
    </g>
    <path fill="#FCF351" d="M108.744 71.799c.685-1.132-14.174-31.925-39.359-29.816C23.744 45.813 37.2 106.098-32.43 76.076-74.03 58.14 8.345 96.21 8.345 96.21l94.143-14.69 6.256-9.727v.005Z"/>
    <mask id="f" width="156" height="56" x="-45" y="41" maskUnits="userSpaceOnUse" style="mask-type:luminance">
      <path fill="#fff" d="M108.744 70.24c.685-1.13-14.174-30.366-39.359-28.257C23.744 45.813 37.2 106.098-32.43 76.076-74.03 58.14 8.345 96.21 8.345 96.21l94.143-14.69L111 76.077l-2.256-5.835Z"/>
    </mask>
    <g mask="url(#f)">
      <path fill="#FCF351" d="M119.703 31.065h-169.91v74.944h169.91z"/>
      <path fill="#5FCE70" d="M1.005 49.148c0-4.649-3.597-8.42-8.032-8.42 0 4.65 3.597 8.42 8.032 8.42m0 0c-4.435 0-8.032 3.771-8.032 8.42 4.435 0 8.032-3.77 8.032-8.42m16.068 0c-4.435 0-8.032 3.771-8.032 8.42 4.435 0 8.032-3.77 8.032-8.42m-16.068 0c4.434 0 8.03-3.77 8.03-8.42-4.433 0-8.03 3.771-8.03 8.42m16.068 0c0-4.649-3.597-8.42-8.032-8.42 0 4.65 3.597 8.42 8.032 8.42"/>
      <path fill="#5FCE70" d="M9.036 57.569c0-4.65-3.597-8.42-8.031-8.42 0 4.648 3.597 8.42 8.03 8.42Zm8.037-8.427c4.434 0 8.031-3.77 8.031-8.42-4.434 0-8.031 3.771-8.031 8.42m8.031 8.427c0-4.65-3.597-8.42-8.031-8.42 0 4.648 3.597 8.42 8.031 8.42m8.031-8.421c-4.434 0-8.031 3.771-8.031 8.42 4.434 0 8.031-3.77 8.031-8.42m0 0c0-4.649-3.597-8.42-8.031-8.42 0 4.65 3.597 8.42 8.031 8.42m16.068 0c0-4.649-3.597-8.42-8.03-8.42 0 4.65 3.596 8.42 8.03 8.42m-16.068 0c4.435 0 8.032-3.77 8.032-8.42-4.435 0-8.032 3.771-8.032 8.42m16.068 0c-4.434 0-8.03 3.771-8.03 8.42 4.433 0 8.03-3.77 8.03-8.42m-8.031 8.421c0-4.65-3.597-8.42-8.031-8.42 0 4.648 3.597 8.42 8.031 8.42m24.1-8.421c0-4.649-3.597-8.42-8.032-8.42 0 4.65 3.597 8.42 8.032 8.42m-16.069 0c4.435 0 8.032-3.77 8.032-8.42-4.435 0-8.032 3.771-8.032 8.42m16.069 0c-4.435 0-8.032 3.771-8.032 8.42 4.435 0 8.032-3.77 8.032-8.42m-8.037 8.421c0-4.65-3.597-8.42-8.032-8.42 0 4.648 3.597 8.42 8.032 8.42"/>
      <path fill="#5FCE70" d="M73.303 57.569c0-4.65-3.597-8.42-8.031-8.42 0 4.648 3.596 8.42 8.03 8.42Zm8.037-8.421c0-4.649-3.597-8.42-8.032-8.42 0 4.65 3.597 8.42 8.032 8.42m0 0c-4.435 0-8.032 3.771-8.032 8.42 4.435 0 8.032-3.77 8.032-8.42m-16.068-.006c4.434 0 8.03-3.77 8.03-8.42-4.434 0-8.03 3.771-8.03 8.42m24.098 8.427c0-4.65-3.596-8.42-8.03-8.42 0 4.648 3.596 8.42 8.03 8.42m8.038-8.421c0-4.649-3.597-8.42-8.032-8.42 0 4.65 3.597 8.42 8.032 8.42m0 0c-4.435 0-8.032 3.771-8.032 8.42 4.435 0 8.032-3.77 8.032-8.42m-16.068 0c4.434 0 8.03-3.77 8.03-8.42-4.434 0-8.03 3.771-8.03 8.42m32.136 0c0-4.649-3.597-8.42-8.031-8.42 0 4.65 3.596 8.42 8.031 8.42m-16.068 0c4.434 0 8.031-3.77 8.031-8.42-4.434 0-8.031 3.771-8.031 8.42m16.068 0c-4.435 0-8.031 3.771-8.031 8.42 4.434 0 8.031-3.77 8.031-8.42"/>
      <path fill="#5FCE70" d="M105.439 57.569c0-4.65-3.597-8.42-8.031-8.42 0 4.648 3.597 8.42 8.031 8.42M1.005 65.995c-4.435 0-8.032 3.77-8.032 8.42 4.435 0 8.032-3.771 8.032-8.42m0 0c0-4.65-3.597-8.42-8.032-8.42 0 4.648 3.597 8.42 8.032 8.42m0 0c4.434 0 8.03-3.772 8.03-8.42-4.433 0-8.03 3.77-8.03 8.42m16.068 0c-4.435 0-8.032 3.77-8.032 8.42 4.435 0 8.032-3.771 8.032-8.42"/>
      <path fill="#5FCE70" d="M9.036 74.415c0-4.65-3.597-8.42-8.031-8.42 0 4.649 3.597 8.42 8.03 8.42Zm8.037-8.42c0-4.65-3.597-8.42-8.032-8.42 0 4.648 3.597 8.42 8.032 8.42m0-.006c4.434 0 8.031-3.771 8.031-8.42-4.434 0-8.031 3.77-8.031 8.42m16.062.006c-4.434 0-8.031 3.77-8.031 8.42 4.434 0 8.031-3.771 8.031-8.42m0 0c0-4.65-3.597-8.42-8.031-8.42 0 4.648 3.597 8.42 8.031 8.42m-8.031 8.42c0-4.65-3.597-8.42-8.031-8.42 0 4.649 3.597 8.42 8.031 8.42m8.031-8.42c4.435 0 8.032-3.772 8.032-8.42-4.435 0-8.032 3.77-8.032 8.42m16.068 0c0-4.65-3.597-8.42-8.03-8.42 0 4.648 3.596 8.42 8.03 8.42m-8.031 8.42c0-4.65-3.597-8.42-8.031-8.42 0 4.649 3.597 8.42 8.031 8.42m8.031-8.42c-4.434 0-8.03 3.77-8.03 8.42 4.433 0 8.03-3.771 8.03-8.42m0 0c4.435 0 8.032-3.772 8.032-8.42-4.435 0-8.032 3.77-8.032 8.42m16.069 0c0-4.65-3.597-8.42-8.032-8.42 0 4.648 3.597 8.42 8.032 8.42m-8.037 8.42c0-4.65-3.597-8.42-8.032-8.42 0 4.649 3.597 8.42 8.032 8.42m8.037-8.42c-4.435 0-8.032 3.77-8.032 8.42 4.435 0 8.032-3.771 8.032-8.42m0-.006c4.434 0 8.03-3.771 8.03-8.42-4.434 0-8.03 3.77-8.03 8.42m16.068.006c0-4.65-3.597-8.42-8.032-8.42 0 4.648 3.597 8.42 8.032 8.42"/>
      <path fill="#5FCE70" d="M73.303 74.415c0-4.65-3.597-8.42-8.031-8.42 0 4.649 3.596 8.42 8.03 8.42Zm8.037-8.42c-4.435 0-8.032 3.77-8.032 8.42 4.435 0 8.032-3.771 8.032-8.42m16.068 0c0-4.65-3.597-8.42-8.032-8.42 0 4.648 3.597 8.42 8.032 8.42m0 0c-4.435 0-8.032 3.77-8.032 8.42 4.435 0 8.032-3.771 8.032-8.42m-8.038 8.42c0-4.65-3.596-8.42-8.03-8.42 0 4.649 3.596 8.42 8.03 8.42m-8.03-8.42c4.434 0 8.03-3.772 8.03-8.42-4.434 0-8.03 3.77-8.03 8.42"/>
      <path fill="#5FCE70" d="M105.439 74.415c0-4.65-3.597-8.42-8.031-8.42 0 4.649 3.597 8.42 8.031 8.42m8.037-8.42c0-4.65-3.597-8.42-8.031-8.42 0 4.648 3.596 8.42 8.031 8.42m0 0c-4.435 0-8.031 3.77-8.031 8.42 4.434 0 8.031-3.771 8.031-8.42m-16.068 0c4.434 0 8.031-3.772 8.031-8.42-4.434 0-8.031 3.77-8.031 8.42m-104.435 8.42c0 4.649 3.597 8.42 8.032 8.42 0-4.65-3.597-8.42-8.032-8.42m8.032 8.425c-4.435 0-8.032 3.772-8.032 8.42 4.435 0 8.032-3.77 8.032-8.42m16.068 0c-4.435 0-8.032 3.772-8.032 8.42 4.435 0 8.032-3.77 8.032-8.42m-8.037-8.425c-4.434 0-8.031 3.77-8.031 8.42 4.434 0 8.03-3.771 8.03-8.42Zm8.037 8.425c0-4.648-3.597-8.42-8.032-8.42 0 4.65 3.597 8.42 8.032 8.42m-8.037 8.42c0-4.648-3.597-8.42-8.031-8.42 0 4.65 3.597 8.42 8.03 8.42Zm24.099-8.42c-4.434 0-8.031 3.772-8.031 8.42 4.434 0 8.031-3.77 8.031-8.42m0 0c0-4.648-3.597-8.42-8.031-8.42 0 4.65 3.597 8.42 8.031 8.42m-16.062-.005c4.434 0 8.031-3.771 8.031-8.42-4.434 0-8.031 3.77-8.031 8.42m8.031 8.425c0-4.648-3.597-8.42-8.031-8.42 0 4.65 3.597 8.42 8.031 8.42m24.099-8.42c-4.434 0-8.03 3.772-8.03 8.42 4.433 0 8.03-3.77 8.03-8.42m0 0c0-4.648-3.597-8.42-8.03-8.42 0 4.65 3.596 8.42 8.03 8.42m-8.031 8.42c0-4.648-3.597-8.42-8.031-8.42 0 4.65 3.597 8.42 8.031 8.42m-8.037-8.42c4.435 0 8.032-3.77 8.032-8.42-4.435 0-8.032 3.772-8.032 8.42m32.137 0c-4.435 0-8.032 3.772-8.032 8.42 4.435 0 8.032-3.77 8.032-8.42m-16.069-.005c4.435 0 8.032-3.771 8.032-8.42-4.435 0-8.032 3.77-8.032 8.42m8.037 8.425c0-4.648-3.597-8.42-8.031-8.42 0 4.65 3.597 8.42 8.031 8.42m8.032-8.42c0-4.648-3.597-8.42-8.032-8.42 0 4.65 3.597 8.42 8.032 8.42m0-.005c4.434 0 8.03-3.771 8.03-8.42-4.434 0-8.03 3.77-8.03 8.42m16.068.005c-4.435 0-8.032 3.772-8.032 8.42 4.435 0 8.032-3.77 8.032-8.42"/>
      <path fill="#5FCE70" d="M73.303 91.26c0-4.648-3.597-8.42-8.031-8.42 0 4.65 3.596 8.42 8.03 8.42Zm8.037-8.42c0-4.648-3.597-8.42-8.032-8.42 0 4.65 3.597 8.42 8.032 8.42m16.068 0c0-4.648-3.597-8.42-8.032-8.42 0 4.65 3.597 8.42 8.032 8.42m-16.068 0c4.434 0 8.03-3.77 8.03-8.42-4.434 0-8.03 3.772-8.03 8.42m16.068 0c-4.435 0-8.032 3.772-8.032 8.42 4.435 0 8.032-3.77 8.032-8.42m-8.038 8.42c0-4.648-3.596-8.42-8.03-8.42 0 4.65 3.596 8.42 8.03 8.42m24.106-8.42c0-4.648-3.597-8.42-8.031-8.42 0 4.65 3.596 8.42 8.031 8.42"/>
      <path fill="#5FCE70" d="M105.439 91.26c0-4.648-3.597-8.42-8.031-8.42 0 4.65 3.597 8.42 8.031 8.42m8.037-8.42c-4.435 0-8.031 3.772-8.031 8.42 4.434 0 8.031-3.77 8.031-8.42m-16.068-.005c4.434 0 8.031-3.771 8.031-8.42-4.434 0-8.031 3.77-8.031 8.42"/>
    </g>
    <path fill="#B6FC4F" d="m-27.122 9.038-7 23.715 1.804 55.02a50 50 0 0 0 2.936 6.403c11.601 21.11 52.224 21.136 63.235-.147 8.693-16.8-1.028-39.319-24.223-43.997-3.883-.782-8.08-1.935-13.212-2.255 0 0 12.85-32.562-23.54-38.735z"/>
    <path stroke="#5FCE70" stroke-miterlimit="10" stroke-width="1.8" d="M-36.661 16.477s38.725 7.875 23.58 38.346C19.357 52.508 35.885 81.84 19.567 94.03c-5.453 4.074-15.366 3.694-20.983.096-7.49-4.796-9.306-21.47 2.347-24.11 4.875-1.105 9.289 1.34 11.309 4.528 2.767 4.367.864 9.326-3.626 12.627"/>
  </g>
  <defs>
    <clipPath id="b">
      <path fill="#fff" d="M226 0h231v74H226z"/>
    </clipPath>
    <clipPath id="c">
      <path fill="#fff" d="M328 57H-96v136h424z"/>
    </clipPath>
    <clipPath id="d">
      <path fill="#fff" d="M236 5h204v108H236z"/>
    </clipPath>
  </defs>
</svg>
