<svg xmlns="http://www.w3.org/2000/svg" width="391" height="407" fill="none" viewBox="0 0 391 407">
  <mask id="a" width="391" height="407" x="0" y="0" maskUnits="userSpaceOnUse" style="mask-type:alpha">
    <path fill="#D9D9D9" d="M0 0h391v407H0z"/>
  </mask>
  <g mask="url(#a)">
    <path fill="#1232C0" stroke="#476AF6" stroke-miterlimit="10" d="M191.248 299.485c-46.702 12.334-134.81-.826-134.81-.826 17.885 1.188 36.243 2.387 54.219 3.212 75.538 3.474 100.721-13.461 84.657-26.922-10.397-8.719-51.291-14.74-90.826-19.049 60.41 1.641 87.444 3.675 102.964 13.098 15.963 9.686 5.627 24.728-16.204 30.487Z"/>
    <path fill="#00B250" stroke="#89EF95" stroke-miterlimit="10" stroke-width=".71" d="M394.44 267.579s-102.251 15.636-130.412 12.756-37.543-3.866-37.543-3.866l-20.25 22.241s-52.358 21.737-102.744 17.297c-50.385-4.44-73.273-4.944-73.273-4.944l6.532 30.638-3.593 13.34-34.392 5.437.07 79.448H391.37z"/>
    <path fill="#00B250" stroke="#89EF95" stroke-miterlimit="10" stroke-width=".71" d="M713.56 444.175c-23.512 0-23.301 8.689-12.712 10.381 10.598 1.701 20.13 7.42 14.836 12.927-5.295 5.518-38.982 4.873-70.767 3.605-31.776-1.269-53.747-2.9-64.628-1.903-10.89.986-6.864 9.474-34.784 8.628-27.92-.856-66.872-3.282-95.678-2.839-28.806.453-39.294.896-29.47 6.252 9.823 5.367 9.602 13.401-4.469 12.958-13.648-.433-25.203 2.497-25.867 2.668.705-.362 13.165-6.695 21.63-7.138 8.706-.443-3.573-3.574-10.941-9.374-7.368-5.809 4.69-13.179 34.382-15.414s101.958-2.91 111.611-2.91c9.652 0 6.602-12.192 34.029-8.125s87.223 6.444 101.002 5.507c0 0-17.815-2.205-18.026-9.242-.221-7.038 12.752-11.659 42.444-14.076 29.692-2.426 22.616-17.83-12.752-26.278-35.369-8.447-114.198-7.974-161.493-8.517-25.434-.292-62.846-1.148-95.577-1.954-28.122-.694-52.791-1.349-63.43-1.58-33.143-.735-24.347-20.469-3.422-20.852 12.702-.241 13.981-8.88 2.416-9.927-8.666-.785-14.514 1.269-26.39 2.074-6.321.423-14.363.494-25.455-.413-9.098-.745-18.519-2.084-26.843-6.02-5.103-2.407-11.072-6.363-12.974-11.982-2.456-7.249 3.845-12.534 9.864-15.192-1.792.795-15.108-1.793-20.523-7.884-3.714-4.178-6.149-8.91-6.23-14.397-.171-11.106 7.458-19.784 17.04-24.406 7.237-3.503 15.339-5.044 23.301-5.708 32.681-2.749 79.493 15.847 104.162 9.615 16.919-4.279 20.11-11.005 12.833-17.499-7.267-6.504-27.84-8.82-45.937-9.444-18.107-.614-23.501-13.864-6.552-22.19 16.939-8.327 74.582-1.651 139.984-5.226 65.412-3.564 85.099-9.776 69.217-22.703-15.893-12.928-79.282-13.452-93.776-13.975-14.483-.524-9.078-6.987-9.078-6.987-16.587-3.665-31.423-17.821-7.68-20.439s65.131 1.923 65.131 1.923-36.657 1.732-44.961 6.031c-8.303 4.299 4.6 11.125 32.188 13.209 27.578 2.075 110.946 1.531 128.771 26.279 0 0 18.882.533 30.054 7.188 11.173 6.645-12.239 13.3-39.635 10.109 0 0-39.103 7.712-92.83 7.712s-89.115-1.057-104.535 6.121c-15.429 7.189-8.515 15.173 14.886 20.227 23.412 5.055 19.627 15.173 5.496 14.609-14.131-.573-17.946.947-10.88 4.39 7.065 3.433 3.049 7.642-14.705 7.833-17.765.192-12.793 4.39-8.022 6.494s14.131 10.31-15.852 13.18c-29.984 2.869-90.142 7.631-101.023 16.753-10.89 9.122-.664 20.237 50.527 17.881 51.19-2.346 85.009-9.847 103.246-2.195 18.248 7.652 15.601 27.668-28.242 23.842-43.833-3.826-18.439 16.391 32.751 14.035 51.201-2.356 174.326-3.806 220.021-.101s105.279 23.167 111.147 45.398c5.858 22.241-63.308 9.051-86.83 9.051z"/>
    <path stroke="#89EF95" stroke-miterlimit="10" stroke-width=".71" d="M336.526 369.348c-20.291-1.067-43.33-6.735-46.712-17.982-4.217-14.025 11.756-16.995 11.756-16.995s-24.619-4.218-29.521-14.427c-7.266-15.173 3.614-31.484 40.502-31.504 22.566-.02 40.854 21.204 95.225 9.343 54.371-11.86 8.736-31.543-7.74-29.822"/>
    <path fill="#005EE5" stroke="#304EE2" stroke-miterlimit="10" d="M237.104 293.494c-8.374-5.205-22.636-1.359-22.636-1.359 29.883-11.548 39.847-25.815 13.809-33.738-26.038-7.924-66.842-8.075-105.874-10.814-39.032-2.738-68.019-12.333-65.513-20.78s44.739-13.925 44.971-23.057-21.68-8.215-47.245-5.024c-25.565 3.192-31.957-4.339-21.227-13.924 10.729-9.585 41.085-13.018 67.787-13.924 26.703-.917 57.975-15.002 32.963-27.285-25.011-12.283-133.35-7.904-229.864-13.169-96.503-5.266-125.571-14.438-102.119-33.507 23.441-19.07 116.975-19.845 138.353-20.62 21.388-.775 13.397-10.31 13.397-10.31C-21.616 60.566.285 39.695-34.761 35.829c-35.047-3.867-96.101 2.839-96.101 2.839s54.09 2.557 66.339 8.9c12.259 6.353-6.784 16.421-47.487 19.482s-163.707 2.266-190.007 38.783c0 0-27.87.785-44.346 10.602-16.486 9.816 18.057 19.633 58.478 14.921 0 0 57.692 11.387 136.974 11.387s131.489-1.571 154.246 9.031c22.767 10.602 12.56 22.382-21.982 29.842-34.543 7.461-28.957 22.402-8.103 21.556 20.855-.845 26.481 1.41 16.064 6.484-10.427 5.075-4.509 11.277 21.7 11.559 26.2.282 18.882 6.484 11.837 9.585s-20.855 15.223 23.39 19.451c44.236 4.229 132.999 11.257 149.063 24.718s-9.119 30.396-84.657 26.922c-75.537-3.473-157.587-13.461-184.5-2.174-26.914 11.286-23.01 40.816 41.678 35.178 64.688-5.648 69.459 22.583-6.079 19.109s-257.22-5.618-324.636-.151c-67.425 5.467-155.343 34.182-163.998 66.984-8.656 32.812 93.403 13.351 128.107 13.351s34.392 12.816 18.761 15.323c-15.631 2.497-29.702 10.945-21.882 19.08s57.522 7.188 104.415 5.316c46.892-1.873 79.302-4.279 95.365-2.819 2.617.241 4.66.775 6.402 1.49-1.037-8.286-1.873-16.573-1.238-24.778-1.832.191-3.765.423-5.828.735-40.471 6-128.691 9.504-149.032 8.125 0 0 26.29-3.242 26.612-13.633s-18.822-17.206-62.635-20.78-33.365-26.298 18.822-38.763 168.498-11.77 238.278-12.575c69.78-.806 158.453-1.933 192.372-3.615 33.919-1.681 23.804-30.345 5.053-30.768s-15.802-5.689.634-10.531 67.465.594 114.549-3.263c47.084-3.846 63.611-24.002 55.237-29.207z"/>
    <path fill="#304EE2" d="M28.608 194.252c-3.21-6.111 2.295-12.384 7.267-15.495 10.528-6.816 23.13-8.9 35.117-11.709 10.618-2.427 25.826-5.296 36.062-8.558 2.134-.745 4.348-1.49 6.15-2.85 1.58-1.419 2.647-3.695 2.385-5.809-2.264-10.37-27.668-13.411-36.747-14.236 10.146.251 27.689 2.436 35.358 9.846 3.272 3.091 2.879 7.994-.463 10.864-1.912 1.44-4.207 2.195-6.431 2.94-5.938 1.883-12.018 3.061-18.077 4.319-13.567 3.131-67.264 10.481-60.621 30.688m-391.81 230.884c-5.294-1.298-10.497-3.121-15.137-6.031-9.924-6.705-8.254-13.31 2.516-17.951 7.488-3.292 15.53-5.095 23.522-6.665 21.378-3.957 43.108-5.608 64.808-6.484 60.108-1.873 134.931-1.44 195.402-2.235 48.734-.967 97.902.352 146.183-7.149 16.94-3.353 34.211-8.407 29.27-29.882-.01-.051.07-.071.08-.02.564 2.658.936 5.366.876 8.094.05 9.001-6.513 14.932-14.424 17.922-10.155 4.007-21.066 5.447-31.815 6.816-16.184 1.853-32.46 2.94-48.745 3.524-92.235 3.121-184.571.101-276.797 3.554-17.311.876-91.762 4.44-96.805 20.65-.221 1.238.131 2.587.685 3.755 2.566 4.773 7.921 7.27 12.752 9.273a59 59 0 0 0 7.73 2.457c.242.06.161.443-.091.382z"/>
    <mask id="b" width="206" height="95" x="-6" y="208" maskUnits="userSpaceOnUse" style="mask-type:luminance">
      <path fill="#fff" d="M199.682 284.715v.03c-2.989 10.521-31.312 19.784-89.024 17.126-29.179-1.339-67.526-4.148-95.094-5.829l-20.714-13.19 58.75-31.936 15.298-13.421 4.861-4.269 49.651-18.052 38.408-6.514s31.966 16.602 33.295 16.391c.624-.101 7.136 14.105 2.637 27.607-3.302 9.907-14.937 13.753-2.436 22.291 5.888 4.017 4.368 9.766 4.368 9.766"/>
    </mask>
    <g mask="url(#b)">
      <path fill="#00B250" d="m239.751 304.801-32.651 7.128-75.739-1.842c-3.221-.906.302-1.027-2.355-2.104-29.058-11.821-34.16-53.875-6.25-65.313 22.918-9.394 54.129 1.047 60.561 24.677 1.077 3.957 2.667 8.236 3.1 13.461 0 0 44.819-13.098 53.324 23.983z"/>
      <path stroke="#5FCE70" stroke-miterlimit="10" stroke-width="1.06" d="M229.515 314.517s-10.84-39.458-52.791-24.023c3.191-33.044-37.19-49.888-53.968-33.265-5.607 5.557-5.083 15.656-.131 21.374 6.602 7.632 29.561 9.485 33.184-2.396 1.52-4.973-1.842-9.464-6.23-11.528-6.009-2.819-12.833-.886-17.382 3.695"/>
      <path fill="#00B250" d="M149.72 310.248s-17.06-15.727-48.061-31.443c-28.232-14.317-25.655 15.394-85.069 17.297-20.542.654 19.093 23.187 19.093 23.187l63.58 4.531 38.731 3.131 11.716-16.713z"/>
    </g>
    <path fill="#1232C0" stroke="#476AF6" stroke-miterlimit="10" d="M-17.43 187.406c-11.846 4.047-14.201 10.299-9.813 15.756-20.432.584-25.645-14.166 8.616-21.566 34.533-7.46 44.739-19.23 21.982-29.832-4.52-2.104-10.196-3.725-17.01-4.984l9.079-4.279c24.276.816 35.992 3.333 37.663 16.442 1.67 13.119-25.998 20.096-50.516 28.463Zm74.803 63.862c-3.945-.372-7.68-.715-11.131-1.047-44.236-4.228-30.427-16.341-23.381-19.442s14.372-9.303-11.837-9.584c-23.491-.252-30.678-5.266-24.397-9.948 5.515 1.712 12.28 2.819 19.939 2.95 32.379.554 43.249 6.695 33.204 16.603-8.042 7.943 2.134 17.257 17.603 20.468Z"/>
  </g>
</svg>
