<svg xmlns="http://www.w3.org/2000/svg" xmlns:xlink="http://www.w3.org/1999/xlink" width="189" height="288" fill="none" viewBox="0 0 189 288">
  <defs>
    <path id="a" fill="#1B1E2D" d="M10.91 31.553 99.433 1.68c7.629-2.577 15.903 1.51 18.47 9.112l69.196 205.22c2.567 7.602-1.55 15.868-9.179 18.435L89.397 264.32c-7.629 2.577-15.902-1.511-18.469-9.112L1.732 49.988C-.835 42.385 3.282 34.12 10.9 31.552h.01Z"/>
  </defs>
  <path fill="#11131B" d="m129.005 50.573 2.366-.798a.63.63 0 0 1 .803.398l8.187 24.28a.63.63 0 0 1-.398.803l-2.365.799a.63.63 0 0 1-.804-.399l-8.19-24.289a.63.63 0 0 1 .398-.803zM7.418 67.748l2.365-.796c.333-.11.685.06.806.393l2.345 6.947a.63.63 0 0 1-.403.796l-2.365.795a.637.637 0 0 1-.805-.393l-2.345-6.937a.63.63 0 0 1 .402-.795zm4.469 13.3 2.365-.796c.332-.11.685.06.806.393l4.86 14.428a.63.63 0 0 1-.402.795l-2.365.796a.637.637 0 0 1-.805-.393l-4.861-14.428a.63.63 0 0 1 .402-.795"/>
  <path fill="#2F354D" d="M11.152 32.267 99.674 2.395c7.629-2.577 15.902 1.51 18.469 9.112l69.197 205.22c2.566 7.602-1.55 15.868-9.18 18.435l-88.521 29.872c-7.63 2.578-15.903-1.51-18.47-9.111L1.974 50.703c-2.567-7.602 1.55-15.868 9.17-18.436h.01Z"/>
  <path fill="#fff" d="m112.487 12.624 69.196 205.221c1.56 4.621-.946 9.655-5.586 11.216l-88.521 29.872c-4.64 1.561-9.683-.916-11.243-5.547L7.136 48.166c-1.56-4.622.947-9.656 5.587-11.227l13.607-4.591a2.79 2.79 0 0 1 3.533 1.742l.574 1.711c1.157 3.424 4.871 5.256 8.314 4.098l43.57-14.7c3.443-1.157 5.285-4.873 4.127-8.296l-.573-1.711a2.78 2.78 0 0 1 1.751-3.524l13.618-4.591a8.86 8.86 0 0 1 6.321.241 8.8 8.8 0 0 1 4.922 5.306"/>
  <use xlink:href="#a"/>
  <path fill="#F8DBD1" d="M47.135 136.635c-6.03-6.464-26.975-7.491-36.697-7.189-1.138 2.164-3.251 7.259-2.547 10.37.876 3.876 8.696 16.794 13.276 19.019s25.032 2.487 28.554.06c3.523-2.426 4.952-14.176-2.586-22.26"/>
  <path fill="#F8DBD1" d="M39.304 106.561c-6.029-6.464-25.726-7.21-35.449-6.907-1.137 2.165-2.415 6.887-2.274 10.34.16 3.977 4.267 16.28 8.847 18.505s27.93 2.749 31.463.323c3.523-2.427 4.952-14.176-2.587-22.261m13.517 94.862 9.25 26.46-1.973 2.084c-5.183-1.279-16.194-5.961-18.78-14.508-2.588-8.548 2.898-14.801 5.968-16.855l5.535 2.83z"/>
  <path fill="#F8DBD1" d="M53.808 166.124c6.904 1.702 10.155 8.85 10.92 12.213 3.16 13.965.836 14.498.413 16.22-.423 1.732-9.985 6.343-15.762 6.021s-15.218-9.605-22.686-20.972c-5.969-9.092-4.268-16.442-2.668-18.979l19.074 1.389c.694.655 3.804 2.407 10.719 4.098z"/>
  <path fill="#F8DBD1" stroke="#C85B24" stroke-miterlimit="10" d="M47.135 136.635c-6.03-6.464-26.975-7.491-36.697-7.189-1.138 2.164-3.251 7.259-2.547 10.37.876 3.876 8.696 16.794 13.276 19.019s25.032 2.487 28.554.06c3.523-2.426 4.952-14.176-2.586-22.26Z"/>
  <path fill="#F8DBD1" stroke="#C85B24" stroke-miterlimit="10" d="M39.304 106.561c-6.029-6.464-25.726-7.21-35.449-6.907-1.137 2.165-2.415 6.887-2.274 10.34.16 3.977 4.267 16.28 8.847 18.505s27.93 2.749 31.463.323c3.523-2.427 4.952-14.176-2.587-22.261Zm13.517 94.862 9.25 26.46-1.973 2.084c-5.183-1.279-16.194-5.961-18.78-14.508-2.588-8.548 2.898-14.801 5.968-16.855l5.535 2.83z"/>
  <path fill="#F8DBD1" stroke="#C85B24" stroke-miterlimit="10" d="M53.808 166.124c6.904 1.702 10.155 8.85 10.92 12.213 3.16 13.965.836 14.498.413 16.22-.423 1.732-9.985 6.343-15.762 6.021s-15.218-9.605-22.686-20.972c-5.969-9.092-4.268-16.442-2.668-18.979l19.074 1.389c.694.655 3.804 2.407 10.719 4.098zm108.178-53.482c-4.469-3.031-14.906-21.445-19.566-30.275l31.996 95.134c3.634-12.041 10.357-38.118 8.173-46.122-2.728-10.008-15.007-14.941-20.593-18.737z"/>
  <path stroke="#B6FC4F" stroke-miterlimit="10" d="M40.642 287.406h-.06"/>
  <use xlink:href="#a"/>
</svg>
