<svg xmlns="http://www.w3.org/2000/svg" width="257" height="315" fill="none" viewBox="0 0 257 315">
  <path fill="#2D354F" d="m29.155 44.722 99.106-33.43c8.539-2.88 17.804 1.69 20.673 10.198l77.478 229.689c2.87 8.508-1.733 17.757-10.271 20.637l-99.107 33.43c-8.538 2.88-17.803-1.691-20.673-10.199L18.883 65.359c-2.87-8.508 1.734-17.757 10.272-20.637"/>
  <path fill="#fff" d="m142.612 22.737 77.477 229.688c1.746 5.174-1.057 10.805-6.249 12.556l-99.107 33.431c-5.192 1.751-10.837-1.03-12.582-6.204L24.673 62.519c-1.745-5.174 1.06-10.81 6.253-12.562l15.239-5.14a3.114 3.114 0 0 1 3.95 1.952l.645 1.912c1.292 3.832 5.458 5.886 9.303 4.59l48.782-16.456c3.85-1.299 5.915-5.455 4.623-9.287l-.645-1.911a3.12 3.12 0 0 1 1.96-3.947l15.244-5.142a9.9 9.9 0 0 1 7.074.276 9.84 9.84 0 0 1 5.506 5.934z"/>
  <path fill="#3F4D71" d="M89.387 35.14a1.39 1.39 0 0 1-.875 1.76l-19.199 6.475a1.39 1.39 0 0 1-1.761-.869 1.39 1.39 0 0 1 .875-1.758l19.199-6.476a1.39 1.39 0 0 1 1.761.869Zm6.962-2.349a1.39 1.39 0 0 1-.876 1.759 1.39 1.39 0 0 1-1.761-.87 1.39 1.39 0 0 1 .875-1.758 1.39 1.39 0 0 1 1.761.87Z"/>
  <path fill="#10131C" d="m161.108 65.222 2.646-.893a.705.705 0 0 1 .896.443l9.17 27.183a.706.706 0 0 1-.445.895l-2.647.893a.706.706 0 0 1-.896-.442l-9.17-27.184a.706.706 0 0 1 .446-.895M24.967 84.437l2.651-.894a.706.706 0 0 1 .897.442l2.622 7.773a.706.706 0 0 1-.446.895l-2.65.895a.706.706 0 0 1-.897-.443l-2.62-7.768a.706.706 0 0 1 .445-.895zm5.011 14.887 2.65-.894a.706.706 0 0 1 .898.442l5.446 16.148a.707.707 0 0 1-.445.896l-2.646.892a.706.706 0 0 1-.897-.442l-5.447-16.148a.707.707 0 0 1 .446-.895zm7.262 21.532 2.651-.894a.707.707 0 0 1 .897.443l5.447 16.148a.706.706 0 0 1-.445.895l-2.651.894a.706.706 0 0 1-.897-.442l-5.447-16.149a.707.707 0 0 1 .446-.895Z"/>
  <path fill="#1A1E2E" d="m28.882 43.925 99.106-33.43c8.538-2.88 17.803 1.69 20.673 10.198l77.478 229.689c2.87 8.508-1.734 17.757-10.272 20.637l-99.106 33.43c-8.538 2.88-17.803-1.691-20.673-10.199L18.61 64.562c-2.87-8.508 1.733-17.757 10.272-20.637"/>
  <mask id="a" width="197" height="283" x="24" y="16" maskUnits="userSpaceOnUse" style="mask-type:luminance">
    <path fill="#fff" d="m142.592 22.738 77.478 229.689c1.745 5.174-1.057 10.805-6.25 12.556l-99.106 33.431c-5.193 1.751-10.838-1.03-12.583-6.204L24.653 62.521c-1.745-5.174 1.06-10.81 6.253-12.562l15.24-5.14a3.114 3.114 0 0 1 3.95 1.952l.644 1.911c1.293 3.832 5.458 5.887 9.303 4.59l48.783-16.455c3.85-1.299 5.915-5.455 4.622-9.287l-.645-1.911a3.12 3.12 0 0 1 1.961-3.947l15.244-5.142a9.9 9.9 0 0 1 7.074.276 9.84 9.84 0 0 1 5.505 5.934z"/>
  </mask>
  <g mask="url(#a)">
    <path fill="#D9D9D9" d="m-16.704 42.428 188.392-61.951L268.35 274.48 79.96 336.432z"/>
  </g>
  <path fill="#FFDBD0" stroke="#D95200" d="M69.437 161.538c-6.752-7.237-30.203-8.381-41.085-8.048-1.278 2.42-3.637 8.128-2.85 11.603.983 4.343 9.732 18.798 14.863 21.289 5.131 2.49 28.023 2.787 31.972.066s5.54-15.863-2.9-24.91Z"/>
  <path fill="#FFDBD0" stroke="#D95200" d="M60.669 127.875c-6.752-7.238-28.805-8.066-39.687-7.733-1.278 2.419-2.705 7.708-2.546 11.572.183 4.449 4.777 18.225 9.908 20.715 5.131 2.491 31.275 3.076 35.224.356 3.95-2.72 5.54-15.864-2.9-24.91Zm15.136 106.182 10.356 29.614-2.212 2.327c-5.802-1.426-18.129-6.67-21.026-16.241s3.25-16.563 6.687-18.863z"/>
  <path fill="#FFDBD0" stroke="#D95200" d="M76.907 194.543c7.735 1.901 11.373 9.904 12.225 13.668 3.54 15.635.934 16.225.459 18.158-.475 1.934-11.177 7.096-17.65 6.736-6.474-.361-17.044-10.752-25.402-23.469-6.686-10.174-4.774-18.399-2.982-21.239l21.354 1.557c.776.738 4.261 2.688 11.996 4.589Zm121.122-59.855c-5.002-3.394-16.69-24.005-21.908-33.886l35.819 106.482c4.068-13.474 11.593-42.663 9.15-51.625-3.053-11.203-16.807-16.729-23.061-20.971Z"/>
</svg>
