<svg xmlns="http://www.w3.org/2000/svg" width="68" height="82" fill="none" viewBox="0 0 68 82">
  <path fill="#00B250" stroke="#231F20" stroke-linecap="round" stroke-linejoin="round" d="M9.319 3.686 1.553 33.317a100 100 0 0 1 9.621 3.783l-.144.178.053.13.683-.036a3.842 3.842 0 0 1 6.837 3.49A98 98 0 0 1 30.95 49.06c12.987 10.126 20.743 21.425 25.036 28.956l-.104.876.026.235.683-.036.767-2.352c-.248-.193-.429-.586-.453-1.05-.027-.516.151-.967.425-1.16l.03.125.684-.035.558-1.713c-.203-.212-.343-.564-.364-.97-.025-.477.125-.9.364-1.115l.004.007.682-.036.566-1.732c-.221-.203-.382-.574-.404-1.006-.027-.503.14-.942.4-1.144l.01.069.684-.036.608-1.87c-.21-.209-.358-.567-.38-.984-.025-.488.13-.916.375-1.125l.008.028.683-.036.66-2.015c-.23-.202-.395-.58-.417-1.02-.027-.503.14-.945.403-1.145l.017.08.683-.036.579-1.767c-.199-.212-.334-.557-.355-.954-.025-.485.128-.91.371-1.121l.665-.035.555-1.7c-.19-.217-.325-.557-.346-.95-.025-.485.13-.914.378-1.125l.655-.034.763-2.349c-3.034-6.57-9.487-18.256-22.018-28.644a81.2 81.2 0 0 0-16.253-10.48l-.683.035s.194.183.434.406a3.845 3.845 0 0 1-7.06-1.9 3.8 3.8 0 0 1 .256-1.582A82.4 82.4 0 0 0 9.453 3.177l-.683.036.549.475z"/>
  <path stroke="#231F20" stroke-dasharray="20 10" stroke-miterlimit="10" d="m23.75 11.724-7.229 23.99"/>
  <path fill="#fff" fill-rule="evenodd" d="M52.346 40.472c-.022-.001-.262.217-.535.484l-.491.483q.43.475.853.952l.48-.458c.333-.32.483-.484.483-.535.005-.08-.716-.925-.79-.926M38.272 29.043c-.726-.349-1.317-.391-1.986-.15-.21.077-.508.238-.68.368a2.2 2.2 0 0 0-.515.56l-1.338 2.089c-1.71 2.672-1.688 2.634-1.785 3.47-.09.775.166 1.6.689 2.252.241.3.827.755 1.209.94.871.42 1.796.366 2.549-.16.408-.287 1.053-1.082 2.489-3.08 1.018-1.416 1.167-1.64 1.282-1.928.428-1.067.28-2.168-.454-3.161a4.3 4.3 0 0 0-1.464-1.2zm-10.566-1.932a143 143 0 0 0-4.536-2.972l-.517 1.115q2.293 1.444 4.492 2.948-1.025 1.994-2.02 3.935.618.412 1.23.829l1.975-3.677q.584.423 1.157.85-.09 1.192-.193 2.36c-.112 1.271-.202 2.334-.182 2.384.041.105 1.21.976 1.242.924.011-.017.144-1.09.28-2.407.137-1.337.24-2.458.245-2.467.005-.01.17.007.367.038.688.108 1.414-.132 2.006-.668.305-.277.957-1.336 1.082-1.769.16-.545.176-1.05.048-1.63-.13-.594-.293-.925-.7-1.414-.238-.28-.401-.427-1.955-1.57q-.858-.63-1.734-1.251-1.162 2.253-2.288 4.443l.002-.001Zm17.256 9.75q.609.585 1.207 1.17c1.049 1.038 1.17 1.184 1.149 1.243-.015.038-1.303 1.455-2.834 3.121l-2.712 2.955q.457.433.904.868 2.771-2.926 5.674-5.982.626.651 1.238 1.304l.948-.958a121 121 0 0 0-4.674-4.78q-.45.532-.899 1.057zm5.29 17.55a93 93 0 0 1 2.811 3.574l.945-.687a93 93 0 0 0-2.064-2.721l2.057-1.581a91 91 0 0 1 4.278 5.974l.85-.54a92 92 0 0 0-4.273-6.067l2.308-1.795a99 99 0 0 1 2.169 3.016l1.025-.718a99 99 0 0 0-2.96-4.112 4755 4755 0 0 0-7.145 5.657ZM38.857 31.452c.151.305.217.662.175.933-.027.173-.146.35-1.69 2.533-1.54 2.177-1.628 2.295-1.786 2.384-.465.263-1.03.168-1.567-.256-.572-.452-.85-1.12-.687-1.668.1-.337 2.911-4.621 3.185-4.839.24-.193.552-.28.837-.235.402.064.58.159 1.009.535.336.297.409.383.524.612zM32.758 26.7c.176.306.244.61.216.942-.032.364-.488 1.22-.792 1.491-.336.302-.677.376-1.114.246-.154-.045-.41-.21-1.125-.706q-.466-.323-.936-.643l1.646-3.058q.498.37.99.741c.938.712.982.757 1.114.986h.001Zm10.755 22.432q.394.397.783.798 1.661-1.588 3.367-3.213c1.908-1.818 3.51-3.35 3.522-3.372.012-.023-.142-.221-.397-.502q-.21-.233-.423-.465a4489 4489 0 0 0-6.851 6.754zm8.52-4.795c-.036.014-1.407 1.268-3.017 2.766l-2.859 2.658q.422.45.835.902 1.834-1.642 3.717-3.322l-.094.275a96 96 0 0 1-.997 2.59c-.496 1.241-.916 2.277-.917 2.33-.002.085.049.157.344.5.189.218.374.42.413.446l.07.047q1.869-1.528 3.786-3.09-.384-.473-.775-.945-.853.702-1.696 1.4a150 150 0 0 0 2.181-5.474l-.46-.554c-.406-.485-.475-.55-.532-.528v-.001Zm-9.387-4.753c-.993 1.17-1.603 1.864-1.733 1.971q-.56.462-1.278.132c-.608-.28-1.111-.99-1.073-1.523.03-.407.055-.446 1.111-1.812.736-.95.993-1.305.978-1.35-.01-.032-.239-.255-.509-.494l-.494-.433-1.077 1.44c-1.03 1.381-1.062 1.427-1.148 1.698-.156.483-.19.82-.142 1.29.08.752.398 1.31 1.068 1.895.671.588 1.231.809 1.95.763.454-.028.767-.124 1.184-.367q.255-.15 1.979-2.093.874-.987 1.762-1.985-.503-.489-1.014-.975-.788.925-1.566 1.842h.002Z" clip-rule="evenodd"/>
</svg>
