<svg xmlns="http://www.w3.org/2000/svg" width="76" height="58" fill="none" viewBox="0 0 76 58">
  <path fill="#00B250" stroke="#231F20" stroke-linecap="round" stroke-linejoin="round" d="M12.487 32.577c.746-1.03.391-2.363-.662-3.235A223 223 0 0 1 39.544 4.917l3.716 3.948c-.66.694-.553 1.922.257 2.794.818.881 2.052 1.071 2.79.442l2.825 3.002q-.053.04-.103.087c-.73.68-.646 1.96.19 2.86s2.106 1.078 2.838.399a2 2 0 0 0 .114-.118l2.431 2.583c-.516.71-.372 1.832.382 2.645.763.821 1.888 1.042 2.633.558l2.174 2.308c-.551.708-.417 1.857.352 2.685.776.837 1.929 1.05 2.674.53l1.897 2.014c-.458.713-.3 1.789.43 2.574.739.794 1.816 1.027 2.561.603l2.021 2.146c-.366.675-.267 1.554.305 2.17.578.622 1.462.783 2.164.453l2.9 3.079c-8.664-.062-15.36 1.239-19.95 2.478-4.987 1.347-8.638 2.801-17.497 5.546l-.003-.002s-2.763-1.762-4.91-1.005c-1.732.611-1.466 1.795-.461 2.75-2.273.663-4.169 1.19-5.533 1.563L4.215 37.674A222 222 0 0 1 8.021 33.4c1.303.824 3.554.432 4.465-.824Z"/>
  <path fill="#00B250" d="M32.49 49.79c-.127.057-20.329-16.855-20.329-16.855z"/>
  <path stroke="#231F20" stroke-miterlimit="10" d="M32.49 49.79c-.014.006-.258-.183-.683-.524"/>
  <path stroke="#231F20" stroke-dasharray="20.46 10.23" stroke-miterlimit="10" d="M31.122 48.71c-3.835-3.127-14.623-12.145-17.964-14.94"/>
  <path stroke="#231F20" stroke-miterlimit="10" d="m12.823 33.488-.66-.553"/>
  <path fill="#fff" fill-rule="evenodd" d="M25.005 31.705a4 4 0 0 0-.232.614c-.353 1.226.007 2.27 1.123 3.31.408.38.43.407.363.446-.055.034-.125 0-.341-.168-.897-.692-1.912-.947-2.8-.722-.376.095-.94.486-1.08.742-.238.44.03.822.556.792.254-.014.826-.256 1.003-.425.188-.18.687-.373 1.015-.387.457-.022 1.252.238 1.386.456.03.048.04.14.02.203-.059.2.058.746.22 1.034.185.326.578.742.904.956.516.339 1.182.532 1.622.466l.193-.029.047.252c.062.336.236.687.375.76.138.074.531.17.76.186l.18.014-.139-.142a.93.93 0 0 0-.411-.228c-.219-.069-.277-.103-.301-.18-.05-.153.09-.179.271-.05.473.341 1.811 1.742 1.816 1.902 0 .026-.113.037-.252.023-.384-.036-.75.161-.807.43-.024.11-.016.235.016.279.055.072.122.054.8-.216l.766-.306-.396-.502c-.415-.53-.605-.873-.505-.917s.416.219.902.743l.456.492.787-.313c.445-.178.809-.347.801-.375-.022-.074-.473-.19-.746-.192-.303-.003-.62.127-.736.299-.05.073-.096.135-.102.138-.007.002-.478-.455-1.045-1.014-.565-.556-1.075-1.04-1.134-1.073-.15-.086-.07-.2.104-.149.12.035.14.057.21.217.073.172.39.534.444.51.082-.038-.138-.723-.278-.864-.117-.119-.461-.23-.908-.297-.193-.029-.182-.003-.15-.344.026-.26-.107-.714-.298-1.013-.527-.828-1.71-1.436-2.494-1.294-.373.067-.47.042-.68-.171-.556-.565-.703-1.273-.434-2.144.092-.301.184-.663.204-.802.113-.803-.06-1.37-.445-1.447-.174-.035-.472.203-.628.5zm10.939-1.451c-.084.254-.04.453.215.952.607 1.19 2.88 3.574 3.811 3.99.892.397 1.99-.01 2.15-.83.095-.482-.127-1.05-.613-1.567-.294-.312-.454-.434-.701-.536a1.86 1.86 0 0 0-1.275-.016c-.381.14-.504.034-.84-.715-.148-.33-.399-.85-.556-1.153-.256-.49-.316-.565-.523-.655-.498-.218-1.533.12-1.668.53m-5.91 4.276c-.072.08-.174.242-.23.36-.142.307-.156.29 1.104 1.32 1.808 1.477 2.975 2.302 3.242 2.288.163-.008.143-.348-.047-.778l-.185-.42.538.132c1.46.356 2.43.346 2.418-.039-.009-.293-.552-1.014-.855-1.136-.148-.06-.474-.018-.693.087-.176.084-.443.111-.426.044.004-.015.053-.17.11-.343.148-.451.055-.814-.314-1.215-.365-.399-.819-.638-1.478-.782-1.195-.263-2.743-.016-3.185.482Zm12.07-7.037c-.27.306-.437.771-.377 1.047.056.257.118.327.87.968l.814.695-.174.091c-.24.127-.228.395.03.71.257.313.505.36.889.168.22-.11.264-.104.522.076 1.581 1.106 2.242 1.458 2.515 1.335.46-.207.713-1.086.364-1.29a2 2 0 0 1-.229-.149c-.026-.023-.203-.034-.39-.022q-.337.02-.48-.114c-.323-.305-.34-.455-.085-.779.291-.37.252-.543-.222-.986-.32-.298-.478-.346-.975-.297-.26.026-.238.045-1.246-1.037-.357-.383-.746-.753-.864-.823-.192-.114-.25-.107-.52.06a2.4 2.4 0 0 0-.444.346zm-14.002 9.191c.28.065.53.48.35.579-.083.045-.445-.061-.54-.157-.228-.231-.112-.492.19-.422m5.817-3.282c-.15.14-.084.28.322.687.568.569.784.645 1.5.53.72-.118.869-.035.734.411-.226.754-.132 1.132.338 1.366.32.158.712.199 1.301.13 1.132-.131 1.216-.361.536-1.54-.658-1.139-1.39-1.975-1.946-2.225-.651-.292-2.175.07-2.784.641Zm5.83-3.149c-.382.433.033.975.706.92.467-.038 1.499-.43 1.662-.637.122-.154.11-.18-.285-.554-.582-.552-.786-.58-1.43-.207-.258.15-.552.364-.652.478ZM27.328 37.39c.262.063.467.368.353.52-.12.161-.61-.104-.659-.355-.024-.122.133-.207.307-.164v-.001Zm18.657-10.172c-.136.24-.275.571-.308.737-.054.268-.012.356.384.799.575.645 1.181 1.127 1.47 1.167.125.018.713-.11 1.316-.287.613-.18 1.17-.323 1.229-.315.058.007.147.143.196.301.075.236.033.328-.233.52-.275.198-.297.256-.16.418.125.146.29.204.74.257.723.086 1.643.034 2.188-.127.375-.111.42-.155.447-.442.061-.665-1.33-2.593-2.65-3.668-1.075-.875-1.337-.92-2.18-.393l-.406.255.687.732c1.116 1.187 1.148 1.333.312 1.366l-.434.018-.381-.457a14 14 0 0 0-.953-.99c-.56-.521-.574-.529-.793-.43-.122.054-.335.298-.472.54l.001-.002Zm-5.192 4.36c-.145.208.204.499.59.49.386-.008.514.116.869.833.304.615.488.827.807.93.313.099 1.121.052 1.54-.093.363-.126.365-.13.243-.403-.268-.597-1.44-1.923-1.982-2.243-.167-.098-.346-.12-.675-.083-.495.057-1.251.368-1.392.57zm-7.588 4.318c.388 0 .591.24.408.482-.18.235-.22.23-.456-.054-.322-.384-.317-.428.05-.428zm-3.594 2.58c.14.04.337.25.33.352-.006.068-.042.08-.187.06-.17-.023-.178-.018-.176.111.003.172-.092.217-.263.128-.312-.163-.324-.395-.018-.376.087.005.118-.026.124-.126.01-.155.052-.188.19-.149m10.654-4.944c.304-.038.548.14.414.302-.13.16-.46.323-.523.261a1.6 1.6 0 0 1-.157-.25c-.114-.216-.067-.272.265-.313ZM37.646 35.3c.202.001.477.25.447.406-.015.079-.091.122-.28.16-.28.055-.395-.025-.467-.327-.041-.17.046-.24.3-.239m6.28-.404c.05.116.133.219.184.229.115.023.116-.337 0-.446-.15-.145-.277.003-.185.217Zm7.118-3.182c.014.225.144.382.27.328.124-.054.113-.525-.015-.565q-.275-.083-.255.238Zm-14.909 6.759c-.373.303-.434.407-.316.526.092.091.121.092.247 0l.143-.105.287.322c.214.24.35.355.533.445.304.152.393.12.429-.154.022-.173.002-.224-.103-.252-.139-.038-.43-.304-.569-.52-.073-.113-.057-.135.124-.173.187-.04.2-.06.116-.186-.215-.322-.403-.3-.89.096Zm2.704-1.137c.01.036.154.175.322.309.217.174.285.254.237.274-.125.05-.097.397.04.533.096.093.22.14.43.159.609.055.627-.1.091-.84-.434-.6-.629-.721-.936-.588-.11.049-.193.117-.184.153m2.673-1.137c-.07.103-.037.165.209.404.342.332 1.055.849 1.13.819.028-.012.018-.08-.022-.153l-.075-.132.266.055c.364.077.39.05.166-.168-.106-.102-.18-.235-.164-.296.048-.183-.11-.27-.325-.18-.19.079-.202.074-.54-.226-.371-.33-.49-.352-.644-.122Zm.902-.226c.123.09.435.342.695.56.632.533.719.582.7.393-.008-.082-.088-.218-.177-.304-.09-.086-.135-.168-.101-.182.092-.038.286.083.387.243.065.101.165.15.363.177.152.02.296.03.323.02.07-.025-.147-.412-.333-.59-.185-.179-.678-.276-.887-.19-.1.043-.153.01-.336-.206-.197-.232-.238-.253-.414-.223-.42.072-.458.125-.218.3zm6.73-2.84c.16.117.556.414.882.663s.639.462.692.472c.153.028.083-.211-.118-.402q-.179-.17-.05-.226c.098-.04.189.005.346.172.152.16.292.234.484.25.383.034.407.013.277-.255-.253-.524-.673-.729-1.234-.604-.26.058-.297.042-.537-.22-.228-.249-.285-.275-.497-.234-.521.102-.555.157-.244.384Zm-5.33 2.605c.182.152.28.193.402.164.299-.071.392 0 .341.265-.054.286.072.395.446.385.604-.016.63-.297.079-.917-.275-.309-.33-.344-.57-.365a1.4 1.4 0 0 0-.604.123l-.335.143zm6.919-3.04c.249.232.468.312.647.238.28-.118.458.011.357.259-.12.294.09.496.493.472.41-.024.646-.122.658-.275.016-.193-.494-.974-.723-1.11-.263-.155-.7-.12-1.203.096-.356.152-.377.181-.23.32Zm-2.63 1.056c-.096.089 1.268 1.243 1.537 1.3.206.044.204-.032-.018-.443-.037-.07.03-.191.15-.27.346-.224.082-.667-.48-.805-.283-.07-1.024.067-1.189.218M37.741 38.28c.004.056.068.14.142.186.145.092.298.47.222.547q-.09.094-.323-.335c-.142-.263-.195-.293-.377-.216-.152.064-.112.19.173.539.273.334.436.385.714.22.105-.062.24-.1.304-.084.156.042.066-.127-.166-.312-.098-.078-.16-.15-.136-.16.062-.025-.193-.415-.319-.486-.133-.077-.246-.029-.236.1zm7.425-3.002c-.108.12-.09.148.265.435.21.169.47.325.576.348.168.035.174.003.04-.25-.173-.326-.107-.485.116-.275.45.424.824.44.522.02-.236-.33-.125-.385.257-.125.66.448.73.384.317-.302-.31-.514-.499-.6-.792-.357-.284.234-.831.452-.96.385-.137-.07-.182-.055-.342.122Zm-5.174 2.32c.066.202.434.564.588.577.222.02.751-.13.76-.217.003-.044-.1-.203-.232-.352-.305-.35-.521-.41-.896-.253-.205.086-.255.142-.22.246Zm9.325-3.585a.08.08 0 0 1-.004.117c-.036.032-.115.013-.175-.043s-.057-.109.004-.117c.062-.008.14.01.175.043m-8.68 3.62c.185.005.38.143.27.188-.126.05-.416.012-.495-.065q-.139-.136.225-.125v.001Zm-.816.543c.07.068.046.142-.044.133-.095-.008-.136-.121-.056-.154a.1.1 0 0 1 .1.02Zm5.253-2.04c.174.066.12.242-.06.203-.15-.033-.226-.175-.116-.22.034-.014.114-.007.176.016zm7.287-2.955c.174.056.134.251-.05.248-.153-.004-.282-.213-.162-.263a.4.4 0 0 1 .212.014Zm-13.98 6.237c.01.04.07.086.13.103.145.039.26-.09.145-.161-.118-.073-.3-.035-.275.058" clip-rule="evenodd"/>
</svg>
