<svg xmlns="http://www.w3.org/2000/svg" width="102" height="86" fill="none" viewBox="0 0 102 86">
  <path fill="#00B250" stroke="#231F20" stroke-linecap="round" stroke-linejoin="round" d="m94.864 68.407-.052.051-.838-37.069c-4.197.295-9.08.462-14.54.32l.1-.207-.562-.587-.52.767a3 3 0 0 1-.212.604c-.76 1.57-2.766 2.172-4.484 1.341-1.004-.485-1.688-1.351-1.93-2.302a156 156 0 0 1-17.862-2.394c-16.56-3.2-29.926-8.544-39.358-13.117l-.473-1.02-.161-.312-.519.767-.331 2.007q.04.014.078.033c.637.307.926 1.03.644 1.611a1 1 0 0 1-.16.238l-.423-.372-.519.768q-.136.837-.278 1.675.027.009.056.024c.638.307.926 1.03.645 1.612-.052.11-.123.205-.204.288l-.353-.422-.519.768-.28 1.684q.013.004.023.01c.637.307.926 1.03.645 1.612a1 1 0 0 1-.131.202l-.392-.335-.519.767-.294 1.773q.072.025.143.059c.637.307.926 1.03.645 1.611-.1.205-.256.363-.445.472l.085-.255-.29-.352-.52.767-.285 1.714a1 1 0 0 1 .093.04c.637.307.926 1.03.645 1.613-.088.184-.226.33-.389.435l.09-.282-.298-.288-.519.767-.292 1.753q.11.03.216.082c.637.307.926 1.03.645 1.612a1.1 1.1 0 0 1-.22.306l-.504-.452-.52.768-.28 1.698q.077.025.151.06c.637.308.926 1.03.645 1.612-.086.179-.218.32-.374.426l.038-.3-.324-.264-.518.768-.288 1.74q.141.031.275.097c.637.307.926 1.03.645 1.613-.097.2-.25.355-.433.462l-.22-.437-.132-.18-.52.767-.287 1.733c.134.018.27.058.4.121.638.308.926 1.03.645 1.613a1.1 1.1 0 0 1-.499.503l-.41-.688-.52.768-.301 1.823c10.6 4.895 25.798 10.66 44.622 13.882a173 173 0 0 0 20.088 2.247l.519-.767-.4-.113q.065-.225.17-.441c.758-1.57 2.765-2.172 4.485-1.342 1.208.584 1.952 1.72 2.022 2.89 6.074.08 11.518-.172 16.216-.56l.519-.768-.487-.122z"/>
  <path stroke="#231F20" stroke-dasharray="20 10" stroke-miterlimit="10" d="m75.694 33.982-.732 32.612"/>
  <path fill="#fff" d="M26.128 35.77a.94.94 0 0 0 .371-.932.95.95 0 0 0-.67-.75 215 215 0 0 1-6.17-1.967l-.59 1.76q2.229.75 4.47 1.446a223 223 0 0 1-6.123 4.211.91.91 0 0 0-.403.918 1 1 0 0 0 .683.783q3.211 1.06 6.445 2.022l.524-1.782q-2.306-.685-4.6-1.421a223 223 0 0 0 6.062-4.287l.001-.002Zm16.368 4.521c-2.013-.429-4.025.807-4.49 2.8-.466 1.99.857 4.01 2.954 4.457 2.096.449 4.117-.857 4.498-2.866s-.948-3.96-2.962-4.39Zm-1.153 5.44c-1.036-.223-1.697-1.222-1.476-2.218.222-.997 1.227-1.622 2.243-1.405s1.68 1.198 1.478 2.2c-.202 1-1.21 1.644-2.245 1.422Zm9.875-3.767c-2.026-.345-3.983.974-4.366 2.985q-.596 3.188-1.185 6.378.965.18 1.931.355l.57-3.229a3.9 3.9 0 0 0 1.817.826c2.111.36 4.073-1.027 4.372-3.05s-1.11-3.916-3.137-4.264zm-.927 5.483c-1.043-.177-1.744-1.15-1.563-2.153.18-1.005 1.158-1.671 2.18-1.497s1.725 1.128 1.566 2.136-1.14 1.692-2.182 1.515v-.002Zm19.301-3.162a310 310 0 0 1-2.398 4.417 290 290 0 0 1-1.467-4.771q-1.005-.102-2.01-.212 1.047 3.641 2.197 7.273a332 332 0 0 1-1.73 3.028 230 230 0 0 0 2.123.209 317 317 0 0 0 5.316-9.787q-1.016-.073-2.03-.157Zm-7.204 4.876.62-5.524q-.93-.106-1.861-.22l-.082.672a3.5 3.5 0 0 0-1.94-.92c-1.942-.257-3.762 1.143-4.067 3.167s1.086 3.91 3.11 4.177a3.57 3.57 0 0 0 2.563-.646 2.22 2.22 0 0 0 1.729 1.172l.681.075.198-1.847q-.475-.052-.951-.107zm-3.805-.465c-1.049-.138-1.783-1.077-1.64-2.087.142-1.011 1.089-1.712 2.116-1.577 1.026.134 1.76 1.056 1.64 2.07-.12 1.012-1.068 1.732-2.116 1.594M32.782 43.72l1.37-5.39a214 214 0 0 1-1.82-.474l-.173.656a3.54 3.54 0 0 0-1.803-1.18c-1.897-.522-3.898.614-4.477 2.577-.579 1.96.548 4.024 2.524 4.568a3.6 3.6 0 0 0 2.636-.286 2.23 2.23 0 0 0 1.56 1.398l.667.17.448-1.804q-.465-.116-.93-.236zm-3.72-.986c-1.023-.28-1.625-1.313-1.346-2.294.278-.98 1.316-1.545 2.32-1.27 1.002.275 1.607 1.29 1.349 2.278-.259.987-1.299 1.567-2.322 1.286Zm7.236 1.854a3402 3402 0 0 1 1.71-7.212q-.908-.216-1.813-.44a3157 3157 0 0 0-1.709 6.934c-.282 1.141.46 2.309 1.658 2.592l.675.16.418-1.812-.94-.222z"/>
</svg>
