<svg xmlns="http://www.w3.org/2000/svg" width="103" height="119" fill="none" viewBox="0 0 103 119">
  <path fill="#00B250" stroke="#231F20" stroke-linecap="round" stroke-linejoin="round" d="m90.152 104.636 5.333-40.514c-3.85-.771-8.374-1.85-13.365-3.4l.16-.26-.091-.162-.898.161a5.124 5.124 0 0 1-9.774-1.073c-.15-.83-.09-1.648.143-2.405a131 131 0 0 1-17.71-8.791C35.074 36.959 22.923 23.298 15.984 14.047l-.008-1.176-.074-.308-.898.162-.623 3.24c.361.215.666.706.775 1.315.122.679-.038 1.305-.37 1.606l-.06-.16-.898.16-.453 2.36c.304.247.547.69.643 1.223.113.629-.014 1.213-.295 1.537l-.006-.008-.898.161-.46 2.387c.327.232.601.696.703 1.264.12.661-.028 1.27-.337 1.581l-.027-.09-.898.162-.493 2.577c.314.24.569.69.667 1.238.115.642-.018 1.234-.308 1.552l-.015-.035-.898.161-.537 2.776c.338.23.618.703.722 1.282.119.661-.028 1.274-.343 1.582l-.036-.103-.898.161-.47 2.436c.297.248.534.682.628 1.204.114.638-.018 1.225-.304 1.545l-.875.157-.45 2.343c.288.255.523.683.616 1.2.115.637-.02 1.23-.312 1.552l-.86.154-.62 3.236c5.113 8.19 15.604 22.58 33.922 34.236a108.3 108.3 0 0 0 23.262 11.16l.898-.16-.642-.466a5.13 5.13 0 0 1 9.662 1.336 5 5 0 0 1-.077 2.138 110 110 0 0 0 16.023 2.609l.898-.162-.805-.538z"/>
  <path fill="#00B250" d="M75.168 63.42c-.001.657-4.899 33.088-4.899 33.088z"/>
  <path stroke="#231F20" stroke-dasharray="20 10" stroke-miterlimit="10" d="M75.168 63.42c-.001.657-4.899 33.088-4.899 33.088"/>
  <path fill="#fff" d="M49.111 77.036c-3.492-3.808-7.09-6.329-10.242-7.99l15.057-4.933 2.926-.958-.571-5.358-.307-.06c-.327-.063-.66-.136-.989-.216-2.721-.656-5.41-1.804-7.993-3.414-2.902-1.81-5.524-4.105-7.793-6.824l-.228-.272-3.689 2.831.258.316a43 43 0 0 0 1.58 1.82 39.3 39.3 0 0 0 8.14 6.776c.69.43 1.396.838 2.106 1.217l-15.064 4.934-2.926.957.572 5.359.306.059c.326.064.659.137.99.216 2.722.657 5.412 1.806 7.992 3.415 2.903 1.809 5.523 4.105 7.792 6.824l.228.272 3.69-2.83a44 44 0 0 0-1.837-2.14z"/>
</svg>
