<svg xmlns="http://www.w3.org/2000/svg" width="85" height="72" fill="none" viewBox="0 0 85 72">
  <path fill="#00B250" stroke="#231F20" stroke-linecap="round" stroke-linejoin="round" d="M66.788 26.233c-.517 1.209.147 2.47 1.409 3.107a231 231 0 0 1-22.333 30.972l-4.651-3.127c.505-.85.117-2.064-.9-2.757-1.026-.7-2.313-.608-2.912.195l-3.535-2.377q.044-.053.083-.112c.58-.852.201-2.123-.847-2.838-1.05-.715-2.37-.604-2.951.248a2 2 0 0 0-.088.145l-3.043-2.045c.357-.834-.045-1.932-.991-2.578-.958-.652-2.142-.618-2.782.042l-2.72-1.828c.393-.84-.005-1.967-.97-2.625-.975-.665-2.185-.616-2.817.08l-2.373-1.595c.298-.824-.109-1.872-1.024-2.496-.927-.631-2.066-.618-2.719-.02l-2.53-1.7c.215-.764-.086-1.627-.804-2.116-.725-.495-1.652-.454-2.284.04l-3.628-2.439c8.745-1.924 15.194-4.77 19.535-7.072 4.718-2.5 8.063-4.803 16.36-9.601l.004.001s3.189 1.142 5.179-.113c1.606-1.013 1.066-2.145-.166-2.877a352 352 0 0 1 5.217-2.844L73.954 19.2a229 229 0 0 1-2.855 5.179c-1.502-.532-3.68.38-4.31 1.854z"/>
  <path fill="#00B250" d="M42.456 13.625c.36-.258 24.332 12.608 24.332 12.608z"/>
  <path stroke="#231F20" stroke-dasharray="20 10" stroke-miterlimit="10" d="M42.456 13.625c.36-.258 24.332 12.608 24.332 12.608"/>
  <path fill="#fff" fill-rule="evenodd" d="M49.389 26.09a1.1 1.1 0 0 0-.44-.006c-.12.033-.24.168-.24.271 0 .04.032.125.071.186.127.201.413.357.71.389.515.053.728-.284.385-.594a1.5 1.5 0 0 0-.485-.246zm-3.21.873-.018.007a.35.35 0 0 0-.126.095l-.012.013a.4.4 0 0 0-.06.11q-.004.005-.004.012a.2.2 0 0 0-.009.047.3.3 0 0 0 .008.078l.01.04a.6.6 0 0 0 .048.115c.111.208.32.357.607.43.018.005.033.01.041.006q.01-.002.011-.015 0-.008-.004-.021l-.003-.016-.016-.04-.023-.056c-.033-.074-.085-.181-.157-.338l-.23-.49-.064.021.002.002Zm0 0-.018.007a.35.35 0 0 0-.126.095l-.012.013a.4.4 0 0 0-.06.11q-.004.005-.004.012a.2.2 0 0 0-.009.047.3.3 0 0 0 .008.078l.01.04a.6.6 0 0 0 .048.115c.111.208.32.357.607.43.018.005.033.01.041.006q.01-.002.011-.015 0-.008-.004-.021l-.003-.016-.016-.04-.023-.056c-.033-.074-.085-.181-.157-.338l-.23-.49-.064.021.002.002Zm1.767-3.391-.195.206.781.668.807.689-2.397-.545-.221.212c-.123.118-.218.222-.21.23.006.009.186.055.399.104l2.095.48 1.712.39.123-.15.12-.148-1.401-1.17a147 147 0 0 0-1.374-1.14l-.044-.03-.194.203Zm-5.35 5.373-.277.29.862.975c.49.554.902 1.024.905 1.033-.006.006-.688-.154-1.522-.356l-1.523-.369-.326.315c-.181.177-.325.331-.317.343.007.012 1.055.275 2.331.588l2.329.57.68.78c.383.442.718.816.739.829.027.015.102-.071.31-.36l.27-.37L44.9 30.83c-1.103-1.218-1.98-2.17-1.997-2.17s-.155.129-.306.286v-.002Zm9.04-6.151c-1.334-.6-1.302-.587-1.627-.65-.249-.046-.56-.025-.746.053-.106.045-.262.199-.288.286a.53.53 0 0 0 .032.326l.039.102-.153-.063-.154-.064-.377.379 1.666.783 1.712.807.346-.424-.925-.43a32 32 0 0 1-1.034-.494 1.2 1.2 0 0 1-.386-.332c-.068-.105-.076-.154-.04-.234q.063-.142.31-.138c.24.002.257.008 1.466.551l1.079.486.166-.194.165-.19-1.25-.562zM40.563 34.69c-.322-.026-.686.048-1.36.281-.627.217-.81.254-.922.184-.09-.057-.123-.233-.06-.336.105-.175.333-.28.74-.339l.241-.035-.108-.44c-.105-.425-.107-.431-.21-.448-.289-.049-.905.088-1.232.275-.256.146-.567.474-.659.7-.152.367-.09.759.184 1.102.098.124.176.185.4.318.24.142.317.172.548.217.488.096.916.029 1.735-.268.644-.23.963-.236 1.066-.017.161.348-.266.71-.945.794-.21.025-.246.039-.23.086.008.031.08.266.155.522l.141.475.245-.002c.328-.002.814-.134 1.077-.293.18-.109.255-.18.492-.471.242-.297.28-.362.324-.534a1.24 1.24 0 0 0-.271-1.108c-.113-.134-.186-.189-.466-.356-.372-.223-.527-.277-.884-.305zm6.767-8.579c-.8-.265-1.603-.273-2.195-.018a1 1 0 0 0-.094.05c-.185.115-.423.338-.486.467a1 1 0 0 0-.011.806c.087.226.2.4.4.612.23.245.378.35.803.574.447.236.62.298 1.066.384.659.129 1.304.066 1.747-.163q.045-.023.085-.047c.194-.116.402-.364.47-.552l.01-.036c.141-.525-.167-1.104-.828-1.585a4.3 4.3 0 0 0-.969-.492zm.464 2.215-.033.01c-.35.109-.809.102-1.212-.02a2.7 2.7 0 0 1-.727-.365c-.337-.262-.519-.663-.45-.942a.4.4 0 0 1 .044-.11.5.5 0 0 1 .206-.216 1 1 0 0 1 .095-.052l.039-.016a2 2 0 0 1 .525-.124l.048-.003.2-.011.347.72c.292.603.37.744.408.74a.4.4 0 0 0 .157-.047.37.37 0 0 0 .19-.22.2.2 0 0 0 .006-.089l-.011-.052q-.008-.027-.019-.055-.01-.03-.023-.06a.8.8 0 0 0-.143-.21 2 2 0 0 0-.2-.16l-.121-.082.03-.17.003-.016.002-.015.004-.015.003-.015.007-.028q.004-.012.005-.023l.01-.022q.001-.01.005-.017.01-.023.017-.027c.044-.018.373.157.535.283.291.227.5.575.51.86q.007.16-.145.339c-.143.169-.153.18-.31.23l-.002.001zm-1.55-1.385-.064.022-.018.007a.35.35 0 0 0-.126.095l-.012.013a.4.4 0 0 0-.06.11q-.004.005-.004.012a.2.2 0 0 0-.009.047.3.3 0 0 0 .008.078l.01.04a.6.6 0 0 0 .048.115c.111.208.32.357.607.43.018.005.033.01.041.006q.01-.002.011-.015 0-.008-.004-.021l-.003-.016-.016-.04-.023-.056c-.033-.074-.085-.181-.157-.338l-.23-.49h.002Zm-5.669 4.755-.452-.255-.201.19-.204.192-1.419-.83-.71.668 1.438.855-.169.182-.17.185.455.282.46.284.36-.376 3.352 1.994.63-.772-3.304-1.933.392-.41-.457-.257v.001Zm1.148-4.038 5.314 2.854.504-.616-5.244-2.776zm-9.093 3.345-.31.253 2.438 3.487c1.494 2.134 2.807 4.022 2.804 4.034-.01.012-2.56-.572-5.663-1.295l-5.622-1.31-1.228 1c-.702.572-1.282 1.06-1.27 1.069s3.26.744 7.23 1.637l7.256 1.63.627-.787.604-.76-3.521-4.952a1409 1409 0 0 0-3.005-4.218c-.03-.036-.056-.02-.339.212z" clip-rule="evenodd"/>
  <path fill="#fff" d="M46.474 27.43c.073.157.124.266.156.339q.015.032.023.056.011.023.016.04.004.007.004.015.004.012.004.022 0 .012-.012.015c-.007.003-.022-.002-.04-.006-.288-.074-.496-.222-.608-.43l-.029-.062v-.002a.4.4 0 0 1-.028-.091.3.3 0 0 1-.009-.079.2.2 0 0 1 .01-.046q0-.007.003-.013a.26.26 0 0 1 .073-.123.33.33 0 0 1 .144-.102l.065-.022.23.49z"/>
  <path fill="#fff" d="M47.329 26.11c-.8-.265-1.603-.273-2.195-.018a1 1 0 0 0-.095.051c-.184.115-.423.338-.486.467q-.031.067-.053.139c-.06.205-.047.43.044.665.086.226.2.4.4.613.232.245.378.35.804.573.447.235.62.298 1.066.384.658.128 1.302.066 1.745-.162q.045-.022.085-.046c.194-.117.402-.364.47-.553q.007-.018.012-.037c.14-.525-.168-1.104-.828-1.584a4.3 4.3 0 0 0-.969-.492m.462 2.216q-.015.003-.032.01c-.35.108-.809.101-1.212-.02a2.7 2.7 0 0 1-.727-.366c-.336-.261-.518-.66-.45-.94l.007-.03a.4.4 0 0 1 .036-.082.5.5 0 0 1 .205-.215 1 1 0 0 1 .096-.052l.038-.017a2 2 0 0 1 .525-.123q.025 0 .048-.003l.201-.011.346.719c.292.603.37.745.408.74a.4.4 0 0 0 .158-.047.37.37 0 0 0 .19-.22.2.2 0 0 0 .008-.044.3.3 0 0 0-.014-.096.4.4 0 0 0-.018-.056q-.01-.03-.024-.06a.8.8 0 0 0-.142-.21 2 2 0 0 0-.2-.16l-.121-.082.03-.17.002-.015.003-.014.003-.016.004-.015.006-.027.006-.024.009-.021q.001-.011.005-.018.01-.022.017-.026c.045-.018.374.156.536.282.291.228.499.575.51.86q.006.16-.145.34c-.143.168-.154.18-.311.23h-.002z"/>
  <path fill="#fff" fill-rule="evenodd" d="M47.206 26.613c.043-.018.372.156.534.282.291.228.5.576.51.861q.007.16-.145.339c-.143.168-.153.18-.31.23.16-.05.194-.048.337-.218.152-.18.125-.192.119-.352-.011-.285-.219-.633-.51-.86-.162-.126-.49-.3-.535-.282m-.677-.137.346.719c.292.603.37.745.408.741-.037.003-.115-.138-.407-.742l-.346-.719-.201.012-.049.004q.025 0 .048-.003l.201-.011zm-.494.589a.5.5 0 0 1 .126-.094.35.35 0 0 0-.126.095Zm-.085.181a.3.3 0 0 0 .009.079.3.3 0 0 1 0-.125.2.2 0 0 0-.009.046m.674.666c.017.004.033.009.041.005a.1.1 0 0 1-.04-.007c-.287-.073-.496-.222-.608-.431h-.001c.111.209.32.357.608.431z" clip-rule="evenodd"/>
</svg>
