<svg width="242" height="65" viewBox="0 0 242 65" fill="none" xmlns="http://www.w3.org/2000/svg">
<path d="M106.773 65.002H106.769L106.771 65.001L106.773 65.002ZM109.599 61.9316C109.598 62.9157 109.356 63.6724 108.866 64.2051C108.381 64.7374 107.681 65.0006 106.771 65.001C106.307 65.0008 105.931 64.9328 105.644 64.7988V63.6436C105.996 63.7411 106.361 63.7939 106.741 63.7939C107.235 63.7939 107.608 63.6437 107.854 63.3428C108.101 63.0418 108.226 62.6063 108.226 62.041V51.2031H109.599V61.9316ZM86.1229 62.1064V62.1025H86.1308L86.1229 62.1064ZM165.829 51.2031C167.172 51.2032 168.168 51.4592 168.815 51.9756C169.459 52.488 169.782 53.2649 169.782 54.2979C169.782 55.7456 169.058 56.7174 167.609 57.2217L170.584 62.1064H168.989L166.363 57.6045H164.206L164.202 57.6006V62.1025H162.838V51.2031H165.829ZM66.0077 52.4111H61.3134V56.2705H65.7206V57.4697H61.3134V62.0977L61.3095 62.1025H59.9452V51.2031H66.0077V52.4111ZM71.8817 62.1025H70.5175V51.2031H71.8817V62.1025ZM79.4413 51.7314L83.0028 57.2627L84.8925 60.2236H84.953C84.9449 60.1057 84.9249 59.6783 84.8925 58.9463C84.8642 58.2145 84.8485 57.6818 84.8485 57.3564V51.207H86.1229V62.1025H84.537L78.7294 53.0537H78.6688L78.705 53.6553C78.7657 54.558 78.7938 55.3429 78.7938 56.0098V62.1025H77.5311V51.2031H79.1093L79.4413 51.7314ZM97.4179 52.4111H92.7235V55.8105H97.1425V57.002H92.7235V60.8945H97.4179V62.1025H91.3554V51.2031H97.4179V52.4111ZM120.793 52.4111H116.099V55.8105H120.517V57.002H116.099V60.8945H120.793V62.1025H114.73V51.2031H120.793V52.4111ZM147.933 52.4111H143.239V55.8105H147.658V57.002H143.239V60.8945H147.933V62.1025H141.871V51.2031H147.933V52.4111ZM153.962 60.8779H158.701V62.1025H152.598V51.2031H153.962V60.8779ZM135.03 62.0947V62.0986H133.65L131.537 54.957C131.225 53.8958 131.044 53.1759 130.987 52.8018C130.906 53.3752 130.736 54.1073 130.469 55.002L128.421 62.0986H127.041L124.172 51.1992H125.597L127.28 57.8564C127.507 58.7267 127.68 59.5891 127.798 60.4512C127.907 59.6379 128.102 58.7432 128.377 57.7754L130.291 51.1992H131.699L133.694 57.8242C133.949 58.6823 134.147 59.5567 134.289 60.4473C134.37 59.7601 134.544 58.89 134.815 57.8369L136.491 51.1953H137.916L135.03 62.0947ZM177.388 56.5557L177.391 56.5596L180.217 51.1992H181.685L178.072 57.8691V62.0947H176.7V57.9258L173.086 51.1953H174.575L177.388 56.5557ZM164.202 56.4375H165.824C166.702 56.4375 167.346 56.2625 167.755 55.917C168.159 55.5713 168.362 55.0504 168.362 54.3672C168.362 53.684 168.156 53.1794 167.747 52.8662C167.338 52.549 166.67 52.3946 165.752 52.3945H164.202V56.4375ZM14.1718 1.79688C14.0625 1.84568 13.8797 1.93969 13.6288 2.08203C13.1838 2.34238 12.7835 2.86271 12.4315 3.62695C12.0795 4.39957 11.8974 5.51778 11.8974 6.97754V38.8135C11.8973 40.9891 11.4196 42.9617 10.4686 44.7266C9.51357 46.4915 8.24251 47.8658 6.65614 48.8418C5.17089 49.7528 2.37811 50.2408 0.0955976 50.3018C-0.00930552 50.3055 -0.0373411 50.16 0.0594648 50.1152C1.79563 49.2937 3.17577 47.9147 4.21181 45.9951C5.33283 43.9129 5.89931 41.4399 5.89931 38.585V6.98242C5.89931 5.52243 5.70927 4.40356 5.3329 3.63086C5.01073 2.96204 4.6514 2.47978 4.26845 2.19531L4.10243 2.08203C3.85172 1.93168 3.66974 1.83759 3.56044 1.79688H14.1718ZM88.2431 33.2979L101.752 1.80469H110.506C110.077 1.87585 109.624 2.1838 109.143 2.73633L108.939 2.98828C108.377 3.70405 108.101 5.01345 108.101 6.92871V35.4902C108.101 37.3771 108.373 38.6703 108.939 39.3779C109.498 40.0977 110.024 40.4883 110.51 40.5615H99.8495C100.299 40.4883 100.784 40.0855 101.31 39.3535C101.837 38.6215 102.096 37.2551 102.096 35.2705V7.10352L87.4091 41.1797L72.496 7.15625V34.9775C72.496 37.0028 72.8239 38.4223 73.4755 39.2275C74.1271 40.0409 74.714 40.4805 75.2401 40.5537H66.7655C67.324 40.4846 67.9433 40.0574 68.619 39.293C69.2868 38.5203 69.6229 37.0881 69.6229 34.9814V6.76172C69.6229 4.95633 69.3071 3.72013 68.6718 3.04102C68.0364 2.37406 67.4009 1.95516 66.7655 1.80469H74.5077L88.2431 33.2979ZM146.423 33.2979L159.94 1.80469H168.685C168.257 1.87587 167.81 2.18364 167.325 2.73633L167.119 2.98828C166.565 3.70407 166.281 5.01351 166.281 6.92871V35.4902C166.281 37.377 166.561 38.6703 167.119 39.3779C167.686 40.0977 168.204 40.4883 168.689 40.5615H158.038C158.483 40.4882 158.969 40.0854 159.495 39.3535C160.013 38.6214 160.271 37.2549 160.271 35.2705V7.10352L145.585 41.1797L130.68 7.15625V34.9775C130.68 37.0027 130.999 38.4223 131.659 39.2275C132.311 40.0409 132.898 40.4805 133.424 40.5537H124.941C125.508 40.4846 126.119 40.0574 126.795 39.293C127.471 38.5203 127.807 37.0881 127.807 34.9814V6.76172C127.806 4.95628 127.487 3.72012 126.851 3.04102C126.216 2.37406 125.581 1.95516 124.945 1.80469H132.695L146.423 33.2979ZM237.224 35.1533C238.045 37.1866 238.837 38.5739 239.606 39.3223C240.367 40.0786 240.974 40.4853 241.428 40.5586H230.036C230.971 40.1072 231.44 39.4157 231.44 38.4766C231.44 37.6876 231.141 36.5608 230.546 35.0928L227.433 26.9795H213.41L210.233 34.4785C209.671 35.8653 209.395 37.0082 209.395 37.915C209.395 39.1513 209.954 40.0341 211.075 40.5547H202.281C202.658 40.5547 203.2 40.1842 203.912 39.4277C204.62 38.6794 205.442 37.1988 206.377 34.9824L222.702 0L237.224 35.1533ZM51.2255 7.44141C50.4849 5.35115 48.5383 4.05772 45.1796 4.05762H35.8349V38.3125H46.1259C47.7003 38.3125 49.076 38.0053 50.2421 37.3906L50.4686 37.2637C51.6867 36.5724 52.549 35.6775 53.0751 34.5918L52.0712 40.5576H27.6513C27.7645 40.5088 27.9106 40.4235 28.0927 40.3057C28.5419 40.0291 28.9427 39.459 29.2948 38.6172C29.6549 37.7754 29.829 36.543 29.829 34.9287V7.2666C29.829 5.72951 29.6549 4.55815 29.2948 3.75293C28.9387 2.9397 28.5378 2.39082 28.0927 2.08984C27.8822 1.9475 27.7244 1.85349 27.6151 1.80469H51.2255V7.44141ZM193.732 1.80469C193.623 1.84535 193.441 1.93939 193.19 2.08984C192.801 2.31755 192.433 2.74415 192.1 3.35938L191.968 3.63477C191.591 4.40746 191.401 5.5425 191.401 7.03906V35.3232C191.401 36.8198 191.591 37.963 191.968 38.7275C192.336 39.5002 192.749 40.0129 193.198 40.2812C193.441 40.4235 193.623 40.5088 193.732 40.5576H183.166C183.279 40.5088 183.425 40.4234 183.606 40.3057C184.051 40.0291 184.469 39.5001 184.837 38.7275C185.213 37.963 185.399 36.8198 185.399 35.3232V7.03906C185.399 5.54247 185.217 4.40746 184.865 3.63477C184.509 2.87033 184.108 2.35015 183.655 2.08984C183.412 1.9475 183.23 1.85349 183.121 1.80469H193.732ZM46.5751 13.8125C46.9434 16.0492 47.4817 18.1273 48.1454 18.7861C48.8051 19.449 50.8572 19.9903 53.079 20.3604L53.0741 21.1934C50.8567 21.5634 48.8013 22.1048 48.1415 22.7676C47.4778 23.4345 46.9395 25.517 46.5712 27.7578H45.7499C45.3776 25.5131 44.8392 23.4307 44.1796 22.7676C43.5159 22.1006 41.4353 21.5556 39.1933 21.1855V20.3682C41.4353 19.994 43.5159 19.4531 44.1796 18.7861C44.8391 18.123 45.3776 16.049 45.7499 13.8125H46.5751ZM214.653 24.0508H226.308L220.764 10.6309L214.653 24.0508Z" fill="white"/>
</svg>
